<svg width="18" height="18" viewBox="0 0 18 18" fill="none" xmlns="http://www.w3.org/2000/svg">
  <mask id="a" fill="#fff">
    <path fill-rule="evenodd" clip-rule="evenodd" d="M18 9A9 9 0 1 1 0 9a9 9 0 0 1 18 0zM8.1 5.878h1.8V4H8.1v1.878zm0 7.513h1.8V7.757H8.1v5.634z"/>
  </mask>
  <path fill-rule="evenodd" clip-rule="evenodd" d="M18 9A9 9 0 1 1 0 9a9 9 0 0 1 18 0zM8.1 5.878h1.8V4H8.1v1.878zm0 7.513h1.8V7.757H8.1v5.634z" fill="#1895FF"/>
  <path d="M9.9 5.878v2h2v-2h-2zm-1.8 0h-2v2h2v-2zM9.9 4h2V2h-2v2zM8.1 4V2h-2v2h2zm1.8 9.391v2h2v-2h-2zm-1.8 0h-2v2h2v-2zm1.8-5.634h2v-2h-2v2zm-1.8 0v-2h-2v2h2zM9 20c6.075 0 11-4.925 11-11h-4a7 7 0 0 1-7 7v4zM-2 9c0 6.075 4.925 11 11 11v-4a7 7 0 0 1-7-7h-4zM9-2C2.925-2-2 2.925-2 9h4a7 7 0 0 1 7-7v-4zM20 9C20 2.925 15.075-2 9-2v4a7 7 0 0 1 7 7h4zM9.9 3.878H8.1v4h1.8v-4zM7.9 4v1.878h4V4h-4zm.2 2h1.8V2H8.1v4zm2-.122V4h-4v1.878h4zm-.2 5.513H8.1v4h1.8v-4zm-2-3.634v5.634h4V7.757h-4zm.2 2h1.8v-4H8.1v4zm2 3.634V7.757h-4v5.634h4z" fill="#1895FF" mask="url(#a)"/>
</svg>
