<?xml version="1.0" encoding="UTF-8"?>
<svg width="24px" height="24px" viewBox="0 0 24 24" version="1.1" xmlns="http://www.w3.org/2000/svg" xmlns:xlink="http://www.w3.org/1999/xlink">
  <g id="google_maps_pin-copy" fill="#C6CCD4" transform="translate(5.000000, 0.000000)">
      <path d="M6.39693226,22.8712271 C6.1773815,21.4458945 5.89552363,19.1567451 5.29244843,17.4948677 C4.52640233,15.383896 2.18269738,11.7618287 1.29442193,10.4245777 C0.479371599,9.34560503 0,8.02558518 0,6.6 C0,2.95492065 3.13400675,0 7,0 C10.8659932,0 14,2.95492065 14,6.6 C14,8.02700766 13.5196713,9.34823921 12.7031373,10.4278068 C11.7864663,11.7956791 9.43646755,15.3992457 8.67599165,17.4948677 C8.07291645,19.1567451 7.78047549,21.4458945 7.56092473,22.8712271 L7.49103195,23.5431703 C7.46402894,23.8027748 7.24522514,24 6.98422004,24 C6.72259222,24 6.50265468,23.8035921 6.47317716,23.5436302 L6.39693226,22.8712271 Z M7,9 C8.1045695,9 9,8.1045695 9,7 C9,5.8954305 8.1045695,5 7,5 C5.8954305,5 5,5.8954305 5,7 C5,8.1045695 5.8954305,9 7,9 Z" id="Combined-Shape"></path>
  </g>
</svg>
