<svg width="155" height="155" fill="none" xmlns="http://www.w3.org/2000/svg">
  <path fill-rule="evenodd" clip-rule="evenodd" d="M50.54 131.62l21.73-27.6 8.83 11.57 18.86-23.15 30.08 39.18h-79.5zm-7.32-46.47a9.56 9.56 0 1 1 19.11-.02 9.56 9.56 0 0 1-19.1.02zm-13.6 61.03h114.4V61.84H29.62v84.34z" fill="#1895FF" fill-opacity=".25"/>
  <path clip-rule="evenodd" d="M23.14 147.72a4 4 0 0 0 4 4h119.37a4 4 0 0 0 4-4V60.31a4 4 0 0 0-4-4H27.14a4 4 0 0 0-4 4v87.41z" stroke="#1C3553" stroke-width="3.02" stroke-linecap="round"/>
  <path d="M17.06 80.34L6.39 52.58a4 4 0 0 1 2.29-5.16L120.06 4.4a4 4 0 0 1 5.18 2.3l17.03 44.28" stroke="#1C3553" stroke-width="3.02" stroke-linecap="round"/>
  <path clip-rule="evenodd" d="M60.75 83.95A10.16 10.16 0 1 1 50.6 73.78c5.6 0 10.15 4.55 10.15 10.17zm-9.97 46.19a2 2 0 0 0 1.57 3.24h76.38a2 2 0 0 0 1.59-3.22l-27.98-36.45a2 2 0 0 0-3.14-.04l-16.86 20.7a2 2 0 0 1-3.14-.06l-6.3-8.24a2 2 0 0 0-3.15-.03l-18.97 24.1z" stroke="#1C3553" stroke-width="3.02" stroke-linecap="round"/>
</svg>