<svg width="24" height="24" viewBox="0 0 24 24" fill="none" xmlns="http://www.w3.org/2000/svg">
<path fill-rule="evenodd" clip-rule="evenodd" d="M7 2C5.89543 2 5 2.89543 5 4V18C5 19.1046 5.89543 20 7 20H10C10.5523 20 11 19.5523 11 19V16H13V19C13 19.5523 13.4477 20 14 20H17C18.1046 20 19 19.1046 19 18V4C19 2.89543 18.1046 2 17 2H7ZM7 4H9V6H7V4ZM13 4H11V6H13V4ZM17 6V4H15V6H17ZM7 8H9V10H7V8ZM13 8H11V10H13V8ZM11 12H13V14H11V12ZM17 10V8H15V10H17ZM7 12H9V14H7V12ZM17 14V12H15V14H17Z" fill="#1C3553"/>
</svg>
