<svg width="24" height="24" viewBox="0 0 24 24" fill="none" xmlns="http://www.w3.org/2000/svg">
<path d="M20 3H12C11.45 3 11 3.45 11 4V5.61C11 5.61 11 5.61 11.01 5.62L16.01 10.12C16.64 10.68 17 11.5 17 12.35V13H19V15H17V17H19V19H17V21H20C20.55 21 21 20.55 21 20V4C21 3.45 20.55 3 20 3ZM15 7H13V5H15V7ZM19 11H17V9H19V11ZM19 7H17V5H19V7Z" fill="#1C3553"/>
<path d="M15 20V12.35C15 12.07 14.88 11.8 14.67 11.61L9.67 7.11C9.48 6.93 9.24 6.85 9 6.85C8.76 6.85 8.52 6.94 8.33 7.11L3.33 11.61C3.12 11.79 3 12.06 3 12.35V20C3 20.55 3.45 21 4 21H6C6.55 21 7 20.55 7 20V16H11V20C11 20.55 11.45 21 12 21H14C14.55 21 15 20.55 15 20Z" fill="#1C3553"/>
</svg>
