<svg width="24" height="24" viewBox="0 0 24 24" fill="none" xmlns="http://www.w3.org/2000/svg">
<path fill-rule="evenodd" clip-rule="evenodd" d="M19.9993 17.1004C19.9993 17.3235 19.7646 17.4685 19.5651 17.3688L18.4581 16.8152C18.3564 16.7644 18.2922 16.6605 18.2922 16.5469V5.63637C18.2922 4.69748 17.524 3.9293 16.5851 3.9293H8.3498C8.18411 3.9293 8.04705 3.79387 8.07584 3.6307C8.21662 2.83287 8.91123 2.22223 9.74833 2.22223H18.2922C19.2311 2.22223 19.9993 2.99041 19.9993 3.9293V17.1004ZM6.34312 5.63636H14.8785C15.8174 5.63636 16.5855 6.40454 16.5855 7.34343V20.545C16.5855 20.7604 16.3653 20.9056 16.1674 20.8208L10.729 18.49C10.6535 18.4577 10.5681 18.4577 10.4926 18.49L5.05422 20.8208C4.85626 20.9056 4.63605 20.7604 4.63605 20.545V7.34343C4.63605 6.40454 5.40423 5.63636 6.34312 5.63636Z" fill="#1C3553"/>
</svg>
