<svg width="24" height="24" viewBox="0 0 24 24" fill="none" xmlns="http://www.w3.org/2000/svg">
<path fill-rule="evenodd" clip-rule="evenodd" d="M19.9995 17.1004C19.9995 17.3234 19.7648 17.4685 19.5653 17.3687L18.4582 16.8152C18.3566 16.7644 18.2924 16.6605 18.2924 16.5469V5.63631C18.2924 4.69742 17.5242 3.92924 16.5853 3.92924H8.34998C8.18429 3.92924 8.04724 3.79381 8.07603 3.63064C8.2168 2.83281 8.91142 2.22217 9.74851 2.22217H18.2924C19.2313 2.22217 19.9995 2.99035 19.9995 3.92924V17.1004ZM6.3433 5.6363H14.8787C15.8175 5.6363 16.5857 6.40448 16.5857 7.34337V20.545C16.5857 20.7603 16.3655 20.9056 16.1675 20.8207L10.7292 18.49C10.6537 18.4576 10.5683 18.4576 10.4928 18.49L5.05441 20.8207C4.85645 20.9056 4.63623 20.7603 4.63623 20.545V7.34337C4.63623 6.40448 5.40441 5.6363 6.3433 5.6363Z" fill="#1C3553"/>
</svg>
