<svg width="24" height="24" viewBox="0 0 24 24" fill="none" xmlns="http://www.w3.org/2000/svg">
<path fill-rule="evenodd" clip-rule="evenodd" d="M18 11C18 8.01316 16.4476 5.4996 13.7297 4.73939C13.5959 4.70196 13.5 4.58192 13.5 4.44297V4C13.5 3.17 12.83 2.5 12 2.5C11.17 2.5 10.5 3.17 10.5 4V4.44577C10.5 4.58343 10.406 4.70271 10.2749 4.74478C10.1522 4.78417 10.0322 4.82834 9.91502 4.87149C9.86603 4.88946 9.85218 4.95218 9.88908 4.98908L17.4879 12.5879C17.6769 12.7769 18 12.643 18 12.3757V11ZM12 22C12.9985 22 13.8322 21.2585 13.9775 20.2989C14.0024 20.1351 13.8657 20 13.7 20H10.3C10.1343 20 9.99764 20.1351 10.0222 20.2989C10.1662 21.2585 10.9925 22 12 22ZM6.7117 7.76665C6.76835 7.64866 6.74708 7.50708 6.65453 7.41453L4.21213 4.97213C4.09497 4.85497 4.09497 4.66503 4.21213 4.54787L5.19787 3.56213C5.31503 3.44497 5.50497 3.44497 5.62213 3.56213L21.1779 19.1179C21.295 19.235 21.295 19.425 21.1779 19.5421L20.1921 20.5279C20.075 20.645 19.885 20.645 19.7679 20.5279L18.3279 19.0879C18.2716 19.0316 18.1953 19 18.1157 19H4.3C4.13431 19 4 18.8657 4 18.7V18.1243C4 18.0447 4.03161 17.9684 4.08787 17.9121L5.91213 16.0879C5.96839 16.0316 6 15.9553 6 15.8757V11C6 9.8124 6.25359 8.72099 6.7117 7.76665Z" fill="#1C3553"/>
</svg>
