<svg width="24" height="24" viewBox="0 0 24 24" fill="none" xmlns="http://www.w3.org/2000/svg">
<path d="M19.23 15.26L16.69 14.97C16.08 14.9 15.48 15.11 15.05 15.54L13.21 17.38C10.38 15.94 8.06004 13.63 6.62004 10.79L8.47004 8.94005C8.90004 8.51005 9.11004 7.91005 9.04004 7.30005L8.75004 4.78005C8.63004 3.77005 7.78004 3.01005 6.76004 3.01005H5.03004C3.90004 3.01005 2.96004 3.95005 3.03004 5.08005C3.56004 13.62 10.39 20.44 18.92 20.97C20.05 21.04 20.99 20.1 20.99 18.97V17.24C21 16.23 20.24 15.38 19.23 15.26ZM13 11H17C17.55 11 18 10.55 18 10C18 9.45005 17.55 9.00005 17 9.00005H15.41L19.72 4.69005C20.11 4.30005 20.11 3.67005 19.72 3.28005C19.33 2.89005 18.7 2.89005 18.31 3.28005L14 7.59005V6.00005C14 5.45005 13.55 5.00005 13 5.00005C12.45 5.00005 12 5.45005 12 6.00005V10C12 10.55 12.45 11 13 11Z" fill="#1C3553"/>
</svg>
