<svg width="24" height="24" viewBox="0 0 24 24" fill="none" xmlns="http://www.w3.org/2000/svg">
<path d="M2.04403 17.9404C1.96507 21.118 2.02147 17.8224 2.02147 21H21.5C21.0488 19.5804 20.916 18.6925 20.4873 17.2636C20.3745 16.8687 20.1828 16.7089 19.6639 16.7277C18.5246 16.7653 17.374 16.7371 16.2008 16.7371C15.8286 14.2552 15.4676 11.8109 15.1066 9.36662C15.0502 9.33842 14.9826 9.31962 14.9261 9.29142L14.926 9.29161C14.8358 9.45136 14.7456 9.61113 14.6329 9.80848C14.5426 9.64866 14.5201 9.62045 14.5088 9.59225C14.0237 7.25137 13.5387 4.9105 13.0875 2.56022C13.0198 2.24998 13.1326 1.91154 13.1551 1.5825C13.1777 1.5919 13.2115 1.5919 13.2341 1.6013C13.1551 1.41328 13.0649 1.22526 12.9634 1.00903C12.828 1.24406 12.7152 1.44148 12.625 1.6013C12.6926 1.73292 12.8167 1.85513 12.8167 1.98675C12.828 2.27818 12.8167 2.57902 12.7603 2.87045C12.4896 4.27122 12.1963 5.68139 11.9143 7.08215C11.7451 7.93765 11.5646 8.79316 11.3729 9.69566C11.1585 9.54524 11.0119 9.44183 10.7976 9.29142C10.4253 11.8109 10.0643 14.2552 9.70336 16.7183H8.65429C8.29332 14.2646 7.92107 11.8109 7.54882 9.31022C7.31194 9.47004 7.16529 9.56405 7.00737 9.67686C6.97353 9.59225 6.93969 9.55465 6.92841 9.50764C6.45463 7.20437 5.99214 4.9105 5.54093 2.60722C5.49581 2.35339 5.41684 2.00555 5.56349 1.82693C5.87934 1.44148 5.39428 1.30987 5.36044 1.05604C5.2702 1.25346 5.17996 1.44148 5.08972 1.62951C5.45069 1.96795 5.29276 2.4004 5.22508 2.78584C4.96563 4.20541 4.67234 5.62498 4.37906 7.04455C4.19857 7.90945 4.01809 8.78375 3.82632 9.69566C3.61199 9.54524 3.46535 9.45123 3.27358 9.31962C3.22846 9.52644 3.18334 9.68626 3.16078 9.83668C2.9803 11.0588 2.79981 12.2904 2.61933 13.5125C2.41628 14.9885 2.08915 16.4645 2.04403 17.9404Z" fill="#1C3553"/>
</svg>
