<svg width="20" height="16" viewBox="0 0 20 16" fill="none" xmlns="http://www.w3.org/2000/svg">
<path d="M7.99985 1V1.38C7.16985 1.05 6.27985 0.88 5.38985 0.88C3.96985 0.88 2.54985 1.31 1.33985 2.17C0.829845 2.53 0.769845 3.26 1.20985 3.7L3.77985 6.27H4.88985V7.38C5.74985 8.24 6.86985 8.69 7.99985 8.74V11H5.99985C5.44985 11 4.99985 11.45 4.99985 12V14C4.99985 15.1 5.89985 16 6.99985 16H16.9998C18.6598 16 19.9998 14.66 19.9998 13V1C19.9998 0.45 19.5498 0 18.9998 0H8.99985C8.44985 0 7.99985 0.45 7.99985 1ZM6.88985 6.41V4.26H4.60985L3.56985 3.22C4.13985 3 4.75985 2.88 5.38985 2.88C6.72985 2.88 7.97985 3.4 8.92985 4.34L10.3398 5.75L10.1398 5.95C9.62985 6.46 8.94985 6.75 8.21985 6.75C7.74985 6.75 7.28985 6.63 6.88985 6.41ZM17.9998 13C17.9998 13.55 17.5498 14 16.9998 14C16.4498 14 15.9998 13.55 15.9998 13V12C15.9998 11.45 15.5498 11 14.9998 11H9.99985V8.41C10.5698 8.18 11.0998 7.84 11.5598 7.38L11.7598 7.18L14.5898 10H15.9998V8.59L9.99985 2.62V2H17.9998V13Z" fill="#1C3553"/>
</svg>
