<svg width="24" height="24" viewBox="0 0 24 24" fill="none" xmlns="http://www.w3.org/2000/svg">
<path fill-rule="evenodd" clip-rule="evenodd" d="M13.5357 18.8254C13.356 18.0167 13.8659 17.2154 14.6746 17.0357C15.4732 16.8583 18 15.5126 18 11C18 10.1716 18.6716 9.5 19.5 9.5C20.3284 9.5 21 10.1716 21 11C21 16.8874 17.5268 19.4751 15.3254 19.9643C14.5167 20.144 13.7154 19.6341 13.5357 18.8254Z" fill="#1C3553"/>
<path d="M21 12H15C14.4477 12 14 11.5523 14 11V6C14 5.44772 14.4477 5 15 5H20C20.5523 5 21 5.44772 21 6V12Z" fill="#1C3553"/>
<path fill-rule="evenodd" clip-rule="evenodd" d="M2.53574 18.8254C2.35602 18.0167 2.86592 17.2154 3.67462 17.0357C4.47319 16.8583 7.00002 15.5126 7.00002 11C7.00002 10.1716 7.67159 9.5 8.50002 9.5C9.32844 9.5 10 10.1716 10 11C10 16.8874 6.52684 19.4751 4.32541 19.9643C3.51671 20.144 2.71545 19.6341 2.53574 18.8254Z" fill="#1C3553"/>
<path d="M10 12H4.00002C3.44773 12 3.00002 11.5523 3.00002 11V6C3.00002 5.44772 3.44773 5 4.00002 5H9.00002C9.5523 5 10 5.44772 10 6V12Z" fill="#1C3553"/>
</svg>
