<svg width="24" height="24" viewBox="0 0 24 24" fill="none" xmlns="http://www.w3.org/2000/svg">
<path fill-rule="evenodd" clip-rule="evenodd" d="M15.5 4L14.79 3.29C14.61 3.11 14.35 3 14.09 3H9.91C9.65 3 9.39 3.11 9.21 3.29L8.5 4H6C5.45 4 5 4.45 5 5C5 5.55 5.45 6 6 6H18C18.55 6 19 5.55 19 5C19 4.45 18.55 4 18 4H15.5ZM6 19C6 20.1 6.9 21 8 21H16C17.1 21 18 20.1 18 19V8C18 7.44771 17.5523 7 17 7H7C6.44772 7 6 7.44772 6 8V19ZM9 10C9.27614 10 9.5 10.2239 9.5 10.5V17.5C9.5 17.7761 9.27614 18 9 18C8.72386 18 8.5 17.7761 8.5 17.5L8.5 10.5C8.5 10.2239 8.72386 10 9 10ZM12.5 10.5C12.5 10.2239 12.2761 10 12 10C11.7239 10 11.5 10.2239 11.5 10.5V17.5C11.5 17.7761 11.7239 18 12 18C12.2761 18 12.5 17.7761 12.5 17.5V10.5ZM15 10C15.2761 10 15.5 10.2239 15.5 10.5V17.5C15.5 17.7761 15.2761 18 15 18C14.7239 18 14.5 17.7761 14.5 17.5V10.5C14.5 10.2239 14.7239 10 15 10Z" fill="#1C3553"/>
</svg>
