<svg width="24" height="24" viewBox="0 0 24 24" fill="none" xmlns="http://www.w3.org/2000/svg">
<path fill-rule="evenodd" clip-rule="evenodd" d="M13.5356 18.8254C13.3558 18.0167 13.8657 17.2154 14.6744 17.0357C15.473 16.8583 17.9998 15.5126 17.9998 11C17.9998 10.1716 18.6714 9.5 19.4998 9.5C20.3283 9.5 20.9998 10.1716 20.9998 11C20.9998 16.8874 17.5267 19.4751 15.3252 19.9643C14.5165 20.144 13.7153 19.6341 13.5356 18.8254Z" fill="#1C3553"/>
<path d="M20.9998 12H14.9998C14.4475 12 13.9998 11.5523 13.9998 11V6C13.9998 5.44772 14.4475 5 14.9998 5H19.9998C20.5521 5 20.9998 5.44772 20.9998 6V12Z" fill="#1C3553"/>
<path fill-rule="evenodd" clip-rule="evenodd" d="M2.53555 18.8254C2.35584 18.0167 2.86574 17.2154 3.67444 17.0357C4.47301 16.8583 6.99983 15.5126 6.99983 11C6.99983 10.1716 7.67141 9.5 8.49983 9.5C9.32826 9.5 9.99983 10.1716 9.99983 11C9.99983 16.8874 6.52666 19.4751 4.32523 19.9643C3.51653 20.144 2.71526 19.6341 2.53555 18.8254Z" fill="#1C3553"/>
<path d="M9.99983 12H3.99983C3.44755 12 2.99983 11.5523 2.99983 11V6C2.99983 5.44772 3.44755 5 3.99983 5H8.99983C9.55212 5 9.99983 5.44772 9.99983 6V12Z" fill="#1C3553"/>
</svg>
