<svg width="24" height="24" viewBox="0 0 24 24" fill="none" xmlns="http://www.w3.org/2000/svg">
<path fill-rule="evenodd" clip-rule="evenodd" d="M10.4643 5.17468C10.644 5.98338 10.1341 6.78465 9.3254 6.96436C8.52682 7.14182 6 8.48752 6 13.0001C6 13.8285 5.32843 14.5001 4.5 14.5001C3.67157 14.5001 3 13.8285 3 13.0001C3 7.11264 6.47318 4.525 8.6746 4.0358C9.4833 3.85609 10.2846 4.36598 10.4643 5.17468Z" fill="#1C3553"/>
<path d="M3 12.0001H9C9.55228 12.0001 10 12.4478 10 13.0001V18.0001C10 18.5524 9.55228 19.0001 9 19.0001H4C3.44772 19.0001 3 18.5524 3 18.0001V12.0001Z" fill="#1C3553"/>
<path fill-rule="evenodd" clip-rule="evenodd" d="M21.4643 5.17468C21.644 5.98338 21.1341 6.78465 20.3254 6.96436C19.5268 7.14182 17 8.48752 17 13.0001C17 13.8285 16.3284 14.5001 15.5 14.5001C14.6716 14.5001 14 13.8285 14 13.0001C14 7.11264 17.4732 4.525 19.6746 4.0358C20.4833 3.85609 21.2846 4.36598 21.4643 5.17468Z" fill="#1C3553"/>
<path d="M14 12.0001H20C20.5523 12.0001 21 12.4478 21 13.0001V18.0001C21 18.5524 20.5523 19.0001 20 19.0001H15C14.4477 19.0001 14 18.5524 14 18.0001V12.0001Z" fill="#1C3553"/>
</svg>
