<svg width="24" height="24" viewBox="0 0 24 24" fill="none" xmlns="http://www.w3.org/2000/svg">
<path d="M5 13L5 18C5 18.55 5.45 19 6 19H18C18.55 19 19 18.55 19 18V13C19 12.45 19.45 12 20 12C20.55 12 21 12.45 21 13L21 19C21 20.1 20.1 21 19 21L5 21C3.9 21 3 20.1 3 19L3 13C3 12.45 3.45 12 4 12C4.55 12 5 12.45 5 13ZM11 12.67L9.12 10.79C8.73 10.4 8.1 10.4 7.71 10.79C7.32 11.18 7.32 11.81 7.71 12.2L11.3 15.79C11.69 16.18 12.32 16.18 12.71 15.79L16.3 12.2C16.69 11.81 16.69 11.18 16.3 10.79C15.91 10.4 15.28 10.4 14.89 10.79L13 12.67L13 4C13 3.45 12.55 3 12 3C11.45 3 11 3.45 11 4L11 12.67Z" fill="#1C3553"/>
</svg>
