<svg width="24" height="24" viewBox="0 0 24 24" fill="none" xmlns="http://www.w3.org/2000/svg">
<path fill-rule="evenodd" clip-rule="evenodd" d="M21.2687 17.9263L21.2672 17.9286L22.5657 19.2272C22.761 19.4224 22.761 19.739 22.5657 19.9343L21.4344 21.0657C21.2391 21.2609 20.9225 21.2609 20.7273 21.0657L19.6071 19.9455C17.6315 21.8375 14.9515 22.9999 12 22.9999C5.92487 22.9999 1 18.0751 1 11.9999C1 9.04845 2.16242 6.36847 4.05442 4.39282L1.93436 2.27277C1.7391 2.0775 1.7391 1.76092 1.93436 1.56566L3.06573 0.434288C3.261 0.239026 3.57758 0.239026 3.77284 0.434289L6.07131 2.73275L6.07367 2.73124L7.52944 4.18701L7.52698 4.18842L8.27235 4.93379L8.27497 4.93254L11.4165 8.07412L11.4161 8.07752L12.4504 9.11189L12.4511 9.1087L14.6672 11.3248L14.6636 11.3251L16.0448 12.7063C16.0474 12.7076 16.0501 12.7089 16.0527 12.7102L17.8452 14.5028C17.8464 14.5053 17.8476 14.5077 17.8488 14.5102L19.8115 16.4729L19.8129 16.4705L21.2687 17.9263ZM12 20.9999C14.3992 20.9999 16.5791 20.0611 18.1925 18.5309L17.3012 17.6396C17.166 17.7997 17.0142 17.9493 16.8469 18.0908C16.0797 18.744 15.1846 19.138 14.1961 19.3108C13.9162 19.3592 13.6431 19.3315 13.3874 19.2036C12.7065 18.8615 12.1916 18.3604 11.9185 17.638C11.8287 17.3961 11.8563 17.1818 12.0464 16.9814C12.3402 16.6669 12.4819 16.2729 12.551 15.8512C12.6374 15.3224 12.7134 14.7902 12.5959 14.2579C12.5303 13.9642 12.3747 13.7222 12.1086 13.5667C12.0499 13.5322 11.9634 13.5252 11.8943 13.5356C11.7008 13.5667 11.6282 13.6635 11.6282 13.8847C11.6282 14.8006 11.293 15.6197 10.7987 16.3765C10.4082 16.971 9.91397 17.4618 9.23657 17.7037C8.04421 18.1288 6.97281 17.8696 6.05003 17.0298C5.24475 16.2936 4.80928 15.3432 4.53625 14.2994C4.38764 13.7222 4.51551 13.2315 4.86458 12.7787C5.19637 12.3433 5.59036 11.9769 6.11569 11.7799C6.37145 11.6831 6.60646 11.6797 6.82766 11.894C7.08341 12.1393 7.40828 12.2776 7.75044 12.3502C8.32415 12.4746 8.90824 12.5472 9.49578 12.4538C9.80683 12.402 10.0695 12.2499 10.2319 11.9734C10.2769 11.8974 10.2734 11.7626 10.2388 11.6762C10.2216 11.6278 10.0971 11.6002 10.0177 11.5967C8.81838 11.5414 7.77809 11.0991 6.89332 10.2972C6.46131 9.90323 6.15026 9.42283 6.02584 8.84566C5.84981 8.04961 5.94939 7.31547 6.32306 6.66146L5.46904 5.80744C3.93878 7.42081 3 9.60073 3 11.9999C3 16.9705 7.02944 20.9999 12 20.9999ZM12.7934 11.8693C12.7934 12.3142 12.454 12.6573 12.0091 12.6611C11.5529 12.6648 11.2023 12.318 11.2098 11.8655C11.2174 11.4282 11.568 11.0813 12.0016 11.0813C12.439 11.0813 12.7934 11.4357 12.7934 11.8693Z" fill="#1C3553"/>
<path d="M20.8199 13.8005L22.4534 15.434C22.8081 14.3535 23 13.1991 23 11.9999C23 5.92479 18.0751 0.999924 12 0.999924C10.8008 0.999924 9.64646 1.19181 8.56595 1.54656L10.1995 3.18007C10.7812 3.06194 11.3834 2.99992 12 2.99992C16.9706 2.99992 21 7.02936 21 11.9999C21 12.6166 20.938 13.2187 20.8199 13.8005Z" fill="#1C3553"/>
<path d="M18.5901 11.5707L13.736 6.71662C14.0457 6.40865 14.4091 6.16707 14.8459 6.02892C16.1004 5.63147 17.1926 5.95289 18.0946 6.87567C18.9033 7.70169 19.3561 8.71778 19.5151 9.8583C19.5358 10.0173 19.5254 10.2039 19.4632 10.3525C19.2609 10.8491 18.9754 11.2637 18.5901 11.5707Z" fill="#1C3553"/>
</svg>
