<svg width="24" height="24" viewBox="0 0 24 24" fill="none" xmlns="http://www.w3.org/2000/svg">
<path d="M19.6641 3.99065C17.0241 2.19065 13.7641 3.03065 12.0041 5.09065C10.2441 3.03065 6.98412 2.18065 4.34412 3.99065C2.94412 4.95065 2.06412 6.57065 2.00412 8.28065C1.86412 12.1607 5.30412 15.2707 10.5541 20.0407L10.6541 20.1307C11.4141 20.8207 12.5841 20.8207 13.3441 20.1207L13.4541 20.0207C18.7041 15.2607 22.1341 12.1507 22.0041 8.27065C21.9441 6.57065 21.0641 4.95065 19.6641 3.99065ZM12.1041 18.5507L12.0041 18.6507L11.9041 18.5507C7.14412 14.2407 4.00412 11.3907 4.00412 8.50065C4.00412 6.50065 5.50412 5.00065 7.50412 5.00065C9.04412 5.00065 10.5441 5.99065 11.0741 7.36065H12.9441C13.4641 5.99065 14.9641 5.00065 16.5041 5.00065C18.5041 5.00065 20.0041 6.50065 20.0041 8.50065C20.0041 11.3907 16.8641 14.2407 12.1041 18.5507Z" fill="#1C3553"/>
</svg>
