<svg width="24" height="24" viewBox="0 0 24 24" fill="none" xmlns="http://www.w3.org/2000/svg">
<path fill-rule="evenodd" clip-rule="evenodd" d="M19.191 12.6353C19.2123 12.4264 19.2251 12.2132 19.2251 12C19.2251 11.7831 19.2119 11.5662 19.1899 11.3493C19.1719 11.1721 19.243 10.9965 19.384 10.8876L21.1931 9.48929C21.3721 9.34 21.4271 9.08214 21.3032 8.87857L19.3765 5.59429C19.2527 5.39071 19.0049 5.30929 18.7847 5.39071L16.6538 6.23613C16.4902 6.301 16.3054 6.27406 16.1618 6.17249C15.8066 5.92132 15.4302 5.70328 15.0279 5.51838C14.8671 5.44449 14.7509 5.29679 14.7259 5.12161L14.4084 2.89357C14.3671 2.67643 14.1606 2.5 13.9267 2.5H10.0732C9.83929 2.5 9.63286 2.67643 9.59157 2.90714L9.27365 5.13792C9.24889 5.31162 9.13438 5.45852 8.97529 5.53251C8.57775 5.71738 8.19567 5.93536 7.8384 6.18644C7.69448 6.28759 7.50969 6.31457 7.34617 6.2497L5.21517 5.40429C4.99498 5.32286 4.74726 5.40429 4.6234 5.60786L2.69668 8.89214C2.57282 9.09571 2.62787 9.35357 2.80678 9.50286L4.6144 10.9C4.75616 11.0096 4.82709 11.1865 4.80892 11.3647C4.78762 11.5736 4.77478 11.7868 4.77478 12C4.77478 12.2169 4.78807 12.4338 4.81003 12.6507C4.82798 12.8279 4.75688 13.0035 4.61596 13.1124L2.80678 14.5107C2.62787 14.66 2.57282 14.9179 2.69668 15.1214L4.6234 18.4057C4.74726 18.6093 4.99498 18.6907 5.21517 18.6093L7.34617 17.7639C7.50969 17.699 7.6945 17.7259 7.83813 17.8275C8.19334 18.0787 8.56974 18.2967 8.97202 18.4816C9.13279 18.5555 9.24907 18.7032 9.27404 18.8784L9.59157 21.1064C9.63286 21.3236 9.83929 21.5 10.0732 21.5H13.9267C14.1606 21.5 14.3671 21.3236 14.4084 21.0929L14.7263 18.8621C14.751 18.6884 14.8655 18.5415 15.0246 18.4675C15.4222 18.2826 15.8043 18.0646 16.1615 17.8136C16.3054 17.7124 16.4902 17.6854 16.6538 17.7503L18.7847 18.5957C19.0049 18.6771 19.2527 18.5957 19.3765 18.3921L21.3032 15.1079C21.4271 14.9043 21.3721 14.6464 21.1931 14.4971L19.3855 13.1C19.2438 12.9904 19.1728 12.8135 19.191 12.6353ZM9.24751 12C9.24751 10.5071 10.4861 9.28571 12 9.28571C13.5138 9.28571 14.7524 10.5071 14.7524 12C14.7524 13.4929 13.5138 14.7143 12 14.7143C10.4861 14.7143 9.24751 13.4929 9.24751 12Z" fill="#1C3553"/>
</svg>
