<svg width="24" height="24" viewBox="0 0 24 24" fill="none" xmlns="http://www.w3.org/2000/svg">
<path fill-rule="evenodd" clip-rule="evenodd" d="M22 17.6614V17.6575L19.5 15.1575V15.1614L18 13.6614V13.6575L16.125 11.7825V11.7864L14.625 10.2864V10.2825L10.3424 5.99992H10.3385L4.77284 0.434289C4.57758 0.239026 4.261 0.239026 4.06573 0.434288L2.93436 1.56566C2.7391 1.76092 2.7391 2.0775 2.93436 2.27277L6.66152 5.99992H3C2.44772 5.99992 2 6.44764 2 6.99992V8.49992C2 8.22378 1.77614 7.99992 1.5 7.99992H0.5C0.223858 7.99992 0 8.22378 0 8.49992V9.49992C0 9.77607 0.223858 9.99992 0.5 9.99992H1.5C1.77614 9.99992 2 9.77607 2 9.49992V19.9999C2 20.5522 2.44772 20.9999 3 20.9999H21C21.1894 20.9999 21.3665 20.9473 21.5174 20.8558L21.7273 21.0657C21.9225 21.2609 22.2391 21.2609 22.4344 21.0657L23.5657 19.9343C23.761 19.739 23.761 19.4224 23.5657 19.2272L22 17.6614ZM19.3549 18.6933C19.2184 18.8792 18.9983 18.9999 18.75 18.9999C18.3358 18.9999 18 18.6641 18 18.2499V17.3384L19.3549 18.6933ZM16.125 15.4634V18.2499C16.125 18.6641 15.7892 18.9999 15.375 18.9999C14.9608 18.9999 14.625 18.6641 14.625 18.2499V13.9634L16.125 15.4634ZM12.75 12.0884V18.2499C12.75 18.6641 12.4142 18.9999 12 18.9999C11.5858 18.9999 11.25 18.6641 11.25 18.2499L11.25 10.5884L12.75 12.0884ZM8.625 8.60002C9.03921 8.60002 9.375 8.93581 9.375 9.35002L9.375 18.2499C9.375 18.6641 9.03921 18.9999 8.625 18.9999C8.21078 18.9999 7.875 18.6641 7.875 18.2499L7.875 9.35002C7.875 8.93581 8.21078 8.60002 8.625 8.60002ZM5.25 8.60002C5.66421 8.60002 6 8.93581 6 9.35002V18.2499C6 18.6641 5.66421 18.9999 5.25 18.9999C4.83578 18.9999 4.5 18.6641 4.5 18.2499V9.35002C4.5 8.93581 4.83579 8.60002 5.25 8.60002Z" fill="#1C3553"/>
<path d="M22 13.9806L19.5 11.4806V9.35002C19.5 8.93581 19.1642 8.60002 18.75 8.60002C18.3358 8.60002 18 8.93581 18 9.35002V9.98059L14.0193 5.99992H21C21.5523 5.99992 22 6.44764 22 6.99992V13.9806Z" fill="#1C3553"/>
<path d="M15.6644 0.744708C15.8055 0.574688 16.0577 0.551206 16.2277 0.69226L15.9723 1.00011C16.2277 0.69226 16.2274 0.692072 16.2277 0.69226L16.2286 0.69302L16.2296 0.693831L16.2317 0.695605L16.2365 0.699763L16.2485 0.710537C16.2576 0.718812 16.2686 0.729329 16.2811 0.742106C16.3061 0.767598 16.3374 0.802483 16.3709 0.846924C16.4377 0.935653 16.515 1.06487 16.5662 1.2347C16.6731 1.58963 16.6468 2.05582 16.3149 2.60658C16.0843 2.98916 16.1106 3.22296 16.1443 3.3347C16.1635 3.39821 16.1916 3.44399 16.2127 3.47192C16.2231 3.48582 16.2314 3.49468 16.235 3.49836L16.2358 3.49917C16.3984 3.64142 16.4189 3.88823 16.2801 4.05551C16.1391 4.22553 15.8869 4.24901 15.7169 4.10796L15.9721 3.80025C15.7169 4.10796 15.7171 4.10814 15.7169 4.10796L15.716 4.1072L15.715 4.10638L15.7129 4.10461L15.7081 4.10045L15.696 4.08968C15.687 4.0814 15.6759 4.07089 15.6634 4.05811C15.6385 4.03262 15.6072 3.99773 15.5737 3.95329C15.5068 3.86456 15.4295 3.73534 15.3783 3.56552C15.2714 3.21059 15.2977 2.74439 15.6297 2.19364C15.8602 1.81106 15.8339 1.57726 15.8002 1.46552C15.7811 1.40201 15.7529 1.35623 15.7319 1.32829C15.7214 1.3144 15.7132 1.30554 15.7096 1.30186L15.7088 1.30105C15.5461 1.1588 15.5256 0.911988 15.6644 0.744708Z" fill="#1C3553"/>
<path d="M13.5055 0.69226C13.3355 0.551206 13.0833 0.574688 12.9423 0.744708C12.8035 0.911988 12.824 1.1588 12.9866 1.30105L12.9874 1.30186C12.991 1.30554 12.9993 1.3144 13.0097 1.32829C13.0308 1.35623 13.0589 1.40201 13.0781 1.46552C13.1117 1.57726 13.1381 1.81106 12.9075 2.19364C12.5756 2.74439 12.5492 3.21059 12.6562 3.56552C12.7074 3.73534 12.7847 3.86456 12.8515 3.95329C12.885 3.99773 12.9163 4.03262 12.9413 4.05811C12.9538 4.07089 12.9648 4.0814 12.9738 4.08968L12.9859 4.10045L12.9907 4.10461L12.9928 4.10638L12.9938 4.1072C12.994 4.10738 12.9947 4.10796 13.2501 3.80011L12.9947 4.10796C13.1647 4.24901 13.4169 4.22553 13.558 4.05551C13.6967 3.88823 13.6762 3.64142 13.5136 3.49917L13.5128 3.49836C13.5092 3.49468 13.501 3.48582 13.4905 3.47192C13.4694 3.44399 13.4413 3.39821 13.4222 3.3347C13.3885 3.22296 13.3621 2.98916 13.5927 2.60658C13.9246 2.05582 13.951 1.58963 13.844 1.2347C13.7929 1.06487 13.7155 0.935653 13.6487 0.846924C13.6152 0.802483 13.5839 0.767598 13.559 0.742106C13.5464 0.729329 13.5354 0.718812 13.5264 0.710537L13.5143 0.699763L13.5095 0.695605L13.5074 0.693831L13.5064 0.69302C13.5062 0.692832 13.5055 0.69226 13.2501 1.00011L13.5055 0.69226Z" fill="#1C3553"/>
<path d="M10.7833 0.69226C10.6133 0.551206 10.3611 0.574688 10.2201 0.744708C10.0813 0.911988 10.1018 1.1588 10.2644 1.30105L10.2652 1.30186C10.2688 1.30554 10.2771 1.3144 10.2875 1.32829C10.3086 1.35623 10.3367 1.40201 10.3559 1.46552C10.3896 1.57726 10.4159 1.81106 10.1853 2.19364C9.85341 2.74439 9.82705 3.21059 9.93401 3.56552C9.98518 3.73534 10.0625 3.86456 10.1293 3.95329C10.1628 3.99773 10.1941 4.03262 10.2191 4.05811C10.2316 4.07089 10.2426 4.0814 10.2517 4.08968L10.2637 4.10045L10.2686 4.10461L10.2707 4.10638L10.2716 4.1072C10.2718 4.10738 10.2725 4.10796 10.5279 3.80011L10.2725 4.10796C10.4426 4.24901 10.6947 4.22553 10.8358 4.05551C10.9746 3.88823 10.9541 3.64142 10.7914 3.49917L10.7906 3.49836C10.787 3.49468 10.7788 3.48582 10.7683 3.47192C10.7473 3.44399 10.7191 3.39821 10.7 3.3347C10.6663 3.22296 10.64 2.98916 10.8705 2.60658C11.2025 2.05582 11.2288 1.58963 11.1219 1.2347C11.0707 1.06487 10.9934 0.935653 10.9265 0.846924C10.893 0.802483 10.8617 0.767598 10.8368 0.742106C10.8243 0.729329 10.8132 0.718812 10.8042 0.710537L10.7922 0.699763L10.7873 0.695605L10.7852 0.693831L10.7842 0.69302C10.784 0.692832 10.7833 0.69226 10.5279 1.00011L10.7833 0.69226Z" fill="#1C3553"/>
</svg>
