<svg width="24" height="24" viewBox="0 0 24 24" fill="none" xmlns="http://www.w3.org/2000/svg">
<path fill-rule="evenodd" clip-rule="evenodd" d="M5 3C3.89543 3 3 3.89543 3 5V19C3 20.1046 3.89543 21 5 21H19C20.1046 21 21 20.1046 21 19V5C21 3.89543 20.1046 3 19 3H5ZM12.5801 16H18.4277V14.6348H14.7598L16.6992 12.5898C17.2305 12.0078 17.6055 11.498 17.8242 11.0605C18.043 10.623 18.1523 10.1934 18.1523 9.77148C18.1523 9.00195 17.9082 8.40625 17.4199 7.98438C16.9355 7.5625 16.2539 7.35156 15.375 7.35156C14.8008 7.35156 14.2871 7.47461 13.834 7.7207C13.3809 7.96289 13.0293 8.29883 12.7793 8.72852C12.5332 9.1582 12.4102 9.63281 12.4102 10.1523H14.1094C14.1094 9.72266 14.2188 9.37695 14.4375 9.11523C14.6602 8.84961 14.9629 8.7168 15.3457 8.7168C15.7012 8.7168 15.9746 8.82617 16.166 9.04492C16.3574 9.25977 16.4531 9.55664 16.4531 9.93555C16.4531 10.2129 16.3613 10.5059 16.1777 10.8145C15.998 11.123 15.7188 11.4844 15.3398 11.8984L12.5801 14.8398V16ZM8.10938 16H9.80273V7.45703H9.62109L6.08789 8.72266V10.0996L8.10938 9.47266V16Z" fill="#1C3553"/>
</svg>
