<svg width="24" height="24" viewBox="0 0 24 24" fill="none" xmlns="http://www.w3.org/2000/svg">
<path d="M20.011 11.5097H20.409C20.409 11.3349 20.4081 11.1642 20.4072 10.9963C20.4051 10.6221 20.4031 10.2618 20.4117 9.90162C20.4234 9.4095 20.2465 9.02541 19.881 8.68837C18.0061 6.95879 16.138 5.22124 14.2701 3.48382C13.8995 3.13906 13.5288 2.7943 13.1581 2.44962C12.5214 1.85718 11.9041 1.84598 11.2613 2.44115C10.292 3.33884 9.32388 4.23778 8.35576 5.13671C7.07667 6.3244 5.79759 7.51207 4.51577 8.69683C4.16156 9.02417 3.99901 9.40253 4 9.88668C4.00566 12.4373 4.00517 14.9881 4.00467 17.5388C4.00447 18.5799 4.00427 19.621 4.00449 20.6621C4.00449 21.5084 4.49063 21.998 5.33498 21.999C6.57299 22.0008 7.81119 21.9998 9.04941 21.9989C9.22631 21.9988 9.40321 21.9986 9.58011 21.9985C9.63847 21.9985 9.69693 21.9946 9.76332 21.9901C9.79717 21.9879 9.83309 21.9854 9.87209 21.9833V21.6617C9.87203 21.058 9.87178 20.4542 9.87152 19.8505C9.8707 17.9097 9.86988 15.9689 9.87558 14.028C9.87633 13.7375 9.89674 13.4341 9.98062 13.1588C10.2925 12.1342 11.1737 11.5129 12.2926 11.5109C14.1053 11.5077 15.9181 11.5084 17.7307 11.5091C18.4908 11.5094 19.2509 11.5097 20.011 11.5097Z" fill="#1C3553"/>
<path d="M11.1686 21.7745L20.2998 12.6469C20.2852 12.6458 20.2716 12.6445 20.2588 12.6434C20.2316 12.6409 20.2077 12.6387 20.1838 12.6387C19.5032 12.6384 18.8225 12.638 18.1418 12.6376C16.1755 12.6364 14.2093 12.6353 12.243 12.6377C11.4815 12.6387 10.9944 13.142 10.9941 13.9074C10.9936 16.5077 10.9939 19.1082 10.9946 21.7084C10.9946 21.7967 11.1062 21.8369 11.1686 21.7745Z" fill="#1C3553"/>
</svg>
