<svg width="24" height="24" viewBox="0 0 24 24" fill="none" xmlns="http://www.w3.org/2000/svg">
<path d="M19 12C19 12.5523 18.5523 13 18 13H6C5.44772 13 5 12.5523 5 12C5 11.4477 5.44772 11 6 11H18C18.5523 11 19 11.4477 19 12Z" fill="#1C3553"/>
<path d="M19 16C19 16.5523 18.5523 17 18 17H6C5.44772 17 5 16.5523 5 16C5 15.4477 5.44772 15 6 15H18C18.5523 15 19 15.4477 19 16Z" fill="#1C3553"/>
<path d="M19 8C19 8.55228 18.5523 9 18 9H6C5.44772 9 5 8.55228 5 8C5 7.44772 5.44772 7 6 7H18C18.5523 7 19 7.44772 19 8Z" fill="#1C3553"/>
<path d="M3 12C3 12.5523 2.55228 13 2 13C1.44772 13 1 12.5523 1 12C1 11.4477 1.44772 11 2 11C2.55228 11 3 11.4477 3 12Z" fill="#1C3553"/>
<path d="M3 16C3 16.5523 2.55228 17 2 17C1.44772 17 1 16.5523 1 16C1 15.4477 1.44772 15 2 15C2.55228 15 3 15.4477 3 16Z" fill="#1C3553"/>
<path d="M3 8C3 8.55228 2.55228 9 2 9C1.44772 9 1 8.55228 1 8C1 7.44772 1.44772 7 2 7C2.55228 7 3 7.44772 3 8Z" fill="#1C3553"/>
<path d="M19 12C19 12.5523 18.5523 13 18 13H6C5.44772 13 5 12.5523 5 12C5 11.4477 5.44772 11 6 11H18C18.5523 11 19 11.4477 19 12Z" stroke="#1C3553"/>
<path d="M19 16C19 16.5523 18.5523 17 18 17H6C5.44772 17 5 16.5523 5 16C5 15.4477 5.44772 15 6 15H18C18.5523 15 19 15.4477 19 16Z" stroke="#1C3553"/>
<path d="M19 8C19 8.55228 18.5523 9 18 9H6C5.44772 9 5 8.55228 5 8C5 7.44772 5.44772 7 6 7H18C18.5523 7 19 7.44772 19 8Z" stroke="#1C3553"/>
<path d="M3 12C3 12.5523 2.55228 13 2 13C1.44772 13 1 12.5523 1 12C1 11.4477 1.44772 11 2 11C2.55228 11 3 11.4477 3 12Z" stroke="#1C3553"/>
<path d="M3 16C3 16.5523 2.55228 17 2 17C1.44772 17 1 16.5523 1 16C1 15.4477 1.44772 15 2 15C2.55228 15 3 15.4477 3 16Z" stroke="#1C3553"/>
<path d="M3 8C3 8.55228 2.55228 9 2 9C1.44772 9 1 8.55228 1 8C1 7.44772 1.44772 7 2 7C2.55228 7 3 7.44772 3 8Z" stroke="#1C3553"/>
</svg>
