<svg width="24" height="24" viewBox="0 0 24 24" fill="none" xmlns="http://www.w3.org/2000/svg">
<path fill-rule="evenodd" clip-rule="evenodd" d="M17 8H18C19.1 8 20 8.9 20 10V20C20 21.1 19.1 22 18 22H6C4.9 22 4 21.1 4 20V10C4 8.9 4.9 8 6 8H15.1V6C15.1 4.29 13.71 2.9 12 2.9C10.566 2.9 9.35696 3.87757 9.0041 5.20164L7.23152 4.49261C7.87141 2.46855 9.76525 1 12 1C14.76 1 17 3.24 17 6V8ZM6 10V20H18V10H6Z" fill="#1C3553"/>
<path d="M14 15C14 16.1 13.1 17 12 17C10.9 17 10 16.1 10 15C10 13.9 10.9 13 12 13C13.1 13 14 13.9 14 15Z" fill="#1C3553"/>
</svg>
