<svg width="24" height="24" viewBox="0 0 24 24" fill="none" xmlns="http://www.w3.org/2000/svg">
<path d="M23.4588 20.5817C23.4588 20.7741 23.4588 20.9711 23.4588 21.1635C23.3783 21.168 23.2977 21.1769 23.2127 21.1769C15.739 21.1769 8.26531 21.1769 0.787155 21.1769C0.7066 21.1769 0.626046 21.168 0.541016 21.1635C0.541016 20.9711 0.541016 20.7741 0.541016 20.5817C0.836383 20.5817 1.13175 20.5817 1.42712 20.5817C1.42712 17.552 1.42712 14.5714 1.42712 11.582C1.31076 11.573 1.19888 11.5641 1.09147 11.5551C1.09147 10.7093 1.09147 9.88137 1.09147 9.02659C1.30628 9.02659 1.5032 9.02659 1.69116 9.02659C1.69116 8.72228 1.69116 8.44034 1.69116 8.15839C1.58375 8.14944 1.48977 8.14049 1.39579 8.13154C1.39579 8.01519 1.39579 7.91673 1.39579 7.78695C3.14114 7.78695 4.87307 7.78695 6.63184 7.78695C6.63184 7.53633 6.63184 7.3081 6.63184 7.06196C7.37473 7.06196 8.09525 7.06196 8.81129 7.06196C8.89632 6.55178 8.82919 6.0595 8.60543 5.90286C8.59648 5.89839 8.57858 5.90734 8.56068 5.90734C8.56515 5.95657 8.5741 6.01027 8.57858 6.0774C8.50697 6.06397 8.45327 6.06397 8.40404 6.04607C8.16685 5.97447 8.03707 6.07292 8.06392 6.31906C8.08182 6.47122 8.14 6.61891 8.16685 6.76659C8.18028 6.83372 8.15343 6.90532 8.14 6.99035C8.07735 6.9635 8.0505 6.95903 8.03707 6.9456C7.91624 6.82924 7.80436 5.97447 7.92967 5.88049C8.13553 5.72833 8.02812 5.55827 8.02365 5.38374C8.01917 5.2629 8.02365 5.12865 8.07735 5.02571C8.21608 4.74825 8.22503 4.75272 7.96099 4.56924C7.84911 4.49316 7.79988 4.43051 7.82226 4.26492C7.85359 4.01431 7.79988 3.75474 7.78198 3.4907C7.79093 3.48623 7.83121 3.48175 7.86254 3.46832C8.22503 3.33407 8.40404 3.39672 8.56963 3.75922C8.66361 3.96955 8.74864 4.18884 8.80234 4.40813C8.86947 4.68559 9.0261 4.83328 9.30357 4.90488C9.63026 4.98991 9.73767 5.14655 9.75557 5.48219C9.76005 5.59855 9.75557 5.71938 9.74215 5.84021C9.68397 6.23851 9.61684 6.63681 9.55418 7.04853C9.82718 7.04853 10.0509 7.04853 10.2613 7.04853C10.1807 6.67708 10.1091 6.31459 10.0196 5.95657C9.9122 5.51352 9.88535 5.08837 10.1494 4.68559C10.1762 4.64532 10.1852 4.59161 10.2031 4.53791C10.1404 4.51553 10.0733 4.50658 10.033 4.47078C9.93011 4.3768 9.83613 4.28282 9.90773 4.10829C10.0151 3.84872 10.0957 3.57573 10.1897 3.29826C10.673 3.30722 10.8028 3.41462 10.8296 3.84872C10.8431 4.07248 10.852 4.29625 10.8252 4.52001C10.7938 4.793 10.9505 4.88251 11.1787 4.96754C11.1787 4.89146 11.1832 4.83328 11.1787 4.77958C11.1563 4.48868 11.1116 4.20227 11.1116 3.91138C11.1116 3.75922 11.1653 3.58916 11.2503 3.46385C11.3622 3.29826 11.5322 3.17743 11.6665 3.02975C11.7113 2.98052 11.756 2.90444 11.7605 2.84179C11.7694 2.54195 11.765 2.24658 11.765 1.93779C11.5054 1.85276 11.3264 1.7006 11.3174 1.41418C11.3085 1.13224 11.4875 0.980081 11.7292 0.8682C11.2816 0.684714 11.134 0.465427 11.1877 0.0134258C11.3667 0.125307 11.5322 0.228238 11.6978 0.331169C11.7918 0.143208 11.8813 0.187961 11.9484 0.331169C12.1185 0.228238 12.2841 0.125307 12.4855 0C12.49 0.452001 12.3602 0.751843 11.8947 0.863725C12.1946 0.948755 12.3512 1.10539 12.3691 1.36495C12.387 1.62452 12.2617 1.80353 12.0201 1.90198C11.9842 1.91541 11.9395 1.96016 11.9395 1.99149C11.935 2.31371 11.935 2.6404 11.935 2.96262C11.9574 2.94472 11.9798 2.92234 11.9977 2.90444C12.1275 2.95815 12.2796 2.985 12.3736 3.0745C12.4139 3.11478 12.3602 3.28484 12.3199 3.38329C12.2393 3.58468 12.3288 3.70104 12.5437 3.69209C12.6153 3.58021 12.6958 3.40567 12.7271 3.41462C12.848 3.44595 12.9554 3.53545 13.0717 3.60706C13.3268 3.16848 13.4029 3.14611 13.8728 3.32512C13.8594 3.60258 13.846 3.86662 13.837 4.13066C13.837 4.17989 13.8594 4.25149 13.8325 4.27387C13.6625 4.42603 13.743 4.58714 13.8057 4.74377C13.9713 5.14207 14.0876 5.54484 14.0339 5.98342C13.9892 6.34144 13.9399 6.69499 13.8952 7.04853C14.0697 7.04853 14.2308 7.04853 14.4367 7.04853C14.3651 6.60101 14.298 6.18033 14.2353 5.75518C14.2219 5.66568 14.2264 5.57617 14.2308 5.48667C14.2487 5.15102 14.3561 4.99439 14.6828 4.90936C14.9603 4.83775 15.1259 4.69455 15.1796 4.4126C15.202 4.29177 15.2467 4.16646 15.3004 4.05458C15.3854 3.87557 15.4705 3.69209 15.5824 3.53098C15.6853 3.38329 15.8419 3.33854 16.0165 3.42805C16.0836 3.46385 16.1597 3.48623 16.1999 3.50413C16.1776 3.75922 16.1104 4.00088 16.1507 4.22912C16.1865 4.43946 16.1194 4.53791 15.9628 4.61399C15.7793 4.7035 15.7793 4.83328 15.8822 4.97201C15.9986 5.12864 15.9807 5.28528 15.9449 5.45981C15.918 5.59855 15.833 5.76861 16.0388 5.86706C16.0746 5.88496 16.0925 5.97447 16.0925 6.02817C16.0881 6.26536 16.0836 6.50702 16.0523 6.73974C16.0388 6.82924 15.9538 6.9098 15.9046 6.99483C15.8777 6.98588 15.8509 6.97693 15.824 6.96798C15.824 6.89637 15.8151 6.82029 15.824 6.74869C15.8509 6.59205 15.909 6.43542 15.918 6.27431C15.9314 6.06397 15.7972 5.97894 15.6003 6.0416C15.5421 6.0595 15.475 6.06397 15.3899 6.0774C15.4078 6.01922 15.4168 5.99237 15.4212 5.96552C15.4257 5.94314 15.4212 5.92077 15.4212 5.84469C15.0632 6.23403 15.1393 6.64576 15.1617 7.07091C15.8911 7.07091 16.5982 7.07091 17.3277 7.07091C17.3277 7.32152 17.3277 7.54528 17.3277 7.79142C19.0507 7.79142 20.7468 7.79142 22.4608 7.79142C22.425 7.93463 22.5638 8.11364 22.3221 8.16287C22.3087 8.16735 22.2997 8.21657 22.2997 8.24342C22.2997 8.50299 22.2997 8.76255 22.2997 9.03554C22.4832 9.03554 22.6354 9.03554 22.8009 9.03554C22.8009 9.88137 22.8009 10.7048 22.8009 11.5372C22.6801 11.5506 22.5682 11.5641 22.4519 11.5775C22.4519 14.5759 22.4519 17.5564 22.4519 20.5728C22.8054 20.5817 23.1321 20.5817 23.4588 20.5817ZM13.2418 20.5593C13.2418 17.6146 13.2418 14.6967 13.2418 11.7744C12.2707 11.7744 11.3174 11.7744 10.3597 11.7744C10.3597 14.7102 10.3597 17.628 10.3597 20.5593C11.3264 20.5593 12.2751 20.5593 13.2418 20.5593ZM15.3586 20.5593C15.8822 20.5593 16.379 20.5593 16.8802 20.5593C16.8802 17.6236 16.8802 14.6967 16.8802 11.7744C16.3611 11.7744 15.8688 11.7744 15.3586 11.7744C15.3586 14.7012 15.3586 17.6236 15.3586 20.5593ZM20.4112 11.7744C19.9234 11.7744 19.4669 11.7744 19.0015 11.7744C19.0015 14.7102 19.0015 17.628 19.0015 20.5549C19.4758 20.5549 19.9413 20.5549 20.4112 20.5549C20.4112 17.6191 20.4112 14.7012 20.4112 11.7744ZM3.47231 20.5549C3.91984 20.5549 4.35394 20.5549 4.80146 20.5549C4.80146 17.6191 4.80146 14.7012 4.80146 11.7699C4.35394 11.7699 3.91984 11.7699 3.47231 11.7699C3.47231 14.7057 3.47231 17.6236 3.47231 20.5549ZM8.23846 20.5593C8.23846 17.6191 8.23846 14.7012 8.23846 11.7744C7.79093 11.7744 7.35236 11.7744 6.91378 11.7744C6.91378 14.7102 6.91378 17.628 6.91378 20.5593C7.35683 20.5593 7.78646 20.5593 8.23846 20.5593ZM11.7515 1.28887C11.671 1.33363 11.6083 1.36943 11.5501 1.40076C11.6218 1.43656 11.6934 1.46788 11.7694 1.50369C11.7784 1.55739 11.7873 1.62452 11.7963 1.68717C11.8142 1.69165 11.8366 1.7006 11.8545 1.70507C11.8813 1.63347 11.9126 1.56186 11.9305 1.51264C12.0066 1.46788 12.0738 1.42761 12.1364 1.38733C12.0693 1.356 12.0022 1.32468 11.9529 1.3023C11.9126 1.2307 11.8724 1.16357 11.8366 1.09196C11.8097 1.16804 11.7784 1.23517 11.7515 1.28887ZM11.7963 3.22666C11.7739 3.21771 11.7515 3.21323 11.7292 3.20428C11.6934 3.28931 11.6486 3.36987 11.6262 3.45937C11.6218 3.4728 11.7202 3.51308 11.7963 3.55335C11.7963 3.41462 11.7963 3.32064 11.7963 3.22666Z" fill="#1C3553"/>
</svg>
