<svg width="24" height="24" viewBox="0 0 24 24" fill="none" xmlns="http://www.w3.org/2000/svg">
<path d="M13 4C13 3.44772 12.5523 3 12 3C11.4477 3 11 3.44772 11 4V12C11 12.5523 11.4477 13 12 13C12.5523 13 13 12.5523 13 12V4Z" fill="#1C3553"/>
<path d="M18.4923 5.79262C18.136 5.42262 17.5502 5.44982 17.187 5.81303C16.7722 6.22784 16.8149 6.90823 17.2086 7.3431C18.3223 8.57312 19 10.206 19 12C19 15.87 15.87 19 12 19C8.13 19 5 15.87 5 12C5 10.2021 5.68074 8.56591 6.79321 7.32943C7.18248 6.89677 7.22246 6.22247 6.81093 5.81094C6.4489 5.44891 5.86497 5.4218 5.50972 5.79049C3.9552 7.4038 3 9.58542 3 12C3 16.97 7.03 21 12 21C16.97 21 21 16.97 21 12C21 9.58648 20.0456 7.40572 18.4923 5.79262Z" fill="#1C3553"/>
</svg>
