<svg width="24" height="24" viewBox="0 0 24 24" fill="none" xmlns="http://www.w3.org/2000/svg">
<path d="M15.8963 18.2701C15.8985 18.5366 15.6807 18.7456 15.4143 18.7456H9.52278C9.24664 18.7456 9.01782 18.5218 9.018 18.2457C9.01805 18.1671 9.01927 18.0889 9.02277 18.0101C9.07109 17.1403 8.77042 16.3886 8.22277 15.7389C7.89525 15.347 7.53552 14.9872 7.17042 14.6329C4.93686 12.4799 3.84156 8.95235 5.15699 5.70939C5.22142 5.55369 5.18384 5.47315 5.07646 5.36577C4.33176 4.62912 3.59309 3.88945 2.85367 3.14903C2.607 2.90202 2.35979 2.65447 2.1127 2.40738C1.98733 2.28474 1.86058 2.16209 1.73454 2.04015C1.53451 1.8466 1.53248 1.52716 1.7296 1.33064C2.09974 0.96165 2.46396 0.600149 2.82228 0.24495C3.01776 0.0511769 3.33308 0.051922 3.52771 0.246545C5.56614 2.28492 7.6061 4.32432 9.64642 6.36407L9.66071 6.37836C13.8679 10.5844 18.0766 14.7919 22.2765 18.9951C22.471 19.1897 22.4717 19.5049 22.278 19.7004L21.1723 20.8159C20.9773 21.0126 20.6595 21.0133 20.4637 20.8174C19.1948 19.5485 17.9195 18.2729 16.6467 16.9965C16.4174 16.7666 16.0332 16.8187 15.9635 17.1359C15.8885 17.4775 15.892 17.8319 15.8955 18.1884L15.8963 18.2701Z" fill="#1C3553"/>
<path d="M9.03885 20.1371C9.03885 19.8609 9.26272 19.6371 9.53886 19.6371H15.3791C15.6553 19.6371 15.8791 19.8609 15.8791 20.1371V20.823C15.8791 21.0991 15.6552 21.323 15.3791 21.323H9.53885C9.26271 21.323 9.03885 21.0991 9.03885 20.823V20.1371Z" fill="#1C3553"/>
<path d="M13.6772 23.8945C13.9533 23.8945 14.1772 23.6706 14.1772 23.3945V22.714C14.1772 22.4378 13.9534 22.214 13.6772 22.214H11.2678C10.9917 22.214 10.7678 22.4378 10.7678 22.714V23.3945C10.7678 23.6706 10.9917 23.8945 11.2678 23.8945H13.6772Z" fill="#1C3553"/>
<path d="M19.3474 11.9447C19.2143 12.2515 18.8246 12.2952 18.6911 11.9886L18.6851 11.9748V12.0641L8.68515 2.06406H8.71599C8.62337 1.91208 8.69861 1.68907 8.91359 1.58952C11.6962 0.301 15.2251 0.790828 17.6421 3.17273C20.1193 5.60987 20.5675 9.13383 19.3474 11.9447Z" fill="#1C3553"/>
</svg>
