<svg width="24" height="24" viewBox="0 0 24 24" fill="none" xmlns="http://www.w3.org/2000/svg">
<path fill-rule="evenodd" clip-rule="evenodd" d="M4.85272 19.4228H7.85225V9.17979H4.85272V19.4228ZM6.35389 4.08679C7.31389 4.08679 8.09225 4.91479 8.09225 5.93279C8.09225 6.95179 7.31389 7.77879 6.35389 7.77879C5.39295 7.77879 4.61554 6.95179 4.61554 5.93279C4.61554 4.91479 5.39295 4.08679 6.35389 4.08679Z" fill="#1C3553"/>
<path fill-rule="evenodd" clip-rule="evenodd" d="M9.733 9.17969H12.6045V10.5787H12.6459C13.0459 9.77469 14.0238 8.92469 15.4808 8.92469C18.5132 8.92469 19.0732 11.0457 19.0732 13.8047V19.4227H16.0794V14.4427C16.0794 13.2537 16.0586 11.7257 14.5226 11.7257C12.9641 11.7257 12.7259 13.0187 12.7259 14.3547V19.4227H9.733V9.17969Z" fill="#1C3553"/>
<path fill-rule="evenodd" clip-rule="evenodd" d="M4.85272 19.4228H7.85225V9.17979H4.85272V19.4228ZM6.35389 4.08679C7.31389 4.08679 8.09225 4.91479 8.09225 5.93279C8.09225 6.95179 7.31389 7.77879 6.35389 7.77879C5.39295 7.77879 4.61554 6.95179 4.61554 5.93279C4.61554 4.91479 5.39295 4.08679 6.35389 4.08679Z" stroke="#1C3553"/>
<path fill-rule="evenodd" clip-rule="evenodd" d="M9.733 9.17969H12.6045V10.5787H12.6459C13.0459 9.77469 14.0238 8.92469 15.4808 8.92469C18.5132 8.92469 19.0732 11.0457 19.0732 13.8047V19.4227H16.0794V14.4427C16.0794 13.2537 16.0586 11.7257 14.5226 11.7257C12.9641 11.7257 12.7259 13.0187 12.7259 14.3547V19.4227H9.733V9.17969Z" stroke="#1C3553"/>
</svg>
