<svg width="24" height="24" viewBox="0 0 24 24" fill="none" xmlns="http://www.w3.org/2000/svg">
<path d="M15.8961 18.2701C15.8984 18.5366 15.6806 18.7456 15.4141 18.7456H9.52266C9.24652 18.7456 9.0177 18.5218 9.01787 18.2457C9.01793 18.1671 9.01914 18.0889 9.02265 18.0101C9.07097 17.1403 8.7703 16.3886 8.22265 15.7389C7.89513 15.347 7.5354 14.9872 7.1703 14.6329C4.93674 12.4799 3.84144 8.95235 5.15687 5.70939C5.2213 5.55369 5.18372 5.47315 5.07634 5.36577C4.33164 4.62912 3.59297 3.88945 2.85355 3.14903C2.60688 2.90202 2.35967 2.65447 2.11258 2.40738C1.98721 2.28474 1.86045 2.16209 1.73442 2.04015C1.53439 1.8466 1.53236 1.52716 1.72948 1.33064C2.09961 0.96165 2.46384 0.600149 2.82216 0.24495C3.01764 0.0511769 3.33296 0.051922 3.52759 0.246545C5.56602 2.28492 7.60598 4.32432 9.6463 6.36407L9.66059 6.37836C13.8678 10.5844 18.0765 14.7919 22.2764 18.9951C22.4709 19.1897 22.4715 19.5049 22.2779 19.7004L21.1722 20.8159C20.9772 21.0126 20.6594 21.0133 20.4636 20.8174C19.1947 19.5485 17.9193 18.2729 16.6466 16.9965C16.4173 16.7666 16.033 16.8187 15.9634 17.1359C15.8884 17.4775 15.8919 17.8319 15.8954 18.1884L15.8961 18.2701Z" fill="#1C3553"/>
<path d="M9.03872 20.1371C9.03872 19.8609 9.2626 19.6371 9.53874 19.6371H15.379C15.6551 19.6371 15.879 19.8609 15.879 20.1371V20.823C15.879 21.0991 15.6551 21.323 15.379 21.323H9.53873C9.26259 21.323 9.03872 21.0991 9.03872 20.823V20.1371Z" fill="#1C3553"/>
<path d="M13.6771 23.8945C13.9532 23.8945 14.1771 23.6706 14.1771 23.3945V22.714C14.1771 22.4378 13.9532 22.214 13.6771 22.214H11.2677C10.9916 22.214 10.7677 22.4378 10.7677 22.714V23.3945C10.7677 23.6706 10.9915 23.8945 11.2677 23.8945H13.6771Z" fill="#1C3553"/>
<path d="M19.3473 11.9447C19.2142 12.2515 18.8245 12.2952 18.691 11.9886L18.685 11.9748V12.0641L8.68502 2.06406H8.71587C8.62325 1.91208 8.69849 1.68907 8.91347 1.58952C11.6961 0.301 15.225 0.790828 17.642 3.17273C20.1192 5.60987 20.5673 9.13383 19.3473 11.9447Z" fill="#1C3553"/>
</svg>
