<svg width="24" height="24" viewBox="0 0 24 24" fill="none" xmlns="http://www.w3.org/2000/svg">
<path fill-rule="evenodd" clip-rule="evenodd" d="M11.996 12.2456C10.1579 12.2456 8.66602 10.7314 8.66602 8.86566C8.66602 6.99993 10.1579 5.48572 11.996 5.48572C13.8342 5.48572 15.326 6.99993 15.326 8.86566C15.326 10.7314 13.8342 12.2456 11.996 12.2456ZM12 0C7.57714 0 4 3.756 4 8.4C4 13.5196 9.28297 20.6203 11.2627 23.1014C11.6443 23.5797 12.3557 23.5797 12.7373 23.1014C14.717 20.6203 20 13.5196 20 8.4C20 3.756 16.4229 0 12 0Z" fill="#1C3553"/>
</svg>
