<svg width="24" height="24" viewBox="0 0 24 24" fill="none" xmlns="http://www.w3.org/2000/svg">
<path fill-rule="evenodd" clip-rule="evenodd" d="M4.8529 19.4228H7.85243V9.17979H4.8529V19.4228ZM6.35408 4.08679C7.31408 4.08679 8.09243 4.91479 8.09243 5.93279C8.09243 6.95179 7.31408 7.77879 6.35408 7.77879C5.39313 7.77879 4.61572 6.95179 4.61572 5.93279C4.61572 4.91479 5.39313 4.08679 6.35408 4.08679Z" fill="#1C3553"/>
<path fill-rule="evenodd" clip-rule="evenodd" d="M9.73318 9.17969H12.6047V10.5787H12.6461C13.0461 9.77469 14.024 8.92469 15.4809 8.92469C18.5134 8.92469 19.0734 11.0457 19.0734 13.8047V19.4227H16.0795V14.4427C16.0795 13.2537 16.0588 11.7257 14.5228 11.7257C12.9642 11.7257 12.7261 13.0187 12.7261 14.3547V19.4227H9.73318V9.17969Z" fill="#1C3553"/>
<path fill-rule="evenodd" clip-rule="evenodd" d="M4.8529 19.4228H7.85243V9.17979H4.8529V19.4228ZM6.35408 4.08679C7.31408 4.08679 8.09243 4.91479 8.09243 5.93279C8.09243 6.95179 7.31408 7.77879 6.35408 7.77879C5.39313 7.77879 4.61572 6.95179 4.61572 5.93279C4.61572 4.91479 5.39313 4.08679 6.35408 4.08679Z" stroke="#1C3553"/>
<path fill-rule="evenodd" clip-rule="evenodd" d="M9.73318 9.17969H12.6047V10.5787H12.6461C13.0461 9.77469 14.024 8.92469 15.4809 8.92469C18.5134 8.92469 19.0734 11.0457 19.0734 13.8047V19.4227H16.0795V14.4427C16.0795 13.2537 16.0588 11.7257 14.5228 11.7257C12.9642 11.7257 12.7261 13.0187 12.7261 14.3547V19.4227H9.73318V9.17969Z" stroke="#1C3553"/>
</svg>
