<svg width="24" height="24" viewBox="0 0 24 24" fill="none" xmlns="http://www.w3.org/2000/svg">
<path d="M12.6102 18.03C12.2506 18.307 11.7494 18.307 11.3898 18.03L5.22678 13.2828C4.85946 12.9999 4.34207 13.0096 3.98221 13.302C3.4829 13.7076 3.48508 14.4773 3.99291 14.8723L11.3861 20.6225C11.7472 20.9034 12.2528 20.9034 12.6139 20.6225L20.0071 14.8723C20.5149 14.4773 20.5171 13.7076 20.0178 13.302C19.6579 13.0096 19.1405 12.9999 18.7732 13.2828L12.6102 18.03ZM11.3898 15.53C11.7494 15.807 12.2506 15.807 12.6102 15.53L19.4 10.3L20.0237 9.79321C20.5231 9.38752 20.5149 8.62272 20.0071 8.22774L12.6139 2.47751C12.2528 2.19665 11.7472 2.19665 11.3861 2.47751L3.9929 8.22774C3.48508 8.62272 3.47694 9.38752 3.97625 9.79321L4.6 10.3L11.3898 15.53Z" fill="#1C3553"/>
</svg>
