<svg width="24" height="24" viewBox="0 0 24 24" fill="none" xmlns="http://www.w3.org/2000/svg">
<path d="M15.4999 14H14.7099L14.4299 13.73C15.6299 12.33 16.2499 10.42 15.9099 8.39002C15.4399 5.61002 13.1199 3.39002 10.3199 3.05002C6.0899 2.53002 2.5399 6.09001 3.0499 10.32C3.3899 13.12 5.6099 15.44 8.3899 15.91C10.4199 16.25 12.3299 15.63 13.7299 14.43L13.9999 14.71V15.5L18.2599 19.75C18.6699 20.16 19.3299 20.16 19.7399 19.75L19.7499 19.74C20.1599 19.33 20.1599 18.67 19.7499 18.26L15.4999 14ZM9.4999 14C7.0099 14 4.9999 11.99 4.9999 9.50002C4.9999 7.01002 7.0099 5.00002 9.4999 5.00002C11.9899 5.00002 13.9999 7.01002 13.9999 9.50002C13.9999 11.99 11.9899 14 9.4999 14ZM9.4999 7.00002C9.2199 7.00002 8.9999 7.22002 8.9999 7.50002V9.00002H7.4999C7.2199 9.00002 6.9999 9.22002 6.9999 9.50002C6.9999 9.78002 7.2199 10 7.4999 10H8.9999V11.5C8.9999 11.78 9.2199 12 9.4999 12C9.7799 12 9.9999 11.78 9.9999 11.5V10H11.4999C11.7799 10 11.9999 9.78002 11.9999 9.50002C11.9999 9.22002 11.7799 9.00002 11.4999 9.00002H9.9999V7.50002C9.9999 7.22002 9.7799 7.00002 9.4999 7.00002Z" fill="#1C3553"/>
</svg>
