<svg width="24" height="24" viewBox="0 0 24 24" fill="none" xmlns="http://www.w3.org/2000/svg">
<path d="M6.29006 15.89L10.1801 12L6.29006 8.11C5.90006 7.72 5.90006 7.09 6.29006 6.7C6.68006 6.31 7.31006 6.31 7.70006 6.7L12.2901 11.29C12.6801 11.68 12.6801 12.31 12.2901 12.7L7.70006 17.3C7.31006 17.69 6.68006 17.69 6.29006 17.3C5.91006 16.91 5.91006 16.27 6.29006 15.89ZM17.0001 18C17.5501 18 18.0001 17.55 18.0001 17V7C18.0001 6.45 17.5501 6 17.0001 6C16.4501 6 16.0001 6.45 16.0001 7V17C16.0001 17.55 16.4501 18 17.0001 18Z" fill="#1C3553"/>
</svg>
