<svg width="24" height="24" viewBox="0 0 24 24" fill="none" xmlns="http://www.w3.org/2000/svg">
<path fill-rule="evenodd" clip-rule="evenodd" d="M5 5V11H11.5C12.3284 11 13 11.6716 13 12.5V19H19V5H5ZM3 4.5C3 3.67157 3.67157 3 4.5 3H19.5C20.3284 3 21 3.67157 21 4.5V19.5C21 20.3284 20.3284 21 19.5 21H12.5C11.6716 21 11 20.3284 11 19.5V13H4.5C3.67157 13 3 12.3284 3 11.5V4.5Z" fill="#1C3553"/>
<path fill-rule="evenodd" clip-rule="evenodd" d="M16.9126 20H20V15.1484L16.9126 20ZM20 11.4231V8.07698L12.4126 20H14.542L20 11.4231ZM20 4V4.35172L12 16.9231V13.577L18.0944 4H20ZM15.7238 4H13.5944L8.50353 12H10.6329L15.7238 4ZM9.09444 4H11.2238L6.13291 12H4.00353L9.09444 4ZM6.72382 4H4V8.28029L6.72382 4Z" fill="#1C3553"/>
</svg>
