<svg width="24" height="24" viewBox="0 0 24 24" fill="none" xmlns="http://www.w3.org/2000/svg">
<path d="M13.0032 8.75V12.43C13.0032 12.78 12.8132 13.11 12.5132 13.29L9.39317 15.14C9.03317 15.35 8.57317 15.23 8.36317 14.88C8.15317 14.52 8.26317 14.06 8.62317 13.85L11.4932 12.14V8.74C11.5032 8.34 11.8432 8 12.2532 8C12.6632 8 13.0032 8.34 13.0032 8.75ZM3.00317 9.5V4.21C3.00317 3.76 3.54317 3.54 3.85317 3.86L5.63317 5.64C7.44316 3.83 10.0232 2.79 12.8432 3.04C17.0332 3.42 20.4832 6.79 20.9432 10.98C21.5432 16.4 17.3132 21 12.0032 21C7.41317 21 3.62317 17.56 3.07317 13.12C3.00317 12.52 3.47317 12 4.07317 12C4.57317 12 4.99317 12.37 5.05317 12.86C5.48317 16.35 8.49317 19.05 12.1032 19C15.8132 18.95 18.9432 15.82 19.0032 12.1C19.0632 8.2 15.8932 5 12.0032 5C10.0732 5 8.32317 5.79 7.05317 7.05L9.14317 9.14C9.46317 9.46 9.24317 10 8.79317 10H3.50317C3.22317 10 3.00317 9.78 3.00317 9.5Z" fill="#1C3553"/>
</svg>
