<svg width="24" height="24" viewBox="0 0 24 24" fill="none" xmlns="http://www.w3.org/2000/svg">
<path d="M21.0003 9.5V4.21C21.0003 3.76 20.4603 3.54 20.1503 3.86L18.3703 5.64C16.5603 3.83 13.9803 2.79 11.1603 3.04C6.97025 3.42 3.52025 6.79 3.06025 10.98C2.46025 16.4 6.69025 21 12.0003 21C16.5903 21 20.3803 17.56 20.9303 13.12C21.0003 12.52 20.5303 12 19.9303 12C19.4303 12 19.0103 12.37 18.9503 12.86C18.5203 16.35 15.5103 19.05 11.9003 19C8.19025 18.95 5.06025 15.82 5.00025 12.1C4.94025 8.2 8.11025 5 12.0003 5C13.9303 5 15.6803 5.79 16.9503 7.05L14.8603 9.14C14.5403 9.46 14.7603 10 15.2103 10H20.5003C20.7803 10 21.0003 9.78 21.0003 9.5Z" fill="#1C3553"/>
</svg>
