<svg width="24" height="24" viewBox="0 0 24 24" fill="none" xmlns="http://www.w3.org/2000/svg">
<path d="M3.00003 12.0001C3.00003 6.95007 7.17003 2.86007 12.26 3.00007C16.95 3.13007 20.87 7.05007 21 11.7401C21.14 16.8301 17.05 21.0001 12 21.0001C10.39 21.0001 8.89003 20.5701 7.58003 19.8401C7.01003 19.5201 6.92003 18.7301 7.38003 18.2701C7.69003 17.9501 8.17003 17.8701 8.56003 18.0901C9.58003 18.6601 10.75 19.0001 12 19.0001C15.9 19.0001 19.05 15.8101 19 11.9001C18.95 8.18007 15.82 5.05007 12.1 5.00007C8.18003 4.95007 5.00003 8.10007 5.00003 12.0001H6.79003C7.24003 12.0001 7.46003 12.5401 7.15003 12.8501L4.36003 15.6401C4.16003 15.8401 3.85003 15.8401 3.65003 15.6401L0.860031 12.8501C0.540031 12.5401 0.760031 12.0001 1.21003 12.0001H3.00003Z" fill="#1C3553"/>
</svg>
