<svg width="24" height="24" viewBox="0 0 24 24" fill="none" xmlns="http://www.w3.org/2000/svg">
<path d="M11.7416 17.4259C11.9005 17.33 12.0995 17.33 12.2584 17.4259L17.1655 20.3877C17.5442 20.6162 18.0113 20.2767 17.9108 19.846L16.6086 14.2639C16.5664 14.0832 16.6278 13.8939 16.7681 13.7724L21.1043 10.0159C21.4386 9.72634 21.2599 9.17721 20.8192 9.13982L15.1104 8.65549C14.9256 8.63981 14.7647 8.52314 14.6923 8.35239L12.4604 3.08619C12.2881 2.67967 11.7119 2.67967 11.5396 3.08618L9.30766 8.35239C9.23529 8.52314 9.07436 8.63981 8.88957 8.65549L3.18081 9.13982C2.7401 9.17721 2.5614 9.72634 2.8957 10.0159L7.2319 13.7724C7.37218 13.8939 7.4336 14.0832 7.39144 14.2639L6.08921 19.846C5.98873 20.2767 6.45584 20.6162 6.8345 20.3877L11.7416 17.4259Z" fill="#1C3553"/>
</svg>
