<svg width="24" height="24" viewBox="0 0 24 24" fill="none" xmlns="http://www.w3.org/2000/svg">
<path d="M9 10H8.63086C7.52629 10 6.63086 10.8954 6.63086 12V20C6.63086 21.1046 7.52629 22 8.63086 22H17.6309C18.7354 22 19.6309 21.1046 19.6309 20V12C19.6309 10.8954 18.7358 10 17.6313 10C17.4318 10 17.2208 10 17 10" stroke="#1C3553" stroke-width="2" stroke-linecap="round" stroke-linejoin="round"/>
<path d="M12.9697 15.4272L12.9697 4.48179" stroke="#1C3553" stroke-width="2" stroke-linecap="round" stroke-linejoin="round"/>
<path d="M9.13477 6.40909L12.9984 3" stroke="#1C3553" stroke-width="2" stroke-linecap="round"/>
<path d="M16.8618 6.40909L12.9982 3" stroke="#1C3553" stroke-width="2" stroke-linecap="round"/>
<path d="M9 11C9.55228 11 10 10.5523 10 10C10 9.44772 9.55228 9 9 9V11ZM17 9C16.4477 9 16 9.44772 16 10C16 10.5523 16.4477 11 17 11V9ZM11.9695 15.4273C11.9695 15.9796 12.4172 16.4273 12.9695 16.4273C13.5218 16.4273 13.9695 15.9796 13.9695 15.4273H11.9695ZM13.9695 4.48182C13.9695 3.92953 13.5218 3.48182 12.9695 3.48182C12.4172 3.48182 11.9695 3.92953 11.9695 4.48182H13.9695ZM8.47314 5.65925C8.05902 6.02466 8.01952 6.65659 8.38493 7.07071C8.75033 7.48484 9.38226 7.52433 9.79639 7.15893L8.47314 5.65925ZM12.9984 3L13.66 2.25018L12.9984 1.66636L12.3368 2.25016L12.9984 3ZM16.2002 7.15891C16.6143 7.52433 17.2462 7.48485 17.6117 7.07073C17.9771 6.65662 17.9376 6.02468 17.5235 5.65927L16.2002 7.15891ZM8.63086 11H9V9H8.63086V11ZM7.63086 20V12H5.63086V20H7.63086ZM17.6309 21H8.63086V23H17.6309V21ZM18.6309 12V20H20.6309V12H18.6309ZM17 11H17.6313V9H17V11ZM20.6309 12C20.6309 10.3434 19.2884 9 17.6313 9V11C18.1833 11 18.6309 11.4474 18.6309 12H20.6309ZM17.6309 23C19.2877 23 20.6309 21.6569 20.6309 20H18.6309C18.6309 20.5523 18.1831 21 17.6309 21V23ZM5.63086 20C5.63086 21.6569 6.974 23 8.63086 23V21C8.07857 21 7.63086 20.5523 7.63086 20H5.63086ZM8.63086 9C6.97401 9 5.63086 10.3431 5.63086 12H7.63086C7.63086 11.4477 8.07857 11 8.63086 11V9ZM13.9695 15.4273L13.9695 4.48182H11.9695L11.9695 15.4273H13.9695ZM9.79639 7.15893L13.66 3.74984L12.3368 2.25016L8.47314 5.65925L9.79639 7.15893ZM17.5235 5.65927L13.66 2.25018L12.3368 3.74982L16.2002 7.15891L17.5235 5.65927Z" fill="#1C3553"/>
</svg>
