<svg width="24" height="24" viewBox="0 0 24 24" fill="none" xmlns="http://www.w3.org/2000/svg">
<path fill-rule="evenodd" clip-rule="evenodd" d="M14.7396 8.45381C14.783 8.55605 14.8794 8.62594 14.99 8.63548L21.294 9.17908C21.5581 9.20185 21.665 9.53081 21.4649 9.70454L16.6866 13.8516C16.6026 13.9244 16.5659 14.0377 16.591 14.1459L18.0199 20.3087C18.0798 20.567 17.7996 20.7703 17.5726 20.6333L12.1552 17.3635C12.0598 17.306 11.9405 17.306 11.8451 17.3635L6.42886 20.6326C6.20167 20.7697 5.9214 20.566 5.98168 20.3076L7.41902 14.1463C7.44432 14.0379 7.40747 13.9243 7.3233 13.8514L2.53758 9.70554C2.337 9.53178 2.44422 9.2023 2.70865 9.17987L9.0099 8.64527C9.12078 8.63586 9.21733 8.56586 9.26076 8.46341L11.7242 2.65119C11.8275 2.40736 12.173 2.40726 12.2765 2.65104L14.7396 8.45381ZM8.40202 16.9772C8.34163 17.2357 8.62197 17.4395 8.84921 17.3023L11.845 15.4937C11.9404 15.4361 12.0599 15.4361 12.1553 15.4938L15.1607 17.3114C15.388 17.4488 15.6685 17.245 15.6081 16.9865L14.8113 13.5762C14.786 13.4678 14.8228 13.3543 14.9069 13.2814L17.555 10.9842C17.7552 10.8106 17.6483 10.4816 17.3843 10.4587L13.8901 10.1556C13.7794 10.146 13.6831 10.076 13.6398 9.97364L12.2769 6.75379C12.1735 6.50954 11.8273 6.50976 11.7242 6.75413L10.3705 9.96333C10.3272 10.0658 10.2308 10.136 10.12 10.1456L6.626 10.4487C6.36198 10.4716 6.25516 10.8006 6.45535 10.9742L9.10343 13.2714C9.18752 13.3443 9.22431 13.4578 9.19898 13.5662L8.40202 16.9772Z" fill="#1C3553"/>
</svg>
