<svg width="24" height="24" viewBox="0 0 24 24" fill="none" xmlns="http://www.w3.org/2000/svg">
<path d="M21.317 9.81858C21.5763 9.5837 21.4304 9.15254 21.0817 9.12348L15.0407 8.62007C14.8927 8.60773 14.7637 8.5144 14.7057 8.37767L12.3682 2.86799C12.2303 2.54295 11.7697 2.54295 11.6318 2.86799L9.29433 8.37767C9.23632 8.5144 9.10733 8.60773 8.95932 8.62007L2.94193 9.12152C2.58973 9.15087 2.44586 9.58912 2.71213 9.8215L7.31977 13.8427C7.43076 13.9396 7.47952 14.0896 7.4467 14.2332L6.10847 20.0879C6.03004 20.4311 6.40112 20.701 6.7034 20.5206L11.895 17.4223C12.0213 17.347 12.1787 17.347 12.305 17.4223L17.4966 20.5206C17.7989 20.701 18.17 20.4311 18.0915 20.0879L16.7522 14.2284C16.72 14.0873 16.7664 13.9399 16.8736 13.8428L21.317 9.81858ZM12.1929 15.5168C12.0732 15.4443 12 15.3145 12 15.1746V8.06384C12 7.62818 12.5977 7.50643 12.7681 7.90738L13.6064 9.87977C13.664 10.0154 13.7916 10.1083 13.9383 10.1217L17.1729 10.4157C17.5228 10.4475 17.6646 10.8826 17.4007 11.1145L14.9798 13.242C14.8691 13.3393 14.8208 13.4896 14.8542 13.6331L15.5851 16.776C15.6653 17.1207 15.2912 17.392 14.9884 17.2088L12.1929 15.5168Z" fill="#1C3553"/>
</svg>
