<svg width="24" height="24" viewBox="0 0 24 24" fill="none" xmlns="http://www.w3.org/2000/svg">
<path d="M21.3171 9.81852C21.5765 9.58364 21.4305 9.15248 21.0818 9.12342L15.0408 8.62001C14.8928 8.60767 14.7638 8.51434 14.7058 8.37761L12.3684 2.86793C12.2305 2.54289 11.7698 2.54289 11.6319 2.86793L9.29445 8.37761C9.23644 8.51434 9.10745 8.60767 8.95944 8.62001L2.94205 9.12145C2.58985 9.1508 2.44598 9.58906 2.71225 9.82144L7.31989 13.8427C7.43088 13.9395 7.47965 14.0895 7.44682 14.2332L6.1086 20.0879C6.03016 20.431 6.40125 20.7009 6.70352 20.5205L11.8951 17.4223C12.0214 17.3469 12.1788 17.3469 12.3051 17.4223L17.4967 20.5205C17.799 20.7009 18.1701 20.431 18.0917 20.0879L16.7523 14.2283C16.7201 14.0873 16.7665 13.9398 16.8738 13.8427L21.3171 9.81852ZM12.193 15.5167C12.0733 15.4442 12.0001 15.3144 12.0001 15.1745V8.06378C12.0001 7.62812 12.5979 7.50637 12.7683 7.90732L13.6065 9.87971C13.6642 10.0153 13.7917 10.1083 13.9384 10.1216L17.173 10.4157C17.5229 10.4475 17.6647 10.8826 17.4008 11.1145L14.9799 13.242C14.8692 13.3392 14.821 13.4895 14.8543 13.633L15.5852 16.7759C15.6654 17.1206 15.2913 17.392 14.9885 17.2087L12.193 15.5167Z" fill="#1C3553"/>
</svg>
