<svg width="24" height="24" viewBox="0 0 24 24" fill="none" xmlns="http://www.w3.org/2000/svg">
<path fill-rule="evenodd" clip-rule="evenodd" d="M14.7395 8.45381C14.7829 8.55605 14.8792 8.62594 14.9899 8.63548L21.2939 9.17908C21.558 9.20185 21.6649 9.53081 21.4648 9.70454L16.6864 13.8516C16.6025 13.9244 16.5657 14.0377 16.5908 14.1459L18.0198 20.3087C18.0796 20.567 17.7995 20.7703 17.5725 20.6333L12.1551 17.3635C12.0597 17.306 11.9404 17.306 11.845 17.3635L6.42874 20.6326C6.20154 20.7697 5.92127 20.566 5.98156 20.3076L7.4189 14.1463C7.4442 14.0379 7.40735 13.9243 7.32318 13.8514L2.53746 9.70554C2.33688 9.53178 2.4441 9.2023 2.70853 9.17987L9.00978 8.64527C9.12065 8.63586 9.21721 8.56586 9.26063 8.46341L11.724 2.65119C11.8274 2.40736 12.1729 2.40726 12.2764 2.65104L14.7395 8.45381ZM8.4019 16.9772C8.34151 17.2357 8.62185 17.4395 8.84909 17.3023L11.8449 15.4937C11.9403 15.4361 12.0598 15.4361 12.1552 15.4938L15.1606 17.3114C15.3878 17.4488 15.6684 17.245 15.608 16.9865L14.8112 13.5762C14.7859 13.4678 14.8227 13.3543 14.9068 13.2814L17.5549 10.9842C17.755 10.8106 17.6482 10.4816 17.3842 10.4587L13.89 10.1556C13.7793 10.146 13.683 10.076 13.6396 9.97364L12.2768 6.75379C12.1734 6.50954 11.8272 6.50976 11.7241 6.75413L10.3703 9.96333C10.3271 10.0658 10.2307 10.136 10.1199 10.1456L6.62588 10.4487C6.36186 10.4716 6.25504 10.8006 6.45522 10.9742L9.10331 13.2714C9.1874 13.3443 9.22418 13.4578 9.19886 13.5662L8.4019 16.9772Z" fill="#1C3553"/>
</svg>
