<svg width="24" height="24" viewBox="0 0 24 24" fill="none" xmlns="http://www.w3.org/2000/svg">
<path fill-rule="evenodd" clip-rule="evenodd" d="M4.2793 6.4834C3.72701 6.4834 3.2793 6.93111 3.2793 7.4834C3.2793 8.03568 3.72701 8.4834 4.2793 8.4834H17.3461C17.8984 8.4834 18.3461 8.03568 18.3461 7.4834C18.3461 6.93111 17.8983 6.4834 17.3461 6.4834H4.2793ZM3.2793 17.4834C3.2793 18.0357 3.72701 18.4834 4.2793 18.4834H9.26439C9.81668 18.4834 10.2644 18.0357 10.2644 17.4834C10.2644 16.9311 9.81668 16.4834 9.26439 16.4834H4.2793C3.72701 16.4834 3.2793 16.9311 3.2793 17.4834ZM4.2793 13.4834C3.72701 13.4834 3.2793 13.0357 3.2793 12.4834C3.2793 11.9311 3.72701 11.4834 4.2793 11.4834H14.2793C14.8316 11.4834 15.2793 11.9311 15.2793 12.4834C15.2793 13.0357 14.8316 13.4834 14.2793 13.4834H4.2793Z" fill="#1C3553"/>
</svg>
