<svg width="24" height="24" viewBox="0 0 24 24" fill="none" xmlns="http://www.w3.org/2000/svg">
<path d="M16.8505 17.15L18.2905 15.71L13.4105 10.83L10.1205 14.12C9.73047 14.51 9.10047 14.51 8.71047 14.12L2.71047 8.10997C2.32047 7.71997 2.32047 7.08997 2.71047 6.69997C3.10047 6.30997 3.73047 6.30997 4.12047 6.69997L9.41047 12L12.7005 8.70997C13.0905 8.31997 13.7205 8.31997 14.1105 8.70997L19.7005 14.29L21.1405 12.85C21.4505 12.54 21.9905 12.76 21.9905 13.2V17.49C21.9905 17.77 21.7705 17.99 21.4905 17.99H17.2005C16.7605 18 16.5405 17.46 16.8505 17.15Z" fill="#1C3553"/>
</svg>
