<svg width="24" height="24" viewBox="0 0 24 24" fill="none" xmlns="http://www.w3.org/2000/svg">
<path d="M16.85 17.15L18.29 15.71L13.41 10.83L10.12 14.12C9.72998 14.51 9.09998 14.51 8.70998 14.12L2.70998 8.10997C2.31998 7.71997 2.31998 7.08997 2.70998 6.69997C3.09998 6.30997 3.72998 6.30997 4.11998 6.69997L9.40998 12L12.7 8.70997C13.09 8.31997 13.72 8.31997 14.11 8.70997L19.7 14.29L21.14 12.85C21.45 12.54 21.99 12.76 21.99 13.2V17.49C21.99 17.77 21.77 17.99 21.49 17.99H17.2C16.76 18 16.54 17.46 16.85 17.15Z" fill="#1C3553"/>
</svg>
