<svg width="24" height="24" viewBox="0 0 24 24" fill="none" xmlns="http://www.w3.org/2000/svg">
<path d="M16.8505 6.85L18.2905 8.29L13.4105 13.17L10.1205 9.88C9.73047 9.49 9.10047 9.49 8.71047 9.88L2.71047 15.89C2.32047 16.28 2.32047 16.91 2.71047 17.3C3.10047 17.69 3.73047 17.69 4.12047 17.3L9.41047 12L12.7005 15.29C13.0905 15.68 13.7205 15.68 14.1105 15.29L19.7005 9.71L21.1405 11.15C21.4505 11.46 21.9905 11.24 21.9905 10.8V6.5C22.0005 6.22 21.7805 6 21.5005 6H17.2105C16.7605 6 16.5405 6.54 16.8505 6.85Z" fill="#1C3553"/>
</svg>
