<svg width="24" height="24" viewBox="0 0 24 24" fill="none" xmlns="http://www.w3.org/2000/svg">
<path fill-rule="evenodd" clip-rule="evenodd" d="M18.362 9.2375C18.369 9.37848 18.372 9.51946 18.372 9.66144C18.372 13.9988 15.07 19 9.032 19C7.178 19 5.453 18.4571 4 17.5252C4.258 17.5552 4.519 17.5702 4.783 17.5702C6.322 17.5702 7.736 17.0473 8.859 16.1664C7.424 16.1394 6.211 15.1896 5.794 13.8878C5.994 13.9248 6.199 13.9458 6.411 13.9458C6.711 13.9458 7.001 13.9048 7.275 13.8308C5.775 13.5278 4.643 12.202 4.643 10.6123V10.5713C5.086 10.8173 5.592 10.9642 6.13 10.9822C5.249 10.3943 4.67 9.38848 4.67 8.24965C4.67 7.64775 4.832 7.08383 5.114 6.59991C6.732 8.5856 9.152 9.8924 11.88 10.0284C11.824 9.78842 11.795 9.53846 11.795 9.2805C11.795 7.46877 13.265 6 15.078 6C16.021 6 16.875 6.39794 17.474 7.03484C18.221 6.88886 18.924 6.61491 19.559 6.23796C19.312 7.00585 18.793 7.64775 18.115 8.05468C18.779 7.9767 19.412 7.79872 20 7.53876C19.561 8.19666 19.004 8.77457 18.362 9.2375Z" fill="#1C3553"/>
</svg>
