<svg width="24" height="24" viewBox="0 0 24 24" fill="none" xmlns="http://www.w3.org/2000/svg">
<path d="M19 16C16.7273 16 14.7864 17.4513 14 19.5C14.7864 21.5487 16.7273 23 19 23C21.2727 23 23.2136 21.5487 24 19.5C23.2136 17.4513 21.2727 16 19 16ZM19 21.8333C17.7455 21.8333 16.7273 20.788 16.7273 19.5C16.7273 18.212 17.7455 17.1667 19 17.1667C20.2545 17.1667 21.2727 18.212 21.2727 19.5C21.2727 20.788 20.2545 21.8333 19 21.8333ZM19 18.1C18.2455 18.1 17.6364 18.7253 17.6364 19.5C17.6364 20.2747 18.2455 20.9 19 20.9C19.7545 20.9 20.3636 20.2747 20.3636 19.5C20.3636 18.7253 19.7545 18.1 19 18.1Z" fill="#1C3553"/>
<path fill-rule="evenodd" clip-rule="evenodd" d="M5 3H19C20.1 3 21 3.9 21 5V14.2174C20.4213 14.0752 19.8189 14 19.2 14C18.4371 14 17.6992 14.1142 17 14.3276V14C17 13.45 16.55 13 16 13C15.45 13 15 13.45 15 14V15.2715C13.5148 16.251 12.3469 17.7343 11.7 19.5C11.8931 20.0271 12.1327 20.5291 12.4133 21H5C3.9 21 3 20.1 3 19V5C3 3.9 3.9 3 5 3ZM7 16C7 16.55 7.45 17 8 17C8.55 17 9 16.55 9 16V11C9 10.45 8.55 10 8 10C7.45 10 7 10.45 7 11V16ZM11 16C11 16.55 11.45 17 12 17C12.55 17 13 16.55 13 16V8C13 7.45 12.55 7 12 7C11.45 7 11 7.45 11 8V16Z" fill="#1C3553"/>
</svg>
