<svg width="24" height="24" viewBox="0 0 24 24" fill="none" xmlns="http://www.w3.org/2000/svg">
<path d="M2 22L3.41254 16.8642C2.5409 15.3608 2.08289 13.6567 2.08373 11.9092C2.08624 6.44583 6.55329 2 12.0419 2C14.7053 2.00083 17.2056 3.03333 19.0862 4.90667C20.9659 6.78 22.0008 9.27 22 11.9183C21.9975 17.3825 17.5304 21.8283 12.0419 21.8283C10.3756 21.8275 8.73365 21.4117 7.27924 20.6217L2 22ZM7.52374 18.8275C8.92707 19.6567 10.2668 20.1533 12.0385 20.1542C16.6002 20.1542 20.3162 16.4592 20.3187 11.9167C20.3204 7.365 16.622 3.675 12.0452 3.67333C7.4802 3.67333 3.76673 7.36833 3.76505 11.91C3.76421 13.7642 4.31014 15.1525 5.22699 16.605L4.39052 19.645L7.52374 18.8275ZM17.0582 14.2742C16.9962 14.1708 16.8304 14.1092 16.5809 13.985C16.3322 13.8608 15.1089 13.2617 14.8803 13.1792C14.6526 13.0967 14.4868 13.055 14.3202 13.3033C14.1544 13.5508 13.6771 14.1092 13.5323 14.2742C13.3874 14.4392 13.2417 14.46 12.993 14.3358C12.7444 14.2117 11.9422 13.9508 10.9919 13.1067C10.2525 12.45 9.75266 11.6392 9.6078 11.3908C9.46295 11.1433 9.59273 11.0092 9.71665 10.8858C9.82885 10.775 9.96533 10.5967 10.0901 10.4517C10.2165 10.3083 10.2576 10.205 10.3413 10.0392C10.4242 9.87417 10.3832 9.72917 10.3204 9.605C10.2576 9.48167 9.76019 8.2625 9.55338 7.76667C9.35075 7.28417 9.14561 7.34917 8.99322 7.34167L8.51595 7.33333C8.35016 7.33333 8.08055 7.395 7.8528 7.64333C7.62505 7.89167 6.982 8.49 6.982 9.70917C6.982 10.9283 7.87373 12.1058 7.99765 12.2708C8.12241 12.4358 9.75182 14.9375 12.2478 16.01C12.8415 16.265 13.3054 16.4175 13.6662 16.5317C14.2624 16.72 14.805 16.6933 15.2337 16.63C15.7118 16.5592 16.7057 16.0308 16.9133 15.4525C17.121 14.8733 17.121 14.3775 17.0582 14.2742Z" fill="#1C3553"/>
</svg>
