<svg width="24" height="24" viewBox="0 0 24 24" fill="none" xmlns="http://www.w3.org/2000/svg">
<path d="M4.47012 20.9999H19.5301C21.0701 20.9999 22.0301 19.3299 21.2601 17.9999L13.7301 4.98993C12.9601 3.65993 11.0401 3.65993 10.2701 4.98993L2.74012 17.9999C1.97012 19.3299 2.93012 20.9999 4.47012 20.9999ZM12.0001 13.9999C11.4501 13.9999 11.0001 13.5499 11.0001 12.9999V10.9999C11.0001 10.4499 11.4501 9.99993 12.0001 9.99993C12.5501 9.99993 13.0001 10.4499 13.0001 10.9999V12.9999C13.0001 13.5499 12.5501 13.9999 12.0001 13.9999ZM13.0001 17.9999H11.0001V15.9999H13.0001V17.9999Z" fill="#1C3553"/>
</svg>
