<svg width="156" height="156" viewBox="0 0 156 156" fill="none" xmlns="http://www.w3.org/2000/svg">
<path fill-rule="evenodd" clip-rule="evenodd" d="M80.4501 15.8981C79.0079 14.7808 76.9925 14.7808 75.5504 15.8981L67.7153 21.9685C66.9808 22.5377 66.0709 22.8333 65.1421 22.8046L55.2353 22.4989C53.4119 22.4426 51.7813 23.6272 51.2714 25.3788L48.5008 34.8952C48.241 35.7874 47.6787 36.5614 46.9104 37.0841L38.716 42.6598C37.2077 43.6861 36.5849 45.6029 37.2019 47.3197L40.554 56.6472C40.8683 57.5217 40.8683 58.4783 40.554 59.3528L37.2019 68.6803C36.5849 70.3971 37.2077 72.3139 38.716 73.3401L46.9104 78.9158C47.6787 79.4386 48.241 80.2126 48.5008 81.1048L51.2714 90.6212C51.7813 92.3728 53.4119 93.5574 55.2353 93.5011L65.1421 93.1954C66.0709 93.1667 66.9808 93.4623 67.7153 94.0315L75.5504 100.102C76.9925 101.219 79.0079 101.219 80.4501 100.102L88.2851 94.0315C89.0197 93.4623 89.9295 93.1667 90.8584 93.1954L100.765 93.5011C102.589 93.5574 104.219 92.3728 104.729 90.6212L107.5 81.1048C107.759 80.2126 108.322 79.4386 109.09 78.9158L117.284 73.3401C118.793 72.3139 119.416 70.3971 118.799 68.6803L115.446 59.3528C115.132 58.4783 115.132 57.5217 115.446 56.6472L118.799 47.3197C119.416 45.6029 118.793 43.6861 117.284 42.6598L109.09 37.0841C108.322 36.5614 107.759 35.7874 107.5 34.8952L104.729 25.3788C104.219 23.6272 102.589 22.4426 100.765 22.4989L90.8584 22.8046C89.9295 22.8333 89.0197 22.5377 88.2851 21.9685L80.4501 15.8981ZM78.0002 86C93.4642 86 106 73.464 106 58C106 42.536 93.4642 30 78.0002 30C62.5363 30 50.0002 42.536 50.0002 58C50.0002 73.464 62.5363 86 78.0002 86Z" fill="#C2DDFF"/>
<path d="M77.137 43.928C77.5227 43.2658 78.4795 43.2658 78.8652 43.928L82.8081 50.6976C82.9494 50.9402 83.1862 51.1123 83.4606 51.1717L91.1173 52.8297C91.8664 52.9919 92.162 53.9018 91.6513 54.4733L86.4315 60.3152C86.2445 60.5246 86.154 60.8029 86.1823 61.0822L86.9715 68.8766C87.0487 69.6391 86.2746 70.2014 85.5733 69.8924L78.4043 66.7333C78.1474 66.62 77.8548 66.62 77.5978 66.7333L70.4289 69.8924C69.7275 70.2014 68.9535 69.6391 69.0307 68.8766L69.8199 61.0822C69.8482 60.8029 69.7577 60.5246 69.5707 60.3152L64.3508 54.4733C63.8402 53.9018 64.1358 52.9919 64.8849 52.8297L72.5416 51.1717C72.816 51.1123 73.0527 50.9402 73.194 50.6976L77.137 43.928Z" fill="#C2DDFF"/>
<path fill-rule="evenodd" clip-rule="evenodd" d="M74.3251 14.3171C76.4883 12.6411 79.5115 12.6411 81.6747 14.3171L89.5097 20.3875C89.877 20.6721 90.3319 20.8199 90.7963 20.8056L100.703 20.4998C103.438 20.4154 105.884 22.1923 106.649 24.8198L109.42 34.3362C109.549 34.7823 109.831 35.1692 110.215 35.4306L118.409 41.0063C120.672 42.5457 121.606 45.4209 120.68 47.9962L117.328 57.3236C117.171 57.7608 117.171 58.2392 117.328 58.6764L120.68 68.0038C121.606 70.5791 120.672 73.4543 118.409 74.9937L110.215 80.5694C109.831 80.8308 109.549 81.2177 109.42 81.6638L106.649 91.1802C105.884 93.8076 103.438 95.5846 100.703 95.5002L90.7964 95.1944C90.3319 95.1801 89.877 95.3279 89.5097 95.6125L81.6747 101.683C79.5115 103.359 76.4883 103.359 74.3251 101.683L66.4901 95.6125C66.1228 95.3279 65.6679 95.1801 65.2035 95.1944L55.2967 95.5002C52.5615 95.5846 50.1157 93.8076 49.3508 91.1802L46.5802 81.6638C46.4503 81.2177 46.1692 80.8308 45.785 80.5694L37.5906 74.9937C35.3281 73.4543 34.3939 70.5791 35.3194 68.0038L38.6716 58.6764C38.8287 58.2392 38.8287 57.7608 38.6716 57.3236L35.3194 47.9962C34.3939 45.4209 35.3281 42.5457 37.5906 41.0063L45.785 35.4306C46.1692 35.1692 46.4503 34.7823 46.5802 34.3362L49.3508 24.8198C50.1157 22.1924 52.5615 20.4154 55.2967 20.4998L65.2035 20.8056C65.6679 20.8199 66.1228 20.6721 66.4901 20.3875L74.3251 14.3171ZM79.2248 17.4791C78.5038 16.9204 77.4961 16.9204 76.775 17.4791L68.94 23.5495C67.8381 24.4032 66.4733 24.8467 65.0801 24.8037L55.1733 24.4979C54.2616 24.4698 53.4463 25.0621 53.1913 25.9379L50.4208 35.4543C50.0311 36.7926 49.1877 37.9535 48.0352 38.7377L39.8408 44.3134C39.0866 44.8265 38.7752 45.7849 39.0837 46.6433L42.4359 55.9707C42.9073 57.2825 42.9073 58.7175 42.4359 60.0293L39.0837 69.3567C38.7752 70.2151 39.0866 71.1735 39.8408 71.6866L48.0352 77.2623C49.1877 78.0465 50.0311 79.2074 50.4208 80.5457L53.1913 90.0621C53.4463 90.9379 54.2616 91.5302 55.1733 91.5021L65.0801 91.1963C66.4733 91.1533 67.8381 91.5968 68.94 92.4505L76.775 98.5209C77.4961 99.0796 78.5038 99.0796 79.2248 98.5209L87.0599 92.4505C88.1618 91.5968 89.5265 91.1533 90.9197 91.1963L100.827 91.5021C101.738 91.5302 102.554 90.9379 102.808 90.0621L105.579 80.5457C105.969 79.2074 106.812 78.0465 107.965 77.2623L116.159 71.6866C116.913 71.1735 117.225 70.2151 116.916 69.3567L113.564 60.0292C113.093 58.7175 113.093 57.2825 113.564 55.9708L116.916 46.6433C117.225 45.7849 116.913 44.8265 116.159 44.3134L107.965 38.7377C106.812 37.9535 105.969 36.7926 105.579 35.4543L102.808 25.9379C102.554 25.0621 101.738 24.4698 100.827 24.4979L90.9197 24.8037C89.5265 24.8467 88.1618 24.4032 87.0599 23.5495L79.2248 17.4791Z" fill="#1C3553"/>
<path fill-rule="evenodd" clip-rule="evenodd" d="M78 32C63.6406 32 52 43.6406 52 58C52 72.3594 63.6406 84 78 84C92.3594 84 104 72.3594 104 58C104 43.6406 92.3594 32 78 32ZM48 58C48 41.4315 61.4315 28 78 28C94.5685 28 108 41.4315 108 58C108 74.5685 94.5685 88 78 88C61.4315 88 48 74.5685 48 58Z" fill="#1C3553"/>
<path fill-rule="evenodd" clip-rule="evenodd" d="M75.4089 42.9214C76.5661 40.9346 79.4364 40.9346 80.5936 42.9214L84.3147 49.3102L91.5407 50.875C93.7879 51.3616 94.6749 54.0914 93.1429 55.8059L88.2167 61.3192L88.9615 68.6751C89.1931 70.9626 86.871 72.6497 84.767 71.7225L78.0012 68.7411L71.2355 71.7225C69.1315 72.6497 66.8094 70.9626 67.041 68.6751L67.7858 61.3192L62.8596 55.8059C61.3276 54.0914 62.2146 51.3616 64.4618 50.875L71.6878 49.3102L75.4089 42.9214ZM78.0012 46.4182L74.9224 51.7042C74.4985 52.432 73.7882 52.9481 72.965 53.1264L66.9863 54.421L71.0622 58.9826C71.6234 59.6107 71.8947 60.4457 71.8099 61.2837L71.1937 67.3698L76.7915 64.9031C77.5622 64.5634 78.4403 64.5634 79.211 64.9031L84.8088 67.3698L84.1926 61.2837C84.1078 60.4457 84.3791 59.6107 84.9403 58.9826L89.0162 54.421L83.0375 53.1264C82.2143 52.9481 81.504 52.432 81.0801 51.7042L78.0012 46.4182Z" fill="#1C3553"/>
<path fill-rule="evenodd" clip-rule="evenodd" d="M113.069 88.268C114.026 87.7157 115.249 88.0434 115.801 89L133.255 119.231C134.92 122.115 132.539 125.651 129.241 125.193L119.773 123.879L116.177 132.736C114.925 135.821 110.672 136.115 109.007 133.231L94.0527 107.33C93.5004 106.374 93.8282 105.15 94.7848 104.598C95.7414 104.046 96.9646 104.374 97.5168 105.33L112.471 131.231L116.067 122.374C116.756 120.677 118.509 119.665 120.323 119.917L129.791 121.231L112.337 91C111.785 90.0434 112.113 88.8202 113.069 88.268Z" fill="#1C3553"/>
<path fill-rule="evenodd" clip-rule="evenodd" d="M43.4996 88.268C44.4562 88.8202 44.784 90.0434 44.2317 91L26.7776 121.231L36.2461 119.917C38.0601 119.665 39.8134 120.677 40.5023 122.374L44.0981 131.231L59.0522 105.33C59.6045 104.374 60.8277 104.046 61.7842 104.598C62.7408 105.15 63.0686 106.374 62.5163 107.33L47.5622 133.231C45.8975 136.115 41.6444 135.821 40.3919 132.736L36.7961 123.879L27.3277 125.193C24.0298 125.651 21.6488 122.115 23.3135 119.231L40.7676 89C41.3199 88.0434 42.543 87.7157 43.4996 88.268Z" fill="#1C3553"/>
</svg>
