<svg width="156" height="156" viewBox="0 0 156 156" fill="none" xmlns="http://www.w3.org/2000/svg">
<path d="M50 37C50 35.8954 50.8954 35 52 35H104C105.105 35 106 35.8954 106 37V65C106 66.1046 105.105 67 104 67H52C50.8954 67 50 66.1046 50 65V37Z" fill="#C2DDFF"/>
<path fill-rule="evenodd" clip-rule="evenodd" d="M70 109C70 107.895 70.8954 107 72 107H84C85.1046 107 86 107.895 86 109V134C86 135.105 85.1046 136 84 136H72C70.8954 136 70 135.105 70 134V109ZM74 111V132H82V111H74Z" fill="#1C3553"/>
<path fill-rule="evenodd" clip-rule="evenodd" d="M42 84C42 82.8954 42.8954 82 44 82H56C57.1046 82 58 82.8954 58 84V96C58 97.1046 57.1046 98 56 98H44C42.8954 98 42 97.1046 42 96V84ZM46 86V94H54V86H46Z" fill="#1C3553"/>
<path fill-rule="evenodd" clip-rule="evenodd" d="M42 109C42 107.895 42.8954 107 44 107H56C57.1046 107 58 107.895 58 109V121C58 122.105 57.1046 123 56 123H44C42.8954 123 42 122.105 42 121V109ZM46 111V119H54V111H46Z" fill="#1C3553"/>
<path fill-rule="evenodd" clip-rule="evenodd" d="M98 109C98 107.895 98.8954 107 100 107H112C113.105 107 114 107.895 114 109V121C114 122.105 113.105 123 112 123H100C98.8954 123 98 122.105 98 121V109ZM102 111V119H110V111H102Z" fill="#1C3553"/>
<path fill-rule="evenodd" clip-rule="evenodd" d="M70 84C70 82.8954 70.8954 82 72 82H84C85.1046 82 86 82.8954 86 84V96C86 97.1046 85.1046 98 84 98H72C70.8954 98 70 97.1046 70 96V84ZM74 86V94H82V86H74Z" fill="#1C3553"/>
<path fill-rule="evenodd" clip-rule="evenodd" d="M98 84C98 82.8954 98.8954 82 100 82H112C113.105 82 114 82.8954 114 84V96C114 97.1046 113.105 98 112 98H100C98.8954 98 98 97.1046 98 96V84ZM102 86V94H110V86H102Z" fill="#1C3553"/>
<path fill-rule="evenodd" clip-rule="evenodd" d="M30 67C30 65.8954 30.8954 65 32 65H124C125.105 65 126 65.8954 126 67V134C126 135.105 125.105 136 124 136H32C30.8954 136 30 135.105 30 134V67ZM34 69V132H122V69H34Z" fill="#1C3553"/>
<path fill-rule="evenodd" clip-rule="evenodd" d="M42 31C42 28.7909 43.7909 27 46 27H58C59.1046 27 60 27.8954 60 29C60 30.1046 59.1046 31 58 31L46 31V65H110V31H66C64.8954 31 64 30.1046 64 29C64 27.8954 64.8954 27 66 27H110C112.209 27 114 28.7909 114 31V67C114 68.1046 113.105 69 112 69H44C42.8954 69 42 68.1046 42 67V31Z" fill="#1C3553"/>
<path fill-rule="evenodd" clip-rule="evenodd" d="M23 134C23 132.895 23.8954 132 25 132H131C132.105 132 133 132.895 133 134C133 135.105 132.105 136 131 136H25C23.8954 136 23 135.105 23 134Z" fill="#1C3553"/>
<path fill-rule="evenodd" clip-rule="evenodd" d="M44 69C42.8954 69 42 68.1046 42 67L42 53C42 51.8954 42.8954 51 44 51C45.1046 51 46 51.8954 46 53L46 67C46 68.1046 45.1046 69 44 69Z" fill="#1C3553"/>
<path fill-rule="evenodd" clip-rule="evenodd" d="M32 76C30.8954 76 30 75.1046 30 74L30 53C30 51.8954 30.8954 51 32 51C33.1046 51 34 51.8954 34 53L34 74C34 75.1046 33.1046 76 32 76Z" fill="#1C3553"/>
<path fill-rule="evenodd" clip-rule="evenodd" d="M26 53C26 51.8954 26.8954 51 28 51L108 51C109.105 51 110 51.8954 110 53C110 54.1046 109.105 55 108 55L28 55C26.8954 55 26 54.1046 26 53Z" fill="#1C3553"/>
<path fill-rule="evenodd" clip-rule="evenodd" d="M124 69C122.895 69 122 68.1046 122 67L122 53C122 51.8954 122.895 51 124 51C125.105 51 126 51.8954 126 53L126 67C126 68.1046 125.105 69 124 69Z" fill="#1C3553"/>
<path fill-rule="evenodd" clip-rule="evenodd" d="M112 68C110.895 68 110 67.1046 110 66L110 53C110 51.8954 110.895 51 112 51C113.105 51 114 51.8954 114 53L114 66C114 67.1046 113.105 68 112 68Z" fill="#1C3553"/>
<path fill-rule="evenodd" clip-rule="evenodd" d="M90 69C88.8954 69 88 68.1046 88 67L88 53C88 51.8954 88.8954 51 90 51C91.1046 51 92 51.8954 92 53L92 67C92 68.1046 91.1046 69 90 69Z" fill="#1C3553"/>
<path fill-rule="evenodd" clip-rule="evenodd" d="M66 69C64.8954 69 64 68.1046 64 67L64 53C64 51.8954 64.8954 51 66 51C67.1046 51 68 51.8954 68 53L68 67C68 68.1046 67.1046 69 66 69Z" fill="#1C3553"/>
<path fill-rule="evenodd" clip-rule="evenodd" d="M103 53C103 51.8954 103.895 51 105 51L128 51C129.105 51 130 51.8954 130 53C130 54.1046 129.105 55 128 55L105 55C103.895 55 103 54.1046 103 53Z" fill="#1C3553"/>
</svg>
