<svg width="156" height="156" viewBox="0 0 156 156" fill="none" xmlns="http://www.w3.org/2000/svg">
<path fill-rule="evenodd" clip-rule="evenodd" d="M114 72C114 70.8954 113.105 70 112 70H92C90.8954 70 90 70.8954 90 72V99C90 100.105 89.1046 101 88 101H44C42.8954 101 42 101.895 42 103V132C42 133.105 42.8954 134 44 134H112C113.105 134 114 133.105 114 132V72ZM84 109H72V133H84V109ZM60 109H48V121H60V109ZM96 109H108V121H96V109ZM108 79H96V91H108V79Z" fill="#C2DDFF"/>
<path fill-rule="evenodd" clip-rule="evenodd" d="M70 109C70 107.895 70.8954 107 72 107H84C85.1046 107 86 107.895 86 109V134C86 135.105 85.1046 136 84 136H72C70.8954 136 70 135.105 70 134V109ZM74 111V132H82V111H74Z" fill="#1C3553"/>
<path fill-rule="evenodd" clip-rule="evenodd" d="M46 49C46 47.8954 46.8954 47 48 47H60C61.1046 47 62 47.8954 62 49V61C62 62.1046 61.1046 63 60 63H48C46.8954 63 46 62.1046 46 61V49ZM50 51V59H58V51H50Z" fill="#1C3553"/>
<path fill-rule="evenodd" clip-rule="evenodd" d="M46 79C46 77.8954 46.8954 77 48 77H60C61.1046 77 62 77.8954 62 79V91C62 92.1046 61.1046 93 60 93H48C46.8954 93 46 92.1046 46 91V79ZM50 81V89H58V81H50Z" fill="#1C3553"/>
<path fill-rule="evenodd" clip-rule="evenodd" d="M46 109C46 107.895 46.8954 107 48 107H60C61.1046 107 62 107.895 62 109V121C62 122.105 61.1046 123 60 123H48C46.8954 123 46 122.105 46 121V109ZM50 111V119H58V111H50Z" fill="#1C3553"/>
<path fill-rule="evenodd" clip-rule="evenodd" d="M94 109C94 107.895 94.8954 107 96 107H108C109.105 107 110 107.895 110 109V121C110 122.105 109.105 123 108 123H96C94.8954 123 94 122.105 94 121V109ZM98 111V119H106V111H98Z" fill="#1C3553"/>
<path fill-rule="evenodd" clip-rule="evenodd" d="M70 49C70 47.8954 70.8954 47 72 47H84C85.1046 47 86 47.8954 86 49V61C86 62.1046 85.1046 63 84 63H72C70.8954 63 70 62.1046 70 61V49ZM74 51V59H82V51H74Z" fill="#1C3553"/>
<path fill-rule="evenodd" clip-rule="evenodd" d="M70 79C70 77.8954 70.8954 77 72 77H84C85.1046 77 86 77.8954 86 79V91C86 92.1046 85.1046 93 84 93H72C70.8954 93 70 92.1046 70 91V79ZM74 81V89H82V81H74Z" fill="#1C3553"/>
<path fill-rule="evenodd" clip-rule="evenodd" d="M94 49C94 47.8954 94.8954 47 96 47H108C109.105 47 110 47.8954 110 49V61C110 62.1046 109.105 63 108 63H96C94.8954 63 94 62.1046 94 61V49ZM98 51V59H106V51H98Z" fill="#1C3553"/>
<path fill-rule="evenodd" clip-rule="evenodd" d="M94 79C94 77.8954 94.8954 77 96 77H108C109.105 77 110 77.8954 110 79V91C110 92.1046 109.105 93 108 93H96C94.8954 93 94 92.1046 94 91V79ZM98 81V89H106V81H98Z" fill="#1C3553"/>
<path fill-rule="evenodd" clip-rule="evenodd" d="M40 38C38.8954 38 38 38.8954 38 40V132H118V40C118 38.8954 117.105 38 116 38H64C62.8954 38 62 37.1046 62 36C62 34.8954 62.8954 34 64 34H116C119.314 34 122 36.6863 122 40V134C122 135.105 121.105 136 120 136H36C34.8954 136 34 135.105 34 134V40C34 36.6863 36.6863 34 40 34H56C57.1046 34 58 34.8954 58 36C58 37.1046 57.1046 38 56 38H40Z" fill="#1C3553"/>
<path fill-rule="evenodd" clip-rule="evenodd" d="M26 134C26 132.895 26.8954 132 28 132H128C129.105 132 130 132.895 130 134C130 135.105 129.105 136 128 136H28C26.8954 136 26 135.105 26 134Z" fill="#1C3553"/>
<path fill-rule="evenodd" clip-rule="evenodd" d="M34 28C34 26.8954 34.8954 26 36 26H120C121.105 26 122 26.8954 122 28C122 29.1046 121.105 30 120 30H36C34.8954 30 34 29.1046 34 28Z" fill="#1C3553"/>
<path fill-rule="evenodd" clip-rule="evenodd" d="M92 20C93.1046 20 94 20.8954 94 22V27.8065C94 28.911 93.1046 29.8065 92 29.8065C90.8954 29.8065 90 28.911 90 27.8065V22C90 20.8954 90.8954 20 92 20Z" fill="#1C3553"/>
<path fill-rule="evenodd" clip-rule="evenodd" d="M100 20C101.105 20 102 20.8954 102 22V27.8065C102 28.911 101.105 29.8065 100 29.8065C98.8954 29.8065 98 28.911 98 27.8065V22C98 20.8954 98.8954 20 100 20Z" fill="#1C3553"/>
</svg>
