<svg width="156" height="156" viewBox="0 0 156 156" fill="none" xmlns="http://www.w3.org/2000/svg">
<path fill-rule="evenodd" clip-rule="evenodd" d="M44 134H90V103C90 101.895 89.1046 101 88 101H44C42.8954 101 42 101.895 42 103V132C42 133.105 42.8954 134 44 134ZM84 109H72V133H84V109ZM60 109H48V121H60V109Z" fill="#C2DDFF"/>
<path fill-rule="evenodd" clip-rule="evenodd" d="M70 109C70 107.895 70.8954 107 72 107H84C85.1046 107 86 107.895 86 109V134C86 135.105 85.1046 136 84 136H72C70.8954 136 70 135.105 70 134V109ZM74 111V132H82V111H74Z" fill="#1C3553"/>
<path fill-rule="evenodd" clip-rule="evenodd" d="M46 49C46 47.8954 46.8954 47 48 47H60C61.1046 47 62 47.8954 62 49V61C62 62.1046 61.1046 63 60 63H48C46.8954 63 46 62.1046 46 61V49ZM50 51V59H58V51H50Z" fill="#1C3553"/>
<path fill-rule="evenodd" clip-rule="evenodd" d="M46 79C46 77.8954 46.8954 77 48 77H60C61.1046 77 62 77.8954 62 79V91C62 92.1046 61.1046 93 60 93H48C46.8954 93 46 92.1046 46 91V79ZM50 81V89H58V81H50Z" fill="#1C3553"/>
<path fill-rule="evenodd" clip-rule="evenodd" d="M46 109C46 107.895 46.8954 107 48 107H60C61.1046 107 62 107.895 62 109V121C62 122.105 61.1046 123 60 123H48C46.8954 123 46 122.105 46 121V109ZM50 111V119H58V111H50Z" fill="#1C3553"/>
<path fill-rule="evenodd" clip-rule="evenodd" d="M70 49C70 47.8954 70.8954 47 72 47H84C85.1046 47 86 47.8954 86 49V61C86 62.1046 85.1046 63 84 63H72C70.8954 63 70 62.1046 70 61V49ZM74 51V59H82V51H74Z" fill="#1C3553"/>
<path fill-rule="evenodd" clip-rule="evenodd" d="M70 79C70 77.8954 70.8954 77 72 77H84C85.1046 77 86 77.8954 86 79V91C86 92.1046 85.1046 93 84 93H72C70.8954 93 70 92.1046 70 91V79ZM74 81V89H82V81H74Z" fill="#1C3553"/>
<path fill-rule="evenodd" clip-rule="evenodd" d="M40 38C38.8954 38 38 38.8954 38 40V132H94V40C94 38.8954 93.1046 38 92 38H64C62.8954 38 62 37.1046 62 36C62 34.8954 62.8954 34 64 34H92C95.3137 34 98 36.6863 98 40V134C98 135.105 97.1046 136 96 136H36C34.8954 136 34 135.105 34 134V40C34 36.6863 36.6863 34 40 34H56C57.1046 34 58 34.8954 58 36C58 37.1046 57.1046 38 56 38H40Z" fill="#1C3553"/>
<path fill-rule="evenodd" clip-rule="evenodd" d="M34 28C34 26.8954 34.8954 26 36 26H96C97.1046 26 98 26.8954 98 28C98 29.1046 97.1046 30 96 30H36C34.8954 30 34 29.1046 34 28Z" fill="#1C3553"/>
<path fill-rule="evenodd" clip-rule="evenodd" d="M74 20C75.1046 20 76 20.8954 76 22V28C76 29.1046 75.1046 30 74 30C72.8954 30 72 29.1046 72 28V22C72 20.8954 72.8954 20 74 20Z" fill="#1C3553"/>
<path fill-rule="evenodd" clip-rule="evenodd" d="M82 20C83.1046 20 84 20.8954 84 22V28C84 29.1046 83.1046 30 82 30C80.8954 30 80 29.1046 80 28V22C80 20.8954 80.8954 20 82 20Z" fill="#1C3553"/>
<path fill-rule="evenodd" clip-rule="evenodd" d="M104 118C105.105 118 106 118.895 106 120V134C106 135.105 105.105 136 104 136C102.895 136 102 135.105 102 134V120C102 118.895 102.895 118 104 118Z" fill="#1C3553"/>
<path fill-rule="evenodd" clip-rule="evenodd" d="M112 118C113.105 118 114 118.895 114 120V134C114 135.105 113.105 136 112 136C110.895 136 110 135.105 110 134V120C110 118.895 110.895 118 112 118Z" fill="#1C3553"/>
<path fill-rule="evenodd" clip-rule="evenodd" d="M120 118C121.105 118 122 118.895 122 120V134C122 135.105 121.105 136 120 136C118.895 136 118 135.105 118 134V120C118 118.895 118.895 118 120 118Z" fill="#1C3553"/>
<path fill-rule="evenodd" clip-rule="evenodd" d="M94 120C94 118.895 94.8954 118 96 118H124C125.105 118 126 118.895 126 120C126 121.105 125.105 122 124 122H96C94.8954 122 94 121.105 94 120Z" fill="#1C3553"/>
<path fill-rule="evenodd" clip-rule="evenodd" d="M26 134C26 132.895 26.8954 132 28 132H128C129.105 132 130 132.895 130 134C130 135.105 129.105 136 128 136H28C26.8954 136 26 135.105 26 134Z" fill="#1C3553"/>
</svg>
