<svg width="156" height="156" viewBox="0 0 156 156" fill="none" xmlns="http://www.w3.org/2000/svg">
<path fill-rule="evenodd" clip-rule="evenodd" d="M27 72C27 70.8954 27.8954 70 29 70H126C127.105 70 128 70.8954 128 72V98C128 99.1046 127.105 100 126 100H29C27.8954 100 27 99.1046 27 98V72ZM33 79H45V91H33V79ZM70 79H58V91H70V79ZM84 79H96V91H84V79ZM122 79H110V91H122V79Z" fill="#C2DDFF"/>
<path fill-rule="evenodd" clip-rule="evenodd" d="M98.4832 27.0833C101.098 24.9661 105 26.8275 105 30.1922V58H130C133.314 58 136 60.6863 136 64V134C136 135.105 135.105 136 134 136H21C19.8954 136 19 135.105 19 134V106.449C19 105.344 19.8954 104.449 21 104.449C22.1046 104.449 23 105.344 23 106.449V132H132V64C132 62.8954 131.105 62 130 62H103C101.895 62 101 61.1046 101 60V30.1922L63.8876 60.2356C61.9262 61.8235 59 60.4275 59 57.9039V30.3249L23.7047 60.3259C23.2576 60.7059 23 61.263 23 61.8498V97.6327C23 98.7372 22.1046 99.6327 21 99.6327C19.8954 99.6327 19 98.7372 19 97.6327V61.8498C19 60.0896 19.7729 58.4181 21.1141 57.2781L56.4094 27.2771C59.0074 25.0689 63 26.9152 63 30.3249V55.8078L98.4832 27.0833Z" fill="#1C3553"/>
<path fill-rule="evenodd" clip-rule="evenodd" d="M108 109C108 107.895 108.895 107 110 107H122C123.105 107 124 107.895 124 109V134C124 135.105 123.105 136 122 136H110C108.895 136 108 135.105 108 134V109ZM112 111V132H120V111H112Z" fill="#1C3553"/>
<path fill-rule="evenodd" clip-rule="evenodd" d="M31 79C31 77.8954 31.8954 77 33 77H45C46.1046 77 47 77.8954 47 79V91C47 92.1046 46.1046 93 45 93H33C31.8954 93 31 92.1046 31 91V79ZM35 81V89H43V81H35Z" fill="#1C3553"/>
<path fill-rule="evenodd" clip-rule="evenodd" d="M56 79C56 77.8954 56.8954 77 58 77H70C71.1046 77 72 77.8954 72 79V91C72 92.1046 71.1046 93 70 93H58C56.8954 93 56 92.1046 56 91V79ZM60 81V89H68V81H60Z" fill="#1C3553"/>
<path fill-rule="evenodd" clip-rule="evenodd" d="M82 79C82 77.8954 82.8954 77 84 77H96C97.1046 77 98 77.8954 98 79V91C98 92.1046 97.1046 93 96 93H84C82.8954 93 82 92.1046 82 91V79ZM86 81V89H94V81H86Z" fill="#1C3553"/>
<path fill-rule="evenodd" clip-rule="evenodd" d="M31 109C31 107.895 31.8954 107 33 107H45C46.1046 107 47 107.895 47 109V121C47 122.105 46.1046 123 45 123H33C31.8954 123 31 122.105 31 121V109ZM35 111V119H43V111H35Z" fill="#1C3553"/>
<path fill-rule="evenodd" clip-rule="evenodd" d="M56 109C56 107.895 56.8954 107 58 107H70C71.1046 107 72 107.895 72 109V121C72 122.105 71.1046 123 70 123H58C56.8954 123 56 122.105 56 121V109ZM60 111V119H68V111H60Z" fill="#1C3553"/>
<path fill-rule="evenodd" clip-rule="evenodd" d="M82 109C82 107.895 82.8954 107 84 107H96C97.1046 107 98 107.895 98 109V121C98 122.105 97.1046 123 96 123H84C82.8954 123 82 122.105 82 121V109ZM86 111V119H94V111H86Z" fill="#1C3553"/>
<path fill-rule="evenodd" clip-rule="evenodd" d="M108 79C108 77.8954 108.895 77 110 77H122C123.105 77 124 77.8954 124 79V91C124 92.1046 123.105 93 122 93H110C108.895 93 108 92.1046 108 91V79ZM112 81V89H120V81H112Z" fill="#1C3553"/>
<path fill-rule="evenodd" clip-rule="evenodd" d="M10 134C10 132.895 10.8954 132 12 132H143C144.105 132 145 132.895 145 134C145 135.105 144.105 136 143 136H12C10.8954 136 10 135.105 10 134Z" fill="#1C3553"/>
</svg>
