<svg width="156" height="156" viewBox="0 0 156 156" fill="none" xmlns="http://www.w3.org/2000/svg">
<path fill-rule="evenodd" clip-rule="evenodd" d="M42 81C42 79.8954 42.8954 79 44 79H112C113.105 79 114 79.8954 114 81V132C114 133.105 113.105 134 112 134H92V118H84V91H72V118H65V134H44C42.8954 134 42 133.105 42 132V81ZM48 91H60V103H48V91ZM108 91H96V103H108V91Z" fill="#C2DDFF"/>
<path fill-rule="evenodd" clip-rule="evenodd" d="M25 134C25 132.895 25.8954 132 27 132L129 132C130.105 132 131 132.895 131 134C131 135.105 130.105 136 129 136L27 136C25.8954 136 25 135.105 25 134Z" fill="#1C3553"/>
<path fill-rule="evenodd" clip-rule="evenodd" d="M92 110C93.1046 110 94 110.895 94 112V133C94 134.105 93.1046 135 92 135C90.8954 135 90 134.105 90 133V112C90 110.895 90.8954 110 92 110Z" fill="#1C3553"/>
<path fill-rule="evenodd" clip-rule="evenodd" d="M64 110C65.1046 110 66 110.895 66 112L66 133C66 134.105 65.1046 135 64 135C62.8954 135 62 134.105 62 133L62 112C62 110.895 62.8954 110 64 110Z" fill="#1C3553"/>
<path fill-rule="evenodd" clip-rule="evenodd" d="M62 126C62 124.895 62.8954 124 64 124L92 124C93.1046 124 94 124.895 94 126C94 127.105 93.1046 128 92 128L64 128C62.8954 128 62 127.105 62 126Z" fill="#1C3553"/>
<path fill-rule="evenodd" clip-rule="evenodd" d="M62 118C62 116.895 62.8954 116 64 116L92 116C93.1046 116 94 116.895 94 118C94 119.105 93.1046 120 92 120L64 120C62.8954 120 62 119.105 62 118Z" fill="#1C3553"/>
<path fill-rule="evenodd" clip-rule="evenodd" d="M40 40C38.8954 40 38 40.8954 38 42V132H118V42C118 40.8954 117.105 40 116 40H64C62.8954 40 62 39.1046 62 38C62 36.8954 62.8954 36 64 36H116C119.314 36 122 38.6863 122 42V134C122 135.105 121.105 136 120 136H36C34.8954 136 34 135.105 34 134V42C34 38.6863 36.6863 36 40 36H56C57.1046 36 58 36.8954 58 38C58 39.1046 57.1046 40 56 40H40Z" fill="#1C3553"/>
<path fill-rule="evenodd" clip-rule="evenodd" d="M34 30C34 28.8954 34.8954 28 36 28H120C121.105 28 122 28.8954 122 30C122 31.1046 121.105 32 120 32H36C34.8954 32 34 31.1046 34 30Z" fill="#1C3553"/>
<path fill-rule="evenodd" clip-rule="evenodd" d="M92 22C93.1046 22 94 22.8954 94 24V30C94 31.1046 93.1046 32 92 32C90.8954 32 90 31.1046 90 30V24C90 22.8954 90.8954 22 92 22Z" fill="#1C3553"/>
<path fill-rule="evenodd" clip-rule="evenodd" d="M100 22C101.105 22 102 22.8954 102 24V30C102 31.1046 101.105 32 100 32C98.8954 32 98 31.1046 98 30V24C98 22.8954 98.8954 22 100 22Z" fill="#1C3553"/>
<path fill-rule="evenodd" clip-rule="evenodd" d="M46 55C46 53.8954 46.8954 53 48 53H60C61.1046 53 62 53.8954 62 55V67C62 68.1046 61.1046 69 60 69H48C46.8954 69 46 68.1046 46 67V55ZM50 57V65H58V57H50Z" fill="#1C3553"/>
<path fill-rule="evenodd" clip-rule="evenodd" d="M70 55C70 53.8954 70.8954 53 72 53H84C85.1046 53 86 53.8954 86 55V67C86 68.1046 85.1046 69 84 69H72C70.8954 69 70 68.1046 70 67V55ZM74 57V65H82V57H74Z" fill="#1C3553"/>
<path fill-rule="evenodd" clip-rule="evenodd" d="M94 55C94 53.8954 94.8954 53 96 53H108C109.105 53 110 53.8954 110 55V67C110 68.1046 109.105 69 108 69H96C94.8954 69 94 68.1046 94 67V55ZM98 57V65H106V57H98Z" fill="#1C3553"/>
<path fill-rule="evenodd" clip-rule="evenodd" d="M70 91C70 89.8954 70.8954 89 72 89H84C85.1046 89 86 89.8954 86 91V116C86 117.105 85.1046 118 84 118C82.8954 118 82 117.105 82 116V93H74V116C74 117.105 73.1046 118 72 118C70.8954 118 70 117.105 70 116V91Z" fill="#1C3553"/>
<path fill-rule="evenodd" clip-rule="evenodd" d="M46 91C46 89.8954 46.8954 89 48 89H60C61.1046 89 62 89.8954 62 91V103C62 104.105 61.1046 105 60 105H48C46.8954 105 46 104.105 46 103V91ZM50 93V101H58V93H50Z" fill="#1C3553"/>
<path fill-rule="evenodd" clip-rule="evenodd" d="M94 91C94 89.8954 94.8954 89 96 89H108C109.105 89 110 89.8954 110 91V103C110 104.105 109.105 105 108 105H96C94.8954 105 94 104.105 94 103V91ZM98 93V101H106V93H98Z" fill="#1C3553"/>
</svg>
