<svg width="156" height="156" viewBox="0 0 156 156" fill="none" xmlns="http://www.w3.org/2000/svg">
<path fill-rule="evenodd" clip-rule="evenodd" d="M41.999 98.9999C41.999 97.8954 42.8945 97 43.9991 97H111.999C113.103 97 113.999 97.8954 113.999 98.9999V132C113.999 133.105 113.103 134 111.999 134H108V114H72.0001V134H60.0001V109H48V134H43.9991C42.8945 134 41.999 133.105 41.999 132V98.9999Z" fill="#C2DDFF"/>
<path fill-rule="evenodd" clip-rule="evenodd" d="M41.999 44C41.999 42.8954 42.8945 42 43.9991 42H111.999C113.103 42 113.999 42.8954 113.999 44V91C113.999 92.1046 113.103 93.0001 111.999 93.0001H43.9991C42.8945 93.0001 41.999 92.1046 41.999 91V44ZM84 49.6181H72.0001V61.6182H84V49.6181ZM60.0001 49.6181H48V61.6182H60.0001V49.6181ZM96 49.6181H108V61.6182H96V49.6181ZM72.0001 73H84V85.0001H72.0001V73ZM48 73H60.0001V85.0001H48V73ZM108 73H96V85.0001H108V73Z" fill="#C2DDFF"/>
<path fill-rule="evenodd" clip-rule="evenodd" d="M46.0013 50C46.0013 48.8954 46.8968 48 48.0013 48H60.0013C61.1059 48 62.0013 48.8954 62.0013 50V62C62.0013 63.1045 61.1059 64 60.0013 64H48.0013C46.8968 64 46.0013 63.1045 46.0013 62V50ZM50.0013 52V60H58.0013V52H50.0013Z" fill="#1C3553"/>
<path fill-rule="evenodd" clip-rule="evenodd" d="M46.0013 73C46.0013 71.8954 46.8968 71 48.0013 71H60.0013C61.1059 71 62.0013 71.8954 62.0013 73V85C62.0013 86.1045 61.1059 87 60.0013 87H48.0013C46.8968 87 46.0013 86.1045 46.0013 85V73ZM50.0013 75V83H58.0013V75H50.0013Z" fill="#1C3553"/>
<path fill-rule="evenodd" clip-rule="evenodd" d="M46.0013 109C46.0013 107.895 46.8968 107 48.0013 107H60.0013C61.1059 107 62.0013 107.895 62.0013 109V134C62.0013 135.105 61.1059 136 60.0013 136H48.0013C46.8968 136 46.0013 135.105 46.0013 134V109ZM50.0013 111V132H58.0013V111H50.0013Z" fill="#1C3553"/>
<path fill-rule="evenodd" clip-rule="evenodd" d="M70.0021 50C70.0021 48.8954 70.8975 48 72.0021 48H84.002C85.1066 48 86.002 48.8954 86.002 50V62C86.002 63.1045 85.1066 64 84.002 64H72.0021C70.8975 64 70.0021 63.1045 70.0021 62V50ZM74.0021 52V60H82.002V52H74.0021Z" fill="#1C3553"/>
<path fill-rule="evenodd" clip-rule="evenodd" d="M70.0021 73C70.0021 71.8954 70.8975 71 72.0021 71H84.002C85.1066 71 86.002 71.8954 86.002 73V85C86.002 86.1045 85.1066 87 84.002 87H72.0021C70.8975 87 70.0021 86.1045 70.0021 85V73ZM74.0021 75V83H82.002V75H74.0021Z" fill="#1C3553"/>
<path fill-rule="evenodd" clip-rule="evenodd" d="M94.0027 50C94.0027 48.8954 94.8981 48 96.0027 48H108.003C109.107 48 110.003 48.8954 110.003 50V62C110.003 63.1045 109.107 64 108.003 64H96.0027C94.8981 64 94.0027 63.1045 94.0027 62V50ZM98.0027 52V60H106.003V52H98.0027Z" fill="#1C3553"/>
<path fill-rule="evenodd" clip-rule="evenodd" d="M94.0027 73C94.0027 71.8954 94.8981 71 96.0027 71H108.003C109.107 71 110.003 71.8954 110.003 73V85C110.003 86.1045 109.107 87 108.003 87H96.0027C94.8981 87 94.0027 86.1045 94.0027 85V73ZM98.0027 75V83H106.003V75H98.0027Z" fill="#1C3553"/>
<path fill-rule="evenodd" clip-rule="evenodd" d="M34.001 40.4571C34.001 36.8909 36.892 34 40.4581 34H56.001C57.1055 34 58.001 34.8954 58.001 36C58.001 37.1046 57.1055 38 56.001 38H40.4581C39.1011 38 38.001 39.1001 38.001 40.4571V132H118.001V40.4571C118.001 39.1001 116.901 38 115.544 38H64.001C62.8964 38 62.001 37.1046 62.001 36C62.001 34.8954 62.8964 34 64.001 34H115.544C119.11 34 122.001 36.8908 122.001 40.4571V134C122.001 135.104 121.105 136 120.001 136H36.001C34.8964 136 34.001 135.104 34.001 134V40.4571Z" fill="#1C3553"/>
<path fill-rule="evenodd" clip-rule="evenodd" d="M26.0007 134C26.0007 132.895 26.8962 132 28.0007 132H128C129.105 132 130 132.895 130 134C130 135.104 129.105 136 128 136H28.0007C26.8962 136 26.0007 135.104 26.0007 134Z" fill="#1C3553"/>
<path fill-rule="evenodd" clip-rule="evenodd" d="M34.001 28C34.001 26.8954 34.8964 26 36.001 26H120.001C121.105 26 122.001 26.8954 122.001 28C122.001 29.1046 121.105 30 120.001 30H36.001C34.8964 30 34.001 29.1046 34.001 28Z" fill="#1C3553"/>
<path fill-rule="evenodd" clip-rule="evenodd" d="M92.0026 20C93.1071 20 94.0026 20.8954 94.0026 22V27.8064C94.0026 28.911 93.1071 29.8064 92.0026 29.8064C90.898 29.8064 90.0026 28.911 90.0026 27.8064V22C90.0026 20.8954 90.898 20 92.0026 20Z" fill="#1C3553"/>
<path fill-rule="evenodd" clip-rule="evenodd" d="M100.003 20C101.107 20 102.003 20.8954 102.003 22V27.8064C102.003 28.911 101.107 29.8064 100.003 29.8064C98.8982 29.8064 98.0028 28.911 98.0028 27.8064V22C98.0028 20.8954 98.8982 20 100.003 20Z" fill="#1C3553"/>
<path fill-rule="evenodd" clip-rule="evenodd" d="M70.0021 105C70.0021 103.895 70.8975 103 72.0021 103H108.002C109.107 103 110.002 103.895 110.002 105V134C110.002 135.105 109.107 136 108.002 136H72.0021C70.8975 136 70.0021 135.105 70.0021 134V105ZM74.0021 107V132H106.002V107H74.0021Z" fill="#1C3553"/>
<path fill-rule="evenodd" clip-rule="evenodd" d="M70.0021 105C70.0021 103.895 70.8975 103 72.0021 103H81.002C82.1066 103 83.002 103.895 83.002 105V110.5C83.002 114.09 80.0918 117 76.502 117C72.9123 117 70.0021 114.09 70.0021 110.5V105ZM74.0021 107V110.5C74.0021 111.881 75.1213 113 76.502 113C77.8828 113 79.002 111.881 79.002 110.5V107H74.0021Z" fill="#1C3553"/>
<path fill-rule="evenodd" clip-rule="evenodd" d="M78.999 105C78.999 103.895 79.8945 103 80.999 103H89.999C91.1036 103 91.999 103.895 91.999 105V110.5C91.999 114.09 89.0888 117 85.4991 117C81.9093 117 78.999 114.09 78.999 110.5V105ZM82.999 107V110.5C82.999 111.881 84.1182 113 85.4991 113C86.8798 113 87.999 111.881 87.999 110.5V107H82.999Z" fill="#1C3553"/>
<path fill-rule="evenodd" clip-rule="evenodd" d="M88.0002 105C88.0002 103.895 88.8957 103 90.0002 103H99.0003C100.105 103 101 103.895 101 105V110.5C101 114.09 98.0901 117 94.5003 117C90.9105 117 88.0002 114.09 88.0002 110.5V105ZM92.0002 107V110.5C92.0002 111.881 93.1195 113 94.5003 113C95.8811 113 97.0003 111.881 97.0003 110.5V107H92.0002Z" fill="#1C3553"/>
<path fill-rule="evenodd" clip-rule="evenodd" d="M97.0017 105C97.0017 103.895 97.8971 103 99.0017 103H108.002C109.106 103 110.002 103.895 110.002 105V110.5C110.002 114.09 107.091 117 103.502 117C99.9118 117 97.0017 114.09 97.0017 110.5V105ZM101.002 107V110.5C101.002 111.881 102.121 113 103.502 113C104.882 113 106.002 111.881 106.002 110.5V107H101.002Z" fill="#1C3553"/>
</svg>
