<svg width="156" height="156" viewBox="0 0 156 156" fill="none" xmlns="http://www.w3.org/2000/svg">
<path fill-rule="evenodd" clip-rule="evenodd" d="M42 79C40.8954 79 40 79.8954 40 81V134C40 135.105 40.8954 136 42 136H114C115.105 136 116 135.105 116 134V81C116 79.8954 115.105 79 114 79H42ZM60 91H48V103H60V91ZM96 91H108V103H96V91ZM84 91H72V116H84V91Z" fill="#C2DDFF"/>
<path fill-rule="evenodd" clip-rule="evenodd" d="M23 116C23 114.895 23.8954 114 25 114L131 114C132.105 114 133 114.895 133 116C133 117.105 132.105 118 131 118L25 118C23.8954 118 23 117.105 23 116Z" fill="#1C3553"/>
<path fill-rule="evenodd" clip-rule="evenodd" d="M38 40C36.8954 40 36 40.8954 36 42V114H120V42C120 40.8954 119.105 40 118 40H63.3333C62.2288 40 61.3333 39.1046 61.3333 38C61.3333 36.8954 62.2288 36 63.3333 36H118C121.314 36 124 38.6863 124 42V116C124 117.105 123.105 118 122 118H34C32.8954 118 32 117.105 32 116V42C32 38.6863 34.6863 36 38 36H54.9524C56.057 36 56.9524 36.8954 56.9524 38C56.9524 39.1046 56.057 40 54.9524 40H38Z" fill="#1C3553"/>
<path fill-rule="evenodd" clip-rule="evenodd" d="M34 30C34 28.8954 34.8954 28 36 28H120C121.105 28 122 28.8954 122 30C122 31.1046 121.105 32 120 32H36C34.8954 32 34 31.1046 34 30Z" fill="#1C3553"/>
<path fill-rule="evenodd" clip-rule="evenodd" d="M92 22C93.1046 22 94 22.8954 94 24V30C94 31.1046 93.1046 32 92 32C90.8954 32 90 31.1046 90 30V24C90 22.8954 90.8954 22 92 22Z" fill="#1C3553"/>
<path fill-rule="evenodd" clip-rule="evenodd" d="M100 22C101.105 22 102 22.8954 102 24V30C102 31.1046 101.105 32 100 32C98.8954 32 98 31.1046 98 30V24C98 22.8954 98.8954 22 100 22Z" fill="#1C3553"/>
<path fill-rule="evenodd" clip-rule="evenodd" d="M46 55C46 53.8954 46.8954 53 48 53H60C61.1046 53 62 53.8954 62 55V67C62 68.1046 61.1046 69 60 69H48C46.8954 69 46 68.1046 46 67V55ZM50 57V65H58V57H50Z" fill="#1C3553"/>
<path fill-rule="evenodd" clip-rule="evenodd" d="M70 55C70 53.8954 70.8954 53 72 53H84C85.1046 53 86 53.8954 86 55V67C86 68.1046 85.1046 69 84 69H72C70.8954 69 70 68.1046 70 67V55ZM74 57V65H82V57H74Z" fill="#1C3553"/>
<path fill-rule="evenodd" clip-rule="evenodd" d="M94 55C94 53.8954 94.8954 53 96 53H108C109.105 53 110 53.8954 110 55V67C110 68.1046 109.105 69 108 69H96C94.8954 69 94 68.1046 94 67V55ZM98 57V65H106V57H98Z" fill="#1C3553"/>
<path fill-rule="evenodd" clip-rule="evenodd" d="M70 91C70 89.8954 70.8954 89 72 89H84C85.1046 89 86 89.8954 86 91V116C86 117.105 85.1046 118 84 118C82.8954 118 82 117.105 82 116V93H74V116C74 117.105 73.1046 118 72 118C70.8954 118 70 117.105 70 116V91Z" fill="#1C3553"/>
<path fill-rule="evenodd" clip-rule="evenodd" d="M46 91C46 89.8954 46.8954 89 48 89H60C61.1046 89 62 89.8954 62 91V103C62 104.105 61.1046 105 60 105H48C46.8954 105 46 104.105 46 103V91ZM50 93V101H58V93H50Z" fill="#1C3553"/>
<path fill-rule="evenodd" clip-rule="evenodd" d="M94 91C94 89.8954 94.8954 89 96 89H108C109.105 89 110 89.8954 110 91V103C110 104.105 109.105 105 108 105H96C94.8954 105 94 104.105 94 103V91ZM98 93V101H106V93H98Z" fill="#1C3553"/>
</svg>
