<svg width="156" height="156" viewBox="0 0 156 156" fill="none" xmlns="http://www.w3.org/2000/svg">
<path fill-rule="evenodd" clip-rule="evenodd" d="M42 44C42 42.8954 42.8954 42 44 42H112C113.105 42 114 42.8954 114 44V91C114 92.1046 113.105 93 112 93H44C42.8954 93 42 92.1046 42 91V44ZM84 49.6182H72V61.6182H84V49.6182ZM60 49.6182H48V61.6182H60V49.6182ZM96 49.6182H108V61.6182H96V49.6182ZM72 73H84V85H72V73ZM48 73H60V85H48V73ZM108 73H96V85H108V73Z" fill="#C2DDFF"/>
<path fill-rule="evenodd" clip-rule="evenodd" d="M42 99C42 97.8954 42.8954 97 44 97H112C113.105 97 114 97.8954 114 99V132C114 133.105 113.105 134 112 134H108V114H72V134H60V109H48V134H44C42.8954 134 42 133.105 42 132V99Z" fill="#C2DDFF"/>
<path fill-rule="evenodd" clip-rule="evenodd" d="M46 50C46 48.8954 46.8954 48 48 48H60C61.1046 48 62 48.8954 62 50V62C62 63.1046 61.1046 64 60 64H48C46.8954 64 46 63.1046 46 62V50ZM50 52V60H58V52H50Z" fill="#1C3553"/>
<path fill-rule="evenodd" clip-rule="evenodd" d="M46 73C46 71.8954 46.8954 71 48 71H60C61.1046 71 62 71.8954 62 73V85C62 86.1046 61.1046 87 60 87H48C46.8954 87 46 86.1046 46 85V73ZM50 75V83H58V75H50Z" fill="#1C3553"/>
<path fill-rule="evenodd" clip-rule="evenodd" d="M46 109C46 107.895 46.8954 107 48 107H60C61.1046 107 62 107.895 62 109V134C62 135.105 61.1046 136 60 136H48C46.8954 136 46 135.105 46 134V109ZM50 111V132H58V111H50Z" fill="#1C3553"/>
<path fill-rule="evenodd" clip-rule="evenodd" d="M70 50C70 48.8954 70.8954 48 72 48H84C85.1046 48 86 48.8954 86 50V62C86 63.1046 85.1046 64 84 64H72C70.8954 64 70 63.1046 70 62V50ZM74 52V60H82V52H74Z" fill="#1C3553"/>
<path fill-rule="evenodd" clip-rule="evenodd" d="M70 73C70 71.8954 70.8954 71 72 71H84C85.1046 71 86 71.8954 86 73V85C86 86.1046 85.1046 87 84 87H72C70.8954 87 70 86.1046 70 85V73ZM74 75V83H82V75H74Z" fill="#1C3553"/>
<path fill-rule="evenodd" clip-rule="evenodd" d="M94 50C94 48.8954 94.8954 48 96 48H108C109.105 48 110 48.8954 110 50V62C110 63.1046 109.105 64 108 64H96C94.8954 64 94 63.1046 94 62V50ZM98 52V60H106V52H98Z" fill="#1C3553"/>
<path fill-rule="evenodd" clip-rule="evenodd" d="M94 73C94 71.8954 94.8954 71 96 71H108C109.105 71 110 71.8954 110 73V85C110 86.1046 109.105 87 108 87H96C94.8954 87 94 86.1046 94 85V73ZM98 75V83H106V75H98Z" fill="#1C3553"/>
<path fill-rule="evenodd" clip-rule="evenodd" d="M40 38C38.8954 38 38 38.8954 38 40V132H118V40C118 38.8954 117.105 38 116 38H64C62.8954 38 62 37.1046 62 36C62 34.8954 62.8954 34 64 34H116C119.314 34 122 36.6863 122 40V134C122 135.105 121.105 136 120 136H36C34.8954 136 34 135.105 34 134V40C34 36.6863 36.6863 34 40 34H56C57.1046 34 58 34.8954 58 36C58 37.1046 57.1046 38 56 38H40Z" fill="#1C3553"/>
<path fill-rule="evenodd" clip-rule="evenodd" d="M26 134C26 132.895 26.8954 132 28 132H128C129.105 132 130 132.895 130 134C130 135.105 129.105 136 128 136H28C26.8954 136 26 135.105 26 134Z" fill="#1C3553"/>
<path fill-rule="evenodd" clip-rule="evenodd" d="M34 28C34 26.8954 34.8954 26 36 26H120C121.105 26 122 26.8954 122 28C122 29.1046 121.105 30 120 30H36C34.8954 30 34 29.1046 34 28Z" fill="#1C3553"/>
<path fill-rule="evenodd" clip-rule="evenodd" d="M92 20C93.1046 20 94 20.8954 94 22V27.8065C94 28.911 93.1046 29.8065 92 29.8065C90.8954 29.8065 90 28.911 90 27.8065V22C90 20.8954 90.8954 20 92 20Z" fill="#1C3553"/>
<path fill-rule="evenodd" clip-rule="evenodd" d="M100 20C101.105 20 102 20.8954 102 22V27.8065C102 28.911 101.105 29.8065 100 29.8065C98.8954 29.8065 98 28.911 98 27.8065V22C98 20.8954 98.8954 20 100 20Z" fill="#1C3553"/>
<path fill-rule="evenodd" clip-rule="evenodd" d="M70 105C70 103.895 70.8954 103 72 103H108C109.105 103 110 103.895 110 105V134C110 135.105 109.105 136 108 136H72C70.8954 136 70 135.105 70 134V105ZM74 107V132H106V107H74Z" fill="#1C3553"/>
<path fill-rule="evenodd" clip-rule="evenodd" d="M70 105C70 103.895 70.8954 103 72 103H81C82.1046 103 83 103.895 83 105V110.5C83 114.09 80.0899 117 76.5 117C72.9101 117 70 114.09 70 110.5V105ZM74 107V110.5C74 111.881 75.1193 113 76.5 113C77.8807 113 79 111.881 79 110.5V107H74Z" fill="#1C3553"/>
<path fill-rule="evenodd" clip-rule="evenodd" d="M79 105C79 103.895 79.8954 103 81 103H90C91.1046 103 92 103.895 92 105V110.5C92 114.09 89.0899 117 85.5 117C81.9101 117 79 114.09 79 110.5V105ZM83 107V110.5C83 111.881 84.1193 113 85.5 113C86.8807 113 88 111.881 88 110.5V107H83Z" fill="#1C3553"/>
<path fill-rule="evenodd" clip-rule="evenodd" d="M88 105C88 103.895 88.8954 103 90 103H99C100.105 103 101 103.895 101 105V110.5C101 114.09 98.0899 117 94.5 117C90.9101 117 88 114.09 88 110.5V105ZM92 107V110.5C92 111.881 93.1193 113 94.5 113C95.8807 113 97 111.881 97 110.5V107H92Z" fill="#1C3553"/>
<path fill-rule="evenodd" clip-rule="evenodd" d="M97 105C97 103.895 97.8954 103 99 103H108C109.105 103 110 103.895 110 105V110.5C110 114.09 107.09 117 103.5 117C99.9101 117 97 114.09 97 110.5V105ZM101 107V110.5C101 111.881 102.119 113 103.5 113C104.881 113 106 111.881 106 110.5V107H101Z" fill="#1C3553"/>
</svg>
