<svg width="156" height="156" viewBox="0 0 156 156" fill="none" xmlns="http://www.w3.org/2000/svg">
<path d="M77.3168 115.891C68.478 102.102 28.5264 75.586 51.1539 52.9585C73.7813 30.3311 99.5907 70.9898 113.379 79.8286C114.575 80.546 116.776 81.0602 119.987 78.6484C121.091 77.8191 122.656 77.7916 123.632 78.7679C124.609 79.7443 124.609 81.3272 123.632 82.3035L80.4988 125.437C79.5225 126.413 77.9396 126.413 76.9633 125.437C75.9869 124.461 76.0196 122.899 76.8558 121.8C79.0962 118.857 78.2065 117.374 77.3168 115.891Z" fill="#C2DDFF"/>
<path fill-rule="evenodd" clip-rule="evenodd" d="M104.894 126.497C101.908 129.484 98.1114 129.614 95.7017 127.205C94.9206 126.423 93.6543 126.423 92.8733 127.205C92.0922 127.986 92.0922 129.252 92.8733 130.033C97.21 134.37 103.566 133.483 107.723 129.326C111.879 125.169 112.766 118.813 108.43 114.477C107.649 113.696 106.382 113.696 105.601 114.477C104.82 115.258 104.82 116.524 105.601 117.305C108.011 119.715 107.881 123.511 104.894 126.497Z" fill="#1C3553"/>
<path fill-rule="evenodd" clip-rule="evenodd" d="M37.0118 38.8162C34.6687 41.1593 34.6687 44.9583 37.0118 47.3015C37.7928 48.0825 37.7928 49.3489 37.0118 50.1299C36.2308 50.911 34.9644 50.911 34.1834 50.1299C30.2781 46.2247 30.2781 39.893 34.1834 35.9878C38.0886 32.0825 44.4203 32.0825 48.3255 35.9878C49.1066 36.7688 49.1066 38.0351 48.3255 38.8162C47.5445 39.5972 46.2781 39.5972 45.4971 38.8162C43.1539 36.4731 39.3549 36.4731 37.0118 38.8162Z" fill="#1C3553"/>
<path fill-rule="evenodd" clip-rule="evenodd" d="M36.0011 72.7523C34.733 64.3564 37.1305 55.6683 45.4972 47.3016C53.8661 38.9327 62.4595 36.6363 70.7397 38.0606C78.8489 39.4555 86.3863 44.3744 92.9184 49.8327C97.3473 53.5336 101.493 57.6479 105.086 61.2131C106.766 62.88 108.325 64.4269 109.735 65.7553C112.024 67.9115 113.864 69.4421 115.29 70.2199C115.999 70.6064 116.441 70.713 116.672 70.722C116.813 70.7274 116.843 70.7079 116.915 70.6361C119.649 67.9024 124.081 67.9024 126.815 70.6361L131.764 75.5859C134.107 77.929 134.107 81.728 131.764 84.0711L82.2668 133.569C79.9236 135.912 76.1247 135.912 73.7815 133.569L68.8318 128.619C66.1684 125.955 66.0999 121.68 68.6263 118.934C68.5551 118.708 68.379 118.324 67.9987 117.752C67.0823 116.375 65.4399 114.571 63.231 112.312C62.3253 111.386 61.3366 110.395 60.2901 109.347C56.3454 105.396 51.5795 100.623 47.342 95.3571C41.9846 88.6996 37.2459 80.9939 36.0011 72.7523ZM72.5902 118.32C72.7938 119.4 72.6036 120.604 71.6602 121.548C70.4886 122.719 70.4886 124.619 71.6602 125.79L76.6099 130.74C77.391 131.521 78.6573 131.521 79.4384 130.74L128.936 81.2427C129.717 80.4617 129.717 79.1953 128.936 78.4143L123.986 73.4645C122.815 72.293 120.915 72.293 119.743 73.4645C118.843 74.365 117.713 74.7653 116.517 74.719C115.413 74.6762 114.343 74.2594 113.375 73.7316C111.448 72.6809 109.277 70.8195 106.992 68.6668C105.443 67.2074 103.809 65.5848 102.086 63.8741C98.5574 60.3709 94.6572 56.4984 90.3535 52.9022C83.9809 47.5771 77.111 43.2153 70.0616 42.0027C63.1832 40.8195 55.8667 42.589 48.3257 50.13C40.7825 57.6732 38.8931 65.116 39.9563 72.1549C41.0427 79.3481 45.2533 86.3812 50.4583 92.8494C54.5465 97.9296 59.1086 102.5 63.0415 106.44C64.112 107.513 65.1359 108.539 66.0909 109.515C68.2737 111.748 70.1751 113.802 71.329 115.536C71.8992 116.393 72.4062 117.344 72.5902 118.32Z" fill="#1C3553"/>
<path fill-rule="evenodd" clip-rule="evenodd" d="M108.474 50.8812C107.693 50.1001 107.693 48.8338 108.474 48.0528L115.545 40.9817C116.326 40.2006 117.592 40.2006 118.373 40.9817C119.154 41.7627 119.154 43.0291 118.373 43.8101L111.302 50.8812C110.521 51.6622 109.255 51.6622 108.474 50.8812Z" fill="#1C3553"/>
<path fill-rule="evenodd" clip-rule="evenodd" d="M98.7333 43.5962C97.6677 43.3056 97.0394 42.2061 97.33 41.1405L99.4513 33.3623C99.742 32.2966 100.841 31.6684 101.907 31.959C102.973 32.2496 103.601 33.3491 103.31 34.4148L101.189 42.1929C100.898 43.2586 99.799 43.8869 98.7333 43.5962Z" fill="#1C3553"/>
<path fill-rule="evenodd" clip-rule="evenodd" d="M49.0768 110.278C48.2958 109.497 47.0294 109.497 46.2484 110.278L39.1773 117.349C38.3963 118.13 38.3963 119.397 39.1773 120.178C39.9584 120.959 41.2247 120.959 42.0057 120.178L49.0768 113.107C49.8579 112.326 49.8579 111.059 49.0768 110.278Z" fill="#1C3553"/>
<path fill-rule="evenodd" clip-rule="evenodd" d="M41.7922 100.537C41.5015 99.4718 40.4021 98.8435 39.3364 99.1341L31.5582 101.255C30.4926 101.546 29.8643 102.646 30.1549 103.711C30.4456 104.777 31.5451 105.405 32.6107 105.115L40.3889 102.993C41.4545 102.703 42.0828 101.603 41.7922 100.537Z" fill="#1C3553"/>
</svg>
