<svg width="156" height="156" viewBox="0 0 156 156" fill="none" xmlns="http://www.w3.org/2000/svg">
<path fill-rule="evenodd" clip-rule="evenodd" d="M45.6284 52.6194C45.2228 52.8652 44.9177 53.2473 44.7677 53.6973L39.6299 69.1112C40.1723 69.0271 40.6441 69 41.0001 69C43.6426 69 51.4237 70.093 51.4237 79.9302C56.1773 80.6546 60.0001 84.1081 60.0001 88.7674C60.0001 92.3243 58.1177 95.4133 55.0001 97C55.0001 97 57.0001 101 56.0001 104.977C55.1091 108.52 51.8108 112.741 47 114.779V132C47 133.104 47.8955 134 49 134H68V96H88V134H107C108.105 134 109 133.104 109 132V84.9997C109 83.8952 109.895 82.9997 111 82.9997H118.226C119.591 82.9997 120.555 81.6623 120.123 80.3673L111.233 53.6973C111.083 53.2473 110.778 52.8652 110.372 52.6194L79.0371 33.628C78.4 33.2418 77.601 33.2418 76.9639 33.628L45.6284 52.6194ZM88 59.9997H68V79.9997H88V59.9997Z" fill="#C2DDFF"/>
<path fill-rule="evenodd" clip-rule="evenodd" d="M34.0468 69.2002C36.4813 67.2979 39.3104 67 41 67C42.6769 67 45.7479 67.2943 48.4542 69.1175C51.0075 70.8375 52.9807 73.7455 53.3582 78.3042C58.0964 79.6272 62 83.4525 62 88.7674C62 92.4381 60.3263 95.7343 57.4708 97.8226C57.5871 98.1755 57.7057 98.5747 57.8151 99.0111C58.2329 100.679 58.5505 103.035 57.9396 105.464C56.515 111.13 50.0116 118 41 118C31.9929 118 25.4725 111.136 24.0597 105.485C23.4501 103.047 23.7667 100.687 24.1847 99.0149C24.2937 98.579 24.412 98.1803 24.5279 97.8276C21.6596 95.7415 20 92.4464 20 88.7674C20 85.6551 21.6526 83.094 23.814 81.2959C25.5352 79.8641 27.6709 78.828 29.8642 78.2747C30.1824 73.856 31.7894 70.9641 34.0468 69.2002ZM28.7906 97.8909L28.7894 97.8934L28.7906 97.8909ZM53.2106 97.8934C53.2099 97.892 53.2092 97.8905 53.2084 97.889C52.7211 96.9071 53.1152 95.7151 54.0928 95.2176C56.5293 93.9775 58 91.5839 58 88.7674C58 85.3643 55.1896 82.5272 51.1223 81.9074C50.1453 81.7585 49.4236 80.9185 49.4236 79.9302C49.4236 75.5984 47.8364 73.5243 46.2193 72.4349C44.4639 71.2523 42.3231 71 41 71C39.6896 71 37.9219 71.2486 36.5096 72.3521C35.1908 73.3826 33.8065 75.4578 33.8065 79.9302C33.8065 80.9291 33.0695 81.7748 32.08 81.9114C30.0088 82.1974 27.9124 83.0896 26.3722 84.3709C24.8372 85.6479 24 87.1722 24 88.7674C24 91.6026 25.458 93.9809 27.9015 95.2147C28.8829 95.7102 29.2799 96.9047 28.7917 97.8888M28.7917 97.8888L28.7838 97.9052C28.7752 97.9232 28.7602 97.9553 28.7399 98.0004C28.6992 98.0908 28.6377 98.2328 28.5646 98.4188C28.4178 98.7925 28.228 99.3343 28.0653 99.9851C27.7333 101.313 27.5499 102.953 27.9403 104.515C28.9528 108.565 34.0071 114 41 114C47.9884 114 53.0349 108.567 54.0604 104.489C54.4495 102.941 54.2671 101.309 53.9349 99.9831C53.7723 99.3337 53.5824 98.7925 53.4356 98.419C53.3625 98.2331 53.301 98.0911 53.2603 98.0006C53.2399 97.9555 53.2249 97.9234 53.2163 97.9053L53.2094 97.891L53.2102 97.8925M28.7894 97.8934C28.7901 97.8919 28.7909 97.8903 28.7917 97.8888L28.7894 97.8934Z" fill="#1C3553"/>
<path fill-rule="evenodd" clip-rule="evenodd" d="M40.9998 79C42.1044 79 42.9998 79.8954 42.9998 81V88.1716L45.5856 85.5858C46.3667 84.8047 47.633 84.8047 48.414 85.5858C49.1951 86.3668 49.1951 87.6332 48.414 88.4142L42.9998 93.8284V132H56.9998C58.1044 132 58.9998 132.895 58.9998 134C58.9998 135.105 58.1044 136 56.9998 136H28.9998C27.8952 136 26.9998 135.105 26.9998 134C26.9998 132.895 27.8952 132 28.9998 132H38.9998V102L33.7998 98.1C32.9162 97.4373 32.7371 96.1837 33.3998 95.3C34.0626 94.4163 35.3162 94.2373 36.1998 94.9L38.9998 97V81C38.9998 79.8954 39.8952 79 40.9998 79Z" fill="#1C3553"/>
<path fill-rule="evenodd" clip-rule="evenodd" d="M115 86.9999C116.104 86.9999 117 87.8953 117 88.9999V134C117 135.105 116.104 136 115 136H46.9999C45.8953 136 44.9999 135.105 44.9999 134C44.9999 132.895 45.8953 132 46.9999 132H113V88.9999C113 87.8953 113.895 86.9999 115 86.9999Z" fill="#1C3553"/>
<path fill-rule="evenodd" clip-rule="evenodd" d="M45 134C45 132.895 45.8954 132 47 132L127 132C128.105 132 129 132.895 129 134C129 135.105 128.105 136 127 136L47 136C45.8954 136 45 135.105 45 134Z" fill="#1C3553"/>
<path fill-rule="evenodd" clip-rule="evenodd" d="M79.068 29.04C78.4157 28.628 77.5845 28.6279 76.9321 29.04L41.6365 51.3319L37.3726 62.7022C36.9847 63.7365 35.8319 64.2605 34.7977 63.8726C33.7634 63.4848 33.2394 62.332 33.6273 61.2977L38.1273 49.2977C38.2805 48.8892 38.5631 48.542 38.9319 48.309L74.7961 25.658C76.7533 24.4219 79.2469 24.4219 81.204 25.658L117.068 48.309C117.458 48.5555 117.751 48.9295 117.897 49.3675L129.142 83.1026C130.437 86.9878 127.546 91 123.45 91H115C113.895 91 113 90.1045 113 89C113 87.8954 113.895 87 115 87H123.45C124.815 87 125.779 85.6626 125.348 84.3675L114.328 51.3097L79.068 29.04Z" fill="#1C3553"/>
<path fill-rule="evenodd" clip-rule="evenodd" d="M65.9999 95.9999C65.9999 94.8953 66.8953 93.9999 67.9999 93.9999H87.9999C89.1044 93.9999 89.9999 94.8953 89.9999 95.9999V134C89.9999 135.104 89.1044 136 87.9999 136H67.9999C66.8953 136 65.9999 135.104 65.9999 134V95.9999ZM71.3126 97.9999L77.9999 110.706L84.6872 97.9999H71.3126ZM85.9999 104.094L80.26 115L85.9999 125.906V104.094ZM84.6872 132L77.9999 119.294L71.3126 132H84.6872ZM69.9999 125.906L75.7398 115L69.9999 104.094V125.906Z" fill="#1C3553"/>
<path fill-rule="evenodd" clip-rule="evenodd" d="M65.9999 61.9999C65.9999 59.7907 67.7907 57.9999 69.9999 57.9999H85.9999C88.209 57.9999 89.9999 59.7907 89.9999 61.9999V77.9999C89.9999 80.209 88.209 81.9999 85.9999 81.9999H69.9999C67.7907 81.9999 65.9999 80.209 65.9999 77.9999V61.9999ZM85.9999 61.9999L69.9999 61.9999V77.9999H85.9999V61.9999Z" fill="#1C3553"/>
</svg>
