<svg width="156" height="156" viewBox="0 0 156 156" fill="none" xmlns="http://www.w3.org/2000/svg">
<path d="M37 86C37 84.8954 37.8954 84 39 84H43C44.1046 84 45 84.8954 45 86V120C45 121.105 44.1046 122 43 122H39C37.8954 122 37 121.105 37 120V86Z" fill="#C2DDFF"/>
<path d="M57 86C57 84.8954 57.8954 84 59 84H63C64.1046 84 65 84.8954 65 86V120C65 121.105 64.1046 122 63 122H59C57.8954 122 57 121.105 57 120V86Z" fill="#C2DDFF"/>
<path d="M77 86C77 84.8954 77.8954 84 79 84H83C84.1046 84 85 84.8954 85 86V120C85 121.105 84.1046 122 83 122H79C77.8954 122 77 121.105 77 120V86Z" fill="#C2DDFF"/>
<path d="M97 86C97 84.8954 97.8954 84 99 84H103C104.105 84 105 84.8954 105 86V120C105 121.105 104.105 122 103 122H99C97.8954 122 97 121.105 97 120V86Z" fill="#C2DDFF"/>
<path d="M117 86C117 84.8954 117.895 84 119 84H123C124.105 84 125 84.8954 125 86V120C125 121.105 124.105 122 123 122H119C117.895 122 117 121.105 117 120V86Z" fill="#C2DDFF"/>
<path fill-rule="evenodd" clip-rule="evenodd" d="M29 27.7333C29 25.6715 30.6715 24 32.7333 24H73.2661C75.3279 24 76.9994 25.6715 76.9994 27.7333V68.2667C76.9994 70.3285 75.3279 72 73.2661 72H32.7333C30.6715 72 29 70.3285 29 68.2667V42C29 40.8954 29.8954 40 31 40C32.1046 40 33 40.8954 33 42V68H72.9994V28H33V34C33 35.1046 32.1046 36 31 36C29.8954 36 29 35.1046 29 34V27.7333Z" fill="#1C3553"/>
<path fill-rule="evenodd" clip-rule="evenodd" d="M52.9997 24C54.1043 24 54.9997 24.8954 54.9997 26L54.9997 70C54.9997 71.1046 54.1043 72 52.9997 72C51.8951 72 50.9997 71.1046 50.9997 70L50.9997 26C50.9997 24.8954 51.8951 24 52.9997 24Z" fill="#1C3553"/>
<path fill-rule="evenodd" clip-rule="evenodd" d="M29 48C29 46.8954 29.8954 46 31 46L75 46C76.1046 46 77 46.8954 77 48C77 49.1046 76.1046 50 75 50L31 50C29.8954 50 29 49.1046 29 48Z" fill="#1C3553"/>
<path fill-rule="evenodd" clip-rule="evenodd" d="M19 130C19 127.791 20.7909 126 23 126H139C141.209 126 143 127.791 143 130V134C143 136.209 141.209 138 139 138H115C113.895 138 113 137.105 113 136C113 134.895 113.895 134 115 134H139V130H23V134H107C108.105 134 109 134.895 109 136C109 137.105 108.105 138 107 138H23C20.7909 138 19 136.209 19 134V130Z" fill="#1C3553"/>
<path fill-rule="evenodd" clip-rule="evenodd" d="M19 78C19 76.8954 19.8954 76 21 76H141C142.105 76 143 76.8954 143 78C143 79.1046 142.105 80 141 80H21C19.8954 80 19 79.1046 19 78Z" fill="#1C3553"/>
<path fill-rule="evenodd" clip-rule="evenodd" d="M31 84C32.1046 84 33 84.8954 33 86V120C33 121.105 32.1046 122 31 122C29.8954 122 29 121.105 29 120V86C29 84.8954 29.8954 84 31 84Z" fill="#1C3553"/>
<path fill-rule="evenodd" clip-rule="evenodd" d="M91 84C92.1046 84 93 84.8954 93 86V120C93 121.105 92.1046 122 91 122C89.8954 122 89 121.105 89 120V86C89 84.8954 89.8954 84 91 84Z" fill="#1C3553"/>
<path fill-rule="evenodd" clip-rule="evenodd" d="M51 84C52.1046 84 53 84.8954 53 86V120C53 121.105 52.1046 122 51 122C49.8954 122 49 121.105 49 120V86C49 84.8954 49.8954 84 51 84Z" fill="#1C3553"/>
<path fill-rule="evenodd" clip-rule="evenodd" d="M71 84C72.1046 84 73 84.8954 73 86V120C73 121.105 72.1046 122 71 122C69.8954 122 69 121.105 69 120V86C69 84.8954 69.8954 84 71 84Z" fill="#1C3553"/>
<path fill-rule="evenodd" clip-rule="evenodd" d="M111 84C112.105 84 113 84.8954 113 86V120C113 121.105 112.105 122 111 122C109.895 122 109 121.105 109 120V86C109 84.8954 109.895 84 111 84Z" fill="#1C3553"/>
<path fill-rule="evenodd" clip-rule="evenodd" d="M131 84C132.105 84 133 84.8954 133 86V120C133 121.105 132.105 122 131 122C129.895 122 129 121.105 129 120V86C129 84.8954 129.895 84 131 84Z" fill="#1C3553"/>
</svg>
