<svg width="156" height="156" viewBox="0 0 156 156" fill="none" xmlns="http://www.w3.org/2000/svg">
<path d="M47 110C47 108.895 47.8954 108 49 108H107C108.105 108 109 108.895 109 110V134C109 135.105 108.105 136 107 136H49C47.8954 136 47 135.105 47 134V110Z" fill="#C2DDFF"/>
<path fill-rule="evenodd" clip-rule="evenodd" d="M45 110C45 107.791 46.7909 106 49 106H107C109.209 106 111 107.791 111 110V134C111 136.209 109.209 138 107 138H49C46.7909 138 45 136.209 45 134V110ZM107 110L49 110V134H107V110Z" fill="#1C3553"/>
<path fill-rule="evenodd" clip-rule="evenodd" d="M73.6044 21.9053C75.9504 19.2897 80.0319 19.2408 82.4401 21.7994L124.284 66.2585C126.686 68.8112 124.877 73 121.371 73H111V81C111 82.1045 110.105 83 109 83C107.895 83 107 82.1045 107 81V72C107 70.3431 108.343 69 110 69L121.371 69L79.5273 24.5408C78.7246 23.688 77.3641 23.7043 76.582 24.5761L62.2333 40.5732C60.3958 42.6218 57 41.322 57 38.5701V35.113H49V51.892C49 52.6377 48.7223 53.3566 48.221 53.9087L34.5176 69H46C47.6569 69 49 70.3431 49 72V106H107V89C107 87.8954 107.895 87 109 87C110.105 87 111 87.8954 111 89V108C111 109.105 110.105 110 109 110H47C45.8954 110 45 109.105 45 108V73H34.5176C31.0461 73 29.2226 68.881 31.5563 66.311L45 51.5057V34.113C45 32.4562 46.3431 31.113 48 31.113H58C59.6569 31.113 61 32.4562 61 34.113V35.9575L73.6044 21.9053Z" fill="#1C3553"/>
<path fill-rule="evenodd" clip-rule="evenodd" d="M67.3779 62.4047C65.7264 64.0276 65.3509 67.2527 67.4137 69.5599C70.1296 72.5975 73.097 75.4602 75.396 77.5713C76.4332 78.5238 77.3299 79.3192 78 79.904C78.6701 79.3192 79.5668 78.5238 80.6041 77.5713C82.903 75.4601 85.8705 72.5974 88.5863 69.5598C90.6491 67.2527 90.2737 64.0276 88.6221 62.4047C87.8499 61.646 86.758 61.1909 85.3248 61.383C83.839 61.5823 81.8159 62.5082 79.4101 64.9001C78.63 65.6756 77.37 65.6756 76.5899 64.9001C74.184 62.5082 72.161 61.5823 70.6751 61.383C69.242 61.1909 68.1501 61.646 67.3779 62.4047ZM78 82.5391L76.7198 84.0756C77.4614 84.6935 78.5386 84.6935 79.2802 84.0756L78 82.5391ZM78 82.5391C79.2802 84.0756 79.28 84.0758 79.2802 84.0756L79.3026 84.0569L79.3619 84.0071C79.4135 83.9637 79.4889 83.9002 79.5861 83.8176C79.7805 83.6524 80.0627 83.411 80.4179 83.1024C81.1281 82.4856 82.1312 81.5996 83.3096 80.5175C85.6614 78.3578 88.7326 75.3975 91.5683 72.2259C95.0569 68.324 94.5983 62.6692 91.4256 59.5516C89.7857 57.9402 87.4679 57.0599 84.7933 57.4185C82.6123 57.7109 80.3201 58.8056 78 60.7669C75.6799 58.8056 73.3877 57.7109 71.2067 57.4185C68.5321 57.0599 66.2143 57.9402 64.5744 59.5516C61.4017 62.6692 60.9431 68.324 64.4318 72.226C67.2674 75.3975 70.3386 78.3579 72.6904 80.5175C73.8688 81.5996 74.8719 82.4856 75.5821 83.1025C75.9373 83.411 76.2194 83.6524 76.4139 83.8176C76.5111 83.9002 76.5864 83.9637 76.638 84.0071L76.6974 84.0569L76.7198 84.0756C76.7199 84.0758 76.7198 84.0756 78 82.5391Z" fill="#1C3553"/>
<path fill-rule="evenodd" clip-rule="evenodd" d="M25 108C25 106.895 25.8954 106 27 106L129 106C130.105 106 131 106.895 131 108C131 109.105 130.105 110 129 110L27 110C25.8954 110 25 109.105 25 108Z" fill="#1C3553"/>
<path fill-rule="evenodd" clip-rule="evenodd" d="M93 128C93 126.895 92.1046 126 91 126H79C77.8954 126 77 126.895 77 128C77 129.105 77.8954 130 79 130H89V134C89 135.105 89.8954 136 91 136C92.1046 136 93 135.105 93 134V128Z" fill="#1C3553"/>
<path fill-rule="evenodd" clip-rule="evenodd" d="M81 122C81 120.895 80.1046 120 79 120H67C65.8954 120 65 120.895 65 122C65 123.105 65.8954 124 67 124H77V128C77 129.105 77.8954 130 79 130C80.1046 130 81 129.105 81 128V122Z" fill="#1C3553"/>
<path fill-rule="evenodd" clip-rule="evenodd" d="M68.9991 116C68.9991 114.895 68.1037 114 66.9991 114H54.9997C53.8951 114 52.9997 114.895 52.9997 116C52.9997 117.105 53.8951 118 54.9997 118H64.9991V122C64.9991 123.105 65.8945 124 66.9991 124C68.1037 124 68.9991 123.105 68.9991 122V116Z" fill="#1C3553"/>
<path fill-rule="evenodd" clip-rule="evenodd" d="M55 106C56.1046 106 57 106.895 57 108V116C57 117.105 56.1046 118 55 118C53.8954 118 53 117.105 53 116V108C53 106.895 53.8954 106 55 106Z" fill="#1C3553"/>
</svg>
