<svg width="156" height="156" viewBox="0 0 156 156" fill="none" xmlns="http://www.w3.org/2000/svg">
<path d="M120 42C120 46.4183 116.418 50 112 50C107.582 50 104 46.4183 104 42C104 37.5817 107.582 34 112 34C116.418 34 120 37.5817 120 42Z" fill="#C2DDFF"/>
<path fill-rule="evenodd" clip-rule="evenodd" d="M29 28C28.4477 28 28 28.4477 28 29V128C28 128.552 28.4477 129 29 129H71C71.5523 129 72 128.552 72 128V29C72 28.4477 71.5523 28 71 28H29ZM42.3333 36H56.6667C61.269 36 65 39.731 65 44.3333C65 45.2538 64.2538 46 63.3333 46H35.6667C34.7462 46 34 45.2538 34 44.3333C34 39.731 37.731 36 42.3333 36Z" fill="#C2DDFF"/>
<path fill-rule="evenodd" clip-rule="evenodd" d="M84 93C84 90.7909 85.7909 89 88 89H136C138.209 89 140 90.7909 140 93V109C140 111.209 138.209 113 136 113H88C85.7909 113 84 111.209 84 109V93ZM136 93L88 93V109H136L136 93Z" fill="#1C3553"/>
<path fill-rule="evenodd" clip-rule="evenodd" d="M132 99C132 100.105 131.105 101 130 101L87 101C85.8954 101 85 100.105 85 99C85 97.8954 85.8954 97 87 97L130 97C131.105 97 132 97.8954 132 99Z" fill="#1C3553"/>
<path fill-rule="evenodd" clip-rule="evenodd" d="M95 79C95 76.7909 96.7909 75 99 75H125C127.209 75 129 76.7909 129 79V81C129 87.6274 123.627 93 117 93H107C100.373 93 95 87.6274 95 81V79ZM125 79H99V81C99 85.4183 102.582 89 107 89H117C121.418 89 125 85.4183 125 81V79Z" fill="#1C3553"/>
<path fill-rule="evenodd" clip-rule="evenodd" d="M113 71C111.899 71 111.006 70.1103 111 69.0107L111 68.9972C110.999 68.9794 110.998 68.946 110.995 68.8992C110.99 68.8051 110.979 68.6605 110.955 68.4831C110.906 68.1178 110.812 67.6662 110.643 67.2428C110.472 66.8151 110.261 66.5086 110.032 66.3177C109.838 66.1563 109.545 66 109 66C108.349 66 108.01 66.1569 107.828 66.2834C107.634 66.4182 107.466 66.6248 107.328 66.9373C107.019 67.6323 107 68.4887 107 69L107 76.9999L105 77L103 76.9999L103 69C103 68.9881 103 68.9755 103 68.9623C102.999 68.4314 102.998 66.8298 103.672 65.3127C104.033 64.5002 104.616 63.6443 105.547 62.9979C106.49 62.3431 107.651 62 109 62C110.455 62 111.662 62.4687 112.593 63.2448C113.489 63.9914 114.028 64.9349 114.357 65.7572C114.688 66.5838 114.844 67.3822 114.92 67.9544C114.959 68.2457 114.979 68.4917 114.989 68.6711C114.994 68.761 114.997 68.835 114.998 68.8905C114.999 68.9183 114.999 68.9415 115 68.9599L115 68.9837L115 68.9928L115 68.9966L115 68.9984C115 68.9992 115 69 113 69L115 69C115 70.1046 114.105 71 113 71ZM105 77L103 76.9999C103 78.1045 103.895 79 105 79C106.105 79 107 78.1045 107 76.9999L105 77Z" fill="#1C3553"/>
<path fill-rule="evenodd" clip-rule="evenodd" d="M112 30C105.373 30 100 35.3726 100 42C100 48.6274 105.373 54 112 54C118.627 54 124 48.6274 124 42C124 35.3726 118.627 30 112 30ZM96 42C96 33.1634 103.163 26 112 26C120.837 26 128 33.1634 128 42C128 50.8366 120.837 58 112 58C103.163 58 96 50.8366 96 42Z" fill="#1C3553"/>
<path fill-rule="evenodd" clip-rule="evenodd" d="M50 20C51.1046 20 52 20.8954 52 22L52 36C52 37.1046 51.1046 38 50 38C48.8954 38 48 37.1046 48 36L48 22C48 20.8954 48.8954 20 50 20Z" fill="#1C3553"/>
<path fill-rule="evenodd" clip-rule="evenodd" d="M40 52C41.1046 52 42 52.8954 42 54L42 64C42 65.1046 41.1046 66 40 66C38.8954 66 38 65.1046 38 64L38 54C38 52.8954 38.8954 52 40 52Z" fill="#1C3553"/>
<path fill-rule="evenodd" clip-rule="evenodd" d="M50 52C51.1046 52 52 52.8954 52 54L52 68C52 69.1046 51.1046 70 50 70C48.8954 70 48 69.1046 48 68L48 54C48 52.8954 48.8954 52 50 52Z" fill="#1C3553"/>
<path fill-rule="evenodd" clip-rule="evenodd" d="M60 52C61.1046 52 62 52.8954 62 54L62 64C62 65.1046 61.1046 66 60 66C58.8954 66 58 65.1046 58 64L58 54C58 52.8954 58.8954 52 60 52Z" fill="#1C3553"/>
<path fill-rule="evenodd" clip-rule="evenodd" d="M40 70C41.1046 70 42 70.8954 42 72L42 76C42 77.1046 41.1046 78 40 78C38.8954 78 38 77.1046 38 76L38 72C38 70.8954 38.8954 70 40 70Z" fill="#1C3553"/>
<path fill-rule="evenodd" clip-rule="evenodd" d="M50 74C51.1046 74 52 74.8954 52 76L52 80C52 81.1046 51.1046 82 50 82C48.8954 82 48 81.1046 48 80L48 76C48 74.8954 48.8954 74 50 74Z" fill="#1C3553"/>
<path fill-rule="evenodd" clip-rule="evenodd" d="M60 70C61.1046 70 62 70.8954 62 72L62 76C62 77.1046 61.1046 78 60 78C58.8954 78 58 77.1046 58 76L58 72C58 70.8954 58.8954 70 60 70Z" fill="#1C3553"/>
<path fill-rule="evenodd" clip-rule="evenodd" d="M20 26C20 22.6863 22.6863 20 26 20H74C77.3137 20 80 22.6863 80 26V134.875C80 136.049 79.0486 137 77.875 137H24C21.7909 137 20 135.209 20 133V94C20 92.8954 20.8954 92 22 92C23.1046 92 24 92.8954 24 94V133H76V26C76 24.8954 75.1046 24 74 24H26C24.8954 24 24 24.8954 24 26V86C24 87.1046 23.1046 88 22 88C20.8954 88 20 87.1046 20 86V26Z" fill="#1C3553"/>
<path fill-rule="evenodd" clip-rule="evenodd" d="M32 44.3333C32 38.6264 36.6264 34 42.3333 34H56.6667C62.3736 34 67 38.6264 67 44.3333C67 46.3584 65.3584 48 63.3333 48H35.6667C33.6416 48 32 46.3584 32 44.3333ZM36.0086 44H62.9914C62.818 40.6571 60.0527 38 56.6667 38H42.3333C38.9473 38 36.182 40.6571 36.0086 44Z" fill="#1C3553"/>
</svg>
