<svg width="156" height="156" viewBox="0 0 156 156" fill="none" xmlns="http://www.w3.org/2000/svg">
<path d="M27 46C27 44.8954 27.8954 44 29 44H127C128.105 44 129 44.8954 129 46V52C129 53.1046 128.105 54 127 54H29C27.8954 54 27 53.1046 27 52V46Z" fill="#C2DDFF"/>
<path d="M38 72H52V84H38V72Z" fill="#C2DDFF"/>
<path d="M60 72H74V84H60V72Z" fill="#C2DDFF"/>
<path d="M82 72H96V84H82V72Z" fill="#C2DDFF"/>
<path d="M104 72H118V84H104V72Z" fill="#C2DDFF"/>
<path d="M38 94H52V106H38V94Z" fill="#C2DDFF"/>
<path d="M60 94H74V106H60V94Z" fill="#C2DDFF"/>
<path d="M82 94H96V106H82V94Z" fill="#C2DDFF"/>
<path d="M104 94H118V106H104V94Z" fill="#C2DDFF"/>
<path fill-rule="evenodd" clip-rule="evenodd" d="M20 58C21.1046 58 22 58.8954 22 60V121C22 122.657 23.3431 124 25 124H131C132.657 124 134 122.657 134 121V60C134 58.8954 134.895 58 136 58C137.105 58 138 58.8954 138 60V121C138 124.866 134.866 128 131 128H25C21.134 128 18 124.866 18 121V60C18 58.8954 18.8954 58 20 58ZM26 62C26 59.7909 27.7909 58 30 58H126C128.209 58 130 59.7909 130 62V116C130 118.209 128.209 120 126 120H108C106.895 120 106 119.105 106 118C106 116.895 106.895 116 108 116H126V62H30V116H100C101.105 116 102 116.895 102 118C102 119.105 101.105 120 100 120H30C27.7909 120 26 118.209 26 116V62Z" fill="#1C3553"/>
<path fill-rule="evenodd" clip-rule="evenodd" d="M25 40C23.3431 40 22 41.3431 22 43V60C22 61.1046 21.1046 62 20 62C18.8954 62 18 61.1046 18 60V43C18 39.134 21.134 36 25 36H30C31.1046 36 32 36.8954 32 38C32 39.1046 31.1046 40 30 40H25ZM44 38C44 36.8954 44.8954 36 46 36H110C111.105 36 112 36.8954 112 38C112 39.1046 111.105 40 110 40H46C44.8954 40 44 39.1046 44 38ZM124 38C124 36.8954 124.895 36 126 36H131C134.866 36 138 39.134 138 43V60C138 61.1046 137.105 62 136 62C134.895 62 134 61.1046 134 60V43C134 41.3431 132.657 40 131 40H126C124.895 40 124 39.1046 124 38Z" fill="#1C3553"/>
<path fill-rule="evenodd" clip-rule="evenodd" d="M36 73C36 71.3431 37.3431 70 39 70H51C52.6569 70 54 71.3431 54 73V83C54 84.6569 52.6569 86 51 86H39C37.3431 86 36 84.6569 36 83V73ZM40 74V82H50V74H40Z" fill="#1C3553"/>
<path fill-rule="evenodd" clip-rule="evenodd" d="M58 73C58 71.3431 59.3431 70 61 70H73C74.6569 70 76 71.3431 76 73V83C76 84.6569 74.6569 86 73 86H61C59.3431 86 58 84.6569 58 83V73ZM62 74V82H72V74H62Z" fill="#1C3553"/>
<path fill-rule="evenodd" clip-rule="evenodd" d="M80 73C80 71.3431 81.3431 70 83 70H95C96.6569 70 98 71.3431 98 73V83C98 84.6569 96.6569 86 95 86H83C81.3431 86 80 84.6569 80 83V73ZM84 74V82H94V74H84Z" fill="#1C3553"/>
<path fill-rule="evenodd" clip-rule="evenodd" d="M102 73C102 71.3431 103.343 70 105 70H117C118.657 70 120 71.3431 120 73V83C120 84.6569 118.657 86 117 86H105C103.343 86 102 84.6569 102 83V73ZM106 74V82H116V74H106Z" fill="#1C3553"/>
<path fill-rule="evenodd" clip-rule="evenodd" d="M36 95C36 93.3431 37.3431 92 39 92H51C52.6569 92 54 93.3431 54 95V105C54 106.657 52.6569 108 51 108H39C37.3431 108 36 106.657 36 105V95ZM40 96V104H50V96H40Z" fill="#1C3553"/>
<path fill-rule="evenodd" clip-rule="evenodd" d="M58 95C58 93.3431 59.3431 92 61 92H73C74.6569 92 76 93.3431 76 95V105C76 106.657 74.6569 108 73 108H61C59.3431 108 58 106.657 58 105V95ZM62 96V104H72V96H62Z" fill="#1C3553"/>
<path fill-rule="evenodd" clip-rule="evenodd" d="M80 95C80 93.3431 81.3431 92 83 92H95C96.6569 92 98 93.3431 98 95V105C98 106.657 96.6569 108 95 108H83C81.3431 108 80 106.657 80 105V95ZM84 96V104H94V96H84Z" fill="#1C3553"/>
<path fill-rule="evenodd" clip-rule="evenodd" d="M102 95C102 93.3431 103.343 92 105 92H117C118.657 92 120 93.3431 120 95V105C120 106.657 118.657 108 117 108H105C103.343 108 102 106.657 102 105V95ZM106 96V104H116V96H106Z" fill="#1C3553"/>
<path fill-rule="evenodd" clip-rule="evenodd" d="M38 26C39.1046 26 40 26.8954 40 28L40 38C40 39.1046 39.1046 40 38 40C36.8954 40 36 39.1046 36 38L36 28C36 26.8954 36.8954 26 38 26Z" fill="#1C3553"/>
<path fill-rule="evenodd" clip-rule="evenodd" d="M118 26C119.105 26 120 26.8954 120 28L120 38C120 39.1046 119.105 40 118 40C116.895 40 116 39.1046 116 38L116 28C116 26.8954 116.895 26 118 26Z" fill="#1C3553"/>
</svg>
