<svg width="156" height="156" viewBox="0 0 156 156" fill="none" xmlns="http://www.w3.org/2000/svg">
<path d="M124 78C124 103.405 103.405 124 78 124C52.5949 124 32 103.405 32 78C32 52.5949 52.5949 32 78 32C103.405 32 124 52.5949 124 78Z" fill="#C2DDFF"/>
<path fill-rule="evenodd" clip-rule="evenodd" d="M108.225 57.799C109.006 58.58 109.006 59.8464 108.225 60.6274L71.4558 97.397C69.1126 99.7401 65.3136 99.7401 62.9705 97.397L44.5857 79.0122C43.8047 78.2311 43.8047 76.9648 44.5857 76.1838C45.3668 75.4027 46.6331 75.4027 47.4141 76.1838L65.7989 94.5685C66.58 95.3496 67.8463 95.3496 68.6273 94.5685L105.397 57.799C106.178 57.0179 107.444 57.0179 108.225 57.799Z" fill="#1C3553"/>
<path fill-rule="evenodd" clip-rule="evenodd" d="M78 28C66.6118 28 56.1181 31.8048 47.7126 38.2137C46.8343 38.8834 45.5793 38.7142 44.9096 37.8359C44.2398 36.9575 44.409 35.7025 45.2874 35.0328C54.3653 28.1112 65.7054 24 78 24C107.823 24 132 48.1766 132 78C132 107.823 107.823 132 78 132C48.1766 132 24 107.823 24 78C24 64.0031 29.328 51.246 38.063 41.6534C38.8067 40.8367 40.0716 40.7775 40.8883 41.5212C41.705 42.2649 41.7642 43.5299 41.0205 44.3466C32.9299 53.2314 28 65.0377 28 78C28 105.614 50.3858 128 78 128C105.614 128 128 105.614 128 78C128 50.3858 105.614 28 78 28Z" fill="#1C3553"/>
</svg>
