<svg width="156" height="156" viewBox="0 0 156 156" fill="none" xmlns="http://www.w3.org/2000/svg">
<path d="M44 98C44 96.8954 44.8954 96 46 96H110C111.105 96 112 96.8954 112 98V114C112 115.105 111.105 116 110 116H46C44.8954 116 44 115.105 44 114V98Z" fill="#C2DDFF"/>
<path d="M44 72C44 70.8954 44.8954 70 46 70H110C111.105 70 112 70.8954 112 72V88C112 89.1046 111.105 90 110 90H46C44.8954 90 44 89.1046 44 88V72Z" fill="#C2DDFF"/>
<path d="M44 46C44 44.8954 44.8954 44 46 44H110C111.105 44 112 44.8954 112 46V62C112 63.1046 111.105 64 110 64H46C44.8954 64 44 63.1046 44 62V46Z" fill="#C2DDFF"/>
<path fill-rule="evenodd" clip-rule="evenodd" d="M36 33C36 30.7909 37.7909 29 40 29H49C50.1046 29 51 29.8954 51 31C51 32.1046 50.1046 33 49 33L40 33V55C40 56.1046 39.1046 57 38 57C36.8954 57 36 56.1046 36 55V33ZM105 31C105 29.8954 105.895 29 107 29H116C118.209 29 120 30.7909 120 33V123C120 125.209 118.209 127 116 127H40C37.7909 127 36 125.209 36 123V63C36 61.8954 36.8954 61 38 61C39.1046 61 40 61.8954 40 63V123H116V33H107C105.895 33 105 32.1046 105 31Z" fill="#1C3553"/>
<path fill-rule="evenodd" clip-rule="evenodd" d="M72 54C72 52.8954 72.8954 52 74 52H103C104.105 52 105 52.8954 105 54C105 55.1046 104.105 56 103 56H74C72.8954 56 72 55.1046 72 54Z" fill="#1C3553"/>
<path fill-rule="evenodd" clip-rule="evenodd" d="M64.4136 48.5857C65.1946 49.3667 65.1947 50.633 64.4136 51.4141L56.414 59.4141C55.6683 60.1598 54.4717 60.1984 53.6796 59.5024L49.6796 55.9876C48.8499 55.2585 48.7683 53.9948 49.4974 53.1651C50.2265 52.3353 51.4902 52.2537 52.3199 52.9828L54.9113 55.2599L61.5851 48.5857C62.3662 47.8047 63.6325 47.8046 64.4136 48.5857Z" fill="#1C3553"/>
<path fill-rule="evenodd" clip-rule="evenodd" d="M72 80C72 78.8954 72.8954 78 74 78H103C104.105 78 105 78.8954 105 80C105 81.1046 104.105 82 103 82H74C72.8954 82 72 81.1046 72 80Z" fill="#1C3553"/>
<path fill-rule="evenodd" clip-rule="evenodd" d="M64.4136 74.5857C65.1946 75.3667 65.1947 76.633 64.4136 77.4141L56.414 85.4141C55.6683 86.1598 54.4717 86.1984 53.6796 85.5024L49.6796 81.9876C48.8499 81.2585 48.7683 79.9948 49.4974 79.1651C50.2265 78.3353 51.4902 78.2537 52.3199 78.9828L54.9113 81.2599L61.5851 74.5857C62.3662 73.8047 63.6325 73.8046 64.4136 74.5857Z" fill="#1C3553"/>
<path fill-rule="evenodd" clip-rule="evenodd" d="M72 106C72 104.895 72.8954 104 74 104H103C104.105 104 105 104.895 105 106C105 107.105 104.105 108 103 108H74C72.8954 108 72 107.105 72 106Z" fill="#1C3553"/>
<path fill-rule="evenodd" clip-rule="evenodd" d="M64.4136 100.586C65.1946 101.367 65.1947 102.633 64.4136 103.414L56.414 111.414C55.6683 112.16 54.4717 112.198 53.6796 111.502L49.6796 107.988C48.8499 107.259 48.7683 105.995 49.4974 105.165C50.2265 104.335 51.4902 104.254 52.3199 104.983L54.9113 107.26L61.5851 100.586C62.3662 99.8047 63.6325 99.8046 64.4136 100.586Z" fill="#1C3553"/>
<path fill-rule="evenodd" clip-rule="evenodd" d="M67 20C67 18.8954 67.8954 18 69 18H87C88.1046 18 89 18.8954 89 20V24H99C100.105 24 101 24.8954 101 26V35C101 36.1046 100.105 37 99 37H57C55.8954 37 55 36.1046 55 35V26C55 24.8954 55.8954 24 57 24H67V20ZM71 22V24C71 26.2091 69.2091 28 67 28H59V33H97V28H89C86.7909 28 85 26.2091 85 24V22H71Z" fill="#1C3553"/>
</svg>
