<svg width="156" height="156" viewBox="0 0 156 156" fill="none" xmlns="http://www.w3.org/2000/svg">
<path d="M124 78C124 103.405 103.405 124 78 124C52.5949 124 32 103.405 32 78C32 52.5949 52.5949 32 78 32C103.405 32 124 52.5949 124 78Z" fill="#C2DDFF"/>
<path fill-rule="evenodd" clip-rule="evenodd" d="M78 28C50.3843 28 28 50.3884 28 78C28 105.612 50.3843 128 78 128C105.612 128 128 105.612 128 78C128 70.0143 126.129 62.4709 122.803 55.7791C122.311 54.7899 122.714 53.5895 123.704 53.0979C124.693 52.6063 125.893 53.0096 126.385 53.9987C129.979 61.2313 132 69.3828 132 78C132 107.821 107.821 132 78 132C48.1749 132 24 107.821 24 78C24 48.1794 48.1749 24 78 24C95.6661 24 111.352 32.4879 121.201 45.5988C121.865 46.4819 121.687 47.7357 120.803 48.3991C119.92 49.0625 118.666 48.8844 118.003 48.0012C108.877 35.8526 94.3547 28 78 28Z" fill="#1C3553"/>
<path fill-rule="evenodd" clip-rule="evenodd" d="M58.5856 58.5858C59.3666 57.8047 60.633 57.8047 61.414 58.5858L97.4139 94.5854C98.195 95.3665 98.195 96.6328 97.4139 97.4139C96.6329 98.1949 95.3666 98.1949 94.5855 97.4139L58.5856 61.4142C57.8046 60.6332 57.8045 59.3668 58.5856 58.5858Z" fill="#1C3553"/>
<path fill-rule="evenodd" clip-rule="evenodd" d="M97.4137 58.586C98.1948 59.367 98.1948 60.6333 97.4137 61.4144L61.4141 97.414C60.6331 98.1951 59.3667 98.1951 58.5857 97.4141C57.8046 96.633 57.8046 95.3667 58.5857 94.5856L94.5853 58.586C95.3663 57.8049 96.6327 57.8049 97.4137 58.586Z" fill="#1C3553"/>
</svg>
