<svg width="156" height="156" viewBox="0 0 156 156" fill="none" xmlns="http://www.w3.org/2000/svg">
<path fill-rule="evenodd" clip-rule="evenodd" d="M78 124C103.405 124 124 103.405 124 78C124 52.5949 103.405 32 78 32C52.5949 32 32 52.5949 32 78C32 103.405 52.5949 124 78 124ZM111.363 57.3611C112.144 58.1421 112.144 59.4084 111.363 60.1895L67.6049 103.948C66.0428 105.51 63.5101 105.51 61.948 103.948L40.9271 82.9267C40.1461 82.1457 40.1461 80.8793 40.9271 80.0983L43.8131 77.2123C44.5941 76.4313 45.8604 76.4313 46.6415 77.2123L64.175 94.7458L105.047 53.8736C105.828 53.0926 107.095 53.0926 107.876 53.8736L111.363 57.3611Z" fill="#C2DDFF"/>
<path fill-rule="evenodd" clip-rule="evenodd" d="M103.633 52.4595C105.195 50.8974 107.728 50.8974 109.29 52.4595L112.777 55.9469C114.339 57.509 114.339 60.0417 112.777 61.6038L69.0191 105.362C66.676 107.705 62.877 107.705 60.5338 105.362L39.5129 84.341C37.9508 82.7789 37.9508 80.2462 39.5129 78.6841L42.3988 75.7982C43.9609 74.2361 46.4936 74.2361 48.0557 75.7982L64.175 91.9174L103.633 52.4595ZM109.949 58.7753L106.461 55.2879L65.5892 96.1601C64.8081 96.9411 63.5418 96.9411 62.7607 96.1601L45.2273 78.6266L42.3413 81.5125L63.3623 102.533C64.1433 103.315 65.4096 103.315 66.1907 102.533L109.949 58.7753Z" fill="#1C3553"/>
<path fill-rule="evenodd" clip-rule="evenodd" d="M78 28C66.6118 28 56.1181 31.8048 47.7126 38.2137C46.8343 38.8834 45.5793 38.7142 44.9096 37.8359C44.2398 36.9575 44.409 35.7025 45.2874 35.0328C54.3653 28.1112 65.7054 24 78 24C107.823 24 132 48.1766 132 78C132 107.823 107.823 132 78 132C48.1766 132 24 107.823 24 78C24 64.0031 29.328 51.246 38.063 41.6534C38.8067 40.8367 40.0716 40.7775 40.8883 41.5212C41.705 42.2649 41.7642 43.5299 41.0205 44.3466C32.9299 53.2314 28 65.0377 28 78C28 105.614 50.3858 128 78 128C105.614 128 128 105.614 128 78C128 50.3858 105.614 28 78 28Z" fill="#1C3553"/>
</svg>
