<svg width="156" height="156" viewBox="0 0 156 156" fill="none" xmlns="http://www.w3.org/2000/svg">
<path fill-rule="evenodd" clip-rule="evenodd" d="M96 28C97.1046 28 98 28.8954 98 30V42C98 43.1046 98.8954 44 100 44H113C114.105 44 115 44.8954 115 46V108C115 109.105 114.105 110 113 110H103.77C103.877 106.281 101.433 104.787 100 104.5H81.5C74.1442 94.6923 60.8837 92.604 53 92.796V30C53 28.8954 53.8954 28 55 28H96Z" fill="#C2DDFF"/>
<path d="M104 38V22L122 38H104Z" fill="#C2DDFF"/>
<path fill-rule="evenodd" clip-rule="evenodd" d="M33 35C33 32.7909 34.7909 31 37 31H39C40.1046 31 41 31.8954 41 33C41 34.1046 40.1046 35 39 35L37 35V81C37 82.1046 36.1046 83 35 83C33.8954 83 33 82.1046 33 81V35Z" fill="#1C3553"/>
<path fill-rule="evenodd" clip-rule="evenodd" d="M57 37C57 35.8954 57.8954 35 59 35H75C76.1046 35 77 35.8954 77 37C77 38.1046 76.1046 39 75 39H59C57.8954 39 57 38.1046 57 37Z" fill="#1C3553"/>
<path fill-rule="evenodd" clip-rule="evenodd" d="M57 57C57 55.8954 57.8954 55 59 55H109C110.105 55 111 55.8954 111 57C111 58.1046 110.105 59 109 59H59C57.8954 59 57 58.1046 57 57Z" fill="#1C3553"/>
<path fill-rule="evenodd" clip-rule="evenodd" d="M57 81C57 79.8954 57.8954 79 59 79H85C86.1046 79 87 79.8954 87 81C87 82.1046 86.1046 83 85 83H59C57.8954 83 57 82.1046 57 81Z" fill="#1C3553"/>
<path fill-rule="evenodd" clip-rule="evenodd" d="M57 69C57 67.8954 57.8954 67 59 67H109C110.105 67 111 67.8954 111 69C111 70.1046 110.105 71 109 71H59C57.8954 71 57 70.1046 57 69Z" fill="#1C3553"/>
<path fill-rule="evenodd" clip-rule="evenodd" d="M20.4714 87.7103C20.8514 87.2599 21.4107 87 22 87H44C45.1046 87 46 87.8954 46 89V91.0072C53.2101 91.0613 59.6523 91.4348 65.2114 92.6598C71.3128 94.0042 76.4736 96.4001 80.456 100.629C81.3647 101.594 81.7569 101.836 81.9389 101.915C82.0758 101.974 82.1861 102 83 102H97.9999C98 102 98 102 98 104C98 106 98 106 97.9999 106H83C82.9646 106 82.9285 106 82.8918 106C82.216 106.001 81.3136 106.003 80.3488 105.585C79.3766 105.164 78.5188 104.406 77.544 103.371C74.2759 99.901 69.9367 97.7969 64.3507 96.5661C59.2073 95.4327 53.1129 95.0621 46 95.0074V120.6C46.702 120.848 47.656 121.186 48.8001 121.591C51.332 122.487 54.7952 123.712 58.5205 125.028C65.9734 127.661 74.4679 130.656 78.6562 132.111C82.2713 133.366 86.0528 132.851 89.4256 131.739C92.0989 130.858 94.3157 129.681 95.9261 128.826C96.3658 128.593 96.7604 128.383 97.1067 128.211C100.018 126.757 124.063 114.411 128.043 112.244C129.75 111.314 130.758 110.311 131.221 109.422C131.636 108.624 131.674 107.82 131.211 106.894C130.966 106.405 130.72 106.164 130.511 106.03C130.301 105.894 130 105.785 129.52 105.76C128.462 105.704 126.925 106.066 124.683 106.88C122.653 107.617 117.519 109.375 112.92 110.94C110.614 111.724 108.434 112.463 106.831 113.006C106.084 113.258 105.463 113.468 105.011 113.621C104.847 113.918 104.656 114.205 104.435 114.481C103.044 116.213 100.85 117 98 117H72C70.8954 117 70 116.105 70 115C70 113.895 70.8954 113 72 113H98C100.15 113 100.956 112.425 101.315 111.977C101.458 111.799 101.581 111.58 101.682 111.312C101.684 111.306 101.687 111.299 101.689 111.293C101.89 110.748 102 110.005 102 109C102 108.072 101.595 107.39 100.904 106.878C100.164 106.331 99.0981 106 97.9999 106L98 104L97.9999 102C99.8194 102 101.754 102.531 103.284 103.663C104.864 104.833 106 106.65 106 109C106 109.021 106 109.043 106 109.064C107.548 108.54 109.538 107.865 111.631 107.153C116.249 105.582 121.335 103.84 123.317 103.12C125.575 102.3 127.788 101.662 129.731 101.765C130.75 101.819 131.762 102.078 132.676 102.667C133.593 103.257 134.284 104.095 134.789 105.106C135.826 107.18 135.774 109.336 134.769 111.268C133.812 113.109 132.07 114.605 129.957 115.756C125.913 117.959 101.818 130.329 98.8933 131.789C98.6426 131.915 98.3238 132.084 97.9456 132.286C96.3577 133.131 93.7224 134.535 90.6776 135.538C86.877 136.791 82.1175 137.547 77.3439 135.889C73.1434 134.431 64.638 131.432 57.188 128.8C53.4619 127.483 49.9979 126.258 47.4656 125.362C46.9339 125.174 46.4434 125 46 124.843V128C46 130.209 44.2092 132 42 132H32.375C29.4509 132 26.9527 129.892 26.4606 127.01L20.0285 89.3366C19.9294 88.7557 20.0914 88.1607 20.4714 87.7103ZM42 91V128H32.375C31.4003 128 30.5675 127.297 30.4035 126.337L24.3704 91H34.0285L34.0286 122.013C34.0286 123.118 34.924 124.013 36.0286 124.013C37.1331 124.013 38.0286 123.118 38.0286 122.013L38.0285 91H42Z" fill="#1C3553"/>
<path fill-rule="evenodd" clip-rule="evenodd" d="M103 88C101.343 88 100 89.3431 100 91C100 92.6569 101.343 94 103 94C104.657 94 106 92.6569 106 91C106 89.3431 104.657 88 103 88ZM96 91C96 87.134 99.134 84 103 84C106.866 84 110 87.134 110 91C110 94.866 106.866 98 103 98C99.134 98 96 94.866 96 91Z" fill="#1C3553"/>
<path fill-rule="evenodd" clip-rule="evenodd" d="M44.9998 24C44.9998 21.7909 46.7906 20 48.9998 20H104C104.509 20 104.999 20.1944 105.37 20.5436L122.371 36.5436C122.773 36.9215 123 37.4485 123 38V97C123 98.1046 122.105 99 121 99C119.896 99 119 98.1046 119 97V40H106C103.791 40 102 38.2091 102 36V24L48.9998 24V81C48.9998 82.1046 48.1043 83 46.9998 83C45.8952 83 44.9998 82.1046 44.9998 81V24ZM106 26.6288L115.957 36H106V26.6288Z" fill="#1C3553"/>
</svg>
