<svg width="156" height="156" viewBox="0 0 156 156" fill="none" xmlns="http://www.w3.org/2000/svg">
<path d="M56 51C56 49.8954 56.8954 49 58 49H110C111.105 49 112 49.8954 112 51V84C112 85.1046 111.105 86 110 86H58C56.8954 86 56 85.1046 56 84V51Z" fill="#C2DDFF"/>
<path d="M105 43V27L123 43H105Z" fill="#C2DDFF"/>
<path fill-rule="evenodd" clip-rule="evenodd" d="M43.9998 29C43.9998 26.7909 45.7906 25 47.9998 25H105C105.509 25 105.999 25.1944 106.37 25.5436L123.371 41.5436C123.772 41.9215 124 42.4485 124 43V115C124 117.209 122.209 119 120 119H47.9998C45.7906 119 43.9998 117.209 43.9998 115V29ZM103 29H47.9998V115H120V45H107C104.791 45 103 43.2091 103 41V29ZM107 31.6288L116.957 41H107V31.6288Z" fill="#1C3553"/>
<path fill-rule="evenodd" clip-rule="evenodd" d="M32 40.5471C32 38.338 33.7909 36.5471 36 36.5471H38C39.1046 36.5471 40 37.4425 40 38.5471C40 39.6517 39.1046 40.5471 38 40.5471L36 40.5471V127H112V125C112 123.895 112.895 123 114 123C115.105 123 116 123.895 116 125V127C116 129.209 114.209 131 112 131H36C33.7909 131 32 129.209 32 127V40.5471Z" fill="#1C3553"/>
<path fill-rule="evenodd" clip-rule="evenodd" d="M55.9996 43C55.9996 41.8954 56.8951 41 57.9996 41H73.9996C75.1042 41 75.9996 41.8954 75.9996 43C75.9996 44.1046 75.1042 45 73.9996 45H57.9996C56.8951 45 55.9996 44.1046 55.9996 43Z" fill="#1C3553"/>
<path fill-rule="evenodd" clip-rule="evenodd" d="M55.9996 92C55.9996 90.8954 56.8951 90 57.9996 90H83.9996C85.1042 90 85.9996 90.8954 85.9996 92C85.9996 93.1046 85.1042 94 83.9996 94H57.9996C56.8951 94 55.9996 93.1046 55.9996 92Z" fill="#1C3553"/>
<path fill-rule="evenodd" clip-rule="evenodd" d="M55.9996 104C55.9996 102.895 56.8951 102 57.9996 102H110C111.104 102 112 102.895 112 104C112 105.105 111.104 106 110 106H57.9996C56.8951 106 55.9996 105.105 55.9996 104Z" fill="#1C3553"/>
<path fill-rule="evenodd" clip-rule="evenodd" d="M73.003 58C73.6824 58.001 74.3149 58.3469 74.6824 58.9185L82.4992 71.078L89.7721 65.4213C90.6148 64.7659 91.8237 64.8878 92.5185 65.6984L96.9643 70.8852L104.452 61.7335C105.152 60.8786 106.412 60.7526 107.266 61.4521C108.121 62.1515 108.247 63.4116 107.548 64.2665L98.5479 75.2665C98.1731 75.7245 97.6147 75.9931 97.0229 75.9999C96.4311 76.0066 95.8667 75.7509 95.4815 75.3016L90.7226 69.7495L83.2279 75.5787C82.7846 75.9235 82.2168 76.066 81.6632 75.9714C81.1096 75.8769 80.6213 75.5539 80.3176 75.0815L72.9945 63.69L63.6791 78.0865C63.0791 79.0139 61.8409 79.2792 60.9135 78.6791C59.9861 78.0791 59.7208 76.8409 60.3209 75.9135L71.3209 58.9135C71.69 58.343 72.3235 57.999 73.003 58Z" fill="#1C3553"/>
</svg>
