<svg width="156" height="156" viewBox="0 0 156 156" fill="none" xmlns="http://www.w3.org/2000/svg">
<path d="M27 50C27 48.8954 27.8954 48 29 48H63C64.1046 48 65 48.8954 65 50V66C65 67.1046 64.1046 68 63 68H29C27.8954 68 27 67.1046 27 66V50Z" fill="#C2DDFF"/>
<path d="M93 82C93 80.8954 93.8954 80 95 80H129C130.105 80 131 80.8954 131 82V98C131 99.1046 130.105 100 129 100H95C93.8954 100 93 99.1046 93 98V82Z" fill="#C2DDFF"/>
<path d="M100 48V31L118 48H100Z" fill="#C2DDFF"/>
<path fill-rule="evenodd" clip-rule="evenodd" d="M36 33C36 30.7909 37.7909 29 40 29H100C100.511 29 101.002 29.1953 101.373 29.546L119.373 46.546C119.773 46.9238 120 47.4497 120 48V66C120 67.1046 119.105 68 118 68C116.895 68 116 67.1046 116 66V50H102C99.7909 50 98 48.2091 98 46V33H40V34C40 35.1046 39.1046 36 38 36C36.8954 36 36 35.1046 36 34V33ZM102 35.6399L112.97 46H102V35.6399ZM38 80C39.1046 80 40 80.8954 40 82V123H116V114C116 112.895 116.895 112 118 112C119.105 112 120 112.895 120 114V123C120 125.209 118.209 127 116 127H40C37.7909 127 36 125.209 36 123V82C36 80.8954 36.8954 80 38 80Z" fill="#1C3553"/>
<path fill-rule="evenodd" clip-rule="evenodd" d="M78 66C78 64.8954 78.8954 64 80 64H106C107.105 64 108 64.8954 108 66C108 67.1046 107.105 68 106 68H80C78.8954 68 78 67.1046 78 66Z" fill="#1C3553"/>
<path fill-rule="evenodd" clip-rule="evenodd" d="M78 56C78 54.8954 78.8954 54 80 54H106C107.105 54 108 54.8954 108 56C108 57.1046 107.105 58 106 58H80C78.8954 58 78 57.1046 78 56Z" fill="#1C3553"/>
<path fill-rule="evenodd" clip-rule="evenodd" d="M48 104C48 102.895 48.8954 102 50 102H78C79.1046 102 80 102.895 80 104C80 105.105 79.1046 106 78 106H50C48.8954 106 48 105.105 48 104Z" fill="#1C3553"/>
<path fill-rule="evenodd" clip-rule="evenodd" d="M48 94C48 92.8954 48.8954 92 50 92H78C79.1046 92 80 92.8954 80 94C80 95.1046 79.1046 96 78 96H50C48.8954 96 48 95.1046 48 94Z" fill="#1C3553"/>
<path fill-rule="evenodd" clip-rule="evenodd" d="M48 114C48 112.895 48.8954 112 50 112H89C90.1046 112 91 112.895 91 114C91 115.105 90.1046 116 89 116H50C48.8954 116 48 115.105 48 114Z" fill="#1C3553"/>
<path fill-rule="evenodd" clip-rule="evenodd" d="M36 62C36 60.8954 36.8954 60 38 60H54C55.1046 60 56 60.8954 56 62C56 63.1046 55.1046 64 54 64H38C36.8954 64 36 63.1046 36 62Z" fill="#1C3553"/>
<path fill-rule="evenodd" clip-rule="evenodd" d="M31 54C31 52.8954 31.8954 52 33 52H59C60.1046 52 61 52.8954 61 54C61 55.1046 60.1046 56 59 56H33C31.8954 56 31 55.1046 31 54Z" fill="#1C3553"/>
<path fill-rule="evenodd" clip-rule="evenodd" d="M19 44C19 41.7909 20.7909 40 23 40H69C71.2091 40 73 41.7909 73 44V72C73 74.2091 71.2091 76 69 76H60V82C60 82.7965 59.5274 83.517 58.7969 83.8344C58.0665 84.1517 57.2173 84.0054 56.6351 83.4619L48.6429 76H23C20.7909 76 19 74.2091 19 72V44ZM69 44H23V72H48.6429C49.6563 72 50.6319 72.3846 51.3726 73.0762L56 77.3965V76C56 73.7909 57.7909 72 60 72H69V44Z" fill="#1C3553"/>
<path fill-rule="evenodd" clip-rule="evenodd" d="M139 76C139 73.7909 137.209 72 135 72H89C86.7909 72 85 73.7909 85 76V104C85 106.209 86.7909 108 89 108H98V114C98 114.796 98.4726 115.517 99.2031 115.834C99.9335 116.152 100.783 116.005 101.365 115.462L109.357 108H135C137.209 108 139 106.209 139 104V76ZM89 76H135V104H109.357C108.344 104 107.368 104.385 106.627 105.076L102 109.397V108C102 105.791 100.209 104 98 104H89V76Z" fill="#1C3553"/>
<path fill-rule="evenodd" clip-rule="evenodd" d="M102 94C102 92.8954 102.895 92 104 92H120C121.105 92 122 92.8954 122 94C122 95.1046 121.105 96 120 96H104C102.895 96 102 95.1046 102 94Z" fill="#1C3553"/>
<path fill-rule="evenodd" clip-rule="evenodd" d="M97 86C97 84.8954 97.8954 84 99 84H125C126.105 84 127 84.8954 127 86C127 87.1046 126.105 88 125 88H99C97.8954 88 97 87.1046 97 86Z" fill="#1C3553"/>
</svg>
