<svg width="156" height="156" viewBox="0 0 156 156" fill="none" xmlns="http://www.w3.org/2000/svg">
<path d="M131 77C131 75.8954 130.105 75 129 75H71C69.8954 75 69 75.8954 69 77V109C69 110.105 69.8954 111 71 111H129C130.105 111 131 110.105 131 109V77Z" fill="#C2DDFF"/>
<path fill-rule="evenodd" clip-rule="evenodd" d="M96 31C96 27.6863 93.3137 25 90 25H24C20.6863 25 18 27.6863 18 31V71C18 74.3137 20.6863 77 24 77H35.2667V87C35.2667 87.7989 35.7421 88.5211 36.4759 88.837C37.2097 89.1529 38.061 89.0018 38.6413 88.4527L50.7445 77H55C56.1046 77 57 76.1046 57 75C57 73.8954 56.1046 73 55 73H50.7445C49.7219 73 48.738 73.3917 47.9952 74.0946L39.2667 82.354V77C39.2667 74.7909 37.4758 73 35.2667 73H24C22.8954 73 22 72.1046 22 71V31C22 29.8954 22.8954 29 24 29H90C91.1046 29 92 29.8954 92 31V61C92 62.1046 92.8954 63 94 63C95.1046 63 96 62.1046 96 61V31Z" fill="#1C3553"/>
<path fill-rule="evenodd" clip-rule="evenodd" d="M57 42C53.9946 42 51 45.022 51 49.5C51 53.978 53.9946 57 57 57C60.0054 57 63 53.978 63 49.5C63 45.022 60.0054 42 57 42ZM47 49.5C47 43.4846 51.1689 38 57 38C62.8311 38 67 43.4846 67 49.5C67 55.5154 62.8311 61 57 61C51.1689 61 47 55.5154 47 49.5Z" fill="#1C3553"/>
<path fill-rule="evenodd" clip-rule="evenodd" d="M57.8906 52.336C58.8096 51.7233 60.0514 51.9716 60.6641 52.8907L64.6641 58.8907C65.2768 59.8097 65.0284 61.0515 64.1094 61.6642C63.1903 62.2769 61.9486 62.0285 61.3359 61.1095L57.3359 55.1095C56.7232 54.1904 56.9715 52.9487 57.8906 52.336Z" fill="#1C3553"/>
<path fill-rule="evenodd" clip-rule="evenodd" d="M61 73C61 69.6863 63.6863 67 67 67H133C136.314 67 139 69.6863 139 73V113C139 116.314 136.314 119 133 119H121.733V129C121.733 129.799 121.258 130.521 120.524 130.837C119.79 131.153 118.939 131.002 118.359 130.453L106.255 119H67C63.6863 119 61 116.314 61 113V73ZM67 71C65.8954 71 65 71.8954 65 73V113C65 114.105 65.8954 115 67 115H106.255C107.278 115 108.262 115.392 109.005 116.095L117.733 124.354V119C117.733 116.791 119.524 115 121.733 115H133C134.105 115 135 114.105 135 113V73C135 71.8954 134.105 71 133 71H67Z" fill="#1C3553"/>
<path fill-rule="evenodd" clip-rule="evenodd" d="M93 95C93 93.8954 93.8954 93 95 93H105C106.105 93 107 93.8954 107 95C107 96.1046 106.105 97 105 97H95C93.8954 97 93 96.1046 93 95Z" fill="#1C3553"/>
<path fill-rule="evenodd" clip-rule="evenodd" d="M100 81C100.773 81 101.477 81.4453 101.807 82.1438L110.807 101.144C111.28 102.142 110.854 103.335 109.856 103.807C108.858 104.28 107.665 103.854 107.193 102.856L100 87.672L92.8075 102.856C92.3346 103.854 91.142 104.28 90.1438 103.807C89.1456 103.335 88.7197 102.142 89.1925 101.144L98.1925 82.1438C98.5234 81.4453 99.2271 81 100 81Z" fill="#1C3553"/>
</svg>
57.2173 84.0054 56.6351 83.4619L48.6429 76H23C20.7909 76 19 74.2091 19 72V44ZM69 44H23V72H48.6429C49.6563 72 50.6319 72.3846 51.3726 73.0762L56 77.3965V76C56 73.7909 57.7909 72 60 72H69V44Z" fill="#1C3553"/>
<path fill-rule="evenodd" clip-rule="evenodd" d="M139 76C139 73.7909 137.209 72 135 72H89C86.7909 72 85 73.7909 85 76V104C85 106.209 86.7909 108 89 108H98V114C98 114.796 98.4726 115.517 99.2031 115.834C99.9335 116.152 100.783 116.005 101.365 115.462L109.357 108H135C137.209 108 139 106.209 139 104V76ZM89 76H135V104H109.357C108.344 104 107.368 104.385 106.627 105.076L102 109.397V108C102 105.791 100.209 104 98 104H89V76Z" fill="#1C3553"/>
<path fill-rule="evenodd" clip-rule="evenodd" d="M102 94C102 92.8954 102.895 92 104 92H120C121.105 92 122 92.8954 122 94C122 95.1046 121.105 96 120 96H104C102.895 96 102 95.1046 102 94Z" fill="#1C3553"/>
<path fill-rule="evenodd" clip-rule="evenodd" d="M97 86C97 84.8954 97.8954 84 99 84H125C126.105 84 127 84.8954 127 86C127 87.1046 126.105 88 125 88H99C97.8954 88 97 87.1046 97 86Z" fill="#1C3553"/>
</svg>
