<svg width="156" height="156" viewBox="0 0 156 156" fill="none" xmlns="http://www.w3.org/2000/svg">
<path fill-rule="evenodd" clip-rule="evenodd" d="M132 92C132 99.732 125.732 106 118 106C111.658 106 106.301 101.783 104.58 96H85V102H77V96H70V88H104.58C106.301 82.217 111.658 78 118 78C125.732 78 132 84.268 132 92ZM118 97C120.761 97 123 94.7614 123 92C123 89.2386 120.761 87 118 87C115.239 87 113 89.2386 113 92C113 94.7614 115.239 97 118 97Z" fill="#C2DDFF"/>
<path fill-rule="evenodd" clip-rule="evenodd" d="M103.164 86C105.537 80.1378 111.283 76 118 76C126.837 76 134 83.1634 134 92C134 100.837 126.837 108 118 108C111.283 108 105.537 103.862 103.164 98H87V102C87 103.105 86.1046 104 85 104H77C75.8954 104 75 103.105 75 102V98H70C68.8954 98 68 97.1046 68 96V88C68 86.8954 68.8954 86 70 86H103.164ZM118 80C112.567 80 107.972 83.6122 106.497 88.5705C106.244 89.4186 105.465 90 104.58 90H72V94H77C78.1046 94 79 94.8954 79 96V100H83V96C83 94.8954 83.8954 94 85 94H104.58C105.465 94 106.244 94.5814 106.497 95.4295C107.972 100.388 112.567 104 118 104C124.627 104 130 98.6274 130 92C130 85.3726 124.627 80 118 80ZM118 89C116.343 89 115 90.3431 115 92C115 93.6569 116.343 95 118 95C119.657 95 121 93.6569 121 92C121 90.3431 119.657 89 118 89ZM111 92C111 88.134 114.134 85 118 85C121.866 85 125 88.134 125 92C125 95.866 121.866 99 118 99C114.134 99 111 95.866 111 92Z" fill="#1C3553"/>
<path d="M100 48V31L118 48H100Z" fill="#C2DDFF"/>
<path fill-rule="evenodd" clip-rule="evenodd" d="M36 33C36 30.7909 37.7909 29 40 29H100C100.511 29 101.002 29.1953 101.373 29.546L119.373 46.546C119.773 46.9238 120 47.4497 120 48V70C120 71.1046 119.105 72 118 72C116.895 72 116 71.1046 116 70V50H102C99.7909 50 98 48.2091 98 46V33L40 33V55C40 56.1046 39.1046 57 38 57C36.8954 57 36 56.1046 36 55V33ZM102 35.6399L112.97 46H102V35.6399ZM38 61C39.1046 61 40 61.8954 40 63V123H116V114C116 112.895 116.895 112 118 112C119.105 112 120 112.895 120 114V123C120 125.209 118.209 127 116 127H40C37.7909 127 36 125.209 36 123V63C36 61.8954 36.8954 61 38 61Z" fill="#1C3553"/>
<path fill-rule="evenodd" clip-rule="evenodd" d="M49 112C49 110.895 49.8954 110 51 110H105C106.105 110 107 110.895 107 112C107 113.105 106.105 114 105 114H51C49.8954 114 49 113.105 49 112Z" fill="#1C3553"/>
<path fill-rule="evenodd" clip-rule="evenodd" d="M49 100C49 98.8954 49.8954 98 51 98H61C62.1046 98 63 98.8954 63 100C63 101.105 62.1046 102 61 102H51C49.8954 102 49 101.105 49 100Z" fill="#1C3553"/>
<path fill-rule="evenodd" clip-rule="evenodd" d="M49 64C49 62.8954 49.8954 62 51 62H105C106.105 62 107 62.8954 107 64C107 65.1046 106.105 66 105 66H51C49.8954 66 49 65.1046 49 64Z" fill="#1C3553"/>
<path fill-rule="evenodd" clip-rule="evenodd" d="M49 45C49 43.8954 49.8954 43 51 43H67C68.1046 43 69 43.8954 69 45C69 46.1046 68.1046 47 67 47H51C49.8954 47 49 46.1046 49 45Z" fill="#1C3553"/>
<path fill-rule="evenodd" clip-rule="evenodd" d="M49 76C49 74.8954 49.8954 74 51 74H97C98.1046 74 99 74.8954 99 76C99 77.1046 98.1046 78 97 78H51C49.8954 78 49 77.1046 49 76Z" fill="#1C3553"/>
<path fill-rule="evenodd" clip-rule="evenodd" d="M49 88C49 86.8954 49.8954 86 51 86H61C62.1046 86 63 86.8954 63 88C63 89.1046 62.1046 90 61 90H51C49.8954 90 49 89.1046 49 88Z" fill="#1C3553"/>
<path fill-rule="evenodd" clip-rule="evenodd" d="M118 89C116.343 89 115 90.3431 115 92C115 93.6569 116.343 95 118 95C119.657 95 121 93.6569 121 92C121 90.3431 119.657 89 118 89ZM111 92C111 88.134 114.134 85 118 85C121.866 85 125 88.134 125 92C125 95.866 121.866 99 118 99C114.134 99 111 95.866 111 92Z" fill="#1C3553"/>
</svg>
