<svg width="156" height="156" viewBox="0 0 156 156" fill="none" xmlns="http://www.w3.org/2000/svg">
<path d="M27 51C27 49.8954 27.8954 49 29 49H127C128.105 49 129 49.8954 129 51V109C129 110.105 128.105 111 127 111H29C27.8954 111 27 110.105 27 109V51Z" fill="#C2DDFF"/>
<path fill-rule="evenodd" clip-rule="evenodd" d="M19.5858 41.5858C19.9609 41.2107 20.4696 41 21 41L135 41.0001C136.105 41.0001 137 41.8955 137 43.0001V117.223C137 117.754 136.789 118.263 136.413 118.638C136.037 119.014 135.527 119.224 134.996 119.223L20.9961 119C19.893 118.998 19 118.103 19 117V86C19 84.8954 19.8954 84 21 84C22.1046 84 23 84.8954 23 86V113.098L63.1856 84.1923L23 47.5318V77.9822C23 79.0867 22.1046 79.9822 21 79.9822C19.8954 79.9822 19 79.0867 19 77.9822V43C19 42.4696 19.2107 41.9609 19.5858 41.5858ZM26.1598 45L129.84 45L82.0438 88.6037C79.753 90.6936 76.2471 90.6936 73.9562 88.6037L26.1598 45ZM133 47.5318L92.7818 84.2221L133 113.308V47.5318ZM128.805 115.211L89.7635 86.9756L84.7396 91.5588C80.9216 95.0419 75.0784 95.0419 71.2604 91.5588L66.2056 86.9474L27.1887 115.012L128.805 115.211Z" fill="#1C3553"/>
</svg>
