<svg width="156" height="156" viewBox="0 0 156 156" fill="none" xmlns="http://www.w3.org/2000/svg">
<path d="M30 61H22C21.4477 61 21 61.4477 21 62V70C21 70.5523 21.4477 71 22 71H30C30.5523 71 31 71.4477 31 72V80C31 80.5523 31.4477 81 32 81H40C40.5523 81 41 80.5523 41 80V72C41 71.4477 41.4477 71 42 71H50C50.5523 71 51 70.5523 51 70V62C51 61.4477 50.5523 61 50 61H42C41.4477 61 41 60.5523 41 60V52C41 51.4477 40.5523 51 40 51H32C31.4477 51 31 51.4477 31 52V60C31 60.5523 30.5523 61 30 61Z" fill="#C2DDFF"/>
<path d="M21 95H51V105H21V95Z" fill="#C2DDFF"/>
<path fill-rule="evenodd" clip-rule="evenodd" d="M107.85 38.3471C118.445 36.7049 129.118 39.6699 135.926 43.2274C136.586 43.5722 137 44.2553 137 45V62C137 62.7347 136.597 63.4103 135.951 63.7595C135.304 64.1088 134.518 64.0755 133.904 63.6728C123.696 56.9838 116.535 57.1696 111.795 59.4665C107.941 61.3342 105.315 64.7702 103.855 68H127C127.66 68 128.278 68.3258 128.651 68.8707C129.024 69.4157 129.103 70.1095 128.864 70.7248L121.864 88.7248C121.565 89.4936 120.825 90 120 90H105.552C109.679 95.9451 114.674 97.8358 119.354 97.8367C124.934 97.8378 130.385 95.1418 133.748 92.4407C134.347 91.9589 135.171 91.8639 135.865 92.1966C136.559 92.5292 137 93.2305 137 94V112C137 112.773 136.555 113.477 135.856 113.808C118.261 122.139 104.64 119.732 94.9015 113.075C85.9267 106.94 80.4787 97.3574 78.1248 90H63C62.3398 90 61.7221 89.6741 61.3493 89.1292C60.9765 88.5842 60.8967 87.8904 61.136 87.2751L68.136 69.2751C68.435 68.5063 69.1752 68 70 68H87C88.1046 68 89 68.8954 89 70C89 71.1045 88.1046 72 87 72H71.3681L65.9237 86H87C88.1046 86 89 86.8954 89 88C89 89.1045 88.1046 90 87 90H82.3478C84.6867 96.5252 89.5637 104.581 97.1587 109.772C105.421 115.42 117.151 117.857 133 110.721V97.8067C129.281 100.023 124.443 101.838 119.354 101.837C112.404 101.835 105.301 98.4391 100.235 88.9412C99.9047 88.3213 99.9236 87.5734 100.285 86.971C100.646 86.3686 101.297 86 102 86H118.632L124.076 72H101C100.375 72 99.7853 71.7074 99.4071 71.2094C99.029 70.7113 98.9055 70.065 99.0735 69.4627C100.339 64.9255 103.826 58.8835 110.051 55.8669C115.82 53.0712 123.466 53.0913 133 58.4423V46.2344C126.744 43.2255 117.493 40.9001 108.462 42.2999C99.0481 43.7592 89.7301 49.2741 84.1297 62.7667C83.7063 63.7868 82.536 64.2706 81.5158 63.8471C80.4956 63.4237 80.0119 62.2534 80.4353 61.2332C86.5896 46.4063 97.1061 40.0124 107.85 38.3471Z" fill="#1C3553"/>
<path fill-rule="evenodd" clip-rule="evenodd" d="M29.0915 51C29.0915 49.8954 29.9869 49 31.0915 49H41.183C42.2876 49 43.183 49.8954 43.183 51V59.0915H51.2746C52.3791 59.0915 53.2746 59.9869 53.2746 61.0915V71.183C53.2746 72.2876 52.3791 73.183 51.2746 73.183H43.183V81.2746C43.183 82.3791 42.2876 83.2746 41.183 83.2746H31.0915C29.9869 83.2746 29.0915 82.3791 29.0915 81.2746V73.183H21C19.8954 73.183 19 72.2876 19 71.183V61.0915C19 59.9869 19.8954 59.0915 21 59.0915H29.0915V51ZM33.0915 53V61.0915C33.0915 62.1961 32.1961 63.0915 31.0915 63.0915H23V69.183H31.0915C32.1961 69.183 33.0915 70.0785 33.0915 71.183V79.2746H39.183V71.183C39.183 70.0785 40.0785 69.183 41.183 69.183H49.2746V63.0915H41.183C40.0785 63.0915 39.183 62.1961 39.183 61.0915V53H33.0915Z" fill="#1C3553"/>
<path fill-rule="evenodd" clip-rule="evenodd" d="M19 95.1504C19 94.0458 19.8954 93.1504 21 93.1504H51.2746C52.3791 93.1504 53.2746 94.0458 53.2746 95.1504V105.242C53.2746 106.346 52.3791 107.242 51.2746 107.242H21C19.8954 107.242 19 106.346 19 105.242V95.1504ZM23 97.1504V103.242H49.2746V97.1504H23Z" fill="#1C3553"/>
</svg>
