<svg width="156" height="156" viewBox="0 0 156 156" fill="none" xmlns="http://www.w3.org/2000/svg">
<path d="M26 52C26 50.8954 26.8954 50 28 50H70C71.1046 50 72 50.8954 72 52V88C72 89.1046 71.1046 90 70 90H28C26.8954 90 26 89.1046 26 88V52Z" fill="#C2DDFF"/>
<path d="M84 62C84 60.8954 84.8954 60 86 60H128C129.105 60 130 60.8954 130 62V112C130 113.105 129.105 114 128 114H86C84.8954 114 84 113.105 84 112V62Z" fill="#C2DDFF"/>
<path fill-rule="evenodd" clip-rule="evenodd" d="M47.7506 56.4383C48.481 55.8539 49.519 55.8539 50.2494 56.4383L60.2494 64.4383C60.7238 64.8178 61 65.3924 61 66V80C61 81.1046 60.1046 82 59 82H39C37.8954 82 37 81.1046 37 80V66C37 65.3924 37.2762 64.8178 37.7506 64.4383L47.7506 56.4383ZM41 66.9613V78H57V66.9612L49 60.5612L41 66.9613Z" fill="#1C3553"/>
<path fill-rule="evenodd" clip-rule="evenodd" d="M22 35V55C22 56.1046 21.1046 57 20 57C18.8954 57 18 56.1046 18 55V35C18 32.7928 19.7875 31 21.9985 31L70 31C72.4532 31 74.7812 31.9045 76.3944 32.7111C77.2217 33.1248 77.9098 33.5376 78.394 33.8489C78.6369 34.005 78.8306 34.137 78.9672 34.2326C79.0356 34.2805 79.0898 34.3193 79.1289 34.3477L79.1761 34.3822L79.191 34.3933L79.1963 34.3972L79.1992 34.3994C79.1996 34.3997 79.2 34.4 78 36L79.1992 34.3994C79.7028 34.7771 80 35.3705 80 36V123C80 123.758 79.572 124.45 78.8944 124.789C78.2176 125.127 77.4079 125.055 76.802 124.602C76.8017 124.601 76.8014 124.601 76.801 124.601L76.8 124.6L76.7793 124.585C76.7579 124.569 76.7222 124.544 76.6734 124.51C76.5756 124.441 76.4256 124.339 76.231 124.214C75.8402 123.962 75.2783 123.625 74.6056 123.289C73.2188 122.595 71.5468 122 70 122L21.9985 122C19.7875 122 18 120.207 18 118V63C18 61.8954 18.8954 61 20 61C21.1046 61 22 61.8954 22 63V118L70 118C72.2598 118 74.4135 118.768 76 119.519V37.0678C75.6312 36.8392 75.1554 36.5637 74.6056 36.2889C73.2188 35.5955 71.5468 35 70 35L22 35ZM21.9995 118.001L22.0001 118.003C22.0002 118.003 21.9996 118.003 21.9995 118.001C22.001 118.002 22.0007 118.002 21.9995 118.001Z" fill="#1C3553"/>
<path fill-rule="evenodd" clip-rule="evenodd" d="M80 36.9397V119.519C81.5865 118.768 83.7402 118 86 118L134 118V35L86 35C83.909 35 82.237 35.6262 81.0827 36.2558C80.6378 36.4985 80.2745 36.7393 80 36.9397ZM134 118.001C134.001 118.001 134.001 118.001 134.001 118.001C134.002 118 134.003 118 134.003 118C134.005 118 134.004 118 134.001 118H134.001C134.001 117.999 134.001 118 134 118.001M79.2 124.6C78.594 125.055 77.7831 125.128 77.1056 124.789C76.428 124.45 76 123.758 76 123V36C76 35.4696 76.2107 34.9609 76.5858 34.5858L78 36C76.5858 34.5858 76.5864 34.5852 76.587 34.5846L76.5882 34.5834L76.591 34.5806L76.5973 34.5744L76.6134 34.5586C76.6257 34.5466 76.641 34.5318 76.6594 34.5144C76.6962 34.4796 76.7451 34.4342 76.806 34.3798C76.9277 34.271 77.0978 34.1257 77.3143 33.9562C77.7464 33.6181 78.3691 33.1796 79.1673 32.7442C80.763 31.8738 83.091 31 86 31L134.001 31C136.213 31 138 32.7928 138 35V118C138 120.207 136.213 122 134.001 122L86 122C84.4532 122 82.7812 122.595 81.3944 123.289C80.7217 123.625 80.1598 123.962 79.769 124.214C79.5744 124.339 79.4244 124.441 79.3266 124.51C79.2778 124.544 79.2422 124.569 79.2207 124.585L79.2 124.6Z" fill="#1C3553"/>
<path fill-rule="evenodd" clip-rule="evenodd" d="M26 44C26 42.8954 26.8954 42 28 42H64C65.1046 42 66 42.8954 66 44C66 45.1046 65.1046 46 64 46H28C26.8954 46 26 45.1046 26 44Z" fill="#1C3553"/>
<path fill-rule="evenodd" clip-rule="evenodd" d="M26 97C26 95.8954 26.8954 95 28 95L70 95C71.1046 95 72 95.8954 72 97C72 98.1046 71.1046 99 70 99L28 99C26.8954 99 26 98.1046 26 97Z" fill="#1C3553"/>
<path fill-rule="evenodd" clip-rule="evenodd" d="M26 105C26 103.895 26.8954 103 28 103H50C51.1046 103 52 103.895 52 105C52 106.105 51.1046 107 50 107H28C26.8954 107 26 106.105 26 105Z" fill="#1C3553"/>
<path fill-rule="evenodd" clip-rule="evenodd" d="M84 44C84 42.8954 84.8954 42 86 42L121 42C122.105 42 123 42.8954 123 44C123 45.1046 122.105 46 121 46L86 46C84.8954 46 84 45.1046 84 44Z" fill="#1C3553"/>
<path fill-rule="evenodd" clip-rule="evenodd" d="M84 52C84 50.8954 84.8954 50 86 50L105 50C106.105 50 107 50.8954 107 52C107 53.1046 106.105 54 105 54L86 54C84.8954 54 84 53.1046 84 52Z" fill="#1C3553"/>
<path fill-rule="evenodd" clip-rule="evenodd" d="M107 79C108.105 79 109 79.8954 109 81V93C109 94.1046 108.105 95 107 95C105.895 95 105 94.1046 105 93V89H90C88.8954 89 88 88.1046 88 87C88 85.8954 88.8954 85 90 85H105V81C105 79.8954 105.895 79 107 79Z" fill="#1C3553"/>
<path fill-rule="evenodd" clip-rule="evenodd" d="M88 68C88 65.7909 89.7909 64 92 64H122C124.209 64 126 65.7909 126 68V85C126 86.1046 125.105 87 124 87C122.895 87 122 86.1046 122 85V68H109V73C109 74.1046 108.105 75 107 75C105.895 75 105 74.1046 105 73V68L92 68V94C92 95.1046 91.1046 96 90 96C88.8954 96 88 95.1046 88 94V68ZM124 90C125.105 90 126 90.8954 126 92V106C126 108.209 124.209 110 122 110H116.5C115.395 110 114.5 109.105 114.5 108C114.5 106.568 114.171 105.66 113.773 105.063C113.373 104.463 112.803 104.027 112.073 103.707C111.135 103.297 110.054 103.124 109 103.052V108C109 109.105 108.105 110 107 110H92C89.7909 110 88 108.209 88 106V102C88 100.895 88.8954 100 90 100C91.1046 100 92 100.895 92 102V106H105V101C105 99.8954 105.895 99 107 99C107.033 99 107.066 99 107.101 99C108.564 98.9994 111.289 98.9983 113.677 100.043C114.947 100.598 116.189 101.475 117.102 102.844C117.703 103.746 118.118 104.797 118.332 106H122V92C122 90.8954 122.895 90 124 90Z" fill="#1C3553"/>
</svg>
