<svg width="156" height="156" viewBox="0 0 156 156" fill="none" xmlns="http://www.w3.org/2000/svg">
<path d="M83 37C83 35.8954 83.8954 35 85 35H115C116.105 35 117 35.8954 117 37V71C117 72.1046 116.105 73 115 73H85C83.8954 73 83 72.1046 83 71V37Z" fill="#C2DDFF"/>
<path d="M64 37C64 41.9706 59.9706 46 55 46C50.0294 46 46 41.9706 46 37C46 32.0294 50.0294 28 55 28C59.9706 28 64 32.0294 64 37Z" fill="#C2DDFF"/>
<path d="M44 62C44 60.8954 44.8954 60 46 60H63C64.1046 60 65 60.8954 65 62V85C65 86.1046 64.1046 87 63 87H46C44.8954 87 44 86.1046 44 85V62Z" fill="#C2DDFF"/>
<path d="M81 128V140C81 141.105 81.8954 142 83 142H133C135.209 142 137 140.209 137 138V92C137 90.8954 136.105 90 135 90H127C125.895 90 125 90.8954 125 92V106C125 107.105 124.105 108 123 108H105C103.895 108 103 108.895 103 110V124C103 125.105 102.105 126 101 126H83C81.8954 126 81 126.895 81 128Z" fill="#C2DDFF"/>
<path fill-rule="evenodd" clip-rule="evenodd" d="M81 37C81 34.7909 82.7909 33 85 33H115C117.209 33 119 34.7909 119 37V71C119 73.2091 117.209 75 115 75H85C82.7909 75 81 73.2091 81 71V37ZM115 37L85 37V71H115V37Z" fill="#1C3553"/>
<path fill-rule="evenodd" clip-rule="evenodd" d="M29 22C27.8954 22 27 22.8954 27 24V132C27 133.105 27.8954 134 29 134H41C42.1046 134 43 134.895 43 136C43 137.105 42.1046 138 41 138H29C25.6863 138 23 135.314 23 132V24C23 20.6863 25.6863 18 29 18H127C130.314 18 133 20.6863 133 24V76C133 77.1046 132.105 78 131 78C129.895 78 129 77.1046 129 76V24C129 22.8954 128.105 22 127 22H29ZM47 136C47 134.895 47.8954 134 49 134H67.0345C68.139 134 69.0345 134.895 69.0345 136C69.0345 137.105 68.139 138 67.0345 138H49C47.8954 138 47 137.105 47 136Z" fill="#1C3553"/>
<path fill-rule="evenodd" clip-rule="evenodd" d="M99.5 42C100.061 42 100.596 42.2353 100.974 42.6486L106.474 48.6486C107.221 49.4628 107.166 50.7279 106.351 51.4743C105.537 52.2207 104.272 52.1657 103.526 51.3514L99.5 46.9598L95.4743 51.3514C94.7279 52.1657 93.4628 52.2207 92.6486 51.4743C91.8343 50.7279 91.7793 49.4628 92.5257 48.6486L98.0257 42.6486C98.4045 42.2353 98.9394 42 99.5 42Z" fill="#1C3553"/>
<path fill-rule="evenodd" clip-rule="evenodd" d="M99.5 66C98.9394 66 98.4045 65.7647 98.0257 65.3514L92.5257 59.3514C91.7793 58.5372 91.8343 57.2721 92.6485 56.5257C93.4628 55.7793 94.7279 55.8343 95.4743 56.6485L99.5 61.0402L103.526 56.6485C104.272 55.8343 105.537 55.7793 106.351 56.5257C107.166 57.2721 107.221 58.5372 106.474 59.3514L100.974 65.3514C100.595 65.7647 100.061 66 99.5 66Z" fill="#1C3553"/>
<path fill-rule="evenodd" clip-rule="evenodd" d="M55 30C51.134 30 48 33.134 48 37C48 40.866 51.134 44 55 44C58.866 44 62 40.866 62 37C62 33.134 58.866 30 55 30ZM44 37C44 30.9249 48.9249 26 55 26C61.0751 26 66 30.9249 66 37C66 43.0751 61.0751 48 55 48C48.9249 48 44 43.0751 44 37Z" fill="#1C3553"/>
<path fill-rule="evenodd" clip-rule="evenodd" d="M42 56C40.8954 56 40 56.8954 40 58V89C40 90.1046 40.8954 91 42 91H43C44.1046 91 45 91.8954 45 93V125H49V93C49 91.8954 49.8954 91 51 91H59C60.1046 91 61 91.8954 61 93V125H65V93C65 91.8954 65.8954 91 67 91H68C69.1046 91 70 90.1046 70 89V58C70 56.8954 69.1046 56 68 56H42ZM36 58C36 54.6863 38.6863 52 42 52H68C71.3137 52 74 54.6863 74 58V89C74 91.973 71.8377 94.441 69 94.917V125C69 127.209 67.2091 129 65 129H61C58.7909 129 57 127.209 57 125V95H53V125C53 127.209 51.2091 129 49 129H45C42.7909 129 41 127.209 41 125V94.917C38.1623 94.441 36 91.973 36 89V58Z" fill="#1C3553"/>
<path fill-rule="evenodd" clip-rule="evenodd" d="M73 120C73 118.895 73.8954 118 75 118H97C98.1046 118 99 118.895 99 120C99 121.105 98.1046 122 97 122H77V140C77 141.105 76.1046 142 75 142C73.8954 142 73 141.105 73 140V120Z" fill="#1C3553"/>
<path fill-rule="evenodd" clip-rule="evenodd" d="M95 102C95 100.895 95.8954 100 97 100H119C120.105 100 121 100.895 121 102C121 103.105 120.105 104 119 104H99V120C99 121.105 98.1046 122 97 122C95.8954 122 95 121.105 95 120V102Z" fill="#1C3553"/>
<path fill-rule="evenodd" clip-rule="evenodd" d="M117 84C117 82.8954 117.895 82 119 82H135C136.105 82 137 82.8954 137 84C137 85.1046 136.105 86 135 86H121V102C121 103.105 120.105 104 119 104C117.895 104 117 103.105 117 102V84Z" fill="#1C3553"/>
</svg>
