<svg width="156" height="156" viewBox="0 0 156 156" fill="none" xmlns="http://www.w3.org/2000/svg">
<path d="M82.9197 41.4292L67.3391 32.0409C66.5292 31.5528 66.7827 30.3081 67.7187 30.1735C77.3236 28.792 91.9368 26.5225 100.087 30.6187C100.752 30.9527 100.725 31.8626 100.079 32.2311L83.9312 41.4413C83.6167 41.6207 83.2298 41.616 82.9197 41.4292Z" fill="#C2DDFF"/>
<path d="M117.213 68.2829L131.356 79.3844C132.012 79.8995 132.966 79.4295 132.934 78.5959C132.463 66.3771 127.883 56.7148 123.89 48.9232C123.477 48.1169 122.291 48.2366 122.042 49.1077L116.869 67.2217C116.758 67.6125 116.894 68.0319 117.213 68.2829Z" fill="#C2DDFF"/>
<path d="M50.9984 68.3124L37.3481 79.744C36.6972 80.2891 35.7133 79.8227 35.7419 78.9743C36.1495 66.8808 39.971 58.6268 43.8369 51.0684C44.2363 50.2875 45.3759 50.3671 45.6669 51.1945L51.2997 67.214C51.4379 67.6072 51.3179 68.0448 50.9984 68.3124Z" fill="#C2DDFF"/>
<path fill-rule="evenodd" clip-rule="evenodd" d="M84.7318 57.8527C84.3647 57.5774 83.8573 57.5873 83.5012 57.8766L65.1155 72.815C64.7836 73.0847 64.6599 73.5356 64.8077 73.9368L72.8711 95.8232C73.016 96.2163 73.3905 96.4775 73.8095 96.4775H94.3927C94.8176 96.4775 95.1961 96.2089 95.3365 95.8079L103.412 72.7353C103.556 72.3238 103.417 71.8665 103.068 71.6049L84.7318 57.8527Z" fill="#C2DDFF"/>
<path d="M102.151 105.77L94.7936 122.39C94.4325 123.205 95.2409 124.04 96.0629 123.694C110.052 117.803 117.349 110.31 123.656 104.229C124.359 103.55 123.782 102.344 122.814 102.476L102.931 105.184C102.587 105.231 102.292 105.453 102.151 105.77Z" fill="#C2DDFF"/>
<path d="M66.7694 105.531L74.2295 122.382C74.575 123.162 73.8464 123.984 73.0346 123.72C55.3943 117.994 50.8845 110.254 45.1946 104.063C44.5331 103.343 45.1386 102.105 46.1072 102.237L65.99 104.945C66.3339 104.992 66.6289 105.214 66.7694 105.531Z" fill="#C2DDFF"/>
<path fill-rule="evenodd" clip-rule="evenodd" d="M82.788 54.4091C83.504 53.8636 84.4962 53.8636 85.2122 54.4091L106.212 70.4091C106.914 70.944 107.183 71.8759 106.873 72.7022L97.8728 96.7022C97.5801 97.4829 96.8338 98 96.0001 98H72.0001C71.1664 98 70.4202 97.4829 70.1275 96.7022L61.1275 72.7022C60.8176 71.8759 61.086 70.944 61.788 70.4091L82.788 54.4091ZM65.3948 72.6898L73.3861 94H94.6141L102.605 72.6898L84.0001 58.5144L65.3948 72.6898Z" fill="#1C3553"/>
<path fill-rule="evenodd" clip-rule="evenodd" d="M84 41C85.1046 41 86 41.8954 86 43V56C86 57.1046 85.1046 58 84 58C82.8954 58 82 57.1046 82 56V43C82 41.8954 82.8954 41 84 41Z" fill="#1C3553"/>
<path fill-rule="evenodd" clip-rule="evenodd" d="M50.1797 66.1724C50.6367 65.1669 51.8224 64.7222 52.828 65.1793L63.828 70.179C64.8336 70.6361 65.2782 71.8218 64.8212 72.8274C64.3641 73.8329 63.1784 74.2776 62.1728 73.8205L51.1728 68.8207C50.1673 68.3637 49.7226 67.178 50.1797 66.1724Z" fill="#1C3553"/>
<path fill-rule="evenodd" clip-rule="evenodd" d="M73.0293 93.285C73.9765 93.8533 74.2836 95.0818 73.7153 96.029L67.7153 106.029C67.147 106.976 65.9185 107.283 64.9713 106.715C64.0242 106.147 63.7171 104.918 64.2853 103.971L70.2853 93.971C70.8536 93.0239 72.0822 92.7167 73.0293 93.285Z" fill="#1C3553"/>
<path fill-rule="evenodd" clip-rule="evenodd" d="M120.21 46.8449C104.419 26.9422 75.4835 23.6122 55.5838 39.4013C35.684 55.1905 32.3487 84.1252 48.1402 104.028C63.9292 123.928 92.8671 127.261 112.767 111.472C118.522 106.905 122.889 101.243 125.809 95.0194C126.279 94.0194 127.47 93.5893 128.47 94.0585C129.47 94.5278 129.9 95.7188 129.43 96.7188C126.253 103.489 121.503 109.646 115.253 114.605C93.6227 131.767 62.1689 128.144 45.0067 106.514C27.8419 84.8807 31.4674 53.43 53.0975 36.2678C74.7277 19.1057 106.179 22.7253 123.344 44.3587C133.511 57.1728 136.382 73.4358 132.54 88.1247C132.261 89.1933 131.168 89.8331 130.099 89.5536C129.031 89.2741 128.391 88.1812 128.67 87.1126C132.207 73.588 129.562 58.6317 120.21 46.8449Z" fill="#1C3553"/>
<path fill-rule="evenodd" clip-rule="evenodd" d="M63.2695 30.9979C63.8229 30.042 65.0465 29.7157 66.0024 30.2691L84.0003 40.689L101.998 30.2691C102.954 29.7157 104.178 30.042 104.731 30.9979C105.285 31.9539 104.958 33.1774 104.002 33.7309L85.0024 44.7309C84.3825 45.0897 83.6181 45.0897 82.9983 44.7309L63.9983 33.7309C63.0423 33.1774 62.716 31.9539 63.2695 30.9979Z" fill="#1C3553"/>
<path fill-rule="evenodd" clip-rule="evenodd" d="M45.4254 45.084C46.4834 44.7666 47.5984 45.3669 47.9158 46.4249L53.9159 66.425C54.1345 67.1535 53.9209 67.9429 53.3649 68.4619L38.365 82.4618C37.5575 83.2155 36.2919 83.1718 35.5382 82.3643C34.7846 81.5568 34.8282 80.2913 35.6357 79.5376L49.7278 66.385L44.0845 47.5743C43.7671 46.5164 44.3674 45.4014 45.4254 45.084Z" fill="#1C3553"/>
<path fill-rule="evenodd" clip-rule="evenodd" d="M117.821 66.1724C117.364 65.1669 116.178 64.7222 115.173 65.1793L104.173 70.179C103.167 70.6361 102.722 71.8218 103.179 72.8273C103.637 73.8329 104.822 74.2776 105.828 73.8205L116.828 68.8207C117.833 68.3637 118.278 67.178 117.821 66.1724Z" fill="#1C3553"/>
<path fill-rule="evenodd" clip-rule="evenodd" d="M122.575 45.0843C121.517 44.7669 120.402 45.3673 120.085 46.4253L114.085 66.4253C113.866 67.1538 114.08 67.9432 114.636 68.4621L129.636 82.4623C130.443 83.2159 131.709 83.1723 132.462 82.3648C133.216 81.5573 133.172 80.2917 132.365 79.5381L118.273 66.3852L123.916 47.5747C124.233 46.5167 123.633 45.4017 122.575 45.0843Z" fill="#1C3553"/>
<path fill-rule="evenodd" clip-rule="evenodd" d="M42.0327 100.642C42.2303 99.5553 43.2715 98.8345 44.3582 99.0321L66.3583 103.032C66.9307 103.136 67.4294 103.485 67.7243 103.986L77.7243 120.986C78.2843 121.938 77.9665 123.164 77.0144 123.724C76.0624 124.284 74.8366 123.966 74.2765 123.014L64.7412 106.804L43.6426 102.968C42.5559 102.77 41.8351 101.729 42.0327 100.642Z" fill="#1C3553"/>
<path fill-rule="evenodd" clip-rule="evenodd" d="M94.7724 94.4213C93.9005 95.0995 93.7434 96.356 94.4215 97.2279L101.421 106.228C102.1 107.1 103.356 107.257 104.228 106.579C105.1 105.901 105.257 104.644 104.579 103.772L97.5789 94.7721C96.9008 93.9003 95.6443 93.7432 94.7724 94.4213Z" fill="#1C3553"/>
<path fill-rule="evenodd" clip-rule="evenodd" d="M126.95 99.5568C126.706 98.4797 125.634 97.805 124.557 98.0498L102.557 103.05C102.019 103.172 101.556 103.511 101.276 103.986L91.2762 120.986C90.7162 121.938 91.034 123.164 91.986 123.724C92.9381 124.284 94.1639 123.966 94.7239 123.014L104.286 106.759L125.443 101.95C126.52 101.705 127.195 100.634 126.95 99.5568Z" fill="#1C3553"/>
<path fill-rule="evenodd" clip-rule="evenodd" d="M27.6388 98.8527C28.2723 99.7576 28.0522 101.005 27.1473 101.638L17.1473 108.638C16.2424 109.272 14.9953 109.052 14.3619 108.147C13.7284 107.242 13.9485 105.995 14.8534 105.362L24.8534 98.3612C25.7583 97.7278 27.0054 97.9478 27.6388 98.8527Z" fill="#1C3553"/>
<path fill-rule="evenodd" clip-rule="evenodd" d="M30.6277 110.838C31.2697 111.736 31.0615 112.986 30.1627 113.628L16.1627 123.627C15.2639 124.269 14.0148 124.061 13.3728 123.162C12.7307 122.264 12.9389 121.015 13.8378 120.373L27.8378 110.373C28.7366 109.731 29.9857 109.939 30.6277 110.838Z" fill="#1C3553"/>
<path fill-rule="evenodd" clip-rule="evenodd" d="M39.6386 118.853C40.2721 119.758 40.052 121.005 39.1471 121.638L29.1473 128.638C28.2424 129.272 26.9953 129.052 26.3619 128.147C25.7284 127.242 25.9485 125.995 26.8533 125.362L36.8532 118.361C37.7581 117.728 39.0052 117.948 39.6386 118.853Z" fill="#1C3553"/>
</svg>
