<svg width="156" height="156" viewBox="0 0 156 156" fill="none" xmlns="http://www.w3.org/2000/svg">
<path d="M53 111V121C53 122.105 53.8954 123 55 123H109C110.105 123 111 122.105 111 121V79C111 77.8954 110.105 77 109 77H96.7193C95.6147 77 94.7193 77.8954 94.7193 79V91C94.7193 92.1046 93.8239 93 92.7193 93H75.3509C74.2463 93 73.3509 93.8954 73.3509 95V107C73.3509 108.105 72.4555 109 71.3509 109H55C53.8954 109 53 109.895 53 111Z" fill="#C2DDFF"/>
<path fill-rule="evenodd" clip-rule="evenodd" d="M73.7089 16.5756C76.0506 14.1414 79.9392 14.1191 82.3088 16.5263L139.075 74.1939C141.565 76.7227 139.773 81 136.225 81H121V99C121 100.105 120.104 101 119 101C117.895 101 117 100.105 117 99V80C117 78.3431 118.343 77 120 77H136.225L79.4582 19.3323C78.6683 18.5299 77.3721 18.5374 76.5915 19.3488L56.1619 40.5853C54.2895 42.5316 50.9999 41.2062 50.9999 38.5054V34H38.9999V56.5857C38.9999 57.3814 38.6838 58.1445 38.1212 58.7071L19.8283 77H35.9999C37.6568 77 38.9999 78.3431 38.9999 80V125C38.9999 126.105 39.8953 127 40.9999 127H115C116.104 127 117 126.105 117 125V107C117 105.895 117.895 105 119 105C120.104 105 121 105.895 121 107V125C121 128.314 118.314 131 115 131H40.9999C37.6862 131 34.9999 128.314 34.9999 125V81H19.8283C16.2647 81 14.48 76.6914 16.9999 74.1715L34.9999 56.1715V33C34.9999 31.3431 36.343 30 37.9999 30H51.9999C53.6568 30 54.9999 31.3431 54.9999 33V36.0235L73.7089 16.5756Z" fill="#1C3553"/>
<path fill-rule="evenodd" clip-rule="evenodd" d="M45 103C45 101.895 45.8954 101 47 101H67C68.1046 101 69 101.895 69 103C69 104.105 68.1046 105 67 105H49V121C49 122.105 48.1046 123 47 123C45.8954 123 45 122.105 45 121V103Z" fill="#1C3553"/>
<path fill-rule="evenodd" clip-rule="evenodd" d="M65 87C65 85.8954 65.8954 85 67 85H88C89.1046 85 90 85.8954 90 87C90 88.1046 89.1046 89 88 89H69V103C69 104.105 68.1046 105 67 105C65.8954 105 65 104.105 65 103V87Z" fill="#1C3553"/>
<path fill-rule="evenodd" clip-rule="evenodd" d="M86 71C86 69.8954 86.8954 69 88 69H109C110.105 69 111 69.8954 111 71C111 72.1046 110.105 73 109 73H90V87C90 88.1046 89.1046 89 88 89C86.8954 89 86 88.1046 86 87V71Z" fill="#1C3553"/>
</svg>
