<svg width="156" height="156" viewBox="0 0 156 156" fill="none" xmlns="http://www.w3.org/2000/svg">
<path d="M30 62C30 60.8954 30.8954 60 32 60H48C49.1046 60 50 60.8954 50 62V88C50 89.1046 49.1046 90 48 90H32C30.8954 90 30 89.1046 30 88V62Z" fill="#C2DDFF"/>
<path d="M125 60H109C107.895 60 107 60.8954 107 62V99C107 100.105 107.895 101 109 101H119C120.105 101 121 100.105 121 99V94C121 91.7909 122.791 90 125 90C126.105 90 127 89.1046 127 88V62C127 60.8954 126.105 60 125 60Z" fill="#C2DDFF"/>
<path d="M127 36C127 41.5228 122.523 46 117 46C111.477 46 107 41.5228 107 36C107 30.4772 111.477 26 117 26C122.523 26 127 30.4772 127 36Z" fill="#C2DDFF"/>
<path d="M50 36C50 41.5228 45.5228 46 40 46C34.4772 46 30 41.5228 30 36C30 30.4772 34.4772 26 40 26C45.5228 26 50 30.4772 50 36Z" fill="#C2DDFF"/>
<path d="M87 82C87 86.4183 83.4183 90 79 90C74.5817 90 71 86.4183 71 82C71 77.5817 74.5817 74 79 74C83.4183 74 87 77.5817 87 82Z" fill="#C2DDFF"/>
<path d="M78.9998 110C81.6968 110 83.9782 108.586 84.7339 105.976C85.0411 104.915 84.1044 104 82.9998 104H74.9998C73.8952 104 72.9585 104.915 73.2656 105.976C74.0214 108.586 76.3028 110 78.9998 110Z" fill="#C2DDFF"/>
<path fill-rule="evenodd" clip-rule="evenodd" d="M117 28C112.582 28 109 31.5817 109 36C109 40.4183 112.582 44 117 44C121.418 44 125 40.4183 125 36C125 31.5817 121.418 28 117 28ZM105 36C105 29.3726 110.373 24 117 24C123.627 24 129 29.3726 129 36C129 42.6274 123.627 48 117 48C110.373 48 105 42.6274 105 36Z" fill="#1C3553"/>
<path fill-rule="evenodd" clip-rule="evenodd" d="M40 28C35.5817 28 32 31.5817 32 36C32 40.4183 35.5817 44 40 44C44.4183 44 48 40.4183 48 36C48 31.5817 44.4183 28 40 28ZM28 36C28 29.3726 33.3726 24 40 24C46.6274 24 52 29.3726 52 36C52 42.6274 46.6274 48 40 48C33.3726 48 28 42.6274 28 36Z" fill="#1C3553"/>
<path fill-rule="evenodd" clip-rule="evenodd" d="M28 56C26.8954 56 26 56.8954 26 58V92C26 93.1046 26.8954 94 28 94H30C31.1046 94 32 94.8954 32 96V131H36V96C36 94.8954 36.8954 94 38 94H46C47.1046 94 48 94.8954 48 96V131H52V93C52 91.8954 52.8954 91 54 91C55.1046 91 56 91.8954 56 93V131C56 133.209 54.2091 135 52 135H48C45.7909 135 44 133.209 44 131V98H40V131C40 133.209 38.2091 135 36 135H32C29.7909 135 28 133.209 28 131V98C24.6863 98 22 95.3137 22 92V58C22 54.6863 24.6863 52 28 52H52C55.3129 52 58 54.6843 58 57.9988V65C58 65.2779 57.9952 65.6029 57.9897 65.971C57.9543 68.3701 57.8917 72.6019 58.9558 77.5821C59.5345 80.29 61.3998 84.9828 64.7587 88.9595C68.0855 92.8982 72.749 96 79 96C85.2305 96 89.6281 92.9192 92.6967 89.0143C95.8018 85.0627 97.4492 80.3665 98.0442 77.5821C99.112 72.5847 99.0456 68.8123 99.01 66.791C99.0047 66.4872 99 66.2229 99 66V58C99 54.6863 101.686 52 105 52H129C132.314 52 135 54.6863 135 58V92C135 95.3137 132.314 98 129 98V107C129 108.105 128.105 109 127 109H123V133C123 134.105 122.105 135 121 135C119.895 135 119 134.105 119 133V109H110V133C110 134.105 109.105 135 108 135C106.895 135 106 134.105 106 133V109H102C100.895 109 100 108.105 100 107V93C100 91.8954 100.895 91 102 91C103.105 91 104 91.8954 104 93V105H125V96C125 94.8954 125.895 94 127 94H129C130.105 94 131 93.1046 131 92V58C131 56.8954 130.105 56 129 56H105C103.895 56 103 56.8954 103 58V66C103 66.1938 103.004 66.4345 103.01 66.7194C103.047 68.7301 103.126 72.9421 101.956 78.4179C101.269 81.6335 99.4161 86.9373 95.8418 91.4857C92.2309 96.0808 86.7695 100 79 100C71.251 100 65.5555 96.1018 61.7029 91.5405C57.8823 87.0172 55.7476 81.71 55.0442 78.4179C53.8772 72.9569 53.952 68.2614 53.9898 65.8852C53.9953 65.5394 54 65.2428 54 65V57.9988C54 56.895 53.1054 56 52 56H28Z" fill="#1C3553"/>
<path fill-rule="evenodd" clip-rule="evenodd" d="M79 76C75.6863 76 73 78.6863 73 82C73 85.3137 75.6863 88 79 88C82.3137 88 85 85.3137 85 82C85 78.6863 82.3137 76 79 76ZM69 82C69 76.4772 73.4772 72 79 72C84.5228 72 89 76.4772 89 82C89 87.5228 84.5228 92 79 92C73.4772 92 69 87.5228 69 82Z" fill="#1C3553"/>
<path fill-rule="evenodd" clip-rule="evenodd" d="M69 104C70.1046 104 71 104.895 71 106C71 108.616 72.2535 110.939 74.2012 112.402C75.538 113.406 77.1967 114 79 114C80.8033 114 82.462 113.406 83.7988 112.402C85.7465 110.939 87 108.616 87 106C87 104.895 87.8954 104 89 104C90.1046 104 91 104.895 91 106C91 109.555 89.4522 112.749 87 114.944V133C87 134.105 86.1046 135 85 135C83.8954 135 83 134.105 83 133V117.317C81.7482 117.759 80.4015 118 79 118C77.5985 118 76.2518 117.759 75 117.317V133C75 134.105 74.1046 135 73 135C71.8954 135 71 134.105 71 133V114.944C68.5478 112.749 67 109.555 67 106C67 104.895 67.8954 104 69 104Z" fill="#1C3553"/>
</svg>
