<svg width="156" height="156" viewBox="0 0 156 156" fill="none" xmlns="http://www.w3.org/2000/svg">
<path fill-rule="evenodd" clip-rule="evenodd" d="M59.0507 77C59.284 79.372 60.2037 81.7724 61.9136 83.7705C69.7139 92.8855 78 100.542 78 100.542C78 100.542 86.286 92.8855 94.0863 83.7705C95.7962 81.7724 96.716 79.372 96.9492 77H111C112.105 77 113 77.8954 113 79V121C113 122.105 112.105 123 111 123H45C43.8954 123 43 122.105 43 121V79C43 77.8954 43.8954 77 45 77H59.0507Z" fill="#C2DDFF"/>
<path fill-rule="evenodd" clip-rule="evenodd" d="M73.709 16.5757C76.0507 14.1415 79.9394 14.1192 82.3089 16.5263L139.075 74.1939C141.565 76.7227 139.773 81 136.225 81H121V99C121 100.105 120.105 101 119 101C117.895 101 117 100.105 117 99V80C117 78.3431 118.343 77 120 77H136.225L79.4583 19.3324C78.6684 18.53 77.3722 18.5374 76.5916 19.3488L56.162 40.5853C54.2896 42.5317 51 41.2063 51 38.5054V34H39V56.5858C39 57.3814 38.684 58.1445 38.1213 58.7071L19.8285 77H36C37.6569 77 39 78.3431 39 80V125C39 126.105 39.8955 127 41 127H115C116.105 127 117 126.105 117 125V107C117 105.895 117.895 105 119 105C120.105 105 121 105.895 121 107V125C121 128.314 118.314 131 115 131H41C37.6863 131 35 128.314 35 125V81H19.8285C16.2648 81 14.4802 76.6914 17 74.1716L35 56.1716V33C35 31.3431 36.3432 30 38 30H52C53.6569 30 55 31.3431 55 33V36.0235L73.709 16.5757Z" fill="#1C3553"/>
<path fill-rule="evenodd" clip-rule="evenodd" d="M62.8977 70.2804C60.4091 73.2667 60.1355 78.9075 63.4811 82.6713C67.4352 87.1197 71.3953 91.0802 74.3701 93.931C75.8563 95.3553 77.0937 96.4999 77.9579 97.2869C77.9674 97.2956 77.9768 97.3042 77.9862 97.3127C77.9956 97.3042 78.0051 97.2956 78.0145 97.2869C78.8787 96.4999 80.1162 95.3553 81.6024 93.931C84.5772 91.0801 88.5373 87.1196 92.4914 82.6712C95.8369 78.9075 95.5633 73.2667 93.0748 70.2804C91.9034 68.8748 90.2549 68.0609 88.1372 68.2715C85.9352 68.4904 82.9654 69.8492 79.4004 73.4142C79.0254 73.7893 78.5166 74 77.9862 74C77.4558 74 76.9471 73.7893 76.572 73.4142C73.007 69.8492 70.0373 68.4904 67.8352 68.2714C65.7175 68.0608 64.069 68.8748 62.8977 70.2804ZM77.9862 100L76.6692 101.505C77.4232 102.165 78.5492 102.165 79.3032 101.505L77.9862 100ZM77.9862 100C79.3032 101.505 79.3031 101.505 79.3032 101.505L79.304 101.504L79.3298 101.482L79.4019 101.418C79.4647 101.363 79.557 101.281 79.6766 101.174C79.9159 100.961 80.2649 100.648 80.7079 100.244C81.5937 99.4375 82.8562 98.2696 84.37 96.8189C87.3952 93.9198 91.4351 89.8803 95.481 85.3287C100.135 80.0925 99.9091 72.2334 96.1476 67.7197C94.194 65.3753 91.28 63.9392 87.7414 64.2911C84.7031 64.5932 81.4125 66.1896 77.9862 69.2476C74.5599 66.1896 71.2693 64.5932 68.231 64.2911C64.6924 63.9392 61.7784 65.3752 59.8248 67.7196C56.0634 72.2333 55.837 80.0925 60.4915 85.3287C64.5374 89.8804 68.5772 93.9198 71.6024 96.819C73.1162 98.2697 74.3787 99.4375 75.2646 100.244C75.7075 100.648 76.0565 100.961 76.2958 101.174C76.4154 101.281 76.5077 101.363 76.5706 101.418L76.6426 101.482L76.6669 101.503L76.6684 101.504L76.6692 101.505C76.6694 101.505 76.6692 101.505 77.9862 100Z" fill="#1C3553"/>
</svg>
