<svg width="156" height="156" viewBox="0 0 156 156" fill="none" xmlns="http://www.w3.org/2000/svg">
<g clip-path="url(#clip0)">
<path fill-rule="evenodd" clip-rule="evenodd" d="M76.0275 89.547L79.2057 92.7252L84.7601 91.0597L87.9384 94.2379L85.9152 99.4348L91.9185 105.438L105.977 91.3795L99.9738 85.3762L94.1519 88.0116L90.9737 84.8334L93.2643 78.6666L91.5977 77H111C112.105 77 113 77.8954 113 79V121C113 122.105 112.105 123 111 123H46C45.0714 123 44.2905 122.367 44.0654 121.509L76.0275 89.547ZM44 105.33L67.9054 81.4249L64.374 77.8936L64.7111 77H46C44.8954 77 44 77.8954 44 79V105.33Z" fill="#C2DDFF"/>
<path fill-rule="evenodd" clip-rule="evenodd" d="M73.709 16.5756C76.0507 14.1414 79.9393 14.1191 82.3089 16.5263L139.075 74.1939C141.565 76.7227 139.773 81 136.225 81H121V99C121 100.105 120.105 101 119 101C117.895 101 117 100.105 117 99V80C117 78.3431 118.343 77 120 77H136.225L79.4582 19.3323C78.6684 18.5299 77.3722 18.5374 76.5916 19.3488L56.162 40.5853C54.2896 42.5316 51 41.2062 51 38.5054V34H39V56.5857C39 57.3814 38.6839 58.1445 38.1213 58.7071L19.8284 77H36C37.6568 77 39 78.3431 39 80V102C39 103.105 38.1046 104 37 104C35.8954 104 35 103.105 35 102V81H19.8284C16.2648 81 14.4801 76.6914 17 74.1715L35 56.1715V33C35 31.3431 36.3431 30 38 30H52C53.6568 30 55 31.3431 55 33V36.0235L73.709 16.5756ZM119 105C120.105 105 121 105.895 121 107V125C121 128.314 118.314 131 115 131H49C47.8954 131 47 130.105 47 129C47 127.895 47.8954 127 49 127H115C116.105 127 117 126.105 117 125V107C117 105.895 117.895 105 119 105Z" fill="#1C3553"/>
<path fill-rule="evenodd" clip-rule="evenodd" d="M63.5059 50.9109C69.1119 52.8794 73.9182 56.4921 76.6686 59.2425L94.6785 77.2524C95.2315 77.8054 95.4114 78.6299 95.1391 79.363L93.2954 84.3267L94.5877 85.6189L99.1491 83.5542C99.9075 83.2108 100.799 83.3733 101.388 83.962L107.391 89.9653C108.172 90.7463 108.172 92.0126 107.391 92.7937L93.3328 106.852C92.5517 107.633 91.2854 107.633 90.5043 106.852L84.501 100.849C83.9401 100.288 83.7637 99.4485 84.0515 98.7092L85.601 94.729L84.1905 93.3185L79.7801 94.641C79.0754 94.8522 78.3117 94.6596 77.7915 94.1394L76.0275 92.3754L31.317 137.086C29.7549 138.648 27.2222 138.648 25.6601 137.086L20.3664 131.792C18.8043 130.23 18.8043 127.698 20.3664 126.135L65.0769 81.4249L62.9598 79.3078C62.4042 78.7522 62.2254 77.9227 62.5028 77.1876L65.9691 68C59.7783 59.9824 50.0763 56.8846 45.9661 56.365C45.1424 56.2609 44.4687 55.6587 44.2732 54.8519C44.0776 54.045 44.4008 53.2013 45.0854 52.7316C51.18 48.5501 57.8658 48.9303 63.5059 50.9109ZM74.9697 85.6608C74.1887 84.8798 72.9224 84.8798 72.1413 85.6608C71.3603 86.4419 71.3603 87.7082 72.1413 88.4893L73.199 89.547L28.4885 134.258L23.1949 128.964L69.3196 82.8391C70.1006 82.0581 70.1006 80.7917 69.3196 80.0107L66.7009 77.392L70.0964 68.392C70.3313 67.7692 70.241 67.0703 69.8555 66.5277C64.936 59.6035 57.8217 55.7409 52.3111 53.8396C55.5857 53.0961 58.9613 53.5545 62.1806 54.685C67.0987 56.412 71.4113 59.6421 73.8402 62.071L90.9426 79.1733L89.0988 84.137C88.8265 84.87 89.0065 85.6946 89.5595 86.2476L92.7377 89.4258C93.3264 90.0145 94.2182 90.1769 94.9766 89.8336L99.538 87.7688L103.149 91.3795L91.9185 102.61L88.2526 98.9437L89.8021 94.9635C90.0899 94.2242 89.9135 93.3847 89.3526 92.8237L86.1744 89.6455C85.6542 89.1253 84.8904 88.9327 84.1857 89.144L79.7753 90.4664L74.9697 85.6608Z" fill="#1C3553"/>
</g>
<defs>
<clipPath id="clip0">
<rect width="156" height="156" fill="white"/>
</clipPath>
</defs>
</svg>
