<svg width="156" height="156" viewBox="0 0 156 156" fill="none" xmlns="http://www.w3.org/2000/svg">
<path d="M70.3999 58.3999C70.3999 57.2953 71.2953 56.3999 72.3999 56.3999H119.6C120.704 56.3999 121.6 57.2953 121.6 58.3999V105.6C121.6 106.704 120.704 107.6 119.6 107.6H72.3999C71.2953 107.6 70.3999 106.704 70.3999 105.6V58.3999Z" fill="#C2DDFF"/>
<path fill-rule="evenodd" clip-rule="evenodd" d="M62 56C62 51.5817 65.5817 48 70 48H122C126.418 48 130 51.5817 130 56V108C130 112.418 126.418 116 122 116H70C65.5817 116 62 112.418 62 108V90C62 88.8954 62.8954 88 64 88C65.1046 88 66 88.8954 66 90V108C66 110.209 67.7909 112 70 112H122C124.209 112 126 110.209 126 108V56C126 53.7909 124.209 52 122 52H70C67.7909 52 66 53.7909 66 56V82C66 83.1046 65.1046 84 64 84C62.8954 84 62 83.1046 62 82V56Z" fill="#1C3553"/>
<path fill-rule="evenodd" clip-rule="evenodd" d="M81.3768 66.6148C80.4829 67.8852 79.8667 69.7456 79.8667 71.8948C79.8667 74.0439 80.4829 75.9044 81.3768 77.1747C82.2747 78.4507 83.3264 78.9895 84.2667 78.9895C85.207 78.9895 86.2587 78.4507 87.1566 77.1747C88.0505 75.9044 88.6667 74.0439 88.6667 71.8948C88.6667 69.7456 88.0505 67.8852 87.1566 66.6148C86.2587 65.3389 85.207 64.8 84.2667 64.8C83.3264 64.8 82.2747 65.3389 81.3768 66.6148ZM78.1056 64.3128C79.524 62.2972 81.6724 60.8 84.2667 60.8C86.861 60.8 89.0094 62.2972 90.4278 64.3128C91.8502 66.3342 92.6667 69.0211 92.6667 71.8948C92.6667 74.7685 91.8502 77.4554 90.4278 79.4767C89.0094 81.4924 86.861 82.9895 84.2667 82.9895C81.6724 82.9895 79.524 81.4924 78.1056 79.4767C76.6832 77.4554 75.8667 74.7685 75.8667 71.8948C75.8667 69.0211 76.6832 66.3342 78.1056 64.3128Z" fill="#1C3553"/>
<path fill-rule="evenodd" clip-rule="evenodd" d="M104.843 86.8253C103.949 88.0956 103.333 89.9561 103.333 92.1052C103.333 94.2544 103.949 96.1149 104.843 97.3852C105.741 98.6612 106.793 99.2 107.733 99.2C108.674 99.2 109.725 98.6612 110.623 97.3852C111.517 96.1149 112.133 94.2544 112.133 92.1052C112.133 89.9561 111.517 88.0956 110.623 86.8253C109.725 85.5493 108.674 85.0105 107.733 85.0105C106.793 85.0105 105.741 85.5493 104.843 86.8253ZM101.572 84.5233C102.991 82.5076 105.139 81.0105 107.733 81.0105C110.328 81.0105 112.476 82.5076 113.894 84.5233C115.317 86.5446 116.133 89.2315 116.133 92.1052C116.133 94.979 115.317 97.6659 113.894 99.6872C112.476 101.703 110.328 103.2 107.733 103.2C105.139 103.2 102.991 101.703 101.572 99.6872C100.15 97.6659 99.3333 94.979 99.3333 92.1052C99.3333 89.2315 100.15 86.5446 101.572 84.5233Z" fill="#1C3553"/>
<path fill-rule="evenodd" clip-rule="evenodd" d="M108.776 61.0934C109.745 61.6246 110.063 62.8192 109.487 63.7617L86.0203 102.162C85.4443 103.104 84.1923 103.438 83.2239 102.907C82.2554 102.375 81.9372 101.181 82.5132 100.238L105.98 61.8382C106.556 60.8956 107.808 60.5622 108.776 61.0934Z" fill="#1C3553"/>
<path fill-rule="evenodd" clip-rule="evenodd" d="M51.9885 22.449C50.5187 19.5093 53.0247 16.1498 56.2613 16.721L67.9202 18.7785C69.6233 19.079 70.9403 20.4399 71.1849 22.1519L71.7608 26.1832L77.2057 26.7882C79.4226 27.0346 81.0097 29.0466 80.7331 31.2599L80.4613 33.4339L92.9213 26.8374C94.3125 26.1009 96.0062 26.2488 97.2487 27.2151L105.228 33.4212C105.258 33.4449 105.288 33.4694 105.317 33.4948L113.317 40.4948C114.148 41.2221 114.233 42.4857 113.505 43.3169C112.778 44.1482 111.514 44.2324 110.683 43.5051L102.727 36.5431L94.7929 30.3725L82.3329 36.969C79.472 38.4836 76.0907 36.1498 76.4922 32.9377L76.764 30.7638L71.3191 30.1588C69.506 29.9573 68.059 28.5548 67.801 26.7489L67.2251 22.7176L55.5662 20.6601L58.0424 25.6125C58.9069 27.3416 58.4112 29.4415 56.8647 30.6014L55.7136 31.4647L57.8529 34.6737C58.8191 36.1231 58.7363 38.0311 57.6482 39.3913L55.6537 41.8844C54.4029 43.4478 52.189 43.8457 50.4722 42.8156L47.634 41.1127L40.5471 42.5301L42.7071 49.7299C42.9766 50.6283 42.9218 51.5929 42.5523 52.455L39.9495 58.5282L39.1086 65.2557C38.9524 66.505 38.2172 67.6079 37.124 68.2325L32.2018 71.0452L32.9456 75.5078C32.9818 75.7252 33 75.9451 33 76.1654V80.1715C33 81.2323 32.5786 82.2498 31.8284 82.9999L30.3249 84.5035L32.7453 90.9581C32.9137 91.4072 33 91.8829 33 92.3626V97.3333L35.2 100.267C35.7193 100.959 36 101.801 36 102.667V106.276L39.9957 111.071L48.7484 111.744C51.7967 111.978 53.4657 115.407 51.7698 117.951L46.1028 126.451L47.5106 134.898L55.3095 130.644C56.2474 130.132 57.351 130.017 58.3743 130.324L67.363 133.021L80.7453 133.977L88.815 131.287C89.5367 131.046 90.3121 131.016 91.0501 131.201L95.7271 132.37L95.1361 126.461C94.9821 124.92 95.7308 123.429 97.0583 122.633L100.971 120.285C101.918 119.717 103.147 120.024 103.715 120.971C104.283 121.918 103.976 123.147 103.029 123.715L99.1162 126.063L99.7072 131.972C99.9827 134.727 97.4431 136.922 94.7569 136.251L90.0799 135.081L82.0102 137.771C81.5114 137.938 80.9848 138.004 80.4603 137.966L67.078 137.011C66.7849 136.99 66.495 136.936 66.2136 136.852L57.2249 134.155L49.426 138.409C47.0107 139.727 44.0173 138.269 43.565 135.555L42.1572 127.109C41.9902 126.106 42.2109 125.078 42.7746 124.232L48.4416 115.732L39.6889 115.059C38.6119 114.976 37.6143 114.461 36.9228 113.631L32.9271 108.837C32.3281 108.118 32 107.212 32 106.276V102.667L29.8 99.7332C29.2807 99.0409 29 98.1987 29 97.3333V92.3626L26.5795 85.908C26.0288 84.4393 26.3873 82.7842 27.4964 81.6751L29 80.1715V76.1654L28.2562 71.7028C27.981 70.0512 28.7635 68.403 30.2173 67.5723L35.1395 64.7596L35.9804 58.0321C36.0269 57.6603 36.1254 57.2969 36.273 56.9525L38.8758 50.8793L36.7158 43.6795C36.0384 41.4214 37.4509 39.0701 39.7627 38.6078L46.8496 37.1904C47.8253 36.9952 48.8388 37.1708 49.692 37.6827L52.5302 39.3856L54.5247 36.8925L52.3854 33.6835C51.2078 31.9171 51.6152 29.5385 53.3136 28.2647L54.4647 27.4014L51.9885 22.449Z" fill="#1C3553"/>
</svg>
