<svg width="156" height="156" viewBox="0 0 156 156" fill="none" xmlns="http://www.w3.org/2000/svg">
<path d="M112.428 114.913L132.227 134.712C133.789 136.274 136.321 136.274 137.883 134.712L139.298 133.298C140.86 131.736 140.86 129.203 139.298 127.641L119.499 107.842C118.718 107.061 117.451 107.061 116.67 107.842L112.428 112.085C111.647 112.866 111.647 114.132 112.428 114.913Z" fill="#C2DDFF"/>
<path fill-rule="evenodd" clip-rule="evenodd" d="M83 102C96.2548 102 107 91.2548 107 78C107 64.7452 96.2548 54 83 54C69.7452 54 59 64.7452 59 78C59 91.2548 69.7452 102 83 102ZM73 88V72.8696L83 64L93 72.8696V88H73Z" fill="#C2DDFF"/>
<path fill-rule="evenodd" clip-rule="evenodd" d="M47.9885 22.449C46.5186 19.5093 49.0247 16.1498 52.2613 16.721L63.9202 18.7785C65.6232 19.079 66.9403 20.4399 67.1849 22.1519L67.7608 26.1832L73.2057 26.7882C75.4226 27.0346 77.0097 29.0466 76.733 31.2599L76.4613 33.4339L88.9213 26.8374C90.3124 26.1009 92.0061 26.2488 93.2486 27.2151L101.228 33.4212L101.249 33.4382L106.249 37.4382C106.307 37.4843 106.362 37.5335 106.414 37.5857L109.943 41.1143C110.555 41.7263 110.952 42.5203 111.074 43.377L111.98 49.7171C112.136 50.8105 111.376 51.8236 110.283 51.9798C109.189 52.136 108.176 51.3762 108.02 50.2828L107.114 43.9427L103.664 40.4924L98.7614 36.5703L90.7929 30.3725L78.3328 36.969C75.472 38.4836 72.0907 36.1498 72.4922 32.9377L72.7639 30.7638L67.319 30.1588C65.506 29.9573 64.0589 28.5548 63.801 26.7489L63.2251 22.7176L51.5662 20.6601L54.0424 25.6125C54.9069 27.3416 54.4112 29.4415 52.8647 30.6014L51.7136 31.4647L53.8529 34.6737C54.8191 36.1231 54.7363 38.0311 53.6481 39.3913L51.6536 41.8844C50.4029 43.4478 48.189 43.8457 46.4722 42.8156L43.634 41.1127L36.5471 42.5301L38.707 49.7299C38.9766 50.6283 38.9218 51.5929 38.5523 52.455L35.9495 58.5282L35.1086 65.2557C34.9524 66.505 34.2172 67.6079 33.124 68.2325L28.2018 71.0452L28.9456 75.5078C28.9818 75.7252 29 75.9451 29 76.1654V80.1715C29 81.2323 28.5786 82.2498 27.8284 82.9999L26.3248 84.5035L28.7453 90.9581C28.9137 91.4072 29 91.8829 29 92.3626V97.3333L31.2 100.267C31.7193 100.959 32 101.801 32 102.667V106.276L35.9956 111.071L44.7484 111.744C47.7966 111.978 49.4657 115.407 47.7698 117.951L42.1028 126.451L43.5105 134.898L51.3094 130.644C52.2473 130.132 53.3509 130.017 54.3742 130.324L63.363 133.021L76.7453 133.977L84.815 131.287C85.5367 131.046 86.312 131.016 87.0501 131.201L91.727 132.37L91.1252 126.352C90.9826 124.926 91.614 123.532 92.7804 122.699L98 118.971V115C98 113.895 98.8954 113 100 113C101.105 113 102 113.895 102 115V118.971C102 120.262 101.376 121.475 100.325 122.226L95.1053 125.954L95.7072 131.972C95.9827 134.727 93.4431 136.922 90.7569 136.251L86.0799 135.081L78.0102 137.771C77.5114 137.938 76.9847 138.004 76.4603 137.966L63.078 137.011C62.7849 136.99 62.495 136.936 62.2136 136.852L53.2248 134.155L45.426 138.409C43.0107 139.727 40.0173 138.269 39.565 135.555L38.1572 127.109C37.9901 126.106 38.2109 125.078 38.7746 124.232L44.4416 115.732L35.6888 115.059C34.6119 114.976 33.6142 114.461 32.9227 113.631L28.9271 108.837C28.328 108.118 28 107.212 28 106.276V102.667L25.8 99.7332C25.2807 99.0409 25 98.1987 25 97.3333V92.3626L22.5795 85.908C22.0287 84.4393 22.3872 82.7842 23.4964 81.6751L25 80.1715V76.1654L24.2562 71.7028C23.9809 70.0512 24.7635 68.403 26.2172 67.5723L31.1395 64.7596L31.9804 58.0321C32.0269 57.6603 32.1253 57.2969 32.2729 56.9525L34.8757 50.8793L32.7158 43.6795C32.0384 41.4214 33.4509 39.0701 35.7626 38.6078L42.8495 37.1904C43.8253 36.9952 44.8387 37.1708 45.692 37.6827L48.5301 39.3856L50.5247 36.8925L48.3854 33.6835C47.2078 31.9171 47.6152 29.5385 49.3136 28.2647L50.4647 27.4014L47.9885 22.449Z" fill="#1C3553"/>
<path fill-rule="evenodd" clip-rule="evenodd" d="M104.367 109.702C103.592 108.927 103.601 107.661 104.389 106.874L111.46 99.8025C112.247 99.0154 113.513 99.0056 114.288 99.7806C115.063 100.556 115.053 101.822 114.266 102.609L107.195 109.68C106.408 110.467 105.142 110.477 104.367 109.702Z" fill="#1C3553"/>
<path fill-rule="evenodd" clip-rule="evenodd" d="M83 50C67.536 50 55 62.536 55 78C55 93.464 67.536 106 83 106C98.464 106 111 93.464 111 78C111 62.536 98.464 50 83 50ZM51 78C51 60.3269 65.3269 46 83 46C100.673 46 115 60.3269 115 78C115 95.6731 100.673 110 83 110C65.3269 110 51 95.6731 51 78Z" fill="#1C3553"/>
<path fill-rule="evenodd" clip-rule="evenodd" d="M111.013 116.327C109.451 114.765 109.451 112.233 111.013 110.671L115.256 106.428C116.818 104.866 119.351 104.866 120.913 106.428L140.712 126.227C143.055 128.57 143.055 132.369 140.712 134.712L139.298 136.126C136.955 138.47 133.156 138.47 130.812 136.126L111.013 116.327ZM118.084 109.256L113.842 113.499L133.641 133.298C134.422 134.079 135.688 134.079 136.469 133.298L137.883 131.884C138.665 131.103 138.665 129.836 137.883 129.055L118.084 109.256Z" fill="#1C3553"/>
<path fill-rule="evenodd" clip-rule="evenodd" d="M81.6729 62.5037C82.4302 61.8321 83.5698 61.8321 84.3271 62.5037L94.3271 71.3733C94.7551 71.7529 95 72.2975 95 72.8696V88C95 89.1046 94.1046 90 93 90H73C71.8954 90 71 89.1046 71 88V72.8696C71 72.2975 71.2449 71.7529 71.6729 71.3733L81.6729 62.5037ZM75 73.769V86H91V73.769L83 66.6733L75 73.769Z" fill="#1C3553"/>
</svg>
