<svg width="156" height="156" viewBox="0 0 156 156" fill="none" xmlns="http://www.w3.org/2000/svg">
<path d="M23 106C23 104.895 23.8954 104 25 104H130C131.105 104 132 104.895 132 106V134C132 135.105 131.105 136 130 136H25C23.8954 136 23 135.105 23 134V106Z" fill="#C2DDFF"/>
<path fill-rule="evenodd" clip-rule="evenodd" d="M45.0047 27.1368C44.3408 17.4543 51.84 10 61 10C69.9401 10 78.9102 17.5027 77.9911 27.1889C77.9071 28.0738 77.7017 28.8839 77.5042 29.5516C84.3352 31.6737 90 38.0114 90 46C90 52.1109 86.7476 56.8247 82.4449 59.8144C83.3139 62.2943 84 65.1723 84 68C84 80.9882 74.6403 92 62 92C49.4794 92 39 81.1194 39 68C39 65.173 39.6795 62.2976 40.5509 59.8177C36.229 56.8323 33 52.1274 33 46C33 37.9954 38.5121 31.6312 45.4011 29.5481C45.1917 28.6909 45.0518 27.8239 45.0047 27.1368ZM61 14C54.0708 14 48.4957 19.5771 48.9953 26.8632C49.0638 27.8623 49.4374 29.4027 49.7889 30.1056C50.0742 30.6762 50.0701 31.3487 49.778 31.9158C49.4859 32.483 48.9407 32.8767 48.3104 32.9758C42.1653 33.9413 37 39.2682 37 46C37 51.0405 39.8981 54.9107 43.9965 57.2659C44.8646 57.7648 45.23 58.8287 44.8518 59.7556C43.8201 62.2838 43 65.2646 43 68C43 79.0625 51.8378 88 62 88C72.0381 88 80 79.1937 80 68C80 65.2713 79.1747 62.2906 78.1462 59.7506C77.7722 58.8269 78.1352 57.7688 78.9976 57.2694C83.0814 54.9039 86 51.014 86 46C86 39.3729 80.7495 34.027 74.6583 32.9706C74.1318 32.8793 73.6637 32.5811 73.3585 32.1426C73.0532 31.704 72.9362 31.1615 73.0334 30.6361C73.1269 30.1306 73.3218 29.5199 73.4813 29.0198C73.524 28.8859 73.5642 28.7599 73.5993 28.646C73.7963 28.0054 73.9525 27.406 74.0089 26.8111C74.655 20.0029 68.1491 14 61 14Z" fill="#1C3553"/>
<path fill-rule="evenodd" clip-rule="evenodd" d="M61.9997 29C63.1043 29 63.9997 29.8954 63.9997 31V45.8389L71.2186 38.246C71.9796 37.4455 73.2456 37.4135 74.0461 38.1746C74.8466 38.9356 74.8786 40.2016 74.1175 41.0021L63.9997 51.6442L63.9997 90.2834C63.9997 90.2964 63.9997 90.3094 63.9997 90.3224C64.0003 99.1091 64.0309 106.188 65.3106 111.115C65.948 113.569 66.8425 115.254 68.0001 116.327C69.1092 117.355 70.653 118 73 118C74.1046 118 75 118.895 75 120C75 121.105 74.1046 122 73 122C69.847 122 67.2658 121.101 65.281 119.261C63.7902 117.879 62.7548 116.076 62.0205 114.023C61.2818 116.11 60.2313 117.936 58.7047 119.324C56.7159 121.132 54.1379 122 51 122C49.8954 122 49 121.105 49 120C49 118.895 49.8954 118 51 118C53.3621 118 54.9091 117.368 56.014 116.364C57.1639 115.319 58.0546 113.67 58.6902 111.243C59.9671 106.368 59.9992 99.3039 59.9997 90.3582C59.9997 90.3291 59.9997 90.3001 59.9997 90.271L59.9997 67.4781L49.8819 56.836C49.1209 56.0355 49.1528 54.7696 49.9533 54.0085C50.7539 53.2474 52.0198 53.2794 52.7809 54.0799L59.9997 61.6728V31C59.9997 29.8954 60.8951 29 61.9997 29Z" fill="#1C3553"/>
<path fill-rule="evenodd" clip-rule="evenodd" d="M15 102C15 98.6863 17.6863 96 21 96H54C55.1046 96 56 96.8954 56 98C56 99.1046 55.1046 100 54 100H21C19.8954 100 19 100.895 19 102L19 137.589C19 138.683 19.8786 139.573 20.9722 139.589L39.3406 139.845L63.8939 140H98C99.1046 140 100 140.895 100 142C100 143.105 99.1046 144 98 144H63.8812L39.3153 143.844L39.3001 143.844L20.9165 143.588C17.6356 143.543 15 140.87 15 137.589L15 102ZM68 98C68 96.8954 68.8954 96 70 96H81.5452C82.6498 96 83.5452 96.8954 83.5452 98C83.5452 99.1046 82.6498 100 81.5452 100H70C68.8954 100 68 99.1046 68 98ZM86.9512 98C86.9512 96.8954 87.8467 96 88.9512 96H134C137.314 96 140 98.6863 140 102V138C140 141.314 137.314 144 134 144H106C104.895 144 104 143.105 104 142C104 140.895 104.895 140 106 140H134C135.105 140 136 139.105 136 138V102C136 100.895 135.105 100 134 100H88.9512C87.8467 100 86.9512 99.1046 86.9512 98Z" fill="#1C3553"/>
</svg>
