<svg width="156" height="156" viewBox="0 0 156 156" fill="none" xmlns="http://www.w3.org/2000/svg">
<path d="M112.428 114.913L132.227 134.712C133.789 136.274 136.322 136.274 137.884 134.712L139.298 133.298C140.86 131.736 140.86 129.203 139.298 127.641L119.499 107.842C118.718 107.061 117.452 107.061 116.671 107.842L112.428 112.085C111.647 112.866 111.647 114.132 112.428 114.913Z" fill="#C2DDFF"/>
<path d="M107 78C107 91.2548 96.2548 102 83 102C69.7452 102 59 91.2548 59 78C59 64.7452 69.7452 54 83 54C96.2548 54 107 64.7452 107 78Z" fill="#C2DDFF"/>
<path fill-rule="evenodd" clip-rule="evenodd" d="M47.9885 22.4491C46.5186 19.5094 49.0247 16.1499 52.2613 16.7211L63.9202 18.7786C65.6232 19.0791 66.9403 20.44 67.1849 22.152L67.7608 26.1833L73.2057 26.7883C75.4226 27.0347 77.0097 29.0467 76.733 31.26L76.4613 33.434L88.9213 26.8375C90.3124 26.101 92.0061 26.2489 93.2486 27.2152L101.228 33.4213L101.249 33.4383L106.249 37.4383C106.307 37.4844 106.362 37.5336 106.414 37.5858L109.943 41.1144C110.555 41.7264 110.952 42.5203 111.074 43.3771L111.98 49.7172C112.136 50.8106 111.376 51.8237 110.283 51.9799C109.189 52.1361 108.176 51.3763 108.02 50.2828L107.114 43.9428L103.664 40.4925L98.7614 36.5704L90.7929 30.3726L78.3328 36.9691C75.472 38.4837 72.0907 36.1499 72.4922 32.9378L72.7639 30.7639L67.319 30.1589C65.506 29.9574 64.0589 28.5549 63.801 26.749L63.2251 22.7177L51.5662 20.6602L54.0424 25.6126C54.9069 27.3417 54.4112 29.4416 52.8647 30.6015L51.7136 31.4648L53.8529 34.6738C54.8191 36.1231 54.7363 38.0312 53.6481 39.3914L51.6536 41.8845C50.4029 43.4479 48.189 43.8458 46.4722 42.8157L43.634 41.1128L36.5471 42.5302L38.707 49.73C38.9766 50.6284 38.9218 51.5929 38.5523 52.4551L35.9495 58.5283L35.1086 65.2558C34.9524 66.5051 34.2172 67.608 33.124 68.2326L28.2018 71.0453L28.9456 75.5079C28.9818 75.7253 29 75.9452 29 76.1655V80.1716C29 81.2324 28.5786 82.2499 27.8284 83L26.3248 84.5036L28.7453 90.9582C28.9137 91.4073 29 91.883 29 92.3627V97.3333L31.2 100.267C31.7193 100.959 32 101.801 32 102.667V106.276L35.9956 111.071L44.7484 111.744C47.7966 111.978 49.4657 115.407 47.7698 117.951L42.1028 126.451L43.5105 134.898L51.3094 130.644C52.2473 130.132 53.3509 130.017 54.3742 130.324L63.363 133.021L76.7453 133.977L84.815 131.287C85.5367 131.046 86.312 131.016 87.0501 131.201L91.727 132.37L91.1252 126.352C90.9826 124.926 91.614 123.532 92.7804 122.699L98 118.971V115C98 113.895 98.8954 113 100 113C101.105 113 102 113.895 102 115V118.971C102 120.263 101.376 121.475 100.325 122.226L95.1053 125.954L95.7072 131.972C95.9827 134.727 93.4431 136.922 90.7569 136.251L86.0799 135.082L78.0102 137.771C77.5114 137.938 76.9847 138.004 76.4603 137.967L63.078 137.011C62.7849 136.99 62.495 136.937 62.2136 136.852L53.2248 134.156L45.426 138.409C43.0107 139.727 40.0173 138.269 39.565 135.555L38.1572 127.109C37.9901 126.107 38.2109 125.078 38.7746 124.233L44.4416 115.732L35.6888 115.059C34.6119 114.976 33.6142 114.461 32.9227 113.631L28.9271 108.837C28.328 108.118 28 107.212 28 106.276V102.667L25.8 99.7333C25.2807 99.041 25 98.1988 25 97.3333V92.3627L22.5795 85.9081C22.0287 84.4394 22.3872 82.7843 23.4964 81.6752L25 80.1716V76.1655L24.2562 71.7029C23.9809 70.0513 24.7635 68.4031 26.2172 67.5724L31.1395 64.7597L31.9804 58.0321C32.0269 57.6604 32.1253 57.297 32.2729 56.9526L34.8757 50.8794L32.7158 43.6796C32.0384 41.4215 33.4509 39.0702 35.7626 38.6079L42.8495 37.1905C43.8253 36.9953 44.8387 37.1709 45.692 37.6828L48.5301 39.3857L50.5247 36.8926L48.3854 33.6836C47.2078 31.9172 47.6152 29.5386 49.3136 28.2648L50.4647 27.4015L47.9885 22.4491Z" fill="#1C3553"/>
<path fill-rule="evenodd" clip-rule="evenodd" d="M104.367 109.702C103.592 108.927 103.602 107.661 104.389 106.874L111.46 99.8026C112.247 99.0155 113.513 99.0057 114.288 99.7807C115.063 100.556 115.053 101.822 114.266 102.609L107.195 109.68C106.408 110.467 105.142 110.477 104.367 109.702Z" fill="#1C3553"/>
<path fill-rule="evenodd" clip-rule="evenodd" d="M83 50C67.536 50 55 62.536 55 78C55 93.464 67.536 106 83 106C98.464 106 111 93.464 111 78C111 62.536 98.464 50 83 50ZM51 78C51 60.3269 65.3269 46 83 46C100.673 46 115 60.3269 115 78C115 95.6731 100.673 110 83 110C65.3269 110 51 95.6731 51 78Z" fill="#1C3553"/>
<path fill-rule="evenodd" clip-rule="evenodd" d="M111.013 116.327C109.451 114.765 109.451 112.233 111.013 110.671L115.256 106.428C116.818 104.866 119.351 104.866 120.913 106.428L140.712 126.227C143.055 128.57 143.055 132.369 140.712 134.712L139.298 136.126C136.955 138.47 133.156 138.47 130.812 136.126L111.013 116.327ZM118.085 109.256L113.842 113.499L133.641 133.298C134.422 134.079 135.688 134.079 136.469 133.298L137.884 131.884C138.665 131.103 138.665 129.836 137.884 129.055L118.085 109.256Z" fill="#1C3553"/>
</svg>
