<svg width="156" height="156" viewBox="0 0 156 156" fill="none" xmlns="http://www.w3.org/2000/svg">
<path d="M70.3999 58.3999C70.3999 57.2953 71.2953 56.3999 72.3999 56.3999H119.6C120.704 56.3999 121.6 57.2953 121.6 58.3999V105.6C121.6 106.704 120.704 107.6 119.6 107.6H72.3999C71.2953 107.6 70.3999 106.704 70.3999 105.6V58.3999Z" fill="#C2DDFF"/>
<path fill-rule="evenodd" clip-rule="evenodd" d="M62 56C62 51.5817 65.5817 48 70 48H122C126.418 48 130 51.5817 130 56V108C130 112.418 126.418 116 122 116H70C65.5817 116 62 112.418 62 108V90C62 88.8954 62.8954 88 64 88C65.1046 88 66 88.8954 66 90V108C66 110.209 67.7909 112 70 112H122C124.209 112 126 110.209 126 108V56C126 53.7909 124.209 52 122 52H70C67.7909 52 66 53.7909 66 56V82C66 83.1046 65.1046 84 64 84C62.8954 84 62 83.1046 62 82V56Z" fill="#1C3553"/>
<path fill-rule="evenodd" clip-rule="evenodd" d="M81.3768 66.6148C80.4829 67.8852 79.8667 69.7456 79.8667 71.8948C79.8667 74.0439 80.4829 75.9044 81.3768 77.1747C82.2747 78.4507 83.3264 78.9895 84.2667 78.9895C85.207 78.9895 86.2587 78.4507 87.1566 77.1747C88.0505 75.9044 88.6667 74.0439 88.6667 71.8948C88.6667 69.7456 88.0505 67.8852 87.1566 66.6148C86.2587 65.3389 85.207 64.8 84.2667 64.8C83.3264 64.8 82.2747 65.3389 81.3768 66.6148ZM78.1056 64.3128C79.524 62.2972 81.6724 60.8 84.2667 60.8C86.861 60.8 89.0094 62.2972 90.4278 64.3128C91.8502 66.3342 92.6667 69.0211 92.6667 71.8948C92.6667 74.7685 91.8502 77.4554 90.4278 79.4767C89.0094 81.4924 86.861 82.9895 84.2667 82.9895C81.6724 82.9895 79.524 81.4924 78.1056 79.4767C76.6832 77.4554 75.8667 74.7685 75.8667 71.8948C75.8667 69.0211 76.6832 66.3342 78.1056 64.3128Z" fill="#1C3553"/>
<path fill-rule="evenodd" clip-rule="evenodd" d="M104.843 86.8253C103.949 88.0956 103.333 89.9561 103.333 92.1052C103.333 94.2544 103.949 96.1149 104.843 97.3852C105.741 98.6612 106.793 99.2 107.733 99.2C108.673 99.2 109.725 98.6612 110.623 97.3852C111.517 96.1149 112.133 94.2544 112.133 92.1052C112.133 89.9561 111.517 88.0956 110.623 86.8253C109.725 85.5493 108.673 85.0105 107.733 85.0105C106.793 85.0105 105.741 85.5493 104.843 86.8253ZM101.572 84.5233C102.99 82.5076 105.139 81.0105 107.733 81.0105C110.327 81.0105 112.476 82.5076 113.894 84.5233C115.317 86.5446 116.133 89.2315 116.133 92.1052C116.133 94.979 115.317 97.6659 113.894 99.6872C112.476 101.703 110.327 103.2 107.733 103.2C105.139 103.2 102.99 101.703 101.572 99.6872C100.15 97.6659 99.333 94.979 99.333 92.1052C99.333 89.2315 100.15 86.5446 101.572 84.5233Z" fill="#1C3553"/>
<path fill-rule="evenodd" clip-rule="evenodd" d="M108.777 61.0935C109.745 61.6247 110.063 62.8193 109.487 63.7618L86.0205 102.162C85.4445 103.104 84.1925 103.438 83.224 102.907C82.2556 102.375 81.9374 101.181 82.5134 100.238L105.98 61.8383C106.556 60.8958 107.808 60.5623 108.777 61.0935Z" fill="#1C3553"/>
<path fill-rule="evenodd" clip-rule="evenodd" d="M51.9885 22.4491C50.5186 19.5094 53.0247 16.1499 56.2613 16.7211L67.9202 18.7786C69.6232 19.0791 70.9403 20.44 71.1849 22.152L71.7608 26.1833L77.2057 26.7883C79.4226 27.0347 81.0097 29.0467 80.733 31.26L80.4613 33.434L92.9213 26.8375C94.3124 26.101 96.0061 26.2489 97.2486 27.2152L105.228 33.4213C105.258 33.445 105.288 33.4695 105.317 33.4949L113.317 40.4949C114.148 41.2222 114.232 42.4857 113.505 43.317C112.778 44.1483 111.514 44.2325 110.683 43.5052L102.726 36.5432L94.7929 30.3726L82.3328 36.9691C79.472 38.4837 76.0907 36.1499 76.4922 32.9378L76.7639 30.7639L71.319 30.1589C69.506 29.9574 68.0589 28.5549 67.801 26.749L67.2251 22.7177L55.5662 20.6602L58.0424 25.6126C58.9069 27.3417 58.4112 29.4416 56.8647 30.6015L55.7136 31.4648L57.8529 34.6738C58.8191 36.1231 58.7363 38.0312 57.6481 39.3914L55.6536 41.8845C54.4029 43.4479 52.189 43.8458 50.4722 42.8157L47.634 41.1128L40.5471 42.5302L42.707 49.73C42.9766 50.6284 42.9218 51.5929 42.5523 52.4551L39.9495 58.5283L39.1086 65.2558C38.9524 66.5051 38.2172 67.608 37.124 68.2326L32.2018 71.0453L32.9456 75.5079C32.9818 75.7253 33 75.9452 33 76.1655V80.1716C33 81.2324 32.5786 82.2499 31.8284 83L30.3248 84.5036L32.7453 90.9582C32.9137 91.4073 33 91.883 33 92.3627V97.3333L35.2 100.267C35.7193 100.959 36 101.801 36 102.667V106.276L39.9956 111.071L48.7484 111.744C51.7966 111.978 53.4657 115.407 51.7698 117.951L46.1028 126.451L47.5105 134.898L55.3094 130.644C56.2473 130.132 57.3509 130.017 58.3742 130.324L67.363 133.021L80.7453 133.977L88.815 131.287C89.5367 131.046 90.312 131.016 91.0501 131.201L95.727 132.37L95.1361 126.461C94.982 124.92 95.7307 123.429 97.0582 122.633L100.971 120.285C101.918 119.717 103.147 120.024 103.715 120.971C104.283 121.918 103.976 123.147 103.029 123.715L99.1162 126.063L99.7072 131.972C99.9827 134.727 97.4431 136.922 94.7569 136.251L90.0799 135.082L82.0102 137.771C81.5114 137.938 80.9847 138.004 80.4603 137.967L67.078 137.011C66.7849 136.99 66.495 136.937 66.2136 136.852L57.2248 134.156L49.426 138.409C47.0107 139.727 44.0173 138.269 43.565 135.555L42.1572 127.109C41.9901 126.107 42.2109 125.078 42.7746 124.233L48.4416 115.732L39.6888 115.059C38.6119 114.976 37.6142 114.461 36.9227 113.631L32.9271 108.837C32.328 108.118 32 107.212 32 106.276V102.667L29.8 99.7333C29.2807 99.041 29 98.1988 29 97.3333V92.3627L26.5795 85.9081C26.0287 84.4394 26.3872 82.7843 27.4964 81.6752L29 80.1716V76.1655L28.2562 71.7029C27.9809 70.0513 28.7635 68.4031 30.2172 67.5724L35.1395 64.7597L35.9804 58.0321C36.0269 57.6604 36.1253 57.297 36.2729 56.9526L38.8757 50.8794L36.7158 43.6796C36.0384 41.4215 37.4509 39.0702 39.7626 38.6079L46.8495 37.1905C47.8253 36.9953 48.8387 37.1709 49.692 37.6828L52.5301 39.3857L54.5247 36.8926L52.3854 33.6836C51.2078 31.9172 51.6152 29.5386 53.3136 28.2648L54.4647 27.4015L51.9885 22.4491Z" fill="#1C3553"/>
</svg>
