<svg width="156" height="156" viewBox="0 0 156 156" fill="none" xmlns="http://www.w3.org/2000/svg">
<path fill-rule="evenodd" clip-rule="evenodd" d="M126.78 82.6695L122.5 78L109.5 86.5L104 94L102 100.5L97.9998 103L95.4998 107.5L89.4998 109L85.9998 113L74.4998 109L69.9998 111.75L64.9998 109H58.9998L48.9998 100.5L44.9998 92.5L42.9998 86.5L33.4998 76L29.2344 82.8248C31.6579 107.622 52.5659 127 77.9999 127C103.487 127 124.429 107.541 126.78 82.6695ZM110.346 41.1924L104 45L108 52L102 56H82.4998L71.4998 61L57.9998 57L46.4998 53.5L50.9998 45L45.251 41.5507C53.9298 33.7478 65.4103 29 77.9998 29C90.3955 29 101.716 33.6028 110.346 41.1924Z" fill="#C2DDFF"/>
<path fill-rule="evenodd" clip-rule="evenodd" d="M78.0001 25C67.3318 25 57.4052 28.15 49.0925 33.57C48.1672 34.1733 46.9281 33.9123 46.3248 32.987C45.7215 32.0617 45.9825 30.8226 46.9078 30.2193C55.8506 24.3885 66.5327 21 78.0001 21C89.539 21 100.283 24.4308 109.259 30.3285C110.182 30.935 110.439 32.175 109.833 33.0982C109.226 34.0213 107.986 34.278 107.063 33.6715C98.7186 28.1893 88.7349 25 78.0001 25ZM132.122 88.0478C133.2 88.2877 133.879 89.3562 133.639 90.4344C127.965 115.934 105.211 135 78.0001 135C51.531 135 29.2805 116.96 22.8634 92.5077C22.583 91.4393 23.2218 90.3459 24.2902 90.0655C25.3586 89.7851 26.452 90.4239 26.7323 91.4923C32.6994 114.23 53.3939 131 78.0001 131C103.297 131 124.459 113.275 129.735 89.5656C129.975 88.4874 131.043 87.8078 132.122 88.0478Z" fill="#1C3553"/>
<path fill-rule="evenodd" clip-rule="evenodd" d="M72.1041 63.5847C74.2512 62.3695 76.4589 61.1201 78.4732 59.9571C79.6613 59.2712 81.4647 58.6916 83.6678 58.2598C85.8384 57.8344 88.2602 57.578 90.5917 57.4673C92.9239 57.3565 95.1205 57.3936 96.8349 57.5398C97.6947 57.6131 98.3994 57.7111 98.9231 57.8214C99.4148 57.9249 99.5927 58.0088 99.5949 58.0044C99.5954 58.0034 99.5871 57.998 99.5717 57.9875C100.214 58.4248 101.051 58.4508 101.718 58.0544L109.021 53.7198C109.971 53.156 110.284 51.9289 109.72 50.9791C109.156 50.0293 107.929 49.7163 106.979 50.2801L100.536 54.1045C100.265 54.0231 99.9953 53.9594 99.7469 53.9071C99.0104 53.7521 98.1324 53.636 97.1748 53.5543C95.2546 53.3905 92.8782 53.3542 90.402 53.4718C87.9252 53.5894 85.3034 53.8631 82.8984 54.3345C80.5259 54.7995 78.2216 55.4836 76.4732 56.493C74.5734 57.5899 72.4407 58.7971 70.3315 59.9911C66.1508 62.3575 62.063 64.6715 60.0663 65.9688C59.9587 66.0387 59.858 66.1188 59.7657 66.2081C57.2206 68.669 57.6545 72.2311 59.0176 74.5921C60.3807 76.953 63.2486 79.1099 66.6524 78.1362C66.7374 78.1119 66.8207 78.082 66.9017 78.0466L81.2811 71.7773C83.0756 72.9416 85.6591 74.2579 88.5862 75.0974C92.0844 76.1008 96.2933 76.4833 100.262 74.8493C101.283 74.4287 101.77 73.2598 101.349 72.2385C100.929 71.2171 99.76 70.73 98.7386 71.1506C95.907 72.3166 92.6992 72.1158 89.689 71.2525C86.686 70.3911 84.0983 68.9301 82.6865 67.8898C82.1119 67.4664 81.3551 67.3813 80.7008 67.6666L65.4469 74.3173C64.4753 74.5345 63.2854 73.9842 62.4817 72.5921C61.6922 71.2246 61.7924 69.9404 62.4351 69.2009C64.3911 67.95 68.1447 65.8256 72.1041 63.5847ZM51.5151 78.0597C51.198 78.1389 50.9052 78.2947 50.6622 78.5134L43.5643 84.9015C41.1433 87.0804 40.9028 90.7929 43.0226 93.266L45.659 96.3418C45.4943 97.2451 45.6972 98.1405 45.9371 98.7883C46.3653 99.9444 47.1563 101.089 47.9816 102.052C48.8237 103.034 49.8107 103.954 50.7576 104.646C51.2305 104.992 51.7289 105.306 52.2239 105.543C52.342 105.599 52.472 105.657 52.6118 105.712C52.8389 106.13 53.1547 106.657 53.5681 107.229C54.5096 108.532 56.0221 110.156 58.2307 111.183C60.0738 112.04 61.9566 111.501 63.282 110.559C64.699 112.616 66.8611 113.731 68.3051 114.29C70.4232 115.11 72.5408 114.288 73.8684 112.96L80.4144 106.414C80.7894 106.039 81.0001 105.53 81.0001 105C81.0001 102.457 80.0267 100.403 78.4539 99.0051C77.4036 98.0716 76.1405 97.4772 74.8308 97.1947C74.4891 95.4108 73.6371 93.8075 72.3381 92.6384C71.1054 91.5289 69.5409 90.878 67.814 90.8119C67.407 88.5233 66.3442 86.6643 64.735 85.5C63.5389 84.6345 62.1569 84.2408 60.7574 84.299C60.5377 82.741 59.7933 81.3272 58.7594 80.244C57.0208 78.4227 54.3064 77.3618 51.5151 78.0597ZM59.6431 88.6545C60.72 88.0978 61.684 88.2296 62.3902 88.7406C63.0719 89.2338 63.7934 90.2946 63.963 92.1542L53.5427 101.706C53.4138 101.625 53.2715 101.529 53.1177 101.416C52.4396 100.921 51.6766 100.216 51.0187 99.4484C50.344 98.6613 49.885 97.9305 49.6881 97.3991C49.6643 97.3346 49.6463 97.2801 49.6329 97.2346L59.6431 88.6545ZM49.5968 97.0783C49.5988 97.0558 49.5971 97.0426 49.5957 97.0417C49.5944 97.0408 49.5934 97.052 49.5968 97.0783ZM48.2171 93.1799L46.0596 90.6628C45.353 89.8385 45.4332 88.6009 46.2402 87.8746L52.9193 81.8634C53.9943 81.7496 55.085 82.1878 55.8659 83.0059C56.6285 83.8048 56.9758 84.8326 56.7557 85.861L48.2171 93.1799ZM56.4958 104.425L66.9425 94.8492C68.0996 94.6797 69.0077 95.0224 69.6622 95.6115C70.2894 96.176 70.7779 97.0578 70.9413 98.1741L67.3579 101.459L64.1865 104.366L64.1853 104.367L61.1533 107.146C60.9 107.379 60.6244 107.521 60.3922 107.578C60.1738 107.632 60.0257 107.606 59.9173 107.556C58.5312 106.912 57.5068 105.851 56.8101 104.886C56.6946 104.727 56.5899 104.572 56.4958 104.425ZM73.7185 101.055C74.5166 101.178 75.2445 101.504 75.7964 101.995C76.3453 102.483 76.7952 103.197 76.946 104.226L71.04 110.132C70.5407 110.631 70.0404 110.672 69.7491 110.559C68.3885 110.033 67.0037 109.176 66.3146 107.841L73.7185 101.055ZM124.517 75.8571C123.964 74.9005 122.741 74.5727 121.785 75.125C118.203 77.1928 116.136 79.1474 114.45 80.7422C114.219 80.9607 113.995 81.1724 113.776 81.3767C112.044 82.9875 110.538 84.1949 107.451 85.0769C106.389 85.3803 105.774 86.4873 106.077 87.5494C106.381 88.6115 107.488 89.2264 108.55 88.923C112.463 87.805 114.509 86.1576 116.5 84.3053C116.736 84.086 116.97 83.8652 117.205 83.6426C118.869 82.0715 120.626 80.413 123.785 78.5891C124.741 78.0368 125.069 76.8136 124.517 75.8571Z" fill="#1C3553"/>
<path fill-rule="evenodd" clip-rule="evenodd" d="M126.252 31.0386C125.698 30.8386 125.083 30.8932 124.573 31.1878L103.457 43.3794C102.997 43.6449 102.661 44.0824 102.524 44.5955C102.387 45.1085 102.46 45.655 102.726 46.1144L124.297 83.3263C125.38 85.1952 127.751 85.8663 129.653 84.8423L139.461 79.5621C142.095 78.1439 143.282 75.002 142.243 72.1964L127.449 32.2256C127.244 31.673 126.806 31.2387 126.252 31.0386ZM124.52 35.8371L138.492 73.5849C138.838 74.5201 138.443 75.5674 137.564 76.0401L127.757 81.3203L107.192 45.8418L111.376 43.4259L128.671 73.3812C129.223 74.3378 130.446 74.6655 131.403 74.1132C132.359 73.5609 132.687 72.3378 132.135 71.3812L114.84 41.4259L124.52 35.8371Z" fill="#1C3553"/>
<path fill-rule="evenodd" clip-rule="evenodd" d="M58.6568 55.0227C63.1949 55.9878 68.4315 57.3653 72.2542 60.4419C73.1147 61.1345 73.2509 62.3935 72.5583 63.254C71.8658 64.1144 70.6068 64.2506 69.7463 63.558C66.7433 61.1411 62.38 59.904 57.8247 58.9352C56.9596 58.7512 56.0663 58.5726 55.1815 58.3956C53.848 58.129 52.5336 57.8662 51.3636 57.5946C49.4041 57.1397 47.4778 56.5846 46.0011 55.732C45.0446 55.1797 44.7168 53.9566 45.2691 53C45.8214 52.0434 47.0446 51.7156 48.0011 52.2679C48.924 52.8008 50.3443 53.2516 52.268 53.6982C53.4044 53.962 54.5881 54.1981 55.8526 54.4503C56.7433 54.628 57.6741 54.8137 58.6568 55.0227ZM90.9298 73.4128C95.9958 76.333 102.264 79.9487 107.068 82.7288C107.951 83.2394 108.818 84.0328 109.319 85.1459C110.151 86.9973 110.338 88.7129 109.866 90.24C109.4 91.7505 108.384 92.7734 107.402 93.4378C106.813 93.8358 106.2 94.1311 105.642 94.3495C105.958 96.0704 105.661 97.9222 104.938 99.4708C103.989 101.504 102.173 103.305 99.598 103.839C99.3308 104.648 98.8747 105.718 98.1074 106.753C97.3067 107.834 96.1531 108.894 94.5301 109.55C93.346 110.028 91.9866 110.26 90.4424 110.184C90.2524 110.679 89.9965 111.238 89.6559 111.798C88.5964 113.54 86.5386 115.488 83.1572 115.052C82.6343 114.984 82.1765 114.823 81.8258 114.672L75.2275 111.844L75.2262 111.844L75.2135 111.838C74.1983 111.403 73.7278 110.227 74.1629 109.212C74.598 108.197 75.7737 107.727 76.789 108.162L76.7901 108.162L76.7944 108.164L76.8019 108.167C76.8072 108.17 76.8063 108.169 76.8049 108.169L76.8074 108.17M78.1248 104.798L79.3559 105.414C80.4726 105.972 82.5875 107.03 86.5926 109.032C86.4932 109.26 86.3758 109.494 86.2386 109.719C85.6653 110.662 84.9299 111.247 83.6694 111.085C83.6432 111.081 83.5597 111.063 83.4014 110.996L76.8124 108.172M79.9164 101.222L89.633 106.081C91.1778 106.331 92.2649 106.151 93.0324 105.841C93.8472 105.512 94.4439 104.979 94.8935 104.372C95.2242 103.925 95.4673 103.449 95.6425 103.014L80.1018 94.7868L80.1001 94.786L80.0986 94.7851L80.097 94.7843L80.0941 94.7828L80.0927 94.782L80.0901 94.7806L80.0888 94.78L80.0864 94.7787L80.0842 94.7775L80.0832 94.777L80.0812 94.7759L80.0803 94.7754L80.0794 94.775L80.0761 94.7733L80.0747 94.7725L80.0735 94.7718L80.0723 94.7712L80.0713 94.7707L80.0703 94.7702L80.0691 94.7696L80.0681 94.769L80.0671 94.7685L80.0661 94.7679C79.0899 94.2511 78.7167 93.0404 79.2336 92.0642C79.7504 91.088 80.9607 90.7156 81.9369 91.2324L81.9379 91.2329L81.9389 91.2335L81.94 91.234L81.9411 91.2346L81.9423 91.2353L81.9433 91.2358L81.9444 91.2364L81.9456 91.237L81.947 91.2377L81.9501 91.2394L81.9518 91.2403L81.9527 91.2408L81.9547 91.2418L81.9558 91.2424L81.958 91.2436L81.9592 91.2442L81.9604 91.2448L81.9643 91.2469L81.9657 91.2476L81.9686 91.2492L81.9701 91.25L81.9717 91.2508L81.9733 91.2517L98.4497 99.9745C99.7884 99.8194 100.758 98.969 101.314 97.7792C101.879 96.5672 101.872 95.3099 101.535 94.4868L85.0653 85.7675C84.0891 85.2507 83.7167 84.0404 84.2336 83.0642C84.7504 82.088 85.9607 81.7156 86.9369 82.2324L103.311 90.901C103.384 90.8828 103.462 90.8621 103.545 90.8387C104.067 90.6903 104.667 90.4581 105.161 90.1241C105.647 89.796 105.926 89.4434 106.044 89.0606C106.157 88.6945 106.216 87.9991 105.671 86.7868C105.592 86.6112 105.406 86.3881 105.065 86.191C100.263 83.4126 93.9978 79.7983 88.9322 76.8782C86.3995 75.4183 84.167 74.132 82.5676 73.2107L80.003 71.7336C80.0029 71.7336 80.0023 71.7332 81.0002 70C81.9982 68.2668 81.9982 68.2668 81.9983 68.2669L84.5642 69.7447C86.1638 70.6661 88.3967 71.9526 90.9298 73.4128M79.9164 101.222L79.908 101.217L79.902 101.214L79.9009 101.214L79.8957 101.211C79.6187 101.073 79.3134 101 79.0037 101L79.0012 103C79.0037 101 77.0703 102.479 77.9968 104.73C78.0116 104.738 78.0405 104.754 78.0546 104.762C78.0675 104.769 78.0779 104.774 78.0808 104.776L78.0944 104.783L78.101 104.786L78.1062 104.789L78.1248 104.798M79.267 69.002C79.8181 68.0448 81.0411 67.7157 81.9983 68.2669L81.0002 70L80.003 71.7336C79.0457 71.1825 78.7158 69.9593 79.267 69.002ZM31.4898 75.8661C32.042 74.9095 33.2652 74.5818 34.2218 75.1341C38.4 77.5463 39.8993 79.6656 40.9496 81.6035C41.0876 81.858 41.2057 82.083 41.3128 82.2871C41.6082 82.8499 41.8204 83.2541 42.137 83.6828C42.507 84.1837 43.0268 84.7054 44.0012 85.268C44.9577 85.8203 45.2855 87.0435 44.7332 88.0001C44.1809 88.9566 42.9577 89.2844 42.0012 88.7321C40.576 87.9093 39.6333 87.0257 38.9196 86.0594C38.4027 85.3597 38.0017 84.5925 37.6751 83.9676C37.5895 83.8039 37.5091 83.65 37.433 83.5096C36.7131 82.1815 35.7223 80.6192 32.2218 78.5982C31.2652 78.0459 30.9375 76.8227 31.4898 75.8661Z" fill="#1C3553"/>
<path fill-rule="evenodd" clip-rule="evenodd" d="M29.7138 31.1188C30.2681 30.9187 30.8824 30.9733 31.3927 31.268L52.5092 43.4595C53.4657 44.0118 53.7935 45.235 53.2412 46.1916L31.5205 83.8129C30.416 85.7261 27.9696 86.3816 26.0564 85.277L16.3137 79.6521C13.7814 78.19 12.6718 75.1154 13.6868 72.3732L28.5171 32.3058C28.7216 31.7531 29.1595 31.3188 29.7138 31.1188ZM31.4455 35.9173L17.438 73.7617C17.0997 74.6757 17.4696 75.7006 18.3137 76.188L28.0564 81.8129L48.7771 45.9236L44.5898 43.5061L27.2953 73.4613C26.743 74.4179 25.5198 74.7457 24.5632 74.1934C23.6066 73.6411 23.2789 72.4179 23.8312 71.4613L41.1257 41.5061L31.4455 35.9173Z" fill="#1C3553"/>
</svg>
