<svg width="156" height="156" viewBox="0 0 156 156" fill="none" xmlns="http://www.w3.org/2000/svg">
<path d="M100.336 80.0351C77.8241 90.0179 66.7026 73.7962 63.3054 63.4542C63.0243 62.5983 62.2422 62.0001 61.3413 62.0001H52.7303C51.3401 62.0001 50.3739 60.6168 50.8525 59.3116L53.9692 50.8116C54.2581 50.0238 55.0079 49.5001 55.847 49.5001H60.3942C61.3093 49.5001 62.1075 48.8617 62.3608 47.9824C69.364 23.6721 90.0232 25.131 100.418 29.9655C101.092 30.279 101.5 30.9658 101.5 31.7094V38.7903C101.5 40.3822 99.7084 41.3457 98.2852 40.6325C86.997 34.9756 80.4825 41.5565 77.9209 47.0387C77.361 48.237 78.3087 49.5001 79.6314 49.5001H92.2253C93.5904 49.5001 94.5543 50.8375 94.1226 52.1326L91.2893 60.6326C91.017 61.4493 90.2528 62.0001 89.3919 62.0001H81.1606C79.6522 62.0001 78.7035 63.6119 79.6032 64.8226C85.0987 72.2176 92.7044 71.3296 97.9731 68.7324C99.4805 67.9893 101.5 69.0017 101.5 70.6823V78.2364C101.5 79.0083 101.041 79.7222 100.336 80.0351Z" fill="#C2DDFF"/>
<path fill-rule="evenodd" clip-rule="evenodd" d="M21.4714 83.7103C21.8514 83.2599 22.4107 83 23 83H45C46.1046 83 47 83.8954 47 85V116.6C47.702 116.848 48.656 117.186 49.8001 117.591C52.332 118.487 55.7952 119.712 59.5205 121.028C66.9734 123.661 75.4679 126.656 79.6562 128.111C83.2713 129.366 87.0528 128.851 90.4256 127.739C93.0989 126.858 95.3157 125.681 96.9261 124.826C97.3658 124.593 97.7604 124.383 98.1067 124.211C101.018 122.757 125.063 110.411 129.043 108.244C130.862 107.253 131.852 106.252 132.284 105.401C132.663 104.653 132.698 103.869 132.211 102.894C131.966 102.405 131.72 102.164 131.511 102.03C131.301 101.894 131 101.785 130.52 101.76C129.462 101.704 127.925 102.066 125.683 102.88C123.653 103.617 118.519 105.375 113.92 106.94C111.614 107.724 109.434 108.463 107.831 109.006C107.084 109.258 106.463 109.468 106.011 109.621C105.847 109.918 105.656 110.205 105.435 110.481C104.046 112.211 101.856 112.998 99.0126 113L73.2209 113.311C72.1164 113.325 71.2102 112.44 71.1969 111.336C71.1835 110.231 72.0681 109.325 73.1726 109.312L98.9759 109L99 109C101.15 109 101.956 108.425 102.315 107.977C102.458 107.799 102.581 107.58 102.682 107.312C102.684 107.306 102.687 107.299 102.689 107.293C102.89 106.748 103 106.005 103 105C103 104.072 102.595 103.39 101.904 102.878C101.164 102.331 100.098 102 99 102V100V98C100.82 98 102.754 98.5306 104.284 99.6634C105.864 100.833 107 102.65 107 105C107 105.021 107 105.043 107 105.064C108.548 104.54 110.538 103.865 112.631 103.153C117.249 101.582 122.335 99.8398 124.317 99.1201C126.575 98.3003 128.788 97.6625 130.731 97.7651C131.75 97.819 132.762 98.0782 133.676 98.6666C134.593 99.2566 135.284 100.095 135.789 101.106C136.802 103.131 136.843 105.254 135.851 107.211C134.91 109.063 133.15 110.562 130.957 111.756C126.913 113.959 102.818 126.329 99.8933 127.789C99.6426 127.915 99.3238 128.084 98.9456 128.286C97.3577 129.131 94.7224 130.535 91.6776 131.538C87.877 132.791 83.1175 133.547 78.3439 131.889C74.1434 130.431 65.638 127.432 58.188 124.8C54.4619 123.483 50.9979 122.258 48.4656 121.362C47.9339 121.174 47.4434 121 47 120.843V124C47 126.209 45.2092 128 43 128H33.375C30.4509 128 27.9527 125.892 27.4606 123.01L21.0285 85.3366C20.9294 84.7557 21.0914 84.1607 21.4714 83.7103ZM99 100C99 98 99.0001 98 99 98H84C83.1861 98 83.0758 97.9741 82.9389 97.9148C82.7569 97.836 82.3647 97.5938 81.456 96.6288C73.5837 88.2697 61.0835 87.0302 53.0075 87C51.9029 86.9959 51.0042 87.888 51 88.9925C50.9959 90.0971 51.888 90.9959 52.9925 91C60.9921 91.0299 71.9153 92.3325 78.544 99.3712C79.5188 100.406 80.3766 101.164 81.3488 101.585C82.3136 102.003 83.216 102.001 83.8918 102C83.9285 102 83.9646 102 84 102H99C99.0001 102 99 102 99 100ZM25.3704 87L31.4035 122.337C31.5675 123.297 32.4003 124 33.375 124H43V87H39.0285L39.0286 118.013C39.0286 119.118 38.1331 120.013 37.0286 120.013C35.924 120.013 35.0286 119.118 35.0286 118.013L35.0285 87H25.3704Z" fill="#1C3553"/>
<path fill-rule="evenodd" clip-rule="evenodd" d="M80.2821 26.0556C88.737 24.1196 97.5157 26.491 102.923 29.3037C103.585 29.648 104 30.332 104 31.078V42.9998C104 43.7338 103.598 44.4088 102.952 44.7584C102.307 45.108 101.522 45.0759 100.907 44.6748C93.6547 39.9435 88.6999 40.2057 85.5002 41.7984C83.1547 42.9659 81.456 44.9893 80.3925 46.9999H96C96.6589 46.9999 97.2756 47.3244 97.6486 47.8676C98.0217 48.4108 98.1032 49.1028 97.8667 49.7178L92.8667 62.7177C92.5696 63.4901 91.8276 63.9998 91 63.9998H81.6914C82.7373 65.2933 83.8357 66.227 84.9367 66.8879C86.7394 67.97 88.6591 68.3873 90.5823 68.3541C94.5034 68.2863 98.3766 66.3367 100.751 64.438C101.351 63.9579 102.174 63.8644 102.867 64.1975C103.559 64.5305 104 65.2312 104 66V79C104 79.7742 103.553 80.4789 102.853 80.809C89.995 86.8705 79.9538 85.213 72.7409 80.3747C66.2867 76.0453 62.3196 69.3217 60.5234 63.9998H50C49.3411 63.9998 48.7244 63.6752 48.3514 63.132C47.9783 62.5889 47.8968 61.8968 48.1333 61.2818L53.1333 48.282C53.4304 47.5096 54.1724 46.9999 55 46.9999L60.4723 46.9998C64.234 34.0099 71.9301 27.9681 80.2821 26.0556ZM56.3736 50.9999L52.9121 59.9998H67C68.1046 59.9998 69 60.8952 69 61.9998C69 63.1043 68.1046 63.9998 67 63.9998H64.7814C66.5322 68.435 69.8981 73.6512 74.9692 77.0529C80.7043 80.8999 88.8725 82.6005 100 77.7133V69.7098C97.3672 71.148 94.0932 72.294 90.6514 72.3535C88.0811 72.3979 85.4044 71.834 82.8781 70.3175C80.3539 68.8023 78.0898 66.4025 76.2371 62.9443C75.905 62.3244 75.9228 61.5757 76.2841 60.9724C76.6453 60.3691 77.2968 59.9998 78 59.9998H89.6264L93.0879 50.9999H77.4401C76.8143 50.9999 76.2246 50.707 75.8465 50.2084C75.4684 49.7098 75.3454 49.063 75.5142 48.4604C76.4552 45.1012 79.0478 40.542 83.7178 38.2175C87.9165 36.1275 93.362 36.0477 100 39.5073V32.3232C95.1366 30.0657 87.9298 28.408 81.1749 29.9547C74.5951 31.4614 68.1379 36.0728 64.6524 46.9998H67C68.1046 46.9998 69 47.8952 69 48.9998C69 50.1044 68.1046 50.9998 67 50.9998L56.3736 50.9999Z" fill="#1C3553"/>
</svg>
