<svg width="156" height="156" viewBox="0 0 156 156" fill="none" xmlns="http://www.w3.org/2000/svg">
<path d="M126.326 46.6985C127.107 45.9174 127.107 44.6511 126.326 43.8701L122.083 39.6274C121.302 38.8464 120.036 38.8464 119.255 39.6274L73.3263 85.5557L53.5273 65.7567C52.7462 64.9756 51.4799 64.9757 50.6989 65.7567L47.1297 69.3259C46.3486 70.1069 46.3486 71.3733 47.1297 72.1543L71.1713 96.196C72.7334 97.7581 75.2661 97.7581 76.8281 96.196L126.326 46.6985Z" fill="#C2DDFF"/>
<path fill-rule="evenodd" clip-rule="evenodd" d="M79.4558 19.3396C78.6663 18.5349 77.3683 18.5413 76.5868 19.3537L56.1619 40.5852C54.2895 42.5316 50.9999 41.2062 50.9999 38.5054V33.9999H38.9999V56.5857C38.9999 57.3814 38.6838 58.1445 38.1212 58.7071L19.8283 77H35.9999C37.6568 77 38.9999 78.3431 38.9999 79.9999V125C38.9999 126.105 39.8953 127 40.9999 127H115C116.104 127 117 126.105 117 125V107C117 105.895 117.895 105 119 105C120.104 105 121 105.895 121 107V125C121 128.314 118.314 131 115 131H40.9999C37.6862 131 34.9999 128.314 34.9999 125V80.9999H19.8283C16.2647 80.9999 14.48 76.6914 16.9999 74.1715L34.9999 56.1715V32.9999C34.9999 31.3431 36.343 29.9999 37.9999 29.9999H51.9999C53.6568 29.9999 54.9999 31.3431 54.9999 32.9999V36.0235L73.7042 16.5805C76.0486 14.1435 79.9427 14.1244 82.311 16.5382L105.428 40.0993C106.201 40.8877 106.189 42.154 105.401 42.9276C104.612 43.7011 103.346 43.6891 102.572 42.9006L79.4558 19.3396ZM122.822 60.5763C123.608 59.8005 124.874 59.809 125.65 60.5953L139.064 74.1906C141.558 76.7181 139.768 80.9999 136.217 80.9999H121V98.9999C121 100.105 120.104 101 119 101C117.895 101 117 100.105 117 98.9999V79.9999C117 78.3431 118.343 77 120 77H136.217L122.803 63.4046C122.027 62.6184 122.036 61.3521 122.822 60.5763Z" fill="#1C3553"/>
<path fill-rule="evenodd" clip-rule="evenodd" d="M117.84 38.2133C119.402 36.6512 121.935 36.6512 123.497 38.2133L127.74 42.4559C129.302 44.018 129.302 46.5507 127.74 48.1128L78.2424 97.6102C75.8992 99.9534 72.1002 99.9534 69.7571 97.6102L45.7155 73.5686C44.1534 72.0065 44.1534 69.4738 45.7155 67.9117L49.2847 64.3425C50.8468 62.7804 53.3794 62.7804 54.9415 64.3425L73.3263 82.7273L117.84 38.2133ZM124.911 45.2843L120.669 41.0417L74.7405 86.97C73.9595 87.751 72.6931 87.751 71.9121 86.97L52.1131 67.171L48.5439 70.7402L72.5855 94.7818C73.3666 95.5629 74.6329 95.5629 75.4139 94.7818L124.911 45.2843Z" fill="#1C3553"/>
</svg>
2 60.0099 69.92 53.8883 78.2615 51.8851ZM62.6521 73.0001H65C66.1046 73.0001 67 73.8955 67 75.0001C67 76.1046 66.1046 77.0001 65 77.0001H54.3736L50.9121 86.0001H65C66.1046 86.0001 67 86.8955 67 88.0001C67 89.1046 66.1046 90.0001 65 90.0001H62.7814C64.5322 94.4353 67.8981 99.6515 72.9692 103.053C78.7043 106.9 86.8725 108.601 98 103.713V95.7099C95.3672 97.1481 92.0932 98.2942 88.6514 98.3537C86.0811 98.3981 83.4045 97.8342 80.8781 96.3177C78.3539 94.8026 76.0898 92.4028 74.2371 88.9445C73.905 88.3247 73.9228 87.576 74.2841 86.9727C74.6453 86.3693 75.2968 86.0001 76 86.0001H87.6264L91.088 77.0001H75C74.3743 77.0001 73.7846 76.7072 73.4064 76.2086C73.0283 75.71 72.9054 75.0631 73.0741 74.4606C74.0228 71.0741 76.7353 66.4507 81.4863 64.0478C85.7653 61.8836 91.3108 61.7065 98 65.1634V57.9735C93.1502 55.7338 85.9508 54.1522 79.1955 55.7745C72.6052 57.3572 66.1396 62.0553 62.6521 73.0001Z" fill="#1C3553"/>
</svg>
