<svg width="156" height="156" viewBox="0 0 156 156" fill="none" xmlns="http://www.w3.org/2000/svg">
<path d="M40 68C40 66.3431 41.3431 65 43 65C44.6569 65 46 66.3431 46 68V123C46 124.657 44.6569 126 43 126C41.3431 126 40 124.657 40 123V68Z" fill="#C2DDFF"/>
<path d="M58 68C58 66.3431 59.3431 65 61 65C62.6569 65 64 66.3431 64 68V123C64 124.657 62.6569 126 61 126C59.3431 126 58 124.657 58 123V68Z" fill="#C2DDFF"/>
<path d="M76 68C76 66.3431 77.3431 65 79 65C80.6569 65 82 66.3431 82 68V123C82 124.657 80.6569 126 79 126C77.3431 126 76 124.657 76 123V68Z" fill="#C2DDFF"/>
<path d="M94 68C94 66.3431 95.3431 65 97 65C98.6569 65 100 66.3431 100 68V123C100 124.657 98.6569 126 97 126C95.3431 126 94 124.657 94 123V68Z" fill="#C2DDFF"/>
<path d="M112 68C112 66.3431 113.343 65 115 65C116.657 65 118 66.3431 118 68V123C118 124.657 116.657 126 115 126C113.343 126 112 124.657 112 123V68Z" fill="#C2DDFF"/>
<path fill-rule="evenodd" clip-rule="evenodd" d="M122 78C122 76.8954 122.895 76 124 76L133 76L133 69C133 67.8954 133.895 67 135 67C136.105 67 137 67.8954 137 69L137 78C137 79.1046 136.105 80 135 80L124 80C122.895 80 122 79.1046 122 78Z" fill="#1C3553"/>
<path fill-rule="evenodd" clip-rule="evenodd" d="M23.0005 74C23.0005 72.8954 23.8959 72 25.0005 72H34.0003C35.1049 72 36.0003 72.8954 36.0003 74C36.0003 75.1046 35.1049 76 34.0003 76H27.0005V80H34.0003C35.1049 80 36.0003 80.8954 36.0003 82C36.0003 83.1046 35.1049 84 34.0003 84H25.0005C23.8959 84 23.0005 83.1046 23.0005 82V74Z" fill="#1C3553"/>
<path fill-rule="evenodd" clip-rule="evenodd" d="M19 78C19 76.8954 19.8954 76 21 76H25C26.1046 76 27 76.8954 27 78C27 79.1046 26.1046 80 25 80H21C19.8954 80 19 79.1046 19 78Z" fill="#1C3553"/>
<path fill-rule="evenodd" clip-rule="evenodd" d="M62.2796 21.9804C62.8428 21.0302 64.0696 20.7163 65.0198 21.2794L64.0122 22.9799C65.0198 21.2794 65.0208 21.28 65.0218 21.2806L65.0238 21.2818L65.0285 21.2846L65.0397 21.2913L65.0694 21.3095C65.0924 21.3237 65.1218 21.3421 65.1569 21.3647C65.2269 21.4097 65.3201 21.4717 65.4312 21.5502C65.6523 21.7064 65.9497 21.9319 66.2782 22.2239C66.921 22.7953 67.7569 23.6864 68.333 24.8814C68.9265 26.1123 69.2375 27.6607 68.7837 29.4088C68.3387 31.1228 67.2128 32.8203 65.329 34.4948C63.8378 35.8203 63.2762 36.8728 63.0884 37.5963C62.9094 38.2857 63.0202 38.8623 63.2705 39.3814C63.5381 39.9364 63.9679 40.4203 64.3797 40.7864C64.5786 40.9632 64.7558 41.097 64.8775 41.183C64.9378 41.2256 64.983 41.2554 65.0086 41.2719C65.0155 41.2764 65.0209 41.2798 65.0248 41.2822C65.0274 41.2838 65.0292 41.285 65.0304 41.2857C65.9724 41.8516 66.2818 43.0729 65.7208 44.0196C65.1577 44.9699 63.9309 45.2837 62.9806 44.7206L64.0002 43C62.9806 44.7206 62.9797 44.72 62.9787 44.7195L62.9766 44.7182L62.972 44.7154L62.9608 44.7087L62.931 44.6905C62.908 44.6763 62.8786 44.6579 62.8436 44.6353C62.7735 44.5903 62.6803 44.5283 62.5693 44.4498C62.3481 44.2936 62.0508 44.0681 61.7223 43.7761C61.0794 43.2047 60.2436 42.3136 59.6674 41.1186C59.074 39.8878 58.7629 38.3393 59.2167 36.5912C59.6617 34.8772 60.7876 33.1797 62.6715 31.5052C64.1626 30.1797 64.7242 29.1272 64.9121 28.4037C65.091 27.7143 64.9802 27.1377 64.7299 26.6186C64.4623 26.0636 64.0326 25.5797 63.6207 25.2136C63.4219 25.0368 63.2446 24.903 63.123 24.817C63.0627 24.7744 63.0174 24.7446 62.9919 24.7281C62.9804 24.7207 62.973 24.7161 62.9701 24.7143C62.0281 24.1484 61.7186 22.9271 62.2796 21.9804Z" fill="#1C3553"/>
<path fill-rule="evenodd" clip-rule="evenodd" d="M90.2796 21.9804C90.8428 21.0302 92.0696 20.7163 93.0198 21.2794L92.0122 22.9799C93.0198 21.2794 93.0208 21.28 93.0218 21.2806L93.0238 21.2818L93.0285 21.2846L93.0397 21.2913L93.0694 21.3095C93.0924 21.3237 93.1218 21.3421 93.1569 21.3647C93.2269 21.4097 93.3201 21.4717 93.4312 21.5502C93.6523 21.7064 93.9497 21.9319 94.2782 22.2239C94.921 22.7953 95.7569 23.6864 96.333 24.8814C96.9265 26.1123 97.2375 27.6607 96.7837 29.4088C96.3387 31.1228 95.2128 32.8203 93.329 34.4948C91.8378 35.8203 91.2762 36.8728 91.0884 37.5963C90.9094 38.2857 91.0202 38.8623 91.2705 39.3814C91.5381 39.9364 91.9679 40.4203 92.3797 40.7864C92.5786 40.9632 92.7558 41.097 92.8775 41.183C92.9378 41.2256 92.983 41.2554 93.0086 41.2719C93.0155 41.2764 93.0209 41.2798 93.0248 41.2822C93.0274 41.2838 93.0292 41.285 93.0304 41.2857C93.9724 41.8516 94.2818 43.0729 93.7208 44.0196C93.1577 44.9699 91.9309 45.2837 90.9806 44.7206L92.0002 43C90.9806 44.7206 90.9797 44.72 90.9787 44.7195L90.9766 44.7182L90.972 44.7154L90.9608 44.7087L90.931 44.6905C90.908 44.6763 90.8786 44.6579 90.8436 44.6353C90.7735 44.5903 90.6803 44.5283 90.5693 44.4498C90.3481 44.2936 90.0508 44.0681 89.7223 43.7761C89.0794 43.2047 88.2436 42.3136 87.6674 41.1186C87.074 39.8878 86.7629 38.3393 87.2167 36.5912C87.6617 34.8772 88.7876 33.1797 90.6715 31.5052C92.1626 30.1797 92.7242 29.1272 92.9121 28.4037C93.091 27.7143 92.9802 27.1377 92.7299 26.6186C92.4623 26.0636 92.0326 25.5797 91.6207 25.2136C91.4219 25.0368 91.2446 24.903 91.123 24.817C91.0627 24.7744 91.0174 24.7446 90.9919 24.7281C90.9804 24.7207 90.973 24.7161 90.9701 24.7143C90.0281 24.1484 89.7186 22.9271 90.2796 21.9804Z" fill="#1C3553"/>
<path fill-rule="evenodd" clip-rule="evenodd" d="M76.2619 16.011C76.8081 15.0509 78.0291 14.7154 78.9892 15.2616L78.0003 17C78.9892 15.2616 78.9902 15.2621 78.9912 15.2627L78.9934 15.264L78.9986 15.267L79.0122 15.2748L79.0513 15.2978C79.0826 15.3163 79.1243 15.3414 79.1752 15.3728C79.2769 15.4357 79.4162 15.5245 79.5844 15.6386C79.9196 15.866 80.3755 16.1977 80.8805 16.6286C81.8745 17.4768 83.1406 18.7787 84.0063 20.5024C84.8918 22.2656 85.3534 24.4709 84.677 26.9721C84.0118 29.4319 82.3065 31.9545 79.2985 34.5214C76.6815 36.7545 75.5743 38.6319 75.1848 40.0721C74.8065 41.4709 75.0481 42.6656 75.5688 43.7024C76.1093 44.7787 76.9526 45.6768 77.7165 46.3286C78.0904 46.6477 78.4255 46.891 78.6615 47.0511C78.779 47.1308 78.8705 47.1888 78.928 47.2244C78.9567 47.2421 78.9769 47.2542 78.9874 47.2605L78.9945 47.2646L78.9909 47.2626C78.9924 47.2634 78.994 47.2643 78.9955 47.2652C79.9508 47.8131 80.2836 49.031 79.7387 49.9889C79.1925 50.949 77.9714 51.2845 77.0113 50.7384L78.0003 49C77.0113 50.7384 77.0104 50.7378 77.0094 50.7373L77.0071 50.736L77.0019 50.733L76.9884 50.7252L76.9492 50.7022C76.9179 50.6837 76.8763 50.6586 76.8253 50.6271C76.7236 50.5643 76.5843 50.4755 76.4162 50.3614C76.0809 50.134 75.625 49.8023 75.12 49.3714C74.126 48.5232 72.8599 47.2213 71.9943 45.4976C71.1087 43.7344 70.6471 41.5291 71.3235 39.0279C71.9887 36.5681 73.694 34.0454 76.702 31.4786C79.319 29.2454 80.4262 27.3681 80.8157 25.9279C81.194 24.5291 80.9525 23.3344 80.4318 22.2976C79.8912 21.2213 79.0479 20.3232 78.2841 19.6714C77.9101 19.3523 77.575 19.109 77.339 18.9489C77.2215 18.8692 77.1301 18.8111 77.0725 18.7756C77.0438 18.7578 77.0237 18.7458 77.0131 18.7395L77.005 18.7348M76.2619 16.011C75.7169 16.969 76.0498 18.1869 77.005 18.7348L76.2619 16.011ZM77.005 18.7348C77.005 18.7348 77.005 18.7348 77.006 18.7353L77.0082 18.7366" fill="#1C3553"/>
<path fill-rule="evenodd" clip-rule="evenodd" d="M32 65C32 60.5817 35.5817 57 40 57H118C122.418 57 126 60.5817 126 65V126C126 130.418 122.418 134 118 134H40C35.5817 134 32 130.418 32 126V65ZM40 61C37.7909 61 36 62.7909 36 65V126C36 128.209 37.7909 130 40 130H118C120.209 130 122 128.209 122 126V65C122 62.7909 120.209 61 118 61H40Z" fill="#1C3553"/>
<path fill-rule="evenodd" clip-rule="evenodd" d="M52 65C53.1046 65 54 65.8954 54 67V124C54 125.105 53.1046 126 52 126C50.8954 126 50 125.105 50 124V67C50 65.8954 50.8954 65 52 65Z" fill="#1C3553"/>
<path fill-rule="evenodd" clip-rule="evenodd" d="M70 65C71.1046 65 72 65.8954 72 67V124C72 125.105 71.1046 126 70 126C68.8954 126 68 125.105 68 124V67C68 65.8954 68.8954 65 70 65Z" fill="#1C3553"/>
<path fill-rule="evenodd" clip-rule="evenodd" d="M88 65C89.1046 65 90 65.8954 90 67V124C90 125.105 89.1046 126 88 126C86.8954 126 86 125.105 86 124V67C86 65.8954 86.8954 65 88 65Z" fill="#1C3553"/>
<path fill-rule="evenodd" clip-rule="evenodd" d="M106 65C107.105 65 108 65.8954 108 67V124C108 125.105 107.105 126 106 126C104.895 126 104 125.105 104 124V67C104 65.8954 104.895 65 106 65Z" fill="#1C3553"/>
</svg>
