<svg width="156" height="156" viewBox="0 0 156 156" fill="none" xmlns="http://www.w3.org/2000/svg">
<path fill-rule="evenodd" clip-rule="evenodd" d="M127.78 82.6695L123.5 78L110.5 86.5L105 94L103 100.5L98.9998 103L96.4998 107.5L90.4998 109L86.9998 113L75.4998 109L70.9998 111.75L65.9998 109H59.9998L49.9998 100.5L45.9998 92.5L43.9998 86.5L34.4998 76L30.2344 82.8248C32.6579 107.622 53.5659 127 78.9999 127C104.487 127 125.429 107.541 127.78 82.6695ZM111.346 41.1924L105 45L109 52L103 56H83.4998L72.4998 61L58.9998 57L47.4998 53.5L51.9998 45L46.251 41.5507C54.9298 33.7478 66.4103 29 78.9998 29C91.3955 29 102.716 33.6028 111.346 41.1924Z" fill="#C2DDFF"/>
<path fill-rule="evenodd" clip-rule="evenodd" d="M78.9996 25C68.3313 25 58.4047 28.15 50.092 33.57C49.1667 34.1733 47.9276 33.9123 47.3243 32.987C46.721 32.0617 46.982 30.8226 47.9073 30.2193C56.8501 24.3885 67.5322 21 78.9996 21C90.5385 21 101.282 24.4308 110.259 30.3285C111.182 30.935 111.439 32.175 110.832 33.0982C110.226 34.0213 108.986 34.278 108.062 33.6715C99.7181 28.1893 89.7344 25 78.9996 25ZM133.121 88.0478C134.199 88.2877 134.879 89.3562 134.639 90.4344C128.964 115.934 106.211 135 78.9996 135C52.5305 135 30.28 116.96 23.8629 92.5077C23.5825 91.4393 24.2213 90.3459 25.2897 90.0655C26.3581 89.7851 27.4515 90.4239 27.7319 91.4923C33.6989 114.23 54.3934 131 78.9996 131C104.297 131 125.458 113.275 130.734 89.5656C130.974 88.4874 132.043 87.8078 133.121 88.0478Z" fill="#1C3553"/>
<path fill-rule="evenodd" clip-rule="evenodd" d="M73.1036 63.5847C75.2507 62.3695 77.4584 61.1201 79.4727 59.9571C80.6608 59.2712 82.4642 58.6916 84.6673 58.2598C86.838 57.8344 89.2597 57.578 91.5912 57.4673C93.9234 57.3565 96.12 57.3936 97.8344 57.5398C98.6942 57.6131 99.3989 57.7111 99.9226 57.8214C100.414 57.9249 100.592 58.0088 100.594 58.0044C100.595 58.0034 100.587 57.998 100.571 57.9875C101.213 58.4248 102.05 58.4508 102.718 58.0544L110.021 53.7198C110.97 53.156 111.283 51.9289 110.719 50.9791C110.156 50.0293 108.929 49.7163 107.979 50.2801L101.536 54.1045C101.264 54.0231 100.995 53.9594 100.746 53.9071C100.01 53.7521 99.1319 53.636 98.1744 53.5543C96.2541 53.3905 93.8777 53.3542 91.4015 53.4718C88.9247 53.5894 86.3029 53.8631 83.8979 54.3345C81.5254 54.7995 79.2211 55.4836 77.4727 56.493C75.5729 57.5899 73.4402 58.7971 71.331 59.9911C67.1504 62.3575 63.0625 64.6715 61.0658 65.9688C60.9582 66.0387 60.8575 66.1188 60.7652 66.2081C58.2201 68.669 58.654 72.2311 60.0171 74.5921C61.3802 76.953 64.2481 79.1099 67.6519 78.1362C67.7369 78.1119 67.8202 78.082 67.9012 78.0466L82.2806 71.7773C84.0751 72.9416 86.6586 74.2579 89.5858 75.0974C93.0839 76.1008 97.2928 76.4833 101.261 74.8493C102.283 74.4287 102.77 73.2598 102.349 72.2385C101.928 71.2171 100.76 70.73 99.7382 71.1506C96.9065 72.3166 93.6987 72.1158 90.6885 71.2525C87.6855 70.3911 85.0978 68.9301 83.6861 67.8898C83.1114 67.4664 82.3546 67.3813 81.7003 67.6666L66.4464 74.3173C65.4748 74.5345 64.2849 73.9842 63.4812 72.5921C62.6917 71.2246 62.7919 69.9404 63.4346 69.2009C65.3906 67.95 69.1442 65.8256 73.1036 63.5847ZM52.5146 78.0597C52.1975 78.1389 51.9047 78.2947 51.6617 78.5134L44.5638 84.9015C42.1428 87.0804 41.9024 90.7929 44.0221 93.266L46.6585 96.3418C46.4938 97.2451 46.6967 98.1405 46.9367 98.7883C47.3648 99.9444 48.1558 101.089 48.9811 102.052C49.8232 103.034 50.8102 103.954 51.7571 104.646C52.23 104.992 52.7284 105.306 53.2234 105.543C53.3416 105.599 53.4715 105.657 53.6113 105.712C53.8384 106.13 54.1542 106.657 54.5676 107.229C55.5091 108.532 57.0217 110.156 59.2302 111.183C61.0734 112.04 62.9561 111.501 64.2815 110.559C65.6986 112.616 67.8606 113.731 69.3046 114.29C71.4227 115.11 73.5403 114.288 74.8679 112.96L81.4139 106.414C81.7889 106.039 81.9997 105.53 81.9997 105C81.9997 102.457 81.0263 100.403 79.4534 99.0051C78.4031 98.0716 77.14 97.4772 75.8304 97.1947C75.4886 95.4108 74.6366 93.8075 73.3376 92.6384C72.1049 91.5289 70.5405 90.878 68.8135 90.8119C68.4065 88.5233 67.3437 86.6643 65.7346 85.5C64.5384 84.6345 63.1564 84.2408 61.7569 84.299C61.5372 82.741 60.7929 81.3272 59.7589 80.244C58.0203 78.4227 55.3059 77.3618 52.5146 78.0597ZM60.6426 88.6545C61.7195 88.0978 62.6835 88.2296 63.3898 88.7406C64.0714 89.2338 64.7929 90.2946 64.9625 92.1542L54.5422 101.706C54.4133 101.625 54.2711 101.529 54.1172 101.416C53.4391 100.921 52.6761 100.216 52.0182 99.4484C51.3435 98.6613 50.8845 97.9305 50.6877 97.3991C50.6638 97.3346 50.6458 97.2801 50.6324 97.2346L60.6426 88.6545ZM50.5963 97.0783C50.5983 97.0558 50.5966 97.0426 50.5953 97.0417C50.5939 97.0408 50.5929 97.052 50.5963 97.0783ZM49.2166 93.1799L47.0591 90.6628C46.3525 89.8385 46.4327 88.6009 47.2397 87.8746L53.9188 81.8634C54.9938 81.7496 56.0845 82.1878 56.8654 83.0059C57.628 83.8048 57.9753 84.8326 57.7552 85.861L49.2166 93.1799ZM57.4953 104.425L67.9421 94.8492C69.0991 94.6797 70.0072 95.0224 70.6617 95.6115C71.2889 96.176 71.7774 97.0578 71.9408 98.1741L68.3574 101.459L65.186 104.366L65.1848 104.367L62.1528 107.146C61.8995 107.379 61.6239 107.521 61.3917 107.578C61.1734 107.632 61.0252 107.606 60.9168 107.556C59.5308 106.912 58.5063 105.851 57.8096 104.886C57.6941 104.727 57.5894 104.572 57.4953 104.425ZM74.718 101.055C75.5161 101.178 76.244 101.504 76.7959 101.995C77.3448 102.483 77.7947 103.197 77.9455 104.226L72.0395 110.132C71.5402 110.631 71.0399 110.672 70.7486 110.559C69.388 110.033 68.0032 109.176 67.3141 107.841L74.718 101.055ZM125.516 75.8571C124.964 74.9005 123.741 74.5727 122.784 75.125C119.203 77.1928 117.136 79.1474 115.449 80.7422C115.219 80.9607 114.995 81.1724 114.775 81.3767C113.044 82.9875 111.537 84.1949 108.45 85.0769C107.388 85.3803 106.773 86.4873 107.077 87.5494C107.38 88.6115 108.487 89.2264 109.549 88.923C113.462 87.805 115.509 86.1576 117.5 84.3053C117.735 84.086 117.969 83.8652 118.205 83.6426C119.869 82.0715 121.625 80.413 124.784 78.5891C125.741 78.0368 126.068 76.8136 125.516 75.8571Z" fill="#1C3553"/>
<path fill-rule="evenodd" clip-rule="evenodd" d="M127.252 31.0386C126.697 30.8386 126.083 30.8932 125.573 31.1878L104.456 43.3794C103.996 43.6449 103.661 44.0824 103.524 44.5955C103.387 45.1085 103.46 45.655 103.726 46.1144L125.296 83.3263C126.379 85.1952 128.751 85.8663 130.653 84.8423L140.46 79.5621C143.094 78.1439 144.281 75.002 143.243 72.1964L128.448 32.2256C128.244 31.673 127.806 31.2387 127.252 31.0386ZM125.52 35.8371L139.492 73.5849C139.838 74.5201 139.442 75.5674 138.564 76.0401L128.757 81.3203L108.191 45.8418L112.376 43.4259L129.67 73.3812C130.222 74.3378 131.446 74.6655 132.402 74.1132C133.359 73.5609 133.686 72.3378 133.134 71.3812L115.84 41.4259L125.52 35.8371Z" fill="#1C3553"/>
<path fill-rule="evenodd" clip-rule="evenodd" d="M78.7108 102.106C79.2048 101.118 80.4062 100.717 81.3941 101.211L91.3941 106.211C92.2325 106.63 92.6673 107.576 92.44 108.485C91.8437 110.87 90.6671 112.618 88.9417 113.631C87.2611 114.617 85.3631 114.726 83.6524 114.48C80.291 113.996 76.8557 112.032 74.8576 110.642C73.9508 110.011 73.7271 108.765 74.3579 107.858C74.9887 106.951 76.2351 106.727 77.1418 107.358C78.977 108.635 81.7917 110.171 84.222 110.52C85.4071 110.691 86.2904 110.549 86.917 110.181C87.2784 109.969 87.6685 109.615 88.009 108.991L79.6053 104.789C78.6173 104.295 78.2169 103.094 78.7108 102.106Z" fill="#1C3553"/>
<path fill-rule="evenodd" clip-rule="evenodd" d="M59.6563 55.0227C64.1944 55.9878 69.431 57.3653 73.2537 60.4419C74.1142 61.1345 74.2504 62.3935 73.5578 63.254C72.8653 64.1144 71.6063 64.2506 70.7458 63.558C67.7428 61.1411 63.3795 59.904 58.8242 58.9352C57.9591 58.7512 57.0658 58.5726 56.181 58.3956C54.8475 58.129 53.5331 57.8662 52.3631 57.5946C50.4036 57.1397 48.4774 56.5846 47.0006 55.732C46.0441 55.1797 45.7163 53.9566 46.2686 53C46.8209 52.0434 48.0441 51.7156 49.0006 52.2679C49.9235 52.8008 51.3438 53.2516 53.2675 53.6982C54.4039 53.962 55.5876 54.1981 56.8521 54.4503C57.7428 54.628 58.6736 54.8137 59.6563 55.0227ZM91.9294 73.4128C96.9953 76.333 103.263 79.9487 108.068 82.7288C108.95 83.2394 109.818 84.0328 110.318 85.1459C111.151 86.9973 111.337 88.7129 110.866 90.24C110.4 91.7505 109.384 92.7734 108.401 93.4378C107.813 93.8358 107.2 94.1311 106.641 94.3495C106.957 96.0704 106.661 97.9222 105.938 99.4708C105 101.48 103.215 103.262 100.689 103.82C100.471 104.621 100.089 105.66 99.414 106.672C98.677 107.777 97.5775 108.867 95.9772 109.539C94.3774 110.211 92.4374 110.398 90.1309 109.966C89.0453 109.762 88.3302 108.717 88.5338 107.631C88.7373 106.546 89.7824 105.831 90.8681 106.034C92.5616 106.352 93.6843 106.164 94.4284 105.851C95.172 105.539 95.6979 105.035 96.0861 104.453C96.3881 104 96.5979 103.511 96.741 103.067L81.1013 94.7868L81.0997 94.786L81.0981 94.7851L81.0965 94.7843L81.0936 94.7828L81.0922 94.782L81.0896 94.7806L81.0883 94.78L81.0859 94.7787L81.0837 94.7775L81.0827 94.777L81.0807 94.7759L81.0798 94.7754L81.0789 94.775L81.0757 94.7733L81.0743 94.7725L81.073 94.7718L81.0718 94.7712L81.0708 94.7707L81.0698 94.7702L81.0686 94.7696L81.0676 94.769L81.0666 94.7685L81.0656 94.7679C80.0894 94.2511 79.7163 93.0404 80.2331 92.0642C80.7499 91.088 81.9602 90.7156 82.9364 91.2324L82.9374 91.2329L82.9384 91.2335L82.9395 91.234L82.9406 91.2346L82.9419 91.2353L82.9428 91.2358L82.9439 91.2364L82.9452 91.237L82.9465 91.2377L82.9496 91.2394L82.9513 91.2403L82.9523 91.2408L82.9542 91.2418L82.9553 91.2424L82.9575 91.2436L82.9587 91.2442L82.9599 91.2448L82.9638 91.2469L82.9652 91.2476L82.9681 91.2492L82.9696 91.25L82.9712 91.2508L82.9728 91.2517L99.4492 99.9745C100.788 99.8194 101.758 98.969 102.313 97.7792C102.879 96.5672 102.872 95.3099 102.534 94.4868L86.0649 85.7675C85.0887 85.2507 84.7163 84.0404 85.2331 83.0642C85.7499 82.088 86.9602 81.7156 87.9364 82.2324L104.31 90.901C104.383 90.8828 104.462 90.8621 104.544 90.8387C105.067 90.6903 105.667 90.4581 106.161 90.1241C106.646 89.796 106.926 89.4434 107.044 89.0606C107.157 88.6945 107.216 87.9991 106.67 86.7868C106.591 86.6112 106.405 86.3881 106.064 86.191C101.263 83.4126 94.9974 79.7983 89.9317 76.8782C87.399 75.4183 85.1665 74.132 83.5672 73.2107L81.0025 71.7336C81.0024 71.7336 81.0018 71.7332 81.9997 70C82.9977 68.2668 82.9977 68.2668 82.9979 68.2669L85.5637 69.7447C87.1634 70.6661 89.3962 71.9526 91.9294 73.4128ZM81.9997 70L82.9979 68.2669C82.0406 67.7157 80.8176 68.0448 80.2665 69.002C79.7153 69.9593 80.0452 71.1825 81.0025 71.7336L81.9997 70ZM32.4893 75.8661C33.0416 74.9095 34.2647 74.5818 35.2213 75.1341C39.3995 77.5463 40.8988 79.6656 41.9491 81.6035C42.0871 81.858 42.2052 82.083 42.3123 82.2871C42.6077 82.8499 42.8199 83.2541 43.1365 83.6828C43.5065 84.1837 44.0263 84.7054 45.0007 85.268C45.9573 85.8203 46.285 87.0435 45.7327 88.0001C45.1804 88.9566 43.9573 89.2844 43.0007 88.7321C41.5755 87.9093 40.6329 87.0257 39.9191 86.0594C39.4022 85.3597 39.0012 84.5925 38.6746 83.9675C38.589 83.8039 38.5086 83.6499 38.4325 83.5096C37.7127 82.1815 36.7219 80.6192 33.2213 78.5982C32.2647 78.0459 31.937 76.8227 32.4893 75.8661Z" fill="#1C3553"/>
<path fill-rule="evenodd" clip-rule="evenodd" d="M30.7133 31.1188C31.2676 30.9187 31.8819 30.9733 32.3922 31.268L53.5087 43.4595C54.4653 44.0118 54.793 45.235 54.2407 46.1916L32.52 83.8129C31.4155 85.7261 28.9691 86.3816 27.0559 85.277L17.3132 79.6521C14.7809 78.19 13.6713 75.1154 14.6863 72.3732L29.5166 32.3058C29.7211 31.7531 30.159 31.3188 30.7133 31.1188ZM32.4451 35.9173L18.4376 73.7617C18.0992 74.6757 18.4691 75.7006 19.3132 76.188L29.0559 81.8129L49.7766 45.9236L45.5893 43.5061L28.2948 73.4613C27.7425 74.4179 26.5193 74.7457 25.5627 74.1934C24.6062 73.6411 24.2784 72.4179 24.8307 71.4613L42.1252 41.5061L32.4451 35.9173Z" fill="#1C3553"/>
</svg>
