<svg width="156" height="156" viewBox="0 0 156 156" fill="none" xmlns="http://www.w3.org/2000/svg">
<path d="M40 68C40 66.3431 41.3431 65 43 65C44.6569 65 46 66.3431 46 68V123C46 124.657 44.6569 126 43 126C41.3431 126 40 124.657 40 123V68Z" fill="#C2DDFF"/>
<path d="M58 68C58 66.3431 59.3431 65 61 65C62.6569 65 64 66.3431 64 68V123C64 124.657 62.6569 126 61 126C59.3431 126 58 124.657 58 123V68Z" fill="#C2DDFF"/>
<path d="M76 68C76 66.3431 77.3431 65 79 65C80.6569 65 82 66.3431 82 68V123C82 124.657 80.6569 126 79 126C77.3431 126 76 124.657 76 123V68Z" fill="#C2DDFF"/>
<path d="M94 68C94 66.3431 95.3431 65 97 65C98.6569 65 100 66.3431 100 68V123C100 124.657 98.6569 126 97 126C95.3431 126 94 124.657 94 123V68Z" fill="#C2DDFF"/>
<path d="M112 68C112 66.3431 113.343 65 115 65C116.657 65 118 66.3431 118 68V123C118 124.657 116.657 126 115 126C113.343 126 112 124.657 112 123V68Z" fill="#C2DDFF"/>
<path fill-rule="evenodd" clip-rule="evenodd" d="M43.0005 130C46.8665 130 50.0005 126.866 50.0005 123L50.0005 68C50.0005 64.134 46.8665 61 43.0005 61C39.1345 61 36.0005 64.134 36.0005 68L36.0005 123C36.0005 126.866 39.1345 130 43.0005 130ZM54.0005 123C54.0005 129.075 49.0756 134 43.0005 134C36.9254 134 32.0005 129.075 32.0005 123L32.0005 68C32.0005 61.9249 36.9254 57 43.0005 57C49.0756 57 54.0005 61.9249 54.0005 68L54.0005 123Z" fill="#1C3553"/>
<path fill-rule="evenodd" clip-rule="evenodd" d="M61 130C64.866 130 68 126.866 68 123L68 68C68 64.134 64.866 61 61 61C57.134 61 54 64.134 54 68L54 123C54 126.866 57.134 130 61 130ZM72 123C72 129.075 67.0751 134 61 134C54.9249 134 50 129.075 50 123L50 68C50 61.9249 54.9249 57 61 57C67.0751 57 72 61.9249 72 68L72 123Z" fill="#1C3553"/>
<path fill-rule="evenodd" clip-rule="evenodd" d="M79 130C82.866 130 86 126.866 86 123L86 68C86 64.134 82.866 61 79 61C75.134 61 72 64.134 72 68L72 123C72 126.866 75.134 130 79 130ZM90 123C90 129.075 85.0751 134 79 134C72.9249 134 68 129.075 68 123L68 68C68 61.9249 72.9249 57 79 57C85.0751 57 90 61.9249 90 68L90 123Z" fill="#1C3553"/>
<path fill-rule="evenodd" clip-rule="evenodd" d="M97 130C100.866 130 104 126.866 104 123L104 68C104 64.134 100.866 61 97 61C93.134 61 90 64.134 90 68L90 123C90 126.866 93.134 130 97 130ZM108 123C108 129.075 103.075 134 97 134C90.9249 134 86 129.075 86 123L86 68C86 61.9249 90.9249 57 97 57C103.075 57 108 61.9249 108 68L108 123Z" fill="#1C3553"/>
<path fill-rule="evenodd" clip-rule="evenodd" d="M115 130C118.866 130 122 126.866 122 123L122 68C122 64.134 118.866 61 115 61C111.134 61 108 64.134 108 68L108 123C108 126.866 111.134 130 115 130ZM126 123C126 129.075 121.075 134 115 134C108.925 134 104 129.075 104 123L104 68C104 61.9249 108.925 57 115 57C121.075 57 126 61.9249 126 68L126 123Z" fill="#1C3553"/>
<path fill-rule="evenodd" clip-rule="evenodd" d="M122 78C122 76.8954 122.895 76 124 76L133 76L133 69C133 67.8954 133.895 67 135 67C136.105 67 137 67.8954 137 69L137 78C137 79.1046 136.105 80 135 80L124 80C122.895 80 122 79.1046 122 78Z" fill="#1C3553"/>
<path fill-rule="evenodd" clip-rule="evenodd" d="M23.0003 74C23.0003 72.8954 23.8957 72 25.0003 72H34.0001C35.1047 72 36.0001 72.8954 36.0001 74C36.0001 75.1046 35.1047 76 34.0001 76H27.0003V80H34.0001C35.1047 80 36.0001 80.8954 36.0001 82C36.0001 83.1046 35.1047 84 34.0001 84H25.0003C23.8957 84 23.0003 83.1046 23.0003 82V74Z" fill="#1C3553"/>
<path fill-rule="evenodd" clip-rule="evenodd" d="M19 78C19 76.8954 19.8954 76 21 76H25C26.1046 76 27 76.8954 27 78C27 79.1046 26.1046 80 25 80H21C19.8954 80 19 79.1046 19 78Z" fill="#1C3553"/>
<path fill-rule="evenodd" clip-rule="evenodd" d="M61.0026 21.8907C61.6153 20.9716 62.857 20.7233 63.7761 21.336L62.6667 23.0001C63.7761 21.336 63.777 21.3366 63.778 21.3373L63.7801 21.3387L63.7847 21.3418L63.7956 21.3492L63.824 21.3687C63.8457 21.3838 63.8731 21.4031 63.9056 21.4266C63.9705 21.4736 64.0559 21.5375 64.1573 21.618C64.3591 21.7785 64.6283 22.0083 64.9246 22.3046C65.5077 22.8876 66.2487 23.781 66.755 24.9623C67.2726 26.17 67.5366 27.6664 67.1467 29.3561C66.761 31.0273 65.7746 32.7206 64.0809 34.4143C62.7746 35.7206 62.261 36.7773 62.0842 37.5436C61.9116 38.2914 62.0226 38.92 62.255 39.4623C62.4987 40.031 62.8827 40.5126 63.2371 40.8671C63.4096 41.0396 63.5622 41.1691 63.6651 41.2508C63.7161 41.2914 63.7537 41.3193 63.7738 41.3338L63.789 41.3447C64.6975 41.9604 64.9406 43.1948 64.3308 44.1095C63.7181 45.0285 62.4763 45.2769 61.5573 44.6642L62.6667 43.0001C61.5573 44.6642 61.5563 44.6635 61.5553 44.6629L61.5532 44.6615L61.5486 44.6584L61.5377 44.651L61.5094 44.6315C61.4876 44.6164 61.4602 44.5971 61.4277 44.5736C61.3629 44.5266 61.2774 44.4627 61.1761 44.3821C60.9743 44.2217 60.705 43.9919 60.4087 43.6956C59.8257 43.1125 59.0846 42.2192 58.5784 41.0379C58.0608 39.8302 57.7967 38.3338 58.1866 36.6441C58.5723 34.9729 59.5587 33.2796 61.2525 31.5859C62.5587 30.2796 63.0723 29.2229 63.2491 28.4566C63.4217 27.7088 63.3108 27.0802 63.0784 26.5379C62.8346 25.9692 62.4507 25.4875 62.0962 25.1331C61.9238 24.9606 61.7711 24.8311 61.6683 24.7493C61.6172 24.7088 61.5797 24.6809 61.5596 24.6664L61.5443 24.6555C60.6359 24.0398 60.3928 22.8054 61.0026 21.8907Z" fill="#1C3553"/>
<path fill-rule="evenodd" clip-rule="evenodd" d="M90.6696 21.8907C91.2823 20.9716 92.524 20.7233 93.4431 21.336L92.3337 23.0001C93.4431 21.336 93.444 21.3366 93.445 21.3373L93.4471 21.3387L93.4517 21.3418L93.4626 21.3492L93.491 21.3687C93.5127 21.3838 93.5401 21.4031 93.5726 21.4266C93.6375 21.4736 93.7229 21.5375 93.8242 21.618C94.0261 21.7785 94.2953 22.0083 94.5916 22.3046C95.1747 22.8876 95.9157 23.781 96.422 24.9623C96.9396 26.17 97.2036 27.6664 96.8137 29.3561C96.428 31.0273 95.4416 32.7206 93.7479 34.4143C92.4416 35.7206 91.928 36.7773 91.7512 37.5436C91.5786 38.2914 91.6896 38.92 91.922 39.4623C92.1657 40.031 92.5497 40.5126 92.9041 40.8671C93.0766 41.0396 93.2292 41.1691 93.3321 41.2508C93.3831 41.2914 93.4207 41.3193 93.4408 41.3338L93.456 41.3447C94.3644 41.9604 94.6076 43.1948 93.9978 44.1095C93.3851 45.0285 92.1433 45.2769 91.2243 44.6642L92.3337 43.0001C91.2243 44.6642 91.2233 44.6635 91.2223 44.6629L91.2202 44.6615L91.2156 44.6584L91.2047 44.651L91.1763 44.6315C91.1546 44.6164 91.1272 44.5971 91.0947 44.5736C91.0299 44.5266 90.9444 44.4627 90.8431 44.3821C90.6413 44.2217 90.372 43.9919 90.0757 43.6956C89.4927 43.1125 88.7516 42.2192 88.2454 41.0379C87.7278 39.8302 87.4637 38.3338 87.8536 36.6441C88.2393 34.9729 89.2257 33.2796 90.9195 31.5859C92.2257 30.2796 92.7393 29.2229 92.9161 28.4566C93.0887 27.7088 92.9778 27.0802 92.7454 26.5379C92.5016 25.9692 92.1177 25.4875 91.7632 25.1331C91.5908 24.9606 91.4381 24.8311 91.3353 24.7493C91.2842 24.7088 91.2467 24.6809 91.2266 24.6664L91.2113 24.6555C90.3029 24.0398 90.0597 22.8054 90.6696 21.8907Z" fill="#1C3553"/>
<path fill-rule="evenodd" clip-rule="evenodd" d="M75.2324 16.0643C75.7492 15.0881 76.9595 14.7156 77.9357 15.2324L77 17C77.9357 15.2324 77.9367 15.233 77.9378 15.2335L77.9401 15.2347L77.9454 15.2376L77.9593 15.2451L77.9992 15.2669C78.0311 15.2845 78.0734 15.3083 78.1251 15.3381C78.2284 15.3978 78.3696 15.4821 78.54 15.5907C78.8798 15.8073 79.342 16.1242 79.8547 16.5391C80.8635 17.3556 82.1529 18.6198 83.0435 20.3235C83.9562 22.0693 84.4379 24.2634 83.7886 26.7808C83.1511 29.2524 81.4783 31.824 78.5012 34.49C75.8918 36.8267 74.7647 38.7646 74.3588 40.247C73.9652 41.6844 74.1997 42.8705 74.6902 43.8665C75.2016 44.9051 76.0075 45.7586 76.7411 46.3741C77.1002 46.6753 77.4223 46.903 77.6486 47.052C77.7613 47.1261 77.8486 47.1797 77.903 47.2121C77.9302 47.2283 77.949 47.2392 77.9585 47.2445C77.9615 47.2463 77.9636 47.2475 77.9647 47.2481C78.9291 47.779 79.2835 48.9904 78.7558 49.9577C78.2269 50.9274 77.012 51.2848 76.0423 50.7558L77 49C76.0423 50.7558 76.0413 50.7553 76.0402 50.7547L76.0379 50.7534L76.0325 50.7505L76.0187 50.7428L75.9791 50.7205C75.9476 50.7026 75.906 50.6785 75.8554 50.6483C75.7541 50.5879 75.616 50.5028 75.4497 50.3934C75.1181 50.1751 74.668 49.856 74.1703 49.4385C73.1905 48.6165 71.9443 47.3449 71.1016 45.6335C70.2379 43.8795 69.8162 41.6906 70.5009 39.1906C71.1731 36.7355 72.8587 34.1734 75.8328 31.5101C78.4392 29.1761 79.5373 27.2477 79.9154 25.7818C80.2817 24.3616 80.0237 23.1808 79.4987 22.1766C78.9517 21.1303 78.1056 20.2695 77.3382 19.6484C76.9628 19.3446 76.6268 19.1147 76.3904 18.964C76.2727 18.889 76.1813 18.8347 76.124 18.8016C76.0954 18.7851 76.0755 18.7739 76.0651 18.7682L76.0576 18.7641C75.0864 18.2453 74.7168 17.0383 75.2324 16.0643Z" fill="#1C3553"/>
</svg>
