<svg width="156" height="156" viewBox="0 0 156 156" fill="none" xmlns="http://www.w3.org/2000/svg">
<g clip-path="url(#clip0)">
<path d="M83.2057 92.7252L80.0275 89.547L33.9027 135.672C33.1217 136.453 31.8554 136.453 31.0743 135.672L25.7806 130.378C24.9996 129.597 24.9996 128.331 25.7806 127.55L71.9054 81.4249L68.374 77.8936L72.2251 67.686C65.6538 58.4369 54.8149 54.9621 50.2169 54.3808C61.0166 46.9712 74.0751 55.4774 79.2544 60.6567L97.2643 78.6666L94.9737 84.8334L98.1519 88.0116L103.974 85.3762L109.977 91.3795L95.9185 105.438L89.9152 99.4348L91.9384 94.2379L88.7601 91.0597L83.2057 92.7252Z" fill="#C2DDFF"/>
<path fill-rule="evenodd" clip-rule="evenodd" d="M77.709 16.5757C80.0507 14.1415 83.9394 14.1192 86.3089 16.5263L143.075 74.1939C145.565 76.7227 143.773 81 140.225 81H125V99C125 100.105 124.105 101 123 101C121.895 101 121 100.105 121 99V80C121 78.3431 122.343 77 124 77H140.225L83.4583 19.3324C82.6684 18.53 81.3722 18.5374 80.5916 19.3488L60.162 40.5853C58.2896 42.5317 55 41.2063 55 38.5054V34H43V56.5858C43 57.3814 42.684 58.1445 42.1213 58.7071L23.8285 77H40C41.6569 77 43 78.3431 43 80V102C43 103.105 42.1046 104 41 104C39.8955 104 39 103.105 39 102V81H23.8285C20.2648 81 18.4802 76.6914 21 74.1716L39 56.1716V33C39 31.3431 40.3432 30 42 30H56C57.6569 30 59 31.3431 59 33V36.0235L77.709 16.5757ZM123 105C124.105 105 125 105.895 125 107V125C125 128.314 122.314 131 119 131H53C51.8955 131 51 130.105 51 129C51 127.895 51.8955 127 53 127H119C120.105 127 121 126.105 121 125V107C121 105.895 121.895 105 123 105Z" fill="#1C3553"/>
<path fill-rule="evenodd" clip-rule="evenodd" d="M67.5059 50.9109C73.1119 52.8794 77.9182 56.4921 80.6686 59.2425L98.6785 77.2524C99.2315 77.8054 99.4114 78.6299 99.1391 79.363L97.2954 84.3267L98.5877 85.6189L103.149 83.5542C103.908 83.2108 104.799 83.3733 105.388 83.962L111.391 89.9653C112.172 90.7463 112.172 92.0126 111.391 92.7937L97.3328 106.852C96.5517 107.633 95.2854 107.633 94.5043 106.852L88.501 100.849C87.9401 100.288 87.7637 99.4485 88.0515 98.7092L89.601 94.729L88.1905 93.3185L83.7801 94.6409C83.0754 94.8522 82.3117 94.6596 81.7915 94.1394L80.0275 92.3754L35.317 137.086C33.7549 138.648 31.2222 138.648 29.6601 137.086L24.3664 131.792C22.8043 130.23 22.8043 127.698 24.3664 126.135L69.0769 81.4249L66.9598 79.3078C66.4042 78.7522 66.2254 77.9227 66.5028 77.1876L69.9691 68C63.7783 59.9824 54.0763 56.8846 49.9661 56.365C49.1424 56.2608 48.4687 55.6587 48.2732 54.8519C48.0776 54.045 48.4008 53.2013 49.0854 52.7316C55.18 48.5501 61.8658 48.9303 67.5059 50.9109ZM78.9697 85.6608C78.1887 84.8798 76.9224 84.8798 76.1413 85.6608C75.3603 86.4419 75.3603 87.7082 76.1413 88.4893L77.199 89.547L32.4885 134.258L27.1949 128.964L73.3196 82.8391C74.1006 82.0581 74.1006 80.7917 73.3196 80.0107L70.7009 77.392L74.0964 68.392C74.3313 67.7692 74.241 67.0703 73.8555 66.5277C68.936 59.6034 61.8217 55.7409 56.3111 53.8396C59.5857 53.0961 62.9613 53.5545 66.1806 54.685C71.0987 56.412 75.4113 59.6421 77.8402 62.071L94.9426 79.1733L93.0988 84.137C92.8265 84.87 93.0065 85.6946 93.5595 86.2476L96.7377 89.4258C97.3264 90.0145 98.2182 90.1769 98.9766 89.8336L103.538 87.7688L107.149 91.3795L95.9185 102.61L92.2526 98.9437L93.8021 94.9635C94.0899 94.2242 93.9135 93.3847 93.3526 92.8237L90.1744 89.6455C89.6542 89.1253 88.8904 88.9327 88.1857 89.144L83.7753 90.4664L78.9697 85.6608Z" fill="#1C3553"/>
</g>
<defs>
<clipPath id="clip0">
<rect width="156" height="156" fill="white"/>
</clipPath>
</defs>
</svg>
