<svg width="156" height="156" viewBox="0 0 156 156" fill="none" xmlns="http://www.w3.org/2000/svg">
<path d="M100 105C75.4267 116.584 62.8535 98.3195 60 88.0001H48L53 75.0001H60C66.8483 48.2362 89.7611 51.4009 100 56.7271V68.6488C84.692 58.6623 76.6785 69.0081 75 75.0001H94L89 88.0001H76C82.8483 100.783 94.7966 96.1611 100 92.0001V105Z" fill="#C2DDFF"/>
<path fill-rule="evenodd" clip-rule="evenodd" d="M79.4583 19.3323C78.6684 18.5299 77.3722 18.5374 76.5916 19.3488L56.162 40.5853C54.2896 42.5316 51 41.2062 51 38.5054V34H39V56.5857C39 57.3814 38.684 58.1445 38.1213 58.7071L19.8285 77H36C37.6569 77 39 78.3431 39 80V125C39 126.105 39.8955 127 41 127H115C116.105 127 117 126.105 117 125V107C117 105.895 117.895 105 119 105C120.105 105 121 105.895 121 107V125C121 128.314 118.314 131 115 131H41C37.6863 131 35 128.314 35 125V81H19.8285C16.2648 81 14.4802 76.6914 17 74.1715L35 56.1715V33C35 31.3431 36.3432 30 38 30H52C53.6569 30 55 31.3431 55 33V36.0235L73.709 16.5756C76.0507 14.1414 79.9394 14.1191 82.3089 16.5263L139.075 74.1939C141.565 76.7227 139.773 81 136.225 81H121V99C121 100.105 120.105 101 119 101C117.895 101 117 100.105 117 99V80C117 78.3431 118.343 77 120 77L136.225 77L79.4583 19.3323Z" fill="#1C3553"/>
<path fill-rule="evenodd" clip-rule="evenodd" d="M78.2615 51.885C86.7143 49.855 95.4998 52.1316 100.923 54.9526C101.585 55.2969 102 55.9809 102 56.7269V68.6487C102 69.3827 101.598 70.0577 100.952 70.4073C100.307 70.7569 99.522 70.7248 98.9072 70.3237C91.686 65.6128 86.6229 65.9322 83.2916 67.6171C80.8456 68.8542 79.0672 70.9567 77.9683 72.9999H94C94.6589 72.9999 95.2756 73.3245 95.6486 73.8677C96.0217 74.4108 96.1032 75.1029 95.8667 75.7179L90.8667 88.7179C90.5696 89.4903 89.8276 89.9999 89 89.9999H79.6914C80.7373 91.2935 81.8357 92.2271 82.9367 92.888C84.7393 93.9701 86.6591 94.3874 88.5823 94.3542C92.5033 94.2864 96.3766 92.3366 98.7509 90.438C99.3513 89.9578 100.174 89.8643 100.867 90.1974C101.559 90.5305 102 91.2312 102 91.9999V105C102 105.774 101.553 106.479 100.853 106.809C87.995 112.87 77.9538 111.213 70.7409 106.375C64.2867 102.045 60.3196 95.3218 58.5234 89.9999H48C47.3411 89.9999 46.7244 89.6754 46.3514 89.1322C45.9783 88.589 45.8968 87.897 46.1333 87.282L51.1333 74.282C51.4304 73.5096 52.1725 72.9999 53 72.9999H58.4722C62.232 60.0097 69.92 53.8881 78.2615 51.885ZM62.6521 72.9999H65C66.1046 72.9999 67 73.8954 67 74.9999C67 76.1045 66.1046 76.9999 65 76.9999H54.3736L50.9121 85.9999H65C66.1046 85.9999 67 86.8954 67 87.9999C67 89.1045 66.1046 89.9999 65 89.9999H62.7814C64.5322 94.4351 67.8981 99.6513 72.9692 103.053C78.7043 106.9 86.8725 108.6 98 103.713V95.7097C95.3672 97.148 92.0932 98.294 88.6514 98.3536C86.0811 98.398 83.4045 97.8341 80.8781 96.3176C78.3539 94.8024 76.0898 92.4027 74.2371 88.9444C73.905 88.3246 73.9228 87.5759 74.2841 86.9725C74.6453 86.3692 75.2968 85.9999 76 85.9999H87.6264L91.088 76.9999H75C74.3743 76.9999 73.7846 76.7071 73.4064 76.2085C73.0283 75.7099 72.9054 75.063 73.0741 74.4604C74.0228 71.074 76.7353 66.4506 81.4863 64.0477C85.7653 61.8835 91.3108 61.7064 98 65.1633V57.9734C93.1502 55.7337 85.9508 54.1521 79.1955 55.7744C72.6052 57.357 66.1396 62.0552 62.6521 72.9999Z" fill="#1C3553"/>
</svg>
