<svg width="156" height="156" viewBox="0 0 156 156" fill="none" xmlns="http://www.w3.org/2000/svg">
<path fill-rule="evenodd" clip-rule="evenodd" d="M78 33.9744C78 32.1724 75.804 31.2895 74.5566 32.5899L32.6231 76.3078C32.0134 76.9435 32.4639 78 33.3448 78H41C42.1046 78 43 78.8955 43 80V132C43 133.105 43.8954 134 45 134H76.0001C77.1046 134 78.0001 133.105 78.0001 132L78 33.9744ZM53 108C53 106.895 53.8954 106 55 106H65C66.1046 106 67 106.895 67 108V132C67 133.105 66.1046 134 65 134H55C53.8954 134 53 133.105 53 132V108ZM53 86C53 84.8954 53.8954 84 55 84H65C66.1046 84 67 84.8954 67 86V96C67 97.1045 66.1046 98 65 98H55C53.8954 98 53 97.1045 53 96V86Z" fill="#C2DDFF"/>
<path fill-rule="evenodd" clip-rule="evenodd" d="M73.709 21.5756C76.0507 19.1414 79.9393 19.1191 82.3089 21.5263L139.075 79.1939C141.565 81.7227 139.773 86 136.225 86H121V104C121 105.105 120.105 106 119 106C117.895 106 117 105.105 117 104V85C117 83.3431 118.343 82 120 82H136.225L79.4582 24.3323C78.6684 23.5299 77.3722 23.5374 76.5916 24.3488L56.162 45.5853C54.2896 47.5316 51 46.2062 51 43.5054V39H39V61.5857C39 62.3814 38.6839 63.1445 38.1213 63.7071L19.8284 82H36C37.6568 82 39 83.3431 39 85V132H117V112C117 110.895 117.895 110 119 110C120.105 110 121 110.895 121 112V134C121 135.105 120.105 136 119 136H37C35.8954 136 35 135.105 35 134V86H19.8284C16.2648 86 14.4801 81.6914 17 79.1715L35 61.1715V38C35 36.3431 36.3431 35 38 35H52C53.6568 35 55 36.3431 55 38V41.0235L73.709 21.5756Z" fill="#1C3553"/>
<path fill-rule="evenodd" clip-rule="evenodd" d="M26 134C26 132.895 26.8954 132 28 132H128C129.105 132 130 132.895 130 134C130 135.105 129.105 136 128 136H28C26.8954 136 26 135.105 26 134Z" fill="#1C3553"/>
<path fill-rule="evenodd" clip-rule="evenodd" d="M87 106C87 104.895 87.8954 104 89 104H103C104.105 104 105 104.895 105 106V134C105 135.105 104.105 136 103 136H89C87.8954 136 87 135.105 87 134V106ZM91 108V132H101V108H91Z" fill="#1C3553"/>
<path fill-rule="evenodd" clip-rule="evenodd" d="M51 106C51 104.895 51.8954 104 53 104H67C68.1046 104 69 104.895 69 106V134C69 135.105 68.1046 136 67 136H53C51.8954 136 51 135.105 51 134V106ZM55 108V132H65V108H55Z" fill="#1C3553"/>
<path fill-rule="evenodd" clip-rule="evenodd" d="M51 84C51 82.8954 51.8954 82 53 82H67C68.1046 82 69 82.8954 69 84V98C69 99.1046 68.1046 100 67 100H53C51.8954 100 51 99.1046 51 98V84ZM55 86V96H65V86H55Z" fill="#1C3553"/>
<path fill-rule="evenodd" clip-rule="evenodd" d="M87 84C87 82.8954 87.8954 82 89 82H103C104.105 82 105 82.8954 105 84V98C105 99.1046 104.105 100 103 100H89C87.8954 100 87 99.1046 87 98V84ZM91 86V96H101V86H91Z" fill="#1C3553"/>
</svg>
