<svg width="156" height="156" viewBox="0 0 156 156" fill="none" xmlns="http://www.w3.org/2000/svg">
<path fill-rule="evenodd" clip-rule="evenodd" d="M34 32C32.8954 32 32 32.8954 32 34V54C32 55.1046 32.8954 56 34 56H66C67.1046 56 68 55.1046 68 54V34C68 32.8954 67.1046 32 66 32H34ZM62 38H38V50H62V38Z" fill="#C2DDFF"/>
<path fill-rule="evenodd" clip-rule="evenodd" d="M34 68C32.8954 68 32 68.8954 32 70V90C32 91.1046 32.8954 92 34 92H94C95.1046 92 96 91.1046 96 90V70C96 68.8954 95.1046 68 94 68H34ZM90 74H38V86H90V74Z" fill="#C2DDFF"/>
<path fill-rule="evenodd" clip-rule="evenodd" d="M46.5 104H122C123.105 104 124 104.895 124 106V132C124 133.105 123.105 134 122 134H118V110H104V134H68.0557C67.3951 134 66.7771 133.674 66.4044 133.128L46.5 104ZM90 110H76V124H90V110Z" fill="#C2DDFF"/>
<path fill-rule="evenodd" clip-rule="evenodd" d="M16 98C16 96.8954 16.8954 96 18 96H42.4068C43.0677 96 43.6859 96.3265 44.0586 96.8724L68.0393 132H138C139.105 132 140 132.895 140 134C140 135.105 139.105 136 138 136H66.983C66.3221 136 65.7039 135.673 65.3313 135.128L41.3505 100H18C16.8954 100 16 99.1046 16 98Z" fill="#1C3553"/>
<path fill-rule="evenodd" clip-rule="evenodd" d="M50 98C50 96.8954 50.8954 96 52 96H126C129.314 96 132 98.6863 132 102V134C132 135.105 131.105 136 130 136H67C65.8954 136 65 135.105 65 134C65 132.895 65.8954 132 67 132H128V102C128 100.895 127.105 100 126 100H52C50.8954 100 50 99.1046 50 98Z" fill="#1C3553"/>
<path fill-rule="evenodd" clip-rule="evenodd" d="M26 60C27.1046 60 28 60.8954 28 62V98C28 99.1046 27.1046 100 26 100C24.8954 100 24 99.1046 24 98V62C24 60.8954 24.8954 60 26 60ZM32 62C32 60.8954 32.8954 60 34 60H98C101.314 60 104 62.6863 104 66V98C104 99.1046 103.105 100 102 100C100.895 100 100 99.1046 100 98V66C100 64.8954 99.1046 64 98 64H34C32.8954 64 32 63.1046 32 62Z" fill="#1C3553"/>
<path fill-rule="evenodd" clip-rule="evenodd" d="M30 28C28.8954 28 28 28.8954 28 30V62C28 63.1046 27.1046 64 26 64C24.8954 64 24 63.1046 24 62V30C24 26.6863 26.6863 24 30 24H38C39.1046 24 40 24.8954 40 26C40 27.1046 39.1046 28 38 28H30ZM44 26C44 24.8954 44.8954 24 46 24H70C73.3137 24 76 26.6863 76 30V62C76 63.1046 75.1046 64 74 64C72.8954 64 72 63.1046 72 62V30C72 28.8954 71.1046 28 70 28H46C44.8954 28 44 27.1046 44 26Z" fill="#1C3553"/>
<path fill-rule="evenodd" clip-rule="evenodd" d="M102 76C103.105 76 104 76.8954 104 78V96C104 97.1046 103.105 98 102 98C100.895 98 100 97.1046 100 96V78C100 76.8954 100.895 76 102 76Z" fill="#1C3553"/>
<path fill-rule="evenodd" clip-rule="evenodd" d="M114 76C115.105 76 116 76.8954 116 78V96C116 97.1046 115.105 98 114 98C112.895 98 112 97.1046 112 96V78C112 76.8954 112.895 76 114 76Z" fill="#1C3553"/>
<path fill-rule="evenodd" clip-rule="evenodd" d="M126 76C127.105 76 128 76.8954 128 78V96C128 97.1046 127.105 98 126 98C124.895 98 124 97.1046 124 96V78C124 76.8954 124.895 76 126 76Z" fill="#1C3553"/>
<path fill-rule="evenodd" clip-rule="evenodd" d="M100 78C100 76.8954 100.895 76 102 76L130 76C131.105 76 132 76.8954 132 78C132 79.1046 131.105 80 130 80L102 80C100.895 80 100 79.1046 100 78Z" fill="#1C3553"/>
<path fill-rule="evenodd" clip-rule="evenodd" d="M74 42C75.1046 42 76 42.8954 76 44V62C76 63.1046 75.1046 64 74 64C72.8954 64 72 63.1046 72 62V44C72 42.8954 72.8954 42 74 42Z" fill="#1C3553"/>
<path fill-rule="evenodd" clip-rule="evenodd" d="M86 42C87.1046 42 88 42.8954 88 44V62C88 63.1046 87.1046 64 86 64C84.8954 64 84 63.1046 84 62V44C84 42.8954 84.8954 42 86 42Z" fill="#1C3553"/>
<path fill-rule="evenodd" clip-rule="evenodd" d="M98 42C99.1046 42 100 42.8954 100 44V62C100 63.1046 99.1046 64 98 64C96.8954 64 96 63.1046 96 62V44C96 42.8954 96.8954 42 98 42Z" fill="#1C3553"/>
<path fill-rule="evenodd" clip-rule="evenodd" d="M72 44C72 42.8954 72.8954 42 74 42L102 42C103.105 42 104 42.8954 104 44C104 45.1046 103.105 46 102 46L74 46C72.8954 46 72 45.1046 72 44Z" fill="#1C3553"/>
<path fill-rule="evenodd" clip-rule="evenodd" d="M64 72C65.1046 72 66 72.8954 66 74V86C66 87.1046 65.1046 88 64 88C62.8954 88 62 87.1046 62 86V74C62 72.8954 62.8954 72 64 72Z" fill="#1C3553"/>
<path fill-rule="evenodd" clip-rule="evenodd" d="M100 110C100 108.895 100.895 108 102 108H116C117.105 108 118 108.895 118 110V134C118 135.105 117.105 136 116 136H102C100.895 136 100 135.105 100 134V110ZM104 112V132H114V112H104Z" fill="#1C3553"/>
<path fill-rule="evenodd" clip-rule="evenodd" d="M74 110C74 108.895 74.8954 108 76 108H90C91.1046 108 92 108.895 92 110V124C92 125.105 91.1046 126 90 126H76C74.8954 126 74 125.105 74 124V110ZM78 112V122H88V112H78Z" fill="#1C3553"/>
<path fill-rule="evenodd" clip-rule="evenodd" d="M36 74C36 72.8954 36.8954 72 38 72H90C91.1046 72 92 72.8954 92 74V86C92 87.1046 91.1046 88 90 88H38C36.8954 88 36 87.1046 36 86V74ZM40 76V84H88V76H40Z" fill="#1C3553"/>
<path fill-rule="evenodd" clip-rule="evenodd" d="M36 38C36 36.8954 36.8954 36 38 36H62C63.1046 36 64 36.8954 64 38V50C64 51.1046 63.1046 52 62 52H38C36.8954 52 36 51.1046 36 50V38ZM40 40V48H60V40H40Z" fill="#1C3553"/>
</svg>
