<svg width="156" height="156" viewBox="0 0 156 156" fill="none" xmlns="http://www.w3.org/2000/svg">
<g clip-path="url(#clip0)">
<path d="M83.2057 92.7252L80.0275 89.547L33.9027 135.672C33.1217 136.453 31.8554 136.453 31.0743 135.672L25.7806 130.378C24.9996 129.597 24.9996 128.331 25.7806 127.55L71.9054 81.4249L68.374 77.8936L72.2251 67.686C65.6538 58.4369 54.8149 54.9621 50.2169 54.3808C61.0166 46.9712 74.0751 55.4774 79.2544 60.6567L97.2643 78.6666L94.9737 84.8334L98.1519 88.0116L103.974 85.3762L109.977 91.3795L95.9185 105.438L89.9152 99.4348L91.9384 94.2379L88.7601 91.0597L83.2057 92.7252Z" fill="#C2DDFF"/>
<path fill-rule="evenodd" clip-rule="evenodd" d="M77.7089 16.5756C80.0506 14.1414 83.9392 14.1191 86.3088 16.5263L143.075 74.1939C145.565 76.7227 143.773 81 140.225 81H125V99C125 100.105 124.104 101 123 101C121.895 101 121 100.105 121 99V80C121 78.3431 122.343 77 124 77H140.225L83.4582 19.3323C82.6683 18.5299 81.3721 18.5374 80.5915 19.3488L60.1619 40.5853C58.2895 42.5316 54.9999 41.2062 54.9999 38.5054V34H42.9999V56.5857C42.9999 57.3814 42.6838 58.1445 42.1212 58.7071L23.8283 77H39.9999C41.6568 77 42.9999 78.3431 42.9999 80V102C42.9999 103.105 42.1045 104 40.9999 104C39.8953 104 38.9999 103.105 38.9999 102V81H23.8283C20.2647 81 18.48 76.6914 20.9999 74.1715L38.9999 56.1715V33C38.9999 31.3431 40.343 30 41.9999 30H55.9999C57.6568 30 58.9999 31.3431 58.9999 33V36.0235L77.7089 16.5756ZM123 105C124.104 105 125 105.895 125 107V125C125 128.314 122.314 131 119 131H52.9999C51.8953 131 50.9999 130.105 50.9999 129C50.9999 127.895 51.8953 127 52.9999 127H119C120.104 127 121 126.105 121 125V107C121 105.895 121.895 105 123 105Z" fill="#1C3553"/>
<path fill-rule="evenodd" clip-rule="evenodd" d="M67.5055 50.9109C73.1114 52.8794 77.9178 56.4921 80.6682 59.2425L98.6781 77.2524C99.231 77.8054 99.411 78.6299 99.1387 79.363L97.295 84.3267L98.5872 85.6189L103.149 83.5542C103.907 83.2108 104.799 83.3733 105.388 83.962L111.391 89.9653C112.172 90.7463 112.172 92.0126 111.391 92.7937L97.3323 106.852C96.5513 107.633 95.285 107.633 94.5039 106.852L88.5006 100.849C87.9396 100.288 87.7633 99.4485 88.0511 98.7092L89.6006 94.729L88.1901 93.3185L83.7797 94.641C83.075 94.8522 82.3112 94.6596 81.791 94.1394L80.027 92.3754L35.3165 137.086C33.7544 138.648 31.2218 138.648 29.6597 137.086L24.366 131.792C22.8039 130.23 22.8039 127.698 24.366 126.135L69.0765 81.4249L66.9594 79.3078C66.4038 78.7522 66.225 77.9227 66.5023 77.1876L69.9686 68C63.7779 59.9824 54.0758 56.8846 49.9656 56.365C49.142 56.2609 48.4683 55.6587 48.2727 54.8519C48.0772 54.045 48.4004 53.2013 49.085 52.7316C55.1796 48.5501 61.8654 48.9303 67.5055 50.9109ZM78.9693 85.6608C78.1883 84.8798 76.9219 84.8798 76.1409 85.6608C75.3598 86.4419 75.3598 87.7082 76.1409 88.4893L77.1986 89.547L32.4881 134.258L27.1944 128.964L73.3192 82.8391C74.1002 82.0581 74.1002 80.7917 73.3192 80.0107L70.7004 77.392L74.0959 68.392C74.3309 67.7692 74.2406 67.0703 73.8551 66.5277C68.9356 59.6035 61.8213 55.7409 56.3107 53.8396C59.5853 53.0961 62.9608 53.5545 66.1802 54.685C71.0983 56.412 75.4109 59.6421 77.8398 62.071L94.9421 79.1733L93.0984 84.137C92.8261 84.87 93.006 85.6946 93.559 86.2476L96.7372 89.4258C97.3259 90.0145 98.2178 90.1769 98.9762 89.8336L103.538 87.7688L107.148 91.3795L95.9181 102.61L92.2522 98.9437L93.8017 94.9635C94.0895 94.2242 93.9131 93.3847 93.3521 92.8237L90.1739 89.6455C89.6537 89.1253 88.89 88.9327 88.1853 89.144L83.7749 90.4664L78.9693 85.6608Z" fill="#1C3553"/>
</g>
<defs>
<clipPath id="clip0">
<rect width="156" height="156" fill="white"/>
</clipPath>
</defs>
</svg>
