<svg width="156" height="156" viewBox="0 0 156 156" fill="none" xmlns="http://www.w3.org/2000/svg">
<path d="M40 35H34C33.4477 35 33 35.4477 33 36V42C33 42.5523 33.4477 43 34 43H40C40.5523 43 41 43.4477 41 44V50C41 50.5523 41.4477 51 42 51H48C48.5523 51 49 50.5523 49 50V44C49 43.4477 49.4477 43 50 43H56C56.5523 43 57 42.5523 57 42V36C57 35.4477 56.5523 35 56 35H50C49.4477 35 49 34.5523 49 34V28C49 27.4477 48.5523 27 48 27H42C41.4477 27 41 27.4477 41 28V34C41 34.5523 40.5523 35 40 35Z" fill="#C2DDFF"/>
<path d="M33 62H57V70H33V62Z" fill="#C2DDFF"/>
<path fill-rule="evenodd" clip-rule="evenodd" d="M21.4714 80.7103C21.8514 80.2599 22.4107 80 23 80H45C46.1046 80 47 80.8954 47 82V113.6C47.702 113.848 48.656 114.186 49.8001 114.591C52.332 115.487 55.7952 116.712 59.5205 118.028C66.9734 120.661 75.4679 123.656 79.6562 125.111C83.2713 126.366 87.0528 125.851 90.4256 124.739C93.0989 123.858 95.3157 122.681 96.9261 121.826C97.3658 121.593 97.7604 121.383 98.1067 121.211C101.018 119.757 125.063 107.411 129.043 105.244C129.064 105.232 129.085 105.222 129.106 105.211C130.867 104.331 131.843 103.343 132.274 102.481C132.666 101.697 132.694 100.86 132.211 99.8944C131.966 99.4049 131.72 99.1642 131.511 99.0302C131.301 98.8945 131 98.7849 130.52 98.7595C129.462 98.7036 127.925 99.0658 125.683 99.8799C123.653 100.617 118.519 102.375 113.92 103.94C111.614 104.724 109.434 105.463 107.831 106.006C107.084 106.258 106.463 106.468 106.011 106.621C105.847 106.918 105.656 107.205 105.435 107.481C104.044 109.213 101.85 110 99 110H73C71.8954 110 71 109.105 71 108C71 106.895 71.8954 106 73 106H99C101.15 106 101.956 105.425 102.315 104.977C102.458 104.799 102.581 104.58 102.682 104.312C102.684 104.306 102.687 104.299 102.689 104.293C102.89 103.748 103 103.005 103 102C103 101.072 102.595 100.39 101.904 99.8785C101.164 99.3306 100.098 99 99 99V97V95C100.82 95 102.754 95.5306 104.284 96.6634C105.864 97.8327 107 99.6505 107 102C107 102.021 107 102.043 107 102.064C108.548 101.54 110.538 100.865 112.631 100.153C117.249 98.5819 122.335 96.8398 124.317 96.1201C126.575 95.3003 128.788 94.6625 130.731 94.7651C131.75 94.819 132.762 95.0782 133.676 95.6666C134.593 96.2566 135.284 97.0951 135.789 98.1056C136.806 100.14 136.834 102.303 135.851 104.269C134.912 106.148 133.15 107.655 130.927 108.773C126.795 111.019 102.811 123.333 99.8933 124.789C99.6426 124.915 99.3238 125.084 98.9456 125.286C97.3577 126.131 94.7224 127.535 91.6776 128.538C87.877 129.791 83.1175 130.547 78.3439 128.889C74.1434 127.431 65.638 124.432 58.188 121.8C54.4619 120.483 50.9979 119.258 48.4656 118.362C47.9339 118.174 47.4434 118 47 117.843V121C47 123.209 45.2092 125 43 125H33.375C30.4509 125 27.9527 122.892 27.4606 120.01L21.0285 82.3366C20.9294 81.7557 21.0914 81.1607 21.4714 80.7103ZM99 97C99 95 99.0001 95 99 95H84C83.1861 95 83.0758 94.9741 82.9389 94.9148C82.7569 94.836 82.3647 94.5938 81.456 93.6288C73.5837 85.2697 61.0835 84.0302 53.0075 84C51.9029 83.9959 51.0042 84.888 51 85.9925C50.9959 87.0971 51.888 87.9959 52.9925 88C60.9921 88.0299 71.9153 89.3325 78.544 96.3712C79.5188 97.4062 80.3766 98.164 81.3488 98.5852C82.3136 99.0032 83.216 99.0014 83.8918 99.0001C83.9285 99.0001 83.9646 99 84 99H99C99.0001 99 99 99 99 97ZM25.3704 84L31.4035 119.337C31.5675 120.297 32.4003 121 33.375 121H43V84H39.0285L39.0286 115.013C39.0286 116.118 38.1331 117.013 37.0286 117.013C35.924 117.013 35.0286 116.118 35.0286 115.013L35.0285 84H25.3704Z" fill="#1C3553"/>
<path fill-rule="evenodd" clip-rule="evenodd" d="M100.282 26.0556C108.737 24.1196 117.516 26.491 122.923 29.3038C123.585 29.648 124 30.3321 124 31.0781V42.9998C124 43.7338 123.598 44.4089 122.952 44.7584C122.307 45.108 121.522 45.0759 120.907 44.6749C113.655 39.9435 108.7 40.2057 105.5 41.7984C103.155 42.9659 101.456 44.9893 100.393 46.9999H116C116.659 46.9999 117.276 47.3245 117.649 47.8676C118.022 48.4108 118.103 49.1029 117.867 49.7179L112.867 62.7178C112.57 63.4902 111.828 63.9998 111 63.9998H101.691C102.737 65.2934 103.836 66.227 104.937 66.8879C106.739 67.97 108.659 68.3874 110.582 68.3541C114.503 68.2864 118.377 66.3367 120.751 64.438C121.351 63.9579 122.174 63.8644 122.867 64.1975C123.559 64.5306 124 65.2313 124 66V79C124 79.7742 123.553 80.4789 122.853 80.8091C109.995 86.8705 99.9538 85.2131 92.7409 80.3748C86.2867 76.0454 82.3196 69.3217 80.5234 63.9998H70C69.3411 63.9998 68.7244 63.6752 68.3514 63.1321C67.9783 62.5889 67.8968 61.8969 68.1333 61.2818L73.1333 48.282C73.4304 47.5096 74.1724 47 75 46.9999L80.4723 46.9999C84.234 34.0099 91.9301 27.9681 100.282 26.0556ZM76.3736 50.9999L72.9121 59.9998H87C88.1046 59.9998 89 60.8952 89 61.9998C89 63.1044 88.1046 63.9998 87 63.9998H84.7814C86.5322 68.435 89.8981 73.6513 94.9692 77.0529C100.704 80.8999 108.873 82.6005 120 77.7134V69.7098C117.367 71.148 114.093 72.2941 110.651 72.3535C108.081 72.398 105.404 71.834 102.878 70.3175C100.354 68.8023 98.0898 66.4025 96.2371 62.9443C95.905 62.3244 95.9228 61.5757 96.2841 60.9724C96.6453 60.3691 97.2968 59.9998 98 59.9998H109.626L113.088 50.9999H97.4401C96.8143 50.9999 96.2246 50.707 95.8465 50.2084C95.4684 49.7098 95.3454 49.063 95.5142 48.4604C96.4552 45.1012 99.0478 40.542 103.718 38.2175C107.917 36.1275 113.362 36.0477 120 39.5073V32.3232C115.137 30.0657 107.93 28.408 101.175 29.9547C94.5951 31.4614 88.1379 36.0729 84.6524 46.9998H87C88.1046 46.9998 89 47.8953 89 48.9998C89 50.1044 88.1046 50.9998 87 50.9998L76.3736 50.9999Z" fill="#1C3553"/>
<path fill-rule="evenodd" clip-rule="evenodd" d="M43 29V34C43 35.6569 41.6569 37 40 37H35V41H40C41.6569 41 43 42.3431 43 44V49H47V44C47 42.3431 48.3431 41 50 41H55V37H50C48.3431 37 47 35.6569 47 34V29H43ZM39 28C39 26.3431 40.3431 25 42 25H48C49.6569 25 51 26.3431 51 28V33H56C57.6569 33 59 34.3431 59 36V42C59 43.6569 57.6569 45 56 45H51V50C51 51.6569 49.6569 53 48 53H42C40.3431 53 39 51.6569 39 50V45H34C32.3431 45 31 43.6569 31 42V36C31 34.3431 32.3431 33 34 33H39V28Z" fill="#1C3553"/>
<path fill-rule="evenodd" clip-rule="evenodd" d="M31 62C31 60.8954 31.8954 60 33 60H57C58.1046 60 59 60.8954 59 62V70C59 71.1046 58.1046 72 57 72H33C31.8954 72 31 71.1046 31 70V62ZM35 64V68H55V64H35Z" fill="#1C3553"/>
</svg>
