<svg width="156" height="156" viewBox="0 0 156 156" fill="none" xmlns="http://www.w3.org/2000/svg">
<path fill-rule="evenodd" clip-rule="evenodd" d="M42.5481 62.4216C42.1962 62.7931 42 63.2854 42 63.7971V132C42 133.105 42.8954 134 44 134H55V112.875C55 109.593 58.5817 108 63 108C67.4183 108 71 109.593 71 112.875V134H112C113.105 134 114 133.105 114 132V63.7971C114 63.2854 113.804 62.7931 113.452 62.4216L79.4519 26.5327C78.6631 25.7 77.3369 25.7 76.5481 26.5327L42.5481 62.4216ZM101 108H89V120H101V108ZM72 50.0001H84V62.0001H72V50.0001Z" fill="#C2DDFF"/>
<path fill-rule="evenodd" clip-rule="evenodd" d="M26 134C26 132.895 26.8954 132 28 132L128 132C129.105 132 130 132.895 130 134C130 135.105 129.105 136 128 136L28 136C26.8954 136 26 135.105 26 134Z" fill="#1C3553"/>
<path fill-rule="evenodd" clip-rule="evenodd" d="M78 98C76.8954 98 76 97.1046 76 96L76 72C76 70.8954 76.8954 70 78 70C79.1046 70 80 70.8954 80 72L80 96C80 97.1046 79.1046 98 78 98Z" fill="#1C3553"/>
<path fill-rule="evenodd" clip-rule="evenodd" d="M101 40C101 41.1046 100.105 42 99 42L57 42C55.8954 42 55 41.1046 55 40C55 38.8954 55.8954 38 57 38L99 38C100.105 38 101 38.8954 101 40Z" fill="#1C3553"/>
<path fill-rule="evenodd" clip-rule="evenodd" d="M120 136C118.895 136 118 135.105 118 134L118 92C118 90.8954 118.895 90 120 90C121.105 90 122 90.8954 122 92L122 134C122 135.105 121.105 136 120 136Z" fill="#1C3553"/>
<path fill-rule="evenodd" clip-rule="evenodd" d="M36 136C34.8954 136 34 135.105 34 134L34 92C34 90.8954 34.8954 90 36 90C37.1046 90 38 90.8954 38 92L38 134C38 135.105 37.1046 136 36 136Z" fill="#1C3553"/>
<path fill-rule="evenodd" clip-rule="evenodd" d="M70 52C70 49.7909 71.7909 48 74 48H82C84.2091 48 86 49.7909 86 52V60C86 62.2091 84.2091 64 82 64H74C71.7909 64 70 62.2091 70 60V52ZM82 52H74V60H82V52Z" fill="#1C3553"/>
<path fill-rule="evenodd" clip-rule="evenodd" d="M87 110C87 107.791 88.7909 106 91 106H99C101.209 106 103 107.791 103 110V118C103 120.209 101.209 122 99 122H91C88.7909 122 87 120.209 87 118V110ZM99 110H91V118H99V110Z" fill="#1C3553"/>
<path fill-rule="evenodd" clip-rule="evenodd" d="M55 112.5C56.1046 112.5 57 113.395 57 114.5V134C57 135.105 56.1046 136 55 136C53.8954 136 53 135.105 53 134V114.5C53 113.395 53.8954 112.5 55 112.5Z" fill="#1C3553"/>
<path fill-rule="evenodd" clip-rule="evenodd" d="M71 112.5C72.1046 112.5 73 113.395 73 114.5V134C73 135.105 72.1046 136 71 136C69.8954 136 69 135.105 69 134V114.5C69 113.395 69.8954 112.5 71 112.5Z" fill="#1C3553"/>
<path fill-rule="evenodd" clip-rule="evenodd" d="M63 110C59.2782 110 57 112.383 57 114.5C57 115.605 56.1046 116.5 55 116.5C53.8954 116.5 53 115.605 53 114.5C53 109.438 57.8852 106 63 106C68.1148 106 73 109.438 73 114.5C73 115.605 72.1046 116.5 71 116.5C69.8954 116.5 69 115.605 69 114.5C69 112.383 66.7218 110 63 110Z" fill="#1C3553"/>
<path fill-rule="evenodd" clip-rule="evenodd" d="M78.9924 70.2635C78.3776 69.9122 77.6227 69.9122 77.0079 70.2635L35.0079 94.2635C34.0488 94.8115 33.7156 96.0332 34.2637 96.9923C34.8117 97.9513 36.0334 98.2845 36.9924 97.7365L78.0001 74.3035L119.008 97.7365C119.967 98.2845 121.189 97.9513 121.737 96.9923C122.285 96.0332 121.951 94.8115 120.992 94.2635L78.9924 70.2635Z" fill="#1C3553"/>
<path fill-rule="evenodd" clip-rule="evenodd" d="M79.3896 16.5616C80.184 17.3291 80.2059 18.5952 79.4384 19.3896L22.4384 78.3896C21.6709 79.184 20.4048 79.2059 19.6104 78.4384C18.816 77.6709 18.7942 76.4048 19.5616 75.6104L76.5616 16.6104C77.3291 15.816 78.5952 15.7942 79.3896 16.5616Z" fill="#1C3553"/>
<path fill-rule="evenodd" clip-rule="evenodd" d="M136.39 78.4384C137.184 77.6709 137.206 76.4048 136.438 75.6104L79.4384 16.6104C78.6709 15.816 77.4048 15.7941 76.6104 16.5616C75.816 17.3291 75.7942 18.5952 76.5616 19.3896L133.562 78.3896C134.329 79.184 135.595 79.2058 136.39 78.4384Z" fill="#1C3553"/>
<path fill-rule="evenodd" clip-rule="evenodd" d="M34 72C34 70.8954 34.8954 70 36 70H120C121.105 70 122 70.8954 122 72V96C122 97.1046 121.105 98 120 98H36C34.8954 98 34 97.1046 34 96V72ZM38 74V94H118V74H38Z" fill="#1C3553"/>
<path fill-rule="evenodd" clip-rule="evenodd" d="M35 38C35 35.7909 36.7909 34 39 34H44C46.2091 34 48 35.7909 48 38V41C48 42.1046 47.1046 43 46 43C44.8954 43 44 42.1046 44 41V38H39V50C39 51.1046 38.1046 52 37 52C35.8954 52 35 51.1046 35 50V38Z" fill="#1C3553"/>
</svg>
