<svg width="156" height="156" viewBox="0 0 156 156" fill="none" xmlns="http://www.w3.org/2000/svg">
<path fill-rule="evenodd" clip-rule="evenodd" d="M59 70C59 68.8954 59.8954 68 61 68H95C96.1046 68 97 68.8954 97 70V132C97 133.105 96.1046 134 95 134H61C59.8954 134 59 133.105 59 132V70ZM85 107H71V133H85V107ZM85 84H71V98H85V84Z" fill="#C2DDFF"/>
<path fill-rule="evenodd" clip-rule="evenodd" d="M33 106C33 104.895 33.8954 104 35 104H49C50.1046 104 51 104.895 51 106V134C51 135.105 50.1046 136 49 136H35C33.8954 136 33 135.105 33 134V106ZM37 108V132H47V108H37Z" fill="#1C3553"/>
<path fill-rule="evenodd" clip-rule="evenodd" d="M33 82C33 80.8954 33.8954 80 35 80H49C50.1046 80 51 80.8954 51 82V96C51 97.1046 50.1046 98 49 98H35C33.8954 98 33 97.1046 33 96V82ZM37 84V94H47V84H37Z" fill="#1C3553"/>
<path fill-rule="evenodd" clip-rule="evenodd" d="M69 106C69 104.895 69.8954 104 71 104H85C86.1046 104 87 104.895 87 106V133C87 134.105 86.1046 135 85 135H71C69.8954 135 69 134.105 69 133V106ZM73 108V131H83V108H73Z" fill="#1C3553"/>
<path fill-rule="evenodd" clip-rule="evenodd" d="M69 82C69 80.8954 69.8954 80 71 80H85C86.1046 80 87 80.8954 87 82V96C87 97.1046 86.1046 98 85 98H71C69.8954 98 69 97.1046 69 96V82ZM73 84V94H83V84H73Z" fill="#1C3553"/>
<path fill-rule="evenodd" clip-rule="evenodd" d="M105 106C105 104.895 105.895 104 107 104H121C122.105 104 123 104.895 123 106V133C123 134.105 122.105 135 121 135H107C105.895 135 105 134.105 105 133V106ZM109 108V131H119V108H109Z" fill="#1C3553"/>
<path fill-rule="evenodd" clip-rule="evenodd" d="M105 82C105 80.8954 105.895 80 107 80H121C122.105 80 123 80.8954 123 82V96C123 97.1046 122.105 98 121 98H107C105.895 98 105 97.1046 105 96V82ZM109 84V94H119V84H109Z" fill="#1C3553"/>
<path fill-rule="evenodd" clip-rule="evenodd" d="M22.2252 47.2055C22.542 46.4737 23.2632 46 24.0606 46H132C132.8 46 133.523 46.4768 133.838 47.2122L139.838 61.2122C140.103 61.8301 140.04 62.5397 139.67 63.101C139.3 63.6622 138.672 64 138 64H106C104.895 64 104 63.1046 104 62C104 60.8954 104.895 60 106 60H134.967L130.681 50H25.3742L21.0452 60H98C99.1046 60 100 60.8954 100 62C100 63.1046 99.1046 64 98 64H18C17.3264 64 16.6981 63.6609 16.3283 63.0979C15.9585 62.5349 15.897 61.8236 16.1646 61.2055L22.2252 47.2055Z" fill="#1C3553"/>
<path fill-rule="evenodd" clip-rule="evenodd" d="M110 40C111.105 40 112 40.8954 112 42V48C112 49.1046 111.105 50 110 50C108.895 50 108 49.1046 108 48V42C108 40.8954 108.895 40 110 40Z" fill="#1C3553"/>
<path fill-rule="evenodd" clip-rule="evenodd" d="M118 40C119.105 40 120 40.8954 120 42V48C120 49.1046 119.105 50 118 50C116.895 50 116 49.1046 116 48V42C116 40.8954 116.895 40 118 40Z" fill="#1C3553"/>
<path fill-rule="evenodd" clip-rule="evenodd" d="M23 68C24.1046 68 25 68.8954 25 70V132H131V70C131 68.8954 131.895 68 133 68C134.105 68 135 68.8954 135 70V134C135 135.105 134.105 136 133 136H23C21.8954 136 21 135.105 21 134V70C21 68.8954 21.8954 68 23 68Z" fill="#1C3553"/>
<path fill-rule="evenodd" clip-rule="evenodd" d="M11 134C11 132.895 11.8954 132 13 132H143C144.105 132 145 132.895 145 134C145 135.105 144.105 136 143 136H13C11.8954 136 11 135.105 11 134Z" fill="#1C3553"/>
</svg>
