<svg width="156" height="156" viewBox="0 0 156 156" fill="none" xmlns="http://www.w3.org/2000/svg">
<path d="M100 105C75.4267 116.584 62.8535 98.3195 60 88.0001H48L53 75.0001H60C66.8483 48.2362 89.7611 51.4009 100 56.7271V68.6488C84.692 58.6623 76.6785 69.0081 75 75.0001H94L89 88.0001H76C82.8483 100.783 94.7966 96.1611 100 92.0001V105Z" fill="#C2DDFF"/>
<path fill-rule="evenodd" clip-rule="evenodd" d="M79.4582 19.3323C78.6683 18.5299 77.3721 18.5374 76.5915 19.3488L56.1619 40.5853C54.2895 42.5316 50.9999 41.2062 50.9999 38.5054V34H38.9999V56.5857C38.9999 57.3814 38.6838 58.1445 38.1212 58.7071L19.8283 77H35.9999C37.6568 77 38.9999 78.3431 38.9999 80V125C38.9999 126.105 39.8953 127 40.9999 127H115C116.104 127 117 126.105 117 125V107C117 105.895 117.895 105 119 105C120.104 105 121 105.895 121 107V125C121 128.314 118.314 131 115 131H40.9999C37.6862 131 34.9999 128.314 34.9999 125V81H19.8283C16.2647 81 14.48 76.6914 16.9999 74.1715L34.9999 56.1715V33C34.9999 31.3431 36.343 30 37.9999 30H51.9999C53.6568 30 54.9999 31.3431 54.9999 33V36.0235L73.7089 16.5756C76.0506 14.1414 79.9392 14.1191 82.3088 16.5263L139.075 74.1939C141.565 76.7227 139.773 81 136.225 81H121V99C121 100.105 120.104 101 119 101C117.895 101 117 100.105 117 99V80C117 78.3431 118.343 77 120 77L136.225 77L79.4582 19.3323Z" fill="#1C3553"/>
<path fill-rule="evenodd" clip-rule="evenodd" d="M78.2615 51.8851C86.7143 49.8552 95.4998 52.1317 100.923 54.9528C101.585 55.297 102 55.981 102 56.727V68.6488C102 69.3828 101.598 70.0578 100.952 70.4074C100.307 70.757 99.522 70.7249 98.9072 70.3238C91.686 65.6129 86.6229 65.9324 83.2916 67.6172C80.8456 68.8543 79.0672 70.9568 77.9683 73.0001H94C94.6589 73.0001 95.2756 73.3246 95.6486 73.8678C96.0217 74.4109 96.1032 75.103 95.8667 75.718L90.8667 88.718C90.5696 89.4904 89.8276 90.0001 89 90.0001H79.6914C80.7373 91.2936 81.8357 92.2272 82.9367 92.8881C84.7393 93.9702 86.6591 94.3875 88.5823 94.3543C92.5033 94.2865 96.3766 92.3368 98.7509 90.4381C99.3513 89.958 100.174 89.8645 100.867 90.1975C101.559 90.5306 102 91.2313 102 92.0001V105C102 105.774 101.553 106.479 100.853 106.809C87.995 112.871 77.9538 111.213 70.7409 106.375C64.2867 102.046 60.3196 95.3219 58.5234 90.0001H48C47.3411 90.0001 46.7244 89.6755 46.3514 89.1323C45.9783 88.5892 45.8968 87.8971 46.1333 87.2821L51.1333 74.2821C51.4304 73.5097 52.1725 73.0001 53 73.0001H58.4722C62.232 60.0099 69.92 53.8883 78.2615 51.8851ZM62.6521 73.0001H65C66.1046 73.0001 67 73.8955 67 75.0001C67 76.1046 66.1046 77.0001 65 77.0001H54.3736L50.9121 86.0001H65C66.1046 86.0001 67 86.8955 67 88.0001C67 89.1046 66.1046 90.0001 65 90.0001H62.7814C64.5322 94.4353 67.8981 99.6515 72.9692 103.053C78.7043 106.9 86.8725 108.601 98 103.713V95.7099C95.3672 97.1481 92.0932 98.2942 88.6514 98.3537C86.0811 98.3981 83.4045 97.8342 80.8781 96.3177C78.3539 94.8026 76.0898 92.4028 74.2371 88.9445C73.905 88.3247 73.9228 87.576 74.2841 86.9727C74.6453 86.3693 75.2968 86.0001 76 86.0001H87.6264L91.088 77.0001H75C74.3743 77.0001 73.7846 76.7072 73.4064 76.2086C73.0283 75.71 72.9054 75.0631 73.0741 74.4606C74.0228 71.0741 76.7353 66.4507 81.4863 64.0478C85.7653 61.8836 91.3108 61.7065 98 65.1634V57.9735C93.1502 55.7338 85.9508 54.1522 79.1955 55.7745C72.6052 57.3572 66.1396 62.0553 62.6521 73.0001Z" fill="#1C3553"/>
</svg>
