<svg width="156" height="156" viewBox="0 0 156 156" fill="none" xmlns="http://www.w3.org/2000/svg">
<path fill-rule="evenodd" clip-rule="evenodd" d="M31 56C31 54.8954 31.8954 54 33 54H123C124.105 54 125 54.8954 125 56V132C125 133.105 124.105 134 123 134H97V119H85V94H71V119H59V134H33C31.8954 134 31 133.105 31 132V56ZM85 60H71V75H59V86H97V75H85V60ZM105 60H119V78H105V60ZM51 60H37V78H51V60ZM105 94H119V114H105V94ZM51 94H37V114H51V94Z" fill="#C2DDFF"/>
<path d="M49.598 32.2367C49.7786 32.0839 50.0075 32 50.244 32H105.756C105.993 32 106.222 32.0839 106.402 32.2367L115.855 40.2367C116.566 40.8384 116.141 42 115.209 42H40.7909C39.8594 42 39.4339 40.8384 40.1449 40.2367L49.598 32.2367Z" fill="#C2DDFF"/>
<path fill-rule="evenodd" clip-rule="evenodd" d="M69 60C69 58.8954 69.8954 58 71 58H85C86.1046 58 87 58.8954 87 60V75C87 76.1046 86.1046 77 85 77H71C69.8954 77 69 76.1046 69 75V60ZM73 62V73H83V62H73Z" fill="#1C3553"/>
<path fill-rule="evenodd" clip-rule="evenodd" d="M69 94C69 92.8954 69.8954 92 71 92H85C86.1046 92 87 92.8954 87 94V118C87 119.105 86.1046 120 85 120H71C69.8954 120 69 119.105 69 118V94ZM73 96V116H83V96H73Z" fill="#1C3553"/>
<path fill-rule="evenodd" clip-rule="evenodd" d="M103 60C103 58.8954 103.895 58 105 58H119C120.105 58 121 58.8954 121 60V78C121 79.1046 120.105 80 119 80H105C103.895 80 103 79.1046 103 78V60ZM107 62V76H117V62H107Z" fill="#1C3553"/>
<path fill-rule="evenodd" clip-rule="evenodd" d="M35 60C35 58.8954 35.8954 58 37 58H51C52.1046 58 53 58.8954 53 60V78C53 79.1046 52.1046 80 51 80H37C35.8954 80 35 79.1046 35 78V60ZM39 62V76H49V62H39Z" fill="#1C3553"/>
<path fill-rule="evenodd" clip-rule="evenodd" d="M103 94C103 92.8954 103.895 92 105 92H119C120.105 92 121 92.8954 121 94V114C121 115.105 120.105 116 119 116H105C103.895 116 103 115.105 103 114V94ZM107 96V112H117V96H107Z" fill="#1C3553"/>
<path fill-rule="evenodd" clip-rule="evenodd" d="M35 94C35 92.8954 35.8954 92 37 92H51C52.1046 92 53 92.8954 53 94V114C53 115.105 52.1046 116 51 116H37C35.8954 116 35 115.105 35 114V94ZM39 96V112H49V96H39Z" fill="#1C3553"/>
<path fill-rule="evenodd" clip-rule="evenodd" d="M25 54C26.1046 54 27 54.8954 27 56V84H51C52.1046 84 53 84.8954 53 86C53 87.1046 52.1046 88 51 88H25C23.8954 88 23 87.1046 23 86V56C23 54.8954 23.8954 54 25 54ZM131 54C132.105 54 133 54.8954 133 56V86C133 87.1046 132.105 88 131 88H105C103.895 88 103 87.1046 103 86C103 84.8954 103.895 84 105 84H129V56C129 54.8954 129.895 54 131 54Z" fill="#1C3553"/>
<path fill-rule="evenodd" clip-rule="evenodd" d="M25 82C26.1046 82 27 82.8954 27 84V132H129V84C129 82.8954 129.895 82 131 82C132.105 82 133 82.8954 133 84V134C133 135.105 132.105 136 131 136H25C23.8954 136 23 135.105 23 134V84C23 82.8954 23.8954 82 25 82Z" fill="#1C3553"/>
<path fill-rule="evenodd" clip-rule="evenodd" d="M57 75C57 73.8954 57.8954 73 59 73H97C98.1046 73 99 73.8954 99 75V86C99 87.1046 98.1046 88 97 88H59C57.8954 88 57 87.1046 57 86V75ZM61 77V84H95V77H61Z" fill="#1C3553"/>
<path fill-rule="evenodd" clip-rule="evenodd" d="M59 84C60.1046 84 61 84.8954 61 86V119C61 120.105 60.1046 121 59 121C57.8954 121 57 120.105 57 119V86C57 84.8954 57.8954 84 59 84Z" fill="#1C3553"/>
<path fill-rule="evenodd" clip-rule="evenodd" d="M97 84C98.1046 84 99 84.8954 99 86V119C99 120.105 98.1046 121 97 121C95.8954 121 95 120.105 95 119V86C95 84.8954 95.8954 84 97 84Z" fill="#1C3553"/>
<path fill-rule="evenodd" clip-rule="evenodd" d="M59 69C60.1046 69 61 69.8954 61 71V77C61 78.1046 60.1046 79 59 79C57.8954 79 57 78.1046 57 77V71C57 69.8954 57.8954 69 59 69Z" fill="#1C3553"/>
<path fill-rule="evenodd" clip-rule="evenodd" d="M97 69C98.1046 69 99 69.8954 99 71V77C99 78.1046 98.1046 79 97 79C95.8954 79 95 78.1046 95 77V71C95 69.8954 95.8954 69 97 69Z" fill="#1C3553"/>
<path fill-rule="evenodd" clip-rule="evenodd" d="M97 111C98.1046 111 99 111.895 99 113V134C99 135.105 98.1046 136 97 136C95.8954 136 95 135.105 95 134V113C95 111.895 95.8954 111 97 111Z" fill="#1C3553"/>
<path fill-rule="evenodd" clip-rule="evenodd" d="M59 111C60.1046 111 61 111.895 61 113L61 134C61 135.105 60.1046 136 59 136C57.8954 136 57 135.105 57 134L57 113C57 111.895 57.8954 111 59 111Z" fill="#1C3553"/>
<path fill-rule="evenodd" clip-rule="evenodd" d="M57 126C57 124.895 57.8954 124 59 124L97 124C98.1046 124 99 124.895 99 126C99 127.105 98.1046 128 97 128L59 128C57.8954 128 57 127.105 57 126Z" fill="#1C3553"/>
<path fill-rule="evenodd" clip-rule="evenodd" d="M57 118C57 116.895 57.8954 116 59 116L97 116C98.1046 116 99 116.895 99 118C99 119.105 98.1046 120 97 120L59 120C57.8954 120 57 119.105 57 118Z" fill="#1C3553"/>
<path fill-rule="evenodd" clip-rule="evenodd" d="M16 134C16 132.895 16.8954 132 18 132H138C139.105 132 140 132.895 140 134C140 135.105 139.105 136 138 136H18C16.8954 136 16 135.105 16 134Z" fill="#1C3553"/>
<path fill-rule="evenodd" clip-rule="evenodd" d="M46.7349 24.4496C47.0918 24.1588 47.538 24 47.9983 24H108.002C108.462 24 108.908 24.1588 109.265 24.4496L136.263 46.4496C136.919 46.984 137.168 47.8734 136.884 48.6705C136.601 49.4676 135.846 50 135 50H60C58.8954 50 58 49.1046 58 48C58 46.8954 58.8954 46 60 46H129.38L107.29 28H48.71L26.6205 46H52.0408C53.1454 46 54.0408 46.8954 54.0408 48C54.0408 49.1046 53.1454 50 52.0408 50H21C20.1539 50 19.3994 49.4676 19.1157 48.6705C18.8321 47.8734 19.0807 46.984 19.7366 46.4496L46.7349 24.4496Z" fill="#1C3553"/>
<path fill-rule="evenodd" clip-rule="evenodd" d="M89 18C90.1046 18 91 18.8954 91 20V26C91 27.1046 90.1046 28 89 28C87.8954 28 87 27.1046 87 26V20C87 18.8954 87.8954 18 89 18Z" fill="#1C3553"/>
<path fill-rule="evenodd" clip-rule="evenodd" d="M97 18C98.1046 18 99 18.8954 99 20V26C99 27.1046 98.1046 28 97 28C95.8954 28 95 27.1046 95 26V20C95 18.8954 95.8954 18 97 18Z" fill="#1C3553"/>
</svg>
