<svg width="156" height="156" viewBox="0 0 156 156" fill="none" xmlns="http://www.w3.org/2000/svg">
<path fill-rule="evenodd" clip-rule="evenodd" d="M35 102C33.8954 102 33 102.895 33 104V132C33 133.105 33.8954 134 35 134H65V107.278H79V134H109C110.105 134 111 133.105 111 132V104C111 102.895 110.105 102 109 102H35ZM53 107.278H39V121.667H53V107.278ZM91 107.278H105V121.667H91V107.278Z" fill="#C2DDFF"/>
<path d="M45.7003 78.3596C45.8903 78.1316 46.1718 77.9998 46.4685 77.9998H97.5318C97.8286 77.9998 98.11 78.1316 98.3 78.3596L106.633 88.3596C107.176 89.0109 106.713 89.9998 105.865 89.9998H38.1352C37.2874 89.9998 36.8242 89.0109 37.367 88.3596L45.7003 78.3596Z" fill="#C2DDFF"/>
<path fill-rule="evenodd" clip-rule="evenodd" d="M55 42C55 38.6863 57.6863 36 61 36H74C75.1046 36 76 36.8954 76 38C76 39.1046 75.1046 40 74 40H61C59.8954 40 59 40.8954 59 42V64C59 65.1046 58.1046 66 57 66C55.8954 66 55 65.1046 55 64V42ZM80 38C80 36.8954 80.8954 36 82 36H125C128.314 36 131 38.6863 131 42V134C131 135.105 130.105 136 129 136C127.895 136 127 135.105 127 134V42C127 40.8954 126.105 40 125 40H82C80.8954 40 80 39.1046 80 38Z" fill="#1C3553"/>
<path fill-rule="evenodd" clip-rule="evenodd" d="M55 30C55 28.8954 55.8954 28 57 28H129C130.105 28 131 28.8954 131 30C131 31.1046 130.105 32 129 32H57C55.8954 32 55 31.1046 55 30Z" fill="#1C3553"/>
<path fill-rule="evenodd" clip-rule="evenodd" d="M67 48C67 46.8954 67.8954 46 69 46H83C84.1046 46 85 46.8954 85 48V62C85 63.1046 84.1046 64 83 64H69C67.8954 64 67 63.1046 67 62V48ZM71 50V60H81V50H71Z" fill="#1C3553"/>
<path fill-rule="evenodd" clip-rule="evenodd" d="M101 48C101 46.8954 101.895 46 103 46H117C118.105 46 119 46.8954 119 48V62C119 63.1046 118.105 64 117 64H103C101.895 64 101 63.1046 101 62V48ZM105 50V60H115V50H105Z" fill="#1C3553"/>
<path fill-rule="evenodd" clip-rule="evenodd" d="M63 108C63 106.895 63.8954 106 65 106H79C80.1046 106 81 106.895 81 108V134C81 135.104 80.1046 136 79 136H65C63.8954 136 63 135.104 63 134V108ZM67 110V132H77V110H67Z" fill="#1C3553"/>
<path fill-rule="evenodd" clip-rule="evenodd" d="M37 108C37 106.895 37.8954 106 39 106H53C54.1046 106 55 106.895 55 108V122C55 123.104 54.1046 124 53 124H39C37.8954 124 37 123.104 37 122V108ZM41 110V120H51V110H41Z" fill="#1C3553"/>
<path fill-rule="evenodd" clip-rule="evenodd" d="M89 108C89 106.895 89.8954 106 91 106H105C106.105 106 107 106.895 107 108V122C107 123.104 106.105 124 105 124H91C89.8954 124 89 123.104 89 122V108ZM93 110V120H103V110H93Z" fill="#1C3553"/>
<path fill-rule="evenodd" clip-rule="evenodd" d="M27 102C28.1046 102 29 102.895 29 104V132H115V104C115 102.895 115.895 102 117 102C118.105 102 119 102.895 119 104V134C119 135.104 118.105 136 117 136H27C25.8954 136 25 135.104 25 134V104C25 102.895 25.8954 102 27 102Z" fill="#1C3553"/>
<path fill-rule="evenodd" clip-rule="evenodd" d="M42.7657 70.6735C43.1452 70.245 43.6902 69.9998 44.2627 69.9998H99.7374C100.31 69.9998 100.855 70.245 101.234 70.6735L122.497 94.6735C123.019 95.2626 123.147 96.1029 122.824 96.8206C122.501 97.5382 121.787 97.9998 121 97.9998H56C54.8955 97.9998 54 97.1043 54 95.9998C54 94.8952 54.8955 93.9998 56 93.9998H116.556L98.8373 73.9998H45.1628L27.4439 93.9998H48C49.1046 93.9998 50 94.8952 50 95.9998C50 97.1043 49.1046 97.9998 48 97.9998H23C22.213 97.9998 21.4992 97.5382 21.1762 96.8206C20.8532 96.1029 20.9812 95.2626 21.503 94.6735L42.7657 70.6735Z" fill="#1C3553"/>
<path fill-rule="evenodd" clip-rule="evenodd" d="M16 134C16 132.895 16.8954 132 18 132H138C139.105 132 140 132.895 140 134C140 135.105 139.105 136 138 136H18C16.8954 136 16 135.105 16 134Z" fill="#1C3553"/>
</svg>
