<svg width="156" height="156" viewBox="0 0 156 156" fill="none" xmlns="http://www.w3.org/2000/svg">
<path d="M126.326 46.6985C127.107 45.9174 127.107 44.6511 126.326 43.8701L122.083 39.6274C121.302 38.8464 120.036 38.8464 119.255 39.6274L73.3263 85.5557L53.5273 65.7567C52.7462 64.9756 51.4799 64.9757 50.6989 65.7567L47.1297 69.3259C46.3486 70.1069 46.3486 71.3733 47.1297 72.1543L71.1713 96.196C72.7334 97.7581 75.2661 97.7581 76.8281 96.196L126.326 46.6985Z" fill="#C2DDFF"/>
<path fill-rule="evenodd" clip-rule="evenodd" d="M79.4559 19.3396C78.6665 18.5349 77.3684 18.5413 76.5869 19.3537L56.162 40.5852C54.2896 42.5316 51 41.2062 51 38.5054V33.9999H39V56.5857C39 57.3814 38.684 58.1445 38.1213 58.7071L19.8285 77H36C37.6569 77 39 78.3431 39 79.9999V125C39 126.105 39.8955 127 41 127H115C116.105 127 117 126.105 117 125V107C117 105.895 117.895 105 119 105C120.105 105 121 105.895 121 107V125C121 128.314 118.314 131 115 131H41C37.6863 131 35 128.314 35 125V80.9999H19.8285C16.2648 80.9999 14.4802 76.6914 17 74.1715L35 56.1715V32.9999C35 31.3431 36.3432 29.9999 38 29.9999H52C53.6569 29.9999 55 31.3431 55 32.9999V36.0235L73.7043 16.5805C76.0487 14.1435 79.9428 14.1244 82.3111 16.5382L105.428 40.0993C106.201 40.8877 106.189 42.154 105.401 42.9276C104.612 43.7011 103.346 43.6891 102.572 42.9006L79.4559 19.3396ZM122.822 60.5763C123.608 59.8005 124.875 59.809 125.65 60.5953L139.064 74.1906C141.558 76.7181 139.768 80.9999 136.217 80.9999H121V98.9999C121 100.105 120.105 101 119 101C117.895 101 117 100.105 117 98.9999V79.9999C117 78.3431 118.343 77 120 77H136.217L122.803 63.4046C122.027 62.6184 122.036 61.3521 122.822 60.5763Z" fill="#1C3553"/>
<path fill-rule="evenodd" clip-rule="evenodd" d="M117.84 38.2133C119.402 36.6512 121.935 36.6512 123.497 38.2133L127.74 42.4559C129.302 44.018 129.302 46.5507 127.74 48.1128L78.2424 97.6102C75.8992 99.9534 72.1002 99.9534 69.7571 97.6102L45.7155 73.5686C44.1534 72.0065 44.1534 69.4738 45.7155 67.9117L49.2847 64.3425C50.8468 62.7804 53.3794 62.7804 54.9415 64.3425L73.3263 82.7273L117.84 38.2133ZM124.911 45.2843L120.669 41.0417L74.7405 86.97C73.9595 87.751 72.6931 87.751 71.9121 86.97L52.1131 67.171L48.5439 70.7402L72.5855 94.7818C73.3666 95.5629 74.6329 95.5629 75.4139 94.7818L124.911 45.2843Z" fill="#1C3553"/>
</svg>
