<svg width="156" height="156" viewBox="0 0 156 156" fill="none" xmlns="http://www.w3.org/2000/svg">
<path fill-rule="evenodd" clip-rule="evenodd" d="M61 34C59.8954 34 59 34.8954 59 36V65C59 66.1046 59.8954 67 61 67C62.1046 67 63 67.8954 63 69V70C63 71.1046 63.8954 72 65 72H71C72.1046 72 73 71.1046 73 70V69C73 67.8954 73.8954 67 75 67H81C82.1046 67 83 67.8954 83 69V70C83 71.1046 83.8954 72 85 72H91C92.1046 72 93 71.1046 93 70V69C93 67.8954 93.8954 67 95 67C96.1046 67 97 66.1046 97 65V36C97 34.8954 96.1046 34 95 34H61ZM78 40L72 44V55H84V44L78 40Z" fill="#C2DDFF"/>
<path fill-rule="evenodd" clip-rule="evenodd" d="M53 78C51.8954 78 51 78.8954 51 80V132C51 133.105 51.8954 134 53 134H66V109C66 109 73.0602 106 78 106C82.9398 106 90 109 90 109V134H103C104.105 134 105 133.105 105 132V80C105 78.8954 104.105 78 103 78H53ZM99 84H87V96H99V84ZM57 84H69V96H57V84Z" fill="#C2DDFF"/>
<path d="M117 68.7016C117 68.2475 117.155 67.8068 117.438 67.4522L120.219 63.9761C120.619 63.4757 121.381 63.4757 121.781 63.9761L124.562 67.4522C124.845 67.8068 125 68.2475 125 68.7016V132C125 133.105 124.105 134 123 134H119C117.895 134 117 133.105 117 132V68.7016Z" fill="#C2DDFF"/>
<path d="M31 68.7016C31 68.2475 31.1546 67.8068 31.4383 67.4522L34.2191 63.9761C34.6195 63.4757 35.3805 63.4757 35.7809 63.9761L38.5617 67.4522C38.8454 67.8068 39 68.2475 39 68.7016V132C39 133.105 38.1046 134 37 134H33C31.8954 134 31 133.105 31 132V68.7016Z" fill="#C2DDFF"/>
<path fill-rule="evenodd" clip-rule="evenodd" d="M51 23C51 21.8954 51.8954 21 53 21H63C64.1046 21 65 21.8954 65 23V26H71V23C71 21.8954 71.8954 21 73 21H83C84.1046 21 85 21.8954 85 23V26H91V23C91 21.8954 91.8954 21 93 21H103C104.105 21 105 21.8954 105 23V59C105 60.1046 104.105 61 103 61C101.895 61 101 60.1046 101 59V25H95V28C95 29.1046 94.1046 30 93 30H83C81.8954 30 81 29.1046 81 28V25H75V28C75 29.1046 74.1046 30 73 30H63C61.8954 30 61 29.1046 61 28V25H55V59C55 60.1046 54.1046 61 53 61C51.8954 61 51 60.1046 51 59V23Z" fill="#1C3553"/>
<path fill-rule="evenodd" clip-rule="evenodd" d="M76.8906 38.3359C77.5624 37.888 78.4376 37.888 79.1094 38.3359L85.1094 42.3359C85.6658 42.7068 86 43.3313 86 44V55C86 56.1046 85.1046 57 84 57H72C70.8954 57 70 56.1046 70 55V44C70 43.3313 70.3342 42.7068 70.8906 42.3359L76.8906 38.3359ZM74 45.0704V53H82V45.0704L78 42.4037L74 45.0704Z" fill="#1C3553"/>
<path fill-rule="evenodd" clip-rule="evenodd" d="M51 67C51 65.8954 51.8954 65 53 65H63C64.1046 65 65 65.8954 65 67V70H71V67C71 65.8954 71.8954 65 73 65H83C84.1046 65 85 65.8954 85 67V70H91V67C91 65.8954 91.8954 65 93 65H103C104.105 65 105 65.8954 105 67V70H110.5C111.605 70 112.5 70.8954 112.5 72C112.5 73.1046 111.605 74 110.5 74H103C101.895 74 101 73.1046 101 72V69H95V72C95 73.1046 94.1046 74 93 74H83C81.8954 74 81 73.1046 81 72V69H75V72C75 73.1046 74.1046 74 73 74H63C61.8954 74 61 73.1046 61 72V69H55V72C55 73.1046 54.1046 74 53 74H45C43.8954 74 43 73.1046 43 72C43 70.8954 43.8954 70 45 70H51V67Z" fill="#1C3553"/>
<path fill-rule="evenodd" clip-rule="evenodd" d="M85 84C85 82.8954 85.8954 82 87 82H99C100.105 82 101 82.8954 101 84V96C101 97.1046 100.105 98 99 98H87C85.8954 98 85 97.1046 85 96V84ZM89 86V94H97V86H89Z" fill="#1C3553"/>
<path fill-rule="evenodd" clip-rule="evenodd" d="M55 84C55 82.8954 55.8954 82 57 82H69C70.1046 82 71 82.8954 71 84V96C71 97.1046 70.1046 98 69 98H57C55.8954 98 55 97.1046 55 96V84ZM59 86V94H67V86H59Z" fill="#1C3553"/>
<path fill-rule="evenodd" clip-rule="evenodd" d="M68 110.359V132H88V110.359C87.2969 110.094 86.3406 109.75 85.2519 109.408C82.9075 108.67 80.1498 108 78 108C75.8502 108 73.0925 108.67 70.7481 109.408C69.6594 109.75 68.7031 110.094 68 110.359ZM90 109L90.7822 107.159C91.5206 107.473 92 108.198 92 109V134C92 135.105 91.1046 136 90 136H66C64.8954 136 64 135.105 64 134V109C64 108.198 64.4794 107.473 65.2178 107.159L66 109C65.2178 107.159 65.2176 107.159 65.2178 107.159L65.2266 107.156L65.2457 107.148L65.3135 107.119C65.3717 107.095 65.4556 107.061 65.5627 107.017C65.777 106.93 66.0852 106.808 66.469 106.662C67.2355 106.37 68.3102 105.982 69.547 105.592C71.9677 104.83 75.21 104 78 104C80.79 104 84.0323 104.83 86.453 105.592C87.6898 105.982 88.7645 106.37 89.531 106.662C89.9148 106.808 90.223 106.93 90.4373 107.017C90.5444 107.061 90.6283 107.095 90.6865 107.119L90.7543 107.148L90.7734 107.156L90.7822 107.159C90.7824 107.159 90.7822 107.159 90 109ZM66.7816 110.841C66.7814 110.841 66.7815 110.841 66.7816 110.841V110.841Z" fill="#1C3553"/>
<path fill-rule="evenodd" clip-rule="evenodd" d="M45 68C46.1046 68 47 68.8954 47 70V132H109V70C109 68.8954 109.895 68 111 68C112.105 68 113 68.8954 113 70V134C113 135.105 112.105 136 111 136H45C43.8954 136 43 135.105 43 134V70C43 68.8954 43.8954 68 45 68Z" fill="#1C3553"/>
<path fill-rule="evenodd" clip-rule="evenodd" d="M121 57C119.895 57 119 56.1046 119 55L119 41C119 39.8954 119.895 39 121 39C122.105 39 123 39.8954 123 41L123 55C123 56.1046 122.105 57 121 57Z" fill="#1C3553"/>
<path fill-rule="evenodd" clip-rule="evenodd" d="M121 52C121.633 52 122.229 52.2997 122.606 52.8079L132.606 66.2796C132.862 66.6244 133 67.0423 133 67.4717V134C133 135.105 132.105 136 131 136H111C109.895 136 109 135.105 109 134V67.4717C109 67.0423 109.138 66.6244 109.394 66.2796L119.394 52.8079C119.771 52.2997 120.367 52 121 52ZM113 68.1329V132H129V68.1329L121 57.3555L113 68.1329Z" fill="#1C3553"/>
<path fill-rule="evenodd" clip-rule="evenodd" d="M119 38C119 36.8954 119.895 36 121 36H131C132.105 36 133 36.8954 133 38V46C133 47.1046 132.105 48 131 48H121C119.895 48 119 47.1046 119 46V38ZM123 40V44H129V40H123Z" fill="#1C3553"/>
<path fill-rule="evenodd" clip-rule="evenodd" d="M35 57C33.8954 57 33 56.1046 33 55L33 41C33 39.8954 33.8954 39 35 39C36.1046 39 37 39.8954 37 41L37 55C37 56.1046 36.1046 57 35 57Z" fill="#1C3553"/>
<path fill-rule="evenodd" clip-rule="evenodd" d="M33 38C33 36.8954 33.8954 36 35 36H45C46.1046 36 47 36.8954 47 38V46C47 47.1046 46.1046 48 45 48H35C33.8954 48 33 47.1046 33 46V38ZM37 40V44H43V40H37Z" fill="#1C3553"/>
<path fill-rule="evenodd" clip-rule="evenodd" d="M35 52C35.633 52 36.2286 52.2997 36.6059 52.8079L46.6059 66.2796C46.8618 66.6244 47 67.0423 47 67.4717V134C47 135.105 46.1046 136 45 136H25C23.8954 136 23 135.105 23 134V67.4717C23 67.0423 23.1382 66.6244 23.3941 66.2796L33.3941 52.8079C33.7714 52.2997 34.367 52 35 52ZM27 68.1329V132H43V68.1329L35 57.3555L27 68.1329Z" fill="#1C3553"/>
<path fill-rule="evenodd" clip-rule="evenodd" d="M16 134C16 132.895 16.8954 132 18 132H138C139.105 132 140 132.895 140 134C140 135.105 139.105 136 138 136H18C16.8954 136 16 135.105 16 134Z" fill="#1C3553"/>
</svg>
