<svg width="156" height="156" viewBox="0 0 156 156" fill="none" xmlns="http://www.w3.org/2000/svg">
<path fill-rule="evenodd" clip-rule="evenodd" d="M78 124C103.405 124 124 103.405 124 78C124 52.5949 103.405 32 78 32C52.5949 32 32 52.5949 32 78C32 103.405 52.5949 124 78 124ZM54 68L79 44L104 68V79H76V106H54V68Z" fill="#C2DDFF"/>
<path fill-rule="evenodd" clip-rule="evenodd" d="M78 28C66.6118 28 56.1181 31.8048 47.7126 38.2137C46.8343 38.8834 45.5793 38.7142 44.9096 37.8359C44.2398 36.9575 44.409 35.7025 45.2874 35.0328C54.3653 28.1112 65.7054 24 78 24C107.823 24 132 48.1766 132 78C132 107.823 107.823 132 78 132C48.1766 132 24 107.823 24 78C24 64.0031 29.328 51.246 38.063 41.6534C38.8067 40.8367 40.0716 40.7775 40.8883 41.5212C41.705 42.2649 41.7642 43.5299 41.0205 44.3466C32.9299 53.2314 28 65.0377 28 78C28 105.614 50.3858 128 78 128C105.614 128 128 105.614 128 78C128 50.3858 105.614 28 78 28Z" fill="#1C3553"/>
<path fill-rule="evenodd" clip-rule="evenodd" d="M76.2299 42.8869C77.7777 41.401 80.2223 41.401 81.7701 42.8869L104.155 64.3766C105.334 65.508 106 67.0711 106 68.7049V77C106 77.5183 105.799 78.0164 105.439 78.3892L77.4388 107.389C77.0619 107.78 76.5426 108 76 108H58C54.6863 108 52 105.314 52 102V68.7049C52 67.0711 52.6662 65.508 53.8448 64.3766L76.2299 42.8869ZM79 45.7725L56.6149 67.2621C56.2221 67.6393 56 68.1603 56 68.7049V102C56 103.105 56.8954 104 58 104H75.1509L102 76.1921V68.7049C102 68.1603 101.778 67.6393 101.385 67.2621L79 45.7725Z" fill="#1C3553"/>
<path fill-rule="evenodd" clip-rule="evenodd" d="M78.6651 79.6642C78.1958 80.1335 78.0009 80.6505 78.0009 81V106C78.0009 107.105 77.1054 108 76.0009 108C74.8963 108 74.0009 107.105 74.0009 106V81C74.0009 79.3495 74.8059 77.8665 75.8366 76.8358C76.8673 75.8051 78.3504 75 80.0009 75H104.001C105.105 75 106.001 75.8954 106.001 77C106.001 78.1046 105.105 79 104.001 79H80.0009C79.6513 79 79.1344 79.1949 78.6651 79.6642Z" fill="#1C3553"/>
</svg>
