<svg width="156" height="156" viewBox="0 0 156 156" fill="none" xmlns="http://www.w3.org/2000/svg">
<path fill-rule="evenodd" clip-rule="evenodd" d="M77.9999 33.9744C77.9999 32.1724 75.8039 31.2895 74.5566 32.5899L32.6231 76.3078C32.0133 76.9435 32.4639 78 33.3448 78H40.9999C42.1045 78 42.9999 78.8955 42.9999 80V132C42.9999 133.105 43.8954 134 44.9999 134H76C77.1046 134 78 133.105 78 132L77.9999 33.9744ZM52.9999 108C52.9999 106.895 53.8954 106 54.9999 106H64.9999C66.1045 106 66.9999 106.895 66.9999 108V132C66.9999 133.105 66.1045 134 64.9999 134H54.9999C53.8954 134 52.9999 133.105 52.9999 132V108ZM52.9999 86C52.9999 84.8954 53.8954 84 54.9999 84H64.9999C66.1045 84 66.9999 84.8954 66.9999 86V96C66.9999 97.1045 66.1045 98 64.9999 98H54.9999C53.8954 98 52.9999 97.1045 52.9999 96V86Z" fill="#C2DDFF"/>
<path fill-rule="evenodd" clip-rule="evenodd" d="M73.7089 21.5756C76.0506 19.1414 79.9392 19.1191 82.3088 21.5263L139.075 79.1939C141.565 81.7227 139.773 86 136.225 86H121V104C121 105.105 120.104 106 119 106C117.895 106 117 105.105 117 104V85C117 83.3431 118.343 82 120 82H136.225L79.4582 24.3323C78.6683 23.5299 77.3721 23.5374 76.5915 24.3488L56.1619 45.5853C54.2895 47.5316 50.9999 46.2062 50.9999 43.5054V39H38.9999V61.5857C38.9999 62.3814 38.6838 63.1445 38.1212 63.7071L19.8283 82H35.9999C37.6568 82 38.9999 83.3431 38.9999 85V132H117V112C117 110.895 117.895 110 119 110C120.104 110 121 110.895 121 112V134C121 135.105 120.104 136 119 136H36.9999C35.8953 136 34.9999 135.105 34.9999 134V86H19.8283C16.2647 86 14.48 81.6914 16.9999 79.1715L34.9999 61.1715V38C34.9999 36.3431 36.343 35 37.9999 35H51.9999C53.6568 35 54.9999 36.3431 54.9999 38V41.0235L73.7089 21.5756Z" fill="#1C3553"/>
<path fill-rule="evenodd" clip-rule="evenodd" d="M26 134C26 132.895 26.8954 132 28 132H128C129.105 132 130 132.895 130 134C130 135.105 129.105 136 128 136H28C26.8954 136 26 135.105 26 134Z" fill="#1C3553"/>
<path fill-rule="evenodd" clip-rule="evenodd" d="M87 106C87 104.895 87.8954 104 89 104H103C104.105 104 105 104.895 105 106V134C105 135.105 104.105 136 103 136H89C87.8954 136 87 135.105 87 134V106ZM91 108V132H101V108H91Z" fill="#1C3553"/>
<path fill-rule="evenodd" clip-rule="evenodd" d="M51 106C51 104.895 51.8954 104 53 104H67C68.1046 104 69 104.895 69 106V134C69 135.105 68.1046 136 67 136H53C51.8954 136 51 135.105 51 134V106ZM55 108V132H65V108H55Z" fill="#1C3553"/>
<path fill-rule="evenodd" clip-rule="evenodd" d="M51 84C51 82.8954 51.8954 82 53 82H67C68.1046 82 69 82.8954 69 84V98C69 99.1046 68.1046 100 67 100H53C51.8954 100 51 99.1046 51 98V84ZM55 86V96H65V86H55Z" fill="#1C3553"/>
<path fill-rule="evenodd" clip-rule="evenodd" d="M87 84C87 82.8954 87.8954 82 89 82H103C104.105 82 105 82.8954 105 84V98C105 99.1046 104.105 100 103 100H89C87.8954 100 87 99.1046 87 98V84ZM91 86V96H101V86H91Z" fill="#1C3553"/>
</svg>
