<svg width="156" height="156" viewBox="0 0 156 156" fill="none" xmlns="http://www.w3.org/2000/svg">
<path fill-rule="evenodd" clip-rule="evenodd" d="M59.0507 77C59.284 79.372 60.2037 81.7724 61.9136 83.7705C69.7139 92.8855 78 100.542 78 100.542C78 100.542 86.286 92.8855 94.0863 83.7705C95.7962 81.7724 96.716 79.372 96.9492 77H111C112.105 77 113 77.8954 113 79V121C113 122.105 112.105 123 111 123H45C43.8954 123 43 122.105 43 121V79C43 77.8954 43.8954 77 45 77H59.0507Z" fill="#C2DDFF"/>
<path fill-rule="evenodd" clip-rule="evenodd" d="M73.7089 16.5756C76.0506 14.1414 79.9392 14.1191 82.3088 16.5263L139.075 74.1939C141.565 76.7227 139.773 81 136.225 81H121V99C121 100.105 120.104 101 119 101C117.895 101 117 100.105 117 99V80C117 78.3431 118.343 77 120 77H136.225L79.4582 19.3323C78.6683 18.5299 77.3721 18.5374 76.5915 19.3488L56.1619 40.5853C54.2895 42.5316 50.9999 41.2062 50.9999 38.5054V34H38.9999V56.5857C38.9999 57.3814 38.6838 58.1445 38.1212 58.7071L19.8283 77H35.9999C37.6568 77 38.9999 78.3431 38.9999 80V125C38.9999 126.105 39.8953 127 40.9999 127H115C116.104 127 117 126.105 117 125V107C117 105.895 117.895 105 119 105C120.104 105 121 105.895 121 107V125C121 128.314 118.314 131 115 131H40.9999C37.6862 131 34.9999 128.314 34.9999 125V81H19.8283C16.2647 81 14.48 76.6914 16.9999 74.1715L34.9999 56.1715V33C34.9999 31.3431 36.343 30 37.9999 30H51.9999C53.6568 30 54.9999 31.3431 54.9999 33V36.0235L73.7089 16.5756Z" fill="#1C3553"/>
<path fill-rule="evenodd" clip-rule="evenodd" d="M62.8977 70.2803C60.4091 73.2666 60.1355 78.9074 63.4811 82.6712C67.4352 87.1196 71.3953 91.0801 74.3701 93.9309C75.8563 95.3552 77.0937 96.4998 77.9579 97.2868C77.9674 97.2955 77.9768 97.3041 77.9862 97.3126C77.9956 97.3041 78.0051 97.2955 78.0145 97.2868C78.8787 96.4998 80.1162 95.3552 81.6024 93.9309C84.5772 91.08 88.5373 87.1195 92.4914 82.6712C95.8369 78.9074 95.5633 73.2666 93.0748 70.2803C91.9034 68.8747 90.2549 68.0608 88.1372 68.2714C85.9352 68.4904 82.9654 69.8491 79.4004 73.4141C79.0254 73.7892 78.5166 73.9999 77.9862 73.9999C77.4558 73.9999 76.9471 73.7892 76.572 73.4141C73.007 69.8491 70.0373 68.4903 67.8352 68.2713C65.7175 68.0607 64.069 68.8747 62.8977 70.2803ZM77.9862 99.9999L76.6692 101.505C77.4232 102.165 78.5492 102.165 79.3032 101.505L77.9862 99.9999ZM77.9862 99.9999C79.3032 101.505 79.3031 101.505 79.3032 101.505L79.304 101.504L79.3298 101.482L79.4019 101.418C79.4647 101.363 79.557 101.281 79.6766 101.174C79.9159 100.961 80.2649 100.648 80.7079 100.244C81.5937 99.4374 82.8562 98.2695 84.37 96.8188C87.3952 93.9197 91.4351 89.8802 95.481 85.3286C100.135 80.0924 99.9091 72.2333 96.1476 67.7196C94.194 65.3752 91.28 63.9391 87.7414 64.291C84.7031 64.5931 81.4125 66.1895 77.9862 69.2475C74.5599 66.1895 71.2693 64.5931 68.231 64.291C64.6924 63.9391 61.7784 65.3751 59.8248 67.7195C56.0634 72.2332 55.837 80.0924 60.4915 85.3286C64.5374 89.8803 68.5772 93.9197 71.6024 96.8189C73.1162 98.2696 74.3787 99.4375 75.2646 100.244C75.7075 100.648 76.0565 100.961 76.2958 101.174C76.4154 101.281 76.5077 101.363 76.5706 101.418L76.6426 101.482L76.6669 101.503L76.6684 101.504L76.6692 101.505C76.6694 101.505 76.6692 101.505 77.9862 99.9999Z" fill="#1C3553"/>
</svg>
