<svg width="156" height="156" viewBox="0 0 156 156" fill="none" xmlns="http://www.w3.org/2000/svg">
<path fill-rule="evenodd" clip-rule="evenodd" d="M126.78 82.6695L122.5 78L109.5 86.5L104 94L102 100.5L98.0001 103L95.5001 107.5L89.5001 109L86.0001 113L74.5001 109L70.0001 111.75L65.0001 109H59.0001L49.0001 100.5L45.0001 92.5L43.0001 86.5L33.5001 76L29.2346 82.8248C31.6582 107.622 52.5662 127 78.0001 127C103.487 127 124.429 107.541 126.78 82.6695ZM110.346 41.1924L104 45L108 52L102 56H82.5001L71.5001 61L58.0001 57L46.5001 53.5L51.0001 45L45.2512 41.5507C53.93 33.7478 65.4106 29 78.0001 29C90.3957 29 101.716 33.6028 110.346 41.1924Z" fill="#C2DDFF"/>
<path fill-rule="evenodd" clip-rule="evenodd" d="M77.9999 25C67.3315 25 57.405 28.15 49.0922 33.57C48.167 34.1733 46.9278 33.9123 46.3245 32.987C45.7213 32.0617 45.9823 30.8226 46.9075 30.2193C55.8504 24.3885 66.5325 21 77.9999 21C89.5388 21 100.282 24.4308 109.259 30.3285C110.182 30.935 110.439 32.175 109.832 33.0982C109.226 34.0213 107.986 34.278 107.063 33.6715C98.7184 28.1893 88.7346 25 77.9999 25ZM132.121 88.0478C133.2 88.2877 133.879 89.3562 133.639 90.4344C127.965 115.934 105.211 135 77.9999 135C51.5308 135 29.2802 116.96 22.8631 92.5077C22.5827 91.4393 23.2215 90.3459 24.2899 90.0655C25.3583 89.7851 26.4517 90.4239 26.7321 91.4923C32.6992 114.23 53.3936 131 77.9999 131C103.297 131 124.459 113.275 129.735 89.5656C129.975 88.4874 131.043 87.8078 132.121 88.0478Z" fill="#1C3553"/>
<path fill-rule="evenodd" clip-rule="evenodd" d="M72.1041 63.5847C74.2512 62.3696 76.4589 61.1201 78.4732 59.9572C79.6613 59.2712 81.4647 58.6917 83.6678 58.2598C85.8384 57.8344 88.2602 57.578 90.5917 57.4673C92.9239 57.3565 95.1205 57.3936 96.8349 57.5398C97.6947 57.6132 98.3994 57.7112 98.9231 57.8214C99.4148 57.9249 99.5927 58.0088 99.5949 58.0044C99.5954 58.0034 99.5871 57.9981 99.5717 57.9876C100.214 58.4248 101.051 58.4508 101.718 58.0544L109.021 53.7198C109.971 53.156 110.284 51.929 109.72 50.9791C109.156 50.0293 107.929 49.7163 106.979 50.2801L100.536 54.1045C100.265 54.0231 99.9953 53.9594 99.7469 53.9071C99.0104 53.7521 98.1324 53.636 97.1748 53.5543C95.2546 53.3905 92.8782 53.3542 90.402 53.4718C87.9252 53.5894 85.3034 53.8631 82.8984 54.3345C80.5259 54.7995 78.2216 55.4836 76.4732 56.4931C74.5734 57.5899 72.4407 58.7972 70.3315 59.9911C66.1508 62.3575 62.063 64.6715 60.0663 65.9688C59.9587 66.0387 59.858 66.1189 59.7657 66.2081C57.2206 68.669 57.6545 72.2312 59.0176 74.5921C60.3807 76.953 63.2486 79.1099 66.6524 78.1362C66.7374 78.1119 66.8207 78.082 66.9017 78.0466L81.2811 71.7773C83.0756 72.9416 85.6591 74.2579 88.5862 75.0975C92.0844 76.1008 96.2933 76.4834 100.262 74.8493C101.283 74.4288 101.77 73.2598 101.349 72.2385C100.929 71.2171 99.76 70.73 98.7386 71.1506C95.907 72.3166 92.6992 72.1158 89.689 71.2525C86.686 70.3912 84.0983 68.9301 82.6865 67.8899C82.1119 67.4664 81.3551 67.3814 80.7008 67.6666L65.4469 74.3173C64.4753 74.5345 63.2854 73.9842 62.4817 72.5921C61.6922 71.2246 61.7924 69.9405 62.4351 69.2009C64.3911 67.95 68.1447 65.8256 72.1041 63.5847ZM51.5151 78.0597C51.198 78.139 50.9052 78.2947 50.6622 78.5134L43.5643 84.9015C41.1433 87.0804 40.9028 90.793 43.0226 93.266L45.659 96.3418C45.4943 97.2451 45.6972 98.1405 45.9371 98.7883C46.3653 99.9444 47.1563 101.089 47.9816 102.052C48.8237 103.034 49.8107 103.954 50.7576 104.646C51.2305 104.992 51.7289 105.306 52.2239 105.543C52.342 105.599 52.472 105.657 52.6118 105.712C52.8389 106.13 53.1547 106.657 53.5681 107.229C54.5096 108.532 56.0221 110.156 58.2307 111.183C60.0738 112.04 61.9566 111.501 63.282 110.559C64.699 112.616 66.8611 113.731 68.3051 114.29C70.4232 115.11 72.5408 114.288 73.8684 112.96L80.4144 106.414C80.7894 106.039 81.0001 105.53 81.0001 105C81.0001 102.457 80.0267 100.403 78.4539 99.0051C77.4036 98.0716 76.1405 97.4772 74.8308 97.1947C74.4891 95.4108 73.6371 93.8075 72.3381 92.6384C71.1054 91.5289 69.5409 90.8781 67.814 90.812C67.407 88.5233 66.3442 86.6643 64.735 85.5C63.5389 84.6345 62.1569 84.2408 60.7574 84.2991C60.5377 82.7411 59.7933 81.3272 58.7594 80.244C57.0208 78.4227 54.3064 77.3618 51.5151 78.0597ZM59.6431 88.6545C60.72 88.0978 61.684 88.2296 62.3902 88.7406C63.0719 89.2339 63.7934 90.2947 63.963 92.1542L53.5427 101.706C53.4138 101.625 53.2715 101.529 53.1177 101.416C52.4396 100.921 51.6766 100.216 51.0187 99.4484C50.344 98.6613 49.885 97.9306 49.6881 97.3991C49.6643 97.3346 49.6463 97.2801 49.6329 97.2346L59.6431 88.6545ZM49.5968 97.0783C49.5988 97.0558 49.5971 97.0427 49.5957 97.0417C49.5944 97.0408 49.5934 97.052 49.5968 97.0783ZM48.2171 93.1799L46.0596 90.6628C45.353 89.8385 45.4332 88.601 46.2402 87.8747L52.9193 81.8634C53.9943 81.7496 55.085 82.1878 55.8659 83.0059C56.6285 83.8048 56.9758 84.8326 56.7557 85.861L48.2171 93.1799ZM56.4958 104.425L66.9425 94.8492C68.0996 94.6797 69.0077 95.0225 69.6622 95.6116C70.2894 96.176 70.7779 97.0578 70.9413 98.1741L67.3579 101.459L64.1865 104.366L64.1853 104.367L61.1533 107.146C60.9 107.379 60.6244 107.521 60.3922 107.578C60.1738 107.632 60.0257 107.606 59.9173 107.556C58.5312 106.912 57.5068 105.851 56.8101 104.886C56.6946 104.727 56.5899 104.572 56.4958 104.425ZM73.7185 101.055C74.5166 101.178 75.2445 101.504 75.7964 101.995C76.3453 102.483 76.7952 103.197 76.946 104.226L71.04 110.132C70.5407 110.631 70.0404 110.672 69.7491 110.56C68.3885 110.033 67.0037 109.176 66.3146 107.841L73.7185 101.055ZM124.517 75.8571C123.964 74.9005 122.741 74.5727 121.785 75.125C118.203 77.1928 116.136 79.1474 114.45 80.7423C114.219 80.9607 113.995 81.1724 113.776 81.3767C112.044 82.9875 110.538 84.1949 107.451 85.0769C106.389 85.3804 105.774 86.4873 106.077 87.5494C106.381 88.6115 107.488 89.2265 108.55 88.923C112.463 87.805 114.509 86.1576 116.5 84.3053C116.736 84.086 116.97 83.8652 117.205 83.6426C118.869 82.0715 120.626 80.413 123.785 78.5891C124.741 78.0368 125.069 76.8137 124.517 75.8571Z" fill="#1C3553"/>
<path fill-rule="evenodd" clip-rule="evenodd" d="M126.252 31.0386C125.697 30.8385 125.083 30.8931 124.573 31.1878L103.456 43.3793C102.996 43.6449 102.661 44.0824 102.524 44.5954C102.387 45.1085 102.46 45.655 102.726 46.1144L124.296 83.3262C125.38 85.1951 127.751 85.8663 129.653 84.8422L139.46 79.5621C142.094 78.1439 143.281 75.002 142.243 72.1964L127.448 32.2256C127.244 31.6729 126.806 31.2386 126.252 31.0386ZM124.52 35.8371L138.492 73.5848C138.838 74.52 138.442 75.5674 137.564 76.0401L127.757 81.3203L107.191 45.8417L111.376 43.4259L128.67 73.3811C129.222 74.3377 130.446 74.6655 131.402 74.1132C132.359 73.5609 132.687 72.3377 132.134 71.3811L114.84 41.4259L124.52 35.8371Z" fill="#1C3553"/>
<path fill-rule="evenodd" clip-rule="evenodd" d="M58.6566 55.0227C63.1946 55.9878 68.4313 57.3652 72.254 60.4419C73.1145 61.1344 73.2506 62.3934 72.5581 63.2539C71.8655 64.1144 70.6065 64.2506 69.746 63.558C66.7431 61.1411 62.3797 59.9039 57.8245 58.9352C56.9594 58.7512 56.0661 58.5726 55.1812 58.3956C53.8477 58.129 52.5334 57.8661 51.3633 57.5946C49.4038 57.1397 47.4776 56.5846 46.0009 55.732C45.0443 55.1797 44.7166 53.9565 45.2688 52.9999C45.8211 52.0434 47.0443 51.7156 48.0009 52.2679C48.9238 52.8007 50.344 53.2516 52.2678 53.6981C53.4042 53.9619 54.5878 54.1981 55.8524 54.4503C56.7431 54.628 57.6739 54.8137 58.6566 55.0227ZM90.9296 73.4128C95.9955 76.333 102.263 79.9487 107.068 82.7288C107.95 83.2394 108.818 84.0327 109.318 85.1458C110.151 86.9972 110.337 88.7129 109.866 90.24C109.4 91.7505 108.384 92.7734 107.401 93.4377C106.813 93.8357 106.2 94.131 105.641 94.3494C105.957 96.0704 105.661 97.9221 104.938 99.4708C103.989 101.504 102.173 103.305 99.5977 103.839C99.3306 104.648 98.8745 105.718 98.1072 106.753C97.3064 107.834 96.1528 108.894 94.5299 109.55C93.3458 110.028 91.9864 110.26 90.4422 110.184C90.2521 110.679 89.9963 111.238 89.6557 111.798C88.5962 113.54 86.5384 115.488 83.1569 115.052C82.634 114.984 82.1762 114.823 81.8255 114.672L75.2272 111.844L75.226 111.844L75.2133 111.838C74.198 111.403 73.7275 110.227 74.1626 109.212C74.5977 108.197 75.7735 107.727 76.7888 108.162L76.7898 108.162L76.7942 108.164L76.8017 108.167C76.807 108.17 76.8061 108.169 76.8046 108.169L76.8071 108.17M78.1246 104.798L79.3556 105.414C80.4724 105.972 82.5873 107.03 86.5923 109.032C86.493 109.26 86.3756 109.494 86.2384 109.719C85.6651 110.662 84.9296 111.247 83.6692 111.085C83.6429 111.081 83.5594 111.063 83.4012 110.996L76.8121 108.172M79.9162 101.222L89.6328 106.081C91.1775 106.331 92.2646 106.151 93.0321 105.841C93.8469 105.512 94.4437 104.979 94.8932 104.372C95.224 103.925 95.467 103.449 95.6423 103.014L80.1015 94.7868L80.0999 94.7859L80.0983 94.7851L80.0968 94.7843L80.0939 94.7827L80.0925 94.782L80.0898 94.7806L80.0886 94.7799L80.0862 94.7787L80.084 94.7775L80.0829 94.777L80.0809 94.7759L80.08 94.7754L80.0791 94.7749L80.0759 94.7732L80.0745 94.7725L80.0732 94.7718L80.0721 94.7712L80.071 94.7707L80.0701 94.7702L80.0689 94.7695L80.0679 94.769L80.0669 94.7685L80.0658 94.7679C79.0896 94.2511 78.7165 93.0404 79.2333 92.0642C79.7501 91.088 80.9605 90.7156 81.9367 91.2324L81.9377 91.2329L81.9387 91.2334L81.9398 91.234L81.9408 91.2346L81.9421 91.2353L81.9431 91.2358L81.9442 91.2364L81.9454 91.237L81.9467 91.2377L81.9498 91.2393L81.9516 91.2403L81.9525 91.2408L81.9545 91.2418L81.9555 91.2424L81.9577 91.2435L81.9589 91.2442L81.9601 91.2448L81.964 91.2469L81.9654 91.2476L81.9683 91.2491L81.9699 91.25L81.9715 91.2508L81.9731 91.2517L98.4495 99.9745C99.7881 99.8194 100.758 98.9689 101.313 97.7792C101.879 96.5671 101.872 95.3099 101.534 94.4868L85.0651 85.7675C84.0889 85.2507 83.7165 84.0404 84.2333 83.0642C84.7501 82.088 85.9605 81.7156 86.9367 82.2324L103.31 90.901C103.384 90.8828 103.462 90.8621 103.544 90.8387C104.067 90.6902 104.667 90.4581 105.161 90.1241C105.646 89.7959 105.926 89.4434 106.044 89.0606C106.157 88.6945 106.216 87.999 105.671 86.7868C105.592 86.6111 105.405 86.388 105.065 86.1909C100.263 83.4126 93.9976 79.7983 88.9319 76.8782C86.3993 75.4183 84.1667 74.132 82.5674 73.2107L80.0027 71.7336C80.0026 71.7335 80.002 71.7332 81 70C81.9979 68.2667 81.998 68.2668 81.9981 68.2668L84.564 69.7446C86.1636 70.6661 88.3965 71.9525 90.9296 73.4128M79.9162 101.222L79.9078 101.217L79.9017 101.214L79.9007 101.214L79.8955 101.211C79.6185 101.073 79.3131 101 79.0035 101L79.0009 103C79.0035 101 77.0701 102.479 77.9965 104.73C78.0113 104.738 78.0402 104.754 78.0544 104.762C78.0672 104.769 78.0777 104.774 78.0806 104.776L78.0941 104.783L78.1007 104.786L78.106 104.789L78.1246 104.798M79.2667 69.002C79.8179 68.0448 81.0409 67.7157 81.9981 68.2668L81 70L80.0027 71.7336C79.0455 71.1825 78.7156 69.9593 79.2667 69.002ZM31.4895 75.8661C32.0418 74.9095 33.265 74.5817 34.2216 75.134C38.3998 77.5463 39.899 79.6656 40.9494 81.6034C41.0874 81.858 41.2054 82.083 41.3125 82.287C41.608 82.8499 41.8201 83.2541 42.1368 83.6828C42.5068 84.1837 43.0265 84.7054 44.0009 85.268C44.9575 85.8203 45.2853 87.0434 44.733 88C44.1807 88.9566 42.9575 89.2844 42.0009 88.7321C40.5757 87.9092 39.6331 87.0257 38.9193 86.0594C38.4025 85.3596 38.0015 84.5925 37.6748 83.9675C37.5893 83.8039 37.5088 83.6499 37.4327 83.5095C36.7129 82.1815 35.7221 80.6192 32.2216 78.5981C31.265 78.0458 30.9372 76.8227 31.4895 75.8661Z" fill="#1C3553"/>
<path fill-rule="evenodd" clip-rule="evenodd" d="M29.7137 31.1186C30.2679 30.9186 30.8822 30.9732 31.3926 31.2678L52.509 43.4594C53.4656 44.0117 53.7934 45.2349 53.2411 46.1915L31.5204 83.8128C30.4158 85.726 27.9695 86.3815 26.0563 85.2769L16.3136 79.6519C13.7812 78.1899 12.6716 75.1153 13.6866 72.3731L28.5169 32.3056C28.7215 31.753 29.1594 31.3187 29.7137 31.1186ZM31.4454 35.9171L17.4379 73.7615C17.0996 74.6756 17.4695 75.7005 18.3136 76.1878L28.0563 81.8128L48.777 45.9235L44.5897 43.506L27.2952 73.4612C26.7429 74.4178 25.5197 74.7455 24.5631 74.1933C23.6065 73.641 23.2788 72.4178 23.831 71.4612L41.1256 41.506L31.4454 35.9171Z" fill="#1C3553"/>
</svg>
