<svg width="156" height="156" viewBox="0 0 156 156" fill="none" xmlns="http://www.w3.org/2000/svg">
<path fill-rule="evenodd" clip-rule="evenodd" d="M78 112C78 112 103 76.7723 103 63.3333C103 49.8944 91.8071 39 78 39C64.1929 39 53 49.8944 53 63.3333C53 76.7723 78 112 78 112ZM78 74C83.5228 74 88 69.299 88 63.5C88 57.701 83.5228 53 78 53C72.4772 53 68 57.701 68 63.5C68 69.299 72.4772 74 78 74Z" fill="#C2DDFF"/>
<path fill-rule="evenodd" clip-rule="evenodd" d="M24 104C24 100.686 26.6863 98 30 98H61C62.1046 98 63 98.8954 63 100C63 101.105 62.1046 102 61 102H30C28.8954 102 28 102.895 28 104V132C28 133.105 28.8954 134 30 134H91C92.1046 134 93 134.895 93 136C93 137.105 92.1046 138 91 138H30C26.6863 138 24 135.314 24 132V104ZM93 100C93 98.8954 93.8954 98 95 98H124C127.314 98 130 100.686 130 104V132C130 135.314 127.314 138 124 138H99C97.8954 138 97 137.105 97 136C97 134.895 97.8954 134 99 134H124C125.105 134 126 133.105 126 132V104C126 102.895 125.105 102 124 102H95C93.8954 102 93 101.105 93 100Z" fill="#1C3553"/>
<path fill-rule="evenodd" clip-rule="evenodd" d="M120.999 14.2686C121.618 13.9105 122.382 13.9105 123.001 14.2686L142.001 25.2559C142.69 25.6543 143.077 26.4233 142.987 27.214C142.457 31.8636 140.847 39.1509 137.72 46.0627C134.613 52.9301 129.855 59.7606 122.835 62.987C122.305 63.2307 121.695 63.2307 121.165 62.987C114.146 59.7606 109.387 52.9301 106.28 46.0627C103.153 39.1509 101.543 31.8636 101.013 27.214C100.923 26.4233 101.31 25.6543 101.999 25.2559L120.999 14.2686ZM105.155 28.0515C105.778 32.3637 107.272 38.5517 109.925 44.4139C112.73 50.6137 116.693 56.1478 122 58.941C127.307 56.1478 131.27 50.6137 134.075 44.4139C136.728 38.5517 138.222 32.3637 138.845 28.0515L122 18.3103L105.155 28.0515Z" fill="#1C3553"/>
<path fill-rule="evenodd" clip-rule="evenodd" d="M119.408 25.477C120.565 23.4902 123.435 23.4902 124.592 25.477L126.841 29.3373L131.207 30.2828C133.454 30.7694 134.341 33.4992 132.809 35.2137L129.832 38.545L130.282 42.9896C130.514 45.2771 128.192 46.9643 126.088 46.0371L122 44.2356L117.912 46.0371C115.808 46.9642 113.486 45.2772 113.717 42.9896L114.167 38.545L111.191 35.2137C109.659 33.4992 110.546 30.7694 112.793 30.2828L117.159 29.3373L119.408 25.477ZM122 28.9738L120.394 31.7313C119.97 32.4591 119.26 32.9752 118.436 33.1535L115.318 33.8288L117.444 36.2084C118.005 36.8365 118.276 37.6715 118.191 38.5095L117.87 41.6844L120.79 40.3976C121.561 40.0579 122.439 40.0579 123.21 40.3976L126.13 41.6844L125.808 38.5095C125.724 37.6715 125.995 36.8365 126.556 36.2084L128.682 33.8288L125.563 33.1535C124.74 32.9752 124.03 32.4591 123.606 31.7313L122 28.9738Z" fill="#1C3553"/>
<path fill-rule="evenodd" clip-rule="evenodd" d="M33 16C33 14.8954 33.8954 14 35 14H59C60.1046 14 61 14.8954 61 16V35C61 36.1046 60.1046 37 59 37C57.8954 37 57 36.1046 57 35V18H37V31C37 32.1046 36.1046 33 35 33H17V66C17 67.1046 16.1046 68 15 68C13.8954 68 13 67.1046 13 66V31C13 29.8954 13.8954 29 15 29H33V16Z" fill="#1C3553"/>
<path fill-rule="evenodd" clip-rule="evenodd" d="M20 39C20 37.8954 20.8954 37 22 37H34C35.1046 37 36 37.8954 36 39C36 40.1046 35.1046 41 34 41H22C20.8954 41 20 40.1046 20 39Z" fill="#1C3553"/>
<path fill-rule="evenodd" clip-rule="evenodd" d="M20 48C20 46.8954 20.8954 46 22 46H34C35.1046 46 36 46.8954 36 48C36 49.1046 35.1046 50 34 50H22C20.8954 50 20 49.1046 20 48Z" fill="#1C3553"/>
<path fill-rule="evenodd" clip-rule="evenodd" d="M40 39C40 37.8954 40.8954 37 42 37H50C51.1046 37 52 37.8954 52 39C52 40.1046 51.1046 41 50 41H42C40.8954 41 40 40.1046 40 39Z" fill="#1C3553"/>
<path fill-rule="evenodd" clip-rule="evenodd" d="M40 48C40 46.8954 40.8954 46 42 46H46C47.1046 46 48 46.8954 48 48C48 49.1046 47.1046 50 46 50H42C40.8954 50 40 49.1046 40 48Z" fill="#1C3553"/>
<path fill-rule="evenodd" clip-rule="evenodd" d="M20 57C20 55.8954 20.8954 55 22 55H34C35.1046 55 36 55.8954 36 57C36 58.1046 35.1046 59 34 59H22C20.8954 59 20 58.1046 20 57Z" fill="#1C3553"/>
<path fill-rule="evenodd" clip-rule="evenodd" d="M40 23C40 21.8954 40.8954 21 42 21L52 21C53.1046 21 54 21.8954 54 23C54 24.1046 53.1046 25 52 25L42 25C40.8954 25 40 24.1046 40 23Z" fill="#1C3553"/>
<path fill-rule="evenodd" clip-rule="evenodd" d="M40 31C40 29.8954 40.8954 29 42 29L52 29C53.1046 29 54 29.8954 54 31C54 32.1046 53.1046 33 52 33L42 33C40.8954 33 40 32.1046 40 31Z" fill="#1C3553"/>
<path fill-rule="evenodd" clip-rule="evenodd" d="M55.5 122C55.5 123.105 54.6046 124 53.5 124L38 124C37.4696 124 36.9609 123.789 36.5858 123.414C36.2107 123.039 36 122.53 36 122L36 113L26 113C24.8954 113 24 112.105 24 111C24 109.895 24.8954 109 26 109L38 109C39.1046 109 40 109.895 40 111L40 120L53.5 120C54.6046 120 55.5 120.895 55.5 122Z" fill="#1C3553"/>
<path fill-rule="evenodd" clip-rule="evenodd" d="M55.5 122C55.5 123.105 56.3954 124 57.5 124C58.6046 124 59.5 123.105 59.5 122C59.5 120.895 58.6046 120 57.5 120C56.3954 120 55.5 120.895 55.5 122ZM57.5 128C54.1863 128 51.5 125.314 51.5 122C51.5 118.686 54.1863 116 57.5 116C60.8137 116 63.5 118.686 63.5 122C63.5 125.314 60.8137 128 57.5 128Z" fill="#1C3553"/>
<path fill-rule="evenodd" clip-rule="evenodd" d="M107.5 114C107.5 115.105 108.395 116 109.5 116C110.605 116 111.5 115.105 111.5 114C111.5 112.895 110.605 112 109.5 112C108.395 112 107.5 112.895 107.5 114ZM109.5 120C106.186 120 103.5 117.314 103.5 114C103.5 110.686 106.186 108 109.5 108C112.814 108 115.5 110.686 115.5 114C115.5 117.314 112.814 120 109.5 120Z" fill="#1C3553"/>
<path fill-rule="evenodd" clip-rule="evenodd" d="M92.4815 113.698C92.8615 113.255 93.4162 113 94 113H105C106.105 113 107 113.895 107 115C107 116.105 106.105 117 105 117H94.9199L89.5185 123.302C89.1385 123.745 88.5838 124 88 124H62C60.8954 124 60 123.105 60 122C60 120.895 60.8954 120 62 120H87.0801L92.4815 113.698Z" fill="#1C3553"/>
<path fill-rule="evenodd" clip-rule="evenodd" d="M78 55C73.6726 55 70 58.7125 70 63.5C70 68.2875 73.6726 72 78 72C82.3274 72 86 68.2875 86 63.5C86 58.7125 82.3274 55 78 55ZM66 63.5C66 56.6895 71.2818 51 78 51C84.7183 51 90 56.6895 90 63.5C90 70.3105 84.7183 76 78 76C71.2818 76 66 70.3105 66 63.5Z" fill="#1C3553"/>
<path fill-rule="evenodd" clip-rule="evenodd" d="M78 41C65.2461 41 55 51.0496 55 63.3333C55 66.2268 56.3911 70.6044 58.7292 75.7842C61.0289 80.8793 64.1116 86.4701 67.218 91.6823C70.3205 96.8879 73.4259 101.681 75.7574 105.176C76.6269 106.479 77.3879 107.6 78 108.493C78.6121 107.6 79.3731 106.479 80.2426 105.176C82.5741 101.681 85.6795 96.8879 88.782 91.6823C91.8884 86.4701 94.9711 80.8793 97.2708 75.7842C99.6089 70.6044 101 66.2268 101 63.3333C101 51.0496 90.7538 41 78 41ZM78 112C76.369 113.157 76.3688 113.157 76.3685 113.157L76.3492 113.13L76.2939 113.051C76.2455 112.983 76.1741 112.881 76.0814 112.749C75.8958 112.484 75.6247 112.095 75.2803 111.597C74.5914 110.6 73.6087 109.162 72.4301 107.396C70.0741 103.865 66.9295 99.0114 63.782 93.7302C60.6384 88.4557 57.4711 82.7197 55.0833 77.4299C52.7339 72.2248 51 67.1594 51 63.3333C51 48.7392 63.1396 37 78 37C92.8604 37 105 48.7392 105 63.3333C105 67.1594 103.266 72.2248 100.917 77.4299C98.5289 82.7197 95.3616 88.4557 92.218 93.7302C89.0705 99.0114 85.9259 103.865 83.5699 107.396C82.3913 109.162 81.4086 110.6 80.7197 111.597C80.3753 112.095 80.1042 112.484 79.9186 112.749C79.8259 112.881 79.7545 112.983 79.7061 113.051L79.6508 113.13L79.6315 113.157C79.6312 113.157 79.631 113.157 78 112ZM78 112L79.6315 113.157C79.2564 113.685 78.6481 114 78 114C77.3519 114 76.7436 113.685 76.3685 113.157L78 112ZM78 55C73.6726 55 70 58.7125 70 63.5C70 68.2875 73.6726 72 78 72C82.3274 72 86 68.2875 86 63.5C86 58.7125 82.3274 55 78 55ZM66 63.5C66 56.6895 71.2817 51 78 51C84.7183 51 90 56.6895 90 63.5C90 70.3105 84.7183 76 78 76C71.2817 76 66 70.3105 66 63.5Z" fill="#1C3553"/>
</svg>
