<svg width="156" height="156" viewBox="0 0 156 156" fill="none" xmlns="http://www.w3.org/2000/svg">
<path d="M84 29C84 28.4477 84.4477 28 85 28H127C127.552 28 128 28.4477 128 29V62C128 62.5523 127.552 63 127 63H85C84.4477 63 84 62.5523 84 62V29Z" fill="#C2DDFF"/>
<path d="M84 76C84 75.4477 84.4477 75 85 75H127C127.552 75 128 75.4477 128 76V128C128 128.552 127.552 129 127 129H85C84.4477 129 84 128.552 84 128V76Z" fill="#C2DDFF"/>
<path d="M29 101C29 100.448 29.4477 100 30 100H62C62.5523 100 63 100.448 63 101V128C63 128.552 62.5523 129 62 129H30C29.4477 129 29 128.552 29 128V101Z" fill="#C2DDFF"/>
<path fill-rule="evenodd" clip-rule="evenodd" d="M20 96C20 93.7909 21.7909 92 24 92H67C69.2091 92 71 93.7909 71 96V133C71 135.209 69.2091 137 67 137H24C21.7909 137 20 135.209 20 133V96ZM67 96L24 96V133L67 133V96Z" fill="#1C3553"/>
<path fill-rule="evenodd" clip-rule="evenodd" d="M20 86C20 84.8954 20.8954 84 22 84H69C70.1046 84 71 84.8954 71 86C71 87.1046 70.1046 88 69 88H22C20.8954 88 20 87.1046 20 86Z" fill="#1C3553"/>
<path fill-rule="evenodd" clip-rule="evenodd" d="M76 69C76 67.8954 76.8954 67 78 67H126C127.105 67 128 67.8954 128 69C128 70.1046 127.105 71 126 71H78C76.8954 71 76 70.1046 76 69Z" fill="#1C3553"/>
<path fill-rule="evenodd" clip-rule="evenodd" d="M90 79C91.1046 79 92 79.8954 92 81L92 107C92 108.105 91.1046 109 90 109C88.8954 109 88 108.105 88 107L88 81C88 79.8954 88.8954 79 90 79Z" fill="#1C3553"/>
<path fill-rule="evenodd" clip-rule="evenodd" d="M90 37C91.1046 37 92 37.8954 92 39L92 57C92 58.1046 91.1046 59 90 59C88.8954 59 88 58.1046 88 57L88 39C88 37.8954 88.8954 37 90 37Z" fill="#1C3553"/>
<path fill-rule="evenodd" clip-rule="evenodd" d="M76 26C76 22.6863 78.6863 20 82 20H130C133.314 20 136 22.6863 136 26V104C136 105.105 135.105 106 134 106C132.895 106 132 105.105 132 104V26C132 24.8954 131.105 24 130 24H82C80.8954 24 80 24.8954 80 26V133H132V112C132 110.895 132.895 110 134 110C135.105 110 136 110.895 136 112V133C136 135.209 134.209 137 132 137H80C77.7909 137 76 135.209 76 133V26Z" fill="#1C3553"/>
<path fill-rule="evenodd" clip-rule="evenodd" d="M49 42C50.1046 42 51 42.8954 51 44V78C51 79.1046 50.1046 80 49 80C47.8954 80 47 79.1046 47 78V44C47 42.8954 47.8954 42 49 42Z" fill="#1C3553"/>
<path fill-rule="evenodd" clip-rule="evenodd" d="M47.0001 58.2579C47.0001 57.1534 47.8955 56.2579 49.0001 56.2579H57.6153C58.7199 56.2579 59.6153 57.1534 59.6153 58.2579C59.6153 66.1421 58.1402 71.4197 56.1003 74.825C54.0734 78.2086 51.4053 79.8377 49.1386 79.9951C48.0367 80.0716 47.0814 79.2403 47.0049 78.1384C46.9284 77.0365 47.7596 76.0812 48.8615 76.0047C49.4666 75.9627 51.1061 75.3782 52.6689 72.7694C54.0744 70.4232 55.3539 66.509 55.58 60.2579H49.0001C47.8955 60.2579 47.0001 59.3625 47.0001 58.2579Z" fill="#1C3553"/>
<path fill-rule="evenodd" clip-rule="evenodd" d="M35.9985 42C37.1031 41.9993 37.9991 42.8941 37.9998 43.9987L38.0152 67.999C38.0159 69.1035 37.121 69.9995 36.0165 70.0002C34.9119 70.0009 34.0159 69.1061 34.0152 68.0015L33.9998 44.0013C33.9991 42.8967 34.894 42.0007 35.9985 42Z" fill="#1C3553"/>
<path fill-rule="evenodd" clip-rule="evenodd" d="M36 70C34.3431 70 33 71.3431 33 73C33 74.6569 34.3431 76 36 76C37.6569 76 39 74.6569 39 73C39 71.3431 37.6569 70 36 70ZM29 73C29 69.134 32.134 66 36 66C39.866 66 43 69.134 43 73C43 76.866 39.866 80 36 80C32.134 80 29 76.866 29 73Z" fill="#1C3553"/>
<path fill-rule="evenodd" clip-rule="evenodd" d="M22.9999 50.0013C22.9991 48.8968 23.894 48.0008 24.9985 48L64.9985 47.9737C66.1031 47.9729 66.9991 48.8678 66.9999 49.9723C67.0006 51.0769 66.1057 51.9729 65.0012 51.9737L25.0012 52C23.8966 52.0008 23.0006 51.1059 22.9999 50.0013Z" fill="#1C3553"/>
</svg>
