<svg width="156" height="156" viewBox="0 0 156 156" fill="none" xmlns="http://www.w3.org/2000/svg">
<path fill-rule="evenodd" clip-rule="evenodd" d="M78 38C61.4267 38 48 51.4004 48 67.92C48 74.0687 48.5329 78.3164 50.2206 82.2376C51.906 86.1536 54.8245 89.9321 59.9496 94.9667C62.6668 97.0953 64.0423 99.8547 64.9077 102.58C65.3421 103.949 65.6584 105.344 65.9429 106.656C65.9868 106.858 66.0299 107.059 66.0725 107.256C66.3117 108.368 66.5353 109.407 66.8082 110.41C67.4495 112.765 68.2756 114.555 69.7619 115.806C71.2305 117.041 73.6475 118 78 118C82.3525 118 84.7695 117.041 86.2381 115.806C87.7244 114.555 88.5505 112.765 89.1918 110.41C89.4647 109.407 89.6883 108.368 89.9275 107.256C89.9701 107.059 90.0131 106.859 90.0571 106.656C90.3416 105.344 90.6579 103.949 91.0923 102.58C91.9577 99.8547 93.3332 97.0953 96.0504 94.9667C101.176 89.9321 104.094 86.1536 105.779 82.2376C107.467 78.3164 108 74.0687 108 67.92C108 51.4004 94.5733 38 78 38ZM44 67.92C44 49.1818 59.227 34 78 34C96.773 34 112 49.1818 112 67.92C112 74.267 111.46 79.1567 109.454 83.819C107.454 88.4657 104.078 92.6976 98.7686 97.9036C98.7113 97.9597 98.6507 98.0124 98.5871 98.0613C96.6902 99.519 95.6433 101.464 94.9048 103.791C94.5321 104.965 94.2489 106.2 93.9663 107.503C93.9252 107.693 93.8841 107.884 93.8426 108.077C93.6045 109.185 93.3551 110.345 93.0513 111.46C92.3363 114.087 91.2332 116.83 88.8136 118.866C86.3763 120.917 82.9106 122 78 122C73.0894 122 69.6237 120.917 67.1864 118.866C64.7668 116.83 63.6637 114.087 62.9487 111.46C62.645 110.345 62.3955 109.185 62.1574 108.077C62.1159 107.884 62.0748 107.693 62.0337 107.503C61.7511 106.2 61.4679 104.965 61.0952 103.791C60.3567 101.464 59.3098 99.519 57.4129 98.0613C57.3493 98.0124 57.2887 97.9597 57.2314 97.9036C51.9216 92.6976 48.5464 88.4657 46.5465 83.819C44.5399 79.1567 44 74.267 44 67.92Z" fill="#1C3553"/>
<path d="M105 69.12C105 80.1282 99.7945 84.9203 91.5 93.9773C83.0625 102.386 90.6562 115 78 115C65.3438 115 72.0938 101.545 63.6562 93.9773C55.3617 84.9203 51 80.1282 51 69.12C51 53.5898 64.0203 41 78 41C91.9797 41 105 53.5898 105 69.12Z" fill="#C2DDFF"/>
<path fill-rule="evenodd" clip-rule="evenodd" d="M65 128C65 126.895 65.8954 126 67 126H89C90.1046 126 91 126.895 91 128C91 129.105 90.1046 130 89 130H67C65.8954 130 65 129.105 65 128Z" fill="#1C3553"/>
<path fill-rule="evenodd" clip-rule="evenodd" d="M65 136C65 134.895 65.8954 134 67 134H89C90.1046 134 91 134.895 91 136C91 137.105 90.1046 138 89 138H67C65.8954 138 65 137.105 65 136Z" fill="#1C3553"/>
<path fill-rule="evenodd" clip-rule="evenodd" d="M70 143C70 141.895 70.8954 141 72 141H84C85.1046 141 86 141.895 86 143C86 144.105 85.1046 145 84 145H72C70.8954 145 70 144.105 70 143Z" fill="#1C3553"/>
<path fill-rule="evenodd" clip-rule="evenodd" d="M78 9C79.1046 9 80 9.89543 80 11L80 24C80 25.1046 79.1046 26 78 26C76.8954 26 76 25.1046 76 24L76 11C76 9.89543 76.8954 9 78 9Z" fill="#1C3553"/>
<path fill-rule="evenodd" clip-rule="evenodd" d="M100.268 31C99.3114 30.4477 98.9836 29.2245 99.5359 28.2679L105.536 17.8756C106.088 16.9191 107.311 16.5913 108.268 17.1436C109.225 17.6959 109.552 18.9191 109 19.8756L103 30.2679C102.448 31.2245 101.225 31.5523 100.268 31Z" fill="#1C3553"/>
<path fill-rule="evenodd" clip-rule="evenodd" d="M47.7321 17C48.6886 16.4477 49.9118 16.7755 50.4641 17.7321L56.4641 28.1244C57.0164 29.0809 56.6886 30.3041 55.7321 30.8564C54.7755 31.4087 53.5523 31.0809 53 30.1244L47 19.7321C46.4477 18.7755 46.7755 17.5523 47.7321 17Z" fill="#1C3553"/>
<path fill-rule="evenodd" clip-rule="evenodd" d="M112.855 42.2679C112.303 41.3114 112.631 40.0882 113.588 39.5359L122.248 34.5359C123.204 33.9836 124.428 34.3114 124.98 35.2679C125.532 36.2245 125.204 37.4477 124.248 38L115.588 43C114.631 43.5523 113.408 43.2245 112.855 42.2679Z" fill="#1C3553"/>
<path fill-rule="evenodd" clip-rule="evenodd" d="M31 35.2679C31.5523 34.3114 32.7755 33.9836 33.7321 34.5359L42.3923 39.5359C43.3489 40.0882 43.6766 41.3114 43.1244 42.2679C42.5721 43.2245 41.3489 43.5523 40.3923 43L31.7321 38C30.7755 37.4477 30.4477 36.2245 31 35.2679Z" fill="#1C3553"/>
<path fill-rule="evenodd" clip-rule="evenodd" d="M70.7428 50.8569C66.5132 52.5487 59.0561 58.7678 59.996 72.8669C60.0695 73.969 59.2356 74.922 58.1335 74.9955C57.0314 75.069 56.0784 74.2351 56.0049 73.133C54.9448 57.2321 63.4867 49.4512 69.2572 47.143C70.2828 46.7327 71.4467 47.2316 71.8569 48.2571C72.2672 49.2827 71.7683 50.4466 70.7428 50.8569Z" fill="#1C3553"/>
</svg>
