<svg width="156" height="156" viewBox="0 0 156 156" fill="none" xmlns="http://www.w3.org/2000/svg">
<path fill-rule="evenodd" clip-rule="evenodd" d="M76.3825 98.6056C77.1586 99.7695 78.8414 99.7695 79.6175 98.6056C85.0047 90.5262 102 64.1541 102 53C102 39.7452 91.2548 29 78 29C64.7452 29 54 39.7452 54 53C54 64.1541 70.9953 90.5263 76.3825 98.6056ZM78 64C84.6274 64 90 58.6274 90 52C90 45.3726 84.6274 40 78 40C71.3726 40 66 45.3726 66 52C66 58.6274 71.3726 64 78 64Z" fill="#C2DDFF"/>
<path fill-rule="evenodd" clip-rule="evenodd" d="M78 25C62.4934 25 50 37.2797 50 52.3333C50 55.554 51.3794 60.2252 53.7309 65.7334C56.0527 71.1719 59.2133 77.1834 62.5455 82.9948C68.5483 93.4634 75.0387 103.163 78 107.487C80.9613 103.163 87.4517 93.4634 93.4545 82.9948C96.7867 77.1835 99.9473 71.1719 102.269 65.7334C104.621 60.2252 106 55.554 106 52.3333C106 37.2797 93.5066 25 78 25ZM46 52.3333C46 34.9863 60.3695 21 78 21C95.6305 21 110 34.9863 110 52.3333C110 56.4221 108.326 61.7338 105.948 67.3039C103.54 72.9435 100.296 79.1055 96.9245 84.9845C90.1797 96.7471 82.8433 107.525 80.4463 110.988C79.258 112.705 76.7419 112.705 75.5537 110.988C73.1567 107.525 65.8203 96.7471 59.0755 84.9845C55.7044 79.1055 52.4598 72.9435 50.0521 67.3039C47.6742 61.7338 46 56.4221 46 52.3333Z" fill="#1C3553"/>
<path fill-rule="evenodd" clip-rule="evenodd" d="M78 42C72.4772 42 68 46.4772 68 52C68 57.5228 72.4772 62 78 62C83.5228 62 88 57.5228 88 52C88 46.4772 83.5228 42 78 42ZM64 52C64 44.268 70.268 38 78 38C85.732 38 92 44.268 92 52C92 59.732 85.732 66 78 66C70.268 66 64 59.732 64 52Z" fill="#1C3553"/>
<path fill-rule="evenodd" clip-rule="evenodd" d="M25 94C25 90.6863 27.6863 88 31 88H55C56.1046 88 57 88.8954 57 90C57 91.1046 56.1046 92 55 92H31C29.8954 92 29 92.8954 29 94V122C29 123.105 29.8954 124 31 124H89C90.1046 124 91 124.895 91 126C91 127.105 90.1046 128 89 128H31C27.6863 128 25 125.314 25 122V94ZM99 90C99 88.8954 99.8954 88 101 88H125C128.314 88 131 90.6863 131 94V122C131 125.314 128.314 128 125 128H97C95.8954 128 95 127.105 95 126C95 124.895 95.8954 124 97 124H125C126.105 124 127 123.105 127 122V94C127 92.8954 126.105 92 125 92H101C99.8954 92 99 91.1046 99 90Z" fill="#1C3553"/>
<path fill-rule="evenodd" clip-rule="evenodd" d="M66 114C66 115.105 65.1046 116 64 116H47C45.8954 116 45 115.105 45 114V104H29C27.8954 104 27 103.105 27 102C27 100.895 27.8954 100 29 100H47C47.5304 100 48.0391 100.211 48.4142 100.586C48.7893 100.961 49 101.47 49 102V112H64C65.1046 112 66 112.895 66 114Z" fill="#1C3553"/>
<path fill-rule="evenodd" clip-rule="evenodd" d="M95 102C95 100.895 95.8954 100 97 100H110C111.105 100 112 100.895 112 102V112H129C130.105 112 131 112.895 131 114C131 115.105 130.105 116 129 116H110C108.895 116 108 115.105 108 114V104H97C95.8954 104 95 103.105 95 102Z" fill="#1C3553"/>
</svg>
