<svg width="156" height="156" viewBox="0 0 156 156" fill="none" xmlns="http://www.w3.org/2000/svg">
<path fill-rule="evenodd" clip-rule="evenodd" d="M76.3825 101.606C77.1586 102.77 78.8414 102.77 79.6175 101.606C85.0047 93.5262 102 67.1541 102 56C102 42.7452 91.2548 32 78 32C64.7452 32 54 42.7452 54 56C54 67.1541 70.9953 93.5263 76.3825 101.606ZM78 67C84.6274 67 90 61.6274 90 55C90 48.3726 84.6274 43 78 43C71.3726 43 66 48.3726 66 55C66 61.6274 71.3726 67 78 67Z" fill="#C2DDFF"/>
<path fill-rule="evenodd" clip-rule="evenodd" d="M78 28C62.4934 28 50 40.2797 50 55.3333C50 58.554 51.3794 63.2252 53.7309 68.7334C56.0527 74.1719 59.2133 80.1834 62.5455 85.9948C68.5483 96.4634 75.0387 106.163 78 110.487C80.9613 106.163 87.4517 96.4634 93.4545 85.9948C96.7867 80.1835 99.9473 74.1719 102.269 68.7334C104.621 63.2252 106 58.554 106 55.3333C106 40.2797 93.5066 28 78 28ZM46 55.3333C46 37.9863 60.3695 24 78 24C95.6305 24 110 37.9863 110 55.3333C110 59.4221 108.326 64.7338 105.948 70.3039C103.54 75.9435 100.296 82.1055 96.9245 87.9845C90.1797 99.7471 82.8433 110.525 80.4463 113.988C79.258 115.705 76.7419 115.705 75.5537 113.988C73.1567 110.525 65.8203 99.7471 59.0755 87.9845C55.7044 82.1055 52.4598 75.9435 50.0521 70.3039C47.6742 64.7338 46 59.4221 46 55.3333Z" fill="#1C3553"/>
<path fill-rule="evenodd" clip-rule="evenodd" d="M78 45C72.4772 45 68 49.4772 68 55C68 60.5228 72.4772 65 78 65C83.5228 65 88 60.5228 88 55C88 49.4772 83.5228 45 78 45ZM64 55C64 47.268 70.268 41 78 41C85.732 41 92 47.268 92 55C92 62.732 85.732 69 78 69C70.268 69 64 62.732 64 55Z" fill="#1C3553"/>
<path fill-rule="evenodd" clip-rule="evenodd" d="M38 122C38 120.895 38.8954 120 40 120H95C96.1046 120 97 120.895 97 122C97 123.105 96.1046 124 95 124H40C38.8954 124 38 123.105 38 122ZM101 122C101 120.895 101.895 120 103 120H116C117.105 120 118 120.895 118 122C118 123.105 117.105 124 116 124H103C101.895 124 101 123.105 101 122Z" fill="#1C3553"/>
</svg>
