<svg width="156" height="156" viewBox="0 0 156 156" fill="none" xmlns="http://www.w3.org/2000/svg">
<path fill-rule="evenodd" clip-rule="evenodd" d="M49 84V97C49 99.7614 51.2386 102 54 102H102C104.209 102 106 100.209 106 98V84H130C131.105 84 132 84.8954 132 86V127C132 128.105 131.105 129 130 129H25C23.8954 129 23 128.105 23 127V86C23 84.8954 23.8954 84 25 84H49Z" fill="#C2DDFF"/>
<path fill-rule="evenodd" clip-rule="evenodd" d="M15 82C15 78.6863 17.6863 76 21 76H41C42.1046 76 43 76.8954 43 78C43 79.1046 42.1046 80 41 80H21C19.8954 80 19 80.8954 19 82L19 130.467C19 131.558 19.8736 132.447 20.9639 132.467L39.3544 132.799L63.9019 133H98C99.1046 133 100 133.895 100 135C100 136.105 99.1046 137 98 137H63.8939L63.8775 137L39.3115 136.799L39.2918 136.798L20.8918 136.466C17.6208 136.407 15 133.739 15 130.467L15 82ZM113 78C113 76.8954 113.895 76 115 76H134C137.314 76 140 78.6863 140 82V131C140 134.314 137.314 137 134 137H106C104.895 137 104 136.105 104 135C104 133.895 104.895 133 106 133H134C135.105 133 136 132.105 136 131V82C136 80.8954 135.105 80 134 80H115C113.895 80 113 79.1046 113 78Z" fill="#1C3553"/>
<path fill-rule="evenodd" clip-rule="evenodd" d="M73.6596 21.6735C76.0176 19.1845 79.9781 19.174 82.3492 21.6505L121.205 62.2337C123.641 64.7776 121.838 69 118.316 69H109V98C109 101.314 106.314 104 103 104H53C49.6863 104 47 101.314 47 98V69H37.6288C34.1234 69 32.3135 64.8112 34.716 62.2585L47 49.2068V33C47 31.3431 48.3431 30 50 30H59C60.6569 30 62 31.3431 62 33V33.9808L73.6596 21.6735ZM79.4599 24.4168C78.6696 23.5913 77.3494 23.5948 76.5634 24.4244L63.1779 38.5536C61.3127 40.5224 58 39.2024 58 36.4904V34H51V49.6034C51 50.3676 50.7084 51.103 50.1846 51.6595L37.6288 65H48C49.6569 65 51 66.3431 51 68V98C51 99.1046 51.8954 100 53 100H103C104.105 100 105 99.1046 105 98V68C105 66.3431 106.343 65 108 65H118.316L79.4599 24.4168Z" fill="#1C3553"/>
<path fill-rule="evenodd" clip-rule="evenodd" d="M68.4761 59.0362C67.0092 60.5309 66.6642 63.5477 68.5148 65.6941C70.9844 68.5586 73.6836 71.2589 75.7753 73.2509C76.6464 74.0804 77.4085 74.7836 77.9999 75.3207C78.5914 74.7836 79.3535 74.0804 80.2246 73.2509C82.3164 71.2588 85.0155 68.5585 87.4852 65.694C89.3357 63.5477 88.9907 60.5309 87.5238 59.0362C86.8532 58.3528 85.9259 57.9566 84.7048 58.1264C83.421 58.3049 81.616 59.1445 79.4356 61.3925C79.0589 61.7808 78.541 62 77.9999 62C77.4589 62 76.941 61.7808 76.5643 61.3925C74.3839 59.1445 72.5789 58.3049 71.2951 58.1264C70.074 57.9566 69.1467 58.3528 68.4761 59.0362ZM77.9999 78L76.6924 79.5134C77.4433 80.1622 78.5565 80.1622 79.3075 79.5134L77.9999 78ZM77.9999 78C79.3075 79.5134 79.3073 79.5135 79.3075 79.5134L79.3135 79.5081L79.3282 79.4955L79.3825 79.4482C79.4297 79.407 79.4985 79.3468 79.5873 79.2686C79.7648 79.1122 80.0222 78.8838 80.3462 78.592C80.9939 78.0086 81.9087 77.1707 82.9831 76.1475C85.1272 74.1057 87.9281 71.3061 90.5147 68.3059C93.7205 64.5877 93.3058 59.2172 90.3787 56.2345C88.8524 54.6792 86.6741 53.8141 84.1539 54.1645C82.1556 54.4424 80.0815 55.461 77.9999 57.2509C75.9183 55.461 73.8443 54.4424 71.846 54.1645C69.3257 53.8141 67.1475 54.6792 65.6212 56.2345C62.6941 59.2172 62.2795 64.5877 65.4853 68.306C68.0719 71.3061 70.8728 74.1058 73.0168 76.1476C74.0912 77.1707 75.006 78.0086 75.6537 78.592C75.9776 78.8838 76.2351 79.1122 76.4126 79.2686C76.5014 79.3468 76.5702 79.407 76.6174 79.4482L76.6717 79.4955L76.6924 79.5134C76.6925 79.5135 76.6924 79.5134 77.9999 78Z" fill="#1C3553"/>
</svg>
