<svg width="156" height="156" viewBox="0 0 156 156" fill="none" xmlns="http://www.w3.org/2000/svg">
<path d="M45 39C45 37.8954 45.8954 37 47 37H67.7016C68.5128 37 69.242 37.485 69.5698 38.227C70.9208 41.2848 74.5704 49 77 49C79.3938 49 82.3478 41.5103 83.4828 38.365C83.7763 37.5515 84.5425 37 85.4074 37H106C107.105 37 108 37.8954 108 39V66.5C108 67.6046 107.105 68.5 106 68.5H77.053C75.9484 68.5 75.053 69.3954 75.053 70.5V75.5V107.5C75.053 108.605 74.1576 109.5 73.053 109.5H72.1434C71.1883 109.5 70.3673 110.177 70.2859 111.128C70.0748 113.596 70.1922 118 73.7173 118C77.8394 118 99.3083 118 106.004 118C107.108 118 108 118.895 108 120V123C108 124.105 107.105 125 106 125H62.5C61.3954 125 60.5 124.105 60.5 123V117.606C60.5 117.211 60.6169 116.825 60.8359 116.496L61.8166 115.025C62.2356 114.397 62.2647 113.586 61.8919 112.929L52.5748 96.5128C52.2195 95.8868 51.5553 95.5 50.8355 95.5H47C45.8954 95.5 45 94.6046 45 93.5V39Z" fill="#C2DDFF"/>
<path fill-rule="evenodd" clip-rule="evenodd" d="M42.5775 33C41.7063 33 41 33.7063 41 34.5775V88C41 89.1046 40.1046 90 39 90C37.8954 90 37 89.1046 37 88V34.5775C37 31.4971 39.4971 29 42.5775 29H58C59.1046 29 60 29.8954 60 31C60 32.1046 59.1046 33 58 33H42.5775ZM94 31C94 29.8954 94.8954 29 96 29H110.423C113.503 29 116 31.4971 116 34.5775V58.9528C116 60.0573 115.105 60.9528 114 60.9528C112.895 60.9528 112 60.0573 112 58.9528V34.5775C112 33.7063 111.294 33 110.423 33H96C94.8954 33 94 32.1046 94 31ZM114 123.84C115.105 123.84 116 124.735 116 125.84V127.423C116 130.503 113.503 133 110.423 133H67.5714C66.4669 133 65.5714 132.105 65.5714 131C65.5714 129.895 66.4669 129 67.5714 129H110.423C111.294 129 112 128.294 112 127.423V125.84C112 124.735 112.895 123.84 114 123.84Z" fill="#1C3553"/>
<path fill-rule="evenodd" clip-rule="evenodd" d="M49 57C49 55.8954 49.8954 55 51 55L102 55C103.105 55 104 55.8954 104 57C104 58.1046 103.105 59 102 59L51 59C49.8954 59 49 58.1046 49 57Z" fill="#1C3553"/>
<path fill-rule="evenodd" clip-rule="evenodd" d="M49 67C49 65.8954 49.8954 65 51 65H64C65.1046 65 66 65.8954 66 67C66 68.1046 65.1046 69 64 69H51C49.8954 69 49 68.1046 49 67Z" fill="#1C3553"/>
<path fill-rule="evenodd" clip-rule="evenodd" d="M50 47C50 45.8954 50.8954 45 52 45H61C62.1046 45 63 45.8954 63 47C63 48.1046 62.1046 49 61 49H52C50.8954 49 50 48.1046 50 47Z" fill="#1C3553"/>
<path fill-rule="evenodd" clip-rule="evenodd" d="M91 47C91 45.8954 91.8954 45 93 45L102 45C103.105 45 104 45.8954 104 47C104 48.1046 103.105 49 102 49L93 49C91.8954 49 91 48.1046 91 47Z" fill="#1C3553"/>
<path fill-rule="evenodd" clip-rule="evenodd" d="M49 77C49 75.8954 49.8954 75 51 75H64C65.1046 75 66 75.8954 66 77C66 78.1046 65.1046 79 64 79H51C49.8954 79 49 78.1046 49 77Z" fill="#1C3553"/>
<path fill-rule="evenodd" clip-rule="evenodd" d="M55.2676 87C55.2676 85.8954 56.163 85 57.2676 85L64.2676 85C65.3721 85 66.2676 85.8954 66.2676 87C66.2676 88.1046 65.3721 89 64.2676 89L57.2676 89C56.163 89 55.2676 88.1046 55.2676 87Z" fill="#1C3553"/>
<path fill-rule="evenodd" clip-rule="evenodd" d="M68 112C68 109.791 69.7909 108 72 108H140C142.209 108 144 109.791 144 112C144 116.418 140.418 120 136 120H76C71.5817 120 68 116.418 68 112ZM72 112C72 114.209 73.7909 116 76 116H136C138.209 116 140 114.209 140 112H72Z" fill="#1C3553"/>
<path fill-rule="evenodd" clip-rule="evenodd" d="M72 71.0001C72 67.6864 74.6863 65.0001 78 65.0001H135C138.314 65.0001 141 67.6864 141 71.0001V106C141 109.314 138.314 112 135 112H78C74.6863 112 72 109.314 72 106V71.0001ZM78 69.0001C76.8954 69.0001 76 69.8956 76 71.0001V106C76 107.105 76.8954 108 78 108H135C136.105 108 137 107.105 137 106V71.0001C137 69.8956 136.105 69.0001 135 69.0001H78Z" fill="#1C3553"/>
<path fill-rule="evenodd" clip-rule="evenodd" d="M80 76.0001C80 74.3433 81.3431 73.0001 83 73.0001H130C131.657 73.0001 133 74.3433 133 76.0001V89.3885C133 90.4931 132.105 91.3885 131 91.3885C129.895 91.3885 129 90.4931 129 89.3885V77.0001H84V86.8126C84 87.9172 83.1046 88.8126 82 88.8126C80.8954 88.8126 80 87.9172 80 86.8126V76.0001ZM82 92.8282C83.1046 92.8282 84 93.7237 84 94.8282V100H129V97.3595C129 96.2549 129.895 95.3595 131 95.3595C132.105 95.3595 133 96.2549 133 97.3595V101C133 102.657 131.657 104 130 104H83C81.3431 104 80 102.657 80 101V94.8282C80 93.7237 80.8954 92.8282 82 92.8282Z" fill="#1C3553"/>
<path fill-rule="evenodd" clip-rule="evenodd" d="M124.51 81.689C125.234 82.523 125.145 83.7862 124.311 84.5104L113.223 94.1371C112.588 94.6888 111.675 94.7837 110.94 94.3747L100.201 88.4006L91.2495 95.5619C90.3869 96.2519 89.1284 96.1121 88.4383 95.2495C87.7483 94.387 87.8882 93.1284 88.7507 92.4384L98.7507 84.4384C99.3848 83.9311 100.263 83.8576 100.972 84.2524L111.659 90.1977L121.689 81.4899C122.523 80.7658 123.786 80.8549 124.51 81.689Z" fill="#1C3553"/>
<path fill-rule="evenodd" clip-rule="evenodd" d="M77 16.5625C71.4237 16.5625 67 20.9432 67 26.2292C67 27.3732 67.5782 29.2927 68.6975 31.7697C69.7785 34.1617 71.2361 36.8045 72.7175 39.2873C74.1949 41.7634 75.6754 44.0461 76.7881 45.7118C76.8603 45.82 76.931 45.9255 77 46.0283C77.069 45.9255 77.1397 45.82 77.2119 45.7118C78.3246 44.0461 79.8051 41.7634 81.2825 39.2873C82.7639 36.8045 84.2215 34.1617 85.3025 31.7697C86.4218 29.2927 87 27.3732 87 26.2292C87 20.9432 82.5763 16.5625 77 16.5625ZM77 49.5625C75.3696 50.7209 75.3695 50.7207 75.3693 50.7204L75.3593 50.7063L75.3318 50.6675C75.308 50.6337 75.2731 50.5842 75.228 50.5199C75.1377 50.3912 75.0062 50.2029 74.8395 49.9618C74.506 49.4798 74.0312 48.7858 73.4619 47.9337C72.3246 46.2312 70.8051 43.8886 69.2825 41.3369C67.7639 38.7918 66.2215 36.0039 65.0524 33.4169C63.9218 30.9148 63 28.3068 63 26.2292C63 18.6285 69.3215 12.5625 77 12.5625C84.6785 12.5625 91 18.6285 91 26.2292C91 28.3068 90.0782 30.9148 88.9475 33.4169C87.7785 36.0039 86.2361 38.7918 84.7175 41.3369C83.1949 43.8886 81.6754 46.2312 80.5381 47.9337C79.9688 48.7858 79.494 49.4798 79.1605 49.9618C78.9938 50.2029 78.8623 50.3912 78.772 50.5199C78.7269 50.5842 78.692 50.6337 78.6682 50.6675L78.6407 50.7063L78.6314 50.7195L78.6307 50.7204C78.6305 50.7207 78.6304 50.7209 77 49.5625ZM77 49.5625L78.6307 50.7204C78.2556 51.2484 77.6477 51.5625 77 51.5625C76.3523 51.5625 75.7444 51.2484 75.3693 50.7204L77 49.5625Z" fill="#1C3553"/>
<path fill-rule="evenodd" clip-rule="evenodd" d="M77 24.4348C75.8954 24.4348 75 25.3302 75 26.4348C75 27.5394 75.8954 28.4348 77 28.4348C78.1046 28.4348 79 27.5394 79 26.4348C79 25.3302 78.1046 24.4348 77 24.4348ZM71 26.4348C71 23.1211 73.6863 20.4348 77 20.4348C80.3137 20.4348 83 23.1211 83 26.4348C83 29.7485 80.3137 32.4348 77 32.4348C73.6863 32.4348 71 29.7485 71 26.4348Z" fill="#1C3553"/>
<path fill-rule="evenodd" clip-rule="evenodd" d="M25.2625 95.0096C25.6184 94.3855 26.2816 94.0001 27 94.0001H51C51.7184 94.0001 52.3817 94.3855 52.7375 95.0096L64.7375 116.058C65.0904 116.677 65.0873 117.437 64.7293 118.054C64.3713 118.67 63.7126 119.049 63 119.049L61 119.049L61 140C61 140.531 60.7893 141.039 60.4142 141.414C60.0391 141.789 59.5304 142 59 142L19 142C17.8954 142 17 141.105 17 140L17 119.049H15C14.2874 119.049 13.6287 118.67 13.2707 118.054C12.9127 117.437 12.9096 116.677 13.2625 116.058L25.2625 95.0096ZM21 119.049L21 138L57 138L57 119.049H51C50.5918 119.049 50.1933 118.924 49.8581 118.691L39 111.14L28.1419 118.691C27.8067 118.924 27.4082 119.049 27 119.049H21ZM51.6271 115.049L40.1419 107.062C39.4555 106.584 38.5445 106.584 37.8581 107.062L26.3729 115.049H18.4424L28.162 98.0001H49.838L59.5576 115.049L51.6271 115.049Z" fill="#1C3553"/>
<path fill-rule="evenodd" clip-rule="evenodd" d="M27 125C27 123.896 27.8954 123 29 123H37C38.1046 123 39 123.896 39 125V140C39 141.105 38.1046 142 37 142H29C27.8954 142 27 141.105 27 140V125ZM31 127V138H35V127H31Z" fill="#1C3553"/>
<path d="M51 126C51 127.657 49.6569 129 48 129C46.3431 129 45 127.657 45 126C45 124.343 46.3431 123 48 123C49.6569 123 51 124.343 51 126Z" fill="#1C3553"/>
</svg>
