<svg width="156" height="156" viewBox="0 0 156 156" fill="none" xmlns="http://www.w3.org/2000/svg">
<path fill-rule="evenodd" clip-rule="evenodd" d="M39 70.5V102C39 103.105 39.8954 104 41 104H115C116.105 104 117 103.105 117 102V57C117 55.8954 116.105 55 115 55H89V68.5C89 69.6045 88.1046 70.5 87 70.5H72C70.8954 70.5 70 71.3954 70 72.5V86.5L56.5976 71.183C56.2178 70.7489 55.6692 70.5 55.0925 70.5H39Z" fill="#C2DDFF"/>
<path fill-rule="evenodd" clip-rule="evenodd" d="M28 44C28 42.8954 28.8954 42 30 42H74C75.1046 42 76 42.8954 76 44C76 45.1046 75.1046 46 74 46H30C28.8954 46 28 45.1046 28 44Z" fill="#1C3553"/>
<path fill-rule="evenodd" clip-rule="evenodd" d="M28 56C28 54.8954 28.8954 54 30 54H60C61.1046 54 62 54.8954 62 56C62 57.1046 61.1046 58 60 58H30C28.8954 58 28 57.1046 28 56Z" fill="#1C3553"/>
<path fill-rule="evenodd" clip-rule="evenodd" d="M13 120C13 117.791 14.7909 116 17 116H139C141.209 116 143 117.791 143 120C143 124.418 139.418 128 135 128H21C16.5817 128 13 124.418 13 120ZM139 120H17C17 122.209 18.7909 124 21 124H135C137.209 124 139 122.209 139 120Z" fill="#1C3553"/>
<path fill-rule="evenodd" clip-rule="evenodd" d="M95 40C95 38.8954 95.8954 38 97 38H126C129.866 38 133 41.134 133 45V113C133 116.866 129.866 120 126 120H30C26.134 120 23 116.866 23 113V79C23 77.8954 23.8954 77 25 77C26.1046 77 27 77.8954 27 79V113C27 114.657 28.3431 116 30 116H126C127.657 116 129 114.657 129 113V45C129 43.3431 127.657 42 126 42H97C95.8954 42 95 41.1046 95 40Z" fill="#1C3553"/>
<path fill-rule="evenodd" clip-rule="evenodd" d="M13 34C13 30.6863 15.6863 28 19 28H85C88.3137 28 91 30.6863 91 34V67C91 70.3137 88.3137 73 85 73H73V87C73 87.8332 72.4834 88.5791 71.7035 88.8722C70.9235 89.1653 70.0435 88.9441 69.4948 88.317L56.0925 73H19C15.6863 73 13 70.3137 13 67V34ZM19 32C17.8954 32 17 32.8955 17 34V67C17 68.1046 17.8954 69 19 69H56.0925C57.2459 69 58.3432 69.4979 59.1028 70.366L69 81.6771V73C69 70.7909 70.7909 69 73 69H85C86.1046 69 87 68.1046 87 67V34C87 32.8955 86.1046 32 85 32H19Z" fill="#1C3553"/>
<path fill-rule="evenodd" clip-rule="evenodd" d="M95 48C95 46.8954 95.8954 46 97 46H121C123.209 46 125 47.7909 125 50V82C125 83.1046 124.105 84 123 84C121.895 84 121 83.1046 121 82V50H97C95.8954 50 95 49.1046 95 48ZM33 77C34.1046 77 35 77.8954 35 79V108H121V90C121 88.8954 121.895 88 123 88C124.105 88 125 88.8954 125 90V108C125 110.209 123.209 112 121 112H35C32.7909 112 31 110.209 31 108V79C31 77.8954 31.8954 77 33 77Z" fill="#1C3553"/>
</svg>
