<svg width="156" height="156" viewBox="0 0 156 156" fill="none" xmlns="http://www.w3.org/2000/svg">
<path fill-rule="evenodd" clip-rule="evenodd" d="M54.032 67.1208H47.3848C45.6703 67.1208 44.7506 65.1047 45.8744 63.8099L54.7872 53.5408C54.9451 53.3589 55.032 53.1261 55.032 52.8853V46.0001H35.0007C33.8962 46.0001 33.0007 46.8955 33.0007 48.0001V101C33.0007 102.105 33.8962 103 35.0007 103H121.001C122.105 103 123.001 102.105 123.001 101V48.0001C123.001 46.8955 122.105 46.0001 121.001 46.0001H93.6091L109.923 63.7682C111.1 65.0506 110.19 67.1208 108.449 67.1208H101.969C101.417 67.1208 100.969 67.5685 100.969 68.1208V92.0001C100.969 94.2093 99.1786 96.0001 96.9695 96.0001H59.032C56.8228 96.0001 55.032 94.2093 55.032 92.0001V68.1208C55.032 67.5685 54.5843 67.1208 54.032 67.1208Z" fill="#C2DDFF"/>
<path fill-rule="evenodd" clip-rule="evenodd" d="M9.25 120C9.11193 120 9 120.112 9 120.25C9 122.873 11.1266 125 13.75 125H142.25C144.873 125 147 122.873 147 120.25C147 120.112 146.888 120 146.75 120H9.25ZM5 120.25C5 117.903 6.90279 116 9.25 116H146.75C149.097 116 151 117.903 151 120.25C151 125.082 147.082 129 142.25 129H13.75C8.9175 129 5 125.082 5 120.25Z" fill="#1C3553"/>
<path fill-rule="evenodd" clip-rule="evenodd" d="M23 32.9999C21.3431 32.9999 20 34.343 20 35.9999V113C20 114.657 21.3431 116 23 116H133C134.657 116 136 114.657 136 113V35.9999C136 34.343 134.657 32.9999 133 32.9999H93.8491C92.7445 32.9999 91.8491 32.1045 91.8491 30.9999C91.8491 29.8953 92.7445 28.9999 93.8491 28.9999H133C136.866 28.9999 140 32.1339 140 35.9999V113C140 116.866 136.866 120 133 120H23C19.134 120 16 116.866 16 113V35.9999C16 32.1339 19.134 28.9999 23 28.9999H62.1509C63.2555 28.9999 64.1509 29.8953 64.1509 30.9999C64.1509 32.1045 63.2555 32.9999 62.1509 32.9999H23Z" fill="#1C3553"/>
<path fill-rule="evenodd" clip-rule="evenodd" d="M25 41.9999C25 39.7908 26.7909 37.9999 29 37.9999H46C47.1046 37.9999 48 38.8953 48 39.9999C48 41.1045 47.1046 41.9999 46 41.9999L29 41.9999V107H127V85.9999C127 84.8953 127.895 83.9999 129 83.9999C130.105 83.9999 131 84.8953 131 85.9999V107C131 109.209 129.209 111 127 111H29C26.7909 111 25 109.209 25 107V41.9999ZM101.5 39.9999C101.5 38.8953 102.395 37.9999 103.5 37.9999H127C129.209 37.9999 131 39.7908 131 41.9999V77.9999C131 79.1045 130.105 79.9999 129 79.9999C127.895 79.9999 127 79.1045 127 77.9999V41.9999H103.5C102.395 41.9999 101.5 41.1045 101.5 39.9999Z" fill="#1C3553"/>
<path fill-rule="evenodd" clip-rule="evenodd" d="M73.6766 32.6874C76.017 30.191 79.9679 30.1544 82.3542 32.6069L112.131 63.2105C114.597 65.7457 112.801 69.9999 109.264 69.9999H104V91.9999C104 95.3136 101.314 97.9999 98.0001 97.9999H58.0001C54.6864 97.9999 52.0001 95.3136 52.0001 91.9999V69.9999H46.3485C42.9311 69.9999 41.0875 65.9914 43.3115 63.3967L52.0001 53.26V40.9654C52.0001 39.3086 53.3433 37.9654 55.0001 37.9654H62.0001C63.657 37.9654 65.0001 39.3086 65.0001 40.9654V41.9423L73.6766 32.6874ZM79.4873 35.3964C78.6918 34.5788 77.3749 34.5911 76.5947 35.4232L66.1887 46.5229C64.3287 48.507 61.0001 47.1907 61.0001 44.4711V41.9654H56.0001V53.63C56.0001 54.3461 55.7439 55.0386 55.2779 55.5823L46.3485 65.9999H53.0001C54.657 65.9999 56.0001 67.343 56.0001 68.9999V91.9999C56.0001 93.1045 56.8955 93.9999 58.0001 93.9999H98.0001C99.1047 93.9999 100 93.1045 100 91.9999V68.9999C100 67.343 101.343 65.9999 103 65.9999H109.264L79.4873 35.3964Z" fill="#1C3553"/>
<path fill-rule="evenodd" clip-rule="evenodd" d="M90.6258 60.9893C91.4378 61.7381 91.489 63.0034 90.7401 63.8154L75.1496 80.7201C74.7743 81.1271 74.2471 81.3602 73.6936 81.3642C73.14 81.3681 72.6096 81.1424 72.2285 80.7409L65.2794 73.4175C64.5191 72.6163 64.5523 71.3504 65.3536 70.5901C66.1548 69.8297 67.4207 69.8629 68.181 70.6642L73.6586 76.4367L87.7997 61.1036C88.5486 60.2916 89.8139 60.2404 90.6258 60.9893Z" fill="#1C3553"/>
</svg>
