<svg width="156" height="156" viewBox="0 0 156 156" fill="none" xmlns="http://www.w3.org/2000/svg">
<path fill-rule="evenodd" clip-rule="evenodd" d="M22 134C22 132.895 22.8954 132 24 132H54C55.1046 132 56 132.895 56 134C56 135.105 55.1046 136 54 136H24C22.8954 136 22 135.105 22 134ZM60 134C60 132.895 60.8954 132 62 132L132 132C133.105 132 134 132.895 134 134C134 135.105 133.105 136 132 136L62 136C60.8954 136 60 135.105 60 134Z" fill="#1C3553"/>
<path d="M34 106C32.8954 106 32 106.895 32 108V122C32 123.105 32.8954 124 34 124H42C43.1046 124 44 123.105 44 122V108C44 106.895 43.1046 106 42 106H34Z" fill="#C2DDFF"/>
<path d="M54 72C52.8954 72 52 72.8954 52 74V122C52 123.105 52.8954 124 54 124H62C63.1046 124 64 123.105 64 122V74C64 72.8954 63.1046 72 62 72H54Z" fill="#C2DDFF"/>
<path d="M74 82C72.8954 82 72 82.8954 72 84V122C72 123.105 72.8954 124 74 124H82C83.1046 124 84 123.105 84 122V84C84 82.8954 83.1046 82 82 82H74Z" fill="#C2DDFF"/>
<path d="M94 46C92.8954 46 92 46.8954 92 48V122C92 123.105 92.8954 124 94 124H102C103.105 124 104 123.105 104 122V48C104 46.8954 103.105 46 102 46H94Z" fill="#C2DDFF"/>
<path d="M114 60C112.895 60 112 60.8954 112 62V122C112 123.105 112.895 124 114 124H122C123.105 124 124 123.105 124 122V62C124 60.8954 123.105 60 122 60H114Z" fill="#C2DDFF"/>
<path fill-rule="evenodd" clip-rule="evenodd" d="M30 108C30 105.791 31.7909 104 34 104H42C44.2091 104 46 105.791 46 108V122C46 124.209 44.2091 126 42 126H34C31.7909 126 30 124.209 30 122V108ZM42 108H34V122H42V108Z" fill="#1C3553"/>
<path fill-rule="evenodd" clip-rule="evenodd" d="M50 74C50 71.7909 51.7909 70 54 70H62C64.2091 70 66 71.7909 66 74V122C66 124.209 64.2091 126 62 126H54C51.7909 126 50 124.209 50 122V74ZM62 74H54V122L62 122V74Z" fill="#1C3553"/>
<path fill-rule="evenodd" clip-rule="evenodd" d="M70 84C70 81.7909 71.7909 80 74 80H82C84.2091 80 86 81.7909 86 84V122C86 124.209 84.2091 126 82 126H74C71.7909 126 70 124.209 70 122V84ZM82 84H74V122H82V84Z" fill="#1C3553"/>
<path fill-rule="evenodd" clip-rule="evenodd" d="M90 48C90 45.7909 91.7909 44 94 44H102C104.209 44 106 45.7909 106 48V122C106 124.209 104.209 126 102 126H94C91.7909 126 90 124.209 90 122V48ZM102 48H94V122H102V48Z" fill="#1C3553"/>
<path fill-rule="evenodd" clip-rule="evenodd" d="M110 62C110 59.7909 111.791 58 114 58H122C124.209 58 126 59.7909 126 62V122C126 124.209 124.209 126 122 126H114C111.791 126 110 124.209 110 122V62ZM122 62H114V122H122V62Z" fill="#1C3553"/>
</svg>
