<svg width="156" height="156" viewBox="0 0 156 156" fill="none" xmlns="http://www.w3.org/2000/svg">
<path fill-rule="evenodd" clip-rule="evenodd" d="M81.4888 81.3345C94.3761 68.4472 94.3761 47.5528 81.4888 34.6655C68.6015 21.7782 47.7071 21.7782 34.8198 34.6655C21.9325 47.5528 21.9325 68.4472 34.8198 81.3345C47.7071 94.2218 68.6015 94.2218 81.4888 81.3345ZM43.9999 72L43.9999 51.8261L57.9999 41L71.9999 51.8261V72L43.9999 72Z" fill="#C2DDFF"/>
<path d="M94.2166 102.548L117.551 125.882C119.113 127.444 121.646 127.444 123.208 125.882L126.036 123.054C127.598 121.492 127.598 118.959 126.036 117.397L102.702 94.0622C101.921 93.2812 100.654 93.2812 99.8734 94.0622L94.2166 99.7191C93.4355 100.5 93.4355 101.766 94.2166 102.548Z" fill="#C2DDFF"/>
<path fill-rule="evenodd" clip-rule="evenodd" d="M31.9926 31.8359C17.5425 46.2859 17.5425 69.7141 31.9926 84.1641C46.4426 98.6141 69.8707 98.6141 84.3207 84.1641C98.7708 69.7141 98.7708 46.2859 84.3207 31.8359C69.8707 17.3859 46.4426 17.3859 31.9926 31.8359ZM29.1641 86.9925C13.152 70.9804 13.152 45.0196 29.1641 29.0075C45.1763 12.9954 71.137 12.9954 87.1492 29.0075C103.161 45.0196 103.161 70.9804 87.1492 86.9925C71.137 103.005 45.1763 103.005 29.1641 86.9925Z" fill="#1C3553"/>
<path fill-rule="evenodd" clip-rule="evenodd" d="M56.7644 38.4274C57.4896 37.8575 58.5104 37.8575 59.2356 38.4274L73.2356 49.4274C73.7182 49.8065 74 50.3863 74 51V71C74 72.1046 73.1046 73 72 73H44C42.8954 73 42 72.1046 42 71V51C42 50.3863 42.2818 49.8065 42.7644 49.4274L56.7644 38.4274ZM46 51.9721V69H70V51.9721L58 42.5435L46 51.9721Z" fill="#1C3553"/>
<path fill-rule="evenodd" clip-rule="evenodd" d="M92.8027 103.962C91.2406 102.4 91.2406 99.867 92.8027 98.3049L98.4595 92.648C100.022 91.0859 102.554 91.0859 104.116 92.648L128.158 116.69C130.501 119.033 130.501 122.832 128.158 125.175L125.33 128.003C122.986 130.347 119.187 130.347 116.844 128.003L92.8027 103.962ZM101.288 95.4764L95.6311 101.133L119.673 125.175C120.454 125.956 121.72 125.956 122.501 125.175L125.33 122.347C126.111 121.565 126.111 120.299 125.33 119.518L101.288 95.4764Z" fill="#1C3553"/>
<path fill-rule="evenodd" clip-rule="evenodd" d="M85.7316 96.8908C84.9505 96.1097 84.9505 94.8434 85.7316 94.0623L94.2169 85.5771C94.9979 84.796 96.2643 84.796 97.0453 85.5771C97.8264 86.3581 97.8264 87.6244 97.0453 88.4055L88.56 96.8908C87.779 97.6718 86.5126 97.6718 85.7316 96.8908Z" fill="#1C3553"/>
</svg>
