<svg width="156" height="156" viewBox="0 0 156 156" fill="none" xmlns="http://www.w3.org/2000/svg">
<path fill-rule="evenodd" clip-rule="evenodd" d="M64 82C62.8954 82 62 82.8954 62 84V120C62 121.105 62.8954 122 64 122H92C93.1046 122 94 121.105 94 120V84C94 82.8954 93.1046 82 92 82H64ZM68 112V98.1304L78.5 90L89 98.1304V112H68Z" fill="#C2DDFF"/>
<path d="M77.1359 23.4836C77.5217 22.8213 78.4784 22.8213 78.8641 23.4836L81.0111 27.1696C81.1524 27.4122 81.3891 27.5842 81.6635 27.6437L85.8326 28.5465C86.5816 28.7087 86.8773 29.6186 86.3666 30.1901L83.5245 33.371C83.3374 33.5803 83.247 33.8587 83.2752 34.138L83.7049 38.382C83.7821 39.1445 83.0081 39.7069 82.3068 39.3978L78.4033 37.6777C78.1464 37.5645 77.8537 37.5645 77.5968 37.6777L73.6933 39.3978C72.992 39.7069 72.2179 39.1445 72.2951 38.382L72.7248 34.138C72.7531 33.8587 72.6627 33.5803 72.4756 33.371L69.6334 30.1901C69.1228 29.6186 69.4184 28.7087 70.1675 28.5465L74.3365 27.6437C74.6109 27.5842 74.8477 27.4122 74.989 27.1696L77.1359 23.4836Z" fill="#C2DDFF"/>
<path d="M113 40H131V51H125L118 56V51H113V40Z" fill="#C2DDFF"/>
<path fill-rule="evenodd" clip-rule="evenodd" d="M34 30.677C25.1634 30.677 18 37.8404 18 46.677C18 55.5136 25.1634 62.677 34 62.677C42.8366 62.677 50 55.5136 50 46.677C50 37.8404 42.8366 30.677 34 30.677ZM14 46.677C14 35.6313 22.9543 26.677 34 26.677C45.0457 26.677 54 35.6313 54 46.677C54 57.7227 45.0457 66.677 34 66.677C22.9543 66.677 14 57.7227 14 46.677Z" fill="#1C3553"/>
<path fill-rule="evenodd" clip-rule="evenodd" d="M42.3499 39.5244C43.1649 40.2699 43.2213 41.535 42.4757 42.35L32.792 52.936C32.4165 53.3466 31.8869 53.5821 31.3305 53.5861C30.7741 53.59 30.2412 53.362 29.8599 52.9568L25.5436 48.3708C24.7866 47.5665 24.8249 46.3007 25.6293 45.5437C26.4336 44.7867 27.6994 44.825 28.4564 45.6294L31.2954 48.6458L39.5243 39.6502C40.2698 38.8352 41.5349 38.7789 42.3499 39.5244Z" fill="#1C3553"/>
<path fill-rule="evenodd" clip-rule="evenodd" d="M54 64C54 60.6863 56.6863 58 60 58H96C99.3137 58 102 60.6863 102 64V134C102 137.314 99.3137 140 96 140H60C56.6863 140 54 137.314 54 134V64ZM60 62C58.8954 62 58 62.8954 58 64V74.0069H92C93.1046 74.0069 94 74.9023 94 76.0069C94 77.1115 93.1046 78.0069 92 78.0069H58V134C58 135.105 58.8954 136 60 136H96C97.1046 136 98 135.105 98 134V130.029H64C62.8954 130.029 62 129.134 62 128.029C62 126.925 62.8954 126.029 64 126.029H98V64C98 62.8954 97.1046 62 96 62H60Z" fill="#1C3553"/>
<path fill-rule="evenodd" clip-rule="evenodd" d="M68 68C68 66.8954 68.8954 66 70 66H86C87.1046 66 88 66.8954 88 68C88 69.1046 87.1046 70 86 70H70C68.8954 70 68 69.1046 68 68Z" fill="#1C3553"/>
<path fill-rule="evenodd" clip-rule="evenodd" d="M76.7383 88.4482C77.4733 87.8506 78.5267 87.8506 79.2617 88.4482L89.2617 96.5786C89.7288 96.9584 90 97.5284 90 98.1304V112C90 113.105 89.1046 114 88 114H68C66.8954 114 66 113.105 66 112V98.1304C66 97.5284 66.2712 96.9584 66.7383 96.5786L76.7383 88.4482ZM70 99.082V110H86V99.082L78 92.5776L70 99.082Z" fill="#1C3553"/>
<path fill-rule="evenodd" clip-rule="evenodd" d="M78 16C69.1634 16 62 23.1634 62 32C62 40.8366 69.1634 48 78 48C86.8366 48 94 40.8366 94 32C94 23.1634 86.8366 16 78 16ZM58 32C58 20.9543 66.9543 12 78 12C89.0457 12 98 20.9543 98 32C98 43.0457 89.0457 52 78 52C66.9543 52 58 43.0457 58 32Z" fill="#1C3553"/>
<path fill-rule="evenodd" clip-rule="evenodd" d="M75.4076 22.477C76.5648 20.4902 79.4351 20.4902 80.5923 22.477L82.5174 25.7822L86.2558 26.5918C88.503 27.0784 89.3899 29.8081 87.8579 31.5227L85.3094 34.375L85.6947 38.1805C85.9263 40.4681 83.6042 42.1552 81.5002 41.228L77.9999 39.6856L74.4997 41.228C72.3957 42.1552 70.0736 40.4681 70.3052 38.1805L70.6905 34.375L68.142 31.5227C66.61 29.8082 67.4969 27.0784 69.7441 26.5918L73.4825 25.7822L75.4076 22.477ZM77.9999 25.9738L76.7171 28.1762C76.2932 28.904 75.5829 29.4201 74.7597 29.5984L72.2687 30.1378L73.9669 32.0384C74.5281 32.6665 74.7994 33.5015 74.7146 34.3395L74.4578 36.8753L76.7902 35.8475C77.5609 35.5079 78.439 35.5079 79.2097 35.8475L81.5421 36.8753L81.2853 34.3395C81.2005 33.5015 81.4718 32.6665 82.033 32.0384L83.7312 30.1378L81.2402 29.5984C80.417 29.4201 79.7067 28.904 79.2828 28.1762L77.9999 25.9738Z" fill="#1C3553"/>
<path fill-rule="evenodd" clip-rule="evenodd" d="M122 30.677C113.163 30.677 106 37.8404 106 46.677C106 55.5136 113.163 62.677 122 62.677C130.837 62.677 138 55.5136 138 46.677C138 37.8404 130.837 30.677 122 30.677ZM102 46.677C102 35.6313 110.954 26.677 122 26.677C133.046 26.677 142 35.6313 142 46.677C142 57.7227 133.046 66.677 122 66.677C110.954 66.677 102 57.7227 102 46.677Z" fill="#1C3553"/>
<path fill-rule="evenodd" clip-rule="evenodd" d="M111 40C111 38.8954 111.895 38 113 38H131C132.105 38 133 38.8954 133 40V51C133 52.1046 132.105 53 131 53H125.641L119.162 57.6275C118.553 58.0629 117.751 58.1211 117.085 57.7783C116.419 57.4355 116 56.7492 116 56V53H113C111.895 53 111 52.1046 111 51V40ZM115 42V49H118C119.105 49 120 49.8954 120 51V52.1136L123.838 49.3725C124.177 49.1302 124.583 49 125 49H129V42H115Z" fill="#1C3553"/>
</svg>
