<svg width="156" height="156" viewBox="0 0 156 156" fill="none" xmlns="http://www.w3.org/2000/svg">
<path d="M80.5 43L55 67.3871V106L77 106V78L105 77V67.3871L80.5 43Z" fill="#C2DDFF"/>
<path fill-rule="evenodd" clip-rule="evenodd" d="M78 28C66.6118 28 56.1181 31.8048 47.7126 38.2137C46.8343 38.8834 45.5793 38.7142 44.9096 37.8359C44.2398 36.9575 44.409 35.7025 45.2874 35.0328C54.3653 28.1112 65.7054 24 78 24C107.823 24 132 48.1766 132 78C132 107.823 107.823 132 78 132C48.1766 132 24 107.823 24 78C24 64.0031 29.328 51.246 38.063 41.6534C38.8067 40.8367 40.0716 40.7775 40.8883 41.5212C41.705 42.2649 41.7642 43.5299 41.0205 44.3466C32.9299 53.2314 28 65.0377 28 78C28 105.614 50.3858 128 78 128C105.614 128 128 105.614 128 78C128 50.3858 105.614 28 78 28Z" fill="#1C3553"/>
<path fill-rule="evenodd" clip-rule="evenodd" d="M77.2299 42.8869C78.7777 41.4009 81.2223 41.4009 82.7701 42.8869L105.155 64.3765C106.334 65.508 107 67.0711 107 68.7049V77C107 77.5183 106.799 78.0163 106.439 78.3892L78.4388 107.389C78.0619 107.78 77.5426 108 77 108H59C55.6863 108 53 105.314 53 102V68.7049C53 67.0711 53.6662 65.508 54.8448 64.3765L77.2299 42.8869ZM80 45.7724L57.6149 67.2621C57.2221 67.6392 57 68.1603 57 68.7049V102C57 103.105 57.8954 104 59 104H76.1509L103 76.192V68.7049C103 68.1603 102.778 67.6392 102.385 67.2621L80 45.7724Z" fill="#1C3553"/>
<path fill-rule="evenodd" clip-rule="evenodd" d="M79.6652 79.6642C79.1959 80.1335 79.001 80.6504 79.001 81V106C79.001 107.105 78.1055 108 77.001 108C75.8964 108 75.001 107.105 75.001 106V81C75.001 79.3495 75.8061 77.8665 76.8368 76.8358C77.8675 75.8051 79.3505 75 81.001 75H105.001C106.106 75 107.001 75.8954 107.001 77C107.001 78.1046 106.106 79 105.001 79H81.001C80.6514 79 80.1345 79.1949 79.6652 79.6642Z" fill="#1C3553"/>
</svg>
