<svg width="156" height="156" viewBox="0 0 156 156" fill="none" xmlns="http://www.w3.org/2000/svg">
<path fill-rule="evenodd" clip-rule="evenodd" d="M22 134C22 132.895 22.8954 132 24 132H54C55.1046 132 56 132.895 56 134C56 135.105 55.1046 136 54 136H24C22.8954 136 22 135.105 22 134ZM60 134C60 132.895 60.8954 132 62 132L132 132C133.105 132 134 132.895 134 134C134 135.105 133.105 136 132 136L62 136C60.8954 136 60 135.105 60 134Z" fill="#1C3553"/>
<path d="M34 50C32.8954 50 32 50.8954 32 52V122C32 123.105 32.8954 124 34 124H42C43.1046 124 44 123.105 44 122V52C44 50.8954 43.1046 50 42 50H34Z" fill="#C2DDFF"/>
<path d="M54 60C52.8954 60 52 60.8954 52 62V122C52 123.105 52.8954 124 54 124H62C63.1046 124 64 123.105 64 122V62C64 60.8954 63.1046 60 62 60H54Z" fill="#C2DDFF"/>
<path d="M74 50C72.8954 50 72 50.8954 72 52V122C72 123.105 72.8954 124 74 124H82C83.1046 124 84 123.105 84 122V52C84 50.8954 83.1046 50 82 50H74Z" fill="#C2DDFF"/>
<path d="M94 30C92.8954 30 92 30.8954 92 32V122C92 123.105 92.8954 124 94 124H102C103.105 124 104 123.105 104 122V32C104 30.8954 103.105 30 102 30H94Z" fill="#C2DDFF"/>
<path d="M114 60C112.895 60 112 60.8954 112 62V122C112 123.105 112.895 124 114 124H122C123.105 124 124 123.105 124 122V62C124 60.8954 123.105 60 122 60H114Z" fill="#C2DDFF"/>
<path d="M34 50C32.8954 50 32 50.8954 32 52V122C32 123.105 32.8954 124 34 124H42C43.1046 124 44 123.105 44 122V52C44 50.8954 43.1046 50 42 50H34Z" stroke="#1C3553" stroke-width="4" stroke-miterlimit="10" stroke-linecap="round" stroke-linejoin="round"/>
<path d="M54 60C52.8954 60 52 60.8954 52 62V122C52 123.105 52.8954 124 54 124H62C63.1046 124 64 123.105 64 122V62C64 60.8954 63.1046 60 62 60H54Z" stroke="#1C3553" stroke-width="4" stroke-miterlimit="10" stroke-linecap="round" stroke-linejoin="round"/>
<path d="M74 50C72.8954 50 72 50.8954 72 52V122C72 123.105 72.8954 124 74 124H82C83.1046 124 84 123.105 84 122V52C84 50.8954 83.1046 50 82 50H74Z" stroke="#1C3553" stroke-width="4" stroke-miterlimit="10" stroke-linecap="round" stroke-linejoin="round"/>
<path d="M94 30C92.8954 30 92 30.8954 92 32V122C92 123.105 92.8954 124 94 124H102C103.105 124 104 123.105 104 122V32C104 30.8954 103.105 30 102 30H94Z" stroke="#1C3553" stroke-width="4" stroke-miterlimit="10" stroke-linecap="round" stroke-linejoin="round"/>
<path d="M114 60C112.895 60 112 60.8954 112 62V122C112 123.105 112.895 124 114 124H122C123.105 124 124 123.105 124 122V62C124 60.8954 123.105 60 122 60H114Z" stroke="#1C3553" stroke-width="4" stroke-miterlimit="10" stroke-linecap="round" stroke-linejoin="round"/>
</svg>
