<svg width="156" height="156" viewBox="0 0 156 156" fill="none" xmlns="http://www.w3.org/2000/svg">
<path d="M25 74.7397V57.3167C25 56.3108 25.747 55.4615 26.7446 55.333L104.745 45.2904C105.941 45.1364 107 46.068 107 47.274V84.7276C107 85.933 105.942 86.8645 104.746 86.7113L26.746 76.7235C25.7478 76.5957 25 75.7461 25 74.7397Z" fill="#C2DDFF"/>
<path fill-rule="evenodd" clip-rule="evenodd" d="M108.111 36.7097C111.739 36.1665 115 38.9759 115 42.6436V89.3601C115 93.0258 111.742 95.8346 108.116 95.2946L20.4108 82.2321C18.4508 81.9402 17 80.2573 17 78.2758V53.7997C17 51.8193 18.4491 50.1371 20.4076 49.8438L21 53.7997V78.2758L108.705 91.3383C109.914 91.5183 111 90.582 111 89.3601V42.6436C111 41.421 109.913 40.4846 108.704 40.6656L21 53.7997L20.4076 49.8438L108.111 36.7097Z" fill="#1C3553"/>
<path fill-rule="evenodd" clip-rule="evenodd" d="M39.2528 89.1449C40.2773 88.7322 41.4425 89.2282 41.8552 90.2528L55.346 123.747C55.6509 124.504 56.3851 125 57.2011 125H60.1882C61.59 125 62.5569 123.595 62.0563 122.286L51.1319 93.7143C50.7374 92.6826 51.254 91.5264 52.2857 91.1319C53.3174 90.7375 54.4736 91.254 54.8681 92.2858L65.7925 120.857C67.2945 124.786 64.3938 129 60.1882 129H57.2011C54.7529 129 52.5503 127.513 51.6356 125.242L38.1448 91.7473C37.7321 90.7227 38.2282 89.5576 39.2528 89.1449Z" fill="#1C3553"/>
<path fill-rule="evenodd" clip-rule="evenodd" d="M47 47C48.1046 47 49 47.8954 49 49L49 73C49 74.1046 48.1046 75 47 75C45.8954 75 45 74.1046 45 73L45 49C45 47.8954 45.8954 47 47 47Z" fill="#1C3553"/>
<path fill-rule="evenodd" clip-rule="evenodd" d="M111 56C111 54.8954 111.895 54 113 54H117C120.314 54 123 56.6863 123 60V72C123 75.3137 120.314 78 117 78H113C111.895 78 111 77.1046 111 76C111 74.8954 111.895 74 113 74H117C118.105 74 119 73.1046 119 72V60C119 58.8954 118.105 58 117 58H113C111.895 58 111 57.1046 111 56Z" fill="#1C3553"/>
<path fill-rule="evenodd" clip-rule="evenodd" d="M147 66C147 67.1046 146.105 68 145 68L131 68C129.895 68 129 67.1046 129 66C129 64.8954 129.895 64 131 64L145 64C146.105 64 147 64.8954 147 66Z" fill="#1C3553"/>
<path fill-rule="evenodd" clip-rule="evenodd" d="M129.315 75.926C129.908 74.9942 131.144 74.7196 132.076 75.3127L143.074 82.3127C144.006 82.9058 144.28 84.142 143.687 85.0738C143.094 86.0056 141.858 86.2802 140.926 85.6872L129.928 78.6872C128.996 78.0941 128.722 76.8579 129.315 75.926Z" fill="#1C3553"/>
<path fill-rule="evenodd" clip-rule="evenodd" d="M129.313 56.0741C128.72 55.1422 128.995 53.906 129.927 53.313L140.926 46.3126C141.858 45.7196 143.094 45.9942 143.687 46.9261C144.28 47.858 144.006 49.0941 143.074 49.6872L132.074 56.6875C131.142 57.2806 129.906 57.0059 129.313 56.0741Z" fill="#1C3553"/>
</svg>
