<svg width="156" height="156" viewBox="0 0 156 156" fill="none" xmlns="http://www.w3.org/2000/svg">
<path d="M56.9524 104.796L34.6051 121.78C33.9467 122.281 33 121.811 33 120.984V87.0161C33 86.1891 33.9467 85.7195 34.6051 86.2199L56.9524 103.204C57.479 103.604 57.479 104.396 56.9524 104.796Z" fill="#C2DDFF"/>
<path d="M99.0476 103.204L121.395 86.2198C122.053 85.7194 123 86.189 123 87.016L123 120.984C123 121.811 122.053 122.281 121.395 121.78L99.0476 104.796C98.521 104.396 98.521 103.604 99.0476 103.204Z" fill="#C2DDFF"/>
<path d="M68.7273 110.216L47.2536 127.216C46.5104 127.804 46.9265 129 47.8743 129H109.032C109.989 129 110.399 127.783 109.637 127.204L87.2683 110.204C87.0943 110.072 86.8817 110 86.6632 110H69.348C69.1226 110 68.9039 110.076 68.7273 110.216Z" fill="#C2DDFF"/>
<path d="M100 37H114L98 22V35C98 36.1046 98.8954 37 100 37Z" fill="#C2DDFF"/>
<path d="M58 35H72V47H58V35Z" fill="#C2DDFF"/>
<path d="M58 75H72V87H58V75Z" fill="#C2DDFF"/>
<path d="M58 55H72V67H58V55Z" fill="#C2DDFF"/>
<path fill-rule="evenodd" clip-rule="evenodd" d="M42.9388 57.6108C43.706 58.4054 43.6838 59.6716 42.8892 60.4388L30.0511 72.8342L67.6843 102H88.3157L125.981 72.8094L113.586 60.4142C112.805 59.6332 112.805 58.3668 113.586 57.5858C114.367 56.8047 115.633 56.8047 116.414 57.5858L130.414 71.5858C130.789 71.9609 131 72.4696 131 73V135C131 136.105 130.105 137 129 137H27C25.8954 137 25 136.105 25 135V112C25 110.895 25.8954 110 27 110C28.1046 110 29 110.895 29 112V130.92L63.7351 104L29 77.0803V104.25C29 105.355 28.1046 106.25 27 106.25C25.8954 106.25 25 105.355 25 104.25V73C25 72.4574 25.2205 71.938 25.6108 71.5612L40.1108 57.5612C40.9054 56.794 42.1716 56.8162 42.9388 57.6108ZM67.6843 106L32.8456 133H123.154L88.3157 106H67.6843ZM92.2649 104L127 130.92V77.0803L92.2649 104Z" fill="#1C3553"/>
<path fill-rule="evenodd" clip-rule="evenodd" d="M44 24V84C44 85.1046 43.1046 86 42 86C40.8954 86 40 85.1046 40 84V24C40 21.7909 41.7909 20 44 20H56C57.1046 20 58 20.8954 58 22C58 23.1046 57.1046 24 56 24L44 24ZM62 22C62 20.8954 62.8954 20 64 20H98C98.5081 20 98.9972 20.1934 99.3679 20.5409L115.368 35.5409C115.771 35.919 116 36.4472 116 37V84C116 85.1046 115.105 86 114 86C112.895 86 112 85.1046 112 84V39H100C97.7909 39 96 37.2091 96 35V24H64C62.8954 24 62 23.1046 62 22ZM100 26.6165L108.942 35H100V26.6165Z" fill="#1C3553"/>
<path fill-rule="evenodd" clip-rule="evenodd" d="M56 35C56 33.8954 56.8954 33 58 33H72C73.1046 33 74 33.8954 74 35V47C74 48.1046 73.1046 49 72 49H58C56.8954 49 56 48.1046 56 47V35ZM60 37V45H70V37H60Z" fill="#1C3553"/>
<path fill-rule="evenodd" clip-rule="evenodd" d="M56 75C56 73.8954 56.8954 73 58 73H72C73.1046 73 74 73.8954 74 75V87C74 88.1046 73.1046 89 72 89H58C56.8954 89 56 88.1046 56 87V75ZM60 77V85H70V77H60Z" fill="#1C3553"/>
<path fill-rule="evenodd" clip-rule="evenodd" d="M56 55C56 53.8954 56.8954 53 58 53H72C73.1046 53 74 53.8954 74 55V67C74 68.1046 73.1046 69 72 69H58C56.8954 69 56 68.1046 56 67V55ZM60 57V65H70V57H60Z" fill="#1C3553"/>
<path fill-rule="evenodd" clip-rule="evenodd" d="M78 37C78 35.8954 78.8954 35 80 35H90C91.1046 35 92 35.8954 92 37C92 38.1046 91.1046 39 90 39H80C78.8954 39 78 38.1046 78 37Z" fill="#1C3553"/>
<path fill-rule="evenodd" clip-rule="evenodd" d="M78 45C78 43.8954 78.8954 43 80 43H97C98.1046 43 99 43.8954 99 45C99 46.1046 98.1046 47 97 47H80C78.8954 47 78 46.1046 78 45Z" fill="#1C3553"/>
<path fill-rule="evenodd" clip-rule="evenodd" d="M78 57C78 55.8954 78.8954 55 80 55H90C91.1046 55 92 55.8954 92 57C92 58.1046 91.1046 59 90 59H80C78.8954 59 78 58.1046 78 57Z" fill="#1C3553"/>
<path fill-rule="evenodd" clip-rule="evenodd" d="M78 65C78 63.8954 78.8954 63 80 63H97C98.1046 63 99 63.8954 99 65C99 66.1046 98.1046 67 97 67H80C78.8954 67 78 66.1046 78 65Z" fill="#1C3553"/>
<path fill-rule="evenodd" clip-rule="evenodd" d="M78 77C78 75.8954 78.8954 75 80 75H90C91.1046 75 92 75.8954 92 77C92 78.1046 91.1046 79 90 79H80C78.8954 79 78 78.1046 78 77Z" fill="#1C3553"/>
<path fill-rule="evenodd" clip-rule="evenodd" d="M78 85C78 83.8954 78.8954 83 80 83H97C98.1046 83 99 83.8954 99 85C99 86.1046 98.1046 87 97 87H80C78.8954 87 78 86.1046 78 85Z" fill="#1C3553"/>
</svg>
