<svg width="156" height="156" viewBox="0 0 156 156" fill="none" xmlns="http://www.w3.org/2000/svg">
<path d="M56.9524 104.796L34.6051 121.78C33.9467 122.281 33 121.811 33 120.984V87.0161C33 86.1891 33.9467 85.7195 34.6051 86.2199L56.9524 103.204C57.479 103.604 57.479 104.396 56.9524 104.796Z" fill="#C2DDFF"/>
<path d="M99.0476 103.204L121.395 86.2198C122.053 85.7194 123 86.189 123 87.016L123 120.984C123 121.811 122.053 122.281 121.395 121.78L99.0476 104.796C98.521 104.396 98.521 103.604 99.0476 103.204Z" fill="#C2DDFF"/>
<path d="M68.7273 110.216L47.2536 127.216C46.5104 127.804 46.9265 129 47.8743 129H109.032C109.989 129 110.399 127.783 109.637 127.204L87.2683 110.204C87.0943 110.072 86.8817 110 86.6632 110H69.348C69.1226 110 68.9039 110.076 68.7273 110.216Z" fill="#C2DDFF"/>
<path fill-rule="evenodd" clip-rule="evenodd" d="M58 47C56.8954 47 56 47.8954 56 49V79C56 80.1046 56.8954 81 58 81H97C98.1046 81 99 80.1046 99 79V49C99 47.8954 98.1046 47 97 47H58ZM71 73L86 64L71 55V73Z" fill="#C2DDFF"/>
<path d="M100 37H114L98 22V35C98 36.1046 98.8954 37 100 37Z" fill="#C2DDFF"/>
<path fill-rule="evenodd" clip-rule="evenodd" d="M88 64C88 64.7025 87.6314 65.3535 87.029 65.715L72.029 74.715C71.4111 75.0857 70.6416 75.0954 70.0146 74.7404C69.3876 74.3854 69 73.7205 69 73L69 55C69 54.2795 69.3876 53.6146 70.0146 53.2596C70.6416 52.9046 71.4111 52.9143 72.029 53.285L87.029 62.285C87.6314 62.6465 88 63.2975 88 64ZM82.1127 64L73 58.5324L73 69.4676L82.1127 64Z" fill="#1C3553"/>
<path fill-rule="evenodd" clip-rule="evenodd" d="M67 91C67 89.8954 67.8954 89 69 89H87C88.1046 89 89 89.8954 89 91C89 92.1046 88.1046 93 87 93H69C67.8954 93 67 92.1046 67 91Z" fill="#1C3553"/>
<path fill-rule="evenodd" clip-rule="evenodd" d="M42.9388 57.6108C43.706 58.4054 43.6838 59.6716 42.8892 60.4388L30.0511 72.8342L67.6843 102H88.3157L125.981 72.8094L113.586 60.4142C112.805 59.6332 112.805 58.3668 113.586 57.5858C114.367 56.8047 115.633 56.8047 116.414 57.5858L130.414 71.5858C130.789 71.9609 131 72.4696 131 73V135C131 136.105 130.105 137 129 137H27C25.8954 137 25 136.105 25 135V112C25 110.895 25.8954 110 27 110C28.1046 110 29 110.895 29 112V130.92L63.7351 104L29 77.0803V104.25C29 105.355 28.1046 106.25 27 106.25C25.8954 106.25 25 105.355 25 104.25V73C25 72.4574 25.2205 71.938 25.6108 71.5612L40.1108 57.5612C40.9054 56.794 42.1716 56.8162 42.9388 57.6108ZM67.6843 106L32.8456 133H123.154L88.3157 106H67.6843ZM92.2649 104L127 130.92V77.0803L92.2649 104Z" fill="#1C3553"/>
<path fill-rule="evenodd" clip-rule="evenodd" d="M54 37C54 35.8954 54.8954 35 56 35H78C79.1046 35 80 35.8954 80 37C80 38.1046 79.1046 39 78 39H56C54.8954 39 54 38.1046 54 37Z" fill="#1C3553"/>
<path fill-rule="evenodd" clip-rule="evenodd" d="M54 49C54 46.7909 55.7909 45 58 45H97C99.2091 45 101 46.7909 101 49V79C101 81.2091 99.2091 83 97 83H58C55.7909 83 54 81.2091 54 79V49ZM97 49H58V79H97V49ZM70.0146 53.2596C70.6416 52.9046 71.4111 52.9143 72.029 53.285L87.029 62.285C87.6314 62.6465 88 63.2975 88 64C88 64.7025 87.6314 65.3535 87.029 65.715L72.029 74.715C71.4111 75.0857 70.6416 75.0954 70.0146 74.7404C69.3876 74.3854 69 73.7205 69 73V55C69 54.2795 69.3876 53.6146 70.0146 53.2596ZM73 58.5324V69.4676L82.1127 64L73 58.5324Z" fill="#1C3553"/>
<path fill-rule="evenodd" clip-rule="evenodd" d="M44 24V84C44 85.1046 43.1046 86 42 86C40.8954 86 40 85.1046 40 84V24C40 21.7909 41.7909 20 44 20H56C57.1046 20 58 20.8954 58 22C58 23.1046 57.1046 24 56 24L44 24ZM62 22C62 20.8954 62.8954 20 64 20H98C98.5081 20 98.9972 20.1934 99.3679 20.5409L115.368 35.5409C115.771 35.919 116 36.4472 116 37V84C116 85.1046 115.105 86 114 86C112.895 86 112 85.1046 112 84V39H100C97.7909 39 96 37.2091 96 35V24H64C62.8954 24 62 23.1046 62 22ZM100 26.6165L108.942 35H100V26.6165Z" fill="#1C3553"/>
</svg>
