<svg width="156" height="156" viewBox="0 0 156 156" fill="none" xmlns="http://www.w3.org/2000/svg">
<path d="M62 41C62 33.268 68.268 27 76 27H80C87.732 27 94 33.268 94 41V82C94 89.732 87.732 96 80 96H76C68.268 96 62 89.732 62 82V41Z" fill="#C2DDFF"/>
<path fill-rule="evenodd" clip-rule="evenodd" d="M59 135C59 133.895 59.8954 133 61 133H95C96.1046 133 97 133.895 97 135C97 136.105 96.1046 137 95 137H61C59.8954 137 59 136.105 59 135Z" fill="#1C3553"/>
<path fill-rule="evenodd" clip-rule="evenodd" d="M54 70C54 68.8954 54.8954 68 56 68H70C71.1046 68 72 68.8954 72 70C72 71.1046 71.1046 72 70 72H56C54.8954 72 54 71.1046 54 70Z" fill="#1C3553"/>
<path fill-rule="evenodd" clip-rule="evenodd" d="M54 62C54 60.8954 54.8954 60 56 60L70 60C71.1046 60 72 60.8954 72 62C72 63.1046 71.1046 64 70 64L56 64C54.8954 64 54 63.1046 54 62Z" fill="#1C3553"/>
<path fill-rule="evenodd" clip-rule="evenodd" d="M54 54C54 52.8954 54.8954 52 56 52L70 52C71.1046 52 72 52.8954 72 54C72 55.1046 71.1046 56 70 56L56 56C54.8954 56 54 55.1046 54 54Z" fill="#1C3553"/>
<path fill-rule="evenodd" clip-rule="evenodd" d="M84 70C84 68.8954 84.8954 68 86 68H100C101.105 68 102 68.8954 102 70C102 71.1046 101.105 72 100 72H86C84.8954 72 84 71.1046 84 70Z" fill="#1C3553"/>
<path fill-rule="evenodd" clip-rule="evenodd" d="M84 62C84 60.8954 84.8954 60 86 60L100 60C101.105 60 102 60.8954 102 62C102 63.1046 101.105 64 100 64L86 64C84.8954 64 84 63.1046 84 62Z" fill="#1C3553"/>
<path fill-rule="evenodd" clip-rule="evenodd" d="M84 54C84 52.8954 84.8954 52 86 52L100 52C101.105 52 102 52.8954 102 54C102 55.1046 101.105 56 100 56L86 56C84.8954 56 84 55.1046 84 54Z" fill="#1C3553"/>
<path fill-rule="evenodd" clip-rule="evenodd" d="M78 108C79.1046 108 80 108.895 80 110V135C80 136.105 79.1046 137 78 137C76.8954 137 76 136.105 76 135V110C76 108.895 76.8954 108 78 108Z" fill="#1C3553"/>
<path fill-rule="evenodd" clip-rule="evenodd" d="M54 41C54 28.8497 63.8497 19 76 19H80C92.1503 19 102 28.8497 102 41V82C102 94.1503 92.1503 104 80 104H76C63.8497 104 54 94.1503 54 82V41ZM76 23C66.0589 23 58 31.0589 58 41V82C58 91.9411 66.0589 100 76 100H80C89.9411 100 98 91.9411 98 82V41C98 31.0589 89.9411 23 80 23H76Z" fill="#1C3553"/>
<path fill-rule="evenodd" clip-rule="evenodd" d="M48 68C49.1046 68 50 68.8954 50 70V84C50 97.2548 60.7452 108 74 108H82C95.2548 108 106 97.2548 106 84V70C106 68.8954 106.895 68 108 68C109.105 68 110 68.8954 110 70V84C110 99.464 97.464 112 82 112H74C58.536 112 46 99.464 46 84V70C46 68.8954 46.8954 68 48 68Z" fill="#1C3553"/>
</svg>
