<svg width="156" height="156" viewBox="0 0 156 156" fill="none" xmlns="http://www.w3.org/2000/svg">
<path d="M81.4889 34.6655C94.3762 47.5528 94.3762 68.4472 81.4889 81.3345C68.6016 94.2218 47.7072 94.2218 34.8199 81.3345C21.9326 68.4472 21.9326 47.5528 34.8199 34.6655C47.7072 21.7782 68.6016 21.7782 81.4889 34.6655Z" fill="#C2DDFF"/>
<path d="M94.2165 102.548L117.551 125.882C119.113 127.444 121.646 127.444 123.208 125.882L126.036 123.054C127.598 121.492 127.598 118.959 126.036 117.397L102.702 94.0622C101.921 93.2812 100.654 93.2812 99.8733 94.0622L94.2165 99.7191C93.4354 100.5 93.4354 101.766 94.2165 102.548Z" fill="#C2DDFF"/>
<path fill-rule="evenodd" clip-rule="evenodd" d="M31.9923 31.8359C17.5423 46.2859 17.5423 69.7141 31.9923 84.1641C46.4423 98.6141 69.8705 98.6141 84.3205 84.1641C98.7705 69.7141 98.7705 46.2859 84.3205 31.8359C69.8705 17.3859 46.4423 17.3859 31.9923 31.8359ZM29.1639 86.9925C13.1518 70.9804 13.1518 45.0196 29.1639 29.0075C45.176 12.9954 71.1368 12.9954 87.1489 29.0075C103.161 45.0196 103.161 70.9804 87.1489 86.9925C71.1368 103.005 45.176 103.005 29.1639 86.9925Z" fill="#1C3553"/>
<path fill-rule="evenodd" clip-rule="evenodd" d="M92.8021 103.962C91.24 102.4 91.24 99.8671 92.8021 98.305L98.4589 92.6481C100.021 91.086 102.554 91.086 104.116 92.6481L128.157 116.69C130.501 119.033 130.501 122.832 128.157 125.175L125.329 128.003C122.986 130.347 119.187 130.347 116.844 128.003L92.8021 103.962ZM101.287 95.4766L95.6305 101.133L119.672 125.175C120.453 125.956 121.719 125.956 122.501 125.175L125.329 122.347C126.11 121.566 126.11 120.299 125.329 119.518L101.287 95.4766Z" fill="#1C3553"/>
<path fill-rule="evenodd" clip-rule="evenodd" d="M85.7311 96.8908C84.9501 96.1097 84.9501 94.8434 85.7311 94.0623L94.2164 85.5771C94.9974 84.796 96.2638 84.796 97.0448 85.5771C97.8259 86.3581 97.8259 87.6244 97.0448 88.4055L88.5595 96.8908C87.7785 97.6718 86.5122 97.6718 85.7311 96.8908Z" fill="#1C3553"/>
</svg>
