<svg width="156" height="156" viewBox="0 0 156 156" fill="none" xmlns="http://www.w3.org/2000/svg">
<path fill-rule="evenodd" clip-rule="evenodd" d="M64 82C62.8954 82 62 82.8954 62 84V120C62 121.105 62.8954 122 64 122H92C93.1046 122 94 121.105 94 120V84C94 82.8954 93.1046 82 92 82H64ZM68 112V98.1304L78.5 90L89 98.1304V112H68Z" fill="#C2DDFF"/>
<path d="M77.136 23.4836C77.5218 22.8214 78.4785 22.8214 78.8643 23.4836L81.0112 27.1697C81.1525 27.4123 81.3893 27.5843 81.6637 27.6437L85.8327 28.5465C86.5818 28.7087 86.8774 29.6186 86.3668 30.1902L83.5246 33.371C83.3375 33.5804 83.2471 33.8587 83.2754 34.1381L83.7051 38.3821C83.7823 39.1446 83.0082 39.7069 82.3069 39.3979L78.4034 37.6777C78.1465 37.5645 77.8538 37.5645 77.5969 37.6777L73.6934 39.3979C72.9921 39.7069 72.218 39.1446 72.2953 38.3821L72.725 34.1381C72.7532 33.8587 72.6628 33.5804 72.4757 33.371L69.6335 30.1902C69.1229 29.6186 69.4185 28.7087 70.1676 28.5465L74.3367 27.6437C74.611 27.5843 74.8478 27.4123 74.9891 27.1697L77.136 23.4836Z" fill="#C2DDFF"/>
<path d="M113 40H131V51H125L118 56V51H113V40Z" fill="#C2DDFF"/>
<path fill-rule="evenodd" clip-rule="evenodd" d="M34 30.677C25.1634 30.677 18 37.8404 18 46.677C18 55.5136 25.1634 62.677 34 62.677C42.8366 62.677 50 55.5136 50 46.677C50 37.8404 42.8366 30.677 34 30.677ZM14 46.677C14 35.6313 22.9543 26.677 34 26.677C45.0457 26.677 54 35.6313 54 46.677C54 57.7227 45.0457 66.677 34 66.677C22.9543 66.677 14 57.7227 14 46.677Z" fill="#1C3553"/>
<path fill-rule="evenodd" clip-rule="evenodd" d="M42.3499 39.5244C43.1649 40.27 43.2213 41.535 42.4757 42.3501L32.792 52.9361C32.4165 53.3466 31.8869 53.5821 31.3305 53.5861C30.7741 53.59 30.2412 53.362 29.8599 52.9569L25.5436 48.3709C24.7866 47.5665 24.8249 46.3008 25.6293 45.5437C26.4336 44.7867 27.6994 44.8251 28.4564 45.6294L31.2954 48.6458L39.5243 39.6502C40.2698 38.8352 41.5349 38.7789 42.3499 39.5244Z" fill="#1C3553"/>
<path fill-rule="evenodd" clip-rule="evenodd" d="M54 64C54 60.6863 56.6863 58 60 58H96C99.3137 58 102 60.6863 102 64V134C102 137.314 99.3137 140 96 140H60C56.6863 140 54 137.314 54 134V64ZM60 62C58.8954 62 58 62.8954 58 64V74.0069H92C93.1046 74.0069 94 74.9023 94 76.0069C94 77.1115 93.1046 78.0069 92 78.0069H58V134C58 135.105 58.8954 136 60 136H96C97.1046 136 98 135.105 98 134V130.029H64C62.8954 130.029 62 129.134 62 128.029C62 126.925 62.8954 126.029 64 126.029H98V64C98 62.8954 97.1046 62 96 62H60Z" fill="#1C3553"/>
<path fill-rule="evenodd" clip-rule="evenodd" d="M68 68C68 66.8954 68.8954 66 70 66H86C87.1046 66 88 66.8954 88 68C88 69.1046 87.1046 70 86 70H70C68.8954 70 68 69.1046 68 68Z" fill="#1C3553"/>
<path fill-rule="evenodd" clip-rule="evenodd" d="M76.7383 88.4482C77.4733 87.8506 78.5267 87.8506 79.2617 88.4482L89.2617 96.5786C89.7288 96.9584 90 97.5284 90 98.1304V112C90 113.105 89.1046 114 88 114H68C66.8954 114 66 113.105 66 112V98.1304C66 97.5284 66.2712 96.9584 66.7383 96.5786L76.7383 88.4482ZM70 99.082V110H86V99.082L78 92.5776L70 99.082Z" fill="#1C3553"/>
<path fill-rule="evenodd" clip-rule="evenodd" d="M78 16C69.1634 16 62 23.1634 62 32C62 40.8366 69.1634 48 78 48C86.8366 48 94 40.8366 94 32C94 23.1634 86.8366 16 78 16ZM58 32C58 20.9543 66.9543 12 78 12C89.0457 12 98 20.9543 98 32C98 43.0457 89.0457 52 78 52C66.9543 52 58 43.0457 58 32Z" fill="#1C3553"/>
<path fill-rule="evenodd" clip-rule="evenodd" d="M75.4075 22.477C76.5647 20.4902 79.435 20.4902 80.5922 22.477L82.5173 25.7823L86.2557 26.5918C88.5028 27.0784 89.3898 29.8082 87.8578 31.5227L85.3092 34.375L85.6946 38.1806C85.9262 40.4681 83.6041 42.1552 81.5001 41.2281L77.9998 39.6856L74.4996 41.2281C72.3956 42.1552 70.0735 40.4681 70.3051 38.1806L70.6904 34.375L68.1418 31.5227C66.6099 29.8082 67.4968 27.0784 69.744 26.5918L73.4824 25.7823L75.4075 22.477ZM77.9998 25.9738L76.717 28.1763C76.2931 28.9041 75.5828 29.4202 74.7596 29.5984L72.2685 30.1378L73.9668 32.0385C74.528 32.6665 74.7993 33.5016 74.7145 34.3395L74.4577 36.8754L76.7901 35.8476C77.5608 35.5079 78.4388 35.5079 79.2096 35.8476L81.542 36.8754L81.2852 34.3395C81.2004 33.5016 81.4717 32.6665 82.0329 32.0385L83.7311 30.1378L81.24 29.5984C80.4169 29.4202 79.7065 28.9041 79.2826 28.1763L77.9998 25.9738Z" fill="#1C3553"/>
<path fill-rule="evenodd" clip-rule="evenodd" d="M122 30.677C113.163 30.677 106 37.8404 106 46.677C106 55.5136 113.163 62.677 122 62.677C130.837 62.677 138 55.5136 138 46.677C138 37.8404 130.837 30.677 122 30.677ZM102 46.677C102 35.6313 110.954 26.677 122 26.677C133.046 26.677 142 35.6313 142 46.677C142 57.7227 133.046 66.677 122 66.677C110.954 66.677 102 57.7227 102 46.677Z" fill="#1C3553"/>
<path fill-rule="evenodd" clip-rule="evenodd" d="M111 40C111 38.8954 111.895 38 113 38H131C132.105 38 133 38.8954 133 40V51C133 52.1046 132.105 53 131 53H125.641L119.162 57.6275C118.553 58.0629 117.751 58.1211 117.085 57.7783C116.419 57.4355 116 56.7492 116 56V53H113C111.895 53 111 52.1046 111 51V40ZM115 42V49H118C119.105 49 120 49.8954 120 51V52.1136L123.838 49.3725C124.177 49.1302 124.583 49 125 49H129V42H115Z" fill="#1C3553"/>
</svg>
