<svg width="156" height="156" viewBox="0 0 156 156" fill="none" xmlns="http://www.w3.org/2000/svg">
<path fill-rule="evenodd" clip-rule="evenodd" d="M123.62 78.0001C124.506 78.0001 124.955 76.9332 124.335 76.3003L79.4438 30.474C78.6537 29.6675 77.3532 29.6743 76.5717 30.4891L32.6231 76.3078C32.0133 76.9436 32.4639 78.0001 33.3448 78.0001H40.9999C42.1045 78.0001 42.9999 78.8955 42.9999 80.0001V133C42.9999 133.552 43.4476 134 43.9999 134H112C112.552 134 113 133.552 113 133V80.0001C113 78.8955 113.895 78.0001 115 78.0001H123.62ZM101 106H87V134H101V106ZM69 84H55V98H69V84Z" fill="#C2DDFF"/>
<path fill-rule="evenodd" clip-rule="evenodd" d="M73.709 21.5756C76.0507 19.1414 79.9393 19.1191 82.3089 21.5263L139.075 79.1939C141.565 81.7227 139.773 86 136.225 86H121V104C121 105.105 120.105 106 119 106C117.895 106 117 105.105 117 104V85C117 83.3431 118.343 82 120 82H136.225L79.4582 24.3323C78.6684 23.5299 77.3722 23.5374 76.5916 24.3488L56.162 45.5853C54.2896 47.5316 51 46.2062 51 43.5054V39H39V61.5857C39 62.3814 38.6839 63.1445 38.1213 63.7071L19.8284 82H36C37.6568 82 39 83.3431 39 85V132H117V112C117 110.895 117.895 110 119 110C120.105 110 121 110.895 121 112V134C121 135.105 120.105 136 119 136H37C35.8954 136 35 135.105 35 134V86H19.8284C16.2648 86 14.4801 81.6914 17 79.1715L35 61.1715V38C35 36.3431 36.3431 35 38 35H52C53.6568 35 55 36.3431 55 38V41.0235L73.709 21.5756Z" fill="#1C3553"/>
<path fill-rule="evenodd" clip-rule="evenodd" d="M26 134C26 132.895 26.8954 132 28 132H128C129.105 132 130 132.895 130 134C130 135.105 129.105 136 128 136H28C26.8954 136 26 135.105 26 134Z" fill="#1C3553"/>
<path fill-rule="evenodd" clip-rule="evenodd" d="M85 106C85 104.895 85.8954 104 87 104H101C102.105 104 103 104.895 103 106V134C103 135.105 102.105 136 101 136H87C85.8954 136 85 135.105 85 134V106ZM89 108V132H99V108H89Z" fill="#1C3553"/>
<path fill-rule="evenodd" clip-rule="evenodd" d="M53 84C53 82.8954 53.8954 82 55 82H69C70.1046 82 71 82.8954 71 84V98C71 99.1046 70.1046 100 69 100H55C53.8954 100 53 99.1046 53 98V84ZM57 86V96H67V86H57Z" fill="#1C3553"/>
</svg>
