<svg width="156" height="156" viewBox="0 0 156 156" fill="none" xmlns="http://www.w3.org/2000/svg">
<path d="M56 51C56 49.8954 56.8954 49 58 49H110C111.105 49 112 49.8954 112 51V84C112 85.1046 111.105 86 110 86H58C56.8954 86 56 85.1046 56 84V51Z" fill="#C2DDFF"/>
<path d="M105 43V27L123 43H105Z" fill="#C2DDFF"/>
<path fill-rule="evenodd" clip-rule="evenodd" d="M43.9995 29C43.9995 26.7909 45.7904 25 47.9995 25H105C105.509 25 105.999 25.1944 106.37 25.5436L123.37 41.5436C123.772 41.9215 124 42.4485 124 43V115C124 117.209 122.209 119 120 119H47.9995C45.7904 119 43.9995 117.209 43.9995 115V29ZM103 29H47.9995V115H120V45H107C104.79 45 103 43.2091 103 41V29ZM107 31.6288L116.957 41H107V31.6288Z" fill="#1C3553"/>
<path fill-rule="evenodd" clip-rule="evenodd" d="M32 40.5472C32 38.338 33.7909 36.5472 36 36.5472H38C39.1046 36.5472 40 37.4426 40 38.5472C40 39.6517 39.1046 40.5472 38 40.5472L36 40.5472V127H112V125C112 123.895 112.895 123 114 123C115.105 123 116 123.895 116 125V127C116 129.209 114.209 131 112 131H36C33.7909 131 32 129.209 32 127V40.5472Z" fill="#1C3553"/>
<path fill-rule="evenodd" clip-rule="evenodd" d="M55.9995 43C55.9995 41.8954 56.8949 41 57.9995 41H73.9995C75.1041 41 75.9995 41.8954 75.9995 43C75.9995 44.1046 75.1041 45 73.9995 45H57.9995C56.8949 45 55.9995 44.1046 55.9995 43Z" fill="#1C3553"/>
<path fill-rule="evenodd" clip-rule="evenodd" d="M55.9995 92C55.9995 90.8954 56.8949 90 57.9995 90H83.9995C85.1041 90 85.9995 90.8954 85.9995 92C85.9995 93.1046 85.1041 94 83.9995 94H57.9995C56.8949 94 55.9995 93.1046 55.9995 92Z" fill="#1C3553"/>
<path fill-rule="evenodd" clip-rule="evenodd" d="M55.9995 104C55.9995 102.895 56.8949 102 57.9995 102H110C111.104 102 112 102.895 112 104C112 105.105 111.104 106 110 106H57.9995C56.8949 106 55.9995 105.105 55.9995 104Z" fill="#1C3553"/>
<path fill-rule="evenodd" clip-rule="evenodd" d="M73.0032 58C73.6827 58.001 74.3152 58.3469 74.6826 58.9185L82.4994 71.078L89.7724 65.4213C90.6151 64.7659 91.824 64.8878 92.5187 65.6984L96.9646 70.8852L104.452 61.7335C105.152 60.8786 106.412 60.7526 107.267 61.4521C108.122 62.1515 108.248 63.4116 107.548 64.2665L98.5482 75.2665C98.1734 75.7245 97.6149 75.9931 97.0231 75.9999C96.4313 76.0066 95.8669 75.7509 95.4817 75.3016L90.7228 69.7495L83.2281 75.5787C82.7848 75.9235 82.217 76.066 81.6634 75.9714C81.1099 75.8769 80.6216 75.5539 80.3179 75.0815L72.9948 63.69L63.6794 78.0865C63.0793 79.0139 61.8411 79.2792 60.9137 78.6791C59.9864 78.0791 59.721 76.8409 60.3211 75.9135L71.3211 58.9135C71.6902 58.343 72.3237 57.999 73.0032 58Z" fill="#1C3553"/>
</svg>
