<svg width="156" height="156" viewBox="0 0 156 156" fill="none" xmlns="http://www.w3.org/2000/svg">
<path fill-rule="evenodd" clip-rule="evenodd" d="M49 84V97C49 99.7614 51.2386 102 54 102H102C104.209 102 106 100.209 106 98V84H130C131.105 84 132 84.8954 132 86V127C132 128.105 131.105 129 130 129H25C23.8954 129 23 128.105 23 127V86C23 84.8954 23.8954 84 25 84H49Z" fill="#C2DDFF"/>
<path fill-rule="evenodd" clip-rule="evenodd" d="M15 82.0001C15 78.6864 17.6863 76.0001 21 76.0001H41C42.1046 76.0001 43 76.8956 43 78.0001C43 79.1047 42.1046 80.0001 41 80.0001H21C19.8954 80.0001 19 80.8956 19 82.0001L19 130.467C19 131.558 19.8736 132.447 20.9639 132.467L39.3544 132.799L63.9019 133H98C99.1046 133 100 133.896 100 135C100 136.105 99.1046 137 98 137H63.8939L63.8775 137L39.3115 136.799L39.2918 136.798L20.8918 136.466C17.6208 136.407 15 133.739 15 130.467L15 82.0001ZM113 78.0001C113 76.8956 113.895 76.0001 115 76.0001H134C137.314 76.0001 140 78.6864 140 82.0001V131C140 134.314 137.314 137 134 137H106C104.895 137 104 136.105 104 135C104 133.896 104.895 133 106 133H134C135.105 133 136 132.105 136 131V82.0001C136 80.8956 135.105 80.0001 134 80.0001H115C113.895 80.0001 113 79.1047 113 78.0001Z" fill="#1C3553"/>
<path fill-rule="evenodd" clip-rule="evenodd" d="M73.6598 21.6736C76.0177 19.1846 79.9783 19.1742 82.3494 21.6506L121.206 62.2338C123.641 64.7777 121.838 69.0001 118.316 69.0001H109V98.0001C109 101.314 106.314 104 103 104H53.0002C49.6865 104 47.0002 101.314 47.0002 98.0001V69.0001H37.629C34.1235 69.0001 32.3137 64.8114 34.7162 62.2587L47.0002 49.207V33.0001C47.0002 31.3433 48.3433 30.0001 50.0002 30.0001H59.0002C60.657 30.0001 62.0002 31.3433 62.0002 33.0001V33.9809L73.6598 21.6736ZM79.4601 24.4169C78.6698 23.5914 77.3496 23.5949 76.5636 24.4246L63.178 38.5538C61.3129 40.5225 58.0002 39.2025 58.0002 36.4905V34.0001H51.0002V49.6035C51.0002 50.3677 50.7085 51.1031 50.1848 51.6596L37.629 65.0001H48.0002C49.657 65.0001 51.0002 66.3433 51.0002 68.0001V98.0001C51.0002 99.1047 51.8956 100 53.0002 100H103C104.105 100 105 99.1047 105 98.0001V68.0001C105 66.3433 106.343 65.0001 108 65.0001H118.316L79.4601 24.4169Z" fill="#1C3553"/>
<path fill-rule="evenodd" clip-rule="evenodd" d="M68.4763 59.0363C67.0095 60.531 66.6645 63.5477 68.515 65.6941C70.9847 68.5586 73.6838 71.259 75.7756 73.251C76.6466 74.0805 77.4087 74.7837 78.0002 75.3208C78.5916 74.7837 79.3538 74.0804 80.2248 73.2509C82.3166 71.2589 85.0158 68.5585 87.4854 65.6941C89.336 63.5477 88.9909 60.531 87.524 59.0363C86.8534 58.3529 85.9261 57.9567 84.705 58.1265C83.4213 58.305 81.6162 59.1445 79.4358 61.3925C79.0591 61.7809 78.5412 62.0001 78.0002 62.0001C77.4592 62.0001 76.9412 61.7809 76.5646 61.3925C74.3841 59.1445 72.5791 58.305 71.2954 58.1265C70.0742 57.9567 69.147 58.3529 68.4763 59.0363ZM78.0002 78.0001L76.6926 79.5134C77.4436 80.1623 78.5568 80.1623 79.3077 79.5134L78.0002 78.0001ZM78.0002 78.0001C79.3077 79.5134 79.3076 79.5136 79.3077 79.5134L79.3138 79.5082L79.3284 79.4955L79.3827 79.4482C79.4299 79.4071 79.4987 79.3469 79.5875 79.2687C79.765 79.1123 80.0225 78.8839 80.3464 78.5921C80.9941 78.0086 81.9089 77.1708 82.9833 76.1476C85.1274 74.1058 87.9283 71.3061 90.5149 68.306C93.7207 64.5877 93.306 59.2173 90.379 56.2346C88.8526 54.6792 86.6744 53.8142 84.1542 54.1646C82.1558 54.4424 80.0818 55.461 78.0002 57.2509C75.9186 55.461 73.8445 54.4424 71.8462 54.1646C69.326 53.8142 67.1478 54.6792 65.6214 56.2346C62.6944 59.2173 62.2797 64.5878 65.4855 68.3061C68.0722 71.3062 70.873 74.1058 73.0171 76.1477C74.0915 77.1708 75.0062 78.0086 75.6539 78.5921C75.9779 78.8839 76.2353 79.1123 76.4128 79.2687C76.5016 79.3469 76.5704 79.4071 76.6176 79.4482L76.6719 79.4955L76.6926 79.5134C76.6928 79.5136 76.6926 79.5134 78.0002 78.0001Z" fill="#1C3553"/>
</svg>
