<svg width="156" height="156" viewBox="0 0 156 156" fill="none" xmlns="http://www.w3.org/2000/svg">
<path d="M104.978 119.14C56.31 114.656 44.1855 69.2962 43.0308 42.6832C42.8446 38.391 46.3959 35 50.6922 35H63.5307C65.5213 35 67.209 36.4637 67.4905 38.4343L69.6434 53.5044C69.8612 55.0294 69.1841 56.5439 67.9024 57.3983L63.1458 60.5694C61.8392 61.4405 61.159 62.9957 61.4204 64.5441C63.5814 77.3462 67.3983 93.4557 90.3685 100.397C91.6846 100.795 93.1099 100.431 94.115 99.4927L98.581 95.3244C99.477 94.4881 100.707 94.1088 101.918 94.2952L109.608 95.4782C111.56 95.7784 113 97.4574 113 99.4317V111.5C113 115.918 109.377 119.546 104.978 119.14Z" fill="#C2DDFF"/>
<path fill-rule="evenodd" clip-rule="evenodd" d="M49.2814 31C43.6226 31 39.113 35.6236 39.4811 41.1119C40.3956 54.7449 43.2157 73.884 52.8596 90.3218C62.4377 106.647 78.8047 120.423 107.184 123.403C112.46 123.957 117 119.58 117 114V94.1946C117 93.1997 116.269 92.3561 115.284 92.2149L100.202 90.0523C99.577 89.9628 98.9466 90.1734 98.5011 90.6205L94.2391 94.8983C92.7289 96.4141 90.4559 97.0667 88.3195 96.3657C81.2148 94.0344 76.0645 90.421 72.3209 85.4871C68.6055 80.5903 66.3784 74.5271 64.8741 67.4612C64.3333 64.9207 65.5496 62.3894 67.7399 61.1332L73.171 58.0182C73.8855 57.6084 74.2757 56.8024 74.154 55.9877L70.6744 32.7044C70.528 31.7249 69.6867 31 68.6963 31H49.2814ZM35.4901 41.3797C34.9566 33.4257 41.4677 27 49.2814 27H68.6963C71.6675 27 74.1913 29.1746 74.6304 32.1132L78.1101 55.3965C78.4753 57.8405 77.3047 60.2585 75.1611 61.488L69.73 64.603C68.9837 65.031 68.6224 65.8576 68.7864 66.6283C70.2281 73.4001 72.2878 78.8259 75.5075 83.0693C78.699 87.2757 83.1321 90.4537 89.5666 92.565C90.1655 92.7616 90.8839 92.5986 91.4055 92.0751L95.6675 87.7973C97.004 86.4559 98.8952 85.8241 100.77 86.0928L115.852 88.2554C118.806 88.679 121 91.2099 121 94.1946V114C121 121.675 114.673 128.212 106.766 127.381C77.0472 124.26 59.591 109.7 49.4096 92.3459C39.294 75.1043 36.4185 55.2208 35.4901 41.3797Z" fill="#1C3553"/>
<path fill-rule="evenodd" clip-rule="evenodd" d="M90 47.0623C90 45.9578 90.8954 45.0623 92 45.0623H102C103.105 45.0623 104 45.9578 104 47.0623C104 48.1669 103.105 49.0623 102 49.0623H92C90.8954 49.0623 90 48.1669 90 47.0623Z" fill="#1C3553"/>
<path fill-rule="evenodd" clip-rule="evenodd" d="M88.2636 35.0234C87.7156 34.0643 88.0488 32.8426 89.0078 32.2946L96.0078 28.2946C96.9669 27.7466 98.1886 28.0798 98.7366 29.0388C99.2846 29.9978 98.9514 31.2196 97.9924 31.7676L90.9924 35.7676C90.0334 36.3156 88.8117 35.9824 88.2636 35.0234Z" fill="#1C3553"/>
</svg>
