<svg width="156" height="156" viewBox="0 0 156 156" fill="none" xmlns="http://www.w3.org/2000/svg">
<path fill-rule="evenodd" clip-rule="evenodd" d="M42.7031 58.0083C42.7031 56.9038 43.5986 56.0084 44.7031 56.0084H124.703C125.808 56.0084 126.703 56.9038 126.703 58.0084V117C126.703 118.105 125.808 119 124.703 119H44.7031C43.5986 119 42.7031 118.105 42.7031 117V58.0083ZM110.902 105.784H59.9623C58.3212 105.784 57.3786 103.916 58.3532 102.596L71 85.4638L78 94.6077L92 76.3198L112.478 102.553C113.503 103.866 112.567 105.784 110.902 105.784ZM62 77.3358C65.3137 77.3358 68 74.6066 68 71.2398C68 67.8731 65.3137 65.1439 62 65.1439C58.6863 65.1439 56 67.8731 56 71.2398C56 74.6066 58.6863 77.3358 62 77.3358Z" fill="#C2DDFF"/>
<path fill-rule="evenodd" clip-rule="evenodd" d="M35 54C35 50.6863 37.6863 48 41 48H129C132.314 48 135 50.6863 135 54V121C135 124.314 132.314 127 129 127H41C37.6863 127 35 124.314 35 121V54ZM41 52C39.8954 52 39 52.8955 39 54V121C39 122.105 39.8954 123 41 123H129C130.105 123 131 122.105 131 121V54C131 52.8955 130.105 52 129 52H41Z" fill="#1C3553"/>
<path fill-rule="evenodd" clip-rule="evenodd" d="M18.8754 49.2879C18.1864 46.0466 20.2555 42.8605 23.4968 42.1716L109.574 23.8753C112.815 23.1864 116.001 25.2555 116.69 28.4968L119.261 40.5925C119.491 41.673 118.801 42.735 117.721 42.9646C116.64 43.1943 115.578 42.5046 115.349 41.4242L112.778 29.3284C112.548 28.248 111.486 27.5583 110.405 27.7879L24.3285 46.0842C23.248 46.3138 22.5583 47.3759 22.788 48.4563L30.6107 85.2591C30.8403 86.3395 30.1506 87.4016 29.0702 87.6312C27.9898 87.8609 26.9277 87.1712 26.6981 86.0907L18.8754 49.2879Z" fill="#1C3553"/>
<path fill-rule="evenodd" clip-rule="evenodd" d="M91.9905 76.0001C92.6043 75.9972 93.1855 76.2763 93.5669 76.7573L113.995 102.514C116.074 105.136 114.207 109 110.861 109H59.9999C56.7038 109 54.8222 105.237 56.7999 102.6L69.3999 85.8C69.7739 85.3014 70.3591 85.0056 70.9824 85.0001C71.6057 84.9947 72.1959 85.2801 72.5786 85.7722L77.9999 92.7424L90.4212 76.7722C90.7981 76.2876 91.3766 76.003 91.9905 76.0001ZM92.0153 81.238L79.5786 97.2279C79.1997 97.7151 78.6171 98 77.9999 98C77.3828 98 76.8001 97.7151 76.4212 97.2279L71.0288 90.2948L59.9999 105H110.861L92.0153 81.238Z" fill="#1C3553"/>
<path fill-rule="evenodd" clip-rule="evenodd" d="M62 69C59.7909 69 58 70.7909 58 73C58 75.2092 59.7909 77 62 77C64.2091 77 66 75.2092 66 73C66 70.7909 64.2091 69 62 69ZM54 73C54 68.5818 57.5817 65 62 65C66.4183 65 70 68.5818 70 73C70 77.4183 66.4183 81 62 81C57.5817 81 54 77.4183 54 73Z" fill="#1C3553"/>
</svg>
