<svg width="156" height="156" viewBox="0 0 156 156" fill="none" xmlns="http://www.w3.org/2000/svg">
<g clip-path="url(#clip0)">
<path d="M26.7093 94.4278L6.91033 114.227C5.34823 115.789 5.34824 118.322 6.91033 119.884L8.32455 121.298C9.88664 122.86 12.4193 122.86 13.9814 121.298L33.7804 101.499C34.5614 100.718 34.5614 99.4515 33.7804 98.6704L29.5377 94.4278C28.7567 93.6467 27.4904 93.6467 26.7093 94.4278Z" fill="#C2DDFF"/>
<path d="M92 65.7579C92 81.7742 79.0163 94.7579 63 94.7579C46.9837 94.7579 34 81.7742 34 65.7579C34 49.7417 46.9837 36.7579 63 36.7579C79.0163 36.7579 92 49.7417 92 65.7579Z" fill="#C2DDFF"/>
<path fill-rule="evenodd" clip-rule="evenodd" d="M25.295 93.0135C26.8571 91.4514 29.3898 91.4514 30.9519 93.0135L35.1945 97.2562C36.7566 98.8183 36.7566 101.351 35.1945 102.913L15.3955 122.712C13.0524 125.055 9.25339 125.055 6.91024 122.712L5.49603 121.298C3.15288 118.955 3.15288 115.156 5.49603 112.813L25.295 93.0135ZM32.3661 100.085L28.1234 95.8419L8.32445 115.641C7.54341 116.422 7.54341 117.688 8.32445 118.469L9.73867 119.884C10.5197 120.665 11.786 120.665 12.5671 119.884L32.3661 100.085Z" fill="#1C3553"/>
<path fill-rule="evenodd" clip-rule="evenodd" d="M31.9204 86.3667C32.6953 85.5917 33.9616 85.6016 34.7487 86.3886L41.8198 93.4597C42.6068 94.2468 42.6167 95.5131 41.8417 96.288C41.0667 97.063 39.8004 97.0532 39.0134 96.2661L31.9423 89.1951C31.1552 88.408 31.1454 87.1417 31.9204 86.3667Z" fill="#1C3553"/>
<path fill-rule="evenodd" clip-rule="evenodd" d="M62.9999 38.7579C48.0882 38.7579 35.9999 50.8462 35.9999 65.7579C35.9999 80.6696 48.0882 92.7579 62.9999 92.7579C77.9116 92.7579 89.9999 80.6696 89.9999 65.7579C89.9999 50.8462 77.9116 38.7579 62.9999 38.7579ZM31.9999 65.7579C31.9999 48.637 45.8791 34.7579 62.9999 34.7579C80.1207 34.7579 93.9999 48.637 93.9999 65.7579C93.9999 82.8787 80.1207 96.7579 62.9999 96.7579C45.8791 96.7579 31.9999 82.8787 31.9999 65.7579Z" fill="#1C3553"/>
<path fill-rule="evenodd" clip-rule="evenodd" d="M45.9998 55C45.9998 52.7909 47.7906 51 49.9998 51H77.6086C78.7132 51 79.6086 51.8954 79.6086 53C79.6086 54.1046 78.7132 55 77.6086 55H70.8331V64H77.6086C78.7132 64 79.6086 64.8954 79.6086 66C79.6086 67.1046 78.7132 68 77.6086 68H70.8331V77H77.6086C78.7132 77 79.6086 77.8954 79.6086 79C79.6086 80.1046 78.7132 81 77.6086 81H49.9998C47.7906 81 45.9998 79.2091 45.9998 77V55ZM66.8331 77V68H55.5559C55.1873 68.3473 54.807 68.6594 54.4188 68.9428C55.5557 69.3875 56.5691 69.9799 57.4685 70.7303C59.4027 72.3441 60.6094 74.5254 61.4665 77H66.8331ZM57.1744 77C56.5557 75.6055 55.8213 74.5654 54.906 73.8017C53.8193 72.895 52.3009 72.2334 49.9998 71.996V77H57.1744ZM49.9998 66.8797V55H58.4848C57.7986 57.8436 56.0156 61.5753 53.2322 64.6602C52.3088 65.6836 51.2983 66.2876 49.9998 66.8797ZM62.5728 55C62.0679 57.7382 60.7501 60.9834 58.7717 64H66.8331V55H62.5728Z" fill="#1C3553"/>
<path fill-rule="evenodd" clip-rule="evenodd" d="M78.9999 104C78.9999 102.895 79.8953 102 80.9999 102H92.9999C94.1045 102 94.9999 102.895 94.9999 104V130.699C94.9999 131.804 94.1045 132.699 92.9999 132.699C91.8953 132.699 90.9999 131.804 90.9999 130.699V106H82.9999V130.699C82.9999 131.804 82.1045 132.699 80.9999 132.699C79.8953 132.699 78.9999 131.804 78.9999 130.699V104Z" fill="#1C3553"/>
<path fill-rule="evenodd" clip-rule="evenodd" d="M102 104C102 102.895 102.895 102 104 102H114C115.104 102 116 102.895 116 104V114C116 115.105 115.104 116 114 116H104C102.895 116 102 115.105 102 114V104ZM106 106V112H112V106H106Z" fill="#1C3553"/>
<path fill-rule="evenodd" clip-rule="evenodd" d="M102 81.9999C102 80.8954 102.895 79.9999 104 79.9999H114C115.104 79.9999 116 80.8954 116 81.9999V91.9999C116 93.1045 115.104 93.9999 114 93.9999H104C102.895 93.9999 102 93.1045 102 91.9999V81.9999ZM106 83.9999V89.9999H112V83.9999H106Z" fill="#1C3553"/>
<path fill-rule="evenodd" clip-rule="evenodd" d="M56.9999 104C56.9999 102.895 57.8953 102 58.9999 102H68.9999C70.1045 102 70.9999 102.895 70.9999 104V114C70.9999 115.105 70.1045 116 68.9999 116H58.9999C57.8953 116 56.9999 115.105 56.9999 114V104ZM60.9999 106V112H66.9999V106H60.9999Z" fill="#1C3553"/>
<path fill-rule="evenodd" clip-rule="evenodd" d="M87.9999 38.9999C87.9999 37.8954 88.8953 36.9999 89.9999 36.9999H109.937C110.58 36.9999 111.184 37.309 111.56 37.8306L134.622 69.8306C135.061 70.4396 135.122 71.2431 134.78 71.9113C134.438 72.5796 133.751 72.9999 133 72.9999H127V129C127 131.209 125.209 133 123 133H63.1409L63.1351 133L49.9881 132.961C47.7836 132.955 45.9999 131.166 45.9999 128.961V101C45.9999 99.8954 46.8953 98.9999 47.9999 98.9999C49.1045 98.9999 49.9999 99.8954 49.9999 101V128.961L63.1409 129L63.1468 129L123 129V72.9999H110C109.567 72.9999 109.146 72.8596 108.8 72.5999L100.8 66.5999C99.9162 65.9372 99.7372 64.6836 100.4 63.7999C101.063 62.9163 102.316 62.7372 103.2 63.3999L110.667 68.9999H129.093L108.913 40.9999H89.9999C88.8953 40.9999 87.9999 40.1045 87.9999 38.9999Z" fill="#1C3553"/>
<path fill-rule="evenodd" clip-rule="evenodd" d="M22 11C23.1045 11 24 11.8954 24 13V16H131V13C131 11.8954 131.895 11 133 11C134.105 11 135 11.8954 135 13V23C135 24.1046 134.105 25 133 25C131.895 25 131 24.1046 131 23V20H24V23C24 24.1046 23.1045 25 22 25C20.8954 25 20 24.1046 20 23V13C20 11.8954 20.8954 11 22 11Z" fill="#1C3553"/>
</g>
<defs>
<clipPath id="clip0">
<path d="M0 0H156V156H0V0Z" fill="white"/>
</clipPath>
</defs>
</svg>
