<svg width="156" height="156" viewBox="0 0 156 156" fill="none" xmlns="http://www.w3.org/2000/svg">
<path d="M99 35C99 33.8954 98.1046 33 97 33H54C52.8954 33 52 33.8954 52 35V109C52 110.105 52.8954 111 54 111H114C115.105 111 116 110.105 116 109V51C116 49.8954 115.105 49 114 49H101C99.8954 49 99 48.1046 99 47V35Z" fill="#C2DDFF"/>
<path d="M105 43V27L122 43H105Z" fill="#C2DDFF"/>
<path fill-rule="evenodd" clip-rule="evenodd" d="M43.9995 29C43.9995 26.7909 45.7904 25 47.9995 25H105C105.509 25 105.999 25.1944 106.37 25.5436L123.37 41.5436C123.772 41.9215 124 42.4485 124 43V115C124 117.209 122.209 119 120 119H47.9995C45.7904 119 43.9995 117.209 43.9995 115V29ZM103 29H47.9995V115H120V45H107C104.79 45 103 43.2091 103 41V29ZM107 31.6288L116.957 41H107V31.6288Z" fill="#1C3553"/>
<path fill-rule="evenodd" clip-rule="evenodd" d="M32 40.5472C32 38.338 33.7909 36.5472 36 36.5472H38C39.1046 36.5472 40 37.4426 40 38.5472C40 39.6517 39.1046 40.5472 38 40.5472L36 40.5472V127H112V125C112 123.895 112.895 123 114 123C115.105 123 116 123.895 116 125V127C116 129.209 114.209 131 112 131H36C33.7909 131 32 129.209 32 127V40.5472Z" fill="#1C3553"/>
<path fill-rule="evenodd" clip-rule="evenodd" d="M55.9995 42C55.9995 40.8954 56.8949 40 57.9995 40H73.9995C75.1041 40 75.9995 40.8954 75.9995 42C75.9995 43.1046 75.1041 44 73.9995 44H57.9995C56.8949 44 55.9995 43.1046 55.9995 42Z" fill="#1C3553"/>
<path fill-rule="evenodd" clip-rule="evenodd" d="M55.9995 63C55.9995 61.8954 56.8949 61 57.9995 61H110C111.104 61 112 61.8954 112 63C112 64.1046 111.104 65 110 65H57.9995C56.8949 65 55.9995 64.1046 55.9995 63Z" fill="#1C3553"/>
<path fill-rule="evenodd" clip-rule="evenodd" d="M55.9995 87C55.9995 85.8954 56.8949 85 57.9995 85H83.9995C85.1041 85 85.9995 85.8954 85.9995 87C85.9995 88.1046 85.1041 89 83.9995 89H57.9995C56.8949 89 55.9995 88.1046 55.9995 87Z" fill="#1C3553"/>
<path fill-rule="evenodd" clip-rule="evenodd" d="M55.9995 75C55.9995 73.8954 56.8949 73 57.9995 73H110C111.104 73 112 73.8954 112 75C112 76.1046 111.104 77 110 77H57.9995C56.8949 77 55.9995 76.1046 55.9995 75Z" fill="#1C3553"/>
<path fill-rule="evenodd" clip-rule="evenodd" d="M55.9995 99C55.9995 97.8954 56.8949 97 57.9995 97H110C111.104 97 112 97.8954 112 99C112 100.105 111.104 101 110 101H57.9995C56.8949 101 55.9995 100.105 55.9995 99Z" fill="#1C3553"/>
</svg>
C96.3658 128.593 96.7604 128.383 97.1067 128.211C100.018 126.757 124.063 114.411 128.043 112.244C129.75 111.314 130.758 110.311 131.221 109.422C131.636 108.624 131.674 107.82 131.211 106.894C130.966 106.405 130.72 106.164 130.511 106.03C130.301 105.894 130 105.785 129.52 105.76C128.462 105.704 126.925 106.066 124.683 106.88C122.653 107.617 117.519 109.375 112.92 110.94C110.614 111.724 108.434 112.463 106.831 113.006C106.084 113.258 105.463 113.468 105.011 113.621C104.847 113.918 104.656 114.205 104.435 114.481C103.044 116.213 100.85 117 98 117H72C70.8954 117 70 116.105 70 115C70 113.895 70.8954 113 72 113H98C100.15 113 100.956 112.425 101.315 111.977C101.458 111.799 101.581 111.58 101.682 111.312C101.684 111.306 101.687 111.299 101.689 111.293C101.89 110.748 102 110.005 102 109C102 108.072 101.595 107.39 100.904 106.878C100.164 106.331 99.0981 106 97.9999 106L98 104L97.9999 102C99.8194 102 101.754 102.531 103.284 103.663C104.864 104.833 106 106.65 106 109C106 109.021 106 109.043 106 109.064C107.548 108.54 109.538 107.865 111.631 107.153C116.249 105.582 121.335 103.84 123.317 103.12C125.575 102.3 127.788 101.662 129.731 101.765C130.75 101.819 131.762 102.078 132.676 102.667C133.593 103.257 134.284 104.095 134.789 105.106C135.826 107.18 135.774 109.336 134.769 111.268C133.812 113.109 132.07 114.605 129.957 115.756C125.913 117.959 101.818 130.329 98.8933 131.789C98.6426 131.915 98.3238 132.084 97.9456 132.286C96.3577 133.131 93.7224 134.535 90.6776 135.538C86.877 136.791 82.1175 137.547 77.3439 135.889C73.1434 134.431 64.638 131.432 57.188 128.8C53.4619 127.483 49.9979 126.258 47.4656 125.362C46.9339 125.174 46.4434 125 46 124.843V128C46 130.209 44.2092 132 42 132H32.375C29.4509 132 26.9527 129.892 26.4606 127.01L20.0285 89.3366C19.9294 88.7557 20.0914 88.1607 20.4714 87.7103ZM42 91V128H32.375C31.4003 128 30.5675 127.297 30.4035 126.337L24.3704 91H34.0285L34.0286 122.013C34.0286 123.118 34.924 124.013 36.0286 124.013C37.1331 124.013 38.0286 123.118 38.0286 122.013L38.0285 91H42Z" fill="#1C3553"/>
<path fill-rule="evenodd" clip-rule="evenodd" d="M103 88C101.343 88 100 89.3431 100 91C100 92.6569 101.343 94 103 94C104.657 94 106 92.6569 106 91C106 89.3431 104.657 88 103 88ZM96 91C96 87.134 99.134 84 103 84C106.866 84 110 87.134 110 91C110 94.866 106.866 98 103 98C99.134 98 96 94.866 96 91Z" fill="#1C3553"/>
<path fill-rule="evenodd" clip-rule="evenodd" d="M45 24C45 21.7909 46.7909 20 49 20H104C104.509 20 105 20.1944 105.371 20.5436L122.371 36.5436C122.773 36.9215 123.001 37.4485 123.001 38V97C123.001 98.1046 122.105 99 121.001 99C119.896 99 119.001 98.1046 119.001 97V40H106C103.791 40 102 38.2091 102 36V24L49 24V81C49 82.1046 48.1046 83 47 83C45.8954 83 45 82.1046 45 81V24ZM106 26.6288L115.957 36H106V26.6288Z" fill="#1C3553"/>
</svg>
