<svg width="156" height="156" viewBox="0 0 156 156" fill="none" xmlns="http://www.w3.org/2000/svg">
<g clip-path="url(#clip0)">
<path d="M26.7093 94.4278L6.91033 114.227C5.34823 115.789 5.34824 118.322 6.91033 119.884L8.32455 121.298C9.88664 122.86 12.4193 122.86 13.9814 121.298L33.7804 101.499C34.5614 100.718 34.5614 99.4515 33.7804 98.6704L29.5377 94.4278C28.7567 93.6467 27.4904 93.6467 26.7093 94.4278Z" fill="#C2DDFF"/>
<path d="M92 65.7579C92 81.7742 79.0163 94.7579 63 94.7579C46.9837 94.7579 34 81.7742 34 65.7579C34 49.7417 46.9837 36.7579 63 36.7579C79.0163 36.7579 92 49.7417 92 65.7579Z" fill="#C2DDFF"/>
<path fill-rule="evenodd" clip-rule="evenodd" d="M25.2951 93.0135C26.8572 91.4514 29.3899 91.4514 30.952 93.0135L35.1946 97.2561C36.7567 98.8182 36.7567 101.351 35.1946 102.913L15.3956 122.712C13.0525 125.055 9.25348 125.055 6.91033 122.712L5.49612 121.298C3.15297 118.955 3.15297 115.156 5.49612 112.812L25.2951 93.0135ZM32.3662 100.085L28.1235 95.8419L8.32455 115.641C7.5435 116.422 7.5435 117.688 8.32455 118.469L9.73876 119.884C10.5198 120.665 11.7861 120.665 12.5672 119.884L32.3662 100.085Z" fill="#1C3553"/>
<path fill-rule="evenodd" clip-rule="evenodd" d="M31.9204 86.3667C32.6954 85.5917 33.9617 85.6015 34.7487 86.3886L41.8198 93.4597C42.6069 94.2468 42.6167 95.513 41.8417 96.288C41.0668 97.063 39.8005 97.0532 39.0134 96.2661L31.9423 89.195C31.1552 88.4079 31.1454 87.1416 31.9204 86.3667Z" fill="#1C3553"/>
<path fill-rule="evenodd" clip-rule="evenodd" d="M63 38.7578C48.0883 38.7578 36 50.8461 36 65.7578C36 80.6695 48.0883 92.7578 63 92.7578C77.9117 92.7578 90 80.6695 90 65.7578C90 50.8461 77.9117 38.7578 63 38.7578ZM32 65.7578C32 48.637 45.8792 34.7578 63 34.7578C80.1208 34.7578 94 48.637 94 65.7578C94 82.8786 80.1208 96.7578 63 96.7578C45.8792 96.7578 32 82.8786 32 65.7578Z" fill="#1C3553"/>
<path fill-rule="evenodd" clip-rule="evenodd" d="M45.9998 55C45.9998 52.7909 47.7906 51 49.9998 51H77.6086C78.7132 51 79.6086 51.8954 79.6086 53C79.6086 54.1046 78.7132 55 77.6086 55H70.8331V64H77.6086C78.7132 64 79.6086 64.8954 79.6086 66C79.6086 67.1046 78.7132 68 77.6086 68H70.8331V77H77.6086C78.7132 77 79.6086 77.8954 79.6086 79C79.6086 80.1046 78.7132 81 77.6086 81H49.9998C47.7906 81 45.9998 79.2091 45.9998 77V55ZM66.8331 77V68H55.5559C55.1873 68.3473 54.807 68.6594 54.4188 68.9428C55.5557 69.3875 56.5691 69.9799 57.4685 70.7303C59.4027 72.3441 60.6094 74.5254 61.4665 77H66.8331ZM57.1744 77C56.5557 75.6055 55.8213 74.5654 54.906 73.8017C53.8193 72.895 52.3009 72.2334 49.9998 71.996V77H57.1744ZM49.9998 66.8797V55H58.4848C57.7986 57.8436 56.0156 61.5753 53.2322 64.6602C52.3088 65.6836 51.2983 66.2876 49.9998 66.8797ZM62.5728 55C62.0679 57.7382 60.7501 60.9834 58.7717 64H66.8331V55H62.5728Z" fill="#1C3553"/>
<path fill-rule="evenodd" clip-rule="evenodd" d="M79 104C79 102.895 79.8954 102 81 102H93C94.1046 102 95 102.895 95 104V130.699C95 131.804 94.1046 132.699 93 132.699C91.8954 132.699 91 131.804 91 130.699V106H83V130.699C83 131.804 82.1046 132.699 81 132.699C79.8954 132.699 79 131.804 79 130.699V104Z" fill="#1C3553"/>
<path fill-rule="evenodd" clip-rule="evenodd" d="M102 104C102 102.895 102.895 102 104 102H114C115.105 102 116 102.895 116 104V114C116 115.104 115.105 116 114 116H104C102.895 116 102 115.104 102 114V104ZM106 106V112H112V106H106Z" fill="#1C3553"/>
<path fill-rule="evenodd" clip-rule="evenodd" d="M102 81.9999C102 80.8953 102.895 79.9999 104 79.9999H114C115.105 79.9999 116 80.8953 116 81.9999V91.9999C116 93.1044 115.105 93.9999 114 93.9999H104C102.895 93.9999 102 93.1044 102 91.9999V81.9999ZM106 83.9999V89.9999H112V83.9999H106Z" fill="#1C3553"/>
<path fill-rule="evenodd" clip-rule="evenodd" d="M57 104C57 102.895 57.8954 102 59 102H69C70.1046 102 71 102.895 71 104V114C71 115.104 70.1046 116 69 116H59C57.8954 116 57 115.104 57 114V104ZM61 106V112H67V106H61Z" fill="#1C3553"/>
<path fill-rule="evenodd" clip-rule="evenodd" d="M88 38.9999C88 37.8953 88.8954 36.9999 90 36.9999H109.937C110.58 36.9999 111.184 37.3089 111.56 37.8305L134.623 69.8305C135.061 70.4395 135.122 71.243 134.78 71.9113C134.438 72.5795 133.751 72.9999 133 72.9999H127V129C127 131.209 125.209 133 123 133H63.141L63.1351 133L49.9882 132.961C47.7837 132.955 46 131.166 46 128.961V101C46 99.8953 46.8954 98.9999 48 98.9999C49.1046 98.9999 50 99.8953 50 101V128.961L63.141 129L63.1469 129L123 129V72.9999H110C109.567 72.9999 109.146 72.8595 108.8 72.5999L100.8 66.5999C99.9163 65.9371 99.7373 64.6835 100.4 63.7999C101.063 62.9162 102.316 62.7371 103.2 63.3999L110.667 68.9999H129.093L108.914 40.9999H90C88.8954 40.9999 88 40.1044 88 38.9999Z" fill="#1C3553"/>
<path fill-rule="evenodd" clip-rule="evenodd" d="M22 11C23.1046 11 24 11.8954 24 13V16H131V13C131 11.8954 131.895 11 133 11C134.105 11 135 11.8954 135 13V23C135 24.1046 134.105 25 133 25C131.895 25 131 24.1046 131 23V20H24V23C24 24.1046 23.1046 25 22 25C20.8954 25 20 24.1046 20 23V13C20 11.8954 20.8954 11 22 11Z" fill="#1C3553"/>
</g>
<defs>
<clipPath id="clip0">
<rect width="156" height="156" fill="white"/>
</clipPath>
</defs>
</svg>
