<svg width="156" height="156" viewBox="0 0 156 156" fill="none" xmlns="http://www.w3.org/2000/svg">
<path d="M44 69C44 67.8954 44.8954 67 46 67H106C107.105 67 108 67.8954 108 69V120C108 121.105 107.105 122 106 122H46C44.8954 122 44 121.105 44 120V69Z" fill="#C2DDFF"/>
<path fill-rule="evenodd" clip-rule="evenodd" d="M48 78C48 76.8954 48.8954 76 50 76H58C59.1046 76 60 76.8954 60 78C60 79.1046 59.1046 80 58 80H50C48.8954 80 48 79.1046 48 78Z" fill="#1C3553"/>
<path fill-rule="evenodd" clip-rule="evenodd" d="M48 94C48 92.8954 48.8954 92 50 92H58C59.1046 92 60 92.8954 60 94C60 95.1046 59.1046 96 58 96H50C48.8954 96 48 95.1046 48 94Z" fill="#1C3553"/>
<path fill-rule="evenodd" clip-rule="evenodd" d="M48 110C48 108.895 48.8954 108 50 108H58C59.1046 108 60 108.895 60 110C60 111.105 59.1046 112 58 112H50C48.8954 112 48 111.105 48 110Z" fill="#1C3553"/>
<path fill-rule="evenodd" clip-rule="evenodd" d="M56.94 28.891C61.3886 25.0347 67.6446 23 75 23C84.7421 23 91.4925 25.0455 95.8493 28.4186C100.274 31.8438 102 36.4612 102 41V46.9997C102 49.2085 100.209 51 98 51H94C91.7904 51 90 49.2083 90 46.9997V42C90 41.0615 89.6181 39.4218 87.7181 37.9602C85.7631 36.4564 82.0126 35 75 35C72.2704 35 68.8861 35.6869 66.2562 37.2179C63.6868 38.7138 62 40.8885 62 44V53C62 54.1046 61.1046 55 60 55C58.8954 55 58 54.1046 58 53V44C58 39.0834 60.8132 35.7582 64.2438 33.761C67.6139 31.7991 71.7296 31 75 31C82.4874 31 87.2369 32.5436 90.1569 34.7898C93.1319 37.0782 94 39.9385 94 42V46.9997L98 47V41C98 37.5388 96.7264 34.1562 93.4007 31.5814C90.0075 28.9545 84.2579 27 75 27C68.3554 27 63.1114 28.835 59.56 31.9135C56.0396 34.9652 54 39.3926 54 45V53C54 54.1046 53.1046 55 52 55C50.8954 55 50 54.1046 50 53V45C50 38.3467 52.4604 32.7741 56.94 28.891Z" fill="#1C3553"/>
<path fill-rule="evenodd" clip-rule="evenodd" d="M36 65C36 61.6863 38.6863 59 42 59H110C113.314 59 116 61.6863 116 65V124C116 127.314 113.314 130 110 130H42C38.6863 130 36 127.314 36 124V65ZM42 63C40.8954 63 40 63.8954 40 65V124C40 125.105 40.8954 126 42 126H110C111.105 126 112 125.105 112 124V65C112 63.8954 111.105 63 110 63H42Z" fill="#1C3553"/>
<path fill-rule="evenodd" clip-rule="evenodd" d="M106 53C106 51.8954 106.895 51 108 51H118C119.105 51 120 51.8954 120 53C120 54.1046 119.105 55 118 55H108C106.895 55 106 54.1046 106 53Z" fill="#1C3553"/>
<path fill-rule="evenodd" clip-rule="evenodd" d="M106.264 45.9924C105.715 45.0334 106.049 43.8117 107.008 43.2636L114.008 39.2636C114.967 38.7156 116.188 39.0488 116.736 40.0078C117.285 40.9669 116.951 42.1886 115.992 42.7366L108.992 46.7366C108.033 47.2846 106.812 46.9514 106.264 45.9924Z" fill="#1C3553"/>
</svg>
