<svg width="156" height="156" viewBox="0 0 156 156" fill="none" xmlns="http://www.w3.org/2000/svg">
<path d="M23 112C23 110.895 23.8954 110 25 110H132C133.105 110 134 110.895 134 112V128C134 129.105 133.105 130 132 130H25C23.8954 130 23 129.105 23 128V112Z" fill="#C2DDFF"/>
<path d="M102 26C102 24.8954 102.895 24 104 24H132C133.105 24 134 24.8954 134 26V54C134 55.1046 133.105 56 132 56H104C102.895 56 102 55.1046 102 54V26Z" fill="#C2DDFF"/>
<path fill-rule="evenodd" clip-rule="evenodd" d="M17 102C18.1046 102 19 102.895 19 104V132C19 133.105 19.8954 134 21 134H98C99.1046 134 100 134.895 100 136C100 137.105 99.1046 138 98 138H21C17.6863 138 15 135.314 15 132V104C15 102.895 15.8954 102 17 102ZM140 102C141.105 102 142 102.895 142 104V132C142 135.314 139.314 138 136 138H106C104.895 138 104 137.105 104 136C104 134.895 104.895 134 106 134H136C137.105 134 138 133.105 138 132V104C138 102.895 138.895 102 140 102Z" fill="#1C3553"/>
<path fill-rule="evenodd" clip-rule="evenodd" d="M61 104C61 102.895 61.8954 102 63 102L107 102C108.105 102 109 102.895 109 104C109 105.105 108.105 106 107 106L63 106C61.8954 106 61 105.105 61 104Z" fill="#1C3553"/>
<path fill-rule="evenodd" clip-rule="evenodd" d="M123 91C123 89.8954 123.895 89 125 89H132.5C133.605 89 134.5 89.8954 134.5 91C134.5 92.1046 133.605 93 132.5 93H125C123.895 93 123 92.1046 123 91Z" fill="#1C3553"/>
<path fill-rule="evenodd" clip-rule="evenodd" d="M64.6078 61.0388C65.6909 60.8222 66.7445 61.5247 66.9612 62.6078L70.9612 82.6078C71.1778 83.6909 70.4753 84.7445 69.3922 84.9612C68.3091 85.1778 67.2555 84.4754 67.0388 83.3922L63.0388 63.3922C62.8222 62.3091 63.5246 61.2555 64.6078 61.0388Z" fill="#1C3553"/>
<path fill-rule="evenodd" clip-rule="evenodd" d="M75 91C75 89.8954 75.8954 89 77 89H83C84.1046 89 85 89.8954 85 91C85 92.1046 84.1046 93 83 93H77C75.8954 93 75 92.1046 75 91Z" fill="#1C3553"/>
<path fill-rule="evenodd" clip-rule="evenodd" d="M25 91C25 89.8954 25.8954 89 27 89H33C34.1046 89 35 89.8954 35 91C35 92.1046 34.1046 93 33 93H27C25.8954 93 25 92.1046 25 91Z" fill="#1C3553"/>
<path fill-rule="evenodd" clip-rule="evenodd" d="M46 98C42.687 98 40 100.687 40 104C40 107.313 42.687 110 46 110C49.313 110 52 107.313 52 104C52 100.687 49.313 98 46 98ZM36 104C36 98.4778 40.4778 94 46 94C51.5222 94 56 98.4778 56 104C56 109.522 51.5222 114 46 114C40.4778 114 36 109.522 36 104Z" fill="#1C3553"/>
<path fill-rule="evenodd" clip-rule="evenodd" d="M115 98C111.687 98 109 100.687 109 104C109 107.313 111.687 110 115 110C118.313 110 121 107.313 121 104C121 100.687 118.313 98 115 98ZM105 104C105 98.4778 109.478 94 115 94C120.522 94 125 98.4778 125 104C125 109.522 120.522 114 115 114C109.478 114 105 109.522 105 104Z" fill="#1C3553"/>
<path fill-rule="evenodd" clip-rule="evenodd" d="M41 61C42.1046 61 43 61.8954 43 63V81H103.172L108.586 75.5858C109.367 74.8047 110.633 74.8047 111.414 75.5858C112.195 76.3668 112.195 77.6332 111.414 78.4142L105.414 84.4142C105.039 84.7893 104.53 85 104 85H28C26.8954 85 26 84.1046 26 83C26 81.8954 26.8954 81 28 81H39V63C39 61.8954 39.8954 61 41 61Z" fill="#1C3553"/>
<path fill-rule="evenodd" clip-rule="evenodd" d="M30.4138 61.7708C30.7927 61.2844 31.3748 61 31.9914 61H80.378C80.4726 61 80.5672 61.0067 80.6609 61.0201L80.378 63C80.6609 61.0201 80.6627 61.0204 80.6644 61.0206L80.668 61.0211L80.6755 61.0223L80.6918 61.0248L80.7298 61.031C80.7575 61.0357 80.7902 61.0416 80.8282 61.0491C80.9043 61.0639 81.0023 61.085 81.1255 61.1147C81.3713 61.174 81.721 61.2687 82.1995 61.42C83.1549 61.7222 84.6416 62.2554 86.8637 63.1962C91.2677 65.0608 98.613 68.5488 110.512 75.0709C118.552 76.3469 124.181 78.717 128.046 81.7019C131.997 84.7534 134.005 88.3716 134.875 91.8534C135.735 95.2962 135.466 98.5264 135.004 100.859C134.772 102.032 134.487 103 134.256 103.681C134.141 104.023 134.039 104.294 133.963 104.486C133.925 104.582 133.893 104.659 133.87 104.714C133.858 104.742 133.849 104.764 133.841 104.781L133.832 104.803L133.829 104.81L133.827 104.813C133.827 104.815 133.826 104.816 132 104L133.826 104.816C133.375 105.824 132.193 106.277 131.184 105.826C130.177 105.376 129.725 104.196 130.172 103.189C130.173 103.187 130.173 103.186 130.174 103.184L130.185 103.159C130.197 103.13 130.217 103.082 130.243 103.015C130.296 102.881 130.375 102.673 130.467 102.401C130.651 101.855 130.887 101.057 131.08 100.082C131.469 98.1188 131.667 95.5182 130.994 92.8231C130.33 90.167 128.803 87.3405 125.601 84.8677C122.369 82.3717 117.334 80.1633 109.554 78.9698C109.323 78.9343 109.1 78.8587 108.895 78.7462C96.8856 72.1543 89.5797 68.6898 85.3042 66.8797C83.1676 65.9751 81.8014 65.4894 80.9934 65.2339C80.5902 65.1064 80.3307 65.0377 80.1877 65.0032C80.1832 65.0021 80.1787 65.001 80.1744 65H34.5583L34.9393 66.511C35.1091 67.1845 34.9174 67.8978 34.4329 68.3953C34.4329 68.3953 34.4329 68.3953 34.4329 68.3953L34.4337 68.3945L34.4275 68.401C34.4205 68.4082 34.4082 68.4211 34.3909 68.4396C34.3561 68.4766 34.3012 68.5358 34.2291 68.6161C34.0846 68.7766 33.8716 69.0206 33.6129 69.3381C33.094 69.9748 32.399 70.8978 31.7051 72.0297C30.2964 74.328 29 77.3125 29 80.4269V102H30C31.1046 102 32 102.895 32 104C32 105.105 31.1046 106 30 106L27 106C25.8954 106 25 105.105 25 104V80.4269C25 76.2641 26.7036 72.5352 28.2949 69.9393C29.101 68.6241 29.906 67.5549 30.5121 66.8111C30.6144 66.6856 30.7113 66.5691 30.8017 66.462L30.0521 63.489C29.9014 62.8911 30.0348 62.2571 30.4138 61.7708ZM34.4337 68.3945C34.434 68.3941 34.434 68.3941 34.4337 68.3945V68.3945Z" fill="#1C3553"/>
<path fill-rule="evenodd" clip-rule="evenodd" d="M94 20C94 17.7909 95.7909 16 98 16H138C140.209 16 142 17.7909 142 20V60C142 62.2091 140.209 64 138 64H98C95.7909 64 94 62.2091 94 60V49C94 47.8954 94.8954 47 96 47C97.1046 47 98 47.8954 98 49V60H138V20H98V41C98 42.1046 97.1046 43 96 43C94.8954 43 94 42.1046 94 41V20Z" fill="#1C3553"/>
<path fill-rule="evenodd" clip-rule="evenodd" d="M115 33.0106V39.7948C116.368 39.8081 117.851 39.7705 119.199 39.4376C120.179 39.1953 120.866 38.8392 121.296 38.401C121.675 38.0142 122 37.4196 122 36.3309C122 35.2421 121.675 34.6655 121.308 34.2981C120.888 33.8774 120.21 33.5355 119.229 33.3091C117.864 32.9943 116.379 32.9826 115 33.0106ZM115 43.7992C116.509 43.8089 118.432 43.7473 120.158 43.3208C121.535 42.9806 123.009 42.3659 124.151 41.2022C125.343 39.9871 126 38.3488 126 36.3309C126 34.313 125.342 32.6762 124.138 31.4709C122.987 30.3188 121.504 29.7288 120.128 29.4115C117.977 28.9153 115.488 28.986 113.925 29.0304C113.561 29.0407 113.248 29.0496 113 29.0496C111.895 29.0496 111 29.9451 111 31.0496V50C111 51.1046 111.895 52 113 52C114.105 52 115 51.1046 115 50V43.7992Z" fill="#1C3553"/>
</svg>
