<svg width="156" height="156" viewBox="0 0 156 156" fill="none" xmlns="http://www.w3.org/2000/svg">
<path d="M45 39C45 37.8954 45.8954 37 47 37H67.7016C68.5128 37 69.242 37.485 69.5698 38.227C70.9208 41.2848 74.5704 49 77 49C79.3938 49 82.3478 41.5103 83.4828 38.365C83.7763 37.5515 84.5425 37 85.4074 37H106C107.105 37 108 37.8954 108 39V66.5C108 67.6046 107.105 68.5 106 68.5H77.053C75.9484 68.5 75.053 69.3954 75.053 70.5V75.5V107.5C75.053 108.605 74.1576 109.5 73.053 109.5H72.1434C71.1883 109.5 70.3673 110.177 70.2859 111.128C70.0748 113.596 70.1922 118 73.7173 118C77.8394 118 99.3083 118 106.004 118C107.108 118 108 118.895 108 120V123C108 124.105 107.105 125 106 125H62.5C61.3954 125 60.5 124.105 60.5 123V117.606C60.5 117.211 60.6169 116.825 60.8359 116.496L61.8166 115.025C62.2356 114.397 62.2647 113.586 61.8919 112.929L52.5748 96.5128C52.2195 95.8868 51.5553 95.5 50.8355 95.5H47C45.8954 95.5 45 94.6046 45 93.5V39Z" fill="#C2DDFF"/>
<path fill-rule="evenodd" clip-rule="evenodd" d="M42.5775 33C41.7063 33 41 33.7063 41 34.5775V88C41 89.1046 40.1046 90 39 90C37.8954 90 37 89.1046 37 88V34.5775C37 31.4971 39.4971 29 42.5775 29H58C59.1046 29 60 29.8954 60 31C60 32.1046 59.1046 33 58 33H42.5775ZM94 31C94 29.8954 94.8954 29 96 29H110.423C113.503 29 116 31.4971 116 34.5775V58.9528C116 60.0573 115.105 60.9528 114 60.9528C112.895 60.9528 112 60.0573 112 58.9528V34.5775C112 33.7063 111.294 33 110.423 33H96C94.8954 33 94 32.1046 94 31ZM114 123.84C115.105 123.84 116 124.735 116 125.84V127.423C116 130.503 113.503 133 110.423 133H67.5714C66.4669 133 65.5714 132.105 65.5714 131C65.5714 129.895 66.4669 129 67.5714 129H110.423C111.294 129 112 128.294 112 127.423V125.84C112 124.735 112.895 123.84 114 123.84Z" fill="#1C3553"/>
<path fill-rule="evenodd" clip-rule="evenodd" d="M49 57C49 55.8954 49.8954 55 51 55L102 55C103.105 55 104 55.8954 104 57C104 58.1046 103.105 59 102 59L51 59C49.8954 59 49 58.1046 49 57Z" fill="#1C3553"/>
<path fill-rule="evenodd" clip-rule="evenodd" d="M49 67C49 65.8954 49.8954 65 51 65H64C65.1046 65 66 65.8954 66 67C66 68.1046 65.1046 69 64 69H51C49.8954 69 49 68.1046 49 67Z" fill="#1C3553"/>
<path fill-rule="evenodd" clip-rule="evenodd" d="M50 47C50 45.8954 50.8954 45 52 45H61C62.1046 45 63 45.8954 63 47C63 48.1046 62.1046 49 61 49H52C50.8954 49 50 48.1046 50 47Z" fill="#1C3553"/>
<path fill-rule="evenodd" clip-rule="evenodd" d="M91 47C91 45.8954 91.8954 45 93 45L102 45C103.105 45 104 45.8954 104 47C104 48.1046 103.105 49 102 49L93 49C91.8954 49 91 48.1046 91 47Z" fill="#1C3553"/>
<path fill-rule="evenodd" clip-rule="evenodd" d="M49 77C49 75.8954 49.8954 75 51 75H64C65.1046 75 66 75.8954 66 77C66 78.1046 65.1046 79 64 79H51C49.8954 79 49 78.1046 49 77Z" fill="#1C3553"/>
<path fill-rule="evenodd" clip-rule="evenodd" d="M55.2676 87C55.2676 85.8954 56.163 85 57.2676 85L64.2676 85C65.3721 85 66.2676 85.8954 66.2676 87C66.2676 88.1046 65.3721 89 64.2676 89L57.2676 89C56.163 89 55.2676 88.1046 55.2676 87Z" fill="#1C3553"/>
<path fill-rule="evenodd" clip-rule="evenodd" d="M68 112C68 109.791 69.7909 108 72 108H140C142.209 108 144 109.791 144 112C144 116.418 140.418 120 136 120H76C71.5817 120 68 116.418 68 112ZM72 112C72 114.209 73.7909 116 76 116H136C138.209 116 140 114.209 140 112H72Z" fill="#1C3553"/>
<path fill-rule="evenodd" clip-rule="evenodd" d="M72 71C72 67.6863 74.6863 65 78 65H135C138.314 65 141 67.6863 141 71V106C141 109.314 138.314 112 135 112H78C74.6863 112 72 109.314 72 106V71ZM78 69C76.8954 69 76 69.8954 76 71V106C76 107.105 76.8954 108 78 108H135C136.105 108 137 107.105 137 106V71C137 69.8954 136.105 69 135 69H78Z" fill="#1C3553"/>
<path fill-rule="evenodd" clip-rule="evenodd" d="M80 76C80 74.3431 81.3431 73 83 73H130C131.657 73 133 74.3431 133 76V89.3884C133 90.493 132.105 91.3884 131 91.3884C129.895 91.3884 129 90.493 129 89.3884V77H84V86.8125C84 87.9171 83.1046 88.8125 82 88.8125C80.8954 88.8125 80 87.9171 80 86.8125V76ZM82 92.8281C83.1046 92.8281 84 93.7236 84 94.8281V100H129V97.3594C129 96.2548 129.895 95.3594 131 95.3594C132.105 95.3594 133 96.2548 133 97.3594V101C133 102.657 131.657 104 130 104H83C81.3431 104 80 102.657 80 101V94.8281C80 93.7236 80.8954 92.8281 82 92.8281Z" fill="#1C3553"/>
<path fill-rule="evenodd" clip-rule="evenodd" d="M124.51 81.6888C125.234 82.5229 125.145 83.7861 124.311 84.5102L113.223 94.137C112.588 94.6886 111.675 94.7836 110.94 94.3745L100.201 88.4005L91.2494 95.5617C90.3869 96.2518 89.1283 96.1119 88.4383 95.2494C87.7483 94.3869 87.8881 93.1283 88.7506 92.4383L98.7506 84.4383C99.3847 83.931 100.263 83.8575 100.972 84.2522L111.659 90.1975L121.689 81.4898C122.523 80.7656 123.786 80.8547 124.51 81.6888Z" fill="#1C3553"/>
<path fill-rule="evenodd" clip-rule="evenodd" d="M77 16.5624C71.4237 16.5624 67 20.943 67 26.229C67 27.3731 67.5782 29.2926 68.6975 31.7696C69.7785 34.1616 71.2361 36.8043 72.7175 39.2872C74.1949 41.7633 75.6754 44.046 76.7881 45.7117C76.8603 45.8199 76.931 45.9254 77 46.0281C77.069 45.9254 77.1397 45.8199 77.2119 45.7117C78.3246 44.046 79.8051 41.7633 81.2825 39.2872C82.7639 36.8043 84.2215 34.1616 85.3025 31.7696C86.4218 29.2926 87 27.3731 87 26.229C87 20.943 82.5763 16.5624 77 16.5624ZM77 49.5624C75.3696 50.7207 75.3695 50.7205 75.3693 50.7203L75.3593 50.7062L75.3318 50.6674C75.308 50.6336 75.2731 50.5841 75.228 50.5198C75.1377 50.3911 75.0062 50.2028 74.8395 49.9617C74.506 49.4796 74.0312 48.7857 73.4619 47.9336C72.3246 46.231 70.8051 43.8885 69.2825 41.3367C67.7639 38.7917 66.2215 36.0037 65.0524 33.4168C63.9218 30.9147 63 28.3067 63 26.229C63 18.6284 69.3215 12.5624 77 12.5624C84.6785 12.5624 91 18.6284 91 26.229C91 28.3067 90.0782 30.9147 88.9475 33.4168C87.7785 36.0037 86.2361 38.7917 84.7175 41.3367C83.1949 43.8885 81.6754 46.231 80.5381 47.9336C79.9688 48.7857 79.494 49.4796 79.1605 49.9617C78.9938 50.2028 78.8623 50.3911 78.772 50.5198C78.7269 50.5841 78.692 50.6336 78.6682 50.6674L78.6407 50.7062L78.6314 50.7194L78.6307 50.7203C78.6305 50.7205 78.6304 50.7207 77 49.5624ZM77 49.5624L78.6307 50.7203C78.2556 51.2483 77.6477 51.5624 77 51.5624C76.3523 51.5624 75.7444 51.2483 75.3693 50.7203L77 49.5624Z" fill="#1C3553"/>
<path fill-rule="evenodd" clip-rule="evenodd" d="M77 24.4346C75.8954 24.4346 75 25.33 75 26.4346C75 27.5392 75.8954 28.4346 77 28.4346C78.1046 28.4346 79 27.5392 79 26.4346C79 25.33 78.1046 24.4346 77 24.4346ZM71 26.4346C71 23.1209 73.6863 20.4346 77 20.4346C80.3137 20.4346 83 23.1209 83 26.4346C83 29.7483 80.3137 32.4346 77 32.4346C73.6863 32.4346 71 29.7483 71 26.4346Z" fill="#1C3553"/>
<path fill-rule="evenodd" clip-rule="evenodd" d="M25.2625 95.0095C25.6184 94.3853 26.2816 94 27 94H51C51.7184 94 52.3817 94.3853 52.7375 95.0095L64.7375 116.058C65.0904 116.677 65.0873 117.437 64.7293 118.053C64.3713 118.67 63.7126 119.049 63 119.049L61 119.049L61 140C61 140.53 60.7893 141.039 60.4142 141.414C60.0391 141.789 59.5304 142 59 142L19 142C17.8954 142 17 141.105 17 140L17 119.049H15C14.2874 119.049 13.6287 118.67 13.2707 118.053C12.9127 117.437 12.9096 116.677 13.2625 116.058L25.2625 95.0095ZM21 119.049L21 138L57 138L57 119.049H51C50.5918 119.049 50.1933 118.924 49.8581 118.691L39 111.14L28.1419 118.691C27.8067 118.924 27.4082 119.049 27 119.049H21ZM51.6271 115.049L40.1419 107.062C39.4555 106.584 38.5445 106.584 37.8581 107.062L26.3729 115.049H18.4424L28.162 98H49.838L59.5576 115.049L51.6271 115.049Z" fill="#1C3553"/>
<path fill-rule="evenodd" clip-rule="evenodd" d="M27 125C27 123.895 27.8954 123 29 123H37C38.1046 123 39 123.895 39 125V140C39 141.105 38.1046 142 37 142H29C27.8954 142 27 141.105 27 140V125ZM31 127V138H35V127H31Z" fill="#1C3553"/>
<path d="M51 126C51 127.657 49.6569 129 48 129C46.3431 129 45 127.657 45 126C45 124.343 46.3431 123 48 123C49.6569 123 51 124.343 51 126Z" fill="#1C3553"/>
</svg>
