<svg width="156" height="156" viewBox="0 0 156 156" fill="none" xmlns="http://www.w3.org/2000/svg">
<path fill-rule="evenodd" clip-rule="evenodd" d="M42.7031 58.0083C42.7031 56.9037 43.5986 56.0083 44.7031 56.0083H124.703C125.808 56.0083 126.703 56.9037 126.703 58.0083V117C126.703 118.105 125.808 119 124.703 119H44.7031C43.5986 119 42.7031 118.105 42.7031 117V58.0083ZM110.902 105.784H59.9623C58.3212 105.784 57.3786 103.916 58.3532 102.596L71 85.4637L78 94.6077L92 76.3198L112.478 102.553C113.503 103.866 112.567 105.784 110.902 105.784ZM62 77.3358C65.3137 77.3358 68 74.6065 68 71.2398C68 67.8731 65.3137 65.1438 62 65.1438C58.6863 65.1438 56 67.8731 56 71.2398C56 74.6065 58.6863 77.3358 62 77.3358Z" fill="#C2DDFF"/>
<path fill-rule="evenodd" clip-rule="evenodd" d="M35 54C35 50.6863 37.6863 48 41 48H129C132.314 48 135 50.6863 135 54V121C135 124.314 132.314 127 129 127H41C37.6863 127 35 124.314 35 121V54ZM41 52C39.8954 52 39 52.8954 39 54V121C39 122.105 39.8954 123 41 123H129C130.105 123 131 122.105 131 121V54C131 52.8954 130.105 52 129 52H41Z" fill="#1C3553"/>
<path fill-rule="evenodd" clip-rule="evenodd" d="M18.8753 49.2881C18.1864 46.0468 20.2555 42.8607 23.4968 42.1717L109.574 23.8755C112.815 23.1865 116.001 25.2556 116.69 28.4969L119.261 40.5927C119.491 41.6731 118.801 42.7351 117.721 42.9648C116.64 43.1944 115.578 42.5047 115.349 41.4243L112.778 29.3286C112.548 28.2481 111.486 27.5584 110.405 27.7881L24.3284 46.0843C23.248 46.314 22.5583 47.376 22.7879 48.4564L30.6106 85.2592C30.8403 86.3397 30.1506 87.4017 29.0701 87.6313C27.9897 87.861 26.9277 87.1713 26.698 86.0909L18.8753 49.2881Z" fill="#1C3553"/>
<path fill-rule="evenodd" clip-rule="evenodd" d="M91.9905 76C92.6044 75.9971 93.1856 76.2763 93.567 76.7572L113.995 102.514C116.074 105.136 114.207 109 110.861 109H60C56.7038 109 54.8223 105.237 56.8 102.6L69.4 85.8C69.774 85.3013 70.3591 85.0055 70.9825 85.0001C71.6058 84.9946 72.196 85.2801 72.5787 85.7721L78 92.7424L90.4213 76.7721C90.7982 76.2876 91.3767 76.0029 91.9905 76ZM92.0153 81.2379L79.5787 97.2279C79.1998 97.7151 78.6172 98 78 98C77.3828 98 76.8002 97.7151 76.4213 97.2279L71.0289 90.2948L60 105H110.861L92.0153 81.2379Z" fill="#1C3553"/>
<path fill-rule="evenodd" clip-rule="evenodd" d="M62 69C59.7909 69 58 70.7909 58 73C58 75.2091 59.7909 77 62 77C64.2091 77 66 75.2091 66 73C66 70.7909 64.2091 69 62 69ZM54 73C54 68.5817 57.5817 65 62 65C66.4183 65 70 68.5817 70 73C70 77.4183 66.4183 81 62 81C57.5817 81 54 77.4183 54 73Z" fill="#1C3553"/>
</svg>
