<svg width="156" height="156" viewBox="0 0 156 156" fill="none" xmlns="http://www.w3.org/2000/svg">
<path d="M99 35C99 33.8954 98.1046 33 97 33H54C52.8954 33 52 33.8954 52 35V109C52 110.105 52.8954 111 54 111H114C115.105 111 116 110.105 116 109V51C116 49.8954 115.105 49 114 49H101C99.8954 49 99 48.1046 99 47V35Z" fill="#C2DDFF"/>
<path d="M105 43V27L122 43H105Z" fill="#C2DDFF"/>
<path fill-rule="evenodd" clip-rule="evenodd" d="M43.9995 29C43.9995 26.7909 45.7904 25 47.9995 25H105C105.509 25 105.999 25.1944 106.37 25.5436L123.37 41.5436C123.772 41.9215 124 42.4485 124 43V115C124 117.209 122.209 119 120 119H47.9995C45.7904 119 43.9995 117.209 43.9995 115V29ZM103 29H47.9995V115H120V45H107C104.79 45 103 43.2091 103 41V29ZM107 31.6288L116.957 41H107V31.6288Z" fill="#1C3553"/>
<path fill-rule="evenodd" clip-rule="evenodd" d="M32 40.5472C32 38.338 33.7909 36.5472 36 36.5472H38C39.1046 36.5472 40 37.4426 40 38.5472C40 39.6517 39.1046 40.5472 38 40.5472L36 40.5472V127H112V125C112 123.895 112.895 123 114 123C115.105 123 116 123.895 116 125V127C116 129.209 114.209 131 112 131H36C33.7909 131 32 129.209 32 127V40.5472Z" fill="#1C3553"/>
<path fill-rule="evenodd" clip-rule="evenodd" d="M55.9995 42C55.9995 40.8954 56.8949 40 57.9995 40H73.9995C75.1041 40 75.9995 40.8954 75.9995 42C75.9995 43.1046 75.1041 44 73.9995 44H57.9995C56.8949 44 55.9995 43.1046 55.9995 42Z" fill="#1C3553"/>
<path fill-rule="evenodd" clip-rule="evenodd" d="M55.9995 63C55.9995 61.8954 56.8949 61 57.9995 61H110C111.104 61 112 61.8954 112 63C112 64.1046 111.104 65 110 65H57.9995C56.8949 65 55.9995 64.1046 55.9995 63Z" fill="#1C3553"/>
<path fill-rule="evenodd" clip-rule="evenodd" d="M55.9995 87C55.9995 85.8954 56.8949 85 57.9995 85H83.9995C85.1041 85 85.9995 85.8954 85.9995 87C85.9995 88.1046 85.1041 89 83.9995 89H57.9995C56.8949 89 55.9995 88.1046 55.9995 87Z" fill="#1C3553"/>
<path fill-rule="evenodd" clip-rule="evenodd" d="M55.9995 75C55.9995 73.8954 56.8949 73 57.9995 73H110C111.104 73 112 73.8954 112 75C112 76.1046 111.104 77 110 77H57.9995C56.8949 77 55.9995 76.1046 55.9995 75Z" fill="#1C3553"/>
<path fill-rule="evenodd" clip-rule="evenodd" d="M55.9995 99C55.9995 97.8954 56.8949 97 57.9995 97H110C111.104 97 112 97.8954 112 99C112 100.105 111.104 101 110 101H57.9995C56.8949 101 55.9995 100.105 55.9995 99Z" fill="#1C3553"/>
</svg>
