<svg width="156" height="156" viewBox="0 0 156 156" fill="none" xmlns="http://www.w3.org/2000/svg">
<g clip-path="url(#clip0)">
<path fill-rule="evenodd" clip-rule="evenodd" d="M119.513 34.3569C112.191 35.7289 91.8071 40.2366 82.7733 49.2704L47.2335 84.8102C45.6714 86.3723 45.679 88.8973 47.2411 90.4594L65.6259 108.844C67.188 110.406 69.713 110.414 71.2751 108.852L106.815 73.3121C115.728 64.3988 120.316 43.9112 121.718 36.5696C121.972 35.2437 120.84 34.1082 119.513 34.3569ZM89.6676 66.4178C93.5728 70.323 99.9045 70.323 103.81 66.4178C107.715 62.5125 107.715 56.1809 103.81 52.2756C99.9045 48.3704 93.5728 48.3704 89.6676 52.2756C85.7623 56.1809 85.7623 62.5125 89.6676 66.4178Z" fill="#C2DDFF"/>
<path fill-rule="evenodd" clip-rule="evenodd" d="M126.072 31.9164C126.215 30.7698 125.303 29.8559 124.16 29.9951C119.218 30.5965 110.975 31.8443 102.754 34.1688C94.454 36.5155 86.5166 39.8693 81.8885 44.4975L40.1575 86.2284C39.3841 87.0019 39.3805 88.2566 40.1691 89.0452L67.0392 115.915C67.8278 116.704 69.0825 116.7 69.856 115.927L111.587 74.196C116.146 69.6367 119.486 61.71 121.842 53.3906C124.174 45.1536 125.451 36.8749 126.072 31.9164ZM123.677 26.0244C127.408 25.5702 130.507 28.6876 130.041 32.4134C129.408 37.4703 128.1 45.9705 125.691 54.4804C123.304 62.908 119.744 71.6962 114.415 77.0244L72.6845 118.755C70.3338 121.106 66.5463 121.079 64.2108 118.744L37.3407 91.8736C35.0052 89.5381 34.9784 85.7507 37.3291 83.4L79.06 41.6691C84.4532 36.2759 93.2448 32.7006 101.665 30.3197C110.165 27.9166 118.633 26.6382 123.677 26.0244Z" fill="#1C3553"/>
<path fill-rule="evenodd" clip-rule="evenodd" d="M63.3582 50.5495C63.5304 51.6406 62.7856 52.6647 61.6946 52.837L42.1844 55.9175L27.5478 70.5541L41.6253 68.3314C42.7163 68.1591 43.7405 68.9039 43.9127 69.995C44.085 71.086 43.3402 72.1101 42.2491 72.2824L28.1717 74.5052C24.3452 75.1093 21.9801 70.465 24.7194 67.7257L39.356 53.0891C39.9538 52.4913 40.7256 52.0983 41.5606 51.9665L61.0707 48.8859C62.1618 48.7136 63.1859 49.4585 63.3582 50.5495Z" fill="#1C3553"/>
<path fill-rule="evenodd" clip-rule="evenodd" d="M105.535 92.7265C104.444 92.5543 103.42 93.2991 103.247 94.3901L100.167 113.9L85.5301 128.537L87.7529 114.459C87.9252 113.368 87.1804 112.344 86.0893 112.172C84.9982 112 83.9741 112.745 83.8019 113.836L81.5791 127.913C80.9749 131.74 85.6193 134.105 88.3586 131.365L102.995 116.729C103.593 116.131 103.986 115.359 104.118 114.524L107.198 95.014C107.371 93.9229 106.626 92.8988 105.535 92.7265Z" fill="#1C3553"/>
<path fill-rule="evenodd" clip-rule="evenodd" d="M84.7171 71.3675C85.4982 72.1486 85.4982 73.4149 84.7171 74.196L50.776 108.137C49.995 108.918 48.7286 108.918 47.9476 108.137C47.1665 107.356 47.1665 106.09 47.9476 105.309L81.8887 71.3675C82.6698 70.5865 83.9361 70.5865 84.7171 71.3675Z" fill="#1C3553"/>
<path fill-rule="evenodd" clip-rule="evenodd" d="M39.4623 116.622C40.2433 117.403 40.2433 118.67 39.4623 119.451L28.1485 130.765C27.3675 131.546 26.1012 131.546 25.3201 130.765C24.5391 129.983 24.5391 128.717 25.3201 127.936L36.6338 116.622C37.4149 115.841 38.6812 115.841 39.4623 116.622Z" fill="#1C3553"/>
<path fill-rule="evenodd" clip-rule="evenodd" d="M33.805 110.966C34.5861 111.747 34.5861 113.013 33.805 113.794L26.734 120.865C25.9529 121.646 24.6866 121.646 23.9055 120.865C23.1245 120.084 23.1245 118.818 23.9055 118.037L30.9766 110.966C31.7576 110.184 33.024 110.184 33.805 110.966Z" fill="#1C3553"/>
<path fill-rule="evenodd" clip-rule="evenodd" d="M45.119 122.279C45.9 123.06 45.9 124.327 45.119 125.108L38.0479 132.179C37.2669 132.96 36.0005 132.96 35.2195 132.179C34.4384 131.398 34.4384 130.131 35.2195 129.35L42.2906 122.279C43.0716 121.498 44.3379 121.498 45.119 122.279Z" fill="#1C3553"/>
<path fill-rule="evenodd" clip-rule="evenodd" d="M91.0809 65.0036C94.2051 68.1278 99.2705 68.1278 102.395 65.0036C105.519 61.8794 105.519 56.8141 102.395 53.6899C99.2705 50.5657 94.2051 50.5657 91.0809 53.6899C87.9567 56.8141 87.9567 61.8794 91.0809 65.0036ZM88.2525 67.832C92.9388 72.5183 100.537 72.5183 105.223 67.832C109.909 63.1457 109.909 55.5477 105.223 50.8614C100.537 46.1751 92.9388 46.1751 88.2525 50.8614C83.5662 55.5477 83.5662 63.1457 88.2525 67.832Z" fill="#1C3553"/>
<path fill-rule="evenodd" clip-rule="evenodd" d="M41.0639 90.0848C42.0518 90.5788 42.4523 91.7801 41.9583 92.7681L36.9461 102.792L53.2923 119.139L63.3166 114.126C64.3046 113.632 65.5059 114.033 65.9999 115.021C66.4939 116.009 66.0934 117.21 65.1055 117.704L55.0811 122.716C53.5412 123.486 51.6813 123.184 50.4638 121.967L34.1177 105.621C32.9002 104.403 32.5984 102.544 33.3684 101.004L38.3806 90.9792C38.8746 89.9913 40.0759 89.5908 41.0639 90.0848Z" fill="#1C3553"/>
</g>
<defs>
<clipPath id="clip0">
<path d="M0 0H156V156H0V0Z" fill="white"/>
</clipPath>
</defs>
</svg>
