<svg width="156" height="156" viewBox="0 0 156 156" fill="none" xmlns="http://www.w3.org/2000/svg">
<g clip-path="url(#clip0)">
<path fill-rule="evenodd" clip-rule="evenodd" d="M119.513 34.3569C112.191 35.7289 91.8071 40.2366 82.7733 49.2704L47.2335 84.8102C45.6714 86.3723 45.679 88.8973 47.2411 90.4594L65.6259 108.844C67.188 110.406 69.713 110.414 71.2751 108.852L106.815 73.3121C115.728 64.3988 120.316 43.9112 121.718 36.5696C121.972 35.2437 120.84 34.1082 119.513 34.3569ZM89.6676 66.4178C93.5728 70.323 99.9045 70.323 103.81 66.4178C107.715 62.5125 107.715 56.1809 103.81 52.2756C99.9045 48.3704 93.5728 48.3704 89.6676 52.2756C85.7623 56.1809 85.7623 62.5125 89.6676 66.4178Z" fill="#C2DDFF"/>
<path fill-rule="evenodd" clip-rule="evenodd" d="M126.072 31.9163C126.216 30.7698 125.303 29.8559 124.16 29.995C119.218 30.5965 110.975 31.8442 102.754 34.1687C94.4543 36.5154 86.5168 39.8693 81.8887 44.4974L40.1578 86.2283C39.3843 87.0018 39.3808 88.2565 40.1694 89.0451L67.0394 115.915C67.8281 116.704 69.0828 116.7 69.8563 115.927L111.587 74.1959C116.146 69.6367 119.486 61.7099 121.842 53.3905C124.175 45.1535 125.451 36.8748 126.072 31.9163ZM123.677 26.0243C127.408 25.5702 130.508 28.6875 130.041 32.4134C129.408 37.4702 128.1 45.9704 125.691 54.4803C123.304 62.9079 119.744 71.6961 114.416 77.0243L72.6847 118.755C70.334 121.106 66.5466 121.079 64.211 118.744L37.341 91.8736C35.0054 89.538 34.9787 85.7506 37.3294 83.3999L79.0603 41.669C84.4534 36.2758 93.2451 32.7005 101.666 30.3196C110.165 27.9165 118.633 26.6381 123.677 26.0243Z" fill="#1C3553"/>
<path fill-rule="evenodd" clip-rule="evenodd" d="M63.3581 50.5495C63.5304 51.6405 62.7856 52.6647 61.6945 52.8369L42.1844 55.9175L27.5478 70.5541L41.6252 68.3313C42.7163 68.1591 43.7404 68.9039 43.9127 69.9949C44.0849 71.086 43.3401 72.1101 42.2491 72.2824L28.1716 74.5051C24.3451 75.1093 21.9801 70.4649 24.7194 67.7257L39.3559 53.0891C39.9537 52.4913 40.7255 52.0983 41.5605 51.9664L61.0707 48.8859C62.1617 48.7136 63.1858 49.4584 63.3581 50.5495Z" fill="#1C3553"/>
<path fill-rule="evenodd" clip-rule="evenodd" d="M105.535 92.7265C104.444 92.5543 103.42 93.2991 103.248 94.3901L100.167 113.9L85.5305 128.537L87.7533 114.459C87.9255 113.368 87.1807 112.344 86.0897 112.172C84.9986 112 83.9745 112.745 83.8022 113.836L81.5795 127.913C80.9753 131.74 85.6197 134.105 88.3589 131.365L102.996 116.729C103.593 116.131 103.986 115.359 104.118 114.524L107.199 95.014C107.371 93.9229 106.626 92.8988 105.535 92.7265Z" fill="#1C3553"/>
<path fill-rule="evenodd" clip-rule="evenodd" d="M84.7171 71.3675C85.4982 72.1486 85.4982 73.4149 84.7171 74.196L50.776 108.137C49.995 108.918 48.7286 108.918 47.9476 108.137C47.1665 107.356 47.1665 106.09 47.9476 105.309L81.8887 71.3675C82.6698 70.5865 83.9361 70.5865 84.7171 71.3675Z" fill="#1C3553"/>
<path fill-rule="evenodd" clip-rule="evenodd" d="M39.4623 116.622C40.2433 117.403 40.2433 118.67 39.4623 119.451L28.1485 130.765C27.3675 131.546 26.1012 131.546 25.3201 130.765C24.5391 129.983 24.5391 128.717 25.3201 127.936L36.6338 116.622C37.4149 115.841 38.6812 115.841 39.4623 116.622Z" fill="#1C3553"/>
<path fill-rule="evenodd" clip-rule="evenodd" d="M33.8054 110.965C34.5864 111.746 34.5864 113.013 33.8054 113.794L26.7343 120.865C25.9533 121.646 24.6869 121.646 23.9059 120.865C23.1248 120.084 23.1248 118.818 23.9059 118.036L30.977 110.965C31.758 110.184 33.0243 110.184 33.8054 110.965Z" fill="#1C3553"/>
<path fill-rule="evenodd" clip-rule="evenodd" d="M45.1191 122.279C45.9002 123.06 45.9002 124.327 45.1191 125.108L38.048 132.179C37.267 132.96 36.0007 132.96 35.2196 132.179C34.4386 131.398 34.4386 130.131 35.2196 129.35L42.2907 122.279C43.0717 121.498 44.3381 121.498 45.1191 122.279Z" fill="#1C3553"/>
<path fill-rule="evenodd" clip-rule="evenodd" d="M91.0811 65.0036C94.2053 68.1278 99.2706 68.1278 102.395 65.0036C105.519 61.8794 105.519 56.8141 102.395 53.6899C99.2706 50.5657 94.2053 50.5657 91.0811 53.6899C87.9569 56.8141 87.9569 61.8794 91.0811 65.0036ZM88.2526 67.8321C92.9389 72.5184 100.537 72.5184 105.223 67.8321C109.909 63.1458 109.909 55.5478 105.223 50.8615C100.537 46.1752 92.9389 46.1752 88.2526 50.8615C83.5663 55.5478 83.5663 63.1458 88.2526 67.8321Z" fill="#1C3553"/>
<path fill-rule="evenodd" clip-rule="evenodd" d="M41.0638 90.0848C42.0518 90.5788 42.4522 91.7801 41.9582 92.7681L36.946 102.792L53.2922 119.139L63.3166 114.126C64.3045 113.632 65.5059 114.033 65.9999 115.021C66.4938 116.009 66.0934 117.21 65.1054 117.704L55.0811 122.716C53.5411 123.486 51.6812 123.184 50.4638 121.967L34.1176 105.621C32.9002 104.403 32.5984 102.544 33.3683 101.004L38.3805 90.9792C38.8745 89.9912 40.0758 89.5908 41.0638 90.0848Z" fill="#1C3553"/>
</g>
<defs>
<clipPath id="clip0">
<rect width="156" height="156" fill="white"/>
</clipPath>
</defs>
</svg>
