<svg width="156" height="156" viewBox="0 0 156 156" fill="none" xmlns="http://www.w3.org/2000/svg">
<g clip-path="url(#clip0)">
<path fill-rule="evenodd" clip-rule="evenodd" d="M125.293 71.2928L79.4284 25.4288C78.6417 24.6421 77.3641 24.6486 76.5855 25.4435L50.2248 52.3538C60.066 48.984 70.7028 56.1051 75.2544 60.6567L87.5977 72.9999H124.586C125.477 72.9999 125.923 71.9228 125.293 71.2928ZM66.2203 72.9999L68.2251 67.686C62.3761 59.4534 53.1459 55.7956 47.9452 54.6811L31.6656 71.3002C31.0456 71.933 31.494 72.9999 32.3799 72.9999H66.2203Z" fill="#C2DDFF"/>
<path fill-rule="evenodd" clip-rule="evenodd" d="M73.7089 16.5757C76.0506 14.1415 79.9392 14.1192 82.3088 16.5263L139.075 74.194C141.565 76.7228 139.773 81 136.225 81H121V99C121 100.105 120.104 101 119 101C117.895 101 117 100.105 117 99V80C117 78.3432 118.343 77 120 77H136.225L79.4582 19.3324C78.6683 18.53 77.3721 18.5374 76.5915 19.3488L56.1619 40.5853C54.2895 42.5317 50.9999 41.2063 50.9999 38.5055V34H38.9999V56.5858C38.9999 57.3815 38.6838 58.1445 38.1212 58.7071L19.8283 77H35.9999C37.6568 77 38.9999 78.3432 38.9999 80V102C38.9999 103.105 38.1045 104 36.9999 104C35.8953 104 34.9999 103.105 34.9999 102V81H19.8283C16.2647 81 14.48 76.6914 16.9999 74.1716L34.9999 56.1716V33C34.9999 31.3432 36.343 30 37.9999 30H51.9999C53.6568 30 54.9999 31.3432 54.9999 33V36.0236L73.7089 16.5757ZM119 105C120.104 105 121 105.895 121 107V125C121 128.314 118.314 131 115 131H48.9999C47.8953 131 46.9999 130.105 46.9999 129C46.9999 127.895 47.8953 127 48.9999 127H115C116.104 127 117 126.105 117 125V107C117 105.895 117.895 105 119 105Z" fill="#1C3553"/>
<path fill-rule="evenodd" clip-rule="evenodd" d="M63.5055 50.9109C69.1114 52.8794 73.9178 56.4921 76.6682 59.2425L94.6781 77.2524C95.231 77.8054 95.411 78.6299 95.1387 79.363L93.295 84.3267L94.5872 85.6189L99.1487 83.5542C99.9071 83.2108 100.799 83.3733 101.388 83.962L107.391 89.9653C108.172 90.7463 108.172 92.0126 107.391 92.7937L93.3323 106.852C92.5513 107.633 91.285 107.633 90.5039 106.852L84.5006 100.849C83.9396 100.288 83.7633 99.4485 84.0511 98.7092L85.6006 94.729L84.1901 93.3185L79.7797 94.641C79.075 94.8522 78.3112 94.6596 77.791 94.1394L76.027 92.3754L31.3165 137.086C29.7544 138.648 27.2218 138.648 25.6597 137.086L20.366 131.792C18.8039 130.23 18.8039 127.698 20.366 126.135L65.0765 81.4249L62.9594 79.3078C62.4038 78.7522 62.225 77.9227 62.5023 77.1876L65.9686 68C59.7779 59.9824 50.0758 56.8846 45.9656 56.365C45.142 56.2609 44.4683 55.6587 44.2727 54.8519C44.0772 54.045 44.4004 53.2013 45.085 52.7316C51.1796 48.5501 57.8654 48.9303 63.5055 50.9109ZM74.9693 85.6608C74.1883 84.8798 72.9219 84.8798 72.1409 85.6608C71.3598 86.4419 71.3598 87.7082 72.1409 88.4893L73.1986 89.547L28.4881 134.258L23.1944 128.964L69.3192 82.8391C70.1002 82.0581 70.1002 80.7917 69.3192 80.0107L66.7004 77.392L70.0959 68.392C70.3309 67.7692 70.2406 67.0703 69.8551 66.5277C64.9356 59.6035 57.8213 55.7409 52.3107 53.8396C55.5853 53.0961 58.9608 53.5545 62.1802 54.685C67.0983 56.412 71.4109 59.6421 73.8398 62.071L90.9421 79.1733L89.0984 84.137C88.8261 84.87 89.006 85.6946 89.559 86.2476L92.7372 89.4258C93.3259 90.0145 94.2178 90.1769 94.9762 89.8336L99.5376 87.7688L103.148 91.3795L91.9181 102.61L88.2522 98.9437L89.8017 94.9635C90.0895 94.2242 89.9131 93.3847 89.3521 92.8237L86.1739 89.6455C85.6537 89.1253 84.89 88.9327 84.1853 89.144L79.7749 90.4664L74.9693 85.6608Z" fill="#1C3553"/>
</g>
<defs>
<clipPath id="clip0">
<rect width="156" height="156" fill="white"/>
</clipPath>
</defs>
</svg>
