<svg width="156" height="156" viewBox="0 0 156 156" fill="none" xmlns="http://www.w3.org/2000/svg">
<path d="M44 109C44 107.895 44.8954 107 46 107H110C111.105 107 112 107.895 112 109V117C112 118.105 111.105 119 110 119H46C44.8954 119 44 118.105 44 117V109Z" fill="#C2DDFF"/>
<path d="M78 58L105 98H51L78 58Z" fill="#C2DDFF"/>
<path d="M100 48V32L117 48H100Z" fill="#C2DDFF"/>
<path fill-rule="evenodd" clip-rule="evenodd" d="M36 33C36 30.7909 37.7909 29 40 29H100C100.511 29 101.002 29.1953 101.373 29.546L119.373 46.546C119.773 46.9238 120 47.4497 120 48V123C120 125.209 118.209 127 116 127H40C37.7909 127 36 125.209 36 123V63C36 61.8954 36.8954 61 38 61C39.1046 61 40 61.8954 40 63V123H116V50H102C99.7909 50 98 48.2091 98 46V33L40 33V55C40 56.1046 39.1046 57 38 57C36.8954 57 36 56.1046 36 55V33ZM102 35.6399L112.97 46H102V35.6399Z" fill="#1C3553"/>
<path fill-rule="evenodd" clip-rule="evenodd" d="M49 113C49 111.895 49.8954 111 51 111H91C92.1046 111 93 111.895 93 113C93 114.105 92.1046 115 91 115H51C49.8954 115 49 114.105 49 113Z" fill="#1C3553"/>
<path fill-rule="evenodd" clip-rule="evenodd" d="M49.0005 42C49.0005 40.8954 49.8959 40 51.0005 40H67.0005C68.1051 40 69.0005 40.8954 69.0005 42C69.0005 43.1046 68.1051 44 67.0005 44H51.0005C49.8959 44 49.0005 43.1046 49.0005 42Z" fill="#1C3553"/>
<path fill-rule="evenodd" clip-rule="evenodd" d="M49 50C49 48.8954 49.8954 48 51 48H71C72.1046 48 73 48.8954 73 50C73 51.1046 72.1046 52 71 52H51C49.8954 52 49 51.1046 49 50Z" fill="#1C3553"/>
<path fill-rule="evenodd" clip-rule="evenodd" d="M78 56C78.6646 56 79.2859 56.3302 79.6577 56.8811L106.658 96.8811C107.072 97.4941 107.113 98.2855 106.766 98.9386C106.419 99.5918 105.74 100 105 100H51C50.2604 100 49.5811 99.5918 49.234 98.9386C48.8868 98.2855 48.9285 97.4941 49.3423 96.8811L76.3423 56.8811C76.7142 56.3302 77.3354 56 78 56ZM54.763 96H101.237L78 61.5748L54.763 96Z" fill="#1C3553"/>
<path d="M80 90C80 91.1046 79.1046 92 78 92C76.8954 92 76 91.1046 76 90C76 88.8954 76.8954 88 78 88C79.1046 88 80 88.8954 80 90Z" fill="#1C3553"/>
<path fill-rule="evenodd" clip-rule="evenodd" d="M78 69C79.1046 69 80 69.8954 80 71V83C80 84.1046 79.1046 85 78 85C76.8954 85 76 84.1046 76 83V71C76 69.8954 76.8954 69 78 69Z" fill="#1C3553"/>
</svg>
