<svg width="156" height="156" viewBox="0 0 156 156" fill="none" xmlns="http://www.w3.org/2000/svg">
<path d="M18 78V135C18 136.105 18.8954 137 20 137H24C25.1046 137 26 136.105 26 135V86H69L75 82L69 78H18Z" fill="#C2DDFF"/>
<path d="M40 101C40 100.448 40.4477 100 41 100H61C61.5523 100 62 100.448 62 101V105C62 105.552 61.5523 106 61 106H41C40.4477 106 40 105.552 40 105V101Z" fill="#C2DDFF"/>
<path fill-rule="evenodd" clip-rule="evenodd" d="M64.8881 31.8162C65.2649 31.3031 65.8635 31 66.5001 31H113.5C114.137 31 114.735 31.3031 115.112 31.8162L138.612 63.8162C139.058 64.4238 139.125 65.2308 138.784 65.9034C138.444 66.576 137.754 67 137 67H131V129C131 131.209 129.209 133 127 133H54C51.7909 133 50 131.209 50 129V120C50 118.895 50.8954 118 52 118C53.1046 118 54 118.895 54 120V129H127V67H113C112.68 67 112.365 66.9233 112.081 66.7764L90.0001 55.3543L67.9189 66.7764C67.6349 66.9233 67.3198 67 67 67H53V70C53 71.1046 52.1046 72 51 72C49.8954 72 49 71.1046 49 70V67H43C42.2461 67 41.5562 66.576 41.2157 65.9034C40.8751 65.2308 40.9418 64.4238 41.388 63.8162L64.8881 31.8162ZM133.05 63L112.487 35H67.5127L46.9501 63H66.5134L89.0812 51.3262C89.6575 51.028 90.3427 51.028 90.919 51.3262L113.487 63H133.05Z" fill="#1C3553"/>
<path fill-rule="evenodd" clip-rule="evenodd" d="M82 104C82 102.895 82.8954 102 84 102H96C97.1046 102 98 102.895 98 104V131C98 132.105 97.1046 133 96 133C94.8954 133 94 132.105 94 131V106H86V131C86 132.105 85.1046 133 84 133C82.8954 133 82 132.105 82 131V104Z" fill="#1C3553"/>
<path fill-rule="evenodd" clip-rule="evenodd" d="M106 104C106 102.895 106.895 102 108 102H118C119.105 102 120 102.895 120 104V114C120 115.105 119.105 116 118 116H108C106.895 116 106 115.105 106 114V104ZM110 106V112H116V106H110Z" fill="#1C3553"/>
<path fill-rule="evenodd" clip-rule="evenodd" d="M106 78C106 76.8954 106.895 76 108 76H118C119.105 76 120 76.8954 120 78V88C120 89.1046 119.105 90 118 90H108C106.895 90 106 89.1046 106 88V78ZM110 80V86H116V80H110Z" fill="#1C3553"/>
<path fill-rule="evenodd" clip-rule="evenodd" d="M86 75.8252V86H94V75.8252C93.9365 75.6424 93.8411 75.3784 93.716 75.0602C93.4599 74.409 93.0894 73.5579 92.6246 72.7219C92.1509 71.8699 91.629 71.1246 91.0982 70.6162C90.5596 70.1004 90.1979 70 90 70C89.8021 70 89.4404 70.1004 88.9018 70.6162C88.371 71.1246 87.8491 71.8699 87.3754 72.7219C86.9106 73.5579 86.5401 74.409 86.284 75.0602C86.1589 75.3784 86.0635 75.6424 86 75.8252ZM96 75.5L97.9092 74.9043C97.9694 75.0972 98 75.298 98 75.5V88C98 89.1046 97.1046 90 96 90H84C82.8954 90 82 89.1046 82 88V75.5C82 75.298 82.0306 75.0972 82.0908 74.9043L84 75.5C82.0908 74.9043 82.0906 74.9048 82.0908 74.9043L82.0922 74.8996L82.0946 74.8922L82.1019 74.8692C82.1079 74.8503 82.1163 74.8244 82.1269 74.792C82.1482 74.7272 82.1787 74.6361 82.2181 74.5223C82.2969 74.2952 82.412 73.9764 82.5616 73.5961C82.8586 72.841 83.3018 71.8171 83.8795 70.7781C84.4483 69.7551 85.1976 68.6254 86.1349 67.7275C87.0645 66.8371 88.3679 66 90 66C91.6321 66 92.9355 66.8371 93.8651 67.7275C94.8024 68.6254 95.5517 69.7551 96.1205 70.7781C96.6982 71.8171 97.1414 72.841 97.4384 73.5961C97.588 73.9764 97.7031 74.2952 97.7819 74.5223C97.8213 74.6361 97.8518 74.7272 97.8731 74.792C97.8837 74.8244 97.8921 74.8503 97.8981 74.8692L97.9054 74.8922L97.9078 74.8996L97.9092 74.9043C97.9094 74.9048 97.9092 74.9043 96 75.5Z" fill="#1C3553"/>
<path fill-rule="evenodd" clip-rule="evenodd" d="M40 84C41.1046 84 42 84.8954 42 86V92H60V86C60 84.8954 60.8954 84 62 84C63.1046 84 64 84.8954 64 86V92H68C69.1046 92 70 92.8954 70 94V112C70 113.105 69.1046 114 68 114H34C32.8954 114 32 113.105 32 112V94C32 92.8954 32.8954 92 34 92H38V86C38 84.8954 38.8954 84 40 84ZM36 96V110H66V96H36Z" fill="#1C3553"/>
<path fill-rule="evenodd" clip-rule="evenodd" d="M16 78C16 76.8954 16.8954 76 18 76H69C69.3949 76 69.7809 76.1169 70.1094 76.3359L76.1094 80.3359C76.6658 80.7068 77 81.3313 77 82C77 82.6687 76.6658 83.2932 76.1094 83.6641L70.1094 87.6641C69.7809 87.8831 69.3949 88 69 88H28V135C28 137.209 26.2091 139 24 139H20C17.7909 139 16 137.209 16 135V78ZM20 80V135H24V86C24 84.8954 24.8954 84 26 84H68.3944L71.3944 82L68.3944 80H20Z" fill="#1C3553"/>
</svg>
