<svg width="156" height="156" viewBox="0 0 156 156" fill="none" xmlns="http://www.w3.org/2000/svg">
<path d="M57 54C57 58.9706 52.9706 63 48 63C43.0294 63 39 58.9706 39 54C39 49.0294 43.0294 45 48 45C52.9706 45 57 49.0294 57 54Z" fill="#C2DDFF"/>
<path d="M37 79C37 77.8954 37.8954 77 39 77H56C57.1046 77 58 77.8954 58 79V102C58 103.105 57.1046 104 56 104H39C37.8954 104 37 103.105 37 102V79Z" fill="#C2DDFF"/>
<path d="M117 54C117 58.9706 112.971 63 108 63C103.029 63 99 58.9706 99 54C99 49.0294 103.029 45 108 45C112.971 45 117 49.0294 117 54Z" fill="#C2DDFF"/>
<path d="M97 79C97 77.8954 97.8954 77 99 77H116C117.105 77 118 77.8954 118 79V102C118 103.105 117.105 104 116 104H99C97.8954 104 97 103.105 97 102V79Z" fill="#C2DDFF"/>
<path fill-rule="evenodd" clip-rule="evenodd" d="M96 11C97.1046 11 98 11.8954 98 13V38C98 39.1046 97.1046 40 96 40H78.7675C78.2734 40 77.7968 40.1829 77.4295 40.5134L68 49V42C68 40.8954 67.1046 40 66 40H60C58.8954 40 58 39.1046 58 38V13C58 11.8954 58.8954 11 60 11H96ZM72 32V23.7273L78 19L84 23.7273V32H72Z" fill="#C2DDFF"/>
<path fill-rule="evenodd" clip-rule="evenodd" d="M48 47C44.134 47 41 50.134 41 54C41 57.866 44.134 61 48 61C51.866 61 55 57.866 55 54C55 50.134 51.866 47 48 47ZM37 54C37 47.9249 41.9249 43 48 43C54.0751 43 59 47.9249 59 54C59 60.0751 54.0751 65 48 65C41.9249 65 37 60.0751 37 54Z" fill="#1C3553"/>
<path fill-rule="evenodd" clip-rule="evenodd" d="M29 75C29 71.6863 31.6863 69 35 69H61C64.3137 69 67 71.6863 67 75V106C67 108.973 64.8377 111.441 62 111.917V142C62 144.209 60.2091 146 58 146H54C51.7909 146 50 144.209 50 142V112H46V142C46 144.209 44.2091 146 42 146H38C35.7909 146 34 144.209 34 142V111.917C31.1623 111.441 29 108.973 29 106V98C29 96.8954 29.8954 96 31 96C32.1046 96 33 96.8954 33 98V106C33 107.105 33.8954 108 35 108H36C37.1046 108 38 108.895 38 110V142H42V110C42 108.895 42.8954 108 44 108H52C53.1046 108 54 108.895 54 110V142H58V110C58 108.895 58.8954 108 60 108H61C62.1046 108 63 107.105 63 106V75C63 73.8954 62.1046 73 61 73H35C33.8954 73 33 73.8954 33 75V90C33 91.1046 32.1046 92 31 92C29.8954 92 29 91.1046 29 90V75Z" fill="#1C3553"/>
<path fill-rule="evenodd" clip-rule="evenodd" d="M108 47C104.134 47 101 50.134 101 54C101 57.866 104.134 61 108 61C111.866 61 115 57.866 115 54C115 50.134 111.866 47 108 47ZM97 54C97 47.9249 101.925 43 108 43C114.075 43 119 47.9249 119 54C119 60.0751 114.075 65 108 65C101.925 65 97 60.0751 97 54Z" fill="#1C3553"/>
<path fill-rule="evenodd" clip-rule="evenodd" d="M95 73C93.8954 73 93 73.8954 93 75V106C93 107.105 93.8954 108 95 108H96C97.1046 108 98 108.895 98 110V142H102V110C102 108.895 102.895 108 104 108H112C113.105 108 114 108.895 114 110V142H118V110C118 108.895 118.895 108 120 108H121C122.105 108 123 107.105 123 106V98C123 96.8954 123.895 96 125 96C126.105 96 127 96.8954 127 98V106C127 108.973 124.838 111.441 122 111.917V142C122 144.209 120.209 146 118 146H114C111.791 146 110 144.209 110 142V112H106V142C106 144.209 104.209 146 102 146H98C95.7909 146 94 144.209 94 142V111.917C91.1623 111.441 89 108.973 89 106V75C89 71.6863 91.6863 69 95 69H121C124.314 69 127 71.6863 127 75V90C127 91.1046 126.105 92 125 92C123.895 92 123 91.1046 123 90V75C123 73.8954 122.105 73 121 73H95Z" fill="#1C3553"/>
<path fill-rule="evenodd" clip-rule="evenodd" d="M100 13C100 10.7909 98.2091 9 96 9H60C57.7909 9 56 10.7909 56 13V38C56 40.2091 57.7909 42 60 42H66V49C66 49.7898 66.4648 50.5057 67.1863 50.827C67.9078 51.1483 68.7509 51.0149 69.3379 50.4866L78.7675 42H96C98.2091 42 100 40.2091 100 38V13ZM60 13L96 13V38H78.7675C77.7793 38 76.8261 38.3658 76.0916 39.0268L70 44.5093V42C70 39.7909 68.2091 38 66 38H60V13Z" fill="#1C3553"/>
<path fill-rule="evenodd" clip-rule="evenodd" d="M76.7623 17.429C77.4883 16.857 78.5117 16.857 79.2377 17.429L85.2377 22.1563C85.7191 22.5355 86 23.1145 86 23.7273V32C86 33.1046 85.1046 34 84 34H72C70.8954 34 70 33.1046 70 32V23.7273C70 23.1145 70.2809 22.5355 70.7623 22.1563L76.7623 17.429ZM74 24.6977V30H82V24.6977L78 21.5462L74 24.6977Z" fill="#1C3553"/>
</svg>
