<svg width="156" height="156" viewBox="0 0 156 156" fill="none" xmlns="http://www.w3.org/2000/svg">
<path d="M79.9187 84.4282L127.55 56.9282L133.55 67.3205L85.9187 94.8205L65.0001 100.124L79.9187 84.4282Z" fill="#C2DDFF"/>
<path d="M56 48V32L38 48H56Z" fill="#C2DDFF"/>
<path fill-rule="evenodd" clip-rule="evenodd" d="M120 33C120 30.7909 118.209 29 116 29H56C55.4893 29 54.998 29.1953 54.6268 29.546L36.6268 46.546C36.2267 46.9238 36 47.4497 36 48V123C36 125.209 37.7909 127 40 127H116C118.209 127 120 125.209 120 123V86C120 84.8954 119.105 84 118 84C116.895 84 116 84.8954 116 86V123H40V50H54C56.2091 50 58 48.2091 58 46V33H116V45C116 46.1046 116.895 47 118 47C119.105 47 120 46.1046 120 45V33ZM54 35.6399L43.0304 46H54V35.6399Z" fill="#1C3553"/>
<path fill-rule="evenodd" clip-rule="evenodd" d="M109 113C109 114.105 108.105 115 107 115L49 115C47.8954 115 47 114.105 47 113C47 111.895 47.8954 111 49 111L107 111C108.105 111 109 111.895 109 113Z" fill="#1C3553"/>
<path fill-rule="evenodd" clip-rule="evenodd" d="M97 59C97 60.1046 96.1046 61 95 61L49 61C47.8954 61 47 60.1046 47 59C47 57.8954 47.8954 57 49 57L95 57C96.1046 57 97 57.8954 97 59Z" fill="#1C3553"/>
<path fill-rule="evenodd" clip-rule="evenodd" d="M109 43C109 44.1046 108.105 45 107 45L95 45C93.8954 45 93 44.1046 93 43C93 41.8954 93.8954 41 95 41L107 41C108.105 41 109 41.8954 109 43Z" fill="#1C3553"/>
<path fill-rule="evenodd" clip-rule="evenodd" d="M85 71C85 72.1046 84.1046 73 83 73H49C47.8954 73 47 72.1046 47 71C47 69.8954 47.8954 69 49 69H83C84.1046 69 85 69.8954 85 71Z" fill="#1C3553"/>
<path fill-rule="evenodd" clip-rule="evenodd" d="M67 82C67 83.1046 66.1046 84 65 84H49C47.8954 84 47 83.1046 47 82C47 80.8954 47.8954 80 49 80H65C66.1046 80 67 80.8954 67 82Z" fill="#1C3553"/>
<path fill-rule="evenodd" clip-rule="evenodd" d="M78.514 83.0047C78.6352 82.885 78.7713 82.7813 78.9188 82.6961L126.55 55.1961C127.507 54.6439 128.73 54.9716 129.282 55.9282L135.282 66.3205C135.835 67.2771 135.507 68.5003 134.55 69.0526L86.9188 96.5525C86.7713 96.6377 86.6135 96.7037 86.4492 96.7489L67.2267 102.036C64.247 102.856 62.1242 99.179 64.3238 97.0082L78.514 83.0047ZM81.141 86.032L69.8619 97.1627L85.141 92.9602L130.818 66.5884L126.818 59.6602L81.141 86.032Z" fill="#1C3553"/>
<path fill-rule="evenodd" clip-rule="evenodd" d="M126.818 59.6603C126.266 58.7037 126.594 57.4805 127.55 56.9282L131.015 54.9282C133.884 53.2714 137.554 54.2546 139.211 57.1244C140.868 59.9941 139.884 63.6637 137.015 65.3205L133.55 67.3205C132.594 67.8728 131.371 67.5451 130.818 66.5885L126.818 59.6603ZM131.282 59.3923L133.282 62.8564L135.015 61.8564C135.971 61.3041 136.299 60.081 135.747 59.1244C135.194 58.1678 133.971 57.84 133.015 58.3923L131.282 59.3923Z" fill="#1C3553"/>
<path fill-rule="evenodd" clip-rule="evenodd" d="M103.301 70.9282C100.54 66.1453 102.179 60.0294 106.962 57.2679L120.818 49.2679C122.731 48.1634 125.177 48.8189 126.282 50.732L129.282 55.9282C129.834 56.8848 129.507 58.108 128.55 58.6602C127.593 59.2125 126.37 58.8848 125.818 57.9282L122.818 52.732L108.962 60.732C106.092 62.3889 105.109 66.0584 106.765 68.9282L103.301 70.9282Z" fill="#1C3553"/>
<path fill-rule="evenodd" clip-rule="evenodd" d="M78.9186 82.6962C79.8752 82.1439 81.0983 82.4716 81.6506 83.4282L87.6506 93.8205C88.2029 94.7771 87.8752 96.0003 86.9186 96.5526C85.962 97.1049 84.7388 96.7771 84.1865 95.8205L78.1865 85.4282C77.6342 84.4716 77.962 83.2485 78.9186 82.6962Z" fill="#1C3553"/>
</svg>
