<svg width="156" height="156" viewBox="0 0 156 156" fill="none" xmlns="http://www.w3.org/2000/svg">
<path d="M84 82.0002C84 85.314 81.3137 88.0002 78 88.0002C74.6863 88.0002 72 85.314 72 82.0002C72 78.6865 74.6863 76.0002 78 76.0002C81.3137 76.0002 84 78.6865 84 82.0002Z" fill="#C2DDFF"/>
<path fill-rule="evenodd" clip-rule="evenodd" d="M78 44C57.0132 44 40 61.0132 40 82C40 102.987 57.0132 120 78 120C98.9868 120 116 102.987 116 82C116 61.0132 98.9868 44 78 44ZM36 82C36 58.804 54.804 40 78 40C101.196 40 120 58.804 120 82C120 105.196 101.196 124 78 124C54.804 124 36 105.196 36 82Z" fill="#1C3553"/>
<path fill-rule="evenodd" clip-rule="evenodd" d="M78 78C76.8954 78 76 77.1046 76 76V60C76 58.8954 76.8954 58 78 58C79.1046 58 80 58.8954 80 60V76C80 77.1046 79.1046 78 78 78Z" fill="#1C3553"/>
<path d="M38 42C38 43.1046 37.1046 44 36 44C34.8954 44 34 43.1046 34 42C34 40.8954 34.8954 40 36 40C37.1046 40 38 40.8954 38 42Z" fill="#1C3553"/>
<path fill-rule="evenodd" clip-rule="evenodd" d="M36 20C37.1046 20 38 20.8954 38 22V34C38 35.1046 37.1046 36 36 36C34.8954 36 34 35.1046 34 34V22C34 20.8954 34.8954 20 36 20Z" fill="#1C3553"/>
<path d="M84 82.0002C84 85.314 81.3137 88.0002 78 88.0002C74.6863 88.0002 72 85.314 72 82.0002C72 78.6865 74.6863 76.0002 78 76.0002C81.3137 76.0002 84 78.6865 84 82.0002Z" fill="#C2DDFF"/>
<path fill-rule="evenodd" clip-rule="evenodd" d="M78 78.0002C75.7909 78.0002 74 79.7911 74 82.0002C74 84.2094 75.7909 86.0002 78 86.0002C80.2091 86.0002 82 84.2094 82 82.0002C82 79.7911 80.2091 78.0002 78 78.0002ZM70 82.0002C70 77.582 73.5817 74.0002 78 74.0002C82.4183 74.0002 86 77.582 86 82.0002C86 86.4185 82.4183 90.0002 78 90.0002C73.5817 90.0002 70 86.4185 70 82.0002Z" fill="#1C3553"/>
<path fill-rule="evenodd" clip-rule="evenodd" d="M66 23C66 21.8954 66.8954 21 68 21H88C89.1046 21 90 21.8954 90 23V25.4C90 28.7137 87.3137 31.4 84 31.4V27.4C85.1046 27.4 86 26.5046 86 25.4V25H70V25.4C70 26.5046 70.8954 27.4 72 27.4V31.4C68.6863 31.4 66 28.7137 66 25.4V23Z" fill="#1C3553"/>
<path fill-rule="evenodd" clip-rule="evenodd" d="M72 27.4C73.1046 27.4 74 28.2955 74 29.4V33.4C74 34.5046 73.1046 35.4 72 35.4C70.8954 35.4 70 34.5046 70 33.4V29.4C70 28.2955 70.8954 27.4 72 27.4Z" fill="#1C3553"/>
<path fill-rule="evenodd" clip-rule="evenodd" d="M84 27.4C85.1046 27.4 86 28.2955 86 29.4V33.4C86 34.5046 85.1046 35.4 84 35.4C82.8954 35.4 82 34.5046 82 33.4V29.4C82 28.2955 82.8954 27.4 84 27.4Z" fill="#1C3553"/>
<path fill-rule="evenodd" clip-rule="evenodd" d="M33.5676 70.0941C31.0535 79.4768 31.6289 88.9536 34.6688 97.4529C35.0408 98.4929 34.4993 99.6376 33.4592 100.01C32.4192 100.382 31.2745 99.84 30.9025 98.8C27.5975 89.5596 26.9727 79.252 29.7039 69.0589C36.851 42.3856 64.2678 26.5564 90.9411 33.7035C117.614 40.8506 133.444 68.2675 126.296 94.9408C119.149 121.614 91.7325 137.443 65.0592 130.296C52.6909 126.982 42.6509 119.306 36.1565 109.37C35.5522 108.446 35.8118 107.206 36.7363 106.602C37.6609 105.998 38.9003 106.257 39.5047 107.182C45.4814 116.326 54.7133 123.383 66.0945 126.432C90.6339 133.008 115.857 118.445 122.433 93.9055C129.008 69.3661 114.445 44.1426 89.9059 37.5672C65.3664 30.9919 40.1429 45.5547 33.5676 70.0941Z" fill="#1C3553"/>
<path fill-rule="evenodd" clip-rule="evenodd" d="M110.414 39.4142C112.757 37.0711 116.556 37.0711 118.899 39.4142C121.242 41.7574 121.242 45.5563 118.899 47.8995L116.07 50.7279C115.289 51.509 114.023 51.509 113.242 50.7279C112.461 49.9469 112.461 48.6805 113.242 47.8995L116.07 45.0711C116.852 44.29 116.852 43.0237 116.07 42.2426C115.289 41.4616 114.023 41.4616 113.242 42.2426L110.414 45.0711C109.633 45.8521 108.366 45.8521 107.585 45.0711C106.804 44.29 106.804 43.0237 107.585 42.2426L110.414 39.4142Z" fill="#1C3553"/>
</svg>
