<svg width="156" height="156" viewBox="0 0 156 156" fill="none" xmlns="http://www.w3.org/2000/svg">
<path fill-rule="evenodd" clip-rule="evenodd" d="M129 75C130.105 75 131 75.8954 131 77V109C131 110.105 130.105 111 129 111H71C69.8954 111 69 110.105 69 109V77C69 75.8954 69.8954 75 71 75H129ZM90 105V89.8696L100 81L110 89.8696V105H90Z" fill="#C2DDFF"/>
<path fill-rule="evenodd" clip-rule="evenodd" d="M96 31C96 27.6863 93.3137 25 90 25H24C20.6863 25 18 27.6863 18 31V71C18 74.3137 20.6863 77 24 77H35.2667V87C35.2667 87.7989 35.7421 88.5211 36.4759 88.837C37.2097 89.1529 38.061 89.0018 38.6413 88.4527L50.7445 77H55C56.1046 77 57 76.1046 57 75C57 73.8954 56.1046 73 55 73H50.7445C49.7219 73 48.738 73.3917 47.9952 74.0946L39.2667 82.354V77C39.2667 74.7909 37.4758 73 35.2667 73H24C22.8954 73 22 72.1046 22 71V31C22 29.8954 22.8954 29 24 29H90C91.1046 29 92 29.8954 92 31V61C92 62.1046 92.8954 63 94 63C95.1046 63 96 62.1046 96 61V31Z" fill="#1C3553"/>
<path d="M47 44.8696V60H67V44.8696L57 36L47 44.8696Z" fill="#C2DDFF"/>
<path fill-rule="evenodd" clip-rule="evenodd" d="M55.6729 34.5037C56.4302 33.8321 57.5698 33.8321 58.3271 34.5037L68.3271 43.3733C68.7551 43.7529 69 44.2975 69 44.8696V60C69 61.1046 68.1046 62 67 62H47C45.8954 62 45 61.1046 45 60V44.8696C45 44.2975 45.2449 43.7529 45.6729 43.3733L55.6729 34.5037ZM49 45.769V58H65V45.769L57 38.6733L49 45.769Z" fill="#1C3553"/>
<path fill-rule="evenodd" clip-rule="evenodd" d="M61 73C61 69.6863 63.6863 67 67 67H133C136.314 67 139 69.6863 139 73V113C139 116.314 136.314 119 133 119H121.733V129C121.733 129.799 121.258 130.521 120.524 130.837C119.79 131.153 118.939 131.002 118.359 130.453L106.255 119H67C63.6863 119 61 116.314 61 113V73ZM67 71C65.8954 71 65 71.8954 65 73V113C65 114.105 65.8954 115 67 115H106.255C107.278 115 108.262 115.392 109.005 116.095L117.733 124.354V119C117.733 116.791 119.524 115 121.733 115H133C134.105 115 135 114.105 135 113V73C135 71.8954 134.105 71 133 71H67Z" fill="#1C3553"/>
<path fill-rule="evenodd" clip-rule="evenodd" d="M98.6729 79.5037C99.4302 78.8321 100.57 78.8321 101.327 79.5037L111.327 88.3733C111.755 88.7529 112 89.2975 112 89.8696V105C112 106.105 111.105 107 110 107H90C88.8954 107 88 106.105 88 105V89.8696C88 89.2975 88.2449 88.7529 88.6729 88.3733L98.6729 79.5037ZM92 90.769V103H108V90.769L100 83.6733L92 90.769Z" fill="#1C3553"/>
</svg>
