<svg width="156" height="156" viewBox="0 0 156 156" fill="none" xmlns="http://www.w3.org/2000/svg">
<path fill-rule="evenodd" clip-rule="evenodd" d="M111 82.0002C111 100.226 96.2253 115 77.9999 115C60.4462 115 46.0936 101.294 45.0596 84.0005C44.9936 82.8979 45.8954 82.0002 46.9999 82.0002H71.9999C72 85.3138 74.6862 88.0001 77.9999 88.0001C81.3136 88.0001 83.9999 85.3138 83.9999 82.0001C83.9999 78.6864 81.3136 76.0001 77.9999 76.0001V51.0002C77.9999 49.8956 78.8976 48.9939 80.0002 49.0598C97.2942 50.0938 111 64.4464 111 82.0002Z" fill="#C2DDFF"/>
<path d="M38 82C38 104.091 55.9086 122 78 122C100.091 122 118 104.091 118 82C118 59.9086 100.091 42 78 42" stroke="#1C3553" stroke-width="4" stroke-linecap="round" stroke-linejoin="round"/>
<circle cx="78" cy="82.0002" r="6" stroke="#1C3553" stroke-width="4" stroke-linecap="round" stroke-linejoin="round"/>
<path d="M72 82.0002H56" stroke="#1C3553" stroke-width="4" stroke-linecap="round" stroke-linejoin="round"/>
<path fill-rule="evenodd" clip-rule="evenodd" d="M66 23C66 21.8954 66.8954 21 68 21H88C89.1046 21 90 21.8954 90 23V25.4C90 28.7137 87.3137 31.4 84 31.4V27.4C85.1046 27.4 86 26.5046 86 25.4V25H70V25.4C70 26.5046 70.8954 27.4 72 27.4V31.4C68.6863 31.4 66 28.7137 66 25.4V23Z" fill="#1C3553"/>
<path fill-rule="evenodd" clip-rule="evenodd" d="M72 27.4C73.1046 27.4 74 28.2955 74 29.4V33.4C74 34.5046 73.1046 35.4 72 35.4C70.8954 35.4 70 34.5046 70 33.4V29.4C70 28.2955 70.8954 27.4 72 27.4Z" fill="#1C3553"/>
<path fill-rule="evenodd" clip-rule="evenodd" d="M84 27.4C85.1046 27.4 86 28.2955 86 29.4V33.4C86 34.5046 85.1046 35.4 84 35.4C82.8954 35.4 82 34.5046 82 33.4V29.4C82 28.2955 82.8954 27.4 84 27.4Z" fill="#1C3553"/>
<path fill-rule="evenodd" clip-rule="evenodd" d="M33.5674 70.0941C31.0533 79.4768 31.6287 88.9536 34.6686 97.4529C35.0406 98.4929 34.499 99.6376 33.459 100.01C32.4189 100.382 31.2742 99.84 30.9023 98.8C27.5973 89.5596 26.9724 79.252 29.7036 69.0589C36.8507 42.3856 64.2676 26.5564 90.9409 33.7035C117.614 40.8506 133.443 68.2675 126.296 94.9408C119.149 121.614 91.7323 137.443 65.059 130.296C52.6907 126.982 42.6507 119.306 36.1563 109.37C35.5519 108.446 35.8115 107.206 36.7361 106.602C37.6607 105.998 38.9001 106.257 39.5045 107.182C45.4812 116.326 54.713 123.383 66.0943 126.432C90.6337 133.008 115.857 118.445 122.433 93.9055C129.008 69.3661 114.445 44.1426 89.9056 37.5672C65.3662 30.9919 40.1427 45.5547 33.5674 70.0941Z" fill="#1C3553"/>
<path fill-rule="evenodd" clip-rule="evenodd" d="M110.414 39.4142C112.757 37.0711 116.556 37.0711 118.899 39.4142C121.242 41.7574 121.242 45.5563 118.899 47.8995L116.07 50.7279C115.289 51.509 114.023 51.509 113.242 50.7279C112.461 49.9469 112.461 48.6805 113.242 47.8995L116.07 45.0711C116.852 44.29 116.852 43.0237 116.07 42.2426C115.289 41.4616 114.023 41.4616 113.242 42.2426L110.414 45.0711C109.633 45.8521 108.366 45.8521 107.585 45.0711C106.804 44.29 106.804 43.0237 107.585 42.2426L110.414 39.4142Z" fill="#1C3553"/>
</svg>
