<svg width="156" height="156" viewBox="0 0 156 156" fill="none" xmlns="http://www.w3.org/2000/svg">
<path fill-rule="evenodd" clip-rule="evenodd" d="M128 78H101V102H128V78ZM114 96C117.314 96 120 93.3137 120 90C120 86.6863 117.314 84 114 84C110.686 84 108 86.6863 108 90C108 93.3137 110.686 96 114 96Z" fill="#C2DDFF"/>
<path d="M100 44V27L118 44H100Z" fill="#C2DDFF"/>
<path fill-rule="evenodd" clip-rule="evenodd" d="M97 78C97 75.7909 98.7909 74 101 74H128C130.209 74 132 75.7909 132 78V102C132 104.209 130.209 106 128 106H101C98.7909 106 97 104.209 97 102V78ZM128 78L101 78V102H128V78Z" fill="#1C3553"/>
<path fill-rule="evenodd" clip-rule="evenodd" d="M114 86C111.791 86 110 87.7909 110 90C110 92.2091 111.791 94 114 94C116.209 94 118 92.2091 118 90C118 87.7909 116.209 86 114 86ZM106 90C106 85.5817 109.582 82 114 82C118.418 82 122 85.5817 122 90C122 94.4183 118.418 98 114 98C109.582 98 106 94.4183 106 90Z" fill="#1C3553"/>
<path fill-rule="evenodd" clip-rule="evenodd" d="M115 62C110.823 62 108 64.5018 108 68V76C108 77.1046 107.105 78 106 78C104.895 78 104 77.1046 104 76V68C104 61.7187 109.236 58 115 58C120.764 58 126 61.7187 126 68C126 69.1046 125.105 70 124 70C122.895 70 122 69.1046 122 68C122 64.5018 119.177 62 115 62Z" fill="#1C3553"/>
<path fill-rule="evenodd" clip-rule="evenodd" d="M24 41C24 38.7909 25.7909 37 28 37H30C31.1046 37 32 37.8954 32 39C32 40.1046 31.1046 41 30 41L28 41V127H107V125C107 123.895 107.895 123 109 123C110.105 123 111 123.895 111 125V127C111 129.209 109.209 131 107 131H28C25.7909 131 24 129.209 24 127V41Z" fill="#1C3553"/>
<path fill-rule="evenodd" clip-rule="evenodd" d="M36 29C36 26.7909 37.7909 25 40 25H100C100.511 25 101.002 25.1953 101.373 25.546L119.373 42.546C119.773 42.9238 120 43.4497 120 44V52C120 53.1046 119.105 54 118 54C116.895 54 116 53.1046 116 52V46H102C99.7909 46 98 44.2091 98 42V29L40 29V51C40 52.1046 39.1046 53 38 53C36.8954 53 36 52.1046 36 51V29ZM102 31.6399L112.97 42H102V31.6399ZM38 57C39.1046 57 40 57.8954 40 59V115H116V112C116 110.895 116.895 110 118 110C119.105 110 120 110.895 120 112V115C120 117.209 118.209 119 116 119H40C37.7909 119 36 117.209 36 115V59C36 57.8954 36.8954 57 38 57Z" fill="#1C3553"/>
<path fill-rule="evenodd" clip-rule="evenodd" d="M49 108C49 106.895 49.8954 106 51 106H88C89.1046 106 90 106.895 90 108C90 109.105 89.1046 110 88 110H51C49.8954 110 49 109.105 49 108Z" fill="#1C3553"/>
<path fill-rule="evenodd" clip-rule="evenodd" d="M49 96C49 94.8954 49.8954 94 51 94H82C83.1046 94 84 94.8954 84 96C84 97.1046 83.1046 98 82 98H51C49.8954 98 49 97.1046 49 96Z" fill="#1C3553"/>
<path fill-rule="evenodd" clip-rule="evenodd" d="M49 60C49 58.8954 49.8954 58 51 58H97C98.1046 58 99 58.8954 99 60C99 61.1046 98.1046 62 97 62H51C49.8954 62 49 61.1046 49 60Z" fill="#1C3553"/>
<path fill-rule="evenodd" clip-rule="evenodd" d="M49 41C49 39.8954 49.8954 39 51 39H67C68.1046 39 69 39.8954 69 41C69 42.1046 68.1046 43 67 43H51C49.8954 43 49 42.1046 49 41Z" fill="#1C3553"/>
<path fill-rule="evenodd" clip-rule="evenodd" d="M49 72C49 70.8954 49.8954 70 51 70H90C91.1046 70 92 70.8954 92 72C92 73.1046 91.1046 74 90 74H51C49.8954 74 49 73.1046 49 72Z" fill="#1C3553"/>
<path fill-rule="evenodd" clip-rule="evenodd" d="M49 84C49 82.8954 49.8954 82 51 82H82C83.1046 82 84 82.8954 84 84C84 85.1046 83.1046 86 82 86H51C49.8954 86 49 85.1046 49 84Z" fill="#1C3553"/>
</svg>
