<svg width="156" height="156" viewBox="0 0 156 156" fill="none" xmlns="http://www.w3.org/2000/svg">
<path fill-rule="evenodd" clip-rule="evenodd" d="M99 70H41C38.7909 70 37 71.7909 37 74V104C37 106.209 38.7909 108 41 108H99C101.209 108 103 106.209 103 104V74C103 71.7909 101.209 70 99 70ZM43 97V81H76.5V97H43ZM91 95C94.3137 95 97 92.3137 97 89C97 85.6863 94.3137 83 91 83C87.6863 83 85 85.6863 85 89C85 92.3137 87.6863 95 91 95Z" fill="#C2DDFF"/>
<path d="M99 44C99 51.732 92.732 58 85 58C81.5258 58 78.3472 56.7345 75.9 54.6394C72.9007 52.0717 71 48.2578 71 44C71 40.3709 72.3809 37.0643 74.6459 34.5769C77.2065 31.7649 80.8971 30 85 30C92.732 30 99 36.268 99 44Z" fill="#C2DDFF"/>
<path d="M59 49C59 53.9706 54.9706 58 50 58C47.7666 58 45.7232 57.1865 44.15 55.8396C42.2219 54.189 41 51.7372 41 49C41 46.667 41.8877 44.5413 43.3438 42.9423C44.9899 41.1346 47.3624 40 50 40C54.9706 40 59 44.0294 59 49Z" fill="#C2DDFF"/>
<path d="M116 94.4724V83.5276C116 82.6257 116.604 81.8354 117.474 81.5981L124.474 79.689C125.746 79.342 127 80.2998 127 81.6185V96.3815C127 97.7002 125.746 98.658 124.474 98.311L117.474 96.4019C116.604 96.1646 116 95.3743 116 94.4724Z" fill="#C2DDFF"/>
<path fill-rule="evenodd" clip-rule="evenodd" d="M29 68C29 64.6863 31.6863 62 35 62H105C108.314 62 111 64.6863 111 68V110C111 113.314 108.314 116 105 116H100C98.8954 116 98 115.105 98 114C98 112.895 98.8954 112 100 112H105C106.105 112 107 111.105 107 110V68C107 66.8954 106.105 66 105 66H35C33.8954 66 33 66.8954 33 68V110C33 111.105 33.8954 112 35 112H92C93.1046 112 94 112.895 94 114C94 115.105 93.1046 116 92 116H35C31.6863 116 29 113.314 29 110V68Z" fill="#1C3553"/>
<path fill-rule="evenodd" clip-rule="evenodd" d="M41 84C41 80.6863 43.6863 78 47 78H73C76.3137 78 79 80.6863 79 84V94C79 97.3137 76.3137 100 73 100H47C43.6863 100 41 97.3137 41 94V84ZM47 82C45.8954 82 45 82.8954 45 84V94C45 95.1046 45.8954 96 47 96H73C74.1046 96 75 95.1046 75 94V84C75 82.8954 74.1046 82 73 82H47Z" fill="#1C3553"/>
<path fill-rule="evenodd" clip-rule="evenodd" d="M127.21 70.7139C131.074 69.5065 135 72.3929 135 76.4408V101.559C135 105.607 131.074 108.493 127.21 107.286L116.403 103.909C115.349 103.579 114.762 102.458 115.091 101.403C115.421 100.349 116.542 99.7616 117.597 100.091L128.403 103.468C129.691 103.871 131 102.909 131 101.559V76.4408C131 75.0915 129.691 74.1294 128.403 74.5318L117.597 77.909C116.542 78.2384 115.421 77.6508 115.091 76.5966C114.762 75.5423 115.349 74.4205 116.403 74.091L127.21 70.7139Z" fill="#1C3553"/>
<path fill-rule="evenodd" clip-rule="evenodd" d="M20 87C20 84.7909 21.7909 83 24 83H30.5C31.6046 83 32.5 83.8954 32.5 85C32.5 86.1046 31.6046 87 30.5 87H24V91H30.5C31.6046 91 32.5 91.8954 32.5 93C32.5 94.1046 31.6046 95 30.5 95H24C21.7909 95 20 93.2091 20 91V87Z" fill="#1C3553"/>
<path fill-rule="evenodd" clip-rule="evenodd" d="M91 85C88.7909 85 87 86.7909 87 89C87 91.2091 88.7909 93 91 93C93.2091 93 95 91.2091 95 89C95 86.7909 93.2091 85 91 85ZM83 89C83 84.5817 86.5817 81 91 81C95.4183 81 99 84.5817 99 89C99 93.4183 95.4183 97 91 97C86.5817 97 83 93.4183 83 89Z" fill="#1C3553"/>
<path fill-rule="evenodd" clip-rule="evenodd" d="M71 112C71.5713 112 72.1153 112.244 72.4948 112.671L88.4948 130.671C89.2287 131.497 89.1543 132.761 88.3288 133.495C87.5032 134.229 86.239 134.154 85.5052 133.329L71 117.01L56.4948 133.329C55.761 134.154 54.4969 134.229 53.6713 133.495C52.8457 132.761 52.7714 131.497 53.5052 130.671L69.5052 112.671C69.8847 112.244 70.4287 112 71 112Z" fill="#1C3553"/>
<path fill-rule="evenodd" clip-rule="evenodd" d="M50 36C46.1903 36 42.7656 37.6362 40.385 40.2504C38.2805 42.5616 37 45.6289 37 49C37 56.1797 42.8203 62 50 62C57.1797 62 63 56.1797 63 49C63 41.8203 57.1797 36 50 36ZM37.4275 37.5573C40.5341 34.1457 45.0179 32 50 32C59.3888 32 67 39.6112 67 49C67 58.3888 59.3888 66 50 66C40.6112 66 33 58.3888 33 49C33 44.5944 34.6785 40.5761 37.4275 37.5573Z" fill="#1C3553"/>
<path fill-rule="evenodd" clip-rule="evenodd" d="M85 26C79.725 26 74.9822 28.2665 71.6871 31.885C68.7737 35.0845 67 39.3328 67 44C67 49.4739 69.4409 54.3755 73.3007 57.6799C76.4481 60.3744 80.5317 62 85 62C94.9411 62 103 53.9411 103 44C103 34.0589 94.9411 26 85 26ZM68.7296 29.1919C72.7507 24.776 78.5526 22 85 22C97.1503 22 107 31.8497 107 44C107 56.1503 97.1503 66 85 66C79.5422 66 74.544 64.01 70.6993 60.7185C65.9898 56.6865 63 50.6913 63 44C63 38.2983 65.1717 33.0991 68.7296 29.1919Z" fill="#1C3553"/>
</svg>
