<svg width="156" height="156" viewBox="0 0 156 156" fill="none" xmlns="http://www.w3.org/2000/svg">
<path fill-rule="evenodd" clip-rule="evenodd" d="M52.9995 52.0004C51.8949 52.0004 50.9995 52.8958 50.9995 54.0004V113C50.9995 114.105 51.8949 115 52.9995 115H103C104.104 115 105 114.105 105 113V54.0004C105 52.8958 104.104 52.0004 103 52.0004H52.9995ZM64.4995 101C68.6662 104 80.0995 108.2 92.4995 101C94.9995 99.1667 99.9995 93.6001 99.9995 86.0001C98.1662 77.3334 91.2995 60.0001 78.4995 60.0001C73.3329 58.5001 61.7995 61.6001 56.9995 86.0001C56.6662 89.848 57.6995 98.2352 64.4995 101Z" fill="#C2DDFF"/>
<path fill-rule="evenodd" clip-rule="evenodd" d="M43.0005 26.9999C43.0005 23.6862 45.6868 20.9999 49.0005 20.9999H107C110.314 20.9999 113 23.6862 113 26.9999V131C113 134.314 110.314 137 107 137H49.0005C45.6868 137 43.0005 134.314 43.0005 131V26.9999ZM49.0005 24.9999C47.8959 24.9999 47.0005 25.8953 47.0005 26.9999V43.9948L100.853 43.8575C101.957 43.8547 102.855 44.7479 102.858 45.8524C102.86 46.957 101.967 47.8547 100.863 47.8575L47.0005 47.9948V131C47.0005 132.105 47.8959 133 49.0005 133H107C108.105 133 109 132.105 109 131V123.286H55.1433C54.0388 123.286 53.1433 122.391 53.1433 121.286C53.1433 120.182 54.0388 119.286 55.1433 119.286H109V26.9999C109 25.8953 108.105 24.9999 107 24.9999H49.0005Z" fill="#1C3553"/>
<path fill-rule="evenodd" clip-rule="evenodd" d="M63.4292 34.4284C63.4292 33.3239 64.3246 32.4284 65.4292 32.4284H90.5721C91.6766 32.4284 92.5721 33.3239 92.5721 34.4284C92.5721 35.533 91.6766 36.4284 90.5721 36.4284H65.4292C64.3246 36.4284 63.4292 35.533 63.4292 34.4284Z" fill="#1C3553"/>
<path fill-rule="evenodd" clip-rule="evenodd" d="M120 82.0624C120 80.9578 120.895 80.0624 122 80.0624H132C133.105 80.0624 134 80.9578 134 82.0624C134 83.1669 133.105 84.0624 132 84.0624H122C120.895 84.0624 120 83.1669 120 82.0624Z" fill="#1C3553"/>
<path fill-rule="evenodd" clip-rule="evenodd" d="M118.264 70.0234C117.716 69.0643 118.049 67.8426 119.008 67.2946L126.008 63.2946C126.967 62.7466 128.189 63.0798 128.737 64.0388C129.285 64.9979 128.951 66.2196 127.992 66.7676L120.992 70.7676C120.033 71.3156 118.812 70.9824 118.264 70.0234Z" fill="#1C3553"/>
<path fill-rule="evenodd" clip-rule="evenodd" d="M36 82.0624C36 80.9578 35.1046 80.0624 34 80.0624H24C22.8954 80.0624 22 80.9578 22 82.0624C22 83.1669 22.8954 84.0624 24 84.0624H34C35.1046 84.0624 36 83.1669 36 82.0624Z" fill="#1C3553"/>
<path fill-rule="evenodd" clip-rule="evenodd" d="M37.7364 70.0234C38.2844 69.0643 37.9512 67.8426 36.9922 67.2946L29.9922 63.2946C29.0331 62.7466 27.8114 63.0798 27.2634 64.0388C26.7154 64.9979 27.0486 66.2196 28.0076 66.7676L35.0076 70.7676C35.9666 71.3156 37.1883 70.9824 37.7364 70.0234Z" fill="#1C3553"/>
<path fill-rule="evenodd" clip-rule="evenodd" d="M71.9991 90.0003C73.1036 90.0003 73.9991 90.8958 73.9991 92.0003V98.0003C73.9991 98.989 73.2766 99.8294 72.2991 99.9777C71.2269 100.14 68.4511 101.037 65.6718 102.54C64.3056 103.28 63.0104 104.128 61.9634 105.047C60.9035 105.977 60.1965 106.892 59.856 107.743C59.4458 108.769 58.2819 109.268 57.2563 108.857C56.2307 108.447 55.7319 107.283 56.1421 106.258C56.8017 104.609 58.0016 103.201 59.3255 102.04C60.6622 100.867 62.2275 99.8562 63.7682 99.0225C65.9664 97.8331 68.264 96.9261 69.9991 96.42V92.0003C69.9991 90.8958 70.8945 90.0003 71.9991 90.0003Z" fill="#1C3553"/>
<path fill-rule="evenodd" clip-rule="evenodd" d="M83.999 90.0003C82.8944 90.0003 81.999 90.8958 81.999 92.0003V98.0003C81.999 98.989 82.7214 99.8294 83.6989 99.9777C84.7712 100.14 87.547 101.037 90.3263 102.54C91.6925 103.28 92.9877 104.128 94.0347 105.047C95.0946 105.977 95.8016 106.892 96.142 107.743C96.5523 108.769 97.7162 109.268 98.7418 108.857C99.7673 108.447 100.266 107.283 99.8559 106.258C99.1964 104.609 97.9964 103.201 96.6726 102.04C95.3359 100.867 93.7706 99.8562 92.2298 99.0225C90.0317 97.8331 87.734 96.9261 85.999 96.42V92.0003C85.999 90.8958 85.1035 90.0003 83.999 90.0003Z" fill="#1C3553"/>
<path fill-rule="evenodd" clip-rule="evenodd" d="M92.7973 100.123C93.2818 101.115 92.8698 102.313 91.8772 102.797C86.3522 105.494 82.0785 107 77.754 107C73.4127 107 69.2942 105.485 64.0782 102.776C63.0979 102.267 62.7159 101.06 63.225 100.079C63.734 99.0992 64.9413 98.7172 65.9216 99.2262C70.9746 101.85 74.3935 103 77.7536 103C81.1305 103 84.7223 101.838 90.1227 99.2026C91.1153 98.7181 92.3128 99.13 92.7973 100.123Z" fill="#1C3553"/>
<path fill-rule="evenodd" clip-rule="evenodd" d="M69.6088 72.0954C70.6607 72.4324 71.2402 73.5584 70.9032 74.6103C70.8822 74.6757 70.8616 74.7401 70.8412 74.8035C70.3172 76.4366 69.9985 77.43 69.9985 79.0001C69.9985 82.6909 70.9121 86.0517 72.4119 88.4231C73.9008 90.777 75.838 92.0001 77.9983 92.0001C80.1587 92.0001 82.0961 90.777 83.585 88.423C85.0849 86.0517 85.9985 82.6909 85.9985 79.0001C85.9985 77.43 85.6798 76.4366 85.1559 74.8035C85.1355 74.7401 85.1149 74.6757 85.0939 74.6103C84.7569 73.5584 85.3364 72.4324 86.3883 72.0954C87.4402 71.7584 88.5662 72.3379 88.9032 73.3898C88.9342 73.4866 88.9652 73.583 88.9962 73.6792C89.5076 75.2673 89.9985 76.7919 89.9985 79.0001C89.9985 83.2882 88.9478 87.4274 86.9655 90.5613C84.9722 93.7126 81.9095 96.0001 77.9983 96.0001C74.0872 96.0001 71.0246 93.7126 69.0314 90.5613C67.0492 87.4274 65.9985 83.2882 65.9985 79.0001C65.9985 76.7919 66.4895 75.2673 67.0009 73.6792C67.0319 73.583 67.0629 73.4866 67.0939 73.3898C67.4309 72.3379 68.5569 71.7584 69.6088 72.0954Z" fill="#1C3553"/>
<path fill-rule="evenodd" clip-rule="evenodd" d="M79.2698 68.138C80.0362 67.8379 80.9083 68.038 81.4672 68.6422C81.9587 69.1735 82.868 70.0597 83.9511 70.7975C85.0757 71.5636 86.1414 72.0003 86.999 72.0003C88.1036 72.0003 88.999 72.8958 88.999 74.0003C88.999 75.1049 88.1036 76.0003 86.999 76.0003C85.0851 76.0003 83.3199 75.1607 81.9783 74.2891C81.8384 75.2569 81.0055 76.0003 79.999 76.0003H68.999C67.8945 76.0003 66.999 75.1049 66.999 74.0003C66.999 72.8958 67.8945 72.0003 68.999 72.0003H77.999V70.0003C77.999 69.1772 78.5033 68.4382 79.2698 68.138Z" fill="#1C3553"/>
<path d="M64.3047 101C61.414 99.1916 54.8081 93.7842 56.4422 87.1405C57.7573 81.7946 61.9158 67.3577 70.5758 61.9999C75.3922 59.8734 77.9103 59.7935 78.5672 60.0193" stroke="#1C3553" stroke-width="4" stroke-linecap="round" stroke-linejoin="round"/>
<path d="M91.6953 101C94.586 99.1916 101.192 93.7842 99.5578 87.1405C98.2427 81.7946 94.0842 67.3577 85.4242 61.9999C80.6078 59.8734 78.0897 59.7935 77.4328 60.0193" stroke="#1C3553" stroke-width="4" stroke-linecap="round" stroke-linejoin="round"/>
<path fill-rule="evenodd" clip-rule="evenodd" d="M62.5701 75.4137C64.7839 70.6239 67.7449 66.1564 71.5133 63.7725C73.7515 62.7933 75.3999 62.3089 76.516 62.0901C76.7336 62.0474 76.928 62.0155 77.1001 61.9919C77.3892 62.0409 77.6927 62.0268 77.9909 61.9399C77.9935 61.9397 77.9965 61.9394 77.9999 61.9391C78.0033 61.9394 78.0063 61.9397 78.009 61.9399C78.3071 62.0268 78.6107 62.0409 78.8997 61.9919C79.0718 62.0155 79.2662 62.0474 79.4838 62.0901C80.6 62.3089 82.2483 62.7933 84.4866 63.7725C88.2549 66.1564 91.216 70.6239 93.4298 75.4137C95.6395 80.1948 96.9718 85.0012 97.6156 87.6182L97.6156 87.6182C98.2342 90.1333 97.3385 92.5325 95.724 94.6825C94.1077 96.8348 91.9455 98.4842 90.6346 99.3043C89.6981 99.8901 89.4139 101.124 89.9997 102.061C90.5855 102.997 91.8195 103.281 92.7559 102.695C94.3356 101.707 96.9217 99.7488 98.9225 97.0844C100.925 94.4178 102.515 90.7914 101.5 86.6628L101.5 86.6627C100.828 83.9337 99.424 78.8488 97.0607 73.7356C94.7239 68.6795 91.3133 63.2917 86.4764 60.2991C86.3979 60.2506 86.3163 60.2075 86.2319 60.1703C83.7199 59.0612 81.7432 58.4569 80.2534 58.1648C79.5092 58.0189 78.8664 57.947 78.3255 57.935C78.2192 57.9326 78.1103 57.9324 77.9999 57.9351C77.8895 57.9324 77.7806 57.9326 77.6743 57.935C77.1334 57.947 76.4906 58.0189 75.7464 58.1648C74.2566 58.4569 72.2799 59.0612 69.7679 60.1703C69.6836 60.2075 69.6019 60.2506 69.5235 60.2991C64.6865 63.2917 61.276 68.6795 58.9391 73.7356C56.5759 78.8488 55.1714 83.9337 54.5 86.6627L54.5 86.6628C53.4845 90.7914 55.0748 94.4178 57.0773 97.0844C59.0781 99.7488 61.6642 101.707 63.2439 102.695C64.1804 103.281 65.4144 102.997 66.0002 102.061C66.586 101.124 66.3017 99.8901 65.3653 99.3043C64.0543 98.4842 61.8921 96.8348 60.2758 94.6825C58.6613 92.5325 57.7656 90.1333 58.3842 87.6182L58.3843 87.6182C59.028 85.0012 60.3603 80.1948 62.5701 75.4137Z" fill="#1C3553"/>
</svg>
