<svg width="156" height="156" viewBox="0 0 156 156" fill="none" xmlns="http://www.w3.org/2000/svg">
<path fill-rule="evenodd" clip-rule="evenodd" d="M52.9995 52.0004C51.8949 52.0004 50.9995 52.8958 50.9995 54.0004V113C50.9995 114.105 51.8949 115 52.9995 115H103C104.104 115 105 114.105 105 113V54.0004C105 52.8958 104.104 52.0004 103 52.0004H52.9995ZM64.4995 101C68.6662 104 80.0995 108.2 92.4995 101C94.9995 99.1667 99.9995 93.6001 99.9995 86.0001C98.1662 77.3334 91.2995 60.0001 78.4995 60.0001C73.3329 58.5001 61.7995 61.6001 56.9995 86.0001C56.6662 89.848 57.6995 98.2352 64.4995 101Z" fill="#C2DDFF"/>
<path fill-rule="evenodd" clip-rule="evenodd" d="M43.0005 26.9999C43.0005 23.6862 45.6868 20.9999 49.0005 20.9999H107C110.314 20.9999 113 23.6862 113 26.9999V131C113 134.314 110.314 137 107 137H49.0005C45.6868 137 43.0005 134.314 43.0005 131V26.9999ZM49.0005 24.9999C47.8959 24.9999 47.0005 25.8953 47.0005 26.9999V43.9948L100.853 43.8575C101.957 43.8547 102.855 44.7479 102.858 45.8524C102.86 46.957 101.967 47.8547 100.863 47.8575L47.0005 47.9948V131C47.0005 132.105 47.8959 133 49.0005 133H107C108.105 133 109 132.105 109 131V123.286H55.1433C54.0388 123.286 53.1433 122.391 53.1433 121.286C53.1433 120.182 54.0388 119.286 55.1433 119.286H109V26.9999C109 25.8953 108.105 24.9999 107 24.9999H49.0005Z" fill="#1C3553"/>
<path fill-rule="evenodd" clip-rule="evenodd" d="M63.4292 34.4284C63.4292 33.3239 64.3246 32.4284 65.4292 32.4284H90.5721C91.6766 32.4284 92.5721 33.3239 92.5721 34.4284C92.5721 35.533 91.6766 36.4284 90.5721 36.4284H65.4292C64.3246 36.4284 63.4292 35.533 63.4292 34.4284Z" fill="#1C3553"/>
<path fill-rule="evenodd" clip-rule="evenodd" d="M120 82.0624C120 80.9578 120.895 80.0624 122 80.0624H132C133.105 80.0624 134 80.9578 134 82.0624C134 83.1669 133.105 84.0624 132 84.0624H122C120.895 84.0624 120 83.1669 120 82.0624Z" fill="#1C3553"/>
<path fill-rule="evenodd" clip-rule="evenodd" d="M118.264 70.0234C117.716 69.0643 118.049 67.8426 119.008 67.2946L126.008 63.2946C126.967 62.7466 128.189 63.0798 128.737 64.0388C129.285 64.9979 128.951 66.2196 127.992 66.7676L120.992 70.7676C120.033 71.3156 118.812 70.9824 118.264 70.0234Z" fill="#1C3553"/>
<path fill-rule="evenodd" clip-rule="evenodd" d="M36 82.0624C36 80.9578 35.1046 80.0624 34 80.0624H24C22.8954 80.0624 22 80.9578 22 82.0624C22 83.1669 22.8954 84.0624 24 84.0624H34C35.1046 84.0624 36 83.1669 36 82.0624Z" fill="#1C3553"/>
<path fill-rule="evenodd" clip-rule="evenodd" d="M37.7364 70.0234C38.2844 69.0643 37.9512 67.8426 36.9922 67.2946L29.9922 63.2946C29.0331 62.7466 27.8114 63.0798 27.2634 64.0388C26.7154 64.9979 27.0486 66.2196 28.0076 66.7676L35.0076 70.7676C35.9666 71.3156 37.1883 70.9824 37.7364 70.0234Z" fill="#1C3553"/>
<path fill-rule="evenodd" clip-rule="evenodd" d="M71.9991 90.0003C73.1036 90.0003 73.9991 90.8958 73.9991 92.0003V98.0003C73.9991 98.989 73.2766 99.8294 72.2991 99.9777C71.2269 100.14 68.4511 101.037 65.6718 102.54C64.3056 103.28 63.0104 104.128 61.9634 105.047C60.9035 105.977 60.1965 106.892 59.856 107.743C59.4458 108.769 58.2819 109.268 57.2563 108.857C56.2307 108.447 55.7319 107.283 56.1421 106.258C56.8017 104.609 58.0016 103.201 59.3255 102.04C60.6622 100.867 62.2275 99.8562 63.7682 99.0225C65.9664 97.8331 68.264 96.9261 69.9991 96.42V92.0003C69.9991 90.8958 70.8945 90.0003 71.9991 90.0003Z" fill="#1C3553"/>
<path fill-rule="evenodd" clip-rule="evenodd" d="M83.999 90.0003C82.8944 90.0003 81.999 90.8958 81.999 92.0003V98.0003C81.999 98.989 82.7214 99.8294 83.6989 99.9777C84.7712 100.14 87.547 101.037 90.3263 102.54C91.6925 103.28 92.9877 104.128 94.0347 105.047C95.0946 105.977 95.8016 106.892 96.142 107.743C96.5523 108.769 97.7162 109.268 98.7418 108.857C99.7673 108.447 100.266 107.283 99.8559 106.258C99.1964 104.609 97.9964 103.201 96.6726 102.04C95.3359 100.867 93.7706 99.8562 92.2298 99.0225C90.0317 97.8331 87.734 96.9261 85.999 96.42V92.0003C85.999 90.8958 85.1035 90.0003 83.999 90.0003Z" fill="#1C3553"/>
<path fill-rule="evenodd" clip-rule="evenodd" d="M92.7973 100.123C93.2818 101.115 92.8698 102.313 91.8772 102.797C86.3522 105.494 82.0785 107 77.754 107C73.4127 107 69.2942 105.485 64.0782 102.776C63.0979 102.267 62.7159 101.06 63.225 100.079C63.734 99.0992 64.9413 98.7172 65.9216 99.2262C70.9746 101.85 74.3935 103 77.7536 103C81.1305 103 84.7223 101.838 90.1227 99.2026C91.1153 98.7181 92.3128 99.13 92.7973 100.123Z" fill="#1C3553"/>
<path fill-rule="evenodd" clip-rule="evenodd" d="M69.6088 72.0954C70.6607 72.4324 71.2402 73.5584 70.9032 74.6103C70.8822 74.6757 70.8616 74.7401 70.8412 74.8035C70.3172 76.4366 69.9985 77.43 69.9985 79.0001C69.9985 82.6909 70.9121 86.0517 72.4119 88.4231C73.9008 90.777 75.838 92.0001 77.9983 92.0001C80.1587 92.0001 82.0961 90.777 83.585 88.423C85.0849 86.0517 85.9985 82.6909 85.9985 79.0001C85.9985 77.43 85.6798 76.4366 85.1559 74.8035C85.1355 74.7401 85.1149 74.6757 85.0939 74.6103C84.7569 73.5584 85.3364 72.4324 86.3883 72.0954C87.4402 71.7584 88.5662 72.3379 88.9032 73.3898C88.9342 73.4866 88.9652 73.583 88.9962 73.6792C89.5076 75.2673 89.9985 76.7919 89.9985 79.0001C89.9985 83.2882 88.9478 87.4274 86.9655 90.5613C84.9722 93.7126 81.9095 96.0001 77.9983 96.0001C74.0872 96.0001 71.0246 93.7126 69.0314 90.5613C67.0492 87.4274 65.9985 83.2882 65.9985 79.0001C65.9985 76.7919 66.4895 75.2673 67.0009 73.6792C67.0319 73.583 67.0629 73.4866 67.0939 73.3898C67.4309 72.3379 68.5569 71.7584 69.6088 72.0954Z" fill="#1C3553"/>
<path fill-rule="evenodd" clip-rule="evenodd" d="M70.9998 63.4279C68.8741 64.7333 66.3915 67.3741 63.5101 72.9223C57.7732 83.9689 58.5337 90.545 60.2388 94.2095C61.112 96.086 62.2957 97.3452 63.2515 98.1322C63.7296 98.5258 64.147 98.7982 64.4324 98.9665C64.5748 99.0504 64.6832 99.1078 64.7484 99.1409C64.781 99.1574 64.8026 99.1677 64.8122 99.1723C64.8139 99.1731 64.8153 99.1737 64.8162 99.1741C64.8179 99.1749 64.8183 99.1751 64.8173 99.1747L64.8128 99.1726L64.8087 99.1708M63.9998 101C63.1961 102.831 63.1946 102.831 63.193 102.83L63.1895 102.828L63.1816 102.825L63.1618 102.816C63.1469 102.809 63.1286 102.801 63.1071 102.791C63.064 102.77 63.0079 102.743 62.94 102.709C62.8043 102.64 62.6211 102.542 62.4008 102.412C61.9608 102.153 61.3685 101.763 60.7089 101.22C59.3892 100.133 57.7859 98.4193 56.6122 95.897C54.2238 90.7639 53.852 82.8402 59.9603 71.0787C63.0015 65.2227 65.904 61.8632 68.9066 60.0193C71.9609 58.1437 74.8654 57.9999 77.4008 57.9999C79.934 57.9999 83.0443 58.145 86.3161 59.9791C89.5752 61.8062 92.7482 65.1628 95.8205 71.0787C101.91 82.8038 101.848 90.678 99.8233 95.7898C98.8228 98.3157 97.3865 100.045 96.178 101.152C95.575 101.703 95.0282 102.101 94.6182 102.367C94.4129 102.5 94.241 102.601 94.1124 102.673C94.048 102.708 93.9944 102.737 93.9526 102.758C93.9412 102.764 93.9306 102.77 93.921 102.775C93.9131 102.779 93.9057 102.782 93.899 102.786L93.8792 102.795L93.871 102.799L93.8674 102.801C93.8657 102.802 93.8641 102.803 92.9983 101L93.8641 102.803C92.8684 103.281 91.6736 102.861 91.1954 101.866C90.7198 100.875 91.1324 99.6879 92.1167 99.2047C92.1208 99.2027 92.125 99.2006 92.1292 99.1986L92.1268 99.1998L92.1221 99.202L92.1172 99.2044C92.1236 99.2011 92.1408 99.1921 92.168 99.177C92.2224 99.1467 92.316 99.0924 92.4401 99.0118C92.6889 98.8503 93.0568 98.5857 93.4774 98.2008C94.316 97.4333 95.3625 96.1897 96.1045 94.3167C97.5645 90.6308 98.0266 84.0053 92.2707 72.9223C89.4206 67.4343 86.7188 64.7906 84.3601 63.4683C82.014 62.1531 79.7632 61.9999 77.4008 61.9999C75.0407 61.9999 73.0737 62.1543 70.9998 63.4279M92.1172 99.2044C92.117 99.2045 92.1168 99.2046 92.1167 99.2047C92.1141 99.206 92.1139 99.2061 92.1162 99.205L92.1172 99.2044ZM92.1292 99.1986L92.1295 99.1985C92.1295 99.1985 92.1295 99.1984 92.1295 99.1984C92.1294 99.1985 92.1293 99.1986 92.1292 99.1986Z" fill="#1C3553"/>
<path fill-rule="evenodd" clip-rule="evenodd" d="M79.2698 68.138C80.0362 67.8379 80.9083 68.038 81.4672 68.6422C81.9587 69.1735 82.868 70.0597 83.9511 70.7975C85.0757 71.5636 86.1414 72.0003 86.999 72.0003C88.1036 72.0003 88.999 72.8958 88.999 74.0003C88.999 75.1049 88.1036 76.0003 86.999 76.0003C85.0851 76.0003 83.3199 75.1607 81.9783 74.2891C81.8384 75.2569 81.0055 76.0003 79.999 76.0003H68.999C67.8945 76.0003 66.999 75.1049 66.999 74.0003C66.999 72.8958 67.8945 72.0003 68.999 72.0003H77.999V70.0003C77.999 69.1772 78.5033 68.4382 79.2698 68.138Z" fill="#1C3553"/>
</svg>
