<svg width="156" height="156" viewBox="0 0 156 156" fill="none" xmlns="http://www.w3.org/2000/svg">
<path d="M76.2905 40.8158C77.0693 39.533 78.9309 39.533 79.7097 40.8158L127.156 118.962C127.965 120.295 127.005 122 125.446 122H30.5541C28.9949 122 28.0353 120.295 28.8446 118.962L76.2905 40.8158Z" fill="#C2DDFF"/>
<path fill-rule="evenodd" clip-rule="evenodd" d="M72.9007 32.4294C75.2471 28.6449 80.7532 28.6449 83.0995 32.4294L137.913 120.838C140.391 124.835 137.517 130 132.814 130H23.1865C18.4836 130 15.609 124.835 18.0871 120.838L72.9007 32.4294ZM79.6999 34.5371C78.9178 33.2756 77.0824 33.2756 76.3003 34.5371L21.4867 122.946C20.6607 124.278 21.6189 126 23.1865 126H132.814C134.381 126 135.34 124.278 134.514 122.946L79.6999 34.5371Z" fill="#1C3553"/>
<path d="M80 107.5C80 108.604 79.1046 109.5 78 109.5C76.8954 109.5 76 108.604 76 107.5C76 106.395 76.8954 105.5 78 105.5C79.1046 105.5 80 106.395 80 107.5Z" fill="#1C3553"/>
<path fill-rule="evenodd" clip-rule="evenodd" d="M78.0007 68C79.1053 68 80.0007 68.8954 80.0007 70V99.9999C80.0007 101.104 79.1053 102 78.0007 102C76.8962 102 76.0007 101.104 76.0007 99.9999V70C76.0007 68.8954 76.8962 68 78.0007 68Z" fill="#1C3553"/>
</svg>
