<svg width="156" height="156" viewBox="0 0 156 156" fill="none" xmlns="http://www.w3.org/2000/svg">
<path d="M50 33C50 31.8954 50.8954 31 52 31H83.6364C84.7409 31 85.6364 31.8954 85.6364 33V42.4286C85.6364 43.5331 86.5318 44.4286 87.6364 44.4286H104C105.105 44.4286 106 45.324 106 46.4286V76C106 77.1046 105.105 78 104 78H52C50.8954 78 50 77.1046 50 76V33Z" fill="#C2DDFF"/>
<path d="M64 92C64 91.4477 64.4477 91 65 91H91C91.5523 91 92 91.4477 92 92V94C92 94.5523 91.5523 95 91 95H65C64.4477 95 64 94.5523 64 94V92Z" fill="#C2DDFF"/>
<path fill-rule="evenodd" clip-rule="evenodd" d="M56 85C56 83.8954 56.8954 83 58 83H98C99.1046 83 100 83.8954 100 85V101C100 102.105 99.1046 103 98 103H58C56.8954 103 56 102.105 56 101V85ZM60 87V99H96V87H60Z" fill="#1C3553"/>
<path fill-rule="evenodd" clip-rule="evenodd" d="M78 114C81.3137 114 84 116.686 84 120L84 142C84 143.105 83.1046 144 82 144L74 144C72.8954 144 72 143.105 72 142L72 120C72 116.686 74.6863 114 78 114ZM80 120C80 118.895 79.1046 118 78 118C76.8954 118 76 118.895 76 120L76 140L80 140L80 120Z" fill="#1C3553"/>
<path fill-rule="evenodd" clip-rule="evenodd" d="M96 95C96 93.8954 96.8954 93 98 93H108C109.105 93 110 93.8954 110 95V109C110 110.105 109.105 111 108 111H80V116C80 117.105 79.1046 118 78 118C76.8954 118 76 117.105 76 116V109C76 107.895 76.8954 107 78 107H106V97H98C96.8954 97 96 96.1046 96 95Z" fill="#1C3553"/>
<path fill-rule="evenodd" clip-rule="evenodd" d="M34 26C34 22.6863 36.6863 20 40 20H116C119.314 20 122 22.6863 122 26V132C122 135.314 119.314 138 116 138H90C88.8954 138 88 137.105 88 136C88 134.895 88.8954 134 90 134H116C117.105 134 118 133.105 118 132V26C118 24.8954 117.105 24 116 24H40C38.8954 24 38 24.8954 38 26V51.009C38 52.1136 37.1046 53.009 36 53.009C34.8954 53.009 34 52.1136 34 51.009V26ZM36 57.2973C37.1046 57.2973 38 58.1927 38 59.2973V132C38 133.105 38.8954 134 40 134H66C67.1046 134 68 134.895 68 136C68 137.105 67.1046 138 66 138H40C36.6863 138 34 135.314 34 132V59.2973C34 58.1927 34.8954 57.2973 36 57.2973Z" fill="#1C3553"/>
</svg>
