<svg width="156" height="156" viewBox="0 0 156 156" fill="none" xmlns="http://www.w3.org/2000/svg">
<path fill-rule="evenodd" clip-rule="evenodd" d="M103 68C115.15 68 125 58.1503 125 46C125 33.8497 115.15 24 103 24C90.8497 24 81 33.8497 81 46C81 58.1503 90.8497 68 103 68ZM116 57V39H90V57H116Z" fill="#C2DDFF"/>
<path d="M57.0005 113L56.9995 122C51.8542 122.782 41.3017 125.113 33.3472 133" stroke="#1C3553" stroke-width="4" stroke-linecap="round" stroke-linejoin="round"/>
<path d="M78.9995 113V122C84.1448 122.782 95.529 125.113 102.347 133" stroke="#1C3553" stroke-width="4" stroke-linecap="round" stroke-linejoin="round"/>
<circle cx="103" cy="46" r="28" stroke="#1C3553" stroke-width="4" stroke-linecap="round" stroke-linejoin="round"/>
<path d="M46.0005 126C63.3958 135.333 72.6051 135.333 90.0005 126" stroke="#1C3553" stroke-width="4" stroke-linecap="round" stroke-linejoin="round"/>
<path d="M49.0005 78C49.0005 78 47.0005 84 47.0005 89C47.0005 105 56.1532 116 68.0005 116C79.8478 116 89.0005 105 89.0005 89C89.0005 84 87.0005 78 87.0005 78" stroke="#1C3553" stroke-width="4" stroke-linecap="round" stroke-linejoin="round"/>
<path d="M97.0005 128C97.0005 128 114.57 119.593 97.0005 82M38.0005 128C38.0005 128 16.3167 119.817 39.0004 77C49.0363 58.0565 56.6763 53.8461 63.9996 53.1278C64.1663 53.0852 67.0005 53 67.0005 53" stroke="#1C3553" stroke-width="4" stroke-linecap="round" stroke-linejoin="round"/>
<path d="M49.0005 78H73.9995V71C76.0816 73.2535 81.5493 78 87.0005 78" stroke="#1C3553" stroke-width="4" stroke-linecap="round" stroke-linejoin="round"/>
<rect x="90.0005" y="39" width="26" height="18" rx="2" stroke="#1C3553" stroke-width="4" stroke-linecap="round" stroke-linejoin="round"/>
<path d="M98.0005 37V35C98.0005 32.7909 99.7913 31 102 31H104C106.21 31 108 32.7909 108 35V37" stroke="#1C3553" stroke-width="4" stroke-linejoin="round"/>
</svg>
9 128.85 89.0548 124.238C90.0281 123.715 91.2405 124.081 91.7627 125.054C92.285 126.028 91.9193 127.24 90.946 127.762C82.1466 132.484 75.1444 135 68.0004 135C60.8563 135 53.8542 132.484 45.0548 127.762C44.0815 127.24 43.7158 126.028 44.238 125.054Z" fill="#1C3553"/>
<path fill-rule="evenodd" clip-rule="evenodd" d="M49.6329 76.1026C50.6807 76.4519 51.247 77.5843 50.898 78.6321C50.898 78.6321 50.898 78.6321 50.898 78.6321M87.0005 78C88.8979 77.3675 88.8979 77.3678 88.898 77.3681L88.9005 77.3756L88.9061 77.3925L88.9254 77.4516C88.9418 77.5021 88.9651 77.5746 88.9942 77.6674C89.0526 77.8528 89.1346 78.1196 89.2325 78.4538C89.4279 79.1215 89.6876 80.063 89.9473 81.1669C90.4606 83.3485 91.0005 86.2726 91.0005 89C91.0005 105.648 81.359 118 68.0005 118C54.642 118 45.0005 105.648 45.0005 89C45.0005 86.2726 45.5403 83.3485 46.0537 81.1669C46.3134 80.063 46.5731 79.1215 46.7685 78.4538C46.8663 78.1196 46.9484 77.8528 47.0067 77.6674C47.0359 77.5746 47.0592 77.5021 47.0756 77.4516L47.0949 77.3925L47.1004 77.3756L47.1027 77.3687C47.1028 77.3685 47.1031 77.3675 48.9789 77.9928L47.1031 77.3675C47.4524 76.3197 48.5851 75.7533 49.6329 76.1026M87.0005 78L88.898 77.3681C88.5487 76.3202 87.4159 75.7533 86.368 76.1026C85.3203 76.4519 84.754 77.5843 85.103 78.6321M50.898 78.6321L50.8946 78.6422L50.8805 78.6856C50.8676 78.7254 50.8479 78.7867 50.8224 78.8678C50.7713 79.03 50.6971 79.2711 50.6075 79.5774C50.4279 80.191 50.1876 81.062 49.9473 82.0831C49.4606 84.1515 49.0005 86.7274 49.0005 89C49.0005 104.352 57.6644 114 68.0005 114C78.3366 114 87.0005 104.352 87.0005 89C87.0005 86.7274 86.5403 84.1515 86.0537 82.0831C85.8134 81.062 85.5731 80.191 85.3935 79.5774C85.3038 79.2711 85.2296 79.03 85.1786 78.8678C85.1531 78.7867 85.1334 78.7254 85.1205 78.6856L85.1064 78.6422L85.103 78.6321" fill="#1C3553"/>
<path fill-rule="evenodd" clip-rule="evenodd" d="M68.9996 52.9399C69.0328 54.044 68.1647 54.9659 67.0606 54.9991L66.6196 55.0129C66.3529 55.0215 65.9965 55.0334 65.6356 55.0466C65.2731 55.0598 64.9126 55.0741 64.6354 55.0875C64.4955 55.0943 64.3867 55.1004 64.3133 55.1054L64.2832 55.1076C64.2539 55.1118 64.2244 55.1154 64.1949 55.1183C60.9151 55.44 57.5689 56.5214 53.8217 59.7455C50.0092 63.0258 45.7297 68.5703 40.7677 77.9363C29.546 99.118 29.5603 111.253 31.8821 117.897C33.044 121.221 34.8222 123.296 36.2672 124.533C36.9939 125.155 37.6413 125.568 38.0907 125.82C38.3151 125.946 38.489 126.03 38.5972 126.08C38.6512 126.105 38.6887 126.121 38.7076 126.129C38.7136 126.131 38.7177 126.133 38.7199 126.134C39.7445 126.529 40.2601 127.677 39.8717 128.706C39.4817 129.74 38.3278 130.261 37.2944 129.871L38.0005 128C37.2944 129.871 37.2924 129.87 37.2903 129.87L37.2858 129.868L37.2752 129.864L37.248 129.853C37.2273 129.845 37.2013 129.834 37.1704 129.822C37.1087 129.796 37.0272 129.761 36.9279 129.715C36.7295 129.624 36.4597 129.491 36.1355 129.31C35.4877 128.947 34.6183 128.386 33.6666 127.572C31.7547 125.936 29.5297 123.289 28.1061 119.216C25.257 111.064 25.7712 97.699 37.2331 76.0637C42.3071 66.4862 46.8656 60.4538 51.2129 56.7134C55.6026 52.9365 59.7181 51.5483 63.7417 51.1436C63.8075 51.1341 63.8535 51.13 63.8622 51.1292L63.8636 51.1291C63.9225 51.1233 63.9842 51.1186 64.0397 51.1148C64.1531 51.107 64.2931 51.0994 64.4423 51.0922C64.7434 51.0776 65.1227 51.0627 65.4896 51.0493C65.8581 51.0358 66.2207 51.0237 66.4906 51.015L66.9398 51.0009C68.0439 50.9677 68.9664 51.8358 68.9996 52.9399ZM96.1537 80.1881C97.1544 79.7204 98.3447 80.1525 98.8124 81.1532C107.716 100.203 107.902 112.251 105.492 119.712C104.289 123.439 102.463 125.932 100.887 127.512C100.102 128.298 99.385 128.853 98.8457 129.219C98.576 129.403 98.3503 129.539 98.1824 129.635C98.1358 129.661 98.0936 129.685 98.0561 129.705C98.026 129.721 97.999 129.736 97.9751 129.748C97.9483 129.762 97.9255 129.774 97.9068 129.783L97.8821 129.795L97.8721 129.8L97.8678 129.802C97.8658 129.803 97.8638 129.804 97.0005 128L97.8638 129.804C96.8674 130.281 95.6732 129.86 95.1964 128.863C94.7223 127.872 95.1363 126.686 96.121 126.204C96.1221 126.203 96.1237 126.202 96.1257 126.201C96.1375 126.195 96.1644 126.181 96.2048 126.158C96.2856 126.112 96.4203 126.031 96.5967 125.911C96.9496 125.671 97.4676 125.275 98.0555 124.686C99.2248 123.515 100.693 121.557 101.686 118.483C103.669 112.342 103.855 101.39 95.1887 82.8468C94.721 81.8461 95.1531 80.6558 96.1537 80.1881Z" fill="#1C3553"/>
<path fill-rule="evenodd" clip-rule="evenodd" d="M73.2708 69.1375C74.0375 68.8375 74.9098 69.0381 75.4685 69.6428C76.4153 70.6676 78.1728 72.2983 80.3099 73.6575C82.4746 75.0343 84.8211 76 87.0005 76C88.1051 76 89.0005 76.8954 89.0005 78C89.0005 79.1046 88.1051 80 87.0005 80C83.7287 80 80.6157 78.5925 78.1632 77.0327C77.3932 76.5429 76.6678 76.025 75.9995 75.5069V78C75.9995 79.1046 75.1041 80 73.9995 80H49.0005C47.8959 80 47.0005 79.1046 47.0005 78C47.0005 76.8954 47.8959 76 49.0005 76H71.9995V71C71.9995 70.1767 72.5041 69.4375 73.2708 69.1375Z" fill="#1C3553"/>
<path fill-rule="evenodd" clip-rule="evenodd" d="M94.3942 35C93.3419 35 92.6909 35.7277 92.6673 36.4408C92.5192 40.9341 93.615 45.6575 96.4457 49.4072C99.2395 53.108 103.869 56.0571 111.206 56.8126C112.085 56.9031 113 56.1676 113 55V50.5086L108.854 49.3241L107.664 51.1094C107.105 51.9486 106.008 52.2399 105.106 51.7889L106 50C105.106 51.7889 105.105 51.7886 105.105 51.7884L105.101 51.7864L105.094 51.7829L105.073 51.7724C105.057 51.7639 105.034 51.7525 105.007 51.7381C104.952 51.7095 104.876 51.6691 104.782 51.6175C104.593 51.5144 104.331 51.3657 104.02 51.1753C103.401 50.7971 102.565 50.2412 101.72 49.5364C100.156 48.2333 98.0002 45.963 98.0002 43C98.0002 42.6052 98.117 42.2192 98.336 41.8906L100 39.3945V35H94.3942ZM105.395 47.3025L106.336 45.8906C106.818 45.1669 107.713 44.838 108.55 45.077L114.099 46.6625C115.816 47.1531 117 48.7227 117 50.5086V55C117 58.2506 114.312 61.1536 110.796 60.7916C102.491 59.9364 96.7951 56.5089 93.2533 51.8172C89.7484 47.1745 88.4988 41.4896 88.6695 36.309C88.775 33.1086 91.5308 31 94.3942 31H100C102.209 31 104 32.7909 104 35V40C104 40.3948 103.883 40.7808 103.664 41.1094L102.064 43.5103C102.285 44.4287 103.074 45.4577 104.281 46.4636C104.659 46.7793 105.042 47.0611 105.395 47.3025Z" fill="#1C3553"/>
</svg>
9 60.7681 95.2041 61.148 95.3316 61.5351C96.1209 63.9308 97 66.5988 97 69.7567C97 76.7314 94.8671 83.2163 91.3349 88.0029C87.8055 92.7858 82.7617 96 77 96C71.2383 96 66.1945 92.7858 62.6651 88.0029C59.1329 83.2163 57 76.7314 57 69.7567C57 66.5988 57.8791 63.9308 58.6684 61.5351C58.7959 61.148 58.9211 60.7681 59.0399 60.3943C59.3743 59.3416 60.4989 58.7594 61.5516 59.0939Z" fill="#1C3553"/>
<path fill-rule="evenodd" clip-rule="evenodd" d="M67.1787 43.9802C63.6654 46.5906 59.6224 51.5293 54.6841 60.9301C44.8251 79.6982 45.0539 90.3121 47.2187 96.0433C48.3036 98.9159 49.9203 100.699 51.2292 101.758C51.8876 102.291 52.4719 102.643 52.8759 102.857C53.0776 102.963 53.2331 103.035 53.3287 103.076C53.3764 103.097 53.4091 103.11 53.4249 103.116C53.4292 103.118 53.4323 103.119 53.434 103.12C54.4661 103.493 55.0051 104.63 54.6387 105.667C54.2705 106.708 53.1278 107.254 52.0864 106.886L52.753 105C52.0864 106.886 52.0845 106.885 52.0825 106.884L52.0781 106.883L52.0678 106.879L52.0419 106.869C52.0222 106.862 51.9978 106.853 51.9688 106.842C51.9109 106.819 51.8348 106.788 51.7424 106.748C51.5577 106.668 51.3072 106.552 51.0065 106.393C50.4055 106.075 49.5988 105.584 48.7128 104.867C46.9328 103.427 44.8468 101.084 43.4767 97.4567C40.7312 90.188 41.0403 78.3019 51.1429 59.0699C56.1855 49.4705 60.5675 43.9091 64.7931 40.7695C69.1287 37.5482 73.1327 36.9999 76.9999 37C80.8669 37.0001 84.871 37.5485 89.2066 40.7697C93.4323 43.9093 97.8144 49.4707 102.857 59.0699C112.96 78.3019 113.269 90.188 110.523 97.4567C109.153 101.084 107.067 103.427 105.287 104.867C104.401 105.584 103.594 106.075 102.993 106.393C102.693 106.552 102.442 106.668 102.258 106.748C102.165 106.788 102.089 106.819 102.031 106.842C102.002 106.853 101.978 106.862 101.958 106.869L101.932 106.879L101.922 106.883L101.917 106.884C101.915 106.885 101.914 106.886 101.247 105L101.914 106.886C100.872 107.254 99.7294 106.708 99.3613 105.667C98.9948 104.63 99.534 103.493 100.566 103.119C100.568 103.119 100.571 103.118 100.575 103.116C100.591 103.11 100.624 103.097 100.671 103.076C100.767 103.035 100.922 102.963 101.124 102.857C101.528 102.643 102.112 102.291 102.771 101.758C104.08 100.699 105.696 98.9159 106.781 96.0433C108.946 90.3121 109.175 79.6982 99.3158 60.9301C94.3776 51.5295 90.3344 46.5909 86.8211 43.9805C83.4176 41.4518 80.3687 41.0001 76.9998 41C73.6308 40.9999 70.5821 41.4515 67.1787 43.9802Z" fill="#1C3553"/>
<path fill-rule="evenodd" clip-rule="evenodd" d="M82.2516 53.136C83.0204 52.837 83.8939 53.0408 84.4511 53.649C84.5423 53.7486 84.6354 53.8508 84.7306 53.9552C85.6352 54.9481 86.7207 56.1397 88.0715 57.1464C89.5463 58.2455 91.1814 59 93 59C94.1046 59 95 59.8954 95 61C95 62.1046 94.1046 63 93 63C90.0215 63 87.561 61.7546 85.6812 60.3536C85.4391 60.1732 85.2041 59.9881 84.9764 59.8006V61C84.9764 62.1046 84.081 63 82.9764 63H61C59.8954 63 59 62.1046 59 61C59 59.8954 59.8954 59 61 59H80.9764V55C80.9764 54.1751 81.4828 53.4349 82.2516 53.136Z" fill="#1C3553"/>
</svg>
