<svg width="156" height="156" viewBox="0 0 156 156" fill="none" xmlns="http://www.w3.org/2000/svg">
<path fill-rule="evenodd" clip-rule="evenodd" d="M35 63.9656C35 62.88 35.8954 62 36.9999 62H121C122.105 62 123 62.88 123 63.9656V78.8194H115.226C109.026 78.8194 104 83.7587 104 89.8516C104 95.9446 109.026 100.884 115.226 100.884H123V117.034C123 118.12 122.105 119 121 119H70.2656C72.0145 115.823 73 112.231 73 108.427C73 95.4798 61.5832 84.9836 47.5 84.9836C42.9582 84.9836 38.6937 86.0753 35 87.9888V63.9656Z" fill="#C2DDFF"/>
<path d="M117 94C119.209 94 121 92.2091 121 90C121 87.7909 119.209 86 117 86C114.791 86 113 87.7909 113 90C113 92.2091 114.791 94 117 94Z" fill="#C2DDFF"/>
<path fill-rule="evenodd" clip-rule="evenodd" d="M27 58.5378C27 56.0316 29.0594 54 31.6 54H118.6C125.448 54 131 59.4766 131 66.2324V70.9633C131 72.053 130.105 72.9363 129 72.9363C127.895 72.9363 127 72.053 127 70.9633V66.2324C127 61.6559 123.239 57.9459 118.6 57.9459H31.6C31.2686 57.9459 31 58.2109 31 58.5378V82.8666C31 83.9563 30.1046 84.8396 29 84.8396C27.8954 84.8396 27 83.9563 27 82.8666V58.5378ZM129 106.466C130.105 106.466 131 107.35 131 108.439V114.768C131 121.523 125.448 127 118.6 127H78.9999C77.8954 127 76.9999 126.117 76.9999 125.027C76.9999 123.937 77.8954 123.054 78.9999 123.054H118.6C123.239 123.054 127 119.344 127 114.768V108.439C127 107.35 127.895 106.466 129 106.466Z" fill="#1C3553"/>
<path fill-rule="evenodd" clip-rule="evenodd" d="M116 80C110.477 80 106 84.4771 106 89.9999C106 95.5228 110.477 100 116 100H131.4C131.731 100 132 99.731 132 99.4V80.6C132 80.269 131.731 80 131.4 80H116ZM102 89.9999C102 82.2679 108.268 76 116 76H131.4C133.939 76 136 78.0591 136 80.6V99.4C136 101.941 133.939 104 131.4 104H116C108.268 104 102 97.7319 102 89.9999Z" fill="#1C3553"/>
<path fill-rule="evenodd" clip-rule="evenodd" d="M117 88C115.895 88 115 88.8954 115 90C115 91.1046 115.895 92 117 92C118.105 92 119 91.1046 119 90C119 88.8954 118.105 88 117 88ZM111 90C111 86.6863 113.686 84 117 84C120.314 84 123 86.6863 123 90C123 93.3137 120.314 96 117 96C113.686 96 111 93.3137 111 90Z" fill="#1C3553"/>
<path fill-rule="evenodd" clip-rule="evenodd" d="M107.283 31.079C108.325 30.7797 109.418 31.3565 109.747 32.3791L114.905 48.4217C115.24 49.4629 114.658 50.5753 113.606 50.9064C112.553 51.2375 111.428 50.662 111.094 49.6208L106.526 35.4164L52.5583 50.921C51.4976 51.2257 50.388 50.6222 50.0799 49.573C49.7718 48.5238 50.3819 47.4263 51.4426 47.1215L107.283 31.079Z" fill="#1C3553"/>
<path fill-rule="evenodd" clip-rule="evenodd" d="M84.0623 21.2336C85.0165 20.7273 86.2003 21.0702 86.7362 22.008L90.7361 29.0078C91.2842 29.9669 90.951 31.1885 89.9919 31.7365C89.0329 32.2845 87.8112 31.9514 87.2632 30.9923L84.225 25.6754L36.9378 50.7663C35.9621 51.284 34.7514 50.9128 34.2337 49.9371C33.716 48.9614 34.0872 47.7507 35.063 47.233L84.0623 21.2336Z" fill="#1C3553"/>
<path fill-rule="evenodd" clip-rule="evenodd" d="M47.5 86.9273C34.5213 86.9273 24 97.2573 24 110C24 122.743 34.5213 133.073 47.5 133.073C60.4787 133.073 71 122.743 71 110C71 97.2573 60.4787 86.9273 47.5 86.9273ZM20 110C20 95.0883 32.3122 83 47.5 83C62.6878 83 75 95.0883 75 110C75 124.912 62.6878 137 47.5 137C32.3122 137 20 124.912 20 110Z" fill="#1C3553"/>
<path fill-rule="evenodd" clip-rule="evenodd" d="M35 109.5C35 100.858 40.7202 93 48.7353 93C51.9876 93 55.03 94.1456 57.4205 96.4864C58.1981 97.2479 58.1924 98.4769 57.4079 99.2317C56.6234 99.9864 55.3571 99.9809 54.5795 99.2195C52.9738 97.6471 50.9694 96.8824 48.7353 96.8824C43.7879 96.8824 39 102.061 39 109.5C39 116.939 43.788 122.118 48.7353 122.118C50.9693 122.118 52.9738 121.353 54.5796 119.78C55.3572 119.019 56.6235 119.014 57.408 119.768C58.1925 120.523 58.198 121.752 57.4204 122.514C55.03 124.854 51.9876 126 48.7353 126C40.7202 126 35 118.142 35 109.5Z" fill="#1C3553"/>
<path fill-rule="evenodd" clip-rule="evenodd" d="M31 105C31 103.895 31.8954 103 33 103H52C53.1046 103 54 103.895 54 105C54 106.105 53.1046 107 52 107H33C31.8954 107 31 106.105 31 105Z" fill="#1C3553"/>
<path fill-rule="evenodd" clip-rule="evenodd" d="M31 113C31 111.895 31.8954 111 33 111H49C50.1046 111 51 111.895 51 113C51 114.105 50.1046 115 49 115H33C31.8954 115 31 114.105 31 113Z" fill="#1C3553"/>
</svg>
