<svg width="156" height="156" viewBox="0 0 156 156" fill="none" xmlns="http://www.w3.org/2000/svg">
<path d="M19.6359 118.484C20.0216 117.821 20.9784 117.821 21.3641 118.484L23.6727 122.447C23.814 122.69 24.0508 122.862 24.3251 122.921L28.8081 123.892C29.5571 124.054 29.8528 124.964 29.3421 125.536L26.286 128.956C26.0989 129.165 26.0085 129.444 26.0367 129.723L26.4988 134.287C26.576 135.049 25.802 135.611 25.1006 135.302L20.9032 133.453C20.6463 133.339 20.3537 133.339 20.0968 133.453L15.8994 135.302C15.198 135.611 14.424 135.049 14.5012 134.287L14.9633 129.723C14.9915 129.444 14.9011 129.165 14.714 128.956L11.6579 125.536C11.1472 124.964 11.4429 124.054 12.1919 123.892L16.6749 122.921C16.9492 122.862 17.186 122.69 17.3273 122.447L19.6359 118.484Z" fill="#C2DDFF"/>
<path d="M48.6359 118.484C49.0216 117.821 49.9784 117.821 50.3641 118.484L52.6727 122.447C52.814 122.69 53.0508 122.862 53.3251 122.921L57.8081 123.892C58.5571 124.054 58.8528 124.964 58.3421 125.536L55.286 128.956C55.0989 129.165 55.0085 129.444 55.0367 129.723L55.4988 134.287C55.576 135.049 54.802 135.611 54.1006 135.302L49.9032 133.453C49.6463 133.339 49.3537 133.339 49.0968 133.453L44.8994 135.302C44.198 135.611 43.424 135.049 43.5012 134.287L43.9633 129.723C43.9915 129.444 43.9011 129.165 43.714 128.956L40.6579 125.536C40.1472 124.964 40.4429 124.054 41.1919 123.892L45.6749 122.921C45.9492 122.862 46.186 122.69 46.3273 122.447L48.6359 118.484Z" fill="#C2DDFF"/>
<path d="M77.6359 118.484C78.0216 117.821 78.9784 117.821 79.3641 118.484L81.6727 122.447C81.814 122.69 82.0508 122.862 82.3251 122.921L86.8081 123.892C87.5571 124.054 87.8528 124.964 87.3421 125.536L84.286 128.956C84.0989 129.165 84.0085 129.444 84.0367 129.723L84.4988 134.287C84.576 135.049 83.802 135.611 83.1006 135.302L78.9032 133.453C78.6463 133.339 78.3537 133.339 78.0968 133.453L73.8994 135.302C73.198 135.611 72.424 135.049 72.5012 134.287L72.9633 129.723C72.9915 129.444 72.9011 129.165 72.714 128.956L69.6579 125.536C69.1472 124.964 69.4429 124.054 70.1919 123.892L74.6749 122.921C74.9492 122.862 75.186 122.69 75.3273 122.447L77.6359 118.484Z" fill="#C2DDFF"/>
<path d="M106.636 118.484C107.022 117.821 107.978 117.821 108.364 118.484L110.673 122.447C110.814 122.69 111.051 122.862 111.325 122.921L115.808 123.892C116.557 124.054 116.853 124.964 116.342 125.536L113.286 128.956C113.099 129.165 113.008 129.444 113.037 129.723L113.499 134.287C113.576 135.049 112.802 135.611 112.101 135.302L107.903 133.453C107.646 133.339 107.354 133.339 107.097 133.453L102.899 135.302C102.198 135.611 101.424 135.049 101.501 134.287L101.963 129.723C101.992 129.444 101.901 129.165 101.714 128.956L98.6579 125.536C98.1472 124.964 98.4429 124.054 99.1919 123.892L103.675 122.921C103.949 122.862 104.186 122.69 104.327 122.447L106.636 118.484Z" fill="#C2DDFF"/>
<path d="M134.636 118.484C135.022 117.821 135.978 117.821 136.364 118.484L138.673 122.447C138.814 122.69 139.051 122.862 139.325 122.921L143.808 123.892C144.557 124.054 144.853 124.964 144.342 125.536L141.286 128.956C141.099 129.165 141.008 129.444 141.037 129.723L141.499 134.287C141.576 135.049 140.802 135.611 140.101 135.302L135.903 133.453C135.646 133.339 135.354 133.339 135.097 133.453L130.899 135.302C130.198 135.611 129.424 135.049 129.501 134.287L129.963 129.723C129.992 129.444 129.901 129.165 129.714 128.956L126.658 125.536C126.147 124.964 126.443 124.054 127.192 123.892L131.675 122.921C131.949 122.862 132.186 122.69 132.327 122.447L134.636 118.484Z" fill="#C2DDFF"/>
<path d="M19.6359 118.484C20.0216 117.821 20.9784 117.821 21.3641 118.484L23.6727 122.447C23.814 122.69 24.0508 122.862 24.3251 122.921L28.8081 123.892C29.5571 124.054 29.8528 124.964 29.3421 125.536L26.286 128.956C26.0989 129.165 26.0085 129.444 26.0367 129.723L26.4988 134.287C26.576 135.049 25.802 135.611 25.1006 135.302L20.9032 133.453C20.6463 133.339 20.3537 133.339 20.0968 133.453L15.8994 135.302C15.198 135.611 14.424 135.049 14.5012 134.287L14.9633 129.723C14.9915 129.444 14.9011 129.165 14.714 128.956L11.6579 125.536C11.1472 124.964 11.4429 124.054 12.1919 123.892L16.6749 122.921C16.9492 122.862 17.186 122.69 17.3273 122.447L19.6359 118.484Z" stroke="#1C3553" stroke-width="4" stroke-linecap="round" stroke-linejoin="round"/>
<path d="M48.6359 118.484C49.0216 117.821 49.9784 117.821 50.3641 118.484L52.6727 122.447C52.814 122.69 53.0508 122.862 53.3251 122.921L57.8081 123.892C58.5571 124.054 58.8528 124.964 58.3421 125.536L55.286 128.956C55.0989 129.165 55.0085 129.444 55.0367 129.723L55.4988 134.287C55.576 135.049 54.802 135.611 54.1006 135.302L49.9032 133.453C49.6463 133.339 49.3537 133.339 49.0968 133.453L44.8994 135.302C44.198 135.611 43.424 135.049 43.5012 134.287L43.9633 129.723C43.9915 129.444 43.9011 129.165 43.714 128.956L40.6579 125.536C40.1472 124.964 40.4429 124.054 41.1919 123.892L45.6749 122.921C45.9492 122.862 46.186 122.69 46.3273 122.447L48.6359 118.484Z" stroke="#1C3553" stroke-width="4" stroke-linecap="round" stroke-linejoin="round"/>
<path d="M77.6359 118.484C78.0216 117.821 78.9784 117.821 79.3641 118.484L81.6727 122.447C81.814 122.69 82.0508 122.862 82.3251 122.921L86.8081 123.892C87.5571 124.054 87.8528 124.964 87.3421 125.536L84.286 128.956C84.0989 129.165 84.0085 129.444 84.0367 129.723L84.4988 134.287C84.576 135.049 83.802 135.611 83.1006 135.302L78.9032 133.453C78.6463 133.339 78.3537 133.339 78.0968 133.453L73.8994 135.302C73.198 135.611 72.424 135.049 72.5012 134.287L72.9633 129.723C72.9915 129.444 72.9011 129.165 72.714 128.956L69.6579 125.536C69.1472 124.964 69.4429 124.054 70.1919 123.892L74.6749 122.921C74.9492 122.862 75.186 122.69 75.3273 122.447L77.6359 118.484Z" stroke="#1C3553" stroke-width="4" stroke-linecap="round" stroke-linejoin="round"/>
<path d="M106.636 118.484C107.022 117.821 107.978 117.821 108.364 118.484L110.673 122.447C110.814 122.69 111.051 122.862 111.325 122.921L115.808 123.892C116.557 124.054 116.853 124.964 116.342 125.536L113.286 128.956C113.099 129.165 113.008 129.444 113.037 129.723L113.499 134.287C113.576 135.049 112.802 135.611 112.101 135.302L107.903 133.453C107.646 133.339 107.354 133.339 107.097 133.453L102.899 135.302C102.198 135.611 101.424 135.049 101.501 134.287L101.963 129.723C101.992 129.444 101.901 129.165 101.714 128.956L98.6579 125.536C98.1472 124.964 98.4429 124.054 99.1919 123.892L103.675 122.921C103.949 122.862 104.186 122.69 104.327 122.447L106.636 118.484Z" stroke="#1C3553" stroke-width="4" stroke-linecap="round" stroke-linejoin="round"/>
<path d="M134.636 118.484C135.022 117.821 135.978 117.821 136.364 118.484L138.673 122.447C138.814 122.69 139.051 122.862 139.325 122.921L143.808 123.892C144.557 124.054 144.853 124.964 144.342 125.536L141.286 128.956C141.099 129.165 141.008 129.444 141.037 129.723L141.499 134.287C141.576 135.049 140.802 135.611 140.101 135.302L135.903 133.453C135.646 133.339 135.354 133.339 135.097 133.453L130.899 135.302C130.198 135.611 129.424 135.049 129.501 134.287L129.963 129.723C129.992 129.444 129.901 129.165 129.714 128.956L126.658 125.536C126.147 124.964 126.443 124.054 127.192 123.892L131.675 122.921C131.949 122.862 132.186 122.69 132.327 122.447L134.636 118.484Z" stroke="#1C3553" stroke-width="4" stroke-linecap="round" stroke-linejoin="round"/>
<path fill-rule="evenodd" clip-rule="evenodd" d="M107.55 110.55C118.195 101.934 125 88.7616 125 74C125 48.0426 103.957 27 78 27C52.0426 27 31 48.0426 31 74C31 88.3444 37.426 101.188 47.5564 109.809L52 106L47 100L44 91L46 77L55 56L66 42L73 39H81L88 42L99 56L106 71L110 84L109 96L102 105L107.55 110.55Z" fill="#C2DDFF"/>
<path fill-rule="evenodd" clip-rule="evenodd" d="M78 24C62.8851 24 49.3383 30.7043 40.167 41.3083C39.4444 42.1438 38.1814 42.2353 37.3459 41.5127C36.5105 40.7901 36.419 39.5271 37.1416 38.6917C47.0404 27.2466 61.675 20 78 20C107.823 20 132 44.1766 132 74C132 87.4973 127.045 99.8425 118.858 109.308C118.136 110.144 116.873 110.235 116.037 109.513C115.202 108.79 115.11 107.527 115.833 106.692C123.415 97.925 128 86.5004 128 74C128 46.3858 105.614 24 78 24ZM33.9581 46.2688C34.9142 46.8219 35.241 48.0453 34.6879 49.0015C30.4348 56.3537 28 64.8895 28 74C28 86.5004 32.5847 97.925 40.167 106.692C40.8895 107.527 40.798 108.79 39.9626 109.513C39.1271 110.235 37.8641 110.144 37.1416 109.308C28.9546 99.8425 24 87.4973 24 74C24 64.1676 26.6297 54.9433 31.2255 46.9985C31.7785 46.0424 33.002 45.7157 33.9581 46.2688Z" fill="#1C3553"/>
<path fill-rule="evenodd" clip-rule="evenodd" d="M68 89C69.1046 89 70 89.8954 70 91V100C70 100.988 69.2791 101.827 68.3029 101.977C64.0119 102.634 56.0038 104.825 49.4142 111.414C48.6332 112.195 47.3668 112.195 46.5858 111.414C45.8047 110.633 45.8047 109.367 46.5858 108.586C53.1894 101.982 61.0048 99.3396 66 98.3259V91C66 89.8954 66.8954 89 68 89Z" fill="#1C3553"/>
<path fill-rule="evenodd" clip-rule="evenodd" d="M86 89C84.8954 89 84 89.8954 84 91V100C84 100.988 84.7208 101.827 85.6971 101.977C90.1121 102.653 98.9678 104.869 104.481 111.302C105.2 112.14 106.463 112.237 107.302 111.519C108.14 110.8 108.237 109.537 107.518 108.698C101.738 101.955 93.0968 99.3171 88 98.3196V91C88 89.8954 87.1045 89 86 89Z" fill="#1C3553"/>
<path fill-rule="evenodd" clip-rule="evenodd" d="M97.7881 103.102C98.2828 104.089 97.8833 105.291 96.8957 105.786C88.8504 109.816 82.7543 111.997 76.6404 111.998C70.5092 111.998 64.644 109.807 57.0593 105.765C56.0845 105.245 55.7154 104.034 56.2349 103.059C56.7544 102.084 57.9658 101.715 58.9406 102.235C66.3644 106.191 71.5153 107.998 76.64 107.998C81.782 107.997 87.1816 106.178 95.1041 102.209C96.0917 101.715 97.2934 102.114 97.7881 103.102Z" fill="#1C3553"/>
<path fill-rule="evenodd" clip-rule="evenodd" d="M61.5516 59.0939C62.6043 59.4284 63.1865 60.5529 62.852 61.6056C62.7145 62.0385 62.5781 62.456 62.4453 62.8624C61.6585 65.2707 61 67.2864 61 69.7567C61 75.9474 62.8996 81.584 65.8836 85.6278C68.8704 89.6752 72.8266 92 77 92C81.1734 92 85.1296 89.6752 88.1164 85.6278C91.1004 81.584 93 75.9474 93 69.7567C93 67.2864 92.3415 65.2707 91.5547 62.8624C91.4219 62.456 91.2855 62.0385 91.148 61.6056C90.8135 60.5529 91.3957 59.4284 92.4484 59.0939C93.5011 58.7594 94.6257 59.3416 94.9601 60.3943C95.0789 60.7681 95.2041 61.148 95.3316 61.5351C96.1209 63.9308 97 66.5988 97 69.7567C97 76.7314 94.8671 83.2163 91.3349 88.0029C87.8055 92.7858 82.7617 96 77 96C71.2383 96 66.1945 92.7858 62.6651 88.0029C59.1329 83.2163 57 76.7314 57 69.7567C57 66.5988 57.8791 63.9308 58.6684 61.5351C58.7959 61.148 58.9211 60.7681 59.0399 60.3943C59.3743 59.3416 60.4989 58.7594 61.5516 59.0939Z" fill="#1C3553"/>
<path fill-rule="evenodd" clip-rule="evenodd" d="M67.179 43.9802C63.6657 46.5906 59.6226 51.5293 54.6843 60.9301C44.8254 79.6982 45.0542 90.3121 47.2189 96.0433C48.3039 98.9159 49.9205 100.699 51.2295 101.758C51.8879 102.291 52.4722 102.643 52.8762 102.857C53.0778 102.963 53.2333 103.035 53.3289 103.076C53.3767 103.097 53.4093 103.11 53.4251 103.116C53.4295 103.118 53.4326 103.119 53.4343 103.12C54.4663 103.493 55.0054 104.63 54.6389 105.667C54.2708 106.708 53.1281 107.254 52.0867 106.886L52.7533 105C52.0867 106.886 52.0847 106.885 52.0827 106.884L52.0783 106.883L52.0681 106.879L52.0422 106.869C52.0225 106.862 51.998 106.853 51.9691 106.842C51.9111 106.819 51.835 106.788 51.7426 106.748C51.5579 106.668 51.3075 106.552 51.0067 106.393C50.4058 106.075 49.5991 105.584 48.713 104.867C46.933 103.427 44.847 101.084 43.4769 97.4567C40.7315 90.188 41.0405 78.3019 51.1432 59.0699C56.1858 49.4705 60.5678 43.9091 64.7934 40.7695C69.1289 37.5482 73.1329 36.9999 77.0001 37C80.8672 37.0001 84.8713 37.5485 89.2069 40.7697C93.4325 43.9093 97.8146 49.4707 102.857 59.0699C112.96 78.3019 113.269 90.188 110.523 97.4567C109.153 101.084 107.067 103.427 105.287 104.867C104.401 105.584 103.595 106.075 102.994 106.393C102.693 106.552 102.443 106.668 102.258 106.748C102.165 106.788 102.089 106.819 102.031 106.842C102.002 106.853 101.978 106.862 101.958 106.869L101.932 106.879L101.922 106.883L101.918 106.884C101.916 106.885 101.914 106.886 101.247 105L101.914 106.886C100.872 107.254 99.7297 106.708 99.3615 105.667C98.995 104.63 99.5342 103.493 100.566 103.119C100.568 103.119 100.571 103.118 100.575 103.116C100.591 103.11 100.624 103.097 100.671 103.076C100.767 103.035 100.923 102.963 101.124 102.857C101.528 102.643 102.113 102.291 102.771 101.758C104.08 100.699 105.696 98.9159 106.781 96.0433C108.946 90.3121 109.175 79.6982 99.316 60.9301C94.3778 51.5295 90.3347 46.5909 86.8213 43.9805C83.4178 41.4518 80.369 41.0001 77 41C73.631 40.9999 70.5823 41.4515 67.179 43.9802Z" fill="#1C3553"/>
<path fill-rule="evenodd" clip-rule="evenodd" d="M82.2516 53.136C83.0204 52.837 83.8939 53.0408 84.4511 53.649C84.5423 53.7486 84.6354 53.8508 84.7306 53.9552C85.6352 54.9481 86.7207 56.1397 88.0715 57.1464C89.5463 58.2455 91.1814 59 93 59C94.1046 59 95 59.8954 95 61C95 62.1046 94.1046 63 93 63C90.0215 63 87.561 61.7546 85.6812 60.3536C85.4391 60.1732 85.2041 59.9881 84.9764 59.8006V61C84.9764 62.1046 84.081 63 82.9764 63H61C59.8954 63 59 62.1046 59 61C59 59.8954 59.8954 59 61 59H80.9764V55C80.9764 54.1751 81.4828 53.4349 82.2516 53.136Z" fill="#1C3553"/>
</svg>
