<svg width="156" height="156" viewBox="0 0 156 156" fill="none" xmlns="http://www.w3.org/2000/svg">
<path d="M19.6359 118.484C20.0216 117.821 20.9784 117.821 21.3641 118.484L23.6727 122.447C23.814 122.69 24.0508 122.862 24.3251 122.921L28.8081 123.892C29.5571 124.054 29.8528 124.964 29.3421 125.536L26.286 128.956C26.0989 129.165 26.0085 129.444 26.0367 129.723L26.4988 134.287C26.576 135.049 25.802 135.611 25.1006 135.302L20.9033 133.453C20.6463 133.34 20.3537 133.34 20.0968 133.453L15.8994 135.302C15.198 135.611 14.424 135.049 14.5012 134.287L14.9633 129.723C14.9915 129.444 14.9011 129.165 14.714 128.956L11.6579 125.536C11.1472 124.964 11.4429 124.054 12.1919 123.892L16.6749 122.921C16.9493 122.862 17.186 122.69 17.3273 122.447L19.6359 118.484Z" fill="#C2DDFF"/>
<path fill-rule="evenodd" clip-rule="evenodd" d="M46.9077 117.477C48.0649 115.49 50.9351 115.49 52.0924 117.477L54.1791 121.06L58.2314 121.937C60.4785 122.424 61.3655 125.154 59.8335 126.868L57.071 129.96L57.4886 134.085C57.7203 136.373 55.3982 138.06 53.2941 137.133L49.5 135.461L45.7059 137.133C43.6019 138.06 41.2798 136.373 41.5114 134.085L41.9291 129.96L39.1665 126.868C37.6345 125.154 38.5215 122.424 40.7686 121.937L44.8209 121.06L46.9077 117.477ZM49.5 120.974L48.0556 123.454C47.6317 124.182 46.9213 124.698 46.0982 124.876L43.2932 125.483L45.2054 127.623C45.7666 128.252 46.0379 129.087 45.9531 129.925L45.664 132.78L48.2903 131.623C49.061 131.283 49.939 131.283 50.7098 131.623L53.336 132.78L53.0469 129.925C52.9621 129.087 53.2334 128.252 53.7946 127.623L55.7068 125.483L52.9019 124.876C52.0787 124.698 51.3684 124.182 50.9445 123.454L49.5 120.974Z" fill="#1C3553"/>
<path fill-rule="evenodd" clip-rule="evenodd" d="M75.9077 117.477C77.0649 115.49 79.9351 115.49 81.0924 117.477L83.1791 121.06L87.2314 121.937C89.4785 122.424 90.3655 125.154 88.8335 126.868L86.071 129.96L86.4886 134.085C86.7203 136.373 84.3982 138.06 82.2941 137.133L78.5 135.461L74.7059 137.133C72.6019 138.06 70.2798 136.373 70.5114 134.085L70.9291 129.96L68.1665 126.868C66.6345 125.154 67.5215 122.424 69.7686 121.937L73.8209 121.06L75.9077 117.477ZM78.5 120.974L77.0556 123.454C76.6317 124.182 75.9213 124.698 75.0982 124.876L72.2932 125.483L74.2054 127.623C74.7666 128.252 75.0379 129.087 74.9531 129.925L74.664 132.78L77.2903 131.623C78.061 131.283 78.939 131.283 79.7098 131.623L82.336 132.78L82.0469 129.925C81.9621 129.087 82.2334 128.252 82.7946 127.623L84.7068 125.483L81.9019 124.876C81.0787 124.698 80.3684 124.182 79.9445 123.454L78.5 120.974Z" fill="#1C3553"/>
<path fill-rule="evenodd" clip-rule="evenodd" d="M104.908 117.477C106.065 115.49 108.935 115.49 110.092 117.477L112.179 121.06L116.231 121.937C118.479 122.424 119.366 125.154 117.834 126.868L115.071 129.96L115.489 134.085C115.72 136.373 113.398 138.06 111.294 137.133L107.5 135.461L103.706 137.133C101.602 138.06 99.2798 136.373 99.5114 134.085L99.9291 129.96L97.1665 126.868C95.6345 125.154 96.5215 122.424 98.7686 121.937L102.821 121.06L104.908 117.477ZM107.5 120.974L106.056 123.454C105.632 124.182 104.921 124.698 104.098 124.876L101.293 125.483L103.205 127.623C103.767 128.252 104.038 129.087 103.953 129.925L103.664 132.78L106.29 131.623C107.061 131.283 107.939 131.283 108.71 131.623L111.336 132.78L111.047 129.925C110.962 129.087 111.233 128.252 111.795 127.623L113.707 125.483L110.902 124.876C110.079 124.698 109.368 124.182 108.944 123.454L107.5 120.974Z" fill="#1C3553"/>
<path fill-rule="evenodd" clip-rule="evenodd" d="M132.908 117.477C134.065 115.49 136.935 115.49 138.092 117.477L140.179 121.06L144.231 121.937C146.479 122.424 147.366 125.154 145.834 126.868L143.071 129.96L143.489 134.085C143.72 136.373 141.398 138.06 139.294 137.133L135.5 135.461L131.706 137.133C129.602 138.06 127.28 136.373 127.511 134.085L127.929 129.96L125.166 126.868C123.635 125.154 124.521 122.424 126.769 121.937L130.821 121.06L132.908 117.477ZM135.5 120.974L134.056 123.454C133.632 124.182 132.921 124.698 132.098 124.876L129.293 125.483L131.205 127.623C131.767 128.252 132.038 129.087 131.953 129.925L131.664 132.78L134.29 131.623C135.061 131.283 135.939 131.283 136.71 131.623L139.336 132.78L139.047 129.925C138.962 129.087 139.233 128.252 139.795 127.623L141.707 125.483L138.902 124.876C138.079 124.698 137.368 124.182 136.944 123.454L135.5 120.974Z" fill="#1C3553"/>
<path fill-rule="evenodd" clip-rule="evenodd" d="M17.9077 117.477C19.0649 115.49 21.9351 115.49 23.0924 117.477L25.1791 121.06L29.2314 121.937C31.4785 122.424 32.3655 125.154 30.8335 126.868L28.071 129.96L28.4886 134.085C28.7203 136.373 26.3982 138.06 24.2941 137.133L20.5 135.461L16.7059 137.133C14.6019 138.06 12.2798 136.373 12.5114 134.085L12.9291 129.96L10.1665 126.868C8.63452 125.154 9.52149 122.424 11.7686 121.937L15.8209 121.06L17.9077 117.477ZM20.5 120.974L19.0556 123.454C18.6317 124.182 17.9213 124.698 17.0982 124.876L14.2932 125.483L16.2054 127.623C16.7666 128.252 17.0379 129.087 16.9531 129.925L16.664 132.78L19.2903 131.623C20.061 131.283 20.939 131.283 21.7098 131.623L24.336 132.78L24.0469 129.925C23.9621 129.087 24.2334 128.252 24.7946 127.623L26.7068 125.483L23.9019 124.876C23.0787 124.698 22.3684 124.182 21.9445 123.454L20.5 120.974Z" fill="#1C3553"/>
<path fill-rule="evenodd" clip-rule="evenodd" d="M107.55 110.55C118.195 101.934 125 88.7616 125 74C125 48.0426 103.957 27 78 27C52.0426 27 31 48.0426 31 74C31 88.3444 37.426 101.188 47.5564 109.809L52 106L47 100L44 91L46 77L55 56L66 42L73 39H81L88 42L99 56L106 71L110 84L109 96L102 105L107.55 110.55Z" fill="#C2DDFF"/>
<path fill-rule="evenodd" clip-rule="evenodd" d="M78 24C62.8851 24 49.3383 30.7043 40.167 41.3083C39.4444 42.1438 38.1814 42.2353 37.3459 41.5127C36.5105 40.7901 36.419 39.5271 37.1416 38.6917C47.0404 27.2466 61.675 20 78 20C107.823 20 132 44.1766 132 74C132 87.4973 127.045 99.8425 118.858 109.308C118.136 110.144 116.873 110.235 116.037 109.513C115.202 108.79 115.11 107.527 115.833 106.692C123.415 97.925 128 86.5004 128 74C128 46.3858 105.614 24 78 24ZM33.9581 46.2688C34.9142 46.8219 35.241 48.0453 34.6879 49.0015C30.4348 56.3537 28 64.8895 28 74C28 86.5004 32.5847 97.925 40.167 106.692C40.8895 107.527 40.798 108.79 39.9626 109.513C39.1271 110.235 37.8641 110.144 37.1416 109.308C28.9546 99.8425 24 87.4973 24 74C24 64.1676 26.6297 54.9433 31.2255 46.9985C31.7785 46.0424 33.002 45.7157 33.9581 46.2688Z" fill="#1C3553"/>
<path fill-rule="evenodd" clip-rule="evenodd" d="M68.0001 89C69.1047 89 70.0001 89.8954 70.0001 91V100C70.0001 100.988 69.2792 101.827 68.303 101.977C64.012 102.634 56.0039 104.825 49.4143 111.414C48.6333 112.195 47.367 112.195 46.5859 111.414C45.8049 110.633 45.8049 109.367 46.5859 108.586C53.1896 101.982 61.0049 99.3396 66.0001 98.3259V91C66.0001 89.8954 66.8956 89 68.0001 89Z" fill="#1C3553"/>
<path fill-rule="evenodd" clip-rule="evenodd" d="M86.0001 89C84.8955 89 84.0001 89.8954 84.0001 91V100C84.0001 100.988 84.721 101.827 85.6972 101.977C90.1122 102.653 98.968 104.869 104.482 111.302C105.2 112.14 106.463 112.237 107.302 111.519C108.14 110.8 108.237 109.537 107.519 108.698C101.738 101.955 93.097 99.3171 88.0001 98.3196V91C88.0001 89.8954 87.1047 89 86.0001 89Z" fill="#1C3553"/>
<path fill-rule="evenodd" clip-rule="evenodd" d="M97.7881 103.102C98.2828 104.089 97.8833 105.291 96.8957 105.786C88.8504 109.816 82.7543 111.997 76.6404 111.998C70.5092 111.998 64.644 109.807 57.0593 105.765C56.0845 105.245 55.7154 104.034 56.2349 103.059C56.7544 102.084 57.9658 101.715 58.9406 102.235C66.3644 106.191 71.5153 107.998 76.64 107.998C81.782 107.997 87.1816 106.178 95.1041 102.209C96.0917 101.715 97.2934 102.114 97.7881 103.102Z" fill="#1C3553"/>
<path fill-rule="evenodd" clip-rule="evenodd" d="M61.5516 59.094C62.6043 59.4284 63.1866 60.553 62.8521 61.6057C62.7145 62.0385 62.5781 62.4561 62.4454 62.8625C61.6586 65.2707 61 67.2865 61 69.7568C61 75.9475 62.8996 81.5841 65.8836 85.6279C68.8704 89.6753 72.8266 92 77 92C81.1735 92 85.1297 89.6753 88.1164 85.6279C91.1005 81.5841 93 75.9475 93 69.7568C93 67.2865 92.3415 65.2707 91.5547 62.8625C91.4219 62.4561 91.2855 62.0385 91.148 61.6057C90.8135 60.553 91.3957 59.4284 92.4484 59.094C93.5011 58.7595 94.6257 59.3417 94.9602 60.3944C95.0789 60.7681 95.2041 61.1481 95.3316 61.5351C96.121 63.9308 97 66.5989 97 69.7568C97 76.7314 94.8671 83.2164 91.335 88.0029C87.8055 92.7858 82.7617 96 77 96C71.2384 96 66.1946 92.7858 62.6651 88.0029C59.1329 83.2164 57 76.7314 57 69.7568C57 66.5989 57.8791 63.9308 58.6684 61.5351C58.7959 61.1481 58.9211 60.7681 59.0399 60.3944C59.3744 59.3417 60.4989 58.7595 61.5516 59.094Z" fill="#1C3553"/>
<path fill-rule="evenodd" clip-rule="evenodd" d="M67.1789 43.9802C63.6656 46.5906 59.6225 51.5293 54.6842 60.9301C44.8252 79.6982 45.0541 90.3121 47.2188 96.0433C48.3038 98.9159 49.9204 100.699 51.2294 101.758C51.8877 102.291 52.4721 102.643 52.876 102.857C53.0777 102.963 53.2332 103.035 53.3288 103.076C53.3766 103.097 53.4092 103.11 53.425 103.116C53.4294 103.118 53.4324 103.119 53.4342 103.12C54.4662 103.493 55.0052 104.63 54.6388 105.667C54.2706 106.708 53.128 107.254 52.0866 106.886L52.7532 105C52.0866 106.886 52.0846 106.885 52.0826 106.884L52.0782 106.883L52.0679 106.879L52.042 106.869C52.0224 106.862 51.9979 106.853 51.9689 106.842C51.911 106.819 51.8349 106.788 51.7425 106.748C51.5578 106.668 51.3074 106.552 51.0066 106.393C50.4057 106.075 49.599 105.584 48.7129 104.867C46.9329 103.427 44.8469 101.084 43.4768 97.4567C40.7314 90.188 41.0404 78.3019 51.1431 59.0699C56.1857 49.4705 60.5677 43.9091 64.7933 40.7695C69.1288 37.5482 73.1328 36.9999 77 37C80.8671 37.0001 84.8711 37.5485 89.2067 40.7697C93.4324 43.9093 97.8145 49.4707 102.857 59.0699C112.96 78.3019 113.269 90.188 110.523 97.4567C109.153 101.084 107.067 103.427 105.287 104.867C104.401 105.584 103.595 106.075 102.994 106.393C102.693 106.552 102.442 106.668 102.258 106.748C102.165 106.788 102.089 106.819 102.031 106.842C102.002 106.853 101.978 106.862 101.958 106.869L101.932 106.879L101.922 106.883L101.918 106.884C101.916 106.885 101.914 106.886 101.247 105L101.914 106.886C100.872 107.254 99.7295 106.708 99.3614 105.667C98.9949 104.63 99.5341 103.493 100.566 103.119C100.568 103.119 100.571 103.118 100.575 103.116C100.591 103.11 100.624 103.097 100.671 103.076C100.767 103.035 100.922 102.963 101.124 102.857C101.528 102.643 102.112 102.291 102.771 101.758C104.08 100.699 105.696 98.9159 106.781 96.0433C108.946 90.3121 109.175 79.6982 99.3159 60.9301C94.3777 51.5295 90.3346 46.5909 86.8212 43.9805C83.4177 41.4518 80.3688 41.0001 76.9999 41C73.6309 40.9999 70.5822 41.4515 67.1789 43.9802Z" fill="#1C3553"/>
<path fill-rule="evenodd" clip-rule="evenodd" d="M82.2517 53.1359C83.0205 52.837 83.894 53.0407 84.4512 53.649C84.5424 53.7485 84.6355 53.8507 84.7306 53.9551C85.6352 54.9481 86.7208 56.1396 88.0716 57.1463C89.5463 58.2454 91.1815 59 93.0001 59C94.1046 59 95.0001 59.8954 95.0001 61C95.0001 62.1045 94.1046 63 93.0001 63C90.0215 63 87.561 61.7545 85.6813 60.3536C85.4392 60.1731 85.2041 59.9881 84.9765 59.8005V61C84.9765 62.1045 84.081 63 82.9765 63H61.0001C59.8955 63 59.0001 62.1045 59.0001 61C59.0001 59.8954 59.8955 59 61.0001 59H80.9765V55C80.9765 54.1751 81.4829 53.4348 82.2517 53.1359Z" fill="#1C3553"/>
</svg>
