<svg width="156" height="156" viewBox="0 0 156 156" fill="none" xmlns="http://www.w3.org/2000/svg">
<path d="M48 42C48 40.8954 48.8954 40 50 40H106C107.105 40 108 40.8954 108 42V98C108 99.1046 107.105 100 106 100H50C48.8954 100 48 99.1046 48 98V42Z" fill="#C2DDFF"/>
<path fill-rule="evenodd" clip-rule="evenodd" d="M32 30C32 26.6863 34.6863 24 38 24H118C121.314 24 124 26.6863 124 30V110C124 113.314 121.314 116 118 116H38C34.6863 116 32 113.314 32 110V56C32 54.8954 32.8954 54 34 54C35.1046 54 36 54.8954 36 56V110C36 111.105 36.8954 112 38 112H118C119.105 112 120 111.105 120 110V30C120 28.8954 119.105 28 118 28H38C36.8954 28 36 28.8954 36 30V48C36 49.1046 35.1046 50 34 50C32.8954 50 32 49.1046 32 48V30Z" fill="#1C3553"/>
<path fill-rule="evenodd" clip-rule="evenodd" d="M40 35C40 33.3431 41.3431 32 43 32H113C114.657 32 116 33.3431 116 35V105C116 106.657 114.657 108 113 108H43C41.3431 108 40 106.657 40 105V35ZM44 36V104H112V36H44Z" fill="#1C3553"/>
<path fill-rule="evenodd" clip-rule="evenodd" d="M79 32C80.1046 32 81 32.8954 81 34V106C81 107.105 80.1046 108 79 108C77.8954 108 77 107.105 77 106V34C77 32.8954 77.8954 32 79 32Z" fill="#1C3553"/>
<path fill-rule="evenodd" clip-rule="evenodd" d="M40 70C40 68.8954 40.8954 68 42 68L114 68C115.105 68 116 68.8954 116 70C116 71.1046 115.105 72 114 72L42 72C40.8954 72 40 71.1046 40 70Z" fill="#1C3553"/>
<path fill-rule="evenodd" clip-rule="evenodd" d="M28 126C28 124.895 28.8954 124 30 124L126 124C127.105 124 128 124.895 128 126C128 127.105 127.105 128 126 128H104C102.895 128 102 128.895 102 130C102 131.105 102.895 132 104 132H126C129.314 132 132 129.314 132 126C132 122.686 129.314 120 126 120L30 120C26.6863 120 24 122.686 24 126C24 129.314 26.6863 132 30 132H96C97.1046 132 98 131.105 98 130C98 128.895 97.1046 128 96 128H30C28.8954 128 28 127.105 28 126Z" fill="#1C3553"/>
</svg>
