<svg width="156" height="156" viewBox="0 0 156 156" fill="none" xmlns="http://www.w3.org/2000/svg">
<path fill-rule="evenodd" clip-rule="evenodd" d="M35 65C35 63.8954 35.8954 63 37 63H121C122.105 63 123 63.8954 123 65V80.1144H115.226C109.026 80.1144 104 85.1404 104 91.3402C104 97.5401 109.026 102.566 115.226 102.566H123V119C123 120.105 122.105 121 121 121H70.2657C72.0146 117.768 73 114.112 73 110.242C73 97.0671 61.5833 86.3869 47.5 86.3869C42.9582 86.3869 38.6937 87.4977 35 89.4447V65Z" fill="#C2DDFF"/>
<path d="M121 91.3404C121 93.4071 119.209 95.0824 117 95.0824C114.791 95.0824 113 93.4071 113 91.3404C113 89.2738 114.791 87.5985 117 87.5985C119.209 87.5985 121 89.2738 121 91.3404Z" fill="#C2DDFF"/>
<path fill-rule="evenodd" clip-rule="evenodd" d="M27 59C27 56.7909 28.7909 55 31 55H121C126.523 55 131 59.4772 131 65V72.1957C131 73.3003 130.105 74.1957 129 74.1957C127.895 74.1957 127 73.3003 127 72.1957V65C127 61.6863 124.314 59 121 59L31 59V84.2621C31 85.3667 30.1046 86.2621 29 86.2621C27.8954 86.2621 27 85.3667 27 84.2621V59ZM129 108.185C130.105 108.185 131 109.08 131 110.185V119C131 124.523 126.523 129 121 129H79C77.8954 129 77 128.105 77 127C77 125.895 77.8954 125 79 125H121C124.314 125 127 122.314 127 119V110.185C127 109.08 127.895 108.185 129 108.185Z" fill="#1C3553"/>
<path fill-rule="evenodd" clip-rule="evenodd" d="M102 91.2949C102 83.5629 108.268 77.2949 116 77.2949H132C134.209 77.2949 136 79.0858 136 81.2949V101.295C136 103.504 134.209 105.295 132 105.295H116C108.268 105.295 102 99.0269 102 91.2949ZM116 81.2949C110.477 81.2949 106 85.7721 106 91.2949C106 96.8178 110.477 101.295 116 101.295H132V81.2949H116Z" fill="#1C3553"/>
<path fill-rule="evenodd" clip-rule="evenodd" d="M117 89.2949C115.895 89.2949 115 90.1904 115 91.2949C115 92.3995 115.895 93.2949 117 93.2949C118.105 93.2949 119 92.3995 119 91.2949C119 90.1904 118.105 89.2949 117 89.2949ZM111 91.2949C111 87.9812 113.686 85.2949 117 85.2949C120.314 85.2949 123 87.9812 123 91.2949C123 94.6086 120.314 97.2949 117 97.2949C113.686 97.2949 111 94.6086 111 91.2949Z" fill="#1C3553"/>
<path fill-rule="evenodd" clip-rule="evenodd" d="M50.0792 49.8527C49.7711 48.792 50.3812 47.6823 51.4419 47.3742L107.284 31.1551C108.326 30.8525 109.419 31.4357 109.747 32.4695L114.906 48.6887C115.24 49.7413 114.659 50.866 113.606 51.2008C112.553 51.5355 111.429 50.9536 111.094 49.901L106.527 35.5403L52.5576 51.2155C51.4969 51.5236 50.3872 50.9134 50.0792 49.8527Z" fill="#1C3553"/>
<path fill-rule="evenodd" clip-rule="evenodd" d="M34.2334 50.2323C33.7156 49.2566 34.0869 48.0459 35.0626 47.5282L84.0626 21.5282C85.0168 21.0219 86.2006 21.3647 86.7365 22.3026L90.7365 29.3026C91.2846 30.2616 90.9514 31.4833 89.9923 32.0314C89.0333 32.5794 87.8116 32.2462 87.2636 31.2871L84.2253 25.9701L36.9375 51.0616C35.9618 51.5793 34.7511 51.208 34.2334 50.2323Z" fill="#1C3553"/>
<path fill-rule="evenodd" clip-rule="evenodd" d="M47.5 88C34.5213 88 24 98.5213 24 111.5C24 124.479 34.5213 135 47.5 135C60.4787 135 71 124.479 71 111.5C71 98.5213 60.4787 88 47.5 88ZM20 111.5C20 96.3122 32.3122 84 47.5 84C62.6878 84 75 96.3122 75 111.5C75 126.688 62.6878 139 47.5 139C32.3122 139 20 126.688 20 111.5Z" fill="#1C3553"/>
<path fill-rule="evenodd" clip-rule="evenodd" d="M48.7353 98C43.788 98 39 103.335 39 111C39 118.665 43.788 124 48.7353 124C50.9693 124 52.9737 123.212 54.5796 121.592C55.3572 120.808 56.6235 120.802 57.408 121.58C58.1925 122.357 58.198 123.623 57.4204 124.408C55.0299 126.82 51.9876 128 48.7353 128C40.7202 128 35 119.904 35 111C35 102.096 40.7202 94 48.7353 94C51.9876 94 55.0299 95.1804 57.4204 97.592C58.198 98.3765 58.1925 99.6428 57.408 100.42C56.6235 101.198 55.3572 101.192 54.5796 100.408C52.9737 98.7879 50.9693 98 48.7353 98Z" fill="#1C3553"/>
<path fill-rule="evenodd" clip-rule="evenodd" d="M31 107C31 105.895 31.8954 105 33 105H52C53.1046 105 54 105.895 54 107C54 108.105 53.1046 109 52 109H33C31.8954 109 31 108.105 31 107Z" fill="#1C3553"/>
<path fill-rule="evenodd" clip-rule="evenodd" d="M31 115C31 113.895 31.8954 113 33 113L49 113C50.1046 113 51 113.895 51 115C51 116.105 50.1046 117 49 117L33 117C31.8954 117 31 116.105 31 115Z" fill="#1C3553"/>
</svg>
