<svg width="156" height="156" viewBox="0 0 156 156" fill="none" xmlns="http://www.w3.org/2000/svg">
<path d="M76.2907 40.8162C76.469 40.5227 76.72 40.28 77.0194 40.1116C77.3188 39.9432 77.6565 39.8547 78 39.8547C78.3435 39.8547 78.6812 39.9432 78.9805 40.1116C79.2799 40.28 79.5309 40.5227 79.7093 40.8162L127.156 118.962C127.965 120.295 127.005 122 125.446 122H30.5537C28.9937 122 28.0354 120.295 28.8444 118.962L76.2907 40.8162Z" fill="#C2DDFF"/>
<path fill-rule="evenodd" clip-rule="evenodd" d="M79.6998 34.5372C78.9172 33.2756 77.0825 33.2767 76.3016 34.5368C76.2906 34.5545 76.2795 34.5719 76.2681 34.5891L21.4874 122.946C20.6607 124.279 21.6199 126 23.186 126H132.814C134.38 126 135.339 124.279 134.514 122.946M134.514 122.946L79.6998 34.5372C79.6997 34.5372 79.6998 34.5373 79.6998 34.5372M72.9404 32.3673C75.3077 28.6445 80.7661 28.6664 83.0995 32.4291L137.914 120.838C140.39 124.835 137.517 130 132.814 130H23.186C18.4832 130 15.6093 124.835 18.0875 120.838L72.9004 32.4293C72.9134 32.4083 72.9267 32.3877 72.9404 32.3673Z" fill="#1C3553"/>
<path d="M78 109.5C79.1047 109.5 80.0002 108.604 80.0002 107.5C80.0002 106.395 79.1047 105.5 78 105.5C76.8954 105.5 75.9999 106.395 75.9999 107.5C75.9999 108.604 76.8954 109.5 78 109.5Z" fill="#1C3553"/>
<path fill-rule="evenodd" clip-rule="evenodd" d="M78 67.9993C79.1047 67.9993 80.0002 68.8948 80.0002 69.9994V100C80.0002 101.105 79.1047 102.001 78 102.001C76.8954 102.001 75.9999 101.105 75.9999 100V69.9994C75.9999 68.8948 76.8954 67.9993 78 67.9993Z" fill="#1C3553"/>
</svg>
