<svg width="156" height="156" viewBox="0 0 156 156" fill="none" xmlns="http://www.w3.org/2000/svg">
<path fill-rule="evenodd" clip-rule="evenodd" d="M103 68C115.15 68 125 58.1503 125 46C125 33.8497 115.15 24 103 24C90.8497 24 81 33.8497 81 46C81 58.1503 90.8497 68 103 68ZM90.1062 36.9952C90.643 45.7115 93.7814 57.4618 111.317 58.8619C113.353 59.0244 115.083 57.4613 115.303 55.4308L115.818 50.6755C115.923 49.7074 115.316 48.8045 114.38 48.537L109 47L106 50C106 50 99 47 99 43L102 39L101 33H94C91.7909 33 89.9704 34.7902 90.1062 36.9952Z" fill="#C2DDFF"/>
<path fill-rule="evenodd" clip-rule="evenodd" d="M57.0007 111C58.1053 111 59.0006 111.896 59.0005 113L58.9995 122C58.9994 122.989 58.2772 123.829 57.2999 123.977C52.2746 124.741 42.2485 126.99 34.7554 134.42C33.971 135.198 32.7047 135.193 31.927 134.408C31.1492 133.624 31.1546 132.358 31.939 131.58C39.5337 124.049 49.2972 121.35 54.9997 120.307L55.0005 113C55.0006 111.895 55.8961 111 57.0007 111Z" fill="#1C3553"/>
<path fill-rule="evenodd" clip-rule="evenodd" d="M78.9995 111C77.8949 111 76.9995 111.895 76.9995 113V122C76.9995 122.989 77.7217 123.829 78.6991 123.977C83.8319 124.757 94.5352 127.021 100.834 134.308C101.556 135.144 102.819 135.235 103.655 134.513C104.491 133.791 104.583 132.528 103.86 131.692C97.2399 124.034 86.7711 121.333 80.9995 120.303V113C80.9995 111.895 80.104 111 78.9995 111Z" fill="#1C3553"/>
<path fill-rule="evenodd" clip-rule="evenodd" d="M103 20C88.6406 20 77 31.6406 77 46C77 60.3594 88.6406 72 103 72C117.359 72 129 60.3594 129 46C129 31.6406 117.359 20 103 20ZM73 46C73 29.4315 86.4315 16 103 16C119.569 16 133 29.4315 133 46C133 62.5685 119.569 76 103 76C86.4315 76 73 62.5685 73 46Z" fill="#1C3553"/>
<path fill-rule="evenodd" clip-rule="evenodd" d="M44.238 125.054C44.7603 124.081 45.9726 123.715 46.946 124.238C55.5419 128.85 61.8421 131 68.0004 131C74.1587 131 80.4589 128.85 89.0548 124.238C90.0281 123.715 91.2405 124.081 91.7627 125.054C92.285 126.028 91.9193 127.24 90.946 127.762C82.1466 132.484 75.1444 135 68.0004 135C60.8563 135 53.8542 132.484 45.0548 127.762C44.0815 127.24 43.7158 126.028 44.238 125.054Z" fill="#1C3553"/>
<path fill-rule="evenodd" clip-rule="evenodd" d="M49.6329 76.1026C50.6807 76.4519 51.247 77.5843 50.898 78.6321C50.898 78.6321 50.898 78.6321 50.898 78.6321M87.0005 78C88.8979 77.3675 88.8979 77.3678 88.898 77.3681L88.9005 77.3756L88.9061 77.3925L88.9254 77.4516C88.9418 77.5021 88.9651 77.5746 88.9942 77.6674C89.0526 77.8528 89.1346 78.1196 89.2325 78.4538C89.4279 79.1215 89.6876 80.063 89.9473 81.1669C90.4606 83.3485 91.0005 86.2726 91.0005 89C91.0005 105.648 81.359 118 68.0005 118C54.642 118 45.0005 105.648 45.0005 89C45.0005 86.2726 45.5403 83.3485 46.0537 81.1669C46.3134 80.063 46.5731 79.1215 46.7685 78.4538C46.8663 78.1196 46.9484 77.8528 47.0067 77.6674C47.0359 77.5746 47.0592 77.5021 47.0756 77.4516L47.0949 77.3925L47.1004 77.3756L47.1027 77.3687C47.1028 77.3685 47.1031 77.3675 48.9789 77.9928L47.1031 77.3675C47.4524 76.3197 48.5851 75.7533 49.6329 76.1026M87.0005 78L88.898 77.3681C88.5487 76.3202 87.4159 75.7533 86.368 76.1026C85.3203 76.4519 84.754 77.5843 85.103 78.6321M50.898 78.6321L50.8946 78.6422L50.8805 78.6856C50.8676 78.7254 50.8479 78.7867 50.8224 78.8678C50.7713 79.03 50.6971 79.2711 50.6075 79.5774C50.4279 80.191 50.1876 81.062 49.9473 82.0831C49.4606 84.1515 49.0005 86.7274 49.0005 89C49.0005 104.352 57.6644 114 68.0005 114C78.3366 114 87.0005 104.352 87.0005 89C87.0005 86.7274 86.5403 84.1515 86.0537 82.0831C85.8134 81.062 85.5731 80.191 85.3935 79.5774C85.3038 79.2711 85.2296 79.03 85.1786 78.8678C85.1531 78.7867 85.1334 78.7254 85.1205 78.6856L85.1064 78.6422L85.103 78.6321" fill="#1C3553"/>
<path fill-rule="evenodd" clip-rule="evenodd" d="M68.9996 52.9399C69.0328 54.044 68.1647 54.9659 67.0606 54.9991L66.6196 55.0129C66.3529 55.0215 65.9965 55.0334 65.6356 55.0466C65.2731 55.0598 64.9126 55.0741 64.6354 55.0875C64.4955 55.0943 64.3867 55.1004 64.3133 55.1054L64.2832 55.1076C64.2539 55.1118 64.2244 55.1154 64.1949 55.1183C60.9151 55.44 57.5689 56.5214 53.8217 59.7455C50.0092 63.0258 45.7297 68.5703 40.7677 77.9363C29.546 99.118 29.5603 111.253 31.8821 117.897C33.044 121.221 34.8222 123.296 36.2672 124.533C36.9939 125.155 37.6413 125.568 38.0907 125.82C38.3151 125.946 38.489 126.03 38.5972 126.08C38.6512 126.105 38.6887 126.121 38.7076 126.129C38.7136 126.131 38.7177 126.133 38.7199 126.134C39.7445 126.529 40.2601 127.677 39.8717 128.706C39.4817 129.74 38.3278 130.261 37.2944 129.871L38.0005 128C37.2944 129.871 37.2924 129.87 37.2903 129.87L37.2858 129.868L37.2752 129.864L37.248 129.853C37.2273 129.845 37.2013 129.834 37.1704 129.822C37.1087 129.796 37.0272 129.761 36.9279 129.715C36.7295 129.624 36.4597 129.491 36.1355 129.31C35.4877 128.947 34.6183 128.386 33.6666 127.572C31.7547 125.936 29.5297 123.289 28.1061 119.216C25.257 111.064 25.7712 97.699 37.2331 76.0637C42.3071 66.4862 46.8656 60.4538 51.2129 56.7134C55.6026 52.9365 59.7181 51.5483 63.7417 51.1436C63.8075 51.1341 63.8535 51.13 63.8622 51.1292L63.8636 51.1291C63.9225 51.1233 63.9842 51.1186 64.0397 51.1148C64.1531 51.107 64.2931 51.0994 64.4423 51.0922C64.7434 51.0776 65.1227 51.0627 65.4896 51.0493C65.8581 51.0358 66.2207 51.0237 66.4906 51.015L66.9398 51.0009C68.0439 50.9677 68.9664 51.8358 68.9996 52.9399ZM96.1537 80.1881C97.1544 79.7204 98.3447 80.1525 98.8124 81.1532C107.716 100.203 107.902 112.251 105.492 119.712C104.289 123.439 102.463 125.932 100.887 127.512C100.102 128.298 99.385 128.853 98.8457 129.219C98.576 129.403 98.3503 129.539 98.1824 129.635C98.1358 129.661 98.0936 129.685 98.0561 129.705C98.026 129.721 97.999 129.736 97.9751 129.748C97.9483 129.762 97.9255 129.774 97.9068 129.783L97.8821 129.795L97.8721 129.8L97.8678 129.802C97.8658 129.803 97.8638 129.804 97.0005 128L97.8638 129.804C96.8674 130.281 95.6732 129.86 95.1964 128.863C94.7223 127.872 95.1363 126.686 96.121 126.204C96.1221 126.203 96.1237 126.202 96.1257 126.201C96.1375 126.195 96.1644 126.181 96.2048 126.158C96.2856 126.112 96.4203 126.031 96.5967 125.911C96.9496 125.671 97.4676 125.275 98.0555 124.686C99.2248 123.515 100.693 121.557 101.686 118.483C103.669 112.342 103.855 101.39 95.1887 82.8468C94.721 81.8461 95.1531 80.6558 96.1537 80.1881Z" fill="#1C3553"/>
<path fill-rule="evenodd" clip-rule="evenodd" d="M73.2708 69.1375C74.0375 68.8375 74.9098 69.0381 75.4685 69.6428C76.4153 70.6676 78.1728 72.2983 80.3099 73.6575C82.4746 75.0343 84.8211 76 87.0005 76C88.1051 76 89.0005 76.8954 89.0005 78C89.0005 79.1046 88.1051 80 87.0005 80C83.7287 80 80.6157 78.5925 78.1632 77.0327C77.3932 76.5429 76.6678 76.025 75.9995 75.5069V78C75.9995 79.1046 75.1041 80 73.9995 80H49.0005C47.8959 80 47.0005 79.1046 47.0005 78C47.0005 76.8954 47.8959 76 49.0005 76H71.9995V71C71.9995 70.1767 72.5041 69.4375 73.2708 69.1375Z" fill="#1C3553"/>
<path fill-rule="evenodd" clip-rule="evenodd" d="M94.3942 35C93.3419 35 92.6909 35.7277 92.6673 36.4408C92.5192 40.9341 93.615 45.6575 96.4457 49.4072C99.2395 53.108 103.869 56.0571 111.206 56.8126C112.085 56.9031 113 56.1676 113 55V50.5086L108.854 49.3241L107.664 51.1094C107.105 51.9486 106.008 52.2399 105.106 51.7889L106 50C105.106 51.7889 105.105 51.7886 105.105 51.7884L105.101 51.7864L105.094 51.7829L105.073 51.7724C105.057 51.7639 105.034 51.7525 105.007 51.7381C104.952 51.7095 104.876 51.6691 104.782 51.6175C104.593 51.5144 104.331 51.3657 104.02 51.1753C103.401 50.7971 102.565 50.2412 101.72 49.5364C100.156 48.2333 98.0002 45.963 98.0002 43C98.0002 42.6052 98.117 42.2192 98.336 41.8906L100 39.3945V35H94.3942ZM105.395 47.3025L106.336 45.8906C106.818 45.1669 107.713 44.838 108.55 45.077L114.099 46.6625C115.816 47.1531 117 48.7227 117 50.5086V55C117 58.2506 114.312 61.1536 110.796 60.7916C102.491 59.9364 96.7951 56.5089 93.2533 51.8172C89.7484 47.1745 88.4988 41.4896 88.6695 36.309C88.775 33.1086 91.5308 31 94.3942 31H100C102.209 31 104 32.7909 104 35V40C104 40.3948 103.883 40.7808 103.664 41.1094L102.064 43.5103C102.285 44.4287 103.074 45.4577 104.281 46.4636C104.659 46.7793 105.042 47.0611 105.395 47.3025Z" fill="#1C3553"/>
</svg>
