<svg width="156" height="156" viewBox="0 0 156 156" fill="none" xmlns="http://www.w3.org/2000/svg">
<path fill-rule="evenodd" clip-rule="evenodd" d="M77.9994 124C70.5 124 63.9978 119.5 61.4993 115C59.0008 110.5 58.3114 106.542 58.9994 100C59.9986 90.5 71.0004 82.6428 82.643 82.6428C96.5716 82.6428 109.501 70.5 110.001 54C110.107 50.485 109.651 47.7904 108.756 45.1773C108.394 44.1194 109.707 43.2037 110.456 44.0338C117.728 52.0914 123.574 62.6965 123.999 78C124.722 104 102 124 77.9994 124ZM78.0001 112.357C82.6157 112.357 86.3573 108.616 86.3573 104C86.3573 99.3845 82.6157 95.6428 78.0001 95.6428C73.3846 95.6428 69.643 99.3845 69.643 104C69.643 108.616 73.3846 112.357 78.0001 112.357Z" fill="#C2DDFF"/>
<path d="M86 53C86 57.4183 82.4183 61 78 61C73.5817 61 70 57.4183 70 53C70 48.5817 73.5817 45 78 45C82.4183 45 86 48.5817 86 53Z" fill="#C2DDFF"/>
<path fill-rule="evenodd" clip-rule="evenodd" d="M78 28C65.9673 28 54.9321 32.2479 46.3044 39.3277C45.4505 40.0284 44.1903 39.9042 43.4896 39.0504C42.7889 38.1965 42.9131 36.9363 43.767 36.2356C53.0837 28.5903 65.0085 24 78 24C107.823 24 132 48.1766 132 78C132 107.823 107.823 132 78 132C48.1766 132 24 107.823 24 78C24 64.3256 29.0854 51.834 37.4652 42.3209C38.1953 41.492 39.4591 41.412 40.288 42.1421C41.1168 42.8722 41.1969 44.136 40.4668 44.9648C32.7056 53.7756 28 65.3358 28 78C28 105.614 50.3858 128 78 128C105.614 128 128 105.614 128 78C128 50.3858 105.614 28 78 28Z" fill="#1C3553"/>
<path fill-rule="evenodd" clip-rule="evenodd" d="M76 26C76 24.8954 76.8954 24 78 24C93.464 24 106 36.536 106 52C106 67.464 93.464 80 78 80C76.8954 80 76 79.1046 76 78C76 76.8954 76.8954 76 78 76C91.2548 76 102 65.2548 102 52C102 38.7452 91.2548 28 78 28C76.8954 28 76 27.1046 76 26Z" fill="#1C3553"/>
<path fill-rule="evenodd" clip-rule="evenodd" d="M78 80C64.7452 80 54 90.7452 54 104C54 108.553 55.2657 112.804 57.4634 116.427C61.6738 123.369 69.297 128 78 128C79.1046 128 80 128.895 80 130C80 131.105 79.1046 132 78 132C67.8415 132 58.9486 126.589 54.0433 118.501C51.477 114.27 50 109.305 50 104C50 88.536 62.536 76 78 76C79.1046 76 80 76.8954 80 78C80 79.1046 79.1046 80 78 80Z" fill="#1C3553"/>
<path fill-rule="evenodd" clip-rule="evenodd" d="M78 47C74.6863 47 72 49.6863 72 53C72 56.3137 74.6863 59 78 59C81.3137 59 84 56.3137 84 53C84 49.6863 81.3137 47 78 47ZM68 53C68 47.4772 72.4772 43 78 43C83.5228 43 88 47.4772 88 53C88 58.5228 83.5228 63 78 63C72.4772 63 68 58.5228 68 53Z" fill="#1C3553"/>
<path fill-rule="evenodd" clip-rule="evenodd" d="M78 98C74.6863 98 72 100.686 72 104C72 107.314 74.6863 110 78 110C81.3137 110 84 107.314 84 104C84 100.686 81.3137 98 78 98ZM68 104C68 98.4772 72.4772 94 78 94C83.5228 94 88 98.4772 88 104C88 109.523 83.5228 114 78 114C72.4772 114 68 109.523 68 104Z" fill="#1C3553"/>
</svg>
