<svg width="156" height="156" viewBox="0 0 156 156" fill="none" xmlns="http://www.w3.org/2000/svg">
<path fill-rule="evenodd" clip-rule="evenodd" d="M42.7031 58.0083C42.7031 56.9038 43.5986 56.0083 44.7031 56.0083H124.703C125.808 56.0083 126.703 56.9038 126.703 58.0083V117C126.703 118.105 125.808 119 124.703 119H44.7031C43.5986 119 42.7031 118.105 42.7031 117V58.0083ZM110.902 105.784H59.9623C58.3212 105.784 57.3786 103.916 58.3532 102.596L71 85.4638L78 94.6077L92 76.3198L112.478 102.553C113.503 103.866 112.567 105.784 110.902 105.784ZM62 77.3358C65.3137 77.3358 68 74.6066 68 71.2398C68 67.8731 65.3137 65.1439 62 65.1439C58.6863 65.1439 56 67.8731 56 71.2398C56 74.6066 58.6863 77.3358 62 77.3358Z" fill="#C2DDFF"/>
<path fill-rule="evenodd" clip-rule="evenodd" d="M35 54C35 50.6863 37.6863 48 41 48H129C132.314 48 135 50.6863 135 54V121C135 124.314 132.314 127 129 127H41C37.6863 127 35 124.314 35 121V54ZM41 52C39.8954 52 39 52.8955 39 54V121C39 122.105 39.8954 123 41 123H129C130.105 123 131 122.105 131 121V54C131 52.8955 130.105 52 129 52H41Z" fill="#1C3553"/>
<path fill-rule="evenodd" clip-rule="evenodd" d="M18.8754 49.2879C18.1864 46.0466 20.2555 42.8605 23.4968 42.1716L109.574 23.8754C112.815 23.1864 116.001 25.2555 116.69 28.4968L119.261 40.5925C119.491 41.673 118.801 42.735 117.721 42.9646C116.64 43.1943 115.578 42.5046 115.349 41.4242L112.778 29.3284C112.548 28.248 111.486 27.5583 110.405 27.7879L24.3285 46.0842C23.248 46.3138 22.5583 47.3759 22.788 48.4563L30.6107 85.2591C30.8403 86.3395 30.1506 87.4016 29.0702 87.6312C27.9898 87.8609 26.9277 87.1712 26.6981 86.0907L18.8754 49.2879Z" fill="#1C3553"/>
<path fill-rule="evenodd" clip-rule="evenodd" d="M91.9905 76.0001C92.6043 75.9972 93.1855 76.2763 93.5669 76.7573L113.995 102.514C116.074 105.136 114.207 109 110.861 109H59.9999C56.7038 109 54.8222 105.237 56.7999 102.6L69.3999 85.8001C69.7739 85.3014 70.3591 85.0056 70.9824 85.0001C71.6057 84.9947 72.1959 85.2801 72.5786 85.7722L77.9999 92.7424L90.4212 76.7722C90.7981 76.2876 91.3766 76.003 91.9905 76.0001ZM92.0153 81.238L79.5786 97.2279C79.1997 97.7151 78.6171 98.0001 77.9999 98.0001C77.3828 98.0001 76.8001 97.7151 76.4212 97.2279L71.0288 90.2949L59.9999 105H110.861L92.0153 81.238Z" fill="#1C3553"/>
<path fill-rule="evenodd" clip-rule="evenodd" d="M62 69.0001C59.7909 69.0001 58 70.7909 58 73.0001C58 75.2092 59.7909 77.0001 62 77.0001C64.2091 77.0001 66 75.2092 66 73.0001C66 70.7909 64.2091 69.0001 62 69.0001ZM54 73.0001C54 68.5818 57.5817 65.0001 62 65.0001C66.4183 65.0001 70 68.5818 70 73.0001C70 77.4183 66.4183 81.0001 62 81.0001C57.5817 81.0001 54 77.4183 54 73.0001Z" fill="#1C3553"/>
</svg>
5 72.293 120.915 72.293 119.743 73.4645C118.843 74.365 117.713 74.7653 116.517 74.719C115.413 74.6762 114.343 74.2594 113.375 73.7316C111.448 72.6809 109.277 70.8195 106.992 68.6668C105.443 67.2074 103.809 65.5848 102.086 63.8741C98.5574 60.3709 94.6572 56.4984 90.3535 52.9022C83.9809 47.5771 77.111 43.2153 70.0616 42.0027C63.1832 40.8195 55.8667 42.589 48.3257 50.13C40.7825 57.6732 38.8931 65.116 39.9563 72.1549C41.0427 79.3481 45.2533 86.3812 50.4583 92.8494C54.5465 97.9296 59.1086 102.5 63.0415 106.44C64.112 107.513 65.1359 108.539 66.0909 109.515C68.2737 111.748 70.1751 113.802 71.329 115.536C71.8992 116.393 72.4062 117.344 72.5902 118.32Z" fill="#1C3553"/>
<path fill-rule="evenodd" clip-rule="evenodd" d="M108.474 50.8812C107.693 50.1001 107.693 48.8338 108.474 48.0528L115.545 40.9817C116.326 40.2007 117.592 40.2007 118.373 40.9817C119.154 41.7627 119.154 43.0291 118.373 43.8101L111.302 50.8812C110.521 51.6622 109.255 51.6622 108.474 50.8812Z" fill="#1C3553"/>
<path fill-rule="evenodd" clip-rule="evenodd" d="M98.7333 43.5962C97.6677 43.3056 97.0394 42.2061 97.33 41.1405L99.4513 33.3623C99.742 32.2966 100.841 31.6684 101.907 31.959C102.973 32.2496 103.601 33.3491 103.31 34.4148L101.189 42.1929C100.898 43.2586 99.799 43.8869 98.7333 43.5962Z" fill="#1C3553"/>
<path fill-rule="evenodd" clip-rule="evenodd" d="M49.0768 110.278C48.2958 109.497 47.0294 109.497 46.2484 110.278L39.1773 117.349C38.3963 118.13 38.3963 119.397 39.1773 120.178C39.9584 120.959 41.2247 120.959 42.0057 120.178L49.0768 113.107C49.8579 112.326 49.8579 111.059 49.0768 110.278Z" fill="#1C3553"/>
<path fill-rule="evenodd" clip-rule="evenodd" d="M41.7922 100.537C41.5015 99.4718 40.4021 98.8435 39.3364 99.1341L31.5582 101.255C30.4926 101.546 29.8643 102.646 30.1549 103.711C30.4456 104.777 31.5451 105.405 32.6107 105.115L40.3889 102.993C41.4545 102.703 42.0828 101.603 41.7922 100.537Z" fill="#1C3553"/>
</svg>
33.298C134.422 134.079 135.688 134.079 136.469 133.298L137.884 131.884C138.665 131.103 138.665 129.836 137.884 129.055L118.085 109.256Z" fill="#1C3553"/>
</svg>
12C87.6617 34.8772 88.7876 33.1797 90.6715 31.5052C92.1626 30.1797 92.7242 29.1272 92.9121 28.4037C93.091 27.7143 92.9802 27.1377 92.7299 26.6186C92.4623 26.0636 92.0326 25.5797 91.6207 25.2136C91.4219 25.0368 91.2446 24.903 91.123 24.817C91.0627 24.7744 91.0174 24.7446 90.9919 24.7281C90.9804 24.7207 90.973 24.7161 90.9701 24.7143C90.0281 24.1484 89.7186 22.9271 90.2796 21.9804Z" fill="#1C3553"/>
<path fill-rule="evenodd" clip-rule="evenodd" d="M76.2619 16.011C76.8081 15.0509 78.0291 14.7154 78.9892 15.2616L78.0003 17C78.9892 15.2616 78.9902 15.2621 78.9912 15.2627L78.9934 15.264L78.9986 15.267L79.0122 15.2748L79.0513 15.2978C79.0826 15.3163 79.1243 15.3414 79.1752 15.3728C79.2769 15.4357 79.4162 15.5245 79.5844 15.6386C79.9196 15.866 80.3755 16.1977 80.8805 16.6286C81.8745 17.4768 83.1406 18.7787 84.0063 20.5024C84.8918 22.2656 85.3534 24.4709 84.677 26.9721C84.0118 29.4319 82.3065 31.9545 79.2985 34.5214C76.6815 36.7545 75.5743 38.6319 75.1848 40.0721C74.8065 41.4709 75.0481 42.6656 75.5688 43.7024C76.1093 44.7787 76.9526 45.6768 77.7165 46.3286C78.0904 46.6477 78.4255 46.891 78.6615 47.0511C78.779 47.1308 78.8705 47.1888 78.928 47.2244C78.9567 47.2421 78.9769 47.2542 78.9874 47.2605L78.9945 47.2646L78.9909 47.2626C78.9924 47.2634 78.994 47.2643 78.9955 47.2652C79.9508 47.8131 80.2836 49.031 79.7387 49.9889C79.1925 50.949 77.9714 51.2845 77.0113 50.7384L78.0003 49C77.0113 50.7384 77.0104 50.7378 77.0094 50.7373L77.0071 50.736L77.0019 50.733L76.9884 50.7252L76.9492 50.7022C76.9179 50.6837 76.8763 50.6586 76.8253 50.6271C76.7236 50.5643 76.5843 50.4755 76.4162 50.3614C76.0809 50.134 75.625 49.8023 75.12 49.3714C74.126 48.5232 72.8599 47.2213 71.9943 45.4976C71.1087 43.7344 70.6471 41.5291 71.3235 39.0279C71.9887 36.5681 73.694 34.0454 76.702 31.4786C79.319 29.2454 80.4262 27.3681 80.8157 25.9279C81.194 24.5291 80.9525 23.3344 80.4318 22.2976C79.8912 21.2213 79.0479 20.3232 78.2841 19.6714C77.9101 19.3523 77.575 19.109 77.339 18.9489C77.2215 18.8692 77.1301 18.8111 77.0725 18.7756C77.0438 18.7578 77.0237 18.7458 77.0131 18.7395L77.005 18.7348M76.2619 16.011C75.7169 16.969 76.0498 18.1869 77.005 18.7348L76.2619 16.011ZM77.005 18.7348C77.005 18.7348 77.005 18.7348 77.006 18.7353L77.0082 18.7366" fill="#1C3553"/>
<path fill-rule="evenodd" clip-rule="evenodd" d="M32 65C32 60.5817 35.5817 57 40 57H118C122.418 57 126 60.5817 126 65V126C126 130.418 122.418 134 118 134H40C35.5817 134 32 130.418 32 126V65ZM40 61C37.7909 61 36 62.7909 36 65V126C36 128.209 37.7909 130 40 130H118C120.209 130 122 128.209 122 126V65C122 62.7909 120.209 61 118 61H40Z" fill="#1C3553"/>
<path fill-rule="evenodd" clip-rule="evenodd" d="M52 65C53.1046 65 54 65.8954 54 67V124C54 125.105 53.1046 126 52 126C50.8954 126 50 125.105 50 124V67C50 65.8954 50.8954 65 52 65Z" fill="#1C3553"/>
<path fill-rule="evenodd" clip-rule="evenodd" d="M70 65C71.1046 65 72 65.8954 72 67V124C72 125.105 71.1046 126 70 126C68.8954 126 68 125.105 68 124V67C68 65.8954 68.8954 65 70 65Z" fill="#1C3553"/>
<path fill-rule="evenodd" clip-rule="evenodd" d="M88 65C89.1046 65 90 65.8954 90 67V124C90 125.105 89.1046 126 88 126C86.8954 126 86 125.105 86 124V67C86 65.8954 86.8954 65 88 65Z" fill="#1C3553"/>
<path fill-rule="evenodd" clip-rule="evenodd" d="M106 65C107.105 65 108 65.8954 108 67V124C108 125.105 107.105 126 106 126C104.895 126 104 125.105 104 124V67C104 65.8954 104.895 65 106 65Z" fill="#1C3553"/>
</svg>
0055 76.0003 79.999 76.0003H68.999C67.8945 76.0003 66.999 75.1049 66.999 74.0003C66.999 72.8958 67.8945 72.0003 68.999 72.0003H77.999V70.0003C77.999 69.1772 78.5033 68.4382 79.2698 68.138Z" fill="#1C3553"/>
</svg>
106.081C91.1778 106.331 92.2649 106.151 93.0324 105.841C93.8472 105.512 94.4439 104.979 94.8935 104.372C95.2242 103.925 95.4673 103.449 95.6425 103.014L80.1018 94.7868L80.1001 94.786L80.0986 94.7851L80.097 94.7843L80.0941 94.7828L80.0927 94.782L80.0901 94.7806L80.0888 94.78L80.0864 94.7787L80.0842 94.7775L80.0832 94.777L80.0812 94.7759L80.0803 94.7754L80.0794 94.775L80.0761 94.7733L80.0747 94.7725L80.0735 94.7718L80.0723 94.7712L80.0713 94.7707L80.0703 94.7702L80.0691 94.7696L80.0681 94.769L80.0671 94.7685L80.0661 94.7679C79.0899 94.2511 78.7167 93.0404 79.2336 92.0642C79.7504 91.088 80.9607 90.7156 81.9369 91.2324L81.9379 91.2329L81.9389 91.2335L81.94 91.234L81.9411 91.2346L81.9423 91.2353L81.9433 91.2358L81.9444 91.2364L81.9456 91.237L81.947 91.2377L81.9501 91.2394L81.9518 91.2403L81.9527 91.2408L81.9547 91.2418L81.9558 91.2424L81.958 91.2436L81.9592 91.2442L81.9604 91.2448L81.9643 91.2469L81.9657 91.2476L81.9686 91.2492L81.9701 91.25L81.9717 91.2508L81.9733 91.2517L98.4497 99.9745C99.7884 99.8194 100.758 98.969 101.314 97.7792C101.879 96.5672 101.872 95.3099 101.535 94.4868L85.0653 85.7675C84.0891 85.2507 83.7167 84.0404 84.2336 83.0642C84.7504 82.088 85.9607 81.7156 86.9369 82.2324L103.311 90.901C103.384 90.8828 103.462 90.8621 103.545 90.8387C104.067 90.6903 104.667 90.4581 105.161 90.1241C105.647 89.796 105.926 89.4434 106.044 89.0606C106.157 88.6945 106.216 87.9991 105.671 86.7868C105.592 86.6112 105.406 86.3881 105.065 86.191C100.263 83.4126 93.9978 79.7983 88.9322 76.8782C86.3995 75.4183 84.167 74.132 82.5676 73.2107L80.003 71.7336C80.0029 71.7336 80.0023 71.7332 81.0002 70C81.9982 68.2668 81.9982 68.2668 81.9983 68.2669L84.5642 69.7447C86.1638 70.6661 88.3967 71.9526 90.9298 73.4128M79.9164 101.222L79.908 101.217L79.902 101.214L79.9009 101.214L79.8957 101.211C79.6187 101.073 79.3134 101 79.0037 101L79.0012 103C79.0037 101 77.0703 102.479 77.9968 104.73C78.0116 104.738 78.0405 104.754 78.0546 104.762C78.0675 104.769 78.0779 104.774 78.0808 104.776L78.0944 104.783L78.101 104.786L78.1062 104.789L78.1248 104.798M79.267 69.002C79.8181 68.0448 81.0411 67.7157 81.9983 68.2669L81.0002 70L80.003 71.7336C79.0457 71.1825 78.7158 69.9593 79.267 69.002ZM31.4898 75.8661C32.042 74.9095 33.2652 74.5818 34.2218 75.1341C38.4 77.5463 39.8993 79.6656 40.9496 81.6035C41.0876 81.858 41.2057 82.083 41.3128 82.2871C41.6082 82.8499 41.8204 83.2541 42.137 83.6828C42.507 84.1837 43.0268 84.7054 44.0012 85.268C44.9577 85.8203 45.2855 87.0435 44.7332 88.0001C44.1809 88.9566 42.9577 89.2844 42.0012 88.7321C40.576 87.9093 39.6333 87.0257 38.9196 86.0594C38.4027 85.3597 38.0017 84.5925 37.6751 83.9676C37.5895 83.8039 37.5091 83.65 37.433 83.5096C36.7131 82.1815 35.7223 80.6192 32.2218 78.5982C31.2652 78.0459 30.9375 76.8227 31.4898 75.8661Z" fill="#1C3553"/>
<path fill-rule="evenodd" clip-rule="evenodd" d="M29.7138 31.1188C30.2681 30.9187 30.8824 30.9733 31.3927 31.268L52.5092 43.4595C53.4657 44.0118 53.7935 45.235 53.2412 46.1916L31.5205 83.8129C30.416 85.7261 27.9696 86.3816 26.0564 85.277L16.3137 79.6521C13.7814 78.19 12.6718 75.1154 13.6868 72.3732L28.5171 32.3058C28.7216 31.7531 29.1595 31.3188 29.7138 31.1188ZM31.4455 35.9173L17.438 73.7617C17.0997 74.6757 17.4696 75.7006 18.3137 76.188L28.0564 81.8129L48.7771 45.9236L44.5898 43.5061L27.2953 73.4613C26.743 74.4179 25.5198 74.7457 24.5632 74.1934C23.6066 73.6411 23.2789 72.4179 23.8312 71.4613L41.1257 41.5061L31.4455 35.9173Z" fill="#1C3553"/>
</svg>
