<svg width="96" height="96" viewBox="0 0 96 96" fill="none" xmlns="http://www.w3.org/2000/svg">
<path d="M68.0783 75.1669C63.3467 75.1669 32.9003 75.1669 28.1687 75.1669V51.7149C28.1687 49.2463 26.7287 48.012 24.2601 48.012C23.0258 48.012 22.2029 48.8348 22.2029 50.0692C22.2029 51.0978 23.0258 51.9206 24.0544 52.1264V75.3726C24.0544 78.8699 26.3173 79.2813 28.1687 79.2813C30.4317 79.2813 39.2776 79.2813 48.1235 79.2813C56.9694 79.2813 65.8154 79.2813 68.0783 79.2813C69.9298 79.2813 72.1927 78.8699 72.1927 75.3726V52.1264C73.2213 51.9206 74.0441 51.0978 74.0441 50.0692C74.0441 48.8348 73.2213 48.012 71.9869 48.012C69.5183 48.012 68.0783 49.452 68.0783 51.7149V75.1669Z" fill="#1C3553"/>
<path d="M50.1807 41.8406C50.7978 41.8406 51.2093 41.4292 51.2093 40.812V33.6118C51.2093 32.9947 50.7978 32.5833 50.1807 32.5833H46.272C45.6548 32.5833 45.2434 32.9947 45.2434 33.6118V40.6063C45.2434 41.2235 45.6548 41.6349 46.272 41.6349H50.1807V41.8406ZM47.3006 34.8462H48.9464V39.5777H47.3006V34.8462Z" fill="#2988FF"/>
<path d="M51.0036 17.7713C50.5921 17.5656 49.5635 16.7427 48.1235 16.7427C46.6834 16.7427 45.6548 17.5656 45.4491 17.7713C44.0091 19.0056 35.7803 26.6172 28.3744 33.2002C22.4086 38.5489 17.0599 43.4862 16.237 44.3091C14.797 45.5434 14.3855 46.9834 15.2084 48.2177C15.8256 49.6578 17.0599 50.2749 18.7056 50.2749C20.7628 50.2749 22.6143 50.2749 24.6715 50.2749C25.2886 50.2749 36.8089 50.2749 48.5349 50.2749C60.2609 50.2749 71.5755 50.2749 72.3984 50.2749C74.4556 50.2749 76.307 50.2749 78.3642 50.2749C80.01 50.2749 81.2443 49.6578 81.8614 48.2177C82.4786 46.7777 82.0672 45.5434 80.8328 44.3091C80.01 43.4862 74.867 38.9604 69.3126 33.8174C61.0838 27.0286 52.2379 19.2113 51.0036 17.7713ZM71.9869 46.3663C70.7526 46.3663 25.7001 46.3663 24.4658 46.3663C23.4372 46.3663 22.4086 46.3663 21.38 46.3663C20.9685 46.3663 20.5571 46.3663 20.3514 46.3663C22.4086 44.5148 26.7287 40.6061 31.2545 36.4917C38.6604 29.703 47.0949 22.2971 48.3292 21.0628C49.5635 22.2971 58.4094 30.1144 66.0211 36.9032C70.3412 40.8118 74.2498 44.3091 76.307 46.1605C74.867 46.3663 73.427 46.3663 71.9869 46.3663Z" fill="#2988FF"/>
</svg>
