<svg width="96" height="96" viewBox="0 0 96 96" fill="none" xmlns="http://www.w3.org/2000/svg">
<path fill-rule="evenodd" clip-rule="evenodd" d="M23.5726 59.3691C23.8943 59.0784 24.3124 58.9175 24.7459 58.9175H33.0039C33.9704 58.9175 34.7539 59.701 34.7539 60.6675C34.7539 61.634 33.9704 62.4175 33.0039 62.4175H25.4195L14.0936 72.6525H82.4249L71.6273 62.4175H63.3349C62.3684 62.4175 61.5849 61.634 61.5849 60.6675C61.5849 59.701 62.3684 58.9175 63.3349 58.9175H72.3249C72.7729 58.9175 73.2038 59.0892 73.5289 59.3974L88.0188 73.1324C88.5387 73.6252 88.7058 74.3851 88.4405 75.0505C88.1753 75.7159 87.5313 76.1525 86.8149 76.1525H9.54695C8.823 76.1525 8.1738 75.7067 7.91375 75.0311C7.6537 74.3555 7.8365 73.5895 8.37362 73.1041L23.5726 59.3691Z" fill="#1C3553"/>
<path fill-rule="evenodd" clip-rule="evenodd" d="M35.5 21.4995C35.5 20.6711 36.1716 19.9995 37 19.9995H59.228C60.0564 19.9995 60.728 20.6711 60.728 21.4995V64.7044C60.728 65.5328 60.0564 66.2044 59.228 66.2044H37C36.1716 66.2044 35.5 65.5328 35.5 64.7044V21.4995ZM38.5 22.9995V63.2044H57.728V22.9995H38.5Z" fill="#2988FF"/>
<path fill-rule="evenodd" clip-rule="evenodd" d="M40.9248 43.8912C40.9248 43.3389 41.3725 42.8912 41.9248 42.8912H44.9248C45.4771 42.8912 45.9248 43.3389 45.9248 43.8912C45.9248 44.4435 45.4771 44.8912 44.9248 44.8912H41.9248C41.3725 44.8912 40.9248 44.4435 40.9248 43.8912Z" fill="#2988FF"/>
<path fill-rule="evenodd" clip-rule="evenodd" d="M39.5801 24.3175C39.5801 24.1096 39.7486 23.941 39.9566 23.941H56.2696C56.4775 23.941 56.6461 24.1096 56.6461 24.3175V61.9604C56.6461 62.1684 56.4775 62.3369 56.2696 62.3369H39.9566C39.7486 62.3369 39.5801 62.1684 39.5801 61.9604V24.3175ZM40.3331 24.694V61.5839H55.8931V24.694H40.3331Z" fill="#2988FF"/>
</svg>
