<svg width="96" height="96" viewBox="0 0 96 96" fill="none" xmlns="http://www.w3.org/2000/svg">
<path fill-rule="evenodd" clip-rule="evenodd" d="M21.9085 60.0873C22.2614 59.7684 22.7202 59.5918 23.1958 59.5918H32.0044C33.0647 59.5918 33.9244 60.4514 33.9244 61.5118C33.9244 62.5722 33.0647 63.4318 32.0044 63.4318H23.9348L11.9719 74.2425H84.5863L73.1814 63.4318H64.3574C63.297 63.4318 62.4374 62.5722 62.4374 61.5118C62.4374 60.4514 63.297 59.5918 64.3574 59.5918H73.9468C74.4382 59.5918 74.9109 59.7802 75.2676 60.1183L90.7236 74.7691C91.294 75.3097 91.4773 76.1434 91.1863 76.8735C90.8953 77.6036 90.1887 78.0825 89.4028 78.0825H6.98356C6.18929 78.0825 5.47701 77.5935 5.1917 76.8522C4.90639 76.111 5.10696 75.2705 5.69625 74.738L21.9085 60.0873Z" fill="#1C3553"/>
<path fill-rule="evenodd" clip-rule="evenodd" d="M34.3521 19.7325C34.3521 18.6721 35.2117 17.8125 36.2721 17.8125H59.9819C61.0423 17.8125 61.9019 18.6721 61.9019 19.7325V65.8178C61.9019 66.8782 61.0423 67.7379 59.9819 67.7379H36.2721C35.2117 67.7379 34.3521 66.8782 34.3521 65.8178V19.7325ZM38.1921 21.6525V63.8978H58.0619V21.6525H38.1921Z" fill="#2988FF"/>
<path fill-rule="evenodd" clip-rule="evenodd" d="M39.3721 43.617C39.3721 42.9521 39.9111 42.413 40.5761 42.413H43.1073C43.7722 42.413 44.3113 42.9521 44.3113 43.617C44.3113 44.282 43.7722 44.821 43.1073 44.821H40.5761C39.9111 44.821 39.3721 44.282 39.3721 43.617Z" fill="#2988FF"/>
</svg>
