<svg width="96" height="96" viewBox="0 0 96 96" fill="none" xmlns="http://www.w3.org/2000/svg">
<path fill-rule="evenodd" clip-rule="evenodd" d="M23.5726 59.3691C23.8942 59.0784 24.3123 58.9175 24.7459 58.9175H33.0039C33.9704 58.9175 34.7539 59.701 34.7539 60.6675C34.7539 61.634 33.9704 62.4175 33.0039 62.4175H25.4195L14.0935 72.6525H82.4249L71.6273 62.4175H63.3349C62.3684 62.4175 61.5849 61.634 61.5849 60.6675C61.5849 59.701 62.3684 58.9175 63.3349 58.9175H72.3249C72.7728 58.9175 73.2037 59.0892 73.5288 59.3974L88.0188 73.1324C88.5387 73.6252 88.7057 74.3851 88.4405 75.0505C88.1752 75.7159 87.5312 76.1525 86.8149 76.1525H9.54689C8.82294 76.1525 8.17373 75.7067 7.91369 75.0311C7.65364 74.3555 7.83644 73.5895 8.37356 73.1041L23.5726 59.3691Z" fill="#1C3553"/>
<path fill-rule="evenodd" clip-rule="evenodd" d="M35.5 21.4995C35.5 20.6711 36.1716 19.9995 37 19.9995H59.228C60.0564 19.9995 60.728 20.6711 60.728 21.4995V64.7044C60.728 65.5328 60.0564 66.2044 59.228 66.2044H37C36.1716 66.2044 35.5 65.5328 35.5 64.7044V21.4995ZM38.5 22.9995V63.2044H57.728V22.9995H38.5Z" fill="#2988FF"/>
<path fill-rule="evenodd" clip-rule="evenodd" d="M40.9248 43.8911C40.9248 43.3388 41.3725 42.8911 41.9248 42.8911H44.9248C45.4771 42.8911 45.9248 43.3388 45.9248 43.8911C45.9248 44.4434 45.4771 44.8911 44.9248 44.8911H41.9248C41.3725 44.8911 40.9248 44.4434 40.9248 43.8911Z" fill="#2988FF"/>
<path fill-rule="evenodd" clip-rule="evenodd" d="M39.5805 24.3174C39.5805 24.1095 39.7491 23.9409 39.957 23.9409H56.27C56.4779 23.9409 56.6465 24.1095 56.6465 24.3174V61.9603C56.6465 62.1683 56.4779 62.3368 56.27 62.3368H39.957C39.7491 62.3368 39.5805 62.1683 39.5805 61.9603V24.3174ZM40.3335 24.6939V61.5838H55.8935V24.6939H40.3335Z" fill="#2988FF"/>
</svg>
