<svg width="96" height="96" viewBox="0 0 96 96" fill="none" xmlns="http://www.w3.org/2000/svg">
<path d="M17.2002 57.5008C17.2002 57.5008 17.3002 57.5008 17.2002 57.5008C19.3002 57.5008 21.3002 57.5008 23.3002 57.5008C23.4002 57.5008 23.6002 57.5008 23.6002 57.5008C23.6002 57.6008 23.6002 57.7008 23.6002 57.8008V60.2008V60.3008V61.5008C23.6002 62.3008 24.3002 63.0008 25.1002 63.0008H48.8002V64.6008C48.8002 65.4008 49.5002 66.1008 50.3002 66.1008H54.0002V67.7008C54.0002 68.5008 54.7002 69.2008 55.5002 69.2008H59.3002V71.0008C59.3002 71.8008 60.0002 72.5008 60.8002 72.5008H70.8002C71.6002 72.5008 72.3002 71.8008 72.3002 71.0008V57.9008C72.3002 57.8008 72.3002 57.6008 72.3002 57.6008C72.4002 57.6008 72.5002 57.6008 72.6002 57.6008C74.6002 57.6008 76.6002 57.6008 78.7002 57.6008C80.2002 57.6008 81.2002 57.0008 81.7002 55.9008C82.5002 54.1008 81.2002 53.0008 80.7002 52.5008C78.4002 50.3008 63.6002 36.5008 55.5002 28.9008L50.5002 24.2008C50.3002 23.8008 49.4002 22.9008 48.0002 23.0008C46.7002 22.8008 45.7002 23.8008 45.4002 24.1008L40.4002 28.8008C32.3002 36.4008 17.5002 50.3008 15.2002 52.4008C14.7002 52.8008 13.5002 54.0008 14.2002 55.8008C14.7002 57.0008 15.7002 57.5008 17.2002 57.5008ZM42.4002 31.0008L47.4002 26.3008C47.6002 26.2008 47.7002 26.1008 47.7002 26.0008C47.9002 26.0008 48.1002 26.0008 48.2002 26.0008C48.3002 26.0008 48.4002 26.1008 48.5002 26.3008L53.5002 31.0008C61.5002 38.5008 76.2002 52.3008 78.6002 54.6008C76.6002 54.6008 74.6002 54.6008 72.6002 54.6008C70.4002 54.6008 69.3002 55.8008 69.3002 57.9008V69.5008H62.3002V67.8008C62.3002 67.0008 61.6002 66.3008 60.8002 66.3008H57.0002V64.7008C57.0002 63.9008 56.3002 63.2008 55.5002 63.2008H51.8002V61.6008C51.8002 60.8008 51.1002 60.1008 50.3002 60.1008H26.7002C26.7002 60.0008 26.7002 59.9008 26.7002 59.8008V57.8008V57.7008V57.2008C26.7002 56.9008 26.6002 56.7008 26.5002 56.4008C26.1002 55.2008 25.0002 54.6008 23.4002 54.6008C21.4002 54.6008 19.4002 54.6008 17.4002 54.6008C19.8002 52.3008 34.4002 38.5008 42.4002 31.0008Z" fill="#2988FF"/>
<path d="M42.6001 47.7007C42.0001 47.7007 41.6001 48.1007 41.6001 48.7007V59.3007C41.6001 59.9007 42.0001 60.3007 42.6001 60.3007H48.1001C48.7001 60.3007 49.1001 59.9007 49.1001 59.3007V48.7007C49.1001 48.1007 48.7001 47.7007 48.1001 47.7007H42.6001ZM47.2001 58.3007H43.7001V49.7007H47.2001V58.3007Z" fill="#1C3553"/>
<path d="M31.5999 32.6008C31.5999 31.6008 31.1999 31.1008 30.0999 31.1008C28.4999 31.1008 26.9999 31.1008 25.3999 31.1008C24.3999 31.1008 23.8999 31.5008 23.8999 32.6008C23.8999 36.5008 23.8999 41.7008 23.8999 41.7008L31.4999 34.4008C31.4999 33.5008 31.5999 33.5008 31.5999 32.6008Z" fill="#1C3553"/>
<path d="M19.8999 56.0007C20.3999 56.5007 21.1999 56.5007 21.6999 56.1007C23.3999 54.5007 33.1999 45.5007 40.2999 38.9007L47.6999 32.1007C47.7999 32.0007 47.8999 32.0007 47.8999 31.9007C48.0999 31.9007 48.1999 31.9007 48.3999 31.9007C48.4999 31.9007 48.4999 32.0007 48.6999 32.1007L55.7999 38.6007C62.8999 45.2007 72.9999 54.4007 74.6999 56.0007C74.8999 56.2007 75.2999 56.3007 75.5999 56.3007C75.8999 56.3007 76.2999 56.2007 76.4999 55.9007C76.9999 55.4007 76.8999 54.6007 76.3999 54.1007C74.6999 52.5007 64.5999 43.2007 57.4999 36.7007L50.3999 30.2007C50.0999 29.9007 49.2999 29.2007 48.1999 29.3007C47.0999 29.2007 46.1999 29.9007 45.9999 30.2007L38.5999 37.0007C31.3999 43.6007 21.5999 52.7007 19.8999 54.2007C19.3999 54.7007 19.3999 55.5007 19.8999 56.0007Z" fill="#1C3553"/>
</svg>
