<svg width="96" height="96" viewBox="0 0 96 96" fill="none" xmlns="http://www.w3.org/2000/svg">
<path fill-rule="evenodd" clip-rule="evenodd" d="M21.9083 60.0873C22.2612 59.7684 22.72 59.5918 23.1956 59.5918H32.0042C33.0646 59.5918 33.9242 60.4514 33.9242 61.5118C33.9242 62.5722 33.0646 63.4318 32.0042 63.4318H23.9346L11.9717 74.2425H84.5861L73.1812 63.4318H64.3572C63.2969 63.4318 62.4372 62.5722 62.4372 61.5118C62.4372 60.4514 63.2969 59.5918 64.3572 59.5918H73.9466C74.438 59.5918 74.9108 59.7802 75.2674 60.1183L90.7234 74.7691C91.2938 75.3097 91.4771 76.1434 91.1861 76.8735C90.8951 77.6036 90.1885 78.0825 89.4026 78.0825H6.98337C6.1891 78.0825 5.47683 77.5935 5.19152 76.8522C4.90621 76.111 5.10677 75.2705 5.69607 74.738L21.9083 60.0873Z" fill="#1C3553"/>
<path fill-rule="evenodd" clip-rule="evenodd" d="M34.352 19.7325C34.352 18.6721 35.2116 17.8125 36.272 17.8125H59.9819C61.0422 17.8125 61.9019 18.6721 61.9019 19.7325V65.8178C61.9019 66.8782 61.0422 67.7379 59.9819 67.7379H36.272C35.2116 67.7379 34.352 66.8782 34.352 65.8178V19.7325ZM38.192 21.6525V63.8978H58.0618V21.6525H38.192Z" fill="#2988FF"/>
<path fill-rule="evenodd" clip-rule="evenodd" d="M39.372 43.6171C39.372 42.9521 39.9111 42.4131 40.576 42.4131H43.1072C43.7722 42.4131 44.3112 42.9521 44.3112 43.6171C44.3112 44.282 43.7722 44.8211 43.1072 44.8211H40.576C39.9111 44.8211 39.372 44.282 39.372 43.6171Z" fill="#2988FF"/>
</svg>
