<svg width="96" height="96" viewBox="0 0 96 96" fill="none" xmlns="http://www.w3.org/2000/svg">
<path d="M17.2 57.5008C17.2 57.5008 17.3 57.5008 17.2 57.5008C19.3 57.5008 21.3 57.5008 23.3 57.5008C23.4 57.5008 23.6 57.5008 23.6 57.5008C23.6 57.6008 23.6 57.7008 23.6 57.8008V60.2008V60.3008V61.5008C23.6 62.3008 24.3 63.0008 25.1 63.0008H48.8V64.6008C48.8 65.4008 49.5 66.1008 50.3 66.1008H54V67.7008C54 68.5008 54.7 69.2008 55.5 69.2008H59.3V71.0008C59.3 71.8008 60 72.5008 60.8 72.5008H70.8C71.6 72.5008 72.3 71.8008 72.3 71.0008V57.9008C72.3 57.8008 72.3 57.6008 72.3 57.6008C72.4 57.6008 72.5 57.6008 72.6 57.6008C74.6 57.6008 76.6 57.6008 78.7 57.6008C80.2 57.6008 81.2 57.0008 81.7 55.9008C82.5 54.1008 81.2 53.0008 80.7 52.5008C78.4 50.3008 63.6 36.5008 55.5 28.9008L50.5 24.2008C50.3 23.8008 49.4 22.9008 48 23.0008C46.7 22.8008 45.7 23.8008 45.4 24.1008L40.4 28.8008C32.3 36.4008 17.5 50.3008 15.2 52.4008C14.7 52.8008 13.5 54.0008 14.2 55.8008C14.7 57.0008 15.7 57.5008 17.2 57.5008ZM42.4 31.0008L47.4 26.3008C47.6 26.2008 47.7 26.1008 47.7 26.0008C47.9 26.0008 48.1 26.0008 48.2 26.0008C48.3 26.0008 48.4 26.1008 48.5 26.3008L53.5 31.0008C61.5 38.5008 76.2 52.3008 78.6 54.6008C76.6 54.6008 74.6 54.6008 72.6 54.6008C70.4 54.6008 69.3 55.8008 69.3 57.9008V69.5008H62.3V67.8008C62.3 67.0008 61.6 66.3008 60.8 66.3008H57V64.7008C57 63.9008 56.3 63.2008 55.5 63.2008H51.8V61.6008C51.8 60.8008 51.1 60.1008 50.3 60.1008H26.7C26.7 60.0008 26.7 59.9008 26.7 59.8008V57.8008V57.7008V57.2008C26.7 56.9008 26.6 56.7008 26.5 56.4008C26.1 55.2008 25 54.6008 23.4 54.6008C21.4 54.6008 19.4 54.6008 17.4 54.6008C19.8 52.3008 34.4 38.5008 42.4 31.0008Z" fill="#2988FF"/>
<path d="M42.6 47.7007C42 47.7007 41.6 48.1007 41.6 48.7007V59.3007C41.6 59.9007 42 60.3007 42.6 60.3007H48.1C48.7 60.3007 49.1 59.9007 49.1 59.3007V48.7007C49.1 48.1007 48.7 47.7007 48.1 47.7007H42.6ZM47.2 58.3007H43.7V49.7007H47.2V58.3007Z" fill="#1C3553"/>
<path d="M31.6 32.6008C31.6 31.6008 31.2 31.1008 30.1 31.1008C28.5 31.1008 27 31.1008 25.4 31.1008C24.4 31.1008 23.9 31.5008 23.9 32.6008C23.9 36.5008 23.9 41.7008 23.9 41.7008L31.5 34.4008C31.5 33.5008 31.6 33.5008 31.6 32.6008Z" fill="#1C3553"/>
<path d="M19.9 56.0007C20.4 56.5007 21.2 56.5007 21.7 56.1007C23.4 54.5007 33.2 45.5007 40.3 38.9007L47.7 32.1007C47.8 32.0007 47.9 32.0007 47.9 31.9007C48.1 31.9007 48.2 31.9007 48.4 31.9007C48.5 31.9007 48.5 32.0007 48.7 32.1007L55.8 38.6007C62.9 45.2007 73 54.4007 74.7 56.0007C74.9 56.2007 75.3 56.3007 75.6 56.3007C75.9 56.3007 76.3 56.2007 76.5 55.9007C77 55.4007 76.9 54.6007 76.4 54.1007C74.7 52.5007 64.6 43.2007 57.5 36.7007L50.4 30.2007C50.1 29.9007 49.3 29.2007 48.2 29.3007C47.1 29.2007 46.2 29.9007 46 30.2007L38.6 37.0007C31.4 43.6007 21.6 52.7007 19.9 54.2007C19.4 54.7007 19.4 55.5007 19.9 56.0007Z" fill="#1C3553"/>
</svg>
