<svg width="96" height="96" viewBox="0 0 96 96" fill="none" xmlns="http://www.w3.org/2000/svg">
<path fill-rule="evenodd" clip-rule="evenodd" d="M24.6396 44.8001C24.6396 44.2699 25.0695 43.8401 25.5996 43.8401H30.1711C30.7013 43.8401 31.1311 44.2699 31.1311 44.8001V54.4001C31.1311 54.9303 30.7013 55.3601 30.1711 55.3601H25.5996C25.0695 55.3601 24.6396 54.9303 24.6396 54.4001V44.8001ZM26.5596 45.7601V53.4401H29.2111V45.7601H26.5596Z" fill="#1C3553"/>
<path fill-rule="evenodd" clip-rule="evenodd" d="M66.2393 44.8001C66.2393 44.2699 66.6691 43.8401 67.1993 43.8401H71.7707C72.3009 43.8401 72.7307 44.2699 72.7307 44.8001V54.4001C72.7307 54.9303 72.3009 55.3601 71.7707 55.3601H67.1993C66.6691 55.3601 66.2393 54.9303 66.2393 54.4001V44.8001ZM68.1593 45.7601V53.4401H70.8107V45.7601H68.1593Z" fill="#1C3553"/>
<path fill-rule="evenodd" clip-rule="evenodd" d="M40.7998 50.2401C40.7998 49.3565 41.5161 48.6401 42.3998 48.6401H54.5278C55.4115 48.6401 56.1278 49.3565 56.1278 50.2401V71.0401H52.9278V51.8401H43.9998V71.0401H40.7998V50.2401Z" fill="#1C3553"/>
<path fill-rule="evenodd" clip-rule="evenodd" d="M8 29.6C8 28.2745 9.07452 27.2 10.4 27.2H84.0695C85.395 27.2 86.4695 28.2745 86.4695 29.6C86.4695 30.9254 85.395 32 84.0695 32H10.4C9.07452 32 8 30.9254 8 29.6Z" fill="#2988FF"/>
<path fill-rule="evenodd" clip-rule="evenodd" d="M12.7949 34.4H82.3997V37.6H12.7949V34.4Z" fill="#2988FF"/>
<path fill-rule="evenodd" clip-rule="evenodd" d="M12.7949 66.24H82.3997V69.44H12.7949V66.24Z" fill="#2988FF"/>
<path fill-rule="evenodd" clip-rule="evenodd" d="M8.7998 69.6C8.7998 68.7163 9.51615 68 10.3998 68H85.5998C86.4835 68 87.1998 68.7163 87.1998 69.6C87.1998 70.4837 86.4835 71.2 85.5998 71.2H10.3998C9.51615 71.2 8.7998 70.4837 8.7998 69.6Z" fill="#2988FF"/>
<path fill-rule="evenodd" clip-rule="evenodd" d="M16.0002 27.2V70.4333H11.2002V27.2H16.0002Z" fill="#2988FF"/>
<path fill-rule="evenodd" clip-rule="evenodd" d="M84.8 27.2V70.4333H80V27.2H84.8Z" fill="#2988FF"/>
<path d="M67.2002 25.6C67.2002 24.7163 67.9165 24 68.8002 24H73.6002C74.4839 24 75.2002 24.7163 75.2002 25.6V27.2C75.2002 28.0837 74.4839 28.8 73.6002 28.8H68.8002C67.9165 28.8 67.2002 28.0837 67.2002 27.2V25.6Z" fill="#2988FF"/>
</svg>
