<svg width="96" height="96" viewBox="0 0 96 96" fill="none" xmlns="http://www.w3.org/2000/svg">
<path fill-rule="evenodd" clip-rule="evenodd" d="M31.7001 22.4999C31.7001 21.5058 32.506 20.6999 33.5001 20.6999H87.5092C88.5033 20.6999 89.3092 21.5058 89.3092 22.4999C89.3092 23.494 88.5033 24.2999 87.5092 24.2999H33.5001C32.506 24.2999 31.7001 23.494 31.7001 22.4999Z" fill="#1C3553"/>
<path fill-rule="evenodd" clip-rule="evenodd" d="M66.9998 71.4C66.9998 70.5715 67.6714 69.9 68.4998 69.9H87.5093C88.3377 69.9 89.0093 70.5715 89.0093 71.4C89.0093 72.2284 88.3377 72.9 87.5093 72.9H68.4998C67.6714 72.9 66.9998 72.2284 66.9998 71.4Z" fill="#1C3553"/>
<path fill-rule="evenodd" clip-rule="evenodd" d="M37.5001 20.6999C38.4942 20.6999 39.3001 21.5058 39.3001 22.4999V35.6528C39.3001 36.6469 38.4942 37.4528 37.5001 37.4528C36.506 37.4528 35.7001 36.6469 35.7001 35.6528V22.4999C35.7001 21.5058 36.506 20.6999 37.5001 20.6999Z" fill="#1C3553"/>
<path fill-rule="evenodd" clip-rule="evenodd" d="M83.5 20.6999C84.4941 20.6999 85.3 21.5058 85.3 22.4999V71.0076C85.3 72.0017 84.4941 72.8076 83.5 72.8076C82.5059 72.8076 81.7 72.0017 81.7 71.0076V22.4999C81.7 21.5058 82.5059 20.6999 83.5 20.6999Z" fill="#1C3553"/>
<path fill-rule="evenodd" clip-rule="evenodd" d="M69.7996 40.4999C69.7996 40.1133 70.113 39.7999 70.4996 39.7999H73.9996C74.3862 39.7999 74.6996 40.1133 74.6996 40.4999V47.4999C74.6996 47.8865 74.3862 48.1999 73.9996 48.1999H70.4996C70.113 48.1999 69.7996 47.8865 69.7996 47.4999V40.4999ZM71.1996 41.1999V46.7999H73.2996V41.1999H71.1996Z" fill="#1C3553"/>
<path fill-rule="evenodd" clip-rule="evenodd" d="M20.3994 55C20.3994 54.6686 20.668 54.4 20.9994 54.4H23.9994C24.3307 54.4 24.5994 54.6686 24.5994 55V61C24.5994 61.3314 24.3307 61.6 23.9994 61.6H20.9994C20.668 61.6 20.3994 61.3314 20.3994 61V55ZM21.5994 55.6V60.4H23.3994V55.6H21.5994Z" fill="#2988FF"/>
<path fill-rule="evenodd" clip-rule="evenodd" d="M47.3993 55C47.3993 54.6686 47.6679 54.4 47.9993 54.4H50.9993C51.3307 54.4 51.5993 54.6686 51.5993 55V61C51.5993 61.3314 51.3307 61.6 50.9993 61.6H47.9993C47.6679 61.6 47.3993 61.3314 47.3993 61V55ZM48.5993 55.6V60.4H50.3993V55.6H48.5993Z" fill="#2988FF"/>
<path fill-rule="evenodd" clip-rule="evenodd" d="M7.99998 71.9999C7.99998 71.4477 8.44769 70.9999 8.99998 70.9999H62.9998C63.5521 70.9999 63.9998 71.4477 63.9998 71.9999C63.9998 72.5522 63.5521 72.9999 62.9998 72.9999H8.99998C8.44769 72.9999 7.99998 72.5522 7.99998 71.9999Z" fill="#2988FF"/>
<path fill-rule="evenodd" clip-rule="evenodd" d="M9.99997 69.3H31.0262V71.3H9.99997V69.3Z" fill="#2988FF"/>
<path fill-rule="evenodd" clip-rule="evenodd" d="M39.9999 69.3H61.0261V71.3H39.9999V69.3Z" fill="#2988FF"/>
<path fill-rule="evenodd" clip-rule="evenodd" d="M10.5801 46.3334H61.0001V48.3334H10.5801V46.3334Z" fill="#2988FF"/>
<path fill-rule="evenodd" clip-rule="evenodd" d="M7.08494 41.9999C7.08494 41.1715 7.75651 40.4999 8.58494 40.4999H62.4654C63.2939 40.4999 63.9654 41.1715 63.9654 41.9999C63.9654 42.8283 63.2939 43.4999 62.4654 43.4999H8.58494C7.75651 43.4999 7.08494 42.8283 7.08494 41.9999Z" fill="#2988FF"/>
<path fill-rule="evenodd" clip-rule="evenodd" d="M12.5 41.1V72.9249H9.49998V41.1H12.5Z" fill="#2988FF"/>
<path fill-rule="evenodd" clip-rule="evenodd" d="M62.4998 41.1V72.9249H59.4998V41.1H62.4998Z" fill="#2988FF"/>
<path fill-rule="evenodd" clip-rule="evenodd" d="M49.9999 38.9999C49.9999 38.4476 50.4476 37.9999 50.9999 37.9999H54.9999C55.5521 37.9999 55.9999 38.4476 55.9999 38.9999V40.9999C55.9999 41.5522 55.5521 41.9999 54.9999 41.9999H50.9999C50.4476 41.9999 49.9999 41.5522 49.9999 40.9999V38.9999Z" fill="#2988FF"/>
<path fill-rule="evenodd" clip-rule="evenodd" d="M30.9999 58C30.9999 57.4477 31.4476 57 31.9999 57H40.9999C41.5522 57 41.9999 57.4477 41.9999 58V70.9999C41.9999 71.5522 41.5522 71.9999 40.9999 71.9999H31.9999C31.4476 71.9999 30.9999 71.5522 30.9999 70.9999V58ZM32.9999 59V69.9999H39.9999V59H32.9999Z" fill="#2988FF"/>
</svg>
