<svg width="96" height="96" viewBox="0 0 96 96" fill="none" xmlns="http://www.w3.org/2000/svg">
<path fill-rule="evenodd" clip-rule="evenodd" d="M18.2494 69.4142C18.2494 68.6686 18.8538 68.0642 19.5994 68.0642H76.4014C77.147 68.0642 77.7514 68.6686 77.7514 69.4142V73.6432C77.7514 74.3888 77.147 74.9932 76.4014 74.9932H19.5994C18.8538 74.9932 18.2494 74.3888 18.2494 73.6432V69.4142ZM20.9494 70.7642V72.2932H75.0514V70.7642H20.9494Z" fill="#2988FF"/>
<path fill-rule="evenodd" clip-rule="evenodd" d="M17.2462 50.4728C17.2462 49.7272 17.8506 49.1228 18.5962 49.1228H77.4048C78.1504 49.1228 78.7548 49.7272 78.7548 50.4728C78.7548 51.2184 78.1504 51.8228 77.4048 51.8228H18.5962C17.8506 51.8228 17.2462 51.2184 17.2462 50.4728Z" fill="#2988FF"/>
<path fill-rule="evenodd" clip-rule="evenodd" d="M22.1828 50.3347C22.9284 50.3347 23.5328 50.9391 23.5328 51.6847V67.9267C23.5328 68.6723 22.9284 69.2767 22.1828 69.2767C21.4372 69.2767 20.8328 68.6723 20.8328 67.9267V51.6847C20.8328 50.9391 21.4372 50.3347 22.1828 50.3347Z" fill="#2988FF"/>
<path fill-rule="evenodd" clip-rule="evenodd" d="M29.5597 50.9756C30.3053 50.9756 30.9097 51.58 30.9097 52.3256V67.9266C30.9097 68.6722 30.3053 69.2766 29.5597 69.2766C28.8141 69.2766 28.2097 68.6722 28.2097 67.9266V52.3256C28.2097 51.58 28.8141 50.9756 29.5597 50.9756Z" fill="#2988FF"/>
<path fill-rule="evenodd" clip-rule="evenodd" d="M36.9358 50.9756C37.6814 50.9756 38.2858 51.58 38.2858 52.3256V67.9266C38.2858 68.6722 37.6814 69.2766 36.9358 69.2766C36.1902 69.2766 35.5858 68.6722 35.5858 67.9266V52.3256C35.5858 51.58 36.1902 50.9756 36.9358 50.9756Z" fill="#2988FF"/>
<path fill-rule="evenodd" clip-rule="evenodd" d="M44.3124 50.9756C45.058 50.9756 45.6624 51.58 45.6624 52.3256V67.9266C45.6624 68.6722 45.058 69.2766 44.3124 69.2766C43.5668 69.2766 42.9624 68.6722 42.9624 67.9266V52.3256C42.9624 51.58 43.5668 50.9756 44.3124 50.9756Z" fill="#2988FF"/>
<path fill-rule="evenodd" clip-rule="evenodd" d="M51.6889 50.9756C52.4345 50.9756 53.0389 51.58 53.0389 52.3256V67.9266C53.0389 68.6722 52.4345 69.2766 51.6889 69.2766C50.9433 69.2766 50.3389 68.6722 50.3389 67.9266V52.3256C50.3389 51.58 50.9433 50.9756 51.6889 50.9756Z" fill="#2988FF"/>
<path fill-rule="evenodd" clip-rule="evenodd" d="M59.0646 50.9756C59.8102 50.9756 60.4146 51.58 60.4146 52.3256V67.9266C60.4146 68.6722 59.8102 69.2766 59.0646 69.2766C58.319 69.2766 57.7146 68.6722 57.7146 67.9266V52.3256C57.7146 51.58 58.319 50.9756 59.0646 50.9756Z" fill="#2988FF"/>
<path fill-rule="evenodd" clip-rule="evenodd" d="M66.4411 50.9756C67.1867 50.9756 67.7911 51.58 67.7911 52.3256V67.9266C67.7911 68.6722 67.1867 69.2766 66.4411 69.2766C65.6955 69.2766 65.0911 68.6722 65.0911 67.9266V52.3256C65.0911 51.58 65.6955 50.9756 66.4411 50.9756Z" fill="#2988FF"/>
<path fill-rule="evenodd" clip-rule="evenodd" d="M73.8177 50.3154C74.5632 50.3154 75.1677 50.9198 75.1677 51.6654V67.9074C75.1677 68.653 74.5632 69.2574 73.8177 69.2574C73.0721 69.2574 72.4677 68.653 72.4677 67.9074V51.6654C72.4677 50.9198 73.0721 50.3154 73.8177 50.3154Z" fill="#2988FF"/>
<path fill-rule="evenodd" clip-rule="evenodd" d="M25.7725 24.4697C25.7725 23.6582 26.4304 23.0002 27.242 23.0002H48.194C49.0056 23.0002 49.6635 23.6582 49.6635 24.4697V50.3697C49.6635 51.1813 49.0056 51.8392 48.194 51.8392H27.242C26.4304 51.8392 25.7725 51.1813 25.7725 50.3697V24.4697ZM28.7115 25.9392V48.9002H46.7245V25.9392H28.7115Z" fill="#1C3553"/>
<path fill-rule="evenodd" clip-rule="evenodd" d="M37.7179 25.0715C38.0299 25.0715 38.2829 25.3245 38.2829 25.6365V50.3115C38.2829 50.6236 38.0299 50.8765 37.7179 50.8765C37.4059 50.8765 37.1529 50.6236 37.1529 50.3115V25.6365C37.1529 25.3245 37.4059 25.0715 37.7179 25.0715Z" fill="#1C3553"/>
<path fill-rule="evenodd" clip-rule="evenodd" d="M25.9381 38.5294C25.9381 38.2173 26.1911 37.9644 26.5031 37.9644H48.9331C49.2451 37.9644 49.4981 38.2173 49.4981 38.5294C49.4981 38.8414 49.2451 39.0944 48.9331 39.0944H26.5031C26.1911 39.0944 25.9381 38.8414 25.9381 38.5294Z" fill="#1C3553"/>
</svg>
