<svg width="96" height="96" viewBox="0 0 96 96" fill="none" xmlns="http://www.w3.org/2000/svg">
<path fill-rule="evenodd" clip-rule="evenodd" d="M24.64 44.8001C24.64 44.2699 25.0698 43.8401 25.6 43.8401H30.1714C30.7016 43.8401 31.1314 44.2699 31.1314 44.8001V54.4001C31.1314 54.9303 30.7016 55.3601 30.1714 55.3601H25.6C25.0698 55.3601 24.64 54.9303 24.64 54.4001V44.8001ZM26.56 45.7601V53.4401H29.2114V45.7601H26.56Z" fill="#1C3553"/>
<path fill-rule="evenodd" clip-rule="evenodd" d="M66.2401 44.8001C66.2401 44.2699 66.6699 43.8401 67.2001 43.8401H71.7715C72.3017 43.8401 72.7315 44.2699 72.7315 44.8001V54.4001C72.7315 54.9303 72.3017 55.3601 71.7715 55.3601H67.2001C66.6699 55.3601 66.2401 54.9303 66.2401 54.4001V44.8001ZM68.1601 45.7601V53.4401H70.8115V45.7601H68.1601Z" fill="#1C3553"/>
<path fill-rule="evenodd" clip-rule="evenodd" d="M40.8 50.2401C40.8 49.3565 41.5164 48.6401 42.4 48.6401H54.528C55.4117 48.6401 56.128 49.3565 56.128 50.2401V71.0401H52.928V51.8401H44V71.0401H40.8V50.2401Z" fill="#1C3553"/>
<path fill-rule="evenodd" clip-rule="evenodd" d="M8 29.6C8 28.2745 9.07452 27.2 10.4 27.2H84.0695C85.395 27.2 86.4695 28.2745 86.4695 29.6C86.4695 30.9254 85.395 32 84.0695 32H10.4C9.07452 32 8 30.9254 8 29.6Z" fill="#2988FF"/>
<path fill-rule="evenodd" clip-rule="evenodd" d="M12.7952 34.3999H82.4V37.5999H12.7952V34.3999Z" fill="#2988FF"/>
<path fill-rule="evenodd" clip-rule="evenodd" d="M12.7952 66.24H82.4V69.44H12.7952V66.24Z" fill="#2988FF"/>
<path fill-rule="evenodd" clip-rule="evenodd" d="M8.79999 69.6C8.79999 68.7163 9.51633 68 10.4 68H85.6C86.4836 68 87.2 68.7163 87.2 69.6C87.2 70.4837 86.4836 71.2 85.6 71.2H10.4C9.51633 71.2 8.79999 70.4837 8.79999 69.6Z" fill="#2988FF"/>
<path fill-rule="evenodd" clip-rule="evenodd" d="M16 27.2V70.4333H11.2V27.2H16Z" fill="#2988FF"/>
<path fill-rule="evenodd" clip-rule="evenodd" d="M84.8 27.2V70.4333H80V27.2H84.8Z" fill="#2988FF"/>
<path d="M67.2 25.6C67.2 24.7163 67.9164 24 68.8 24H73.6C74.4837 24 75.2 24.7163 75.2 25.6V27.2C75.2 28.0837 74.4837 28.8 73.6 28.8H68.8C67.9164 28.8 67.2 28.0837 67.2 27.2V25.6Z" fill="#2988FF"/>
</svg>
