<svg width="96" height="96" viewBox="0 0 96 96" fill="none" xmlns="http://www.w3.org/2000/svg">
<path fill-rule="evenodd" clip-rule="evenodd" d="M32.8835 29.253C33.5974 29.5391 34.0654 30.2308 34.0654 30.9999V41.6641L46.7334 29.6352C47.2789 29.1171 48.0806 28.9738 48.7719 29.2707C49.4632 29.5675 49.9113 30.2476 49.9113 30.9999V41.8488L63.6638 29.5948C64.2173 29.1016 65.009 28.9793 65.6856 29.2826C66.3622 29.5859 66.7976 30.2581 66.7978 30.9996L66.8009 48.0228H84.7762C85.8155 48.0228 86.6582 48.8654 86.6582 49.9048V78.2067C86.6582 79.2461 85.8155 80.0887 84.7762 80.0887H11.6984C10.659 80.0887 9.81639 79.2461 9.81639 78.2067V52.4533C9.81639 51.9692 10.0029 51.5037 10.3373 51.1536L30.8222 29.7002C31.3534 29.144 32.1696 28.9669 32.8835 29.253ZM63.0346 35.1969L49.2813 47.4516C48.7277 47.9449 47.936 48.0671 47.2593 47.7637C46.5827 47.4604 46.1473 46.788 46.1473 46.0464V35.3823L33.4793 47.4112C32.9337 47.9292 32.132 48.0726 31.4407 47.7757C30.7494 47.4788 30.3014 46.7988 30.3014 46.0464V35.6961L13.5804 53.2075V76.3247H82.8942V51.7868H64.9193C63.88 51.7868 63.0375 50.9444 63.0373 49.9051L63.0346 35.1969Z" fill="#1C3553"/>
<path fill-rule="evenodd" clip-rule="evenodd" d="M21.2739 60.4862C21.2739 59.9063 21.744 59.4362 22.3239 59.4362H26.9851C27.565 59.4362 28.0351 59.9063 28.0351 60.4862V68.6434C28.0351 69.2233 27.565 69.6934 26.9851 69.6934H22.3239C21.744 69.6934 21.2739 69.2233 21.2739 68.6434V60.4862ZM23.3739 61.5362V67.5934H25.9351V61.5362H23.3739Z" fill="#2988FF"/>
<path fill-rule="evenodd" clip-rule="evenodd" d="M34.0922 60.486C34.0922 59.9061 34.5623 59.436 35.1422 59.436H39.8035C40.3834 59.436 40.8535 59.9061 40.8535 60.486V68.6431C40.8535 69.223 40.3834 69.6931 39.8035 69.6931H35.1422C34.5623 69.6931 34.0922 69.223 34.0922 68.6431V60.486ZM36.1922 61.536V67.5931H38.7535V61.536H36.1922Z" fill="#2988FF"/>
<path fill-rule="evenodd" clip-rule="evenodd" d="M45.7451 60.486C45.7451 59.9061 46.2152 59.436 46.7951 59.436H51.4563C52.0362 59.436 52.5063 59.9061 52.5063 60.486V68.6431C52.5063 69.223 52.0362 69.6931 51.4563 69.6931H46.7951C46.2152 69.6931 45.7451 69.223 45.7451 68.6431V60.486ZM47.8451 61.536V67.5931H50.4063V61.536H47.8451Z" fill="#2988FF"/>
<path fill-rule="evenodd" clip-rule="evenodd" d="M58.5634 60.486C58.5634 59.9061 59.0335 59.436 59.6134 59.436H64.2746C64.8545 59.436 65.3246 59.9061 65.3246 60.486V68.6431C65.3246 69.223 64.8545 69.6931 64.2746 69.6931H59.6134C59.0335 69.6931 58.5634 69.223 58.5634 68.6431V60.486ZM60.6634 61.536V67.5931H63.2246V61.536H60.6634Z" fill="#2988FF"/>
</svg>
