<svg width="96" height="96" viewBox="0 0 96 96" fill="none" xmlns="http://www.w3.org/2000/svg">
<path fill-rule="evenodd" clip-rule="evenodd" d="M24.6401 44.8001C24.6401 44.2699 25.0699 43.8401 25.6001 43.8401H30.1716C30.7018 43.8401 31.1316 44.2699 31.1316 44.8001V54.4001C31.1316 54.9303 30.7018 55.3601 30.1716 55.3601H25.6001C25.0699 55.3601 24.6401 54.9303 24.6401 54.4001V44.8001ZM26.5601 45.7601V53.4401H29.2116V45.7601H26.5601Z" fill="#1C3553"/>
<path fill-rule="evenodd" clip-rule="evenodd" d="M66.2402 44.8001C66.2402 44.2699 66.67 43.8401 67.2002 43.8401H71.7717C72.3019 43.8401 72.7317 44.2699 72.7317 44.8001V54.4001C72.7317 54.9303 72.3019 55.3601 71.7717 55.3601H67.2002C66.67 55.3601 66.2402 54.9303 66.2402 54.4001V44.8001ZM68.1602 45.7601V53.4401H70.8117V45.7601H68.1602Z" fill="#1C3553"/>
<path fill-rule="evenodd" clip-rule="evenodd" d="M40.8003 50.2401C40.8003 49.3565 41.5166 48.6401 42.4003 48.6401H54.5283C55.4119 48.6401 56.1283 49.3565 56.1283 50.2401V71.0401H52.9283V51.8401H44.0003V71.0401H40.8003V50.2401Z" fill="#1C3553"/>
<path fill-rule="evenodd" clip-rule="evenodd" d="M8 29.6C8 28.2745 9.07452 27.2 10.4 27.2H84.0695C85.395 27.2 86.4695 28.2745 86.4695 29.6C86.4695 30.9254 85.395 32 84.0695 32H10.4C9.07452 32 8 30.9254 8 29.6Z" fill="#2988FF"/>
<path fill-rule="evenodd" clip-rule="evenodd" d="M12.7954 34.4H82.4002V37.6H12.7954V34.4Z" fill="#2988FF"/>
<path fill-rule="evenodd" clip-rule="evenodd" d="M12.7954 66.24H82.4002V69.44H12.7954V66.24Z" fill="#2988FF"/>
<path fill-rule="evenodd" clip-rule="evenodd" d="M8.7998 69.6C8.7998 68.7163 9.51615 68 10.3998 68H85.5998C86.4835 68 87.1998 68.7163 87.1998 69.6C87.1998 70.4837 86.4835 71.2 85.5998 71.2H10.3998C9.51615 71.2 8.7998 70.4837 8.7998 69.6Z" fill="#2988FF"/>
<path fill-rule="evenodd" clip-rule="evenodd" d="M16.0002 27.2V70.4333H11.2002V27.2H16.0002Z" fill="#2988FF"/>
<path fill-rule="evenodd" clip-rule="evenodd" d="M84.8 27.2V70.4333H80V27.2H84.8Z" fill="#2988FF"/>
<path d="M67.2002 25.6C67.2002 24.7163 67.9165 24 68.8002 24H73.6002C74.4839 24 75.2002 24.7163 75.2002 25.6V27.2C75.2002 28.0837 74.4839 28.8 73.6002 28.8H68.8002C67.9165 28.8 67.2002 28.0837 67.2002 27.2V25.6Z" fill="#2988FF"/>
</svg>
