<svg width="96" height="96" viewBox="0 0 96 96" fill="none" xmlns="http://www.w3.org/2000/svg">
<path fill-rule="evenodd" clip-rule="evenodd" d="M24.7036 74C24.7036 73.1716 25.3752 72.5 26.2036 72.5H70.2036C71.032 72.5 71.7036 73.1716 71.7036 74V79.2C71.7036 80.0284 71.032 80.7 70.2036 80.7H26.2036C25.3752 80.7 24.7036 80.0284 24.7036 79.2V74ZM27.7036 75.5V77.7H68.7036V75.5H27.7036Z" fill="#2988FF"/>
<path fill-rule="evenodd" clip-rule="evenodd" d="M26 56.0007C26 54.8962 26.8954 54.0007 28 54.0007H67.9333C69.0379 54.0007 69.9333 54.8962 69.9333 56.0007C69.9333 57.1053 69.0379 58.0007 67.9333 58.0007H28C26.8954 58.0007 26 57.1053 26 56.0007Z" fill="#2988FF"/>
<path fill-rule="evenodd" clip-rule="evenodd" d="M51.0156 53.9258C52.1202 53.9258 53.0156 54.8212 53.0156 55.9258V73.0406C53.0156 74.1452 52.1202 75.0406 51.0156 75.0406C49.9111 75.0406 49.0156 74.1452 49.0156 73.0406V55.9258C49.0156 54.8212 49.9111 53.9258 51.0156 53.9258Z" fill="#2988FF"/>
<path fill-rule="evenodd" clip-rule="evenodd" d="M58.0703 53.9258C59.1749 53.9258 60.0703 54.8212 60.0703 55.9258V73.0406C60.0703 74.1452 59.1749 75.0406 58.0703 75.0406C56.9657 75.0406 56.0703 74.1452 56.0703 73.0406V55.9258C56.0703 54.8212 56.9657 53.9258 58.0703 53.9258Z" fill="#2988FF"/>
<path fill-rule="evenodd" clip-rule="evenodd" d="M43.9609 53.9258C45.0655 53.9258 45.9609 54.8212 45.9609 55.9258V73.0406C45.9609 74.1452 45.0655 75.0406 43.9609 75.0406C42.8564 75.0406 41.9609 74.1452 41.9609 73.0406V55.9258C41.9609 54.8212 42.8564 53.9258 43.9609 53.9258Z" fill="#2988FF"/>
<path fill-rule="evenodd" clip-rule="evenodd" d="M36.9062 53.9258C38.0108 53.9258 38.9062 54.8212 38.9062 55.9258V73.0406C38.9062 74.1452 38.0108 75.0406 36.9062 75.0406C35.8017 75.0406 34.9062 74.1452 34.9062 73.0406V55.9258C34.9062 54.8212 35.8017 53.9258 36.9062 53.9258Z" fill="#2988FF"/>
<path fill-rule="evenodd" clip-rule="evenodd" d="M30.2236 53.9258C31.3282 53.9258 32.2236 54.8212 32.2236 55.9258V73.0406C32.2236 74.1452 31.3282 75.0406 30.2236 75.0406C29.1191 75.0406 28.2236 74.1452 28.2236 73.0406V55.9258C28.2236 54.8212 29.1191 53.9258 30.2236 53.9258Z" fill="#2988FF"/>
<path fill-rule="evenodd" clip-rule="evenodd" d="M65.125 53.9258C66.2296 53.9258 67.125 54.8212 67.125 55.9258V73.0406C67.125 74.1452 66.2296 75.0406 65.125 75.0406C64.0204 75.0406 63.125 74.1452 63.125 73.0406V55.9258C63.125 54.8212 64.0204 53.9258 65.125 53.9258Z" fill="#2988FF"/>
<path fill-rule="evenodd" clip-rule="evenodd" d="M30.3999 18.3999H64.5999V57.0998H30.3999V18.3999ZM33.5999 21.5999V53.8998H61.3999V21.5999H33.5999Z" fill="#1C3553"/>
<path fill-rule="evenodd" clip-rule="evenodd" d="M47.3998 20.8999C48.0073 20.8999 48.4998 21.3924 48.4998 21.9999V55.5011C48.4998 56.1086 48.0073 56.6011 47.3998 56.6011C46.7923 56.6011 46.2998 56.1086 46.2998 55.5011V21.9999C46.2998 21.3924 46.7923 20.8999 47.3998 20.8999Z" fill="#1C3553"/>
<path fill-rule="evenodd" clip-rule="evenodd" d="M32.8999 40.7748C32.8999 40.1673 33.3924 39.6748 33.9999 39.6748H61.6682C62.2757 39.6748 62.7682 40.1673 62.7682 40.7748C62.7682 41.3823 62.2757 41.8748 61.6682 41.8748H33.9999C33.3924 41.8748 32.8999 41.3823 32.8999 40.7748Z" fill="#1C3553"/>
</svg>
