<svg width="96" height="96" viewBox="0 0 96 96" fill="none" xmlns="http://www.w3.org/2000/svg">
<path fill-rule="evenodd" clip-rule="evenodd" d="M64.0566 85.8426H73.9575V81.2458H64.0566V85.8426Z" fill="#2988FF"/>
<path fill-rule="evenodd" clip-rule="evenodd" d="M57.6211 92.5291H67.5203V87.9307H57.6211V92.5291Z" fill="#2988FF"/>
<path fill-rule="evenodd" clip-rule="evenodd" d="M69.6406 92.5291H79.5398V87.9307H69.6406V92.5291Z" fill="#2988FF"/>
<path fill-rule="evenodd" clip-rule="evenodd" d="M69.6406 79.1578H79.5414V74.561H69.6406V79.1578Z" fill="#2988FF"/>
<path fill-rule="evenodd" clip-rule="evenodd" d="M81.6592 92.5291H91.5584V87.9307H81.6592V92.5291Z" fill="#2988FF"/>
<path fill-rule="evenodd" clip-rule="evenodd" d="M81.6592 79.158H91.5584V74.5596H81.6592V79.158Z" fill="#2988FF"/>
<path fill-rule="evenodd" clip-rule="evenodd" d="M75.4229 85.8426H85.3236V81.2458H75.4229V85.8426Z" fill="#2988FF"/>
<path fill-rule="evenodd" clip-rule="evenodd" d="M86.3574 72.4717H91.3062V67.8733H86.3574V72.4717Z" fill="#2988FF"/>
<path fill-rule="evenodd" clip-rule="evenodd" d="M57.6211 85.8426H62.2435V81.2458H57.6211V85.8426Z" fill="#2988FF"/>
<path fill-rule="evenodd" clip-rule="evenodd" d="M86.7891 85.8426H91.4115V81.2458H86.7891V85.8426Z" fill="#2988FF"/>
<path fill-rule="evenodd" clip-rule="evenodd" d="M3.19971 9.74204C3.19971 8.41656 4.27422 7.34204 5.59971 7.34204H21.6365C22.7223 7.34204 23.6729 8.07107 23.9544 9.11976L25.1636 13.6236H69.8269C70.683 13.6236 71.4743 14.0797 71.9035 14.8204L72.4347 15.7372C72.8649 16.4797 72.866 17.3954 72.4375 18.1388C72.009 18.8823 71.2162 19.3404 70.3581 19.3404H25.2743L25.3609 24.0935C25.3726 24.7375 25.125 25.3592 24.6738 25.8188C24.2225 26.2783 23.6054 26.5372 22.9613 26.5372H5.59971C4.27422 26.5372 3.19971 25.4627 3.19971 24.1372V9.74204ZM20.7586 15.7284L19.7958 12.142H7.99971V21.7372H20.5172L20.4305 16.9842C20.4224 16.5396 20.5379 16.1057 20.7586 15.7284Z" fill="#1C3553"/>
<path fill-rule="evenodd" clip-rule="evenodd" d="M40.0875 3.90338C40.3355 3.28879 41.0348 2.9916 41.6494 3.2396L68.7358 14.1692C69.3504 14.4172 69.6475 15.1165 69.3995 15.731C69.1516 16.3456 68.4523 16.6428 67.8377 16.3948L40.7513 5.46524C40.1367 5.21724 39.8395 4.51798 40.0875 3.90338Z" fill="#1C3553"/>
<path fill-rule="evenodd" clip-rule="evenodd" d="M32.3705 26.413C32.4213 25.1253 33.48 24.1077 34.7686 24.1077H41.6054C42.8941 24.1077 43.9527 25.1253 44.0035 26.413L46.5347 90.5314C46.5605 91.1838 46.3193 91.8186 45.8668 92.2893C45.4143 92.76 44.7895 93.0261 44.1366 93.0261H32.2374C31.5845 93.0261 30.9597 92.76 30.5072 92.2893C30.0547 91.8186 29.8135 91.1838 29.8393 90.5314L32.3705 26.413ZM37.0757 28.9077L34.734 88.2261H41.64L39.2983 28.9077H37.0757Z" fill="#1C3553"/>
<path fill-rule="evenodd" clip-rule="evenodd" d="M33.1427 3.11276C33.1891 2.26431 33.8906 1.6001 34.7403 1.6001H40.9835C41.8333 1.6001 42.5348 2.26431 42.5811 3.11276L42.8435 7.91276C42.8675 8.35161 42.7099 8.78101 42.4078 9.10016C42.1056 9.4193 41.6854 9.6001 41.2459 9.6001H34.4779C34.0384 9.6001 33.6183 9.4193 33.3161 9.10016C33.0139 8.78101 32.8563 8.35161 32.8803 7.91276L33.1427 3.11276ZM36.2553 4.8001L36.1678 6.4001H39.5561L39.4686 4.8001H36.2553Z" fill="#1C3553"/>
<path fill-rule="evenodd" clip-rule="evenodd" d="M43.0072 34.6009C43.3381 35.4202 42.9422 36.3527 42.1228 36.6836L34.1996 39.8836C33.3803 40.2145 32.4478 39.8186 32.1169 38.9992C31.7859 38.1799 32.1819 37.2474 33.0012 36.9165L40.9244 33.7165C41.7438 33.3855 42.6763 33.7815 43.0072 34.6009Z" fill="#1C3553"/>
<path fill-rule="evenodd" clip-rule="evenodd" d="M43.0072 44.201C43.3381 45.0203 42.9422 45.9528 42.1228 46.2837L34.1996 49.4837C33.3803 49.8146 32.4478 49.4187 32.1169 48.5993C31.7859 47.78 32.1819 46.8475 33.0012 46.5166L40.9244 43.3166C41.7438 42.9856 42.6763 43.3816 43.0072 44.201Z" fill="#1C3553"/>
<path fill-rule="evenodd" clip-rule="evenodd" d="M43.0072 53.8008C43.3381 54.6202 42.9422 55.5526 42.1228 55.8836L34.1996 59.0836C33.3803 59.4145 32.4478 59.0185 32.1169 58.1992C31.7859 57.3798 32.1819 56.4473 33.0012 56.1164L40.9244 52.9164C41.7438 52.5855 42.6763 52.9815 43.0072 53.8008Z" fill="#1C3553"/>
<path fill-rule="evenodd" clip-rule="evenodd" d="M43.0072 63.4009C43.3381 64.2203 42.9422 65.1527 42.1228 65.4837L34.1996 68.6836C33.3803 69.0146 32.4478 68.6186 32.1169 67.7993C31.7859 66.9799 32.1819 66.0474 33.0012 65.7165L40.9244 62.5165C41.7438 62.1856 42.6763 62.5815 43.0072 63.4009Z" fill="#1C3553"/>
<path fill-rule="evenodd" clip-rule="evenodd" d="M43.0072 73.001C43.3381 73.8204 42.9422 74.7528 42.1228 75.0838L34.1996 78.2838C33.3803 78.6147 32.4478 78.2187 32.1169 77.3994C31.7859 76.58 32.1819 75.6475 33.0012 75.3166L40.9244 72.1166C41.7438 71.7857 42.6763 72.1816 43.0072 73.001Z" fill="#1C3553"/>
</svg>
