<svg width="96" height="96" viewBox="0 0 96 96" fill="none" xmlns="http://www.w3.org/2000/svg">
<path fill-rule="evenodd" clip-rule="evenodd" d="M18.2495 69.4142C18.2495 68.6686 18.8539 68.0642 19.5995 68.0642H76.4015C77.1471 68.0642 77.7515 68.6686 77.7515 69.4142V73.6432C77.7515 74.3888 77.1471 74.9932 76.4015 74.9932H19.5995C18.8539 74.9932 18.2495 74.3888 18.2495 73.6432V69.4142ZM20.9495 70.7642V72.2932H75.0515V70.7642H20.9495Z" fill="#2988FF"/>
<path fill-rule="evenodd" clip-rule="evenodd" d="M17.2461 50.4728C17.2461 49.7272 17.8505 49.1228 18.5961 49.1228H77.4047C78.1502 49.1228 78.7547 49.7272 78.7547 50.4728C78.7547 51.2184 78.1502 51.8228 77.4047 51.8228H18.5961C17.8505 51.8228 17.2461 51.2184 17.2461 50.4728Z" fill="#2988FF"/>
<path fill-rule="evenodd" clip-rule="evenodd" d="M22.1825 50.3347C22.9281 50.3347 23.5325 50.9391 23.5325 51.6847V67.9267C23.5325 68.6723 22.9281 69.2767 22.1825 69.2767C21.4369 69.2767 20.8325 68.6723 20.8325 67.9267V51.6847C20.8325 50.9391 21.4369 50.3347 22.1825 50.3347Z" fill="#2988FF"/>
<path fill-rule="evenodd" clip-rule="evenodd" d="M29.5595 50.9756C30.3051 50.9756 30.9095 51.58 30.9095 52.3256V67.9266C30.9095 68.6722 30.3051 69.2766 29.5595 69.2766C28.8139 69.2766 28.2095 68.6722 28.2095 67.9266V52.3256C28.2095 51.58 28.8139 50.9756 29.5595 50.9756Z" fill="#2988FF"/>
<path fill-rule="evenodd" clip-rule="evenodd" d="M36.9359 50.9756C37.6815 50.9756 38.2859 51.58 38.2859 52.3256V67.9266C38.2859 68.6722 37.6815 69.2766 36.9359 69.2766C36.1904 69.2766 35.5859 68.6722 35.5859 67.9266V52.3256C35.5859 51.58 36.1904 50.9756 36.9359 50.9756Z" fill="#2988FF"/>
<path fill-rule="evenodd" clip-rule="evenodd" d="M44.3124 50.9756C45.058 50.9756 45.6624 51.58 45.6624 52.3256V67.9266C45.6624 68.6722 45.058 69.2766 44.3124 69.2766C43.5668 69.2766 42.9624 68.6722 42.9624 67.9266V52.3256C42.9624 51.58 43.5668 50.9756 44.3124 50.9756Z" fill="#2988FF"/>
<path fill-rule="evenodd" clip-rule="evenodd" d="M51.6889 50.9756C52.4345 50.9756 53.0389 51.58 53.0389 52.3256V67.9266C53.0389 68.6722 52.4345 69.2766 51.6889 69.2766C50.9433 69.2766 50.3389 68.6722 50.3389 67.9266V52.3256C50.3389 51.58 50.9433 50.9756 51.6889 50.9756Z" fill="#2988FF"/>
<path fill-rule="evenodd" clip-rule="evenodd" d="M59.0644 50.9756C59.8099 50.9756 60.4144 51.58 60.4144 52.3256V67.9266C60.4144 68.6722 59.8099 69.2766 59.0644 69.2766C58.3188 69.2766 57.7144 68.6722 57.7144 67.9266V52.3256C57.7144 51.58 58.3188 50.9756 59.0644 50.9756Z" fill="#2988FF"/>
<path fill-rule="evenodd" clip-rule="evenodd" d="M66.4408 50.9756C67.1864 50.9756 67.7908 51.58 67.7908 52.3256V67.9266C67.7908 68.6722 67.1864 69.2766 66.4408 69.2766C65.6952 69.2766 65.0908 68.6722 65.0908 67.9266V52.3256C65.0908 51.58 65.6952 50.9756 66.4408 50.9756Z" fill="#2988FF"/>
<path fill-rule="evenodd" clip-rule="evenodd" d="M73.8173 50.3154C74.5629 50.3154 75.1673 50.9198 75.1673 51.6654V67.9074C75.1673 68.653 74.5629 69.2574 73.8173 69.2574C73.0717 69.2574 72.4673 68.653 72.4673 67.9074V51.6654C72.4673 50.9198 73.0717 50.3154 73.8173 50.3154Z" fill="#2988FF"/>
<path fill-rule="evenodd" clip-rule="evenodd" d="M25.7725 24.4697C25.7725 23.6582 26.4304 23.0002 27.242 23.0002H48.194C49.0055 23.0002 49.6635 23.6582 49.6635 24.4697V50.3697C49.6635 51.1813 49.0055 51.8392 48.194 51.8392H27.242C26.4304 51.8392 25.7725 51.1813 25.7725 50.3697V24.4697ZM28.7115 25.9392V48.9002H46.7245V25.9392H28.7115Z" fill="#1C3553"/>
<path fill-rule="evenodd" clip-rule="evenodd" d="M37.7178 25.0715C38.0299 25.0715 38.2828 25.3245 38.2828 25.6365V50.3115C38.2828 50.6236 38.0299 50.8765 37.7178 50.8765C37.4058 50.8765 37.1528 50.6236 37.1528 50.3115V25.6365C37.1528 25.3245 37.4058 25.0715 37.7178 25.0715Z" fill="#1C3553"/>
<path fill-rule="evenodd" clip-rule="evenodd" d="M25.938 38.5294C25.938 38.2173 26.1909 37.9644 26.503 37.9644H48.933C49.245 37.9644 49.498 38.2173 49.498 38.5294C49.498 38.8414 49.245 39.0944 48.933 39.0944H26.503C26.1909 39.0944 25.938 38.8414 25.938 38.5294Z" fill="#1C3553"/>
</svg>
