<svg width="96" height="96" viewBox="0 0 96 96" fill="none" xmlns="http://www.w3.org/2000/svg">
<path fill-rule="evenodd" clip-rule="evenodd" d="M31.6999 22.4999C31.6999 21.5058 32.5058 20.6999 33.4999 20.6999H87.509C88.5031 20.6999 89.309 21.5058 89.309 22.4999C89.309 23.494 88.5031 24.2999 87.509 24.2999H33.4999C32.5058 24.2999 31.6999 23.494 31.6999 22.4999Z" fill="#1C3553"/>
<path fill-rule="evenodd" clip-rule="evenodd" d="M66.9995 71.4C66.9995 70.5715 67.6711 69.9 68.4995 69.9H87.509C88.3374 69.9 89.009 70.5715 89.009 71.4C89.009 72.2284 88.3374 72.9 87.509 72.9H68.4995C67.6711 72.9 66.9995 72.2284 66.9995 71.4Z" fill="#1C3553"/>
<path fill-rule="evenodd" clip-rule="evenodd" d="M37.4999 20.6999C38.494 20.6999 39.2999 21.5058 39.2999 22.4999V35.6528C39.2999 36.6469 38.494 37.4528 37.4999 37.4528C36.5057 37.4528 35.6999 36.6469 35.6999 35.6528V22.4999C35.6999 21.5058 36.5057 20.6999 37.4999 20.6999Z" fill="#1C3553"/>
<path fill-rule="evenodd" clip-rule="evenodd" d="M83.4997 20.6999C84.4938 20.6999 85.2997 21.5058 85.2997 22.4999V71.0076C85.2997 72.0017 84.4938 72.8076 83.4997 72.8076C82.5056 72.8076 81.6997 72.0017 81.6997 71.0076V22.4999C81.6997 21.5058 82.5056 20.6999 83.4997 20.6999Z" fill="#1C3553"/>
<path fill-rule="evenodd" clip-rule="evenodd" d="M69.7997 40.4999C69.7997 40.1133 70.1131 39.7999 70.4997 39.7999H73.9997C74.3863 39.7999 74.6997 40.1133 74.6997 40.4999V47.4999C74.6997 47.8865 74.3863 48.1999 73.9997 48.1999H70.4997C70.1131 48.1999 69.7997 47.8865 69.7997 47.4999V40.4999ZM71.1997 41.1999V46.7999H73.2997V41.1999H71.1997Z" fill="#1C3553"/>
<path fill-rule="evenodd" clip-rule="evenodd" d="M20.3999 55C20.3999 54.6686 20.6685 54.4 20.9999 54.4H23.9999C24.3313 54.4 24.5999 54.6686 24.5999 55V61C24.5999 61.3314 24.3313 61.6 23.9999 61.6H20.9999C20.6685 61.6 20.3999 61.3314 20.3999 61V55ZM21.5999 55.6V60.4H23.3999V55.6H21.5999Z" fill="#2988FF"/>
<path fill-rule="evenodd" clip-rule="evenodd" d="M47.3998 55C47.3998 54.6686 47.6685 54.4 47.9998 54.4H50.9998C51.3312 54.4 51.5998 54.6686 51.5998 55V61C51.5998 61.3314 51.3312 61.6 50.9998 61.6H47.9998C47.6685 61.6 47.3998 61.3314 47.3998 61V55ZM48.5998 55.6V60.4H50.3998V55.6H48.5998Z" fill="#2988FF"/>
<path fill-rule="evenodd" clip-rule="evenodd" d="M7.99998 72.0001C7.99998 71.4478 8.44769 71.0001 8.99998 71.0001H62.9998C63.5521 71.0001 63.9998 71.4478 63.9998 72.0001C63.9998 72.5523 63.5521 73.0001 62.9998 73.0001H8.99998C8.44769 73.0001 7.99998 72.5523 7.99998 72.0001Z" fill="#2988FF"/>
<path fill-rule="evenodd" clip-rule="evenodd" d="M9.99997 69.3001H31.0262V71.3001H9.99997V69.3001Z" fill="#2988FF"/>
<path fill-rule="evenodd" clip-rule="evenodd" d="M39.9999 69.3001H61.0261V71.3001H39.9999V69.3001Z" fill="#2988FF"/>
<path fill-rule="evenodd" clip-rule="evenodd" d="M10.5797 46.3334H60.9998V48.3334H10.5797V46.3334Z" fill="#2988FF"/>
<path fill-rule="evenodd" clip-rule="evenodd" d="M7.08506 41.9999C7.08506 41.1715 7.75664 40.4999 8.58506 40.4999H62.4656C63.294 40.4999 63.9656 41.1715 63.9656 41.9999C63.9656 42.8283 63.294 43.4999 62.4656 43.4999H8.58506C7.75664 43.4999 7.08506 42.8283 7.08506 41.9999Z" fill="#2988FF"/>
<path fill-rule="evenodd" clip-rule="evenodd" d="M12.5 41.1V72.9249H9.49998V41.1H12.5Z" fill="#2988FF"/>
<path fill-rule="evenodd" clip-rule="evenodd" d="M62.4998 41.1V72.9249H59.4998V41.1H62.4998Z" fill="#2988FF"/>
<path fill-rule="evenodd" clip-rule="evenodd" d="M49.9999 38.9999C49.9999 38.4476 50.4476 37.9999 50.9999 37.9999H54.9999C55.5521 37.9999 55.9999 38.4476 55.9999 38.9999V40.9999C55.9999 41.5522 55.5521 41.9999 54.9999 41.9999H50.9999C50.4476 41.9999 49.9999 41.5522 49.9999 40.9999V38.9999Z" fill="#2988FF"/>
<path fill-rule="evenodd" clip-rule="evenodd" d="M30.9999 58.0001C30.9999 57.4478 31.4476 57.0001 31.9999 57.0001H40.9999C41.5522 57.0001 41.9999 57.4478 41.9999 58.0001V71.0001C41.9999 71.5523 41.5522 72.0001 40.9999 72.0001H31.9999C31.4476 72.0001 30.9999 71.5523 30.9999 71.0001V58.0001ZM32.9999 59.0001V70.0001H39.9999V59.0001H32.9999Z" fill="#2988FF"/>
</svg>
