<svg width="96" height="96" viewBox="0 0 96 96" fill="none" xmlns="http://www.w3.org/2000/svg">
<path fill-rule="evenodd" clip-rule="evenodd" d="M64.056 85.8426H73.9568V81.2458H64.056V85.8426Z" fill="#2988FF"/>
<path fill-rule="evenodd" clip-rule="evenodd" d="M57.6208 92.5291H67.52V87.9307H57.6208V92.5291Z" fill="#2988FF"/>
<path fill-rule="evenodd" clip-rule="evenodd" d="M69.64 92.5291H79.5392V87.9307H69.64V92.5291Z" fill="#2988FF"/>
<path fill-rule="evenodd" clip-rule="evenodd" d="M69.64 79.1578H79.5408V74.561H69.64V79.1578Z" fill="#2988FF"/>
<path fill-rule="evenodd" clip-rule="evenodd" d="M81.6592 92.5291H91.5584V87.9307H81.6592V92.5291Z" fill="#2988FF"/>
<path fill-rule="evenodd" clip-rule="evenodd" d="M81.6592 79.158H91.5584V74.5596H81.6592V79.158Z" fill="#2988FF"/>
<path fill-rule="evenodd" clip-rule="evenodd" d="M75.4224 85.8426H85.3232V81.2458H75.4224V85.8426Z" fill="#2988FF"/>
<path fill-rule="evenodd" clip-rule="evenodd" d="M86.3568 72.4717H91.3056V67.8733H86.3568V72.4717Z" fill="#2988FF"/>
<path fill-rule="evenodd" clip-rule="evenodd" d="M57.6208 85.8426H62.2432V81.2458H57.6208V85.8426Z" fill="#2988FF"/>
<path fill-rule="evenodd" clip-rule="evenodd" d="M86.7888 85.8426H91.4112V81.2458H86.7888V85.8426Z" fill="#2988FF"/>
<path fill-rule="evenodd" clip-rule="evenodd" d="M3.19952 9.74204C3.19952 8.41656 4.27404 7.34204 5.59952 7.34204H21.6363C22.7221 7.34204 23.6727 8.07107 23.9542 9.11976L25.1634 13.6236H69.8267C70.6828 13.6236 71.4741 14.0797 71.9033 14.8204L72.4345 15.7372C72.8647 16.4797 72.8658 17.3954 72.4373 18.1388C72.0088 18.8823 71.216 19.3404 70.3579 19.3404H25.2741L25.3607 24.0935C25.3725 24.7375 25.1249 25.3592 24.6736 25.8188C24.2223 26.2783 23.6052 26.5372 22.9611 26.5372H5.59952C4.27404 26.5372 3.19952 25.4627 3.19952 24.1372V9.74204ZM20.7585 15.7284L19.7957 12.142H7.99952V21.7372H20.517L20.4303 16.9842C20.4222 16.5396 20.5377 16.1057 20.7585 15.7284Z" fill="#1C3553"/>
<path fill-rule="evenodd" clip-rule="evenodd" d="M40.0872 3.90338C40.3352 3.28879 41.0345 2.9916 41.649 3.2396L68.7355 14.1692C69.35 14.4172 69.6472 15.1165 69.3992 15.731C69.1512 16.3456 68.452 16.6428 67.8374 16.3948L40.751 5.46524C40.1364 5.21724 39.8392 4.51798 40.0872 3.90338Z" fill="#1C3553"/>
<path fill-rule="evenodd" clip-rule="evenodd" d="M32.3702 26.413C32.421 25.1253 33.4797 24.1077 34.7683 24.1077H41.6051C42.8938 24.1077 43.9524 25.1253 44.0033 26.413L46.5345 90.5314C46.5602 91.1838 46.319 91.8186 45.8665 92.2893C45.414 92.76 44.7893 93.0261 44.1363 93.0261H32.2371C31.5842 93.0261 30.9594 92.76 30.5069 92.2893C30.0544 91.8186 29.8132 91.1838 29.839 90.5314L32.3702 26.413ZM37.0755 28.9077L34.7337 88.2261H41.6397L39.298 28.9077H37.0755Z" fill="#1C3553"/>
<path fill-rule="evenodd" clip-rule="evenodd" d="M33.1424 3.11276C33.1888 2.26431 33.8903 1.6001 34.74 1.6001H40.9832C41.8329 1.6001 42.5344 2.26431 42.5808 3.11276L42.8432 7.91276C42.8672 8.35161 42.7096 8.78101 42.4074 9.10016C42.1053 9.4193 41.6851 9.6001 41.2456 9.6001H34.4776C34.0381 9.6001 33.6179 9.4193 33.3158 9.10016C33.0136 8.78101 32.856 8.35161 32.88 7.91276L33.1424 3.11276ZM36.2549 4.8001L36.1675 6.4001H39.5557L39.4683 4.8001H36.2549Z" fill="#1C3553"/>
<path fill-rule="evenodd" clip-rule="evenodd" d="M43.0068 34.6009C43.3377 35.4202 42.9417 36.3527 42.1224 36.6836L34.1992 39.8836C33.3798 40.2145 32.4473 39.8186 32.1164 38.9992C31.7855 38.1799 32.1815 37.2474 33.0008 36.9165L40.924 33.7165C41.7434 33.3855 42.6758 33.7815 43.0068 34.6009Z" fill="#1C3553"/>
<path fill-rule="evenodd" clip-rule="evenodd" d="M43.0068 44.201C43.3377 45.0203 42.9417 45.9528 42.1224 46.2837L34.1992 49.4837C33.3798 49.8146 32.4473 49.4187 32.1164 48.5993C31.7855 47.78 32.1815 46.8475 33.0008 46.5166L40.924 43.3166C41.7434 42.9856 42.6758 43.3816 43.0068 44.201Z" fill="#1C3553"/>
<path fill-rule="evenodd" clip-rule="evenodd" d="M43.0068 53.8008C43.3377 54.6202 42.9417 55.5526 42.1224 55.8836L34.1992 59.0836C33.3798 59.4145 32.4473 59.0185 32.1164 58.1992C31.7855 57.3798 32.1815 56.4473 33.0008 56.1164L40.924 52.9164C41.7434 52.5855 42.6758 52.9815 43.0068 53.8008Z" fill="#1C3553"/>
<path fill-rule="evenodd" clip-rule="evenodd" d="M43.0068 63.4009C43.3377 64.2203 42.9417 65.1527 42.1224 65.4837L34.1992 68.6836C33.3798 69.0146 32.4473 68.6186 32.1164 67.7993C31.7855 66.9799 32.1815 66.0474 33.0008 65.7165L40.924 62.5165C41.7434 62.1856 42.6758 62.5815 43.0068 63.4009Z" fill="#1C3553"/>
<path fill-rule="evenodd" clip-rule="evenodd" d="M43.0068 73.001C43.3377 73.8204 42.9417 74.7528 42.1224 75.0838L34.1992 78.2838C33.3798 78.6147 32.4473 78.2187 32.1164 77.3994C31.7855 76.58 32.1815 75.6475 33.0008 75.3166L40.924 72.1166C41.7434 71.7857 42.6758 72.1816 43.0068 73.001Z" fill="#1C3553"/>
</svg>
