<svg width="96" height="96" viewBox="0 0 96 96" fill="none" xmlns="http://www.w3.org/2000/svg">
<path fill-rule="evenodd" clip-rule="evenodd" d="M24.7037 74C24.7037 73.1716 25.3753 72.5 26.2037 72.5H70.2037C71.0321 72.5 71.7037 73.1716 71.7037 74V79.2C71.7037 80.0284 71.0321 80.7 70.2037 80.7H26.2037C25.3753 80.7 24.7037 80.0284 24.7037 79.2V74ZM27.7037 75.5V77.7H68.7037V75.5H27.7037Z" fill="#2988FF"/>
<path fill-rule="evenodd" clip-rule="evenodd" d="M26 56.0007C26 54.8962 26.8954 54.0007 28 54.0007H67.9333C69.0379 54.0007 69.9333 54.8962 69.9333 56.0007C69.9333 57.1053 69.0379 58.0007 67.9333 58.0007H28C26.8954 58.0007 26 57.1053 26 56.0007Z" fill="#2988FF"/>
<path fill-rule="evenodd" clip-rule="evenodd" d="M51.0159 53.9258C52.1204 53.9258 53.0159 54.8212 53.0159 55.9258V73.0406C53.0159 74.1452 52.1204 75.0406 51.0159 75.0406C49.9113 75.0406 49.0159 74.1452 49.0159 73.0406V55.9258C49.0159 54.8212 49.9113 53.9258 51.0159 53.9258Z" fill="#2988FF"/>
<path fill-rule="evenodd" clip-rule="evenodd" d="M58.0705 53.9258C59.1751 53.9258 60.0705 54.8212 60.0705 55.9258V73.0406C60.0705 74.1452 59.1751 75.0406 58.0705 75.0406C56.9659 75.0406 56.0705 74.1452 56.0705 73.0406V55.9258C56.0705 54.8212 56.9659 53.9258 58.0705 53.9258Z" fill="#2988FF"/>
<path fill-rule="evenodd" clip-rule="evenodd" d="M43.9612 53.9258C45.0658 53.9258 45.9612 54.8212 45.9612 55.9258V73.0406C45.9612 74.1452 45.0658 75.0406 43.9612 75.0406C42.8566 75.0406 41.9612 74.1452 41.9612 73.0406V55.9258C41.9612 54.8212 42.8566 53.9258 43.9612 53.9258Z" fill="#2988FF"/>
<path fill-rule="evenodd" clip-rule="evenodd" d="M36.9065 53.9258C38.0111 53.9258 38.9065 54.8212 38.9065 55.9258V73.0406C38.9065 74.1452 38.0111 75.0406 36.9065 75.0406C35.8019 75.0406 34.9065 74.1452 34.9065 73.0406V55.9258C34.9065 54.8212 35.8019 53.9258 36.9065 53.9258Z" fill="#2988FF"/>
<path fill-rule="evenodd" clip-rule="evenodd" d="M30.2236 53.9258C31.3282 53.9258 32.2236 54.8212 32.2236 55.9258V73.0406C32.2236 74.1452 31.3282 75.0406 30.2236 75.0406C29.1191 75.0406 28.2236 74.1452 28.2236 73.0406V55.9258C28.2236 54.8212 29.1191 53.9258 30.2236 53.9258Z" fill="#2988FF"/>
<path fill-rule="evenodd" clip-rule="evenodd" d="M65.1252 53.9258C66.2298 53.9258 67.1252 54.8212 67.1252 55.9258V73.0406C67.1252 74.1452 66.2298 75.0406 65.1252 75.0406C64.0206 75.0406 63.1252 74.1452 63.1252 73.0406V55.9258C63.1252 54.8212 64.0206 53.9258 65.1252 53.9258Z" fill="#2988FF"/>
<path fill-rule="evenodd" clip-rule="evenodd" d="M30.4 18.3999H64.6V57.0998H30.4V18.3999ZM33.6 21.5999V53.8998H61.4V21.5999H33.6Z" fill="#1C3553"/>
<path fill-rule="evenodd" clip-rule="evenodd" d="M47.4 20.8999C48.0075 20.8999 48.5 21.3924 48.5 21.9999V55.5011C48.5 56.1086 48.0075 56.6011 47.4 56.6011C46.7925 56.6011 46.3 56.1086 46.3 55.5011V21.9999C46.3 21.3924 46.7925 20.8999 47.4 20.8999Z" fill="#1C3553"/>
<path fill-rule="evenodd" clip-rule="evenodd" d="M32.9 40.7748C32.9 40.1673 33.3925 39.6748 34 39.6748H61.6683C62.2758 39.6748 62.7683 40.1673 62.7683 40.7748C62.7683 41.3823 62.2758 41.8748 61.6683 41.8748H34C33.3925 41.8748 32.9 41.3823 32.9 40.7748Z" fill="#1C3553"/>
</svg>
