<svg width="96" height="96" viewBox="0 0 96 96" fill="none" xmlns="http://www.w3.org/2000/svg">
<path d="M65.9998 68.5991H59.7998V71.4991H65.9998V68.5991Z" fill="#2988FF"/>
<path d="M61.9998 72.699H55.7998V75.599H61.9998V72.699Z" fill="#2988FF"/>
<path d="M69.4998 72.699H63.2998V75.599H69.4998V72.699Z" fill="#2988FF"/>
<path d="M69.4998 64.3989H63.2998V67.2989H69.4998V64.3989Z" fill="#2988FF"/>
<path d="M76.9998 72.699H70.7998V75.599H76.9998V72.699Z" fill="#2988FF"/>
<path d="M76.9998 64.3989H70.7998V67.2989H76.9998V64.3989Z" fill="#2988FF"/>
<path d="M73.0999 68.5991H66.8999V71.4991H73.0999V68.5991Z" fill="#2988FF"/>
<path d="M76.7997 60.199H73.6997V63.099H76.7997V60.199Z" fill="#2988FF"/>
<path d="M58.6998 68.5991H55.7998V71.4991H58.6998V68.5991Z" fill="#2988FF"/>
<path d="M76.9 68.5991H74V71.4991H76.9V68.5991Z" fill="#2988FF"/>
<path d="M68.6 38.7991C67.9 38.0991 67.1 37.7991 66.4 37.8991C65.6 37.7991 64.9 38.0991 64.2 38.7991C63.6 39.3991 61 41.7991 58 44.5991C52.9 49.3991 46.3 55.5991 45.1 56.6991C44.1 57.6991 43.8 58.6991 44.3 59.7991C44.6 60.4991 45.3 61.3991 47 61.3991C48.1 61.3991 49.1 61.3991 50.2 61.3991V78.7991C50.2 80.8991 51.2 81.8991 53.3 81.8991H79.6C81.7 81.8991 82.7 80.8991 82.7 78.7991V61.3991C83.8 61.3991 84.8 61.3991 85.9 61.3991C87.6 61.3991 88.3 60.4991 88.6 59.7991C88.9 58.9991 89 57.8991 87.8 56.6991C86.6 55.5991 80 49.3991 74.9 44.5991C71.8 41.7991 69.3 39.3991 68.6 38.7991ZM82 57.8991C80.1 57.8991 79 58.9991 79 60.8991V72.8991V78.3991H53.7V60.8991C53.7 58.9991 52.6 57.8991 50.7 57.8991C50.1 57.8991 49.6 57.8991 49 57.8991C51.5 55.4991 56.3 50.9991 60.3 47.2991C63.1 44.6991 65.4 42.4991 66.3 41.6991C67.2 42.4991 69.5 44.6991 72.3 47.2991C76.3 50.9991 81 55.4991 83.6 57.8991C83.1 57.8991 82.6 57.8991 82 57.8991Z" fill="#1C3553"/>
<path d="M7.8 31.499H21.5C22 31.499 22.4 31.299 22.7 30.999C23 30.699 23.2 30.199 23.2 29.699V26.999H45.1C45.1 26.999 45.1 26.999 45.1 27.099V37.299H41.8C41.4 37.299 41 37.599 41 38.099V45.899C41 46.299 41.3 46.699 41.8 46.699H50.2C50.6 46.699 51 46.399 51 45.899V38.099C51 37.699 50.7 37.299 50.2 37.299H46.6V27.099C46.6 27.099 46.6 27.099 46.6 26.999H51.2C51.8 26.999 52.4 26.699 52.7 26.099C53 25.599 53 24.899 52.7 24.399L52.4 23.799C52.1 23.299 51.5 22.899 50.9 22.899H48.7L34.5 17.399L34.4 15.099C34.4 14.499 33.9 13.999 33.2 13.999H27.7C27.1 13.999 26.6 14.499 26.5 15.099L26.3 19.399C26.3 19.699 26.4 19.999 26.6 20.299C26.8 20.499 27.1 20.699 27.4 20.699H33.4C33.7 20.699 34 20.599 34.2 20.299C34.4 20.099 34.5 19.799 34.5 19.399V18.999L44.5 22.799H23.2L22.5 20.199C22.3 19.399 21.6 18.899 20.8 18.899H7.8C6.8 18.899 6 19.699 6 20.699V29.699C6 30.699 6.8 31.499 7.8 31.499ZM42.6 45.099V42.799H49.5V45.099H42.6ZM49.4 41.399H42.5V38.899H49.4V41.399ZM28.5 18.399L28.6 16.399H31.9L32 18.399H28.5ZM9.6 22.499H19.4L19.9 24.499C19.8 24.799 19.7 24.999 19.7 25.299V27.999H9.5L9.6 22.499Z" fill="#1C3553"/>
<path d="M33.0998 29.2991H27.3998C26.2998 29.2991 25.3998 30.1991 25.3998 31.1991L23.7998 80.4991C23.7998 80.9991 23.9998 81.5991 24.3998 81.9991C24.7998 82.3991 25.2998 82.5991 25.7998 82.5991H34.6998C35.1998 82.5991 35.7998 82.3991 36.0998 81.9991C36.4998 81.5991 36.6998 81.0991 36.6998 80.4991L35.0998 31.1991C35.0998 30.0991 34.1998 29.2991 33.0998 29.2991ZM29.1998 37.4991H31.2998V38.9991L28.9998 41.1991L29.1998 37.4991ZM31.4998 43.7991H28.9998V42.4991L31.2998 40.1991L31.4998 43.7991ZM28.9998 44.7991H31.5998V45.9991L28.8998 48.5991L28.9998 44.7991ZM31.7998 51.5991H28.7998V50.0991L31.5998 47.3991L31.7998 51.5991ZM28.7998 52.5991H31.8998V53.5991L28.6998 56.6991L28.7998 52.5991ZM31.9998 59.3991H28.4998V58.0991L31.7998 54.8991L31.9998 59.3991ZM28.4998 60.3991H32.0998V61.1991L28.3998 64.7991L28.4998 60.3991ZM28.2998 66.1991L32.0998 62.4991L32.2998 67.1991H28.2998V66.1991ZM28.2998 68.1991H32.3998V68.6991L28.1998 72.7991L28.2998 68.1991ZM31.1998 33.2991L31.2998 36.4991H29.2998L29.3998 33.2991H31.1998ZM27.8998 78.4991L27.9998 74.1991L32.2998 69.9991L32.5998 78.3991L27.8998 78.4991Z" fill="#1C3553"/>
</svg>
