<svg width="96" height="96" viewBox="0 0 96 96" fill="none" xmlns="http://www.w3.org/2000/svg">
<path fill-rule="evenodd" clip-rule="evenodd" d="M18.2495 69.4141C18.2495 68.6685 18.8539 68.0641 19.5995 68.0641H76.4015C77.1471 68.0641 77.7515 68.6685 77.7515 69.4141V73.6431C77.7515 74.3887 77.1471 74.9931 76.4015 74.9931H19.5995C18.8539 74.9931 18.2495 74.3887 18.2495 73.6431V69.4141ZM20.9495 70.7641V72.2931H75.0515V70.7641H20.9495Z" fill="#2988FF"/>
<path fill-rule="evenodd" clip-rule="evenodd" d="M17.2461 50.4728C17.2461 49.7272 17.8505 49.1228 18.5961 49.1228H77.4047C78.1502 49.1228 78.7547 49.7272 78.7547 50.4728C78.7547 51.2184 78.1502 51.8228 77.4047 51.8228H18.5961C17.8505 51.8228 17.2461 51.2184 17.2461 50.4728Z" fill="#2988FF"/>
<path fill-rule="evenodd" clip-rule="evenodd" d="M22.1825 50.3347C22.9281 50.3347 23.5325 50.9391 23.5325 51.6847V67.9267C23.5325 68.6723 22.9281 69.2767 22.1825 69.2767C21.4369 69.2767 20.8325 68.6723 20.8325 67.9267V51.6847C20.8325 50.9391 21.4369 50.3347 22.1825 50.3347Z" fill="#2988FF"/>
<path fill-rule="evenodd" clip-rule="evenodd" d="M29.5595 50.9755C30.3051 50.9755 30.9095 51.5799 30.9095 52.3255V67.9265C30.9095 68.6721 30.3051 69.2765 29.5595 69.2765C28.8139 69.2765 28.2095 68.6721 28.2095 67.9265V52.3255C28.2095 51.5799 28.8139 50.9755 29.5595 50.9755Z" fill="#2988FF"/>
<path fill-rule="evenodd" clip-rule="evenodd" d="M36.9359 50.9755C37.6815 50.9755 38.2859 51.5799 38.2859 52.3255V67.9265C38.2859 68.6721 37.6815 69.2765 36.9359 69.2765C36.1904 69.2765 35.5859 68.6721 35.5859 67.9265V52.3255C35.5859 51.5799 36.1904 50.9755 36.9359 50.9755Z" fill="#2988FF"/>
<path fill-rule="evenodd" clip-rule="evenodd" d="M44.3124 50.9755C45.058 50.9755 45.6624 51.5799 45.6624 52.3255V67.9265C45.6624 68.6721 45.058 69.2765 44.3124 69.2765C43.5668 69.2765 42.9624 68.6721 42.9624 67.9265V52.3255C42.9624 51.5799 43.5668 50.9755 44.3124 50.9755Z" fill="#2988FF"/>
<path fill-rule="evenodd" clip-rule="evenodd" d="M51.6889 50.9755C52.4345 50.9755 53.0389 51.5799 53.0389 52.3255V67.9265C53.0389 68.6721 52.4345 69.2765 51.6889 69.2765C50.9433 69.2765 50.3389 68.6721 50.3389 67.9265V52.3255C50.3389 51.5799 50.9433 50.9755 51.6889 50.9755Z" fill="#2988FF"/>
<path fill-rule="evenodd" clip-rule="evenodd" d="M59.0644 50.9755C59.8099 50.9755 60.4144 51.5799 60.4144 52.3255V67.9265C60.4144 68.6721 59.8099 69.2765 59.0644 69.2765C58.3188 69.2765 57.7144 68.6721 57.7144 67.9265V52.3255C57.7144 51.5799 58.3188 50.9755 59.0644 50.9755Z" fill="#2988FF"/>
<path fill-rule="evenodd" clip-rule="evenodd" d="M66.4408 50.9755C67.1864 50.9755 67.7908 51.5799 67.7908 52.3255V67.9265C67.7908 68.6721 67.1864 69.2765 66.4408 69.2765C65.6952 69.2765 65.0908 68.6721 65.0908 67.9265V52.3255C65.0908 51.5799 65.6952 50.9755 66.4408 50.9755Z" fill="#2988FF"/>
<path fill-rule="evenodd" clip-rule="evenodd" d="M73.8173 50.3155C74.5629 50.3155 75.1673 50.9199 75.1673 51.6655V67.9075C75.1673 68.6531 74.5629 69.2575 73.8173 69.2575C73.0717 69.2575 72.4673 68.6531 72.4673 67.9075V51.6655C72.4673 50.9199 73.0717 50.3155 73.8173 50.3155Z" fill="#2988FF"/>
<path fill-rule="evenodd" clip-rule="evenodd" d="M25.7725 24.4697C25.7725 23.6582 26.4304 23.0002 27.242 23.0002H48.194C49.0055 23.0002 49.6635 23.6582 49.6635 24.4697V50.3697C49.6635 51.1813 49.0055 51.8392 48.194 51.8392H27.242C26.4304 51.8392 25.7725 51.1813 25.7725 50.3697V24.4697ZM28.7115 25.9392V48.9002H46.7245V25.9392H28.7115Z" fill="#1C3553"/>
<path fill-rule="evenodd" clip-rule="evenodd" d="M37.7178 25.0715C38.0299 25.0715 38.2828 25.3245 38.2828 25.6365V50.3115C38.2828 50.6236 38.0299 50.8765 37.7178 50.8765C37.4058 50.8765 37.1528 50.6236 37.1528 50.3115V25.6365C37.1528 25.3245 37.4058 25.0715 37.7178 25.0715Z" fill="#1C3553"/>
<path fill-rule="evenodd" clip-rule="evenodd" d="M25.938 38.5294C25.938 38.2174 26.1909 37.9644 26.503 37.9644H48.933C49.245 37.9644 49.498 38.2174 49.498 38.5294C49.498 38.8415 49.245 39.0944 48.933 39.0944H26.503C26.1909 39.0944 25.938 38.8415 25.938 38.5294Z" fill="#1C3553"/>
</svg>
