<svg width="96" height="96" viewBox="0 0 96 96" fill="none" xmlns="http://www.w3.org/2000/svg">
<path d="M21.8003 52.7797C21.8003 52.2274 22.248 51.7797 22.8003 51.7797H31.7896C32.3418 51.7797 32.7896 52.2274 32.7896 52.7797V57.3113C32.7896 57.8636 32.3418 58.3113 31.7896 58.3113H22.8003C22.248 58.3113 21.8003 57.8636 21.8003 57.3113V52.7797Z" fill="#2988FF"/>
<path fill-rule="evenodd" clip-rule="evenodd" d="M35.5371 52.7797C35.5371 52.2274 35.9848 51.7797 36.5371 51.7797H45.5264C46.0786 51.7797 46.5264 52.2274 46.5264 52.7797V57.3113C46.5264 57.8636 46.0786 58.3113 45.5264 58.3113H36.5371C35.9848 58.3113 35.5371 57.8636 35.5371 57.3113V52.7797Z" fill="#2988FF"/>
<path d="M21.8003 42.9824C21.8003 42.4301 22.248 41.9824 22.8003 41.9824H31.7896C32.3418 41.9824 32.7896 42.4301 32.7896 42.9824V47.5139C32.7896 48.0662 32.3418 48.5139 31.7896 48.5139H22.8003C22.248 48.5139 21.8003 48.0662 21.8003 47.5139V42.9824Z" fill="#2988FF"/>
<path fill-rule="evenodd" clip-rule="evenodd" d="M35.5371 42.9824C35.5371 42.4301 35.9848 41.9824 36.5371 41.9824H45.5264C46.0786 41.9824 46.5264 42.4301 46.5264 42.9824V47.5139C46.5264 48.0662 46.0786 48.5139 45.5264 48.5139H36.5371C35.9848 48.5139 35.5371 48.0662 35.5371 47.5139V42.9824Z" fill="#2988FF"/>
<path fill-rule="evenodd" clip-rule="evenodd" d="M49.2734 42.9824C49.2734 42.4301 49.7211 41.9824 50.2734 41.9824H59.2627C59.815 41.9824 60.2627 42.4301 60.2627 42.9824V47.5139C60.2627 48.0662 59.815 48.5139 59.2627 48.5139H50.2734C49.7211 48.5139 49.2734 48.0662 49.2734 47.5139V42.9824Z" fill="#2988FF"/>
<path d="M63.0102 42.9824C63.0102 42.4301 63.4579 41.9824 64.0102 41.9824H72.9995C73.5518 41.9824 73.9995 42.4301 73.9995 42.9824V47.5139C73.9995 48.0662 73.5518 48.5139 72.9995 48.5139H64.0102C63.4579 48.5139 63.0102 48.0662 63.0102 47.5139V42.9824Z" fill="#2988FF"/>
<path fill-rule="evenodd" clip-rule="evenodd" d="M17.7392 35.8095H79.7888V39.5095H17.7392V35.8095Z" fill="#1C3553"/>
<path fill-rule="evenodd" clip-rule="evenodd" d="M15.5498 25.7552C15.5498 24.4574 16.6019 23.4052 17.8998 23.4052H78.4997C79.7976 23.4052 80.8497 24.4574 80.8497 25.7552V72.1169C80.8497 73.4147 79.7976 74.4669 78.4997 74.4669H17.8998C16.6019 74.4669 15.5498 73.4148 15.5498 72.1169V25.7552ZM19.2498 27.1052V70.7669H77.1497V27.1052H19.2498Z" fill="#1C3553"/>
<path fill-rule="evenodd" clip-rule="evenodd" d="M67.9998 21.1499C69.0215 21.1499 69.8498 21.9781 69.8498 22.9999V27.5105C69.8498 28.5322 69.0215 29.3605 67.9998 29.3605C66.9781 29.3605 66.1498 28.5322 66.1498 27.5105V22.9999C66.1498 21.9781 66.9781 21.1499 67.9998 21.1499Z" fill="#1C3553"/>
<path fill-rule="evenodd" clip-rule="evenodd" d="M28.3998 21.1499C29.4215 21.1499 30.2498 21.9781 30.2498 22.9999V27.5105C30.2498 28.5322 29.4215 29.3605 28.3998 29.3605C27.378 29.3605 26.5498 28.5322 26.5498 27.5105V22.9999C26.5498 21.9781 27.378 21.1499 28.3998 21.1499Z" fill="#1C3553"/>
</svg>
