<svg width="96" height="96" viewBox="0 0 96 96" fill="none" xmlns="http://www.w3.org/2000/svg">
<path d="M21.8004 52.7797C21.8004 52.2274 22.2481 51.7797 22.8004 51.7797H31.7897C32.3419 51.7797 32.7897 52.2274 32.7897 52.7797V57.3113C32.7897 57.8636 32.3419 58.3113 31.7897 58.3113H22.8004C22.2481 58.3113 21.8004 57.8636 21.8004 57.3113V52.7797Z" fill="#2988FF"/>
<path fill-rule="evenodd" clip-rule="evenodd" d="M35.537 52.7797C35.537 52.2274 35.9847 51.7797 36.537 51.7797H45.5263C46.0786 51.7797 46.5263 52.2274 46.5263 52.7797V57.3113C46.5263 57.8636 46.0786 58.3113 45.5263 58.3113H36.537C35.9847 58.3113 35.537 57.8636 35.537 57.3113V52.7797Z" fill="#2988FF"/>
<path d="M21.8004 42.9824C21.8004 42.4301 22.2481 41.9824 22.8004 41.9824H31.7897C32.3419 41.9824 32.7897 42.4301 32.7897 42.9824V47.5139C32.7897 48.0662 32.3419 48.5139 31.7897 48.5139H22.8004C22.2481 48.5139 21.8004 48.0662 21.8004 47.5139V42.9824Z" fill="#2988FF"/>
<path fill-rule="evenodd" clip-rule="evenodd" d="M35.537 42.9824C35.537 42.4301 35.9847 41.9824 36.537 41.9824H45.5263C46.0786 41.9824 46.5263 42.4301 46.5263 42.9824V47.5139C46.5263 48.0662 46.0786 48.5139 45.5263 48.5139H36.537C35.9847 48.5139 35.537 48.0662 35.537 47.5139V42.9824Z" fill="#2988FF"/>
<path fill-rule="evenodd" clip-rule="evenodd" d="M49.2736 42.9824C49.2736 42.4301 49.7213 41.9824 50.2736 41.9824H59.2629C59.8152 41.9824 60.2629 42.4301 60.2629 42.9824V47.5139C60.2629 48.0662 59.8152 48.5139 59.2629 48.5139H50.2736C49.7213 48.5139 49.2736 48.0662 49.2736 47.5139V42.9824Z" fill="#2988FF"/>
<path d="M63.0102 42.9824C63.0102 42.4301 63.4579 41.9824 64.0102 41.9824H72.9995C73.5518 41.9824 73.9995 42.4301 73.9995 42.9824V47.5139C73.9995 48.0662 73.5518 48.5139 72.9995 48.5139H64.0102C63.4579 48.5139 63.0102 48.0662 63.0102 47.5139V42.9824Z" fill="#2988FF"/>
<path fill-rule="evenodd" clip-rule="evenodd" d="M17.7396 35.8095H79.7892V39.5095H17.7396V35.8095Z" fill="#1C3553"/>
<path fill-rule="evenodd" clip-rule="evenodd" d="M15.55 25.7552C15.55 24.4574 16.6021 23.4052 17.9 23.4052H78.4999C79.7978 23.4052 80.8499 24.4574 80.8499 25.7552V72.1169C80.8499 73.4147 79.7978 74.4669 78.4999 74.4669H17.9C16.6021 74.4669 15.55 73.4148 15.55 72.1169V25.7552ZM19.25 27.1052V70.7669H77.1499V27.1052H19.25Z" fill="#1C3553"/>
<path fill-rule="evenodd" clip-rule="evenodd" d="M67.9999 21.1499C69.0216 21.1499 69.8499 21.9781 69.8499 22.9999V27.5105C69.8499 28.5322 69.0216 29.3605 67.9999 29.3605C66.9782 29.3605 66.1499 28.5322 66.1499 27.5105V22.9999C66.1499 21.9781 66.9782 21.1499 67.9999 21.1499Z" fill="#1C3553"/>
<path fill-rule="evenodd" clip-rule="evenodd" d="M28.4 21.1499C29.4217 21.1499 30.25 21.9781 30.25 22.9999V27.5105C30.25 28.5322 29.4217 29.3605 28.4 29.3605C27.3782 29.3605 26.55 28.5322 26.55 27.5105V22.9999C26.55 21.9781 27.3782 21.1499 28.4 21.1499Z" fill="#1C3553"/>
</svg>
