<svg width="96" height="96" viewBox="0 0 96 96" fill="none" xmlns="http://www.w3.org/2000/svg">
<path d="M21.8003 52.7798C21.8003 52.2275 22.248 51.7798 22.8003 51.7798H31.7896C32.3419 51.7798 32.7896 52.2275 32.7896 52.7798V57.3113C32.7896 57.8636 32.3419 58.3113 31.7896 58.3113H22.8003C22.248 58.3113 21.8003 57.8636 21.8003 57.3113V52.7798Z" fill="#2988FF"/>
<path fill-rule="evenodd" clip-rule="evenodd" d="M35.5371 52.7798C35.5371 52.2275 35.9848 51.7798 36.5371 51.7798H45.5264C46.0787 51.7798 46.5264 52.2275 46.5264 52.7798V57.3113C46.5264 57.8636 46.0787 58.3113 45.5264 58.3113H36.5371C35.9848 58.3113 35.5371 57.8636 35.5371 57.3113V52.7798Z" fill="#2988FF"/>
<path fill-rule="evenodd" clip-rule="evenodd" d="M49.2734 52.7798C49.2734 52.2275 49.7212 51.7798 50.2734 51.7798H59.2627C59.815 51.7798 60.2627 52.2275 60.2627 52.7798V57.3113C60.2627 57.8636 59.815 58.3113 59.2627 58.3113H50.2734C49.7212 58.3113 49.2734 57.8636 49.2734 57.3113V52.7798Z" fill="#2988FF"/>
<path d="M63.0103 52.7798C63.0103 52.2275 63.458 51.7798 64.0103 51.7798H72.9996C73.5518 51.7798 73.9996 52.2275 73.9996 52.7798V57.3113C73.9996 57.8636 73.5518 58.3113 72.9996 58.3113H64.0103C63.458 58.3113 63.0103 57.8636 63.0103 57.3113V52.7798Z" fill="#2988FF"/>
<path d="M21.8003 62.4683C21.8003 61.916 22.248 61.4683 22.8003 61.4683H31.7896C32.3419 61.4683 32.7896 61.916 32.7896 62.4683V66.9998C32.7896 67.5521 32.3419 67.9998 31.7896 67.9998H22.8003C22.248 67.9998 21.8003 67.5521 21.8003 66.9998V62.4683Z" fill="#2988FF"/>
<path fill-rule="evenodd" clip-rule="evenodd" d="M35.5371 62.4683C35.5371 61.916 35.9848 61.4683 36.5371 61.4683H45.5264C46.0787 61.4683 46.5264 61.916 46.5264 62.4683V66.9998C46.5264 67.5521 46.0787 67.9998 45.5264 67.9998H36.5371C35.9848 67.9998 35.5371 67.5521 35.5371 66.9998V62.4683Z" fill="#2988FF"/>
<path fill-rule="evenodd" clip-rule="evenodd" d="M49.2734 62.4683C49.2734 61.916 49.7212 61.4683 50.2734 61.4683H59.2627C59.815 61.4683 60.2627 61.916 60.2627 62.4683V66.9998C60.2627 67.5521 59.815 67.9998 59.2627 67.9998H50.2734C49.7212 67.9998 49.2734 67.5521 49.2734 66.9998V62.4683Z" fill="#2988FF"/>
<path d="M63.0103 62.4683C63.0103 61.916 63.458 61.4683 64.0103 61.4683H72.9996C73.5518 61.4683 73.9996 61.916 73.9996 62.4683V66.9998C73.9996 67.5521 73.5518 67.9998 72.9996 67.9998H64.0103C63.458 67.9998 63.0103 67.5521 63.0103 66.9998V62.4683Z" fill="#2988FF"/>
<path d="M21.8003 42.9824C21.8003 42.4301 22.248 41.9824 22.8003 41.9824H31.7896C32.3419 41.9824 32.7896 42.4301 32.7896 42.9824V47.514C32.7896 48.0663 32.3419 48.514 31.7896 48.514H22.8003C22.248 48.514 21.8003 48.0663 21.8003 47.514V42.9824Z" fill="#2988FF"/>
<path fill-rule="evenodd" clip-rule="evenodd" d="M35.5371 42.9824C35.5371 42.4301 35.9848 41.9824 36.5371 41.9824H45.5264C46.0787 41.9824 46.5264 42.4301 46.5264 42.9824V47.514C46.5264 48.0663 46.0787 48.514 45.5264 48.514H36.5371C35.9848 48.514 35.5371 48.0663 35.5371 47.514V42.9824Z" fill="#2988FF"/>
<path fill-rule="evenodd" clip-rule="evenodd" d="M49.2734 42.9824C49.2734 42.4301 49.7212 41.9824 50.2734 41.9824H59.2627C59.815 41.9824 60.2627 42.4301 60.2627 42.9824V47.514C60.2627 48.0663 59.815 48.514 59.2627 48.514H50.2734C49.7212 48.514 49.2734 48.0663 49.2734 47.514V42.9824Z" fill="#2988FF"/>
<path d="M63.0103 42.9824C63.0103 42.4301 63.458 41.9824 64.0103 41.9824H72.9996C73.5518 41.9824 73.9996 42.4301 73.9996 42.9824V47.514C73.9996 48.0663 73.5518 48.514 72.9996 48.514H64.0103C63.458 48.514 63.0103 48.0663 63.0103 47.514V42.9824Z" fill="#2988FF"/>
<path fill-rule="evenodd" clip-rule="evenodd" d="M17.7393 35.8096H79.7889V39.5096H17.7393V35.8096Z" fill="#1C3553"/>
<path fill-rule="evenodd" clip-rule="evenodd" d="M15.5498 25.7553C15.5498 24.4574 16.6019 23.4053 17.8998 23.4053H78.4998C79.7977 23.4053 80.8498 24.4574 80.8498 25.7553V72.117C80.8498 73.4148 79.7977 74.467 78.4998 74.467H17.8998C16.6019 74.467 15.5498 73.4148 15.5498 72.117V25.7553ZM19.2498 27.1053V70.767H77.1498V27.1053H19.2498Z" fill="#1C3553"/>
<path fill-rule="evenodd" clip-rule="evenodd" d="M67.9999 21.1499C69.0216 21.1499 69.8499 21.9782 69.8499 22.9999V27.5105C69.8499 28.5323 69.0216 29.3605 67.9999 29.3605C66.9782 29.3605 66.1499 28.5323 66.1499 27.5105V22.9999C66.1499 21.9782 66.9782 21.1499 67.9999 21.1499Z" fill="#1C3553"/>
<path fill-rule="evenodd" clip-rule="evenodd" d="M28.3998 21.1499C29.4215 21.1499 30.2498 21.9782 30.2498 22.9999V27.5105C30.2498 28.5323 29.4215 29.3605 28.3998 29.3605C27.3781 29.3605 26.5498 28.5323 26.5498 27.5105V22.9999C26.5498 21.9782 27.3781 21.1499 28.3998 21.1499Z" fill="#1C3553"/>
</svg>
