<svg width="96" height="96" viewBox="0 0 96 96" fill="none" xmlns="http://www.w3.org/2000/svg">
<path d="M21.8004 52.7798C21.8004 52.2275 22.2481 51.7798 22.8004 51.7798H31.7897C32.342 51.7798 32.7897 52.2275 32.7897 52.7798V57.3113C32.7897 57.8636 32.342 58.3113 31.7897 58.3113H22.8004C22.2481 58.3113 21.8004 57.8636 21.8004 57.3113V52.7798Z" fill="#2988FF"/>
<path fill-rule="evenodd" clip-rule="evenodd" d="M35.537 52.7798C35.537 52.2275 35.9847 51.7798 36.537 51.7798H45.5263C46.0786 51.7798 46.5263 52.2275 46.5263 52.7798V57.3113C46.5263 57.8636 46.0786 58.3113 45.5263 58.3113H36.537C35.9847 58.3113 35.537 57.8636 35.537 57.3113V52.7798Z" fill="#2988FF"/>
<path fill-rule="evenodd" clip-rule="evenodd" d="M49.2737 52.7798C49.2737 52.2275 49.7214 51.7798 50.2737 51.7798H59.263C59.8153 51.7798 60.263 52.2275 60.263 52.7798V57.3113C60.263 57.8636 59.8153 58.3113 59.263 58.3113H50.2737C49.7214 58.3113 49.2737 57.8636 49.2737 57.3113V52.7798Z" fill="#2988FF"/>
<path d="M63.0103 52.7798C63.0103 52.2275 63.458 51.7798 64.0103 51.7798H72.9996C73.5519 51.7798 73.9996 52.2275 73.9996 52.7798V57.3113C73.9996 57.8636 73.5519 58.3113 72.9996 58.3113H64.0103C63.458 58.3113 63.0103 57.8636 63.0103 57.3113V52.7798Z" fill="#2988FF"/>
<path d="M21.8004 62.4683C21.8004 61.916 22.2481 61.4683 22.8004 61.4683H31.7897C32.342 61.4683 32.7897 61.916 32.7897 62.4683V66.9998C32.7897 67.5521 32.342 67.9998 31.7897 67.9998H22.8004C22.2481 67.9998 21.8004 67.5521 21.8004 66.9998V62.4683Z" fill="#2988FF"/>
<path fill-rule="evenodd" clip-rule="evenodd" d="M35.537 62.4683C35.537 61.916 35.9847 61.4683 36.537 61.4683H45.5263C46.0786 61.4683 46.5263 61.916 46.5263 62.4683V66.9998C46.5263 67.5521 46.0786 67.9998 45.5263 67.9998H36.537C35.9847 67.9998 35.537 67.5521 35.537 66.9998V62.4683Z" fill="#2988FF"/>
<path fill-rule="evenodd" clip-rule="evenodd" d="M49.2737 62.4683C49.2737 61.916 49.7214 61.4683 50.2737 61.4683H59.263C59.8153 61.4683 60.263 61.916 60.263 62.4683V66.9998C60.263 67.5521 59.8153 67.9998 59.263 67.9998H50.2737C49.7214 67.9998 49.2737 67.5521 49.2737 66.9998V62.4683Z" fill="#2988FF"/>
<path d="M63.0103 62.4683C63.0103 61.916 63.458 61.4683 64.0103 61.4683H72.9996C73.5519 61.4683 73.9996 61.916 73.9996 62.4683V66.9998C73.9996 67.5521 73.5519 67.9998 72.9996 67.9998H64.0103C63.458 67.9998 63.0103 67.5521 63.0103 66.9998V62.4683Z" fill="#2988FF"/>
<path d="M21.8004 42.9824C21.8004 42.4301 22.2481 41.9824 22.8004 41.9824H31.7897C32.342 41.9824 32.7897 42.4301 32.7897 42.9824V47.514C32.7897 48.0663 32.342 48.514 31.7897 48.514H22.8004C22.2481 48.514 21.8004 48.0663 21.8004 47.514V42.9824Z" fill="#2988FF"/>
<path fill-rule="evenodd" clip-rule="evenodd" d="M35.537 42.9824C35.537 42.4301 35.9847 41.9824 36.537 41.9824H45.5263C46.0786 41.9824 46.5263 42.4301 46.5263 42.9824V47.514C46.5263 48.0663 46.0786 48.514 45.5263 48.514H36.537C35.9847 48.514 35.537 48.0663 35.537 47.514V42.9824Z" fill="#2988FF"/>
<path fill-rule="evenodd" clip-rule="evenodd" d="M49.2737 42.9824C49.2737 42.4301 49.7214 41.9824 50.2737 41.9824H59.263C59.8153 41.9824 60.263 42.4301 60.263 42.9824V47.514C60.263 48.0663 59.8153 48.514 59.263 48.514H50.2737C49.7214 48.514 49.2737 48.0663 49.2737 47.514V42.9824Z" fill="#2988FF"/>
<path d="M63.0103 42.9824C63.0103 42.4301 63.458 41.9824 64.0103 41.9824H72.9996C73.5519 41.9824 73.9996 42.4301 73.9996 42.9824V47.514C73.9996 48.0663 73.5519 48.514 72.9996 48.514H64.0103C63.458 48.514 63.0103 48.0663 63.0103 47.514V42.9824Z" fill="#2988FF"/>
<path fill-rule="evenodd" clip-rule="evenodd" d="M17.7396 35.8096H79.7893V39.5096H17.7396V35.8096Z" fill="#1C3553"/>
<path fill-rule="evenodd" clip-rule="evenodd" d="M15.55 25.7553C15.55 24.4574 16.6021 23.4053 17.9 23.4053H78.5C79.7979 23.4053 80.85 24.4574 80.85 25.7553V72.117C80.85 73.4148 79.7979 74.467 78.5 74.467H17.9C16.6021 74.467 15.55 73.4148 15.55 72.117V25.7553ZM19.25 27.1053V70.767H77.15V27.1053H19.25Z" fill="#1C3553"/>
<path fill-rule="evenodd" clip-rule="evenodd" d="M68 21.1499C69.0217 21.1499 69.85 21.9782 69.85 22.9999V27.5105C69.85 28.5323 69.0217 29.3605 68 29.3605C66.9783 29.3605 66.15 28.5323 66.15 27.5105V22.9999C66.15 21.9782 66.9783 21.1499 68 21.1499Z" fill="#1C3553"/>
<path fill-rule="evenodd" clip-rule="evenodd" d="M28.4 21.1499C29.4217 21.1499 30.25 21.9782 30.25 22.9999V27.5105C30.25 28.5323 29.4217 29.3605 28.4 29.3605C27.3783 29.3605 26.55 28.5323 26.55 27.5105V22.9999C26.55 21.9782 27.3783 21.1499 28.4 21.1499Z" fill="#1C3553"/>
</svg>
