<svg width="96" height="96" viewBox="0 0 96 96" fill="none" xmlns="http://www.w3.org/2000/svg">
<path fill-rule="evenodd" clip-rule="evenodd" d="M24.7251 32.3713H71.7751V70.8713H60.1021V47.446H36.3971V70.8713H24.7251V32.3713ZM28.2251 35.8713V67.3713H32.8971V43.946H63.6021V67.3713H68.2751V35.8713H28.2251Z" fill="#2988FF"/>
<path fill-rule="evenodd" clip-rule="evenodd" d="M24.9631 39C24.9631 38.5858 25.2989 38.25 25.7131 38.25H70.7131C71.1273 38.25 71.4631 38.5858 71.4631 39C71.4631 39.4142 71.1273 39.75 70.7131 39.75H25.7131C25.2989 39.75 24.9631 39.4142 24.9631 39Z" fill="#2988FF"/>
<path fill-rule="evenodd" clip-rule="evenodd" d="M20.7869 24.75C20.7869 23.7835 21.5704 23 22.5369 23H73.9629C74.9294 23 75.7129 23.7835 75.7129 24.75V33.154C75.7129 34.1205 74.9294 34.904 73.9629 34.904H22.5369C21.5704 34.904 20.7869 34.1205 20.7869 33.154V24.75ZM72.2129 26.5H24.2869V31.404H72.2129V26.5Z" fill="#2988FF"/>
<path d="M43.698 50.5862C43.8762 50.3777 44.1513 50.279 44.4213 50.3268C45.3881 50.4978 46.7487 50.9082 47.8 51.9231C48.8584 52.9448 49.363 54.3544 49.3848 56.0179C49.632 56.8376 49.9579 57.2364 50.2164 57.4218C50.472 57.6053 50.7321 57.6321 50.9696 57.577C51.5892 57.4325 52.1031 56.7024 51.965 55.8731L51.9644 55.8696C51.8811 55.3542 51.7855 54.7757 51.595 54.178C51.4882 53.8425 51.6211 53.4772 51.9186 53.2889C52.2161 53.1007 52.6031 53.1369 52.8605 53.3771C55.2854 55.6396 55.4961 58.6456 54.6879 61.0734L54.4434 61.8078L53.9747 61.3189L53.2191 60.5845C53.5898 59.4711 53.6917 58.258 53.3851 57.0987C53.0829 58.055 52.3396 58.8475 51.3199 59.0848C50.6954 59.2297 49.969 59.1496 49.3139 58.6796C48.6717 58.2187 48.1774 57.4416 47.8667 56.3414C47.8473 56.2729 47.8375 56.2021 47.8375 56.131C47.8375 54.7257 47.4327 53.7201 46.725 53.0368L45.3099 52.1672C45.4304 53.3743 45.1905 54.791 44.2159 56.2267L43.7811 56.8671L42.5004 55.9976L42.9351 55.3572C43.9823 53.8147 43.9082 52.367 43.5547 51.3411C43.4654 51.0818 43.5199 50.7947 43.698 50.5862Z" fill="#1C3553"/>
<path fill-rule="evenodd" clip-rule="evenodd" d="M43.14 55.019L43.6547 56.4234C44.6391 58.76 46.8812 60.324 49.3854 60.324C51.0237 60.324 52.5628 59.6662 53.7176 58.5051L54.8888 57.3276L55.0373 58.9818C55.0533 59.1605 55.0614 59.3385 55.0614 59.517C55.0614 63.1357 51.9503 66 48.2244 66C44.4985 66 41.3874 63.1357 41.3874 59.517C41.3874 58.3868 41.698 57.2903 42.278 56.3253L43.14 55.019ZM43.0469 58.5104C42.9731 58.8392 42.9354 59.1763 42.9354 59.517C42.9354 62.1943 45.2643 64.452 48.2244 64.452C50.7118 64.452 52.7535 62.8577 53.3421 60.7599C52.1645 61.4778 50.806 61.872 49.3854 61.872C46.8024 61.872 44.4741 60.5576 43.0469 58.5104Z" fill="#1C3553"/>
<path fill-rule="evenodd" clip-rule="evenodd" d="M18 69.25C18 68.2835 18.7835 67.5 19.75 67.5H76.75C77.7165 67.5 78.5 68.2835 78.5 69.25C78.5 70.2165 77.7165 71 76.75 71H19.75C18.7835 71 18 70.2165 18 69.25Z" fill="#1C3553"/>
</svg>
