<svg width="96" height="96" viewBox="0 0 96 96" fill="none" xmlns="http://www.w3.org/2000/svg">
<path d="M76.5016 64.999C76.5016 64.199 75.8016 63.499 75.0016 63.499H22.1016C21.3016 63.499 20.6016 64.199 20.6016 64.999C20.6016 65.799 21.3016 66.499 22.1016 66.499H26.6016V76.599C26.6016 77.699 27.5016 78.599 28.6016 78.599H66.6016C67.7016 78.599 68.6016 77.699 68.6016 76.599V66.499H75.0016C75.9016 66.499 76.5016 65.799 76.5016 64.999ZM64.6016 74.599H30.6016V66.499H64.6016V74.599Z" fill="#2988FF"/>
<path d="M57.2017 57.499C57.6017 57.499 57.9017 57.199 57.9017 56.799V49.899C57.9017 49.499 57.6017 49.199 57.2017 49.199H53.4017C53.0017 49.199 52.7017 49.499 52.7017 49.899V56.799C52.7017 57.199 53.0017 57.499 53.4017 57.499H57.2017ZM54.2017 50.599H56.5017V55.999H54.2017V50.599Z" fill="#1C3553"/>
<path d="M42.2017 49.199H38.4017C38.0017 49.199 37.7017 49.499 37.7017 49.899V56.799C37.7017 57.199 38.0017 57.499 38.4017 57.499H42.2017C42.6017 57.499 42.9017 57.199 42.9017 56.799V49.899C42.9017 49.499 42.6017 49.199 42.2017 49.199ZM41.4017 55.999H39.1017V50.599H41.4017V55.999Z" fill="#1C3553"/>
<path d="M19.7019 46.599C20.0019 47.299 20.8019 48.599 22.9019 48.499C24.3019 48.499 25.8019 48.499 27.2019 48.499V58.899C27.2019 59.999 28.1019 60.899 29.2019 60.899C30.3019 60.899 31.2019 59.999 31.2019 58.899V47.999C31.2019 45.799 29.9019 44.499 27.7019 44.399C26.7019 44.399 25.7019 44.399 24.7019 44.399C27.7019 41.399 34.7019 34.499 40.2019 29.099L47.5019 22.099C49.0019 23.599 64.0019 38.399 69.7019 44.599C68.9019 44.599 68.0019 44.599 67.2019 44.599C65.0019 44.599 63.7019 45.899 63.7019 48.199V58.999C63.7019 60.099 64.6019 60.999 65.7019 60.999C66.8019 60.999 67.7019 60.099 67.7019 58.999V48.599C69.1019 48.599 70.6019 48.599 72.0019 48.599C74.1019 48.599 74.9019 47.399 75.2019 46.599C75.7019 45.299 74.9019 44.499 73.7019 43.099C68.9019 37.799 50.2019 19.299 50.0019 19.099C49.4019 18.299 48.5019 17.899 47.5019 17.999C46.6019 17.899 45.7019 18.299 44.8019 19.099L37.5019 26.399C30.9019 32.899 22.2019 41.499 20.7019 42.999C20.3019 43.399 19.0019 44.699 19.7019 46.599Z" fill="#1C3553"/>
</svg>
