<svg width="96" height="96" viewBox="0 0 96 96" fill="none" xmlns="http://www.w3.org/2000/svg">
<path d="M26 50.0379C26 49.4856 26.4477 49.0379 27 49.0379H35.7368C36.2891 49.0379 36.7368 49.4856 36.7368 50.0379V54.063C36.7368 54.6153 36.2891 55.063 35.7368 55.063H27C26.4477 55.063 26 54.6153 26 54.063V50.0379Z" fill="#2988FF"/>
<path fill-rule="evenodd" clip-rule="evenodd" d="M39.4209 50.0377C39.4209 49.4854 39.8686 49.0377 40.4209 49.0377H49.1577C49.71 49.0377 50.1577 49.4854 50.1577 50.0377V54.0628C50.1577 54.6151 49.71 55.0628 49.1577 55.0628H40.4209C39.8686 55.0628 39.4209 54.6151 39.4209 54.0628V50.0377Z" fill="#2988FF"/>
<path fill-rule="evenodd" clip-rule="evenodd" d="M52.8413 50.0377C52.8413 49.4854 53.289 49.0377 53.8413 49.0377H62.5781C63.1304 49.0377 63.5781 49.4854 63.5781 50.0377V54.0628C63.5781 54.6151 63.1304 55.0628 62.5781 55.0628H53.8413C53.289 55.0628 52.8413 54.6151 52.8413 54.0628V50.0377Z" fill="#2988FF"/>
<path d="M66.2622 50.0377C66.2622 49.4854 66.7099 49.0377 67.2622 49.0377H75.999C76.5513 49.0377 76.999 49.4854 76.999 50.0377V54.0628C76.999 54.6151 76.5513 55.0628 75.999 55.0628H67.2622C66.7099 55.0628 66.2622 54.6151 66.2622 54.0628V50.0377Z" fill="#2988FF"/>
<path d="M26 58.9747C26 58.4224 26.4477 57.9747 27 57.9747H35.7368C36.2891 57.9747 36.7368 58.4224 36.7368 58.9747V62.9998C36.7368 63.5521 36.2891 63.9998 35.7368 63.9998H27C26.4477 63.9998 26 63.5521 26 62.9998V58.9747Z" fill="#2988FF"/>
<path fill-rule="evenodd" clip-rule="evenodd" d="M39.4209 58.9749C39.4209 58.4227 39.8686 57.9749 40.4209 57.9749H49.1577C49.71 57.9749 50.1577 58.4227 50.1577 58.9749V63C50.1577 63.5523 49.71 64 49.1577 64H40.4209C39.8686 64 39.4209 63.5523 39.4209 63V58.9749Z" fill="#2988FF"/>
<path fill-rule="evenodd" clip-rule="evenodd" d="M52.8413 58.9749C52.8413 58.4227 53.289 57.9749 53.8413 57.9749H62.5781C63.1304 57.9749 63.5781 58.4227 63.5781 58.9749V63C63.5781 63.5523 63.1304 64 62.5781 64H53.8413C53.289 64 52.8413 63.5523 52.8413 63V58.9749Z" fill="#2988FF"/>
<path d="M66.2622 58.9749C66.2622 58.4227 66.7099 57.9749 67.2622 57.9749H75.999C76.5513 57.9749 76.999 58.4227 76.999 58.9749V63C76.999 63.5523 76.5513 64 75.999 64H67.2622C66.7099 64 66.2622 63.5523 66.2622 63V58.9749Z" fill="#2988FF"/>
<path d="M26 41C26 40.4477 26.4477 40 27 40H35.7368C36.2891 40 36.7368 40.4477 36.7368 41V45.0251C36.7368 45.5774 36.2891 46.0251 35.7368 46.0251H27C26.4477 46.0251 26 45.5774 26 45.0251V41Z" fill="#2988FF"/>
<path fill-rule="evenodd" clip-rule="evenodd" d="M39.4209 41C39.4209 40.4477 39.8686 40 40.4209 40H49.1577C49.71 40 50.1577 40.4477 50.1577 41V45.0251C50.1577 45.5774 49.71 46.0251 49.1577 46.0251H40.4209C39.8686 46.0251 39.4209 45.5774 39.4209 45.0251V41Z" fill="#2988FF"/>
<path fill-rule="evenodd" clip-rule="evenodd" d="M52.8413 41C52.8413 40.4477 53.289 40 53.8413 40H62.5781C63.1304 40 63.5781 40.4477 63.5781 41V45.0251C63.5781 45.5774 63.1304 46.0251 62.5781 46.0251H53.8413C53.289 46.0251 52.8413 45.5774 52.8413 45.0251V41Z" fill="#2988FF"/>
<path d="M66.2622 41C66.2622 40.4477 66.7099 40 67.2622 40H75.999C76.5513 40 76.999 40.4477 76.999 41V45.0251C76.999 45.5774 76.5513 46.0251 75.999 46.0251H67.2622C66.7099 46.0251 66.2622 45.5774 66.2622 45.0251V41Z" fill="#2988FF"/>
<path fill-rule="evenodd" clip-rule="evenodd" d="M21.6562 33.9299H81.8236V37.6299H21.6562V33.9299Z" fill="#1C3553"/>
<path fill-rule="evenodd" clip-rule="evenodd" d="M13.2002 29.3598C13.2002 27.8134 14.4538 26.5598 16.0002 26.5598H21.3873V30.1598H16.8002V73.1998H74.9788V68.6397H78.5788V73.9998C78.5788 75.5462 77.3252 76.7998 75.7788 76.7998H16.0002C14.4538 76.7998 13.2002 75.5462 13.2002 73.9998V29.3598Z" fill="#1C3553"/>
<path fill-rule="evenodd" clip-rule="evenodd" d="M19.5874 24.6198C19.5874 23.3495 20.6171 22.3198 21.8874 22.3198H80.5003C81.7705 22.3198 82.8003 23.3496 82.8003 24.6198V68.1398C82.8003 69.41 81.7705 70.4398 80.5003 70.4398H21.8874C20.6171 70.4398 19.5874 69.41 19.5874 68.1398V24.6198ZM23.1874 25.9198V66.8398H79.2003V25.9198H23.1874Z" fill="#1C3553"/>
<path fill-rule="evenodd" clip-rule="evenodd" d="M70.3548 20.1499C71.3766 20.1499 72.2048 20.9782 72.2048 21.9999V26.2399C72.2048 27.2616 71.3766 28.0899 70.3548 28.0899C69.3331 28.0899 68.5048 27.2616 68.5048 26.2399V21.9999C68.5048 20.9782 69.3331 20.1499 70.3548 20.1499Z" fill="#1C3553"/>
<path fill-rule="evenodd" clip-rule="evenodd" d="M32.0326 20.1499C33.0543 20.1499 33.8826 20.9782 33.8826 21.9999V26.2399C33.8826 27.2616 33.0543 28.0899 32.0326 28.0899C31.0109 28.0899 30.1826 27.2616 30.1826 26.2399V21.9999C30.1826 20.9782 31.0109 20.1499 32.0326 20.1499Z" fill="#1C3553"/>
</svg>
