<svg width="96" height="96" viewBox="0 0 96 96" fill="none" xmlns="http://www.w3.org/2000/svg">
<path fill-rule="evenodd" clip-rule="evenodd" d="M15.15 23.4999C15.15 22.202 16.2021 21.1499 17.5 21.1499H78.4999C79.7978 21.1499 80.8499 22.202 80.8499 23.4999V72.4998C80.8499 73.7977 79.7978 74.8498 78.4999 74.8498H17.5C16.2021 74.8498 15.15 73.7977 15.15 72.4998V23.4999ZM18.85 24.8499V71.1498H77.1499V24.8499H18.85Z" fill="#1C3553"/>
<path fill-rule="evenodd" clip-rule="evenodd" d="M67.1999 18.1499C68.2216 18.1499 69.0499 18.9782 69.0499 19.9999V24.5105C69.0499 25.5322 68.2216 26.3605 67.1999 26.3605C66.1782 26.3605 65.3499 25.5322 65.3499 24.5105V19.9999C65.3499 18.9782 66.1782 18.1499 67.1999 18.1499Z" fill="#1C3553"/>
<path fill-rule="evenodd" clip-rule="evenodd" d="M17 29C17 28.4477 17.4477 28 18 28L78.9999 28C79.5522 28 79.9999 28.4477 79.9999 29C79.9999 29.5522 79.5522 30 78.9999 30L18 30C17.4477 30 17 29.5522 17 29Z" fill="#1C3553"/>
<path fill-rule="evenodd" clip-rule="evenodd" d="M28.3999 18.1499C29.4217 18.1499 30.2499 18.9782 30.2499 19.9999V24.5105C30.2499 25.5322 29.4217 26.3605 28.3999 26.3605C27.3782 26.3605 26.55 25.5322 26.55 24.5105V19.9999C26.55 18.9782 27.3782 18.1499 28.3999 18.1499Z" fill="#1C3553"/>
<path fill-rule="evenodd" clip-rule="evenodd" d="M41.1999 18.1499C42.2217 18.1499 43.0499 18.9782 43.0499 19.9999V24.5105C43.0499 25.5322 42.2217 26.3605 41.1999 26.3605C40.1782 26.3605 39.35 25.5322 39.35 24.5105V19.9999C39.35 18.9782 40.1782 18.1499 41.1999 18.1499Z" fill="#1C3553"/>
<path fill-rule="evenodd" clip-rule="evenodd" d="M54.1999 18.1499C55.2217 18.1499 56.0499 18.9782 56.0499 19.9999V24.5105C56.0499 25.5322 55.2217 26.3605 54.1999 26.3605C53.1782 26.3605 52.3499 25.5322 52.3499 24.5105V19.9999C52.3499 18.9782 53.1782 18.1499 54.1999 18.1499Z" fill="#1C3553"/>
<path d="M27.0347 66.9997H28.3067V63.4117C28.3067 62.6797 28.1987 61.6357 28.1387 60.9157H28.1867L28.8107 62.7037L30.1667 66.2677H30.8027L32.1587 62.7037L32.7947 60.9157H32.8427C32.7707 61.6357 32.6627 62.6797 32.6627 63.4117V66.9997H33.9707V59.1517H32.4347L31.0547 63.0157L30.5387 64.5037H30.4907L29.9747 63.0157L28.5587 59.1517H27.0347V66.9997Z" fill="#1C3553"/>
<path d="M38.989 67.1437C41.029 67.1437 42.445 65.5837 42.445 63.0397C42.445 60.5077 41.029 59.0077 38.989 59.0077C36.937 59.0077 35.521 60.5077 35.521 63.0397C35.521 65.5837 36.937 67.1437 38.989 67.1437ZM38.989 65.9317C37.753 65.9317 36.949 64.8037 36.949 63.0397C36.949 61.2877 37.753 60.2197 38.989 60.2197C40.213 60.2197 41.017 61.2877 41.017 63.0397C41.017 64.8037 40.213 65.9317 38.989 65.9317Z" fill="#1C3553"/>
<path d="M43.9918 66.9997H45.3118V63.5677C45.3118 62.6917 45.2038 61.7437 45.1318 60.9157H45.1798L45.9958 62.5837L48.4318 66.9997H49.8598V59.1517H48.5398V62.5597C48.5398 63.4357 48.6478 64.4317 48.7198 65.2357H48.6718L47.8558 63.5677L45.4198 59.1517H43.9918V66.9997Z" fill="#1C3553"/>
<path d="M53.1516 63.7837L53.4276 62.8237C53.6796 61.9957 53.9076 61.1077 54.1236 60.2317H54.1716C54.3996 61.0957 54.6396 61.9957 54.8796 62.8237L55.1556 63.7837H53.1516ZM56.0796 66.9997H57.5556L54.9996 59.1517H53.3676L50.7996 66.9997H52.2276L52.8396 64.8757H55.4676L56.0796 66.9997Z" fill="#1C3553"/>
<path d="M59.5914 66.9997H60.9834V60.3277H63.2394V59.1517H57.3234V60.3277H59.5914V66.9997Z" fill="#1C3553"/>
<path d="M64.523 66.9997H69.359V65.8237H65.915V63.5077H68.735V62.3317H65.915V60.3277H69.239V59.1517H64.523V66.9997Z" fill="#1C3553"/>
<path d="M32.505 45.3469L34.941 41.3449C35.463 40.3009 35.985 39.2569 36.449 38.2419H36.565C36.507 39.4019 36.391 41.1709 36.391 42.3599V45.3469H32.505ZM42.481 45.3469H40.364V34.5879H35.144L28.416 45.6659V48.5949H36.391V53.0029H40.364V48.5949H42.481V45.3469Z" fill="#2988FF"/>
<path d="M44.4332 47.1739H51.5672V44.1579H44.4332V47.1739Z" fill="#2988FF"/>
<path d="M60.8771 50.1609C59.6011 50.1609 58.3831 49.2329 58.0061 46.3329C58.8471 44.9989 59.8621 44.5059 60.7901 44.5059C62.1821 44.5059 63.1971 45.2309 63.1971 47.1739C63.1971 49.2619 62.1531 50.1609 60.8771 50.1609ZM66.8221 36.4439C65.6621 35.2549 63.8931 34.2399 61.4571 34.2399C57.5711 34.2399 54.0041 37.3429 54.0041 44.2159C54.0041 50.6829 57.3971 53.3509 60.9641 53.3509C64.2991 53.3509 67.0831 51.0019 67.0831 47.1739C67.0831 43.2879 64.7631 41.4899 61.6021 41.4899C60.4711 41.4899 58.8761 42.2149 57.9191 43.4329C58.0641 39.1409 59.6881 37.6909 61.7181 37.6909C62.7911 37.6909 63.9511 38.2999 64.5891 38.9959L66.8221 36.4439Z" fill="#2988FF"/>
</svg>
