<svg width="96" height="96" viewBox="0 0 96 96" fill="none" xmlns="http://www.w3.org/2000/svg">
<path fill-rule="evenodd" clip-rule="evenodd" d="M15.1499 23.5C15.1499 22.2021 16.202 21.15 17.4999 21.15H78.4998C79.7977 21.15 80.8498 22.2021 80.8498 23.5V72.4999C80.8498 73.7978 79.7977 74.8499 78.4998 74.8499H17.4999C16.202 74.8499 15.1499 73.7978 15.1499 72.4999V23.5ZM18.8499 24.85V71.1499H77.1498V24.85H18.8499Z" fill="#1C3553"/>
<path fill-rule="evenodd" clip-rule="evenodd" d="M67.2 18.15C68.2217 18.15 69.05 18.9783 69.05 20V24.5106C69.05 25.5324 68.2217 26.3606 67.2 26.3606C66.1783 26.3606 65.35 25.5324 65.35 24.5106V20C65.35 18.9783 66.1783 18.15 67.2 18.15Z" fill="#1C3553"/>
<path fill-rule="evenodd" clip-rule="evenodd" d="M17 29C17 28.4477 17.4477 28 18 28L78.9999 28C79.5522 28 79.9999 28.4477 79.9999 29C79.9999 29.5522 79.5522 30 78.9999 30L18 30C17.4477 30 17 29.5522 17 29Z" fill="#1C3553"/>
<path fill-rule="evenodd" clip-rule="evenodd" d="M28.3998 18.15C29.4215 18.15 30.2498 18.9783 30.2498 20V24.5106C30.2498 25.5324 29.4215 26.3606 28.3998 26.3606C27.378 26.3606 26.5498 25.5324 26.5498 24.5106V20C26.5498 18.9783 27.378 18.15 28.3998 18.15Z" fill="#1C3553"/>
<path fill-rule="evenodd" clip-rule="evenodd" d="M41.2 18.15C42.2218 18.15 43.05 18.9783 43.05 20V24.5106C43.05 25.5324 42.2218 26.3606 41.2 26.3606C40.1783 26.3606 39.35 25.5324 39.35 24.5106V20C39.35 18.9783 40.1783 18.15 41.2 18.15Z" fill="#1C3553"/>
<path fill-rule="evenodd" clip-rule="evenodd" d="M54.2 18.15C55.2218 18.15 56.05 18.9783 56.05 20V24.5106C56.05 25.5324 55.2218 26.3606 54.2 26.3606C53.1783 26.3606 52.35 25.5324 52.35 24.5106V20C52.35 18.9783 53.1783 18.15 54.2 18.15Z" fill="#1C3553"/>
<path d="M27.0346 67H28.3066V63.412C28.3066 62.68 28.1986 61.636 28.1386 60.916H28.1866L28.8106 62.704L30.1666 66.268H30.8026L32.1586 62.704L32.7946 60.916H32.8426C32.7706 61.636 32.6626 62.68 32.6626 63.412V67H33.9706V59.152H32.4346L31.0546 63.016L30.5386 64.504H30.4906L29.9746 63.016L28.5586 59.152H27.0346V67Z" fill="#1C3553"/>
<path d="M38.9889 67.144C41.0289 67.144 42.4449 65.584 42.4449 63.04C42.4449 60.508 41.0289 59.008 38.9889 59.008C36.9369 59.008 35.5209 60.508 35.5209 63.04C35.5209 65.584 36.9369 67.144 38.9889 67.144ZM38.9889 65.932C37.7529 65.932 36.9489 64.804 36.9489 63.04C36.9489 61.288 37.7529 60.22 38.9889 60.22C40.2129 60.22 41.0169 61.288 41.0169 63.04C41.0169 64.804 40.2129 65.932 38.9889 65.932Z" fill="#1C3553"/>
<path d="M43.9916 67H45.3116V63.568C45.3116 62.692 45.2036 61.744 45.1316 60.916H45.1796L45.9956 62.584L48.4316 67H49.8596V59.152H48.5396V62.56C48.5396 63.436 48.6476 64.432 48.7196 65.236H48.6716L47.8556 63.568L45.4196 59.152H43.9916V67Z" fill="#1C3553"/>
<path d="M53.1515 63.784L53.4275 62.824C53.6795 61.996 53.9075 61.108 54.1235 60.232H54.1715C54.3995 61.096 54.6395 61.996 54.8795 62.824L55.1555 63.784H53.1515ZM56.0795 67H57.5555L54.9995 59.152H53.3675L50.7995 67H52.2275L52.8395 64.876H55.4675L56.0795 67Z" fill="#1C3553"/>
<path d="M59.5912 67H60.9832V60.328H63.2392V59.152H57.3232V60.328H59.5912V67Z" fill="#1C3553"/>
<path d="M64.5229 67H69.3589V65.824H65.9149V63.508H68.7349V62.332H65.9149V60.328H69.2389V59.152H64.5229V67Z" fill="#1C3553"/>
<path d="M32.505 45.3469L34.941 41.3449C35.463 40.3009 35.985 39.2569 36.449 38.2419H36.565C36.507 39.4019 36.391 41.1709 36.391 42.3599V45.3469H32.505ZM42.481 45.3469H40.364V34.5879H35.144L28.416 45.6659V48.5949H36.391V53.0029H40.364V48.5949H42.481V45.3469Z" fill="#2988FF"/>
<path d="M44.4332 47.1739H51.5672V44.1579H44.4332V47.1739Z" fill="#2988FF"/>
<path d="M60.8771 50.1609C59.6011 50.1609 58.3831 49.2329 58.0061 46.3329C58.8471 44.9989 59.8621 44.5059 60.7901 44.5059C62.1821 44.5059 63.1971 45.2309 63.1971 47.1739C63.1971 49.2619 62.1531 50.1609 60.8771 50.1609ZM66.8221 36.4439C65.6621 35.2549 63.8931 34.2399 61.4571 34.2399C57.5711 34.2399 54.0041 37.3429 54.0041 44.2159C54.0041 50.6829 57.3971 53.3509 60.9641 53.3509C64.2991 53.3509 67.0831 51.0019 67.0831 47.1739C67.0831 43.2879 64.7631 41.4899 61.6021 41.4899C60.4711 41.4899 58.8761 42.2149 57.9191 43.4329C58.0641 39.1409 59.6881 37.6909 61.7181 37.6909C62.7911 37.6909 63.9511 38.2999 64.5891 38.9959L66.8221 36.4439Z" fill="#2988FF"/>
</svg>
