<svg width="96" height="96" viewBox="0 0 96 96" fill="none" xmlns="http://www.w3.org/2000/svg">
<path fill-rule="evenodd" clip-rule="evenodd" d="M15.15 23.4999C15.15 22.202 16.2021 21.1499 17.5 21.1499H78.5C79.7979 21.1499 80.85 22.202 80.85 23.4999V72.4999C80.85 73.7978 79.7979 74.8499 78.5 74.8499H17.5C16.2021 74.8499 15.15 73.7978 15.15 72.4999V23.4999ZM18.85 24.8499V71.1499H77.15V24.8499H18.85Z" fill="#1C3553"/>
<path fill-rule="evenodd" clip-rule="evenodd" d="M67.2 18.1499C68.2217 18.1499 69.05 18.9782 69.05 19.9999V24.5105C69.05 25.5323 68.2217 26.3605 67.2 26.3605C66.1783 26.3605 65.35 25.5323 65.35 24.5105V19.9999C65.35 18.9782 66.1783 18.1499 67.2 18.1499Z" fill="#1C3553"/>
<path fill-rule="evenodd" clip-rule="evenodd" d="M17 29C17 28.4477 17.4477 28 18 28L79 28C79.5523 28 80 28.4477 80 29C80 29.5523 79.5523 30 79 30L18 30C17.4477 30 17 29.5523 17 29Z" fill="#1C3553"/>
<path fill-rule="evenodd" clip-rule="evenodd" d="M28.4 18.1499C29.4217 18.1499 30.25 18.9782 30.25 19.9999V24.5105C30.25 25.5323 29.4217 26.3605 28.4 26.3605C27.3783 26.3605 26.55 25.5323 26.55 24.5105V19.9999C26.55 18.9782 27.3783 18.1499 28.4 18.1499Z" fill="#1C3553"/>
<path fill-rule="evenodd" clip-rule="evenodd" d="M41.2 18.1499C42.2217 18.1499 43.05 18.9782 43.05 19.9999V24.5105C43.05 25.5323 42.2217 26.3605 41.2 26.3605C40.1783 26.3605 39.35 25.5323 39.35 24.5105V19.9999C39.35 18.9782 40.1783 18.1499 41.2 18.1499Z" fill="#1C3553"/>
<path fill-rule="evenodd" clip-rule="evenodd" d="M54.2 18.1499C55.2217 18.1499 56.05 18.9782 56.05 19.9999V24.5105C56.05 25.5323 55.2217 26.3605 54.2 26.3605C53.1783 26.3605 52.35 25.5323 52.35 24.5105V19.9999C52.35 18.9782 53.1783 18.1499 54.2 18.1499Z" fill="#1C3553"/>
<path d="M27.0348 66.9998H28.3068V63.4118C28.3068 62.6798 28.1988 61.6358 28.1388 60.9158H28.1868L28.8108 62.7038L30.1668 66.2678H30.8028L32.1588 62.7038L32.7948 60.9158H32.8428C32.7708 61.6358 32.6628 62.6798 32.6628 63.4118V66.9998H33.9708V59.1518H32.4348L31.0548 63.0158L30.5388 64.5038H30.4908L29.9748 63.0158L28.5588 59.1518H27.0348V66.9998Z" fill="#1C3553"/>
<path d="M38.989 67.1438C41.029 67.1438 42.445 65.5838 42.445 63.0398C42.445 60.5078 41.029 59.0078 38.989 59.0078C36.937 59.0078 35.521 60.5078 35.521 63.0398C35.521 65.5838 36.937 67.1438 38.989 67.1438ZM38.989 65.9318C37.753 65.9318 36.949 64.8038 36.949 63.0398C36.949 61.2878 37.753 60.2198 38.989 60.2198C40.213 60.2198 41.017 61.2878 41.017 63.0398C41.017 64.8038 40.213 65.9318 38.989 65.9318Z" fill="#1C3553"/>
<path d="M43.9918 66.9998H45.3118V63.5678C45.3118 62.6918 45.2038 61.7438 45.1318 60.9158H45.1798L45.9958 62.5838L48.4318 66.9998H49.8598V59.1518H48.5398V62.5598C48.5398 63.4358 48.6478 64.4318 48.7198 65.2358H48.6718L47.8558 63.5678L45.4198 59.1518H43.9918V66.9998Z" fill="#1C3553"/>
<path d="M53.1517 63.7838L53.4277 62.8238C53.6797 61.9958 53.9077 61.1078 54.1237 60.2318H54.1717C54.3997 61.0958 54.6397 61.9958 54.8797 62.8238L55.1557 63.7838H53.1517ZM56.0797 66.9998H57.5557L54.9997 59.1518H53.3677L50.7997 66.9998H52.2277L52.8397 64.8758H55.4677L56.0797 66.9998Z" fill="#1C3553"/>
<path d="M59.5914 66.9998H60.9834V60.3278H63.2394V59.1518H57.3234V60.3278H59.5914V66.9998Z" fill="#1C3553"/>
<path d="M64.5231 66.9998H69.3591V65.8238H65.9151V63.5078H68.7351V62.3318H65.9151V60.3278H69.2391V59.1518H64.5231V66.9998Z" fill="#1C3553"/>
<path d="M52.4014 50.1581C51.1254 50.1581 49.9074 49.2301 49.5304 46.3301C50.3714 44.9961 51.3864 44.5031 52.3144 44.5031C53.7064 44.5031 54.7214 45.2281 54.7214 47.1711C54.7214 49.2591 53.6774 50.1581 52.4014 50.1581ZM58.3464 36.4411C57.1864 35.2521 55.4174 34.2371 52.9814 34.2371C49.0954 34.2371 45.5284 37.3401 45.5284 44.2131C45.5284 50.6801 48.9214 53.3481 52.4884 53.3481C55.8234 53.3481 58.6074 50.9991 58.6074 47.1711C58.6074 43.2851 56.2874 41.4871 53.1264 41.4871C51.9954 41.4871 50.4004 42.2121 49.4434 43.4301C49.5884 39.1381 51.2124 37.6881 53.2424 37.6881C54.3154 37.6881 55.4754 38.2971 56.1134 38.9931L58.3464 36.4411Z" fill="#2988FF"/>
<path fill-rule="evenodd" clip-rule="evenodd" d="M42.5 44.5002C42.5 45.0106 42.2405 45.486 41.8111 45.762L34.8111 50.262C34.1143 50.7099 33.1862 50.5082 32.7382 49.8113C32.2903 49.1145 32.492 48.1864 33.1889 47.7384L38.2261 44.5002L33.1889 41.262C32.492 40.814 32.2903 39.8859 32.7382 39.189C33.1862 38.4922 34.1143 38.2904 34.8111 38.7384L41.8111 43.2384C42.2405 43.5144 42.5 43.9898 42.5 44.5002Z" fill="#2988FF"/>
</svg>
