<svg width="96" height="96" viewBox="0 0 96 96" fill="none" xmlns="http://www.w3.org/2000/svg">
<path fill-rule="evenodd" clip-rule="evenodd" d="M15.1499 23.5C15.1499 22.2022 16.202 21.15 17.4999 21.15H78.4999C79.7978 21.15 80.8499 22.2022 80.8499 23.5V72.5C80.8499 73.7979 79.7978 74.85 78.4999 74.85H17.4999C16.202 74.85 15.1499 73.7979 15.1499 72.5V23.5ZM18.8499 24.85V71.15H77.1499V24.85H18.8499Z" fill="#1C3553"/>
<path fill-rule="evenodd" clip-rule="evenodd" d="M67.2001 18.15C68.2218 18.15 69.0501 18.9783 69.0501 20V24.5107C69.0501 25.5324 68.2218 26.3607 67.2001 26.3607C66.1784 26.3607 65.3501 25.5324 65.3501 24.5107V20C65.3501 18.9783 66.1784 18.15 67.2001 18.15Z" fill="#1C3553"/>
<path fill-rule="evenodd" clip-rule="evenodd" d="M17 29C17 28.4477 17.4477 28 18 28L79 28C79.5523 28 80 28.4477 80 29C80 29.5523 79.5523 30 79 30L18 30C17.4477 30 17 29.5523 17 29Z" fill="#1C3553"/>
<path fill-rule="evenodd" clip-rule="evenodd" d="M28.3998 18.15C29.4215 18.15 30.2498 18.9783 30.2498 20V24.5107C30.2498 25.5324 29.4215 26.3607 28.3998 26.3607C27.3781 26.3607 26.5498 25.5324 26.5498 24.5107V20C26.5498 18.9783 27.3781 18.15 28.3998 18.15Z" fill="#1C3553"/>
<path fill-rule="evenodd" clip-rule="evenodd" d="M41.2001 18.15C42.2218 18.15 43.0501 18.9783 43.0501 20V24.5107C43.0501 25.5324 42.2218 26.3607 41.2001 26.3607C40.1784 26.3607 39.3501 25.5324 39.3501 24.5107V20C39.3501 18.9783 40.1784 18.15 41.2001 18.15Z" fill="#1C3553"/>
<path fill-rule="evenodd" clip-rule="evenodd" d="M54.2001 18.15C55.2218 18.15 56.0501 18.9783 56.0501 20V24.5107C56.0501 25.5324 55.2218 26.3607 54.2001 26.3607C53.1784 26.3607 52.3501 25.5324 52.3501 24.5107V20C52.3501 18.9783 53.1784 18.15 54.2001 18.15Z" fill="#1C3553"/>
<path d="M27.0347 67.0001H28.3067V63.4121C28.3067 62.6801 28.1987 61.6361 28.1387 60.9161H28.1867L28.8107 62.7041L30.1667 66.2681H30.8027L32.1587 62.7041L32.7947 60.9161H32.8427C32.7707 61.6361 32.6627 62.6801 32.6627 63.4121V67.0001H33.9707V59.1521H32.4347L31.0547 63.0161L30.5387 64.5041H30.4907L29.9747 63.0161L28.5587 59.1521H27.0347V67.0001Z" fill="#1C3553"/>
<path d="M38.9889 67.1441C41.0289 67.1441 42.4449 65.5841 42.4449 63.0401C42.4449 60.5081 41.0289 59.0081 38.9889 59.0081C36.9369 59.0081 35.5209 60.5081 35.5209 63.0401C35.5209 65.5841 36.9369 67.1441 38.9889 67.1441ZM38.9889 65.9321C37.7529 65.9321 36.9489 64.8041 36.9489 63.0401C36.9489 61.2881 37.7529 60.2201 38.9889 60.2201C40.2129 60.2201 41.0169 61.2881 41.0169 63.0401C41.0169 64.8041 40.2129 65.9321 38.9889 65.9321Z" fill="#1C3553"/>
<path d="M43.9917 67.0001H45.3117V63.5681C45.3117 62.6921 45.2037 61.7441 45.1317 60.9161H45.1797L45.9957 62.5841L48.4317 67.0001H49.8597V59.1521H48.5397V62.5601C48.5397 63.4361 48.6477 64.4321 48.7197 65.2361H48.6717L47.8557 63.5681L45.4197 59.1521H43.9917V67.0001Z" fill="#1C3553"/>
<path d="M53.1515 63.7841L53.4275 62.8241C53.6795 61.9961 53.9075 61.1081 54.1235 60.2321H54.1715C54.3995 61.0961 54.6395 61.9961 54.8795 62.8241L55.1555 63.7841H53.1515ZM56.0795 67.0001H57.5555L54.9995 59.1521H53.3675L50.7995 67.0001H52.2275L52.8395 64.8761H55.4675L56.0795 67.0001Z" fill="#1C3553"/>
<path d="M59.5913 67.0001H60.9833V60.3281H63.2393V59.1521H57.3233V60.3281H59.5913V67.0001Z" fill="#1C3553"/>
<path d="M64.5229 67.0001H69.3589V65.8241H65.9149V63.5081H68.7349V62.3321H65.9149V60.3281H69.2389V59.1521H64.5229V67.0001Z" fill="#1C3553"/>
<path d="M29.894 52.9999H41.61V49.5489H38.159V34.5849H35.027C33.722 35.3679 32.446 35.8899 30.445 36.2669V38.9059H33.896V49.5489H29.894V52.9999Z" fill="#2988FF"/>
<path d="M44.4323 47.1709H51.5663V44.1549H44.4323V47.1709Z" fill="#2988FF"/>
<path d="M53.4522 50.7379C54.7862 52.3039 56.8742 53.3479 59.8612 53.3479C63.5732 53.3479 66.7052 51.4049 66.7052 47.9829C66.7052 45.6049 65.1682 44.0969 63.0512 43.4879V43.3719C65.0232 42.5309 66.1252 41.1969 66.1252 39.2829C66.1252 36.0639 63.5732 34.2369 59.7742 34.2369C57.5122 34.2369 55.6562 35.1359 53.9742 36.5859L56.1202 39.1959C57.2802 38.1809 58.2662 37.5719 59.5712 37.5719C61.0212 37.5719 61.8332 38.3259 61.8332 39.6019C61.8332 41.0809 60.7892 42.0669 57.4832 42.0669V45.0829C61.4852 45.0829 62.4422 46.0979 62.4422 47.7219C62.4422 49.1139 61.2532 49.8969 59.4552 49.8969C57.8892 49.8969 56.5262 49.1139 55.4242 48.0409L53.4522 50.7379Z" fill="#2988FF"/>
</svg>
