<svg width="96" height="96" viewBox="0 0 96 96" fill="none" xmlns="http://www.w3.org/2000/svg">
<path d="M76.5017 64.999C76.5017 64.199 75.8017 63.499 75.0017 63.499H22.1017C21.3017 63.499 20.6017 64.199 20.6017 64.999C20.6017 65.799 21.3017 66.499 22.1017 66.499H26.6017V76.599C26.6017 77.699 27.5017 78.599 28.6017 78.599H66.6017C67.7017 78.599 68.6017 77.699 68.6017 76.599V66.499H75.0017C75.9017 66.499 76.5017 65.799 76.5017 64.999ZM64.6017 74.599H30.6017V66.499H64.6017V74.599Z" fill="#2988FF"/>
<path d="M57.2017 57.499C57.6017 57.499 57.9017 57.199 57.9017 56.799V49.899C57.9017 49.499 57.6017 49.199 57.2017 49.199H53.4017C53.0017 49.199 52.7017 49.499 52.7017 49.899V56.799C52.7017 57.199 53.0017 57.499 53.4017 57.499H57.2017ZM54.2017 50.599H56.5017V55.999H54.2017V50.599Z" fill="#1C3553"/>
<path d="M42.2017 49.199H38.4017C38.0017 49.199 37.7017 49.499 37.7017 49.899V56.799C37.7017 57.199 38.0017 57.499 38.4017 57.499H42.2017C42.6017 57.499 42.9017 57.199 42.9017 56.799V49.899C42.9017 49.499 42.6017 49.199 42.2017 49.199ZM41.4017 55.999H39.1017V50.599H41.4017V55.999Z" fill="#1C3553"/>
<path d="M19.7017 46.599C20.0017 47.299 20.8017 48.599 22.9017 48.499C24.3017 48.499 25.8017 48.499 27.2017 48.499V58.899C27.2017 59.999 28.1017 60.899 29.2017 60.899C30.3017 60.899 31.2017 59.999 31.2017 58.899V47.999C31.2017 45.799 29.9017 44.499 27.7017 44.399C26.7017 44.399 25.7017 44.399 24.7017 44.399C27.7017 41.399 34.7017 34.499 40.2017 29.099L47.5017 22.099C49.0017 23.599 64.0017 38.399 69.7017 44.599C68.9017 44.599 68.0017 44.599 67.2017 44.599C65.0017 44.599 63.7017 45.899 63.7017 48.199V58.999C63.7017 60.099 64.6017 60.999 65.7017 60.999C66.8017 60.999 67.7017 60.099 67.7017 58.999V48.599C69.1017 48.599 70.6017 48.599 72.0017 48.599C74.1017 48.599 74.9017 47.399 75.2017 46.599C75.7017 45.299 74.9017 44.499 73.7017 43.099C68.9017 37.799 50.2017 19.299 50.0017 19.099C49.4017 18.299 48.5017 17.899 47.5017 17.999C46.6017 17.899 45.7017 18.299 44.8017 19.099L37.5017 26.399C30.9017 32.899 22.2017 41.499 20.7017 42.999C20.3017 43.399 19.0017 44.699 19.7017 46.599Z" fill="#1C3553"/>
</svg>
