<svg width="96" height="96" viewBox="0 0 96 96" fill="none" xmlns="http://www.w3.org/2000/svg">
<path d="M26 50.0378C26 49.4855 26.4477 49.0378 27 49.0378H35.7368C36.2891 49.0378 36.7368 49.4855 36.7368 50.0378V54.0629C36.7368 54.6152 36.2891 55.0629 35.7368 55.0629H27C26.4477 55.0629 26 54.6152 26 54.0629V50.0378Z" fill="#2988FF"/>
<path fill-rule="evenodd" clip-rule="evenodd" d="M39.4207 50.0376C39.4207 49.4853 39.8684 49.0376 40.4207 49.0376H49.1576C49.7098 49.0376 50.1576 49.4853 50.1576 50.0376V54.0627C50.1576 54.6149 49.7098 55.0627 49.1576 55.0627H40.4207C39.8684 55.0627 39.4207 54.6149 39.4207 54.0627V50.0376Z" fill="#2988FF"/>
<path fill-rule="evenodd" clip-rule="evenodd" d="M52.8415 50.0376C52.8415 49.4853 53.2892 49.0376 53.8415 49.0376H62.5783C63.1306 49.0376 63.5783 49.4853 63.5783 50.0376V54.0627C63.5783 54.6149 63.1306 55.0627 62.5783 55.0627H53.8415C53.2892 55.0627 52.8415 54.6149 52.8415 54.0627V50.0376Z" fill="#2988FF"/>
<path d="M66.2622 50.0376C66.2622 49.4853 66.7099 49.0376 67.2622 49.0376H75.999C76.5513 49.0376 76.999 49.4853 76.999 50.0376V54.0627C76.999 54.6149 76.5513 55.0627 75.999 55.0627H67.2622C66.7099 55.0627 66.2622 54.6149 66.2622 54.0627V50.0376Z" fill="#2988FF"/>
<path d="M26 58.9746C26 58.4223 26.4477 57.9746 27 57.9746H35.7368C36.2891 57.9746 36.7368 58.4223 36.7368 58.9746V62.9997C36.7368 63.552 36.2891 63.9997 35.7368 63.9997H27C26.4477 63.9997 26 63.552 26 62.9997V58.9746Z" fill="#2988FF"/>
<path fill-rule="evenodd" clip-rule="evenodd" d="M39.4207 58.9748C39.4207 58.4225 39.8684 57.9748 40.4207 57.9748H49.1576C49.7098 57.9748 50.1576 58.4225 50.1576 58.9748V62.9999C50.1576 63.5522 49.7098 63.9999 49.1576 63.9999H40.4207C39.8684 63.9999 39.4207 63.5522 39.4207 62.9999V58.9748Z" fill="#2988FF"/>
<path fill-rule="evenodd" clip-rule="evenodd" d="M52.8415 58.9748C52.8415 58.4225 53.2892 57.9748 53.8415 57.9748H62.5783C63.1306 57.9748 63.5783 58.4225 63.5783 58.9748V62.9999C63.5783 63.5522 63.1306 63.9999 62.5783 63.9999H53.8415C53.2892 63.9999 52.8415 63.5522 52.8415 62.9999V58.9748Z" fill="#2988FF"/>
<path d="M66.2622 58.9748C66.2622 58.4225 66.7099 57.9748 67.2622 57.9748H75.999C76.5513 57.9748 76.999 58.4225 76.999 58.9748V62.9999C76.999 63.5522 76.5513 63.9999 75.999 63.9999H67.2622C66.7099 63.9999 66.2622 63.5522 66.2622 62.9999V58.9748Z" fill="#2988FF"/>
<path d="M26 41C26 40.4477 26.4477 40 27 40H35.7368C36.2891 40 36.7368 40.4477 36.7368 41V45.0251C36.7368 45.5774 36.2891 46.0251 35.7368 46.0251H27C26.4477 46.0251 26 45.5774 26 45.0251V41Z" fill="#2988FF"/>
<path fill-rule="evenodd" clip-rule="evenodd" d="M39.4207 41C39.4207 40.4477 39.8684 40 40.4207 40H49.1576C49.7098 40 50.1576 40.4477 50.1576 41V45.0251C50.1576 45.5774 49.7098 46.0251 49.1576 46.0251H40.4207C39.8684 46.0251 39.4207 45.5774 39.4207 45.0251V41Z" fill="#2988FF"/>
<path fill-rule="evenodd" clip-rule="evenodd" d="M52.8415 41C52.8415 40.4477 53.2892 40 53.8415 40H62.5783C63.1306 40 63.5783 40.4477 63.5783 41V45.0251C63.5783 45.5774 63.1306 46.0251 62.5783 46.0251H53.8415C53.2892 46.0251 52.8415 45.5774 52.8415 45.0251V41Z" fill="#2988FF"/>
<path d="M66.2622 41C66.2622 40.4477 66.7099 40 67.2622 40H75.999C76.5513 40 76.999 40.4477 76.999 41V45.0251C76.999 45.5774 76.5513 46.0251 75.999 46.0251H67.2622C66.7099 46.0251 66.2622 45.5774 66.2622 45.0251V41Z" fill="#2988FF"/>
<path fill-rule="evenodd" clip-rule="evenodd" d="M21.6561 33.9299H81.8234V37.6299H21.6561V33.9299Z" fill="#1C3553"/>
<path fill-rule="evenodd" clip-rule="evenodd" d="M13.2 29.3598C13.2 27.8134 14.4536 26.5598 16 26.5598H21.3871V30.1598H16.8V73.1998H74.9786V68.6397H78.5786V73.9998C78.5786 75.5462 77.325 76.7998 75.7786 76.7998H16C14.4536 76.7998 13.2 75.5462 13.2 73.9998V29.3598Z" fill="#1C3553"/>
<path fill-rule="evenodd" clip-rule="evenodd" d="M19.5871 24.6198C19.5871 23.3495 20.6168 22.3198 21.8871 22.3198H80.4999C81.7702 22.3198 82.7999 23.3496 82.7999 24.6198V68.1398C82.7999 69.41 81.7702 70.4398 80.4999 70.4398H21.8871C20.6168 70.4398 19.5871 69.41 19.5871 68.1398V24.6198ZM23.1871 25.9198V66.8398H79.2V25.9198H23.1871Z" fill="#1C3553"/>
<path fill-rule="evenodd" clip-rule="evenodd" d="M70.3548 20.1499C71.3765 20.1499 72.2048 20.9782 72.2048 21.9999V26.2399C72.2048 27.2616 71.3765 28.0899 70.3548 28.0899C69.3331 28.0899 68.5048 27.2616 68.5048 26.2399V21.9999C68.5048 20.9782 69.3331 20.1499 70.3548 20.1499Z" fill="#1C3553"/>
<path fill-rule="evenodd" clip-rule="evenodd" d="M32.0322 20.1499C33.054 20.1499 33.8822 20.9782 33.8822 21.9999V26.2399C33.8822 27.2616 33.054 28.0899 32.0322 28.0899C31.0105 28.0899 30.1822 27.2616 30.1822 26.2399V21.9999C30.1822 20.9782 31.0105 20.1499 32.0322 20.1499Z" fill="#1C3553"/>
</svg>
