<svg width="96" height="96" viewBox="0 0 96 96" fill="none" xmlns="http://www.w3.org/2000/svg">
<path fill-rule="evenodd" clip-rule="evenodd" d="M15.15 23.4999C15.15 22.202 16.2021 21.1499 17.5 21.1499H78.5C79.7979 21.1499 80.85 22.202 80.85 23.4999V72.4999C80.85 73.7978 79.7979 74.8499 78.5 74.8499H17.5C16.2021 74.8499 15.15 73.7978 15.15 72.4999V23.4999ZM18.85 24.8499V71.1499H77.15V24.8499H18.85Z" fill="#1C3553"/>
<path fill-rule="evenodd" clip-rule="evenodd" d="M67.2 18.1499C68.2217 18.1499 69.05 18.9782 69.05 19.9999V24.5105C69.05 25.5323 68.2217 26.3605 67.2 26.3605C66.1783 26.3605 65.35 25.5323 65.35 24.5105V19.9999C65.35 18.9782 66.1783 18.1499 67.2 18.1499Z" fill="#1C3553"/>
<path fill-rule="evenodd" clip-rule="evenodd" d="M17 29C17 28.4477 17.4477 28 18 28L79 28C79.5523 28 80 28.4477 80 29C80 29.5523 79.5523 30 79 30L18 30C17.4477 30 17 29.5523 17 29Z" fill="#1C3553"/>
<path fill-rule="evenodd" clip-rule="evenodd" d="M28.4 18.1499C29.4217 18.1499 30.25 18.9782 30.25 19.9999V24.5105C30.25 25.5323 29.4217 26.3605 28.4 26.3605C27.3783 26.3605 26.55 25.5323 26.55 24.5105V19.9999C26.55 18.9782 27.3783 18.1499 28.4 18.1499Z" fill="#1C3553"/>
<path fill-rule="evenodd" clip-rule="evenodd" d="M41.2 18.1499C42.2217 18.1499 43.05 18.9782 43.05 19.9999V24.5105C43.05 25.5323 42.2217 26.3605 41.2 26.3605C40.1783 26.3605 39.35 25.5323 39.35 24.5105V19.9999C39.35 18.9782 40.1783 18.1499 41.2 18.1499Z" fill="#1C3553"/>
<path fill-rule="evenodd" clip-rule="evenodd" d="M54.2 18.1499C55.2217 18.1499 56.05 18.9782 56.05 19.9999V24.5105C56.05 25.5323 55.2217 26.3605 54.2 26.3605C53.1783 26.3605 52.35 25.5323 52.35 24.5105V19.9999C52.35 18.9782 53.1783 18.1499 54.2 18.1499Z" fill="#1C3553"/>
<path d="M27.0348 66.9998H28.3068V63.4118C28.3068 62.6798 28.1988 61.6358 28.1388 60.9158H28.1868L28.8108 62.7038L30.1668 66.2678H30.8028L32.1588 62.7038L32.7948 60.9158H32.8428C32.7708 61.6358 32.6628 62.6798 32.6628 63.4118V66.9998H33.9708V59.1518H32.4348L31.0548 63.0158L30.5388 64.5038H30.4908L29.9748 63.0158L28.5588 59.1518H27.0348V66.9998Z" fill="#1C3553"/>
<path d="M38.989 67.1438C41.029 67.1438 42.445 65.5838 42.445 63.0398C42.445 60.5078 41.029 59.0078 38.989 59.0078C36.937 59.0078 35.521 60.5078 35.521 63.0398C35.521 65.5838 36.937 67.1438 38.989 67.1438ZM38.989 65.9318C37.753 65.9318 36.949 64.8038 36.949 63.0398C36.949 61.2878 37.753 60.2198 38.989 60.2198C40.213 60.2198 41.017 61.2878 41.017 63.0398C41.017 64.8038 40.213 65.9318 38.989 65.9318Z" fill="#1C3553"/>
<path d="M43.9918 66.9998H45.3118V63.5678C45.3118 62.6918 45.2038 61.7438 45.1318 60.9158H45.1798L45.9958 62.5838L48.4318 66.9998H49.8598V59.1518H48.5398V62.5598C48.5398 63.4358 48.6478 64.4318 48.7198 65.2358H48.6718L47.8558 63.5678L45.4198 59.1518H43.9918V66.9998Z" fill="#1C3553"/>
<path d="M53.1517 63.7838L53.4277 62.8238C53.6797 61.9958 53.9077 61.1078 54.1237 60.2318H54.1717C54.3997 61.0958 54.6397 61.9958 54.8797 62.8238L55.1557 63.7838H53.1517ZM56.0797 66.9998H57.5557L54.9997 59.1518H53.3677L50.7997 66.9998H52.2277L52.8397 64.8758H55.4677L56.0797 66.9998Z" fill="#1C3553"/>
<path d="M59.5914 66.9998H60.9834V60.3278H63.2394V59.1518H57.3234V60.3278H59.5914V66.9998Z" fill="#1C3553"/>
<path d="M64.5231 66.9998H69.3591V65.8238H65.9151V63.5078H68.7351V62.3318H65.9151V60.3278H69.2391V59.1518H64.5231V66.9998Z" fill="#1C3553"/>
<path d="M29.8943 53.0001H41.6103V49.5491H38.1593V34.5851H35.0273C33.7223 35.3681 32.4463 35.8901 30.4453 36.2671V38.9061H33.8963V49.5491H29.8943V53.0001Z" fill="#2988FF"/>
<path d="M44.4325 47.1711H51.5665V44.1551H44.4325V47.1711Z" fill="#2988FF"/>
<path d="M53.4525 50.7381C54.7865 52.3041 56.8745 53.3481 59.8615 53.3481C63.5735 53.3481 66.7055 51.4051 66.7055 47.9831C66.7055 45.6051 65.1685 44.0971 63.0515 43.4881V43.3721C65.0235 42.5311 66.1255 41.1971 66.1255 39.2831C66.1255 36.0641 63.5735 34.2371 59.7745 34.2371C57.5125 34.2371 55.6565 35.1361 53.9745 36.5861L56.1205 39.1961C57.2805 38.1811 58.2665 37.5721 59.5715 37.5721C61.0215 37.5721 61.8335 38.3261 61.8335 39.6021C61.8335 41.0811 60.7895 42.0671 57.4835 42.0671V45.0831C61.4855 45.0831 62.4425 46.0981 62.4425 47.7221C62.4425 49.1141 61.2535 49.8971 59.4555 49.8971C57.8895 49.8971 56.5265 49.1141 55.4245 48.0411L53.4525 50.7381Z" fill="#2988FF"/>
</svg>
