<svg width="96" height="96" viewBox="0 0 96 96" fill="none" xmlns="http://www.w3.org/2000/svg">
<path fill-rule="evenodd" clip-rule="evenodd" d="M24.7251 32.3713H71.7751V70.8713H60.1021V47.446H36.3971V70.8713H24.7251V32.3713ZM28.2251 35.8713V67.3713H32.8971V43.946H63.6021V67.3713H68.2751V35.8713H28.2251Z" fill="#2988FF"/>
<path fill-rule="evenodd" clip-rule="evenodd" d="M24.9634 39C24.9634 38.5858 25.2992 38.25 25.7134 38.25H70.7134C71.1276 38.25 71.4634 38.5858 71.4634 39C71.4634 39.4142 71.1276 39.75 70.7134 39.75H25.7134C25.2992 39.75 24.9634 39.4142 24.9634 39Z" fill="#2988FF"/>
<path fill-rule="evenodd" clip-rule="evenodd" d="M20.7871 24.75C20.7871 23.7835 21.5706 23 22.5371 23H73.9631C74.9296 23 75.7131 23.7835 75.7131 24.75V33.154C75.7131 34.1205 74.9296 34.904 73.9631 34.904H22.5371C21.5706 34.904 20.7871 34.1205 20.7871 33.154V24.75ZM72.2131 26.5H24.2871V31.404H72.2131V26.5Z" fill="#2988FF"/>
<path d="M43.6981 50.5862C43.8762 50.3777 44.1514 50.279 44.4214 50.3268C45.3882 50.4978 46.7487 50.9082 47.8001 51.9231C48.8585 52.9448 49.3631 54.3544 49.3849 56.0179C49.6321 56.8376 49.958 57.2364 50.2165 57.4218C50.4721 57.6053 50.7322 57.6321 50.9697 57.577C51.5893 57.4325 52.1032 56.7024 51.9651 55.8731L51.9645 55.8696C51.8811 55.3542 51.7856 54.7757 51.5951 54.178C51.4882 53.8425 51.6212 53.4772 51.9187 53.2889C52.2162 53.1007 52.6032 53.1369 52.8606 53.3771C55.2855 55.6396 55.4962 58.6456 54.688 61.0734L54.4435 61.8078L53.9748 61.3189L53.2192 60.5845C53.5898 59.4711 53.6918 58.258 53.3852 57.0987C53.083 58.055 52.3397 58.8475 51.32 59.0848C50.6955 59.2297 49.9691 59.1496 49.314 58.6796C48.6718 58.2187 48.1775 57.4416 47.8667 56.3414C47.8474 56.2729 47.8376 56.2021 47.8376 56.131C47.8376 54.7257 47.4328 53.7201 46.7251 53.0368L45.31 52.1672C45.4304 53.3743 45.1906 54.791 44.216 56.2267L43.7812 56.8671L42.5005 55.9976L42.9352 55.3572C43.9824 53.8147 43.9083 52.367 43.5548 51.3411C43.4655 51.0818 43.52 50.7947 43.6981 50.5862Z" fill="#1C3553"/>
<path fill-rule="evenodd" clip-rule="evenodd" d="M43.1398 55.019L43.6545 56.4234C44.6389 58.76 46.8811 60.324 49.3852 60.324C51.0235 60.324 52.5626 59.6662 53.7174 58.5051L54.8887 57.3276L55.0371 58.9818C55.0531 59.1605 55.0612 59.3385 55.0612 59.517C55.0612 63.1357 51.9501 66 48.2242 66C44.4983 66 41.3872 63.1357 41.3872 59.517C41.3872 58.3868 41.6979 57.2903 42.2778 56.3253L43.1398 55.019ZM43.0467 58.5104C42.9729 58.8392 42.9352 59.1763 42.9352 59.517C42.9352 62.1943 45.2641 64.452 48.2242 64.452C50.7116 64.452 52.7533 62.8577 53.342 60.7599C52.1643 61.4778 50.8058 61.872 49.3852 61.872C46.8023 61.872 44.4739 60.5576 43.0467 58.5104Z" fill="#1C3553"/>
<path fill-rule="evenodd" clip-rule="evenodd" d="M18 69.25C18 68.2835 18.7835 67.5 19.75 67.5H76.75C77.7165 67.5 78.5 68.2835 78.5 69.25C78.5 70.2165 77.7165 71 76.75 71H19.75C18.7835 71 18 70.2165 18 69.25Z" fill="#1C3553"/>
</svg>
