<svg width="96" height="96" viewBox="0 0 96 96" fill="none" xmlns="http://www.w3.org/2000/svg">
<path d="M20.7002 56.2002H26.9002C27.7002 56.2002 28.4002 55.5002 28.4002 54.7002C28.4002 53.9002 27.7002 53.2002 26.9002 53.2002H20.7002C19.9002 53.2002 19.2002 53.9002 19.2002 54.7002C19.2002 55.5002 19.9002 56.2002 20.7002 56.2002Z" fill="#2988FF"/>
<path d="M17.5 61.7998H27C27.8 61.7998 28.5 61.0998 28.5 60.2998C28.5 59.4998 27.8 58.7998 27 58.7998H17.5C16.7 58.7998 16 59.4998 16 60.2998C16 61.0998 16.7 61.7998 17.5 61.7998Z" fill="#2988FF"/>
<path d="M28.4002 66C28.4002 65.2 27.7002 64.5 26.9002 64.5H20.7002C19.9002 64.5 19.2002 65.2 19.2002 66C19.2002 66.8 19.9002 67.5 20.7002 67.5H26.9002C27.7002 67.5 28.4002 66.9 28.4002 66Z" fill="#2988FF"/>
<path d="M44.3999 56.1998H57.7999L52.3999 61.5998C51.7999 62.1998 51.7999 63.0998 52.3999 63.6998C52.6999 63.9998 53.0999 64.0998 53.4999 64.0998C53.8999 64.0998 54.2999 63.9998 54.5999 63.6998L63.6999 54.5998L54.5999 45.4998C53.9999 44.8998 53.0999 44.8998 52.4999 45.4998C51.8999 46.0998 51.8999 46.9998 52.4999 47.5998L57.8999 52.9998H44.3999C43.5999 52.9998 42.8999 53.6998 42.8999 54.4998C42.8999 55.2998 43.5999 56.1998 44.3999 56.1998Z" fill="#2988FF"/>
<path d="M27.5999 49.5C29.0999 49.5 30.5999 49.5 32.0999 49.5V73C32.0999 75.5 33.2999 76.7 35.7999 76.7H69.1999C71.6999 76.7 72.8999 75.5 72.8999 73V49.5C74.3999 49.5 75.8999 49.5 77.3999 49.5C79.3999 49.5 80.1999 48.5 80.5999 47.6C81.0999 46.3 80.7999 45.1 79.5999 43.9C78.7999 43.2 74.1999 38.7 69.1999 33.8C62.9999 27.8 56.0999 21.1 54.9999 20C54.2999 19.3 53.3999 19 52.4999 19C51.5999 19 50.7999 19.3 49.9999 20.1C48.7999 21.2 41.4999 28.3 35.1999 34.5C30.3999 39.2 26.0999 43.3 25.3999 44C24.1999 45.1 23.8999 46.4 24.3999 47.7C24.7999 48.5 25.5999 49.5 27.5999 49.5ZM37.8999 37.3C43.8999 31.5 50.7999 24.8 52.4999 23.2C54.0999 24.8 60.5999 31 66.4999 36.7C70.1999 40.3 73.6999 43.7 75.5999 45.5C74.5999 45.5 73.4999 45.5 72.4999 45.5C70.2999 45.5 68.9999 46.8 68.9999 49.1V72.7H36.0999V49.1C36.0999 46.9 34.7999 45.6 32.5999 45.5C31.5999 45.5 30.4999 45.5 29.4999 45.5C31.2999 43.8 34.4999 40.7 37.8999 37.3Z" fill="#1C3553"/>
</svg>
