<svg width="96" height="96" viewBox="0 0 96 96" fill="none" xmlns="http://www.w3.org/2000/svg">
<path d="M20.7 56.2002H26.9C27.7 56.2002 28.4 55.5002 28.4 54.7002C28.4 53.9002 27.7 53.2002 26.9 53.2002H20.7C19.9 53.2002 19.2 53.9002 19.2 54.7002C19.2 55.5002 19.9 56.2002 20.7 56.2002Z" fill="#2988FF"/>
<path d="M17.5 61.7998H27C27.8 61.7998 28.5 61.0998 28.5 60.2998C28.5 59.4998 27.8 58.7998 27 58.7998H17.5C16.7 58.7998 16 59.4998 16 60.2998C16 61.0998 16.7 61.7998 17.5 61.7998Z" fill="#2988FF"/>
<path d="M28.4 66C28.4 65.2 27.7 64.5 26.9 64.5H20.7C19.9 64.5 19.2 65.2 19.2 66C19.2 66.8 19.9 67.5 20.7 67.5H26.9C27.7 67.5 28.4 66.9 28.4 66Z" fill="#2988FF"/>
<path d="M44.4 56.1998H57.8L52.4 61.5998C51.8 62.1998 51.8 63.0998 52.4 63.6998C52.7 63.9998 53.1 64.0998 53.5 64.0998C53.9 64.0998 54.3 63.9998 54.6 63.6998L63.7 54.5998L54.6 45.4998C54 44.8998 53.1 44.8998 52.5 45.4998C51.9 46.0998 51.9 46.9998 52.5 47.5998L57.9 52.9998H44.4C43.6 52.9998 42.9 53.6998 42.9 54.4998C42.9 55.2998 43.6 56.1998 44.4 56.1998Z" fill="#2988FF"/>
<path d="M27.6 49.5C29.1 49.5 30.6 49.5 32.1 49.5V73C32.1 75.5 33.3 76.7 35.8 76.7H69.2C71.7 76.7 72.9 75.5 72.9 73V49.5C74.4 49.5 75.9 49.5 77.4 49.5C79.4 49.5 80.2 48.5 80.6 47.6C81.1 46.3 80.8 45.1 79.6 43.9C78.8 43.2 74.2 38.7 69.2 33.8C63 27.8 56.1 21.1 55 20C54.3 19.3 53.4 19 52.5 19C51.6 19 50.8 19.3 50 20.1C48.8 21.2 41.5 28.3 35.2 34.5C30.4 39.2 26.1 43.3 25.4 44C24.2 45.1 23.9 46.4 24.4 47.7C24.8 48.5 25.6 49.5 27.6 49.5ZM37.9 37.3C43.9 31.5 50.8 24.8 52.5 23.2C54.1 24.8 60.6 31 66.5 36.7C70.2 40.3 73.7 43.7 75.6 45.5C74.6 45.5 73.5 45.5 72.5 45.5C70.3 45.5 69 46.8 69 49.1V72.7H36.1V49.1C36.1 46.9 34.8 45.6 32.6 45.5C31.6 45.5 30.5 45.5 29.5 45.5C31.3 43.8 34.5 40.7 37.9 37.3Z" fill="#1C3553"/>
</svg>
