<svg width="96" height="96" viewBox="0 0 96 96" fill="none" xmlns="http://www.w3.org/2000/svg">
<path fill-rule="evenodd" clip-rule="evenodd" d="M10.1354 27.2565C10.4339 26.4869 11.1745 25.9797 12 25.9797H54.083V29.9797H13.3694L7.92095 44.0266H10C11.1046 44.0266 12 44.9221 12 46.0266V72.1005H54.083V76.1005H10C8.89544 76.1005 8.00001 75.2051 8.00001 74.1005V48.0266H5.00001C4.34008 48.0266 3.72262 47.7011 3.34978 47.1566C2.97694 46.6121 2.89671 45.9187 3.13537 45.3034L10.1354 27.2565Z" fill="#1C3553"/>
<path fill-rule="evenodd" clip-rule="evenodd" d="M54.0834 45.7386H4.81641V43.3386H54.0834V45.7386Z" fill="#1C3553"/>
<path fill-rule="evenodd" clip-rule="evenodd" d="M90.4195 45.7385H53.8145V43.3385H90.4195V45.7385Z" fill="#2988FF"/>
<path fill-rule="evenodd" clip-rule="evenodd" d="M83.189 29.9796H53.8145V25.9796H84.5585C85.3839 25.9796 86.1246 26.4868 86.4231 27.2564L93.4231 45.3033C93.6618 45.9185 93.5815 46.6119 93.2087 47.1565C92.8358 47.701 92.2184 48.0265 91.5585 48.0265H88.5585V74.1004C88.5585 75.2049 87.663 76.1004 86.5585 76.1004H53.8145V72.1004H84.5585V46.0265C84.5585 44.922 85.4539 44.0265 86.5585 44.0265H88.6375L83.189 29.9796Z" fill="#2988FF"/>
<path fill-rule="evenodd" clip-rule="evenodd" d="M56 43.9999V74.9997H54V43.9999H56Z" fill="#2988FF"/>
<path fill-rule="evenodd" clip-rule="evenodd" d="M65.7852 61.2892C65.7852 60.7369 66.2329 60.2892 66.7852 60.2892H74.2142C74.7664 60.2892 75.2142 60.7369 75.2142 61.2892V72.9272C75.2142 73.4795 74.7664 73.9272 74.2142 73.9272H66.7852C66.2329 73.9272 65.7852 73.4795 65.7852 72.9272V61.2892ZM67.7852 62.2892V71.9272H73.2142V62.2892H67.7852Z" fill="#2988FF"/>
<path d="M72 23.1003C72 22.5481 72.4477 22.1003 73 22.1003H79C79.5523 22.1003 80 22.5481 80 23.1003V26.1003C80 26.6526 79.5523 27.1003 79 27.1003H73C72.4477 27.1003 72 26.6526 72 26.1003V23.1003Z" fill="#2988FF"/>
<path fill-rule="evenodd" clip-rule="evenodd" d="M74.9639 49.5382C74.9639 49.124 75.2997 48.7882 75.7139 48.7882H79.1419C79.5561 48.7882 79.8919 49.124 79.8919 49.5382V55.3762C79.8919 55.7904 79.5561 56.1262 79.1419 56.1262H75.7139C75.2997 56.1262 74.9639 55.7904 74.9639 55.3762V49.5382ZM76.4639 50.2882V54.6262H78.3919V50.2882H76.4639Z" fill="#2988FF"/>
<path fill-rule="evenodd" clip-rule="evenodd" d="M61.1084 49.5382C61.1084 49.124 61.4442 48.7882 61.8584 48.7882H65.2864C65.7006 48.7882 66.0364 49.124 66.0364 49.5382V55.3762C66.0364 55.7904 65.7006 56.1262 65.2864 56.1262H61.8584C61.4442 56.1262 61.1084 55.7904 61.1084 55.3762V49.5382ZM62.6084 50.2882V54.6262H64.5364V50.2882H62.6084Z" fill="#2988FF"/>
<path fill-rule="evenodd" clip-rule="evenodd" d="M54.4758 36.8827C54.8163 36.7691 55.1845 36.9531 55.298 37.2937L55.9798 39.3379L55.9827 39.3454C55.9874 39.3567 55.9962 39.3772 56.0098 39.4039C56.0376 39.4586 56.081 39.5309 56.1413 39.601C56.2554 39.7338 56.4169 39.8493 56.6814 39.8493H57.6814C58.0404 39.8493 58.3314 40.1403 58.3314 40.4993C58.3314 40.8583 58.0404 41.1493 57.6814 41.1493H56.6814C55.9459 41.1493 55.4494 40.7903 55.1556 40.4486C55.0119 40.2815 54.9137 40.1165 54.8511 39.9932C54.8194 39.9309 54.7957 39.8773 54.7792 39.8368C54.7709 39.8164 54.7643 39.7991 54.7592 39.7855L54.7529 39.7677L54.7505 39.761L54.7495 39.7581L54.7491 39.7568L54.7489 39.7562C54.7489 39.7561 54.7488 39.756 54.7811 39.7452L54.7488 39.7559L54.0648 37.7049C53.9512 37.3644 54.1352 36.9963 54.4758 36.8827Z" fill="#2988FF"/>
<path fill-rule="evenodd" clip-rule="evenodd" d="M58.8449 36.8827C59.1855 36.7691 59.5536 36.9531 59.6672 37.2937L60.3489 39.3379L60.3519 39.3454C60.3565 39.3567 60.3654 39.3772 60.3789 39.4039C60.4067 39.4586 60.4501 39.5309 60.5104 39.601C60.6246 39.7338 60.7861 39.8493 61.0506 39.8493H62.0506C62.4096 39.8493 62.7006 40.1403 62.7006 40.4993C62.7006 40.8583 62.4096 41.1493 62.0506 41.1493H61.0506C60.3151 41.1493 59.8186 40.7903 59.5247 40.4486C59.381 40.2815 59.2829 40.1165 59.2202 39.9932C59.1885 39.9309 59.1649 39.8773 59.1483 39.8368C59.14 39.8164 59.1334 39.7991 59.1284 39.7855L59.122 39.7677L59.1197 39.761L59.1187 39.7581L59.1183 39.7568L59.1181 39.7562C59.118 39.7561 59.118 39.756 59.1503 39.7452L59.118 39.7559L58.434 37.7049C58.3204 37.3644 58.5044 36.9963 58.8449 36.8827Z" fill="#2988FF"/>
<path fill-rule="evenodd" clip-rule="evenodd" d="M63.215 36.8827C63.5556 36.7691 63.9237 36.9531 64.0373 37.2937L64.719 39.3379L64.722 39.3454C64.7266 39.3567 64.7355 39.3772 64.7491 39.4039C64.7769 39.4586 64.8202 39.5309 64.8805 39.601C64.9947 39.7338 65.1562 39.8493 65.4207 39.8493H66.4207C66.7797 39.8493 67.0707 40.1403 67.0707 40.4993C67.0707 40.8583 66.7797 41.1493 66.4207 41.1493H65.4207C64.6852 41.1493 64.1887 40.7903 63.8948 40.4486C63.7511 40.2815 63.653 40.1165 63.5903 39.9932C63.5586 39.9309 63.535 39.8773 63.5184 39.8368C63.5101 39.8164 63.5035 39.7991 63.4985 39.7855L63.4921 39.7677L63.4898 39.761L63.4888 39.7581L63.4884 39.7568L63.4882 39.7562C63.4881 39.7561 63.4881 39.756 63.5204 39.7452L63.4881 39.7559L62.8041 37.7049C62.6905 37.3644 62.8745 36.9963 63.215 36.8827Z" fill="#2988FF"/>
<path fill-rule="evenodd" clip-rule="evenodd" d="M67.5852 36.8827C67.9257 36.7691 68.2938 36.9531 68.4074 37.2937L69.0891 39.3379L69.0921 39.3454C69.0967 39.3567 69.1056 39.3772 69.1192 39.4039C69.147 39.4586 69.1904 39.5309 69.2507 39.601C69.3648 39.7338 69.5263 39.8493 69.7908 39.8493H70.7908C71.1498 39.8493 71.4408 40.1403 71.4408 40.4993C71.4408 40.8583 71.1498 41.1493 70.7908 41.1493H69.7908C69.0553 41.1493 68.5588 40.7903 68.2649 40.4486C68.1212 40.2815 68.0231 40.1165 67.9604 39.9932C67.9287 39.9309 67.9051 39.8773 67.8885 39.8368C67.8802 39.8164 67.8736 39.7991 67.8686 39.7855L67.8622 39.7677L67.8599 39.761L67.8589 39.7581L67.8585 39.7568L67.8583 39.7562C67.8583 39.7561 67.8582 39.756 67.8905 39.7452L67.8582 39.7559L67.1742 37.7049C67.0606 37.3644 67.2446 36.9963 67.5852 36.8827Z" fill="#2988FF"/>
<path fill-rule="evenodd" clip-rule="evenodd" d="M71.9553 36.8827C72.2958 36.7691 72.664 36.9531 72.7775 37.2937L73.4593 39.3379L73.4622 39.3454C73.4668 39.3567 73.4757 39.3772 73.4893 39.4039C73.5171 39.4586 73.5605 39.5309 73.6208 39.601C73.7349 39.7338 73.8964 39.8493 74.1609 39.8493H75.1609C75.5199 39.8493 75.8109 40.1403 75.8109 40.4993C75.8109 40.8583 75.5199 41.1493 75.1609 41.1493H74.1609C73.4254 41.1493 72.9289 40.7903 72.6351 40.4486C72.4914 40.2815 72.3932 40.1165 72.3305 39.9932C72.2989 39.9309 72.2752 39.8773 72.2587 39.8368C72.2504 39.8164 72.2437 39.7991 72.2387 39.7855L72.2323 39.7677L72.23 39.761L72.229 39.7581L72.2286 39.7568L72.2284 39.7562C72.2284 39.7561 72.2283 39.756 72.2606 39.7452L72.2283 39.7559L71.5443 37.7049C71.4307 37.3644 71.6147 36.9963 71.9553 36.8827Z" fill="#2988FF"/>
<path fill-rule="evenodd" clip-rule="evenodd" d="M76.3254 36.8827C76.6659 36.7691 77.0341 36.9531 77.1476 37.2937L77.8294 39.3379L77.8323 39.3454C77.837 39.3567 77.8458 39.3772 77.8594 39.4039C77.8872 39.4586 77.9306 39.5309 77.9909 39.601C78.105 39.7338 78.2665 39.8493 78.531 39.8493H79.531C79.89 39.8493 80.181 40.1403 80.181 40.4993C80.181 40.8583 79.89 41.1493 79.531 41.1493H78.531C77.7955 41.1493 77.299 40.7903 77.0052 40.4486C76.8615 40.2815 76.7634 40.1165 76.7007 39.9932C76.669 39.9309 76.6454 39.8773 76.6288 39.8368C76.6205 39.8164 76.6139 39.7991 76.6088 39.7855L76.6025 39.7677L76.6001 39.761L76.5992 39.7581L76.5987 39.7568L76.5985 39.7562C76.5985 39.7561 76.5984 39.756 76.6307 39.7452L76.5984 39.7559L75.9144 37.7049C75.8009 37.3644 75.9849 36.9963 76.3254 36.8827Z" fill="#2988FF"/>
<path fill-rule="evenodd" clip-rule="evenodd" d="M80.6955 36.8827C81.0361 36.7691 81.4042 36.9531 81.5178 37.2937L82.1995 39.3379L82.2025 39.3454C82.2071 39.3567 82.216 39.3772 82.2295 39.4039C82.2573 39.4586 82.3007 39.5309 82.361 39.601C82.4751 39.7338 82.6367 39.8493 82.9012 39.8493H83.9012C84.2601 39.8493 84.5512 40.1403 84.5512 40.4993C84.5512 40.8583 84.2601 41.1493 83.9012 41.1493H82.9012C82.1656 41.1493 81.6692 40.7903 81.3753 40.4486C81.2316 40.2815 81.1335 40.1165 81.0708 39.9932C81.0391 39.9309 81.0155 39.8773 80.9989 39.8368C80.9906 39.8164 80.984 39.7991 80.979 39.7855L80.9726 39.7677L80.9702 39.761L80.9693 39.7581L80.9688 39.7568L80.9686 39.7562C80.9686 39.7561 80.9686 39.756 81.0009 39.7452L80.9685 39.7559L80.2845 37.7049C80.171 37.3644 80.355 36.9963 80.6955 36.8827Z" fill="#2988FF"/>
<path fill-rule="evenodd" clip-rule="evenodd" d="M55.8928 31.922C56.2333 31.8084 56.6015 31.9924 56.715 32.333L57.3968 34.3772L57.3997 34.3847C57.4043 34.396 57.4132 34.4166 57.4268 34.4432C57.4546 34.4979 57.498 34.5702 57.5583 34.6403C57.6724 34.7731 57.8339 34.8886 58.0984 34.8886H59.0984C59.4574 34.8886 59.7484 35.1796 59.7484 35.5386C59.7484 35.8976 59.4574 36.1886 59.0984 36.1886H58.0984C57.3629 36.1886 56.8664 35.8296 56.5726 35.4879C56.4289 35.3208 56.3307 35.1558 56.268 35.0326C56.2364 34.9703 56.2127 34.9167 56.1962 34.8761C56.1879 34.8557 56.1812 34.8384 56.1762 34.8248L56.1698 34.807L56.1675 34.8003L56.1665 34.7974L56.1661 34.7961L56.1659 34.7955C56.1659 34.7954 56.1658 34.7953 56.1981 34.7845L56.1658 34.7952L55.4818 32.7442C55.3682 32.4037 55.5522 32.0356 55.8928 31.922Z" fill="#2988FF"/>
<path fill-rule="evenodd" clip-rule="evenodd" d="M60.009 31.922C60.3495 31.8084 60.7177 31.9924 60.8312 32.333L61.513 34.3772L61.5159 34.3847C61.5206 34.396 61.5294 34.4166 61.543 34.4432C61.5708 34.4979 61.6142 34.5702 61.6745 34.6403C61.7886 34.7731 61.9501 34.8886 62.2146 34.8886H63.2146C63.5736 34.8886 63.8646 35.1796 63.8646 35.5386C63.8646 35.8976 63.5736 36.1886 63.2146 36.1886H62.2146C61.4791 36.1886 60.9826 35.8296 60.6888 35.4879C60.5451 35.3208 60.447 35.1558 60.3843 35.0326C60.3526 34.9703 60.329 34.9167 60.3124 34.8761C60.3041 34.8557 60.2975 34.8384 60.2924 34.8248L60.2861 34.807L60.2837 34.8003L60.2827 34.7974L60.2823 34.7961L60.2821 34.7955C60.2821 34.7954 60.282 34.7953 60.3143 34.7845L60.282 34.7952L59.598 32.7442C59.4844 32.4037 59.6684 32.0356 60.009 31.922Z" fill="#2988FF"/>
<path fill-rule="evenodd" clip-rule="evenodd" d="M64.1242 31.922C64.4648 31.8084 64.8329 31.9924 64.9465 32.333L65.6282 34.3772L65.6312 34.3847C65.6358 34.396 65.6447 34.4166 65.6582 34.4432C65.686 34.4979 65.7294 34.5702 65.7897 34.6403C65.9039 34.7731 66.0654 34.8886 66.3299 34.8886H67.3299C67.6888 34.8886 67.9799 35.1796 67.9799 35.5386C67.9799 35.8976 67.6888 36.1886 67.3299 36.1886H66.3299C65.5944 36.1886 65.0979 35.8296 64.804 35.4879C64.6603 35.3208 64.5622 35.1558 64.4995 35.0326C64.4678 34.9703 64.4442 34.9167 64.4276 34.8761C64.4193 34.8557 64.4127 34.8384 64.4077 34.8248L64.4013 34.807L64.3989 34.8003L64.398 34.7974L64.3976 34.7961L64.3973 34.7955C64.3973 34.7954 64.3973 34.7953 64.4296 34.7845L64.3972 34.7952L63.7132 32.7442C63.5997 32.4037 63.7837 32.0356 64.1242 31.922Z" fill="#2988FF"/>
<path fill-rule="evenodd" clip-rule="evenodd" d="M68.2404 31.922C68.581 31.8084 68.9491 31.9924 69.0627 32.333L69.7444 34.3772L69.7474 34.3847C69.752 34.396 69.7609 34.4166 69.7744 34.4432C69.8023 34.4979 69.8456 34.5702 69.9059 34.6403C70.0201 34.7731 70.1816 34.8886 70.4461 34.8886H71.4461C71.8051 34.8886 72.0961 35.1796 72.0961 35.5386C72.0961 35.8976 71.8051 36.1886 71.4461 36.1886H70.4461C69.7106 36.1886 69.2141 35.8296 68.9202 35.4879C68.7765 35.3208 68.6784 35.1558 68.6157 35.0326C68.584 34.9703 68.5604 34.9167 68.5438 34.8761C68.5355 34.8557 68.5289 34.8384 68.5239 34.8248L68.5175 34.807L68.5152 34.8003L68.5142 34.7974L68.5138 34.7961L68.5136 34.7955C68.5135 34.7954 68.5135 34.7953 68.5458 34.7845L68.5135 34.7952L67.8295 32.7442C67.7159 32.4037 67.8999 32.0356 68.2404 31.922Z" fill="#2988FF"/>
<path fill-rule="evenodd" clip-rule="evenodd" d="M72.3557 31.922C72.6962 31.8084 73.0644 31.9924 73.1779 32.333L73.8597 34.3772L73.8626 34.3847C73.8672 34.396 73.8761 34.4166 73.8897 34.4432C73.9175 34.4979 73.9609 34.5702 74.0212 34.6403C74.1353 34.7731 74.2968 34.8886 74.5613 34.8886H75.5613C75.9203 34.8886 76.2113 35.1796 76.2113 35.5386C76.2113 35.8976 75.9203 36.1886 75.5613 36.1886H74.5613C73.8258 36.1886 73.3293 35.8296 73.0355 35.4879C72.8917 35.3208 72.7936 35.1558 72.7309 35.0326C72.6993 34.9703 72.6756 34.9167 72.6591 34.8761C72.6507 34.8557 72.6441 34.8384 72.6391 34.8248L72.6327 34.807L72.6304 34.8003L72.6294 34.7974L72.629 34.7961L72.6288 34.7955C72.6288 34.7954 72.6287 34.7953 72.661 34.7845L72.6287 34.7952L71.9447 32.7442C71.8311 32.4037 72.0151 32.0356 72.3557 31.922Z" fill="#2988FF"/>
<path fill-rule="evenodd" clip-rule="evenodd" d="M76.4719 31.922C76.8124 31.8084 77.1806 31.9924 77.2941 32.333L77.9759 34.3772L77.9788 34.3847C77.9834 34.396 77.9923 34.4166 78.0059 34.4432C78.0337 34.4979 78.0771 34.5702 78.1374 34.6403C78.2515 34.7731 78.413 34.8886 78.6775 34.8886H79.6775C80.0365 34.8886 80.3275 35.1796 80.3275 35.5386C80.3275 35.8976 80.0365 36.1886 79.6775 36.1886H78.6775C77.942 36.1886 77.4455 35.8296 77.1517 35.4879C77.008 35.3208 76.9098 35.1558 76.8472 35.0326C76.8155 34.9703 76.7918 34.9167 76.7753 34.8761C76.767 34.8557 76.7604 34.8384 76.7553 34.8248L76.7489 34.807L76.7466 34.8003L76.7456 34.7974L76.7452 34.7961L76.745 34.7955C76.745 34.7954 76.7449 34.7953 76.7772 34.7845L76.7449 34.7952L76.0609 32.7442C75.9473 32.4037 76.1313 32.0356 76.4719 31.922Z" fill="#2988FF"/>
</svg>
