<svg width="96" height="96" viewBox="0 0 96 96" fill="none" xmlns="http://www.w3.org/2000/svg">
<path fill-rule="evenodd" clip-rule="evenodd" d="M27 32.5176C27 31.5511 27.7835 30.7676 28.75 30.7676H67.25C68.2165 30.7676 69 31.5511 69 32.5176V79.1416C69 80.1081 68.2165 80.8916 67.25 80.8916H28.75C27.7835 80.8916 27 80.1081 27 79.1416V32.5176ZM65.5 34.2676H30.5V77.3916H65.5V34.2676Z" fill="#2988FF"/>
<path fill-rule="evenodd" clip-rule="evenodd" d="M56.2 24.9119C55.6355 24.9119 55.178 24.4543 55.178 23.8899V16.9119C55.178 16.3474 55.6355 15.8899 56.2 15.8899C56.7644 15.8899 57.222 16.3474 57.222 16.9119V23.8899C57.222 24.4543 56.7644 24.9119 56.2 24.9119Z" fill="#2988FF"/>
<path fill-rule="evenodd" clip-rule="evenodd" d="M60.4571 21.9328C60.8476 22.3233 60.8476 22.9565 60.4571 23.347L56.25 27.5541L52.0429 23.347C51.6524 22.9565 51.6524 22.3233 52.0429 21.9328C52.4334 21.5423 53.0666 21.5423 53.4571 21.9328L56.25 24.7257L59.0429 21.9328C59.4334 21.5423 60.0666 21.5423 60.4571 21.9328Z" fill="#2988FF"/>
<path fill-rule="evenodd" clip-rule="evenodd" d="M39.8 18.8696C40.3645 18.8696 40.822 19.3272 40.822 19.8916V26.8696C40.822 27.4341 40.3645 27.8916 39.8 27.8916C39.2356 27.8916 38.778 27.4341 38.778 26.8696V19.8916C38.778 19.3272 39.2356 18.8696 39.8 18.8696Z" fill="#2988FF"/>
<path fill-rule="evenodd" clip-rule="evenodd" d="M35.5429 21.8487C35.1524 21.4582 35.1524 20.825 35.5429 20.4345L39.75 16.2274L43.9571 20.4345C44.3476 20.825 44.3476 21.4582 43.9571 21.8487C43.5666 22.2392 42.9334 22.2392 42.5429 21.8487L39.75 19.0558L36.9571 21.8487C36.5666 22.2392 35.9334 22.2392 35.5429 21.8487Z" fill="#2988FF"/>
<path fill-rule="evenodd" clip-rule="evenodd" d="M55.2341 48.2336C54.5681 46.0396 53.3041 45.4316 51.0421 45.4286H50.6691V45.4276C49.7791 45.4276 48.8891 45.4286 48.0001 45.4276C47.1101 45.4286 46.2211 45.4276 45.3311 45.4276V45.4286H44.9581C42.6961 45.4316 41.4321 46.0396 40.7661 48.2336C40.6971 48.4616 40.4611 52.3486 40.5411 53.5676V59.4166C40.5401 59.4346 40.5311 59.4496 40.5311 59.4676C40.5311 60.1425 41.0781 60.6896 41.7531 60.6896C42.4281 60.6896 42.9751 60.1425 42.9751 59.4676C42.9751 59.4496 42.9651 59.4346 42.9641 59.4166V51.2526C42.9641 49.8586 43.4941 49.4856 44.0261 49.6616V50.8906V63.7926C44.0181 64.1796 44.0131 64.5096 44.0131 64.7536C44.0131 67.1326 43.9971 69.5126 44.0201 71.8916C44.0231 72.1746 44.0751 72.4266 44.1511 72.6576C44.1521 72.6626 44.1531 72.6665 44.1551 72.6716C44.2241 72.8776 44.3151 73.0646 44.4331 73.2196C44.4821 73.2886 44.5411 73.3436 44.6001 73.4006C44.7141 73.5116 44.8391 73.6086 44.9801 73.6766C45.0051 73.6876 45.0311 73.6966 45.0571 73.7066C45.3941 73.8475 45.7891 73.8745 46.2141 73.7476C46.2621 73.7336 46.2861 73.7045 46.3301 73.6875C46.4051 73.6586 46.4721 73.6196 46.5391 73.5796C47.2181 73.2136 47.3931 72.5345 47.3931 71.7536C47.3901 68.0556 47.3921 64.3586 47.3931 60.6616V59.3226H48.6071V60.6616C48.6081 64.3586 48.6101 68.0556 48.6071 71.7536C48.6061 72.5345 48.7821 73.2136 49.4601 73.5796C49.5281 73.6196 49.5951 73.6586 49.6701 73.6875C49.7141 73.7045 49.7381 73.7336 49.7861 73.7476C50.2111 73.8745 50.6061 73.8475 50.9431 73.7066C50.9691 73.6966 50.9951 73.6876 51.0201 73.6766C51.1611 73.6086 51.2851 73.5116 51.4001 73.4006C51.4591 73.3436 51.5171 73.2886 51.5671 73.2196C51.6851 73.0646 51.7761 72.8776 51.8451 72.6716C51.8461 72.6665 51.8481 72.6626 51.8491 72.6576C51.9251 72.4266 51.9771 72.1746 51.9791 71.8916C52.0031 69.5126 51.9861 67.1326 51.9871 64.7536C51.9871 64.5096 51.9821 64.1796 51.9741 63.7926V50.8906V49.6616C52.5061 49.4856 53.0351 49.8586 53.0351 51.2526V59.4166C53.0351 59.4346 53.0251 59.4496 53.0251 59.4676C53.0251 60.1425 53.5721 60.6896 54.2471 60.6896C54.9221 60.6896 55.4691 60.1425 55.4691 59.4676C55.4691 59.4496 55.4601 59.4346 55.4591 59.4166V53.5676C55.5391 52.3486 55.3031 48.4616 55.2341 48.2336ZM50.8531 41.7276C50.8681 40.1526 49.6031 38.8486 48.0421 38.8296C46.4991 38.8106 45.1651 40.1156 45.1471 41.6636C45.1281 43.2346 46.3961 44.5226 47.9761 44.5366C49.5721 44.5496 50.8381 43.3136 50.8531 41.7276Z" fill="#1C3553"/>
<path fill-rule="evenodd" clip-rule="evenodd" d="M48 16.8074C48.5644 16.8074 49.022 17.2649 49.022 17.8294V26.8294C49.022 27.3938 48.5644 27.8514 48 27.8514C47.4356 27.8514 46.978 27.3938 46.978 26.8294V17.8294C46.978 17.2649 47.4356 16.8074 48 16.8074Z" fill="#1C3553"/>
</svg>
