<svg width="96" height="96" viewBox="0 0 96 96" fill="none" xmlns="http://www.w3.org/2000/svg">
<path fill-rule="evenodd" clip-rule="evenodd" d="M18.7772 27.7523C19.3477 27.0735 20.3821 26.2664 21.9191 26.2664H73.5311C75.068 26.2664 76.1024 27.0735 76.6729 27.7523C76.9531 28.0857 77.1443 28.4102 77.2666 28.6499C77.329 28.7722 77.377 28.8793 77.4121 28.9639C77.4298 29.0063 77.4444 29.0437 77.4563 29.075L77.4721 29.1177L77.4785 29.1356L77.4813 29.1437L77.4826 29.1475C77.4828 29.1479 77.4835 29.1501 77.3683 29.1902L77.4836 29.1503L82.8702 44.7358C83.1026 45.4082 82.9955 46.1515 82.5826 46.731C82.1698 47.3104 81.5023 47.6545 80.7909 47.6545H78.5029V72.3619C78.5029 73.5769 77.5179 74.5619 76.3029 74.5619H19.1472C17.9322 74.5619 16.9472 73.5769 16.9472 72.3619V47.6545H14.6592C13.9478 47.6545 13.2803 47.3104 12.8675 46.731C12.4546 46.1515 12.3475 45.4082 12.5799 44.7358L17.9665 29.1503L18.0821 29.1903C17.9666 29.1501 17.9664 29.1507 17.9665 29.1503L17.9675 29.1475L17.9688 29.1437L17.9716 29.1356L17.978 29.1177L17.9938 29.075C18.0057 29.0437 18.0203 29.0063 18.038 28.9639C18.0732 28.8793 18.1211 28.7722 18.1835 28.6499C18.3058 28.4102 18.497 28.0857 18.7772 27.7523ZM17.7473 43.2545H19.1472C20.3623 43.2545 21.3472 44.2394 21.3472 45.4545V70.1619H74.1029V45.4545C74.1029 44.2394 75.0878 43.2545 76.3029 43.2545H77.7028L73.3522 30.6664H22.0979L17.7473 43.2545Z" fill="#1C3553"/>
<path d="M62.6 23C62.6 22.4477 63.0477 22 63.6 22H67.6C68.1523 22 68.6 22.4477 68.6 23V29C68.6 29.5523 68.1523 30 67.6 30H63.6C63.0477 30 62.6 29.5523 62.6 29V23Z" fill="#2988FF"/>
<path fill-rule="evenodd" clip-rule="evenodd" d="M44.7931 28.4664C44.7931 27.2513 45.7781 26.2664 46.9931 26.2664H73.5309C75.0679 26.2664 76.1023 27.0735 76.6727 27.7523C76.9529 28.0857 77.1442 28.4102 77.2665 28.6499C77.3289 28.7722 77.3768 28.8793 77.412 28.9639C77.4296 29.0063 77.4443 29.0437 77.4561 29.075L77.4719 29.1177L77.4783 29.1356L77.4812 29.1437L77.4825 29.1475C77.4826 29.1479 77.4834 29.1501 77.3683 29.1901L77.4835 29.1503L82.87 44.7358C83.1024 45.4082 82.9953 46.1515 82.5825 46.731C82.1697 47.3104 81.5022 47.6545 80.7907 47.6545H78.5027V72.3619C78.5027 73.5769 77.5177 74.5619 76.3027 74.5619H46.9931C45.7781 74.5619 44.7931 73.5769 44.7931 72.3619V28.4664ZM77.7027 43.2545L73.352 30.6664H49.1931V70.1619H74.1027V45.4545C74.1027 44.2394 75.0877 43.2545 76.3027 43.2545H77.7027Z" fill="#2988FF"/>
<path fill-rule="evenodd" clip-rule="evenodd" d="M53.3887 46.6016C53.3887 46.0493 53.8364 45.6016 54.3887 45.6016H58.2258C58.7781 45.6016 59.2258 46.0493 59.2258 46.6016V54.2234C59.2258 54.7756 58.7781 55.2234 58.2258 55.2234H54.3887C53.8364 55.2234 53.3887 54.7756 53.3887 54.2234V46.6016ZM55.3887 47.6016V53.2234H57.2258V47.6016H55.3887Z" fill="#2988FF"/>
<path fill-rule="evenodd" clip-rule="evenodd" d="M64.2671 46.6016C64.2671 46.0493 64.7148 45.6016 65.2671 45.6016H69.1042C69.6565 45.6016 70.1042 46.0493 70.1042 46.6016V54.2234C70.1042 54.7756 69.6565 55.2234 69.1042 55.2234H65.2671C64.7148 55.2234 64.2671 54.7756 64.2671 54.2234V46.6016ZM66.2671 47.6016V53.2234H68.1042V47.6016H66.2671Z" fill="#2988FF"/>
</svg>
