<svg width="96" height="96" viewBox="0 0 96 96" fill="none" xmlns="http://www.w3.org/2000/svg">
<path fill-rule="evenodd" clip-rule="evenodd" d="M18.7775 27.7523C19.3479 27.0735 20.3823 26.2664 21.9193 26.2664H73.5313C75.0683 26.2664 76.1027 27.0735 76.6731 27.7523C76.9533 28.0857 77.1446 28.4102 77.2669 28.6499C77.3293 28.7722 77.3772 28.8793 77.4124 28.9639C77.43 29.0063 77.4447 29.0437 77.4565 29.075L77.4723 29.1177L77.4787 29.1356L77.4816 29.1437L77.4829 29.1475C77.483 29.1479 77.4838 29.1501 77.3686 29.1902L77.4838 29.1503L82.8704 44.7358C83.1028 45.4082 82.9957 46.1515 82.5829 46.731C82.1701 47.3104 81.5026 47.6545 80.7911 47.6545H78.5031V72.3619C78.5031 73.5769 77.5181 74.5619 76.3031 74.5619H19.1475C17.9325 74.5619 16.9475 73.5769 16.9475 72.3619V47.6545H14.6595C13.948 47.6545 13.2805 47.3104 12.8677 46.731C12.4549 46.1515 12.3478 45.4082 12.5802 44.7358L17.9667 29.1503L18.0824 29.1903C17.9668 29.1501 17.9666 29.1507 17.9667 29.1503L17.9677 29.1475L17.969 29.1437L17.9719 29.1356L17.9783 29.1177L17.9941 29.075C18.0059 29.0437 18.0206 29.0063 18.0382 28.9639C18.0734 28.8793 18.1213 28.7722 18.1837 28.6499C18.306 28.4102 18.4973 28.0857 18.7775 27.7523ZM17.7475 43.2545H19.1475C20.3625 43.2545 21.3475 44.2394 21.3475 45.4545V70.1619H74.1031V45.4545C74.1031 44.2394 75.0881 43.2545 76.3031 43.2545H77.7031L73.3524 30.6664H22.0982L17.7475 43.2545Z" fill="#1C3553"/>
<path d="M62.5996 23C62.5996 22.4477 63.0473 22 63.5996 22H67.5996C68.1519 22 68.5996 22.4477 68.5996 23V29C68.5996 29.5523 68.1519 30 67.5996 30H63.5996C63.0473 30 62.5996 29.5523 62.5996 29V23Z" fill="#2988FF"/>
<path fill-rule="evenodd" clip-rule="evenodd" d="M44.793 28.4664C44.793 27.2513 45.7779 26.2664 46.993 26.2664H73.5308C75.0678 26.2664 76.1021 27.0735 76.6726 27.7523C76.9528 28.0857 77.144 28.4102 77.2663 28.6499C77.3287 28.7722 77.3767 28.8793 77.4118 28.9639C77.4295 29.0063 77.4442 29.0437 77.456 29.075L77.4718 29.1177L77.4782 29.1356L77.481 29.1437L77.4824 29.1475C77.4825 29.1479 77.4832 29.1501 77.3681 29.1901L77.4833 29.1503L82.8699 44.7358C83.1023 45.4082 82.9952 46.1515 82.5824 46.731C82.1696 47.3104 81.502 47.6545 80.7906 47.6545H78.5026V72.3619C78.5026 73.5769 77.5176 74.5619 76.3026 74.5619H46.993C45.7779 74.5619 44.793 73.5769 44.793 72.3619V28.4664ZM77.7025 43.2545L73.3519 30.6664H49.193V70.1619H74.1026V45.4545C74.1026 44.2394 75.0876 43.2545 76.3026 43.2545H77.7025Z" fill="#2988FF"/>
<path fill-rule="evenodd" clip-rule="evenodd" d="M53.3887 46.6016C53.3887 46.0493 53.8364 45.6016 54.3887 45.6016H58.2258C58.7781 45.6016 59.2258 46.0493 59.2258 46.6016V54.2234C59.2258 54.7756 58.7781 55.2234 58.2258 55.2234H54.3887C53.8364 55.2234 53.3887 54.7756 53.3887 54.2234V46.6016ZM55.3887 47.6016V53.2234H57.2258V47.6016H55.3887Z" fill="#2988FF"/>
<path fill-rule="evenodd" clip-rule="evenodd" d="M64.2671 46.6016C64.2671 46.0493 64.7148 45.6016 65.2671 45.6016H69.1042C69.6565 45.6016 70.1042 46.0493 70.1042 46.6016V54.2234C70.1042 54.7756 69.6565 55.2234 69.1042 55.2234H65.2671C64.7148 55.2234 64.2671 54.7756 64.2671 54.2234V46.6016ZM66.2671 47.6016V53.2234H68.1042V47.6016H66.2671Z" fill="#2988FF"/>
</svg>
