<svg width="96" height="96" viewBox="0 0 96 96" fill="none" xmlns="http://www.w3.org/2000/svg">
<path fill-rule="evenodd" clip-rule="evenodd" d="M10.1354 27.2565C10.4339 26.4869 11.1745 25.9797 12 25.9797H54.083V29.9797H13.3694L7.92095 44.0266H10C11.1046 44.0266 12 44.9221 12 46.0266V72.1005H54.083V76.1005H10C8.89544 76.1005 8.00001 75.2051 8.00001 74.1005V48.0266H5.00001C4.34008 48.0266 3.72262 47.7011 3.34978 47.1566C2.97694 46.6121 2.89671 45.9187 3.13537 45.3034L10.1354 27.2565Z" fill="#1C3553"/>
<path fill-rule="evenodd" clip-rule="evenodd" d="M54.0829 45.7386H4.81592V43.3386H54.0829V45.7386Z" fill="#1C3553"/>
<path fill-rule="evenodd" clip-rule="evenodd" d="M90.4195 45.7385H53.8145V43.3385H90.4195V45.7385Z" fill="#2988FF"/>
<path fill-rule="evenodd" clip-rule="evenodd" d="M83.189 29.9796H53.8145V25.9796H84.5585C85.3839 25.9796 86.1246 26.4868 86.4231 27.2564L93.4231 45.3033C93.6618 45.9185 93.5815 46.6119 93.2087 47.1565C92.8358 47.701 92.2184 48.0265 91.5585 48.0265H88.5585V74.1004C88.5585 75.2049 87.663 76.1004 86.5585 76.1004H53.8145V72.1004H84.5585V46.0265C84.5585 44.922 85.4539 44.0265 86.5585 44.0265H88.6375L83.189 29.9796Z" fill="#2988FF"/>
<path fill-rule="evenodd" clip-rule="evenodd" d="M56 43.9999V74.9997H54V43.9999H56Z" fill="#2988FF"/>
<path fill-rule="evenodd" clip-rule="evenodd" d="M65.7852 61.2892C65.7852 60.7369 66.2329 60.2892 66.7852 60.2892H74.2142C74.7664 60.2892 75.2142 60.7369 75.2142 61.2892V72.9272C75.2142 73.4795 74.7664 73.9272 74.2142 73.9272H66.7852C66.2329 73.9272 65.7852 73.4795 65.7852 72.9272V61.2892ZM67.7852 62.2892V71.9272H73.2142V62.2892H67.7852Z" fill="#2988FF"/>
<path d="M72 23.1003C72 22.5481 72.4477 22.1003 73 22.1003H79C79.5523 22.1003 80 22.5481 80 23.1003V26.1003C80 26.6526 79.5523 27.1003 79 27.1003H73C72.4477 27.1003 72 26.6526 72 26.1003V23.1003Z" fill="#2988FF"/>
<path fill-rule="evenodd" clip-rule="evenodd" d="M74.9644 49.5382C74.9644 49.124 75.3001 48.7882 75.7144 48.7882H79.1424C79.5566 48.7882 79.8924 49.124 79.8924 49.5382V55.3762C79.8924 55.7904 79.5566 56.1262 79.1424 56.1262H75.7144C75.3001 56.1262 74.9644 55.7904 74.9644 55.3762V49.5382ZM76.4644 50.2882V54.6262H78.3924V50.2882H76.4644Z" fill="#2988FF"/>
<path fill-rule="evenodd" clip-rule="evenodd" d="M61.1079 49.5382C61.1079 49.124 61.4437 48.7882 61.8579 48.7882H65.2859C65.7001 48.7882 66.0359 49.124 66.0359 49.5382V55.3762C66.0359 55.7904 65.7001 56.1262 65.2859 56.1262H61.8579C61.4437 56.1262 61.1079 55.7904 61.1079 55.3762V49.5382ZM62.6079 50.2882V54.6262H64.5359V50.2882H62.6079Z" fill="#2988FF"/>
<path fill-rule="evenodd" clip-rule="evenodd" d="M54.4753 36.8827C54.8158 36.7691 55.184 36.9531 55.2976 37.2937L55.9793 39.3379L55.9823 39.3454C55.9869 39.3567 55.9957 39.3772 56.0093 39.4039C56.0371 39.4586 56.0805 39.5309 56.1408 39.601C56.2549 39.7338 56.4164 39.8493 56.6809 39.8493H57.6809C58.0399 39.8493 58.3309 40.1403 58.3309 40.4993C58.3309 40.8583 58.0399 41.1493 57.6809 41.1493H56.6809C55.9454 41.1493 55.4489 40.7903 55.1551 40.4486C55.0114 40.2815 54.9133 40.1165 54.8506 39.9932C54.8189 39.9309 54.7953 39.8773 54.7787 39.8368C54.7704 39.8164 54.7638 39.7991 54.7587 39.7855L54.7524 39.7677L54.75 39.761L54.7491 39.7581L54.7486 39.7568L54.7484 39.7562C54.7484 39.7561 54.7484 39.756 54.7806 39.7452L54.7483 39.7559L54.0643 37.7049C53.9508 37.3644 54.1348 36.9963 54.4753 36.8827Z" fill="#2988FF"/>
<path fill-rule="evenodd" clip-rule="evenodd" d="M58.8454 36.8827C59.186 36.7691 59.5541 36.9531 59.6677 37.2937L60.3494 39.3379L60.3524 39.3454C60.357 39.3567 60.3659 39.3772 60.3794 39.4039C60.4072 39.4586 60.4506 39.5309 60.5109 39.601C60.6251 39.7338 60.7866 39.8493 61.0511 39.8493H62.0511C62.41 39.8493 62.7011 40.1403 62.7011 40.4993C62.7011 40.8583 62.41 41.1493 62.0511 41.1493H61.0511C60.3155 41.1493 59.8191 40.7903 59.5252 40.4486C59.3815 40.2815 59.2834 40.1165 59.2207 39.9932C59.189 39.9309 59.1654 39.8773 59.1488 39.8368C59.1405 39.8164 59.1339 39.7991 59.1289 39.7855L59.1225 39.7677L59.1201 39.761L59.1192 39.7581L59.1187 39.7568L59.1185 39.7562C59.1185 39.7561 59.1185 39.756 59.1508 39.7452L59.1184 39.7559L58.4344 37.7049C58.3209 37.3644 58.5049 36.9963 58.8454 36.8827Z" fill="#2988FF"/>
<path fill-rule="evenodd" clip-rule="evenodd" d="M63.2155 36.8827C63.5561 36.7691 63.9242 36.9531 64.0378 37.2937L64.7195 39.3379L64.7225 39.3454C64.7271 39.3567 64.736 39.3772 64.7495 39.4039C64.7774 39.4586 64.8207 39.5309 64.881 39.601C64.9952 39.7338 65.1567 39.8493 65.4212 39.8493H66.4212C66.7802 39.8493 67.0712 40.1403 67.0712 40.4993C67.0712 40.8583 66.7802 41.1493 66.4212 41.1493H65.4212C64.6857 41.1493 64.1892 40.7903 63.8953 40.4486C63.7516 40.2815 63.6535 40.1165 63.5908 39.9932C63.5591 39.9309 63.5355 39.8773 63.5189 39.8368C63.5106 39.8164 63.504 39.7991 63.499 39.7855L63.4926 39.7677L63.4903 39.761L63.4893 39.7581L63.4889 39.7568L63.4887 39.7562C63.4886 39.7561 63.4886 39.756 63.5209 39.7452L63.4886 39.7559L62.8046 37.7049C62.691 37.3644 62.875 36.9963 63.2155 36.8827Z" fill="#2988FF"/>
<path fill-rule="evenodd" clip-rule="evenodd" d="M67.5857 36.8827C67.9262 36.7691 68.2943 36.9531 68.4079 37.2937L69.0896 39.3379L69.0926 39.3454C69.0972 39.3567 69.1061 39.3772 69.1197 39.4039C69.1475 39.4586 69.1908 39.5309 69.2511 39.601C69.3653 39.7338 69.5268 39.8493 69.7913 39.8493H70.7913C71.1503 39.8493 71.4413 40.1403 71.4413 40.4993C71.4413 40.8583 71.1503 41.1493 70.7913 41.1493H69.7913C69.0558 41.1493 68.5593 40.7903 68.2654 40.4486C68.1217 40.2815 68.0236 40.1165 67.9609 39.9932C67.9292 39.9309 67.9056 39.8773 67.889 39.8368C67.8807 39.8164 67.8741 39.7991 67.8691 39.7855L67.8627 39.7677L67.8604 39.761L67.8594 39.7581L67.859 39.7568L67.8588 39.7562C67.8587 39.7561 67.8587 39.756 67.891 39.7452L67.8587 39.7559L67.1747 37.7049C67.0611 37.3644 67.2451 36.9963 67.5857 36.8827Z" fill="#2988FF"/>
<path fill-rule="evenodd" clip-rule="evenodd" d="M71.9558 36.8827C72.2963 36.7691 72.6644 36.9531 72.778 37.2937L73.4598 39.3379L73.4627 39.3454C73.4673 39.3567 73.4762 39.3772 73.4898 39.4039C73.5176 39.4586 73.561 39.5309 73.6213 39.601C73.7354 39.7338 73.8969 39.8493 74.1614 39.8493H75.1614C75.5204 39.8493 75.8114 40.1403 75.8114 40.4993C75.8114 40.8583 75.5204 41.1493 75.1614 41.1493H74.1614C73.4259 41.1493 72.9294 40.7903 72.6356 40.4486C72.4918 40.2815 72.3937 40.1165 72.331 39.9932C72.2993 39.9309 72.2757 39.8773 72.2592 39.8368C72.2508 39.8164 72.2442 39.7991 72.2392 39.7855L72.2328 39.7677L72.2305 39.761L72.2295 39.7581L72.2291 39.7568L72.2289 39.7562C72.2289 39.7561 72.2288 39.756 72.2611 39.7452L72.2288 39.7559L71.5448 37.7049C71.4312 37.3644 71.6152 36.9963 71.9558 36.8827Z" fill="#2988FF"/>
<path fill-rule="evenodd" clip-rule="evenodd" d="M76.3259 36.8827C76.6664 36.7691 77.0346 36.9531 77.1481 37.2937L77.8299 39.3379L77.8328 39.3454C77.8375 39.3567 77.8463 39.3772 77.8599 39.4039C77.8877 39.4586 77.9311 39.5309 77.9914 39.601C78.1055 39.7338 78.267 39.8493 78.5315 39.8493H79.5315C79.8905 39.8493 80.1815 40.1403 80.1815 40.4993C80.1815 40.8583 79.8905 41.1493 79.5315 41.1493H78.5315C77.796 41.1493 77.2995 40.7903 77.0057 40.4486C76.862 40.2815 76.7638 40.1165 76.7012 39.9932C76.6695 39.9309 76.6458 39.8773 76.6293 39.8368C76.621 39.8164 76.6144 39.7991 76.6093 39.7855L76.6029 39.7677L76.6006 39.761L76.5996 39.7581L76.5992 39.7568L76.599 39.7562C76.599 39.7561 76.5989 39.756 76.6312 39.7452L76.5989 39.7559L75.9149 37.7049C75.8013 37.3644 75.9853 36.9963 76.3259 36.8827Z" fill="#2988FF"/>
<path fill-rule="evenodd" clip-rule="evenodd" d="M80.6955 36.8827C81.0361 36.7691 81.4042 36.9531 81.5178 37.2937L82.1995 39.3379L82.2025 39.3454C82.2071 39.3567 82.216 39.3772 82.2295 39.4039C82.2573 39.4586 82.3007 39.5309 82.361 39.601C82.4751 39.7338 82.6367 39.8493 82.9012 39.8493H83.9012C84.2601 39.8493 84.5512 40.1403 84.5512 40.4993C84.5512 40.8583 84.2601 41.1493 83.9012 41.1493H82.9012C82.1656 41.1493 81.6692 40.7903 81.3753 40.4486C81.2316 40.2815 81.1335 40.1165 81.0708 39.9932C81.0391 39.9309 81.0155 39.8773 80.9989 39.8368C80.9906 39.8164 80.984 39.7991 80.979 39.7855L80.9726 39.7677L80.9702 39.761L80.9693 39.7581L80.9688 39.7568L80.9686 39.7562C80.9686 39.7561 80.9686 39.756 81.0009 39.7452L80.9685 39.7559L80.2845 37.7049C80.171 37.3644 80.355 36.9963 80.6955 36.8827Z" fill="#2988FF"/>
<path fill-rule="evenodd" clip-rule="evenodd" d="M55.8928 31.922C56.2333 31.8084 56.6015 31.9924 56.715 32.333L57.3968 34.3772L57.3997 34.3847C57.4043 34.396 57.4132 34.4166 57.4268 34.4432C57.4546 34.4979 57.498 34.5702 57.5583 34.6403C57.6724 34.7731 57.8339 34.8886 58.0984 34.8886H59.0984C59.4574 34.8886 59.7484 35.1796 59.7484 35.5386C59.7484 35.8976 59.4574 36.1886 59.0984 36.1886H58.0984C57.3629 36.1886 56.8664 35.8296 56.5726 35.4879C56.4289 35.3208 56.3307 35.1558 56.268 35.0326C56.2364 34.9703 56.2127 34.9167 56.1962 34.8761C56.1879 34.8557 56.1812 34.8384 56.1762 34.8248L56.1698 34.807L56.1675 34.8003L56.1665 34.7974L56.1661 34.7961L56.1659 34.7955C56.1659 34.7954 56.1658 34.7953 56.1981 34.7845L56.1658 34.7952L55.4818 32.7442C55.3682 32.4037 55.5522 32.0356 55.8928 31.922Z" fill="#2988FF"/>
<path fill-rule="evenodd" clip-rule="evenodd" d="M60.0085 31.922C60.349 31.8084 60.7172 31.9924 60.8308 32.333L61.5125 34.3772L61.5155 34.3847C61.5201 34.396 61.5289 34.4166 61.5425 34.4432C61.5703 34.4979 61.6137 34.5702 61.674 34.6403C61.7881 34.7731 61.9497 34.8886 62.2141 34.8886H63.2141C63.5731 34.8886 63.8641 35.1796 63.8641 35.5386C63.8641 35.8976 63.5731 36.1886 63.2141 36.1886H62.2141C61.4786 36.1886 60.9821 35.8296 60.6883 35.4879C60.5446 35.3208 60.4465 35.1558 60.3838 35.0326C60.3521 34.9703 60.3285 34.9167 60.3119 34.8761C60.3036 34.8557 60.297 34.8384 60.2919 34.8248L60.2856 34.807L60.2832 34.8003L60.2823 34.7974L60.2818 34.7961L60.2816 34.7955C60.2816 34.7954 60.2816 34.7953 60.3138 34.7845L60.2815 34.7952L59.5975 32.7442C59.484 32.4037 59.668 32.0356 60.0085 31.922Z" fill="#2988FF"/>
<path fill-rule="evenodd" clip-rule="evenodd" d="M64.1242 31.922C64.4648 31.8084 64.8329 31.9924 64.9465 32.333L65.6282 34.3772L65.6312 34.3847C65.6358 34.396 65.6447 34.4166 65.6582 34.4432C65.686 34.4979 65.7294 34.5702 65.7897 34.6403C65.9039 34.7731 66.0654 34.8886 66.3299 34.8886H67.3299C67.6888 34.8886 67.9799 35.1796 67.9799 35.5386C67.9799 35.8976 67.6888 36.1886 67.3299 36.1886H66.3299C65.5944 36.1886 65.0979 35.8296 64.804 35.4879C64.6603 35.3208 64.5622 35.1558 64.4995 35.0326C64.4678 34.9703 64.4442 34.9167 64.4276 34.8761C64.4193 34.8557 64.4127 34.8384 64.4077 34.8248L64.4013 34.807L64.3989 34.8003L64.398 34.7974L64.3976 34.7961L64.3973 34.7955C64.3973 34.7954 64.3973 34.7953 64.4296 34.7845L64.3972 34.7952L63.7132 32.7442C63.5997 32.4037 63.7837 32.0356 64.1242 31.922Z" fill="#2988FF"/>
<path fill-rule="evenodd" clip-rule="evenodd" d="M68.2404 31.922C68.581 31.8084 68.9491 31.9924 69.0627 32.333L69.7444 34.3772L69.7474 34.3847C69.752 34.396 69.7609 34.4166 69.7744 34.4432C69.8023 34.4979 69.8456 34.5702 69.9059 34.6403C70.0201 34.7731 70.1816 34.8886 70.4461 34.8886H71.4461C71.8051 34.8886 72.0961 35.1796 72.0961 35.5386C72.0961 35.8976 71.8051 36.1886 71.4461 36.1886H70.4461C69.7106 36.1886 69.2141 35.8296 68.9202 35.4879C68.7765 35.3208 68.6784 35.1558 68.6157 35.0326C68.584 34.9703 68.5604 34.9167 68.5438 34.8761C68.5355 34.8557 68.5289 34.8384 68.5239 34.8248L68.5175 34.807L68.5152 34.8003L68.5142 34.7974L68.5138 34.7961L68.5136 34.7955C68.5135 34.7954 68.5135 34.7953 68.5458 34.7845L68.5135 34.7952L67.8295 32.7442C67.7159 32.4037 67.8999 32.0356 68.2404 31.922Z" fill="#2988FF"/>
<path fill-rule="evenodd" clip-rule="evenodd" d="M72.3562 31.922C72.6967 31.8084 73.0648 31.9924 73.1784 32.333L73.8601 34.3772L73.8631 34.3847C73.8677 34.396 73.8766 34.4166 73.8902 34.4432C73.918 34.4979 73.9614 34.5702 74.0217 34.6403C74.1358 34.7731 74.2973 34.8886 74.5618 34.8886H75.5618C75.9208 34.8886 76.2118 35.1796 76.2118 35.5386C76.2118 35.8976 75.9208 36.1886 75.5618 36.1886H74.5618C73.8263 36.1886 73.3298 35.8296 73.0359 35.4879C72.8922 35.3208 72.7941 35.1558 72.7314 35.0326C72.6997 34.9703 72.6761 34.9167 72.6595 34.8761C72.6512 34.8557 72.6446 34.8384 72.6396 34.8248L72.6332 34.807L72.6309 34.8003L72.6299 34.7974L72.6295 34.7961L72.6293 34.7955C72.6292 34.7954 72.6292 34.7953 72.6615 34.7845L72.6292 34.7952L71.9452 32.7442C71.8316 32.4037 72.0156 32.0356 72.3562 31.922Z" fill="#2988FF"/>
<path fill-rule="evenodd" clip-rule="evenodd" d="M76.4719 31.922C76.8124 31.8084 77.1806 31.9924 77.2941 32.333L77.9759 34.3772L77.9788 34.3847C77.9834 34.396 77.9923 34.4166 78.0059 34.4432C78.0337 34.4979 78.0771 34.5702 78.1374 34.6403C78.2515 34.7731 78.413 34.8886 78.6775 34.8886H79.6775C80.0365 34.8886 80.3275 35.1796 80.3275 35.5386C80.3275 35.8976 80.0365 36.1886 79.6775 36.1886H78.6775C77.942 36.1886 77.4455 35.8296 77.1517 35.4879C77.008 35.3208 76.9098 35.1558 76.8472 35.0326C76.8155 34.9703 76.7918 34.9167 76.7753 34.8761C76.767 34.8557 76.7604 34.8384 76.7553 34.8248L76.7489 34.807L76.7466 34.8003L76.7456 34.7974L76.7452 34.7961L76.745 34.7955C76.745 34.7954 76.7449 34.7953 76.7772 34.7845L76.7449 34.7952L76.0609 32.7442C75.9473 32.4037 76.1313 32.0356 76.4719 31.922Z" fill="#2988FF"/>
</svg>
