<svg width="96" height="96" viewBox="0 0 96 96" fill="none" xmlns="http://www.w3.org/2000/svg">
<path fill-rule="evenodd" clip-rule="evenodd" d="M27 32.5176C27 31.5511 27.7835 30.7676 28.75 30.7676H67.25C68.2165 30.7676 69 31.5511 69 32.5176V79.1416C69 80.1081 68.2165 80.8916 67.25 80.8916H28.75C27.7835 80.8916 27 80.1081 27 79.1416V32.5176ZM65.5 34.2676H30.5V77.3916H65.5V34.2676Z" fill="#2988FF"/>
<path fill-rule="evenodd" clip-rule="evenodd" d="M56.2002 24.9119C55.6357 24.9119 55.1782 24.4543 55.1782 23.8899V16.9119C55.1782 16.3474 55.6357 15.8899 56.2002 15.8899C56.7646 15.8899 57.2222 16.3474 57.2222 16.9119V23.8899C57.2222 24.4543 56.7646 24.9119 56.2002 24.9119Z" fill="#2988FF"/>
<path fill-rule="evenodd" clip-rule="evenodd" d="M60.4571 21.9328C60.8476 22.3233 60.8476 22.9565 60.4571 23.347L56.25 27.5541L52.0429 23.347C51.6524 22.9565 51.6524 22.3233 52.0429 21.9328C52.4334 21.5423 53.0666 21.5423 53.4571 21.9328L56.25 24.7257L59.0429 21.9328C59.4334 21.5423 60.0666 21.5423 60.4571 21.9328Z" fill="#2988FF"/>
<path fill-rule="evenodd" clip-rule="evenodd" d="M39.7998 18.8694C40.3643 18.8694 40.8218 19.3269 40.8218 19.8914V26.8694C40.8218 27.4338 40.3643 27.8914 39.7998 27.8914C39.2354 27.8914 38.7778 27.4338 38.7778 26.8694V19.8914C38.7778 19.3269 39.2354 18.8694 39.7998 18.8694Z" fill="#2988FF"/>
<path fill-rule="evenodd" clip-rule="evenodd" d="M35.5429 21.8485C35.1524 21.4579 35.1524 20.8248 35.5429 20.4343L39.75 16.2271L43.9571 20.4343C44.3476 20.8248 44.3476 21.4579 43.9571 21.8485C43.5666 22.239 42.9334 22.239 42.5429 21.8485L39.75 19.0556L36.9571 21.8485C36.5666 22.239 35.9334 22.239 35.5429 21.8485Z" fill="#2988FF"/>
<path fill-rule="evenodd" clip-rule="evenodd" d="M55.2343 48.2336C54.5682 46.0396 53.3042 45.4316 51.0422 45.4286H50.6692V45.4276C49.7792 45.4276 48.8892 45.4286 48.0002 45.4276C47.1102 45.4286 46.2212 45.4276 45.3312 45.4276V45.4286H44.9583C42.6962 45.4316 41.4322 46.0396 40.7662 48.2336C40.6972 48.4616 40.4612 52.3486 40.5412 53.5676V59.4166C40.5402 59.4346 40.5312 59.4496 40.5312 59.4676C40.5312 60.1425 41.0782 60.6896 41.7532 60.6896C42.4282 60.6896 42.9752 60.1425 42.9752 59.4676C42.9752 59.4496 42.9652 59.4346 42.9642 59.4166V51.2526C42.9642 49.8586 43.4942 49.4856 44.0262 49.6616V50.8906V63.7926C44.0182 64.1796 44.0132 64.5096 44.0132 64.7536C44.0132 67.1326 43.9972 69.5126 44.0202 71.8916C44.0232 72.1746 44.0752 72.4266 44.1512 72.6576C44.1522 72.6626 44.1532 72.6665 44.1552 72.6716C44.2242 72.8776 44.3152 73.0646 44.4332 73.2196C44.4822 73.2886 44.5412 73.3436 44.6002 73.4006C44.7142 73.5116 44.8393 73.6086 44.9802 73.6766C45.0052 73.6876 45.0312 73.6966 45.0573 73.7066C45.3942 73.8475 45.7892 73.8745 46.2142 73.7476C46.2622 73.7336 46.2862 73.7045 46.3302 73.6875C46.4052 73.6586 46.4722 73.6196 46.5392 73.5796C47.2182 73.2136 47.3932 72.5345 47.3932 71.7536C47.3903 68.0556 47.3923 64.3586 47.3932 60.6616V59.3226H48.6073V60.6616C48.6083 64.3586 48.6103 68.0556 48.6073 71.7536C48.6062 72.5345 48.7822 73.2136 49.4602 73.5796C49.5282 73.6196 49.5953 73.6586 49.6702 73.6875C49.7142 73.7045 49.7382 73.7336 49.7863 73.7476C50.2113 73.8745 50.6062 73.8475 50.9432 73.7066C50.9692 73.6966 50.9952 73.6876 51.0202 73.6766C51.1612 73.6086 51.2852 73.5116 51.4002 73.4006C51.4592 73.3436 51.5173 73.2886 51.5673 73.2196C51.6853 73.0646 51.7762 72.8776 51.8453 72.6716C51.8463 72.6665 51.8482 72.6626 51.8492 72.6576C51.9253 72.4266 51.9773 72.1746 51.9792 71.8916C52.0033 69.5126 51.9862 67.1326 51.9872 64.7536C51.9872 64.5096 51.9823 64.1796 51.9742 63.7926V50.8906V49.6616C52.5062 49.4856 53.0352 49.8586 53.0352 51.2526V59.4166C53.0352 59.4346 53.0252 59.4496 53.0252 59.4676C53.0252 60.1425 53.5722 60.6896 54.2472 60.6896C54.9222 60.6896 55.4692 60.1425 55.4692 59.4676C55.4692 59.4496 55.4602 59.4346 55.4592 59.4166V53.5676C55.5392 52.3486 55.3033 48.4616 55.2343 48.2336ZM50.8532 41.7276C50.8682 40.1526 49.6032 38.8486 48.0422 38.8296C46.4992 38.8106 45.1652 40.1156 45.1472 41.6636C45.1282 43.2346 46.3962 44.5226 47.9762 44.5366C49.5722 44.5496 50.8382 43.3136 50.8532 41.7276Z" fill="#1C3553"/>
<path fill-rule="evenodd" clip-rule="evenodd" d="M48 16.8074C48.5645 16.8074 49.022 17.2649 49.022 17.8294V26.8294C49.022 27.3938 48.5645 27.8514 48 27.8514C47.4356 27.8514 46.978 27.3938 46.978 26.8294V17.8294C46.978 17.2649 47.4356 16.8074 48 16.8074Z" fill="#1C3553"/>
</svg>
