<svg width="96" height="96" viewBox="0 0 96 96" fill="none" xmlns="http://www.w3.org/2000/svg">
<path fill-rule="evenodd" clip-rule="evenodd" d="M11.0193 24.005C11.0193 22.8813 11.9302 21.9705 13.0538 21.9705H53.8538C54.9775 21.9705 55.8883 22.8813 55.8883 24.005V55.6938C55.8883 56.8174 54.9775 57.7283 53.8538 57.7283C52.7302 57.7283 51.8193 56.8174 51.8193 55.6938V26.0395H15.0883V72.9712H22.5888C23.7125 72.9712 24.6233 73.8821 24.6233 75.0057C24.6233 76.1293 23.7125 77.0402 22.5888 77.0402H13.0538C11.9302 77.0402 11.0193 76.1293 11.0193 75.0057V24.005Z" fill="#1C3553"/>
<path fill-rule="evenodd" clip-rule="evenodd" d="M55.9076 18.672C55.9076 17.964 55.3556 17.389 54.6736 17.389H25.8816C25.9146 16.24 25.9216 15.09 25.8856 13.94C25.8716 13.501 25.3806 13.171 24.7066 13.05C24.7006 13.049 24.6966 13.049 24.6896 13.048C24.6376 13.039 24.5856 13.03 24.5316 13.025C24.5286 13.024 24.5256 13.024 24.5226 13.023C24.4646 13.017 24.4076 13.012 24.3476 13.007H24.3416C24.2876 13.004 24.2326 13.002 24.1776 13.002C24.1696 13.001 24.1616 13.001 24.1526 13C24.1416 13 24.1326 13.001 24.1216 13.001C24.1056 13.001 24.0886 13 24.0696 13C24.0556 13.001 24.0436 13.002 24.0296 13.003C23.0616 13.023 22.3676 13.429 22.3416 14.034C22.3156 14.634 22.3356 15.236 22.3356 15.837C22.3356 16.355 22.3296 16.872 22.3366 17.389H20.4776C20.5106 16.24 20.5176 15.09 20.4816 13.94C20.4676 13.501 19.9766 13.171 19.3026 13.05C19.2966 13.049 19.2916 13.049 19.2856 13.048C19.2336 13.039 19.1816 13.03 19.1276 13.025C19.1246 13.024 19.1216 13.024 19.1186 13.023C19.0606 13.017 19.0036 13.012 18.9436 13.007H18.9376C18.8836 13.004 18.8286 13.002 18.7736 13.002C18.7656 13.001 18.7576 13.001 18.7486 13C18.7376 13 18.7286 13.001 18.7176 13.001C18.7006 13.001 18.6836 13 18.6656 13C18.6516 13.001 18.6396 13.002 18.6256 13.003C17.6576 13.023 16.9636 13.429 16.9376 14.034C16.9116 14.634 16.9316 15.236 16.9316 15.837C16.9316 16.355 16.9256 16.872 16.9326 17.389H12.2336C11.5526 17.389 10.9996 17.964 10.9996 18.672C10.9996 19.38 11.5526 19.955 12.2336 19.955H54.6736C55.3556 19.955 55.9076 19.38 55.9076 18.672Z" fill="#1C3553"/>
<path fill-rule="evenodd" clip-rule="evenodd" d="M46.5343 60.6328L47.5613 62.6388C47.5613 62.6388 48.0823 63.6548 47.8213 64.7668L46.5443 70.2088C46.5443 70.2088 46.2833 71.3208 47.4083 71.5128L53.0933 72.4848C53.0933 72.4848 54.2183 72.6778 54.2653 71.5368L54.5723 63.9708C54.5723 63.9708 54.6183 62.8308 53.5163 62.5308L46.5343 60.6328Z" fill="#2988FF"/>
<path fill-rule="evenodd" clip-rule="evenodd" d="M57.737 65.1345C57.9934 65.4275 57.9638 65.8729 57.6708 66.1293L54.0178 69.3263C53.7248 69.5828 53.2794 69.5531 53.0229 69.2601C52.7665 68.9671 52.7962 68.5217 53.0892 68.2653L56.7422 65.0683C57.0352 64.8119 57.4806 64.8415 57.737 65.1345Z" fill="#2988FF"/>
<path fill-rule="evenodd" clip-rule="evenodd" d="M56.4133 63.3559C56.6981 63.1887 57.0607 63.2415 57.286 63.483L59.292 65.634C59.5172 65.8755 59.5446 66.241 59.3579 66.5134C59.1712 66.7858 58.8204 66.8921 58.5139 66.7691L57.0059 66.1641C56.8113 66.0861 56.6616 65.9255 56.5973 65.726L56.0993 64.18C55.9981 63.8656 56.1286 63.5232 56.4133 63.3559Z" fill="#2988FF"/>
<path fill-rule="evenodd" clip-rule="evenodd" d="M59.4892 62.7286C59.5345 62.3419 59.8847 62.0651 60.2714 62.1103C60.3647 62.1212 60.4533 62.147 60.5351 62.1844C60.8893 62.3461 61.0453 62.7643 60.8837 63.1185C60.7328 63.4489 60.3587 63.6069 60.0216 63.4953C59.6807 63.4122 59.4474 63.086 59.4892 62.7286Z" fill="#2988FF"/>
<path fill-rule="evenodd" clip-rule="evenodd" d="M62.4892 61.7286C62.5345 61.3419 62.8847 61.0651 63.2714 61.1103C63.3647 61.1212 63.4533 61.147 63.5351 61.1844C63.8893 61.3461 64.0453 61.7643 63.8837 62.1185C63.7328 62.4489 63.3587 62.6069 63.0216 62.4953C62.6807 62.4122 62.4474 62.086 62.4892 61.7286Z" fill="#2988FF"/>
<path fill-rule="evenodd" clip-rule="evenodd" d="M65.4892 62.7286C65.5345 62.3419 65.8847 62.0651 66.2714 62.1103C66.3647 62.1212 66.4533 62.147 66.5351 62.1844C66.8893 62.3461 67.0453 62.7643 66.8837 63.1185C66.7328 63.4489 66.3587 63.6069 66.0216 63.4953C65.6807 63.4122 65.4474 63.086 65.4892 62.7286Z" fill="#2988FF"/>
<path fill-rule="evenodd" clip-rule="evenodd" d="M45.9335 62.8304C45.9335 62.8304 44.1905 59.5484 43.9775 58.7764C43.1905 55.9224 42.3855 53.0724 41.5255 50.2394C40.7075 47.5434 39.1535 46.4284 36.3735 46.4244C34.0335 46.4214 31.6935 46.4234 29.3535 46.4244C25.9575 46.4244 24.5915 47.4534 23.6215 50.7324C22.0145 55.0364 22.9605 55.7394 24.1895 56.6214L27.7335 58.6734C27.7335 62.5084 27.7335 66.3433 27.7335 70.1773C27.7345 73.1023 27.7135 76.0273 27.7425 78.9513C27.7595 80.6733 28.9635 81.6743 30.4385 81.2333C31.6545 80.8693 31.8885 79.8923 31.8875 78.7823C31.8845 74.2373 31.8875 69.6933 31.8875 65.1483V63.5023H33.3965V70.4393C33.3965 73.2293 33.3875 76.0193 33.3995 78.8093C33.4065 80.3843 34.1475 81.2863 35.4145 81.3163C36.7645 81.3493 37.4835 80.4843 37.5165 78.7873C37.5235 78.4273 37.5185 78.0673 37.5185 77.7073V53.1394V51.6284C38.4995 51.3034 38.9135 51.4874 39.1385 52.3894C39.7695 54.9124 40.5525 57.3974 41.1905 59.9184C41.4905 61.1034 42.1215 61.7974 43.3035 62.0784C44.1755 62.2864 45.0375 62.5624 45.9335 62.8304ZM27.7335 53.0334V55.4424C25.6265 54.4184 25.5525 54.7054 26.2745 52.3264C26.4935 51.5104 26.8735 51.3084 27.7335 51.6054V53.0334Z" fill="#2988FF"/>
<path fill-rule="evenodd" clip-rule="evenodd" d="M35.5408 41.7972C35.5638 43.7292 34.0048 45.3112 32.0628 45.3282C30.1008 45.3442 28.5448 43.8252 28.5268 41.8752C28.5088 39.9402 30.0638 38.3372 31.9828 38.3132C33.8788 38.2902 35.5178 39.8942 35.5408 41.7972Z" fill="#2988FF"/>
<path fill-rule="evenodd" clip-rule="evenodd" d="M73.3759 52.0418C73.639 51.5512 74.1505 51.2451 74.7071 51.2451H76.2981C76.8548 51.2451 77.3664 51.5514 77.6294 52.0421L79.1514 54.8821C79.1944 54.9624 79.2301 55.0463 79.258 55.133L84.4456 71.2585L85.6048 72.1702C86.0326 72.5067 86.2464 73.0472 86.1643 73.5853L84.6711 73.3575C86.1643 73.5853 86.1642 73.5857 86.1642 73.5863L86.1635 73.5907L86.1621 73.5998L86.1574 73.6287C86.1535 73.6526 86.148 73.6859 86.1407 73.7278C86.1262 73.8116 86.1046 73.9303 86.0753 74.0789C86.0167 74.3758 85.9265 74.7939 85.798 75.2933C85.5424 76.286 85.128 77.6283 84.4936 78.9863C83.2768 81.5908 80.9499 84.847 76.8691 84.847H74.1361C70.0553 84.847 67.7283 81.5908 66.5116 78.9863C65.8771 77.6283 65.4628 76.286 65.2072 75.2933C65.0787 74.7939 64.9885 74.3758 64.9299 74.0789C64.9005 73.9303 64.879 73.8116 64.8644 73.7278C64.8572 73.6859 64.8516 73.6526 64.8477 73.6287L64.8431 73.5998L64.8417 73.5907L64.841 73.5863C64.8409 73.5857 64.8408 73.5853 66.3341 73.3575L64.8408 73.5853C64.7588 73.0472 64.9725 72.5067 65.4003 72.1702L66.5595 71.2586L71.7461 55.1331C71.7741 55.0463 71.8098 54.9621 71.8529 54.8817L73.3759 52.0418ZM67.9954 73.9726C68.0338 74.1422 68.0794 74.3327 68.1328 74.5402C68.3589 75.4184 68.7175 76.5709 69.2486 77.7076C70.3628 80.0927 71.9369 81.826 74.1361 81.826H76.8691C79.0683 81.826 80.6423 80.0927 81.7566 77.7076C82.2876 76.5709 82.6462 75.4184 82.8723 74.5402C82.9257 74.3327 82.9713 74.1422 83.0097 73.9726L82.2153 73.3478C81.9788 73.1618 81.8033 72.9095 81.7112 72.6231L76.4241 56.1885L75.5024 54.4687L74.58 56.1886L69.294 72.623C69.2019 72.9094 69.0263 73.1618 68.7898 73.3478L67.9954 73.9726Z" fill="#2988FF"/>
<path fill-rule="evenodd" clip-rule="evenodd" d="M73.7172 50.7516C74.0041 50.404 74.4314 50.2026 74.8821 50.2026H76.1221C76.5729 50.2026 77.0002 50.404 77.2871 50.7516L78.4731 52.1886C78.5973 52.3392 78.6912 52.5123 78.7496 52.6986L82.7639 65.5133L83.5943 66.184C84.0106 66.5203 84.2179 67.0517 84.1393 67.581L82.6452 67.3591C84.1393 67.581 84.1393 67.5805 84.1393 67.581L84.1385 67.586L84.1373 67.5939L84.1335 67.6184C84.1303 67.6384 84.1258 67.6659 84.12 67.7004C84.1084 67.7694 84.0912 67.8663 84.0679 67.9874C84.0215 68.2291 83.9501 68.5686 83.8486 68.9737C83.6469 69.778 83.3192 70.8691 82.8155 71.9761C81.8657 74.0638 79.9752 76.8525 76.5671 76.8525H74.4381C71.0297 76.8525 69.139 74.064 68.1889 71.9761C67.6852 70.8692 67.3574 69.778 67.1558 68.9737C67.0542 68.5687 66.9829 68.2291 66.9364 67.9874C66.9131 67.8664 66.8959 67.7694 66.8843 67.7004C66.8785 67.6659 66.874 67.6384 66.8708 67.6184L66.867 67.5939L66.8658 67.586L66.8654 67.5832L66.8652 67.582C66.8651 67.5815 66.865 67.581 68.3591 67.3591L66.8652 67.582C66.7865 67.0527 66.9937 66.5203 67.41 66.184L68.2404 65.5133L72.2547 52.6986C72.3131 52.5123 72.4069 52.3392 72.5312 52.1886L73.7172 50.7516ZM70.0187 67.9602C70.0391 68.0479 70.0615 68.1411 70.0861 68.2391C70.2597 68.9316 70.5342 69.8362 70.9386 70.7249C71.8048 72.6286 72.9536 73.8315 74.4381 73.8315H76.5671C78.0511 73.8315 79.1996 72.6288 80.0658 70.725C80.4701 69.8362 80.7446 68.9316 80.9182 68.2391C80.9428 68.1411 80.9652 68.0479 80.9856 67.9602L80.51 67.5761C80.2781 67.3888 80.1068 67.1371 80.0177 66.8526L75.9551 53.8837L75.5021 53.3349L75.0492 53.8837L70.9866 66.8526C70.8975 67.1371 70.7262 67.3888 70.4943 67.5761L70.0187 67.9602Z" fill="#2988FF"/>
<path fill-rule="evenodd" clip-rule="evenodd" d="M73.9038 50.7852C74.1899 50.4172 74.63 50.2019 75.0962 50.2019H75.9082C76.3744 50.2019 76.8145 50.4172 77.1006 50.7852L77.8766 51.7832C77.9925 51.9322 78.0794 52.1016 78.1329 52.2826L80.7243 61.0592L81.1611 61.4334C81.5521 61.7685 81.7455 62.2798 81.6741 62.7898L80.1782 62.5804C81.6741 62.7898 81.6742 62.7893 81.6741 62.7898L81.6735 62.7941L81.6726 62.8005L81.6698 62.8193C81.6676 62.8345 81.6644 62.8549 81.6604 62.8802C81.6524 62.9307 81.6407 63.0009 81.6249 63.088C81.5934 63.2619 81.5453 63.5048 81.4769 63.7941C81.3417 64.3668 81.1205 65.1495 80.7781 65.9481C80.1624 67.384 78.8101 69.6359 76.1992 69.6359H74.8052C72.1947 69.6359 70.8424 67.3839 70.2267 65.9483C69.8842 65.1496 69.663 64.367 69.5276 63.7943C69.4593 63.505 69.4111 63.2621 69.3796 63.0882C69.3638 63.0012 69.3521 62.9309 69.344 62.8804C69.34 62.8551 69.3369 62.8347 69.3346 62.8196L69.3318 62.8008L69.3309 62.7944L69.3304 62.7909C69.3304 62.7905 69.3303 62.79 70.8262 62.5804L69.3304 62.7909C69.2589 62.2805 69.4525 61.7679 69.844 61.4328L70.2811 61.0587L72.8715 52.2828C72.9249 52.1017 73.0119 51.9323 73.1278 51.7832L73.9038 50.7852ZM72.4804 63.1528C72.5912 63.6119 72.7607 64.1921 73.0032 64.7576C73.5765 66.0944 74.2137 66.6149 74.8052 66.6149H76.1992C76.7913 66.6149 77.4285 66.0943 78.0016 64.7577C78.2441 64.192 78.4136 63.6115 78.5243 63.1523L78.4193 63.0624C78.1979 62.8726 78.0361 62.6228 77.9535 62.3432L75.5022 54.0414L73.0519 62.343C72.9693 62.6231 72.8072 62.8731 72.5854 63.063L72.4804 63.1528Z" fill="#2988FF"/>
</svg>
