<svg width="96" height="96" viewBox="0 0 96 96" fill="none" xmlns="http://www.w3.org/2000/svg">
<path fill-rule="evenodd" clip-rule="evenodd" d="M77.8327 71.7183L77.8157 71.6283V71.2423V71.0153C77.1827 71.0673 76.4717 71.1003 75.6477 71.1003C72.8207 71.1003 71.1927 70.7473 70.2557 70.3573C70.0827 70.2853 69.9397 70.2133 69.8107 70.1403C69.7907 70.1293 69.7707 70.1183 69.7527 70.1073C69.7077 70.0813 69.6627 70.0543 69.6227 70.0283C69.5917 70.0543 69.5577 70.0803 69.5337 70.1073H69.4077V72.9033V72.9053L69.4557 73.1313C69.6107 73.4863 70.5187 74.6463 75.6477 74.6463C76.4797 74.6463 77.1907 74.6133 77.8157 74.5603V74.2773V73.4243C77.3907 73.4613 76.9117 73.4893 76.3647 73.5023L71.3727 71.4223C72.4897 71.6613 73.9907 71.8093 75.6477 71.8093C76.4177 71.8093 77.1517 71.7763 77.8327 71.7183Z" fill="#2988FF"/>
<path fill-rule="evenodd" clip-rule="evenodd" d="M80.6282 67.1309H80.7522V67.1839C80.9812 67.1359 81.2112 67.0879 81.4532 67.0509C81.5892 67.0289 81.7322 67.0159 81.8712 66.9979L81.8792 66.5089L81.8822 66.2999C81.8822 66.2929 81.8872 66.2859 81.8872 66.2789C81.8872 66.2729 81.8832 66.2679 81.8832 66.2609L81.8872 65.9959H81.7622C81.6672 65.8899 81.5142 65.7879 81.3202 65.6909C81.2522 65.7249 81.1802 65.7589 81.1022 65.7919C80.9412 65.8619 80.7552 65.9299 80.5472 65.9959C80.5412 65.9979 80.5352 65.9999 80.5292 66.0019C79.5452 66.3129 78.0232 66.5629 75.6482 66.5629C73.2732 66.5629 71.7512 66.3129 70.7672 66.0019C70.7612 65.9999 70.7542 65.9979 70.7482 65.9959C70.5402 65.9299 70.3542 65.8619 70.1932 65.7919C70.1152 65.7589 70.0432 65.7249 69.9752 65.6909C69.7812 65.7879 69.6282 65.8899 69.5332 65.9959H69.4082V68.7909V68.7929L69.4552 69.0189C69.5062 69.1349 69.6412 69.3369 69.9732 69.5559C70.0432 69.6019 70.1242 69.6489 70.2132 69.6959C70.2762 69.7299 70.3412 69.7629 70.4152 69.7959C70.5882 69.8749 70.7902 69.9519 71.0292 70.0249C71.1212 70.0539 71.2242 70.0809 71.3272 70.1079C72.2492 70.3499 73.6122 70.5339 75.6482 70.5339C76.4802 70.5339 77.1912 70.5009 77.8162 70.4479V70.1659V70.1079V69.5189V69.3119C77.3912 69.3499 76.9122 69.3769 76.3652 69.3899L75.3742 68.9769H75.3722L74.4382 68.5879L71.3732 67.3099C72.4902 67.5499 73.9912 67.6969 75.6472 67.6969C77.6852 67.6969 79.4892 67.4739 80.6282 67.1309Z" fill="#2988FF"/>
<path fill-rule="evenodd" clip-rule="evenodd" d="M81.7612 61.4581C81.1832 60.8111 78.6662 60.3241 75.6472 60.3241C72.6282 60.3241 70.1112 60.8111 69.5332 61.4581H69.4072V64.2531L69.4082 64.2561L69.4552 64.4821C69.5242 64.6381 69.7372 64.9481 70.3892 65.2481C70.4992 65.2991 70.6262 65.3491 70.7632 65.3981C70.8302 65.4221 70.9012 65.4461 70.9752 65.4701C71.2182 65.5471 71.5022 65.6201 71.8282 65.6861C72.7262 65.8681 73.9532 65.9961 75.6472 65.9961C77.3432 65.9961 78.5692 65.8681 79.4672 65.6861C79.7922 65.6201 80.0762 65.5471 80.3192 65.4701C80.3932 65.4461 80.4642 65.4221 80.5312 65.3981C80.6682 65.3491 80.7952 65.2991 80.9062 65.2481C81.5572 64.9481 81.7702 64.6371 81.8392 64.4821L81.8782 61.9721L81.8822 61.7621C81.8822 61.7551 81.8862 61.7491 81.8862 61.7421C81.8862 61.7361 81.8832 61.7301 81.8822 61.7241L81.8862 61.4581H81.7612ZM76.3652 64.8531L75.3812 64.4431L71.3732 62.7731C72.4902 63.0121 73.9912 63.1601 75.6472 63.1601C77.6862 63.1601 79.4912 62.9361 80.6302 62.5931H80.7522V64.0351C80.5702 64.1711 80.0372 64.4701 78.7192 64.6691C78.1142 64.7601 77.3452 64.8301 76.3652 64.8531Z" fill="#2988FF"/>
<path fill-rule="evenodd" clip-rule="evenodd" d="M90.7187 77.0372H90.5937C90.5697 77.0102 90.5357 76.9832 90.5047 76.9572C90.4637 76.9832 90.4187 77.0102 90.3727 77.0372C90.3547 77.0482 90.3357 77.0582 90.3167 77.0692C90.1877 77.1412 90.0437 77.2142 89.8707 77.2862C88.9337 77.6762 87.3057 78.0282 84.4797 78.0282C81.6537 78.0282 80.0257 77.6752 79.0887 77.2862C78.9157 77.2142 78.7717 77.1412 78.6427 77.0692C78.6237 77.0582 78.6047 77.0482 78.5867 77.0372C78.5407 77.0102 78.4957 76.9832 78.4547 76.9572C78.4237 76.9832 78.3897 77.0102 78.3647 77.0372H78.2407V77.3192V77.3202C78.2407 77.3202 78.2407 77.3202 78.2407 77.3212V77.5502V79.8312L78.2887 80.0592C78.4437 80.4142 79.3507 81.5742 84.4797 81.5742C89.6087 81.5742 90.5157 80.4142 90.6707 80.0592L90.7107 77.5502L90.7137 77.3422C90.7147 77.3342 90.7187 77.3272 90.7187 77.3202C90.7187 77.3132 90.7147 77.3072 90.7147 77.3012L90.7187 77.0372ZM89.5847 78.1722V79.6132C89.3197 79.8122 88.3127 80.3572 85.1967 80.4312L80.2067 78.3512C81.3237 78.5902 82.8247 78.7382 84.4797 78.7382C86.5177 78.7382 88.3217 78.5152 89.4597 78.1722H89.5847Z" fill="#2988FF"/>
<path fill-rule="evenodd" clip-rule="evenodd" d="M90.7187 72.9249H90.5937C90.4987 72.8179 90.3467 72.7169 90.1517 72.6199C90.0847 72.6539 90.0117 72.6869 89.9337 72.7209C89.7727 72.7909 89.5867 72.8589 89.3787 72.9249C89.3727 72.9269 89.3667 72.9289 89.3607 72.9299C88.3767 73.2409 86.8547 73.4909 84.4797 73.4909C83.6437 73.4909 82.9227 73.4579 82.2827 73.4039C82.1457 73.3929 82.0067 73.3809 81.8777 73.3679C81.8167 73.3609 81.7547 73.3549 81.6957 73.3479C81.5817 73.3349 81.4767 73.3199 81.3697 73.3049C80.8307 73.2319 80.3667 73.1419 79.9787 73.0409C79.8427 73.0049 79.7187 72.9679 79.5987 72.9309C79.5927 72.9289 79.5867 72.9269 79.5807 72.9249C79.3727 72.8589 79.1867 72.7909 79.0247 72.7209C78.9477 72.6869 78.8747 72.6539 78.8067 72.6199C78.6127 72.7169 78.4607 72.8179 78.3657 72.9249H78.2407V73.2069V73.2079C78.2407 73.2079 78.2407 73.2079 78.2407 73.2089V73.3809V73.4379V74.2349V74.5209V74.6629V75.0899V75.3579V75.3589V75.7189L78.2887 75.9469C78.3397 76.0629 78.4737 76.2649 78.8057 76.4839C78.8757 76.5299 78.9567 76.5769 79.0457 76.6249C79.1087 76.6579 79.1747 76.6909 79.2477 76.7249C79.4207 76.8029 79.6227 76.8799 79.8617 76.9539C79.9547 76.9829 80.0597 77.0099 80.1637 77.0369C81.0867 77.2789 82.4477 77.4619 84.4797 77.4619C86.5117 77.4619 87.8727 77.2789 88.7957 77.0369C88.8997 77.0099 89.0047 76.9829 89.0987 76.9539C89.3367 76.8799 89.5387 76.8029 89.7107 76.7249C89.7847 76.6909 89.8507 76.6579 89.9137 76.6249C90.0027 76.5769 90.0827 76.5309 90.1527 76.4839C90.4857 76.2649 90.6197 76.0629 90.6707 75.9469L90.7107 73.4379L90.7137 73.2299C90.7147 73.2229 90.7187 73.2149 90.7187 73.2079C90.7187 73.2019 90.7147 73.1949 90.7147 73.1889L90.7187 72.9249ZM89.5847 74.0599V75.5009C89.4617 75.5929 89.1767 75.7609 88.5957 75.9209C88.3567 75.9869 88.0637 76.0519 87.7147 76.1089C87.6587 76.1179 87.6007 76.1269 87.5427 76.1359C86.9387 76.2259 86.1717 76.2959 85.1967 76.3189L84.2057 75.9059L84.2037 75.9049L83.2697 75.5159L80.8917 74.5249L80.2957 74.2769L80.2047 74.2389C80.2467 74.2479 80.2897 74.2569 80.3327 74.2659C80.5947 74.3179 80.8747 74.3669 81.1727 74.4089C82.1327 74.5459 83.2637 74.6259 84.4797 74.6259C86.5177 74.6259 88.3217 74.4029 89.4607 74.0599H89.5847Z" fill="#2988FF"/>
<path fill-rule="evenodd" clip-rule="evenodd" d="M82.3032 67.3428C82.1622 67.3548 82.0232 67.3678 81.8862 67.3818C81.8792 67.3828 81.8722 67.3828 81.8652 67.3838C81.7262 67.3988 81.5882 67.4138 81.4542 67.4308C81.2092 67.4618 80.9762 67.4968 80.7522 67.5348C79.5482 67.7398 78.6752 68.0398 78.3652 68.3868H78.2402V68.6698V68.6708V68.7178V68.8998V69.1028V69.1378V69.2688V69.5698V70.1078V70.1218V70.4088V70.5508V70.8198V70.8208V70.9768V71.1818L78.2532 71.2418L78.2882 71.4088C78.3152 71.4708 78.3672 71.5568 78.4572 71.6568C78.5952 71.8098 78.8262 71.9948 79.2222 72.1768C79.3322 72.2268 79.4592 72.2778 79.5962 72.3268C79.6632 72.3508 79.7342 72.3748 79.8082 72.3988C80.0512 72.4758 80.3352 72.5488 80.6602 72.6148C80.6922 72.6208 80.7202 72.6278 80.7522 72.6338C80.9682 72.6758 81.2052 72.7138 81.4602 72.7488C81.5822 72.7658 81.7122 72.7798 81.8442 72.7948C81.8592 72.7968 81.8722 72.7988 81.8862 72.7998C82.0152 72.8138 82.1512 72.8258 82.2892 72.8378C82.9192 72.8908 83.6372 72.9248 84.4792 72.9248C86.1742 72.9248 87.4012 72.7968 88.2992 72.6148C88.6242 72.5488 88.9082 72.4758 89.1512 72.3988C89.2252 72.3748 89.2952 72.3508 89.3622 72.3268C89.4992 72.2778 89.6272 72.2268 89.7372 72.1768C90.3892 71.8768 90.6022 71.5648 90.6712 71.4088L90.7102 68.8998L90.7142 68.6918C90.7142 68.6848 90.7192 68.6778 90.7192 68.6708C90.7192 68.6638 90.7152 68.6578 90.7142 68.6508L90.7182 68.3868H90.5932C90.0152 67.7398 87.4982 67.2528 84.4792 67.2528C83.7132 67.2528 82.9822 67.2848 82.3032 67.3428ZM85.1972 71.7818L84.2142 71.3718L82.3092 70.5778L81.8842 70.4008L81.8822 70.3998L81.6732 70.3128L81.3892 70.1948L81.1802 70.1078L80.8532 69.9718L80.6562 69.8898L80.2702 69.7288L80.2052 69.7018C80.2352 69.7078 80.2652 69.7138 80.2962 69.7198C80.4652 69.7548 80.6412 69.7878 80.8272 69.8188C80.8822 69.8278 80.9342 69.8378 80.9902 69.8458C81.0252 69.8518 81.0622 69.8558 81.0972 69.8608C81.2362 69.8818 81.3782 69.9018 81.5252 69.9198C81.6102 69.9298 81.7002 69.9388 81.7882 69.9478C81.8222 69.9518 81.8552 69.9558 81.8892 69.9588C82.6782 70.0408 83.5542 70.0888 84.4792 70.0888C86.5192 70.0888 88.3242 69.8648 89.4622 69.5208H89.5842V70.9628C89.4032 71.0998 88.8702 71.3988 87.5522 71.5978C86.9472 71.6888 86.1772 71.7588 85.1972 71.7818Z" fill="#2988FF"/>
<path fill-rule="evenodd" clip-rule="evenodd" d="M71.8032 75.9733C71.2262 75.3263 68.7082 74.8383 65.6892 74.8383C62.6692 74.8383 60.1522 75.3263 59.5752 75.9733H59.4502V76.2553C59.4502 76.2563 59.4502 76.2563 59.4502 76.2563C59.4502 76.2573 59.4502 76.2573 59.4502 76.2573V76.4863V78.4063V78.4073V78.7683L59.4982 78.9963C59.6532 79.3513 60.5602 80.5103 65.6892 80.5103C70.8172 80.5103 71.7252 79.3523 71.8802 78.9973L71.9202 76.4863L71.9232 76.2783C71.9242 76.2713 71.9282 76.2643 71.9282 76.2563C71.9282 76.2503 71.9242 76.2443 71.9242 76.2373L71.9282 75.9733H71.8032ZM70.7932 77.1083V78.5503C70.5282 78.7493 69.5202 79.2943 66.4052 79.3673L61.4142 77.2873C62.5312 77.5273 64.0322 77.6743 65.6892 77.6743C67.7272 77.6743 69.5322 77.4513 70.6712 77.1083H70.7932Z" fill="#2988FF"/>
<path fill-rule="evenodd" clip-rule="evenodd" d="M78.2815 40.1685C80.3419 38.6665 81.4601 37.4876 81.4601 36.1295C81.4601 34.5451 80.1275 33.5933 78.4247 33.5933C77.3169 33.5933 76.138 33.998 75.3638 34.8906L76.3284 36.0096C76.8642 35.4497 77.5553 35.093 78.4606 35.093C79.1157 35.093 79.7468 35.4265 79.7468 36.1295C79.7468 37.1061 78.7942 37.9163 75.5414 40.3229V41.6555H81.5193V40.1685H78.2815Z" fill="#2988FF"/>
<path fill-rule="evenodd" clip-rule="evenodd" d="M70.2178 36.2253L71.1824 37.2378L72.5045 35.8918V41.6553H74.1945V33.713H72.7196L70.2178 36.2253Z" fill="#2988FF"/>
<path fill-rule="evenodd" clip-rule="evenodd" d="M14.2788 41.0685C14.2788 40.4306 14.7959 39.9135 15.4338 39.9135H19.2218C19.8597 39.9135 20.3768 40.4306 20.3768 41.0685V47.9295C20.3768 48.5673 19.8597 49.0845 19.2218 49.0845H15.4338C14.7959 49.0845 14.2788 48.5673 14.2788 47.9295V41.0685ZM16.5888 42.2235V46.7745H18.0668V42.2235H16.5888Z" fill="#2988FF"/>
<path fill-rule="evenodd" clip-rule="evenodd" d="M36.5303 41.0685C36.5303 40.4306 37.0474 39.9135 37.6853 39.9135H41.4733C42.1112 39.9135 42.6283 40.4306 42.6283 41.0685V47.9295C42.6283 48.5673 42.1112 49.0845 41.4733 49.0845H37.6853C37.0474 49.0845 36.5303 48.5673 36.5303 47.9295V41.0685ZM38.8403 42.2235V46.7745H40.3183V42.2235H38.8403Z" fill="#2988FF"/>
<path fill-rule="evenodd" clip-rule="evenodd" d="M25.4043 41.0685C25.4043 40.4306 25.9214 39.9135 26.5593 39.9135H30.3473C30.9852 39.9135 31.5023 40.4306 31.5023 41.0685V47.9295C31.5023 48.5673 30.9852 49.0845 30.3473 49.0845H26.5593C25.9214 49.0845 25.4043 48.5673 25.4043 47.9295V41.0685ZM27.7143 42.2235V46.7745H29.1923V42.2235H27.7143Z" fill="#2988FF"/>
<path fill-rule="evenodd" clip-rule="evenodd" d="M6.01953 26.0054C6.01953 24.8818 6.93041 23.9709 8.05403 23.9709H48.854C49.9777 23.9709 50.8885 24.8818 50.8885 26.0054V77.0054C50.8885 78.1291 49.9777 79.0399 48.854 79.0399H8.05403C6.93041 79.0399 6.01953 78.1291 6.01953 77.0054V26.0054ZM10.0885 28.0399V74.9709H46.8195V28.0399H10.0885Z" fill="#1C3553"/>
<path fill-rule="evenodd" clip-rule="evenodd" d="M18.3576 55.9304V60.9904H16.2976V55.9304H18.3576ZM18.8276 54.4604C19.3799 54.4604 19.8276 54.9082 19.8276 55.4604V61.4604C19.8276 62.0127 19.3799 62.4604 18.8276 62.4604H15.8276C15.2754 62.4604 14.8276 62.0127 14.8276 61.4604V55.4604C14.8276 54.9082 15.2754 54.4604 15.8276 54.4604H18.8276Z" fill="#1C3553"/>
<path fill-rule="evenodd" clip-rule="evenodd" d="M29.3576 55.9304V60.9904H27.2976V55.9304H29.3576ZM29.8276 54.4604C30.3799 54.4604 30.8276 54.9082 30.8276 55.4604V61.4604C30.8276 62.0127 30.3799 62.4604 29.8276 62.4604H26.8276C26.2754 62.4604 25.8276 62.0127 25.8276 61.4604V55.4604C25.8276 54.9082 26.2754 54.4604 26.8276 54.4604H29.8276Z" fill="#1C3553"/>
<path fill-rule="evenodd" clip-rule="evenodd" d="M40.3576 55.9304V60.9904H38.2976V55.9304H40.3576ZM40.8276 54.4604C41.3799 54.4604 41.8276 54.9082 41.8276 55.4604V61.4604C41.8276 62.0127 41.3799 62.4604 40.8276 62.4604H37.8276C37.2754 62.4604 36.8276 62.0127 36.8276 61.4604V55.4604C36.8276 54.9082 37.2754 54.4604 37.8276 54.4604H40.8276Z" fill="#1C3553"/>
<path fill-rule="evenodd" clip-rule="evenodd" d="M50.9075 20.6718C50.9075 19.9638 50.3555 19.3888 49.6735 19.3888H20.8815C20.9145 18.2398 20.9215 17.0898 20.8855 15.9398C20.8715 15.5008 20.3805 15.1708 19.7065 15.0498C19.7005 15.0488 19.6965 15.0488 19.6895 15.0478C19.6375 15.0388 19.5855 15.0298 19.5315 15.0248C19.5285 15.0238 19.5255 15.0238 19.5225 15.0228C19.4645 15.0168 19.4075 15.0118 19.3475 15.0068H19.3415C19.2875 15.0038 19.2325 15.0018 19.1775 15.0018C19.1695 15.0008 19.1615 15.0008 19.1525 14.9998C19.1415 14.9998 19.1325 15.0008 19.1215 15.0008C19.1055 15.0008 19.0885 14.9998 19.0695 14.9998C19.0555 15.0008 19.0435 15.0018 19.0295 15.0028C18.0615 15.0228 17.3675 15.4288 17.3415 16.0338C17.3155 16.6338 17.3355 17.2358 17.3355 17.8368C17.3355 18.3548 17.3295 18.8718 17.3365 19.3888H15.4775C15.5105 18.2398 15.5175 17.0898 15.4815 15.9398C15.4675 15.5008 14.9765 15.1708 14.3025 15.0498C14.2965 15.0488 14.2915 15.0488 14.2855 15.0478C14.2335 15.0388 14.1815 15.0298 14.1275 15.0248C14.1245 15.0238 14.1215 15.0238 14.1185 15.0228C14.0605 15.0168 14.0035 15.0118 13.9435 15.0068H13.9375C13.8835 15.0038 13.8285 15.0018 13.7735 15.0018C13.7655 15.0008 13.7575 15.0008 13.7485 14.9998C13.7375 14.9998 13.7285 15.0008 13.7175 15.0008C13.7005 15.0008 13.6835 14.9998 13.6655 14.9998C13.6515 15.0008 13.6395 15.0018 13.6255 15.0028C12.6575 15.0228 11.9635 15.4288 11.9375 16.0338C11.9115 16.6338 11.9315 17.2358 11.9315 17.8368C11.9315 18.3548 11.9255 18.8718 11.9325 19.3888H7.23351C6.55251 19.3888 5.99951 19.9638 5.99951 20.6718C5.99951 21.3798 6.55251 21.9548 7.23351 21.9548H49.6735C50.3555 21.9548 50.9075 21.3798 50.9075 20.6718Z" fill="#1C3553"/>
<path fill-rule="evenodd" clip-rule="evenodd" d="M60.7998 25.0744C60.7998 24.1355 61.5609 23.3744 62.4998 23.3744H89.4998C90.4387 23.3744 91.1998 24.1355 91.1998 25.0744V45.0744C91.1998 46.0133 90.4387 46.7744 89.4998 46.7744H62.4998C61.5609 46.7744 60.7998 46.0133 60.7998 45.0744V25.0744ZM63.1998 25.7744V44.3744H88.7998V25.7744H63.1998Z" fill="#1C3553"/>
<path fill-rule="evenodd" clip-rule="evenodd" d="M61.7954 29.2999H90.718V31.6999H61.7954V29.2999Z" fill="#1C3553"/>
<path fill-rule="evenodd" clip-rule="evenodd" d="M85.0001 22.1C85.4972 22.1 85.9001 22.5029 85.9001 23V26C85.9001 26.497 85.4972 26.9 85.0001 26.9C84.503 26.9 84.1001 26.497 84.1001 26V23C84.1001 22.5029 84.503 22.1 85.0001 22.1Z" fill="#1C3553"/>
<path fill-rule="evenodd" clip-rule="evenodd" d="M67.0001 22.1C67.4972 22.1 67.9001 22.5029 67.9001 23V26C67.9001 26.497 67.4972 26.9 67.0001 26.9C66.503 26.9 66.1001 26.497 66.1001 26V23C66.1001 22.5029 66.503 22.1 67.0001 22.1Z" fill="#1C3553"/>
</svg>
