<svg width="96" height="96" viewBox="0 0 96 96" fill="none" xmlns="http://www.w3.org/2000/svg">
<path fill-rule="evenodd" clip-rule="evenodd" d="M19.8843 43.8401C20.4366 43.8401 20.8843 44.2878 20.8843 44.8401V52.2001C20.8843 52.7524 20.4366 53.2001 19.8843 53.2001C19.332 53.2001 18.8843 52.7524 18.8843 52.2001V44.8401C18.8843 44.2878 19.332 43.8401 19.8843 43.8401Z" fill="#1C3553"/>
<path fill-rule="evenodd" clip-rule="evenodd" d="M18.8843 44.6757C18.8843 41.9261 21.0934 39.6797 23.8393 39.6797C26.586 39.6797 28.7953 41.9259 28.7953 44.6757C28.7953 45.228 28.3476 45.6757 27.7953 45.6757C27.243 45.6757 26.7953 45.228 26.7953 44.6757C26.7953 43.0114 25.4625 41.6797 23.8393 41.6797C22.2172 41.6797 20.8843 43.0113 20.8843 44.6757C20.8843 45.228 20.4366 45.6757 19.8843 45.6757C19.332 45.6757 18.8843 45.228 18.8843 44.6757Z" fill="#1C3553"/>
<path fill-rule="evenodd" clip-rule="evenodd" d="M38.4199 48.52C38.4199 48.2439 38.6438 48.02 38.9199 48.02H44.1199C44.3961 48.02 44.6199 48.2439 44.6199 48.52C44.6199 48.7962 44.3961 49.02 44.1199 49.02H38.9199C38.6438 49.02 38.4199 48.7962 38.4199 48.52Z" fill="#1C3553"/>
<path fill-rule="evenodd" clip-rule="evenodd" d="M45.6997 48.52C45.6997 48.2439 45.9236 48.02 46.1997 48.02H51.3997C51.6758 48.02 51.8997 48.2439 51.8997 48.52C51.8997 48.7962 51.6758 49.02 51.3997 49.02H46.1997C45.9236 49.02 45.6997 48.7962 45.6997 48.52Z" fill="#1C3553"/>
<path fill-rule="evenodd" clip-rule="evenodd" d="M19.4497 56.8506C19.4497 56.4364 19.7855 56.1006 20.1997 56.1006H25.3997C25.8139 56.1006 26.1497 56.4364 26.1497 56.8506C26.1497 57.2648 25.8139 57.6006 25.3997 57.6006H20.1997C19.7855 57.6006 19.4497 57.2648 19.4497 56.8506Z" fill="#1C3553"/>
<path fill-rule="evenodd" clip-rule="evenodd" d="M57.9297 56.8506C57.9297 56.4364 58.2655 56.1006 58.6797 56.1006H61.7997C62.2139 56.1006 62.5497 56.4364 62.5497 56.8506C62.5497 57.2648 62.2139 57.6006 61.7997 57.6006H58.6797C58.2655 57.6006 57.9297 57.2648 57.9297 56.8506Z" fill="#1C3553"/>
<path fill-rule="evenodd" clip-rule="evenodd" d="M38.1699 58.9331C38.1699 58.5189 38.5057 58.1831 38.9199 58.1831H42.0399C42.4541 58.1831 42.7899 58.5189 42.7899 58.9331C42.7899 59.3473 42.4541 59.6831 42.0399 59.6831H38.9199C38.5057 59.6831 38.1699 59.3473 38.1699 58.9331Z" fill="#1C3553"/>
<path fill-rule="evenodd" clip-rule="evenodd" d="M57.9297 48.5208C57.9297 48.1065 58.2655 47.7708 58.6797 47.7708H61.7997C62.2139 47.7708 62.5497 48.1065 62.5497 48.5208C62.5497 48.935 62.2139 49.2708 61.7997 49.2708H58.6797C58.2655 49.2708 57.9297 48.935 57.9297 48.5208Z" fill="#1C3553"/>
<path fill-rule="evenodd" clip-rule="evenodd" d="M38.1699 65.1804C38.1699 64.7662 38.5057 64.4304 38.9199 64.4304H42.0399C42.4541 64.4304 42.7899 64.7662 42.7899 65.1804C42.7899 65.5946 42.4541 65.9304 42.0399 65.9304H38.9199C38.5057 65.9304 38.1699 65.5946 38.1699 65.1804Z" fill="#1C3553"/>
<path fill-rule="evenodd" clip-rule="evenodd" d="M27.7954 43.8804C28.3477 43.8804 28.7954 44.3281 28.7954 44.8804V46.4714C28.7954 47.0237 28.3477 47.4714 27.7954 47.4714C27.2431 47.4714 26.7954 47.0237 26.7954 46.4714V44.8804C26.7954 44.3281 27.2431 43.8804 27.7954 43.8804Z" fill="#1C3553"/>
<path fill-rule="evenodd" clip-rule="evenodd" d="M15 23.75C15 22.7835 15.7835 22 16.75 22H54.85C55.8165 22 56.6 22.7835 56.6 23.75V32.73C56.6 33.6965 55.8165 34.48 54.85 34.48H16.75C15.7835 34.48 15 33.6965 15 32.73V23.75ZM53.1 25.5H18.5V30.98H53.1V25.5Z" fill="#2988FF"/>
<path fill-rule="evenodd" clip-rule="evenodd" d="M15 51.8301C15 50.8636 15.7835 50.0801 16.75 50.0801H78.77C79.7365 50.0801 80.52 50.8636 80.52 51.8301V72.2501C80.52 73.2166 79.7365 74.0001 78.77 74.0001H16.75C15.7835 74.0001 15 73.2166 15 72.2501V51.8301ZM77.02 53.5801H18.5V70.5001H77.02V53.5801Z" fill="#2988FF"/>
<path fill-rule="evenodd" clip-rule="evenodd" d="M53.48 23.75C53.48 22.7835 54.2635 22 55.23 22H78.77C79.7365 22 80.52 22.7835 80.52 23.75V72.25C80.52 73.2165 79.7365 74 78.77 74H55.23C54.2635 74 53.48 73.2165 53.48 72.25V23.75ZM77.02 25.5H56.98V70.5H77.02V25.5Z" fill="#2988FF"/>
<path fill-rule="evenodd" clip-rule="evenodd" d="M37.7837 52.1599V72.9599H34.2837V52.1599H37.7837Z" fill="#2988FF"/>
<path fill-rule="evenodd" clip-rule="evenodd" d="M55.5598 63.0625H36.8398V61.0625H55.5598V63.0625Z" fill="#2988FF"/>
</svg>
