<svg width="96" height="96" viewBox="0 0 96 96" fill="none" xmlns="http://www.w3.org/2000/svg">
<path fill-rule="evenodd" clip-rule="evenodd" d="M90.7683 73.2768C90.7433 73.2478 90.7063 73.2198 90.6743 73.1918C90.6313 73.2198 90.5833 73.2488 90.5353 73.2768C90.5153 73.2878 90.4953 73.2998 90.4743 73.3108C90.3383 73.3878 90.1863 73.4648 90.0033 73.5408C89.0103 73.9548 87.2843 74.3288 84.2893 74.3288C82.9143 74.3288 81.8173 74.2468 80.9253 74.1218C80.3163 74.0368 79.8024 73.9308 79.3774 73.8128C79.2274 73.7708 79.0844 73.7288 78.9554 73.6838C78.8174 73.6378 78.6914 73.5898 78.5744 73.5408C78.4654 73.4958 78.3684 73.4498 78.2754 73.4038C78.2134 73.3728 78.1574 73.3418 78.1024 73.3108C78.0824 73.2998 78.0614 73.2888 78.0424 73.2768C77.9934 73.2488 77.9464 73.2208 77.9034 73.1928C77.8704 73.2208 77.8344 73.2488 77.8094 73.2768H77.6764V73.4118V73.7118V73.8618V74.3118V76.2388V76.2408L77.7264 76.4817C77.8914 76.8577 78.8534 78.0857 84.2893 78.0857C89.7243 78.0857 90.6863 76.8577 90.8513 76.4817L90.8933 73.8208L90.8973 73.5978C90.8973 73.5908 90.9013 73.5838 90.9013 73.5768C90.9013 73.5708 90.8983 73.5648 90.8973 73.5578L90.9023 73.2768H90.7683ZM89.6983 74.4788V76.0078C89.4173 76.2188 88.3493 76.7957 85.0483 76.8737L79.7584 74.6698C80.9423 74.9228 82.5333 75.0798 84.2883 75.0798C86.4483 75.0798 88.3613 74.8438 89.5673 74.4788H89.6983Z" fill="#2988FF"/>
<path fill-rule="evenodd" clip-rule="evenodd" d="M90.3003 68.5956C90.2283 68.6316 90.1513 68.6666 90.0693 68.7026C89.8983 68.7766 89.7013 68.8486 89.4813 68.9186C89.4753 68.9206 89.4683 68.9226 89.4613 68.9246C88.4853 69.2326 86.9963 69.4806 84.7464 69.5116C84.5954 69.5136 84.4544 69.5186 84.2964 69.5186H84.2894H84.2874C84.2384 69.5186 84.1974 69.5166 84.1504 69.5166C84.0254 69.5156 83.9114 69.5126 83.7904 69.5106C83.3314 69.5036 82.8994 69.4896 82.5024 69.4656C81.9084 69.4296 81.3814 69.3776 80.9144 69.3116C80.7284 69.2856 80.5524 69.2566 80.3854 69.2276C80.0114 69.1606 79.6754 69.0866 79.3844 69.0056C79.2904 68.9796 79.2024 68.9526 79.1154 68.9246C79.1094 68.9226 79.1024 68.9206 79.0954 68.9186C79.0794 68.9136 79.0614 68.9086 79.0454 68.9036C78.8454 68.8386 78.6664 68.7716 78.5074 68.7026C78.4254 68.6676 78.3484 68.6316 78.2764 68.5956C78.0804 68.6936 77.9254 68.7966 77.8244 68.9036C77.8194 68.9086 77.8124 68.9136 77.8084 68.9186H77.6754V69.0536V69.3536V69.5036V69.9546V70.1066V70.7066V71.8816V71.8836L77.7264 72.1236C77.7384 72.1526 77.7584 72.1876 77.7814 72.2246C77.8304 72.3036 77.9084 72.4006 78.0284 72.5066C78.0954 72.5656 78.1764 72.6276 78.2734 72.6916C78.3374 72.7336 78.4074 72.7756 78.4854 72.8186C78.4984 72.8256 78.5144 72.8336 78.5284 72.8406C78.5954 72.8766 78.6644 72.9116 78.7424 72.9466C78.9254 73.0296 79.1394 73.1116 79.3924 73.1886C79.4904 73.2196 79.6014 73.2486 79.7114 73.2766C79.7754 73.2936 79.8364 73.3116 79.9054 73.3276C80.2044 73.3986 80.5464 73.4636 80.9324 73.5196C81.0984 73.5436 81.2774 73.5656 81.4614 73.5856C81.8974 73.6346 82.3864 73.6716 82.9304 73.6956C83.3514 73.7146 83.7954 73.7276 84.2884 73.7276C86.4433 73.7276 87.8863 73.5336 88.8643 73.2766C88.9743 73.2486 89.0853 73.2196 89.1833 73.1886C89.4363 73.1116 89.6503 73.0296 89.8333 72.9466C89.9113 72.9116 89.9813 72.8766 90.0483 72.8406C90.1423 72.7906 90.2283 72.7406 90.3023 72.6916C90.6533 72.4596 90.7963 72.2466 90.8493 72.1236L90.8923 69.4626L90.8953 69.2406C90.8963 69.2336 90.9003 69.2266 90.9003 69.2196C90.9003 69.2126 90.8963 69.2066 90.8963 69.2006L90.9003 68.9186H90.7673C90.6673 68.8056 90.5053 68.6976 90.3003 68.5956ZM89.6983 70.1206V71.6496C89.5683 71.7476 89.2663 71.9246 88.6523 72.0936C88.3983 72.1636 88.0883 72.2326 87.7163 72.2936C87.6583 72.3036 87.5973 72.3126 87.5343 72.3216C86.8943 72.4176 86.0823 72.4906 85.0473 72.5156L84.7164 72.3766L84.2964 72.2016L84.2134 72.1676L83.9984 72.0776H83.9964L83.8444 72.0136L83.0324 71.6756L83.0054 71.6646L80.3874 70.5736L79.7574 70.3116C80.1134 70.3876 80.5064 70.4546 80.9294 70.5116C81.5864 70.5996 82.3154 70.6636 83.0934 70.6956C83.3374 70.7056 83.5864 70.7126 83.8394 70.7156C83.9814 70.7176 84.1224 70.7206 84.2674 70.7206C84.2744 70.7206 84.2814 70.7216 84.2884 70.7216H84.2954C84.4434 70.7216 84.5884 70.7186 84.7333 70.7166C86.7103 70.6866 88.4453 70.4596 89.5683 70.1206H89.6983Z" fill="#2988FF"/>
<path fill-rule="evenodd" clip-rule="evenodd" d="M84.7199 62.9117C84.5789 62.9097 84.4399 62.9067 84.2969 62.9067H84.2889C84.2739 62.9067 84.2609 62.9077 84.2459 62.9077C84.1109 62.9077 83.9789 62.9097 83.8449 62.9117C82.9789 62.9247 82.1599 62.9757 81.4169 63.0577C81.2279 63.0787 81.0439 63.1007 80.8659 63.1257C80.6329 63.1577 80.4089 63.1927 80.1969 63.2307C79.9159 63.2807 79.6569 63.3367 79.4159 63.3957C79.4019 63.3997 79.3879 63.4037 79.3729 63.4067C78.9039 63.5257 78.5139 63.6607 78.2289 63.8087C78.0449 63.9047 77.9019 64.0057 77.8079 64.1097H77.6749V64.2437V64.5447V64.6947V65.1447V65.7476V66.3476V67.0716L77.6759 67.0736L77.7129 67.2506L77.7259 67.3126C77.7659 67.4036 77.8539 67.5436 78.0369 67.7046H78.0379C78.1889 67.8366 78.4039 67.9826 78.7149 68.1256C78.7199 68.1276 78.7269 68.1306 78.7319 68.1326C78.7709 68.1506 78.8179 68.1676 78.8599 68.1866C78.9399 68.2196 79.0219 68.2526 79.1129 68.2846C79.1839 68.3106 79.2589 68.3356 79.3369 68.3606C79.5949 68.4426 79.8959 68.5196 80.2409 68.5896C80.5899 68.6606 80.9889 68.7226 81.4399 68.7746C81.7419 68.8086 82.0599 68.8396 82.4109 68.8616C82.5269 68.8696 82.6549 68.8736 82.7769 68.8796C82.8069 68.8816 82.8379 68.8826 82.8679 68.8836C83.0099 68.8906 83.1439 68.8986 83.2929 68.9036C83.4649 68.9086 83.6539 68.9096 83.8369 68.9116C83.8619 68.9126 83.8869 68.9126 83.9119 68.9126C83.9999 68.9136 84.0819 68.9166 84.1729 68.9166C84.2129 68.9166 84.2479 68.9186 84.2889 68.9186H84.2949C84.3549 68.9186 84.4069 68.9166 84.4659 68.9166C86.1669 68.9076 87.4168 68.7766 88.3358 68.5896C88.6808 68.5196 88.9808 68.4426 89.2388 68.3606C89.3178 68.3356 89.3918 68.3106 89.4638 68.2846C89.6088 68.2326 89.7438 68.1796 89.8608 68.1256C90.5508 67.8076 90.7778 67.4786 90.8498 67.3136L90.8918 64.6537L90.8958 64.4317C90.8958 64.4237 90.9008 64.4177 90.9008 64.4097C90.9008 64.4037 90.8968 64.3977 90.8968 64.3907L90.9008 64.1097H90.7688C90.1858 63.4547 87.7258 62.9557 84.7199 62.9117ZM85.0489 67.7066L84.7209 67.5706L84.2969 67.3936L84.2519 67.3746L84.0059 67.2726L83.8429 67.2046L83.0939 66.8926L81.2229 66.1126L80.3459 65.7476L79.7579 65.5026C80.2119 65.5996 80.7249 65.6816 81.2859 65.7476C81.6879 65.7936 82.1129 65.8306 82.5569 65.8586C82.7339 65.8696 82.9119 65.8786 83.0939 65.8866C83.3379 65.8966 83.5859 65.9036 83.8379 65.9066C83.9829 65.9086 84.1279 65.9116 84.2749 65.9116C84.2799 65.9116 84.2849 65.9126 84.2889 65.9126H84.2969C84.4459 65.9126 84.5919 65.9086 84.7389 65.9076C86.7129 65.8766 88.4458 65.6506 89.5678 65.3127H89.6988V66.8396C89.5068 66.9836 88.9418 67.3006 87.5448 67.5116C86.9039 67.6076 86.0879 67.6816 85.0489 67.7066Z" fill="#2988FF"/>
<path fill-rule="evenodd" clip-rule="evenodd" d="M75.6754 70.6348C76.1694 70.6708 76.6894 70.6928 77.2254 70.7008V70.1058V69.9468C76.6704 69.9388 76.1484 69.9218 75.6834 69.8898L75.6804 70.1058L75.6754 70.6348Z" fill="#2988FF"/>
<path fill-rule="evenodd" clip-rule="evenodd" d="M77.7237 73.0674C77.4057 72.8224 77.2937 72.6114 77.2567 72.5174L77.2537 72.5044L77.2247 72.3524V71.9924L75.6677 71.3434L75.6567 72.4404L75.6557 72.5024C75.6197 72.5964 75.5067 72.8054 75.1917 73.0494C75.1007 73.1204 74.9877 73.1934 74.8587 73.2684C74.7197 73.3494 74.5617 73.4304 74.3717 73.5114C75.1297 73.6194 76.0757 73.6894 77.2247 73.7054V73.4054V73.3704H77.4257C77.4977 73.2644 77.6097 73.1694 77.7167 73.0744C77.7197 73.0724 77.7217 73.0694 77.7237 73.0674Z" fill="#2988FF"/>
<path fill-rule="evenodd" clip-rule="evenodd" d="M75.6754 66.2769C76.1694 66.3129 76.6894 66.3349 77.2254 66.3429V65.7479V65.1379C76.6714 65.1309 76.1514 65.1139 75.6874 65.0819V65.0889L75.6804 65.7479L75.6754 66.2769Z" fill="#2988FF"/>
<path fill-rule="evenodd" clip-rule="evenodd" d="M77.2252 69.047V69.012H77.4262C77.4532 68.973 77.5022 68.941 77.5332 68.903C77.5872 68.839 77.6492 68.776 77.7172 68.716C77.8142 68.629 77.9222 68.548 78.0452 68.469C77.8572 68.36 77.7112 68.252 77.6002 68.153C77.5992 68.152 77.5972 68.151 77.5962 68.15C77.3772 67.953 77.2882 67.789 77.2572 67.708L77.2562 67.706V67.705L77.2442 67.642L76.4012 67.291L75.6682 66.985L75.6642 67.344L75.6602 67.772V67.792L75.6572 68.081L75.6562 68.143C75.6452 68.171 75.6242 68.212 75.5972 68.258C75.5322 68.367 75.4142 68.519 75.1922 68.69C75.1912 68.691 75.1902 68.692 75.1892 68.693C75.1372 68.733 75.0752 68.775 75.0102 68.818C74.9672 68.846 74.9192 68.874 74.8702 68.902C74.8672 68.904 74.8632 68.907 74.8592 68.909C74.8442 68.918 74.8272 68.927 74.8112 68.936C74.6832 69.008 74.5412 69.08 74.3722 69.152C74.6012 69.185 74.8462 69.214 75.1072 69.239C75.1452 69.243 75.1892 69.245 75.2272 69.249C75.2292 69.249 75.2312 69.25 75.2322 69.25C75.3762 69.263 75.5252 69.275 75.6782 69.285C76.1442 69.318 76.6612 69.338 77.2262 69.346V69.047H77.2252Z" fill="#2988FF"/>
<path fill-rule="evenodd" clip-rule="evenodd" d="M83.0534 62.4945C83.3184 62.4795 83.5804 62.4725 83.8434 62.4675C83.9794 62.4645 84.1174 62.4575 84.2534 62.4575L84.2874 60.2795L84.2904 60.0595C84.2914 60.0515 84.2964 60.0435 84.2964 60.0365C84.2964 60.0295 84.2924 60.0225 84.2914 60.0155L84.2954 59.7355H84.1634C84.0624 59.6225 83.9004 59.5145 83.6954 59.4125C83.6234 59.4485 83.5464 59.4845 83.4644 59.5195C83.2934 59.5935 83.0974 59.6655 82.8784 59.7355C82.8714 59.7375 82.8634 59.7395 82.8564 59.7415C81.8134 60.0715 80.2004 60.3365 77.6834 60.3365C76.9424 60.3365 76.2804 60.3135 75.6874 60.2725V60.2805L75.6804 60.9385L75.6754 61.4675C76.3094 61.5135 76.9834 61.5385 77.6834 61.5385C79.8454 61.5385 81.7584 61.3025 82.9644 60.9375H83.0934V62.4655C83.0824 62.4745 83.0674 62.4845 83.0534 62.4945Z" fill="#2988FF"/>
<path fill-rule="evenodd" clip-rule="evenodd" d="M77.8252 63.7969C78.0242 63.6429 78.2752 63.5059 78.5562 63.3799C78.5702 63.3739 78.5862 63.3679 78.6002 63.3619C78.6032 63.3609 78.6062 63.3599 78.6092 63.3579C78.6362 63.3459 78.6672 63.3359 78.6952 63.3249C78.6112 63.3269 78.5312 63.3309 78.4442 63.3329L77.4022 62.8989L75.6682 62.176L75.6592 62.9859L75.6562 63.2729V63.3349C75.6472 63.3569 75.6332 63.3849 75.6162 63.4179C75.6122 63.4249 75.6062 63.4329 75.6022 63.4399C75.5382 63.5499 75.4192 63.7049 75.1922 63.8819C75.1642 63.9029 75.1292 63.9249 75.0982 63.9479C75.0302 63.9959 74.9532 64.0449 74.8672 64.0959C74.8652 64.0969 74.8612 64.0989 74.8582 64.1009C74.7892 64.1409 74.7172 64.1809 74.6362 64.2209C74.5642 64.2569 74.4872 64.2919 74.4052 64.3279C74.3932 64.3329 74.3832 64.3389 74.3712 64.3439C74.3982 64.3479 74.4292 64.3509 74.4562 64.3549C74.6162 64.3759 74.7842 64.3959 74.9592 64.4149C75.0682 64.4269 75.1842 64.4369 75.2992 64.4469C75.8612 64.4969 76.5022 64.5279 77.2242 64.5379V64.2379V64.2019H77.4262C77.4982 64.0959 77.6092 64.0019 77.7172 63.9059C77.7572 63.8709 77.7812 63.8309 77.8252 63.7969Z" fill="#2988FF"/>
<path fill-rule="evenodd" clip-rule="evenodd" d="M84.2916 55.2065L84.2956 54.9265H84.1636C84.0626 54.8135 83.9006 54.7055 83.6956 54.6035C83.6236 54.6395 83.5466 54.6745 83.4646 54.7105C83.2936 54.7845 83.0956 54.8565 82.8756 54.9265C82.8696 54.9285 82.8626 54.9305 82.8566 54.9325C81.8136 55.2615 80.2006 55.5265 77.6837 55.5265C76.9427 55.5265 76.2817 55.5035 75.6877 55.4625V55.4695L75.6807 56.1285L75.6757 56.6585C76.3097 56.7045 76.9837 56.7295 77.6837 56.7295C79.8446 56.7295 81.7566 56.4935 82.9636 56.1285H83.0936V57.6565C82.9016 57.8015 82.3356 58.1175 80.9406 58.3275C80.2986 58.4245 79.4826 58.4985 78.4436 58.5235L77.4007 58.0885L75.6687 57.3665L75.6597 58.1765L75.6567 58.4625V58.5245C75.6477 58.5465 75.6337 58.5755 75.6157 58.6085C75.6127 58.6155 75.6067 58.6235 75.6027 58.6305C75.5387 58.7405 75.4197 58.8955 75.1917 59.0725C75.1647 59.0935 75.1297 59.1155 75.0997 59.1375C75.0307 59.1865 74.9537 59.2355 74.8677 59.2855C74.8647 59.2875 74.8617 59.2895 74.8577 59.2915C74.7887 59.3315 74.7177 59.3715 74.6367 59.4115C74.5647 59.4475 74.4877 59.4825 74.4057 59.5185C74.3937 59.5235 74.3847 59.5285 74.3727 59.5335C74.3987 59.5375 74.4297 59.5405 74.4567 59.5445C74.6157 59.5665 74.7847 59.5865 74.9597 59.6045C75.0687 59.6165 75.1837 59.6265 75.2997 59.6365C75.9807 59.6965 76.7637 59.7345 77.6837 59.7345C79.4796 59.7345 80.7796 59.5995 81.7316 59.4055C82.0756 59.3355 82.3766 59.2585 82.6346 59.1765C82.7126 59.1515 82.7876 59.1265 82.8586 59.1005C83.0036 59.0485 83.1386 58.9955 83.2566 58.9415C83.9466 58.6235 84.1726 58.2945 84.2446 58.1285L84.2866 55.4695L84.2906 55.2495C84.2906 55.2415 84.2956 55.2335 84.2956 55.2255C84.2966 55.2205 84.2916 55.2135 84.2916 55.2065Z" fill="#2988FF"/>
<path fill-rule="evenodd" clip-rule="evenodd" d="M84.2916 50.3977L84.2956 50.1187H84.1636C84.0626 50.0047 83.9016 49.8977 83.6956 49.7947C83.6236 49.8307 83.5466 49.8667 83.4646 49.9017C83.2936 49.9757 83.0956 50.0477 82.8756 50.1187C82.8696 50.1207 82.8626 50.1227 82.8566 50.1237C81.8137 50.4537 80.2007 50.7187 77.6837 50.7187C76.9427 50.7187 76.2807 50.6947 75.6867 50.6547L75.6877 50.6617L75.6807 51.3207L75.6757 51.8497C76.3087 51.8957 76.9827 51.9207 77.6837 51.9207C79.8437 51.9207 81.7557 51.6847 82.9616 51.3207H83.0936V52.8477C82.9016 52.9927 82.3367 53.3097 80.9397 53.5196C80.2977 53.6166 79.4827 53.6906 78.4437 53.7146L77.4017 53.2807L75.6687 52.5587L75.6597 53.3687L75.6567 53.6556V53.7176C75.6477 53.7386 75.6337 53.7676 75.6157 53.8006C75.6127 53.8076 75.6067 53.8156 75.6027 53.8226C75.5387 53.9326 75.4197 54.0876 75.1917 54.2646C75.1647 54.2856 75.1297 54.3086 75.0987 54.3306C75.0307 54.3786 74.9537 54.4276 74.8687 54.4776C74.8657 54.4796 74.8627 54.4816 74.8597 54.4826C74.7897 54.5226 74.7177 54.5636 74.6367 54.6036C74.5647 54.6396 74.4877 54.6746 74.4057 54.7106C74.3937 54.7156 74.3837 54.7206 74.3717 54.7266C74.3987 54.7306 74.4287 54.7336 74.4567 54.7366C74.6157 54.7586 74.7847 54.7786 74.9597 54.7976C75.0687 54.8086 75.1847 54.8186 75.2997 54.8286C75.9817 54.8896 76.7637 54.9266 77.6837 54.9266C79.4797 54.9266 80.7787 54.7916 81.7307 54.5976C82.0757 54.5276 82.3757 54.4506 82.6337 54.3686C82.7127 54.3436 82.7866 54.3186 82.8576 54.2926C83.0026 54.2406 83.1376 54.1876 83.2546 54.1336C83.9456 53.8156 84.1726 53.4866 84.2446 53.3207L84.2866 50.6617L84.2896 50.4417C84.2906 50.4337 84.2956 50.4257 84.2956 50.4187C84.2966 50.4107 84.2916 50.4047 84.2916 50.3977Z" fill="#2988FF"/>
<path fill-rule="evenodd" clip-rule="evenodd" d="M74.8687 44.8419C75.0837 44.9799 75.2627 45.1279 75.3947 45.2899C75.4217 45.3229 75.4647 45.3509 75.4877 45.3839H75.6607L75.6877 45.8349L75.6817 46.4929L75.6757 47.0229C76.3097 47.0689 76.9837 47.0939 77.6837 47.0939C79.8456 47.0939 81.7596 46.8569 82.9656 46.4929H83.0936V48.0209C82.9016 48.1659 82.3366 48.4819 80.9396 48.6929C80.2986 48.7899 79.4826 48.8639 78.4446 48.8879L77.4017 48.4539L75.6687 47.7309L75.6607 48.5409L75.6567 48.8279V48.8899C75.6477 48.9119 75.6347 48.9399 75.6167 48.9729C75.6127 48.9799 75.6077 48.9879 75.6027 48.9949C75.5397 49.1049 75.4207 49.2599 75.1927 49.4369C75.1647 49.4579 75.1307 49.4799 75.0997 49.5029C75.0307 49.5509 74.9537 49.5999 74.8687 49.6499C74.8657 49.6519 74.8627 49.6529 74.8597 49.6549C74.7907 49.6949 74.7187 49.7349 74.6367 49.7759C74.5647 49.8119 74.4877 49.8469 74.4057 49.8829C74.3937 49.8879 74.3847 49.8929 74.3727 49.8979C74.3997 49.9029 74.4297 49.9049 74.4577 49.9099C74.6167 49.9309 74.7857 49.9509 74.9607 49.9699C75.0697 49.9819 75.1847 49.9919 75.2997 50.0019C75.9817 50.0619 76.7637 50.0989 77.6837 50.0989C79.4796 50.0989 80.7796 49.9639 81.7306 49.7709C82.0756 49.7009 82.3766 49.6229 82.6346 49.5409C82.7126 49.5159 82.7876 49.4909 82.8586 49.4649C83.0036 49.4129 83.1386 49.3599 83.2556 49.3059C83.9466 48.9879 84.1726 48.6579 84.2456 48.4929L84.2876 45.8339L84.2906 45.6139C84.2916 45.6059 84.2956 45.5989 84.2956 45.5909C84.2956 45.5839 84.2916 45.5769 84.2916 45.5699L84.2956 45.2899H84.1626C83.5496 44.6039 80.8826 44.0879 77.6827 44.0879C76.9607 44.0879 76.2667 44.1149 75.6157 44.1639C75.6127 44.1709 75.6067 44.1799 75.6027 44.1869C75.5307 44.3099 75.3837 44.4919 75.0987 44.6939C75.0317 44.7429 74.9547 44.7919 74.8687 44.8419Z" fill="#2988FF"/>
<path fill-rule="evenodd" clip-rule="evenodd" d="M75.1872 72.1061L75.2022 71.1501L75.2112 70.5961L75.2182 70.1061L75.2222 69.8491C75.0732 69.8361 74.9172 69.8241 74.7782 69.8081C74.7502 69.8051 74.7262 69.8011 74.6982 69.7981C74.0982 69.7271 73.5902 69.6361 73.1542 69.5341C72.7852 69.6211 72.3592 69.6981 71.8742 69.7631C71.7942 69.7731 71.7172 69.7851 71.6342 69.7941C71.6262 69.7961 71.6192 69.7961 71.6112 69.7981C71.5802 69.8011 71.5532 69.8061 71.5222 69.8091C71.3802 69.8251 71.2232 69.8371 71.0722 69.8501C70.9232 69.8641 70.7802 69.8791 70.6212 69.8901C70.0812 69.9271 69.4752 69.9471 68.8132 69.9511L68.8122 70.1051L68.8062 70.7031C69.4372 70.6991 70.0472 70.6771 70.6222 70.6351C70.7752 70.6241 70.9242 70.6111 71.0722 70.5981C71.1752 70.5881 71.2762 70.5781 71.3762 70.5681C71.4262 70.5631 71.4742 70.5571 71.5222 70.5521C71.7822 70.5231 72.0352 70.4911 72.2742 70.4551C72.5892 70.4081 72.8812 70.3541 73.1552 70.2951C73.4282 70.2371 73.6782 70.1731 73.9042 70.1051H74.0362V70.4551V70.6621V71.6321C73.9172 71.7211 73.6532 71.8771 73.1432 72.0321C72.8302 72.1271 72.4222 72.2221 71.8932 72.3021C71.8202 72.3131 71.7432 72.3241 71.6652 72.3341C71.5532 72.3501 71.4332 72.3641 71.3112 72.3771C71.2442 72.3851 71.1792 72.3931 71.1092 72.4001C70.9612 72.4151 70.8042 72.4271 70.6422 72.4391C70.2642 72.4671 69.8482 72.4881 69.3872 72.4991L68.7912 72.2511L68.7882 72.5071L68.7862 72.6621C68.7512 72.7511 68.6452 72.9441 68.3682 73.1711C68.2772 73.2451 68.1672 73.3231 68.0342 73.4031C68.0222 73.4101 68.0092 73.4161 67.9982 73.4231C68.1382 73.512 68.2582 73.607 68.3632 73.707C68.4532 73.708 68.5342 73.711 68.6262 73.711C69.9942 73.711 71.0782 73.633 71.9382 73.5101C72.2762 73.4621 72.5712 73.4061 72.8432 73.3461C72.9512 73.3221 73.0572 73.2981 73.1552 73.2731C73.3732 73.2171 73.5662 73.1591 73.7392 73.0981C73.9042 73.0411 74.0562 72.9831 74.1862 72.9231C74.6022 72.7331 74.8502 72.5401 74.9992 72.3791C75.1002 72.2691 75.1572 72.1731 75.1872 72.1061Z" fill="#2988FF"/>
<path fill-rule="evenodd" clip-rule="evenodd" d="M68.3002 68.8357C68.3252 68.8577 68.3432 68.8817 68.3672 68.9037C68.4182 68.9517 68.4702 69.0007 68.5122 69.0517C68.5422 69.0887 68.5902 69.1197 68.6162 69.1577H68.7892L68.8012 69.3517C69.4762 69.3477 70.0802 69.3257 70.6212 69.2877C70.7762 69.2767 70.9262 69.2647 71.0712 69.2517C71.0752 69.2507 71.0782 69.2507 71.0822 69.2507C71.1202 69.2467 71.1642 69.2447 71.2022 69.2407C71.4632 69.2147 71.7082 69.1857 71.9372 69.1537C71.9622 69.1497 71.9832 69.1457 72.0082 69.1417C72.3162 69.0957 72.5902 69.0447 72.8422 68.9887C72.9502 68.9647 73.0562 68.9407 73.1542 68.9157C73.1702 68.9117 73.1842 68.9077 73.1992 68.9037C73.3102 68.8747 73.4212 68.8457 73.5202 68.8157C73.5982 68.7917 73.6682 68.7657 73.7392 68.7407C73.8972 68.6857 74.0442 68.6297 74.1702 68.5727C74.1752 68.5697 74.1812 68.5677 74.1862 68.5657C74.2582 68.5327 74.3212 68.4997 74.3842 68.4657C74.4252 68.4447 74.4672 68.4227 74.5042 68.4017C74.5522 68.3727 74.5962 68.3447 74.6382 68.3177C74.7972 68.2127 74.9142 68.1117 74.9982 68.0207C75.0572 67.9577 75.0992 67.8997 75.1312 67.8497C75.1382 67.8377 75.1462 67.8257 75.1522 67.8157C75.1662 67.7907 75.1782 67.7677 75.1872 67.7477L75.1932 67.3977L75.2022 66.7917L75.2112 66.2387L75.2192 65.7477L75.2292 65.0887L75.2302 65.0417C75.2152 65.0407 75.2012 65.0397 75.1872 65.0387C75.1842 65.0377 75.1812 65.0377 75.1782 65.0377C74.9702 65.0187 74.7692 64.9977 74.5802 64.9737C74.0322 64.9057 73.5612 64.8217 73.1552 64.7257C72.7492 64.8217 72.2772 64.9057 71.7302 64.9737C71.5402 64.9977 71.3402 65.0177 71.1312 65.0377C71.1292 65.0377 71.1262 65.0387 71.1232 65.0387C71.1062 65.0397 71.0892 65.0417 71.0722 65.0427C70.9232 65.0567 70.7802 65.0707 70.6212 65.0817C70.0812 65.1197 69.4752 65.1397 68.8132 65.1427L68.8072 65.7477L68.8012 66.3467C69.4332 66.3427 70.0452 66.3197 70.6212 66.2787C70.7742 66.2677 70.9232 66.2547 71.0712 66.2407C71.1742 66.2317 71.2752 66.2217 71.3762 66.2117C71.4252 66.2067 71.4732 66.2007 71.5222 66.1957C71.7822 66.1667 72.0352 66.1347 72.2742 66.0987C72.5882 66.0517 72.8812 65.9977 73.1542 65.9387C73.4282 65.8807 73.6782 65.8167 73.9042 65.7487H74.0352V66.0997V66.3067V67.2757C73.9162 67.3657 73.6532 67.5207 73.1432 67.6757C73.0932 67.6917 73.0432 67.7067 72.9872 67.7217C72.7342 67.7917 72.4242 67.8597 72.0532 67.9207C72.0012 67.9297 71.9482 67.9377 71.8932 67.9467C71.8862 67.9477 71.8792 67.9487 71.8722 67.9497C71.8052 67.9597 71.7352 67.9687 71.6652 67.9787C71.5522 67.9937 71.4332 68.0077 71.3102 68.0217C71.2432 68.0287 71.1792 68.0367 71.1082 68.0437C70.9602 68.0587 70.8032 68.0717 70.6412 68.0837C70.2632 68.1117 69.8472 68.1317 69.3862 68.1437L68.7712 67.8867C68.7432 67.9487 68.6902 68.0397 68.5912 68.1527L68.5902 68.1537C68.4712 68.2877 68.2832 68.4487 67.9982 68.6157C68.1082 68.6857 68.2102 68.7587 68.3002 68.8357Z" fill="#2988FF"/>
<path fill-rule="evenodd" clip-rule="evenodd" d="M68.0072 63.8114C68.1142 63.8804 68.2132 63.9514 68.3002 64.0264C68.3812 64.0954 68.4512 64.1684 68.5132 64.2434C68.5432 64.2794 68.5902 64.3104 68.6162 64.3474H68.7892L68.8012 64.5424C69.6432 64.5384 70.3742 64.5034 71.0102 64.4474C71.1242 64.4364 71.2402 64.4274 71.3482 64.4154C71.5232 64.3964 71.6922 64.3764 71.8512 64.3554C71.8792 64.3514 71.9092 64.3474 71.9372 64.3444C72.2052 64.3054 72.4462 64.2624 72.6722 64.2154C72.7312 64.2034 72.7872 64.1914 72.8432 64.1794C72.9502 64.1554 73.0562 64.1314 73.1542 64.1064C73.3052 64.0674 73.4462 64.0274 73.5762 63.9864C73.6332 63.9684 73.6852 63.9504 73.7382 63.9314C73.7582 63.9244 73.7802 63.9174 73.8002 63.9104C73.9412 63.8594 74.0722 63.8084 74.1862 63.7554C74.1902 63.7544 74.1942 63.7524 74.1972 63.7514C74.3262 63.6914 74.4352 63.6324 74.5332 63.5734C74.5682 63.5524 74.6012 63.5324 74.6322 63.5124C74.7942 63.4054 74.9142 63.3034 74.9982 63.2114C75.0552 63.1505 75.0962 63.0955 75.1272 63.0465C75.1522 63.0065 75.1732 62.9685 75.1872 62.9385L75.2022 61.9815L75.2112 61.4285L75.2182 60.9375L75.2292 60.2795V60.2325C75.2152 60.2305 75.2012 60.2295 75.1862 60.2285C75.1832 60.2275 75.1802 60.2275 75.1772 60.2275C74.9702 60.2085 74.7692 60.1875 74.5802 60.1635C74.0322 60.0955 73.5602 60.0115 73.1542 59.9155C72.7482 60.0115 72.2772 60.0955 71.7292 60.1635C71.5402 60.1875 71.3392 60.2075 71.1312 60.2275C71.1282 60.2275 71.1252 60.2275 71.1222 60.2275C71.1052 60.2295 71.0882 60.2305 71.0712 60.2325C70.9222 60.2455 70.7802 60.2605 70.6212 60.2715C70.0802 60.3085 69.4752 60.3285 68.8132 60.3325L68.8062 60.9365L68.8002 61.5355C69.4332 61.5325 70.0442 61.5095 70.6212 61.4675C70.7742 61.4565 70.9232 61.4435 71.0712 61.4305C71.1742 61.4215 71.2752 61.4115 71.3752 61.4005C71.4242 61.3955 71.4722 61.3895 71.5212 61.3845C71.7812 61.3555 72.0342 61.3235 72.2732 61.2875C72.5882 61.2405 72.8802 61.1865 73.1542 61.1275C73.4282 61.0695 73.6792 61.0055 73.9062 60.9365H74.0342V61.2875V61.4955V62.4655C73.9162 62.5545 73.6522 62.7095 73.1422 62.8655C72.8282 62.9605 72.4212 63.0555 71.8922 63.1355C71.8882 63.1365 71.8842 63.1365 71.8802 63.1375C71.8102 63.1475 71.7382 63.1585 71.6642 63.1675C71.5512 63.1835 71.4322 63.1965 71.3092 63.2105C71.2422 63.2184 71.1782 63.2265 71.1072 63.2334C70.9592 63.2474 70.8022 63.2604 70.6402 63.2724C70.2622 63.3004 69.8462 63.3214 69.3862 63.3324L68.7702 63.0755C68.7422 63.1375 68.6892 63.2285 68.5902 63.3414H68.5892C68.4712 63.4764 68.2822 63.6374 67.9962 63.8044C68.0002 63.8074 68.0042 63.8094 68.0072 63.8114Z" fill="#2988FF"/>
<path fill-rule="evenodd" clip-rule="evenodd" d="M68.0057 59.0016C68.1137 59.0706 68.2127 59.1416 68.3007 59.2176C68.3817 59.2876 68.4517 59.3596 68.5137 59.4346C68.5437 59.4706 68.5907 59.5016 68.6167 59.5386H68.7897L68.8017 59.7326C69.6437 59.7286 70.3747 59.6936 71.0107 59.6376C71.1257 59.6276 71.2407 59.6176 71.3497 59.6056C71.5247 59.5876 71.6937 59.5676 71.8537 59.5456C71.8807 59.5426 71.9107 59.5386 71.9367 59.5356C72.2057 59.4966 72.4467 59.4536 72.6737 59.4066C72.7317 59.3956 72.7867 59.3826 72.8427 59.3706C72.9507 59.3466 73.0567 59.3226 73.1547 59.2976C73.3057 59.2596 73.4467 59.2196 73.5767 59.1786C73.6327 59.1606 73.6847 59.1426 73.7377 59.1236C73.7587 59.1166 73.7807 59.1096 73.8007 59.1026C73.9417 59.0516 74.0727 58.9996 74.1867 58.9476C74.1907 58.9456 74.1947 58.9446 74.1987 58.9426C74.3267 58.8836 74.4357 58.8246 74.5337 58.7656C74.5687 58.7446 74.6017 58.7236 74.6327 58.7036C74.7947 58.5976 74.9147 58.4946 74.9997 58.4026C75.0557 58.3416 75.0967 58.2866 75.1287 58.2376C75.1537 58.1976 75.1747 58.1606 75.1877 58.1296L75.2027 57.1736L75.2117 56.6196L75.2187 56.1286L75.2297 55.4707V55.4227C75.2157 55.4217 75.2017 55.4197 75.1867 55.4187C75.1837 55.4187 75.1807 55.4187 75.1787 55.4177C74.9707 55.3987 74.7697 55.3787 74.5797 55.3547C74.0327 55.2867 73.5607 55.2017 73.1547 55.1067C72.7487 55.2017 72.2777 55.2867 71.7307 55.3547C71.5407 55.3777 71.3397 55.3987 71.1317 55.4177C71.1287 55.4187 71.1257 55.4187 71.1227 55.4187C71.1057 55.4207 71.0887 55.4217 71.0717 55.4237C70.9227 55.4367 70.7807 55.4517 70.6217 55.4627C70.0807 55.4997 69.4757 55.5197 68.8137 55.5237L68.8067 56.1286L68.8007 56.7276C69.4337 56.7236 70.0447 56.7006 70.6217 56.6596C70.7747 56.6486 70.9237 56.6356 71.0717 56.6216C71.1747 56.6126 71.2757 56.6026 71.3757 56.5916C71.4257 56.5866 71.4737 56.5806 71.5217 56.5756C71.7817 56.5466 72.0347 56.5146 72.2737 56.4796C72.5887 56.4316 72.8807 56.3776 73.1547 56.3196C73.4287 56.2606 73.6787 56.1966 73.9057 56.1286H74.0347V56.4796V56.6866V57.6566C73.9167 57.7466 73.6527 57.9006 73.1427 58.0556C72.8287 58.1516 72.4207 58.2466 71.8927 58.3266C71.8887 58.3266 71.8847 58.3276 71.8817 58.3276C71.8117 58.3386 71.7387 58.3486 71.6647 58.3586C71.5517 58.3736 71.4327 58.3876 71.3097 58.4016C71.2427 58.4086 71.1777 58.4166 71.1077 58.4236C70.9597 58.4386 70.8027 58.4516 70.6407 58.4636C70.2627 58.4916 69.8457 58.5126 69.3847 58.5226L68.7707 58.2676C68.7427 58.3286 68.6907 58.4196 68.5917 58.5316C68.5917 58.5326 68.5907 58.5326 68.5907 58.5326C68.4717 58.6676 68.2827 58.8296 67.9977 58.9966C67.9997 58.9986 68.0027 58.9996 68.0057 59.0016Z" fill="#2988FF"/>
<path fill-rule="evenodd" clip-rule="evenodd" d="M68.0067 54.1931C68.1137 54.2621 68.2137 54.3331 68.3007 54.4091C68.3807 54.4781 68.4507 54.5501 68.5127 54.6251C68.5427 54.6611 68.5907 54.6931 68.6167 54.7301H68.7897L68.8017 54.9241C69.6437 54.9201 70.3747 54.8851 71.0107 54.8291C71.1257 54.8191 71.2407 54.8091 71.3497 54.7971C71.5247 54.7781 71.6937 54.7591 71.8527 54.7371C71.8807 54.7331 71.9107 54.7301 71.9377 54.7261C72.2057 54.6881 72.4467 54.6441 72.6727 54.5981C72.7317 54.5861 72.7867 54.5741 72.8427 54.5621C72.9507 54.5381 73.0567 54.5141 73.1547 54.4891C73.3057 54.4501 73.4467 54.4111 73.5757 54.3691C73.6327 54.3511 73.6857 54.3331 73.7387 54.3141C73.7597 54.3071 73.7807 54.3001 73.8007 54.2931C73.9417 54.2431 74.0717 54.1911 74.1867 54.1391C74.1907 54.1371 74.1947 54.1351 74.1987 54.1341C74.3267 54.0751 74.4347 54.0161 74.5327 53.9571C74.5677 53.9361 74.6007 53.9161 74.6317 53.8951C74.7937 53.7881 74.9137 53.6861 74.9997 53.5941C75.0557 53.5331 75.0967 53.4791 75.1277 53.4291C75.1527 53.3891 75.1737 53.3511 75.1877 53.3211L75.2027 52.3651L75.2117 51.8111L75.2187 51.3211L75.2297 50.6621V50.6141C75.2157 50.6131 75.2017 50.6121 75.1877 50.6111C75.1847 50.6101 75.1817 50.6101 75.1787 50.6101C74.9707 50.5911 74.7697 50.5701 74.5797 50.5461C74.0327 50.4791 73.5607 50.3941 73.1547 50.2981C72.7487 50.3941 72.2777 50.4791 71.7307 50.5461C71.5407 50.5701 71.3397 50.5911 71.1317 50.6101C71.1287 50.6101 71.1257 50.6111 71.1227 50.6111C71.1067 50.6121 71.0887 50.6141 71.0717 50.6151C70.9227 50.6291 70.7807 50.6441 70.6217 50.6551C70.0807 50.6921 69.4757 50.7121 68.8137 50.7151L68.8067 51.3211L68.8007 51.9191C69.4337 51.9151 70.0447 51.8921 70.6217 51.8511C70.7747 51.8401 70.9237 51.8271 71.0717 51.8131C71.1747 51.8041 71.2757 51.7941 71.3757 51.7831C71.4257 51.7781 71.4737 51.7721 71.5217 51.7671C71.7817 51.7381 72.0347 51.7061 72.2737 51.6711C72.5887 51.6231 72.8807 51.5691 73.1547 51.5111C73.4277 51.4521 73.6777 51.3891 73.9037 51.3201H74.0357V51.6711V51.8781V52.8481C73.9167 52.9371 73.6527 53.0921 73.1427 53.2471C72.8297 53.3431 72.4217 53.4381 71.8927 53.5181C71.8897 53.5191 71.8847 53.5191 71.8817 53.5201C71.8117 53.5301 71.7387 53.5401 71.6647 53.5501C71.5527 53.5651 71.4327 53.5791 71.3107 53.5931C71.2437 53.6001 71.1787 53.6081 71.1087 53.6151C70.9607 53.6301 70.8037 53.6431 70.6417 53.6551C70.2637 53.6831 69.8477 53.7041 69.3867 53.7151L68.7707 53.4581C68.7437 53.5201 68.6907 53.6111 68.5917 53.7231C68.5917 53.7241 68.5917 53.7241 68.5917 53.7241H68.5907C68.4717 53.8591 68.2827 54.0201 67.9977 54.1871C68.0007 54.1891 68.0037 54.1911 68.0067 54.1931Z" fill="#2988FF"/>
<path fill-rule="evenodd" clip-rule="evenodd" d="M68.0062 49.366C68.1132 49.435 68.2132 49.506 68.3002 49.582C68.3802 49.651 68.4502 49.723 68.5122 49.798C68.5422 49.834 68.5902 49.866 68.6162 49.904H68.7892L68.8012 50.097C69.6432 50.093 70.3742 50.059 71.0102 50.002C71.1252 49.992 71.2402 49.982 71.3492 49.97C71.5232 49.951 71.6922 49.932 71.8522 49.91C71.8792 49.906 71.9092 49.903 71.9362 49.899C72.2052 49.86 72.4452 49.817 72.6722 49.771C72.7302 49.759 72.7862 49.747 72.8422 49.734C72.9502 49.711 73.0552 49.686 73.1542 49.661C73.3052 49.623 73.4462 49.583 73.5752 49.541C73.6322 49.523 73.6852 49.505 73.7382 49.486C73.7582 49.479 73.7802 49.473 73.8002 49.465C73.9412 49.415 74.0712 49.363 74.1852 49.311C74.1892 49.309 74.1942 49.308 74.1972 49.306C74.3252 49.247 74.4342 49.188 74.5322 49.129C74.5662 49.108 74.6002 49.088 74.6312 49.067C74.7932 48.961 74.9132 48.859 74.9982 48.767C75.0542 48.706 75.0952 48.651 75.1262 48.601C75.1522 48.561 75.1732 48.524 75.1862 48.493L75.2012 47.537L75.2102 46.984L75.2182 46.492L75.2282 45.834L75.2312 45.615C75.2322 45.607 75.2372 45.599 75.2372 45.59C75.2372 45.583 75.2322 45.576 75.2322 45.569L75.2362 45.29H75.1042C75.0032 45.177 74.8412 45.07 74.6362 44.968C74.5642 45.003 74.4872 45.039 74.4052 45.074C74.2352 45.148 74.0392 45.22 73.8202 45.29C73.8122 45.292 73.8042 45.295 73.7972 45.297C73.2702 45.463 72.5932 45.612 71.7292 45.719C71.5392 45.743 71.3382 45.763 71.1302 45.783C71.1272 45.783 71.1242 45.783 71.1212 45.783C71.1052 45.785 71.0872 45.787 71.0702 45.788C70.9212 45.801 70.7792 45.816 70.6202 45.827C70.0792 45.864 69.4742 45.884 68.8122 45.888L68.8052 46.492L68.7992 47.091C69.4322 47.088 70.0432 47.065 70.6202 47.023C70.7732 47.012 70.9222 46.999 71.0702 46.986C71.1732 46.977 71.2742 46.967 71.3742 46.956C71.4242 46.951 71.4722 46.945 71.5202 46.94C71.7802 46.911 72.0332 46.88 72.2722 46.843C72.5872 46.796 72.8792 46.742 73.1532 46.684C73.4272 46.625 73.6782 46.561 73.9052 46.492H74.0342V46.843V47.051V48.021C73.9152 48.11 73.6512 48.265 73.1412 48.421C72.8282 48.516 72.4202 48.611 71.8912 48.691C71.8882 48.692 71.8832 48.692 71.8802 48.693C71.8102 48.703 71.7372 48.713 71.6632 48.723C71.5512 48.738 71.4312 48.752 71.3092 48.766C71.2422 48.773 71.1772 48.781 71.1072 48.788C70.9592 48.803 70.8022 48.816 70.6402 48.828C70.2622 48.856 69.8462 48.877 69.3852 48.888L68.7702 48.632C68.7422 48.693 68.6892 48.784 68.5902 48.896L68.5892 48.897C68.4702 49.032 68.2812 49.193 67.9962 49.36C68.0002 49.362 68.0032 49.364 68.0062 49.366Z" fill="#2988FF"/>
<path fill-rule="evenodd" clip-rule="evenodd" d="M71.8812 43.884C71.2402 43.981 70.4252 44.055 69.3872 44.079L68.7712 43.822C68.7432 43.884 68.6902 43.975 68.5912 44.088H68.5902C68.4722 44.223 68.2832 44.384 67.9972 44.551C68.0002 44.553 68.0042 44.555 68.0072 44.557C68.1142 44.626 68.2132 44.697 68.3002 44.772C68.3812 44.841 68.4512 44.914 68.5132 44.989C68.5432 45.025 68.5902 45.056 68.6162 45.093H68.7892L68.8012 45.288C69.6432 45.284 70.3742 45.249 71.0102 45.193C71.1242 45.183 71.2392 45.173 71.3482 45.161C71.5232 45.142 71.6922 45.122 71.8512 45.101C72.1522 45.059 72.4222 45.012 72.6722 44.962C73.0172 44.892 73.3182 44.814 73.5762 44.733C73.6542 44.707 73.7292 44.682 73.8002 44.657C73.9452 44.604 74.0802 44.551 74.1972 44.498C74.3262 44.438 74.4342 44.379 74.5332 44.32C74.5672 44.299 74.6002 44.279 74.6312 44.258C74.9002 44.082 75.0482 43.917 75.1262 43.793C75.1522 43.753 75.1732 43.715 75.1862 43.685L75.2282 41.025L75.2312 40.806C75.2322 40.798 75.2372 40.79 75.2372 40.781C75.2372 40.774 75.2322 40.767 75.2322 40.76L75.2362 40.481H75.1042C75.0032 40.368 74.8412 40.26 74.6362 40.158C74.5642 40.194 74.4872 40.229 74.4052 40.265C74.2342 40.339 74.0362 40.411 73.8172 40.481C73.8102 40.483 73.8032 40.485 73.7972 40.487C72.7812 40.808 71.2172 41.065 68.8122 41.078L68.8062 41.683L68.8002 42.282C70.8882 42.27 72.7312 42.038 73.9052 41.683H74.0342V43.212C73.8432 43.357 73.2782 43.674 71.8812 43.884Z" fill="#2988FF"/>
<path fill-rule="evenodd" clip-rule="evenodd" d="M62.3129 38.5514C62.3629 38.5524 62.4129 38.5534 62.4639 38.5554C62.8329 38.5674 63.2019 38.5874 63.5699 38.6174C64.4399 38.6884 65.2859 38.8084 66.0388 38.9874C66.3418 39.0594 66.6298 39.1394 66.8968 39.2294C66.9788 39.2564 67.0478 39.2904 67.1268 39.3194C67.1348 39.3224 67.1428 39.3264 67.1508 39.3284C67.4778 39.4534 67.7648 39.5924 68.0068 39.7484C68.1138 39.8174 68.2128 39.8884 68.3008 39.9634C68.3808 40.0324 68.4508 40.1054 68.5128 40.1794C68.5428 40.2164 68.5898 40.2474 68.6158 40.2854H68.7888L68.8008 40.4794C70.5028 40.4704 71.7538 40.3394 72.6718 40.1534C73.0168 40.0834 73.3178 40.0064 73.5748 39.9244C73.6538 39.8994 73.7278 39.8734 73.7998 39.8484C73.9448 39.7954 74.0798 39.7424 74.1968 39.6884C74.8878 39.3704 75.1148 39.0404 75.1868 38.8754L75.2288 36.2174L75.2318 35.9984C75.2328 35.9904 75.2378 35.9824 75.2378 35.9734C75.2378 35.9664 75.2328 35.9594 75.2328 35.9524L75.2368 35.6734H75.1048C75.0048 35.5604 74.8428 35.4524 74.6368 35.3504C74.5648 35.3864 74.4878 35.4214 74.4058 35.4574C74.2348 35.5314 74.0378 35.6034 73.8168 35.6734C73.8108 35.6754 73.8038 35.6774 73.7978 35.6794C72.7548 36.0094 71.1418 36.2744 68.6248 36.2744C66.1078 36.2744 64.4959 36.0094 63.4529 35.6804C63.4469 35.6784 63.4399 35.6764 63.4329 35.6744C63.2129 35.6044 63.0159 35.5314 62.8449 35.4574C62.7629 35.4224 62.6859 35.3864 62.6139 35.3514C62.4079 35.4534 62.2469 35.5614 62.1459 35.6744H62.0129V38.5464C62.1129 38.5454 62.2129 38.5494 62.3129 38.5514ZM64.0959 37.0654C65.2789 37.3194 66.8698 37.4754 68.6258 37.4754C70.7858 37.4754 72.6978 37.2394 73.9048 36.8754H74.0348V38.4024C73.8428 38.5474 73.2778 38.8644 71.8808 39.0744C71.2398 39.1714 70.4238 39.2454 69.3848 39.2694L68.3428 38.8354L64.0959 37.0654Z" fill="#2988FF"/>
<path fill-rule="evenodd" clip-rule="evenodd" d="M62.0634 34.0674C62.1354 34.2324 62.3624 34.5624 63.0524 34.8794C63.1694 34.9334 63.3044 34.9864 63.4494 35.0394C63.5214 35.0644 63.5954 35.0904 63.6744 35.1154C63.9324 35.1974 64.2324 35.2744 64.5774 35.3444C65.5294 35.5374 66.8294 35.6724 68.6253 35.6724C70.4213 35.6724 71.7213 35.5374 72.6723 35.3444C73.0173 35.2744 73.3183 35.1964 73.5763 35.1144C73.6543 35.0894 73.7293 35.0644 73.8003 35.0384C73.9453 34.9864 74.0803 34.9334 74.1973 34.8794C74.8883 34.5614 75.1143 34.2314 75.1863 34.0664L75.2283 31.4075L75.2323 31.1885C75.2323 31.1805 75.2373 31.1725 75.2373 31.1645C75.2373 31.1565 75.2333 31.1495 75.2323 31.1425L75.2373 30.8635H75.1043C74.4913 30.1775 71.8243 29.6615 68.6243 29.6615C65.4254 29.6615 62.7574 30.1775 62.1454 30.8635H62.0124V33.8254V33.8264L62.0634 34.0674ZM69.3853 34.4614L68.3433 34.0264L64.0954 32.2565C65.2794 32.5105 66.8704 32.6665 68.6253 32.6665C70.7873 32.6665 72.7003 32.4305 73.9063 32.0655H74.0353V33.5935C73.8433 33.7384 73.2783 34.0554 71.8813 34.2664C71.2393 34.3624 70.4243 34.4364 69.3853 34.4614Z" fill="#2988FF"/>
<path fill-rule="evenodd" clip-rule="evenodd" d="M68.3663 73.8732H68.2343C68.2293 73.8672 68.2213 73.8612 68.2163 73.8562C68.1673 73.8042 68.1053 73.7532 68.0333 73.7042C67.9573 73.6512 67.8663 73.6002 67.7663 73.5502C67.6943 73.5852 67.6173 73.6212 67.5353 73.6572C67.5103 73.6672 67.4873 73.6782 67.4603 73.6892C67.3523 73.7342 67.2343 73.7782 67.1073 73.8222C67.0573 73.8392 66.9993 73.8562 66.9463 73.8732C66.9403 73.8752 66.9333 73.8772 66.9273 73.8792C66.5923 73.9852 66.1943 74.0832 65.7303 74.1682C64.7473 74.3492 63.4623 74.4732 61.7533 74.4732C59.2363 74.4732 57.6233 74.2082 56.5803 73.8792C56.5743 73.8772 56.5673 73.8752 56.5613 73.8732C56.3413 73.8032 56.1443 73.7312 55.9733 73.6572C55.8913 73.6212 55.8133 73.5852 55.7423 73.5502C55.5363 73.6522 55.3743 73.7602 55.2733 73.8732H55.1413V74.1732V74.4172V76.4521V76.5451V76.8351L55.1923 77.0771C55.2463 77.2001 55.3893 77.4141 55.7403 77.6461C55.8143 77.6941 55.9003 77.7441 55.9943 77.7941C56.0613 77.8301 56.1313 77.8651 56.2093 77.9001C56.3923 77.9831 56.6063 78.0651 56.8583 78.1431C56.9573 78.1731 57.0683 78.2021 57.1793 78.2311C58.1563 78.4881 59.6003 78.6821 61.7533 78.6821C63.9073 78.6821 65.3503 78.4881 66.3273 78.2311C66.4383 78.2021 66.5493 78.1731 66.6483 78.1431C66.9013 78.0651 67.1153 77.9831 67.2983 77.9001C67.3763 77.8651 67.4453 77.8291 67.5123 77.7941C67.6073 77.7441 67.6923 77.6941 67.7673 77.6451C68.1183 77.4131 68.2613 77.1981 68.3153 77.0751L68.3573 74.4172L68.3593 74.3082L68.3603 74.1972C68.3613 74.1892 68.3663 74.1812 68.3663 74.1732C68.3663 74.1662 68.3613 74.1592 68.3613 74.1522L68.3663 73.8732ZM67.1633 75.0752V76.6021C67.0333 76.7011 66.7323 76.8781 66.1163 77.0481C65.8623 77.1181 65.5533 77.1861 65.1823 77.2471C65.1233 77.2571 65.0623 77.2661 65.0003 77.2761C64.3603 77.3721 63.5473 77.4451 62.5143 77.4701L61.4633 77.0321H61.4623L60.4723 76.6191L57.2233 75.2652C58.4073 75.5192 59.9983 75.6752 61.7533 75.6752C63.9143 75.6752 65.8263 75.4392 67.0323 75.0752H67.1633Z" fill="#2988FF"/>
<path fill-rule="evenodd" clip-rule="evenodd" d="M56.1813 73.0804C56.2983 73.1344 56.4333 73.1874 56.5783 73.2394C56.6493 73.2654 56.7243 73.2903 56.8033 73.3153C57.0603 73.3973 57.3603 73.4743 57.7053 73.5443C58.6573 73.7373 59.9573 73.8733 61.7543 73.8733C62.5023 73.8733 63.1583 73.8483 63.7473 73.8073C64.3043 73.7673 64.7933 73.7133 65.2233 73.6463C65.3983 73.6193 65.5663 73.5913 65.7223 73.5613C65.7503 73.5563 65.7743 73.5503 65.8013 73.5443C66.1083 73.4823 66.3853 73.4153 66.6223 73.3433C66.6523 73.3343 66.6763 73.3243 66.7043 73.3153C66.7833 73.2903 66.8583 73.2654 66.9293 73.2394C66.9913 73.2174 67.0503 73.1944 67.1073 73.1714C67.1823 73.1414 67.2593 73.1114 67.3263 73.0804C67.7663 72.8774 68.0143 72.6714 68.1573 72.5054C68.2383 72.4104 68.2893 72.3274 68.3153 72.2674L68.3193 72.0564L68.3403 70.7034L68.3493 70.1064L68.3523 69.9504L68.3573 69.6074L68.3593 69.4994L68.3613 69.3884C68.3613 69.3804 68.3663 69.3724 68.3663 69.3644C68.3663 69.3594 68.3633 69.3544 68.3633 69.3504C68.3633 69.3474 68.3623 69.3454 68.3613 69.3434L68.3663 69.0634H68.2333C68.2283 69.0584 68.2223 69.0534 68.2173 69.0484C68.1743 69.0034 68.1243 68.9584 68.0643 68.9144C68.0593 68.9104 68.0523 68.9074 68.0473 68.9034C67.9673 68.8474 67.8713 68.7934 67.7653 68.7404C67.6933 68.7764 67.6163 68.8124 67.5343 68.8474C67.5223 68.8534 67.5133 68.8574 67.5023 68.8624C67.4693 68.8764 67.4323 68.8904 67.3983 68.9044C67.3043 68.9414 67.2083 68.9794 67.1013 69.0154C67.0533 69.0324 66.9983 69.0474 66.9473 69.0644C66.9413 69.0664 66.9333 69.0684 66.9263 69.0704C66.7203 69.1354 66.4893 69.1974 66.2353 69.2564C66.0793 69.2924 65.9143 69.3264 65.7393 69.3584C65.2963 69.4404 64.7873 69.5094 64.2073 69.5614C63.6873 69.6084 63.1073 69.6404 62.4633 69.6544C62.4153 69.6554 62.3663 69.6554 62.3183 69.6564C62.2163 69.6584 62.1173 69.6604 62.0123 69.6614C61.9233 69.6624 61.8443 69.6654 61.7533 69.6654C61.6863 69.6654 61.6283 69.6624 61.5623 69.6624C59.1583 69.6484 57.5953 69.3914 56.5803 69.0704C56.5733 69.0684 56.5653 69.0664 56.5593 69.0644C56.3393 68.9944 56.1433 68.9224 55.9723 68.8484C55.8903 68.8134 55.8143 68.7774 55.7413 68.7414C55.5363 68.8434 55.3743 68.9514 55.2733 69.0644H55.1403V69.3644V69.6084V71.6434V71.7354V72.0264L55.1913 72.2684C55.2653 72.4334 55.4913 72.7624 56.1813 73.0804ZM61.5633 70.8644C61.6273 70.8654 61.6893 70.8674 61.7543 70.8674C61.8413 70.8674 61.9263 70.8644 62.0133 70.8644C62.0823 70.8634 62.1513 70.8624 62.2203 70.8614C62.3013 70.8604 62.3833 70.8604 62.4633 70.8584C62.7193 70.8514 62.9693 70.8414 63.2153 70.8284C63.8493 70.7964 64.4483 70.7434 64.9993 70.6724C65.2673 70.6384 65.5223 70.5994 65.7663 70.5574C66.2453 70.4734 66.6723 70.3754 67.0353 70.2664H67.1643V70.6684V71.5754V71.7944C67.0053 71.9144 66.5893 72.1514 65.6643 72.3484C65.4693 72.3904 65.2533 72.4304 65.0103 72.4664C64.5103 72.5414 63.9043 72.6034 63.1683 72.6384C63.1573 72.6394 63.1473 72.6394 63.1363 72.6404C62.9613 72.6484 62.7753 72.6544 62.5843 72.6594C62.5603 72.6604 62.5393 72.6614 62.5143 72.6624L62.1293 72.5014L61.5623 72.2654L61.4723 72.2284L57.2233 70.4574C58.3643 70.7014 59.8833 70.8534 61.5633 70.8644Z" fill="#2988FF"/>
<path fill-rule="evenodd" clip-rule="evenodd" d="M56.1808 68.2705C56.2978 68.3245 56.4328 68.3775 56.5788 68.4295C56.6498 68.4555 56.7248 68.4815 56.8028 68.5055C57.0608 68.5875 57.3608 68.6645 57.7058 68.7345C58.6218 68.9205 59.8678 69.0505 61.5628 69.0595C61.6278 69.0605 61.6868 69.0625 61.7538 69.0625C61.8448 69.0625 61.9248 69.0595 62.0128 69.0595C62.0238 69.0595 62.0338 69.0585 62.0448 69.0585C62.1328 69.0585 62.2178 69.0565 62.3038 69.0545C62.4208 69.0525 62.5448 69.0525 62.6568 69.0505C62.8438 69.0445 63.0168 69.0365 63.1928 69.0275C63.4018 69.0175 63.6058 69.0065 63.7988 68.9925C63.9548 68.9815 64.1098 68.9695 64.2558 68.9555C64.4228 68.9405 64.5788 68.9215 64.7318 68.9035C64.9068 68.8815 65.0758 68.8595 65.2338 68.8345C65.4358 68.8035 65.6258 68.7705 65.8018 68.7345C65.8878 68.7165 65.9728 68.6985 66.0518 68.6805C66.2938 68.6255 66.5108 68.5665 66.7048 68.5055C66.7828 68.4795 66.8578 68.4545 66.9288 68.4295C67.0738 68.3765 67.2098 68.3235 67.3268 68.2695C67.3888 68.2415 67.4408 68.2125 67.4958 68.1845C67.5288 68.1675 67.5668 68.1495 67.5968 68.1325C67.8668 67.9805 68.0368 67.8335 68.1478 67.7065L68.1488 67.7055C68.1658 67.6855 68.1848 67.6655 68.1988 67.6475C68.2568 67.5725 68.2938 67.5075 68.3158 67.4575L68.3188 67.2575L68.3328 66.3445L68.3428 65.7476L68.3518 65.1406L68.3578 64.7986L68.3598 64.6906L68.3608 64.5786C68.3618 64.5706 68.3668 64.5626 68.3668 64.5546C68.3668 64.5516 68.3648 64.5486 68.3648 64.5456C68.3648 64.5436 68.3638 64.5426 68.3638 64.5416C68.3638 64.5386 68.3618 64.5366 68.3618 64.5336L68.3668 64.2546H68.2338C68.2298 64.2496 68.2228 64.2446 68.2178 64.2396C68.1748 64.1936 68.1248 64.1496 68.0648 64.1056C67.9818 64.0456 67.8788 63.9876 67.7648 63.9316C67.6938 63.9676 67.6168 64.0026 67.5348 64.0386C67.5228 64.0436 67.5138 64.0486 67.5018 64.0536C67.3798 64.1046 67.2458 64.1566 67.1008 64.2056C67.0518 64.2226 66.9968 64.2386 66.9458 64.2546C66.9398 64.2566 66.9328 64.2586 66.9268 64.2606C66.7198 64.3256 66.4878 64.3886 66.2328 64.4466C66.0828 64.4816 65.9228 64.5136 65.7548 64.5456C65.7498 64.5466 65.7438 64.5466 65.7388 64.5486C65.2948 64.6306 64.7858 64.6986 64.2048 64.7516C63.7948 64.7886 63.3588 64.8186 62.8728 64.8356C62.6508 64.8426 62.4098 64.8456 62.1708 64.8486C62.1178 64.8486 62.0678 64.8506 62.0138 64.8506H62.0128C61.9238 64.8516 61.8448 64.8546 61.7538 64.8546C61.6868 64.8546 61.6288 64.8516 61.5628 64.8516C59.1598 64.8376 57.5958 64.5806 56.5808 64.2606C56.5748 64.2586 56.5678 64.2566 56.5618 64.2546C56.3418 64.1846 56.1448 64.1126 55.9738 64.0386C55.8918 64.0026 55.8138 63.9666 55.7428 63.9316C55.5368 64.0336 55.3748 64.1416 55.2738 64.2546H55.1408V64.5556V64.7986V66.8345V66.9265V67.2175L55.1918 67.4595C55.2648 67.6245 55.4908 67.9535 56.1808 68.2705ZM61.5628 66.0555C61.6268 66.0555 61.6898 66.0575 61.7538 66.0575C61.8418 66.0575 61.9268 66.0555 62.0128 66.0545C62.1328 66.0535 62.2528 66.0535 62.3708 66.0505C62.4018 66.0505 62.4328 66.0495 62.4638 66.0495C62.7188 66.0425 62.9688 66.0325 63.2158 66.0205C63.5328 66.0035 63.8398 65.9825 64.1378 65.9555C64.1478 65.9545 64.1578 65.9545 64.1678 65.9535C64.7458 65.9015 65.2818 65.8315 65.7668 65.7476C66.2448 65.6646 66.6708 65.5666 67.0338 65.4576H67.1638V65.7476V66.3095V66.9855C67.1158 67.0215 67.0408 67.0695 66.9388 67.1225C66.7948 67.1985 66.5898 67.2865 66.3018 67.3755C65.9828 67.4745 65.5608 67.5735 65.0108 67.6565C64.8018 67.6885 64.5748 67.7165 64.3278 67.7425C64.2548 67.7505 64.1808 67.7575 64.1038 67.7645C63.6998 67.8015 63.2428 67.8285 62.7338 67.8445C62.6598 67.8475 62.5898 67.8505 62.5128 67.8525L62.4638 67.8315L62.0438 67.6565L62.0128 67.6435L61.5628 67.4555L61.4708 67.4175L57.2238 65.6486C58.3638 65.8915 59.8838 66.0445 61.5628 66.0555Z" fill="#2988FF"/>
<path fill-rule="evenodd" clip-rule="evenodd" d="M56.1813 63.4617C56.2983 63.5157 56.4333 63.5687 56.5783 63.6207C56.6503 63.6467 56.7243 63.6727 56.8033 63.6967C57.0613 63.7787 57.3613 63.8557 57.7063 63.9257C58.6583 64.1187 59.9573 64.2547 61.7533 64.2547C61.8913 64.2547 62.0143 64.2507 62.1463 64.2487C62.2883 64.2477 62.4323 64.2457 62.5683 64.2427C62.5963 64.2417 62.6283 64.2427 62.6563 64.2417C62.7943 64.2377 62.9213 64.2307 63.0533 64.2257C63.3133 64.2147 63.5633 64.2007 63.7983 64.1837C63.9553 64.1727 64.1093 64.1607 64.2543 64.1467C64.6122 64.1137 64.9352 64.0717 65.2322 64.0267C65.4342 63.9947 65.6242 63.9617 65.8002 63.9257C65.8872 63.9077 65.9712 63.8897 66.0522 63.8717C66.2932 63.8167 66.5102 63.7577 66.7032 63.6967C66.7822 63.6707 66.8572 63.6457 66.9282 63.6207C67.0732 63.5677 67.2082 63.5147 67.3252 63.4607C67.3912 63.4307 67.4462 63.4007 67.5032 63.3707C67.5072 63.3687 67.5112 63.3667 67.5152 63.3647C67.5412 63.3517 67.5712 63.3377 67.5952 63.3237C67.8602 63.1747 68.0302 63.0287 68.1422 62.9037C68.1622 62.8807 68.1812 62.8587 68.1982 62.8377C68.2562 62.7627 68.2932 62.6977 68.3152 62.6477L68.3322 61.5347L68.3422 60.9367L68.3512 60.3317L68.3572 59.9887L68.3592 59.8807L68.3602 59.7697C68.3612 59.7617 68.3662 59.7537 68.3662 59.7457C68.3662 59.7417 68.3632 59.7387 68.3632 59.7357C68.3632 59.7337 68.3632 59.7327 68.3632 59.7317C68.3632 59.7287 68.3612 59.7277 68.3612 59.7247L68.3652 59.4457H68.2332C68.2292 59.4407 68.2222 59.4357 68.2172 59.4307C68.1742 59.3847 68.1252 59.3397 68.0642 59.2957C67.9822 59.2367 67.8782 59.1787 67.7652 59.1227C67.6932 59.1587 67.6162 59.1937 67.5342 59.2297C67.5232 59.2347 67.5142 59.2397 67.5022 59.2437C67.3802 59.2957 67.2462 59.3477 67.1002 59.3977C67.0522 59.4147 66.9972 59.4297 66.9462 59.4457C66.9392 59.4477 66.9332 59.4497 66.9262 59.4517C66.7202 59.5167 66.4902 59.5787 66.2362 59.6377C66.0862 59.6717 65.9282 59.7047 65.7612 59.7357C65.7542 59.7367 65.7462 59.7377 65.7392 59.7397C65.2962 59.8217 64.7872 59.8907 64.2063 59.9427C63.7963 59.9797 63.3593 60.0097 62.8733 60.0267C62.6513 60.0347 62.4093 60.0367 62.1703 60.0397C62.1183 60.0407 62.0683 60.0417 62.0143 60.0417H62.0133C61.9243 60.0427 61.8453 60.0457 61.7543 60.0457C61.6873 60.0457 61.6293 60.0437 61.5633 60.0427C59.1593 60.0297 57.5963 59.7727 56.5813 59.4517C56.5753 59.4497 56.5683 59.4477 56.5613 59.4457C56.3413 59.3757 56.1443 59.3037 55.9733 59.2297C55.8913 59.1937 55.8143 59.1587 55.7423 59.1227C55.5363 59.2247 55.3753 59.3327 55.2743 59.4457H55.1423V59.7457V59.9897V62.0247V62.1177V62.4077L55.1923 62.6497C55.2653 62.8147 55.4913 63.1437 56.1813 63.4617ZM61.5633 61.2467C61.6273 61.2467 61.6893 61.2487 61.7543 61.2487C61.8413 61.2487 61.9263 61.2467 62.0133 61.2457C62.1333 61.2447 62.2533 61.2437 62.3713 61.2417C62.4023 61.2407 62.4323 61.2407 62.4633 61.2397C62.7193 61.2337 62.9693 61.2237 63.2153 61.2107C63.5323 61.1947 63.8393 61.1727 64.1383 61.1467C64.1483 61.1457 64.1583 61.1447 64.1683 61.1437C64.7472 61.0927 65.2842 61.0227 65.7702 60.9377C66.2472 60.8547 66.6712 60.7577 67.0332 60.6487H67.1642V60.9377V61.5007V62.1757C67.1162 62.2117 67.0412 62.2597 66.9392 62.3137C66.6352 62.4737 66.0562 62.6897 65.0102 62.8477C64.8022 62.8787 64.5742 62.9077 64.3273 62.9327C63.8693 62.9807 63.3403 63.0167 62.7343 63.0357C62.6603 63.0377 62.5903 63.0407 62.5143 63.0427L62.4643 63.0217L62.0443 62.8467L62.0133 62.8337L61.5633 62.6457L61.4723 62.6077L57.2233 60.8387C58.3633 61.0827 59.8833 61.2357 61.5633 61.2467Z" fill="#2988FF"/>
<path fill-rule="evenodd" clip-rule="evenodd" d="M56.1813 58.6527C56.2983 58.7067 56.4333 58.7597 56.5783 58.8117C56.6493 58.8377 56.7243 58.8627 56.8033 58.8877C57.0603 58.9697 57.3613 59.0467 57.7063 59.1167C58.6573 59.3097 59.9573 59.4457 61.7543 59.4457C61.8913 59.4457 62.0133 59.4417 62.1453 59.4397C62.2873 59.4387 62.4323 59.4377 62.5683 59.4337C62.5973 59.4337 62.6293 59.4337 62.6583 59.4327C62.7963 59.4287 62.9223 59.4217 63.0533 59.4167C63.3143 59.4057 63.5643 59.3917 63.8003 59.3747C63.9573 59.3637 64.1123 59.3517 64.2583 59.3387C64.6143 59.3047 64.9373 59.2637 65.2333 59.2177C65.4353 59.1857 65.6253 59.1527 65.8023 59.1167C65.8883 59.0987 65.9733 59.0807 66.0543 59.0627C66.2953 59.0077 66.5123 58.9487 66.7053 58.8877C66.7843 58.8627 66.8583 58.8367 66.9293 58.8117C67.0753 58.7597 67.2093 58.7057 67.3263 58.6517C67.3923 58.6217 67.4483 58.5917 67.5053 58.5617C67.5093 58.5597 67.5133 58.5577 67.5173 58.5557C67.5433 58.5417 67.5743 58.5277 67.5983 58.5147C67.8633 58.3647 68.0323 58.2187 68.1443 58.0937C68.1633 58.0717 68.1833 58.0497 68.1993 58.0287C68.2573 57.9547 68.2943 57.8887 68.3163 57.8387L68.3343 56.7257L68.3433 56.1287L68.3533 55.5217L68.3583 55.1797L68.3603 55.0717L68.3623 54.9607C68.3623 54.9527 68.3673 54.9447 68.3673 54.9367C68.3673 54.9327 68.3653 54.9297 68.3653 54.9257C68.3653 54.9247 68.3643 54.9237 68.3633 54.9227C68.3633 54.9207 68.3623 54.9177 68.3623 54.9157L68.3663 54.6357H68.2343C68.2293 54.6307 68.2223 54.6257 68.2173 54.6207C68.1743 54.5757 68.1253 54.5307 68.0653 54.4867C67.9823 54.4267 67.8793 54.3697 67.7653 54.3127C67.6943 54.3487 67.6173 54.3847 67.5353 54.4197C67.5233 54.4247 67.5143 54.4297 67.5033 54.4347C67.3813 54.4867 67.2473 54.5377 67.1023 54.5877C67.0543 54.6037 66.9993 54.6197 66.9493 54.6357C66.9423 54.6377 66.9343 54.6407 66.9273 54.6427C66.7213 54.7077 66.4903 54.7697 66.2363 54.8287C66.0863 54.8627 65.9273 54.8957 65.7603 54.9267C65.7543 54.9277 65.7473 54.9287 65.7403 54.9307C65.2973 55.0127 64.7883 55.0817 64.2083 55.1337C63.7973 55.1707 63.3603 55.2007 62.8723 55.2177C62.6503 55.2257 62.4093 55.2277 62.1703 55.2307C62.1183 55.2317 62.0683 55.2327 62.0143 55.2327H62.0133C61.9243 55.2337 61.8453 55.2377 61.7543 55.2377C61.6863 55.2377 61.6283 55.2347 61.5623 55.2337C59.1593 55.2207 57.5953 54.9627 56.5813 54.6427C56.5743 54.6407 56.5663 54.6377 56.5593 54.6357C56.3403 54.5667 56.1433 54.4937 55.9733 54.4207C55.8913 54.3847 55.8143 54.3487 55.7423 54.3137C55.5363 54.4157 55.3753 54.5237 55.2743 54.6357H55.1413V54.9367V55.1807V57.2157V57.3087V57.5987L55.1923 57.8407C55.2653 58.0057 55.4913 58.3347 56.1813 58.6527ZM61.5633 56.4377C61.6273 56.4377 61.6893 56.4397 61.7543 56.4397C61.8413 56.4397 61.9263 56.4377 62.0133 56.4367C62.1333 56.4357 62.2533 56.4347 62.3713 56.4327C62.4023 56.4317 62.4323 56.4317 62.4633 56.4307C62.7193 56.4247 62.9693 56.4147 63.2153 56.4017C63.5323 56.3857 63.8393 56.3637 64.1373 56.3377C64.1473 56.3367 64.1583 56.3357 64.1683 56.3347C64.7463 56.2837 65.2833 56.2137 65.7683 56.1297C66.2473 56.0457 66.6723 55.9487 67.0353 55.8387H67.1643V56.1297V56.6917V57.3677C67.1153 57.4037 67.0413 57.4517 66.9393 57.5047C66.6353 57.6647 66.0563 57.8817 65.0103 58.0397C64.8023 58.0707 64.5753 58.0987 64.3283 58.1247C63.8703 58.1727 63.3413 58.2087 62.7343 58.2277C62.6613 58.2297 62.5913 58.2327 62.5153 58.2347L62.4643 58.2137L62.0443 58.0387L62.0133 58.0257L61.5633 57.8377L61.4733 57.8007L57.2243 56.0297C58.3643 56.2737 59.8833 56.4267 61.5633 56.4377Z" fill="#2988FF"/>
<path fill-rule="evenodd" clip-rule="evenodd" d="M56.1808 53.8436C56.2978 53.8976 56.4328 53.9506 56.5788 54.0026C56.6498 54.0286 56.7248 54.0536 56.8028 54.0786C57.0608 54.1606 57.3608 54.2376 57.7058 54.3076C58.6578 54.5006 59.9578 54.6366 61.7538 54.6366C61.8918 54.6366 62.0148 54.6326 62.1468 54.6306C62.2888 54.6286 62.4338 54.6276 62.5698 54.6246C62.5978 54.6236 62.6288 54.6246 62.6568 54.6236C62.7958 54.6196 62.9228 54.6126 63.0548 54.6066C63.3138 54.5966 63.5638 54.5826 63.7988 54.5656C63.9548 54.5546 64.1098 54.5426 64.2558 54.5296C64.6128 54.4956 64.9358 54.4546 65.2338 54.4086C65.4358 54.3766 65.6248 54.3436 65.8018 54.3076C65.8878 54.2906 65.9718 54.2726 66.0518 54.2536C66.2938 54.1986 66.5108 54.1406 66.7048 54.0786C66.7827 54.0536 66.8577 54.0286 66.9287 54.0026C67.0737 53.9506 67.2097 53.8976 67.3267 53.8436C67.3917 53.8136 67.4477 53.7836 67.5047 53.7526C67.5087 53.7506 67.5127 53.7486 67.5167 53.7466C67.5427 53.7336 67.5727 53.7196 67.5967 53.7056C67.8627 53.5556 68.0317 53.4106 68.1427 53.2856C68.1627 53.2626 68.1817 53.2406 68.1987 53.2206C68.2557 53.1456 68.2937 53.0806 68.3147 53.0306L68.3327 51.9176L68.3427 51.3206L68.3517 50.7136L68.3577 50.3716L68.3587 50.2636L68.3607 50.1516C68.3617 50.1436 68.3657 50.1356 68.3657 50.1276C68.3657 50.1246 68.3637 50.1216 68.3637 50.1186C68.3637 50.1166 68.3637 50.1156 68.3637 50.1146C68.3637 50.1116 68.3617 50.1096 68.3617 50.1076L68.3657 49.8276H68.2337C68.2287 49.8226 68.2227 49.8176 68.2177 49.8126C68.1747 49.7666 68.1247 49.7226 68.0647 49.6786C67.9817 49.6186 67.8787 49.5616 67.7647 49.5046C67.6937 49.5406 67.6167 49.5756 67.5347 49.6116C67.5227 49.6166 67.5137 49.6216 67.5017 49.6266C67.3797 49.6786 67.2457 49.7296 67.1007 49.7796C67.0517 49.7956 66.9967 49.8116 66.9457 49.8276C66.9397 49.8296 66.9327 49.8316 66.9267 49.8336C66.7198 49.8996 66.4878 49.9616 66.2328 50.0206C66.0828 50.0546 65.9228 50.0866 65.7548 50.1186C65.7498 50.1196 65.7438 50.1206 65.7388 50.1216C65.2948 50.2036 64.7858 50.2726 64.2058 50.3246C63.7958 50.3616 63.3598 50.3916 62.8738 50.4086C62.6518 50.4166 62.4098 50.4186 62.1708 50.4216C62.1178 50.4226 62.0688 50.4236 62.0148 50.4246H62.0128C61.9248 50.4246 61.8448 50.4286 61.7538 50.4286C61.6868 50.4286 61.6288 50.4256 61.5628 50.4246C59.1598 50.4116 57.5968 50.1546 56.5818 49.8336C56.5748 49.8316 56.5678 49.8296 56.5618 49.8276C56.3418 49.7586 56.1448 49.6856 55.9738 49.6116C55.8918 49.5766 55.8148 49.5406 55.7428 49.5046C55.5368 49.6076 55.3748 49.7156 55.2748 49.8286H55.1418V50.1286V50.3726V52.4076V52.4996V52.7906L55.1928 53.0326C55.2648 53.1976 55.4908 53.5266 56.1808 53.8436ZM61.5628 51.6287C61.6268 51.6287 61.6898 51.6307 61.7538 51.6307C61.8418 51.6307 61.9268 51.6287 62.0128 51.6277C62.1328 51.6267 62.2528 51.6257 62.3708 51.6237C62.4018 51.6227 62.4328 51.6227 62.4638 51.6217C62.7188 51.6157 62.9688 51.6057 63.2158 51.5927C63.5328 51.5767 63.8398 51.5547 64.1378 51.5287C64.1478 51.5277 64.1578 51.5267 64.1688 51.5257C64.7458 51.4747 65.2818 51.4047 65.7658 51.3207C66.2448 51.2367 66.6708 51.1397 67.0337 51.0297H67.1637V51.3207V51.8827V52.5587C67.1157 52.5947 67.0407 52.6427 66.9387 52.6957C66.6347 52.8557 66.0568 53.0727 65.0108 53.2297C64.8018 53.2617 64.5748 53.2897 64.3278 53.3157C63.8698 53.3627 63.3398 53.3987 62.7338 53.4177C62.6598 53.4197 62.5898 53.4227 62.5128 53.4247L62.4638 53.4047L62.0438 53.2297L62.0128 53.2167L61.5628 53.0287L61.4708 52.9907L57.2238 51.2207C58.3638 51.4647 59.8838 51.6177 61.5628 51.6287Z" fill="#2988FF"/>
<path fill-rule="evenodd" clip-rule="evenodd" d="M56.1813 49.0162C56.2983 49.0702 56.4333 49.1232 56.5793 49.1752C56.6503 49.2012 56.7253 49.2262 56.8033 49.2512C57.0613 49.3332 57.3613 49.4102 57.7063 49.4802C58.6583 49.6732 59.9583 49.8092 61.7543 49.8092C61.8913 49.8092 62.0143 49.8052 62.1463 49.8032C62.2893 49.8022 62.4333 49.8012 62.5693 49.7972C62.5973 49.7972 62.6293 49.7972 62.6563 49.7962C62.7953 49.7922 62.9223 49.7852 63.0543 49.7802C63.3143 49.7692 63.5633 49.7552 63.7983 49.7392C63.9553 49.7272 64.1103 49.7162 64.2563 49.7022C64.6133 49.6682 64.9362 49.6272 65.2332 49.5812C65.4352 49.5502 65.6252 49.5162 65.8012 49.4802C65.8872 49.4632 65.9722 49.4452 66.0522 49.4272C66.2932 49.3722 66.5112 49.3132 66.7042 49.2512C66.7832 49.2262 66.8572 49.2012 66.9282 49.1752C67.0742 49.1232 67.2092 49.0702 67.3262 49.0162C67.3912 48.9862 67.4472 48.9562 67.5042 48.9262C67.5082 48.9242 67.5122 48.9222 67.5162 48.9202C67.5422 48.9062 67.5722 48.8932 67.5962 48.8792C67.8622 48.7302 68.0312 48.5842 68.1432 48.4582C68.1622 48.4362 68.1822 48.4142 68.1992 48.3932C68.2572 48.3182 68.2942 48.2532 68.3162 48.2032L68.3342 47.0912L68.3432 46.4932L68.3532 45.8872L68.3582 45.5452L68.3602 45.4372L68.3622 45.3252C68.3622 45.3172 68.3672 45.3092 68.3672 45.3012C68.3672 45.2982 68.3652 45.2942 68.3652 45.2912C68.3652 45.2912 68.3642 45.2892 68.3642 45.2882C68.3642 45.2852 68.3622 45.2832 68.3622 45.2802L68.3672 45.0012H68.2342C68.2302 44.9962 68.2232 44.9912 68.2182 44.9862C68.1752 44.9402 68.1262 44.8952 68.0652 44.8512C67.9832 44.7922 67.8792 44.7342 67.7662 44.6782C67.6942 44.7142 67.6172 44.7492 67.5352 44.7852C67.5242 44.7902 67.5142 44.7942 67.5032 44.7992C67.3812 44.8512 67.2472 44.9022 67.1012 44.9522C67.0532 44.9692 66.9982 44.9842 66.9462 45.0012C66.9402 45.0032 66.9332 45.0052 66.9272 45.0072C66.7202 45.0722 66.4882 45.1342 66.2332 45.1932C66.0852 45.2272 65.9272 45.2592 65.7612 45.2902C65.7542 45.2922 65.7462 45.2932 65.7392 45.2942C65.2952 45.3762 64.7862 45.4452 64.2063 45.4972C63.7963 45.5342 63.3603 45.5642 62.8743 45.5812C62.6523 45.5892 62.4103 45.5912 62.1713 45.5942C62.1183 45.5952 62.0683 45.5972 62.0153 45.5972H62.0143C61.9253 45.5982 61.8453 45.6012 61.7543 45.6012C61.6873 45.6012 61.6293 45.5982 61.5633 45.5982C59.1603 45.5842 57.5973 45.3272 56.5823 45.0072C56.5753 45.0052 56.5683 45.0032 56.5623 45.0012C56.3423 44.9312 56.1453 44.8582 55.9743 44.7852C55.8923 44.7492 55.8143 44.7132 55.7433 44.6782C55.5373 44.7802 55.3753 44.8882 55.2743 45.0012H55.1423V45.3012V45.5452V47.5802V47.6732V47.9622L55.1923 48.2042C55.2643 48.3692 55.4913 48.6982 56.1813 49.0162ZM61.5623 46.8012C61.6273 46.8012 61.6893 46.8032 61.7543 46.8032C61.8413 46.8032 61.9263 46.8012 62.0133 46.8002C62.1333 46.7992 62.2533 46.7992 62.3713 46.7962C62.4013 46.7962 62.4323 46.7952 62.4633 46.7952C62.7193 46.7882 62.9693 46.7782 63.2153 46.7662C63.5323 46.7492 63.8393 46.7282 64.1373 46.7012C64.1473 46.7002 64.1583 46.7002 64.1673 46.6992C64.7472 46.6472 65.2852 46.5772 65.7712 46.4922C66.2482 46.4092 66.6712 46.3122 67.0332 46.2032H67.1632V46.4922V47.0562V47.7302C67.1152 47.7672 67.0402 47.8152 66.9382 47.8682C66.6342 48.0282 66.0562 48.2452 65.0092 48.4022C64.8012 48.4342 64.5742 48.4622 64.3263 48.4882C63.8693 48.5352 63.3393 48.5712 62.7333 48.5902C62.6593 48.5922 62.5893 48.5952 62.5133 48.5972L62.4633 48.5772L62.0443 48.4022L62.0133 48.3892L61.5623 48.2012L61.4713 48.1632L57.2243 46.3932C58.3643 46.6372 59.8833 46.7902 61.5623 46.8012Z" fill="#2988FF"/>
<path fill-rule="evenodd" clip-rule="evenodd" d="M56.1813 44.2076C56.2983 44.2616 56.4333 44.3146 56.5783 44.3666C56.6503 44.3926 56.7243 44.4186 56.8033 44.4426C57.0613 44.5246 57.3613 44.6016 57.7063 44.6716C58.6583 44.8646 59.9583 45.0006 61.7543 45.0006C61.8913 45.0006 62.0143 44.9966 62.1463 44.9946C62.2883 44.9936 62.4333 44.9926 62.5683 44.9886C62.5963 44.9886 62.6283 44.9886 62.6563 44.9876C62.7953 44.9836 62.9213 44.9766 63.0533 44.9716C63.3133 44.9606 63.5633 44.9466 63.7993 44.9296C63.9553 44.9186 64.1103 44.9066 64.2553 44.8936C64.6123 44.8596 64.9353 44.8186 65.2333 44.7726C65.4353 44.7406 65.6243 44.7076 65.8013 44.6716C65.8873 44.6536 65.9723 44.6356 66.0523 44.6176C66.2933 44.5626 66.5113 44.5036 66.7043 44.4426C66.7833 44.4176 66.8573 44.3916 66.9283 44.3666C67.0743 44.3146 67.2093 44.2606 67.3263 44.2066C67.3913 44.1766 67.4473 44.1466 67.5043 44.1166C67.5083 44.1146 67.5123 44.1126 67.5163 44.1106C67.5413 44.0966 67.5713 44.0836 67.5953 44.0696C67.8603 43.9206 68.0303 43.7746 68.1423 43.6496C68.1623 43.6266 68.1813 43.6046 68.1983 43.5836C68.2563 43.5086 68.2933 43.4436 68.3153 43.3936L68.3323 42.2806L68.3423 41.6826L68.3513 41.0766L68.3573 40.7346L68.3593 40.6266L68.3603 40.5146C68.3613 40.5066 68.3663 40.4986 68.3663 40.4906C68.3663 40.4876 68.3633 40.4846 68.3633 40.4806C68.3633 40.4796 68.3633 40.4776 68.3633 40.4776C68.3633 40.4746 68.3613 40.4726 68.3613 40.4696L68.3653 40.1896H68.2333C68.2283 40.1846 68.2213 40.1796 68.2163 40.1746C68.1743 40.1296 68.1243 40.0846 68.0643 40.0406C67.9283 39.9426 67.7483 39.8496 67.5313 39.7606C67.2033 39.6266 66.7853 39.5056 66.2983 39.4016C66.2703 39.3946 66.2403 39.3896 66.2103 39.3836C65.8083 39.2996 65.3643 39.2256 64.8803 39.1666C64.2343 39.0876 63.5213 39.0336 62.7693 39.0076C62.6733 39.0046 62.5793 39.0006 62.4833 38.9976C62.3663 38.9946 62.2473 38.9936 62.1293 38.9926C62.0903 38.9916 62.0513 38.9916 62.0123 38.9906C61.9263 38.9896 61.8413 38.9876 61.7533 38.9876C61.6893 38.9876 61.6263 38.9896 61.5623 38.9896C58.4493 39.0106 55.8743 39.5176 55.2743 40.1896H55.1413V40.4906V40.7346V42.7696V42.8626V43.1526L55.1913 43.3946C55.2653 43.5606 55.4913 43.8896 56.1813 44.2076ZM67.1643 42.2466V42.9216C67.1153 42.9576 67.0413 43.0056 66.9393 43.0596C66.6343 43.2196 66.0563 43.4356 65.0103 43.5936C64.8013 43.6246 64.5743 43.6536 64.3273 43.6796C63.8693 43.7266 63.3403 43.7626 62.7343 43.7816C62.6603 43.7836 62.5903 43.7866 62.5143 43.7886L62.4633 43.7676L62.0443 43.5926L62.0133 43.5796L61.5623 43.3916L61.4723 43.3546L57.2233 41.5836C58.3633 41.8286 59.8833 41.9806 61.5623 41.9916C61.6263 41.9926 61.6893 41.9946 61.7533 41.9946C61.8413 41.9946 61.9263 41.9916 62.0123 41.9916C62.1323 41.9906 62.2523 41.9896 62.3703 41.9876C62.4013 41.9866 62.4323 41.9866 62.4633 41.9856C62.7183 41.9796 62.9683 41.9696 63.2153 41.9566C63.5323 41.9396 63.8393 41.9186 64.1373 41.8926C64.1473 41.8916 64.1573 41.8906 64.1673 41.8896C64.7463 41.8376 65.2833 41.7676 65.7693 41.6836C66.2473 41.6006 66.6723 41.5026 67.0353 41.3936H67.1633V41.6836V42.2466H67.1643Z" fill="#2988FF"/>
<path fill-rule="evenodd" clip-rule="evenodd" d="M13.2787 42.0684C13.2787 41.4305 13.7958 40.9134 14.4337 40.9134H18.2217C18.8596 40.9134 19.3767 41.4305 19.3767 42.0684V48.9293C19.3767 49.5672 18.8596 50.0843 18.2217 50.0843H14.4337C13.7958 50.0843 13.2787 49.5672 13.2787 48.9293V42.0684ZM15.5887 43.2234V47.7743H17.0667V43.2234H15.5887Z" fill="#2988FF"/>
<path fill-rule="evenodd" clip-rule="evenodd" d="M35.5301 42.0684C35.5301 41.4305 36.0472 40.9134 36.6851 40.9134H40.4731C41.111 40.9134 41.6281 41.4305 41.6281 42.0684V48.9293C41.6281 49.5672 41.111 50.0843 40.4731 50.0843H36.6851C36.0472 50.0843 35.5301 49.5672 35.5301 48.9293V42.0684ZM37.8401 43.2234V47.7743H39.3181V43.2234H37.8401Z" fill="#2988FF"/>
<path fill-rule="evenodd" clip-rule="evenodd" d="M24.4042 42.0684C24.4042 41.4305 24.9213 40.9134 25.5592 40.9134H29.3471C29.985 40.9134 30.5021 41.4305 30.5021 42.0684V48.9293C30.5021 49.5672 29.985 50.0843 29.3471 50.0843H25.5592C24.9213 50.0843 24.4042 49.5672 24.4042 48.9293V42.0684ZM26.7142 43.2234V47.7743H28.1922V43.2234H26.7142Z" fill="#2988FF"/>
<path fill-rule="evenodd" clip-rule="evenodd" d="M5.01951 27.0053C5.01951 25.8817 5.93038 24.9708 7.054 24.9708H47.8538C48.9774 24.9708 49.8883 25.8817 49.8883 27.0053V78.0053C49.8883 79.1289 48.9774 80.0398 47.8538 80.0398H7.054C5.93038 80.0398 5.01951 79.1289 5.01951 78.0053V27.0053ZM9.08848 29.0398V75.9708H45.8193V29.0398H9.08848Z" fill="#1C3553"/>
<path fill-rule="evenodd" clip-rule="evenodd" d="M17.3575 57.2615V62.3214H15.2976V57.2615H17.3575ZM17.8275 55.7915C18.3798 55.7915 18.8275 56.2392 18.8275 56.7915V62.7914C18.8275 63.3437 18.3798 63.7914 17.8275 63.7914H14.8276C14.2753 63.7914 13.8276 63.3437 13.8276 62.7914V56.7915C13.8276 56.2392 14.2753 55.7915 14.8276 55.7915H17.8275Z" fill="#1C3553"/>
<path fill-rule="evenodd" clip-rule="evenodd" d="M28.3575 57.2615V62.3214H26.2975V57.2615H28.3575ZM28.8275 55.7915C29.3798 55.7915 29.8275 56.2392 29.8275 56.7915V62.7914C29.8275 63.3437 29.3798 63.7914 28.8275 63.7914H25.8275C25.2752 63.7914 24.8275 63.3437 24.8275 62.7914V56.7915C24.8275 56.2392 25.2752 55.7915 25.8275 55.7915H28.8275Z" fill="#1C3553"/>
<path fill-rule="evenodd" clip-rule="evenodd" d="M39.3574 57.2615V62.3214H37.2974V57.2615H39.3574ZM39.8274 55.7915C40.3797 55.7915 40.8274 56.2392 40.8274 56.7915V62.7914C40.8274 63.3437 40.3797 63.7914 39.8274 63.7914H36.8274C36.2752 63.7914 35.8275 63.3437 35.8275 62.7914V56.7915C35.8275 56.2392 36.2752 55.7915 36.8274 55.7915H39.8274Z" fill="#1C3553"/>
<path fill-rule="evenodd" clip-rule="evenodd" d="M49.9073 21.6716C49.9073 20.9636 49.3553 20.3887 48.6733 20.3887H19.8814C19.9144 19.2397 19.9214 18.0897 19.8854 16.9397C19.8714 16.5007 19.3804 16.1707 18.7064 16.0497C18.7004 16.0487 18.6964 16.0487 18.6894 16.0477C18.6374 16.0387 18.5854 16.0297 18.5314 16.0247C18.5284 16.0237 18.5254 16.0237 18.5224 16.0227C18.4644 16.0167 18.4074 16.0117 18.3474 16.0067H18.3414C18.2874 16.0037 18.2324 16.0017 18.1774 16.0017C18.1694 16.0007 18.1614 16.0007 18.1524 15.9997C18.1414 15.9997 18.1324 16.0007 18.1214 16.0007C18.1054 16.0007 18.0884 15.9997 18.0694 15.9997C18.0554 16.0007 18.0434 16.0017 18.0294 16.0027C17.0614 16.0227 16.3674 16.4287 16.3414 17.0337C16.3154 17.6337 16.3354 18.2357 16.3354 18.8367C16.3354 19.3547 16.3294 19.8717 16.3364 20.3887H14.4774C14.5104 19.2397 14.5174 18.0897 14.4814 16.9397C14.4674 16.5007 13.9764 16.1707 13.3024 16.0497C13.2964 16.0487 13.2914 16.0487 13.2854 16.0477C13.2334 16.0387 13.1814 16.0297 13.1274 16.0247C13.1244 16.0237 13.1214 16.0237 13.1184 16.0227C13.0604 16.0167 13.0034 16.0117 12.9434 16.0067H12.9374C12.8834 16.0037 12.8284 16.0017 12.7734 16.0017C12.7654 16.0007 12.7574 16.0007 12.7484 15.9997C12.7374 15.9997 12.7284 16.0007 12.7174 16.0007C12.7004 16.0007 12.6834 15.9997 12.6654 15.9997C12.6514 16.0007 12.6394 16.0017 12.6254 16.0027C11.6575 16.0227 10.9635 16.4287 10.9375 17.0337C10.9115 17.6337 10.9315 18.2357 10.9315 18.8367C10.9315 19.3547 10.9255 19.8717 10.9325 20.3887H6.23348C5.55248 20.3887 4.99949 20.9636 4.99949 21.6716C4.99949 22.3796 5.55248 22.9546 6.23348 22.9546H48.6733C49.3553 22.9546 49.9073 22.3796 49.9073 21.6716Z" fill="#1C3553"/>
</svg>
