<svg width="96" height="97" viewBox="0 0 96 97" fill="none" xmlns="http://www.w3.org/2000/svg">
<path fill-rule="evenodd" clip-rule="evenodd" d="M59.0496 51.9967C58.251 49.5973 56.7333 48.933 54.02 48.9288H53.5717V48.9266C52.5045 48.9266 51.4374 48.9288 50.3703 48.9288C49.3032 48.9288 48.2338 48.9266 47.1667 48.9266V48.9288H46.7184C44.0051 48.933 42.4873 49.5973 41.6887 51.9967C41.607 52.2458 41.3221 56.4996 41.4202 57.8324V64.2323C41.4179 64.2515 41.4062 64.2685 41.4062 64.2877C41.4062 65.0265 42.0623 65.6247 42.8726 65.6247C43.6828 65.6247 44.339 65.0265 44.339 64.2877C44.339 64.2685 44.3273 64.2515 44.3273 64.2323V55.2989C44.3273 53.7745 44.9624 53.3678 45.6022 53.5594V54.905V69.0184C45.5905 69.4421 45.5859 69.804 45.5859 70.0702C45.5859 72.674 45.5649 75.2778 45.5952 77.8795C45.5976 78.1903 45.6606 78.4671 45.7517 78.7183C45.7517 78.7226 45.754 78.729 45.7563 78.7332C45.8381 78.9589 45.9478 79.1633 46.0902 79.3336C46.1486 79.4082 46.2187 79.4699 46.2887 79.5316C46.4265 79.653 46.5759 79.7594 46.7464 79.834C46.7767 79.8446 46.8071 79.8553 46.8374 79.8659C47.2414 80.0213 47.7154 80.049 48.2268 79.9106C48.2828 79.8957 48.3132 79.8638 48.3646 79.8446C48.4556 79.8127 48.535 79.7701 48.6167 79.7275C49.4317 79.3251 49.6418 78.5821 49.6418 77.7283C49.6371 73.6832 49.6395 69.638 49.6418 65.5928V64.128H51.0989V65.5928C51.0989 69.638 51.1012 73.6832 51.0989 77.7283C51.0965 78.5821 51.309 79.3251 52.1216 79.7275C52.2033 79.7701 52.2827 79.8127 52.3738 79.8446C52.4252 79.8638 52.4555 79.8957 52.5115 79.9106C53.0229 80.049 53.4969 80.0213 53.9009 79.8659C53.9312 79.8553 53.9639 79.8446 53.992 79.834C54.1624 79.7594 54.3119 79.653 54.4496 79.5316C54.5197 79.4699 54.5897 79.4082 54.6481 79.3336C54.7905 79.1633 54.9003 78.9589 54.9843 78.7332C54.9843 78.729 54.9867 78.7226 54.989 78.7183C55.0801 78.4671 55.1408 78.1903 55.1455 77.8795C55.1735 75.2778 55.1525 72.674 55.1525 70.0702C55.1525 69.804 55.1478 69.4421 55.1384 69.0184V54.905V53.5594C55.7759 53.3678 56.411 53.7745 56.411 55.2989V64.2323C56.411 64.2515 56.3994 64.2685 56.3994 64.2877C56.3994 65.0265 57.0555 65.6247 57.8658 65.6247C58.676 65.6247 59.3321 65.0265 59.3321 64.2877C59.3321 64.2685 59.3205 64.2515 59.3205 64.2323V57.8324C59.4162 56.4996 59.1313 52.2458 59.0496 51.9967ZM53.7935 44.8794C53.8098 43.1571 52.2921 41.7306 50.4194 41.7072C48.5677 41.6881 46.9682 43.1166 46.9449 44.8092C46.9238 46.5294 48.4439 47.9366 50.34 47.9516C52.257 47.9665 53.7748 46.6145 53.7935 44.8794Z" fill="#2988FF"/>
<path fill-rule="evenodd" clip-rule="evenodd" d="M34.6401 21.408H39.7601V18.0005H34.6401V21.408Z" fill="#1C3553"/>
<path fill-rule="evenodd" clip-rule="evenodd" d="M27 22.2305C27 21.6782 27.4477 21.2305 28 21.2305H70C70.5523 21.2305 71 21.6782 71 22.2305C71 22.7828 70.5523 23.2305 70 23.2305H28C27.4477 23.2305 27 22.7828 27 22.2305Z" fill="#1C3553"/>
<path fill-rule="evenodd" clip-rule="evenodd" d="M28.5858 25.7042C28.9609 25.3291 29.4696 25.1184 30 25.1184H69.1703C70.2748 25.1184 71.1703 26.0138 71.1703 27.1184V74.5554C71.1703 75.6598 70.275 76.5552 69.1706 76.5554L62.1233 76.5565C61.0188 76.5566 60.1232 75.6614 60.123 74.5568C60.1229 73.4522 61.0182 72.5566 62.1227 72.5565L67.1703 72.5557V29.1184H32V72.5565H39C40.1046 72.5565 41 73.4519 41 74.5565C41 75.661 40.1046 76.5565 39 76.5565H30C28.8954 76.5565 28 75.661 28 74.5565V27.1184C28 26.588 28.2107 26.0793 28.5858 25.7042Z" fill="#1C3553"/>
</svg>
