<svg width="96" height="96" viewBox="0 0 96 96" fill="none" xmlns="http://www.w3.org/2000/svg">
<path fill-rule="evenodd" clip-rule="evenodd" d="M19.8844 43.8401C20.4367 43.8401 20.8844 44.2878 20.8844 44.8401V52.2001C20.8844 52.7524 20.4367 53.2001 19.8844 53.2001C19.3321 53.2001 18.8844 52.7524 18.8844 52.2001V44.8401C18.8844 44.2878 19.3321 43.8401 19.8844 43.8401Z" fill="#1C3553"/>
<path fill-rule="evenodd" clip-rule="evenodd" d="M18.8846 44.6757C18.8846 41.9261 21.0937 39.6797 23.8396 39.6797C26.5864 39.6797 28.7956 41.9259 28.7956 44.6757C28.7956 45.228 28.3479 45.6757 27.7956 45.6757C27.2433 45.6757 26.7956 45.228 26.7956 44.6757C26.7956 43.0114 25.4629 41.6797 23.8396 41.6797C22.2175 41.6797 20.8846 43.0113 20.8846 44.6757C20.8846 45.228 20.4369 45.6757 19.8846 45.6757C19.3323 45.6757 18.8846 45.228 18.8846 44.6757Z" fill="#1C3553"/>
<path fill-rule="evenodd" clip-rule="evenodd" d="M38.42 48.52C38.42 48.2439 38.6439 48.02 38.92 48.02H44.12C44.3962 48.02 44.62 48.2439 44.62 48.52C44.62 48.7962 44.3962 49.02 44.12 49.02H38.92C38.6439 49.02 38.42 48.7962 38.42 48.52Z" fill="#1C3553"/>
<path fill-rule="evenodd" clip-rule="evenodd" d="M45.7 48.52C45.7 48.2439 45.9239 48.02 46.2 48.02H51.4C51.6762 48.02 51.9 48.2439 51.9 48.52C51.9 48.7962 51.6762 49.02 51.4 49.02H46.2C45.9239 49.02 45.7 48.7962 45.7 48.52Z" fill="#1C3553"/>
<path fill-rule="evenodd" clip-rule="evenodd" d="M19.45 56.8506C19.45 56.4364 19.7858 56.1006 20.2 56.1006H25.4C25.8142 56.1006 26.15 56.4364 26.15 56.8506C26.15 57.2648 25.8142 57.6006 25.4 57.6006H20.2C19.7858 57.6006 19.45 57.2648 19.45 56.8506Z" fill="#1C3553"/>
<path fill-rule="evenodd" clip-rule="evenodd" d="M57.93 56.8506C57.93 56.4364 58.2658 56.1006 58.68 56.1006H61.8C62.2142 56.1006 62.55 56.4364 62.55 56.8506C62.55 57.2648 62.2142 57.6006 61.8 57.6006H58.68C58.2658 57.6006 57.93 57.2648 57.93 56.8506Z" fill="#1C3553"/>
<path fill-rule="evenodd" clip-rule="evenodd" d="M38.17 58.9331C38.17 58.5189 38.5058 58.1831 38.92 58.1831H42.04C42.4542 58.1831 42.79 58.5189 42.79 58.9331C42.79 59.3473 42.4542 59.6831 42.04 59.6831H38.92C38.5058 59.6831 38.17 59.3473 38.17 58.9331Z" fill="#1C3553"/>
<path fill-rule="evenodd" clip-rule="evenodd" d="M57.93 48.5208C57.93 48.1065 58.2658 47.7708 58.68 47.7708H61.8C62.2142 47.7708 62.55 48.1065 62.55 48.5208C62.55 48.935 62.2142 49.2708 61.8 49.2708H58.68C58.2658 49.2708 57.93 48.935 57.93 48.5208Z" fill="#1C3553"/>
<path fill-rule="evenodd" clip-rule="evenodd" d="M38.17 65.1804C38.17 64.7662 38.5058 64.4304 38.92 64.4304H42.04C42.4542 64.4304 42.79 64.7662 42.79 65.1804C42.79 65.5946 42.4542 65.9304 42.04 65.9304H38.92C38.5058 65.9304 38.17 65.5946 38.17 65.1804Z" fill="#1C3553"/>
<path fill-rule="evenodd" clip-rule="evenodd" d="M27.7956 43.8804C28.3479 43.8804 28.7956 44.3281 28.7956 44.8804V46.4714C28.7956 47.0237 28.3479 47.4714 27.7956 47.4714C27.2433 47.4714 26.7956 47.0237 26.7956 46.4714V44.8804C26.7956 44.3281 27.2433 43.8804 27.7956 43.8804Z" fill="#1C3553"/>
<path fill-rule="evenodd" clip-rule="evenodd" d="M15 23.75C15 22.7835 15.7835 22 16.75 22H54.85C55.8165 22 56.6 22.7835 56.6 23.75V32.73C56.6 33.6965 55.8165 34.48 54.85 34.48H16.75C15.7835 34.48 15 33.6965 15 32.73V23.75ZM53.1 25.5H18.5V30.98H53.1V25.5Z" fill="#2988FF"/>
<path fill-rule="evenodd" clip-rule="evenodd" d="M15 51.8301C15 50.8636 15.7835 50.0801 16.75 50.0801H78.77C79.7365 50.0801 80.52 50.8636 80.52 51.8301V72.2501C80.52 73.2166 79.7365 74.0001 78.77 74.0001H16.75C15.7835 74.0001 15 73.2166 15 72.2501V51.8301ZM77.02 53.5801H18.5V70.5001H77.02V53.5801Z" fill="#2988FF"/>
<path fill-rule="evenodd" clip-rule="evenodd" d="M53.48 23.75C53.48 22.7835 54.2635 22 55.23 22H78.77C79.7365 22 80.52 22.7835 80.52 23.75V72.25C80.52 73.2165 79.7365 74 78.77 74H55.23C54.2635 74 53.48 73.2165 53.48 72.25V23.75ZM77.02 25.5H56.98V70.5H77.02V25.5Z" fill="#2988FF"/>
<path fill-rule="evenodd" clip-rule="evenodd" d="M37.7835 52.1599V72.9599H34.2835V52.1599H37.7835Z" fill="#2988FF"/>
<path fill-rule="evenodd" clip-rule="evenodd" d="M55.56 63.0625H36.84V61.0625H55.56V63.0625Z" fill="#2988FF"/>
</svg>
