<svg width="96" height="96" viewBox="0 0 96 96" fill="none" xmlns="http://www.w3.org/2000/svg">
<path fill-rule="evenodd" clip-rule="evenodd" d="M90.7693 73.2768C90.7443 73.2478 90.7073 73.2198 90.6753 73.1918C90.6323 73.2198 90.5843 73.2488 90.5363 73.2768C90.5163 73.2878 90.4963 73.2998 90.4753 73.3108C90.3393 73.3878 90.1873 73.4648 90.0043 73.5408C89.0113 73.9548 87.2853 74.3288 84.2903 74.3288C82.9153 74.3288 81.8183 74.2468 80.9263 74.1218C80.3173 74.0368 79.8033 73.9308 79.3783 73.8128C79.2283 73.7708 79.0853 73.7288 78.9563 73.6838C78.8183 73.6378 78.6923 73.5898 78.5753 73.5408C78.4663 73.4958 78.3693 73.4498 78.2763 73.4038C78.2143 73.3728 78.1583 73.3418 78.1033 73.3108C78.0833 73.2998 78.0623 73.2888 78.0433 73.2768C77.9943 73.2488 77.9473 73.2208 77.9043 73.1928C77.8713 73.2208 77.8353 73.2488 77.8103 73.2768H77.6773V73.4118V73.7118V73.8618V74.3118V76.2388V76.2408L77.7273 76.4817C77.8923 76.8577 78.8543 78.0857 84.2903 78.0857C89.7253 78.0857 90.6873 76.8577 90.8523 76.4817L90.8943 73.8208L90.8983 73.5978C90.8983 73.5908 90.9023 73.5838 90.9023 73.5768C90.9023 73.5708 90.8993 73.5648 90.8983 73.5578L90.9033 73.2768H90.7693ZM89.6993 74.4788V76.0078C89.4183 76.2188 88.3503 76.7957 85.0493 76.8737L79.7593 74.6698C80.9433 74.9228 82.5343 75.0798 84.2893 75.0798C86.4493 75.0798 88.3623 74.8438 89.5683 74.4788H89.6993Z" fill="#2988FF"/>
<path fill-rule="evenodd" clip-rule="evenodd" d="M90.3013 68.5956C90.2293 68.6316 90.1523 68.6666 90.0703 68.7026C89.8993 68.7766 89.7023 68.8486 89.4823 68.9186C89.4763 68.9206 89.4693 68.9226 89.4623 68.9246C88.4863 69.2326 86.9973 69.4806 84.7473 69.5116C84.5963 69.5136 84.4553 69.5186 84.2973 69.5186H84.2903H84.2883C84.2393 69.5186 84.1983 69.5166 84.1513 69.5166C84.0263 69.5156 83.9123 69.5126 83.7913 69.5106C83.3323 69.5036 82.9003 69.4896 82.5033 69.4656C81.9093 69.4296 81.3823 69.3776 80.9153 69.3116C80.7293 69.2856 80.5533 69.2566 80.3863 69.2276C80.0124 69.1606 79.6764 69.0866 79.3854 69.0056C79.2914 68.9796 79.2034 68.9526 79.1164 68.9246C79.1104 68.9226 79.1034 68.9206 79.0964 68.9186C79.0804 68.9136 79.0624 68.9086 79.0464 68.9036C78.8464 68.8386 78.6674 68.7716 78.5084 68.7026C78.4264 68.6676 78.3494 68.6316 78.2774 68.5956C78.0814 68.6936 77.9264 68.7966 77.8254 68.9036C77.8204 68.9086 77.8134 68.9136 77.8094 68.9186H77.6764V69.0536V69.3536V69.5036V69.9546V70.1066V70.7066V71.8816V71.8836L77.7274 72.1236C77.7394 72.1526 77.7594 72.1876 77.7824 72.2246C77.8314 72.3036 77.9094 72.4006 78.0294 72.5066C78.0964 72.5656 78.1774 72.6276 78.2744 72.6916C78.3384 72.7336 78.4084 72.7756 78.4864 72.8186C78.4994 72.8256 78.5154 72.8336 78.5294 72.8406C78.5964 72.8766 78.6654 72.9116 78.7434 72.9466C78.9264 73.0296 79.1404 73.1116 79.3934 73.1886C79.4914 73.2196 79.6024 73.2486 79.7124 73.2766C79.7764 73.2936 79.8374 73.3116 79.9064 73.3276C80.2053 73.3986 80.5473 73.4636 80.9333 73.5196C81.0993 73.5436 81.2783 73.5656 81.4623 73.5856C81.8983 73.6346 82.3873 73.6716 82.9313 73.6956C83.3523 73.7146 83.7963 73.7276 84.2893 73.7276C86.4443 73.7276 87.8873 73.5336 88.8653 73.2766C88.9753 73.2486 89.0863 73.2196 89.1843 73.1886C89.4373 73.1116 89.6513 73.0296 89.8343 72.9466C89.9123 72.9116 89.9823 72.8766 90.0493 72.8406C90.1433 72.7906 90.2293 72.7406 90.3033 72.6916C90.6543 72.4596 90.7973 72.2466 90.8503 72.1236L90.8933 69.4626L90.8963 69.2406C90.8973 69.2336 90.9013 69.2266 90.9013 69.2196C90.9013 69.2126 90.8973 69.2066 90.8973 69.2006L90.9013 68.9186H90.7683C90.6683 68.8056 90.5063 68.6976 90.3013 68.5956ZM89.6993 70.1206V71.6496C89.5693 71.7476 89.2673 71.9246 88.6533 72.0936C88.3993 72.1636 88.0893 72.2326 87.7173 72.2936C87.6593 72.3036 87.5983 72.3126 87.5353 72.3216C86.8953 72.4176 86.0833 72.4906 85.0483 72.5156L84.7173 72.3766L84.2973 72.2016L84.2143 72.1676L83.9993 72.0776H83.9973L83.8453 72.0136L83.0333 71.6756L83.0063 71.6646L80.3883 70.5736L79.7584 70.3116C80.1144 70.3876 80.5073 70.4546 80.9303 70.5116C81.5873 70.5996 82.3163 70.6636 83.0943 70.6956C83.3383 70.7056 83.5873 70.7126 83.8403 70.7156C83.9823 70.7176 84.1233 70.7206 84.2683 70.7206C84.2753 70.7206 84.2823 70.7216 84.2893 70.7216H84.2963C84.4443 70.7216 84.5893 70.7186 84.7343 70.7166C86.7113 70.6866 88.4463 70.4596 89.5693 70.1206H89.6993Z" fill="#2988FF"/>
<path fill-rule="evenodd" clip-rule="evenodd" d="M84.7204 62.9117C84.5794 62.9097 84.4404 62.9067 84.2974 62.9067H84.2894C84.2744 62.9067 84.2614 62.9077 84.2464 62.9077C84.1114 62.9077 83.9794 62.9097 83.8454 62.9117C82.9794 62.9247 82.1604 62.9757 81.4174 63.0577C81.2284 63.0787 81.0444 63.1007 80.8664 63.1257C80.6334 63.1577 80.4094 63.1927 80.1974 63.2307C79.9164 63.2807 79.6574 63.3367 79.4164 63.3957C79.4024 63.3997 79.3884 63.4037 79.3734 63.4067C78.9044 63.5257 78.5144 63.6607 78.2294 63.8087C78.0454 63.9047 77.9024 64.0057 77.8084 64.1097H77.6754V64.2437V64.5447V64.6947V65.1447V65.7476V66.3476V67.0716L77.6764 67.0736L77.7134 67.2506L77.7264 67.3126C77.7664 67.4036 77.8544 67.5436 78.0374 67.7046H78.0384C78.1894 67.8366 78.4044 67.9826 78.7154 68.1256C78.7204 68.1276 78.7274 68.1306 78.7324 68.1326C78.7714 68.1506 78.8184 68.1676 78.8604 68.1866C78.9404 68.2196 79.0224 68.2526 79.1134 68.2846C79.1844 68.3106 79.2594 68.3356 79.3374 68.3606C79.5954 68.4426 79.8964 68.5196 80.2414 68.5896C80.5904 68.6606 80.9894 68.7226 81.4404 68.7746C81.7424 68.8086 82.0604 68.8396 82.4114 68.8616C82.5274 68.8696 82.6554 68.8736 82.7774 68.8796C82.8074 68.8816 82.8384 68.8826 82.8684 68.8836C83.0104 68.8906 83.1444 68.8986 83.2934 68.9036C83.4654 68.9086 83.6544 68.9096 83.8374 68.9116C83.8624 68.9126 83.8874 68.9126 83.9124 68.9126C84.0004 68.9136 84.0824 68.9166 84.1734 68.9166C84.2134 68.9166 84.2484 68.9186 84.2894 68.9186H84.2954C84.3554 68.9186 84.4074 68.9166 84.4664 68.9166C86.1673 68.9076 87.4173 68.7766 88.3363 68.5896C88.6813 68.5196 88.9813 68.4426 89.2393 68.3606C89.3183 68.3356 89.3923 68.3106 89.4643 68.2846C89.6093 68.2326 89.7443 68.1796 89.8613 68.1256C90.5513 67.8076 90.7783 67.4786 90.8503 67.3136L90.8923 64.6537L90.8963 64.4317C90.8963 64.4237 90.9013 64.4177 90.9013 64.4097C90.9013 64.4037 90.8973 64.3977 90.8973 64.3907L90.9013 64.1097H90.7693C90.1863 63.4547 87.7263 62.9557 84.7204 62.9117ZM85.0493 67.7066L84.7213 67.5706L84.2974 67.3936L84.2524 67.3746L84.0064 67.2726L83.8434 67.2046L83.0944 66.8926L81.2234 66.1126L80.3464 65.7476L79.7584 65.5026C80.2124 65.5996 80.7254 65.6816 81.2864 65.7476C81.6884 65.7936 82.1134 65.8306 82.5574 65.8586C82.7344 65.8696 82.9124 65.8786 83.0944 65.8866C83.3384 65.8966 83.5864 65.9036 83.8384 65.9066C83.9834 65.9086 84.1284 65.9116 84.2754 65.9116C84.2804 65.9116 84.2854 65.9126 84.2894 65.9126H84.2974C84.4464 65.9126 84.5924 65.9086 84.7394 65.9076C86.7133 65.8766 88.4463 65.6506 89.5683 65.3127H89.6993V66.8396C89.5073 66.9836 88.9423 67.3006 87.5453 67.5116C86.9043 67.6076 86.0883 67.6816 85.0493 67.7066Z" fill="#2988FF"/>
<path fill-rule="evenodd" clip-rule="evenodd" d="M75.6764 70.6348C76.1704 70.6708 76.6904 70.6928 77.2264 70.7008V70.1058V69.9468C76.6714 69.9388 76.1494 69.9218 75.6844 69.8898L75.6814 70.1058L75.6764 70.6348Z" fill="#2988FF"/>
<path fill-rule="evenodd" clip-rule="evenodd" d="M77.7247 73.0674C77.4067 72.8224 77.2947 72.6114 77.2577 72.5174L77.2547 72.5044L77.2257 72.3524V71.9924L75.6687 71.3434L75.6577 72.4404L75.6567 72.5024C75.6207 72.5964 75.5077 72.8054 75.1927 73.0494C75.1017 73.1204 74.9887 73.1934 74.8597 73.2684C74.7207 73.3494 74.5627 73.4304 74.3727 73.5114C75.1307 73.6194 76.0767 73.6894 77.2257 73.7054V73.4054V73.3704H77.4267C77.4987 73.2644 77.6107 73.1694 77.7177 73.0744C77.7207 73.0724 77.7227 73.0694 77.7247 73.0674Z" fill="#2988FF"/>
<path fill-rule="evenodd" clip-rule="evenodd" d="M75.6764 66.2769C76.1704 66.3129 76.6904 66.3349 77.2264 66.3429V65.7479V65.1379C76.6724 65.1309 76.1524 65.1139 75.6884 65.0819V65.0889L75.6814 65.7479L75.6764 66.2769Z" fill="#2988FF"/>
<path fill-rule="evenodd" clip-rule="evenodd" d="M77.2257 69.047V69.012H77.4267C77.4537 68.973 77.5027 68.941 77.5337 68.903C77.5877 68.839 77.6497 68.776 77.7177 68.716C77.8147 68.629 77.9227 68.548 78.0457 68.469C77.8577 68.36 77.7117 68.252 77.6007 68.153C77.5997 68.152 77.5977 68.151 77.5967 68.15C77.3777 67.953 77.2887 67.789 77.2577 67.708L77.2567 67.706V67.705L77.2447 67.642L76.4017 67.291L75.6687 66.985L75.6647 67.344L75.6607 67.772V67.792L75.6577 68.081L75.6567 68.143C75.6457 68.171 75.6247 68.212 75.5977 68.258C75.5327 68.367 75.4147 68.519 75.1927 68.69C75.1917 68.691 75.1907 68.692 75.1897 68.693C75.1377 68.733 75.0757 68.775 75.0107 68.818C74.9677 68.846 74.9197 68.874 74.8707 68.902C74.8677 68.904 74.8637 68.907 74.8597 68.909C74.8447 68.918 74.8277 68.927 74.8117 68.936C74.6837 69.008 74.5417 69.08 74.3727 69.152C74.6017 69.185 74.8467 69.214 75.1077 69.239C75.1457 69.243 75.1897 69.245 75.2277 69.249C75.2297 69.249 75.2317 69.25 75.2327 69.25C75.3767 69.263 75.5257 69.275 75.6787 69.285C76.1447 69.318 76.6617 69.338 77.2267 69.346V69.047H77.2257Z" fill="#2988FF"/>
<path fill-rule="evenodd" clip-rule="evenodd" d="M83.0534 62.4945C83.3184 62.4795 83.5804 62.4725 83.8434 62.4675C83.9794 62.4645 84.1174 62.4575 84.2534 62.4575L84.2874 60.2795L84.2904 60.0595C84.2914 60.0515 84.2964 60.0435 84.2964 60.0365C84.2964 60.0295 84.2924 60.0225 84.2914 60.0155L84.2954 59.7355H84.1634C84.0624 59.6225 83.9004 59.5145 83.6954 59.4125C83.6234 59.4485 83.5464 59.4845 83.4644 59.5195C83.2934 59.5935 83.0974 59.6655 82.8784 59.7355C82.8714 59.7375 82.8634 59.7395 82.8564 59.7415C81.8134 60.0715 80.2004 60.3365 77.6834 60.3365C76.9424 60.3365 76.2804 60.3135 75.6874 60.2725V60.2805L75.6804 60.9385L75.6754 61.4675C76.3094 61.5135 76.9834 61.5385 77.6834 61.5385C79.8454 61.5385 81.7584 61.3025 82.9644 60.9375H83.0934V62.4655C83.0824 62.4745 83.0674 62.4845 83.0534 62.4945Z" fill="#2988FF"/>
<path fill-rule="evenodd" clip-rule="evenodd" d="M77.8257 63.7969C78.0247 63.6429 78.2757 63.5059 78.5567 63.3799C78.5707 63.3739 78.5867 63.3679 78.6007 63.3619C78.6037 63.3609 78.6067 63.3599 78.6097 63.3579C78.6367 63.3459 78.6677 63.3359 78.6957 63.3249C78.6117 63.3269 78.5317 63.3309 78.4447 63.3329L77.4027 62.8989L75.6687 62.176L75.6597 62.9859L75.6567 63.2729V63.3349C75.6477 63.3569 75.6337 63.3849 75.6167 63.4179C75.6127 63.4249 75.6067 63.4329 75.6027 63.4399C75.5387 63.5499 75.4197 63.7049 75.1927 63.8819C75.1647 63.9029 75.1297 63.9249 75.0987 63.9479C75.0307 63.9959 74.9537 64.0449 74.8677 64.0959C74.8657 64.0969 74.8617 64.0989 74.8587 64.1009C74.7897 64.1409 74.7177 64.1809 74.6367 64.2209C74.5647 64.2569 74.4877 64.2919 74.4057 64.3279C74.3937 64.3329 74.3837 64.3389 74.3717 64.3439C74.3987 64.3479 74.4297 64.3509 74.4567 64.3549C74.6167 64.3759 74.7847 64.3959 74.9597 64.4149C75.0687 64.4269 75.1847 64.4369 75.2997 64.4469C75.8617 64.4969 76.5027 64.5279 77.2247 64.5379V64.2379V64.2019H77.4267C77.4987 64.0959 77.6097 64.0019 77.7177 63.9059C77.7577 63.8709 77.7817 63.8309 77.8257 63.7969Z" fill="#2988FF"/>
<path fill-rule="evenodd" clip-rule="evenodd" d="M84.2916 55.2065L84.2956 54.9265H84.1636C84.0626 54.8135 83.9006 54.7055 83.6956 54.6035C83.6236 54.6395 83.5466 54.6745 83.4646 54.7105C83.2936 54.7845 83.0956 54.8565 82.8756 54.9265C82.8696 54.9285 82.8626 54.9305 82.8566 54.9325C81.8136 55.2615 80.2006 55.5265 77.6837 55.5265C76.9427 55.5265 76.2817 55.5035 75.6877 55.4625V55.4695L75.6807 56.1285L75.6757 56.6585C76.3097 56.7045 76.9837 56.7295 77.6837 56.7295C79.8446 56.7295 81.7566 56.4935 82.9636 56.1285H83.0936V57.6565C82.9016 57.8015 82.3356 58.1175 80.9406 58.3275C80.2986 58.4245 79.4826 58.4985 78.4436 58.5235L77.4007 58.0885L75.6687 57.3665L75.6597 58.1765L75.6567 58.4625V58.5245C75.6477 58.5465 75.6337 58.5755 75.6157 58.6085C75.6127 58.6155 75.6067 58.6235 75.6027 58.6305C75.5387 58.7405 75.4197 58.8955 75.1917 59.0725C75.1647 59.0935 75.1297 59.1155 75.0997 59.1375C75.0307 59.1865 74.9537 59.2355 74.8677 59.2855C74.8647 59.2875 74.8617 59.2895 74.8577 59.2915C74.7887 59.3315 74.7177 59.3715 74.6367 59.4115C74.5647 59.4475 74.4877 59.4825 74.4057 59.5185C74.3937 59.5235 74.3847 59.5285 74.3727 59.5335C74.3987 59.5375 74.4297 59.5405 74.4567 59.5445C74.6157 59.5665 74.7847 59.5865 74.9597 59.6045C75.0687 59.6165 75.1837 59.6265 75.2997 59.6365C75.9807 59.6965 76.7637 59.7345 77.6837 59.7345C79.4796 59.7345 80.7796 59.5995 81.7316 59.4055C82.0756 59.3355 82.3766 59.2585 82.6346 59.1765C82.7126 59.1515 82.7876 59.1265 82.8586 59.1005C83.0036 59.0485 83.1386 58.9955 83.2566 58.9415C83.9466 58.6235 84.1726 58.2945 84.2446 58.1285L84.2866 55.4695L84.2906 55.2495C84.2906 55.2415 84.2956 55.2335 84.2956 55.2255C84.2966 55.2205 84.2916 55.2135 84.2916 55.2065Z" fill="#2988FF"/>
<path fill-rule="evenodd" clip-rule="evenodd" d="M84.2916 50.3977L84.2956 50.1187H84.1636C84.0626 50.0047 83.9016 49.8977 83.6956 49.7947C83.6236 49.8307 83.5466 49.8667 83.4646 49.9017C83.2936 49.9757 83.0956 50.0477 82.8756 50.1187C82.8696 50.1207 82.8626 50.1227 82.8566 50.1237C81.8137 50.4537 80.2007 50.7187 77.6837 50.7187C76.9427 50.7187 76.2807 50.6947 75.6867 50.6547L75.6877 50.6617L75.6807 51.3207L75.6757 51.8497C76.3087 51.8957 76.9827 51.9207 77.6837 51.9207C79.8437 51.9207 81.7557 51.6847 82.9616 51.3207H83.0936V52.8477C82.9016 52.9927 82.3367 53.3097 80.9397 53.5196C80.2977 53.6166 79.4827 53.6906 78.4437 53.7146L77.4017 53.2807L75.6687 52.5587L75.6597 53.3687L75.6567 53.6556V53.7176C75.6477 53.7386 75.6337 53.7676 75.6157 53.8006C75.6127 53.8076 75.6067 53.8156 75.6027 53.8226C75.5387 53.9326 75.4197 54.0876 75.1917 54.2646C75.1647 54.2856 75.1297 54.3086 75.0987 54.3306C75.0307 54.3786 74.9537 54.4276 74.8687 54.4776C74.8657 54.4796 74.8627 54.4816 74.8597 54.4826C74.7897 54.5226 74.7177 54.5636 74.6367 54.6036C74.5647 54.6396 74.4877 54.6746 74.4057 54.7106C74.3937 54.7156 74.3837 54.7206 74.3717 54.7266C74.3987 54.7306 74.4287 54.7336 74.4567 54.7366C74.6157 54.7586 74.7847 54.7786 74.9597 54.7976C75.0687 54.8086 75.1847 54.8186 75.2997 54.8286C75.9817 54.8896 76.7637 54.9266 77.6837 54.9266C79.4797 54.9266 80.7787 54.7916 81.7307 54.5976C82.0757 54.5276 82.3757 54.4506 82.6337 54.3686C82.7127 54.3436 82.7866 54.3186 82.8576 54.2926C83.0026 54.2406 83.1376 54.1876 83.2546 54.1336C83.9456 53.8156 84.1726 53.4866 84.2446 53.3207L84.2866 50.6617L84.2896 50.4417C84.2906 50.4337 84.2956 50.4257 84.2956 50.4187C84.2966 50.4107 84.2916 50.4047 84.2916 50.3977Z" fill="#2988FF"/>
<path fill-rule="evenodd" clip-rule="evenodd" d="M74.8696 44.8419C75.0846 44.9799 75.2636 45.1279 75.3956 45.2899C75.4226 45.3229 75.4656 45.3509 75.4886 45.3839H75.6616L75.6886 45.8349L75.6826 46.4929L75.6766 47.0229C76.3106 47.0689 76.9846 47.0939 77.6846 47.0939C79.8466 47.0939 81.7606 46.8569 82.9666 46.4929H83.0946V48.0209C82.9026 48.1659 82.3376 48.4819 80.9406 48.6929C80.2996 48.7899 79.4836 48.8639 78.4456 48.8879L77.4026 48.4539L75.6696 47.7309L75.6616 48.5409L75.6576 48.8279V48.8899C75.6486 48.9119 75.6356 48.9399 75.6176 48.9729C75.6136 48.9799 75.6086 48.9879 75.6036 48.9949C75.5406 49.1049 75.4216 49.2599 75.1936 49.4369C75.1656 49.4579 75.1316 49.4799 75.1006 49.5029C75.0316 49.5509 74.9546 49.5999 74.8696 49.6499C74.8666 49.6519 74.8636 49.6529 74.8606 49.6549C74.7916 49.6949 74.7196 49.7349 74.6376 49.7759C74.5656 49.8119 74.4886 49.8469 74.4066 49.8829C74.3946 49.8879 74.3856 49.8929 74.3736 49.8979C74.4006 49.9029 74.4306 49.9049 74.4586 49.9099C74.6176 49.9309 74.7866 49.9509 74.9616 49.9699C75.0706 49.9819 75.1856 49.9919 75.3006 50.0019C75.9826 50.0619 76.7646 50.0989 77.6846 50.0989C79.4806 50.0989 80.7806 49.9639 81.7316 49.7709C82.0766 49.7009 82.3776 49.6229 82.6356 49.5409C82.7136 49.5159 82.7886 49.4909 82.8596 49.4649C83.0046 49.4129 83.1396 49.3599 83.2566 49.3059C83.9476 48.9879 84.1736 48.6579 84.2466 48.4929L84.2886 45.8339L84.2916 45.6139C84.2926 45.6059 84.2966 45.5989 84.2966 45.5909C84.2966 45.5839 84.2926 45.5769 84.2926 45.5699L84.2966 45.2899H84.1636C83.5506 44.6039 80.8836 44.0879 77.6836 44.0879C76.9616 44.0879 76.2676 44.1149 75.6166 44.1639C75.6136 44.1709 75.6076 44.1799 75.6036 44.1869C75.5316 44.3099 75.3846 44.4919 75.0996 44.6939C75.0326 44.7429 74.9556 44.7919 74.8696 44.8419Z" fill="#2988FF"/>
<path fill-rule="evenodd" clip-rule="evenodd" d="M75.1876 72.1061L75.2026 71.1501L75.2116 70.5961L75.2186 70.1061L75.2226 69.8491C75.0736 69.8361 74.9176 69.8241 74.7786 69.8081C74.7506 69.8051 74.7266 69.8011 74.6986 69.7981C74.0986 69.7271 73.5906 69.6361 73.1547 69.5341C72.7857 69.6211 72.3597 69.6981 71.8747 69.7631C71.7947 69.7731 71.7177 69.7851 71.6347 69.7941C71.6267 69.7961 71.6197 69.7961 71.6117 69.7981C71.5807 69.8011 71.5537 69.8061 71.5227 69.8091C71.3807 69.8251 71.2237 69.8371 71.0727 69.8501C70.9237 69.8641 70.7807 69.8791 70.6217 69.8901C70.0817 69.9271 69.4757 69.9471 68.8137 69.9511L68.8127 70.1051L68.8067 70.7031C69.4377 70.6991 70.0477 70.6771 70.6227 70.6351C70.7757 70.6241 70.9247 70.6111 71.0727 70.5981C71.1757 70.5881 71.2767 70.5781 71.3767 70.5681C71.4267 70.5631 71.4747 70.5571 71.5227 70.5521C71.7827 70.5231 72.0357 70.4911 72.2747 70.4551C72.5897 70.4081 72.8817 70.3541 73.1557 70.2951C73.4287 70.2371 73.6786 70.1731 73.9046 70.1051H74.0366V70.4551V70.6621V71.6321C73.9176 71.7211 73.6536 71.8771 73.1437 72.0321C72.8307 72.1271 72.4227 72.2221 71.8937 72.3021C71.8207 72.3131 71.7437 72.3241 71.6657 72.3341C71.5537 72.3501 71.4337 72.3641 71.3117 72.3771C71.2447 72.3851 71.1797 72.3931 71.1097 72.4001C70.9617 72.4151 70.8047 72.4271 70.6427 72.4391C70.2647 72.4671 69.8487 72.4881 69.3877 72.4991L68.7917 72.2511L68.7887 72.5071L68.7867 72.6621C68.7517 72.7511 68.6457 72.9441 68.3687 73.1711C68.2777 73.2451 68.1677 73.3231 68.0347 73.4031C68.0227 73.4101 68.0097 73.4161 67.9987 73.4231C68.1387 73.512 68.2587 73.607 68.3637 73.707C68.4537 73.708 68.5347 73.711 68.6267 73.711C69.9947 73.711 71.0787 73.633 71.9387 73.5101C72.2767 73.4621 72.5717 73.4061 72.8437 73.3461C72.9517 73.3221 73.0577 73.2981 73.1557 73.2731C73.3737 73.2171 73.5666 73.1591 73.7396 73.0981C73.9046 73.0411 74.0566 72.9831 74.1866 72.9231C74.6026 72.7331 74.8506 72.5401 74.9996 72.3791C75.1006 72.2691 75.1576 72.1731 75.1876 72.1061Z" fill="#2988FF"/>
<path fill-rule="evenodd" clip-rule="evenodd" d="M68.3007 68.8357C68.3257 68.8577 68.3437 68.8817 68.3677 68.9037C68.4187 68.9517 68.4707 69.0007 68.5127 69.0517C68.5427 69.0887 68.5907 69.1197 68.6167 69.1577H68.7897L68.8017 69.3517C69.4767 69.3477 70.0807 69.3257 70.6217 69.2877C70.7767 69.2767 70.9267 69.2647 71.0717 69.2517C71.0757 69.2507 71.0787 69.2507 71.0827 69.2507C71.1207 69.2467 71.1647 69.2447 71.2027 69.2407C71.4637 69.2147 71.7087 69.1857 71.9377 69.1537C71.9627 69.1497 71.9837 69.1457 72.0087 69.1417C72.3167 69.0957 72.5907 69.0447 72.8427 68.9887C72.9507 68.9647 73.0567 68.9407 73.1547 68.9157C73.1707 68.9117 73.1847 68.9077 73.1997 68.9037C73.3107 68.8747 73.4216 68.8457 73.5206 68.8157C73.5986 68.7917 73.6686 68.7657 73.7396 68.7407C73.8976 68.6857 74.0446 68.6297 74.1706 68.5727C74.1756 68.5697 74.1816 68.5677 74.1866 68.5657C74.2586 68.5327 74.3216 68.4997 74.3846 68.4657C74.4256 68.4447 74.4676 68.4227 74.5046 68.4017C74.5526 68.3727 74.5966 68.3447 74.6386 68.3177C74.7976 68.2127 74.9146 68.1117 74.9986 68.0207C75.0576 67.9577 75.0996 67.8997 75.1316 67.8497C75.1386 67.8377 75.1466 67.8257 75.1526 67.8157C75.1666 67.7907 75.1786 67.7677 75.1876 67.7477L75.1936 67.3977L75.2026 66.7917L75.2116 66.2387L75.2196 65.7477L75.2296 65.0887L75.2306 65.0417C75.2156 65.0407 75.2016 65.0397 75.1876 65.0387C75.1846 65.0377 75.1816 65.0377 75.1786 65.0377C74.9706 65.0187 74.7696 64.9977 74.5806 64.9737C74.0326 64.9057 73.5616 64.8217 73.1557 64.7257C72.7497 64.8217 72.2777 64.9057 71.7307 64.9737C71.5407 64.9977 71.3407 65.0177 71.1317 65.0377C71.1297 65.0377 71.1267 65.0387 71.1237 65.0387C71.1067 65.0397 71.0897 65.0417 71.0727 65.0427C70.9237 65.0567 70.7807 65.0707 70.6217 65.0817C70.0817 65.1197 69.4757 65.1397 68.8137 65.1427L68.8077 65.7477L68.8017 66.3467C69.4337 66.3427 70.0457 66.3197 70.6217 66.2787C70.7747 66.2677 70.9237 66.2547 71.0717 66.2407C71.1747 66.2317 71.2757 66.2217 71.3767 66.2117C71.4257 66.2067 71.4737 66.2007 71.5227 66.1957C71.7827 66.1667 72.0357 66.1347 72.2747 66.0987C72.5887 66.0517 72.8817 65.9977 73.1547 65.9387C73.4287 65.8807 73.6786 65.8167 73.9046 65.7487H74.0356V66.0997V66.3067V67.2757C73.9166 67.3657 73.6536 67.5207 73.1437 67.6757C73.0937 67.6917 73.0437 67.7067 72.9877 67.7217C72.7347 67.7917 72.4247 67.8597 72.0537 67.9207C72.0017 67.9297 71.9487 67.9377 71.8937 67.9467C71.8867 67.9477 71.8797 67.9487 71.8727 67.9497C71.8057 67.9597 71.7357 67.9687 71.6657 67.9787C71.5527 67.9937 71.4337 68.0077 71.3107 68.0217C71.2437 68.0287 71.1797 68.0367 71.1087 68.0437C70.9607 68.0587 70.8037 68.0717 70.6417 68.0837C70.2637 68.1117 69.8477 68.1317 69.3867 68.1437L68.7717 67.8867C68.7437 67.9487 68.6907 68.0397 68.5917 68.1527L68.5907 68.1537C68.4717 68.2877 68.2837 68.4487 67.9987 68.6157C68.1087 68.6857 68.2107 68.7587 68.3007 68.8357Z" fill="#2988FF"/>
<path fill-rule="evenodd" clip-rule="evenodd" d="M68.0077 63.8114C68.1147 63.8804 68.2137 63.9514 68.3007 64.0264C68.3817 64.0954 68.4517 64.1684 68.5137 64.2434C68.5437 64.2794 68.5907 64.3104 68.6167 64.3474H68.7897L68.8017 64.5424C69.6437 64.5384 70.3747 64.5034 71.0107 64.4474C71.1247 64.4364 71.2407 64.4274 71.3487 64.4154C71.5237 64.3964 71.6927 64.3764 71.8517 64.3554C71.8797 64.3514 71.9097 64.3474 71.9377 64.3444C72.2057 64.3054 72.4467 64.2624 72.6727 64.2154C72.7317 64.2034 72.7877 64.1914 72.8437 64.1794C72.9507 64.1554 73.0567 64.1314 73.1547 64.1064C73.3057 64.0674 73.4467 64.0274 73.5767 63.9864C73.6337 63.9684 73.6857 63.9504 73.7387 63.9314C73.7587 63.9244 73.7807 63.9174 73.8007 63.9104C73.9417 63.8594 74.0727 63.8084 74.1867 63.7554C74.1907 63.7544 74.1947 63.7524 74.1977 63.7514C74.3267 63.6914 74.4357 63.6324 74.5337 63.5734C74.5687 63.5524 74.6017 63.5324 74.6327 63.5124C74.7947 63.4054 74.9147 63.3034 74.9987 63.2114C75.0557 63.1505 75.0967 63.0955 75.1277 63.0465C75.1527 63.0065 75.1737 62.9685 75.1877 62.9385L75.2027 61.9815L75.2117 61.4285L75.2187 60.9375L75.2297 60.2795V60.2325C75.2157 60.2305 75.2017 60.2295 75.1867 60.2285C75.1837 60.2275 75.1807 60.2275 75.1777 60.2275C74.9707 60.2085 74.7697 60.1875 74.5807 60.1635C74.0327 60.0955 73.5607 60.0115 73.1547 59.9155C72.7487 60.0115 72.2777 60.0955 71.7297 60.1635C71.5407 60.1875 71.3397 60.2075 71.1317 60.2275C71.1287 60.2275 71.1257 60.2275 71.1227 60.2275C71.1057 60.2295 71.0887 60.2305 71.0717 60.2325C70.9227 60.2455 70.7807 60.2605 70.6217 60.2715C70.0807 60.3085 69.4757 60.3285 68.8137 60.3325L68.8067 60.9365L68.8007 61.5355C69.4337 61.5325 70.0447 61.5095 70.6217 61.4675C70.7747 61.4565 70.9237 61.4435 71.0717 61.4305C71.1747 61.4215 71.2757 61.4115 71.3757 61.4005C71.4247 61.3955 71.4727 61.3895 71.5217 61.3845C71.7817 61.3555 72.0347 61.3235 72.2737 61.2875C72.5887 61.2405 72.8807 61.1865 73.1547 61.1275C73.4287 61.0695 73.6797 61.0055 73.9067 60.9365H74.0347V61.2875V61.4955V62.4655C73.9167 62.5545 73.6527 62.7095 73.1427 62.8655C72.8287 62.9605 72.4217 63.0555 71.8927 63.1355C71.8887 63.1365 71.8847 63.1365 71.8807 63.1375C71.8107 63.1475 71.7387 63.1585 71.6647 63.1675C71.5517 63.1835 71.4327 63.1965 71.3097 63.2105C71.2427 63.2184 71.1787 63.2265 71.1077 63.2334C70.9597 63.2474 70.8027 63.2604 70.6407 63.2724C70.2627 63.3004 69.8467 63.3214 69.3867 63.3324L68.7707 63.0755C68.7427 63.1375 68.6897 63.2285 68.5907 63.3414H68.5897C68.4717 63.4764 68.2827 63.6374 67.9967 63.8044C68.0007 63.8074 68.0047 63.8094 68.0077 63.8114Z" fill="#2988FF"/>
<path fill-rule="evenodd" clip-rule="evenodd" d="M68.0057 59.0016C68.1137 59.0706 68.2127 59.1416 68.3007 59.2176C68.3817 59.2876 68.4517 59.3596 68.5137 59.4346C68.5437 59.4706 68.5907 59.5016 68.6167 59.5386H68.7897L68.8017 59.7326C69.6437 59.7286 70.3747 59.6936 71.0107 59.6376C71.1257 59.6276 71.2407 59.6176 71.3497 59.6056C71.5247 59.5876 71.6937 59.5676 71.8537 59.5456C71.8807 59.5426 71.9107 59.5386 71.9367 59.5356C72.2057 59.4966 72.4467 59.4536 72.6737 59.4066C72.7317 59.3956 72.7867 59.3826 72.8427 59.3706C72.9507 59.3466 73.0567 59.3226 73.1547 59.2976C73.3057 59.2596 73.4467 59.2196 73.5767 59.1786C73.6327 59.1606 73.6847 59.1426 73.7377 59.1236C73.7587 59.1166 73.7807 59.1096 73.8007 59.1026C73.9417 59.0516 74.0727 58.9996 74.1867 58.9476C74.1907 58.9456 74.1947 58.9446 74.1987 58.9426C74.3267 58.8836 74.4357 58.8246 74.5337 58.7656C74.5687 58.7446 74.6017 58.7236 74.6327 58.7036C74.7947 58.5976 74.9147 58.4946 74.9997 58.4026C75.0557 58.3416 75.0967 58.2866 75.1287 58.2376C75.1537 58.1976 75.1747 58.1606 75.1877 58.1296L75.2027 57.1736L75.2117 56.6196L75.2187 56.1286L75.2297 55.4707V55.4227C75.2157 55.4217 75.2017 55.4197 75.1867 55.4187C75.1837 55.4187 75.1807 55.4187 75.1787 55.4177C74.9707 55.3987 74.7697 55.3787 74.5797 55.3547C74.0327 55.2867 73.5607 55.2017 73.1547 55.1067C72.7487 55.2017 72.2777 55.2867 71.7307 55.3547C71.5407 55.3777 71.3397 55.3987 71.1317 55.4177C71.1287 55.4187 71.1257 55.4187 71.1227 55.4187C71.1057 55.4207 71.0887 55.4217 71.0717 55.4237C70.9227 55.4367 70.7807 55.4517 70.6217 55.4627C70.0807 55.4997 69.4757 55.5197 68.8137 55.5237L68.8067 56.1286L68.8007 56.7276C69.4337 56.7236 70.0447 56.7006 70.6217 56.6596C70.7747 56.6486 70.9237 56.6356 71.0717 56.6216C71.1747 56.6126 71.2757 56.6026 71.3757 56.5916C71.4257 56.5866 71.4737 56.5806 71.5217 56.5756C71.7817 56.5466 72.0347 56.5146 72.2737 56.4796C72.5887 56.4316 72.8807 56.3776 73.1547 56.3196C73.4287 56.2606 73.6787 56.1966 73.9057 56.1286H74.0347V56.4796V56.6866V57.6566C73.9167 57.7466 73.6527 57.9006 73.1427 58.0556C72.8287 58.1516 72.4207 58.2466 71.8927 58.3266C71.8887 58.3266 71.8847 58.3276 71.8817 58.3276C71.8117 58.3386 71.7387 58.3486 71.6647 58.3586C71.5517 58.3736 71.4327 58.3876 71.3097 58.4016C71.2427 58.4086 71.1777 58.4166 71.1077 58.4236C70.9597 58.4386 70.8027 58.4516 70.6407 58.4636C70.2627 58.4916 69.8457 58.5126 69.3847 58.5226L68.7707 58.2676C68.7427 58.3286 68.6907 58.4196 68.5917 58.5316C68.5917 58.5326 68.5907 58.5326 68.5907 58.5326C68.4717 58.6676 68.2827 58.8296 67.9977 58.9966C67.9997 58.9986 68.0027 58.9996 68.0057 59.0016Z" fill="#2988FF"/>
<path fill-rule="evenodd" clip-rule="evenodd" d="M68.0067 54.1931C68.1137 54.2621 68.2137 54.3331 68.3007 54.4091C68.3807 54.4781 68.4507 54.5501 68.5127 54.6251C68.5427 54.6611 68.5907 54.6931 68.6167 54.7301H68.7897L68.8017 54.9241C69.6437 54.9201 70.3747 54.8851 71.0107 54.8291C71.1257 54.8191 71.2407 54.8091 71.3497 54.7971C71.5247 54.7781 71.6937 54.7591 71.8527 54.7371C71.8807 54.7331 71.9107 54.7301 71.9377 54.7261C72.2057 54.6881 72.4467 54.6441 72.6727 54.5981C72.7317 54.5861 72.7867 54.5741 72.8427 54.5621C72.9507 54.5381 73.0567 54.5141 73.1547 54.4891C73.3057 54.4501 73.4467 54.4111 73.5757 54.3691C73.6327 54.3511 73.6857 54.3331 73.7387 54.3141C73.7597 54.3071 73.7807 54.3001 73.8007 54.2931C73.9417 54.2431 74.0717 54.1911 74.1867 54.1391C74.1907 54.1371 74.1947 54.1351 74.1987 54.1341C74.3267 54.0751 74.4347 54.0161 74.5327 53.9571C74.5677 53.9361 74.6007 53.9161 74.6317 53.8951C74.7937 53.7881 74.9137 53.6861 74.9997 53.5941C75.0557 53.5331 75.0967 53.4791 75.1277 53.4291C75.1527 53.3891 75.1737 53.3511 75.1877 53.3211L75.2027 52.3651L75.2117 51.8111L75.2187 51.3211L75.2297 50.6621V50.6141C75.2157 50.6131 75.2017 50.6121 75.1877 50.6111C75.1847 50.6101 75.1817 50.6101 75.1787 50.6101C74.9707 50.5911 74.7697 50.5701 74.5797 50.5461C74.0327 50.4791 73.5607 50.3941 73.1547 50.2981C72.7487 50.3941 72.2777 50.4791 71.7307 50.5461C71.5407 50.5701 71.3397 50.5911 71.1317 50.6101C71.1287 50.6101 71.1257 50.6111 71.1227 50.6111C71.1067 50.6121 71.0887 50.6141 71.0717 50.6151C70.9227 50.6291 70.7807 50.6441 70.6217 50.6551C70.0807 50.6921 69.4757 50.7121 68.8137 50.7151L68.8067 51.3211L68.8007 51.9191C69.4337 51.9151 70.0447 51.8921 70.6217 51.8511C70.7747 51.8401 70.9237 51.8271 71.0717 51.8131C71.1747 51.8041 71.2757 51.7941 71.3757 51.7831C71.4257 51.7781 71.4737 51.7721 71.5217 51.7671C71.7817 51.7381 72.0347 51.7061 72.2737 51.6711C72.5887 51.6231 72.8807 51.5691 73.1547 51.5111C73.4277 51.4521 73.6777 51.3891 73.9037 51.3201H74.0357V51.6711V51.8781V52.8481C73.9167 52.9371 73.6527 53.0921 73.1427 53.2471C72.8297 53.3431 72.4217 53.4381 71.8927 53.5181C71.8897 53.5191 71.8847 53.5191 71.8817 53.5201C71.8117 53.5301 71.7387 53.5401 71.6647 53.5501C71.5527 53.5651 71.4327 53.5791 71.3107 53.5931C71.2437 53.6001 71.1787 53.6081 71.1087 53.6151C70.9607 53.6301 70.8037 53.6431 70.6417 53.6551C70.2637 53.6831 69.8477 53.7041 69.3867 53.7151L68.7707 53.4581C68.7437 53.5201 68.6907 53.6111 68.5917 53.7231C68.5917 53.7241 68.5917 53.7241 68.5917 53.7241H68.5907C68.4717 53.8591 68.2827 54.0201 67.9977 54.1871C68.0007 54.1891 68.0037 54.1911 68.0067 54.1931Z" fill="#2988FF"/>
<path fill-rule="evenodd" clip-rule="evenodd" d="M68.0067 49.366C68.1137 49.435 68.2137 49.506 68.3007 49.582C68.3807 49.651 68.4507 49.723 68.5127 49.798C68.5427 49.834 68.5907 49.866 68.6167 49.904H68.7897L68.8017 50.097C69.6437 50.093 70.3747 50.059 71.0107 50.002C71.1257 49.992 71.2407 49.982 71.3497 49.97C71.5237 49.951 71.6927 49.932 71.8527 49.91C71.8797 49.906 71.9097 49.903 71.9367 49.899C72.2057 49.86 72.4457 49.817 72.6727 49.771C72.7307 49.759 72.7867 49.747 72.8427 49.734C72.9507 49.711 73.0557 49.686 73.1547 49.661C73.3057 49.623 73.4467 49.583 73.5757 49.541C73.6327 49.523 73.6857 49.505 73.7387 49.486C73.7587 49.479 73.7807 49.473 73.8007 49.465C73.9417 49.415 74.0717 49.363 74.1857 49.311C74.1897 49.309 74.1947 49.308 74.1977 49.306C74.3257 49.247 74.4347 49.188 74.5327 49.129C74.5667 49.108 74.6007 49.088 74.6317 49.067C74.7937 48.961 74.9137 48.859 74.9987 48.767C75.0547 48.706 75.0957 48.651 75.1267 48.601C75.1527 48.561 75.1737 48.524 75.1867 48.493L75.2017 47.537L75.2107 46.984L75.2187 46.492L75.2287 45.834L75.2317 45.615C75.2327 45.607 75.2377 45.599 75.2377 45.59C75.2377 45.583 75.2327 45.576 75.2327 45.569L75.2367 45.29H75.1047C75.0037 45.177 74.8417 45.07 74.6367 44.968C74.5647 45.003 74.4877 45.039 74.4057 45.074C74.2357 45.148 74.0397 45.22 73.8207 45.29C73.8127 45.292 73.8047 45.295 73.7977 45.297C73.2707 45.463 72.5937 45.612 71.7297 45.719C71.5397 45.743 71.3387 45.763 71.1307 45.783C71.1277 45.783 71.1247 45.783 71.1217 45.783C71.1057 45.785 71.0877 45.787 71.0707 45.788C70.9217 45.801 70.7797 45.816 70.6207 45.827C70.0797 45.864 69.4747 45.884 68.8127 45.888L68.8057 46.492L68.7997 47.091C69.4327 47.088 70.0437 47.065 70.6207 47.023C70.7737 47.012 70.9227 46.999 71.0707 46.986C71.1737 46.977 71.2747 46.967 71.3747 46.956C71.4247 46.951 71.4727 46.945 71.5207 46.94C71.7807 46.911 72.0337 46.88 72.2727 46.843C72.5877 46.796 72.8797 46.742 73.1537 46.684C73.4277 46.625 73.6787 46.561 73.9057 46.492H74.0347V46.843V47.051V48.021C73.9157 48.11 73.6517 48.265 73.1417 48.421C72.8287 48.516 72.4207 48.611 71.8917 48.691C71.8887 48.692 71.8837 48.692 71.8807 48.693C71.8107 48.703 71.7377 48.713 71.6637 48.723C71.5517 48.738 71.4317 48.752 71.3097 48.766C71.2427 48.773 71.1777 48.781 71.1077 48.788C70.9597 48.803 70.8027 48.816 70.6407 48.828C70.2627 48.856 69.8467 48.877 69.3857 48.888L68.7707 48.632C68.7427 48.693 68.6897 48.784 68.5907 48.896L68.5897 48.897C68.4707 49.032 68.2817 49.193 67.9967 49.36C68.0007 49.362 68.0037 49.364 68.0067 49.366Z" fill="#2988FF"/>
<path fill-rule="evenodd" clip-rule="evenodd" d="M71.8817 43.884C71.2407 43.981 70.4257 44.055 69.3877 44.079L68.7717 43.822C68.7437 43.884 68.6907 43.975 68.5917 44.088H68.5907C68.4727 44.223 68.2837 44.384 67.9977 44.551C68.0007 44.553 68.0047 44.555 68.0077 44.557C68.1147 44.626 68.2137 44.697 68.3007 44.772C68.3817 44.841 68.4517 44.914 68.5137 44.989C68.5437 45.025 68.5907 45.056 68.6167 45.093H68.7897L68.8017 45.288C69.6437 45.284 70.3747 45.249 71.0107 45.193C71.1247 45.183 71.2397 45.173 71.3487 45.161C71.5237 45.142 71.6927 45.122 71.8517 45.101C72.1527 45.059 72.4227 45.012 72.6727 44.962C73.0177 44.892 73.3187 44.814 73.5767 44.733C73.6547 44.707 73.7297 44.682 73.8007 44.657C73.9457 44.604 74.0807 44.551 74.1977 44.498C74.3267 44.438 74.4347 44.379 74.5337 44.32C74.5677 44.299 74.6007 44.279 74.6317 44.258C74.9007 44.082 75.0487 43.917 75.1267 43.793C75.1527 43.753 75.1737 43.715 75.1867 43.685L75.2287 41.025L75.2317 40.806C75.2327 40.798 75.2377 40.79 75.2377 40.781C75.2377 40.774 75.2327 40.767 75.2327 40.76L75.2367 40.481H75.1047C75.0037 40.368 74.8417 40.26 74.6367 40.158C74.5647 40.194 74.4877 40.229 74.4057 40.265C74.2347 40.339 74.0367 40.411 73.8177 40.481C73.8107 40.483 73.8037 40.485 73.7977 40.487C72.7817 40.808 71.2177 41.065 68.8127 41.078L68.8067 41.683L68.8007 42.282C70.8887 42.27 72.7317 42.038 73.9057 41.683H74.0347V43.212C73.8437 43.357 73.2787 43.674 71.8817 43.884Z" fill="#2988FF"/>
<path fill-rule="evenodd" clip-rule="evenodd" d="M62.3134 38.5514C62.3634 38.5524 62.4134 38.5534 62.4644 38.5554C62.8334 38.5674 63.2024 38.5874 63.5703 38.6174C64.4403 38.6884 65.2863 38.8084 66.0393 38.9874C66.3423 39.0594 66.6303 39.1394 66.8973 39.2294C66.9793 39.2564 67.0483 39.2904 67.1273 39.3194C67.1353 39.3224 67.1433 39.3264 67.1513 39.3284C67.4783 39.4534 67.7653 39.5924 68.0073 39.7484C68.1143 39.8174 68.2133 39.8884 68.3013 39.9634C68.3813 40.0324 68.4513 40.1054 68.5133 40.1794C68.5433 40.2164 68.5903 40.2474 68.6163 40.2854H68.7893L68.8013 40.4794C70.5033 40.4704 71.7543 40.3394 72.6723 40.1534C73.0173 40.0834 73.3183 40.0064 73.5753 39.9244C73.6543 39.8994 73.7283 39.8734 73.8003 39.8484C73.9453 39.7954 74.0803 39.7424 74.1973 39.6884C74.8883 39.3704 75.1153 39.0404 75.1873 38.8754L75.2293 36.2174L75.2323 35.9984C75.2333 35.9904 75.2383 35.9824 75.2383 35.9734C75.2383 35.9664 75.2333 35.9594 75.2333 35.9524L75.2373 35.6734H75.1053C75.0053 35.5604 74.8433 35.4524 74.6373 35.3504C74.5653 35.3864 74.4883 35.4214 74.4063 35.4574C74.2353 35.5314 74.0383 35.6034 73.8173 35.6734C73.8113 35.6754 73.8043 35.6774 73.7983 35.6794C72.7553 36.0094 71.1423 36.2744 68.6253 36.2744C66.1083 36.2744 64.4963 36.0094 63.4533 35.6804C63.4473 35.6784 63.4403 35.6764 63.4333 35.6744C63.2134 35.6044 63.0164 35.5314 62.8454 35.4574C62.7634 35.4224 62.6864 35.3864 62.6144 35.3514C62.4084 35.4534 62.2474 35.5614 62.1464 35.6744H62.0134V38.5464C62.1134 38.5454 62.2134 38.5494 62.3134 38.5514ZM64.0963 37.0654C65.2793 37.3194 66.8703 37.4754 68.6263 37.4754C70.7863 37.4754 72.6983 37.2394 73.9053 36.8754H74.0353V38.4024C73.8433 38.5474 73.2783 38.8644 71.8813 39.0744C71.2403 39.1714 70.4243 39.2454 69.3853 39.2694L68.3433 38.8354L64.0963 37.0654Z" fill="#2988FF"/>
<path fill-rule="evenodd" clip-rule="evenodd" d="M62.0644 34.0674C62.1364 34.2324 62.3634 34.5624 63.0534 34.8794C63.1704 34.9334 63.3053 34.9864 63.4503 35.0394C63.5223 35.0644 63.5963 35.0904 63.6753 35.1154C63.9333 35.1974 64.2333 35.2744 64.5783 35.3444C65.5303 35.5374 66.8303 35.6724 68.6263 35.6724C70.4223 35.6724 71.7223 35.5374 72.6733 35.3444C73.0183 35.2744 73.3193 35.1964 73.5773 35.1144C73.6553 35.0894 73.7303 35.0644 73.8013 35.0384C73.9463 34.9864 74.0813 34.9334 74.1983 34.8794C74.8893 34.5614 75.1153 34.2314 75.1873 34.0664L75.2293 31.4075L75.2333 31.1885C75.2333 31.1805 75.2383 31.1725 75.2383 31.1645C75.2383 31.1565 75.2343 31.1495 75.2333 31.1425L75.2383 30.8635H75.1053C74.4923 30.1775 71.8253 29.6615 68.6253 29.6615C65.4263 29.6615 62.7584 30.1775 62.1464 30.8635H62.0134V33.8254V33.8264L62.0644 34.0674ZM69.3863 34.4614L68.3443 34.0264L64.0963 32.2565C65.2803 32.5105 66.8713 32.6665 68.6263 32.6665C70.7883 32.6665 72.7013 32.4305 73.9073 32.0655H74.0363V33.5935C73.8443 33.7384 73.2793 34.0554 71.8823 34.2664C71.2403 34.3624 70.4253 34.4364 69.3863 34.4614Z" fill="#2988FF"/>
<path fill-rule="evenodd" clip-rule="evenodd" d="M68.3672 73.8732H68.2352C68.2302 73.8672 68.2222 73.8612 68.2172 73.8562C68.1682 73.8042 68.1062 73.7532 68.0342 73.7042C67.9582 73.6512 67.8672 73.6002 67.7672 73.5502C67.6952 73.5852 67.6182 73.6212 67.5362 73.6572C67.5112 73.6672 67.4882 73.6782 67.4612 73.6892C67.3532 73.7342 67.2352 73.7782 67.1082 73.8222C67.0582 73.8392 67.0002 73.8562 66.9472 73.8732C66.9412 73.8752 66.9342 73.8772 66.9282 73.8792C66.5932 73.9852 66.1952 74.0832 65.7312 74.1682C64.7482 74.3492 63.4633 74.4732 61.7543 74.4732C59.2373 74.4732 57.6243 74.2082 56.5813 73.8792C56.5753 73.8772 56.5683 73.8752 56.5623 73.8732C56.3423 73.8032 56.1453 73.7312 55.9743 73.6572C55.8923 73.6212 55.8143 73.5852 55.7433 73.5502C55.5373 73.6522 55.3753 73.7602 55.2743 73.8732H55.1423V74.1732V74.4172V76.4521V76.5451V76.8351L55.1933 77.0771C55.2473 77.2001 55.3903 77.4141 55.7413 77.6461C55.8153 77.6941 55.9013 77.7441 55.9953 77.7941C56.0623 77.8301 56.1323 77.8651 56.2103 77.9001C56.3933 77.9831 56.6073 78.0651 56.8593 78.1431C56.9583 78.1731 57.0693 78.2021 57.1803 78.2311C58.1573 78.4881 59.6013 78.6821 61.7543 78.6821C63.9083 78.6821 65.3512 78.4881 66.3282 78.2311C66.4392 78.2021 66.5502 78.1731 66.6492 78.1431C66.9022 78.0651 67.1162 77.9831 67.2992 77.9001C67.3772 77.8651 67.4462 77.8291 67.5132 77.7941C67.6082 77.7441 67.6932 77.6941 67.7682 77.6451C68.1192 77.4131 68.2622 77.1981 68.3162 77.0751L68.3582 74.4172L68.3602 74.3082L68.3612 74.1972C68.3622 74.1892 68.3672 74.1812 68.3672 74.1732C68.3672 74.1662 68.3622 74.1592 68.3622 74.1522L68.3672 73.8732ZM67.1642 75.0752V76.6021C67.0342 76.7011 66.7332 76.8781 66.1172 77.0481C65.8632 77.1181 65.5542 77.1861 65.1832 77.2471C65.1242 77.2571 65.0632 77.2661 65.0012 77.2761C64.3613 77.3721 63.5483 77.4451 62.5153 77.4701L61.4643 77.0321H61.4633L60.4733 76.6191L57.2243 75.2652C58.4083 75.5192 59.9993 75.6752 61.7543 75.6752C63.9153 75.6752 65.8272 75.4392 67.0332 75.0752H67.1642Z" fill="#2988FF"/>
<path fill-rule="evenodd" clip-rule="evenodd" d="M56.1813 73.0804C56.2983 73.1344 56.4333 73.1874 56.5783 73.2394C56.6493 73.2654 56.7243 73.2903 56.8033 73.3153C57.0603 73.3973 57.3603 73.4743 57.7053 73.5443C58.6573 73.7373 59.9573 73.8733 61.7543 73.8733C62.5023 73.8733 63.1583 73.8483 63.7473 73.8073C64.3043 73.7673 64.7933 73.7133 65.2233 73.6463C65.3983 73.6193 65.5663 73.5913 65.7223 73.5613C65.7503 73.5563 65.7743 73.5503 65.8013 73.5443C66.1083 73.4823 66.3853 73.4153 66.6223 73.3433C66.6523 73.3343 66.6763 73.3243 66.7043 73.3153C66.7833 73.2903 66.8583 73.2654 66.9293 73.2394C66.9913 73.2174 67.0503 73.1944 67.1073 73.1714C67.1823 73.1414 67.2593 73.1114 67.3263 73.0804C67.7663 72.8774 68.0143 72.6714 68.1573 72.5054C68.2383 72.4104 68.2893 72.3274 68.3153 72.2674L68.3193 72.0564L68.3403 70.7034L68.3493 70.1064L68.3523 69.9504L68.3573 69.6074L68.3593 69.4994L68.3613 69.3884C68.3613 69.3804 68.3663 69.3724 68.3663 69.3644C68.3663 69.3594 68.3633 69.3544 68.3633 69.3504C68.3633 69.3474 68.3623 69.3454 68.3613 69.3434L68.3663 69.0634H68.2333C68.2283 69.0584 68.2223 69.0534 68.2173 69.0484C68.1743 69.0034 68.1243 68.9584 68.0643 68.9144C68.0593 68.9104 68.0523 68.9074 68.0473 68.9034C67.9673 68.8474 67.8713 68.7934 67.7653 68.7404C67.6933 68.7764 67.6163 68.8124 67.5343 68.8474C67.5223 68.8534 67.5133 68.8574 67.5023 68.8624C67.4693 68.8764 67.4323 68.8904 67.3983 68.9044C67.3043 68.9414 67.2083 68.9794 67.1013 69.0154C67.0533 69.0324 66.9983 69.0474 66.9473 69.0644C66.9413 69.0664 66.9333 69.0684 66.9263 69.0704C66.7203 69.1354 66.4893 69.1974 66.2353 69.2564C66.0793 69.2924 65.9143 69.3264 65.7393 69.3584C65.2963 69.4404 64.7873 69.5094 64.2073 69.5614C63.6873 69.6084 63.1073 69.6404 62.4633 69.6544C62.4153 69.6554 62.3663 69.6554 62.3183 69.6564C62.2163 69.6584 62.1173 69.6604 62.0123 69.6614C61.9233 69.6624 61.8443 69.6654 61.7533 69.6654C61.6863 69.6654 61.6283 69.6624 61.5623 69.6624C59.1583 69.6484 57.5953 69.3914 56.5803 69.0704C56.5733 69.0684 56.5653 69.0664 56.5593 69.0644C56.3393 68.9944 56.1433 68.9224 55.9723 68.8484C55.8903 68.8134 55.8143 68.7774 55.7413 68.7414C55.5363 68.8434 55.3743 68.9514 55.2733 69.0644H55.1403V69.3644V69.6084V71.6434V71.7354V72.0264L55.1913 72.2684C55.2653 72.4334 55.4913 72.7624 56.1813 73.0804ZM61.5633 70.8644C61.6273 70.8654 61.6893 70.8674 61.7543 70.8674C61.8413 70.8674 61.9263 70.8644 62.0133 70.8644C62.0823 70.8634 62.1513 70.8624 62.2203 70.8614C62.3013 70.8604 62.3833 70.8604 62.4633 70.8584C62.7193 70.8514 62.9693 70.8414 63.2153 70.8284C63.8493 70.7964 64.4483 70.7434 64.9993 70.6724C65.2673 70.6384 65.5223 70.5994 65.7663 70.5574C66.2453 70.4734 66.6723 70.3754 67.0353 70.2664H67.1643V70.6684V71.5754V71.7944C67.0053 71.9144 66.5893 72.1514 65.6643 72.3484C65.4693 72.3904 65.2533 72.4304 65.0103 72.4664C64.5103 72.5414 63.9043 72.6034 63.1683 72.6384C63.1573 72.6394 63.1473 72.6394 63.1363 72.6404C62.9613 72.6484 62.7753 72.6544 62.5843 72.6594C62.5603 72.6604 62.5393 72.6614 62.5143 72.6624L62.1293 72.5014L61.5623 72.2654L61.4723 72.2284L57.2233 70.4574C58.3643 70.7014 59.8833 70.8534 61.5633 70.8644Z" fill="#2988FF"/>
<path fill-rule="evenodd" clip-rule="evenodd" d="M56.1813 68.2705C56.2983 68.3245 56.4333 68.3775 56.5793 68.4295C56.6503 68.4555 56.7253 68.4815 56.8033 68.5055C57.0613 68.5875 57.3613 68.6645 57.7063 68.7345C58.6223 68.9205 59.8683 69.0505 61.5633 69.0595C61.6283 69.0605 61.6873 69.0625 61.7543 69.0625C61.8453 69.0625 61.9253 69.0595 62.0133 69.0595C62.0243 69.0595 62.0343 69.0585 62.0453 69.0585C62.1333 69.0585 62.2183 69.0565 62.3043 69.0545C62.4213 69.0525 62.5453 69.0525 62.6573 69.0505C62.8443 69.0445 63.0173 69.0365 63.1933 69.0275C63.4023 69.0175 63.6063 69.0065 63.7993 68.9925C63.9553 68.9815 64.1103 68.9695 64.2563 68.9555C64.4233 68.9405 64.5793 68.9215 64.7323 68.9035C64.9073 68.8815 65.0763 68.8595 65.2343 68.8345C65.4363 68.8035 65.6263 68.7705 65.8023 68.7345C65.8883 68.7165 65.9733 68.6985 66.0523 68.6805C66.2943 68.6255 66.5113 68.5665 66.7053 68.5055C66.7833 68.4795 66.8583 68.4545 66.9293 68.4295C67.0743 68.3765 67.2103 68.3235 67.3273 68.2695C67.3893 68.2415 67.4413 68.2125 67.4963 68.1845C67.5293 68.1675 67.5673 68.1495 67.5973 68.1325C67.8673 67.9805 68.0373 67.8335 68.1483 67.7065L68.1493 67.7055C68.1663 67.6855 68.1853 67.6655 68.1993 67.6475C68.2573 67.5725 68.2943 67.5075 68.3163 67.4575L68.3193 67.2575L68.3333 66.3445L68.3433 65.7476L68.3523 65.1406L68.3583 64.7986L68.3603 64.6906L68.3613 64.5786C68.3623 64.5706 68.3673 64.5626 68.3673 64.5546C68.3673 64.5516 68.3653 64.5486 68.3653 64.5456C68.3653 64.5436 68.3643 64.5426 68.3643 64.5416C68.3643 64.5386 68.3623 64.5366 68.3623 64.5336L68.3673 64.2546H68.2343C68.2303 64.2496 68.2233 64.2446 68.2183 64.2396C68.1753 64.1936 68.1253 64.1496 68.0653 64.1056C67.9823 64.0456 67.8793 63.9876 67.7653 63.9316C67.6943 63.9676 67.6173 64.0026 67.5353 64.0386C67.5233 64.0436 67.5143 64.0486 67.5023 64.0536C67.3803 64.1046 67.2463 64.1566 67.1013 64.2056C67.0523 64.2226 66.9973 64.2386 66.9463 64.2546C66.9403 64.2566 66.9333 64.2586 66.9273 64.2606C66.7203 64.3256 66.4883 64.3886 66.2333 64.4466C66.0833 64.4816 65.9233 64.5136 65.7553 64.5456C65.7503 64.5466 65.7443 64.5466 65.7393 64.5486C65.2953 64.6306 64.7863 64.6986 64.2053 64.7516C63.7953 64.7886 63.3593 64.8186 62.8733 64.8356C62.6513 64.8426 62.4103 64.8456 62.1713 64.8486C62.1183 64.8486 62.0683 64.8506 62.0143 64.8506H62.0133C61.9243 64.8516 61.8453 64.8546 61.7543 64.8546C61.6873 64.8546 61.6293 64.8516 61.5633 64.8516C59.1603 64.8376 57.5963 64.5806 56.5813 64.2606C56.5753 64.2586 56.5683 64.2566 56.5623 64.2546C56.3423 64.1846 56.1453 64.1126 55.9743 64.0386C55.8923 64.0026 55.8143 63.9666 55.7433 63.9316C55.5373 64.0336 55.3753 64.1416 55.2743 64.2546H55.1413V64.5556V64.7986V66.8345V66.9265V67.2175L55.1923 67.4595C55.2653 67.6245 55.4913 67.9535 56.1813 68.2705ZM61.5633 66.0555C61.6273 66.0555 61.6903 66.0575 61.7543 66.0575C61.8423 66.0575 61.9273 66.0555 62.0133 66.0545C62.1333 66.0535 62.2533 66.0535 62.3713 66.0505C62.4023 66.0505 62.4333 66.0495 62.4643 66.0495C62.7193 66.0425 62.9693 66.0325 63.2163 66.0205C63.5333 66.0035 63.8403 65.9825 64.1383 65.9555C64.1483 65.9545 64.1583 65.9545 64.1683 65.9535C64.7463 65.9015 65.2823 65.8315 65.7673 65.7476C66.2453 65.6646 66.6713 65.5666 67.0343 65.4576H67.1643V65.7476V66.3095V66.9855C67.1163 67.0215 67.0413 67.0695 66.9393 67.1225C66.7953 67.1985 66.5903 67.2865 66.3023 67.3755C65.9833 67.4745 65.5613 67.5735 65.0113 67.6565C64.8023 67.6885 64.5753 67.7165 64.3283 67.7425C64.2553 67.7505 64.1813 67.7575 64.1043 67.7645C63.7003 67.8015 63.2433 67.8285 62.7343 67.8445C62.6603 67.8475 62.5903 67.8505 62.5133 67.8525L62.4643 67.8315L62.0443 67.6565L62.0133 67.6435L61.5633 67.4555L61.4713 67.4175L57.2243 65.6486C58.3643 65.8915 59.8843 66.0445 61.5633 66.0555Z" fill="#2988FF"/>
<path fill-rule="evenodd" clip-rule="evenodd" d="M56.1813 63.4617C56.2983 63.5157 56.4333 63.5687 56.5783 63.6207C56.6503 63.6467 56.7243 63.6727 56.8033 63.6967C57.0613 63.7787 57.3613 63.8557 57.7063 63.9257C58.6583 64.1187 59.9573 64.2547 61.7533 64.2547C61.8913 64.2547 62.0143 64.2507 62.1463 64.2487C62.2883 64.2477 62.4323 64.2457 62.5683 64.2427C62.5963 64.2417 62.6283 64.2427 62.6563 64.2417C62.7943 64.2377 62.9213 64.2307 63.0533 64.2257C63.3133 64.2147 63.5633 64.2007 63.7983 64.1837C63.9553 64.1727 64.1093 64.1607 64.2543 64.1467C64.6122 64.1137 64.9352 64.0717 65.2322 64.0267C65.4342 63.9947 65.6242 63.9617 65.8002 63.9257C65.8872 63.9077 65.9712 63.8897 66.0522 63.8717C66.2932 63.8167 66.5102 63.7577 66.7032 63.6967C66.7822 63.6707 66.8572 63.6457 66.9282 63.6207C67.0732 63.5677 67.2082 63.5147 67.3252 63.4607C67.3912 63.4307 67.4462 63.4007 67.5032 63.3707C67.5072 63.3687 67.5112 63.3667 67.5152 63.3647C67.5412 63.3517 67.5712 63.3377 67.5952 63.3237C67.8602 63.1747 68.0302 63.0287 68.1422 62.9037C68.1622 62.8807 68.1812 62.8587 68.1982 62.8377C68.2562 62.7627 68.2932 62.6977 68.3152 62.6477L68.3322 61.5347L68.3422 60.9367L68.3512 60.3317L68.3572 59.9887L68.3592 59.8807L68.3602 59.7697C68.3612 59.7617 68.3662 59.7537 68.3662 59.7457C68.3662 59.7417 68.3632 59.7387 68.3632 59.7357C68.3632 59.7337 68.3632 59.7327 68.3632 59.7317C68.3632 59.7287 68.3612 59.7277 68.3612 59.7247L68.3652 59.4457H68.2332C68.2292 59.4407 68.2222 59.4357 68.2172 59.4307C68.1742 59.3847 68.1252 59.3397 68.0642 59.2957C67.9822 59.2367 67.8782 59.1787 67.7652 59.1227C67.6932 59.1587 67.6162 59.1937 67.5342 59.2297C67.5232 59.2347 67.5142 59.2397 67.5022 59.2437C67.3802 59.2957 67.2462 59.3477 67.1002 59.3977C67.0522 59.4147 66.9972 59.4297 66.9462 59.4457C66.9392 59.4477 66.9332 59.4497 66.9262 59.4517C66.7202 59.5167 66.4902 59.5787 66.2362 59.6377C66.0862 59.6717 65.9282 59.7047 65.7612 59.7357C65.7542 59.7367 65.7462 59.7377 65.7392 59.7397C65.2962 59.8217 64.7872 59.8907 64.2063 59.9427C63.7963 59.9797 63.3593 60.0097 62.8733 60.0267C62.6513 60.0347 62.4093 60.0367 62.1703 60.0397C62.1183 60.0407 62.0683 60.0417 62.0143 60.0417H62.0133C61.9243 60.0427 61.8453 60.0457 61.7543 60.0457C61.6873 60.0457 61.6293 60.0437 61.5633 60.0427C59.1593 60.0297 57.5963 59.7727 56.5813 59.4517C56.5753 59.4497 56.5683 59.4477 56.5613 59.4457C56.3413 59.3757 56.1443 59.3037 55.9733 59.2297C55.8913 59.1937 55.8143 59.1587 55.7423 59.1227C55.5363 59.2247 55.3753 59.3327 55.2743 59.4457H55.1423V59.7457V59.9897V62.0247V62.1177V62.4077L55.1923 62.6497C55.2653 62.8147 55.4913 63.1437 56.1813 63.4617ZM61.5633 61.2467C61.6273 61.2467 61.6893 61.2487 61.7543 61.2487C61.8413 61.2487 61.9263 61.2467 62.0133 61.2457C62.1333 61.2447 62.2533 61.2437 62.3713 61.2417C62.4023 61.2407 62.4323 61.2407 62.4633 61.2397C62.7193 61.2337 62.9693 61.2237 63.2153 61.2107C63.5323 61.1947 63.8393 61.1727 64.1383 61.1467C64.1483 61.1457 64.1583 61.1447 64.1683 61.1437C64.7472 61.0927 65.2842 61.0227 65.7702 60.9377C66.2472 60.8547 66.6712 60.7577 67.0332 60.6487H67.1642V60.9377V61.5007V62.1757C67.1162 62.2117 67.0412 62.2597 66.9392 62.3137C66.6352 62.4737 66.0562 62.6897 65.0102 62.8477C64.8022 62.8787 64.5742 62.9077 64.3273 62.9327C63.8693 62.9807 63.3403 63.0167 62.7343 63.0357C62.6603 63.0377 62.5903 63.0407 62.5143 63.0427L62.4643 63.0217L62.0443 62.8467L62.0133 62.8337L61.5633 62.6457L61.4723 62.6077L57.2233 60.8387C58.3633 61.0827 59.8833 61.2357 61.5633 61.2467Z" fill="#2988FF"/>
<path fill-rule="evenodd" clip-rule="evenodd" d="M56.1813 58.6527C56.2983 58.7067 56.4333 58.7597 56.5783 58.8117C56.6493 58.8377 56.7243 58.8627 56.8033 58.8877C57.0603 58.9697 57.3613 59.0467 57.7063 59.1167C58.6573 59.3097 59.9573 59.4457 61.7543 59.4457C61.8913 59.4457 62.0133 59.4417 62.1453 59.4397C62.2873 59.4387 62.4323 59.4377 62.5683 59.4337C62.5973 59.4337 62.6293 59.4337 62.6583 59.4327C62.7963 59.4287 62.9223 59.4217 63.0533 59.4167C63.3143 59.4057 63.5643 59.3917 63.8003 59.3747C63.9573 59.3637 64.1123 59.3517 64.2583 59.3387C64.6143 59.3047 64.9373 59.2637 65.2333 59.2177C65.4353 59.1857 65.6253 59.1527 65.8023 59.1167C65.8883 59.0987 65.9733 59.0807 66.0543 59.0627C66.2953 59.0077 66.5123 58.9487 66.7053 58.8877C66.7843 58.8627 66.8583 58.8367 66.9293 58.8117C67.0753 58.7597 67.2093 58.7057 67.3263 58.6517C67.3923 58.6217 67.4483 58.5917 67.5053 58.5617C67.5093 58.5597 67.5133 58.5577 67.5173 58.5557C67.5433 58.5417 67.5743 58.5277 67.5983 58.5147C67.8633 58.3647 68.0323 58.2187 68.1443 58.0937C68.1633 58.0717 68.1833 58.0497 68.1993 58.0287C68.2573 57.9547 68.2943 57.8887 68.3163 57.8387L68.3343 56.7257L68.3433 56.1287L68.3533 55.5217L68.3583 55.1797L68.3603 55.0717L68.3623 54.9607C68.3623 54.9527 68.3673 54.9447 68.3673 54.9367C68.3673 54.9327 68.3653 54.9297 68.3653 54.9257C68.3653 54.9247 68.3643 54.9237 68.3633 54.9227C68.3633 54.9207 68.3623 54.9177 68.3623 54.9157L68.3663 54.6357H68.2343C68.2293 54.6307 68.2223 54.6257 68.2173 54.6207C68.1743 54.5757 68.1253 54.5307 68.0653 54.4867C67.9823 54.4267 67.8793 54.3697 67.7653 54.3127C67.6943 54.3487 67.6173 54.3847 67.5353 54.4197C67.5233 54.4247 67.5143 54.4297 67.5033 54.4347C67.3813 54.4867 67.2473 54.5377 67.1023 54.5877C67.0543 54.6037 66.9993 54.6197 66.9493 54.6357C66.9423 54.6377 66.9343 54.6407 66.9273 54.6427C66.7213 54.7077 66.4903 54.7697 66.2363 54.8287C66.0863 54.8627 65.9273 54.8957 65.7603 54.9267C65.7543 54.9277 65.7473 54.9287 65.7403 54.9307C65.2973 55.0127 64.7883 55.0817 64.2083 55.1337C63.7973 55.1707 63.3603 55.2007 62.8723 55.2177C62.6503 55.2257 62.4093 55.2277 62.1703 55.2307C62.1183 55.2317 62.0683 55.2327 62.0143 55.2327H62.0133C61.9243 55.2337 61.8453 55.2377 61.7543 55.2377C61.6863 55.2377 61.6283 55.2347 61.5623 55.2337C59.1593 55.2207 57.5953 54.9627 56.5813 54.6427C56.5743 54.6407 56.5663 54.6377 56.5593 54.6357C56.3403 54.5667 56.1433 54.4937 55.9733 54.4207C55.8913 54.3847 55.8143 54.3487 55.7423 54.3137C55.5363 54.4157 55.3753 54.5237 55.2743 54.6357H55.1413V54.9367V55.1807V57.2157V57.3087V57.5987L55.1923 57.8407C55.2653 58.0057 55.4913 58.3347 56.1813 58.6527ZM61.5633 56.4377C61.6273 56.4377 61.6893 56.4397 61.7543 56.4397C61.8413 56.4397 61.9263 56.4377 62.0133 56.4367C62.1333 56.4357 62.2533 56.4347 62.3713 56.4327C62.4023 56.4317 62.4323 56.4317 62.4633 56.4307C62.7193 56.4247 62.9693 56.4147 63.2153 56.4017C63.5323 56.3857 63.8393 56.3637 64.1373 56.3377C64.1473 56.3367 64.1583 56.3357 64.1683 56.3347C64.7463 56.2837 65.2833 56.2137 65.7683 56.1297C66.2473 56.0457 66.6723 55.9487 67.0353 55.8387H67.1643V56.1297V56.6917V57.3677C67.1153 57.4037 67.0413 57.4517 66.9393 57.5047C66.6353 57.6647 66.0563 57.8817 65.0103 58.0397C64.8023 58.0707 64.5753 58.0987 64.3283 58.1247C63.8703 58.1727 63.3413 58.2087 62.7343 58.2277C62.6613 58.2297 62.5913 58.2327 62.5153 58.2347L62.4643 58.2137L62.0443 58.0387L62.0133 58.0257L61.5633 57.8377L61.4733 57.8007L57.2243 56.0297C58.3643 56.2737 59.8833 56.4267 61.5633 56.4377Z" fill="#2988FF"/>
<path fill-rule="evenodd" clip-rule="evenodd" d="M56.1813 53.8436C56.2983 53.8976 56.4333 53.9506 56.5793 54.0026C56.6503 54.0286 56.7253 54.0536 56.8033 54.0786C57.0613 54.1606 57.3613 54.2376 57.7063 54.3076C58.6583 54.5006 59.9583 54.6366 61.7543 54.6366C61.8923 54.6366 62.0153 54.6326 62.1473 54.6306C62.2893 54.6286 62.4343 54.6276 62.5703 54.6246C62.5983 54.6236 62.6293 54.6246 62.6573 54.6236C62.7963 54.6196 62.9233 54.6126 63.0553 54.6066C63.3143 54.5966 63.5643 54.5826 63.7993 54.5656C63.9553 54.5546 64.1103 54.5426 64.2563 54.5296C64.6133 54.4956 64.9362 54.4546 65.2342 54.4086C65.4362 54.3766 65.6252 54.3436 65.8022 54.3076C65.8882 54.2906 65.9722 54.2726 66.0522 54.2536C66.2942 54.1986 66.5112 54.1406 66.7052 54.0786C66.7832 54.0536 66.8582 54.0286 66.9292 54.0026C67.0742 53.9506 67.2102 53.8976 67.3272 53.8436C67.3922 53.8136 67.4482 53.7836 67.5052 53.7526C67.5092 53.7506 67.5132 53.7486 67.5172 53.7466C67.5432 53.7336 67.5732 53.7196 67.5972 53.7056C67.8632 53.5556 68.0322 53.4106 68.1432 53.2856C68.1632 53.2626 68.1822 53.2406 68.1992 53.2206C68.2562 53.1456 68.2942 53.0806 68.3152 53.0306L68.3332 51.9176L68.3432 51.3206L68.3522 50.7136L68.3582 50.3716L68.3592 50.2636L68.3612 50.1516C68.3622 50.1436 68.3662 50.1356 68.3662 50.1276C68.3662 50.1246 68.3642 50.1216 68.3642 50.1186C68.3642 50.1166 68.3642 50.1156 68.3642 50.1146C68.3642 50.1116 68.3622 50.1096 68.3622 50.1076L68.3662 49.8276H68.2342C68.2292 49.8226 68.2232 49.8176 68.2182 49.8126C68.1752 49.7666 68.1252 49.7226 68.0652 49.6786C67.9822 49.6186 67.8792 49.5616 67.7652 49.5046C67.6942 49.5406 67.6172 49.5756 67.5352 49.6116C67.5232 49.6166 67.5142 49.6216 67.5022 49.6266C67.3802 49.6786 67.2462 49.7296 67.1012 49.7796C67.0522 49.7956 66.9972 49.8116 66.9462 49.8276C66.9402 49.8296 66.9332 49.8316 66.9272 49.8336C66.7202 49.8996 66.4882 49.9616 66.2332 50.0206C66.0832 50.0546 65.9232 50.0866 65.7552 50.1186C65.7502 50.1196 65.7442 50.1206 65.7392 50.1216C65.2952 50.2036 64.7862 50.2726 64.2063 50.3246C63.7963 50.3616 63.3603 50.3916 62.8743 50.4086C62.6523 50.4166 62.4103 50.4186 62.1713 50.4216C62.1183 50.4226 62.0693 50.4236 62.0153 50.4246H62.0133C61.9253 50.4246 61.8453 50.4286 61.7543 50.4286C61.6873 50.4286 61.6293 50.4256 61.5633 50.4246C59.1603 50.4116 57.5973 50.1546 56.5823 49.8336C56.5753 49.8316 56.5683 49.8296 56.5623 49.8276C56.3423 49.7586 56.1453 49.6856 55.9743 49.6116C55.8923 49.5766 55.8153 49.5406 55.7433 49.5046C55.5373 49.6076 55.3753 49.7156 55.2753 49.8286H55.1423V50.1286V50.3726V52.4076V52.4996V52.7906L55.1933 53.0326C55.2653 53.1976 55.4913 53.5266 56.1813 53.8436ZM61.5633 51.6287C61.6273 51.6287 61.6903 51.6307 61.7543 51.6307C61.8423 51.6307 61.9273 51.6287 62.0133 51.6277C62.1333 51.6267 62.2533 51.6257 62.3713 51.6237C62.4023 51.6227 62.4333 51.6227 62.4643 51.6217C62.7193 51.6157 62.9693 51.6057 63.2163 51.5927C63.5333 51.5767 63.8403 51.5547 64.1383 51.5287C64.1483 51.5277 64.1583 51.5267 64.1693 51.5257C64.7462 51.4747 65.2822 51.4047 65.7662 51.3207C66.2452 51.2367 66.6712 51.1397 67.0342 51.0297H67.1642V51.3207V51.8827V52.5587C67.1162 52.5947 67.0412 52.6427 66.9392 52.6957C66.6352 52.8557 66.0572 53.0727 65.0112 53.2297C64.8022 53.2617 64.5752 53.2897 64.3282 53.3157C63.8703 53.3627 63.3403 53.3987 62.7343 53.4177C62.6603 53.4197 62.5903 53.4227 62.5133 53.4247L62.4643 53.4047L62.0443 53.2297L62.0133 53.2167L61.5633 53.0287L61.4713 52.9907L57.2243 51.2207C58.3643 51.4647 59.8843 51.6177 61.5633 51.6287Z" fill="#2988FF"/>
<path fill-rule="evenodd" clip-rule="evenodd" d="M56.1823 49.0162C56.2993 49.0702 56.4343 49.1232 56.5803 49.1752C56.6513 49.2012 56.7263 49.2262 56.8043 49.2512C57.0623 49.3332 57.3623 49.4102 57.7073 49.4802C58.6593 49.6732 59.9592 49.8092 61.7552 49.8092C61.8922 49.8092 62.0152 49.8052 62.1472 49.8032C62.2902 49.8022 62.4342 49.8012 62.5702 49.7972C62.5982 49.7972 62.6302 49.7972 62.6572 49.7962C62.7962 49.7922 62.9232 49.7852 63.0552 49.7802C63.3152 49.7692 63.5642 49.7552 63.7992 49.7392C63.9562 49.7272 64.1112 49.7162 64.2572 49.7022C64.6142 49.6682 64.9372 49.6272 65.2342 49.5812C65.4362 49.5502 65.6262 49.5162 65.8022 49.4802C65.8882 49.4632 65.9732 49.4452 66.0532 49.4272C66.2942 49.3722 66.5122 49.3132 66.7052 49.2512C66.7842 49.2262 66.8582 49.2012 66.9292 49.1752C67.0752 49.1232 67.2102 49.0702 67.3272 49.0162C67.3922 48.9862 67.4482 48.9562 67.5052 48.9262C67.5092 48.9242 67.5132 48.9222 67.5172 48.9202C67.5432 48.9062 67.5732 48.8932 67.5972 48.8792C67.8632 48.7302 68.0322 48.5842 68.1442 48.4582C68.1632 48.4362 68.1832 48.4142 68.2002 48.3932C68.2582 48.3182 68.2952 48.2532 68.3172 48.2032L68.3352 47.0912L68.3442 46.4932L68.3542 45.8872L68.3592 45.5452L68.3612 45.4372L68.3632 45.3252C68.3632 45.3172 68.3682 45.3092 68.3682 45.3012C68.3682 45.2982 68.3662 45.2942 68.3662 45.2912C68.3662 45.2912 68.3652 45.2892 68.3652 45.2882C68.3652 45.2852 68.3632 45.2832 68.3632 45.2802L68.3682 45.0012H68.2352C68.2312 44.9962 68.2242 44.9912 68.2192 44.9862C68.1762 44.9402 68.1272 44.8952 68.0662 44.8512C67.9842 44.7922 67.8802 44.7342 67.7672 44.6782C67.6952 44.7142 67.6182 44.7492 67.5362 44.7852C67.5252 44.7902 67.5152 44.7942 67.5042 44.7992C67.3822 44.8512 67.2482 44.9022 67.1022 44.9522C67.0542 44.9692 66.9992 44.9842 66.9472 45.0012C66.9412 45.0032 66.9342 45.0052 66.9282 45.0072C66.7212 45.0722 66.4892 45.1342 66.2342 45.1932C66.0862 45.2272 65.9282 45.2592 65.7622 45.2902C65.7552 45.2922 65.7472 45.2932 65.7402 45.2942C65.2962 45.3762 64.7872 45.4452 64.2072 45.4972C63.7972 45.5342 63.3612 45.5642 62.8752 45.5812C62.6532 45.5892 62.4112 45.5912 62.1722 45.5942C62.1192 45.5952 62.0692 45.5972 62.0162 45.5972H62.0152C61.9262 45.5982 61.8462 45.6012 61.7552 45.6012C61.6882 45.6012 61.6302 45.5982 61.5642 45.5982C59.1613 45.5842 57.5983 45.3272 56.5833 45.0072C56.5763 45.0052 56.5693 45.0032 56.5633 45.0012C56.3433 44.9312 56.1463 44.8582 55.9753 44.7852C55.8933 44.7492 55.8153 44.7132 55.7443 44.6782C55.5383 44.7802 55.3763 44.8882 55.2753 45.0012H55.1433V45.3012V45.5452V47.5802V47.6732V47.9622L55.1933 48.2042C55.2653 48.3692 55.4923 48.6982 56.1823 49.0162ZM61.5632 46.8012C61.6282 46.8012 61.6902 46.8032 61.7552 46.8032C61.8422 46.8032 61.9272 46.8012 62.0142 46.8002C62.1342 46.7992 62.2542 46.7992 62.3722 46.7962C62.4022 46.7962 62.4332 46.7952 62.4642 46.7952C62.7202 46.7882 62.9702 46.7782 63.2162 46.7662C63.5332 46.7492 63.8402 46.7282 64.1382 46.7012C64.1482 46.7002 64.1592 46.7002 64.1682 46.6992C64.7482 46.6472 65.2862 46.5772 65.7722 46.4922C66.2492 46.4092 66.6722 46.3122 67.0342 46.2032H67.1642V46.4922V47.0562V47.7302C67.1162 47.7672 67.0412 47.8152 66.9392 47.8682C66.6352 48.0282 66.0572 48.2452 65.0102 48.4022C64.8022 48.4342 64.5752 48.4622 64.3272 48.4882C63.8702 48.5352 63.3402 48.5712 62.7342 48.5902C62.6602 48.5922 62.5902 48.5952 62.5142 48.5972L62.4642 48.5772L62.0452 48.4022L62.0142 48.3892L61.5632 48.2012L61.4722 48.1632L57.2253 46.3932C58.3653 46.6372 59.8843 46.7902 61.5632 46.8012Z" fill="#2988FF"/>
<path fill-rule="evenodd" clip-rule="evenodd" d="M56.1813 44.2076C56.2983 44.2616 56.4333 44.3146 56.5783 44.3666C56.6503 44.3926 56.7243 44.4186 56.8033 44.4426C57.0613 44.5246 57.3613 44.6016 57.7063 44.6716C58.6583 44.8646 59.9583 45.0006 61.7543 45.0006C61.8913 45.0006 62.0143 44.9966 62.1463 44.9946C62.2883 44.9936 62.4333 44.9926 62.5683 44.9886C62.5963 44.9886 62.6283 44.9886 62.6563 44.9876C62.7953 44.9836 62.9213 44.9766 63.0533 44.9716C63.3133 44.9606 63.5633 44.9466 63.7993 44.9296C63.9553 44.9186 64.1103 44.9066 64.2553 44.8936C64.6123 44.8596 64.9353 44.8186 65.2333 44.7726C65.4353 44.7406 65.6243 44.7076 65.8013 44.6716C65.8873 44.6536 65.9723 44.6356 66.0523 44.6176C66.2933 44.5626 66.5113 44.5036 66.7043 44.4426C66.7833 44.4176 66.8573 44.3916 66.9283 44.3666C67.0743 44.3146 67.2093 44.2606 67.3263 44.2066C67.3913 44.1766 67.4473 44.1466 67.5043 44.1166C67.5083 44.1146 67.5123 44.1126 67.5163 44.1106C67.5413 44.0966 67.5713 44.0836 67.5953 44.0696C67.8603 43.9206 68.0303 43.7746 68.1423 43.6496C68.1623 43.6266 68.1813 43.6046 68.1983 43.5836C68.2563 43.5086 68.2933 43.4436 68.3153 43.3936L68.3323 42.2806L68.3423 41.6826L68.3513 41.0766L68.3573 40.7346L68.3593 40.6266L68.3603 40.5146C68.3613 40.5066 68.3663 40.4986 68.3663 40.4906C68.3663 40.4876 68.3633 40.4846 68.3633 40.4806C68.3633 40.4796 68.3633 40.4776 68.3633 40.4776C68.3633 40.4746 68.3613 40.4726 68.3613 40.4696L68.3653 40.1896H68.2333C68.2283 40.1846 68.2213 40.1796 68.2163 40.1746C68.1743 40.1296 68.1243 40.0846 68.0643 40.0406C67.9283 39.9426 67.7483 39.8496 67.5313 39.7606C67.2033 39.6266 66.7853 39.5056 66.2983 39.4016C66.2703 39.3946 66.2403 39.3896 66.2103 39.3836C65.8083 39.2996 65.3643 39.2256 64.8803 39.1666C64.2343 39.0876 63.5213 39.0336 62.7693 39.0076C62.6733 39.0046 62.5793 39.0006 62.4833 38.9976C62.3663 38.9946 62.2473 38.9936 62.1293 38.9926C62.0903 38.9916 62.0513 38.9916 62.0123 38.9906C61.9263 38.9896 61.8413 38.9876 61.7533 38.9876C61.6893 38.9876 61.6263 38.9896 61.5623 38.9896C58.4493 39.0106 55.8743 39.5176 55.2743 40.1896H55.1413V40.4906V40.7346V42.7696V42.8626V43.1526L55.1913 43.3946C55.2653 43.5606 55.4913 43.8896 56.1813 44.2076ZM67.1643 42.2466V42.9216C67.1153 42.9576 67.0413 43.0056 66.9393 43.0596C66.6343 43.2196 66.0563 43.4356 65.0103 43.5936C64.8013 43.6246 64.5743 43.6536 64.3273 43.6796C63.8693 43.7266 63.3403 43.7626 62.7343 43.7816C62.6603 43.7836 62.5903 43.7866 62.5143 43.7886L62.4633 43.7676L62.0443 43.5926L62.0133 43.5796L61.5623 43.3916L61.4723 43.3546L57.2233 41.5836C58.3633 41.8286 59.8833 41.9806 61.5623 41.9916C61.6263 41.9926 61.6893 41.9946 61.7533 41.9946C61.8413 41.9946 61.9263 41.9916 62.0123 41.9916C62.1323 41.9906 62.2523 41.9896 62.3703 41.9876C62.4013 41.9866 62.4323 41.9866 62.4633 41.9856C62.7183 41.9796 62.9683 41.9696 63.2153 41.9566C63.5323 41.9396 63.8393 41.9186 64.1373 41.8926C64.1473 41.8916 64.1573 41.8906 64.1673 41.8896C64.7463 41.8376 65.2833 41.7676 65.7693 41.6836C66.2473 41.6006 66.6723 41.5026 67.0353 41.3936H67.1633V41.6836V42.2466H67.1643Z" fill="#2988FF"/>
<path fill-rule="evenodd" clip-rule="evenodd" d="M13.2792 42.0684C13.2792 41.4305 13.7963 40.9134 14.4342 40.9134H18.2222C18.8601 40.9134 19.3772 41.4305 19.3772 42.0684V48.9293C19.3772 49.5672 18.8601 50.0843 18.2222 50.0843H14.4342C13.7963 50.0843 13.2792 49.5672 13.2792 48.9293V42.0684ZM15.5892 43.2234V47.7743H17.0672V43.2234H15.5892Z" fill="#2988FF"/>
<path fill-rule="evenodd" clip-rule="evenodd" d="M35.5301 42.0684C35.5301 41.4305 36.0472 40.9134 36.6851 40.9134H40.4731C41.111 40.9134 41.6281 41.4305 41.6281 42.0684V48.9293C41.6281 49.5672 41.111 50.0843 40.4731 50.0843H36.6851C36.0472 50.0843 35.5301 49.5672 35.5301 48.9293V42.0684ZM37.8401 43.2234V47.7743H39.3181V43.2234H37.8401Z" fill="#2988FF"/>
<path fill-rule="evenodd" clip-rule="evenodd" d="M24.4051 42.0684C24.4051 41.4305 24.9223 40.9134 25.5601 40.9134H29.3481C29.986 40.9134 30.5031 41.4305 30.5031 42.0684V48.9293C30.5031 49.5672 29.986 50.0843 29.3481 50.0843H25.5601C24.9223 50.0843 24.4051 49.5672 24.4051 48.9293V42.0684ZM26.7151 43.2234V47.7743H28.1931V43.2234H26.7151Z" fill="#2988FF"/>
<path fill-rule="evenodd" clip-rule="evenodd" d="M5.01951 27.0053C5.01951 25.8817 5.93038 24.9708 7.054 24.9708H47.8538C48.9774 24.9708 49.8883 25.8817 49.8883 27.0053V78.0053C49.8883 79.1289 48.9774 80.0398 47.8538 80.0398H7.054C5.93038 80.0398 5.01951 79.1289 5.01951 78.0053V27.0053ZM9.08848 29.0398V75.9708H45.8193V29.0398H9.08848Z" fill="#1C3553"/>
<path fill-rule="evenodd" clip-rule="evenodd" d="M17.358 57.2615V62.3214H15.298V57.2615H17.358ZM17.828 55.7915C18.3803 55.7915 18.828 56.2392 18.828 56.7915V62.7914C18.828 63.3437 18.3803 63.7914 17.828 63.7914H14.828C14.2758 63.7914 13.8281 63.3437 13.8281 62.7914V56.7915C13.8281 56.2392 14.2758 55.7915 14.828 55.7915H17.828Z" fill="#1C3553"/>
<path fill-rule="evenodd" clip-rule="evenodd" d="M28.358 57.2615V62.3214H26.298V57.2615H28.358ZM28.828 55.7915C29.3803 55.7915 29.828 56.2392 29.828 56.7915V62.7914C29.828 63.3437 29.3803 63.7914 28.828 63.7914H25.828C25.2757 63.7914 24.828 63.3437 24.828 62.7914V56.7915C24.828 56.2392 25.2757 55.7915 25.828 55.7915H28.828Z" fill="#1C3553"/>
<path fill-rule="evenodd" clip-rule="evenodd" d="M39.3579 57.2615V62.3214H37.2979V57.2615H39.3579ZM39.8279 55.7915C40.3802 55.7915 40.8279 56.2392 40.8279 56.7915V62.7914C40.8279 63.3437 40.3802 63.7914 39.8279 63.7914H36.8279C36.2757 63.7914 35.8279 63.3437 35.8279 62.7914V56.7915C35.8279 56.2392 36.2757 55.7915 36.8279 55.7915H39.8279Z" fill="#1C3553"/>
<path fill-rule="evenodd" clip-rule="evenodd" d="M49.9077 21.6716C49.9077 20.9636 49.3557 20.3887 48.6738 20.3887H19.8819C19.9149 19.2397 19.9219 18.0897 19.8859 16.9397C19.8719 16.5007 19.3809 16.1707 18.7069 16.0497C18.7009 16.0487 18.6969 16.0487 18.6899 16.0477C18.6379 16.0387 18.5859 16.0297 18.5319 16.0247C18.5289 16.0237 18.5259 16.0237 18.5229 16.0227C18.4649 16.0167 18.4079 16.0117 18.3479 16.0067H18.3419C18.2879 16.0037 18.2329 16.0017 18.1779 16.0017C18.1699 16.0007 18.1619 16.0007 18.1529 15.9997C18.1419 15.9997 18.1329 16.0007 18.1219 16.0007C18.1059 16.0007 18.0889 15.9997 18.0699 15.9997C18.0559 16.0007 18.0439 16.0017 18.0299 16.0027C17.0619 16.0227 16.3679 16.4287 16.3419 17.0337C16.3159 17.6337 16.3359 18.2357 16.3359 18.8367C16.3359 19.3547 16.3299 19.8717 16.3369 20.3887H14.4779C14.5109 19.2397 14.5179 18.0897 14.4819 16.9397C14.4679 16.5007 13.9769 16.1707 13.3029 16.0497C13.2969 16.0487 13.2919 16.0487 13.2859 16.0477C13.2339 16.0387 13.1819 16.0297 13.1279 16.0247C13.1249 16.0237 13.1219 16.0237 13.1189 16.0227C13.0609 16.0167 13.0039 16.0117 12.9439 16.0067H12.9379C12.8839 16.0037 12.8289 16.0017 12.7739 16.0017C12.7659 16.0007 12.7579 16.0007 12.7489 15.9997C12.7379 15.9997 12.7289 16.0007 12.7179 16.0007C12.7009 16.0007 12.6839 15.9997 12.6659 15.9997C12.6519 16.0007 12.6399 16.0017 12.6259 16.0027C11.6579 16.0227 10.9639 16.4287 10.9379 17.0337C10.9119 17.6337 10.9319 18.2357 10.9319 18.8367C10.9319 19.3547 10.9259 19.8717 10.9329 20.3887H6.23397C5.55297 20.3887 4.99997 20.9636 4.99997 21.6716C4.99997 22.3796 5.55297 22.9546 6.23397 22.9546H48.6738C49.3557 22.9546 49.9077 22.3796 49.9077 21.6716Z" fill="#1C3553"/>
</svg>
