<svg width="96" height="96" viewBox="0 0 96 96" fill="none" xmlns="http://www.w3.org/2000/svg">
<path d="M67.0029 63.999H29.0029V76.599H67.0029V63.999Z" fill="#2988FF"/>
<path d="M29.0029 78.599H67.0029C68.1029 78.599 69.0029 77.699 69.0029 76.599V65.499H75.4029C76.2029 65.499 76.9029 64.799 76.9029 63.999C76.9029 63.199 76.2029 62.499 75.4029 62.499H22.5029C21.7029 62.499 21.0029 63.199 21.0029 63.999C21.0029 64.799 21.7029 65.499 22.5029 65.499H27.0029V76.599C27.0029 77.699 27.9029 78.599 29.0029 78.599ZM65.0029 74.599H31.0029V65.499H65.0029V74.599Z" fill="#1C3553"/>
<path d="M18.8027 46.6991C19.2027 47.5991 20.1027 48.5991 22.0027 48.5991C23.1027 48.5991 24.3027 48.5991 25.4027 48.5991H26.7027V57.9991C26.7027 59.0991 27.6027 59.9991 28.7027 59.9991C29.8027 59.9991 30.7027 59.0991 30.7027 57.9991V48.0991C30.7027 45.8991 29.4027 44.5991 27.1027 44.4991H25.4027C24.9027 44.4991 24.4027 44.4991 23.9027 44.4991C26.9027 41.5991 33.6027 35.3991 39.2027 30.1991C43.4027 26.1991 47.0027 22.7991 48.0027 21.9991C48.9027 22.8991 65.3027 38.1991 71.5027 44.4991C71.2027 44.4991 70.8027 44.4991 70.5027 44.4991H68.8027C66.6027 44.4991 65.3027 45.7991 65.3027 48.0991V53.1991V57.9991C65.3027 59.0991 66.2027 59.9991 67.3027 59.9991C68.4027 59.9991 69.3027 59.0991 69.3027 57.9991V53.1991V48.5991H70.6027C71.7027 48.5991 72.9027 48.5991 74.0027 48.5991C76.0027 48.5991 76.9027 47.5991 77.3027 46.6991C77.9027 45.3991 77.0027 44.3991 75.8027 43.1991C70.8027 37.8991 51.7027 19.9991 50.9027 19.1991C50.0027 18.3991 49.1027 17.9991 48.2027 18.0991C47.3027 17.9991 46.3027 18.3991 45.5027 19.1991C44.6027 19.9991 41.0027 23.3991 36.7027 27.3991C29.7027 33.6991 21.3027 41.4991 19.8027 42.9991C18.5027 44.0991 18.2027 45.3991 18.8027 46.6991Z" fill="#1C3553"/>
<path d="M58.0029 58.799C58.4029 58.799 58.7029 58.499 58.7029 58.099V51.199C58.7029 50.799 58.4029 50.499 58.0029 50.499H54.2029C53.8029 50.499 53.5029 50.799 53.5029 51.199V58.099C53.5029 58.499 53.8029 58.799 54.2029 58.799H58.0029ZM54.9029 51.899H57.2029V57.299H54.9029V51.899Z" fill="#1C3553"/>
<path d="M41.9028 58.799C42.3028 58.799 42.6028 58.499 42.6028 58.099V51.199C42.6028 50.799 42.3028 50.499 41.9028 50.499H38.1028C37.7028 50.499 37.4028 50.799 37.4028 51.199V58.099C37.4028 58.499 37.7028 58.799 38.1028 58.799H41.9028ZM38.8028 51.899H41.1028V57.299H38.8028V51.899Z" fill="#1C3553"/>
</svg>
