<svg width="96" height="96" viewBox="0 0 96 96" fill="none" xmlns="http://www.w3.org/2000/svg">
<path fill-rule="evenodd" clip-rule="evenodd" d="M38.5005 65.573C38.5005 65.0207 38.9482 64.573 39.5005 64.573H43.6975C44.2498 64.573 44.6975 65.0207 44.6975 65.573V66.979H47.1775C47.7298 66.979 48.1775 67.4267 48.1775 67.979V69.386H50.6585C51.2108 69.386 51.6585 69.8337 51.6585 70.386V71.793H54.1385C54.6908 71.793 55.1385 72.2407 55.1385 72.793V74H58.1795C58.7318 74 59.1795 74.4477 59.1795 75C59.1795 75.5523 58.7318 76 58.1795 76H54.1385C53.5862 76 53.1385 75.5523 53.1385 75V73.793H50.6585C50.1062 73.793 49.6585 73.3453 49.6585 72.793V71.386H47.1775C46.6252 71.386 46.1775 70.9383 46.1775 70.386V68.979H43.6975C43.1452 68.979 42.6975 68.5313 42.6975 67.979V66.573H39.5005C38.9482 66.573 38.5005 66.1253 38.5005 65.573Z" fill="#2988FF"/>
<path fill-rule="evenodd" clip-rule="evenodd" d="M68 65.4001H27V63.6001H68V65.4001Z" fill="#2988FF"/>
<path fill-rule="evenodd" clip-rule="evenodd" d="M38.5005 53.573C38.5005 53.0207 38.9482 52.573 39.5005 52.573H43.6975C44.2498 52.573 44.6975 53.0207 44.6975 53.573V54.979H47.1775C47.7298 54.979 48.1775 55.4267 48.1775 55.979V57.386H50.6585C51.2108 57.386 51.6585 57.8337 51.6585 58.386V59.793H54.1385C54.6908 59.793 55.1385 60.2407 55.1385 60.793V62H58.1795C58.7318 62 59.1795 62.4477 59.1795 63C59.1795 63.5523 58.7318 64 58.1795 64H54.1385C53.5862 64 53.1385 63.5523 53.1385 63V61.793H50.6585C50.1062 61.793 49.6585 61.3453 49.6585 60.793V59.386H47.1775C46.6252 59.386 46.1775 58.9383 46.1775 58.386V56.979H43.6975C43.1452 56.979 42.6975 56.5313 42.6975 55.979V54.573H39.5005C38.9482 54.573 38.5005 54.1253 38.5005 53.573Z" fill="#2988FF"/>
<path fill-rule="evenodd" clip-rule="evenodd" d="M68 53.4001H27V51.6001H68V53.4001Z" fill="#2988FF"/>
<path fill-rule="evenodd" clip-rule="evenodd" d="M38.5005 41.573C38.5005 41.0207 38.9482 40.573 39.5005 40.573H43.6975C44.2498 40.573 44.6975 41.0207 44.6975 41.573V42.979H47.1775C47.7298 42.979 48.1775 43.4267 48.1775 43.979V45.386H50.6585C51.2108 45.386 51.6585 45.8337 51.6585 46.386V47.793H54.1385C54.6908 47.793 55.1385 48.2407 55.1385 48.793V50H58.1795C58.7318 50 59.1795 50.4477 59.1795 51C59.1795 51.5523 58.7318 52 58.1795 52H54.1385C53.5862 52 53.1385 51.5523 53.1385 51V49.793H50.6585C50.1062 49.793 49.6585 49.3453 49.6585 48.793V47.386H47.1775C46.6252 47.386 46.1775 46.9383 46.1775 46.386V44.979H43.6975C43.1452 44.979 42.6975 44.5313 42.6975 43.979V42.573H39.5005C38.9482 42.573 38.5005 42.1253 38.5005 41.573Z" fill="#2988FF"/>
<path fill-rule="evenodd" clip-rule="evenodd" d="M68 41.4001H27V39.6001H68V41.4001Z" fill="#2988FF"/>
<path fill-rule="evenodd" clip-rule="evenodd" d="M26.05 27.0054C26.05 25.9008 26.9454 25.0054 28.05 25.0054H68.85C69.9546 25.0054 70.85 25.9008 70.85 27.0054V78.0054C70.85 79.1099 69.9546 80.0054 68.85 80.0054H28.05C26.9454 80.0054 26.05 79.1099 26.05 78.0054V27.0054ZM30.05 29.0054V76.0054H66.85V29.0054H30.05Z" fill="#1C3553"/>
<path fill-rule="evenodd" clip-rule="evenodd" d="M70.9076 21.672C70.9076 20.964 70.3556 20.389 69.6736 20.389H40.8816C40.9146 19.24 40.9216 18.09 40.8856 16.94C40.8716 16.501 40.3806 16.171 39.7066 16.05C39.7006 16.049 39.6966 16.049 39.6896 16.048C39.6376 16.039 39.5856 16.03 39.5316 16.025C39.5286 16.024 39.5256 16.024 39.5226 16.023C39.4646 16.017 39.4076 16.012 39.3476 16.007H39.3416C39.2876 16.004 39.2326 16.002 39.1776 16.002C39.1696 16.001 39.1616 16.001 39.1526 16C39.1416 16 39.1326 16.001 39.1216 16.001C39.1056 16.001 39.0886 16 39.0696 16C39.0556 16.001 39.0436 16.002 39.0296 16.003C38.0616 16.023 37.3676 16.429 37.3416 17.034C37.3156 17.634 37.3356 18.236 37.3356 18.837C37.3356 19.355 37.3296 19.872 37.3366 20.389H35.4776C35.5106 19.24 35.5176 18.09 35.4816 16.94C35.4676 16.501 34.9766 16.171 34.3026 16.05C34.2966 16.049 34.2916 16.049 34.2856 16.048C34.2336 16.039 34.1816 16.03 34.1276 16.025C34.1246 16.024 34.1216 16.024 34.1186 16.023C34.0606 16.017 34.0036 16.012 33.9436 16.007H33.9376C33.8836 16.004 33.8286 16.002 33.7736 16.002C33.7656 16.001 33.7576 16.001 33.7486 16C33.7376 16 33.7286 16.001 33.7176 16.001C33.7006 16.001 33.6836 16 33.6656 16C33.6516 16.001 33.6396 16.002 33.6256 16.003C32.6576 16.023 31.9636 16.429 31.9376 17.034C31.9116 17.634 31.9316 18.236 31.9316 18.837C31.9316 19.355 31.9256 19.872 31.9326 20.389H27.2336C26.5526 20.389 25.9996 20.964 25.9996 21.672C25.9996 22.38 26.5526 22.955 27.2336 22.955H69.6736C70.3556 22.955 70.9076 22.38 70.9076 21.672Z" fill="#1C3553"/>
</svg>
