<svg width="96" height="96" viewBox="0 0 96 96" fill="none" xmlns="http://www.w3.org/2000/svg">
<path fill-rule="evenodd" clip-rule="evenodd" d="M28.7978 77.96H68.9077V60.9601H28.7978V77.96Z" fill="#2988FF"/>
<path fill-rule="evenodd" clip-rule="evenodd" d="M26.0497 27.965C26.0497 26.8605 26.9452 25.965 28.0497 25.965H68.8496C69.9542 25.965 70.8496 26.8605 70.8496 27.965V78.965C70.8496 80.0696 69.9542 80.965 68.8496 80.965H28.0497C26.9452 80.965 26.0497 80.0696 26.0497 78.965V27.965ZM30.0497 29.965V76.965H66.8496V29.965H30.0497Z" fill="#1C3553"/>
<path d="M46.7101 48.7987H50.5101C50.9101 48.7987 51.2101 48.4987 51.2101 48.0987V41.1987C51.2101 40.7987 50.9101 40.4987 50.5101 40.4987H46.7101C46.3101 40.4987 46.0101 40.7987 46.0101 41.1987V48.0987C46.0101 48.4987 46.3101 48.7987 46.7101 48.7987ZM47.4101 41.8987H49.7101V47.2987H47.4101V41.8987Z" fill="#1C3553"/>
<path d="M58.2599 48.7987H62.0599C62.4599 48.7987 62.7599 48.4987 62.7599 48.0987V41.1987C62.7599 40.7987 62.4599 40.4987 62.0599 40.4987H58.2599C57.8599 40.4987 57.5599 40.7987 57.5599 41.1987V48.0987C57.5599 48.4987 57.8599 48.7987 58.2599 48.7987ZM58.9599 41.8987H61.2599V47.2987H58.9599V41.8987Z" fill="#1C3553"/>
<path d="M35.1603 48.7987H38.9603C39.3603 48.7987 39.6603 48.4987 39.6603 48.0987V41.1987C39.6603 40.7987 39.3603 40.4987 38.9603 40.4987H35.1603C34.7603 40.4987 34.4603 40.7987 34.4603 41.1987V48.0987C34.3603 48.4987 34.7603 48.7987 35.1603 48.7987ZM35.8603 41.8987H38.1603V47.2987H35.8603V41.8987Z" fill="#1C3553"/>
<path fill-rule="evenodd" clip-rule="evenodd" d="M70.9073 22.6317C70.9073 21.9237 70.3553 21.3487 69.6733 21.3487H40.8814C40.9144 20.1997 40.9214 19.0497 40.8854 17.8997C40.8714 17.4607 40.3804 17.1307 39.7064 17.0097C39.7004 17.0087 39.6964 17.0087 39.6894 17.0077C39.6374 16.9987 39.5854 16.9897 39.5314 16.9847C39.5284 16.9837 39.5254 16.9837 39.5224 16.9827C39.4644 16.9767 39.4074 16.9717 39.3474 16.9677H39.3414C39.2874 16.9637 39.2324 16.9617 39.1774 16.9617C39.1694 16.9607 39.1614 16.9607 39.1524 16.9597C39.1414 16.9597 39.1324 16.9607 39.1214 16.9607C39.1054 16.9607 39.0884 16.9597 39.0694 16.9597C39.0554 16.9607 39.0434 16.9617 39.0294 16.9627C38.0614 16.9827 37.3674 17.3887 37.3414 17.9937C37.3154 18.5937 37.3354 19.1957 37.3354 19.7967C37.3354 20.3147 37.3294 20.8317 37.3364 21.3487H35.4774C35.5104 20.1997 35.5174 19.0497 35.4814 17.8997C35.4674 17.4607 34.9764 17.1307 34.3024 17.0097C34.2964 17.0087 34.2914 17.0087 34.2854 17.0077C34.2334 16.9987 34.1814 16.9897 34.1274 16.9847C34.1244 16.9837 34.1214 16.9837 34.1184 16.9827C34.0604 16.9767 34.0034 16.9717 33.9434 16.9677H33.9374C33.8834 16.9637 33.8284 16.9617 33.7734 16.9617C33.7654 16.9607 33.7574 16.9607 33.7484 16.9597C33.7374 16.9597 33.7284 16.9607 33.7174 16.9607C33.7004 16.9607 33.6834 16.9597 33.6654 16.9597C33.6514 16.9607 33.6394 16.9617 33.6254 16.9627C32.6574 16.9827 31.9634 17.3887 31.9374 17.9937C31.9114 18.5937 31.9314 19.1957 31.9314 19.7967C31.9314 20.3147 31.9254 20.8317 31.9324 21.3487H27.2334C26.5524 21.3487 25.9994 21.9237 25.9994 22.6317C25.9994 23.3397 26.5524 23.9147 27.2334 23.9147H69.6733C70.3553 23.9147 70.9073 23.3397 70.9073 22.6317Z" fill="#1C3553"/>
</svg>
