<svg width="96" height="97" viewBox="0 0 96 97" fill="none" xmlns="http://www.w3.org/2000/svg">
<path fill-rule="evenodd" clip-rule="evenodd" d="M59.0497 51.9967C58.2512 49.5973 56.7334 48.933 54.0201 48.9288H53.5718V48.9266C52.5047 48.9266 51.4376 48.9288 50.3705 48.9288C49.3034 48.9288 48.2339 48.9266 47.1668 48.9266V48.9288H46.7185C44.0052 48.933 42.4874 49.5973 41.6888 51.9967C41.6071 52.2458 41.3222 56.4996 41.4203 57.8324V64.2323C41.418 64.2515 41.4063 64.2685 41.4063 64.2877C41.4063 65.0265 42.0624 65.6247 42.8727 65.6247C43.683 65.6247 44.3391 65.0265 44.3391 64.2877C44.3391 64.2685 44.3274 64.2515 44.3274 64.2323V55.2989C44.3274 53.7745 44.9625 53.3678 45.6023 53.5594V54.905V69.0184C45.5907 69.4421 45.586 69.804 45.586 70.0702C45.586 72.674 45.565 75.2778 45.5953 77.8795C45.5977 78.1903 45.6607 78.4671 45.7518 78.7183C45.7518 78.7226 45.7541 78.729 45.7565 78.7332C45.8382 78.9589 45.9479 79.1633 46.0904 79.3336C46.1487 79.4082 46.2188 79.4699 46.2888 79.5316C46.4266 79.653 46.576 79.7594 46.7465 79.834C46.7769 79.8446 46.8072 79.8553 46.8376 79.8659C47.2415 80.0213 47.7155 80.049 48.2269 79.9106C48.2829 79.8957 48.3133 79.8638 48.3647 79.8446C48.4557 79.8127 48.5351 79.7701 48.6169 79.7275C49.4318 79.3251 49.6419 78.5821 49.6419 77.7283C49.6373 73.6832 49.6396 69.638 49.6419 65.5928V64.128H51.099V65.5928C51.099 69.638 51.1013 73.6832 51.099 77.7283C51.0966 78.5821 51.3091 79.3251 52.1217 79.7275C52.2034 79.7701 52.2828 79.8127 52.3739 79.8446C52.4253 79.8638 52.4556 79.8957 52.5117 79.9106C53.023 80.049 53.4971 80.0213 53.901 79.8659C53.9314 79.8553 53.9641 79.8446 53.9921 79.834C54.1625 79.7594 54.312 79.653 54.4497 79.5316C54.5198 79.4699 54.5898 79.4082 54.6482 79.3336C54.7907 79.1633 54.9004 78.9589 54.9845 78.7332C54.9845 78.729 54.9868 78.7226 54.9891 78.7183C55.0802 78.4671 55.1409 78.1903 55.1456 77.8795C55.1736 75.2778 55.1526 72.674 55.1526 70.0702C55.1526 69.804 55.1479 69.4421 55.1386 69.0184V54.905V53.5594C55.776 53.3678 56.4112 53.7745 56.4112 55.2989V64.2323C56.4112 64.2515 56.3995 64.2685 56.3995 64.2877C56.3995 65.0265 57.0556 65.6247 57.8659 65.6247C58.6761 65.6247 59.3323 65.0265 59.3323 64.2877C59.3323 64.2685 59.3206 64.2515 59.3206 64.2323V57.8324C59.4163 56.4996 59.1315 52.2458 59.0497 51.9967ZM53.7936 44.8794C53.8099 43.1571 52.2922 41.7306 50.4195 41.7072C48.5678 41.6881 46.9683 43.1166 46.945 44.8092C46.924 46.5294 48.4441 47.9366 50.3401 47.9516C52.2572 47.9665 53.7749 46.6145 53.7936 44.8794Z" fill="#2988FF"/>
<path fill-rule="evenodd" clip-rule="evenodd" d="M34.64 21.408H39.76V18.0005H34.64V21.408Z" fill="#1C3553"/>
<path fill-rule="evenodd" clip-rule="evenodd" d="M27 22.2305C27 21.6782 27.4477 21.2305 28 21.2305H70C70.5523 21.2305 71 21.6782 71 22.2305C71 22.7828 70.5523 23.2305 70 23.2305H28C27.4477 23.2305 27 22.7828 27 22.2305Z" fill="#1C3553"/>
<path fill-rule="evenodd" clip-rule="evenodd" d="M28.5858 25.7042C28.9609 25.3291 29.4696 25.1184 30 25.1184H69.1703C70.2748 25.1184 71.1703 26.0138 71.1703 27.1184V74.5554C71.1703 75.6598 70.275 76.5552 69.1706 76.5554L62.1233 76.5565C61.0188 76.5566 60.1232 75.6614 60.123 74.5568C60.1229 73.4522 61.0182 72.5566 62.1227 72.5565L67.1703 72.5557V29.1184H32V72.5565H39C40.1046 72.5565 41 73.4519 41 74.5565C41 75.661 40.1046 76.5565 39 76.5565H30C28.8954 76.5565 28 75.661 28 74.5565V27.1184C28 26.588 28.2107 26.0793 28.5858 25.7042Z" fill="#1C3553"/>
</svg>
