<svg width="96" height="96" viewBox="0 0 96 96" fill="none" xmlns="http://www.w3.org/2000/svg">
<path fill-rule="evenodd" clip-rule="evenodd" d="M11.0195 24.005C11.0195 22.8813 11.9304 21.9705 13.054 21.9705H53.854C54.9777 21.9705 55.8885 22.8813 55.8885 24.005V55.6938C55.8885 56.8174 54.9777 57.7283 53.854 57.7283C52.7304 57.7283 51.8195 56.8174 51.8195 55.6938V26.0395H15.0885V72.9712H22.589C23.7127 72.9712 24.6235 73.8821 24.6235 75.0057C24.6235 76.1293 23.7127 77.0402 22.589 77.0402H13.054C11.9304 77.0402 11.0195 76.1293 11.0195 75.0057V24.005Z" fill="#1C3553"/>
<path fill-rule="evenodd" clip-rule="evenodd" d="M55.9075 18.672C55.9075 17.964 55.3555 17.389 54.6735 17.389H25.8815C25.9145 16.24 25.9215 15.09 25.8855 13.94C25.8715 13.501 25.3805 13.171 24.7065 13.05C24.7005 13.049 24.6965 13.049 24.6895 13.048C24.6375 13.039 24.5855 13.03 24.5315 13.025C24.5285 13.024 24.5255 13.024 24.5225 13.023C24.4645 13.017 24.4075 13.012 24.3475 13.007H24.3415C24.2875 13.004 24.2325 13.002 24.1775 13.002C24.1695 13.001 24.1615 13.001 24.1525 13C24.1415 13 24.1325 13.001 24.1215 13.001C24.1055 13.001 24.0885 13 24.0695 13C24.0555 13.001 24.0435 13.002 24.0295 13.003C23.0615 13.023 22.3675 13.429 22.3415 14.034C22.3155 14.634 22.3355 15.236 22.3355 15.837C22.3355 16.355 22.3295 16.872 22.3365 17.389H20.4775C20.5105 16.24 20.5175 15.09 20.4815 13.94C20.4675 13.501 19.9765 13.171 19.3025 13.05C19.2965 13.049 19.2915 13.049 19.2855 13.048C19.2335 13.039 19.1815 13.03 19.1275 13.025C19.1245 13.024 19.1215 13.024 19.1185 13.023C19.0605 13.017 19.0035 13.012 18.9435 13.007H18.9375C18.8835 13.004 18.8285 13.002 18.7735 13.002C18.7655 13.001 18.7575 13.001 18.7485 13C18.7375 13 18.7285 13.001 18.7175 13.001C18.7005 13.001 18.6835 13 18.6655 13C18.6515 13.001 18.6395 13.002 18.6255 13.003C17.6575 13.023 16.9635 13.429 16.9375 14.034C16.9115 14.634 16.9315 15.236 16.9315 15.837C16.9315 16.355 16.9255 16.872 16.9325 17.389H12.2335C11.5525 17.389 10.9995 17.964 10.9995 18.672C10.9995 19.38 11.5525 19.955 12.2335 19.955H54.6735C55.3555 19.955 55.9075 19.38 55.9075 18.672Z" fill="#1C3553"/>
<path fill-rule="evenodd" clip-rule="evenodd" d="M46.5343 60.6329L47.5613 62.6389C47.5613 62.6389 48.0823 63.6549 47.8213 64.7669L46.5443 70.2089C46.5443 70.2089 46.2833 71.3209 47.4083 71.5129L53.0933 72.4849C53.0933 72.4849 54.2183 72.6779 54.2653 71.5369L54.5723 63.9709C54.5723 63.9709 54.6183 62.8309 53.5163 62.5309L46.5343 60.6329Z" fill="#2988FF"/>
<path fill-rule="evenodd" clip-rule="evenodd" d="M57.7372 65.1346C57.9936 65.4276 57.9639 65.873 57.6709 66.1295L54.0179 69.3265C53.7249 69.5829 53.2795 69.5532 53.0231 69.2602C52.7667 68.9672 52.7963 68.5218 53.0893 68.2654L56.7423 65.0684C57.0353 64.812 57.4807 64.8416 57.7372 65.1346Z" fill="#2988FF"/>
<path fill-rule="evenodd" clip-rule="evenodd" d="M56.4134 63.3558C56.6982 63.1885 57.0609 63.2414 57.2861 63.4829L59.2921 65.6339C59.5173 65.8754 59.5447 66.2409 59.358 66.5133C59.1713 66.7857 58.8205 66.892 58.514 66.769L57.006 66.164C56.8115 66.0859 56.6617 65.9254 56.5975 65.7258L56.0995 64.1798C55.9982 63.8655 56.1287 63.523 56.4134 63.3558Z" fill="#2988FF"/>
<path fill-rule="evenodd" clip-rule="evenodd" d="M59.4892 62.7287C59.5345 62.342 59.8847 62.0652 60.2714 62.1104C60.3647 62.1214 60.4533 62.1472 60.5351 62.1845C60.8893 62.3462 61.0453 62.7644 60.8837 63.1186C60.7328 63.449 60.3587 63.607 60.0216 63.4955C59.6807 63.4124 59.4474 63.0861 59.4892 62.7287Z" fill="#2988FF"/>
<path fill-rule="evenodd" clip-rule="evenodd" d="M62.4892 61.7287C62.5345 61.342 62.8847 61.0652 63.2714 61.1104C63.3647 61.1214 63.4533 61.1472 63.5351 61.1845C63.8893 61.3462 64.0453 61.7644 63.8837 62.1186C63.7328 62.449 63.3587 62.607 63.0216 62.4955C62.6807 62.4124 62.4474 62.0861 62.4892 61.7287Z" fill="#2988FF"/>
<path fill-rule="evenodd" clip-rule="evenodd" d="M65.4892 62.7287C65.5345 62.342 65.8847 62.0652 66.2714 62.1104C66.3647 62.1214 66.4533 62.1472 66.5351 62.1845C66.8893 62.3462 67.0453 62.7644 66.8837 63.1186C66.7328 63.449 66.3587 63.607 66.0216 63.4955C65.6807 63.4124 65.4474 63.0861 65.4892 62.7287Z" fill="#2988FF"/>
<path fill-rule="evenodd" clip-rule="evenodd" d="M45.9336 62.8302C45.9336 62.8302 44.1906 59.5482 43.9776 58.7763C43.1906 55.9223 42.3856 53.0723 41.5256 50.2393C40.7076 47.5433 39.1536 46.4283 36.3736 46.4243C34.0336 46.4213 31.6936 46.4233 29.3536 46.4243C25.9576 46.4243 24.5916 47.4533 23.6216 50.7323C22.0146 55.0363 22.9606 55.7393 24.1896 56.6213L27.7336 58.6733C27.7336 62.5082 27.7336 66.3432 27.7336 70.1772C27.7346 73.1022 27.7136 76.0272 27.7426 78.9511C27.7596 80.6731 28.9636 81.6741 30.4386 81.2331C31.6546 80.8691 31.8886 79.8921 31.8876 78.7822C31.8846 74.2372 31.8876 69.6932 31.8876 65.1482V63.5022H33.3966V70.4392C33.3966 73.2292 33.3876 76.0192 33.3996 78.8092C33.4066 80.3841 34.1476 81.2861 35.4146 81.3161C36.7646 81.3491 37.4836 80.4841 37.5166 78.7872C37.5236 78.4272 37.5186 78.0672 37.5186 77.7072V53.1393V51.6283C38.4996 51.3033 38.9136 51.4873 39.1386 52.3893C39.7696 54.9123 40.5526 57.3973 41.1906 59.9182C41.4906 61.1032 42.1216 61.7972 43.3036 62.0782C44.1756 62.2862 45.0376 62.5622 45.9336 62.8302ZM27.7336 53.0333V55.4423C25.6266 54.4183 25.5526 54.7053 26.2746 52.3263C26.4936 51.5103 26.8736 51.3083 27.7336 51.6053V53.0333Z" fill="#2988FF"/>
<path fill-rule="evenodd" clip-rule="evenodd" d="M35.541 41.7972C35.564 43.7292 34.005 45.3112 32.063 45.3282C30.101 45.3442 28.545 43.8252 28.527 41.8752C28.509 39.9402 30.064 38.3372 31.983 38.3132C33.879 38.2902 35.518 39.8942 35.541 41.7972Z" fill="#2988FF"/>
<path fill-rule="evenodd" clip-rule="evenodd" d="M73.3761 52.0418C73.6391 51.5512 74.1507 51.2451 74.7073 51.2451H76.2983C76.855 51.2451 77.3666 51.5514 77.6296 52.0421L79.1516 54.8821C79.1946 54.9624 79.2303 55.0463 79.2582 55.133L84.4458 71.2585L85.605 72.1702C86.0328 72.5067 86.2466 73.0472 86.1645 73.5853L84.6713 73.3575C86.1645 73.5853 86.1644 73.5857 86.1643 73.5863L86.1637 73.5907L86.1622 73.5998L86.1576 73.6287C86.1537 73.6526 86.1482 73.6859 86.1409 73.7278C86.1264 73.8116 86.1048 73.9303 86.0755 74.0789C86.0168 74.3758 85.9267 74.7939 85.7981 75.2933C85.5426 76.286 85.1282 77.6283 84.4938 78.9863C83.277 81.5908 80.9501 84.847 76.8693 84.847H74.1363C70.0555 84.847 67.7285 81.5908 66.5117 78.9863C65.8773 77.6283 65.4629 76.286 65.2074 75.2933C65.0789 74.7939 64.9887 74.3758 64.93 74.0789C64.9007 73.9303 64.8792 73.8116 64.8646 73.7278C64.8573 73.6859 64.8518 73.6526 64.8479 73.6287L64.8433 73.5998L64.8419 73.5907L64.8412 73.5863C64.8411 73.5857 64.841 73.5853 66.3343 73.3575L64.841 73.5853C64.759 73.0472 64.9727 72.5067 65.4005 72.1702L66.5597 71.2586L71.7463 55.1331C71.7742 55.0463 71.81 54.9621 71.8531 54.8817L73.3761 52.0418ZM67.9956 73.9726C68.034 74.1422 68.0796 74.3327 68.133 74.5402C68.3591 75.4184 68.7177 76.5709 69.2488 77.7076C70.363 80.0927 71.9371 81.826 74.1363 81.826H76.8693C79.0685 81.826 80.6425 80.0927 81.7567 77.7076C82.2878 76.5709 82.6464 75.4184 82.8725 74.5402C82.9259 74.3327 82.9715 74.1422 83.0099 73.9726L82.2155 73.3478C81.979 73.1618 81.8035 72.9095 81.7113 72.6231L76.4242 56.1885L75.5026 54.4687L74.5802 56.1886L69.2942 72.623C69.2021 72.9094 69.0265 73.1618 68.79 73.3478L67.9956 73.9726Z" fill="#2988FF"/>
<path fill-rule="evenodd" clip-rule="evenodd" d="M73.7171 50.7516C74.004 50.404 74.4312 50.2026 74.882 50.2026H76.122C76.5728 50.2026 77 50.404 77.287 50.7516L78.473 52.1886C78.5972 52.3392 78.6911 52.5123 78.7495 52.6986L82.7638 65.5133L83.5942 66.184C84.0105 66.5203 84.2178 67.0517 84.1391 67.581L82.645 67.3591C84.1391 67.581 84.1392 67.5805 84.1391 67.581L84.1384 67.586L84.1372 67.5939L84.1334 67.6184C84.1302 67.6384 84.1257 67.6659 84.1199 67.7004C84.1082 67.7694 84.0911 67.8663 84.0678 67.9874C84.0213 68.2291 83.95 68.5686 83.8484 68.9737C83.6468 69.778 83.3191 70.8691 82.8154 71.9761C81.8656 74.0638 79.9751 76.8525 76.567 76.8525H74.438C71.0296 76.8525 69.1388 74.064 68.1888 71.9761C67.6851 70.8692 67.3573 69.778 67.1556 68.9737C67.0541 68.5687 66.9827 68.2291 66.9362 67.9874C66.913 67.8664 66.8958 67.7694 66.8842 67.7004C66.8783 67.6659 66.8739 67.6384 66.8707 67.6184L66.8669 67.5939L66.8657 67.586L66.8652 67.5832L66.8651 67.582C66.865 67.5815 66.8649 67.581 68.359 67.3591L66.8651 67.582C66.7864 67.0527 66.9936 66.5203 67.4099 66.184L68.2403 65.5133L72.2546 52.6986C72.3129 52.5123 72.4068 52.3392 72.5311 52.1886L73.7171 50.7516ZM70.0186 67.9602C70.039 68.0479 70.0614 68.1411 70.0859 68.2391C70.2596 68.9316 70.5341 69.8362 70.9385 70.7249C71.8047 72.6286 72.9534 73.8315 74.438 73.8315H76.567C78.051 73.8315 79.1995 72.6288 80.0656 70.725C80.47 69.8362 80.7445 68.9316 80.9181 68.2391C80.9427 68.1411 80.9651 68.0479 80.9854 67.9602L80.5099 67.5761C80.278 67.3888 80.1067 67.1371 80.0176 66.8526L75.9549 53.8837L75.502 53.3349L75.0491 53.8837L70.9865 66.8526C70.8973 67.1371 70.7261 67.3888 70.4942 67.5761L70.0186 67.9602Z" fill="#2988FF"/>
<path fill-rule="evenodd" clip-rule="evenodd" d="M73.9039 50.7852C74.19 50.4172 74.6301 50.2019 75.0963 50.2019H75.9083C76.3745 50.2019 76.8146 50.4172 77.1008 50.7852L77.8768 51.7832C77.9926 51.9322 78.0795 52.1016 78.133 52.2826L80.7245 61.0592L81.1612 61.4334C81.5522 61.7685 81.7456 62.2798 81.6742 62.7898L80.1783 62.5804C81.6742 62.7898 81.6743 62.7893 81.6742 62.7898L81.6736 62.7941L81.6727 62.8005L81.6699 62.8193C81.6677 62.8345 81.6646 62.8549 81.6605 62.8802C81.6525 62.9307 81.6408 63.0009 81.625 63.088C81.5935 63.2619 81.5454 63.5048 81.4771 63.7941C81.3418 64.3668 81.1207 65.1495 80.7782 65.9481C80.1626 67.384 78.8102 69.6359 76.1993 69.6359H74.8053C72.1949 69.6359 70.8425 67.3839 70.2268 65.9483C69.8844 65.1496 69.6631 64.367 69.5278 63.7943C69.4594 63.505 69.4112 63.2621 69.3797 63.0882C69.3639 63.0012 69.3522 62.9309 69.3442 62.8804C69.3401 62.8551 69.337 62.8347 69.3347 62.8196L69.332 62.8008L69.331 62.7944L69.3306 62.7909C69.3305 62.7905 69.3304 62.79 70.8263 62.5804L69.3306 62.7909C69.259 62.2805 69.4526 61.7679 69.8442 61.4328L70.2813 61.0587L72.8716 52.2828C72.9251 52.1017 73.012 51.9323 73.1279 51.7832L73.9039 50.7852ZM72.4805 63.1528C72.5913 63.6119 72.7608 64.1921 73.0033 64.7576C73.5766 66.0944 74.2138 66.6149 74.8053 66.6149H76.1993C76.7914 66.6149 77.4286 66.0943 78.0017 64.7577C78.2442 64.192 78.4137 63.6115 78.5244 63.1523L78.4194 63.0624C78.198 62.8726 78.0362 62.6228 77.9537 62.3432L75.5024 54.0414L73.052 62.343C72.9694 62.6231 72.8073 62.8731 72.5855 63.063L72.4805 63.1528Z" fill="#2988FF"/>
</svg>
