<svg width="96" height="96" viewBox="0 0 96 96" fill="none" xmlns="http://www.w3.org/2000/svg">
<path fill-rule="evenodd" clip-rule="evenodd" d="M11.0195 24.005C11.0195 22.8813 11.9304 21.9705 13.054 21.9705H53.854C54.9777 21.9705 55.8885 22.8813 55.8885 24.005V55.6938C55.8885 56.8174 54.9777 57.7283 53.854 57.7283C52.7304 57.7283 51.8195 56.8174 51.8195 55.6938V26.0395H15.0885V72.9712H22.589C23.7127 72.9712 24.6235 73.8821 24.6235 75.0057C24.6235 76.1293 23.7127 77.0402 22.589 77.0402H13.054C11.9304 77.0402 11.0195 76.1293 11.0195 75.0057V24.005Z" fill="#1C3553"/>
<path fill-rule="evenodd" clip-rule="evenodd" d="M55.908 18.672C55.908 17.964 55.356 17.389 54.674 17.389H25.882C25.915 16.24 25.922 15.09 25.886 13.94C25.872 13.501 25.381 13.171 24.707 13.05C24.701 13.049 24.697 13.049 24.69 13.048C24.638 13.039 24.586 13.03 24.532 13.025C24.529 13.024 24.526 13.024 24.523 13.023C24.465 13.017 24.408 13.012 24.348 13.007H24.342C24.288 13.004 24.233 13.002 24.178 13.002C24.17 13.001 24.162 13.001 24.153 13C24.142 13 24.133 13.001 24.122 13.001C24.106 13.001 24.089 13 24.07 13C24.056 13.001 24.044 13.002 24.03 13.003C23.062 13.023 22.368 13.429 22.342 14.034C22.316 14.634 22.336 15.236 22.336 15.837C22.336 16.355 22.33 16.872 22.337 17.389H20.478C20.511 16.24 20.518 15.09 20.482 13.94C20.468 13.501 19.977 13.171 19.303 13.05C19.297 13.049 19.292 13.049 19.286 13.048C19.234 13.039 19.182 13.03 19.128 13.025C19.125 13.024 19.122 13.024 19.119 13.023C19.061 13.017 19.004 13.012 18.944 13.007H18.938C18.884 13.004 18.829 13.002 18.774 13.002C18.766 13.001 18.758 13.001 18.749 13C18.738 13 18.729 13.001 18.718 13.001C18.701 13.001 18.684 13 18.666 13C18.652 13.001 18.64 13.002 18.626 13.003C17.658 13.023 16.964 13.429 16.938 14.034C16.912 14.634 16.932 15.236 16.932 15.837C16.932 16.355 16.926 16.872 16.933 17.389H12.234C11.553 17.389 11 17.964 11 18.672C11 19.38 11.553 19.955 12.234 19.955H54.674C55.356 19.955 55.908 19.38 55.908 18.672Z" fill="#1C3553"/>
<path fill-rule="evenodd" clip-rule="evenodd" d="M46.5338 60.6329L47.5608 62.6389C47.5608 62.6389 48.0818 63.6549 47.8208 64.7669L46.5438 70.2089C46.5438 70.2089 46.2828 71.3209 47.4078 71.5129L53.0928 72.4849C53.0928 72.4849 54.2178 72.6779 54.2648 71.5369L54.5718 63.9709C54.5718 63.9709 54.6178 62.8309 53.5158 62.5309L46.5338 60.6329Z" fill="#2988FF"/>
<path fill-rule="evenodd" clip-rule="evenodd" d="M57.7362 65.1346C57.9926 65.4276 57.963 65.873 57.67 66.1295L54.017 69.3265C53.724 69.5829 53.2786 69.5532 53.0221 69.2602C52.7657 68.9672 52.7954 68.5218 53.0884 68.2654L56.7414 65.0684C57.0344 64.812 57.4798 64.8416 57.7362 65.1346Z" fill="#2988FF"/>
<path fill-rule="evenodd" clip-rule="evenodd" d="M56.4125 63.3558C56.6972 63.1885 57.0599 63.2414 57.2851 63.4829L59.2911 65.6339C59.5164 65.8754 59.5438 66.2409 59.357 66.5133C59.1703 66.7857 58.8195 66.892 58.513 66.769L57.005 66.164C56.8105 66.0859 56.6608 65.9254 56.5965 65.7258L56.0985 64.1798C55.9972 63.8655 56.1277 63.523 56.4125 63.3558Z" fill="#2988FF"/>
<path fill-rule="evenodd" clip-rule="evenodd" d="M59.4892 62.7287C59.5345 62.342 59.8847 62.0652 60.2714 62.1104C60.3647 62.1214 60.4533 62.1472 60.5351 62.1845C60.8893 62.3462 61.0453 62.7644 60.8837 63.1186C60.7328 63.449 60.3587 63.607 60.0216 63.4955C59.6807 63.4124 59.4474 63.0861 59.4892 62.7287Z" fill="#2988FF"/>
<path fill-rule="evenodd" clip-rule="evenodd" d="M62.4892 61.7287C62.5345 61.342 62.8847 61.0652 63.2714 61.1104C63.3647 61.1214 63.4533 61.1472 63.5351 61.1845C63.8893 61.3462 64.0453 61.7644 63.8837 62.1186C63.7328 62.449 63.3587 62.607 63.0216 62.4955C62.6807 62.4124 62.4474 62.0861 62.4892 61.7287Z" fill="#2988FF"/>
<path fill-rule="evenodd" clip-rule="evenodd" d="M65.4892 62.7287C65.5345 62.342 65.8847 62.0652 66.2714 62.1104C66.3647 62.1214 66.4533 62.1472 66.5351 62.1845C66.8893 62.3462 67.0453 62.7644 66.8837 63.1186C66.7328 63.449 66.3587 63.607 66.0216 63.4955C65.6807 63.4124 65.4474 63.0861 65.4892 62.7287Z" fill="#2988FF"/>
<path fill-rule="evenodd" clip-rule="evenodd" d="M45.9331 62.8302C45.9331 62.8302 44.1901 59.5482 43.9771 58.7763C43.1901 55.9223 42.3851 53.0723 41.5251 50.2393C40.7071 47.5433 39.1531 46.4283 36.3731 46.4243C34.0331 46.4213 31.6931 46.4233 29.3531 46.4243C25.9571 46.4243 24.5911 47.4533 23.6211 50.7323C22.0141 55.0363 22.9601 55.7393 24.1891 56.6213L27.7331 58.6733C27.7331 62.5082 27.7331 66.3432 27.7331 70.1772C27.7341 73.1022 27.7131 76.0272 27.7421 78.9511C27.7591 80.6731 28.9631 81.6741 30.4381 81.2331C31.6541 80.8691 31.8881 79.8921 31.8871 78.7822C31.8841 74.2372 31.8871 69.6932 31.8871 65.1482V63.5022H33.3961V70.4392C33.3961 73.2292 33.3871 76.0192 33.3991 78.8092C33.4061 80.3841 34.1471 81.2861 35.4141 81.3161C36.7641 81.3491 37.4831 80.4841 37.5161 78.7872C37.5231 78.4272 37.5181 78.0672 37.5181 77.7072V53.1393V51.6283C38.4991 51.3033 38.9131 51.4873 39.1381 52.3893C39.7691 54.9123 40.5521 57.3973 41.1901 59.9182C41.4901 61.1032 42.1211 61.7972 43.3031 62.0782C44.1751 62.2862 45.0371 62.5622 45.9331 62.8302ZM27.7331 53.0333V55.4423C25.6261 54.4183 25.5521 54.7053 26.2741 52.3263C26.4931 51.5103 26.8731 51.3083 27.7331 51.6053V53.0333Z" fill="#2988FF"/>
<path fill-rule="evenodd" clip-rule="evenodd" d="M35.5405 41.7972C35.5635 43.7292 34.0045 45.3112 32.0625 45.3282C30.1005 45.3442 28.5445 43.8252 28.5265 41.8752C28.5085 39.9402 30.0635 38.3372 31.9825 38.3132C33.8785 38.2902 35.5175 39.8942 35.5405 41.7972Z" fill="#2988FF"/>
<path fill-rule="evenodd" clip-rule="evenodd" d="M73.3756 52.0418C73.6387 51.5512 74.1502 51.2451 74.7068 51.2451H76.2978C76.8545 51.2451 77.3661 51.5514 77.6291 52.0421L79.1511 54.8821C79.1941 54.9624 79.2298 55.0463 79.2577 55.133L84.4453 71.2585L85.6045 72.1702C86.0323 72.5067 86.2461 73.0472 86.164 73.5853L84.6708 73.3575C86.164 73.5853 86.1639 73.5857 86.1638 73.5863L86.1632 73.5907L86.1617 73.5998L86.1571 73.6287C86.1532 73.6526 86.1477 73.6859 86.1404 73.7278C86.1259 73.8116 86.1043 73.9303 86.075 74.0789C86.0164 74.3758 85.9262 74.7939 85.7976 75.2933C85.5421 76.286 85.1277 77.6283 84.4933 78.9863C83.2765 81.5908 80.9496 84.847 76.8688 84.847H74.1358C70.055 84.847 67.728 81.5908 66.5113 78.9863C65.8768 77.6283 65.4624 76.286 65.2069 75.2933C65.0784 74.7939 64.9882 74.3758 64.9296 74.0789C64.9002 73.9303 64.8787 73.8116 64.8641 73.7278C64.8569 73.6859 64.8513 73.6526 64.8474 73.6287L64.8428 73.5998L64.8414 73.5907L64.8407 73.5863C64.8406 73.5857 64.8405 73.5853 66.3338 73.3575L64.8405 73.5853C64.7585 73.0472 64.9722 72.5067 65.4 72.1702L66.5592 71.2586L71.7458 55.1331C71.7738 55.0463 71.8095 54.9621 71.8526 54.8817L73.3756 52.0418ZM67.9951 73.9726C68.0335 74.1422 68.0791 74.3327 68.1325 74.5402C68.3586 75.4184 68.7172 76.5709 69.2483 77.7076C70.3625 80.0927 71.9366 81.826 74.1358 81.826H76.8688C79.068 81.826 80.642 80.0927 81.7563 77.7076C82.2873 76.5709 82.6459 75.4184 82.872 74.5402C82.9254 74.3327 82.971 74.1422 83.0094 73.9726L82.215 73.3478C81.9785 73.1618 81.803 72.9095 81.7108 72.6231L76.4238 56.1885L75.5021 54.4687L74.5797 56.1886L69.2937 72.623C69.2016 72.9094 69.026 73.1618 68.7895 73.3478L67.9951 73.9726Z" fill="#2988FF"/>
<path fill-rule="evenodd" clip-rule="evenodd" d="M73.7171 50.7516C74.004 50.404 74.4312 50.2026 74.882 50.2026H76.122C76.5728 50.2026 77 50.404 77.287 50.7516L78.473 52.1886C78.5972 52.3392 78.6911 52.5123 78.7495 52.6986L82.7638 65.5133L83.5942 66.184C84.0105 66.5203 84.2178 67.0517 84.1391 67.581L82.645 67.3591C84.1391 67.581 84.1392 67.5805 84.1391 67.581L84.1384 67.586L84.1372 67.5939L84.1334 67.6184C84.1302 67.6384 84.1257 67.6659 84.1199 67.7004C84.1082 67.7694 84.0911 67.8663 84.0678 67.9874C84.0213 68.2291 83.95 68.5686 83.8484 68.9737C83.6468 69.778 83.3191 70.8691 82.8154 71.9761C81.8656 74.0638 79.9751 76.8525 76.567 76.8525H74.438C71.0296 76.8525 69.1388 74.064 68.1888 71.9761C67.6851 70.8692 67.3573 69.778 67.1556 68.9737C67.0541 68.5687 66.9827 68.2291 66.9362 67.9874C66.913 67.8664 66.8958 67.7694 66.8842 67.7004C66.8783 67.6659 66.8739 67.6384 66.8707 67.6184L66.8669 67.5939L66.8657 67.586L66.8652 67.5832L66.8651 67.582C66.865 67.5815 66.8649 67.581 68.359 67.3591L66.8651 67.582C66.7864 67.0527 66.9936 66.5203 67.4099 66.184L68.2403 65.5133L72.2546 52.6986C72.3129 52.5123 72.4068 52.3392 72.5311 52.1886L73.7171 50.7516ZM70.0186 67.9602C70.039 68.0479 70.0614 68.1411 70.0859 68.2391C70.2596 68.9316 70.5341 69.8362 70.9385 70.7249C71.8047 72.6286 72.9534 73.8315 74.438 73.8315H76.567C78.051 73.8315 79.1995 72.6288 80.0656 70.725C80.47 69.8362 80.7445 68.9316 80.9181 68.2391C80.9427 68.1411 80.9651 68.0479 80.9854 67.9602L80.5099 67.5761C80.278 67.3888 80.1067 67.1371 80.0176 66.8526L75.9549 53.8837L75.502 53.3349L75.0491 53.8837L70.9865 66.8526C70.8973 67.1371 70.7261 67.3888 70.4942 67.5761L70.0186 67.9602Z" fill="#2988FF"/>
<path fill-rule="evenodd" clip-rule="evenodd" d="M73.9034 50.7852C74.1896 50.4172 74.6296 50.2019 75.0958 50.2019H75.9078C76.374 50.2019 76.8141 50.4172 77.1003 50.7852L77.8763 51.7832C77.9921 51.9322 78.079 52.1016 78.1325 52.2826L80.724 61.0592L81.1607 61.4334C81.5518 61.7685 81.7451 62.2798 81.6738 62.7898L80.1778 62.5804C81.6738 62.7898 81.6738 62.7893 81.6738 62.7898L81.6731 62.7941L81.6722 62.8005L81.6695 62.8193C81.6672 62.8345 81.6641 62.8549 81.6601 62.8802C81.652 62.9307 81.6403 63.0009 81.6245 63.088C81.593 63.2619 81.5449 63.5048 81.4766 63.7941C81.3413 64.3668 81.1202 65.1495 80.7777 65.9481C80.1621 67.384 78.8097 69.6359 76.1988 69.6359H74.8048C72.1944 69.6359 70.842 67.3839 70.2264 65.9483C69.8839 65.1496 69.6627 64.367 69.5273 63.7943C69.4589 63.505 69.4108 63.2621 69.3792 63.0882C69.3634 63.0012 69.3517 62.9309 69.3437 62.8804C69.3396 62.8551 69.3365 62.8347 69.3342 62.8196L69.3315 62.8008L69.3306 62.7944L69.3301 62.7909C69.33 62.7905 69.3299 62.79 70.8258 62.5804L69.3301 62.7909C69.2586 62.2805 69.4521 61.7679 69.8437 61.4328L70.2808 61.0587L72.8711 52.2828C72.9246 52.1017 73.0115 51.9323 73.1274 51.7832L73.9034 50.7852ZM72.48 63.1528C72.5908 63.6119 72.7603 64.1921 73.0028 64.7576C73.5761 66.0944 74.2133 66.6149 74.8048 66.6149H76.1988C76.791 66.6149 77.4281 66.0943 78.0012 64.7577C78.2437 64.192 78.4132 63.6115 78.5239 63.1523L78.4189 63.0624C78.1975 62.8726 78.0357 62.6228 77.9532 62.3432L75.5019 54.0414L73.0515 62.343C72.9689 62.6231 72.8068 62.8731 72.585 63.063L72.48 63.1528Z" fill="#2988FF"/>
</svg>
