<svg width="96" height="96" viewBox="0 0 96 96" fill="none" xmlns="http://www.w3.org/2000/svg">
<path fill-rule="evenodd" clip-rule="evenodd" d="M34.2993 56C34.2993 55.6134 34.6127 55.3 34.9993 55.3H38.9993C39.3859 55.3 39.6993 55.6134 39.6993 56V63C39.6993 63.3866 39.3859 63.7 38.9993 63.7H34.9993C34.6127 63.7 34.2993 63.3866 34.2993 63V56ZM35.6993 56.7V62.3H38.2993V56.7H35.6993Z" fill="#1C3553"/>
<path fill-rule="evenodd" clip-rule="evenodd" d="M45.2993 56C45.2993 55.6134 45.6127 55.3 45.9993 55.3H49.9993C50.3859 55.3 50.6993 55.6134 50.6993 56V63C50.6993 63.3866 50.3859 63.7 49.9993 63.7H45.9993C45.6127 63.7 45.2993 63.3866 45.2993 63V56ZM46.6993 56.7V62.3H49.2993V56.7H46.6993Z" fill="#1C3553"/>
<path fill-rule="evenodd" clip-rule="evenodd" d="M56.2993 56C56.2993 55.6134 56.6127 55.3 56.9993 55.3H60.9993C61.3859 55.3 61.6993 55.6134 61.6993 56V63C61.6993 63.3866 61.3859 63.7 60.9993 63.7H56.9993C56.6127 63.7 56.2993 63.3866 56.2993 63V56ZM57.6993 56.7V62.3H60.2993V56.7H57.6993Z" fill="#1C3553"/>
<path fill-rule="evenodd" clip-rule="evenodd" d="M26.1343 27.0059C26.1343 25.9759 26.9693 25.1409 27.9993 25.1409H68.7993C69.8293 25.1409 70.6643 25.9759 70.6643 27.0059V78.0059C70.6643 79.0359 69.8293 79.8709 68.7993 79.8709H27.9993C26.9693 79.8709 26.1343 79.0359 26.1343 78.0059V27.0059ZM29.8643 28.8709V76.1409H66.9343V28.8709H29.8643Z" fill="#1C3553"/>
<path fill-rule="evenodd" clip-rule="evenodd" d="M70.9075 21.672C70.9075 20.964 70.3555 20.389 69.6735 20.389H40.8815C40.9145 19.24 40.9215 18.09 40.8855 16.94C40.8715 16.501 40.3805 16.171 39.7065 16.05C39.7005 16.049 39.6965 16.049 39.6895 16.048C39.6375 16.039 39.5855 16.03 39.5315 16.025C39.5285 16.024 39.5255 16.024 39.5225 16.023C39.4645 16.017 39.4075 16.012 39.3475 16.007H39.3415C39.2875 16.004 39.2325 16.002 39.1775 16.002C39.1695 16.001 39.1615 16.001 39.1525 16C39.1415 16 39.1325 16.001 39.1215 16.001C39.1055 16.001 39.0885 16 39.0695 16C39.0555 16.001 39.0435 16.002 39.0295 16.003C38.0615 16.023 37.3675 16.429 37.3415 17.034C37.3155 17.634 37.3355 18.236 37.3355 18.837C37.3355 19.355 37.3295 19.872 37.3365 20.389H35.4775C35.5105 19.24 35.5175 18.09 35.4815 16.94C35.4675 16.501 34.9765 16.171 34.3025 16.05C34.2965 16.049 34.2915 16.049 34.2855 16.048C34.2335 16.039 34.1815 16.03 34.1275 16.025C34.1245 16.024 34.1215 16.024 34.1185 16.023C34.0605 16.017 34.0035 16.012 33.9435 16.007H33.9375C33.8835 16.004 33.8285 16.002 33.7735 16.002C33.7655 16.001 33.7575 16.001 33.7485 16C33.7375 16 33.7285 16.001 33.7175 16.001C33.7005 16.001 33.6835 16 33.6655 16C33.6515 16.001 33.6395 16.002 33.6255 16.003C32.6575 16.023 31.9635 16.429 31.9375 17.034C31.9115 17.634 31.9315 18.236 31.9315 18.837C31.9315 19.355 31.9255 19.872 31.9325 20.389H27.2335C26.5525 20.389 25.9995 20.964 25.9995 21.672C25.9995 22.38 26.5525 22.955 27.2335 22.955H69.6735C70.3555 22.955 70.9075 22.38 70.9075 21.672Z" fill="#1C3553"/>
<path fill-rule="evenodd" clip-rule="evenodd" d="M33.9492 42C33.9492 41.4201 34.4193 40.95 34.9992 40.95H38.9992C39.5791 40.95 40.0492 41.4201 40.0492 42V49C40.0492 49.5799 39.5791 50.05 38.9992 50.05H34.9992C34.4193 50.05 33.9492 49.5799 33.9492 49V42ZM36.0492 43.05V47.95H37.9492V43.05H36.0492Z" fill="#2988FF"/>
<path fill-rule="evenodd" clip-rule="evenodd" d="M44.9492 42C44.9492 41.4201 45.4193 40.95 45.9992 40.95H49.9992C50.5791 40.95 51.0492 41.4201 51.0492 42V49C51.0492 49.5799 50.5791 50.05 49.9992 50.05H45.9992C45.4193 50.05 44.9492 49.5799 44.9492 49V42ZM47.0492 43.05V47.95H48.9492V43.05H47.0492Z" fill="#2988FF"/>
<path fill-rule="evenodd" clip-rule="evenodd" d="M55.9492 42C55.9492 41.4201 56.4193 40.95 56.9992 40.95H60.9992C61.5791 40.95 62.0492 41.4201 62.0492 42V49C62.0492 49.5799 61.5791 50.05 60.9992 50.05H56.9992C56.4193 50.05 55.9492 49.5799 55.9492 49V42ZM58.0492 43.05V47.95H59.9492V43.05H58.0492Z" fill="#2988FF"/>
</svg>
