<svg width="96" height="96" viewBox="0 0 96 96" fill="none" xmlns="http://www.w3.org/2000/svg">
<path fill-rule="evenodd" clip-rule="evenodd" d="M38.5005 65.573C38.5005 65.0207 38.9482 64.573 39.5005 64.573H43.6975C44.2498 64.573 44.6975 65.0207 44.6975 65.573V66.979H47.1775C47.7298 66.979 48.1775 67.4267 48.1775 67.979V69.386H50.6585C51.2108 69.386 51.6585 69.8337 51.6585 70.386V71.793H54.1385C54.6908 71.793 55.1385 72.2407 55.1385 72.793V74H58.1795C58.7318 74 59.1795 74.4477 59.1795 75C59.1795 75.5523 58.7318 76 58.1795 76H54.1385C53.5862 76 53.1385 75.5523 53.1385 75V73.793H50.6585C50.1062 73.793 49.6585 73.3453 49.6585 72.793V71.386H47.1775C46.6252 71.386 46.1775 70.9383 46.1775 70.386V68.979H43.6975C43.1452 68.979 42.6975 68.5313 42.6975 67.979V66.573H39.5005C38.9482 66.573 38.5005 66.1253 38.5005 65.573Z" fill="#2988FF"/>
<path fill-rule="evenodd" clip-rule="evenodd" d="M68 65.4001H27V63.6001H68V65.4001Z" fill="#2988FF"/>
<path fill-rule="evenodd" clip-rule="evenodd" d="M38.5005 53.573C38.5005 53.0207 38.9482 52.573 39.5005 52.573H43.6975C44.2498 52.573 44.6975 53.0207 44.6975 53.573V54.979H47.1775C47.7298 54.979 48.1775 55.4267 48.1775 55.979V57.386H50.6585C51.2108 57.386 51.6585 57.8337 51.6585 58.386V59.793H54.1385C54.6908 59.793 55.1385 60.2407 55.1385 60.793V62H58.1795C58.7318 62 59.1795 62.4477 59.1795 63C59.1795 63.5523 58.7318 64 58.1795 64H54.1385C53.5862 64 53.1385 63.5523 53.1385 63V61.793H50.6585C50.1062 61.793 49.6585 61.3453 49.6585 60.793V59.386H47.1775C46.6252 59.386 46.1775 58.9383 46.1775 58.386V56.979H43.6975C43.1452 56.979 42.6975 56.5313 42.6975 55.979V54.573H39.5005C38.9482 54.573 38.5005 54.1253 38.5005 53.573Z" fill="#2988FF"/>
<path fill-rule="evenodd" clip-rule="evenodd" d="M68 53.4001H27V51.6001H68V53.4001Z" fill="#2988FF"/>
<path fill-rule="evenodd" clip-rule="evenodd" d="M38.5005 41.573C38.5005 41.0207 38.9482 40.573 39.5005 40.573H43.6975C44.2498 40.573 44.6975 41.0207 44.6975 41.573V42.979H47.1775C47.7298 42.979 48.1775 43.4267 48.1775 43.979V45.386H50.6585C51.2108 45.386 51.6585 45.8337 51.6585 46.386V47.793H54.1385C54.6908 47.793 55.1385 48.2407 55.1385 48.793V50H58.1795C58.7318 50 59.1795 50.4477 59.1795 51C59.1795 51.5523 58.7318 52 58.1795 52H54.1385C53.5862 52 53.1385 51.5523 53.1385 51V49.793H50.6585C50.1062 49.793 49.6585 49.3453 49.6585 48.793V47.386H47.1775C46.6252 47.386 46.1775 46.9383 46.1775 46.386V44.979H43.6975C43.1452 44.979 42.6975 44.5313 42.6975 43.979V42.573H39.5005C38.9482 42.573 38.5005 42.1253 38.5005 41.573Z" fill="#2988FF"/>
<path fill-rule="evenodd" clip-rule="evenodd" d="M68 41.4001H27V39.6001H68V41.4001Z" fill="#2988FF"/>
<path fill-rule="evenodd" clip-rule="evenodd" d="M26.0498 27.0054C26.0498 25.9008 26.9452 25.0054 28.0498 25.0054H68.8498C69.9544 25.0054 70.8498 25.9008 70.8498 27.0054V78.0054C70.8498 79.1099 69.9544 80.0054 68.8498 80.0054H28.0498C26.9452 80.0054 26.0498 79.1099 26.0498 78.0054V27.0054ZM30.0498 29.0054V76.0054H66.8498V29.0054H30.0498Z" fill="#1C3553"/>
<path fill-rule="evenodd" clip-rule="evenodd" d="M70.9075 21.672C70.9075 20.964 70.3555 20.389 69.6735 20.389H40.8815C40.9145 19.24 40.9215 18.09 40.8855 16.94C40.8715 16.501 40.3805 16.171 39.7065 16.05C39.7005 16.049 39.6965 16.049 39.6895 16.048C39.6375 16.039 39.5855 16.03 39.5315 16.025C39.5285 16.024 39.5255 16.024 39.5225 16.023C39.4645 16.017 39.4075 16.012 39.3475 16.007H39.3415C39.2875 16.004 39.2325 16.002 39.1775 16.002C39.1695 16.001 39.1615 16.001 39.1525 16C39.1415 16 39.1325 16.001 39.1215 16.001C39.1055 16.001 39.0885 16 39.0695 16C39.0555 16.001 39.0435 16.002 39.0295 16.003C38.0615 16.023 37.3675 16.429 37.3415 17.034C37.3155 17.634 37.3355 18.236 37.3355 18.837C37.3355 19.355 37.3295 19.872 37.3365 20.389H35.4775C35.5105 19.24 35.5175 18.09 35.4815 16.94C35.4675 16.501 34.9765 16.171 34.3025 16.05C34.2965 16.049 34.2915 16.049 34.2855 16.048C34.2335 16.039 34.1815 16.03 34.1275 16.025C34.1245 16.024 34.1215 16.024 34.1185 16.023C34.0605 16.017 34.0035 16.012 33.9435 16.007H33.9375C33.8835 16.004 33.8285 16.002 33.7735 16.002C33.7655 16.001 33.7575 16.001 33.7485 16C33.7375 16 33.7285 16.001 33.7175 16.001C33.7005 16.001 33.6835 16 33.6655 16C33.6515 16.001 33.6395 16.002 33.6255 16.003C32.6575 16.023 31.9635 16.429 31.9375 17.034C31.9115 17.634 31.9315 18.236 31.9315 18.837C31.9315 19.355 31.9255 19.872 31.9325 20.389H27.2335C26.5525 20.389 25.9995 20.964 25.9995 21.672C25.9995 22.38 26.5525 22.955 27.2335 22.955H69.6735C70.3555 22.955 70.9075 22.38 70.9075 21.672Z" fill="#1C3553"/>
</svg>
