<svg width="96" height="97" viewBox="0 0 96 97" fill="none" xmlns="http://www.w3.org/2000/svg">
<path fill-rule="evenodd" clip-rule="evenodd" d="M59.0501 51.9967C58.2515 49.5973 56.7338 48.933 54.0205 48.9288H53.5721V48.9266C52.505 48.9266 51.4379 48.9288 50.3708 48.9288C49.3037 48.9288 48.2343 48.9266 47.1672 48.9266V48.9288H46.7188C44.0056 48.933 42.4878 49.5973 41.6892 51.9967C41.6075 52.2458 41.3226 56.4996 41.4207 57.8324V64.2323C41.4184 64.2515 41.4067 64.2685 41.4067 64.2877C41.4067 65.0265 42.0628 65.6247 42.8731 65.6247C43.6833 65.6247 44.3395 65.0265 44.3395 64.2877C44.3395 64.2685 44.3278 64.2515 44.3278 64.2323V55.2989C44.3278 53.7745 44.9629 53.3678 45.6027 53.5594V54.905V69.0184C45.591 69.4421 45.5864 69.804 45.5864 70.0702C45.5864 72.674 45.5653 75.2778 45.5957 77.8795C45.598 78.1903 45.6611 78.4671 45.7522 78.7183C45.7522 78.7226 45.7545 78.729 45.7568 78.7332C45.8385 78.9589 45.9483 79.1633 46.0907 79.3336C46.1491 79.4082 46.2192 79.4699 46.2892 79.5316C46.427 79.653 46.5764 79.7594 46.7469 79.834C46.7772 79.8446 46.8076 79.8553 46.8379 79.8659C47.2419 80.0213 47.7159 80.049 48.2273 79.9106C48.2833 79.8957 48.3137 79.8638 48.365 79.8446C48.4561 79.8127 48.5355 79.7701 48.6172 79.7275C49.4321 79.3251 49.6423 78.5821 49.6423 77.7283C49.6376 73.6832 49.64 69.638 49.6423 65.5928V64.128H51.0993V65.5928C51.0993 69.638 51.1017 73.6832 51.0993 77.7283C51.097 78.5821 51.3095 79.3251 52.1221 79.7275C52.2038 79.7701 52.2832 79.8127 52.3743 79.8446C52.4256 79.8638 52.456 79.8957 52.512 79.9106C53.0234 80.049 53.4974 80.0213 53.9014 79.8659C53.9317 79.8553 53.9644 79.8446 53.9924 79.834C54.1629 79.7594 54.3123 79.653 54.4501 79.5316C54.5202 79.4699 54.5902 79.4082 54.6486 79.3336C54.791 79.1633 54.9008 78.9589 54.9848 78.7332C54.9848 78.729 54.9872 78.7226 54.9895 78.7183C55.0806 78.4671 55.1413 78.1903 55.1459 77.8795C55.174 75.2778 55.1529 72.674 55.1529 70.0702C55.1529 69.804 55.1483 69.4421 55.1389 69.0184V54.905V53.5594C55.7764 53.3678 56.4115 53.7745 56.4115 55.2989V64.2323C56.4115 64.2515 56.3998 64.2685 56.3998 64.2877C56.3998 65.0265 57.056 65.6247 57.8662 65.6247C58.6765 65.6247 59.3326 65.0265 59.3326 64.2877C59.3326 64.2685 59.321 64.2515 59.321 64.2323V57.8324C59.4167 56.4996 59.1318 52.2458 59.0501 51.9967ZM53.794 44.8794C53.8103 43.1571 52.2925 41.7306 50.4199 41.7072C48.5682 41.6881 46.9687 43.1166 46.9453 44.8092C46.9243 46.5294 48.4444 47.9366 50.3405 47.9516C52.2575 47.9665 53.7753 46.6145 53.794 44.8794Z" fill="#2988FF"/>
<path fill-rule="evenodd" clip-rule="evenodd" d="M34.6396 21.408H39.7596V18.0005H34.6396V21.408Z" fill="#1C3553"/>
<path fill-rule="evenodd" clip-rule="evenodd" d="M27 22.2305C27 21.6782 27.4477 21.2305 28 21.2305H70C70.5523 21.2305 71 21.6782 71 22.2305C71 22.7828 70.5523 23.2305 70 23.2305H28C27.4477 23.2305 27 22.7828 27 22.2305Z" fill="#1C3553"/>
<path fill-rule="evenodd" clip-rule="evenodd" d="M28.5858 25.7042C28.9609 25.3291 29.4696 25.1184 30 25.1184H69.1703C70.2748 25.1184 71.1703 26.0138 71.1703 27.1184V74.5554C71.1703 75.6598 70.275 76.5552 69.1706 76.5554L62.1233 76.5565C61.0188 76.5566 60.1232 75.6614 60.123 74.5568C60.1229 73.4522 61.0182 72.5566 62.1227 72.5565L67.1703 72.5557V29.1184H32V72.5565H39C40.1046 72.5565 41 73.4519 41 74.5565C41 75.661 40.1046 76.5565 39 76.5565H30C28.8954 76.5565 28 75.661 28 74.5565V27.1184C28 26.588 28.2107 26.0793 28.5858 25.7042Z" fill="#1C3553"/>
</svg>
