<svg width="96" height="96" viewBox="0 0 96 96" fill="none" xmlns="http://www.w3.org/2000/svg">
<path d="M67.0029 63.999H29.0029V76.599H67.0029V63.999Z" fill="#2988FF"/>
<path d="M29.002 78.599H67.002C68.102 78.599 69.002 77.699 69.002 76.599V65.499H75.402C76.202 65.499 76.902 64.799 76.902 63.999C76.902 63.199 76.202 62.499 75.402 62.499H22.502C21.702 62.499 21.002 63.199 21.002 63.999C21.002 64.799 21.702 65.499 22.502 65.499H27.002V76.599C27.002 77.699 27.902 78.599 29.002 78.599ZM65.002 74.599H31.002V65.499H65.002V74.599Z" fill="#1C3553"/>
<path d="M18.8023 46.6991C19.2023 47.5991 20.1023 48.5991 22.0023 48.5991C23.1023 48.5991 24.3023 48.5991 25.4023 48.5991H26.7023V57.9991C26.7023 59.0991 27.6023 59.9991 28.7023 59.9991C29.8023 59.9991 30.7023 59.0991 30.7023 57.9991V48.0991C30.7023 45.8991 29.4023 44.5991 27.1023 44.4991H25.4023C24.9023 44.4991 24.4023 44.4991 23.9023 44.4991C26.9023 41.5991 33.6023 35.3991 39.2023 30.1991C43.4023 26.1991 47.0023 22.7991 48.0023 21.9991C48.9023 22.8991 65.3023 38.1991 71.5023 44.4991C71.2023 44.4991 70.8023 44.4991 70.5023 44.4991H68.8023C66.6023 44.4991 65.3023 45.7991 65.3023 48.0991V53.1991V57.9991C65.3023 59.0991 66.2023 59.9991 67.3023 59.9991C68.4023 59.9991 69.3023 59.0991 69.3023 57.9991V53.1991V48.5991H70.6023C71.7023 48.5991 72.9023 48.5991 74.0023 48.5991C76.0023 48.5991 76.9023 47.5991 77.3023 46.6991C77.9023 45.3991 77.0023 44.3991 75.8023 43.1991C70.8023 37.8991 51.7023 19.9991 50.9023 19.1991C50.0023 18.3991 49.1023 17.9991 48.2023 18.0991C47.3023 17.9991 46.3023 18.3991 45.5023 19.1991C44.6023 19.9991 41.0023 23.3991 36.7023 27.3991C29.7023 33.6991 21.3023 41.4991 19.8023 42.9991C18.5023 44.0991 18.2023 45.3991 18.8023 46.6991Z" fill="#1C3553"/>
<path d="M58.002 58.799C58.402 58.799 58.702 58.499 58.702 58.099V51.199C58.702 50.799 58.402 50.499 58.002 50.499H54.202C53.802 50.499 53.502 50.799 53.502 51.199V58.099C53.502 58.499 53.802 58.799 54.202 58.799H58.002ZM54.902 51.899H57.202V57.299H54.902V51.899Z" fill="#1C3553"/>
<path d="M41.9023 58.799C42.3023 58.799 42.6023 58.499 42.6023 58.099V51.199C42.6023 50.799 42.3023 50.499 41.9023 50.499H38.1023C37.7023 50.499 37.4023 50.799 37.4023 51.199V58.099C37.4023 58.499 37.7023 58.799 38.1023 58.799H41.9023ZM38.8023 51.899H41.1023V57.299H38.8023V51.899Z" fill="#1C3553"/>
</svg>
