<svg width="96" height="96" viewBox="0 0 96 96" fill="none" xmlns="http://www.w3.org/2000/svg">
<path d="M66.15 62.5983L66.45 48.1983L74.95 47.3983L56.4501 30.3984V45.6983H21.9501L29.1501 49.6983L28.9501 55.7983H46.6501V62.5983H66.15Z" fill="#2988FF"/>
<path d="M69.2497 73.0983V49.5984C70.8497 49.5984 72.3497 49.5984 73.9497 49.5984C75.9497 49.5984 76.8497 48.5984 77.1497 47.6984C77.7497 46.3984 77.3497 45.1984 76.1497 43.9984C74.6497 42.5984 66.4497 34.8984 59.7497 28.5984C55.3497 24.4984 51.5497 20.9984 50.6497 20.0984C49.7497 19.2985 48.8498 18.8985 47.9498 18.9985C47.0498 18.8985 46.1498 19.2985 45.2498 20.0984C44.3498 20.8984 40.6498 24.3984 36.3498 28.3984C29.6498 34.7984 21.3498 42.4984 19.8498 43.9984C18.6498 45.1984 18.2498 46.3984 18.8498 47.6984C19.2498 48.5984 20.0498 49.5984 22.0498 49.5984C23.6498 49.5984 25.1498 49.5984 26.7498 49.5984V73.0983C26.7498 75.5983 27.9498 76.7983 30.4498 76.7983H65.4497C68.0497 76.7983 69.2497 75.5983 69.2497 73.0983ZM65.2497 72.7983H30.7498V49.0984C30.7498 46.7984 29.4498 45.5984 27.2498 45.5984C26.1498 45.5984 25.0498 45.5984 24.0498 45.5984C27.0498 42.7984 33.6498 36.5984 39.1498 31.3984C43.4498 27.3984 47.1498 23.8984 48.0498 23.0984C48.9498 23.9984 52.7497 27.4984 57.1497 31.5984C62.6497 36.7984 69.1497 42.7984 72.1497 45.5984C71.0497 45.5984 70.0497 45.5984 68.9497 45.5984C66.6497 45.5984 65.3497 46.8984 65.3497 49.0984V72.7983H65.2497Z" fill="#1C3553"/>
</svg>
