<svg width="96" height="96" viewBox="0 0 96 96" fill="none" xmlns="http://www.w3.org/2000/svg">
<path fill-rule="evenodd" clip-rule="evenodd" d="M28.7979 52.0005H68.9079V35.0005H28.7979V52.0005Z" fill="#2988FF"/>
<path fill-rule="evenodd" clip-rule="evenodd" d="M26.0498 27.0054C26.0498 25.9008 26.9452 25.0054 28.0498 25.0054H68.8498C69.9544 25.0054 70.8498 25.9008 70.8498 27.0054V78.0054C70.8498 79.1099 69.9544 80.0054 68.8498 80.0054H28.0498C26.9452 80.0054 26.0498 79.1099 26.0498 78.0054V27.0054ZM30.0498 29.0054V76.0054H66.8498V29.0054H30.0498Z" fill="#1C3553"/>
<path fill-rule="evenodd" clip-rule="evenodd" d="M35.4336 59.46H39.2216C39.6275 59.46 39.9566 59.789 39.9566 60.195V67.056C39.9566 67.4619 39.6275 67.791 39.2216 67.791H35.4336C35.0277 67.791 34.6986 67.4619 34.6986 67.056V60.195H35.4336V59.46ZM36.1686 60.93V66.321H38.4866V60.93H36.1686Z" fill="#1C3553"/>
<path fill-rule="evenodd" clip-rule="evenodd" d="M57.6856 59.46H61.4736C61.8795 59.46 62.2086 59.789 62.2086 60.195V67.056C62.2086 67.4619 61.8795 67.791 61.4736 67.791H57.6856C57.2796 67.791 56.9506 67.4619 56.9506 67.056V60.195H57.6856V59.46ZM58.4206 60.93V66.321H60.7386V60.93H58.4206Z" fill="#1C3553"/>
<path fill-rule="evenodd" clip-rule="evenodd" d="M46.5596 59.46H50.3476C50.7535 59.46 51.0826 59.789 51.0826 60.195V67.056C51.0826 67.4619 50.7535 67.791 50.3476 67.791H46.5596C46.1537 67.791 45.8246 67.4619 45.8246 67.056V60.195H46.5596V59.46ZM47.2946 60.93V66.321H49.6126V60.93H47.2946Z" fill="#1C3553"/>
<path fill-rule="evenodd" clip-rule="evenodd" d="M70.908 21.672C70.908 20.964 70.356 20.389 69.674 20.389H40.882C40.915 19.24 40.922 18.09 40.886 16.94C40.872 16.501 40.381 16.171 39.707 16.05C39.701 16.049 39.697 16.049 39.69 16.048C39.638 16.039 39.586 16.03 39.532 16.025C39.529 16.024 39.526 16.024 39.523 16.023C39.465 16.017 39.408 16.012 39.348 16.007H39.342C39.288 16.004 39.233 16.002 39.178 16.002C39.17 16.001 39.162 16.001 39.153 16C39.142 16 39.133 16.001 39.122 16.001C39.106 16.001 39.089 16 39.07 16C39.056 16.001 39.044 16.002 39.03 16.003C38.062 16.023 37.368 16.429 37.342 17.034C37.316 17.634 37.336 18.236 37.336 18.837C37.336 19.355 37.33 19.872 37.337 20.389H35.478C35.511 19.24 35.518 18.09 35.482 16.94C35.468 16.501 34.977 16.171 34.303 16.05C34.297 16.049 34.292 16.049 34.286 16.048C34.234 16.039 34.182 16.03 34.128 16.025C34.125 16.024 34.122 16.024 34.119 16.023C34.061 16.017 34.004 16.012 33.944 16.007H33.938C33.884 16.004 33.829 16.002 33.774 16.002C33.766 16.001 33.758 16.001 33.749 16C33.738 16 33.729 16.001 33.718 16.001C33.701 16.001 33.684 16 33.666 16C33.652 16.001 33.64 16.002 33.626 16.003C32.658 16.023 31.964 16.429 31.938 17.034C31.912 17.634 31.932 18.236 31.932 18.837C31.932 19.355 31.926 19.872 31.933 20.389H27.234C26.553 20.389 26 20.964 26 21.672C26 22.38 26.553 22.955 27.234 22.955H69.674C70.356 22.955 70.908 22.38 70.908 21.672Z" fill="#1C3553"/>
</svg>
