<svg width="96" height="96" viewBox="0 0 96 96" fill="none" xmlns="http://www.w3.org/2000/svg">
<path fill-rule="evenodd" clip-rule="evenodd" d="M90.7686 73.2768C90.7436 73.2478 90.7066 73.2198 90.6746 73.1918C90.6316 73.2198 90.5836 73.2488 90.5356 73.2768C90.5156 73.2878 90.4956 73.2998 90.4746 73.3108C90.3386 73.3878 90.1866 73.4648 90.0036 73.5408C89.0106 73.9548 87.2846 74.3288 84.2897 74.3288C82.9147 74.3288 81.8177 74.2468 80.9257 74.1218C80.3167 74.0368 79.8027 73.9308 79.3777 73.8128C79.2277 73.7708 79.0847 73.7288 78.9557 73.6838C78.8177 73.6378 78.6917 73.5898 78.5747 73.5408C78.4657 73.4958 78.3687 73.4498 78.2757 73.4038C78.2137 73.3728 78.1577 73.3418 78.1027 73.3108C78.0827 73.2998 78.0617 73.2888 78.0427 73.2768C77.9937 73.2488 77.9467 73.2208 77.9037 73.1928C77.8707 73.2208 77.8347 73.2488 77.8097 73.2768H77.6767V73.4118V73.7118V73.8618V74.3118V76.2388V76.2408L77.7267 76.4817C77.8917 76.8577 78.8537 78.0857 84.2897 78.0857C89.7246 78.0857 90.6866 76.8577 90.8516 76.4817L90.8936 73.8208L90.8976 73.5978C90.8976 73.5908 90.9016 73.5838 90.9016 73.5768C90.9016 73.5708 90.8986 73.5648 90.8976 73.5578L90.9026 73.2768H90.7686ZM89.6986 74.4788V76.0078C89.4176 76.2188 88.3496 76.7957 85.0487 76.8737L79.7587 74.6698C80.9427 74.9228 82.5337 75.0798 84.2887 75.0798C86.4487 75.0798 88.3616 74.8438 89.5676 74.4788H89.6986Z" fill="#2988FF"/>
<path fill-rule="evenodd" clip-rule="evenodd" d="M90.3005 68.5956C90.2285 68.6316 90.1515 68.6666 90.0695 68.7026C89.8985 68.7766 89.7015 68.8486 89.4815 68.9186C89.4755 68.9206 89.4685 68.9226 89.4615 68.9246C88.4855 69.2326 86.9966 69.4806 84.7466 69.5116C84.5956 69.5136 84.4546 69.5186 84.2966 69.5186H84.2896H84.2876C84.2386 69.5186 84.1976 69.5166 84.1506 69.5166C84.0256 69.5156 83.9116 69.5126 83.7906 69.5106C83.3316 69.5036 82.8996 69.4896 82.5026 69.4656C81.9086 69.4296 81.3816 69.3776 80.9146 69.3116C80.7286 69.2856 80.5526 69.2566 80.3856 69.2276C80.0116 69.1606 79.6756 69.0866 79.3846 69.0056C79.2906 68.9796 79.2026 68.9526 79.1156 68.9246C79.1096 68.9226 79.1026 68.9206 79.0956 68.9186C79.0796 68.9136 79.0616 68.9086 79.0456 68.9036C78.8456 68.8386 78.6666 68.7716 78.5076 68.7026C78.4256 68.6676 78.3486 68.6316 78.2766 68.5956C78.0806 68.6936 77.9256 68.7966 77.8246 68.9036C77.8196 68.9086 77.8126 68.9136 77.8086 68.9186H77.6756V69.0536V69.3536V69.5036V69.9546V70.1066V70.7066V71.8816V71.8836L77.7266 72.1236C77.7386 72.1526 77.7586 72.1876 77.7816 72.2246C77.8306 72.3036 77.9086 72.4006 78.0286 72.5066C78.0956 72.5656 78.1766 72.6276 78.2736 72.6916C78.3376 72.7336 78.4076 72.7756 78.4856 72.8186C78.4986 72.8256 78.5146 72.8336 78.5286 72.8406C78.5956 72.8766 78.6646 72.9116 78.7426 72.9466C78.9256 73.0296 79.1396 73.1116 79.3926 73.1886C79.4906 73.2196 79.6016 73.2486 79.7116 73.2766C79.7756 73.2936 79.8366 73.3116 79.9056 73.3276C80.2046 73.3986 80.5466 73.4636 80.9326 73.5196C81.0986 73.5436 81.2776 73.5656 81.4616 73.5856C81.8976 73.6346 82.3866 73.6716 82.9306 73.6956C83.3516 73.7146 83.7956 73.7276 84.2886 73.7276C86.4436 73.7276 87.8865 73.5336 88.8645 73.2766C88.9745 73.2486 89.0855 73.2196 89.1835 73.1886C89.4365 73.1116 89.6505 73.0296 89.8335 72.9466C89.9115 72.9116 89.9815 72.8766 90.0485 72.8406C90.1425 72.7906 90.2285 72.7406 90.3025 72.6916C90.6535 72.4596 90.7965 72.2466 90.8495 72.1236L90.8925 69.4626L90.8955 69.2406C90.8965 69.2336 90.9005 69.2266 90.9005 69.2196C90.9005 69.2126 90.8965 69.2066 90.8965 69.2006L90.9005 68.9186H90.7675C90.6675 68.8056 90.5055 68.6976 90.3005 68.5956ZM89.6985 70.1206V71.6496C89.5685 71.7476 89.2665 71.9246 88.6525 72.0936C88.3985 72.1636 88.0885 72.2326 87.7165 72.2936C87.6585 72.3036 87.5975 72.3126 87.5345 72.3216C86.8946 72.4176 86.0826 72.4906 85.0476 72.5156L84.7166 72.3766L84.2966 72.2016L84.2136 72.1676L83.9986 72.0776H83.9966L83.8446 72.0136L83.0326 71.6756L83.0056 71.6646L80.3876 70.5736L79.7576 70.3116C80.1136 70.3876 80.5066 70.4546 80.9296 70.5116C81.5866 70.5996 82.3156 70.6636 83.0936 70.6956C83.3376 70.7056 83.5866 70.7126 83.8396 70.7156C83.9816 70.7176 84.1226 70.7206 84.2676 70.7206C84.2746 70.7206 84.2816 70.7216 84.2886 70.7216H84.2956C84.4436 70.7216 84.5886 70.7186 84.7336 70.7166C86.7106 70.6866 88.4455 70.4596 89.5685 70.1206H89.6985Z" fill="#2988FF"/>
<path fill-rule="evenodd" clip-rule="evenodd" d="M84.7198 62.9117C84.5788 62.9097 84.4398 62.9067 84.2968 62.9067H84.2888C84.2738 62.9067 84.2608 62.9077 84.2458 62.9077C84.1108 62.9077 83.9788 62.9097 83.8448 62.9117C82.9788 62.9247 82.1598 62.9757 81.4168 63.0577C81.2278 63.0787 81.0438 63.1007 80.8658 63.1257C80.6328 63.1577 80.4088 63.1927 80.1968 63.2307C79.9158 63.2807 79.6568 63.3367 79.4158 63.3957C79.4018 63.3997 79.3878 63.4037 79.3728 63.4067C78.9038 63.5257 78.5138 63.6607 78.2288 63.8087C78.0448 63.9047 77.9018 64.0057 77.8078 64.1097H77.6748V64.2437V64.5447V64.6947V65.1447V65.7476V66.3476V67.0716L77.6758 67.0736L77.7128 67.2506L77.7258 67.3126C77.7658 67.4036 77.8538 67.5436 78.0368 67.7046H78.0378C78.1888 67.8366 78.4038 67.9826 78.7148 68.1256C78.7198 68.1276 78.7268 68.1306 78.7318 68.1326C78.7708 68.1506 78.8178 68.1676 78.8598 68.1866C78.9398 68.2196 79.0218 68.2526 79.1128 68.2846C79.1838 68.3106 79.2588 68.3356 79.3368 68.3606C79.5948 68.4426 79.8958 68.5196 80.2408 68.5896C80.5898 68.6606 80.9888 68.7226 81.4398 68.7746C81.7418 68.8086 82.0598 68.8396 82.4108 68.8616C82.5268 68.8696 82.6548 68.8736 82.7768 68.8796C82.8068 68.8816 82.8378 68.8826 82.8678 68.8836C83.0098 68.8906 83.1438 68.8986 83.2928 68.9036C83.4648 68.9086 83.6538 68.9096 83.8368 68.9116C83.8618 68.9126 83.8868 68.9126 83.9118 68.9126C83.9998 68.9136 84.0818 68.9166 84.1728 68.9166C84.2128 68.9166 84.2478 68.9186 84.2888 68.9186H84.2948C84.3548 68.9186 84.4068 68.9166 84.4658 68.9166C86.1668 68.9076 87.4168 68.7766 88.3358 68.5896C88.6808 68.5196 88.9807 68.4426 89.2387 68.3606C89.3177 68.3356 89.3917 68.3106 89.4637 68.2846C89.6087 68.2326 89.7437 68.1796 89.8607 68.1256C90.5507 67.8076 90.7777 67.4786 90.8497 67.3136L90.8917 64.6537L90.8957 64.4317C90.8957 64.4237 90.9007 64.4177 90.9007 64.4097C90.9007 64.4037 90.8967 64.3977 90.8967 64.3907L90.9007 64.1097H90.7687C90.1857 63.4547 87.7258 62.9557 84.7198 62.9117ZM85.0488 67.7066L84.7208 67.5706L84.2968 67.3936L84.2518 67.3746L84.0058 67.2726L83.8428 67.2046L83.0938 66.8926L81.2228 66.1126L80.3458 65.7476L79.7578 65.5026C80.2118 65.5996 80.7248 65.6816 81.2858 65.7476C81.6878 65.7936 82.1128 65.8306 82.5568 65.8586C82.7338 65.8696 82.9118 65.8786 83.0938 65.8866C83.3378 65.8966 83.5858 65.9036 83.8378 65.9066C83.9828 65.9086 84.1278 65.9116 84.2748 65.9116C84.2798 65.9116 84.2848 65.9126 84.2888 65.9126H84.2968C84.4458 65.9126 84.5918 65.9086 84.7388 65.9076C86.7128 65.8766 88.4458 65.6506 89.5677 65.3127H89.6987V66.8396C89.5067 66.9836 88.9417 67.3006 87.5448 67.5116C86.9038 67.6076 86.0878 67.6816 85.0488 67.7066Z" fill="#2988FF"/>
<path fill-rule="evenodd" clip-rule="evenodd" d="M75.6757 70.6348C76.1697 70.6708 76.6897 70.6928 77.2257 70.7008V70.1058V69.9468C76.6707 69.9388 76.1487 69.9218 75.6837 69.8898L75.6807 70.1058L75.6757 70.6348Z" fill="#2988FF"/>
<path fill-rule="evenodd" clip-rule="evenodd" d="M77.724 73.0674C77.406 72.8224 77.294 72.6114 77.257 72.5174L77.254 72.5044L77.225 72.3524V71.9924L75.668 71.3434L75.657 72.4404L75.656 72.5024C75.62 72.5964 75.507 72.8054 75.192 73.0494C75.101 73.1204 74.988 73.1934 74.859 73.2684C74.72 73.3494 74.562 73.4304 74.372 73.5114C75.13 73.6194 76.076 73.6894 77.225 73.7054V73.4054V73.3704H77.426C77.498 73.2644 77.61 73.1694 77.717 73.0744C77.72 73.0724 77.722 73.0694 77.724 73.0674Z" fill="#2988FF"/>
<path fill-rule="evenodd" clip-rule="evenodd" d="M75.6757 66.2769C76.1697 66.3129 76.6897 66.3349 77.2257 66.3429V65.7479V65.1379C76.6717 65.1309 76.1517 65.1139 75.6877 65.0819V65.0889L75.6807 65.7479L75.6757 66.2769Z" fill="#2988FF"/>
<path fill-rule="evenodd" clip-rule="evenodd" d="M77.2254 69.047V69.012H77.4264C77.4534 68.973 77.5024 68.941 77.5334 68.903C77.5874 68.839 77.6494 68.776 77.7174 68.716C77.8144 68.629 77.9224 68.548 78.0454 68.469C77.8574 68.36 77.7114 68.252 77.6004 68.153C77.5994 68.152 77.5974 68.151 77.5964 68.15C77.3774 67.953 77.2884 67.789 77.2574 67.708L77.2564 67.706V67.705L77.2444 67.642L76.4014 67.291L75.6684 66.985L75.6644 67.344L75.6604 67.772V67.792L75.6574 68.081L75.6564 68.143C75.6454 68.171 75.6244 68.212 75.5974 68.258C75.5324 68.367 75.4144 68.519 75.1924 68.69C75.1914 68.691 75.1904 68.692 75.1894 68.693C75.1374 68.733 75.0754 68.775 75.0104 68.818C74.9674 68.846 74.9194 68.874 74.8704 68.902C74.8674 68.904 74.8634 68.907 74.8594 68.909C74.8444 68.918 74.8274 68.927 74.8114 68.936C74.6834 69.008 74.5414 69.08 74.3724 69.152C74.6014 69.185 74.8464 69.214 75.1074 69.239C75.1454 69.243 75.1894 69.245 75.2274 69.249C75.2294 69.249 75.2314 69.25 75.2324 69.25C75.3764 69.263 75.5254 69.275 75.6784 69.285C76.1444 69.318 76.6614 69.338 77.2264 69.346V69.047H77.2254Z" fill="#2988FF"/>
<path fill-rule="evenodd" clip-rule="evenodd" d="M83.0534 62.4945C83.3184 62.4795 83.5804 62.4725 83.8434 62.4675C83.9794 62.4645 84.1174 62.4575 84.2534 62.4575L84.2874 60.2795L84.2904 60.0595C84.2914 60.0515 84.2964 60.0435 84.2964 60.0365C84.2964 60.0295 84.2924 60.0225 84.2914 60.0155L84.2954 59.7355H84.1634C84.0624 59.6225 83.9004 59.5145 83.6954 59.4125C83.6234 59.4485 83.5464 59.4845 83.4644 59.5195C83.2934 59.5935 83.0974 59.6655 82.8784 59.7355C82.8714 59.7375 82.8634 59.7395 82.8564 59.7415C81.8134 60.0715 80.2004 60.3365 77.6834 60.3365C76.9424 60.3365 76.2804 60.3135 75.6874 60.2725V60.2805L75.6804 60.9385L75.6754 61.4675C76.3094 61.5135 76.9834 61.5385 77.6834 61.5385C79.8454 61.5385 81.7584 61.3025 82.9644 60.9375H83.0934V62.4655C83.0824 62.4745 83.0674 62.4845 83.0534 62.4945Z" fill="#2988FF"/>
<path fill-rule="evenodd" clip-rule="evenodd" d="M77.8255 63.7969C78.0245 63.6429 78.2755 63.5059 78.5565 63.3799C78.5705 63.3739 78.5865 63.3679 78.6005 63.3619C78.6035 63.3609 78.6065 63.3599 78.6095 63.3579C78.6365 63.3459 78.6675 63.3359 78.6955 63.3249C78.6115 63.3269 78.5315 63.3309 78.4445 63.3329L77.4025 62.8989L75.6685 62.176L75.6595 62.9859L75.6565 63.2729V63.3349C75.6475 63.3569 75.6335 63.3849 75.6165 63.4179C75.6125 63.4249 75.6065 63.4329 75.6025 63.4399C75.5385 63.5499 75.4195 63.7049 75.1925 63.8819C75.1645 63.9029 75.1295 63.9249 75.0985 63.9479C75.0305 63.9959 74.9535 64.0449 74.8675 64.0959C74.8655 64.0969 74.8615 64.0989 74.8585 64.1009C74.7895 64.1409 74.7175 64.1809 74.6365 64.2209C74.5645 64.2569 74.4875 64.2919 74.4055 64.3279C74.3935 64.3329 74.3835 64.3389 74.3715 64.3439C74.3985 64.3479 74.4295 64.3509 74.4565 64.3549C74.6165 64.3759 74.7845 64.3959 74.9595 64.4149C75.0685 64.4269 75.1845 64.4369 75.2995 64.4469C75.8615 64.4969 76.5025 64.5279 77.2245 64.5379V64.2379V64.2019H77.4265C77.4985 64.0959 77.6095 64.0019 77.7175 63.9059C77.7575 63.8709 77.7815 63.8309 77.8255 63.7969Z" fill="#2988FF"/>
<path fill-rule="evenodd" clip-rule="evenodd" d="M84.2916 55.2065L84.2956 54.9265H84.1636C84.0627 54.8135 83.9007 54.7055 83.6957 54.6035C83.6237 54.6395 83.5467 54.6745 83.4647 54.7105C83.2937 54.7845 83.0957 54.8565 82.8757 54.9265C82.8697 54.9285 82.8627 54.9305 82.8567 54.9325C81.8137 55.2615 80.2007 55.5265 77.6837 55.5265C76.9427 55.5265 76.2817 55.5035 75.6877 55.4625V55.4695L75.6807 56.1285L75.6757 56.6585C76.3097 56.7045 76.9837 56.7295 77.6837 56.7295C79.8447 56.7295 81.7567 56.4935 82.9637 56.1285H83.0937V57.6565C82.9017 57.8015 82.3357 58.1175 80.9407 58.3275C80.2987 58.4245 79.4827 58.4985 78.4437 58.5235L77.4007 58.0885L75.6687 57.3665L75.6597 58.1765L75.6567 58.4625V58.5245C75.6477 58.5465 75.6337 58.5755 75.6157 58.6085C75.6127 58.6155 75.6067 58.6235 75.6027 58.6305C75.5387 58.7405 75.4197 58.8955 75.1917 59.0725C75.1647 59.0935 75.1297 59.1155 75.0997 59.1375C75.0307 59.1865 74.9537 59.2355 74.8677 59.2855C74.8647 59.2875 74.8617 59.2895 74.8577 59.2915C74.7887 59.3315 74.7177 59.3715 74.6367 59.4115C74.5647 59.4475 74.4877 59.4825 74.4057 59.5185C74.3937 59.5235 74.3847 59.5285 74.3727 59.5335C74.3987 59.5375 74.4297 59.5405 74.4567 59.5445C74.6157 59.5665 74.7847 59.5865 74.9597 59.6045C75.0687 59.6165 75.1837 59.6265 75.2997 59.6365C75.9807 59.6965 76.7637 59.7345 77.6837 59.7345C79.4797 59.7345 80.7797 59.5995 81.7317 59.4055C82.0757 59.3355 82.3767 59.2585 82.6347 59.1765C82.7127 59.1515 82.7877 59.1265 82.8587 59.1005C83.0037 59.0485 83.1387 58.9955 83.2567 58.9415C83.9466 58.6235 84.1726 58.2945 84.2446 58.1285L84.2866 55.4695L84.2906 55.2495C84.2906 55.2415 84.2956 55.2335 84.2956 55.2255C84.2966 55.2205 84.2916 55.2135 84.2916 55.2065Z" fill="#2988FF"/>
<path fill-rule="evenodd" clip-rule="evenodd" d="M84.2916 50.3977L84.2956 50.1187H84.1636C84.0626 50.0047 83.9016 49.8977 83.6956 49.7947C83.6236 49.8307 83.5466 49.8667 83.4646 49.9017C83.2936 49.9757 83.0956 50.0477 82.8756 50.1187C82.8696 50.1207 82.8626 50.1227 82.8566 50.1237C81.8137 50.4537 80.2007 50.7187 77.6837 50.7187C76.9427 50.7187 76.2807 50.6947 75.6867 50.6547L75.6877 50.6617L75.6807 51.3207L75.6757 51.8497C76.3087 51.8957 76.9827 51.9207 77.6837 51.9207C79.8437 51.9207 81.7557 51.6847 82.9616 51.3207H83.0936V52.8477C82.9016 52.9927 82.3367 53.3097 80.9397 53.5196C80.2977 53.6166 79.4827 53.6906 78.4437 53.7146L77.4017 53.2807L75.6687 52.5587L75.6597 53.3687L75.6567 53.6556V53.7176C75.6477 53.7386 75.6337 53.7676 75.6157 53.8006C75.6127 53.8076 75.6067 53.8156 75.6027 53.8226C75.5387 53.9326 75.4197 54.0876 75.1917 54.2646C75.1647 54.2856 75.1297 54.3086 75.0987 54.3306C75.0307 54.3786 74.9537 54.4276 74.8687 54.4776C74.8657 54.4796 74.8627 54.4816 74.8597 54.4826C74.7897 54.5226 74.7177 54.5636 74.6367 54.6036C74.5647 54.6396 74.4877 54.6746 74.4057 54.7106C74.3937 54.7156 74.3837 54.7206 74.3717 54.7266C74.3987 54.7306 74.4287 54.7336 74.4567 54.7366C74.6157 54.7586 74.7847 54.7786 74.9597 54.7976C75.0687 54.8086 75.1847 54.8186 75.2997 54.8286C75.9817 54.8896 76.7637 54.9266 77.6837 54.9266C79.4797 54.9266 80.7787 54.7916 81.7307 54.5976C82.0757 54.5276 82.3757 54.4506 82.6337 54.3686C82.7127 54.3436 82.7866 54.3186 82.8576 54.2926C83.0026 54.2406 83.1376 54.1876 83.2546 54.1336C83.9456 53.8156 84.1726 53.4866 84.2446 53.3207L84.2866 50.6617L84.2896 50.4417C84.2906 50.4337 84.2956 50.4257 84.2956 50.4187C84.2966 50.4107 84.2916 50.4047 84.2916 50.3977Z" fill="#2988FF"/>
<path fill-rule="evenodd" clip-rule="evenodd" d="M74.8688 44.8419C75.0838 44.9799 75.2628 45.1279 75.3948 45.2899C75.4218 45.3229 75.4648 45.3509 75.4878 45.3839H75.6608L75.6878 45.8349L75.6818 46.4929L75.6758 47.0229C76.3098 47.0689 76.9838 47.0939 77.6838 47.0939C79.8458 47.0939 81.7598 46.8569 82.9657 46.4929H83.0937V48.0209C82.9017 48.1659 82.3367 48.4819 80.9398 48.6929C80.2988 48.7899 79.4828 48.8639 78.4448 48.8879L77.4018 48.4539L75.6688 47.7309L75.6608 48.5409L75.6568 48.8279V48.8899C75.6478 48.9119 75.6348 48.9399 75.6168 48.9729C75.6128 48.9799 75.6078 48.9879 75.6028 48.9949C75.5398 49.1049 75.4208 49.2599 75.1928 49.4369C75.1648 49.4579 75.1308 49.4799 75.0998 49.5029C75.0308 49.5509 74.9538 49.5999 74.8688 49.6499C74.8658 49.6519 74.8628 49.6529 74.8598 49.6549C74.7908 49.6949 74.7188 49.7349 74.6368 49.7759C74.5648 49.8119 74.4878 49.8469 74.4058 49.8829C74.3938 49.8879 74.3848 49.8929 74.3728 49.8979C74.3998 49.9029 74.4298 49.9049 74.4578 49.9099C74.6168 49.9309 74.7858 49.9509 74.9608 49.9699C75.0698 49.9819 75.1848 49.9919 75.2998 50.0019C75.9818 50.0619 76.7638 50.0989 77.6838 50.0989C79.4798 50.0989 80.7798 49.9639 81.7308 49.7709C82.0758 49.7009 82.3767 49.6229 82.6347 49.5409C82.7127 49.5159 82.7877 49.4909 82.8587 49.4649C83.0037 49.4129 83.1387 49.3599 83.2557 49.3059C83.9467 48.9879 84.1727 48.6579 84.2457 48.4929L84.2877 45.8339L84.2907 45.6139C84.2917 45.6059 84.2957 45.5989 84.2957 45.5909C84.2957 45.5839 84.2917 45.5769 84.2917 45.5699L84.2957 45.2899H84.1627C83.5497 44.6039 80.8828 44.0879 77.6828 44.0879C76.9608 44.0879 76.2668 44.1149 75.6158 44.1639C75.6128 44.1709 75.6068 44.1799 75.6028 44.1869C75.5308 44.3099 75.3838 44.4919 75.0988 44.6939C75.0318 44.7429 74.9548 44.7919 74.8688 44.8419Z" fill="#2988FF"/>
<path fill-rule="evenodd" clip-rule="evenodd" d="M75.1871 72.1061L75.2021 71.1501L75.2111 70.5961L75.2181 70.1061L75.2221 69.8491C75.0731 69.8361 74.9171 69.8241 74.7781 69.8081C74.7501 69.8051 74.7261 69.8011 74.6981 69.7981C74.0981 69.7271 73.5901 69.6361 73.1541 69.5341C72.7851 69.6211 72.3591 69.6981 71.8741 69.7631C71.7941 69.7731 71.7171 69.7851 71.6341 69.7941C71.6261 69.7961 71.6191 69.7961 71.6111 69.7981C71.5801 69.8011 71.5531 69.8061 71.5221 69.8091C71.3801 69.8251 71.2231 69.8371 71.0721 69.8501C70.9231 69.8641 70.7801 69.8791 70.6211 69.8901C70.0811 69.9271 69.4752 69.9471 68.8132 69.9511L68.8122 70.1051L68.8062 70.7031C69.4372 70.6991 70.0471 70.6771 70.6221 70.6351C70.7751 70.6241 70.9241 70.6111 71.0721 70.5981C71.1751 70.5881 71.2761 70.5781 71.3761 70.5681C71.4261 70.5631 71.4741 70.5571 71.5221 70.5521C71.7821 70.5231 72.0351 70.4911 72.2741 70.4551C72.5891 70.4081 72.8811 70.3541 73.1551 70.2951C73.4281 70.2371 73.6781 70.1731 73.9041 70.1051H74.0361V70.4551V70.6621V71.6321C73.9171 71.7211 73.6531 71.8771 73.1431 72.0321C72.8301 72.1271 72.4221 72.2221 71.8931 72.3021C71.8201 72.3131 71.7431 72.3241 71.6651 72.3341C71.5531 72.3501 71.4331 72.3641 71.3111 72.3771C71.2441 72.3851 71.1791 72.3931 71.1091 72.4001C70.9611 72.4151 70.8041 72.4271 70.6421 72.4391C70.2641 72.4671 69.8481 72.4881 69.3872 72.4991L68.7912 72.2511L68.7882 72.5071L68.7862 72.6621C68.7512 72.7511 68.6452 72.9441 68.3682 73.1711C68.2772 73.2451 68.1672 73.3231 68.0342 73.4031C68.0222 73.4101 68.0092 73.4161 67.9982 73.4231C68.1382 73.512 68.2582 73.607 68.3632 73.707C68.4532 73.708 68.5342 73.711 68.6262 73.711C69.9941 73.711 71.0781 73.633 71.9381 73.5101C72.2761 73.4621 72.5711 73.4061 72.8431 73.3461C72.9511 73.3221 73.0571 73.2981 73.1551 73.2731C73.3731 73.2171 73.5661 73.1591 73.7391 73.0981C73.9041 73.0411 74.0561 72.9831 74.1861 72.9231C74.6021 72.7331 74.8501 72.5401 74.9991 72.3791C75.1001 72.2691 75.1571 72.1731 75.1871 72.1061Z" fill="#2988FF"/>
<path fill-rule="evenodd" clip-rule="evenodd" d="M68.3005 68.8357C68.3255 68.8577 68.3435 68.8817 68.3675 68.9037C68.4185 68.9517 68.4705 69.0007 68.5125 69.0517C68.5425 69.0887 68.5905 69.1197 68.6165 69.1577H68.7895L68.8015 69.3517C69.4765 69.3477 70.0805 69.3257 70.6215 69.2877C70.7764 69.2767 70.9264 69.2647 71.0714 69.2517C71.0754 69.2507 71.0784 69.2507 71.0824 69.2507C71.1204 69.2467 71.1644 69.2447 71.2024 69.2407C71.4634 69.2147 71.7084 69.1857 71.9374 69.1537C71.9624 69.1497 71.9834 69.1457 72.0084 69.1417C72.3164 69.0957 72.5904 69.0447 72.8424 68.9887C72.9504 68.9647 73.0564 68.9407 73.1544 68.9157C73.1704 68.9117 73.1844 68.9077 73.1994 68.9037C73.3104 68.8747 73.4214 68.8457 73.5204 68.8157C73.5984 68.7917 73.6684 68.7657 73.7394 68.7407C73.8974 68.6857 74.0444 68.6297 74.1704 68.5727C74.1754 68.5697 74.1814 68.5677 74.1864 68.5657C74.2584 68.5327 74.3214 68.4997 74.3844 68.4657C74.4254 68.4447 74.4674 68.4227 74.5044 68.4017C74.5524 68.3727 74.5964 68.3447 74.6384 68.3177C74.7974 68.2127 74.9144 68.1117 74.9984 68.0207C75.0574 67.9577 75.0994 67.8997 75.1314 67.8497C75.1384 67.8377 75.1464 67.8257 75.1524 67.8157C75.1664 67.7907 75.1784 67.7677 75.1874 67.7477L75.1934 67.3977L75.2024 66.7917L75.2114 66.2387L75.2194 65.7477L75.2294 65.0887L75.2304 65.0417C75.2154 65.0407 75.2014 65.0397 75.1874 65.0387C75.1844 65.0377 75.1814 65.0377 75.1784 65.0377C74.9704 65.0187 74.7694 64.9977 74.5804 64.9737C74.0324 64.9057 73.5614 64.8217 73.1554 64.7257C72.7494 64.8217 72.2774 64.9057 71.7304 64.9737C71.5404 64.9977 71.3404 65.0177 71.1314 65.0377C71.1294 65.0377 71.1264 65.0387 71.1234 65.0387C71.1064 65.0397 71.0894 65.0417 71.0724 65.0427C70.9234 65.0567 70.7804 65.0707 70.6215 65.0817C70.0815 65.1197 69.4755 65.1397 68.8135 65.1427L68.8075 65.7477L68.8015 66.3467C69.4335 66.3427 70.0455 66.3197 70.6215 66.2787C70.7744 66.2677 70.9234 66.2547 71.0714 66.2407C71.1744 66.2317 71.2754 66.2217 71.3764 66.2117C71.4254 66.2067 71.4734 66.2007 71.5224 66.1957C71.7824 66.1667 72.0354 66.1347 72.2744 66.0987C72.5884 66.0517 72.8814 65.9977 73.1544 65.9387C73.4284 65.8807 73.6784 65.8167 73.9044 65.7487H74.0354V66.0997V66.3067V67.2757C73.9164 67.3657 73.6534 67.5207 73.1434 67.6757C73.0934 67.6917 73.0434 67.7067 72.9874 67.7217C72.7344 67.7917 72.4244 67.8597 72.0534 67.9207C72.0014 67.9297 71.9484 67.9377 71.8934 67.9467C71.8864 67.9477 71.8794 67.9487 71.8724 67.9497C71.8054 67.9597 71.7354 67.9687 71.6654 67.9787C71.5524 67.9937 71.4334 68.0077 71.3104 68.0217C71.2434 68.0287 71.1794 68.0367 71.1084 68.0437C70.9604 68.0587 70.8034 68.0717 70.6415 68.0837C70.2635 68.1117 69.8475 68.1317 69.3865 68.1437L68.7715 67.8867C68.7435 67.9487 68.6905 68.0397 68.5915 68.1527L68.5905 68.1537C68.4715 68.2877 68.2835 68.4487 67.9985 68.6157C68.1085 68.6857 68.2105 68.7587 68.3005 68.8357Z" fill="#2988FF"/>
<path fill-rule="evenodd" clip-rule="evenodd" d="M68.0073 63.8114C68.1143 63.8804 68.2133 63.9514 68.3003 64.0264C68.3813 64.0954 68.4513 64.1684 68.5133 64.2434C68.5433 64.2794 68.5903 64.3104 68.6163 64.3474H68.7893L68.8013 64.5424C69.6433 64.5384 70.3743 64.5034 71.0103 64.4474C71.1243 64.4364 71.2403 64.4274 71.3482 64.4154C71.5232 64.3964 71.6922 64.3764 71.8512 64.3554C71.8792 64.3514 71.9092 64.3474 71.9372 64.3444C72.2052 64.3054 72.4462 64.2624 72.6722 64.2154C72.7312 64.2034 72.7872 64.1914 72.8432 64.1794C72.9502 64.1554 73.0562 64.1314 73.1542 64.1064C73.3052 64.0674 73.4462 64.0274 73.5762 63.9864C73.6332 63.9684 73.6852 63.9504 73.7382 63.9314C73.7582 63.9244 73.7802 63.9174 73.8002 63.9104C73.9412 63.8594 74.0722 63.8084 74.1862 63.7554C74.1902 63.7544 74.1942 63.7524 74.1972 63.7514C74.3262 63.6914 74.4352 63.6324 74.5332 63.5734C74.5682 63.5524 74.6012 63.5324 74.6322 63.5124C74.7942 63.4054 74.9142 63.3034 74.9982 63.2114C75.0552 63.1505 75.0962 63.0955 75.1272 63.0465C75.1522 63.0065 75.1732 62.9685 75.1872 62.9385L75.2022 61.9815L75.2112 61.4285L75.2182 60.9375L75.2292 60.2795V60.2325C75.2152 60.2305 75.2012 60.2295 75.1862 60.2285C75.1832 60.2275 75.1802 60.2275 75.1772 60.2275C74.9702 60.2085 74.7692 60.1875 74.5802 60.1635C74.0322 60.0955 73.5602 60.0115 73.1542 59.9155C72.7482 60.0115 72.2772 60.0955 71.7292 60.1635C71.5402 60.1875 71.3392 60.2075 71.1313 60.2275C71.1283 60.2275 71.1253 60.2275 71.1223 60.2275C71.1053 60.2295 71.0883 60.2305 71.0713 60.2325C70.9223 60.2455 70.7803 60.2605 70.6213 60.2715C70.0803 60.3085 69.4753 60.3285 68.8133 60.3325L68.8063 60.9365L68.8003 61.5355C69.4333 61.5325 70.0443 61.5095 70.6213 61.4675C70.7743 61.4565 70.9233 61.4435 71.0713 61.4305C71.1743 61.4215 71.2753 61.4115 71.3752 61.4005C71.4242 61.3955 71.4722 61.3895 71.5212 61.3845C71.7812 61.3555 72.0342 61.3235 72.2732 61.2875C72.5882 61.2405 72.8802 61.1865 73.1542 61.1275C73.4282 61.0695 73.6792 61.0055 73.9062 60.9365H74.0342V61.2875V61.4955V62.4655C73.9162 62.5545 73.6522 62.7095 73.1422 62.8655C72.8282 62.9605 72.4212 63.0555 71.8922 63.1355C71.8882 63.1365 71.8842 63.1365 71.8802 63.1375C71.8102 63.1475 71.7382 63.1585 71.6642 63.1675C71.5512 63.1835 71.4322 63.1965 71.3092 63.2105C71.2423 63.2184 71.1783 63.2265 71.1073 63.2334C70.9593 63.2474 70.8023 63.2604 70.6403 63.2724C70.2623 63.3004 69.8463 63.3214 69.3863 63.3324L68.7703 63.0755C68.7423 63.1375 68.6893 63.2285 68.5903 63.3414H68.5893C68.4713 63.4764 68.2823 63.6374 67.9963 63.8044C68.0003 63.8074 68.0043 63.8094 68.0073 63.8114Z" fill="#2988FF"/>
<path fill-rule="evenodd" clip-rule="evenodd" d="M68.0057 59.0016C68.1137 59.0706 68.2127 59.1416 68.3007 59.2176C68.3817 59.2876 68.4517 59.3596 68.5137 59.4346C68.5437 59.4706 68.5907 59.5016 68.6167 59.5386H68.7897L68.8017 59.7326C69.6437 59.7286 70.3747 59.6936 71.0107 59.6376C71.1257 59.6276 71.2407 59.6176 71.3497 59.6056C71.5247 59.5876 71.6937 59.5676 71.8537 59.5456C71.8807 59.5426 71.9107 59.5386 71.9367 59.5356C72.2056 59.4966 72.4466 59.4536 72.6736 59.4066C72.7316 59.3956 72.7866 59.3826 72.8426 59.3706C72.9506 59.3466 73.0566 59.3226 73.1546 59.2976C73.3056 59.2596 73.4466 59.2196 73.5766 59.1786C73.6326 59.1606 73.6846 59.1426 73.7376 59.1236C73.7586 59.1166 73.7806 59.1096 73.8006 59.1026C73.9416 59.0516 74.0726 58.9996 74.1866 58.9476C74.1906 58.9456 74.1946 58.9446 74.1986 58.9426C74.3266 58.8836 74.4356 58.8246 74.5336 58.7656C74.5686 58.7446 74.6016 58.7236 74.6326 58.7036C74.7946 58.5976 74.9146 58.4946 74.9996 58.4026C75.0556 58.3416 75.0966 58.2866 75.1286 58.2376C75.1536 58.1976 75.1746 58.1606 75.1876 58.1296L75.2026 57.1736L75.2116 56.6196L75.2186 56.1286L75.2296 55.4707V55.4227C75.2156 55.4217 75.2016 55.4197 75.1866 55.4187C75.1836 55.4187 75.1806 55.4187 75.1786 55.4177C74.9706 55.3987 74.7696 55.3787 74.5796 55.3547C74.0326 55.2867 73.5606 55.2017 73.1546 55.1067C72.7486 55.2017 72.2776 55.2867 71.7307 55.3547C71.5407 55.3777 71.3397 55.3987 71.1317 55.4177C71.1287 55.4187 71.1257 55.4187 71.1227 55.4187C71.1057 55.4207 71.0887 55.4217 71.0717 55.4237C70.9227 55.4367 70.7807 55.4517 70.6217 55.4627C70.0807 55.4997 69.4757 55.5197 68.8137 55.5237L68.8067 56.1286L68.8007 56.7276C69.4337 56.7236 70.0447 56.7006 70.6217 56.6596C70.7747 56.6486 70.9237 56.6356 71.0717 56.6216C71.1747 56.6126 71.2757 56.6026 71.3757 56.5916C71.4257 56.5866 71.4737 56.5806 71.5217 56.5756C71.7817 56.5466 72.0347 56.5146 72.2736 56.4796C72.5886 56.4316 72.8806 56.3776 73.1546 56.3196C73.4286 56.2606 73.6786 56.1966 73.9056 56.1286H74.0346V56.4796V56.6866V57.6566C73.9166 57.7466 73.6526 57.9006 73.1426 58.0556C72.8286 58.1516 72.4206 58.2466 71.8927 58.3266C71.8887 58.3266 71.8847 58.3276 71.8817 58.3276C71.8117 58.3386 71.7387 58.3486 71.6647 58.3586C71.5517 58.3736 71.4327 58.3876 71.3097 58.4016C71.2427 58.4086 71.1777 58.4166 71.1077 58.4236C70.9597 58.4386 70.8027 58.4516 70.6407 58.4636C70.2627 58.4916 69.8457 58.5126 69.3847 58.5226L68.7707 58.2676C68.7427 58.3286 68.6907 58.4196 68.5917 58.5316C68.5917 58.5326 68.5907 58.5326 68.5907 58.5326C68.4717 58.6676 68.2827 58.8296 67.9977 58.9966C67.9997 58.9986 68.0027 58.9996 68.0057 59.0016Z" fill="#2988FF"/>
<path fill-rule="evenodd" clip-rule="evenodd" d="M68.0065 54.1931C68.1135 54.2621 68.2135 54.3331 68.3005 54.4091C68.3805 54.4781 68.4505 54.5501 68.5125 54.6251C68.5425 54.6611 68.5905 54.6931 68.6165 54.7301H68.7895L68.8015 54.9241C69.6435 54.9201 70.3745 54.8851 71.0105 54.8291C71.1255 54.8191 71.2405 54.8091 71.3495 54.7971C71.5245 54.7781 71.6935 54.7591 71.8525 54.7371C71.8805 54.7331 71.9105 54.7301 71.9375 54.7261C72.2055 54.6881 72.4465 54.6441 72.6725 54.5981C72.7315 54.5861 72.7865 54.5741 72.8425 54.5621C72.9505 54.5381 73.0565 54.5141 73.1545 54.4891C73.3055 54.4501 73.4465 54.4111 73.5755 54.3691C73.6325 54.3511 73.6855 54.3331 73.7385 54.3141C73.7595 54.3071 73.7805 54.3001 73.8005 54.2931C73.9415 54.2431 74.0715 54.1911 74.1865 54.1391C74.1905 54.1371 74.1945 54.1351 74.1985 54.1341C74.3265 54.0751 74.4345 54.0161 74.5325 53.9571C74.5675 53.9361 74.6005 53.9161 74.6315 53.8951C74.7935 53.7881 74.9135 53.6861 74.9995 53.5941C75.0555 53.5331 75.0965 53.4791 75.1275 53.4291C75.1525 53.3891 75.1735 53.3511 75.1875 53.3211L75.2025 52.3651L75.2115 51.8111L75.2185 51.3211L75.2295 50.6621V50.6141C75.2155 50.6131 75.2015 50.6121 75.1875 50.6111C75.1845 50.6101 75.1815 50.6101 75.1785 50.6101C74.9705 50.5911 74.7695 50.5701 74.5795 50.5461C74.0325 50.4791 73.5605 50.3941 73.1545 50.2981C72.7485 50.3941 72.2775 50.4791 71.7305 50.5461C71.5405 50.5701 71.3395 50.5911 71.1315 50.6101C71.1285 50.6101 71.1255 50.6111 71.1225 50.6111C71.1065 50.6121 71.0885 50.6141 71.0715 50.6151C70.9225 50.6291 70.7805 50.6441 70.6215 50.6551C70.0805 50.6921 69.4755 50.7121 68.8135 50.7151L68.8065 51.3211L68.8005 51.9191C69.4335 51.9151 70.0445 51.8921 70.6215 51.8511C70.7745 51.8401 70.9235 51.8271 71.0715 51.8131C71.1745 51.8041 71.2755 51.7941 71.3755 51.7831C71.4255 51.7781 71.4735 51.7721 71.5215 51.7671C71.7815 51.7381 72.0345 51.7061 72.2735 51.6711C72.5885 51.6231 72.8805 51.5691 73.1545 51.5111C73.4275 51.4521 73.6775 51.3891 73.9035 51.3201H74.0355V51.6711V51.8781V52.8481C73.9165 52.9371 73.6525 53.0921 73.1425 53.2471C72.8295 53.3431 72.4215 53.4381 71.8925 53.5181C71.8895 53.5191 71.8845 53.5191 71.8815 53.5201C71.8115 53.5301 71.7385 53.5401 71.6645 53.5501C71.5525 53.5651 71.4325 53.5791 71.3105 53.5931C71.2435 53.6001 71.1785 53.6081 71.1085 53.6151C70.9605 53.6301 70.8035 53.6431 70.6415 53.6551C70.2635 53.6831 69.8475 53.7041 69.3865 53.7151L68.7705 53.4581C68.7435 53.5201 68.6905 53.6111 68.5915 53.7231C68.5915 53.7241 68.5915 53.7241 68.5915 53.7241H68.5905C68.4715 53.8591 68.2825 54.0201 67.9975 54.1871C68.0005 54.1891 68.0035 54.1911 68.0065 54.1931Z" fill="#2988FF"/>
<path fill-rule="evenodd" clip-rule="evenodd" d="M68.0065 49.366C68.1135 49.435 68.2135 49.506 68.3005 49.582C68.3805 49.651 68.4505 49.723 68.5125 49.798C68.5425 49.834 68.5905 49.866 68.6165 49.904H68.7895L68.8015 50.097C69.6435 50.093 70.3745 50.059 71.0105 50.002C71.1255 49.992 71.2405 49.982 71.3495 49.97C71.5235 49.951 71.6925 49.932 71.8525 49.91C71.8795 49.906 71.9095 49.903 71.9365 49.899C72.2055 49.86 72.4455 49.817 72.6725 49.771C72.7305 49.759 72.7865 49.747 72.8425 49.734C72.9505 49.711 73.0555 49.686 73.1545 49.661C73.3055 49.623 73.4465 49.583 73.5755 49.541C73.6325 49.523 73.6855 49.505 73.7385 49.486C73.7585 49.479 73.7805 49.473 73.8005 49.465C73.9415 49.415 74.0715 49.363 74.1855 49.311C74.1895 49.309 74.1945 49.308 74.1975 49.306C74.3255 49.247 74.4345 49.188 74.5325 49.129C74.5665 49.108 74.6005 49.088 74.6315 49.067C74.7935 48.961 74.9135 48.859 74.9985 48.767C75.0545 48.706 75.0955 48.651 75.1265 48.601C75.1525 48.561 75.1735 48.524 75.1865 48.493L75.2015 47.537L75.2105 46.984L75.2185 46.492L75.2285 45.834L75.2315 45.615C75.2325 45.607 75.2375 45.599 75.2375 45.59C75.2375 45.583 75.2325 45.576 75.2325 45.569L75.2365 45.29H75.1045C75.0035 45.177 74.8415 45.07 74.6365 44.968C74.5645 45.003 74.4875 45.039 74.4055 45.074C74.2355 45.148 74.0395 45.22 73.8205 45.29C73.8125 45.292 73.8045 45.295 73.7975 45.297C73.2705 45.463 72.5935 45.612 71.7295 45.719C71.5395 45.743 71.3385 45.763 71.1305 45.783C71.1275 45.783 71.1245 45.783 71.1215 45.783C71.1055 45.785 71.0875 45.787 71.0705 45.788C70.9215 45.801 70.7795 45.816 70.6205 45.827C70.0795 45.864 69.4745 45.884 68.8125 45.888L68.8055 46.492L68.7995 47.091C69.4325 47.088 70.0435 47.065 70.6205 47.023C70.7735 47.012 70.9225 46.999 71.0705 46.986C71.1735 46.977 71.2745 46.967 71.3745 46.956C71.4245 46.951 71.4725 46.945 71.5205 46.94C71.7805 46.911 72.0335 46.88 72.2725 46.843C72.5875 46.796 72.8795 46.742 73.1535 46.684C73.4275 46.625 73.6785 46.561 73.9055 46.492H74.0345V46.843V47.051V48.021C73.9155 48.11 73.6515 48.265 73.1415 48.421C72.8285 48.516 72.4205 48.611 71.8915 48.691C71.8885 48.692 71.8835 48.692 71.8805 48.693C71.8105 48.703 71.7375 48.713 71.6635 48.723C71.5515 48.738 71.4315 48.752 71.3095 48.766C71.2425 48.773 71.1775 48.781 71.1075 48.788C70.9595 48.803 70.8025 48.816 70.6405 48.828C70.2625 48.856 69.8465 48.877 69.3855 48.888L68.7705 48.632C68.7425 48.693 68.6895 48.784 68.5905 48.896L68.5895 48.897C68.4705 49.032 68.2815 49.193 67.9965 49.36C68.0005 49.362 68.0035 49.364 68.0065 49.366Z" fill="#2988FF"/>
<path fill-rule="evenodd" clip-rule="evenodd" d="M71.8813 43.884C71.2403 43.981 70.4253 44.055 69.3873 44.079L68.7713 43.822C68.7433 43.884 68.6903 43.975 68.5913 44.088H68.5903C68.4723 44.223 68.2833 44.384 67.9973 44.551C68.0003 44.553 68.0043 44.555 68.0073 44.557C68.1143 44.626 68.2133 44.697 68.3003 44.772C68.3813 44.841 68.4513 44.914 68.5133 44.989C68.5433 45.025 68.5903 45.056 68.6163 45.093H68.7893L68.8013 45.288C69.6433 45.284 70.3743 45.249 71.0103 45.193C71.1243 45.183 71.2393 45.173 71.3483 45.161C71.5233 45.142 71.6923 45.122 71.8513 45.101C72.1523 45.059 72.4223 45.012 72.6723 44.962C73.0172 44.892 73.3182 44.814 73.5762 44.733C73.6542 44.707 73.7292 44.682 73.8002 44.657C73.9452 44.604 74.0802 44.551 74.1972 44.498C74.3262 44.438 74.4342 44.379 74.5332 44.32C74.5672 44.299 74.6002 44.279 74.6312 44.258C74.9002 44.082 75.0482 43.917 75.1262 43.793C75.1522 43.753 75.1732 43.715 75.1862 43.685L75.2282 41.025L75.2312 40.806C75.2322 40.798 75.2372 40.79 75.2372 40.781C75.2372 40.774 75.2322 40.767 75.2322 40.76L75.2362 40.481H75.1042C75.0032 40.368 74.8412 40.26 74.6362 40.158C74.5642 40.194 74.4872 40.229 74.4052 40.265C74.2342 40.339 74.0362 40.411 73.8172 40.481C73.8102 40.483 73.8032 40.485 73.7972 40.487C72.7812 40.808 71.2173 41.065 68.8123 41.078L68.8063 41.683L68.8003 42.282C70.8883 42.27 72.7312 42.038 73.9052 41.683H74.0342V43.212C73.8432 43.357 73.2782 43.674 71.8813 43.884Z" fill="#2988FF"/>
<path fill-rule="evenodd" clip-rule="evenodd" d="M62.3128 38.5514C62.3628 38.5524 62.4128 38.5534 62.4638 38.5554C62.8328 38.5674 63.2018 38.5874 63.5698 38.6174C64.4398 38.6884 65.2858 38.8084 66.0388 38.9874C66.3418 39.0594 66.6298 39.1394 66.8968 39.2294C66.9788 39.2564 67.0478 39.2904 67.1268 39.3194C67.1348 39.3224 67.1428 39.3264 67.1508 39.3284C67.4777 39.4534 67.7647 39.5924 68.0067 39.7484C68.1137 39.8174 68.2127 39.8884 68.3007 39.9634C68.3807 40.0324 68.4507 40.1054 68.5127 40.1794C68.5427 40.2164 68.5897 40.2474 68.6157 40.2854H68.7887L68.8007 40.4794C70.5027 40.4704 71.7537 40.3394 72.6717 40.1534C73.0167 40.0834 73.3177 40.0064 73.5747 39.9244C73.6537 39.8994 73.7277 39.8734 73.7997 39.8484C73.9447 39.7954 74.0797 39.7424 74.1967 39.6884C74.8877 39.3704 75.1147 39.0404 75.1867 38.8754L75.2287 36.2174L75.2317 35.9984C75.2327 35.9904 75.2377 35.9824 75.2377 35.9734C75.2377 35.9664 75.2327 35.9594 75.2327 35.9524L75.2367 35.6734H75.1047C75.0047 35.5604 74.8427 35.4524 74.6367 35.3504C74.5647 35.3864 74.4877 35.4214 74.4057 35.4574C74.2347 35.5314 74.0377 35.6034 73.8167 35.6734C73.8107 35.6754 73.8037 35.6774 73.7977 35.6794C72.7547 36.0094 71.1417 36.2744 68.6247 36.2744C66.1078 36.2744 64.4958 36.0094 63.4528 35.6804C63.4468 35.6784 63.4398 35.6764 63.4328 35.6744C63.2128 35.6044 63.0158 35.5314 62.8448 35.4574C62.7628 35.4224 62.6858 35.3864 62.6138 35.3514C62.4078 35.4534 62.2468 35.5614 62.1458 35.6744H62.0128V38.5464C62.1128 38.5454 62.2128 38.5494 62.3128 38.5514ZM64.0958 37.0654C65.2788 37.3194 66.8698 37.4754 68.6257 37.4754C70.7857 37.4754 72.6977 37.2394 73.9047 36.8754H74.0347V38.4024C73.8427 38.5474 73.2777 38.8644 71.8807 39.0744C71.2397 39.1714 70.4237 39.2454 69.3847 39.2694L68.3427 38.8354L64.0958 37.0654Z" fill="#2988FF"/>
<path fill-rule="evenodd" clip-rule="evenodd" d="M62.0637 34.0674C62.1357 34.2324 62.3627 34.5624 63.0527 34.8794C63.1697 34.9334 63.3047 34.9864 63.4497 35.0394C63.5217 35.0644 63.5957 35.0904 63.6747 35.1154C63.9327 35.1974 64.2327 35.2744 64.5777 35.3444C65.5297 35.5374 66.8297 35.6724 68.6257 35.6724C70.4216 35.6724 71.7216 35.5374 72.6726 35.3444C73.0176 35.2744 73.3186 35.1964 73.5766 35.1144C73.6546 35.0894 73.7296 35.0644 73.8006 35.0384C73.9456 34.9864 74.0806 34.9334 74.1976 34.8794C74.8886 34.5614 75.1146 34.2314 75.1866 34.0664L75.2286 31.4075L75.2326 31.1885C75.2326 31.1805 75.2376 31.1725 75.2376 31.1645C75.2376 31.1565 75.2336 31.1495 75.2326 31.1425L75.2376 30.8635H75.1046C74.4916 30.1775 71.8246 29.6615 68.6247 29.6615C65.4257 29.6615 62.7577 30.1775 62.1457 30.8635H62.0127V33.8254V33.8264L62.0637 34.0674ZM69.3856 34.4614L68.3437 34.0264L64.0957 32.2565C65.2797 32.5105 66.8707 32.6665 68.6257 32.6665C70.7876 32.6665 72.7006 32.4305 73.9066 32.0655H74.0356V33.5935C73.8436 33.7384 73.2786 34.0554 71.8816 34.2664C71.2396 34.3624 70.4246 34.4364 69.3856 34.4614Z" fill="#2988FF"/>
<path fill-rule="evenodd" clip-rule="evenodd" d="M68.3664 73.8732H68.2344C68.2294 73.8672 68.2214 73.8612 68.2164 73.8562C68.1674 73.8042 68.1054 73.7532 68.0334 73.7042C67.9574 73.6512 67.8664 73.6002 67.7664 73.5502C67.6944 73.5852 67.6174 73.6212 67.5354 73.6572C67.5104 73.6672 67.4874 73.6782 67.4604 73.6892C67.3524 73.7342 67.2344 73.7782 67.1074 73.8222C67.0574 73.8392 66.9994 73.8562 66.9464 73.8732C66.9404 73.8752 66.9334 73.8772 66.9274 73.8792C66.5924 73.9852 66.1944 74.0832 65.7304 74.1682C64.7474 74.3492 63.4624 74.4732 61.7534 74.4732C59.2364 74.4732 57.6234 74.2082 56.5804 73.8792C56.5744 73.8772 56.5674 73.8752 56.5614 73.8732C56.3414 73.8032 56.1444 73.7312 55.9734 73.6572C55.8914 73.6212 55.8134 73.5852 55.7424 73.5502C55.5364 73.6522 55.3744 73.7602 55.2734 73.8732H55.1414V74.1732V74.4172V76.4521V76.5451V76.8351L55.1924 77.0771C55.2464 77.2001 55.3894 77.4141 55.7404 77.6461C55.8144 77.6941 55.9004 77.7441 55.9944 77.7941C56.0614 77.8301 56.1314 77.8651 56.2094 77.9001C56.3924 77.9831 56.6064 78.0651 56.8584 78.1431C56.9574 78.1731 57.0684 78.2021 57.1794 78.2311C58.1564 78.4881 59.6004 78.6821 61.7534 78.6821C63.9074 78.6821 65.3504 78.4881 66.3274 78.2311C66.4384 78.2021 66.5494 78.1731 66.6484 78.1431C66.9014 78.0651 67.1154 77.9831 67.2984 77.9001C67.3764 77.8651 67.4454 77.8291 67.5124 77.7941C67.6074 77.7441 67.6924 77.6941 67.7674 77.6451C68.1184 77.4131 68.2614 77.1981 68.3154 77.0751L68.3574 74.4172L68.3594 74.3082L68.3604 74.1972C68.3614 74.1892 68.3664 74.1812 68.3664 74.1732C68.3664 74.1662 68.3614 74.1592 68.3614 74.1522L68.3664 73.8732ZM67.1634 75.0752V76.6021C67.0334 76.7011 66.7324 76.8781 66.1164 77.0481C65.8624 77.1181 65.5534 77.1861 65.1824 77.2471C65.1234 77.2571 65.0624 77.2661 65.0004 77.2761C64.3604 77.3721 63.5474 77.4451 62.5144 77.4701L61.4634 77.0321H61.4624L60.4724 76.6191L57.2234 75.2652C58.4074 75.5192 59.9984 75.6752 61.7534 75.6752C63.9144 75.6752 65.8264 75.4392 67.0324 75.0752H67.1634Z" fill="#2988FF"/>
<path fill-rule="evenodd" clip-rule="evenodd" d="M56.1812 73.0804C56.2982 73.1344 56.4332 73.1874 56.5782 73.2394C56.6492 73.2654 56.7242 73.2903 56.8032 73.3153C57.0602 73.3973 57.3602 73.4743 57.7052 73.5443C58.6572 73.7373 59.9572 73.8733 61.7542 73.8733C62.5022 73.8733 63.1582 73.8483 63.7472 73.8073C64.3042 73.7673 64.7932 73.7133 65.2232 73.6463C65.3982 73.6193 65.5662 73.5913 65.7222 73.5613C65.7502 73.5563 65.7742 73.5503 65.8012 73.5443C66.1082 73.4823 66.3852 73.4153 66.6222 73.3433C66.6522 73.3343 66.6762 73.3243 66.7042 73.3153C66.7832 73.2903 66.8582 73.2654 66.9292 73.2394C66.9912 73.2174 67.0502 73.1944 67.1072 73.1714C67.1822 73.1414 67.2592 73.1114 67.3262 73.0804C67.7662 72.8774 68.0142 72.6714 68.1572 72.5054C68.2382 72.4104 68.2892 72.3274 68.3152 72.2674L68.3192 72.0564L68.3402 70.7034L68.3492 70.1064L68.3522 69.9504L68.3572 69.6074L68.3592 69.4994L68.3612 69.3884C68.3612 69.3804 68.3662 69.3724 68.3662 69.3644C68.3662 69.3594 68.3632 69.3544 68.3632 69.3504C68.3632 69.3474 68.3622 69.3454 68.3612 69.3434L68.3662 69.0634H68.2332C68.2282 69.0584 68.2222 69.0534 68.2172 69.0484C68.1742 69.0034 68.1242 68.9584 68.0642 68.9144C68.0592 68.9104 68.0522 68.9074 68.0472 68.9034C67.9672 68.8474 67.8712 68.7934 67.7652 68.7404C67.6932 68.7764 67.6162 68.8124 67.5342 68.8474C67.5222 68.8534 67.5132 68.8574 67.5022 68.8624C67.4692 68.8764 67.4322 68.8904 67.3982 68.9044C67.3042 68.9414 67.2082 68.9794 67.1012 69.0154C67.0532 69.0324 66.9982 69.0474 66.9472 69.0644C66.9412 69.0664 66.9332 69.0684 66.9262 69.0704C66.7202 69.1354 66.4892 69.1974 66.2352 69.2564C66.0792 69.2924 65.9142 69.3264 65.7392 69.3584C65.2962 69.4404 64.7872 69.5094 64.2072 69.5614C63.6872 69.6084 63.1072 69.6404 62.4632 69.6544C62.4152 69.6554 62.3662 69.6554 62.3182 69.6564C62.2162 69.6584 62.1172 69.6604 62.0122 69.6614C61.9232 69.6624 61.8442 69.6654 61.7532 69.6654C61.6862 69.6654 61.6282 69.6624 61.5622 69.6624C59.1582 69.6484 57.5952 69.3914 56.5802 69.0704C56.5732 69.0684 56.5652 69.0664 56.5592 69.0644C56.3392 68.9944 56.1432 68.9224 55.9722 68.8484C55.8902 68.8134 55.8142 68.7774 55.7412 68.7414C55.5362 68.8434 55.3742 68.9514 55.2732 69.0644H55.1402V69.3644V69.6084V71.6434V71.7354V72.0264L55.1912 72.2684C55.2652 72.4334 55.4912 72.7624 56.1812 73.0804ZM61.5632 70.8644C61.6272 70.8654 61.6892 70.8674 61.7542 70.8674C61.8412 70.8674 61.9262 70.8644 62.0132 70.8644C62.0822 70.8634 62.1512 70.8624 62.2202 70.8614C62.3012 70.8604 62.3832 70.8604 62.4632 70.8584C62.7192 70.8514 62.9692 70.8414 63.2152 70.8284C63.8492 70.7964 64.4482 70.7434 64.9992 70.6724C65.2672 70.6384 65.5222 70.5994 65.7662 70.5574C66.2452 70.4734 66.6722 70.3754 67.0352 70.2664H67.1642V70.6684V71.5754V71.7944C67.0052 71.9144 66.5892 72.1514 65.6642 72.3484C65.4692 72.3904 65.2532 72.4304 65.0102 72.4664C64.5102 72.5414 63.9042 72.6034 63.1682 72.6384C63.1572 72.6394 63.1472 72.6394 63.1362 72.6404C62.9612 72.6484 62.7752 72.6544 62.5842 72.6594C62.5602 72.6604 62.5392 72.6614 62.5142 72.6624L62.1292 72.5014L61.5622 72.2654L61.4722 72.2284L57.2232 70.4574C58.3642 70.7014 59.8832 70.8534 61.5632 70.8644Z" fill="#2988FF"/>
<path fill-rule="evenodd" clip-rule="evenodd" d="M56.1808 68.2705C56.2978 68.3245 56.4328 68.3775 56.5788 68.4295C56.6498 68.4555 56.7248 68.4815 56.8028 68.5055C57.0608 68.5875 57.3608 68.6645 57.7058 68.7345C58.6218 68.9205 59.8678 69.0505 61.5628 69.0595C61.6278 69.0605 61.6868 69.0625 61.7538 69.0625C61.8448 69.0625 61.9248 69.0595 62.0128 69.0595C62.0238 69.0595 62.0338 69.0585 62.0448 69.0585C62.1328 69.0585 62.2178 69.0565 62.3038 69.0545C62.4208 69.0525 62.5448 69.0525 62.6568 69.0505C62.8438 69.0445 63.0168 69.0365 63.1928 69.0275C63.4018 69.0175 63.6058 69.0065 63.7988 68.9925C63.9548 68.9815 64.1098 68.9695 64.2558 68.9555C64.4228 68.9405 64.5788 68.9215 64.7318 68.9035C64.9068 68.8815 65.0758 68.8595 65.2338 68.8345C65.4358 68.8035 65.6258 68.7705 65.8018 68.7345C65.8878 68.7165 65.9728 68.6985 66.0518 68.6805C66.2938 68.6255 66.5108 68.5665 66.7048 68.5055C66.7828 68.4795 66.8578 68.4545 66.9288 68.4295C67.0738 68.3765 67.2098 68.3235 67.3268 68.2695C67.3888 68.2415 67.4408 68.2125 67.4958 68.1845C67.5288 68.1675 67.5668 68.1495 67.5968 68.1325C67.8668 67.9805 68.0368 67.8335 68.1478 67.7065L68.1488 67.7055C68.1658 67.6855 68.1848 67.6655 68.1988 67.6475C68.2568 67.5725 68.2938 67.5075 68.3158 67.4575L68.3188 67.2575L68.3328 66.3445L68.3428 65.7476L68.3518 65.1406L68.3578 64.7986L68.3598 64.6906L68.3608 64.5786C68.3618 64.5706 68.3668 64.5626 68.3668 64.5546C68.3668 64.5516 68.3648 64.5486 68.3648 64.5456C68.3648 64.5436 68.3638 64.5426 68.3638 64.5416C68.3638 64.5386 68.3618 64.5366 68.3618 64.5336L68.3668 64.2546H68.2338C68.2298 64.2496 68.2228 64.2446 68.2178 64.2396C68.1748 64.1936 68.1248 64.1496 68.0648 64.1056C67.9818 64.0456 67.8788 63.9876 67.7648 63.9316C67.6938 63.9676 67.6168 64.0026 67.5348 64.0386C67.5228 64.0436 67.5138 64.0486 67.5018 64.0536C67.3798 64.1046 67.2458 64.1566 67.1008 64.2056C67.0518 64.2226 66.9968 64.2386 66.9458 64.2546C66.9398 64.2566 66.9328 64.2586 66.9268 64.2606C66.7198 64.3256 66.4878 64.3886 66.2328 64.4466C66.0828 64.4816 65.9228 64.5136 65.7548 64.5456C65.7498 64.5466 65.7438 64.5466 65.7388 64.5486C65.2948 64.6306 64.7858 64.6986 64.2048 64.7516C63.7948 64.7886 63.3588 64.8186 62.8728 64.8356C62.6508 64.8426 62.4098 64.8456 62.1708 64.8486C62.1178 64.8486 62.0678 64.8506 62.0138 64.8506H62.0128C61.9238 64.8516 61.8448 64.8546 61.7538 64.8546C61.6868 64.8546 61.6288 64.8516 61.5628 64.8516C59.1598 64.8376 57.5958 64.5806 56.5808 64.2606C56.5748 64.2586 56.5678 64.2566 56.5618 64.2546C56.3418 64.1846 56.1448 64.1126 55.9738 64.0386C55.8918 64.0026 55.8138 63.9666 55.7428 63.9316C55.5368 64.0336 55.3748 64.1416 55.2738 64.2546H55.1408V64.5556V64.7986V66.8345V66.9265V67.2175L55.1918 67.4595C55.2648 67.6245 55.4908 67.9535 56.1808 68.2705ZM61.5628 66.0555C61.6268 66.0555 61.6898 66.0575 61.7538 66.0575C61.8418 66.0575 61.9268 66.0555 62.0128 66.0545C62.1328 66.0535 62.2528 66.0535 62.3708 66.0505C62.4018 66.0505 62.4328 66.0495 62.4638 66.0495C62.7188 66.0425 62.9688 66.0325 63.2158 66.0205C63.5328 66.0035 63.8398 65.9825 64.1378 65.9555C64.1478 65.9545 64.1578 65.9545 64.1678 65.9535C64.7458 65.9015 65.2818 65.8315 65.7668 65.7476C66.2448 65.6646 66.6708 65.5666 67.0338 65.4576H67.1638V65.7476V66.3095V66.9855C67.1158 67.0215 67.0408 67.0695 66.9388 67.1225C66.7948 67.1985 66.5898 67.2865 66.3018 67.3755C65.9828 67.4745 65.5608 67.5735 65.0108 67.6565C64.8018 67.6885 64.5748 67.7165 64.3278 67.7425C64.2548 67.7505 64.1808 67.7575 64.1038 67.7645C63.6998 67.8015 63.2428 67.8285 62.7338 67.8445C62.6598 67.8475 62.5898 67.8505 62.5128 67.8525L62.4638 67.8315L62.0438 67.6565L62.0128 67.6435L61.5628 67.4555L61.4708 67.4175L57.2238 65.6486C58.3638 65.8915 59.8838 66.0445 61.5628 66.0555Z" fill="#2988FF"/>
<path fill-rule="evenodd" clip-rule="evenodd" d="M56.1812 63.4617C56.2982 63.5157 56.4332 63.5687 56.5782 63.6207C56.6502 63.6467 56.7242 63.6727 56.8032 63.6967C57.0612 63.7787 57.3612 63.8557 57.7062 63.9257C58.6582 64.1187 59.9572 64.2547 61.7532 64.2547C61.8912 64.2547 62.0142 64.2507 62.1462 64.2487C62.2882 64.2477 62.4322 64.2457 62.5682 64.2427C62.5962 64.2417 62.6282 64.2427 62.6562 64.2417C62.7942 64.2377 62.9212 64.2307 63.0532 64.2257C63.3132 64.2147 63.5632 64.2007 63.7982 64.1837C63.9552 64.1727 64.1092 64.1607 64.2542 64.1467C64.6122 64.1137 64.9352 64.0717 65.2322 64.0267C65.4342 63.9947 65.6242 63.9617 65.8002 63.9257C65.8872 63.9077 65.9712 63.8897 66.0522 63.8717C66.2932 63.8167 66.5102 63.7577 66.7032 63.6967C66.7822 63.6707 66.8572 63.6457 66.9282 63.6207C67.0732 63.5677 67.2082 63.5147 67.3252 63.4607C67.3912 63.4307 67.4462 63.4007 67.5032 63.3707C67.5072 63.3687 67.5112 63.3667 67.5152 63.3647C67.5412 63.3517 67.5712 63.3377 67.5952 63.3237C67.8602 63.1747 68.0302 63.0287 68.1422 62.9037C68.1622 62.8807 68.1812 62.8587 68.1982 62.8377C68.2562 62.7627 68.2932 62.6977 68.3152 62.6477L68.3322 61.5347L68.3422 60.9367L68.3512 60.3317L68.3572 59.9887L68.3592 59.8807L68.3602 59.7697C68.3612 59.7617 68.3662 59.7537 68.3662 59.7457C68.3662 59.7417 68.3632 59.7387 68.3632 59.7357C68.3632 59.7337 68.3632 59.7327 68.3632 59.7317C68.3632 59.7287 68.3612 59.7277 68.3612 59.7247L68.3652 59.4457H68.2332C68.2292 59.4407 68.2222 59.4357 68.2172 59.4307C68.1742 59.3847 68.1252 59.3397 68.0642 59.2957C67.9822 59.2367 67.8782 59.1787 67.7652 59.1227C67.6932 59.1587 67.6162 59.1937 67.5342 59.2297C67.5232 59.2347 67.5142 59.2397 67.5022 59.2437C67.3802 59.2957 67.2462 59.3477 67.1002 59.3977C67.0522 59.4147 66.9972 59.4297 66.9462 59.4457C66.9392 59.4477 66.9332 59.4497 66.9262 59.4517C66.7202 59.5167 66.4902 59.5787 66.2362 59.6377C66.0862 59.6717 65.9282 59.7047 65.7612 59.7357C65.7542 59.7367 65.7462 59.7377 65.7392 59.7397C65.2962 59.8217 64.7872 59.8907 64.2062 59.9427C63.7962 59.9797 63.3592 60.0097 62.8732 60.0267C62.6512 60.0347 62.4092 60.0367 62.1702 60.0397C62.1182 60.0407 62.0682 60.0417 62.0142 60.0417H62.0132C61.9242 60.0427 61.8452 60.0457 61.7542 60.0457C61.6872 60.0457 61.6292 60.0437 61.5632 60.0427C59.1592 60.0297 57.5962 59.7727 56.5812 59.4517C56.5752 59.4497 56.5682 59.4477 56.5612 59.4457C56.3412 59.3757 56.1442 59.3037 55.9732 59.2297C55.8912 59.1937 55.8142 59.1587 55.7422 59.1227C55.5362 59.2247 55.3752 59.3327 55.2742 59.4457H55.1422V59.7457V59.9897V62.0247V62.1177V62.4077L55.1922 62.6497C55.2652 62.8147 55.4912 63.1437 56.1812 63.4617ZM61.5632 61.2467C61.6272 61.2467 61.6892 61.2487 61.7542 61.2487C61.8412 61.2487 61.9262 61.2467 62.0132 61.2457C62.1332 61.2447 62.2532 61.2437 62.3712 61.2417C62.4022 61.2407 62.4322 61.2407 62.4632 61.2397C62.7192 61.2337 62.9692 61.2237 63.2152 61.2107C63.5322 61.1947 63.8392 61.1727 64.1382 61.1467C64.1482 61.1457 64.1582 61.1447 64.1682 61.1437C64.7472 61.0927 65.2842 61.0227 65.7702 60.9377C66.2472 60.8547 66.6712 60.7577 67.0332 60.6487H67.1642V60.9377V61.5007V62.1757C67.1162 62.2117 67.0412 62.2597 66.9392 62.3137C66.6352 62.4737 66.0562 62.6897 65.0102 62.8477C64.8022 62.8787 64.5742 62.9077 64.3272 62.9327C63.8692 62.9807 63.3402 63.0167 62.7342 63.0357C62.6602 63.0377 62.5902 63.0407 62.5142 63.0427L62.4642 63.0217L62.0442 62.8467L62.0132 62.8337L61.5632 62.6457L61.4722 62.6077L57.2232 60.8387C58.3632 61.0827 59.8832 61.2357 61.5632 61.2467Z" fill="#2988FF"/>
<path fill-rule="evenodd" clip-rule="evenodd" d="M56.1812 58.6527C56.2982 58.7067 56.4332 58.7597 56.5782 58.8117C56.6492 58.8377 56.7242 58.8627 56.8032 58.8877C57.0602 58.9697 57.3612 59.0467 57.7062 59.1167C58.6572 59.3097 59.9572 59.4457 61.7542 59.4457C61.8912 59.4457 62.0132 59.4417 62.1452 59.4397C62.2872 59.4387 62.4322 59.4377 62.5682 59.4337C62.5972 59.4337 62.6292 59.4337 62.6582 59.4327C62.7962 59.4287 62.9222 59.4217 63.0532 59.4167C63.3142 59.4057 63.5642 59.3917 63.8002 59.3747C63.9572 59.3637 64.1122 59.3517 64.2582 59.3387C64.6142 59.3047 64.9372 59.2637 65.2332 59.2177C65.4352 59.1857 65.6252 59.1527 65.8022 59.1167C65.8882 59.0987 65.9732 59.0807 66.0542 59.0627C66.2952 59.0077 66.5122 58.9487 66.7052 58.8877C66.7842 58.8627 66.8582 58.8367 66.9292 58.8117C67.0752 58.7597 67.2092 58.7057 67.3262 58.6517C67.3922 58.6217 67.4482 58.5917 67.5052 58.5617C67.5092 58.5597 67.5132 58.5577 67.5172 58.5557C67.5432 58.5417 67.5742 58.5277 67.5982 58.5147C67.8632 58.3647 68.0322 58.2187 68.1442 58.0937C68.1632 58.0717 68.1832 58.0497 68.1992 58.0287C68.2572 57.9547 68.2942 57.8887 68.3162 57.8387L68.3342 56.7257L68.3432 56.1287L68.3532 55.5217L68.3582 55.1797L68.3602 55.0717L68.3622 54.9607C68.3622 54.9527 68.3672 54.9447 68.3672 54.9367C68.3672 54.9327 68.3652 54.9297 68.3652 54.9257C68.3652 54.9247 68.3642 54.9237 68.3632 54.9227C68.3632 54.9207 68.3622 54.9177 68.3622 54.9157L68.3662 54.6357H68.2342C68.2292 54.6307 68.2222 54.6257 68.2172 54.6207C68.1742 54.5757 68.1252 54.5307 68.0652 54.4867C67.9822 54.4267 67.8792 54.3697 67.7652 54.3127C67.6942 54.3487 67.6172 54.3847 67.5352 54.4197C67.5232 54.4247 67.5142 54.4297 67.5032 54.4347C67.3812 54.4867 67.2472 54.5377 67.1022 54.5877C67.0542 54.6037 66.9992 54.6197 66.9492 54.6357C66.9422 54.6377 66.9342 54.6407 66.9272 54.6427C66.7212 54.7077 66.4902 54.7697 66.2362 54.8287C66.0862 54.8627 65.9272 54.8957 65.7602 54.9267C65.7542 54.9277 65.7472 54.9287 65.7402 54.9307C65.2972 55.0127 64.7882 55.0817 64.2082 55.1337C63.7972 55.1707 63.3602 55.2007 62.8722 55.2177C62.6502 55.2257 62.4092 55.2277 62.1702 55.2307C62.1182 55.2317 62.0682 55.2327 62.0142 55.2327H62.0132C61.9242 55.2337 61.8452 55.2377 61.7542 55.2377C61.6862 55.2377 61.6282 55.2347 61.5622 55.2337C59.1592 55.2207 57.5952 54.9627 56.5812 54.6427C56.5742 54.6407 56.5662 54.6377 56.5592 54.6357C56.3402 54.5667 56.1432 54.4937 55.9732 54.4207C55.8912 54.3847 55.8142 54.3487 55.7422 54.3137C55.5362 54.4157 55.3752 54.5237 55.2742 54.6357H55.1412V54.9367V55.1807V57.2157V57.3087V57.5987L55.1922 57.8407C55.2652 58.0057 55.4912 58.3347 56.1812 58.6527ZM61.5632 56.4377C61.6272 56.4377 61.6892 56.4397 61.7542 56.4397C61.8412 56.4397 61.9262 56.4377 62.0132 56.4367C62.1332 56.4357 62.2532 56.4347 62.3712 56.4327C62.4022 56.4317 62.4322 56.4317 62.4632 56.4307C62.7192 56.4247 62.9692 56.4147 63.2152 56.4017C63.5322 56.3857 63.8392 56.3637 64.1372 56.3377C64.1472 56.3367 64.1582 56.3357 64.1682 56.3347C64.7462 56.2837 65.2832 56.2137 65.7682 56.1297C66.2472 56.0457 66.6722 55.9487 67.0352 55.8387H67.1642V56.1297V56.6917V57.3677C67.1152 57.4037 67.0412 57.4517 66.9392 57.5047C66.6352 57.6647 66.0562 57.8817 65.0102 58.0397C64.8022 58.0707 64.5752 58.0987 64.3282 58.1247C63.8702 58.1727 63.3412 58.2087 62.7342 58.2277C62.6612 58.2297 62.5912 58.2327 62.5152 58.2347L62.4642 58.2137L62.0442 58.0387L62.0132 58.0257L61.5632 57.8377L61.4732 57.8007L57.2242 56.0297C58.3642 56.2737 59.8832 56.4267 61.5632 56.4377Z" fill="#2988FF"/>
<path fill-rule="evenodd" clip-rule="evenodd" d="M56.1808 53.8436C56.2978 53.8976 56.4328 53.9506 56.5788 54.0026C56.6498 54.0286 56.7248 54.0536 56.8028 54.0786C57.0608 54.1606 57.3608 54.2376 57.7058 54.3076C58.6578 54.5006 59.9578 54.6366 61.7538 54.6366C61.8918 54.6366 62.0148 54.6326 62.1468 54.6306C62.2888 54.6286 62.4338 54.6276 62.5698 54.6246C62.5978 54.6236 62.6288 54.6246 62.6568 54.6236C62.7958 54.6196 62.9228 54.6126 63.0548 54.6066C63.3138 54.5966 63.5638 54.5826 63.7988 54.5656C63.9548 54.5546 64.1098 54.5426 64.2558 54.5296C64.6128 54.4956 64.9358 54.4546 65.2338 54.4086C65.4358 54.3766 65.6248 54.3436 65.8018 54.3076C65.8878 54.2906 65.9718 54.2726 66.0518 54.2536C66.2938 54.1986 66.5108 54.1406 66.7048 54.0786C66.7827 54.0536 66.8577 54.0286 66.9287 54.0026C67.0737 53.9506 67.2097 53.8976 67.3267 53.8436C67.3917 53.8136 67.4477 53.7836 67.5047 53.7526C67.5087 53.7506 67.5127 53.7486 67.5167 53.7466C67.5427 53.7336 67.5727 53.7196 67.5967 53.7056C67.8627 53.5556 68.0317 53.4106 68.1427 53.2856C68.1627 53.2626 68.1817 53.2406 68.1987 53.2206C68.2557 53.1456 68.2937 53.0806 68.3147 53.0306L68.3327 51.9176L68.3427 51.3206L68.3517 50.7136L68.3577 50.3716L68.3587 50.2636L68.3607 50.1516C68.3617 50.1436 68.3657 50.1356 68.3657 50.1276C68.3657 50.1246 68.3637 50.1216 68.3637 50.1186C68.3637 50.1166 68.3637 50.1156 68.3637 50.1146C68.3637 50.1116 68.3617 50.1096 68.3617 50.1076L68.3657 49.8276H68.2337C68.2287 49.8226 68.2227 49.8176 68.2177 49.8126C68.1747 49.7666 68.1247 49.7226 68.0647 49.6786C67.9817 49.6186 67.8787 49.5616 67.7647 49.5046C67.6937 49.5406 67.6167 49.5756 67.5347 49.6116C67.5227 49.6166 67.5137 49.6216 67.5017 49.6266C67.3797 49.6786 67.2457 49.7296 67.1007 49.7796C67.0517 49.7956 66.9967 49.8116 66.9457 49.8276C66.9397 49.8296 66.9327 49.8316 66.9267 49.8336C66.7198 49.8996 66.4878 49.9616 66.2328 50.0206C66.0828 50.0546 65.9228 50.0866 65.7548 50.1186C65.7498 50.1196 65.7438 50.1206 65.7388 50.1216C65.2948 50.2036 64.7858 50.2726 64.2058 50.3246C63.7958 50.3616 63.3598 50.3916 62.8738 50.4086C62.6518 50.4166 62.4098 50.4186 62.1708 50.4216C62.1178 50.4226 62.0688 50.4236 62.0148 50.4246H62.0128C61.9248 50.4246 61.8448 50.4286 61.7538 50.4286C61.6868 50.4286 61.6288 50.4256 61.5628 50.4246C59.1598 50.4116 57.5968 50.1546 56.5818 49.8336C56.5748 49.8316 56.5678 49.8296 56.5618 49.8276C56.3418 49.7586 56.1448 49.6856 55.9738 49.6116C55.8918 49.5766 55.8148 49.5406 55.7428 49.5046C55.5368 49.6076 55.3748 49.7156 55.2748 49.8286H55.1418V50.1286V50.3726V52.4076V52.4996V52.7906L55.1928 53.0326C55.2648 53.1976 55.4908 53.5266 56.1808 53.8436ZM61.5628 51.6287C61.6268 51.6287 61.6898 51.6307 61.7538 51.6307C61.8418 51.6307 61.9268 51.6287 62.0128 51.6277C62.1328 51.6267 62.2528 51.6257 62.3708 51.6237C62.4018 51.6227 62.4328 51.6227 62.4638 51.6217C62.7188 51.6157 62.9688 51.6057 63.2158 51.5927C63.5328 51.5767 63.8398 51.5547 64.1378 51.5287C64.1478 51.5277 64.1578 51.5267 64.1688 51.5257C64.7458 51.4747 65.2818 51.4047 65.7658 51.3207C66.2448 51.2367 66.6708 51.1397 67.0337 51.0297H67.1637V51.3207V51.8827V52.5587C67.1157 52.5947 67.0407 52.6427 66.9387 52.6957C66.6347 52.8557 66.0568 53.0727 65.0108 53.2297C64.8018 53.2617 64.5748 53.2897 64.3278 53.3157C63.8698 53.3627 63.3398 53.3987 62.7338 53.4177C62.6598 53.4197 62.5898 53.4227 62.5128 53.4247L62.4638 53.4047L62.0438 53.2297L62.0128 53.2167L61.5628 53.0287L61.4708 52.9907L57.2238 51.2207C58.3638 51.4647 59.8838 51.6177 61.5628 51.6287Z" fill="#2988FF"/>
<path fill-rule="evenodd" clip-rule="evenodd" d="M56.1815 49.0162C56.2985 49.0702 56.4335 49.1232 56.5795 49.1752C56.6505 49.2012 56.7255 49.2262 56.8035 49.2512C57.0615 49.3332 57.3615 49.4102 57.7065 49.4802C58.6585 49.6732 59.9585 49.8092 61.7545 49.8092C61.8915 49.8092 62.0145 49.8052 62.1465 49.8032C62.2895 49.8022 62.4335 49.8012 62.5695 49.7972C62.5975 49.7972 62.6295 49.7972 62.6565 49.7962C62.7955 49.7922 62.9225 49.7852 63.0545 49.7802C63.3145 49.7692 63.5635 49.7552 63.7985 49.7392C63.9555 49.7272 64.1105 49.7162 64.2565 49.7022C64.6135 49.6682 64.9365 49.6272 65.2335 49.5812C65.4355 49.5502 65.6255 49.5162 65.8015 49.4802C65.8875 49.4632 65.9725 49.4452 66.0525 49.4272C66.2935 49.3722 66.5115 49.3132 66.7045 49.2512C66.7835 49.2262 66.8575 49.2012 66.9285 49.1752C67.0745 49.1232 67.2095 49.0702 67.3265 49.0162C67.3915 48.9862 67.4475 48.9562 67.5045 48.9262C67.5085 48.9242 67.5125 48.9222 67.5165 48.9202C67.5425 48.9062 67.5725 48.8932 67.5965 48.8792C67.8625 48.7302 68.0315 48.5842 68.1435 48.4582C68.1625 48.4362 68.1825 48.4142 68.1995 48.3932C68.2575 48.3182 68.2945 48.2532 68.3165 48.2032L68.3345 47.0912L68.3435 46.4932L68.3535 45.8872L68.3585 45.5452L68.3605 45.4372L68.3625 45.3252C68.3625 45.3172 68.3675 45.3092 68.3675 45.3012C68.3675 45.2982 68.3655 45.2942 68.3655 45.2912C68.3655 45.2912 68.3645 45.2892 68.3645 45.2882C68.3645 45.2852 68.3625 45.2832 68.3625 45.2802L68.3675 45.0012H68.2345C68.2305 44.9962 68.2235 44.9912 68.2185 44.9862C68.1755 44.9402 68.1265 44.8952 68.0655 44.8512C67.9835 44.7922 67.8795 44.7342 67.7665 44.6782C67.6945 44.7142 67.6175 44.7492 67.5355 44.7852C67.5245 44.7902 67.5145 44.7942 67.5035 44.7992C67.3815 44.8512 67.2475 44.9022 67.1015 44.9522C67.0535 44.9692 66.9985 44.9842 66.9465 45.0012C66.9405 45.0032 66.9335 45.0052 66.9275 45.0072C66.7205 45.0722 66.4885 45.1342 66.2335 45.1932C66.0855 45.2272 65.9275 45.2592 65.7615 45.2902C65.7545 45.2922 65.7465 45.2932 65.7395 45.2942C65.2955 45.3762 64.7865 45.4452 64.2065 45.4972C63.7965 45.5342 63.3605 45.5642 62.8745 45.5812C62.6525 45.5892 62.4105 45.5912 62.1715 45.5942C62.1185 45.5952 62.0685 45.5972 62.0155 45.5972H62.0145C61.9255 45.5982 61.8455 45.6012 61.7545 45.6012C61.6875 45.6012 61.6295 45.5982 61.5635 45.5982C59.1605 45.5842 57.5975 45.3272 56.5825 45.0072C56.5755 45.0052 56.5685 45.0032 56.5625 45.0012C56.3425 44.9312 56.1455 44.8582 55.9745 44.7852C55.8925 44.7492 55.8145 44.7132 55.7435 44.6782C55.5375 44.7802 55.3755 44.8882 55.2745 45.0012H55.1425V45.3012V45.5452V47.5802V47.6732V47.9622L55.1925 48.2042C55.2645 48.3692 55.4915 48.6982 56.1815 49.0162ZM61.5625 46.8012C61.6275 46.8012 61.6895 46.8032 61.7545 46.8032C61.8415 46.8032 61.9265 46.8012 62.0135 46.8002C62.1335 46.7992 62.2535 46.7992 62.3715 46.7962C62.4015 46.7962 62.4325 46.7952 62.4635 46.7952C62.7195 46.7882 62.9695 46.7782 63.2155 46.7662C63.5325 46.7492 63.8395 46.7282 64.1375 46.7012C64.1475 46.7002 64.1585 46.7002 64.1675 46.6992C64.7475 46.6472 65.2855 46.5772 65.7715 46.4922C66.2485 46.4092 66.6715 46.3122 67.0335 46.2032H67.1635V46.4922V47.0562V47.7302C67.1155 47.7672 67.0405 47.8152 66.9385 47.8682C66.6345 48.0282 66.0565 48.2452 65.0095 48.4022C64.8015 48.4342 64.5745 48.4622 64.3265 48.4882C63.8695 48.5352 63.3395 48.5712 62.7335 48.5902C62.6595 48.5922 62.5895 48.5952 62.5135 48.5972L62.4635 48.5772L62.0445 48.4022L62.0135 48.3892L61.5625 48.2012L61.4715 48.1632L57.2245 46.3932C58.3645 46.6372 59.8835 46.7902 61.5625 46.8012Z" fill="#2988FF"/>
<path fill-rule="evenodd" clip-rule="evenodd" d="M56.1812 44.2076C56.2982 44.2616 56.4332 44.3146 56.5782 44.3666C56.6502 44.3926 56.7242 44.4186 56.8032 44.4426C57.0612 44.5246 57.3612 44.6016 57.7062 44.6716C58.6582 44.8646 59.9582 45.0006 61.7542 45.0006C61.8912 45.0006 62.0142 44.9966 62.1462 44.9946C62.2882 44.9936 62.4332 44.9926 62.5682 44.9886C62.5962 44.9886 62.6282 44.9886 62.6562 44.9876C62.7952 44.9836 62.9212 44.9766 63.0532 44.9716C63.3132 44.9606 63.5632 44.9466 63.7992 44.9296C63.9552 44.9186 64.1102 44.9066 64.2552 44.8936C64.6122 44.8596 64.9352 44.8186 65.2332 44.7726C65.4352 44.7406 65.6242 44.7076 65.8012 44.6716C65.8872 44.6536 65.9722 44.6356 66.0522 44.6176C66.2932 44.5626 66.5112 44.5036 66.7042 44.4426C66.7832 44.4176 66.8572 44.3916 66.9282 44.3666C67.0742 44.3146 67.2092 44.2606 67.3262 44.2066C67.3912 44.1766 67.4472 44.1466 67.5042 44.1166C67.5082 44.1146 67.5122 44.1126 67.5162 44.1106C67.5412 44.0966 67.5712 44.0836 67.5952 44.0696C67.8602 43.9206 68.0302 43.7746 68.1422 43.6496C68.1622 43.6266 68.1812 43.6046 68.1982 43.5836C68.2562 43.5086 68.2932 43.4436 68.3152 43.3936L68.3322 42.2806L68.3422 41.6826L68.3512 41.0766L68.3572 40.7346L68.3592 40.6266L68.3602 40.5146C68.3612 40.5066 68.3662 40.4986 68.3662 40.4906C68.3662 40.4876 68.3632 40.4846 68.3632 40.4806C68.3632 40.4796 68.3632 40.4776 68.3632 40.4776C68.3632 40.4746 68.3612 40.4726 68.3612 40.4696L68.3652 40.1896H68.2332C68.2282 40.1846 68.2212 40.1796 68.2162 40.1746C68.1742 40.1296 68.1242 40.0846 68.0642 40.0406C67.9282 39.9426 67.7482 39.8496 67.5312 39.7606C67.2032 39.6266 66.7852 39.5056 66.2982 39.4016C66.2702 39.3946 66.2402 39.3896 66.2102 39.3836C65.8082 39.2996 65.3642 39.2256 64.8802 39.1666C64.2342 39.0876 63.5212 39.0336 62.7692 39.0076C62.6732 39.0046 62.5792 39.0006 62.4832 38.9976C62.3662 38.9946 62.2472 38.9936 62.1292 38.9926C62.0902 38.9916 62.0512 38.9916 62.0122 38.9906C61.9262 38.9896 61.8412 38.9876 61.7532 38.9876C61.6892 38.9876 61.6262 38.9896 61.5622 38.9896C58.4492 39.0106 55.8742 39.5176 55.2742 40.1896H55.1412V40.4906V40.7346V42.7696V42.8626V43.1526L55.1912 43.3946C55.2652 43.5606 55.4912 43.8896 56.1812 44.2076ZM67.1642 42.2466V42.9216C67.1152 42.9576 67.0412 43.0056 66.9392 43.0596C66.6342 43.2196 66.0562 43.4356 65.0102 43.5936C64.8012 43.6246 64.5742 43.6536 64.3272 43.6796C63.8692 43.7266 63.3402 43.7626 62.7342 43.7816C62.6602 43.7836 62.5902 43.7866 62.5142 43.7886L62.4632 43.7676L62.0442 43.5926L62.0132 43.5796L61.5622 43.3916L61.4722 43.3546L57.2232 41.5836C58.3632 41.8286 59.8832 41.9806 61.5622 41.9916C61.6262 41.9926 61.6892 41.9946 61.7532 41.9946C61.8412 41.9946 61.9262 41.9916 62.0122 41.9916C62.1322 41.9906 62.2522 41.9896 62.3702 41.9876C62.4012 41.9866 62.4322 41.9866 62.4632 41.9856C62.7182 41.9796 62.9682 41.9696 63.2152 41.9566C63.5322 41.9396 63.8392 41.9186 64.1372 41.8926C64.1472 41.8916 64.1572 41.8906 64.1672 41.8896C64.7462 41.8376 65.2832 41.7676 65.7692 41.6836C66.2472 41.6006 66.6722 41.5026 67.0352 41.3936H67.1632V41.6836V42.2466H67.1642Z" fill="#2988FF"/>
<path fill-rule="evenodd" clip-rule="evenodd" d="M13.2788 42.0684C13.2788 41.4305 13.7959 40.9134 14.4338 40.9134H18.2218C18.8597 40.9134 19.3768 41.4305 19.3768 42.0684V48.9293C19.3768 49.5672 18.8597 50.0843 18.2218 50.0843H14.4338C13.7959 50.0843 13.2788 49.5672 13.2788 48.9293V42.0684ZM15.5888 43.2234V47.7743H17.0668V43.2234H15.5888Z" fill="#2988FF"/>
<path fill-rule="evenodd" clip-rule="evenodd" d="M35.5301 42.0684C35.5301 41.4305 36.0472 40.9134 36.6851 40.9134H40.4731C41.111 40.9134 41.6281 41.4305 41.6281 42.0684V48.9293C41.6281 49.5672 41.111 50.0843 40.4731 50.0843H36.6851C36.0472 50.0843 35.5301 49.5672 35.5301 48.9293V42.0684ZM37.8401 43.2234V47.7743H39.3181V43.2234H37.8401Z" fill="#2988FF"/>
<path fill-rule="evenodd" clip-rule="evenodd" d="M24.4045 42.0684C24.4045 41.4305 24.9216 40.9134 25.5595 40.9134H29.3475C29.9853 40.9134 30.5024 41.4305 30.5024 42.0684V48.9293C30.5024 49.5672 29.9853 50.0843 29.3475 50.0843H25.5595C24.9216 50.0843 24.4045 49.5672 24.4045 48.9293V42.0684ZM26.7145 43.2234V47.7743H28.1925V43.2234H26.7145Z" fill="#2988FF"/>
<path fill-rule="evenodd" clip-rule="evenodd" d="M5.01948 27.0053C5.01948 25.8817 5.93035 24.9708 7.05396 24.9708H47.8538C48.9774 24.9708 49.8882 25.8817 49.8882 27.0053V78.0053C49.8882 79.1289 48.9774 80.0398 47.8538 80.0398H7.05396C5.93035 80.0398 5.01948 79.1289 5.01948 78.0053V27.0053ZM9.08845 29.0398V75.9708H45.8193V29.0398H9.08845Z" fill="#1C3553"/>
<path fill-rule="evenodd" clip-rule="evenodd" d="M17.3578 57.2615V62.3214H15.2978V57.2615H17.3578ZM17.8278 55.7915C18.3801 55.7915 18.8278 56.2392 18.8278 56.7915V62.7914C18.8278 63.3437 18.3801 63.7914 17.8278 63.7914H14.8278C14.2755 63.7914 13.8278 63.3437 13.8278 62.7914V56.7915C13.8278 56.2392 14.2755 55.7915 14.8278 55.7915H17.8278Z" fill="#1C3553"/>
<path fill-rule="evenodd" clip-rule="evenodd" d="M28.3577 57.2615V62.3214H26.2977V57.2615H28.3577ZM28.8277 55.7915C29.38 55.7915 29.8277 56.2392 29.8277 56.7915V62.7914C29.8277 63.3437 29.38 63.7914 28.8277 63.7914H25.8277C25.2755 63.7914 24.8278 63.3437 24.8278 62.7914V56.7915C24.8278 56.2392 25.2755 55.7915 25.8277 55.7915H28.8277Z" fill="#1C3553"/>
<path fill-rule="evenodd" clip-rule="evenodd" d="M39.3577 57.2615V62.3214H37.2977V57.2615H39.3577ZM39.8277 55.7915C40.38 55.7915 40.8277 56.2392 40.8277 56.7915V62.7914C40.8277 63.3437 40.38 63.7914 39.8277 63.7914H36.8277C36.2754 63.7914 35.8277 63.3437 35.8277 62.7914V56.7915C35.8277 56.2392 36.2754 55.7915 36.8277 55.7915H39.8277Z" fill="#1C3553"/>
<path fill-rule="evenodd" clip-rule="evenodd" d="M49.9074 21.6716C49.9074 20.9636 49.3554 20.3887 48.6734 20.3887H19.8815C19.9145 19.2397 19.9215 18.0897 19.8855 16.9397C19.8715 16.5007 19.3805 16.1707 18.7065 16.0497C18.7005 16.0487 18.6965 16.0487 18.6895 16.0477C18.6375 16.0387 18.5855 16.0297 18.5315 16.0247C18.5285 16.0237 18.5255 16.0237 18.5225 16.0227C18.4645 16.0167 18.4075 16.0117 18.3475 16.0067H18.3415C18.2875 16.0037 18.2325 16.0017 18.1775 16.0017C18.1695 16.0007 18.1615 16.0007 18.1525 15.9997C18.1415 15.9997 18.1325 16.0007 18.1215 16.0007C18.1055 16.0007 18.0885 15.9997 18.0695 15.9997C18.0555 16.0007 18.0435 16.0017 18.0295 16.0027C17.0615 16.0227 16.3675 16.4287 16.3415 17.0337C16.3155 17.6337 16.3355 18.2357 16.3355 18.8367C16.3355 19.3547 16.3295 19.8717 16.3365 20.3887H14.4775C14.5105 19.2397 14.5175 18.0897 14.4815 16.9397C14.4675 16.5007 13.9765 16.1707 13.3025 16.0497C13.2965 16.0487 13.2915 16.0487 13.2855 16.0477C13.2335 16.0387 13.1815 16.0297 13.1275 16.0247C13.1245 16.0237 13.1215 16.0237 13.1185 16.0227C13.0605 16.0167 13.0035 16.0117 12.9435 16.0067H12.9375C12.8835 16.0037 12.8285 16.0017 12.7735 16.0017C12.7655 16.0007 12.7575 16.0007 12.7485 15.9997C12.7375 15.9997 12.7285 16.0007 12.7175 16.0007C12.7005 16.0007 12.6835 15.9997 12.6655 15.9997C12.6515 16.0007 12.6395 16.0017 12.6255 16.0027C11.6575 16.0227 10.9635 16.4287 10.9375 17.0337C10.9115 17.6337 10.9315 18.2357 10.9315 18.8367C10.9315 19.3547 10.9255 19.8717 10.9325 20.3887H6.23357C5.55258 20.3887 4.99958 20.9636 4.99958 21.6716C4.99958 22.3796 5.55258 22.9546 6.23357 22.9546H48.6734C49.3554 22.9546 49.9074 22.3796 49.9074 21.6716Z" fill="#1C3553"/>
</svg>
