<svg width="96" height="96" viewBox="0 0 96 96" fill="none" xmlns="http://www.w3.org/2000/svg">
<path fill-rule="evenodd" clip-rule="evenodd" d="M28.7979 77.96H68.9078V60.9601H28.7979V77.96Z" fill="#2988FF"/>
<path fill-rule="evenodd" clip-rule="evenodd" d="M26.0499 27.965C26.0499 26.8605 26.9453 25.965 28.0499 25.965H68.8498C69.9544 25.965 70.8498 26.8605 70.8498 27.965V78.965C70.8498 80.0696 69.9544 80.965 68.8498 80.965H28.0499C26.9453 80.965 26.0499 80.0696 26.0499 78.965V27.965ZM30.0499 29.965V76.965H66.8498V29.965H30.0499Z" fill="#1C3553"/>
<path d="M46.7103 48.7987H50.5102C50.9102 48.7987 51.2102 48.4987 51.2102 48.0987V41.1987C51.2102 40.7987 50.9102 40.4987 50.5102 40.4987H46.7103C46.3103 40.4987 46.0103 40.7987 46.0103 41.1987V48.0987C46.0103 48.4987 46.3103 48.7987 46.7103 48.7987ZM47.4103 41.8987H49.7103V47.2987H47.4103V41.8987Z" fill="#1C3553"/>
<path d="M58.2602 48.7987H62.0602C62.4602 48.7987 62.7602 48.4987 62.7602 48.0987V41.1987C62.7602 40.7987 62.4602 40.4987 62.0602 40.4987H58.2602C57.8602 40.4987 57.5602 40.7987 57.5602 41.1987V48.0987C57.5602 48.4987 57.8602 48.7987 58.2602 48.7987ZM58.9602 41.8987H61.2602V47.2987H58.9602V41.8987Z" fill="#1C3553"/>
<path d="M35.1603 48.7987H38.9603C39.3603 48.7987 39.6603 48.4987 39.6603 48.0987V41.1987C39.6603 40.7987 39.3603 40.4987 38.9603 40.4987H35.1603C34.7603 40.4987 34.4603 40.7987 34.4603 41.1987V48.0987C34.3603 48.4987 34.7603 48.7987 35.1603 48.7987ZM35.8603 41.8987H38.1603V47.2987H35.8603V41.8987Z" fill="#1C3553"/>
<path fill-rule="evenodd" clip-rule="evenodd" d="M70.9074 22.6317C70.9074 21.9237 70.3554 21.3487 69.6734 21.3487H40.8815C40.9145 20.1997 40.9215 19.0497 40.8855 17.8997C40.8715 17.4607 40.3805 17.1307 39.7065 17.0097C39.7005 17.0087 39.6965 17.0087 39.6895 17.0077C39.6375 16.9987 39.5855 16.9897 39.5315 16.9847C39.5285 16.9837 39.5255 16.9837 39.5225 16.9827C39.4645 16.9767 39.4075 16.9717 39.3475 16.9677H39.3415C39.2875 16.9637 39.2325 16.9617 39.1775 16.9617C39.1695 16.9607 39.1615 16.9607 39.1525 16.9597C39.1415 16.9597 39.1325 16.9607 39.1215 16.9607C39.1055 16.9607 39.0885 16.9597 39.0695 16.9597C39.0555 16.9607 39.0435 16.9617 39.0295 16.9627C38.0615 16.9827 37.3675 17.3887 37.3415 17.9937C37.3155 18.5937 37.3355 19.1957 37.3355 19.7967C37.3355 20.3147 37.3295 20.8317 37.3365 21.3487H35.4775C35.5105 20.1997 35.5175 19.0497 35.4815 17.8997C35.4675 17.4607 34.9765 17.1307 34.3025 17.0097C34.2965 17.0087 34.2915 17.0087 34.2855 17.0077C34.2335 16.9987 34.1815 16.9897 34.1275 16.9847C34.1245 16.9837 34.1215 16.9837 34.1185 16.9827C34.0605 16.9767 34.0035 16.9717 33.9435 16.9677H33.9375C33.8835 16.9637 33.8285 16.9617 33.7735 16.9617C33.7655 16.9607 33.7575 16.9607 33.7485 16.9597C33.7375 16.9597 33.7285 16.9607 33.7175 16.9607C33.7005 16.9607 33.6835 16.9597 33.6655 16.9597C33.6515 16.9607 33.6395 16.9617 33.6255 16.9627C32.6575 16.9827 31.9635 17.3887 31.9375 17.9937C31.9115 18.5937 31.9315 19.1957 31.9315 19.7967C31.9315 20.3147 31.9255 20.8317 31.9325 21.3487H27.2335C26.5525 21.3487 25.9995 21.9237 25.9995 22.6317C25.9995 23.3397 26.5525 23.9147 27.2335 23.9147H69.6734C70.3554 23.9147 70.9074 23.3397 70.9074 22.6317Z" fill="#1C3553"/>
</svg>
