<svg width="96" height="96" viewBox="0 0 96 96" fill="none" xmlns="http://www.w3.org/2000/svg">
<path fill-rule="evenodd" clip-rule="evenodd" d="M77.8329 71.7183L77.8159 71.6283V71.2423V71.0153C77.1829 71.0673 76.4719 71.1003 75.6479 71.1003C72.8209 71.1003 71.1929 70.7473 70.2559 70.3573C70.0829 70.2853 69.9399 70.2133 69.8109 70.1403C69.7909 70.1293 69.7709 70.1183 69.7529 70.1073C69.7079 70.0813 69.6629 70.0543 69.6229 70.0283C69.5919 70.0543 69.5579 70.0803 69.5339 70.1073H69.4079V72.9033V72.9053L69.4559 73.1313C69.6109 73.4863 70.5189 74.6463 75.6479 74.6463C76.4799 74.6463 77.1909 74.6133 77.8159 74.5603V74.2773V73.4243C77.3909 73.4613 76.9119 73.4893 76.3649 73.5023L71.3729 71.4223C72.4899 71.6613 73.9909 71.8093 75.6479 71.8093C76.4179 71.8093 77.1519 71.7763 77.8329 71.7183Z" fill="#2988FF"/>
<path fill-rule="evenodd" clip-rule="evenodd" d="M80.6281 67.1309H80.7521V67.1839C80.9811 67.1359 81.2111 67.0879 81.4531 67.0509C81.5891 67.0289 81.7321 67.0159 81.8711 66.9979L81.8791 66.5089L81.8821 66.2999C81.8821 66.2929 81.8871 66.2859 81.8871 66.2789C81.8871 66.2729 81.8831 66.2679 81.8831 66.2609L81.8871 65.9959H81.7621C81.6671 65.8899 81.5141 65.7879 81.3201 65.6909C81.2521 65.7249 81.1801 65.7589 81.1021 65.7919C80.9411 65.8619 80.7551 65.9299 80.5471 65.9959C80.5411 65.9979 80.5351 65.9999 80.5291 66.0019C79.5451 66.3129 78.0231 66.5629 75.6481 66.5629C73.2731 66.5629 71.7511 66.3129 70.7671 66.0019C70.7611 65.9999 70.7541 65.9979 70.7481 65.9959C70.5401 65.9299 70.3541 65.8619 70.1931 65.7919C70.1151 65.7589 70.0431 65.7249 69.9751 65.6909C69.7811 65.7879 69.6281 65.8899 69.5331 65.9959H69.4081V68.7909V68.7929L69.4551 69.0189C69.5061 69.1349 69.6411 69.3369 69.9731 69.5559C70.0431 69.6019 70.1241 69.6489 70.2131 69.6959C70.2761 69.7299 70.3411 69.7629 70.4151 69.7959C70.5881 69.8749 70.7901 69.9519 71.0291 70.0249C71.1211 70.0539 71.2241 70.0809 71.3271 70.1079C72.2491 70.3499 73.6121 70.5339 75.6481 70.5339C76.4801 70.5339 77.1911 70.5009 77.8161 70.4479V70.1659V70.1079V69.5189V69.3119C77.3911 69.3499 76.9121 69.3769 76.3651 69.3899L75.3741 68.9769H75.3721L74.4381 68.5879L71.3731 67.3099C72.4901 67.5499 73.9911 67.6969 75.6471 67.6969C77.6851 67.6969 79.4891 67.4739 80.6281 67.1309Z" fill="#2988FF"/>
<path fill-rule="evenodd" clip-rule="evenodd" d="M81.7614 61.458C81.1834 60.811 78.6664 60.324 75.6474 60.324C72.6284 60.324 70.1114 60.811 69.5334 61.458H69.4074V64.253L69.4084 64.256L69.4554 64.482C69.5244 64.638 69.7374 64.948 70.3894 65.248C70.4994 65.299 70.6264 65.349 70.7634 65.398C70.8304 65.422 70.9014 65.446 70.9754 65.47C71.2184 65.547 71.5024 65.62 71.8284 65.686C72.7264 65.868 73.9534 65.996 75.6474 65.996C77.3434 65.996 78.5694 65.868 79.4674 65.686C79.7924 65.62 80.0764 65.547 80.3194 65.47C80.3934 65.446 80.4644 65.422 80.5314 65.398C80.6684 65.349 80.7954 65.299 80.9064 65.248C81.5574 64.948 81.7704 64.637 81.8394 64.482L81.8784 61.972L81.8824 61.762C81.8824 61.755 81.8864 61.749 81.8864 61.742C81.8864 61.736 81.8834 61.73 81.8824 61.724L81.8864 61.458H81.7614ZM76.3654 64.853L75.3814 64.443L71.3734 62.773C72.4904 63.012 73.9914 63.16 75.6474 63.16C77.6864 63.16 79.4914 62.936 80.6304 62.593H80.7524V64.035C80.5704 64.171 80.0374 64.47 78.7194 64.669C78.1144 64.76 77.3454 64.83 76.3654 64.853Z" fill="#2988FF"/>
<path fill-rule="evenodd" clip-rule="evenodd" d="M90.7187 77.0373H90.5937C90.5697 77.0103 90.5357 76.9833 90.5047 76.9573C90.4637 76.9833 90.4187 77.0103 90.3727 77.0373C90.3547 77.0483 90.3357 77.0583 90.3167 77.0693C90.1877 77.1413 90.0437 77.2143 89.8707 77.2863C88.9337 77.6763 87.3057 78.0283 84.4797 78.0283C81.6537 78.0283 80.0257 77.6753 79.0887 77.2863C78.9157 77.2143 78.7717 77.1413 78.6427 77.0693C78.6237 77.0583 78.6047 77.0483 78.5867 77.0373C78.5407 77.0103 78.4957 76.9833 78.4547 76.9573C78.4237 76.9833 78.3897 77.0103 78.3647 77.0373H78.2407V77.3193V77.3203C78.2407 77.3203 78.2407 77.3203 78.2407 77.3213V77.5503V79.8313L78.2887 80.0593C78.4437 80.4143 79.3507 81.5743 84.4797 81.5743C89.6087 81.5743 90.5157 80.4143 90.6707 80.0593L90.7107 77.5503L90.7137 77.3423C90.7147 77.3343 90.7187 77.3273 90.7187 77.3203C90.7187 77.3133 90.7147 77.3073 90.7147 77.3013L90.7187 77.0373ZM89.5847 78.1723V79.6133C89.3197 79.8123 88.3127 80.3573 85.1967 80.4313L80.2067 78.3513C81.3237 78.5903 82.8247 78.7383 84.4797 78.7383C86.5177 78.7383 88.3217 78.5153 89.4597 78.1723H89.5847Z" fill="#2988FF"/>
<path fill-rule="evenodd" clip-rule="evenodd" d="M90.7187 72.9249H90.5937C90.4987 72.8179 90.3467 72.7169 90.1517 72.6199C90.0847 72.6539 90.0117 72.6869 89.9337 72.7209C89.7727 72.7909 89.5867 72.8589 89.3787 72.9249C89.3727 72.9269 89.3667 72.9289 89.3607 72.9299C88.3767 73.2409 86.8547 73.4909 84.4797 73.4909C83.6437 73.4909 82.9227 73.4579 82.2827 73.4039C82.1457 73.3929 82.0067 73.3809 81.8777 73.3679C81.8167 73.3609 81.7547 73.3549 81.6957 73.3479C81.5817 73.3349 81.4767 73.3199 81.3697 73.3049C80.8307 73.2319 80.3667 73.1419 79.9787 73.0409C79.8427 73.0049 79.7187 72.9679 79.5987 72.9309C79.5927 72.9289 79.5867 72.9269 79.5807 72.9249C79.3727 72.8589 79.1867 72.7909 79.0247 72.7209C78.9477 72.6869 78.8747 72.6539 78.8067 72.6199C78.6127 72.7169 78.4607 72.8179 78.3657 72.9249H78.2407V73.2069V73.2079C78.2407 73.2079 78.2407 73.2079 78.2407 73.2089V73.3809V73.4379V74.2349V74.5209V74.6629V75.0899V75.3579V75.3589V75.7189L78.2887 75.9469C78.3397 76.0629 78.4737 76.2649 78.8057 76.4839C78.8757 76.5299 78.9567 76.5769 79.0457 76.6249C79.1087 76.6579 79.1747 76.6909 79.2477 76.7249C79.4207 76.8029 79.6227 76.8799 79.8617 76.9539C79.9547 76.9829 80.0597 77.0099 80.1637 77.0369C81.0867 77.2789 82.4477 77.4619 84.4797 77.4619C86.5117 77.4619 87.8727 77.2789 88.7957 77.0369C88.8997 77.0099 89.0047 76.9829 89.0987 76.9539C89.3367 76.8799 89.5387 76.8029 89.7107 76.7249C89.7847 76.6909 89.8507 76.6579 89.9137 76.6249C90.0027 76.5769 90.0827 76.5309 90.1527 76.4839C90.4857 76.2649 90.6197 76.0629 90.6707 75.9469L90.7107 73.4379L90.7137 73.2299C90.7147 73.2229 90.7187 73.2149 90.7187 73.2079C90.7187 73.2019 90.7147 73.1949 90.7147 73.1889L90.7187 72.9249ZM89.5847 74.0599V75.5009C89.4617 75.5929 89.1767 75.7609 88.5957 75.9209C88.3567 75.9869 88.0637 76.0519 87.7147 76.1089C87.6587 76.1179 87.6007 76.1269 87.5427 76.1359C86.9387 76.2259 86.1717 76.2959 85.1967 76.3189L84.2057 75.9059L84.2037 75.9049L83.2697 75.5159L80.8917 74.5249L80.2957 74.2769L80.2047 74.2389C80.2467 74.2479 80.2897 74.2569 80.3327 74.2659C80.5947 74.3179 80.8747 74.3669 81.1727 74.4089C82.1327 74.5459 83.2637 74.6259 84.4797 74.6259C86.5177 74.6259 88.3217 74.4029 89.4607 74.0599H89.5847Z" fill="#2988FF"/>
<path fill-rule="evenodd" clip-rule="evenodd" d="M82.3033 67.3427C82.1623 67.3547 82.0233 67.3677 81.8863 67.3817C81.8793 67.3827 81.8723 67.3827 81.8653 67.3837C81.7263 67.3987 81.5883 67.4137 81.4543 67.4307C81.2093 67.4617 80.9763 67.4967 80.7523 67.5347C79.5483 67.7397 78.6753 68.0397 78.3653 68.3867H78.2403V68.6697V68.6707V68.7177V68.8997V69.1027V69.1377V69.2687V69.5697V70.1077V70.1217V70.4087V70.5507V70.8197V70.8207V70.9767V71.1817L78.2533 71.2417L78.2883 71.4087C78.3153 71.4707 78.3673 71.5567 78.4573 71.6567C78.5953 71.8097 78.8263 71.9947 79.2223 72.1767C79.3323 72.2267 79.4593 72.2777 79.5963 72.3267C79.6633 72.3507 79.7343 72.3747 79.8083 72.3987C80.0513 72.4757 80.3353 72.5487 80.6603 72.6147C80.6923 72.6207 80.7203 72.6277 80.7523 72.6337C80.9683 72.6757 81.2053 72.7137 81.4603 72.7487C81.5823 72.7657 81.7123 72.7797 81.8443 72.7947C81.8593 72.7967 81.8723 72.7987 81.8863 72.7997C82.0153 72.8137 82.1513 72.8257 82.2893 72.8377C82.9193 72.8907 83.6373 72.9247 84.4793 72.9247C86.1743 72.9247 87.4013 72.7967 88.2993 72.6147C88.6243 72.5487 88.9083 72.4757 89.1513 72.3987C89.2253 72.3747 89.2953 72.3507 89.3623 72.3267C89.4993 72.2777 89.6273 72.2267 89.7373 72.1767C90.3893 71.8767 90.6023 71.5647 90.6713 71.4087L90.7103 68.8997L90.7143 68.6917C90.7143 68.6847 90.7193 68.6777 90.7193 68.6707C90.7193 68.6637 90.7153 68.6577 90.7143 68.6507L90.7183 68.3867H90.5933C90.0153 67.7397 87.4983 67.2527 84.4793 67.2527C83.7133 67.2527 82.9823 67.2847 82.3033 67.3427ZM85.1973 71.7817L84.2143 71.3717L82.3093 70.5777L81.8843 70.4007L81.8823 70.3997L81.6733 70.3127L81.3893 70.1947L81.1803 70.1077L80.8533 69.9717L80.6563 69.8897L80.2703 69.7287L80.2053 69.7017C80.2353 69.7077 80.2653 69.7137 80.2963 69.7197C80.4653 69.7547 80.6413 69.7877 80.8273 69.8187C80.8823 69.8277 80.9343 69.8377 80.9903 69.8457C81.0253 69.8517 81.0623 69.8557 81.0973 69.8607C81.2363 69.8817 81.3783 69.9017 81.5253 69.9197C81.6103 69.9297 81.7003 69.9387 81.7883 69.9477C81.8223 69.9517 81.8553 69.9557 81.8893 69.9587C82.6783 70.0407 83.5543 70.0887 84.4793 70.0887C86.5193 70.0887 88.3243 69.8647 89.4623 69.5207H89.5843V70.9627C89.4033 71.0997 88.8703 71.3987 87.5523 71.5977C86.9473 71.6887 86.1773 71.7587 85.1973 71.7817Z" fill="#2988FF"/>
<path fill-rule="evenodd" clip-rule="evenodd" d="M71.8031 75.9734C71.2261 75.3264 68.7081 74.8384 65.6891 74.8384C62.6691 74.8384 60.1521 75.3264 59.5751 75.9734H59.4501V76.2554C59.4501 76.2564 59.4501 76.2564 59.4501 76.2564C59.4501 76.2574 59.4501 76.2574 59.4501 76.2574V76.4864V78.4064V78.4074V78.7684L59.4981 78.9964C59.6531 79.3514 60.5601 80.5104 65.6891 80.5104C70.8171 80.5104 71.7251 79.3524 71.8801 78.9974L71.9201 76.4864L71.9231 76.2784C71.9241 76.2714 71.9281 76.2644 71.9281 76.2564C71.9281 76.2504 71.9241 76.2444 71.9241 76.2374L71.9281 75.9734H71.8031ZM70.7931 77.1084V78.5504C70.5281 78.7494 69.5201 79.2944 66.4051 79.3674L61.4141 77.2874C62.5311 77.5274 64.0321 77.6744 65.6891 77.6744C67.7271 77.6744 69.5321 77.4514 70.6711 77.1084H70.7931Z" fill="#2988FF"/>
<path fill-rule="evenodd" clip-rule="evenodd" d="M78.282 40.1685C80.3423 38.6665 81.4605 37.4876 81.4605 36.1295C81.4605 34.5451 80.128 33.5933 78.4251 33.5933C77.3174 33.5933 76.1384 33.998 75.3642 34.8906L76.3288 36.0096C76.8647 35.4497 77.5557 35.093 78.4611 35.093C79.1162 35.093 79.7472 35.4265 79.7472 36.1295C79.7472 37.1061 78.7946 37.9163 75.5419 40.3229V41.6555H81.5198V40.1685H78.282Z" fill="#2988FF"/>
<path fill-rule="evenodd" clip-rule="evenodd" d="M70.2181 36.2252L71.1827 37.2377L72.5048 35.8916V41.6552H74.1949V33.7129H72.7199L70.2181 36.2252Z" fill="#2988FF"/>
<path fill-rule="evenodd" clip-rule="evenodd" d="M14.2789 41.0686C14.2789 40.4307 14.796 39.9136 15.4339 39.9136H19.2219C19.8598 39.9136 20.3769 40.4307 20.3769 41.0686V47.9296C20.3769 48.5675 19.8598 49.0846 19.2219 49.0846H15.4339C14.796 49.0846 14.2789 48.5675 14.2789 47.9296V41.0686ZM16.5889 42.2236V46.7746H18.0669V42.2236H16.5889Z" fill="#2988FF"/>
<path fill-rule="evenodd" clip-rule="evenodd" d="M36.5303 41.0686C36.5303 40.4307 37.0474 39.9136 37.6853 39.9136H41.4733C42.1112 39.9136 42.6283 40.4307 42.6283 41.0686V47.9296C42.6283 48.5675 42.1112 49.0846 41.4733 49.0846H37.6853C37.0474 49.0846 36.5303 48.5675 36.5303 47.9296V41.0686ZM38.8403 42.2236V46.7746H40.3183V42.2236H38.8403Z" fill="#2988FF"/>
<path fill-rule="evenodd" clip-rule="evenodd" d="M25.4046 41.0686C25.4046 40.4307 25.9217 39.9136 26.5596 39.9136H30.3476C30.9855 39.9136 31.5026 40.4307 31.5026 41.0686V47.9296C31.5026 48.5675 30.9855 49.0846 30.3476 49.0846H26.5596C25.9217 49.0846 25.4046 48.5675 25.4046 47.9296V41.0686ZM27.7146 42.2236V46.7746H29.1926V42.2236H27.7146Z" fill="#2988FF"/>
<path fill-rule="evenodd" clip-rule="evenodd" d="M6.0195 26.0054C6.0195 24.8818 6.93038 23.9709 8.054 23.9709H48.854C49.9776 23.9709 50.8885 24.8818 50.8885 26.0054V77.0054C50.8885 78.1291 49.9776 79.0399 48.854 79.0399H8.054C6.93038 79.0399 6.0195 78.1291 6.0195 77.0054V26.0054ZM10.0885 28.0399V74.9709H46.8195V28.0399H10.0885Z" fill="#1C3553"/>
<path fill-rule="evenodd" clip-rule="evenodd" d="M18.3579 55.9304V60.9904H16.2979V55.9304H18.3579ZM18.8279 54.4604C19.3802 54.4604 19.8279 54.9082 19.8279 55.4604V61.4604C19.8279 62.0127 19.3802 62.4604 18.8279 62.4604H15.8279C15.2756 62.4604 14.8279 62.0127 14.8279 61.4604V55.4604C14.8279 54.9082 15.2756 54.4604 15.8279 54.4604H18.8279Z" fill="#1C3553"/>
<path fill-rule="evenodd" clip-rule="evenodd" d="M29.3579 55.9304V60.9904H27.2979V55.9304H29.3579ZM29.8279 54.4604C30.3802 54.4604 30.8279 54.9082 30.8279 55.4604V61.4604C30.8279 62.0127 30.3802 62.4604 29.8279 62.4604H26.8279C26.2756 62.4604 25.8279 62.0127 25.8279 61.4604V55.4604C25.8279 54.9082 26.2756 54.4604 26.8279 54.4604H29.8279Z" fill="#1C3553"/>
<path fill-rule="evenodd" clip-rule="evenodd" d="M40.3579 55.9304V60.9904H38.2979V55.9304H40.3579ZM40.8279 54.4604C41.3802 54.4604 41.8279 54.9082 41.8279 55.4604V61.4604C41.8279 62.0127 41.3802 62.4604 40.8279 62.4604H37.8279C37.2756 62.4604 36.8279 62.0127 36.8279 61.4604V55.4604C36.8279 54.9082 37.2756 54.4604 37.8279 54.4604H40.8279Z" fill="#1C3553"/>
<path fill-rule="evenodd" clip-rule="evenodd" d="M50.9076 20.6718C50.9076 19.9638 50.3556 19.3888 49.6736 19.3888H20.8816C20.9146 18.2398 20.9216 17.0898 20.8856 15.9398C20.8716 15.5008 20.3806 15.1708 19.7066 15.0498C19.7006 15.0488 19.6966 15.0488 19.6896 15.0478C19.6376 15.0388 19.5856 15.0298 19.5316 15.0248C19.5286 15.0238 19.5256 15.0238 19.5226 15.0228C19.4646 15.0168 19.4076 15.0118 19.3476 15.0068H19.3416C19.2876 15.0038 19.2326 15.0018 19.1776 15.0018C19.1696 15.0008 19.1616 15.0008 19.1526 14.9998C19.1416 14.9998 19.1326 15.0008 19.1216 15.0008C19.1056 15.0008 19.0886 14.9998 19.0696 14.9998C19.0556 15.0008 19.0436 15.0018 19.0296 15.0028C18.0616 15.0228 17.3676 15.4288 17.3416 16.0338C17.3156 16.6338 17.3356 17.2358 17.3356 17.8368C17.3356 18.3548 17.3296 18.8718 17.3366 19.3888H15.4776C15.5106 18.2398 15.5176 17.0898 15.4816 15.9398C15.4676 15.5008 14.9766 15.1708 14.3026 15.0498C14.2966 15.0488 14.2916 15.0488 14.2856 15.0478C14.2336 15.0388 14.1816 15.0298 14.1276 15.0248C14.1246 15.0238 14.1216 15.0238 14.1186 15.0228C14.0606 15.0168 14.0036 15.0118 13.9436 15.0068H13.9376C13.8836 15.0038 13.8286 15.0018 13.7736 15.0018C13.7656 15.0008 13.7576 15.0008 13.7486 14.9998C13.7376 14.9998 13.7286 15.0008 13.7176 15.0008C13.7006 15.0008 13.6836 14.9998 13.6656 14.9998C13.6516 15.0008 13.6396 15.0018 13.6256 15.0028C12.6576 15.0228 11.9636 15.4288 11.9376 16.0338C11.9116 16.6338 11.9316 17.2358 11.9316 17.8368C11.9316 18.3548 11.9256 18.8718 11.9326 19.3888H7.2336C6.5526 19.3888 5.9996 19.9638 5.9996 20.6718C5.9996 21.3798 6.5526 21.9548 7.2336 21.9548H49.6736C50.3556 21.9548 50.9076 21.3798 50.9076 20.6718Z" fill="#1C3553"/>
<path fill-rule="evenodd" clip-rule="evenodd" d="M60.8 25.0743C60.8 24.1354 61.5611 23.3743 62.5 23.3743H89.5C90.4389 23.3743 91.2 24.1354 91.2 25.0743V45.0743C91.2 46.0131 90.4389 46.7743 89.5 46.7743H62.5C61.5611 46.7743 60.8 46.0132 60.8 45.0743V25.0743ZM63.2 25.7743V44.3743H88.8V25.7743H63.2Z" fill="#1C3553"/>
<path fill-rule="evenodd" clip-rule="evenodd" d="M61.7953 29.3H90.7179V31.7H61.7953V29.3Z" fill="#1C3553"/>
<path fill-rule="evenodd" clip-rule="evenodd" d="M85 22.0999C85.4971 22.0999 85.9 22.5028 85.9 22.9999V25.9999C85.9 26.4969 85.4971 26.8999 85 26.8999C84.5029 26.8999 84.1 26.4969 84.1 25.9999V22.9999C84.1 22.5028 84.5029 22.0999 85 22.0999Z" fill="#1C3553"/>
<path fill-rule="evenodd" clip-rule="evenodd" d="M67 22.0999C67.4971 22.0999 67.9 22.5028 67.9 22.9999V25.9999C67.9 26.4969 67.4971 26.8999 67 26.8999C66.5029 26.8999 66.1 26.4969 66.1 25.9999V22.9999C66.1 22.5028 66.5029 22.0999 67 22.0999Z" fill="#1C3553"/>
</svg>
