<svg width="96" height="96" viewBox="0 0 96 96" fill="none" xmlns="http://www.w3.org/2000/svg">
<path d="M71.8604 48.497C74.4604 47.097 74.8604 43.497 72.6604 41.597L51.7604 23.097C50.0604 21.597 47.5604 21.697 45.9604 23.197L22.1604 45.797L23.0604 46.697L27.4604 48.597C27.9604 48.897 28.5604 48.997 29.1604 48.997H69.7604C70.4604 48.997 71.1604 48.797 71.8604 48.497Z" fill="#2988FF"/>
<path d="M18.8604 47.6971C19.2604 48.5971 20.1604 49.5971 22.0604 49.5971C23.1604 49.5971 24.3604 49.5971 25.4604 49.5971H26.7604V73.1971C26.7604 75.6971 27.9604 76.8971 30.4604 76.8971H65.4604C67.9604 76.8971 69.1604 75.6971 69.1604 73.1971V49.5971H70.4604C71.5604 49.5971 72.7604 49.5971 73.8604 49.5971H73.9604C75.8604 49.5971 76.7604 48.5971 77.1604 47.6971C77.7604 46.3971 77.3604 45.1971 76.1604 43.9971C74.5604 42.4971 65.8604 34.3971 59.0604 27.9971L50.7604 20.1971C49.8604 19.3971 48.9604 18.9971 48.0604 19.0971C47.1604 18.9971 46.1604 19.3971 45.3604 20.1971C44.4604 20.9971 40.8604 24.3971 36.5604 28.3971C29.7604 34.6971 21.3604 42.4971 19.8604 43.9971C18.5604 45.0971 18.2604 46.3971 18.8604 47.6971ZM39.2604 31.2971C43.4604 27.2971 47.0604 23.8971 48.0604 23.0971L56.3604 30.8971C62.0604 36.1971 68.9604 42.6971 72.0604 45.5971C71.5604 45.5971 71.0604 45.5971 70.5604 45.5971H68.8604C66.6604 45.5971 65.3604 46.8971 65.3604 49.1971V72.8971H30.7604V49.1971C30.7604 46.9971 29.4604 45.6971 27.1604 45.5971H25.4604C24.9604 45.5971 24.4604 45.5971 23.9604 45.5971C26.9604 42.6971 33.6604 36.4971 39.2604 31.2971Z" fill="#1C3553"/>
<path d="M53.2604 64.7971H57.0604C57.4604 64.7971 57.7604 64.4971 57.7604 64.0971V57.1971C57.7604 56.7971 57.4604 56.4971 57.0604 56.4971H53.2604C52.8604 56.4971 52.5604 56.7971 52.5604 57.1971V64.0971C52.5604 64.4971 52.8604 64.7971 53.2604 64.7971ZM53.9604 57.8971H56.2604V63.2971H53.9604V57.8971Z" fill="#1C3553"/>
<path d="M39.1604 64.7971H42.9604C43.3604 64.7971 43.6604 64.4971 43.6604 64.0971V57.1971C43.6604 56.7971 43.3604 56.4971 42.9604 56.4971H39.1604C38.7604 56.4971 38.4604 56.7971 38.4604 57.1971V64.0971C38.3604 64.4971 38.7604 64.7971 39.1604 64.7971ZM39.8604 57.8971H42.1604V63.2971H39.8604V57.8971Z" fill="#1C3553"/>
</svg>
