<svg width="96" height="96" viewBox="0 0 96 96" fill="none" xmlns="http://www.w3.org/2000/svg">
<path fill-rule="evenodd" clip-rule="evenodd" d="M17.3627 68.9996H79.2524V52.0007H17.3627V68.9996Z" fill="#2988FF"/>
<path fill-rule="evenodd" clip-rule="evenodd" d="M35.2027 24.8402C35.9614 25.1443 36.4587 25.8794 36.4587 26.6967V34.9516L46.6795 25.2464C47.2593 24.6959 48.1112 24.5435 48.8458 24.859C49.5805 25.1745 50.0566 25.8972 50.0566 26.6967V35.1479L61.2171 25.2035C61.8053 24.6793 62.6466 24.5494 63.3656 24.8717C64.0846 25.194 64.5474 25.9084 64.5476 26.6963L64.5502 40.9197H79.5905C80.695 40.9197 81.5905 41.8151 81.5905 42.9197V67.2067C81.5905 68.3113 80.695 69.2067 79.5905 69.2067H16.8798C15.7752 69.2067 14.8798 68.3113 14.8798 67.2067V45.1067C14.8798 44.5923 15.078 44.0976 15.4333 43.7255L33.0122 25.3155C33.5767 24.7244 34.444 24.5362 35.2027 24.8402ZM60.5484 31.1568L49.3872 41.1019C48.7988 41.6262 47.9575 41.7561 47.2384 41.4337C46.5194 41.1113 46.0566 40.3967 46.0566 39.6087V31.3538L35.8359 41.059C35.2561 41.6096 34.4041 41.7619 33.6695 41.4464C32.9349 41.1309 32.4587 40.4082 32.4587 39.6087V31.6873L18.8798 45.9082V65.2067H77.5905V44.9197H62.5506C61.4461 44.9197 60.5508 44.0245 60.5506 42.9201L60.5484 31.1568Z" fill="#1C3553"/>
</svg>
