<svg width="96" height="96" viewBox="0 0 96 96" fill="none" xmlns="http://www.w3.org/2000/svg">
<path fill-rule="evenodd" clip-rule="evenodd" d="M28.7979 52.0005H68.9079V35.0005H28.7979V52.0005Z" fill="#2988FF"/>
<path fill-rule="evenodd" clip-rule="evenodd" d="M26.0498 27.0054C26.0498 25.9008 26.9452 25.0054 28.0498 25.0054H68.8498C69.9544 25.0054 70.8498 25.9008 70.8498 27.0054V78.0054C70.8498 79.1099 69.9544 80.0054 68.8498 80.0054H28.0498C26.9452 80.0054 26.0498 79.1099 26.0498 78.0054V27.0054ZM30.0498 29.0054V76.0054H66.8498V29.0054H30.0498Z" fill="#1C3553"/>
<path fill-rule="evenodd" clip-rule="evenodd" d="M35.4337 59.4598H39.2217C39.6277 59.4598 39.9567 59.7889 39.9567 60.1948V67.0558C39.9567 67.4618 39.6277 67.7908 39.2217 67.7908H35.4337C35.0278 67.7908 34.6987 67.4618 34.6987 67.0558V60.1948H35.4337V59.4598ZM36.1687 60.9298V66.3208H38.4867V60.9298H36.1687Z" fill="#1C3553"/>
<path fill-rule="evenodd" clip-rule="evenodd" d="M57.6857 59.4598H61.4737C61.8796 59.4598 62.2087 59.7889 62.2087 60.1948V67.0558C62.2087 67.4618 61.8796 67.7908 61.4737 67.7908H57.6857C57.2798 67.7908 56.9507 67.4618 56.9507 67.0558V60.1948H57.6857V59.4598ZM58.4207 60.9298V66.3208H60.7387V60.9298H58.4207Z" fill="#1C3553"/>
<path fill-rule="evenodd" clip-rule="evenodd" d="M46.5597 59.4598H50.3477C50.7536 59.4598 51.0827 59.7889 51.0827 60.1948V67.0558C51.0827 67.4618 50.7536 67.7908 50.3477 67.7908H46.5597C46.1538 67.7908 45.8247 67.4618 45.8247 67.0558V60.1948H46.5597V59.4598ZM47.2947 60.9298V66.3208H49.6127V60.9298H47.2947Z" fill="#1C3553"/>
<path fill-rule="evenodd" clip-rule="evenodd" d="M70.908 21.672C70.908 20.964 70.356 20.389 69.674 20.389H40.882C40.915 19.24 40.922 18.09 40.886 16.94C40.872 16.501 40.381 16.171 39.707 16.05C39.701 16.049 39.697 16.049 39.69 16.048C39.638 16.039 39.586 16.03 39.532 16.025C39.529 16.024 39.526 16.024 39.523 16.023C39.465 16.017 39.408 16.012 39.348 16.007H39.342C39.288 16.004 39.233 16.002 39.178 16.002C39.17 16.001 39.162 16.001 39.153 16C39.142 16 39.133 16.001 39.122 16.001C39.106 16.001 39.089 16 39.07 16C39.056 16.001 39.044 16.002 39.03 16.003C38.062 16.023 37.368 16.429 37.342 17.034C37.316 17.634 37.336 18.236 37.336 18.837C37.336 19.355 37.33 19.872 37.337 20.389H35.478C35.511 19.24 35.518 18.09 35.482 16.94C35.468 16.501 34.977 16.171 34.303 16.05C34.297 16.049 34.292 16.049 34.286 16.048C34.234 16.039 34.182 16.03 34.128 16.025C34.125 16.024 34.122 16.024 34.119 16.023C34.061 16.017 34.004 16.012 33.944 16.007H33.938C33.884 16.004 33.829 16.002 33.774 16.002C33.766 16.001 33.758 16.001 33.749 16C33.738 16 33.729 16.001 33.718 16.001C33.701 16.001 33.684 16 33.666 16C33.652 16.001 33.64 16.002 33.626 16.003C32.658 16.023 31.964 16.429 31.938 17.034C31.912 17.634 31.932 18.236 31.932 18.837C31.932 19.355 31.926 19.872 31.933 20.389H27.234C26.553 20.389 26 20.964 26 21.672C26 22.38 26.553 22.955 27.234 22.955H69.674C70.356 22.955 70.908 22.38 70.908 21.672Z" fill="#1C3553"/>
</svg>
