<svg width="96" height="96" viewBox="0 0 96 96" fill="none" xmlns="http://www.w3.org/2000/svg">
<path fill-rule="evenodd" clip-rule="evenodd" d="M17.3629 68.9996H79.2526V52.0007H17.3629V68.9996Z" fill="#2988FF"/>
<path fill-rule="evenodd" clip-rule="evenodd" d="M35.2028 24.8402C35.9615 25.1443 36.4588 25.8794 36.4588 26.6967V34.9516L46.6796 25.2464C47.2594 24.6959 48.1113 24.5435 48.846 24.859C49.5806 25.1745 50.0568 25.8972 50.0568 26.6967V35.1479L61.2172 25.2035C61.8055 24.6793 62.6467 24.5494 63.3657 24.8717C64.0847 25.194 64.5475 25.9084 64.5477 26.6963L64.5503 40.9197H79.5906C80.6952 40.9197 81.5906 41.8151 81.5906 42.9197V67.2067C81.5906 68.3113 80.6952 69.2067 79.5906 69.2067H16.8799C15.7754 69.2067 14.8799 68.3113 14.8799 67.2067V45.1067C14.8799 44.5923 15.0782 44.0976 15.4334 43.7255L33.0124 25.3155C33.5768 24.7244 34.4441 24.5362 35.2028 24.8402ZM60.5485 31.1568L49.3873 41.1019C48.7989 41.6262 47.9576 41.7561 47.2385 41.4337C46.5195 41.1113 46.0568 40.3967 46.0568 39.6087V31.3538L35.836 41.059C35.2562 41.6096 34.4043 41.7619 33.6696 41.4464C32.935 41.1309 32.4588 40.4082 32.4588 39.6087V31.6873L18.8799 45.9082V65.2067H77.5906V44.9197H62.5507C61.4463 44.9197 60.5509 44.0245 60.5507 42.9201L60.5485 31.1568Z" fill="#1C3553"/>
</svg>
