<svg width="96" height="96" viewBox="0 0 96 96" fill="none" xmlns="http://www.w3.org/2000/svg">
<path d="M66.1498 62.5983L66.4498 48.1983L74.9498 47.3983L56.4498 30.3984V45.6983H21.9499L29.1499 49.6983L28.9499 55.7983H46.6499V62.5983H66.1498Z" fill="#2988FF"/>
<path d="M69.2498 73.0983V49.5984C70.8498 49.5984 72.3498 49.5984 73.9498 49.5984C75.9498 49.5984 76.8498 48.5984 77.1498 47.6984C77.7498 46.3984 77.3498 45.1984 76.1498 43.9984C74.6498 42.5984 66.4498 34.8984 59.7498 28.5984C55.3499 24.4984 51.5499 20.9984 50.6499 20.0984C49.7499 19.2985 48.8499 18.8985 47.9499 18.9985C47.0499 18.8985 46.1499 19.2985 45.2499 20.0984C44.3499 20.8984 40.6499 24.3984 36.3499 28.3984C29.6499 34.7984 21.3499 42.4984 19.8499 43.9984C18.65 45.1984 18.25 46.3984 18.85 47.6984C19.25 48.5984 20.0499 49.5984 22.0499 49.5984C23.6499 49.5984 25.1499 49.5984 26.7499 49.5984V73.0983C26.7499 75.5983 27.9499 76.7983 30.4499 76.7983H65.4498C68.0498 76.7983 69.2498 75.5983 69.2498 73.0983ZM65.2498 72.7983H30.7499V49.0984C30.7499 46.7984 29.4499 45.5984 27.2499 45.5984C26.1499 45.5984 25.0499 45.5984 24.0499 45.5984C27.0499 42.7984 33.6499 36.5984 39.1499 31.3984C43.4499 27.3984 47.1499 23.8984 48.0499 23.0984C48.9499 23.9984 52.7499 27.4984 57.1499 31.5984C62.6498 36.7984 69.1498 42.7984 72.1498 45.5984C71.0498 45.5984 70.0498 45.5984 68.9498 45.5984C66.6498 45.5984 65.3498 46.8984 65.3498 49.0984V72.7983H65.2498Z" fill="#1C3553"/>
</svg>
