<svg width="96" height="96" viewBox="0 0 96 96" fill="none" xmlns="http://www.w3.org/2000/svg">
<path fill-rule="evenodd" clip-rule="evenodd" d="M20.7646 30.265C21.8692 30.265 22.7646 31.1604 22.7646 32.265V72.265C22.7646 73.3696 21.8692 74.265 20.7646 74.265C19.6601 74.265 18.7646 73.3696 18.7646 72.265V32.265C18.7646 31.1604 19.6601 30.265 20.7646 30.265Z" fill="#2988FF"/>
<path fill-rule="evenodd" clip-rule="evenodd" d="M75.7646 30.265C76.8692 30.265 77.7646 31.1604 77.7646 32.265V72.265C77.7646 73.3696 76.8692 74.265 75.7646 74.265C74.6601 74.265 73.7646 73.3696 73.7646 72.265V32.265C73.7646 31.1604 74.6601 30.265 75.7646 30.265Z" fill="#2988FF"/>
<path fill-rule="evenodd" clip-rule="evenodd" d="M19.2646 35.065C19.2646 34.6232 19.6228 34.265 20.0646 34.265H74.4646C74.9065 34.265 75.2646 34.6232 75.2646 35.065C75.2646 35.5068 74.9065 35.865 74.4646 35.865H20.0646C19.6228 35.865 19.2646 35.5068 19.2646 35.065Z" fill="#2988FF"/>
<path fill-rule="evenodd" clip-rule="evenodd" d="M14 23C14 21.8954 14.8954 21 16 21H80.53C81.6346 21 82.53 21.8954 82.53 23V30.53C82.53 31.6346 81.6346 32.53 80.53 32.53H16C14.8954 32.53 14 31.6346 14 30.53V23ZM18 25V28.53H78.53V25H18Z" fill="#2988FF"/>
<path fill-rule="evenodd" clip-rule="evenodd" d="M63.9551 54.5009C63.9551 53.5344 64.7386 52.7509 65.7051 52.7509H68.3741C69.3406 52.7509 70.1241 53.5344 70.1241 54.5009C70.1241 55.4674 69.3406 56.2509 68.3741 56.2509H65.7051C64.7386 56.2509 63.9551 55.4674 63.9551 54.5009Z" fill="#1C3553"/>
<path fill-rule="evenodd" clip-rule="evenodd" d="M27.8242 54.5009C27.8242 53.5344 28.6077 52.7509 29.5742 52.7509H32.2432C33.2097 52.7509 33.9932 53.5344 33.9932 54.5009C33.9932 55.4674 33.2097 56.2509 32.2432 56.2509H29.5742C28.6077 56.2509 27.8242 55.4674 27.8242 54.5009Z" fill="#1C3553"/>
<path fill-rule="evenodd" clip-rule="evenodd" d="M39.0572 42.6222C40.5241 41.3617 42.3116 40.3889 44.3036 40.3889H51.5536C52.5201 40.3889 53.3036 41.1724 53.3036 42.1389C53.3036 43.1054 52.5201 43.8889 51.5536 43.8889H44.3036C43.4731 43.8889 42.4698 44.3045 41.3382 45.2768C40.2215 46.2364 39.1299 47.6136 38.164 49.2023C37.2035 50.7822 36.4059 52.5078 35.8521 54.1098C35.2892 55.7379 35.0176 57.125 35.0176 58.0519V70.2229C35.0176 71.1894 34.2341 71.9729 33.2676 71.9729C32.3011 71.9729 31.5176 71.1894 31.5176 70.2229V58.0519C31.5176 56.5758 31.9198 54.7723 32.5442 52.9662C33.1776 51.1339 34.0805 49.1816 35.1734 47.3841C36.2609 45.5952 37.5755 43.8954 39.0572 42.6222Z" fill="#1C3553"/>
<path fill-rule="evenodd" clip-rule="evenodd" d="M44.6445 42.1389C44.6445 41.1724 45.428 40.3889 46.3945 40.3889H53.6445C55.6365 40.3889 57.424 41.3617 58.8909 42.6222C60.3726 43.8954 61.6872 45.5952 62.7747 47.3841C63.8676 49.1816 64.7705 51.1339 65.4039 52.9662C66.0283 54.7723 66.4305 56.5758 66.4305 58.0519V70.2229C66.4305 71.1894 65.647 71.9729 64.6805 71.9729C63.714 71.9729 62.9305 71.1894 62.9305 70.2229V58.0519C62.9305 57.125 62.6589 55.7379 62.096 54.1098C61.5422 52.5078 60.7446 50.7822 59.7841 49.2023C58.8182 47.6136 57.7266 46.2364 56.6099 45.2768C55.4783 44.3045 54.475 43.8889 53.6445 43.8889H46.3945C45.428 43.8889 44.6445 43.1054 44.6445 42.1389Z" fill="#1C3553"/>
<path fill-rule="evenodd" clip-rule="evenodd" d="M32.6602 66.2453C32.6602 65.2788 33.4437 64.4953 34.4102 64.4953H63.5372C64.5037 64.4953 65.2872 65.2788 65.2872 66.2453C65.2872 67.2118 64.5037 67.9953 63.5372 67.9953H34.4102C33.4437 67.9953 32.6602 67.2118 32.6602 66.2453Z" fill="#1C3553"/>
<path fill-rule="evenodd" clip-rule="evenodd" d="M34.832 52.8671C34.832 52.4253 35.1902 52.0671 35.632 52.0671H62.316C62.7579 52.0671 63.116 52.4253 63.116 52.8671C63.116 53.309 62.7579 53.6671 62.316 53.6671H35.632C35.1902 53.6671 34.832 53.309 34.832 52.8671Z" fill="#1C3553"/>
<path fill-rule="evenodd" clip-rule="evenodd" d="M42.2031 61.4778C42.2031 60.5113 42.9866 59.7278 43.9531 59.7278H53.9961C54.9626 59.7278 55.7461 60.5113 55.7461 61.4778C55.7461 62.4443 54.9626 63.2278 53.9961 63.2278H43.9531C42.9866 63.2278 42.2031 62.4443 42.2031 61.4778Z" fill="#1C3553"/>
<path fill-rule="evenodd" clip-rule="evenodd" d="M38.7232 62.9349C39.5182 62.9349 40.1622 62.2909 40.1622 61.4959C40.1622 60.7019 39.5182 60.0579 38.7232 60.0579C37.9282 60.0579 37.2842 60.7019 37.2842 61.4959C37.2842 62.2909 37.9282 62.9349 38.7232 62.9349Z" fill="#1C3553"/>
<path fill-rule="evenodd" clip-rule="evenodd" d="M59.2251 62.9349C60.0201 62.9349 60.6641 62.2909 60.6641 61.4959C60.6641 60.7019 60.0201 60.0579 59.2251 60.0579C58.4301 60.0579 57.7861 60.7019 57.7861 61.4959C57.7861 62.2909 58.4301 62.9349 59.2251 62.9349Z" fill="#1C3553"/>
</svg>
