<svg width="96" height="96" viewBox="0 0 96 96" fill="none" xmlns="http://www.w3.org/2000/svg">
<path fill-rule="evenodd" clip-rule="evenodd" d="M20.7651 30.2649C21.8697 30.2649 22.7651 31.1603 22.7651 32.2649V72.2649C22.7651 73.3695 21.8697 74.2649 20.7651 74.2649C19.6606 74.2649 18.7651 73.3695 18.7651 72.2649V32.2649C18.7651 31.1603 19.6606 30.2649 20.7651 30.2649Z" fill="#2988FF"/>
<path fill-rule="evenodd" clip-rule="evenodd" d="M75.7651 30.2649C76.8697 30.2649 77.7651 31.1603 77.7651 32.2649V72.2649C77.7651 73.3695 76.8697 74.2649 75.7651 74.2649C74.6606 74.2649 73.7651 73.3695 73.7651 72.2649V32.2649C73.7651 31.1603 74.6606 30.2649 75.7651 30.2649Z" fill="#2988FF"/>
<path fill-rule="evenodd" clip-rule="evenodd" d="M19.2651 35.0649C19.2651 34.6231 19.6233 34.2649 20.0651 34.2649H74.4651C74.907 34.2649 75.2651 34.6231 75.2651 35.0649C75.2651 35.5067 74.907 35.8649 74.4651 35.8649H20.0651C19.6233 35.8649 19.2651 35.5067 19.2651 35.0649Z" fill="#2988FF"/>
<path fill-rule="evenodd" clip-rule="evenodd" d="M14 23C14 21.8954 14.8954 21 16 21H80.53C81.6346 21 82.53 21.8954 82.53 23V30.53C82.53 31.6346 81.6346 32.53 80.53 32.53H16C14.8954 32.53 14 31.6346 14 30.53V23ZM18 25V28.53H78.53V25H18Z" fill="#2988FF"/>
<path fill-rule="evenodd" clip-rule="evenodd" d="M63.9541 54.501C63.9541 53.5345 64.7376 52.751 65.7041 52.751H68.3731C69.3396 52.751 70.1231 53.5345 70.1231 54.501C70.1231 55.4675 69.3396 56.251 68.3731 56.251H65.7041C64.7376 56.251 63.9541 55.4675 63.9541 54.501Z" fill="#1C3553"/>
<path fill-rule="evenodd" clip-rule="evenodd" d="M27.8237 54.501C27.8237 53.5345 28.6072 52.751 29.5737 52.751H32.2427C33.2092 52.751 33.9927 53.5345 33.9927 54.501C33.9927 55.4675 33.2092 56.251 32.2427 56.251H29.5737C28.6072 56.251 27.8237 55.4675 27.8237 54.501Z" fill="#1C3553"/>
<path fill-rule="evenodd" clip-rule="evenodd" d="M39.0562 42.6222C40.5231 41.3617 42.3106 40.3889 44.3026 40.3889H51.5526C52.5191 40.3889 53.3026 41.1724 53.3026 42.1389C53.3026 43.1054 52.5191 43.8889 51.5526 43.8889H44.3026C43.4721 43.8889 42.4688 44.3045 41.3372 45.2768C40.2205 46.2364 39.1289 47.6136 38.1631 49.2023C37.2025 50.7822 36.4049 52.5078 35.8511 54.1098C35.2882 55.7379 35.0166 57.125 35.0166 58.0519V70.2229C35.0166 71.1894 34.2331 71.9729 33.2666 71.9729C32.3001 71.9729 31.5166 71.1894 31.5166 70.2229V58.0519C31.5166 56.5758 31.9188 54.7723 32.5432 52.9662C33.1766 51.1339 34.0796 49.1816 35.1724 47.3841C36.2599 45.5952 37.5745 43.8954 39.0562 42.6222Z" fill="#1C3553"/>
<path fill-rule="evenodd" clip-rule="evenodd" d="M44.6445 42.1389C44.6445 41.1724 45.428 40.3889 46.3945 40.3889H53.6445C55.6365 40.3889 57.424 41.3617 58.8909 42.6222C60.3726 43.8954 61.6872 45.5952 62.7747 47.3841C63.8676 49.1816 64.7705 51.1339 65.4039 52.9662C66.0283 54.7723 66.4305 56.5758 66.4305 58.0519V70.2229C66.4305 71.1894 65.647 71.9729 64.6805 71.9729C63.714 71.9729 62.9305 71.1894 62.9305 70.2229V58.0519C62.9305 57.125 62.6589 55.7379 62.096 54.1098C61.5422 52.5078 60.7446 50.7822 59.7841 49.2023C58.8182 47.6136 57.7266 46.2364 56.6099 45.2768C55.4783 44.3045 54.475 43.8889 53.6445 43.8889H46.3945C45.428 43.8889 44.6445 43.1054 44.6445 42.1389Z" fill="#1C3553"/>
<path fill-rule="evenodd" clip-rule="evenodd" d="M32.6602 66.2454C32.6602 65.2789 33.4437 64.4954 34.4102 64.4954H63.5372C64.5037 64.4954 65.2872 65.2789 65.2872 66.2454C65.2872 67.2119 64.5037 67.9954 63.5372 67.9954H34.4102C33.4437 67.9954 32.6602 67.2119 32.6602 66.2454Z" fill="#1C3553"/>
<path fill-rule="evenodd" clip-rule="evenodd" d="M34.8315 52.8671C34.8315 52.4253 35.1897 52.0671 35.6315 52.0671H62.3155C62.7574 52.0671 63.1155 52.4253 63.1155 52.8671C63.1155 53.309 62.7574 53.6671 62.3155 53.6671H35.6315C35.1897 53.6671 34.8315 53.309 34.8315 52.8671Z" fill="#1C3553"/>
<path fill-rule="evenodd" clip-rule="evenodd" d="M42.2021 61.4778C42.2021 60.5113 42.9857 59.7278 43.9521 59.7278H53.9951C54.9616 59.7278 55.7451 60.5113 55.7451 61.4778C55.7451 62.4443 54.9616 63.2278 53.9951 63.2278H43.9521C42.9857 63.2278 42.2021 62.4443 42.2021 61.4778Z" fill="#1C3553"/>
<path fill-rule="evenodd" clip-rule="evenodd" d="M38.7227 62.9349C39.5177 62.9349 40.1617 62.2909 40.1617 61.4959C40.1617 60.7019 39.5177 60.0579 38.7227 60.0579C37.9277 60.0579 37.2837 60.7019 37.2837 61.4959C37.2837 62.2909 37.9277 62.9349 38.7227 62.9349Z" fill="#1C3553"/>
<path fill-rule="evenodd" clip-rule="evenodd" d="M59.2246 62.9349C60.0196 62.9349 60.6636 62.2909 60.6636 61.4959C60.6636 60.7019 60.0196 60.0579 59.2246 60.0579C58.4296 60.0579 57.7856 60.7019 57.7856 61.4959C57.7856 62.2909 58.4296 62.9349 59.2246 62.9349Z" fill="#1C3553"/>
</svg>
