<svg width="96" height="96" viewBox="0 0 96 96" fill="none" xmlns="http://www.w3.org/2000/svg">
<path fill-rule="evenodd" clip-rule="evenodd" d="M24.3787 59.6695C24.7263 59.3344 25.1903 59.1472 25.6731 59.1472H70.7141C71.1969 59.1472 71.6609 59.3344 72.0085 59.6695L87.0595 74.1785C87.607 74.7063 87.7792 75.5138 87.4946 76.2191C87.21 76.9244 86.5256 77.3862 85.7651 77.3862H10.6221C9.86155 77.3862 9.17719 76.9244 8.8926 76.2191C8.608 75.5138 8.78019 74.7063 9.32774 74.1785L24.3787 59.6695ZM26.4257 62.8772L15.244 73.6562H81.1432L69.9615 62.8772H26.4257Z" fill="#2988FF"/>
<path fill-rule="evenodd" clip-rule="evenodd" d="M31.1181 42.9534C31.408 42.4692 32.0357 42.3117 32.5199 42.6016L35.4259 44.3416C35.9102 44.6316 36.0677 45.2592 35.7777 45.7435C35.4878 46.2277 34.8601 46.3852 34.3759 46.0953L31.4699 44.3553C30.9856 44.0653 30.8281 43.4377 31.1181 42.9534Z" fill="#1C3553"/>
<path fill-rule="evenodd" clip-rule="evenodd" d="M40.2999 34.2698C40.5899 34.7541 40.4324 35.3817 39.9481 35.6717L37.0421 37.4117C36.5579 37.7017 35.9302 37.5441 35.6403 37.0599C35.3503 36.5756 35.5078 35.948 35.9921 35.658L38.8981 33.918C39.3823 33.6281 40.01 33.7856 40.2999 34.2698Z" fill="#1C3553"/>
<path fill-rule="evenodd" clip-rule="evenodd" d="M47.9625 52.1898C47.9625 51.4906 48.5293 50.9238 49.2285 50.9238H66.6905C67.3897 50.9238 67.9565 51.4906 67.9565 52.1898C67.9565 52.889 67.3897 53.4558 66.6905 53.4558H49.2285C48.5293 53.4558 47.9625 52.889 47.9625 52.1898Z" fill="#1C3553"/>
<path fill-rule="evenodd" clip-rule="evenodd" d="M50.6776 48.1206C51.3768 48.1206 51.9436 48.6874 51.9436 49.3866V59.1286C51.9436 59.8278 51.3768 60.3946 50.6776 60.3946C49.9784 60.3946 49.4116 59.8278 49.4116 59.1286V49.3866C49.4116 48.6874 49.9784 48.1206 50.6776 48.1206Z" fill="#1C3553"/>
<path fill-rule="evenodd" clip-rule="evenodd" d="M55.5325 48.1206C56.2317 48.1206 56.7985 48.6874 56.7985 49.3866V59.1286C56.7985 59.8278 56.2317 60.3946 55.5325 60.3946C54.8333 60.3946 54.2665 59.8278 54.2665 59.1286V49.3866C54.2665 48.6874 54.8333 48.1206 55.5325 48.1206Z" fill="#1C3553"/>
<path fill-rule="evenodd" clip-rule="evenodd" d="M60.3872 48.1206C61.0864 48.1206 61.6532 48.6874 61.6532 49.3866V59.1286C61.6532 59.8278 61.0864 60.3946 60.3872 60.3946C59.688 60.3946 59.1212 59.8278 59.1212 59.1286V49.3866C59.1212 48.6874 59.688 48.1206 60.3872 48.1206Z" fill="#1C3553"/>
<path fill-rule="evenodd" clip-rule="evenodd" d="M65.2421 48.1206C65.9413 48.1206 66.5081 48.6874 66.5081 49.3866V59.1286C66.5081 59.8278 65.9413 60.3946 65.2421 60.3946C64.5429 60.3946 63.9761 59.8278 63.9761 59.1286V49.3866C63.9761 48.6874 64.5429 48.1206 65.2421 48.1206Z" fill="#1C3553"/>
<path fill-rule="evenodd" clip-rule="evenodd" d="M26.8753 26.665C26.9651 21.8955 30.8015 17.9995 35.5932 17.9995C40.3833 17.9995 44.2188 21.8929 44.311 26.6602C47.5253 27.9648 49.7817 31.1358 49.7817 34.84C49.7817 37.5603 48.558 39.9688 46.6569 41.5787C46.9097 42.5332 47.0467 43.5372 47.0467 44.576C47.0467 50.9581 41.952 56.1935 35.5932 56.1935C29.2335 56.1935 24.1387 50.9582 24.1387 44.576C24.1387 43.5299 24.2849 42.5315 24.5415 41.5891C22.6339 39.9797 21.4037 37.5678 21.4037 34.84C21.4037 31.135 23.6633 27.9691 26.8753 26.665ZM35.5932 22.0865C33.068 22.0865 30.9607 24.1791 30.9607 26.836C30.9607 26.8511 30.9628 26.9041 30.9971 27.0587C31.0116 27.1241 31.0268 27.1866 31.0474 27.2714C31.0527 27.2931 31.0583 27.3163 31.0644 27.3415C31.0913 27.4527 31.1254 27.5956 31.1559 27.7497C31.2642 28.2975 31.1436 28.8658 30.8222 29.3224C30.5007 29.779 30.0064 30.0841 29.4542 30.1669C27.2304 30.5003 25.4907 32.4418 25.4907 34.84C25.4907 36.6454 26.4904 38.1971 27.9606 39.0032C28.8828 39.5088 29.2706 40.6317 28.8571 41.5986C28.4557 42.5369 28.2257 43.5314 28.2257 44.576C28.2257 48.7678 31.5569 52.1065 35.5932 52.1065C39.6284 52.1065 42.9597 48.7679 42.9597 44.576C42.9597 43.5119 42.7396 42.5037 42.3481 41.5813C41.9391 40.6177 42.3245 39.5008 43.2408 38.9944C44.7022 38.1868 45.6947 36.639 45.6947 34.84C45.6947 32.4633 43.9916 30.536 41.8046 30.1741C41.2603 30.084 40.7755 29.7777 40.4605 29.3247C40.1455 28.8717 40.027 28.3106 40.1321 27.769C40.1931 27.4542 40.2257 27.144 40.2257 26.836C40.2257 24.1791 38.1184 22.0865 35.5932 22.0865Z" fill="#1C3553"/>
<path fill-rule="evenodd" clip-rule="evenodd" d="M35.8008 32.8196C36.3652 32.8196 36.8228 33.2771 36.8228 33.8416V54.5876C36.8228 55.2356 36.8272 55.8745 36.8315 56.4983C36.8398 57.7064 36.8477 58.8583 36.8226 59.9121C36.7845 61.5141 36.6699 62.9974 36.3366 64.2606C36.0003 65.5353 35.4196 66.6682 34.3916 67.4672C33.3641 68.2658 32.0226 68.6276 30.3698 68.6276C29.8054 68.6276 29.3478 68.17 29.3478 67.6056C29.3478 67.0411 29.8054 66.5836 30.3698 66.5836C31.7345 66.5836 32.5807 66.2859 33.1372 65.8533C33.6934 65.4211 34.0932 64.7511 34.3602 63.7391C34.6303 62.7155 34.7419 61.4282 34.7792 59.8635C34.8035 58.8395 34.7959 57.7428 34.7877 56.5573C34.7833 55.9267 34.7788 55.2709 34.7788 54.5876V33.8416C34.7788 33.2771 35.2364 32.8196 35.8008 32.8196Z" fill="#1C3553"/>
<path fill-rule="evenodd" clip-rule="evenodd" d="M35.521 32.8196C36.0854 32.8196 36.543 33.2771 36.543 33.8416V54.5876C36.543 55.2709 36.5385 55.9267 36.5341 56.5573C36.5259 57.7428 36.5183 58.8395 36.5426 59.8635C36.5799 61.4282 36.6915 62.7155 36.9616 63.7391C37.2286 64.7511 37.6284 65.4211 38.1846 65.8533C38.7411 66.2859 39.5873 66.5836 40.952 66.5836C41.5164 66.5836 41.974 67.0411 41.974 67.6056C41.974 68.17 41.5164 68.6276 40.952 68.6276C39.2992 68.6276 37.9578 68.2658 36.9302 67.4672C35.9022 66.6682 35.3215 65.5353 34.9852 64.2606C34.6519 62.9974 34.5373 61.5141 34.4992 59.9121C34.4741 58.8583 34.482 57.7064 34.4903 56.4983C34.4946 55.8745 34.499 55.2356 34.499 54.5876V33.8416C34.499 33.2771 34.9566 32.8196 35.521 32.8196Z" fill="#1C3553"/>
</svg>
