<svg width="96" height="96" viewBox="0 0 96 96" fill="none" xmlns="http://www.w3.org/2000/svg">
<path fill-rule="evenodd" clip-rule="evenodd" d="M20.765 30.2649C21.8696 30.2649 22.765 31.1603 22.765 32.2649V72.2649C22.765 73.3695 21.8696 74.2649 20.765 74.2649C19.6604 74.2649 18.765 73.3695 18.765 72.2649V32.2649C18.765 31.1603 19.6604 30.2649 20.765 30.2649Z" fill="#2988FF"/>
<path fill-rule="evenodd" clip-rule="evenodd" d="M75.765 30.2649C76.8696 30.2649 77.765 31.1603 77.765 32.2649V72.2649C77.765 73.3695 76.8696 74.2649 75.765 74.2649C74.6604 74.2649 73.765 73.3695 73.765 72.2649V32.2649C73.765 31.1603 74.6604 30.2649 75.765 30.2649Z" fill="#2988FF"/>
<path fill-rule="evenodd" clip-rule="evenodd" d="M19.265 35.0649C19.265 34.6231 19.6232 34.2649 20.065 34.2649H74.465C74.9068 34.2649 75.265 34.6231 75.265 35.0649C75.265 35.5067 74.9068 35.8649 74.465 35.8649H20.065C19.6232 35.8649 19.265 35.5067 19.265 35.0649Z" fill="#2988FF"/>
<path fill-rule="evenodd" clip-rule="evenodd" d="M14 23C14 21.8954 14.8954 21 16 21H80.53C81.6346 21 82.53 21.8954 82.53 23V30.53C82.53 31.6346 81.6346 32.53 80.53 32.53H16C14.8954 32.53 14 31.6346 14 30.53V23ZM18 25V28.53H78.53V25H18Z" fill="#2988FF"/>
<path fill-rule="evenodd" clip-rule="evenodd" d="M63.9542 54.501C63.9542 53.5345 64.7377 52.751 65.7042 52.751H68.3732C69.3397 52.751 70.1232 53.5345 70.1232 54.501C70.1232 55.4675 69.3397 56.251 68.3732 56.251H65.7042C64.7377 56.251 63.9542 55.4675 63.9542 54.501Z" fill="#1C3553"/>
<path fill-rule="evenodd" clip-rule="evenodd" d="M27.8238 54.501C27.8238 53.5345 28.6073 52.751 29.5738 52.751H32.2428C33.2093 52.751 33.9928 53.5345 33.9928 54.501C33.9928 55.4675 33.2093 56.251 32.2428 56.251H29.5738C28.6073 56.251 27.8238 55.4675 27.8238 54.501Z" fill="#1C3553"/>
<path fill-rule="evenodd" clip-rule="evenodd" d="M39.0564 42.6222C40.5233 41.3617 42.3108 40.3889 44.3028 40.3889H51.5528C52.5193 40.3889 53.3028 41.1724 53.3028 42.1389C53.3028 43.1054 52.5193 43.8889 51.5528 43.8889H44.3028C43.4723 43.8889 42.469 44.3045 41.3374 45.2768C40.2207 46.2364 39.1291 47.6136 38.1633 49.2023C37.2027 50.7822 36.4051 52.5078 35.8513 54.1098C35.2884 55.7379 35.0168 57.125 35.0168 58.0519V70.2229C35.0168 71.1894 34.2333 71.9729 33.2668 71.9729C32.3003 71.9729 31.5168 71.1894 31.5168 70.2229V58.0519C31.5168 56.5758 31.919 54.7723 32.5434 52.9662C33.1768 51.1339 34.0798 49.1816 35.1726 47.3841C36.2601 45.5952 37.5747 43.8954 39.0564 42.6222Z" fill="#1C3553"/>
<path fill-rule="evenodd" clip-rule="evenodd" d="M44.6445 42.1389C44.6445 41.1724 45.428 40.3889 46.3945 40.3889H53.6445C55.6365 40.3889 57.424 41.3617 58.8909 42.6222C60.3726 43.8954 61.6872 45.5952 62.7747 47.3841C63.8675 49.1816 64.7705 51.1339 65.4039 52.9662C66.0283 54.7723 66.4305 56.5758 66.4305 58.0519V70.2229C66.4305 71.1894 65.647 71.9729 64.6805 71.9729C63.714 71.9729 62.9305 71.1894 62.9305 70.2229V58.0519C62.9305 57.125 62.6589 55.7379 62.096 54.1098C61.5422 52.5078 60.7446 50.7822 59.784 49.2023C58.8182 47.6136 57.7266 46.2364 56.6099 45.2768C55.4783 44.3045 54.475 43.8889 53.6445 43.8889H46.3945C45.428 43.8889 44.6445 43.1054 44.6445 42.1389Z" fill="#1C3553"/>
<path fill-rule="evenodd" clip-rule="evenodd" d="M32.6601 66.2454C32.6601 65.2789 33.4436 64.4954 34.4101 64.4954H63.5371C64.5036 64.4954 65.2871 65.2789 65.2871 66.2454C65.2871 67.2119 64.5036 67.9954 63.5371 67.9954H34.4101C33.4436 67.9954 32.6601 67.2119 32.6601 66.2454Z" fill="#1C3553"/>
<path fill-rule="evenodd" clip-rule="evenodd" d="M34.8315 52.8671C34.8315 52.4253 35.1897 52.0671 35.6315 52.0671H62.3155C62.7573 52.0671 63.1155 52.4253 63.1155 52.8671C63.1155 53.309 62.7573 53.6671 62.3155 53.6671H35.6315C35.1897 53.6671 34.8315 53.309 34.8315 52.8671Z" fill="#1C3553"/>
<path fill-rule="evenodd" clip-rule="evenodd" d="M42.2024 61.4778C42.2024 60.5113 42.9859 59.7278 43.9524 59.7278H53.9954C54.9619 59.7278 55.7454 60.5113 55.7454 61.4778C55.7454 62.4443 54.9619 63.2278 53.9954 63.2278H43.9524C42.9859 63.2278 42.2024 62.4443 42.2024 61.4778Z" fill="#1C3553"/>
<path fill-rule="evenodd" clip-rule="evenodd" d="M38.7228 62.9349C39.5178 62.9349 40.1618 62.2909 40.1618 61.4959C40.1618 60.7019 39.5178 60.0579 38.7228 60.0579C37.9278 60.0579 37.2838 60.7019 37.2838 61.4959C37.2838 62.2909 37.9278 62.9349 38.7228 62.9349Z" fill="#1C3553"/>
<path fill-rule="evenodd" clip-rule="evenodd" d="M59.2245 62.9349C60.0195 62.9349 60.6635 62.2909 60.6635 61.4959C60.6635 60.7019 60.0195 60.0579 59.2245 60.0579C58.4295 60.0579 57.7855 60.7019 57.7855 61.4959C57.7855 62.2909 58.4295 62.9349 59.2245 62.9349Z" fill="#1C3553"/>
</svg>
