<svg width="96" height="96" viewBox="0 0 96 96" fill="none" xmlns="http://www.w3.org/2000/svg">
<path fill-rule="evenodd" clip-rule="evenodd" d="M24.3785 59.6695C24.7261 59.3344 25.1901 59.1472 25.6729 59.1472H70.7139C71.1967 59.1472 71.6607 59.3344 72.0083 59.6695L87.0592 74.1785C87.6068 74.7063 87.779 75.5138 87.4944 76.2191C87.2098 76.9244 86.5254 77.3862 85.7649 77.3862H10.6219C9.86135 77.3862 9.17699 76.9244 8.89239 76.2191C8.6078 75.5138 8.77998 74.7063 9.32754 74.1785L24.3785 59.6695ZM26.4255 62.8772L15.2438 73.6562H81.143L69.9613 62.8772H26.4255Z" fill="#2988FF"/>
<path fill-rule="evenodd" clip-rule="evenodd" d="M31.118 42.9534C31.4079 42.4692 32.0356 42.3117 32.5198 42.6016L35.4258 44.3416C35.9101 44.6316 36.0676 45.2592 35.7776 45.7435C35.4877 46.2277 34.8601 46.3852 34.3758 46.0953L31.4698 44.3553C30.9855 44.0653 30.828 43.4377 31.118 42.9534Z" fill="#1C3553"/>
<path fill-rule="evenodd" clip-rule="evenodd" d="M40.3001 34.2698C40.5901 34.7541 40.4326 35.3817 39.9483 35.6717L37.0423 37.4117C36.558 37.7017 35.9304 37.5441 35.6404 37.0599C35.3505 36.5756 35.508 35.948 35.9923 35.658L38.8983 33.918C39.3825 33.6281 40.0102 33.7856 40.3001 34.2698Z" fill="#1C3553"/>
<path fill-rule="evenodd" clip-rule="evenodd" d="M47.9624 52.1897C47.9624 51.4905 48.5292 50.9237 49.2284 50.9237H66.6904C67.3896 50.9237 67.9564 51.4905 67.9564 52.1897C67.9564 52.8889 67.3896 53.4557 66.6904 53.4557H49.2284C48.5292 53.4557 47.9624 52.8889 47.9624 52.1897Z" fill="#1C3553"/>
<path fill-rule="evenodd" clip-rule="evenodd" d="M50.6776 48.1205C51.3768 48.1205 51.9436 48.6873 51.9436 49.3865V59.1285C51.9436 59.8277 51.3768 60.3945 50.6776 60.3945C49.9784 60.3945 49.4116 59.8277 49.4116 59.1285V49.3865C49.4116 48.6873 49.9784 48.1205 50.6776 48.1205Z" fill="#1C3553"/>
<path fill-rule="evenodd" clip-rule="evenodd" d="M55.5326 48.1205C56.2318 48.1205 56.7986 48.6873 56.7986 49.3865V59.1285C56.7986 59.8277 56.2318 60.3945 55.5326 60.3945C54.8334 60.3945 54.2666 59.8277 54.2666 59.1285V49.3865C54.2666 48.6873 54.8334 48.1205 55.5326 48.1205Z" fill="#1C3553"/>
<path fill-rule="evenodd" clip-rule="evenodd" d="M60.3871 48.1205C61.0863 48.1205 61.6531 48.6873 61.6531 49.3865V59.1285C61.6531 59.8277 61.0863 60.3945 60.3871 60.3945C59.6879 60.3945 59.1211 59.8277 59.1211 59.1285V49.3865C59.1211 48.6873 59.6879 48.1205 60.3871 48.1205Z" fill="#1C3553"/>
<path fill-rule="evenodd" clip-rule="evenodd" d="M65.2421 48.1205C65.9413 48.1205 66.5081 48.6873 66.5081 49.3865V59.1285C66.5081 59.8277 65.9413 60.3945 65.2421 60.3945C64.5429 60.3945 63.9761 59.8277 63.9761 59.1285V49.3865C63.9761 48.6873 64.5429 48.1205 65.2421 48.1205Z" fill="#1C3553"/>
<path fill-rule="evenodd" clip-rule="evenodd" d="M26.8754 26.665C26.9652 21.8955 30.8016 17.9995 35.5933 17.9995C40.3834 17.9995 44.2189 21.8929 44.3111 26.6602C47.5254 27.9648 49.7818 31.1358 49.7818 34.84C49.7818 37.5603 48.5581 39.9688 46.657 41.5787C46.9098 42.5332 47.0468 43.5372 47.0468 44.576C47.0468 50.9581 41.9521 56.1935 35.5933 56.1935C29.2336 56.1935 24.1388 50.9582 24.1388 44.576C24.1388 43.5299 24.285 42.5315 24.5416 41.5891C22.634 39.9797 21.4038 37.5678 21.4038 34.84C21.4038 31.135 23.6635 27.9691 26.8754 26.665ZM35.5933 22.0865C33.0682 22.0865 30.9608 24.1791 30.9608 26.836C30.9608 26.8511 30.9629 26.9041 30.9972 27.0587C31.0117 27.1241 31.0269 27.1866 31.0475 27.2714C31.0528 27.2931 31.0584 27.3163 31.0645 27.3415C31.0914 27.4527 31.1256 27.5956 31.156 27.7497C31.2643 28.2975 31.1437 28.8658 30.8223 29.3224C30.5008 29.779 30.0065 30.0841 29.4543 30.1669C27.2305 30.5003 25.4908 32.4418 25.4908 34.84C25.4908 36.6454 26.4905 38.1971 27.9607 39.0032C28.8829 39.5088 29.2707 40.6317 28.8572 41.5986C28.4558 42.5369 28.2258 43.5314 28.2258 44.576C28.2258 48.7678 31.557 52.1065 35.5933 52.1065C39.6285 52.1065 42.9598 48.7679 42.9598 44.576C42.9598 43.5119 42.7397 42.5037 42.3482 41.5813C41.9392 40.6177 42.3247 39.5008 43.2409 38.9944C44.7024 38.1868 45.6948 36.639 45.6948 34.84C45.6948 32.4633 43.9917 30.536 41.8047 30.1741C41.2604 30.084 40.7756 29.7777 40.4606 29.3247C40.1456 28.8717 40.0271 28.3106 40.1322 27.769C40.1932 27.4542 40.2258 27.144 40.2258 26.836C40.2258 24.1791 38.1185 22.0865 35.5933 22.0865Z" fill="#1C3553"/>
<path fill-rule="evenodd" clip-rule="evenodd" d="M35.8011 32.8196C36.3656 32.8196 36.8231 33.2771 36.8231 33.8416V54.5876C36.8231 55.2356 36.8275 55.8745 36.8318 56.4983C36.8401 57.7064 36.848 58.8583 36.8229 59.9121C36.7848 61.5141 36.6703 62.9974 36.3369 64.2606C36.0006 65.5353 35.4199 66.6682 34.3919 67.4672C33.3644 68.2658 32.0229 68.6276 30.3701 68.6276C29.8057 68.6276 29.3481 68.17 29.3481 67.6056C29.3481 67.0411 29.8057 66.5836 30.3701 66.5836C31.7349 66.5836 32.581 66.2859 33.1376 65.8533C33.6937 65.4211 34.0936 64.7511 34.3606 63.7391C34.6307 62.7155 34.7423 61.4282 34.7795 59.8635C34.8039 58.8395 34.7963 57.7428 34.7881 56.5573C34.7837 55.9267 34.7791 55.2709 34.7791 54.5876V33.8416C34.7791 33.2771 35.2367 32.8196 35.8011 32.8196Z" fill="#1C3553"/>
<path fill-rule="evenodd" clip-rule="evenodd" d="M35.5212 32.8196C36.0856 32.8196 36.5432 33.2771 36.5432 33.8416V54.5876C36.5432 55.2709 36.5386 55.9267 36.5342 56.5573C36.526 57.7428 36.5184 58.8395 36.5428 59.8635C36.58 61.4282 36.6916 62.7155 36.9617 63.7391C37.2288 64.7511 37.6286 65.4211 38.1847 65.8533C38.7413 66.2859 39.5874 66.5836 40.9522 66.5836C41.5166 66.5836 41.9742 67.0411 41.9742 67.6056C41.9742 68.17 41.5166 68.6276 40.9522 68.6276C39.2994 68.6276 37.9579 68.2658 36.9304 67.4672C35.9024 66.6682 35.3217 65.5353 34.9854 64.2606C34.6521 62.9974 34.5375 61.5141 34.4994 59.9121C34.4743 58.8583 34.4822 57.7064 34.4905 56.4983C34.4948 55.8745 34.4992 55.2356 34.4992 54.5876V33.8416C34.4992 33.2771 34.9567 32.8196 35.5212 32.8196Z" fill="#1C3553"/>
</svg>
