<svg width="96" height="96" viewBox="0 0 96 96" fill="none" xmlns="http://www.w3.org/2000/svg">
<path d="M77.8999 55.4996C78.9999 55.4996 79.8999 54.5996 79.7999 53.4996C79.7999 52.3996 78.8999 51.5996 77.7999 51.5996C76.6999 51.5996 75.8999 52.4996 75.8999 53.5996C75.8999 54.5996 76.7999 55.4996 77.8999 55.4996Z" fill="#2988FF"/>
<path d="M65.2999 53.4995C65.2999 54.5995 66.1999 55.3995 67.2999 55.3995C68.3999 55.3995 69.2999 54.4995 69.2999 53.3995C69.2999 52.3995 68.3999 51.4995 67.2999 51.4995C66.1999 51.4995 65.1999 52.4995 65.2999 53.4995Z" fill="#2988FF"/>
<path d="M88.9998 61.5995C88.9998 60.8995 88.3998 60.2995 87.6998 60.1995C86.9998 60.1995 86.2998 60.7995 86.2998 61.5995C86.2998 62.3995 86.8998 62.9995 87.6998 62.9995C88.4998 62.9995 88.9998 62.3995 88.9998 61.5995Z" fill="#2988FF"/>
<path d="M90.8999 69.4995C91.3999 69.4995 91.4999 69.0995 91.4999 68.6995C91.4999 68.3995 91.4999 68.0995 91.4999 67.8995C91.4999 67.1995 91.4999 66.4995 91.4999 65.7995C91.4999 64.3995 90.7999 63.7995 89.4999 63.7995C88.9999 63.7995 88.3999 63.7995 87.8999 63.7995C87.0999 63.7995 86.1999 63.7995 85.3999 63.7995C84.8999 63.7995 84.6999 63.4995 84.5999 63.0995C84.1999 61.4995 83.6999 59.8995 83.1999 58.2995C82.6999 56.7995 81.8999 56.1995 80.2999 56.1995C78.9999 56.1995 77.6999 56.1995 76.3999 56.1995C74.4999 56.1995 73.6999 56.7995 73.1999 58.5995C72.9999 59.0995 72.8999 59.5995 72.6999 60.1995C72.5999 60.3995 72.5999 60.5995 72.4999 60.8995C72.1999 60.1995 71.9999 59.5995 71.7999 58.9995C71.6999 58.6995 71.5999 58.4995 71.4999 58.1995C71.0999 56.8995 70.1999 56.2995 68.7999 56.2995C67.6999 56.2995 66.5999 56.2995 65.4999 56.2995C64.1999 56.2995 63.2999 56.8995 62.8999 58.0995C62.6999 58.5995 62.5999 59.0995 62.4999 59.4995C62.4999 59.5995 62.3999 59.6995 62.3999 59.7995L62.2999 59.9995C61.8999 61.1995 61.5999 62.4995 61.1999 63.6995C61.0999 64.1995 61.1999 64.6995 61.6999 64.7995C62.2999 64.8995 62.5999 64.5995 62.7999 64.0995C62.7999 63.9995 62.7999 63.9995 62.7999 63.8995V63.7995C62.8999 63.3995 63.0999 62.8995 63.1999 62.4995C63.4999 61.4995 63.7999 60.4995 64.0999 59.4995C64.1999 58.9995 64.3999 58.7995 64.9999 59.0995C64.2999 62.0995 63.5999 65.0995 62.7999 68.1995H64.7999V68.9995C64.7999 69.4995 64.7999 70.0995 64.7999 70.5995C64.7999 71.7995 64.7999 73.0995 64.7999 74.2995C64.7999 75.1995 65.0999 75.5995 65.7999 75.5995C66.3999 75.5995 66.7999 75.0995 66.7999 74.1995C66.7999 73.4995 66.7999 72.8995 66.7999 72.1995C66.7999 71.8995 66.7999 71.5995 66.7999 71.3995V68.1995H67.5999V68.9995C67.5999 69.4995 67.5999 69.9995 67.5999 70.4995C67.5999 71.7995 67.5999 72.9995 67.5999 74.2995C67.5999 75.1995 67.9999 75.6995 68.5999 75.6995C69.1999 75.6995 69.5999 75.1995 69.5999 74.2995C69.5999 73.4995 69.5999 72.5995 69.5999 71.7995C69.5999 71.4995 69.5999 71.0995 69.5999 70.7995V68.1995H71.4999C70.9999 66.0995 70.4999 64.0995 69.9999 61.9995L69.3999 58.9995C69.8999 58.7995 70.0999 58.8995 70.1999 59.3995C70.3999 60.2995 70.6999 61.0995 70.8999 61.9995C71.0999 62.5995 71.2999 63.2995 71.4999 63.8995C71.5999 64.3995 71.7999 64.7995 72.3999 64.7995C72.9999 64.7995 73.1999 64.3995 73.3999 63.8995C73.5999 63.2995 73.7999 62.6995 73.8999 61.9995C74.1999 61.0995 74.3999 60.1995 74.6999 59.2995C74.7999 58.7995 74.9999 58.6995 75.4999 58.8995V59.6995V69.2995C75.4999 69.7995 75.4999 70.1995 75.4999 70.6995C75.4999 71.8995 75.4999 72.9995 75.4999 74.1995C75.4999 75.1995 76.1999 75.6995 76.9999 75.4995C77.6999 75.2995 77.7999 74.6995 77.7999 74.0995C77.7999 72.3995 77.7999 70.6995 77.7999 68.9995C77.7999 68.1995 77.7999 67.2995 77.7999 66.4995V65.5995H78.5999V69.4995C78.5999 69.8995 78.5999 70.3995 78.5999 70.7995C78.5999 71.8995 78.5999 72.9995 78.5999 74.0995C78.5999 74.9995 78.9999 75.4995 79.6999 75.4995C80.4999 75.4995 80.8999 74.9995 80.8999 74.0995C80.8999 73.8995 80.8999 73.7995 80.8999 73.6995C80.8999 73.5995 80.8999 73.5995 80.8999 73.4995V59.7995V58.9995C81.3999 58.7995 81.6999 58.8995 81.7999 59.3995C81.9999 60.0995 82.1999 60.7995 82.3999 61.5995C82.5999 62.2995 82.7999 62.9995 82.9999 63.6995C83.1999 64.3995 83.4999 64.6995 84.1999 64.8995C84.5999 64.9995 84.9999 65.0995 85.2999 65.1995C85.4999 65.1995 85.6999 65.2995 85.7999 65.3995V66.2995C85.7999 67.0995 85.7999 67.8995 85.7999 68.5995C85.7999 70.5995 85.7999 72.6995 85.7999 74.6995C85.7999 75.2995 85.8999 75.7995 86.5999 75.7995C87.2999 75.7995 87.3999 75.2995 87.3999 74.6995C87.3999 74.3995 87.3999 74.0995 87.3999 73.6995C87.3999 72.8995 87.3999 71.9995 87.3999 71.1995C87.3999 70.8995 87.5999 70.1995 87.6999 70.1995C88.1999 70.2995 88.0999 70.5995 88.0999 70.8995C88.0999 70.9995 88.0999 71.0995 88.0999 71.1995C88.0999 72.1995 88.0999 73.0995 88.0999 74.0995C88.0999 74.2995 88.0999 74.5995 88.0999 74.7995C88.0999 75.2995 88.1999 75.7995 88.8999 75.7995C89.5999 75.7995 89.6999 75.3995 89.6999 74.7995C89.6999 74.6995 89.6999 74.5995 89.6999 74.4995C89.6999 74.3995 89.6999 74.2995 89.6999 74.1995C89.6999 73.6995 89.6999 73.1995 89.6999 72.6995C89.6999 70.6995 89.6999 68.6995 89.6999 66.6995C89.6999 66.5995 89.7999 66.3995 89.8999 66.2995C89.8999 66.1995 89.9999 66.1995 89.9999 66.0995C89.9999 66.1995 90.0999 66.1995 90.0999 66.2995C90.1999 66.3995 90.2999 66.4995 90.2999 66.6995C90.2999 67.2995 90.2999 67.7995 90.2999 68.3995C90.2999 68.5995 90.2999 68.7995 90.2999 68.9995C90.2999 69.0995 90.3999 69.4995 90.8999 69.4995Z" fill="#2988FF"/>
<path d="M43.2996 60.0996H47.0996C47.4996 60.0996 47.7996 59.7996 47.7996 59.3996V52.4996C47.7996 52.0996 47.4996 51.7996 47.0996 51.7996H43.2996C42.8996 51.7996 42.5996 52.0996 42.5996 52.4996V59.3996C42.5996 59.7996 42.8996 60.0996 43.2996 60.0996ZM43.9996 53.1996H46.2996V58.5996H43.9996V53.1996Z" fill="#2988FF"/>
<path d="M35.7998 83.2995C36.3998 83.2995 36.7998 82.8995 36.7998 82.2995V76.4995C36.9998 76.5995 37.1998 76.5995 37.3998 76.5995C42.6998 76.5995 47.3998 76.5995 50.6998 76.5995C52.3998 76.5995 53.6998 76.5995 54.4998 76.5995C57.0998 76.5995 58.2998 75.3995 58.2998 72.7995V49.2995H59.4998C60.5998 49.2995 61.7998 49.2995 62.8998 49.2995C64.9998 49.3995 65.7998 48.2995 66.1998 47.3995C66.7998 46.0995 66.3998 44.7995 65.1998 43.6995C63.6998 42.2995 55.3998 34.4995 48.6998 28.1995C44.3998 24.0995 40.5998 20.5995 39.6998 19.7995C38.7998 18.8995 37.7998 18.5995 36.7998 18.6995V11.9995C36.7998 11.3995 36.3998 10.9995 35.7998 10.9995C35.1998 10.9995 34.7998 11.3995 34.7998 11.9995V82.2995C34.7998 82.7995 35.2998 83.2995 35.7998 83.2995ZM36.8998 22.6995C37.8998 23.5995 41.4998 27.0995 45.7998 31.0995C51.2998 36.1995 57.6998 42.2995 60.7998 45.0995C60.2998 45.0995 59.8998 45.0995 59.3998 45.0995H57.6998C55.3998 45.0995 54.0998 46.3995 54.0998 48.6995V72.2995C53.2998 72.2995 52.0998 72.2995 50.5998 72.2995C47.2998 72.2995 42.5998 72.2995 37.3998 72.2995C37.1998 72.2995 36.9998 72.2995 36.7998 72.3995L36.8998 22.6995C36.7998 22.6995 36.8998 22.6995 36.8998 22.6995Z" fill="#2988FF"/>
<path d="M6.50007 49.1996C8.10007 49.1996 9.70007 49.1996 11.2001 49.1996V72.6996C11.2001 75.1996 12.4001 76.4996 15.0001 76.4996H31.0001C32.1001 76.4996 33.1001 75.5996 33.1001 74.3996C33.1001 73.1996 32.2001 72.2996 31.0001 72.2996H15.3001V48.6996C15.3001 46.3996 14.0001 45.0996 11.7001 45.0996C10.7001 45.0996 9.60007 45.0996 8.60007 45.0996C13.2001 40.7996 25.6001 29.1996 30.5001 24.5996L32.5001 22.6996C33.3001 21.8996 33.4001 20.5996 32.6001 19.7996C31.8001 18.9996 30.5001 18.8996 29.7001 19.6996L27.7001 21.5996C22.0001 26.8996 6.40007 41.5996 4.30007 43.5996C3.10007 44.7996 2.70007 45.9996 3.30007 47.3996C3.70007 48.1996 4.50007 49.1996 6.50007 49.1996Z" fill="#1C3553"/>
</svg>
