<svg width="96" height="97" viewBox="0 0 96 97" fill="none" xmlns="http://www.w3.org/2000/svg">
<path d="M67.0001 52.9992C68.1001 52.9992 69.0001 52.0992 69.0001 51.0992C69.0001 50.0992 68.1001 49.1992 67.1001 49.1992C66.0001 49.1992 65.1001 50.0992 65.1001 51.1992C65.1001 52.0992 66.0001 52.9992 67.0001 52.9992Z" fill="#2988FF"/>
<path d="M88.8999 61.0991C88.3999 61.0991 87.7999 61.0991 87.2999 61.0991C86.4999 61.0991 85.6999 61.0991 84.7999 61.0991C84.2999 61.0991 84.0999 60.7991 83.9999 60.3991C83.5999 58.7991 83.0999 57.2991 82.6999 55.6991C82.1999 54.1991 81.3999 53.5991 79.8999 53.5991C78.5999 53.5991 77.2999 53.5991 75.9999 53.5991C74.0999 53.5991 73.3999 54.1991 72.8999 55.9991C72.7999 56.4991 72.5999 56.8991 72.4999 57.3991C72.3999 57.6991 72.2999 57.8991 72.2999 58.1991C71.9999 57.5991 71.7999 56.8991 71.5999 56.2991C71.4999 55.9991 71.3999 55.7991 71.2999 55.4991C70.8999 54.1991 69.9999 53.5991 68.6999 53.5991C67.5999 53.5991 66.4999 53.5991 65.3999 53.5991C64.0999 53.5991 63.2999 54.1991 62.7999 55.3991C62.5999 55.8991 62.4999 56.2991 62.3999 56.7991C62.3999 56.8991 62.2999 56.9991 62.2999 57.0991V57.2991C61.8999 58.4991 61.5999 59.7991 61.1999 60.9991C61.0999 61.4991 61.1999 61.9991 61.6999 62.0991C62.2999 62.2991 62.5999 61.8991 62.7999 61.3991C62.7999 61.2991 62.7999 61.2991 62.7999 61.1991V61.0991C62.8999 60.6991 62.9999 60.2991 63.1999 59.8991C63.4999 58.8991 63.7999 57.8991 64.0999 56.8991C64.1999 56.3991 64.3999 56.1991 64.9999 56.4991C64.2999 59.4991 63.5999 62.3991 62.7999 65.4991H64.7999V66.3991C64.7999 67.0991 64.7999 67.6991 64.7999 68.3991C64.7999 69.4991 64.7999 70.4991 64.7999 71.5991C64.7999 72.4991 65.0999 72.8991 65.7999 72.8991C66.3999 72.8991 66.7999 72.3991 66.7999 71.5991C66.7999 70.9991 66.7999 70.2991 66.7999 69.6991C66.7999 69.3991 66.7999 69.0991 66.7999 68.7991V65.5991H67.5999V66.3991C67.5999 66.8991 67.5999 67.3991 67.5999 67.8991C67.5999 69.0991 67.5999 70.3991 67.5999 71.5991C67.5999 72.4991 67.8999 72.9991 68.5999 72.9991C69.1999 72.9991 69.4999 72.4991 69.4999 71.6991C69.4999 70.8991 69.4999 69.9991 69.4999 69.1991C69.4999 68.8991 69.4999 68.4991 69.4999 68.1991V65.5991H71.3999L70.8999 63.2991C70.3999 61.0991 69.7999 58.8991 69.2999 56.6991C69.7999 56.4991 69.9999 56.5991 70.0999 57.0991C70.2999 57.9991 70.5999 58.7991 70.7999 59.6991C70.9999 60.2991 71.1999 60.9991 71.2999 61.5991C71.3999 62.0991 71.5999 62.3991 72.1999 62.4991C72.7999 62.4991 72.9999 62.0991 73.1999 61.5991C73.3999 60.9991 73.5999 60.3991 73.6999 59.7991C73.9999 58.8991 74.1999 57.9991 74.3999 57.1991C74.4999 56.6991 74.6999 56.5991 75.1999 56.7991V57.5991V66.9991C75.1999 67.4991 75.1999 67.8991 75.1999 68.3991C75.1999 69.4991 75.1999 70.6991 75.1999 71.7991C75.1999 72.6991 75.8999 73.2991 76.6999 72.9991C77.3999 72.7991 77.4999 72.2991 77.4999 71.6991C77.4999 69.9991 77.4999 68.3991 77.4999 66.6991C77.4999 65.8991 77.4999 64.9991 77.4999 64.1991V63.2991H78.2999V67.0991C78.2999 67.4991 78.2999 67.8991 78.2999 68.2991C78.2999 69.3991 78.2999 70.4991 78.2999 71.6991C78.2999 72.5991 78.6999 73.0991 79.3999 73.0991C80.0999 73.0991 80.4999 72.6991 80.5999 71.6991C80.5999 71.5991 80.5999 71.3991 80.5999 71.2991V71.1991V71.0991V57.2991V56.4991C81.0999 56.2991 81.3999 56.3991 81.4999 56.8991C81.6999 57.5991 81.8999 58.2991 82.0999 58.9991C82.2999 59.6991 82.4999 60.3991 82.6999 60.9991C82.8999 61.5991 83.1999 61.9991 83.8999 62.1991C84.2999 62.2991 84.5999 62.3991 84.9999 62.4991C85.1999 62.5991 85.3999 62.5991 85.4999 62.6991V63.5991C85.4999 64.3991 85.4999 65.0991 85.4999 65.8991C85.4999 67.8991 85.4999 69.8991 85.4999 71.8991C85.4999 72.4991 85.5999 72.9991 86.2999 72.9991C86.9999 72.9991 87.0999 72.4991 87.0999 71.8991C87.0999 71.5991 87.0999 71.1991 87.0999 70.8991C87.0999 70.0991 87.0999 69.2991 87.0999 68.4991C87.0999 68.1991 87.2999 67.4991 87.3999 67.5991C87.8999 67.6991 87.7999 67.9991 87.6999 68.2991C87.6999 68.3991 87.6999 68.4991 87.6999 68.5991C87.6999 69.5991 87.6999 70.4991 87.6999 71.4991C87.6999 71.6991 87.6999 71.9991 87.6999 72.1991C87.6999 72.6991 87.7999 73.1991 88.4999 73.1991C89.1999 73.1991 89.2999 72.7991 89.2999 72.1991C89.2999 72.0991 89.2999 71.8991 89.2999 71.7991V71.6991V71.5991C89.2999 71.0991 89.2999 70.5991 89.2999 70.0991C89.2999 68.0991 89.2999 66.1991 89.2999 64.1991C89.2999 64.0991 89.3999 63.9991 89.4999 63.7991C89.4999 63.6991 89.5999 63.6991 89.5999 63.5991C89.5999 63.6991 89.6999 63.6991 89.6999 63.7991C89.7999 63.8991 89.8999 63.9991 89.8999 64.1991C89.8999 64.7991 89.8999 65.2991 89.8999 65.7991C89.8999 65.9991 89.8999 66.1991 89.8999 66.3991C89.8999 66.7991 89.9999 67.1991 90.4999 67.1991C90.9999 67.1991 91.0999 66.7991 91.0999 66.3991C91.0999 66.0991 91.0999 65.8991 91.0999 65.5991C91.0999 64.8991 91.0999 64.1991 91.0999 63.4991C90.8999 61.7991 90.2999 61.0991 88.8999 61.0991Z" fill="#2988FF"/>
<path d="M88.4998 59.0991C88.4998 58.3991 87.8998 57.7991 87.1998 57.7991C86.4998 57.7991 85.7998 58.3991 85.7998 59.0991C85.7998 59.7991 86.3998 60.3991 87.1998 60.3991C87.9998 60.3991 88.4998 59.7991 88.4998 59.0991Z" fill="#2988FF"/>
<path d="M77.5 52.9992C78.6 52.9992 79.4 52.0992 79.4 51.0992C79.4 50.0992 78.5 49.1992 77.4 49.1992C76.3 49.1992 75.5 50.0992 75.5 51.1992C75.6 52.1992 76.5 52.9992 77.5 52.9992Z" fill="#2988FF"/>
<path d="M21.3001 67.7992C21.3001 66.9992 20.6001 66.3992 19.9001 66.3992C19.2001 66.3992 18.6001 66.9992 18.6001 67.7992C18.6001 68.5992 19.2001 69.1992 20.0001 69.1992C20.7001 69.1992 21.3001 68.4992 21.3001 67.7992Z" fill="#2988FF"/>
<path d="M28.1997 58.0991C27.0997 58.0991 26.1997 58.9991 26.1997 60.0991C26.1997 61.1991 27.0997 61.9991 28.1997 61.9991C29.2997 61.9991 30.1997 61.0991 30.1997 59.9991C30.0997 58.9991 29.1997 58.0991 28.1997 58.0991Z" fill="#2988FF"/>
<path d="M36.7998 60.0992C36.7998 61.1992 37.6998 61.9992 38.7998 61.9992C39.8998 61.9992 40.7998 61.0992 40.6998 59.9992C40.6998 58.8992 39.7998 57.9992 38.6998 58.0992C37.6998 58.0992 36.7998 58.9992 36.7998 60.0992Z" fill="#2988FF"/>
<path d="M47.2998 68.1991C47.2998 68.9991 47.8998 69.5991 48.6998 69.5991C49.4998 69.5991 50.0998 68.9991 50.0998 68.1991C50.0998 67.4991 49.4998 66.8991 48.7998 66.7991C47.8998 66.7991 47.2998 67.4991 47.2998 68.1991Z" fill="#2988FF"/>
<path d="M31.0999 65.8992C31.4999 67.3992 31.9999 68.8992 32.3999 70.4992C32.4999 70.9992 32.6999 71.3992 33.2999 71.3992C33.8999 71.3992 34.0999 70.9992 34.2999 70.4992C34.6999 68.9992 35.1999 67.4992 35.5999 65.8992C35.6999 65.3992 35.8999 65.2992 36.3999 65.4992V66.2992V75.8992C36.3999 77.4992 36.3999 79.1992 36.3999 80.7992C36.3999 81.7992 37.0999 82.2992 37.8999 82.0992C38.5999 81.8992 38.6999 81.2992 38.6999 80.6992C38.6999 78.1992 38.6999 75.5992 38.6999 73.0992V72.1992H39.4999V76.0992C39.4999 77.6992 39.4999 79.1992 39.4999 80.7992C39.4999 81.6992 39.8999 82.1992 40.5999 82.1992C41.3999 82.1992 41.7999 81.6992 41.7999 80.7992C41.7999 80.5992 41.7999 80.3992 41.7999 80.1992V66.3992V65.5992C42.2999 65.3992 42.5999 65.4992 42.6999 65.9992C43.0999 67.3992 43.4999 68.7992 43.7999 70.1992C43.9999 70.8992 44.2999 71.2992 44.9999 71.3992C45.5999 71.4992 46.0999 71.6992 46.6999 71.8992V72.7992C46.6999 75.5992 46.6999 78.3992 46.6999 81.1992C46.6999 81.7992 46.7999 82.2992 47.4999 82.2992C48.1999 82.2992 48.2999 81.6992 48.2999 81.1992C48.2999 79.9992 48.2999 78.8992 48.2999 77.6992C48.2999 77.4992 48.3999 77.2992 48.3999 77.0992C48.4999 76.8992 48.4999 76.6992 48.5999 76.6992C49.1999 76.7992 48.8999 77.2992 48.8999 77.5992C48.8999 78.7992 48.8999 79.9992 48.8999 81.1992C48.8999 81.6992 48.9999 82.1992 49.6999 82.1992C50.3999 82.1992 50.4999 81.7992 50.4999 81.1992C50.4999 80.9992 50.4999 80.7992 50.4999 80.4992C50.4999 77.9992 50.4999 75.4992 50.4999 72.9992C50.4999 72.7992 50.6999 72.5992 50.7999 72.3992C50.8999 72.5992 51.0999 72.7992 51.0999 72.9992C51.0999 73.7992 51.0999 74.4992 51.0999 75.2992C51.0999 75.6992 51.1999 76.0992 51.6999 76.0992C52.1999 76.0992 52.2999 75.6992 52.2999 75.2992C52.2999 74.2992 52.2999 73.2992 52.2999 72.3992C52.2999 70.9992 51.5999 70.3992 50.2999 70.3992C48.8999 70.3992 47.4999 70.2992 46.1999 70.2992C45.6999 70.2992 45.4999 69.9992 45.3999 69.5992C44.9999 67.9992 44.4999 66.3992 43.9999 64.7992C43.4999 63.2992 42.6999 62.6992 41.0999 62.6992C39.7999 62.6992 38.4999 62.6992 37.1999 62.6992C35.2999 62.6992 34.4999 63.2992 33.9999 65.0992C33.7999 65.8992 33.5999 66.5992 33.2999 67.2992C32.8999 66.3992 32.5999 65.4992 32.2999 64.5992C31.8999 63.2992 30.9999 62.6992 29.5999 62.6992C28.4999 62.6992 27.3999 62.6992 26.2999 62.6992C24.9999 62.6992 24.0999 63.2992 23.6999 64.4992C23.4999 65.0992 23.2999 65.5992 23.1999 66.1992C22.8999 67.2992 22.5999 68.3992 22.2999 69.3992C22.1999 69.6992 21.9999 69.7992 21.5999 69.7992C21.4999 69.7992 21.2999 69.7992 21.1999 69.7992C21.1999 69.7992 19.8999 69.8992 19.1999 69.8992C18.3999 69.8992 17.7999 70.2992 17.4999 71.0992C17.3999 71.4992 17.2999 71.7992 17.1999 72.1992C16.9999 73.0992 16.6999 73.8992 16.4999 74.6992C16.3999 74.9992 16.4999 75.2992 16.7999 75.3992C17.1999 75.4992 17.3999 75.2992 17.4999 74.9992C17.4999 74.8992 17.4999 74.8992 17.4999 74.7992C17.7999 73.8992 17.9999 72.9992 18.2999 71.9992C18.3999 71.6992 18.4999 71.4992 18.8999 71.6992C18.3999 73.5992 17.9999 75.4992 17.4999 77.4992H18.7999V78.0992C18.7999 79.1992 18.7999 80.2992 18.7999 81.4992C18.7999 82.0992 18.9999 82.2992 19.3999 82.2992C19.7999 82.2992 19.9999 81.9992 19.9999 81.3992C19.9999 80.7992 19.9999 80.1992 19.9999 79.5992V77.4992H20.4999V77.9992C20.4999 79.0992 20.4999 80.1992 20.4999 81.3992C20.4999 81.9992 20.6999 82.2992 21.0999 82.2992C21.4999 82.2992 21.6999 81.9992 21.6999 81.3992C21.6999 80.5992 21.6999 79.8992 21.6999 79.1992V77.4992H22.8999C22.3999 75.4992 21.6999 71.4992 21.6999 71.1992C21.9999 71.0992 22.3999 70.9992 22.6999 70.8992C23.3999 70.6992 23.6999 70.3992 23.8999 69.6992C23.9999 69.3992 24.0999 69.0992 24.1999 68.6992C24.4999 67.7992 24.6999 66.7992 24.9999 65.8992C25.0999 65.3992 25.2999 65.1992 25.8999 65.4992C25.1999 68.4992 24.4999 71.4992 23.6999 74.5992H25.6999V75.4992C25.6999 77.2992 25.6999 78.9992 25.6999 80.7992C25.6999 81.6992 25.9999 82.0992 26.6999 82.0992C27.2999 82.0992 27.6999 81.5992 27.6999 80.7992C27.6999 79.7992 27.6999 78.8992 27.6999 77.8992V74.6992H28.4999V75.4992C28.4999 77.2992 28.4999 78.9992 28.4999 80.7992C28.4999 81.6992 28.8999 82.1992 29.4999 82.1992C30.0999 82.1992 30.4999 81.6992 30.4999 80.8992C30.4999 79.6992 30.4999 78.4992 30.4999 77.2992V74.6992H32.3999C31.6999 71.5992 30.8999 68.5992 30.1999 65.5992C30.7999 65.3992 30.9999 65.4992 31.0999 65.8992Z" fill="#2988FF"/>
<path d="M20.4002 45.8992C20.0002 45.8992 19.7002 46.1992 19.7002 46.5992V52.7992C19.7002 53.1992 20.0002 53.4992 20.4002 53.4992H23.8002C24.2002 53.4992 24.5002 53.1992 24.5002 52.7992V46.5992C24.5002 46.1992 24.2002 45.8992 23.8002 45.8992H20.4002ZM23.0002 52.0992H21.1002V47.3992H23.0002V52.0992Z" fill="#1C3553"/>
<path d="M48.6 53.4992C49 53.4992 49.3 53.1992 49.3 52.7992V46.5992C49.3 46.1992 49 45.8992 48.6 45.8992H45.2C44.8 45.8992 44.5 46.1992 44.5 46.5992V52.7992C44.5 53.1992 44.8 53.4992 45.2 53.4992H48.6ZM46 47.3992H47.9V52.0992H46V47.3992Z" fill="#1C3553"/>
<path d="M32.1001 52.7992C32.1001 53.1992 32.4001 53.4992 32.8001 53.4992H36.2001C36.6001 53.4992 36.9001 53.1992 36.9001 52.7992V46.5992C36.9001 46.1992 36.6001 45.8992 36.2001 45.8992H32.8001C32.4001 45.8992 32.1001 46.1992 32.1001 46.5992V52.7992ZM33.6001 47.3992H35.5001V52.0992H33.6001V47.3992Z" fill="#1C3553"/>
<path d="M32.8001 40.1991H36.2001C36.6001 40.1991 36.9001 39.8991 36.9001 39.4991V33.2991C36.9001 32.8991 36.6001 32.5991 36.2001 32.5991H32.8001C32.4001 32.5991 32.1001 32.8991 32.1001 33.2991V39.4991C32.1001 39.8991 32.4001 40.1991 32.8001 40.1991ZM33.6001 33.9991H35.5001V38.6991H33.6001V33.9991Z" fill="#1C3553"/>
<path d="M5.70022 45.5992C7.00022 45.5992 7.70022 45.5992 8.60022 45.5992H9.70022V70.5992C9.70022 73.2992 11.0002 74.4992 13.6002 74.4992C14.7002 74.4992 15.6002 73.5992 15.6002 72.4992C15.6002 71.3992 14.7002 70.4992 13.7002 70.4992V45.2992C13.7002 42.8992 12.4002 41.5992 10.0002 41.5992H8.70022C8.20022 41.5992 7.80022 41.5992 7.30022 41.5992C11.5002 37.6992 23.8002 26.0992 30.4002 19.8992L34.4002 16.0992C34.4002 16.0992 34.4002 16.0992 34.5002 15.9992H34.6002C34.6002 15.9992 34.6002 15.9992 34.7002 16.0992L40.3002 21.3992C47.1002 27.7992 58.0002 37.9992 61.8002 41.5992C61.3002 41.5992 60.9002 41.5992 60.4002 41.5992H59.0002C56.6002 41.5992 55.3002 42.8992 55.3002 45.2992V70.4992C54.2002 70.4992 53.4002 71.3992 53.4002 72.4992C53.4002 73.5992 54.3002 74.4992 55.4002 74.4992C58.1002 74.4992 59.3002 73.2992 59.3002 70.5992V45.5992H60.4002C61.3002 45.5992 62.0002 45.5992 63.3002 45.5992C65.4002 45.5992 66.3002 44.4992 66.7002 43.5992C67.6002 41.5992 66.1002 40.1992 65.6002 39.7992C63.5002 37.8992 50.6002 25.7992 42.9002 18.4992L37.3002 13.1992C37.0002 12.7992 35.9002 11.8992 34.5002 11.9992C33.0002 11.8992 32.0002 12.7992 31.6002 13.1992L27.6002 16.9992C20.2002 23.8992 5.50022 37.5992 3.30022 39.6992C2.80022 40.1992 1.40022 41.4992 2.20022 43.4992C2.70022 44.4992 3.60022 45.5992 5.70022 45.5992Z" fill="#1C3553"/>
</svg>
