<svg width="96" height="96" viewBox="0 0 96 96" fill="none" xmlns="http://www.w3.org/2000/svg">
<path d="M26.9999 51.2988H38.4998C38.4998 51.3988 38.4998 51.3988 38.4998 51.4988C38.4998 52.0988 38.8998 52.4988 39.4998 52.4988H42.6998V53.8988C42.6998 54.4987 43.0998 54.8987 43.6998 54.8987H46.1998V56.2987C46.1998 56.8987 46.5998 57.2987 47.1998 57.2987H49.6997V58.6987C49.6997 59.2987 50.0997 59.6987 50.6997 59.6987H53.1997V60.8987C53.1997 60.9987 53.1997 61.0987 53.2997 61.2987H26.9999V63.0987H38.5998C38.4998 63.1987 38.4998 63.3987 38.4998 63.4987C38.4998 64.0987 38.8998 64.4987 39.4998 64.4987H42.6998V65.8987C42.6998 66.4987 43.0998 66.8987 43.6998 66.8987H46.1998V68.2987C46.1998 68.8987 46.5998 69.2987 47.1998 69.2987H49.6997V70.6987C49.6997 71.2987 50.0997 71.6987 50.6997 71.6987H53.1997V72.8987C53.1997 73.4987 53.5997 73.8986 54.1997 73.8986H58.1997C58.7997 73.8986 59.1997 73.4987 59.1997 72.8987C59.1997 72.2987 58.7997 71.8987 58.1997 71.8987H55.1997V70.6987C55.1997 70.0987 54.7997 69.6987 54.1997 69.6987H51.6997V68.2987C51.6997 67.6987 51.2997 67.2987 50.6997 67.2987H48.1998V65.8987C48.1998 65.2987 47.7998 64.8987 47.1998 64.8987H44.6998V63.4987C44.6998 63.3987 44.6998 63.1987 44.5998 63.0987H67.9997V61.2987H59.0997C59.0997 61.1987 59.1997 61.0987 59.1997 60.8987C59.1997 60.2987 58.7997 59.8987 58.1997 59.8987H55.1997V58.6987C55.1997 58.0987 54.7997 57.6987 54.1997 57.6987H51.6997V56.2987C51.6997 55.6987 51.2997 55.2987 50.6997 55.2987H48.1998V53.8988C48.1998 53.2988 47.7998 52.8988 47.1998 52.8988H44.6998V51.4988C44.6998 51.3988 44.6998 51.3988 44.6998 51.2988H67.9997V49.4988H26.9999V51.2988Z" fill="#2988FF"/>
<path d="M58.9998 28.3988C54.6998 24.3989 50.9998 20.8989 50.0998 20.0989C49.1998 19.2989 48.2998 18.8989 47.3998 18.9989C46.4998 18.8989 45.5998 19.2989 44.6998 20.0989C43.7999 20.9989 39.9999 24.4989 35.6999 28.5988C28.9999 34.8988 20.8 42.5988 19.3 43.9988C18.1 45.1988 17.7 46.3988 18.3 47.6987C18.7 48.5987 19.5 49.5987 21.5 49.5987C23.1 49.5987 24.5999 49.5987 26.1999 49.5987V73.0986C26.1999 75.5986 27.3999 76.7986 29.8999 76.7986H64.8997C67.3997 76.7986 68.5997 75.5986 68.5997 73.0986V49.5987C70.1997 49.5987 71.6997 49.5987 73.2997 49.5987C75.2997 49.5987 76.1997 48.5987 76.4997 47.6987C77.0997 46.3988 76.6997 45.1988 75.4997 43.9988C74.0997 42.4988 65.7997 34.6988 58.9998 28.3988ZM68.2997 45.4988C65.9997 45.4988 64.6997 46.7988 64.6997 48.9987V72.6986H30.1999V48.9987C30.1999 46.6988 28.8999 45.4988 26.6999 45.4988C25.5999 45.4988 24.4999 45.4988 23.5 45.4988C26.4999 42.6988 32.9999 36.5988 38.4999 31.3988C42.7999 27.2988 46.5998 23.7989 47.4998 22.9989C48.3998 23.8989 52.0998 27.2988 56.2998 31.2988C61.8998 36.4988 68.4997 42.6988 71.4997 45.4988C70.3997 45.4988 69.2997 45.4988 68.2997 45.4988Z" fill="#1C3553"/>
</svg>
