<svg width="96" height="96" viewBox="0 0 96 96" fill="none" xmlns="http://www.w3.org/2000/svg">
<path fill-rule="evenodd" clip-rule="evenodd" d="M41.3979 25.3148C41.3979 24.316 42.2076 23.5063 43.2064 23.5063H79.7664C80.7653 23.5063 81.5749 24.316 81.5749 25.3148V30.0828C81.5749 31.0816 80.7653 31.8913 79.7664 31.8913C78.7676 31.8913 77.958 31.0816 77.958 30.0828V27.1233H45.0149V70.4209H77.958V62.7655C77.958 61.7667 78.7676 60.957 79.7664 60.957C80.7653 60.957 81.5749 61.7667 81.5749 62.7655V72.2294C81.5749 73.2282 80.7653 74.0379 79.7664 74.0379H43.2064C42.2076 74.0379 41.3979 73.2282 41.3979 72.2294V25.3148Z" fill="#1C3553"/>
<path fill-rule="evenodd" clip-rule="evenodd" d="M52.7976 36.0728V41.1328H50.7376V36.0728H52.7976ZM53.2676 34.6028C53.8199 34.6028 54.2676 35.0505 54.2676 35.6028V41.6028C54.2676 42.1551 53.8199 42.6028 53.2676 42.6028H50.2676C49.7153 42.6028 49.2676 42.1551 49.2676 41.6028V35.6028C49.2676 35.0505 49.7153 34.6028 50.2676 34.6028H53.2676Z" fill="#1C3553"/>
<path fill-rule="evenodd" clip-rule="evenodd" d="M52.7976 50.0728V55.1328H50.7376V50.0728H52.7976ZM53.2676 48.6028C53.8199 48.6028 54.2676 49.0505 54.2676 49.6028V55.6028C54.2676 56.1551 53.8199 56.6028 53.2676 56.6028H50.2676C49.7153 56.6028 49.2676 56.1551 49.2676 55.6028V49.6028C49.2676 49.0505 49.7153 48.6028 50.2676 48.6028H53.2676Z" fill="#1C3553"/>
<path fill-rule="evenodd" clip-rule="evenodd" d="M30.4626 20.0836C29.4247 21.0485 26.2662 23.9817 22.4932 27.4857C16.5209 33.032 9.00888 40.0083 5.92971 42.8719C7.15047 42.8688 8.36965 42.8715 9.58701 42.8771C10.2921 42.8802 11.3316 42.9845 12.1222 43.7708C12.9185 44.5626 13.0204 45.6046 13.0204 46.3058M4.16617 42.8708C4.16616 42.8708 4.16676 42.8709 4.16791 42.8711L4.16617 42.8708ZM30.4626 20.0836C31.5179 21.0622 32.8191 22.2566 33.8769 23.225C34.4383 23.7389 34.932 24.19 35.2853 24.5126L35.8516 25.0292C36.6129 25.723 37.7931 25.6688 38.4869 24.9075C39.1807 24.1462 39.1259 22.9666 38.3646 22.2728L37.8002 21.7579C37.4478 21.4362 36.9554 20.9863 36.3956 20.4738C35.2752 19.4481 33.8882 18.1747 32.8128 17.176C32.3243 16.7222 31.5204 16.0866 30.4162 16.1077C29.3408 16.1283 28.5531 16.7662 28.07 17.215C27.2229 18.0028 23.9396 21.052 19.9738 24.735C12.9819 31.2283 3.86609 39.6939 2.22844 41.2212C2.2222 41.227 2.21536 41.2334 2.20858 41.2397C2.00717 41.4272 1.57249 41.832 1.29462 42.388C0.934122 43.1094 0.887461 43.9489 1.24937 44.7804C1.57857 45.5358 2.14178 46.0636 2.83013 46.3469C3.42871 46.5932 4.02193 46.6114 4.38768 46.609C6.02006 46.5977 7.65396 46.5989 9.29044 46.6058C9.29141 54.5487 9.29141 62.4907 9.29141 70.4338C9.29141 71.0986 9.3222 72.2959 10.206 73.1524C11.0681 73.9879 12.2531 74.0153 12.9271 74.0158C15.8493 74.0163 21.9928 74.0163 27.4044 74.0162L37.4967 74.0158C37.4968 74.0158 37.4975 74.0158 37.4974 72.1508L37.4967 74.0158C38.5267 74.0157 39.3625 73.1807 39.3624 72.1507C39.3624 71.1207 38.5273 70.2857 37.4973 70.2858L37.4974 72.147C37.4973 70.2858 37.4974 70.2858 37.4973 70.2858L27.4044 70.2862C22.0491 70.2863 15.9788 70.2863 13.0214 70.2858C13.0214 62.2923 13.0214 54.2995 13.0204 46.3058" fill="#1C3553"/>
<path fill-rule="evenodd" clip-rule="evenodd" d="M18.147 47.684C18.147 47.278 18.476 46.949 18.882 46.949H22.661C23.0669 46.949 23.396 47.278 23.396 47.684V54.309C23.396 54.7149 23.0669 55.044 22.661 55.044H18.882C18.476 55.044 18.147 54.7149 18.147 54.309V47.684ZM19.617 48.419V53.574H21.926V48.419H19.617Z" fill="#1C3553"/>
<path fill-rule="evenodd" clip-rule="evenodd" d="M31.9316 47.6835C31.9316 47.2776 32.2607 46.9485 32.6666 46.9485H35.0026C35.4086 46.9485 35.7376 47.2776 35.7376 47.6835C35.7376 48.0894 35.4086 48.4185 35.0026 48.4185H33.4016V53.5735H35.0026C35.4086 53.5735 35.7376 53.9026 35.7376 54.3085C35.7376 54.7144 35.4086 55.0435 35.0026 55.0435H32.6666C32.2607 55.0435 31.9316 54.7144 31.9316 54.3085V47.6835Z" fill="#1C3553"/>
<path fill-rule="evenodd" clip-rule="evenodd" d="M81.8224 20.118C81.8224 19.317 81.1984 18.668 80.4274 18.668H51.8674C51.9054 17.368 51.9124 17.362 51.8714 16.063C51.8564 15.566 51.3004 15.193 50.5394 15.056C50.5324 15.055 50.5264 15.055 50.5194 15.054C50.4604 15.043 50.4014 15.034 50.3414 15.028C50.3374 15.027 50.3344 15.027 50.3304 15.026C50.2644 15.018 50.2004 15.013 50.1324 15.008H50.1264C50.0654 15.004 50.0024 15.002 49.9404 15.002C49.9314 15.001 49.9224 15.001 49.9124 15C49.9004 15 49.8894 15.001 49.8774 15.001C49.8584 15.001 49.8394 15 49.8184 15C49.8034 15.001 49.7894 15.002 49.7734 15.003C48.6784 15.026 47.8944 15.485 47.8644 16.169C47.8354 16.847 47.8504 18.083 47.8594 18.668H42.5464C41.7764 18.668 41.1514 19.317 41.1514 20.118C41.1514 20.919 41.7764 21.568 42.5464 21.568H80.4274C81.1984 21.568 81.8224 20.919 81.8224 20.118Z" fill="#1C3553"/>
<path fill-rule="evenodd" clip-rule="evenodd" d="M11.8003 29.4373C11.8003 29.4373 11.7883 25.1403 11.7923 21.9713C11.7943 21.1143 12.1403 20.7733 13.0123 20.7693C14.3173 20.7613 15.6213 20.7603 16.9263 20.7693C17.7813 20.7753 18.1323 21.1363 18.1393 21.9923C18.1443 22.7283 18.1233 22.6903 18.1473 23.4253L11.8003 29.4373Z" fill="#1C3553"/>
<path fill-rule="evenodd" clip-rule="evenodd" d="M68.0357 31.8441C75.5277 30.2513 82.892 35.0341 84.4847 42.5258L84.4847 42.526C86.0763 50.0167 81.2948 57.381 73.8028 58.9737C66.311 60.5664 58.9466 55.7839 57.3548 48.292M68.7408 35.1609C63.0816 36.3642 59.4685 41.9279 60.6717 47.5867L60.6717 47.587C61.8741 53.2468 67.4377 56.8601 73.0977 55.6568C78.7577 54.4536 82.3701 48.8901 81.1678 43.231M68.7409 35.1609C74.4008 33.9577 79.9644 37.5708 81.1678 43.2308L68.7409 35.1609ZM68.0357 31.8441L68.0356 31.8441L68.0357 31.8441ZM68.0356 31.8441C60.545 33.4367 55.7622 40.8007 57.3548 48.2917L68.0356 31.8441Z" fill="#2988FF"/>
<path fill-rule="evenodd" clip-rule="evenodd" d="M94.2582 64.3302C94.1602 64.2422 86.5062 57.2613 83.2882 54.3263L83.2782 54.2913C83.2782 54.2913 82.3532 53.4593 81.0552 52.2783C80.2752 53.4093 79.2442 54.3393 78.1802 55.2493C80.2812 57.1663 82.5382 59.2253 83.9462 60.5092L83.9562 60.5442C83.9562 60.5442 91.2422 67.1802 91.3662 67.2912C92.2122 68.0472 93.5452 67.9982 94.3442 67.1802C95.1432 66.3622 95.1042 65.0862 94.2582 64.3302Z" fill="#2988FF"/>
<path fill-rule="evenodd" clip-rule="evenodd" d="M94.2582 64.3302C94.1602 64.2422 86.5062 57.2613 83.2882 54.3263L83.2782 54.2913C83.2782 54.2913 82.3532 53.4593 81.0552 52.2783C80.2752 53.4093 79.2442 54.3393 78.1802 55.2493C80.2812 57.1663 82.5382 59.2253 83.9462 60.5092L83.9562 60.5442C83.9562 60.5442 91.2422 67.1802 91.3662 67.2912C92.2122 68.0472 93.5452 67.9982 94.3442 67.1802C95.1432 66.3622 95.1042 65.0862 94.2582 64.3302Z" fill="#2988FF"/>
<path fill-rule="evenodd" clip-rule="evenodd" d="M80.9377 51.2541C81.2333 51.2201 81.5292 51.3155 81.7493 51.5157C82.3973 52.1053 82.9521 52.6078 83.3449 52.9628C83.5413 53.1403 83.6972 53.2809 83.8039 53.3771L83.9673 53.5242C84.0186 53.5704 84.0655 53.6219 84.1063 53.6768L94.9213 63.5395C94.9402 63.5567 94.9474 63.5632 94.9473 63.5631L94.2585 64.3301L94.9454 63.5614C96.2348 64.7136 96.2863 66.6676 95.082 67.9006C93.9017 69.1089 91.9412 69.1875 90.6794 68.0599C90.6131 68.0005 88.7537 66.3075 86.9207 64.6384L83.2625 61.3068C83.2625 61.3067 83.2622 61.3065 83.9564 60.5442L83.2625 61.3068C83.2131 61.2618 83.168 61.2119 83.1285 61.1587C81.7143 59.869 79.5263 57.873 77.4855 56.0109C77.2671 55.8117 77.1448 55.5283 77.1495 55.2327C77.1543 54.9372 77.2857 54.6579 77.5103 54.4658C78.5729 53.557 79.5104 52.7026 80.2067 51.693C80.3756 51.448 80.6421 51.288 80.9377 51.2541ZM92.0474 66.5169L84.774 59.8943L92.0474 66.5169ZM84.774 59.8943C84.7347 59.8414 84.6902 59.7922 84.6411 59.7474C83.4221 58.6358 81.5667 56.9432 79.7271 55.2648C80.2305 54.8082 80.7279 54.3218 81.1861 53.7898C81.4855 54.0613 81.748 54.2988 81.9624 54.4926C82.1595 54.6707 82.316 54.8119 82.4233 54.9086L82.4638 54.9451C82.5023 54.9965 82.5458 55.0444 82.5937 55.0881L83.3376 55.7665C86.8528 58.9726 93.4748 65.0122 93.5696 65.0973L93.5714 65.099C93.9741 65.4588 94.0005 66.0567 93.6069 66.4598C93.1893 66.8873 92.4841 66.9068 92.0539 66.5228" fill="#2988FF"/>
</svg>
