<svg width="96" height="96" viewBox="0 0 96 96" fill="none" xmlns="http://www.w3.org/2000/svg">
<path d="M86.4983 57.0983C86.3983 56.9983 86.2983 56.8983 86.0983 56.7983C85.9983 56.7983 85.9983 56.8983 85.8983 56.8983C85.7983 56.9983 85.5983 56.9983 85.3983 57.0983C84.4983 57.3983 83.0983 57.5983 80.9983 57.5983C80.3983 57.5983 79.7983 57.5983 79.2983 57.4983V58.0983V58.5983C79.7983 58.5983 80.3983 58.6983 80.9983 58.6983C82.7983 58.6983 84.4983 58.4983 85.4983 58.1983H85.5983V59.4983C85.7983 59.4983 86.0983 59.4983 86.2983 59.4983C86.3983 59.4983 86.4983 59.4983 86.5983 59.4983V57.5983V57.3983V57.1983H86.4983V57.0983Z" fill="#2988FF"/>
<path d="M78.3981 65.6984C77.8981 65.5984 77.4981 65.5984 77.0981 65.4984C76.7981 65.5984 76.3981 65.5984 75.9981 65.6984C75.8981 65.6984 75.8981 65.6984 75.7981 65.6984C75.7981 65.6984 75.7981 65.6984 75.6981 65.6984C75.5981 65.6984 75.3981 65.6984 75.2981 65.6984C75.1981 65.6984 75.0981 65.6984 74.8981 65.6984C74.3981 65.6984 73.8981 65.7984 73.3981 65.7984V65.8984V66.3984C73.8981 66.3984 74.4981 66.3984 74.9981 66.2984C75.0981 66.2984 75.2981 66.2984 75.3981 66.2984C75.4981 66.2984 75.5981 66.2984 75.6981 66.2984H75.7981C75.9981 66.2984 76.1981 66.1984 76.3981 66.1984C76.6981 66.0984 76.8981 66.0984 77.1981 66.0984C77.4981 66.0984 77.5981 65.9984 77.7981 65.8984H77.8981V66.1984V66.3984V67.1984C77.7981 67.2984 77.5981 67.3984 77.0981 67.4984C76.7981 67.5984 76.4981 67.6984 75.9981 67.6984C75.8981 67.6984 75.8981 67.6984 75.7981 67.6984C75.6981 67.6984 75.5981 67.6984 75.4981 67.6984C75.3981 67.6984 75.3981 67.6984 75.2981 67.6984C75.1981 67.6984 74.9981 67.6984 74.8981 67.6984C74.5981 67.6984 74.1981 67.6984 73.7981 67.7984L73.2981 67.5984V67.7984V67.8984C73.2981 67.9984 73.1981 68.0984 72.8981 68.2984C72.7981 68.3984 72.6981 68.3984 72.5981 68.4984C72.6981 68.5984 72.7981 68.6984 72.8981 68.6984C72.9981 68.6984 72.9981 68.6984 73.0981 68.6984C74.2981 68.6984 75.1981 68.5984 75.8981 68.4984C76.1981 68.4984 76.3981 68.3984 76.6981 68.3984C76.7981 68.3984 76.8981 68.3984 76.9981 68.2984C77.1981 68.1984 77.3981 68.1984 77.4981 68.0984C77.5981 67.9984 77.7981 67.9984 77.8981 67.9984C78.2981 67.7984 78.4981 67.6984 78.5981 67.4984C78.6981 67.3984 78.6981 67.2984 78.7981 67.2984V66.4984V65.9984V65.5984V65.3984C78.6981 65.7984 78.5981 65.7984 78.3981 65.6984Z" fill="#2988FF"/>
<path d="M86.4982 44.7985C86.3982 44.6985 86.2982 44.5985 86.0982 44.4985C85.9982 44.4985 85.9982 44.5985 85.8982 44.5985C85.7982 44.6985 85.5982 44.6985 85.3982 44.7985C84.4982 45.0985 83.0982 45.2985 80.9982 45.2985C80.3982 45.2985 79.7982 45.2985 79.2982 45.1985V45.7985V46.2985C79.7982 46.2985 80.3982 46.3985 80.9982 46.3985C82.7982 46.3985 84.4982 46.1985 85.4982 45.8985H85.5982V47.1985C85.3982 47.2985 84.9982 47.5985 83.7982 47.7985C83.2982 47.8985 82.5982 47.8985 81.6982 47.9985L80.7982 47.5985L79.2982 46.9985V47.6985V47.8985V47.9985V48.0985C79.1982 48.1985 79.0982 48.2985 78.8982 48.4985C78.8982 48.4985 78.7982 48.4985 78.7982 48.5985C78.6982 48.5985 78.6982 48.6985 78.5982 48.6985C78.4982 48.6985 78.4982 48.7985 78.3982 48.7985C78.2982 48.7985 78.2982 48.8985 78.1982 48.8985C78.1982 48.8985 78.1982 48.8985 78.2982 48.8985C78.3982 48.8985 78.5982 48.8985 78.6982 48.9985C78.7982 48.9985 78.8982 48.9985 78.9982 48.9985C79.5982 49.0985 80.2982 49.0985 80.9982 49.0985C82.4982 49.0985 83.5982 48.9985 84.4982 48.7985C84.7982 48.6985 85.0982 48.6985 85.2982 48.5985C85.3982 48.5985 85.3982 48.5985 85.4982 48.4985C85.5982 48.3985 85.6982 48.3985 85.7982 48.3985C86.3982 48.0985 86.5982 47.8985 86.5982 47.6985V45.3985V45.1985V44.9985H86.4982V44.7985Z" fill="#2988FF"/>
<path d="M61.598 75.1984V75.4984V75.6984C61.698 75.9984 62.598 77.0984 67.198 77.0984C71.798 77.0984 72.698 75.9984 72.798 75.6984V73.3984V73.1984V72.9984H72.698L72.598 72.8984L72.498 72.9984C72.498 72.9984 72.498 72.9984 72.398 72.9984C72.298 73.0984 72.198 73.0984 71.998 73.1984C71.098 73.4984 69.698 73.8984 67.098 73.8984C64.498 73.8984 63.098 73.5984 62.198 73.1984C61.998 73.0984 61.898 73.0984 61.798 72.9984C61.798 72.9984 61.798 72.9984 61.698 72.9984L61.598 72.8984L61.498 72.9984H61.598V75.1984ZM67.298 74.4984C69.098 74.4984 70.798 74.2984 71.798 73.9984H71.898V75.2984C71.698 75.4984 70.698 75.9984 67.898 75.9984L63.398 74.0984C64.398 74.3984 65.798 74.4984 67.298 74.4984Z" fill="#2988FF"/>
<path d="M86.4982 40.6984C86.3982 40.5984 86.2982 40.4984 86.0982 40.3984C85.9982 40.3984 85.9982 40.4984 85.8982 40.4984C85.7982 40.5984 85.5982 40.5984 85.3982 40.6984C84.4982 40.9984 83.0982 41.1984 80.9982 41.1984C80.3982 41.1984 79.7982 41.1984 79.2982 41.0984V41.6984V42.0984C79.7982 42.0984 80.3982 42.1984 80.9982 42.1984C82.7982 42.1984 84.4982 41.9984 85.4982 41.6984H85.5982V42.9984C85.3982 43.0984 84.9982 43.3984 83.7982 43.5984C83.2982 43.6984 82.5982 43.6984 81.6982 43.7984L80.7982 43.3984L79.2982 42.7984V43.4984V43.6984C79.2982 43.6984 79.2982 43.6984 79.2982 43.7984C79.1982 43.8984 79.0982 43.9984 78.8982 44.1984C78.8982 44.1984 78.7982 44.1984 78.7982 44.2984C78.6982 44.3984 78.6982 44.3984 78.5982 44.3984C78.4982 44.3984 78.4982 44.4984 78.3982 44.4984C78.2982 44.4984 78.2982 44.5984 78.1982 44.5984C78.1982 44.5984 78.1982 44.5984 78.2982 44.5984C78.3982 44.5984 78.5982 44.5984 78.6982 44.6984C78.7982 44.6984 78.8982 44.6984 78.9982 44.6984C79.5982 44.6984 80.1982 44.7984 80.9982 44.7984C82.4982 44.7984 83.5982 44.6984 84.3982 44.4984C84.6982 44.3984 84.9982 44.3984 85.1982 44.2984C85.2982 44.2984 85.2982 44.1984 85.3982 44.1984C85.4982 44.1984 85.5982 44.0984 85.6982 44.0984C86.2982 43.7984 86.4982 43.4984 86.4982 43.3984V41.0984V40.8984V40.6984Z" fill="#2988FF"/>
<path d="M86.4982 52.9987C86.3982 52.8987 86.2982 52.7987 86.0982 52.6987C85.9982 52.6987 85.9982 52.7987 85.8982 52.7987C85.6982 52.8987 85.5982 52.9987 85.3982 52.9987C84.4982 53.2987 83.0982 53.4987 80.9982 53.4987C80.3982 53.4987 79.7982 53.4987 79.2982 53.3987V53.9987V54.3987C79.7982 54.3987 80.3982 54.4987 80.9982 54.4987C82.7982 54.4987 84.4982 54.2987 85.4982 53.9987H85.5982V55.2987C85.3982 55.3987 84.9982 55.6987 83.7982 55.8987C83.2982 55.9987 82.5982 55.9987 81.6982 56.0987L80.7982 55.6987L79.2982 55.0987V55.7987V55.9987V56.0987C79.2982 56.0987 79.2982 56.0987 79.2982 56.1987C79.1982 56.2987 79.0982 56.3987 78.8982 56.5987C78.8982 56.5987 78.7982 56.5987 78.7982 56.6987C78.6982 56.7987 78.6982 56.7987 78.5982 56.7987C78.4982 56.7987 78.4982 56.8987 78.3982 56.8987C78.2982 56.8987 78.2982 56.9987 78.1982 56.9987C78.1982 56.9987 78.1982 56.9987 78.2982 56.9987C78.3982 56.9987 78.5982 56.9987 78.6982 56.9987C78.7982 56.9987 78.8982 56.9987 78.9982 56.9987C79.5982 57.0987 80.2982 57.0987 80.9982 57.0987C82.4982 57.0987 83.5982 56.9987 84.4982 56.7987C84.7982 56.6987 85.0982 56.6987 85.2982 56.5987C85.3982 56.5987 85.3982 56.4987 85.4982 56.4987C85.5982 56.4987 85.6982 56.3987 85.7982 56.3987C86.3982 56.0987 86.5982 55.7987 86.5982 55.6987V53.3987V53.1987V52.9987H86.4982Z" fill="#2988FF"/>
<path d="M86.4981 48.8986C86.3981 48.7986 86.2981 48.6986 86.0981 48.5986C85.9981 48.5986 85.9981 48.6986 85.8981 48.6986C85.7981 48.7986 85.5981 48.7986 85.3981 48.8986C84.4981 49.1986 83.0981 49.3986 80.9981 49.3986C80.3981 49.3986 79.7981 49.3986 79.2981 49.2986V49.8986V50.2986C79.7981 50.2986 80.3981 50.3986 80.9981 50.3986C82.7981 50.3986 84.4981 50.1986 85.4981 49.8986H85.5981V51.1986C85.3981 51.2986 84.9981 51.5986 83.7981 51.7986C83.1981 51.8986 82.4981 51.9986 81.5981 51.9986L80.6981 51.5986L79.1981 50.9986V51.6986V51.8986V51.9986C79.1981 51.9986 79.1981 51.9986 79.1981 52.0986C79.0981 52.1986 78.9981 52.2986 78.7981 52.4986C78.7981 52.4986 78.6981 52.4986 78.6981 52.5986C78.5981 52.5986 78.5981 52.6986 78.4981 52.6986C78.3981 52.6986 78.3981 52.7986 78.2981 52.7986C78.1981 52.7986 78.1981 52.8986 78.0981 52.8986C78.0981 52.8986 78.0981 52.8986 78.1981 52.8986C78.2981 52.8986 78.4981 52.8986 78.5981 52.9986C78.6981 52.9986 78.7981 52.9986 78.8981 52.9986C79.4981 52.9986 80.1981 53.0986 80.8981 53.0986C82.3981 53.0986 83.4981 52.9986 84.3981 52.7986C84.6981 52.6986 84.9981 52.6986 85.1981 52.5986C85.2981 52.5986 85.2981 52.5986 85.3981 52.4986C85.4981 52.4986 85.5981 52.3986 85.6981 52.3986C86.2981 52.0986 86.4981 51.7986 86.4981 51.6986V49.3986V49.1986V48.9986V48.8986Z" fill="#2988FF"/>
<path d="M86.4982 36.5986C85.9982 35.9986 83.6982 35.5986 80.9982 35.5986C80.3982 35.5986 79.7982 35.5986 79.1982 35.6986C79.0982 35.7986 78.9982 35.9986 78.7982 36.0986C78.6982 36.0986 78.6982 36.1986 78.5982 36.1986C78.7982 36.2986 78.8982 36.3986 79.0982 36.5986L79.1982 36.6986H79.2982V37.0986V37.6986V38.0986C79.7982 38.0986 80.3982 38.1986 80.9982 38.1986C82.7982 38.1986 84.4982 37.9986 85.4982 37.6986H85.5982V38.9986C85.3982 39.0986 84.9982 39.3986 83.7982 39.5986C83.2982 39.6986 82.5982 39.6986 81.6982 39.7986L80.7982 39.3986L79.2982 38.7986V39.4986V39.6986V39.7986C79.2982 39.7986 79.2982 39.7986 79.2982 39.8986C79.1982 39.9986 79.0982 40.0986 78.8982 40.2986C78.8982 40.2986 78.7982 40.2986 78.7982 40.3986C78.6982 40.3986 78.6982 40.4986 78.5982 40.4986C78.4982 40.4986 78.4982 40.5986 78.3982 40.5986C78.2982 40.5986 78.2982 40.6986 78.1982 40.6986C78.1982 40.6986 78.1982 40.6986 78.2982 40.6986C78.3982 40.6986 78.5982 40.6986 78.6982 40.7986C78.7982 40.7986 78.8982 40.7986 78.9982 40.7986C79.5982 40.8986 80.2982 40.8986 80.9982 40.8986C82.4982 40.8986 83.5982 40.7986 84.4982 40.5986C84.7982 40.4986 85.0982 40.4986 85.2982 40.3986C85.3982 40.3986 85.3982 40.3986 85.4982 40.2986C85.5982 40.1986 85.6982 40.1986 85.7982 40.1986C86.3982 39.8986 86.5982 39.6986 86.5982 39.4986V37.1986V36.9986V36.7986H86.4982V36.5986Z" fill="#2988FF"/>
<path d="M47.998 56.3986V56.5986C48.098 56.6986 48.298 56.9986 48.798 57.2986C48.898 57.3986 48.998 57.3986 49.098 57.3986C49.198 57.3986 49.198 57.3986 49.298 57.4986C49.498 57.5986 49.798 57.5986 50.098 57.6986C50.898 57.8986 51.998 57.9986 53.598 57.9986C55.098 57.9986 56.198 57.8986 57.098 57.6986C57.398 57.5986 57.698 57.5986 57.898 57.4986C57.998 57.4986 57.998 57.4986 58.098 57.3986C58.198 57.3986 58.298 57.2986 58.398 57.2986C58.998 56.9986 59.198 56.6986 59.198 56.5986V54.2986V54.0986V53.8986H59.098C58.998 53.7986 58.898 53.6986 58.698 53.5986C58.598 53.5986 58.598 53.6986 58.498 53.6986C58.398 53.7986 58.198 53.7986 57.998 53.8986C57.098 54.1986 55.698 54.3986 53.598 54.3986C51.398 54.3986 50.098 54.1986 49.198 53.8986C48.998 53.7986 48.798 53.7986 48.698 53.6986C48.598 53.6986 48.598 53.5986 48.498 53.5986C48.298 53.6986 48.198 53.7986 48.098 53.8986H47.998V56.3986ZM53.698 55.3986C55.498 55.3986 57.198 55.1986 58.198 54.8986H58.298V56.1986C58.098 56.2986 57.698 56.5986 56.498 56.7986C55.998 56.8986 55.298 56.8986 54.398 56.9986L53.498 56.5986L49.898 55.0986C50.798 55.2986 52.198 55.3986 53.698 55.3986Z" fill="#2988FF"/>
<path d="M47.998 64.5987C48.098 64.5987 48.198 64.5987 48.298 64.5987C48.298 64.5987 48.298 64.5987 48.398 64.5987C48.898 64.6987 49.298 64.6987 49.698 64.7987C49.898 64.8987 50.098 64.8987 50.298 64.9987H50.398C50.598 65.0987 50.798 65.1987 50.998 65.2987C51.098 65.3987 51.298 65.3987 51.398 65.4987C51.498 65.5987 51.498 65.5987 51.598 65.6987L51.698 65.7987H51.798V65.9987C52.298 65.9987 52.898 66.0987 53.598 66.0987C55.398 66.0987 56.698 65.8987 57.498 65.6987C57.598 65.6987 57.698 65.5987 57.798 65.5987C57.998 65.4987 58.198 65.4987 58.398 65.3987C58.498 65.3987 58.498 65.2987 58.598 65.2987C58.698 65.2987 58.798 65.1987 58.798 65.1987C59.098 64.9987 59.198 64.7987 59.298 64.6987V62.3987V62.1987V61.9987H59.198C59.098 61.8987 58.998 61.7987 58.798 61.6987C58.698 61.6987 58.698 61.7987 58.598 61.7987C58.498 61.8987 58.298 61.8987 58.098 61.9987C57.198 62.2987 55.798 62.4987 53.698 62.4987C51.498 62.4987 50.198 62.2987 49.298 61.9987C49.098 61.8987 48.898 61.8987 48.798 61.7987C48.698 61.7987 48.698 61.6987 48.598 61.6987C48.398 61.7987 48.298 61.8987 48.198 61.9987H48.098V64.5987H47.998ZM53.698 63.6987C55.498 63.6987 57.198 63.4987 58.198 63.1987H58.298V64.4987C58.198 64.5987 57.898 64.6987 57.398 64.8987C57.198 64.8987 56.898 64.9987 56.598 64.9987C56.598 64.9987 56.498 64.9987 56.398 64.9987C55.898 65.0987 55.198 65.0987 54.298 65.1987L53.398 64.7987L52.598 64.4987L49.798 63.3987C50.798 63.4987 52.198 63.6987 53.698 63.6987Z" fill="#2988FF"/>
<path d="M47.998 60.5983V60.7983C48.098 60.8983 48.298 61.1983 48.798 61.4983C48.898 61.4983 48.998 61.5983 49.098 61.5983C49.198 61.5983 49.198 61.6983 49.298 61.6983C49.498 61.7983 49.798 61.7983 50.098 61.8983C50.898 62.0983 51.998 62.1983 53.598 62.1983C55.098 62.1983 56.198 62.0983 57.098 61.8983C57.398 61.7983 57.698 61.7983 57.898 61.6983C57.998 61.6983 57.998 61.6983 58.098 61.5983C58.198 61.5983 58.298 61.4983 58.398 61.4983C58.998 61.1983 59.198 60.8983 59.198 60.7983V58.4983V58.2983V58.0983H59.098C58.998 57.9983 58.898 57.8983 58.698 57.7983C58.598 57.7983 58.598 57.8983 58.498 57.8983C58.398 57.9983 58.198 57.9983 57.998 58.0983C57.098 58.3983 55.698 58.5983 53.598 58.5983C51.398 58.5983 50.098 58.3983 49.198 58.0983C48.998 57.9983 48.798 57.9983 48.698 57.8983C48.598 57.8983 48.598 57.7983 48.498 57.7983C48.298 57.8983 48.198 57.9983 48.098 58.0983H47.998V60.5983ZM53.698 59.5983C55.498 59.5983 57.198 59.3983 58.198 59.0983H58.298V60.3983C58.098 60.4983 57.698 60.7983 56.498 60.9983C55.998 61.0983 55.298 61.0983 54.398 61.1983L53.498 60.7983L49.898 59.2983C50.798 59.3983 52.198 59.5983 53.698 59.5983Z" fill="#2988FF"/>
<path d="M51.0981 69.5983C51.1981 69.6983 51.2981 69.7983 51.3981 69.8983C51.9981 69.9983 52.7981 69.9983 53.5981 69.9983C58.1981 69.9983 59.0981 68.9983 59.1981 68.5983V66.2983V66.0983V65.8983H59.0981L58.9981 65.7983L58.8981 65.8983C58.8981 65.8983 58.8981 65.8983 58.7981 65.8983C58.7981 65.9983 58.6981 65.9983 58.5981 66.0983C57.6981 66.4983 56.2981 66.7983 53.6981 66.7983C52.9981 66.7983 52.3981 66.7983 51.8981 66.6983V66.8983V67.2983C52.4981 67.3983 53.0981 67.3983 53.6981 67.3983C55.4981 67.3983 57.1981 67.1983 58.1981 66.8983H58.2981V68.1983C58.0981 68.3983 57.0981 68.8983 54.2981 68.8983L51.7981 67.8983V68.8983V68.9983C51.7981 69.0983 51.6981 69.1983 51.4981 69.3983C51.3981 69.4983 51.2981 69.4983 51.0981 69.5983C51.1981 69.5983 51.0981 69.5983 51.0981 69.5983Z" fill="#2988FF"/>
<path d="M47.998 39.9987V40.1987C48.098 40.2987 48.298 40.5987 48.798 40.8987C48.898 40.8987 48.998 40.9987 49.098 40.9987C49.198 40.9987 49.198 40.9987 49.298 41.0987C49.498 41.1987 49.798 41.1987 50.098 41.2987C50.898 41.4987 51.998 41.5987 53.598 41.5987C55.098 41.5987 56.198 41.4987 57.098 41.2987C57.398 41.1987 57.698 41.1987 57.898 41.0987C57.998 41.0987 57.998 41.0987 58.098 40.9987C58.198 40.8987 58.298 40.8987 58.398 40.8987C58.998 40.5987 59.198 40.2987 59.198 40.1987V37.8987V37.6987V37.4987H59.098C58.998 37.3987 58.898 37.2987 58.698 37.1987C58.598 37.1987 58.598 37.2987 58.498 37.2987C58.398 37.3987 58.198 37.3987 57.998 37.4987C57.098 37.7987 55.698 37.9987 53.598 37.9987C51.398 37.9987 50.098 37.7987 49.198 37.4987C48.998 37.3987 48.798 37.3987 48.698 37.2987C48.598 37.2987 48.598 37.1987 48.498 37.1987C48.298 37.2987 48.198 37.3987 48.098 37.4987H47.998V39.9987ZM53.698 38.9987C55.498 38.9987 57.198 38.7987 58.198 38.4987H58.298V39.7987C58.098 39.8987 57.698 40.1987 56.498 40.3987C55.998 40.4987 55.298 40.4987 54.398 40.5987L53.498 40.1987L49.898 38.6987C50.798 38.8987 52.198 38.9987 53.698 38.9987Z" fill="#2988FF"/>
<path d="M47.9983 44.0983V44.2983C48.0983 44.3983 48.2983 44.6983 48.7983 44.9983C48.8983 45.0983 48.9983 45.0983 49.0983 45.0983C49.1983 45.0983 49.1983 45.0983 49.2983 45.1983C49.4983 45.2983 49.7983 45.2983 50.0983 45.3983C50.8983 45.5983 51.9983 45.6983 53.4983 45.6983C54.9983 45.6983 56.0983 45.5983 56.8983 45.3983C57.1983 45.2983 57.4983 45.2983 57.6983 45.1983C57.7983 45.1983 57.7983 45.1983 57.8983 45.0983C57.9983 44.9983 58.0983 44.9983 58.1983 44.9983C58.7983 44.6983 58.9983 44.4983 58.9983 44.2983V41.9983V41.7983V41.5983H58.8983C58.7983 41.4983 58.6983 41.3983 58.4983 41.2983C58.3983 41.2983 58.3983 41.3983 58.2983 41.3983C58.1983 41.4983 57.9983 41.4983 57.7983 41.5983C56.8983 41.8983 55.4983 42.0983 53.3983 42.0983C51.1983 42.0983 49.8983 41.8983 48.9983 41.5983C48.7983 41.4983 48.5983 41.4983 48.4983 41.3983C48.3983 41.3983 48.3983 41.2983 48.2983 41.2983C48.0983 41.3983 47.9983 41.4983 47.8983 41.5983H47.7983V44.0983H47.9983ZM53.6983 43.0983C55.4983 43.0983 57.1983 42.8983 58.1983 42.5983H58.2983V43.8983C58.0983 43.9983 57.6983 44.2983 56.4983 44.4983C55.9983 44.5983 55.2983 44.5983 54.3983 44.6983L53.4983 44.2983L49.8983 42.7983C50.7983 42.9983 52.1983 43.0983 53.6983 43.0983Z" fill="#2988FF"/>
<path d="M47.998 52.2985V52.4985C48.098 52.6985 48.298 52.8985 48.798 53.1985C48.898 53.2985 48.998 53.2985 49.098 53.2985C49.198 53.2985 49.198 53.2985 49.298 53.3985C49.498 53.4985 49.798 53.4985 50.098 53.5985C50.898 53.7985 51.998 53.8985 53.598 53.8985C55.098 53.8985 56.198 53.7985 57.098 53.5985C57.398 53.4985 57.698 53.4985 57.898 53.3985C57.998 53.3985 57.998 53.3985 58.098 53.2985C58.198 53.1985 58.298 53.1985 58.398 53.1985C58.998 52.8985 59.198 52.6985 59.198 52.4985V50.1985V49.9985V49.7985H59.098C58.998 49.6985 58.898 49.5985 58.698 49.4985C58.598 49.4985 58.598 49.5985 58.498 49.5985C58.398 49.6985 58.198 49.6985 57.998 49.7985C57.098 50.0985 55.698 50.2985 53.598 50.2985C51.398 50.2985 50.098 50.0985 49.198 49.7985C48.998 49.6985 48.798 49.6985 48.698 49.5985C48.598 49.5985 48.598 49.4985 48.498 49.4985C48.298 49.5985 48.198 49.6985 48.098 49.7985H47.998V52.2985ZM53.698 51.2985C55.498 51.2985 57.198 51.0985 58.198 50.7985H58.298V52.0985C58.098 52.1985 57.698 52.4985 56.498 52.6985C55.998 52.7985 55.298 52.7985 54.398 52.8985L53.498 52.4985L49.798 50.9985C50.798 51.1985 52.198 51.2985 53.698 51.2985Z" fill="#2988FF"/>
<path d="M47.998 48.1984V48.3984C48.098 48.4984 48.298 48.7984 48.798 49.0984C48.898 49.0984 48.998 49.1984 49.098 49.1984C49.198 49.1984 49.198 49.2984 49.298 49.2984C49.498 49.3984 49.798 49.3984 50.098 49.4984C50.898 49.6984 51.998 49.7984 53.598 49.7984C55.098 49.7984 56.198 49.6984 57.098 49.4984C57.398 49.3984 57.698 49.3984 57.898 49.2984C57.998 49.2984 57.998 49.1984 58.098 49.1984C58.198 49.1984 58.298 49.0984 58.398 49.0984C58.998 48.7984 59.198 48.4984 59.198 48.3984V46.0984V45.8984V45.6984H59.098C58.998 45.5984 58.898 45.4984 58.698 45.3984C58.598 45.3984 58.598 45.4984 58.498 45.4984C58.398 45.5984 58.198 45.5984 57.998 45.6984C57.098 45.9984 55.698 46.1984 53.598 46.1984C51.398 46.1984 50.098 45.9984 49.198 45.6984C48.998 45.5984 48.798 45.5984 48.698 45.4984C48.598 45.4984 48.598 45.3984 48.498 45.3984C48.298 45.4984 48.198 45.5984 48.098 45.6984H47.998V48.1984ZM53.698 47.1984C55.498 47.1984 57.198 46.9984 58.198 46.6984H58.298V47.9984C58.098 48.0984 57.698 48.3984 56.498 48.5984C55.998 48.6984 55.298 48.6984 54.398 48.7984L53.498 48.3984L49.898 46.8984C50.798 47.0984 52.198 47.1984 53.698 47.1984Z" fill="#2988FF"/>
<path d="M47.998 35.8986V36.0986C48.098 36.1986 48.298 36.4986 48.798 36.7986C48.898 36.7986 48.998 36.8986 49.098 36.8986C49.198 36.8986 49.198 36.9986 49.298 36.9986C49.498 37.0986 49.798 37.0986 50.098 37.1986C50.898 37.3986 51.998 37.4986 53.598 37.4986C55.098 37.4986 56.198 37.3986 57.098 37.1986C57.398 37.0986 57.698 37.0986 57.898 36.9986C57.998 36.9986 57.998 36.9986 58.098 36.8986C58.198 36.8986 58.298 36.7986 58.398 36.7986C58.998 36.4986 59.198 36.1986 59.198 36.0986V33.7986V33.5986V33.3986H59.098C58.998 33.2986 58.898 33.1986 58.698 33.0986C58.598 33.0986 58.598 33.1986 58.498 33.1986C58.398 33.2986 58.198 33.2986 57.998 33.3986C57.098 33.6986 55.698 33.8986 53.598 33.8986C51.398 33.8986 50.098 33.6986 49.198 33.3986C48.998 33.2986 48.798 33.2986 48.698 33.1986C48.598 33.1986 48.598 33.0986 48.498 33.0986C48.298 33.1986 48.198 33.2986 48.098 33.3986H47.998V35.8986ZM53.698 34.8986C55.498 34.8986 57.198 34.6986 58.198 34.3986H58.298V35.6986C58.098 35.7986 57.698 36.0986 56.498 36.2986C55.998 36.3986 55.298 36.4986 54.398 36.4986L53.398 35.9986L49.798 34.4986C50.798 34.6986 52.198 34.8986 53.698 34.8986Z" fill="#2988FF"/>
<path d="M61.5981 55.2987V55.4987C61.6981 55.6987 61.8981 55.8987 62.3981 56.1987C62.4981 56.1987 62.5981 56.2987 62.6981 56.2987C62.7981 56.2987 62.7981 56.3987 62.8981 56.3987C63.0981 56.4987 63.3981 56.4987 63.6981 56.5987C64.4981 56.7987 65.5981 56.8987 67.1981 56.8987C67.2981 56.8987 67.3981 56.8987 67.4981 56.8987C67.5981 56.8987 67.6981 56.8987 67.8981 56.8987H67.9981C68.0981 56.8987 68.1981 56.8987 68.2981 56.8987C68.4981 56.8987 68.6981 56.8987 68.8981 56.8987C68.9981 56.8987 69.1981 56.8987 69.2981 56.8987C69.5981 56.8987 69.8981 56.7987 70.0981 56.7987C70.2981 56.7987 70.3981 56.6987 70.5981 56.6987C70.6981 56.6987 70.6981 56.6987 70.7981 56.5987C70.9981 56.4987 71.1981 56.4987 71.3981 56.4987C71.4981 56.4987 71.4981 56.4987 71.5981 56.3987C71.6981 56.3987 71.7981 56.2987 71.8981 56.2987C71.9981 56.2987 71.9981 56.1987 72.0981 56.1987C72.0981 56.1987 72.0981 56.1987 72.1981 56.1987C72.3981 56.0987 72.5981 55.9987 72.6981 55.7987C72.6981 55.6987 72.7981 55.6987 72.7981 55.5987V54.6987V54.1987V53.6987V53.3987V53.2987V53.1987V52.9987H72.6981L72.5981 52.8987C72.4981 52.7987 72.3981 52.7987 72.2981 52.6987C72.1981 52.6987 72.1981 52.7987 72.0981 52.7987C71.9981 52.8987 71.8981 52.8987 71.7981 52.8987H71.6981C71.4981 52.9987 71.2981 52.9987 71.0981 53.0987C70.9981 53.0987 70.7981 53.0987 70.6981 53.1987C70.2981 53.2987 69.8981 53.2987 69.3981 53.3987C68.9981 53.3987 68.6981 53.4987 68.2981 53.4987C68.0981 53.4987 67.8981 53.4987 67.6981 53.4987H67.5981C67.4981 53.4987 67.4981 53.4987 67.3981 53.4987C67.2981 53.4987 67.2981 53.4987 67.1981 53.4987C65.0981 53.4987 63.7981 53.2987 62.8981 52.9987C62.6981 52.8987 62.4981 52.8987 62.3981 52.7987C62.2981 52.7987 62.2981 52.6987 62.1981 52.6987C61.9981 52.7987 61.8981 52.8987 61.7981 52.9987H61.5981V55.2987ZM67.0981 54.2987C67.1981 54.2987 67.1981 54.2987 67.2981 54.2987C67.3981 54.2987 67.3981 54.2987 67.4981 54.2987C67.5981 54.2987 67.6981 54.2987 67.7981 54.2987H67.8981C68.0981 54.2987 68.2981 54.2987 68.4981 54.2987C68.7981 54.2987 68.9981 54.2987 69.2981 54.1987C69.7981 54.1987 70.2981 54.0987 70.6981 53.9987C71.0981 53.8987 71.4981 53.8987 71.7981 53.7987H71.8981V53.9987V54.4987V55.0987C71.8981 55.0987 71.7981 55.1987 71.6981 55.1987C71.3981 55.2987 70.8981 55.4987 69.9981 55.6987C69.7981 55.6987 69.5981 55.6987 69.3981 55.7987C68.9981 55.7987 68.5981 55.8987 67.9981 55.8987C67.8981 55.8987 67.8981 55.8987 67.7981 55.8987L67.3981 55.7987L66.9981 55.5987H66.8981L63.3981 53.9987C64.3981 54.1987 65.6981 54.2987 67.0981 54.2987Z" fill="#2988FF"/>
<path d="M61.5981 51.1986V51.3986C61.6981 51.4986 61.8981 51.7986 62.3981 52.0986C62.4981 52.1986 62.5981 52.1986 62.6981 52.1986C62.7981 52.1986 62.7981 52.1986 62.8981 52.2986C63.0981 52.3986 63.3981 52.3986 63.6981 52.4986C64.4981 52.6986 65.5981 52.7986 67.1981 52.7986C67.2981 52.7986 67.3981 52.7986 67.4981 52.7986C67.5981 52.7986 67.6981 52.7986 67.8981 52.7986H67.9981C68.0981 52.7986 68.1981 52.7986 68.2981 52.7986C68.4981 52.7986 68.6981 52.7986 68.8981 52.7986C68.9981 52.7986 69.1981 52.7986 69.2981 52.7986C69.5981 52.7986 69.8981 52.6986 70.0981 52.6986C70.2981 52.6986 70.3981 52.5986 70.5981 52.5986C70.6981 52.5986 70.6981 52.5986 70.7981 52.5986C70.9981 52.4986 71.1981 52.4986 71.3981 52.3986C71.4981 52.3986 71.4981 52.2986 71.5981 52.2986C71.6981 52.2986 71.7981 52.1986 71.8981 52.1986C71.9981 52.1986 71.9981 52.0986 72.0981 52.0986C72.0981 52.0986 72.0981 52.0986 72.1981 52.0986C72.3981 51.9986 72.5981 51.7986 72.6981 51.6986C72.6981 51.6986 72.6981 51.6986 72.6981 51.5986C72.6981 51.4986 72.7981 51.4986 72.7981 51.3986V50.4986V49.9986V49.4986V49.1986V49.0986V48.9986V48.7986H72.6981L72.5981 48.6986C72.4981 48.5986 72.3981 48.5986 72.2981 48.5986C72.1981 48.5986 72.1981 48.6986 72.0981 48.6986C71.9981 48.6986 71.8981 48.7986 71.7981 48.7986H71.6981C71.4981 48.8986 71.2981 48.8986 71.0981 48.9986C70.9981 48.9986 70.7981 49.0986 70.6981 49.0986C70.2981 49.1986 69.8981 49.1986 69.3981 49.2986C69.0981 49.2986 68.6981 49.3986 68.2981 49.3986C68.0981 49.3986 67.8981 49.3986 67.6981 49.3986H67.5981C67.4981 49.3986 67.4981 49.3986 67.3981 49.3986C67.2981 49.3986 67.2981 49.3986 67.1981 49.3986C65.0981 49.3986 63.7981 49.1986 62.8981 48.8986C62.6981 48.7986 62.4981 48.7986 62.3981 48.6986C62.2981 48.6986 62.2981 48.5986 62.1981 48.5986C61.9981 48.6986 61.8981 48.7986 61.7981 48.8986H61.5981V51.1986ZM67.0981 50.1986C67.1981 50.1986 67.1981 50.1986 67.2981 50.1986C67.3981 50.1986 67.3981 50.1986 67.4981 50.1986C67.5981 50.1986 67.6981 50.1986 67.7981 50.1986H67.8981C68.0981 50.1986 68.2981 50.1986 68.4981 50.1986C68.7981 50.1986 68.9981 50.1986 69.2981 50.0986C69.7981 50.0986 70.2981 49.9986 70.6981 49.8986C71.0981 49.7986 71.4981 49.6986 71.7981 49.6986H71.8981V49.8986V50.3986V50.9986C71.8981 50.9986 71.7981 51.0986 71.6981 51.0986C71.3981 51.1986 70.8981 51.3986 69.9981 51.5986C69.7981 51.5986 69.5981 51.6986 69.3981 51.6986C68.9981 51.6986 68.5981 51.7986 67.9981 51.7986C67.8981 51.7986 67.8981 51.7986 67.7981 51.7986L67.3981 51.5986L66.9981 51.3986H66.8981L63.2981 49.8986C64.3981 50.0986 65.6981 50.1986 67.0981 50.1986Z" fill="#2988FF"/>
<path d="M61.5981 59.3986V59.5986C61.6981 59.6986 61.8981 59.9986 62.3981 60.2986C62.4981 60.3986 62.5981 60.3986 62.6981 60.3986C62.7981 60.3986 62.7981 60.3986 62.8981 60.4986C63.0981 60.5986 63.3981 60.5986 63.6981 60.6986C64.4981 60.8986 65.5981 60.9986 67.1981 60.9986C67.2981 60.9986 67.3981 60.9986 67.4981 60.9986C67.5981 60.9986 67.6981 60.9986 67.8981 60.9986H67.9981C68.0981 60.9986 68.1981 60.9986 68.2981 60.9986C68.4981 60.9986 68.6981 60.9986 68.8981 60.9986C68.9981 60.9986 69.1981 60.9986 69.2981 60.9986C69.5981 60.9986 69.8981 60.8986 70.0981 60.8986C70.2981 60.8986 70.3981 60.7986 70.5981 60.7986C70.6981 60.7986 70.6981 60.7986 70.7981 60.6986C70.9981 60.6986 71.1981 60.5986 71.3981 60.4986C71.4981 60.4986 71.4981 60.4986 71.5981 60.3986C71.6981 60.2986 71.7981 60.2986 71.8981 60.2986C71.9981 60.2986 71.9981 60.1986 72.0981 60.1986C72.0981 60.1986 72.0981 60.1986 72.1981 60.1986C72.3981 60.0986 72.5981 59.9986 72.6981 59.7986C72.6981 59.7986 72.6981 59.7986 72.6981 59.6986C72.6981 59.5986 72.7981 59.5986 72.7981 59.4986V58.4986V57.9986V57.4986V57.1986V57.0986V56.9986V56.7986H72.6981L72.5981 56.6986C72.4981 56.6986 72.3981 56.5986 72.2981 56.5986C72.1981 56.5986 72.1981 56.6986 72.0981 56.6986C71.9981 56.6986 71.8981 56.7986 71.7981 56.7986H71.6981C71.4981 56.8986 71.2981 56.8986 71.0981 56.9986C70.9981 56.9986 70.7981 57.0986 70.6981 57.0986C70.2981 57.1986 69.8981 57.1986 69.3981 57.2986C68.9981 57.2986 68.6981 57.3986 68.2981 57.3986C68.0981 57.3986 67.8981 57.3986 67.6981 57.3986H67.5981C67.4981 57.3986 67.4981 57.3986 67.3981 57.3986C67.2981 57.3986 67.2981 57.3986 67.1981 57.3986C65.0981 57.3986 63.7981 57.1986 62.8981 56.8986C62.6981 56.7986 62.4981 56.7986 62.3981 56.6986C62.2981 56.6986 62.2981 56.5986 62.1981 56.5986C61.9981 56.6986 61.8981 56.7986 61.7981 56.8986H61.5981V59.3986ZM67.0981 58.3986C67.1981 58.3986 67.1981 58.3986 67.2981 58.3986C67.3981 58.3986 67.3981 58.3986 67.4981 58.3986C67.5981 58.3986 67.6981 58.3986 67.7981 58.3986H67.8981C68.0981 58.3986 68.2981 58.3986 68.4981 58.3986C68.7981 58.3986 68.9981 58.3986 69.2981 58.2986C69.7981 58.2986 70.2981 58.1986 70.6981 58.0986C71.0981 57.9986 71.4981 57.8986 71.7981 57.8986H71.8981V58.0986V58.5986V59.1986C71.8981 59.1986 71.7981 59.2986 71.6981 59.2986C71.3981 59.3986 70.8981 59.5986 69.9981 59.7986C69.7981 59.7986 69.5981 59.8986 69.3981 59.8986C68.9981 59.8986 68.5981 59.9986 67.9981 59.9986C67.8981 59.9986 67.8981 59.9986 67.7981 59.9986L67.3981 59.7986L66.9981 59.5986H66.8981L63.2981 58.0986C64.3981 58.2986 65.6981 58.3986 67.0981 58.3986Z" fill="#2988FF"/>
<path d="M61.5981 47.0984V47.2984C61.6981 47.3984 61.8981 47.6984 62.3981 47.9984C62.4981 48.0984 62.5981 48.0984 62.6981 48.0984C62.7981 48.0984 62.7981 48.0984 62.8981 48.1984C63.0981 48.2984 63.3981 48.2984 63.6981 48.3984C64.4981 48.5984 65.5981 48.6984 67.1981 48.6984C67.2981 48.6984 67.3981 48.6984 67.4981 48.6984C67.5981 48.6984 67.6981 48.6984 67.8981 48.6984H67.9981C68.0981 48.6984 68.1981 48.6984 68.2981 48.6984C68.4981 48.6984 68.6981 48.6984 68.8981 48.6984C68.9981 48.6984 69.1981 48.6984 69.2981 48.6984C69.5981 48.6984 69.8981 48.5984 70.0981 48.5984C70.2981 48.5984 70.3981 48.4984 70.5981 48.4984C70.6981 48.4984 70.6981 48.4984 70.7981 48.3984C70.9981 48.3984 71.1981 48.2984 71.3981 48.2984C71.4981 48.2984 71.4981 48.2984 71.5981 48.1984C71.6981 48.0984 71.7981 48.0984 71.8981 48.0984C71.9981 48.0984 71.9981 48.0984 72.0981 47.9984C72.0981 47.9984 72.0981 47.9984 72.1981 47.9984C72.3981 47.8984 72.5981 47.7984 72.6981 47.5984C72.6981 47.4984 72.7981 47.4984 72.7981 47.3984V46.3984V45.8984V45.3984V45.0984V44.9984V44.8984V44.6984H72.6981L72.5981 44.5984C72.4981 44.4984 72.3981 44.4984 72.2981 44.3984C72.1981 44.3984 72.1981 44.4984 72.0981 44.4984C71.9981 44.5984 71.8981 44.5984 71.7981 44.5984C71.7981 44.5984 71.6981 44.5984 71.6981 44.6984C71.4981 44.7984 71.2981 44.7984 71.0981 44.8984C70.9981 44.8984 70.7981 44.9984 70.6981 44.9984C70.2981 45.0984 69.8981 45.0984 69.3981 45.1984C68.9981 45.1984 68.6981 45.2984 68.2981 45.2984C68.0981 45.2984 67.8981 45.2984 67.6981 45.2984H67.5981C67.4981 45.2984 67.4981 45.2984 67.3981 45.2984C67.2981 45.2984 67.2981 45.2984 67.1981 45.2984C65.0981 45.2984 63.7981 45.0984 62.8981 44.7984C62.6981 44.6984 62.4981 44.6984 62.3981 44.5984C62.2981 44.5984 62.2981 44.4984 62.1981 44.4984C61.9981 44.5984 61.8981 44.6984 61.7981 44.7984H61.5981V47.0984ZM67.0981 46.0984C67.1981 46.0984 67.1981 46.0984 67.2981 46.0984C67.3981 46.0984 67.3981 46.0984 67.4981 46.0984C67.5981 46.0984 67.6981 46.0984 67.7981 46.0984H67.8981C68.0981 46.0984 68.2981 46.0984 68.4981 46.0984C68.7981 46.0984 68.9981 46.0984 69.2981 45.9984C69.7981 45.9984 70.2981 45.8984 70.6981 45.7984C71.0981 45.6984 71.4981 45.6984 71.7981 45.5984H71.8981V45.7984V46.2984V46.8984C71.8981 46.8984 71.7981 46.9984 71.6981 46.9984C71.3981 47.0984 70.8981 47.2984 69.9981 47.4984C69.7981 47.4984 69.5981 47.4984 69.3981 47.5984C68.9981 47.5984 68.5981 47.6984 67.9981 47.6984C67.8981 47.6984 67.8981 47.6984 67.7981 47.6984L67.3981 47.5984L66.9981 47.3984H66.8981L63.2981 45.8984C64.3981 45.8984 65.6981 46.0984 67.0981 46.0984Z" fill="#2988FF"/>
<path d="M61.5981 42.9984V43.1984C61.6981 43.2984 61.8981 43.5984 62.3981 43.8984C62.4981 43.8984 62.5981 43.9984 62.6981 43.9984C62.7981 43.9984 62.7981 44.0984 62.8981 44.0984C63.0981 44.1984 63.3981 44.1984 63.6981 44.2984C64.4981 44.4984 65.5981 44.5984 67.1981 44.5984C67.2981 44.5984 67.3981 44.5984 67.4981 44.5984C67.5981 44.5984 67.6981 44.5984 67.8981 44.5984C67.8981 44.5984 67.8981 44.5984 67.9981 44.5984C68.0981 44.5984 68.1981 44.5984 68.2981 44.5984C68.4981 44.5984 68.6981 44.5984 68.8981 44.5984C68.9981 44.5984 69.1981 44.5984 69.2981 44.5984C69.5981 44.5984 69.8981 44.4984 70.0981 44.4984C70.2981 44.4984 70.3981 44.3984 70.5981 44.3984C70.6981 44.3984 70.6981 44.3984 70.7981 44.3984C70.9981 44.2984 71.1981 44.2984 71.3981 44.1984C71.4981 44.1984 71.4981 44.1984 71.5981 44.0984C71.6981 44.0984 71.7981 43.9984 71.8981 43.9984C71.9981 43.9984 71.9981 43.8984 72.0981 43.8984C72.0981 43.8984 72.0981 43.8984 72.1981 43.8984C72.3981 43.7984 72.5981 43.6984 72.6981 43.4984C72.6981 43.4984 72.6981 43.4984 72.6981 43.3984C72.6981 43.2984 72.7981 43.2984 72.7981 43.1984V42.2984V41.7984V41.2984V40.9984V40.8984V40.7984V40.5984H72.6981L72.5981 40.4984C72.4981 40.3984 72.3981 40.3984 72.2981 40.3984C72.1981 40.3984 72.1981 40.4984 72.0981 40.4984C71.9981 40.4984 71.8981 40.5984 71.7981 40.5984H71.6981C71.4981 40.5984 71.2981 40.6984 71.0981 40.7984C70.9981 40.7984 70.7981 40.8984 70.6981 40.8984C70.2981 40.9984 69.8981 40.9984 69.3981 41.0984C68.9981 41.0984 68.6981 41.1984 68.2981 41.1984C68.0981 41.1984 67.8981 41.1984 67.6981 41.1984H67.5981C67.4981 41.1984 67.4981 41.1984 67.3981 41.1984C67.2981 41.1984 67.2981 41.1984 67.1981 41.1984C65.0981 41.1984 63.7981 40.9984 62.8981 40.6984C62.6981 40.5984 62.4981 40.5984 62.3981 40.4984C62.2981 40.4984 62.2981 40.3984 62.1981 40.3984C61.9981 40.4984 61.8981 40.5984 61.7981 40.6984H61.5981V42.9984ZM67.0981 41.9984C67.1981 41.9984 67.1981 41.9984 67.2981 41.9984C67.3981 41.9984 67.3981 41.9984 67.4981 41.9984C67.5981 41.9984 67.6981 41.9984 67.7981 41.9984H67.8981C68.0981 41.9984 68.2981 41.9984 68.4981 41.9984C68.7981 41.9984 68.9981 41.9984 69.2981 41.8984C69.7981 41.8984 70.2981 41.7984 70.6981 41.6984C71.0981 41.5984 71.4981 41.4984 71.7981 41.4984H71.8981V41.6984V42.1984V42.7984C71.8981 42.7984 71.7981 42.8984 71.6981 42.8984C71.3981 42.9984 70.8981 43.1984 70.0981 43.2984C69.8981 43.2984 69.6981 43.3984 69.4981 43.3984C69.0981 43.3984 68.6981 43.4984 68.0981 43.4984C67.9981 43.4984 67.9981 43.4984 67.8981 43.4984L67.4981 43.3984L67.0981 43.1984H66.9981L63.3981 41.6984C64.3981 41.7984 65.6981 41.9984 67.0981 41.9984Z" fill="#2988FF"/>
<path d="M61.5981 63.4984V63.6984C61.6981 63.7984 61.8981 64.0984 62.3981 64.3984C62.4981 64.3984 62.5981 64.4984 62.6981 64.4984C62.7981 64.4984 62.7981 64.5984 62.8981 64.5984C63.0981 64.6984 63.3981 64.6984 63.6981 64.7984C64.4981 64.9984 65.5981 65.0984 66.9981 65.0984C67.0981 65.0984 67.0981 65.0984 67.1981 65.0984C67.2981 65.0984 67.2981 65.0984 67.3981 65.0984C67.4981 65.0984 67.4981 65.0984 67.5981 65.0984C67.6981 65.0984 67.7981 65.0984 67.8981 65.0984C68.0981 65.0984 68.1981 65.0984 68.3981 65.0984C68.5981 65.0984 68.7981 65.0984 68.8981 65.0984C68.9981 65.0984 69.1981 65.0984 69.2981 65.0984C69.3981 65.0984 69.5981 65.0984 69.6981 65.0984C69.7981 65.0984 69.9981 65.0984 70.0981 64.9984C70.2981 64.9984 70.3981 64.8984 70.5981 64.8984C70.6981 64.8984 70.6981 64.8984 70.7981 64.8984C70.9981 64.7984 71.1981 64.7984 71.3981 64.7984C71.4981 64.7984 71.4981 64.6984 71.5981 64.6984C71.6981 64.6984 71.7981 64.5984 71.8981 64.5984C71.9981 64.5984 71.9981 64.4984 71.9981 64.4984H72.0981C72.2981 64.3984 72.4981 64.1984 72.5981 64.0984C72.5981 64.0984 72.5981 64.0984 72.5981 63.9984C72.5981 63.8984 72.6981 63.8984 72.6981 63.7984V63.5984V62.7984V62.2984V61.7984V61.4984V61.3984V61.2984V61.0984H72.5981L72.4981 60.9984C72.3981 60.8984 72.2981 60.8984 72.1981 60.8984C72.0981 60.8984 72.0981 60.9984 71.9981 60.9984C71.8981 60.9984 71.7981 61.0984 71.6981 61.0984H71.5981C71.3981 61.1984 71.1981 61.1984 70.9981 61.2984C70.8981 61.2984 70.6981 61.3984 70.5981 61.3984C70.1981 61.4984 69.7981 61.4984 69.2981 61.5984C68.9981 61.5984 68.5981 61.5984 68.1981 61.6984C67.9981 61.6984 67.7981 61.6984 67.5981 61.6984H67.4981C67.3981 61.6984 67.3981 61.6984 67.2981 61.6984C67.1981 61.6984 67.1981 61.6984 67.0981 61.6984C64.9981 61.6984 63.6981 61.4984 62.7981 61.1984C62.5981 61.0984 62.3981 61.0984 62.2981 60.9984C62.1981 60.9984 62.1981 60.8984 62.0981 60.8984C61.8981 60.9984 61.7981 61.0984 61.6981 61.1984H61.5981V63.4984ZM67.0981 62.4984C67.1981 62.4984 67.1981 62.4984 67.2981 62.4984C67.3981 62.4984 67.3981 62.4984 67.4981 62.4984C67.5981 62.4984 67.6981 62.4984 67.7981 62.4984H67.8981C68.0981 62.4984 68.2981 62.4984 68.4981 62.4984C68.7981 62.4984 68.9981 62.4984 69.2981 62.4984C69.7981 62.4984 70.2981 62.3984 70.6981 62.2984C71.0981 62.1984 71.4981 62.0984 71.7981 62.0984H71.8981V62.2984V62.7984V63.3984C71.8981 63.3984 71.7981 63.4984 71.6981 63.4984C71.5981 63.5984 71.3981 63.5984 71.1981 63.6984C70.8981 63.7984 70.5981 63.8984 70.0981 63.8984C69.8981 63.8984 69.6981 63.9984 69.4981 63.9984C69.3981 63.9984 69.3981 63.9984 69.2981 63.9984C68.9981 63.9984 68.5981 64.0984 68.0981 64.0984C67.9981 64.0984 67.9981 64.0984 67.8981 64.0984L67.4981 63.9984L67.0981 63.7984H66.9981L63.3981 62.2984C64.3981 62.3984 65.6981 62.4984 67.0981 62.4984Z" fill="#2988FF"/>
<path d="M61.5981 71.7985V71.9985C61.5981 72.0985 61.7981 72.2985 62.0981 72.4985C62.1981 72.4985 62.1981 72.5985 62.2981 72.5985C62.3981 72.5985 62.3981 72.6985 62.4981 72.6985C62.6981 72.7985 62.7981 72.7985 63.0981 72.8985C63.1981 72.8985 63.2981 72.9985 63.3981 72.9985C64.1981 73.1985 65.4981 73.3985 67.2981 73.3985C69.0981 73.3985 70.3981 73.1985 71.1981 72.9985C71.2981 72.9985 71.3981 72.8985 71.4981 72.8985C71.6981 72.7985 71.8981 72.7985 72.0981 72.6985C72.1981 72.6985 72.1981 72.5985 72.2981 72.5985C72.3981 72.5985 72.4981 72.4985 72.4981 72.4985C72.7981 72.2985 72.8981 72.0985 72.9981 71.9985V69.6985V69.5985V69.4985V69.2985H72.8981C72.8981 69.2985 72.7981 69.1985 72.6981 69.1985C72.5981 69.1985 72.5981 69.0985 72.4981 69.0985C72.3981 69.0985 72.3981 69.1985 72.2981 69.1985C72.2981 69.1985 72.2981 69.1985 72.1981 69.1985C72.0981 69.1985 71.9981 69.2985 71.8981 69.2985H71.7981C71.4981 69.3985 71.1981 69.4985 70.7981 69.4985C69.9981 69.6985 68.8981 69.7985 67.3981 69.7985C65.1981 69.7985 63.8981 69.5985 62.9981 69.2985C62.7981 69.1985 62.5981 69.1985 62.4981 69.0985C62.3981 69.0985 62.3981 68.9985 62.2981 68.9985C62.0981 69.0985 61.9981 69.1985 61.8981 69.2985H61.5981V71.7985ZM67.2981 70.7985C69.0981 70.7985 70.7981 70.5985 71.7981 70.2985H71.8981V71.5985C71.7981 71.6985 71.4981 71.7985 70.9981 71.9985C70.7981 72.0985 70.4981 72.0985 70.1981 72.1985C70.0981 72.1985 70.0981 72.1985 69.9981 72.1985C69.4981 72.2985 68.7981 72.2985 67.8981 72.3985L66.9981 71.9985L66.1981 71.5985L63.3981 70.3985C64.3981 70.5985 65.7981 70.7985 67.2981 70.7985Z" fill="#2988FF"/>
<path d="M61.5981 67.5983V67.7983C61.6981 67.8983 61.8981 68.1983 62.3981 68.4983C62.4981 68.5983 62.5981 68.5983 62.6981 68.5983C62.7981 68.5983 62.7981 68.5983 62.8981 68.6983C63.0981 68.7983 63.3981 68.7983 63.6981 68.8983C64.4981 69.0983 65.5981 69.1983 67.1981 69.1983C67.7981 69.1983 68.3981 69.1983 68.8981 69.0983C69.3981 69.0983 69.7981 68.9983 70.1981 68.9983C70.2981 68.9983 70.4981 68.9983 70.5981 68.8983C70.5981 68.8983 70.5981 68.8983 70.6981 68.8983C70.9981 68.7983 71.1981 68.7983 71.3981 68.6983C71.3981 68.6983 71.3981 68.6983 71.4981 68.6983C71.5981 68.6983 71.5981 68.6983 71.6981 68.5983C71.7981 68.5983 71.7981 68.5983 71.8981 68.4983C71.9981 68.4983 71.9981 68.3983 72.0981 68.3983C72.4981 68.1983 72.6981 68.0983 72.7981 67.8983C72.8981 67.7983 72.8981 67.7983 72.8981 67.6983V67.4983V66.2983V65.7983V65.6983V65.3983V65.2983V65.1983V64.9983H72.7981L72.6981 64.8983C72.5981 64.8983 72.5981 64.7983 72.4981 64.7983C72.3981 64.7983 72.3981 64.8983 72.2981 64.8983H72.1981C72.0981 64.8983 71.9981 64.9983 71.8981 64.9983H71.7981C71.5981 65.0983 71.3981 65.0983 71.1981 65.1983C71.0981 65.1983 70.8981 65.2983 70.7981 65.2983C70.3981 65.3983 69.9981 65.3983 69.4981 65.4983C69.0981 65.4983 68.5981 65.5983 67.9981 65.5983H67.8981C67.7981 65.5983 67.6981 65.5983 67.5981 65.5983C67.4981 65.5983 67.4981 65.5983 67.3981 65.5983C67.2981 65.5983 67.2981 65.5983 67.1981 65.5983C65.0981 65.5983 63.7981 65.3983 62.8981 65.0983C62.6981 64.9983 62.4981 64.9983 62.3981 64.8983C62.2981 64.8983 62.2981 64.7983 62.1981 64.7983C61.9981 64.8983 61.8981 64.9983 61.7981 65.0983H61.5981V67.5983ZM67.0981 66.5983C67.1981 66.5983 67.1981 66.5983 67.2981 66.5983C67.3981 66.5983 67.3981 66.5983 67.4981 66.5983C67.5981 66.5983 67.5981 66.5983 67.6981 66.5983C67.7981 66.5983 67.7981 66.5983 67.8981 66.5983C68.0981 66.5983 68.2981 66.5983 68.4981 66.5983C68.9981 66.5983 69.5981 66.4983 69.9981 66.4983C70.1981 66.4983 70.3981 66.3983 70.6981 66.3983C71.0981 66.2983 71.4981 66.1983 71.7981 66.1983H71.8981V66.4983V67.2983V67.4983C71.7981 67.5983 71.3981 67.7983 70.5981 67.9983C70.3981 67.9983 70.1981 68.0983 69.9981 68.0983C69.5981 68.1983 69.0981 68.1983 68.3981 68.2983C68.1981 68.2983 68.0981 68.2983 67.8981 68.2983C67.8981 68.2983 67.8981 68.2983 67.7981 68.2983L67.5981 67.9983L67.0981 67.7983H66.9981L63.3981 66.2983C64.3981 66.4983 65.6981 66.5983 67.0981 66.5983Z" fill="#2988FF"/>
<path d="M80.4982 65.9983V65.8983C79.9982 65.8983 79.5982 65.8983 79.1982 65.7983V65.9983V66.4983C79.5982 66.4983 80.0982 66.4983 80.4982 66.4983V65.9983Z" fill="#2988FF"/>
<path d="M72.7981 36.2985C72.6981 36.1985 72.6981 36.1985 72.6981 36.1985C72.5981 36.0985 72.4981 36.0985 72.3981 35.9985C72.2981 35.9985 72.2981 36.0985 72.1981 36.0985C72.0981 36.0985 71.9981 36.1985 71.8981 36.1985H71.7981C71.5981 36.2985 71.3981 36.2985 71.1981 36.3985C71.0981 36.3985 70.8981 36.4985 70.7981 36.4985C70.3981 36.5985 69.9981 36.5985 69.4981 36.6985C69.0981 36.6985 68.7981 36.7985 68.3981 36.7985C68.1981 36.7985 67.9981 36.7985 67.7981 36.7985H67.6981C67.5981 36.7985 67.5981 36.7985 67.4981 36.7985C67.3981 36.7985 67.3981 36.7985 67.2981 36.7985C65.1981 36.7985 63.8981 36.5985 62.9981 36.2985C62.7981 36.1985 62.5981 36.1985 62.4981 36.0985C62.3981 36.0985 62.3981 35.9985 62.2981 35.9985C62.0981 36.0985 61.9981 36.1985 61.8981 36.2985H61.5981V38.7985V38.9985C61.6981 39.0985 61.8981 39.3985 62.3981 39.6985C62.4981 39.7985 62.5981 39.7985 62.6981 39.7985C62.7981 39.7985 62.7981 39.7985 62.8981 39.8985C63.0981 39.9985 63.3981 39.9985 63.6981 40.0985C64.4981 40.2985 65.5981 40.3985 67.1981 40.3985C67.2981 40.3985 67.3981 40.3985 67.4981 40.3985C67.5981 40.3985 67.6981 40.3985 67.8981 40.3985C67.8981 40.3985 67.8981 40.3985 67.9981 40.3985C68.0981 40.3985 68.1981 40.3985 68.2981 40.3985C68.4981 40.3985 68.6981 40.3985 68.8981 40.3985C68.9981 40.3985 69.1981 40.3985 69.2981 40.3985C69.5981 40.3985 69.8981 40.2985 70.0981 40.2985C70.2981 40.2985 70.3981 40.1985 70.5981 40.1985C70.6981 40.1985 70.6981 40.1985 70.7981 40.1985C70.9981 40.0985 71.1981 40.0985 71.3981 40.0985C71.4981 40.0985 71.4981 39.9985 71.5981 39.9985C71.6981 39.9985 71.7981 39.8985 71.8981 39.8985C71.9981 39.8985 71.9981 39.8985 72.0981 39.7985C72.0981 39.7985 72.0981 39.7985 72.1981 39.7985C72.3981 39.6985 72.5981 39.4985 72.6981 39.3985C72.6981 39.3985 72.6981 39.3985 72.6981 39.2985C72.6981 39.1985 72.7981 39.1985 72.7981 39.0985V38.1985V37.6985V37.1985V36.8985V36.7985V36.6985V36.4985V36.2985ZM71.8981 37.5985V38.0985V38.6985C71.8981 38.6985 71.7981 38.7985 71.6981 38.7985C71.3981 38.8985 70.8981 39.0985 70.0981 39.2985C69.8981 39.2985 69.6981 39.3985 69.4981 39.3985C69.0981 39.3985 68.6981 39.4985 68.0981 39.4985C67.9981 39.4985 67.9981 39.4985 67.8981 39.4985L67.4981 39.2985L67.0981 39.0985H66.9981L63.3981 37.5985C64.3981 37.7985 65.6981 37.8985 67.0981 37.9985C67.1981 37.9985 67.1981 37.9985 67.2981 37.9985C67.3981 37.9985 67.3981 37.9985 67.4981 37.9985C67.5981 37.9985 67.6981 37.9985 67.7981 37.9985H67.8981C68.0981 37.9985 68.2981 37.9985 68.4981 37.9985C68.7981 37.9985 68.9981 37.9985 69.2981 37.8985C69.7981 37.8985 70.2981 37.7985 70.6981 37.6985C71.0981 37.5985 71.4981 37.4985 71.7981 37.4985H71.8981V37.5985Z" fill="#2988FF"/>
<path d="M67.498 30.7987C67.598 30.7987 67.6979 30.7987 67.7979 30.7987H67.898C68.198 30.7987 68.4979 30.7987 68.7979 30.8987C69.4979 30.9987 70.298 31.0987 70.898 31.1987C71.198 31.2987 71.398 31.2987 71.5979 31.3987C71.6979 31.3987 71.6979 31.4987 71.7979 31.4987C72.0979 31.5987 72.298 31.6987 72.498 31.8987C72.598 31.9987 72.6979 31.9987 72.7979 32.0987C72.8979 32.1987 72.898 32.1987 72.998 32.2987L73.0979 32.3987H73.1979V32.5987C74.6979 32.5987 75.698 32.4987 76.498 32.2987C76.798 32.1987 77.0979 32.1987 77.2979 32.0987C77.3979 32.0987 77.398 32.0987 77.498 31.9987C77.598 31.9987 77.6979 31.8987 77.7979 31.8987C78.3979 31.5987 78.5979 31.3987 78.5979 31.1987V28.8987V28.6987V28.4987H78.498C78.398 28.3987 78.2979 28.2987 78.0979 28.1987C77.9979 28.1987 77.998 28.2987 77.898 28.2987C77.798 28.3987 77.598 28.3987 77.398 28.4987C76.498 28.7987 75.098 28.9987 72.998 28.9987C70.798 28.9987 69.498 28.7987 68.5979 28.4987C68.3979 28.3987 68.198 28.3987 68.0979 28.2987C67.9979 28.2987 67.998 28.1987 67.898 28.1987C67.698 28.2987 67.598 28.3987 67.498 28.4987H67.3979V30.7987H67.498ZM73.1979 29.8987C74.9979 29.8987 76.6979 29.6987 77.6979 29.3987H77.7979V30.6987C77.5979 30.7987 77.198 31.0987 75.998 31.2987C75.498 31.3987 74.798 31.4987 73.898 31.4987L72.898 30.9987L69.2979 29.4987C70.2979 29.6987 71.6979 29.8987 73.1979 29.8987Z" fill="#2988FF"/>
<path d="M67.498 24.1987V26.6987V26.8987C67.598 26.9987 67.7979 27.2987 68.2979 27.5987C68.3979 27.6987 68.4979 27.6987 68.5979 27.6987C68.698 27.6987 68.6979 27.6987 68.7979 27.7987C68.9979 27.8987 69.298 27.8987 69.5979 27.9987C70.3979 28.1987 71.498 28.2987 72.998 28.2987C74.498 28.2987 75.598 28.1987 76.398 27.9987C76.698 27.8987 76.9979 27.8987 77.1979 27.7987C77.2979 27.7987 77.298 27.7987 77.398 27.6987C77.498 27.5987 77.5979 27.5987 77.6979 27.5987C78.2979 27.2987 78.498 26.9987 78.498 26.8987V24.5987V24.3987V24.1987H78.398C77.898 23.5987 75.598 23.1987 72.898 23.1987C70.198 23.1987 67.8979 23.5987 67.3979 24.1987H67.498ZM73.1979 25.7987C74.9979 25.7987 76.6979 25.5987 77.6979 25.2987H77.7979V26.5987C77.5979 26.6987 77.198 26.9987 75.998 27.1987C75.498 27.2987 74.798 27.2987 73.898 27.3987L72.998 26.9987L69.398 25.4987C70.298 25.5987 71.6979 25.7987 73.1979 25.7987Z" fill="#2988FF"/>
<path d="M92.0983 68.6986C91.9983 68.5986 91.8983 68.6986 91.8983 68.6986C91.8983 68.6986 91.8983 68.6986 91.7983 68.6986C91.6983 68.7986 91.5983 68.7986 91.3983 68.8986C90.4983 69.2986 89.0983 69.5986 86.4983 69.5986C85.2983 69.5986 84.3983 69.4986 83.5983 69.3986C83.0983 69.2986 82.5983 69.1986 82.2983 69.0986C82.1983 69.0986 81.9983 68.9986 81.8983 68.9986C81.7983 68.9986 81.6983 68.8986 81.5983 68.8986C81.4983 68.8986 81.3983 68.7986 81.2983 68.7986C81.1983 68.7986 81.1983 68.6986 81.1983 68.6986C81.1983 68.6986 81.1983 68.6986 81.0983 68.6986L80.9983 68.5986C80.9983 68.5986 80.8983 68.5986 80.8983 68.6986H80.7983V68.7986V68.9986V69.0986V69.1986V69.5986V70.8986V71.1986V71.3986C80.8983 71.6986 81.7983 72.7986 86.3983 72.7986C90.9983 72.7986 91.8983 71.6986 91.9983 71.3986V69.0986V68.8986V68.6986H92.0983ZM91.1983 70.9986C90.9983 71.1986 89.9983 71.6986 87.1983 71.6986L82.6983 69.7986C83.6983 69.9986 85.0983 70.0986 86.5983 70.0986C88.3983 70.0986 90.0983 69.8986 91.0983 69.5986H91.1983V70.9986Z" fill="#2988FF"/>
<path d="M78.6982 32.3986C78.5982 32.2986 78.4982 32.1986 78.2982 32.0986C78.1982 32.0986 78.1982 32.1986 78.0982 32.1986C77.9982 32.2986 77.7982 32.2986 77.5982 32.3986C76.6982 32.6986 75.3982 32.8986 73.2982 32.8986V33.3986V33.8986C75.0982 33.8986 76.6982 33.6986 77.6982 33.3986H77.7982V34.6986C77.5982 34.7986 77.1982 35.0986 75.9982 35.2986C75.4982 35.3986 74.7982 35.3986 73.8982 35.4986L73.3982 35.2986C73.3982 35.3986 73.2982 35.3986 73.1982 35.4986C73.0982 35.5986 72.8982 35.6986 72.6982 35.8986C72.7982 35.9986 72.8982 35.9986 72.9982 36.0986C73.0982 36.1986 73.0982 36.1986 73.1982 36.2986L73.2982 36.3986H73.3982V36.5986C74.0982 36.5986 74.6982 36.5986 75.2982 36.4986C75.3982 36.4986 75.4982 36.4986 75.5982 36.4986C75.6982 36.4986 75.8982 36.4986 75.9982 36.3986C76.2982 36.3986 76.4982 36.2986 76.6982 36.2986C76.9982 36.1986 77.2982 36.1986 77.4982 36.0986C77.5982 36.0986 77.5982 36.0986 77.6982 35.9986C77.7982 35.9986 77.8982 35.8986 77.9982 35.8986C78.0982 35.7986 78.1982 35.7986 78.2982 35.6986C78.2982 35.6986 78.3982 35.6986 78.3982 35.5986C78.5982 35.3986 78.7982 35.2986 78.7982 35.1986V35.0986V32.7986V32.5986V32.3986H78.6982Z" fill="#2988FF"/>
<path d="M78.6981 36.5983C78.5981 36.4983 78.4981 36.3983 78.2981 36.2983C78.1981 36.2983 78.1981 36.3983 78.0981 36.3983C77.9981 36.4983 77.7981 36.4983 77.5981 36.5983C77.0981 36.6983 76.5981 36.8983 75.7981 36.9983C75.5981 36.9983 75.4981 36.9983 75.2981 37.0983C75.1981 37.0983 75.0981 37.0983 74.8981 37.0983C74.3981 37.0983 73.8981 37.1983 73.3981 37.1983V37.6983V38.1983C73.8981 38.1983 74.4981 38.1983 74.9981 38.0983C75.0981 38.0983 75.2981 38.0983 75.3981 38.0983C75.4981 38.0983 75.5981 38.0983 75.6981 38.0983H75.7981C75.9981 38.0983 76.1981 38.0983 76.3981 37.9983C76.6981 37.9983 76.8981 37.8983 77.1981 37.8983C77.3981 37.8983 77.5981 37.7983 77.7981 37.6983H77.8981V37.9983V38.1983V38.9983C77.7981 39.0983 77.5981 39.1983 77.0981 39.2983C76.7981 39.3983 76.4981 39.4983 75.9981 39.4983C75.8981 39.4983 75.8981 39.4983 75.7981 39.4983C75.6981 39.4983 75.5981 39.4983 75.4981 39.4983C75.3981 39.4983 75.3981 39.4983 75.2981 39.4983C75.1981 39.4983 74.9981 39.4983 74.8981 39.4983C74.5981 39.4983 74.1981 39.4983 73.7981 39.5983L73.2981 39.3983C73.2981 39.3983 73.1981 39.4983 73.0981 39.5983C72.9981 39.6983 72.7981 39.8983 72.5981 39.9983C72.6981 40.0983 72.7981 40.0983 72.7981 40.1983C72.8981 40.2983 72.8981 40.2983 72.9981 40.3983L73.0981 40.4983H73.1981V40.6983C73.8981 40.6983 74.4981 40.6983 75.0981 40.5983C75.1981 40.5983 75.2981 40.5983 75.3981 40.5983C75.4981 40.5983 75.6981 40.5983 75.7981 40.4983C75.7981 40.4983 75.7981 40.4983 75.8981 40.4983C76.0981 40.4983 76.2981 40.3983 76.4981 40.3983C76.5981 40.3983 76.5981 40.3983 76.5981 40.3983C76.6981 40.3983 76.7981 40.3983 76.8981 40.2983C76.9981 40.2983 77.0981 40.1983 77.2981 40.1983H77.3981C77.3981 40.1983 77.3981 40.1983 77.4981 40.1983C77.5981 40.1983 77.6981 40.0983 77.7981 40.0983C77.8981 40.0983 77.9981 39.9983 78.0981 39.9983C78.0981 39.9983 78.1981 39.9983 78.1981 39.8983C78.2981 39.7983 78.3981 39.6983 78.4981 39.5983C78.4981 39.4983 78.5981 39.4983 78.5981 39.4983V39.3983V38.5983V38.0983V37.6983V37.0983V36.8983V36.6983H78.6981V36.5983Z" fill="#2988FF"/>
<path d="M92.0979 64.9987C91.9979 64.8987 91.8979 64.7987 91.6979 64.6987C91.5979 64.6987 91.5979 64.7987 91.4979 64.7987C91.3979 64.8987 91.1979 64.8987 90.9979 64.9987C90.1979 65.2987 88.8979 65.4987 86.9979 65.4987C86.8979 65.4987 86.7979 65.4987 86.5979 65.4987H86.4979C86.3979 65.4987 86.2979 65.4987 86.1979 65.4987C85.7979 65.4987 85.3979 65.4987 85.0979 65.4987C84.5979 65.4987 84.0979 65.3987 83.6979 65.3987C83.4979 65.3987 83.3979 65.2987 83.1979 65.2987C82.8979 65.2987 82.5979 65.1987 82.2979 65.0987C82.1979 65.0987 82.0979 65.0987 82.0979 64.9987C81.8979 64.8987 81.7979 64.8987 81.5979 64.7987C81.4979 64.7987 81.4979 64.6987 81.3979 64.6987C81.1979 64.7987 81.0979 64.8987 80.9979 64.9987H80.8979V65.0987V65.1987V65.2987V65.3987V65.7987V65.9987V66.4987V67.1987V67.4987V67.6987V67.7987C80.8979 67.8987 80.9979 67.9987 81.0979 67.9987C81.1979 68.0987 81.1979 68.0987 81.2979 68.1987C81.3979 68.1987 81.3979 68.2987 81.4979 68.2987C81.5979 68.2987 81.5979 68.3987 81.6979 68.3987C81.8979 68.4987 81.9979 68.4987 82.2979 68.5987C82.3979 68.5987 82.4979 68.6987 82.5979 68.6987C82.6979 68.6987 82.6979 68.6987 82.7979 68.6987C83.0979 68.7987 83.2979 68.7987 83.6979 68.8987C83.7979 68.8987 83.9979 68.8987 84.1979 68.8987C84.5979 68.8987 84.9979 68.9987 85.4979 68.9987C85.8979 68.9987 86.1979 68.9987 86.6979 68.9987C88.4979 68.9987 89.7979 68.7987 90.5979 68.5987C90.6979 68.5987 90.7979 68.4987 90.8979 68.4987C91.0979 68.3987 91.2979 68.3987 91.4979 68.2987C91.5979 68.2987 91.5979 68.1987 91.6979 68.1987C91.7979 68.1987 91.8979 68.0987 91.8979 68.0987C92.1979 67.8987 92.2979 67.6987 92.3979 67.5987V65.2987V65.0987V64.8987H92.0979V64.9987ZM91.1979 67.2987C91.0979 67.3987 90.7979 67.4987 90.2979 67.6987C90.0979 67.7987 89.7979 67.7987 89.4979 67.8987C89.4979 67.8987 89.3979 67.8987 89.2979 67.8987C88.7979 67.9987 88.0979 67.9987 87.1979 68.0987L86.8979 67.9987L86.5979 67.7987H86.4979L86.2979 67.6987L86.1979 67.5987L85.4979 67.2987L83.2979 66.3987L82.7979 66.1987C83.0979 66.2987 83.3979 66.2987 83.7979 66.3987C84.3979 66.4987 84.9979 66.4987 85.6979 66.5987C85.8979 66.5987 86.0979 66.5987 86.2979 66.5987C86.3979 66.5987 86.4979 66.5987 86.6979 66.5987C86.7979 66.5987 86.8979 66.5987 87.0979 66.5987C88.7979 66.5987 90.2979 66.3987 91.1979 66.0987H91.2979V67.2987H91.1979Z" fill="#2988FF"/>
<path d="M79.1981 67.9986C79.1981 68.0986 79.0981 68.2986 78.7981 68.4986C78.6981 68.5986 78.5981 68.5986 78.4981 68.6986C78.3981 68.7986 78.1981 68.7986 78.0981 68.8986C78.6981 68.9986 79.5981 68.9986 80.4981 69.0986V68.8986H80.6981C80.7981 68.7986 80.8981 68.6986 80.8981 68.5986C80.5981 68.3986 80.4981 68.1986 80.4981 68.0986V67.9986V67.6986L79.1981 67.0986V67.9986Z" fill="#2988FF"/>
<path d="M59.1981 29.1984C59.0981 29.0984 58.9981 28.9984 58.7981 28.8984C58.7981 28.9984 58.6981 28.9984 58.5981 28.9984C58.4981 29.0984 58.2981 29.0984 58.0981 29.1984C57.1981 29.4984 55.7981 29.6984 53.6981 29.6984C51.4981 29.6984 50.1981 29.4984 49.2981 29.1984C49.0981 29.0984 48.8981 29.0984 48.7981 28.9984C48.6981 28.9984 48.6981 28.8984 48.5981 28.8984C48.3981 28.9984 48.2981 29.0984 48.1981 29.1984H48.0981V31.6984V31.8984C48.1981 31.9984 48.3981 32.2984 48.8981 32.5984C48.9981 32.6984 49.0981 32.6984 49.1981 32.6984C49.2981 32.6984 49.2981 32.6984 49.3981 32.7984C49.5981 32.8984 49.8981 32.8984 50.1981 32.9984C50.9981 33.1984 52.0981 33.2984 53.6981 33.2984C55.1981 33.2984 56.2981 33.1984 57.1981 32.9984C57.4981 32.8984 57.7981 32.8984 57.9981 32.7984C58.0981 32.7984 58.0981 32.7984 58.1981 32.6984C58.2981 32.5984 58.3981 32.5984 58.4981 32.5984C59.0981 32.2984 59.2981 31.9984 59.2981 31.8984V29.5984V29.3984V29.1984H59.1981ZM58.2981 31.5984C58.0981 31.6984 57.6981 31.9984 56.4981 32.1984C55.9981 32.2984 55.2981 32.2984 54.3981 32.3984L53.4981 31.9984L49.8981 30.4984C50.8981 30.6984 52.2981 30.7984 53.7981 30.7984C55.5981 30.7984 57.2981 30.5984 58.2981 30.2984H58.3981V31.5984H58.2981Z" fill="#2988FF"/>
<path d="M78.1982 64.4987L78.2982 64.3987C78.3982 64.2987 78.4982 64.1987 78.5982 64.0987C78.5982 63.9987 78.6982 63.9987 78.6982 63.8987C78.6982 63.8987 78.6982 63.8987 78.6982 63.7987V63.4987V62.9987V62.4987V62.0987V61.4987C78.4982 61.4987 78.3982 61.4987 78.1982 61.3987C77.6982 61.2987 77.2982 61.2987 76.9982 61.1987C76.6982 61.2987 76.1982 61.3987 75.7982 61.3987C75.5982 61.3987 75.4982 61.3987 75.2982 61.4987C75.1982 61.4987 75.0982 61.4987 74.8982 61.4987C74.3982 61.4987 73.8982 61.4987 73.3982 61.4987V61.9987V62.4987C73.8982 62.4987 74.4982 62.4987 74.9982 62.3987C75.0982 62.3987 75.2982 62.3987 75.3982 62.3987C75.4982 62.3987 75.5982 62.3987 75.6982 62.3987H75.7982C75.9982 62.3987 76.1982 62.2987 76.3982 62.2987C76.6982 62.2987 76.8982 62.1987 77.1982 62.1987C77.3982 62.0987 77.5982 62.0987 77.7982 61.9987H77.8982V62.2987V62.4987V63.2987C77.7982 63.3987 77.5982 63.4987 77.0982 63.6987H76.9982C76.7982 63.7987 76.4982 63.7987 76.1982 63.8987H76.0982C75.9982 63.8987 75.9982 63.8987 75.8982 63.8987C75.7982 63.8987 75.6982 63.8987 75.5982 63.8987C75.4982 63.8987 75.4982 63.8987 75.3982 63.8987C75.2982 63.8987 75.0982 63.8987 74.9982 63.8987C74.6982 63.8987 74.2982 63.9987 73.8982 63.9987L73.3982 63.7987C73.3982 63.8987 73.2982 63.8987 73.1982 63.9987C73.0982 64.0987 72.8982 64.2987 72.6982 64.3987C72.7982 64.4987 72.8982 64.4987 72.9982 64.5987C72.9982 64.5987 72.9982 64.5987 73.0982 64.6987L73.1982 64.7987L73.2982 64.8987H73.3982V65.0987C73.9982 65.0987 74.4982 65.0987 74.9982 64.9987C75.0982 64.9987 75.2982 64.9987 75.3982 64.9987H75.4982C75.6982 64.9987 75.8982 64.9987 76.0982 64.8987C76.0982 64.8987 76.0982 64.8987 76.1982 64.8987C76.4982 64.8987 76.6982 64.7987 76.8982 64.7987C76.9982 64.7987 77.0982 64.7987 77.1982 64.6987C77.2982 64.6987 77.3982 64.6987 77.4982 64.5987C77.5982 64.5987 77.5982 64.5987 77.6982 64.4987C77.7982 64.3987 77.9982 64.3987 78.0982 64.3987C78.1982 64.3987 78.1982 64.2987 78.2982 64.2987C78.0982 64.5987 78.1982 64.5987 78.1982 64.4987Z" fill="#2988FF"/>
<path d="M40.0981 70.2983V70.4983V72.1983V72.4983V72.6983C40.1981 72.9983 41.0981 74.0983 45.6981 74.0983C50.2981 74.0983 51.1981 72.9983 51.2981 72.6983V70.3983V70.2983V70.1983V69.9983H51.1981C51.1981 69.9983 51.0981 69.8983 50.9981 69.8983C50.8981 69.8983 50.8981 69.7983 50.7981 69.7983L50.6981 69.8983C50.6981 69.8983 50.6981 69.8983 50.5981 69.8983C50.4981 69.8983 50.4981 69.9983 50.3981 69.9983C50.2981 69.9983 50.1981 70.0983 50.0981 70.0983C49.9981 70.0983 49.7981 70.1983 49.6981 70.1983C48.7981 70.3983 47.4981 70.5983 45.6981 70.5983C43.4981 70.5983 42.1981 70.3983 41.2981 70.0983C41.0981 69.9983 40.8981 69.9983 40.7981 69.8983C40.6981 69.8983 40.6981 69.7983 40.5981 69.7983C40.3981 69.8983 40.2981 69.9983 40.1981 70.0983H40.0981V70.2983ZM45.7981 71.4983C47.5981 71.4983 49.2981 71.2983 50.2981 70.9983H50.3981V72.2983C50.1981 72.4983 49.1981 72.9983 46.3981 72.9983L41.8981 71.0983C42.8981 71.3983 44.2981 71.4983 45.7981 71.4983Z" fill="#2988FF"/>
<path d="M40.0981 65.8985V66.1985V66.3985V68.0985V68.3985V68.5985C40.1981 68.6985 40.3981 68.9985 40.8981 69.2985C40.9981 69.3985 41.0981 69.3985 41.1981 69.3985C41.2981 69.3985 41.2981 69.3985 41.3981 69.4985C41.5981 69.5985 41.8981 69.5985 42.1981 69.6985C42.9981 69.8985 44.0981 69.9985 45.6981 69.9985C46.9981 69.9985 47.8981 69.8985 48.6981 69.7985C48.8981 69.7985 48.9981 69.6985 49.1981 69.6985C49.2981 69.6985 49.3981 69.6985 49.4981 69.5985C49.5981 69.5985 49.6981 69.4985 49.7981 69.4985C49.8981 69.4985 49.9981 69.3985 49.9981 69.3985C50.0981 69.3985 50.0981 69.3985 50.1981 69.2985C50.1981 69.2985 50.1981 69.2985 50.2981 69.2985C50.3981 69.2985 50.4981 69.1985 50.5981 69.1985C50.5981 69.1985 50.5981 69.1985 50.6981 69.1985C50.9981 68.9985 51.1981 68.8985 51.3981 68.6985C51.4981 68.5985 51.4981 68.5985 51.4981 68.4985V67.5985V67.1985V66.7985V66.5985V66.2985V66.1985V66.0985V65.8985H51.3981C51.2981 65.7985 51.1981 65.6985 50.9981 65.5985C50.8981 65.5985 50.7981 65.4985 50.6981 65.4985C50.4981 65.3985 50.1981 65.2985 49.8981 65.2985C49.7981 65.2985 49.7981 65.2985 49.6981 65.2985C49.4981 65.2985 49.2981 65.1985 49.0981 65.1985C48.9981 65.1985 48.8981 65.1985 48.6981 65.0985C48.5981 65.0985 48.4981 65.0985 48.3981 65.0985C48.2981 65.0985 48.1981 65.0985 48.0981 65.0985H47.9981C47.8981 65.0985 47.6981 65.0985 47.5981 65.0985C46.9981 64.9985 46.3981 64.9985 45.7981 64.9985C43.0981 64.9985 40.7981 65.3985 40.2981 65.9985H40.0981V65.8985ZM45.7981 67.3985C46.3981 67.3985 47.0981 67.3985 47.5981 67.2985C47.6981 67.2985 47.8981 67.2985 47.9981 67.2985C48.0981 67.2985 48.1981 67.2985 48.2981 67.2985H48.3981C48.5981 67.2985 48.7981 67.1985 48.9981 67.1985C49.2981 67.1985 49.4981 67.0985 49.7981 67.0985C49.9981 66.9985 50.0981 66.9985 50.2981 66.9985H50.3981V67.1985V67.2985V68.1985C50.2981 68.2985 50.0981 68.3985 49.7981 68.4985C49.4981 68.5985 49.1981 68.6985 48.7981 68.6985H48.6981C48.5981 68.6985 48.4981 68.6985 48.3981 68.6985C48.2981 68.6985 48.2981 68.6985 48.1981 68.6985C48.0981 68.6985 47.8981 68.6985 47.7981 68.6985C47.3981 68.6985 46.9981 68.7985 46.5981 68.7985L45.6981 68.3985L42.0981 66.8985C42.8981 67.2985 44.2981 67.3985 45.7981 67.3985Z" fill="#2988FF"/>
<path d="M80.7983 64.2983C80.6983 64.1983 80.5983 63.9983 80.5983 63.9983V63.8983L79.8983 63.5983L79.2983 63.2983V63.5983V63.9983V64.1983V64.2983V64.3983C79.1983 64.4983 79.0983 64.5983 78.9983 64.7983C78.9983 64.7983 78.8983 64.8983 78.7983 64.8983L78.6983 64.9983C78.5983 65.0983 78.4983 65.0983 78.2983 65.1983C78.4983 65.1983 78.6983 65.1983 78.8983 65.2983H78.9983C79.0983 65.2983 79.1983 65.2983 79.3983 65.2983C79.7983 65.2983 80.1983 65.3983 80.6983 65.3983V65.0983H80.8983L80.9983 64.9983C80.9983 64.8983 81.0983 64.8983 81.1983 64.7983C81.2983 64.6983 81.3983 64.6983 81.4983 64.5983C81.0983 64.4983 80.8983 64.3983 80.7983 64.2983C80.8983 64.2983 80.7983 64.2983 80.7983 64.2983Z" fill="#2988FF"/>
<path d="M86.5983 59.7983C86.5983 59.7983 86.4983 59.7983 86.5983 59.7983C86.3983 59.7983 86.2983 59.7983 86.1983 59.7983C85.4983 59.7983 84.7983 59.8983 84.0983 59.8983C83.8983 59.8983 83.7983 59.8983 83.5983 59.9983C83.3983 59.9983 83.1983 60.0983 82.9983 60.0983C82.7983 60.1983 82.4983 60.1983 82.2983 60.1983C81.8983 60.2983 81.5983 60.3983 81.2983 60.4983C81.0983 60.5983 80.9983 60.6983 80.8983 60.7983H80.7983V60.9983V61.0983V61.1983V61.2983V61.6983V62.1983V62.6983V62.9983V63.2983V63.3983V63.4983C80.7983 63.5983 80.8983 63.6983 81.0983 63.7983C81.1983 63.8983 81.3983 63.9983 81.6983 64.1983H81.7983C81.8983 64.1983 81.8983 64.2983 81.9983 64.2983C82.0983 64.2983 82.0983 64.2983 82.1983 64.3983C82.3983 64.4983 82.6983 64.4983 82.9983 64.5983C83.2983 64.6983 83.5983 64.6983 83.9983 64.7983C84.2983 64.7983 84.4983 64.8983 84.7983 64.8983C84.8983 64.8983 84.9983 64.8983 85.0983 64.8983H85.1983C85.2983 64.8983 85.3983 64.8983 85.5983 64.8983C85.6983 64.8983 85.8983 64.8983 86.0983 64.8983C86.0983 64.8983 86.0983 64.8983 86.1983 64.8983C86.2983 64.8983 86.2983 64.8983 86.3983 64.8983H86.4983C86.5983 64.8983 86.5983 64.8983 86.5983 64.8983C88.0983 64.8983 89.0983 64.7983 89.8983 64.5983C90.1983 64.4983 90.4983 64.4983 90.6983 64.3983C90.7983 64.3983 90.7983 64.3983 90.8983 64.2983C90.9983 64.1983 91.0983 64.1983 91.1983 64.1983C91.7983 63.8983 91.9983 63.5983 91.9983 63.4983V61.1983V60.9983V60.7983H91.8983C91.3983 60.1983 89.2983 59.7983 86.6983 59.7983C86.7983 59.7983 86.6983 59.7983 86.5983 59.7983ZM91.0983 61.8983H91.1983V63.1983C90.9983 63.2983 90.5983 63.5983 89.3983 63.7983C88.8983 63.8983 88.1983 63.8983 87.2983 63.9983L86.9983 63.8983L86.5983 63.6983L86.3983 63.5983L86.2983 63.4983L85.5983 63.2983L83.9983 62.5983L83.1983 62.2983L82.6983 62.0983C83.0983 62.1983 83.4983 62.2983 83.9983 62.2983C84.2983 62.2983 84.6983 62.3983 85.0983 62.3983C85.2983 62.3983 85.3983 62.3983 85.5983 62.3983C85.7983 62.3983 85.9983 62.3983 86.1983 62.3983C86.2983 62.3983 86.3983 62.3983 86.5983 62.3983C86.6983 62.3983 86.8983 62.3983 86.9983 62.3983C88.5983 62.3983 90.0983 62.1983 91.0983 61.8983Z" fill="#2988FF"/>
<path d="M48.098 25.0986H47.998V27.5986V27.7986C48.098 27.8986 48.298 28.1986 48.798 28.4986C48.898 28.4986 48.998 28.5986 49.098 28.5986C49.198 28.5986 49.198 28.5986 49.298 28.6986C49.498 28.7986 49.798 28.7986 50.098 28.8986C50.898 29.0986 51.998 29.1986 53.498 29.1986C54.998 29.1986 56.098 29.0986 56.898 28.8986C57.198 28.7986 57.498 28.7986 57.698 28.6986C57.798 28.6986 57.798 28.6986 57.898 28.5986C57.998 28.5986 58.098 28.4986 58.198 28.4986C58.798 28.1986 58.998 27.8986 58.998 27.7986V25.4986V25.2986V25.0986H58.898C58.398 24.4986 56.098 24.0986 53.398 24.0986C50.698 24.0986 48.698 24.4986 48.098 25.0986ZM58.298 26.0986V27.3986C58.098 27.4986 57.698 27.7986 56.498 27.9986C55.998 28.0986 55.298 28.1986 54.398 28.1986L53.498 27.7986L49.898 26.2986C50.898 26.4986 52.298 26.6986 53.798 26.6986C55.598 26.6986 57.298 26.4986 58.298 26.1986V26.0986Z" fill="#2988FF"/>
<path d="M80.998 60.5987C81.198 60.4987 81.398 60.3987 81.598 60.1987C81.598 60.1987 81.598 60.1987 81.698 60.1987C81.598 60.1987 81.598 60.1987 81.498 60.1987L80.598 59.7987L79.098 59.1987V59.8987V60.0987V60.1987C79.098 60.1987 79.098 60.1987 79.098 60.2987C78.998 60.3987 78.898 60.4987 78.698 60.6987C78.698 60.6987 78.598 60.6987 78.598 60.7987C78.498 60.7987 78.498 60.8987 78.398 60.8987C78.298 60.8987 78.298 60.9987 78.198 60.9987C78.098 60.9987 78.098 61.0987 77.998 61.0987C77.998 61.0987 77.998 61.0987 78.098 61.0987C78.198 61.0987 78.398 61.0987 78.498 61.1987C78.598 61.1987 78.698 61.1987 78.798 61.1987C79.298 61.1987 79.798 61.2987 80.398 61.2987V60.9987H80.598C80.798 60.8987 80.898 60.7987 80.998 60.5987C80.998 60.6987 80.998 60.5987 80.998 60.5987Z" fill="#2988FF"/>
<path d="M79.1982 62.6983C79.5982 62.6983 80.0982 62.7983 80.4982 62.7983V62.2983V61.7983C79.9982 61.7983 79.5982 61.7983 79.1982 61.7983V62.3983V62.6983Z" fill="#2988FF"/>
<path d="M78.2981 60.3983C78.3981 60.2983 78.4981 60.1983 78.5981 60.0983C78.5981 59.9983 78.6981 59.9983 78.6981 59.9983V59.8983V59.0983V58.5983V58.1983V57.5983C78.4981 57.5983 78.3981 57.5983 78.1981 57.4983C77.6981 57.3983 77.2981 57.3983 76.9981 57.2983C76.6981 57.3983 76.1981 57.4983 75.7981 57.4983C75.5981 57.4983 75.4981 57.4983 75.2981 57.5983C75.1981 57.5983 75.0981 57.5983 74.8981 57.5983C74.3981 57.5983 73.8981 57.6983 73.3981 57.6983V58.1983V58.6983C73.8981 58.6983 74.4981 58.6983 74.9981 58.5983C75.0981 58.5983 75.2981 58.5983 75.3981 58.5983C75.4981 58.5983 75.5981 58.5983 75.6981 58.5983H75.7981C75.9981 58.5983 76.1981 58.4983 76.3981 58.4983C76.6981 58.4983 76.8981 58.3983 77.1981 58.3983C77.3981 58.2983 77.5981 58.2983 77.7981 58.1983H77.8981V58.4983V58.6983V59.4983C77.7981 59.5983 77.5981 59.6983 77.0981 59.7983C76.7981 59.8983 76.4981 59.9983 75.9981 59.9983C75.8981 59.9983 75.8981 59.9983 75.7981 59.9983C75.6981 59.9983 75.5981 59.9983 75.4981 59.9983C75.3981 59.9983 75.3981 59.9983 75.2981 59.9983C75.1981 59.9983 74.9981 59.9983 74.8981 59.9983C74.5981 59.9983 74.1981 59.9983 73.7981 60.0983L73.2981 59.9983C73.2981 60.0983 73.1981 60.0983 73.0981 60.1983C72.9981 60.2983 72.7981 60.3983 72.5981 60.5983C72.6981 60.6983 72.7981 60.6983 72.8981 60.7983C72.9981 60.8983 72.9981 60.8983 73.0981 60.9983L73.1981 61.0983H73.2981V61.2983C73.9981 61.2983 74.5981 61.2983 75.1981 61.1983C75.2981 61.1983 75.3981 61.1983 75.4981 61.1983C75.5981 61.1983 75.7981 61.1983 75.8981 61.0983C75.8981 61.0983 75.8981 61.0983 75.9981 61.0983C76.1981 61.0983 76.3981 60.9983 76.5981 60.9983H76.6981C76.7981 60.9983 76.8981 60.9983 76.9981 60.8983C77.0981 60.8983 77.1981 60.7983 77.3981 60.7983H77.4981C77.4981 60.7983 77.4981 60.7983 77.5981 60.7983C77.6981 60.6983 77.7981 60.6983 77.8981 60.6983C78.0981 60.4983 78.0981 60.4983 78.2981 60.3983Z" fill="#2988FF"/>
<path d="M78.2981 56.1986C78.3981 56.0986 78.4981 55.9986 78.5981 55.8986L78.6981 55.7986V55.6986V54.8986V54.3986V53.9986V53.3986C78.4981 53.3986 78.3981 53.3986 78.1981 53.2986C77.6981 53.1986 77.2981 53.1986 76.9981 53.0986C76.6981 53.1986 76.1981 53.1986 75.7981 53.2986C75.5981 53.2986 75.4981 53.2986 75.2981 53.3986C75.1981 53.3986 75.0981 53.3986 74.8981 53.3986C74.3981 53.3986 73.8981 53.4986 73.3981 53.4986V53.9986V54.4986C73.8981 54.4986 74.4981 54.4986 74.9981 54.3986C75.0981 54.3986 75.2981 54.3986 75.3981 54.3986C75.4981 54.3986 75.5981 54.3986 75.6981 54.3986H75.7981C75.9981 54.3986 76.1981 54.2986 76.3981 54.2986C76.6981 54.2986 76.8981 54.1986 77.1981 54.1986C77.3981 54.0986 77.5981 54.0986 77.7981 53.9986H77.8981V54.2986V54.4986V55.2986C77.7981 55.3986 77.5981 55.4986 77.0981 55.5986C76.7981 55.6986 76.4981 55.7986 75.9981 55.7986C75.8981 55.7986 75.8981 55.7986 75.7981 55.7986C75.6981 55.7986 75.5981 55.7986 75.4981 55.7986C75.3981 55.7986 75.3981 55.7986 75.2981 55.7986C75.1981 55.7986 74.9981 55.7986 74.8981 55.7986C74.5981 55.7986 74.1981 55.7986 73.7981 55.8986L73.2981 55.6986C73.2981 55.7986 73.1981 55.7986 73.0981 55.8986C72.9981 55.9986 72.7981 56.0986 72.5981 56.2986C72.6981 56.3986 72.7981 56.3986 72.8981 56.4986C72.9981 56.5986 72.9981 56.5986 73.0981 56.6986L73.1981 56.7986H73.2981V56.9986C73.9981 56.9986 74.5981 56.9986 75.1981 56.8986C75.2981 56.8986 75.3981 56.8986 75.4981 56.8986C75.5981 56.8986 75.7981 56.8986 75.8981 56.8986C75.8981 56.8986 75.8981 56.8986 75.9981 56.8986C76.1981 56.8986 76.3981 56.7986 76.5981 56.7986H76.6981C76.7981 56.7986 76.8981 56.7986 76.9981 56.6986C77.0981 56.6986 77.1981 56.5986 77.3981 56.5986C77.3981 56.5986 77.4981 56.5986 77.4981 56.4986C77.4981 56.4986 77.4981 56.4986 77.5981 56.4986C77.6981 56.4986 77.7981 56.3986 77.8981 56.3986C78.0981 56.3986 78.0981 56.3986 78.2981 56.1986C78.2981 56.2986 78.2981 56.2986 78.2981 56.1986Z" fill="#2988FF"/>
<path d="M78.2981 47.9985C78.3981 47.8985 78.4981 47.7985 78.5981 47.7985L78.6981 47.6985V47.5985V46.7985V46.2985V45.8985V45.2985C78.4981 45.2985 78.3981 45.2985 78.1981 45.1985C77.6981 45.0985 77.2981 45.0985 76.9981 44.9985C76.6981 45.0985 76.1981 45.0985 75.7981 45.1985C75.5981 45.1985 75.4981 45.1985 75.2981 45.2985C75.1981 45.2985 75.0981 45.2985 74.8981 45.2985C74.3981 45.2985 73.8981 45.3985 73.3981 45.3985V45.8985V46.3985C73.8981 46.3985 74.4981 46.3985 74.9981 46.2985C75.0981 46.2985 75.2981 46.2985 75.3981 46.2985C75.4981 46.2985 75.5981 46.2985 75.6981 46.2985H75.7981C75.9981 46.2985 76.1981 46.1985 76.3981 46.1985C76.6981 46.1985 76.8981 46.0985 77.1981 46.0985C77.3981 46.0985 77.5981 45.9985 77.7981 45.8985H77.8981V46.1985V46.3985V47.1985C77.7981 47.2985 77.5981 47.3985 77.0981 47.4985C76.7981 47.5985 76.4981 47.6985 75.9981 47.6985C75.8981 47.6985 75.8981 47.6985 75.7981 47.6985C75.6981 47.6985 75.5981 47.6985 75.4981 47.6985C75.3981 47.6985 75.3981 47.6985 75.2981 47.6985C75.1981 47.6985 74.9981 47.6985 74.8981 47.6985C74.5981 47.6985 74.1981 47.6985 73.7981 47.7985L73.2981 47.5985C73.2981 47.6985 73.1981 47.6985 73.0981 47.7985C72.9981 47.8985 72.7981 47.9985 72.5981 48.1985C72.6981 48.2985 72.7981 48.2985 72.8981 48.3985C72.9981 48.4985 72.9981 48.4985 73.0981 48.5985L73.1981 48.6985H73.2981V48.8985C73.9981 48.8985 74.5981 48.8985 75.1981 48.7985C75.2981 48.7985 75.3981 48.7985 75.4981 48.7985C75.6981 48.7985 75.7981 48.7985 75.8981 48.6985C75.8981 48.6985 75.8981 48.6985 75.9981 48.6985C76.1981 48.6985 76.3981 48.5985 76.5981 48.5985H76.6981C76.7981 48.5985 76.8981 48.5985 76.9981 48.4985C77.0981 48.4985 77.1981 48.3985 77.3981 48.3985C77.3981 48.3985 77.4981 48.3985 77.4981 48.2985C77.4981 48.2985 77.4981 48.2985 77.5981 48.2985C77.6981 48.1985 77.7981 48.1985 77.8981 48.1985C78.0981 48.1985 78.0981 48.0985 78.2981 47.9985C78.2981 48.0985 78.2981 47.9985 78.2981 47.9985Z" fill="#2988FF"/>
<path d="M78.2981 43.8983C78.3981 43.7983 78.4981 43.6983 78.5981 43.5983C78.5981 43.4983 78.6981 43.4983 78.6981 43.4983V43.3983V42.5983V42.0983V41.6983V41.0983C78.4981 41.0983 78.3981 41.0983 78.1981 40.9983C77.6981 40.8983 77.2981 40.8983 76.9981 40.7983C76.6981 40.8983 76.1981 40.8983 75.7981 40.9983C75.5981 40.9983 75.4981 40.9983 75.2981 41.0983C75.1981 41.0983 75.0981 41.0983 74.8981 41.0983C74.3981 41.0983 73.8981 41.1983 73.3981 41.1983V41.6983V42.1983C73.8981 42.1983 74.4981 42.1983 74.9981 42.0983C75.0981 42.0983 75.2981 42.0983 75.3981 42.0983C75.4981 42.0983 75.5981 42.0983 75.6981 42.0983H75.7981C75.9981 42.0983 76.1981 41.9983 76.3981 41.9983C76.6981 41.9983 76.8981 41.8983 77.1981 41.8983C77.4981 41.8983 77.5981 41.7983 77.7981 41.6983H77.8981V41.9983V42.1983V42.9983C77.7981 43.0983 77.5981 43.1983 77.0981 43.2983C76.7981 43.3983 76.4981 43.4983 75.9981 43.4983C75.8981 43.4983 75.8981 43.4983 75.7981 43.4983C75.6981 43.4983 75.5981 43.4983 75.4981 43.4983C75.3981 43.4983 75.3981 43.4983 75.2981 43.4983C75.1981 43.4983 74.9981 43.4983 74.8981 43.4983C74.5981 43.4983 74.1981 43.4983 73.7981 43.4983L73.2981 43.2983C73.2981 43.3983 73.1981 43.3983 73.0981 43.4983C72.9981 43.5983 72.7981 43.6983 72.5981 43.8983C72.6981 43.9983 72.7981 43.9983 72.8981 44.0983C72.9981 44.1983 72.9981 44.1983 73.0981 44.2983L73.1981 44.3983H73.2981V44.5983C73.9981 44.5983 74.5981 44.5983 75.1981 44.4983C75.2981 44.4983 75.3981 44.4983 75.4981 44.4983C75.5981 44.4983 75.7981 44.4983 75.8981 44.3983C75.8981 44.3983 75.8981 44.3983 75.9981 44.3983C76.1981 44.3983 76.3981 44.2983 76.5981 44.2983H76.6981C76.7981 44.2983 76.8981 44.2983 76.9981 44.1983C77.0981 44.1983 77.1981 44.0983 77.3981 44.0983C77.3981 44.0983 77.4981 44.0983 77.4981 43.9983C77.4981 43.9983 77.4981 43.9983 77.5981 43.9983C77.6981 43.9983 77.7981 43.8983 77.8981 43.8983C78.0981 44.0983 78.0981 43.9983 78.2981 43.8983Z" fill="#2988FF"/>
<path d="M78.2981 52.0986C78.4981 51.9986 78.5981 51.9986 78.5981 51.8986C78.5981 51.7986 78.6981 51.7986 78.6981 51.7986V51.6986V50.8986V50.3986V49.9986V49.3986C78.4981 49.3986 78.3981 49.3986 78.1981 49.2986C77.6981 49.2986 77.2981 49.1986 76.9981 49.0986C76.6981 49.1986 76.1981 49.2986 75.7981 49.2986C75.5981 49.2986 75.4981 49.2986 75.2981 49.3986C75.1981 49.3986 75.0981 49.3986 74.8981 49.3986C74.3981 49.3986 73.8981 49.4986 73.3981 49.4986V49.9986V50.4986C73.8981 50.4986 74.4981 50.4986 74.9981 50.3986C75.0981 50.3986 75.2981 50.3986 75.3981 50.3986C75.4981 50.3986 75.5981 50.3986 75.6981 50.3986H75.7981C75.9981 50.3986 76.1981 50.2986 76.3981 50.2986C76.6981 50.2986 76.8981 50.1986 77.1981 50.1986C77.4981 50.1986 77.5981 50.0986 77.7981 49.9986H77.8981V50.2986V50.4986V51.2986C77.7981 51.3986 77.5981 51.4986 77.0981 51.6986C76.7981 51.7986 76.4981 51.8986 75.9981 51.8986C75.8981 51.8986 75.8981 51.8986 75.7981 51.8986C75.6981 51.8986 75.5981 51.8986 75.4981 51.8986C75.3981 51.8986 75.3981 51.8986 75.2981 51.8986C75.1981 51.8986 74.9981 51.8986 74.8981 51.8986C74.5981 51.8986 74.1981 51.8986 73.7981 51.8986L73.2981 51.6986C73.2981 51.7986 73.1981 51.7986 73.0981 51.8986C72.9981 51.9986 72.7981 52.1986 72.5981 52.2986C72.6981 52.3986 72.7981 52.3986 72.8981 52.4986C72.9981 52.5986 72.9981 52.5986 73.0981 52.6986L73.1981 52.7986H73.2981V52.9986C73.9981 52.9986 74.5981 52.9986 75.1981 52.8986C75.2981 52.8986 75.3981 52.8986 75.4981 52.8986C75.5981 52.8986 75.7981 52.8986 75.8981 52.7986C75.8981 52.7986 75.8981 52.7986 75.9981 52.7986C76.1981 52.7986 76.3981 52.6986 76.5981 52.6986H76.6981C76.7981 52.6986 76.8981 52.6986 76.9981 52.5986C77.0981 52.5986 77.1981 52.4986 77.3981 52.4986H77.4981C77.4981 52.4986 77.4981 52.4986 77.5981 52.4986C77.6981 52.4986 77.7981 52.3986 77.8981 52.3986C78.0981 52.2986 78.0981 52.1986 78.2981 52.0986C78.2981 52.1986 78.2981 52.1986 78.2981 52.0986Z" fill="#2988FF"/>
<path d="M67.2981 31.1987C67.1981 31.1987 67.1981 31.1987 67.0981 31.1987C64.3981 31.1987 62.1981 31.5987 61.6981 32.1987H61.5981V34.6987V34.8987C61.6981 34.9987 61.8981 35.2987 62.3981 35.5987C62.4981 35.6987 62.5981 35.6987 62.6981 35.6987C62.7981 35.6987 62.7981 35.6987 62.8981 35.7987C63.0981 35.8987 63.3981 35.8987 63.6981 35.9987C64.4981 36.1987 65.5981 36.2987 67.0981 36.2987C67.1981 36.2987 67.2981 36.2987 67.3981 36.2987C67.4981 36.2987 67.5981 36.2987 67.7981 36.2987H67.8981C67.9981 36.2987 68.0981 36.2987 68.1981 36.2987C68.3981 36.2987 68.5981 36.2987 68.7981 36.2987C68.8981 36.2987 69.0981 36.2987 69.1981 36.2987C69.4981 36.2987 69.7981 36.1987 69.9981 36.1987C70.1981 36.1987 70.2981 36.0987 70.4981 36.0987C70.5981 36.0987 70.5981 36.0987 70.6981 35.9987C70.8981 35.9987 71.0981 35.8987 71.2981 35.8987C71.3981 35.8987 71.3981 35.8987 71.4981 35.7987C71.5981 35.6987 71.6981 35.6987 71.7981 35.6987C71.8981 35.6987 71.8981 35.5987 71.9981 35.5987C71.9981 35.5987 71.9981 35.5987 72.0981 35.5987C72.2981 35.4987 72.4981 35.3987 72.5981 35.1987C72.5981 35.1987 72.5981 35.1987 72.5981 35.0987C72.5981 34.9987 72.6981 34.9987 72.6981 34.8987V33.8987V33.3987V32.8987V32.5987V32.4987V32.3987V32.1987H72.5981L72.4981 32.0987C72.3981 31.9987 72.1981 31.8987 71.9981 31.8987C71.6981 31.7987 71.3981 31.6987 70.8981 31.5987H70.7981C70.4981 31.4987 70.0981 31.4987 69.6981 31.3987C69.0981 31.2987 68.4981 31.2987 67.8981 31.2987C67.7981 31.2987 67.6981 31.2987 67.6981 31.2987C67.5981 31.2987 67.4981 31.2987 67.3981 31.2987H67.2981C67.3981 31.1987 67.3981 31.1987 67.2981 31.1987ZM67.7981 33.6987C67.7981 33.6987 67.8981 33.6987 67.7981 33.6987C68.0981 33.6987 68.2981 33.6987 68.4981 33.6987C68.7981 33.6987 68.9981 33.6987 69.2981 33.5987C69.7981 33.4987 70.2981 33.4987 70.6981 33.3987C71.0981 33.2987 71.4981 33.2987 71.7981 33.1987H71.8981V33.3987V33.9987V34.5987C71.8981 34.5987 71.7981 34.6987 71.6981 34.6987C71.3981 34.7987 70.8981 34.9987 70.0981 35.1987C69.8981 35.1987 69.6981 35.2987 69.4981 35.2987C69.0981 35.2987 68.6981 35.3987 68.0981 35.3987C67.9981 35.3987 67.9981 35.3987 67.8981 35.3987L67.4981 35.2987L67.0981 35.0987H66.9981L63.3981 33.5987C64.3981 33.7987 65.6981 33.8987 67.0981 33.8987C67.1981 33.8987 67.1981 33.8987 67.2981 33.8987C67.3981 33.8987 67.3981 33.8987 67.4981 33.8987C67.5981 33.6987 67.6981 33.6987 67.7981 33.6987Z" fill="#2988FF"/>
<path d="M41.5981 46.1987H37.7981C37.3981 46.1987 37.0981 46.4987 37.0981 46.8987V53.7987C37.0981 54.1987 37.3981 54.4987 37.7981 54.4987H41.5981C41.9981 54.4987 42.2981 54.1987 42.2981 53.7987V46.9987C42.2981 46.5987 41.9981 46.1987 41.5981 46.1987ZM40.7981 53.0987H38.4981V47.6987H40.7981V53.0987Z" fill="#1C3553"/>
<path d="M22.698 46.1987C22.298 46.1987 21.998 46.4987 21.998 46.8987V53.7987C21.998 54.1987 22.298 54.4987 22.698 54.4987H26.498C26.898 54.4987 27.198 54.1987 27.198 53.7987V46.9987C27.198 46.5987 26.898 46.2987 26.498 46.2987H22.698V46.1987ZM25.798 53.0987H23.498V47.6987H25.798V53.0987Z" fill="#1C3553"/>
<path d="M34.198 73.7986C35.298 73.7986 36.198 72.8986 36.198 71.7986C36.198 70.6986 35.298 69.7986 34.198 69.7986H15.998V46.0986C15.998 43.8986 14.698 42.5986 12.398 42.5986C11.298 42.5986 10.198 42.5986 9.09796 42.5986C12.198 39.7986 18.798 33.6986 24.498 28.5986C28.698 24.7986 32.398 21.3986 33.598 20.2986C35.998 22.4986 42.398 28.6986 42.398 28.7986C43.198 29.5986 44.498 29.5986 45.198 28.7986C45.998 27.9986 45.998 26.6986 45.198 25.9986C44.898 25.6986 38.198 19.1986 35.998 17.1986C34.898 16.1986 33.098 15.3986 31.098 17.1986C30.198 18.0986 26.298 21.5986 21.798 25.6986C14.898 31.8986 6.49796 39.4986 4.89796 40.9986C3.59796 42.1986 3.29796 43.3986 3.89796 44.6986C4.29796 45.5986 5.19796 46.5986 7.19796 46.5986C8.79796 46.5986 10.398 46.5986 11.998 46.5986V70.0986C11.998 72.5986 13.198 73.7986 15.798 73.7986H34.198Z" fill="#1C3553"/>
</svg>
