<svg width="96" height="97" viewBox="0 0 96 97" fill="none" xmlns="http://www.w3.org/2000/svg">
<path d="M87.5853 67.098L86.8853 64.898C87.0853 63.998 87.2853 63.298 87.2853 63.198C87.3853 62.798 87.1853 62.398 86.8853 62.098L85.9853 61.398L81.9853 48.498C81.9853 48.398 81.8853 48.198 81.7853 48.098L80.4853 46.598C80.2853 46.298 79.8853 46.198 79.5853 46.198H79.3853H78.5853H78.3853C77.9853 46.198 77.6853 46.398 77.4853 46.598L76.1853 47.998C76.0853 48.098 75.9853 48.298 75.9853 48.398L71.9853 61.298L71.0853 61.998C70.7853 62.298 70.5853 62.698 70.6853 63.098C70.6853 63.198 70.7853 63.898 71.0853 64.798L70.3853 66.998L69.1853 67.998C68.8853 68.298 68.6853 68.698 68.7853 69.098C68.8853 69.498 70.5853 80.098 77.7853 80.098H80.4853C87.6853 80.098 89.3853 69.598 89.4853 69.098C89.5853 68.698 89.3853 68.198 89.0853 67.998L87.5853 67.098ZM75.8853 58.398C76.0853 58.198 76.1853 58.098 76.2853 57.798L78.4853 50.398L78.9853 49.498H79.1853L79.6853 50.398L81.8853 57.798C81.9853 57.998 82.0853 58.198 82.2853 58.398L82.5853 58.598C82.2853 59.998 81.3853 62.498 79.8853 62.498H78.4853C76.9853 62.498 76.0853 60.098 75.7853 58.598L75.8853 58.398ZM74.3853 62.198C75.1853 63.698 76.4853 64.898 78.2853 64.898H79.6853C81.4853 64.898 82.7853 63.698 83.5853 62.198L84.3853 64.798C83.7853 66.898 82.3853 69.698 79.9853 69.698H77.8853C75.4853 69.698 74.1853 66.798 73.4853 64.798L74.3853 62.198ZM80.2853 77.698H77.5853C73.2853 77.698 71.5853 71.498 71.0853 69.398L71.9853 68.698C72.0853 68.598 72.1853 68.498 72.2853 68.298C73.3853 70.298 75.0853 72.098 77.7853 72.098H79.8853C82.5853 72.098 84.2853 70.298 85.3853 68.298C85.4853 68.498 85.5853 68.598 85.6853 68.698L86.5853 69.398C86.3853 71.498 84.6853 77.698 80.2853 77.698Z" fill="#2988FF"/>
<path d="M62.9854 58.7979C62.9854 59.1979 63.2854 59.4979 63.6854 59.4979C64.0854 59.4979 64.3854 59.1979 64.3854 58.7979C64.3854 58.3979 64.0854 58.0979 63.6854 58.0979C63.2854 58.0979 62.9854 58.3979 62.9854 58.7979Z" fill="#2988FF"/>
<path d="M65.9854 57.7979C65.9854 58.1979 66.2854 58.4979 66.6854 58.4979C67.0854 58.4979 67.3854 58.1979 67.3854 57.7979C67.3854 57.3979 67.0854 57.0979 66.6854 57.0979C66.2854 57.0979 65.9854 57.3979 65.9854 57.7979Z" fill="#2988FF"/>
<path d="M68.9854 58.7979C68.9854 59.1979 69.2854 59.4979 69.6854 59.4979C70.0854 59.4979 70.3854 59.1979 70.3854 58.7979C70.3854 58.3979 70.0854 58.0979 69.6854 58.0979C69.2854 58.0979 68.9854 58.3979 68.9854 58.7979Z" fill="#2988FF"/>
<path d="M27.0852 46.298C25.4852 50.598 26.3852 51.298 27.6852 52.198L31.1852 54.298V65.798C31.1852 66.698 31.1852 67.598 31.1852 68.498C31.1852 70.498 31.1852 72.598 31.1852 74.598C31.1852 76.298 32.3852 77.298 33.8852 76.898C35.0852 76.498 35.3852 75.598 35.2852 74.498C35.2852 71.498 35.2852 68.398 35.2852 65.398C35.2852 63.898 35.2852 62.398 35.2852 60.898V59.298H36.7852V65.998C36.7852 66.798 36.7852 67.698 36.7852 68.498C36.7852 70.398 36.7852 72.398 36.7852 74.298C36.7852 75.898 37.4852 76.798 38.7852 76.798C40.0852 76.798 40.8852 75.998 40.8852 74.298C40.8852 74.098 40.8852 73.798 40.8852 73.498C40.8852 73.398 40.8852 73.298 40.8852 73.198V48.698V47.198C41.8852 46.898 42.2852 47.098 42.4852 47.998C42.7852 49.298 43.1852 50.598 43.4852 51.898C43.7852 53.098 44.1852 54.298 44.4852 55.598C44.7852 56.798 45.3852 57.498 46.5852 57.798C47.2852 57.998 47.9852 58.198 48.6852 58.398C48.8852 58.498 49.0852 58.498 49.1852 58.598C49.1852 58.598 47.4852 55.298 47.1852 54.498C46.3852 51.698 45.5852 48.798 44.6852 45.998C43.8852 43.298 42.2852 42.198 39.4852 42.198C37.4852 42.198 35.5852 42.198 33.6852 42.198H32.4852C29.3852 41.998 28.0852 43.098 27.0852 46.298ZM29.6852 47.998C29.8852 47.098 30.2852 46.898 31.1852 47.198V48.598V50.998C30.9852 50.898 30.7852 50.798 30.5852 50.698C29.8852 50.398 29.4852 50.198 29.3852 49.898C29.1852 49.598 29.3852 49.098 29.6852 47.998Z" fill="#2988FF"/>
<path d="M49.9853 65.7981C49.9853 65.7981 49.6853 66.8981 50.8853 67.0981L56.5853 68.0981C56.5853 68.0981 57.6853 68.2981 57.7853 67.1981L57.8853 64.3981L61.0853 61.5981L60.9853 61.4981L62.2853 61.9981L62.5853 61.5981L60.5853 59.4981L60.1853 59.6981L60.5853 60.8981V60.7981L57.8853 62.9981L57.9853 59.5981C57.9853 59.5981 57.9853 58.4981 56.8853 58.1981L49.8853 56.2981L50.8853 58.2981C50.8853 58.2981 51.3853 59.2981 51.1853 60.3981L49.9853 65.7981Z" fill="#2988FF"/>
<path d="M35.4853 40.8979C37.3853 40.8979 38.9853 39.2979 38.9853 37.3979C38.9853 35.4979 37.2853 33.8979 35.3853 33.8979C33.4853 33.8979 31.8853 35.4979 31.8853 37.4979C31.9853 39.3979 33.5853 40.9979 35.4853 40.8979Z" fill="#2988FF"/>
<path d="M6.78517 43.698C7.18517 44.598 7.98517 45.598 9.98517 45.598C11.5852 45.598 13.0852 45.598 14.6852 45.598V69.098C14.6852 71.598 15.8852 72.798 18.3852 72.798H26.2852C27.3852 72.798 28.2852 71.898 28.2852 70.798C28.2852 69.698 27.3852 68.798 26.2852 68.798H18.6852V45.098C18.6852 42.798 17.3852 41.598 15.1852 41.598C14.0852 41.598 13.0852 41.598 11.9852 41.598C14.9852 38.798 21.4852 32.698 26.9852 27.598C31.3852 23.498 35.0852 19.998 36.0852 19.098C36.9852 19.898 40.3852 23.098 44.4852 26.898C50.1852 32.198 57.0852 38.698 60.1852 41.598C59.0852 41.598 58.0852 41.598 56.9852 41.598C54.6852 41.598 53.3852 42.898 53.3852 45.098V52.798C53.3852 53.898 54.2852 54.798 55.3852 54.798C56.4852 54.798 57.3852 53.898 57.3852 52.798V45.598C58.9852 45.598 60.4852 45.598 62.0852 45.598C64.0852 45.598 64.9852 44.598 65.2852 43.698C65.8852 42.398 65.4852 41.198 64.2852 39.998C62.4852 38.498 53.8852 30.398 46.9852 23.998C42.8852 20.198 39.4852 16.998 38.5852 16.098C37.6852 15.298 36.7852 14.898 35.8852 14.998C34.9852 14.898 33.9852 15.298 33.1852 16.098C32.2852 16.998 28.4852 20.498 24.0852 24.598C17.3852 30.898 9.28516 38.498 7.78516 39.998C6.48516 41.098 6.18517 42.398 6.78517 43.698Z" fill="#1C3553"/>
</svg>
