<svg width="96" height="96" viewBox="0 0 96 96" fill="none" xmlns="http://www.w3.org/2000/svg">
<path fill-rule="evenodd" clip-rule="evenodd" d="M10.1353 26.2566C10.4338 25.487 11.1745 24.9799 11.9999 24.9799H54.0827V28.9798H13.3694L7.9209 43.0269H9.99996C11.1045 43.0269 11.9999 43.9223 11.9999 45.0268V71.1008H54.0827V75.1008H9.99996C8.8954 75.1008 7.99997 74.2054 7.99997 73.1008V47.0268H4.99999C4.34006 47.0268 3.72261 46.7013 3.34977 46.1568C2.97693 45.6123 2.8967 44.9189 3.13535 44.3036L10.1353 26.2566Z" fill="#1C3553"/>
<path fill-rule="evenodd" clip-rule="evenodd" d="M86.1474 26.2568C85.8489 25.4872 85.1082 24.9801 84.2828 24.9801H42.2V28.9801H82.9133L88.3618 43.0271H86.2828C85.1782 43.0271 84.2828 43.9225 84.2828 45.0271V71.1011H42.2V75.1011H86.2828C87.3873 75.1011 88.2827 74.2056 88.2827 73.1011V47.0271H91.2827C91.9427 47.0271 92.5601 46.7015 92.9329 46.157C93.3058 45.6125 93.386 44.9191 93.1474 44.3038L86.1474 26.2568Z" fill="#1C3553"/>
<path fill-rule="evenodd" clip-rule="evenodd" d="M89.0013 44.7389H4.81589V42.3389H89.0013V44.7389Z" fill="#1C3553"/>
<path fill-rule="evenodd" clip-rule="evenodd" d="M32.9998 43V74H30.9998V43H32.9998Z" fill="#1C3553"/>
<path fill-rule="evenodd" clip-rule="evenodd" d="M67.4191 44.7389H30.8143V42.3389H67.4191V44.7389Z" fill="#2988FF"/>
<path fill-rule="evenodd" clip-rule="evenodd" d="M67.4 43V74H65.4001V43H67.4Z" fill="#2988FF"/>
<path fill-rule="evenodd" clip-rule="evenodd" d="M43.7849 60.2895C43.7849 59.7372 44.2326 59.2895 44.7849 59.2895H52.2139C52.7662 59.2895 53.2139 59.7372 53.2139 60.2895V71.9274C53.2139 72.4797 52.7662 72.9274 52.2139 72.9274H44.7849C44.2326 72.9274 43.7849 72.4797 43.7849 71.9274V60.2895ZM45.7849 61.2895V70.9274H51.2139V61.2895H45.7849Z" fill="#2988FF"/>
<path fill-rule="evenodd" clip-rule="evenodd" d="M52.9641 48.5386C52.9641 48.1244 53.2999 47.7886 53.7141 47.7886H57.1421C57.5563 47.7886 57.8921 48.1244 57.8921 48.5386V54.3765C57.8921 54.7908 57.5563 55.1265 57.1421 55.1265H53.7141C53.2999 55.1265 52.9641 54.7908 52.9641 54.3765V48.5386ZM54.4641 49.2886V53.6265H56.3921V49.2886H54.4641Z" fill="#2988FF"/>
<path fill-rule="evenodd" clip-rule="evenodd" d="M39.1082 48.5386C39.1082 48.1244 39.444 47.7886 39.8582 47.7886H43.2862C43.7004 47.7886 44.0362 48.1244 44.0362 48.5386V54.3765C44.0362 54.7908 43.7004 55.1265 43.2862 55.1265H39.8582C39.444 55.1265 39.1082 54.7908 39.1082 54.3765V48.5386ZM40.6082 49.2886V53.6265H42.5362V49.2886H40.6082Z" fill="#2988FF"/>
<path fill-rule="evenodd" clip-rule="evenodd" d="M30.9998 29.0003H67.6047V25.0004H30.9998V29.0003Z" fill="#2988FF"/>
<path fill-rule="evenodd" clip-rule="evenodd" d="M30.9998 75.1004H67.6047V71.0004H30.9998V75.1004Z" fill="#2988FF"/>
<path d="M55.9997 22.1005C55.9997 21.5482 56.4474 21.1005 56.9997 21.1005H61.9997C62.552 21.1005 62.9997 21.5482 62.9997 22.1005V26.1005C62.9997 26.6527 62.552 27.1004 61.9997 27.1004H56.9997C56.4474 27.1004 55.9997 26.6527 55.9997 26.1005V22.1005Z" fill="#2988FF"/>
<path fill-rule="evenodd" clip-rule="evenodd" d="M34.4751 35.8827C34.8157 35.7692 35.1838 35.9532 35.2974 36.2937L35.9791 38.3379L35.9821 38.3454C35.9867 38.3568 35.9956 38.3773 36.0091 38.404C36.0369 38.4586 36.0803 38.5309 36.1406 38.6011C36.2547 38.7338 36.4163 38.8493 36.6808 38.8493H37.6807C38.0397 38.8493 38.3307 39.1404 38.3307 39.4993C38.3307 39.8583 38.0397 40.1493 37.6807 40.1493H36.6808C35.9452 40.1493 35.4488 39.7904 35.1549 39.4486C35.0112 39.2815 34.9131 39.1166 34.8504 38.9933C34.8187 38.931 34.7951 38.8774 34.7785 38.8368C34.7702 38.8164 34.7636 38.7992 34.7586 38.7855L34.7522 38.7678L34.7498 38.761L34.7489 38.7582L34.7484 38.7569L34.7482 38.7563C34.7482 38.7562 34.7482 38.7561 34.7805 38.7452L34.7481 38.756L34.0642 36.705C33.9506 36.3644 34.1346 35.9963 34.4751 35.8827Z" fill="#2988FF"/>
<path fill-rule="evenodd" clip-rule="evenodd" d="M38.8452 35.8827C39.1858 35.7692 39.5539 35.9532 39.6675 36.2937L40.3492 38.3379L40.3522 38.3454C40.3568 38.3568 40.3657 38.3773 40.3792 38.404C40.407 38.4586 40.4504 38.5309 40.5107 38.6011C40.6248 38.7338 40.7864 38.8493 41.0508 38.8493H42.0508C42.4098 38.8493 42.7008 39.1404 42.7008 39.4993C42.7008 39.8583 42.4098 40.1493 42.0508 40.1493H41.0508C40.3153 40.1493 39.8189 39.7904 39.525 39.4486C39.3813 39.2815 39.2832 39.1166 39.2205 38.9933C39.1888 38.931 39.1652 38.8774 39.1486 38.8368C39.1403 38.8164 39.1337 38.7992 39.1287 38.7855L39.1223 38.7678L39.1199 38.761L39.119 38.7582L39.1185 38.7569L39.1183 38.7563C39.1183 38.7562 39.1183 38.7561 39.1506 38.7452L39.1182 38.756L38.4342 36.705C38.3207 36.3644 38.5047 35.9963 38.8452 35.8827Z" fill="#2988FF"/>
<path fill-rule="evenodd" clip-rule="evenodd" d="M43.2153 35.8827C43.5559 35.7692 43.924 35.9532 44.0376 36.2937L44.7193 38.3379L44.7223 38.3454C44.7269 38.3568 44.7358 38.3773 44.7493 38.404C44.7771 38.4586 44.8205 38.5309 44.8808 38.6011C44.9949 38.7338 45.1565 38.8493 45.4209 38.8493H46.4209C46.7799 38.8493 47.0709 39.1404 47.0709 39.4993C47.0709 39.8583 46.7799 40.1493 46.4209 40.1493H45.4209C44.6854 40.1493 44.189 39.7904 43.8951 39.4486C43.7514 39.2815 43.6533 39.1166 43.5906 38.9933C43.5589 38.931 43.5353 38.8774 43.5187 38.8368C43.5104 38.8164 43.5038 38.7992 43.4988 38.7855L43.4924 38.7678L43.49 38.761L43.4891 38.7582L43.4886 38.7569L43.4884 38.7563C43.4884 38.7562 43.4884 38.7561 43.5207 38.7452L43.4883 38.756L42.8043 36.705C42.6908 36.3644 42.8748 35.9963 43.2153 35.8827Z" fill="#2988FF"/>
<path fill-rule="evenodd" clip-rule="evenodd" d="M47.5854 35.8827C47.926 35.7692 48.2941 35.9532 48.4077 36.2937L49.0894 38.3379L49.0924 38.3454C49.097 38.3568 49.1058 38.3773 49.1194 38.404C49.1472 38.4586 49.1906 38.5309 49.2509 38.6011C49.365 38.7338 49.5265 38.8493 49.791 38.8493H50.791C51.15 38.8493 51.441 39.1404 51.441 39.4993C51.441 39.8583 51.15 40.1493 50.791 40.1493H49.791C49.0555 40.1493 48.559 39.7904 48.2652 39.4486C48.1215 39.2815 48.0234 39.1166 47.9607 38.9933C47.929 38.931 47.9054 38.8774 47.8888 38.8368C47.8805 38.8164 47.8739 38.7992 47.8689 38.7855L47.8625 38.7678L47.8601 38.761L47.8592 38.7582L47.8587 38.7569L47.8585 38.7563C47.8585 38.7562 47.8585 38.7561 47.8908 38.7452L47.8584 38.756L47.1744 36.705C47.0609 36.3644 47.2449 35.9963 47.5854 35.8827Z" fill="#2988FF"/>
<path fill-rule="evenodd" clip-rule="evenodd" d="M51.9555 35.8827C52.296 35.7692 52.6642 35.9532 52.7778 36.2937L53.4595 38.3379L53.4624 38.3454C53.4671 38.3568 53.4759 38.3773 53.4895 38.404C53.5173 38.4586 53.5607 38.5309 53.621 38.6011C53.7351 38.7338 53.8966 38.8493 54.1611 38.8493H55.1611C55.5201 38.8493 55.8111 39.1404 55.8111 39.4993C55.8111 39.8583 55.5201 40.1493 55.1611 40.1493H54.1611C53.4256 40.1493 52.9291 39.7904 52.6353 39.4486C52.4916 39.2815 52.3935 39.1166 52.3308 38.9933C52.2991 38.931 52.2755 38.8774 52.2589 38.8368C52.2506 38.8164 52.244 38.7992 52.2389 38.7855L52.2326 38.7678L52.2302 38.761L52.2293 38.7582L52.2288 38.7569L52.2286 38.7563C52.2286 38.7562 52.2286 38.7561 52.2608 38.7452L52.2285 38.756L51.5445 36.705C51.431 36.3644 51.615 35.9963 51.9555 35.8827Z" fill="#2988FF"/>
<path fill-rule="evenodd" clip-rule="evenodd" d="M56.3256 35.8827C56.6661 35.7692 57.0343 35.9532 57.1478 36.2937L57.8296 38.3379L57.8325 38.3454C57.8372 38.3568 57.846 38.3773 57.8596 38.404C57.8874 38.4586 57.9308 38.5309 57.9911 38.6011C58.1052 38.7338 58.2667 38.8493 58.5312 38.8493H59.5312C59.8902 38.8493 60.1812 39.1404 60.1812 39.4993C60.1812 39.8583 59.8902 40.1493 59.5312 40.1493H58.5312C57.7957 40.1493 57.2992 39.7904 57.0054 39.4486C56.8617 39.2815 56.7636 39.1166 56.7009 38.9933C56.6692 38.931 56.6456 38.8774 56.629 38.8368C56.6207 38.8164 56.6141 38.7992 56.609 38.7855L56.6027 38.7678L56.6003 38.761L56.5994 38.7582L56.5989 38.7569L56.5987 38.7563C56.5987 38.7562 56.5986 38.7561 56.6309 38.7452L56.5986 38.756L55.9146 36.705C55.8011 36.3644 55.9851 35.9963 56.3256 35.8827Z" fill="#2988FF"/>
<path fill-rule="evenodd" clip-rule="evenodd" d="M60.6952 35.8827C61.0358 35.7692 61.4039 35.9532 61.5175 36.2937L62.1992 38.3379L62.2022 38.3454C62.2068 38.3568 62.2156 38.3773 62.2292 38.404C62.257 38.4586 62.3004 38.5309 62.3607 38.6011C62.4748 38.7338 62.6363 38.8493 62.9008 38.8493H63.9008C64.2598 38.8493 64.5508 39.1404 64.5508 39.4993C64.5508 39.8583 64.2598 40.1493 63.9008 40.1493H62.9008C62.1653 40.1493 61.6688 39.7904 61.375 39.4486C61.2313 39.2815 61.1332 39.1166 61.0705 38.9933C61.0388 38.931 61.0152 38.8774 60.9986 38.8368C60.9903 38.8164 60.9837 38.7992 60.9787 38.7855L60.9723 38.7678L60.9699 38.761L60.969 38.7582L60.9685 38.7569L60.9683 38.7563C60.9683 38.7562 60.9683 38.7561 61.0005 38.7452L60.9682 38.756L60.2842 36.705C60.1707 36.3644 60.3547 35.9963 60.6952 35.8827Z" fill="#2988FF"/>
<path fill-rule="evenodd" clip-rule="evenodd" d="M35.8926 30.9221C36.2331 30.8085 36.6013 30.9925 36.7148 31.3331L37.3966 33.3772L37.3995 33.3848C37.4042 33.3961 37.413 33.4166 37.4266 33.4433C37.4544 33.498 37.4978 33.5703 37.5581 33.6404C37.6722 33.7731 37.8337 33.8887 38.0982 33.8887H39.0982C39.4572 33.8887 39.7482 34.1797 39.7482 34.5387C39.7482 34.8977 39.4572 35.1887 39.0982 35.1887H38.0982C37.3627 35.1887 36.8662 34.8297 36.5724 34.488C36.4287 34.3208 36.3306 34.1559 36.2679 34.0326C36.2362 33.9703 36.2126 33.9167 36.196 33.8761C36.1877 33.8558 36.1811 33.8385 36.176 33.8249L36.1697 33.8071L36.1673 33.8003L36.1664 33.7975L36.1659 33.7962L36.1657 33.7956C36.1657 33.7955 36.1656 33.7954 36.1979 33.7845L36.1656 33.7953L35.4816 31.7443C35.3681 31.4038 35.5521 31.0356 35.8926 30.9221Z" fill="#2988FF"/>
<path fill-rule="evenodd" clip-rule="evenodd" d="M40.0083 30.9221C40.3488 30.8085 40.717 30.9925 40.8305 31.3331L41.5123 33.3772L41.5152 33.3848C41.5199 33.3961 41.5287 33.4166 41.5423 33.4433C41.5701 33.498 41.6135 33.5703 41.6738 33.6404C41.7879 33.7731 41.9494 33.8887 42.2139 33.8887H43.2139C43.5729 33.8887 43.8639 34.1797 43.8639 34.5387C43.8639 34.8977 43.5729 35.1887 43.2139 35.1887H42.2139C41.4784 35.1887 40.9819 34.8297 40.6881 34.488C40.5444 34.3208 40.4463 34.1559 40.3836 34.0326C40.3519 33.9703 40.3283 33.9167 40.3117 33.8761C40.3034 33.8558 40.2968 33.8385 40.2917 33.8249L40.2854 33.8071L40.283 33.8003L40.2821 33.7975L40.2816 33.7962L40.2814 33.7956C40.2814 33.7955 40.2813 33.7954 40.3136 33.7845L40.2813 33.7953L39.5973 31.7443C39.4838 31.4038 39.6678 31.0356 40.0083 30.9221Z" fill="#2988FF"/>
<path fill-rule="evenodd" clip-rule="evenodd" d="M44.124 30.9221C44.4645 30.8085 44.8327 30.9925 44.9462 31.3331L45.628 33.3772L45.6309 33.3848C45.6356 33.3961 45.6444 33.4166 45.658 33.4433C45.6858 33.498 45.7292 33.5703 45.7895 33.6404C45.9036 33.7731 46.0651 33.8887 46.3296 33.8887H47.3296C47.6886 33.8887 47.9796 34.1797 47.9796 34.5387C47.9796 34.8977 47.6886 35.1887 47.3296 35.1887H46.3296C45.5941 35.1887 45.0976 34.8297 44.8038 34.488C44.6601 34.3208 44.562 34.1559 44.4993 34.0326C44.4676 33.9703 44.444 33.9167 44.4274 33.8761C44.4191 33.8558 44.4125 33.8385 44.4074 33.8249L44.4011 33.8071L44.3987 33.8003L44.3978 33.7975L44.3973 33.7962L44.3971 33.7956C44.3971 33.7955 44.3971 33.7954 44.4293 33.7845L44.397 33.7953L43.713 31.7443C43.5995 31.4038 43.7835 31.0356 44.124 30.9221Z" fill="#2988FF"/>
<path fill-rule="evenodd" clip-rule="evenodd" d="M48.2402 30.9221C48.5807 30.8085 48.9489 30.9925 49.0624 31.3331L49.7442 33.3772L49.7471 33.3848C49.7518 33.3961 49.7606 33.4166 49.7742 33.4433C49.802 33.498 49.8454 33.5703 49.9057 33.6404C50.0198 33.7731 50.1813 33.8887 50.4458 33.8887H51.4458C51.8048 33.8887 52.0958 34.1797 52.0958 34.5387C52.0958 34.8977 51.8048 35.1887 51.4458 35.1887H50.4458C49.7103 35.1887 49.2138 34.8297 48.92 34.488C48.7763 34.3208 48.6781 34.1559 48.6155 34.0326C48.5838 33.9703 48.5601 33.9167 48.5436 33.8761C48.5353 33.8558 48.5287 33.8385 48.5236 33.8249L48.5173 33.8071L48.5149 33.8003L48.5139 33.7975L48.5135 33.7962L48.5133 33.7956C48.5133 33.7955 48.5132 33.7954 48.5455 33.7845L48.5132 33.7953L47.8292 31.7443C47.7156 31.4038 47.8996 31.0356 48.2402 30.9221Z" fill="#2988FF"/>
<path fill-rule="evenodd" clip-rule="evenodd" d="M52.3559 30.9221C52.6964 30.8085 53.0646 30.9925 53.1781 31.3331L53.8599 33.3772L53.8628 33.3848C53.8675 33.3961 53.8763 33.4166 53.8899 33.4433C53.9177 33.498 53.9611 33.5703 54.0214 33.6404C54.1355 33.7731 54.297 33.8887 54.5615 33.8887H55.5615C55.9205 33.8887 56.2115 34.1797 56.2115 34.5387C56.2115 34.8977 55.9205 35.1887 55.5615 35.1887H54.5615C53.826 35.1887 53.3295 34.8297 53.0357 34.488C52.892 34.3208 52.7939 34.1559 52.7312 34.0326C52.6995 33.9703 52.6759 33.9167 52.6593 33.8761C52.651 33.8558 52.6444 33.8385 52.6393 33.8249L52.633 33.8071L52.6306 33.8003L52.6296 33.7975L52.6292 33.7962L52.629 33.7956C52.629 33.7955 52.6289 33.7954 52.6612 33.7845L52.6289 33.7953L51.9449 31.7443C51.8313 31.4038 52.0153 31.0356 52.3559 30.9221Z" fill="#2988FF"/>
<path fill-rule="evenodd" clip-rule="evenodd" d="M56.4716 30.9221C56.8121 30.8085 57.1803 30.9925 57.2938 31.3331L57.9756 33.3772L57.9785 33.3848C57.9832 33.3961 57.992 33.4166 58.0056 33.4433C58.0334 33.498 58.0768 33.5703 58.1371 33.6404C58.2512 33.7731 58.4127 33.8887 58.6772 33.8887H59.6772C60.0362 33.8887 60.3272 34.1797 60.3272 34.5387C60.3272 34.8977 60.0362 35.1887 59.6772 35.1887H58.6772C57.9417 35.1887 57.4452 34.8297 57.1514 34.488C57.0077 34.3208 56.9096 34.1559 56.8469 34.0326C56.8152 33.9703 56.7916 33.9167 56.775 33.8761C56.7667 33.8558 56.7601 33.8385 56.755 33.8249L56.7487 33.8071L56.7463 33.8003L56.7454 33.7975L56.7449 33.7962L56.7447 33.7956C56.7447 33.7955 56.7446 33.7954 56.7769 33.7845L56.7446 33.7953L56.0606 31.7443C55.9471 31.4038 56.131 31.0356 56.4716 30.9221Z" fill="#2988FF"/>
</svg>
