<svg width="96" height="96" viewBox="0 0 96 96" fill="none" xmlns="http://www.w3.org/2000/svg">
<path d="M57.5 58.0006C58.1 58.0006 58.5 57.5006 58.5 57.0006V50.1006C58.5 49.5006 58 49.1006 57.5 49.1006H53.7C53.1 49.1006 52.7 49.6006 52.7 50.1006V57.0006C52.7 57.6006 53.2 58.0006 53.7 58.0006H57.5ZM54.7 51.1006H56.4V55.9006H54.7V51.1006Z" fill="#2988FF"/>
<path d="M43.5 56.9005V50.0005C43.5 49.4005 43 49.0005 42.5 49.0005H38.6C38 49.0005 37.6 49.5005 37.6 50.0005V56.9005C37.6 57.5005 38.1 57.9005 38.6 57.9005H42.4C43 58.0005 43.5 57.5005 43.5 56.9005ZM41.4 55.9005H39.7V51.1005H41.4V55.9005Z" fill="#2988FF"/>
<path d="M50.8 20.1005C49.9 19.3005 49 18.9005 48.1 19.0005C47.2 18.9005 46.2 19.3005 45.4 20.1005L38.6 26.4005C31.6 33.0005 21.6 42.4005 19.9 44.0005C18.7 45.2005 18.3 46.4005 18.9 47.7005C19.3 48.6005 20.1 49.6005 22.1 49.6005C23.7 49.6005 25.2 49.6005 26.8 49.6005V73.1005C26.8 75.6005 28 76.8005 30.5 76.8005C32.6 76.8005 40.3 76.8005 48 76.8005C55.7 76.8005 63.4 76.8005 65.5 76.8005C68 76.8005 69.2 75.6005 69.2 73.1005V49.6005C70.8 49.6005 72.3 49.6005 73.9 49.6005C75.9 49.6005 76.7 48.6005 77.1 47.7005C77.7 46.4005 77.3 45.2005 76.1 44.0005C74.4 42.4005 64.2 32.9005 57.2 26.3005L50.8 20.1005ZM68.8 45.6005C66.5 45.6005 65.3 46.9005 65.3 49.2005V72.9005C60.4 72.9005 35.6 72.9005 30.8 72.9005V49.2005C30.8 47.0005 29.5 45.7005 27.3 45.6005C26.2 45.6005 25.2 45.6005 24.1 45.6005C27.5 42.4005 35.5 34.9005 41.4 29.4005L48 23.0005L54.5 29.1005C60.4 34.6005 68.5 42.3005 72 45.5005C71 45.6005 69.9 45.6005 68.8 45.6005Z" fill="#1C3553"/>
</svg>
