<svg width="96" height="96" viewBox="0 0 96 96" fill="none" xmlns="http://www.w3.org/2000/svg">
<path d="M60.7997 45.9011H56.9997C56.3997 45.9011 55.7997 46.4011 55.7997 47.1011V54.0011C55.7997 54.6011 56.2997 55.2011 56.9997 55.2011H60.7997C61.3997 55.2011 61.9997 54.7011 61.9997 54.0011V47.1011C61.9997 46.4011 61.3997 45.9011 60.7997 45.9011ZM59.5997 52.7011H58.0997V48.2011H59.5997V52.7011Z" fill="#2988FF"/>
<path d="M45.6998 45.9011H41.8998C41.2998 45.9011 40.6998 46.4011 40.6998 47.1011V54.0011C40.6998 54.6011 41.1998 55.2011 41.8998 55.2011H45.6998C46.2998 55.2011 46.8998 54.7011 46.8998 54.0011V47.1011C46.8998 46.4011 46.3998 45.9011 45.6998 45.9011ZM44.5998 52.7011H43.0998V48.2011H44.5998V52.7011Z" fill="#2988FF"/>
<path d="M83.6996 66.501C83.6996 64.301 81.7996 62.901 79.3996 62.901C77.7996 62.901 76.1996 63.501 75.0996 64.701L76.4996 66.301C77.2996 65.501 78.1996 65.001 79.4996 65.001C80.3996 65.001 81.2996 65.501 81.2996 66.501C81.2996 67.901 79.9996 69.001 75.3996 72.401V74.301H83.7996V72.201H79.2996C82.0996 70.101 83.6996 68.401 83.6996 66.501Z" fill="#2988FF"/>
<path d="M69.2996 68.1012L71.0996 66.2012V74.3012H73.4996V63.1012H71.3996L67.8996 66.6012L69.2996 68.1012Z" fill="#2988FF"/>
<path d="M25.2999 74.801V74.601V71.801H25.1999L25.0999 71.7011C25.0999 71.7011 24.9999 71.701 24.9999 71.801C24.9999 71.801 24.9999 71.801 24.8999 71.801C24.7999 71.901 24.5999 72.001 24.4999 72.001C23.5999 72.401 21.8999 72.701 19.0999 72.701C18.2999 72.701 17.5999 72.701 16.8999 72.601V72.801V73.201V73.301C17.5999 73.401 18.2999 73.401 19.0999 73.401C20.7999 73.401 22.2999 73.301 23.3999 73.001L18.3999 75.101C17.8999 75.101 17.3999 75.101 16.8999 75.001V75.901V76.201C17.4999 76.301 18.1999 76.301 19.0999 76.301C24.1999 76.401 25.0999 75.201 25.2999 74.801Z" fill="#2988FF"/>
<path d="M19.2999 70.7012L18.2999 71.1012C17.7999 71.1012 17.2999 71.1012 16.7999 71.0012V71.2012V71.8012V71.9012V72.2012C17.3999 72.3012 18.0999 72.3012 18.9999 72.3012C20.9999 72.3012 22.3999 72.1012 23.2999 71.9012C23.3999 71.9012 23.4999 71.8012 23.5999 71.8012C23.7999 71.7012 23.9999 71.6012 24.1999 71.6012C24.2999 71.6012 24.2999 71.5012 24.3999 71.5012C24.4999 71.4012 24.5999 71.4012 24.5999 71.4012C24.8999 71.2012 25.0999 71.0012 25.0999 70.9012V70.7012V67.9012H24.9999C24.8999 67.8012 24.7999 67.7012 24.5999 67.6012C24.4999 67.6012 24.4999 67.7012 24.3999 67.7012C24.1999 67.8012 24.0999 67.8012 23.7999 67.9012C22.7999 68.2012 21.2999 68.5012 18.8999 68.5012C16.4999 68.5012 14.9999 68.3012 13.9999 67.9012C13.7999 67.8012 13.5999 67.8012 13.3999 67.7012C13.2999 67.7012 13.1999 67.6012 13.1999 67.6012C12.9999 67.7012 12.8999 67.8012 12.7999 67.9012H12.6999V68.2012V68.4012V68.9012C12.7999 68.9012 12.9999 68.9012 13.0999 69.0012C13.2999 69.0012 13.5999 69.1012 13.7999 69.1012V69.0012H13.8999C14.9999 69.4012 16.7999 69.6012 18.8999 69.6012C20.5999 69.6012 22.0999 69.5012 23.1999 69.2012L20.0999 70.5012L19.2999 70.7012Z" fill="#2988FF"/>
<path d="M25.2999 63.2012C24.5999 62.5012 22.0999 62.1012 19.0999 62.1012C16.0999 62.1012 13.5999 62.6012 12.9999 63.2012H12.8999V63.5012V63.7012V66.2012C12.9999 66.4012 13.1999 66.7012 13.7999 67.0012C13.8999 67.1012 13.9999 67.1012 14.1999 67.1012C14.2999 67.1012 14.2999 67.2012 14.3999 67.2012C14.5999 67.3012 14.8999 67.3012 15.2999 67.4012C16.1999 67.6012 17.3999 67.7012 19.0999 67.7012C20.7999 67.7012 21.9999 67.6012 22.8999 67.4012C23.1999 67.3012 23.4999 67.3012 23.7999 67.2012C23.8999 67.2012 23.8999 67.1012 23.9999 67.1012C24.0999 67.0012 24.2999 67.0012 24.3999 67.0012C25.0999 66.7012 25.2999 66.4012 25.2999 66.2012V66.0012V63.2012ZM19.2999 66.2012L18.2999 66.6012C17.2999 66.6012 16.5999 66.5012 15.8999 66.4012C14.5999 66.2012 13.9999 65.9012 13.8999 65.8012V64.4012H13.9999C15.0999 64.7012 16.8999 65.0012 18.9999 65.0012C20.6999 65.0012 22.1999 64.9012 23.2999 64.6012L19.2999 66.2012Z" fill="#2988FF"/>
<path d="M16.2999 78.701L16.1999 78.801C16.1999 78.801 16.1999 78.801 16.0999 78.801C15.9999 78.901 15.7999 79.001 15.6999 79.001C14.7999 79.401 13.0999 79.701 10.2999 79.701C7.49996 79.701 5.79997 79.301 4.89998 79.001C4.69998 78.901 4.59998 78.801 4.49998 78.801C4.49998 78.801 4.49998 78.801 4.39998 78.801L4.29998 78.701L4.19998 78.801H3.99998V79.101V79.301V81.801C4.19998 82.201 5.09997 83.301 10.1999 83.301C15.2999 83.301 16.1999 82.101 16.3999 81.801V81.601V79.301V79.101V78.801L16.2999 78.701ZM9.49995 82.101C6.39997 82.001 5.39997 81.501 5.09997 81.301V79.901H5.19997C6.29997 80.301 8.09996 80.501 10.1999 80.501C11.8999 80.501 13.3999 80.301 14.4999 80.101L9.49995 82.101Z" fill="#2988FF"/>
<path d="M15.8999 74.301C15.7999 74.301 15.7999 74.401 15.6999 74.401C15.4999 74.501 15.3999 74.501 15.0999 74.601C14.9999 74.601 14.8999 74.701 14.6999 74.701C14.2999 74.801 13.7999 74.901 13.2999 75.001C13.1999 75.001 13.0999 75.001 12.9999 75.001C12.8999 75.001 12.8999 75.001 12.7999 75.001C12.6999 75.001 12.4999 75.001 12.3999 75.001C11.7999 75.101 10.9999 75.101 10.1999 75.101C7.79996 75.101 6.29997 74.901 5.29997 74.501C5.09997 74.401 4.89998 74.401 4.69998 74.301C4.59998 74.301 4.49998 74.201 4.49998 74.201C4.29998 74.301 4.19998 74.401 4.09998 74.501H3.99998V74.801V75.001V77.501C4.09998 77.601 4.19998 77.801 4.49998 78.001C4.59998 78.001 4.69998 78.101 4.69998 78.101C4.79998 78.101 4.79998 78.201 4.89998 78.201C5.09997 78.301 5.29997 78.301 5.49997 78.401C5.59997 78.401 5.69997 78.501 5.79997 78.501C6.69997 78.701 8.09996 78.901 10.0999 78.901C12.0999 78.901 13.4999 78.701 14.3999 78.501C14.4999 78.501 14.5999 78.401 14.6999 78.401C14.8999 78.301 15.0999 78.201 15.2999 78.201C15.3999 78.201 15.3999 78.101 15.4999 78.101C15.5999 78.001 15.6999 78.001 15.6999 78.001C15.9999 77.801 16.1999 77.601 16.1999 77.501V77.301V76.901V76.601V76.201V76.101V75.801V75.001V74.901V74.701V74.401H16.0999C16.2999 74.501 16.0999 74.401 15.8999 74.301ZM14.3999 76.001L13.7999 76.201L11.3999 77.201L10.4999 77.601L9.49995 78.001C8.49996 78.001 7.79996 77.901 7.19996 77.801C7.09996 77.801 7.09996 77.801 6.99996 77.801C6.69997 77.701 6.39997 77.701 6.09997 77.601C5.49997 77.401 5.19997 77.301 5.09997 77.201V75.801H5.19997C6.29997 76.201 8.09996 76.401 10.1999 76.401C11.3999 76.401 12.4999 76.301 13.4999 76.201C13.7999 76.101 14.0999 76.001 14.3999 76.001C14.3999 76.001 14.4999 76.001 14.3999 76.001Z" fill="#2988FF"/>
<path d="M13.9999 69.3012C13.7999 69.3012 13.4999 69.2012 13.2999 69.2012C13.1999 69.2012 12.9999 69.2012 12.8999 69.2012C12.7999 69.2012 12.5999 69.2012 12.4999 69.2012C11.7999 69.1012 11.0999 69.1012 10.2999 69.1012C7.29996 69.1012 4.79998 69.6012 4.19998 70.2012H3.99998V70.5012V70.7012V73.2012C4.09998 73.4012 4.29998 73.7012 4.89998 74.0012C4.99997 74.1012 5.09997 74.1012 5.29997 74.1012C5.39997 74.1012 5.39997 74.2012 5.49997 74.2012C5.69997 74.3012 5.99997 74.4012 6.39997 74.4012C7.29996 74.6012 8.49996 74.7012 10.1999 74.7012C10.9999 74.7012 11.7999 74.7012 12.3999 74.6012C12.4999 74.6012 12.6999 74.6012 12.7999 74.6012C12.8999 74.6012 13.0999 74.6012 13.1999 74.5012C13.4999 74.5012 13.6999 74.4012 13.8999 74.4012H13.9999C14.2999 74.3012 14.5999 74.3012 14.8999 74.2012C14.9999 74.2012 14.9999 74.1012 15.0999 74.1012C15.1999 74.1012 15.3999 74.0012 15.4999 74.0012C15.8999 73.8012 16.0999 73.6012 16.2999 73.5012C16.3999 73.4012 16.3999 73.3012 16.4999 73.3012V73.1012V73.0012V72.8012V72.6012V72.3012V72.2012V71.9012V71.4012V71.1012V71.0012V70.8012V70.6012V70.5012V70.2012H16.3999C15.9999 69.8012 15.1999 69.5012 13.9999 69.3012ZM14.3999 71.5012L13.9999 71.7012L13.7999 71.8012L13.4999 71.9012L13.2999 72.0012L12.9999 72.1012L12.7999 72.2012L12.3999 72.4012L10.4999 73.2012L9.49995 73.6012C8.49996 73.6012 7.69996 73.5012 7.09996 73.4012C5.79997 73.2012 5.19997 72.9012 5.09997 72.8012V71.4012H5.19997C6.29997 71.7012 8.09996 72.0012 10.1999 72.0012C11.0999 72.0012 11.9999 72.0012 12.7999 71.9012H12.8999C12.9999 71.9012 13.0999 71.9012 13.1999 71.9012C13.2999 71.9012 13.4999 71.9012 13.5999 71.8012H13.6999C13.7999 71.8012 13.7999 71.8012 13.8999 71.8012C14.0999 71.5012 14.2999 71.5012 14.3999 71.5012C14.4999 71.4012 14.4999 71.4012 14.3999 71.5012Z" fill="#2988FF"/>
<path d="M35.1998 80.7012V80.5012V80.1012V78.2012V78.0012V77.7012H35.0998C34.4998 77.0012 31.9998 76.6012 28.9998 76.6012C25.9999 76.6012 23.4999 77.1012 22.8999 77.7012H22.7999V78.0012V78.2012V80.7012C22.9999 81.0011 23.8999 82.2011 28.9998 82.2011C34.1998 82.2011 35.0998 81.1011 35.1998 80.7012ZM23.8999 80.3012V78.9012H23.9999C25.0999 79.2012 26.8999 79.5012 28.9998 79.5012C30.6998 79.5012 32.1998 79.4012 33.2998 79.1012L28.2998 81.2011C25.1999 81.0011 24.1999 80.5012 23.8999 80.3012Z" fill="#2988FF"/>
<path d="M88.1995 53.8011C87.9995 53.8011 87.8996 53.8011 87.6996 53.9011C87.6996 54.2011 87.6996 54.5011 87.6996 54.9011C87.6996 56.2011 86.6996 57.2011 85.4996 57.3011C84.2996 57.3011 83.2996 56.3011 83.2996 55.0011C83.2996 54.7011 83.2996 54.3011 83.2996 54.0011H69.7996C69.7996 54.3011 69.7996 54.7011 69.7996 55.0011C69.7996 56.3011 68.7996 57.3011 67.5997 57.3011C66.2997 57.3011 65.3997 56.3011 65.3997 54.9011C65.3997 54.6011 65.3997 54.2011 65.3997 53.9011C65.1997 53.9011 64.9997 53.9011 64.8997 53.8011C63.2997 53.7011 62.0997 54.7011 61.9997 56.3011C61.9997 56.4011 61.9997 56.6011 61.9997 56.7011C61.9997 57.0011 61.9997 57.3011 61.9997 57.7011C61.9997 60.1011 61.9997 62.4011 61.9997 64.8011C61.9997 64.9011 61.9997 64.9011 61.9997 65.0011C61.9997 68.6011 61.9997 72.2011 61.9997 75.801C61.9997 77.601 62.9997 78.601 64.7997 78.601C68.7996 78.601 72.6996 78.601 76.6996 78.601C80.6996 78.601 84.5996 78.601 88.5995 78.601C90.3995 78.601 91.3995 77.601 91.3995 75.801C91.3995 72.2011 91.3995 68.6011 91.3995 65.0011C91.3995 64.9011 91.3995 64.8011 91.3995 64.8011C91.3995 62.4011 91.3995 60.1011 91.3995 57.7011C91.3995 57.4011 91.3995 57.1011 91.3995 56.7011C91.3995 56.6011 91.3995 56.4011 91.3995 56.3011C90.9995 54.6011 89.7995 53.6011 88.1995 53.8011ZM88.7996 75.701C88.7996 76.201 88.5995 76.301 88.0996 76.301C84.1996 76.301 80.2996 76.301 76.3996 76.301C72.4996 76.301 68.5997 76.301 64.6997 76.301C64.1997 76.301 63.9997 76.201 63.9997 75.701C63.9997 70.8011 63.9997 66.0011 63.9997 61.1011C63.9997 60.9011 63.9997 60.8011 63.9997 60.6011H88.6995C88.6995 60.8011 88.6995 61.0011 88.6995 61.1011C88.7995 66.0011 88.7996 70.8011 88.7996 75.701Z" fill="#1C3553"/>
<path d="M85.3996 56.0012C85.8995 56.0012 86.1995 55.8012 86.3995 55.4012C86.3995 55.3012 86.4995 55.3012 86.4995 55.2012C86.4995 55.2012 86.4995 55.2012 86.4995 55.1012C86.4995 55.0012 86.4995 54.9012 86.4995 54.7012C86.4995 54.0012 86.4995 53.3012 86.4995 52.6012C86.4995 51.9012 86.4995 51.2013 86.4995 50.5013C86.4995 49.8013 85.9995 49.3013 85.3996 49.3013H85.2996H85.1995H85.0996C84.6996 49.5013 84.3996 49.8013 84.2996 50.4013C84.2996 51.9013 84.2996 53.4012 84.2996 55.0012C84.2996 55.5012 84.7996 56.0012 85.3996 56.0012Z" fill="#1C3553"/>
<path d="M67.7996 49.3013H67.6996H67.5996H67.4996C66.8997 49.3013 66.3997 49.8013 66.3997 50.5013C66.3997 51.2013 66.3997 51.9012 66.3997 52.6012C66.3997 53.3012 66.3997 54.0012 66.3997 54.7012C66.3997 54.8012 66.3997 55.0012 66.3997 55.1012C66.3997 55.1012 66.3997 55.1012 66.3997 55.2012C66.3997 55.3012 66.3997 55.4012 66.4997 55.4012C66.6997 55.8012 66.9997 56.0012 67.4996 56.0012C68.0996 56.0012 68.5996 55.5012 68.5996 54.9012C68.5996 53.4012 68.5996 51.9012 68.5996 50.3013C68.4996 49.8013 68.1996 49.5013 67.7996 49.3013Z" fill="#1C3553"/>
<path d="M22.1999 40.6012C22.5999 41.5012 23.3999 42.5012 25.3999 42.5012C26.9999 42.5012 28.4999 42.5012 30.0999 42.5012V69.8011C30.0999 70.9011 30.9999 71.8011 32.0998 71.8011H58.0997C59.1997 71.8011 60.0997 70.9011 60.0997 69.8011C60.0997 68.7011 59.1997 67.8011 58.0997 67.8011H34.0998V42.1012C34.0998 39.8012 32.7998 38.6012 30.5999 38.6012C29.4999 38.6012 28.3999 38.6012 27.3999 38.6012C32.6998 33.6013 49.2998 18.1013 51.3997 16.1013C53.4997 18.1013 70.0997 33.6013 75.3996 38.6012C74.2996 38.6012 73.2996 38.6012 72.1996 38.6012C69.8996 38.6012 68.5997 39.9012 68.5997 42.1012V45.9012C68.5997 47.0012 69.4997 47.9012 70.5996 47.9012C71.6996 47.9012 72.5996 47.0012 72.5996 45.9012V42.6012C74.1996 42.6012 75.6996 42.6012 77.2996 42.6012C79.2996 42.6012 80.1996 41.6012 80.4996 40.7012C81.0996 39.4012 80.6996 38.2012 79.4996 37.0012C76.9996 34.6013 56.3997 15.3014 54.0997 13.1014C53.1997 12.3014 52.2997 11.9014 51.3997 12.0014C50.4998 11.9014 49.5998 12.3014 48.6998 13.1014C46.3998 15.3014 25.7999 34.6013 23.2999 37.0012C21.9999 38.1012 21.5999 39.3012 22.1999 40.6012Z" fill="#1C3553"/>
</svg>
