<svg width="96" height="96" viewBox="0 0 96 96" fill="none" xmlns="http://www.w3.org/2000/svg">
<path d="M48 45.1722C50.0388 45.1722 51.6699 43.5626 51.6699 41.5506C51.6699 39.5386 50.0388 37.929 48 37.929C45.9611 37.929 44.3301 39.5386 44.3301 41.5506C44.3301 43.5626 45.9611 45.1722 48 45.1722Z" fill="#2988FF"/>
<path d="M38.6213 50.001C38.6213 50.2022 38.2136 55.2323 38.4174 56.8419V64.2863C38.4174 65.0911 39.0291 65.8959 40.0485 65.8959C41.0679 65.8959 41.6796 65.0911 41.6796 64.2863V53.8239C41.6796 52.0131 42.2912 51.6107 43.1068 51.8119V53.4215V70.1212C43.1068 70.5236 43.1068 71.1272 43.1068 71.3284C43.1068 74.3464 43.1068 77.5656 43.1068 80.5836C43.1068 80.986 43.1068 81.1872 43.3106 81.5896C43.3106 81.7908 43.5145 81.992 43.7184 82.1932L43.9223 82.3944C44.1262 82.5956 44.3301 82.5956 44.3301 82.7968C44.7378 82.998 45.3495 82.998 45.7572 82.7968C45.7572 82.7968 45.7572 82.7968 45.9611 82.7968L46.165 82.5956C46.9805 82.1932 47.1844 81.1872 47.1844 80.1812C47.1844 75.3524 47.1844 70.7248 47.1844 65.8959V64.2863H48.8155V66.0971C48.8155 70.926 48.8155 75.5536 48.8155 80.3824C48.8155 81.3884 49.0194 82.1932 49.8349 82.7968C49.8349 82.7968 50.0388 82.7968 50.0388 82.998C50.0388 82.998 50.0388 82.998 50.2427 82.998C50.8543 83.1992 51.2621 83.1992 51.6699 82.998C51.8737 82.998 52.0776 82.7968 52.0776 82.5956L52.2815 82.3944C52.4854 82.1932 52.4854 81.992 52.6893 81.7908C52.6893 81.5896 52.8932 81.1872 52.8932 80.7848C52.8932 77.7668 52.8932 74.5476 52.8932 71.5296C52.8932 71.3284 52.8932 70.7248 52.8932 70.3224V53.6227V52.0131C53.5048 51.8119 54.3204 52.2143 54.3204 54.0251V64.2863C54.3204 65.0911 54.932 65.8959 55.9514 65.8959C56.767 65.8959 57.5825 65.0911 57.5825 64.2863V56.6407C57.5825 55.0311 57.3786 50.001 57.3786 49.7998C56.5631 46.983 54.932 46.1782 51.8737 46.1782C51.6699 46.1782 51.466 46.1782 51.466 46.1782C50.2427 46.1782 49.2233 46.1782 48 46.1782C46.7767 46.1782 45.7572 46.1782 44.5339 46.1782C44.3301 46.1782 44.1262 46.1782 44.1262 46.1782C41.2718 46.3794 39.4369 47.1842 38.6213 50.001Z" fill="#2988FF"/>
<path d="M79.1944 46.3794C80.0099 44.3674 78.5827 42.959 78.175 42.5566C76.7478 41.1482 69.0002 33.905 62.0682 27.6677L50.8546 17.2053C49.8352 16.1992 48.8157 15.998 48.0002 15.998C46.9808 15.998 45.9614 16.4004 45.1458 17.2053L32.7089 28.6737C26.1847 34.7098 19.2526 41.1482 17.8254 42.5566C17.4177 42.959 15.9905 44.3674 16.806 46.3794C17.2138 47.1842 18.0293 48.3914 20.272 48.3914H25.3691V73.5416C25.3691 76.1572 26.5924 77.3644 29.2429 77.3644H37.806C39.0293 77.3644 39.8449 76.5596 39.8449 75.3524C39.8449 74.1452 39.0293 73.3404 37.806 73.3404H29.2429V47.989C29.2429 45.5746 27.8157 44.3674 25.573 44.3674H21.9031C24.5536 41.953 30.2623 36.7218 35.5633 31.6917L47.7963 20.0221L59.2138 30.6857C64.9225 35.917 71.2429 41.7518 74.0973 44.3674H70.4274C67.9808 44.3674 66.7575 45.7758 66.7575 47.989V73.3404H58.3983C57.175 73.3404 56.3594 74.1452 56.3594 75.3524C56.3594 76.5596 57.175 77.3644 58.3983 77.3644H66.9614C69.6119 77.3644 70.8352 76.1572 70.8352 73.5416V48.3914H75.9322C77.9711 48.3914 78.7866 47.3854 79.1944 46.3794Z" fill="#1C3553"/>
</svg>
