<svg width="96" height="96" viewBox="0 0 96 96" fill="none" xmlns="http://www.w3.org/2000/svg">
<path fill-rule="evenodd" clip-rule="evenodd" d="M18.0357 30.6407C18.5717 30.0232 19.5198 29.3168 20.9091 29.3168H74.3129C75.7022 29.3168 76.6503 30.0232 77.1863 30.6407C77.448 30.9423 77.6276 31.2368 77.743 31.4557C77.8018 31.5673 77.847 31.6652 77.8803 31.7426C77.897 31.7816 77.9109 31.8158 77.9222 31.8447L77.9372 31.884L77.9433 31.9006L77.946 31.9081L77.9473 31.9116C77.9474 31.9119 77.9482 31.914 77.8432 31.9517L77.9482 31.9142L82.9857 46.0242C83.2043 46.6367 83.1115 47.3173 82.7369 47.8489C82.3622 48.3804 81.7524 48.6967 81.1021 48.6967H78.905V71.0568C78.905 72.1614 78.0096 73.0568 76.905 73.0568H18.3169C17.2124 73.0568 16.317 72.1614 16.317 71.0568V48.6967H14.1199C13.4695 48.6967 12.8598 48.3804 12.4851 47.8489C12.1105 47.3173 12.0177 46.6367 12.2363 46.0242L17.2737 31.9142L17.3786 31.9516C17.2738 31.914 17.2736 31.9145 17.2737 31.9142L17.2747 31.9116L17.2759 31.9081L17.2786 31.9006L17.2848 31.884L17.2998 31.8447C17.311 31.8158 17.325 31.7816 17.3417 31.7426C17.375 31.6652 17.4202 31.5673 17.479 31.4557C17.5944 31.2368 17.7739 30.9423 18.0357 30.6407ZM21.0202 33.3168L16.9575 44.6967H18.3169C19.4215 44.6967 20.3169 45.5921 20.3169 46.6967V69.0568H74.905V46.6967C74.905 45.5921 75.8005 44.6967 76.905 44.6967H78.2645L74.2018 33.3168H21.0202Z" fill="#1C3553"/>
<path fill-rule="evenodd" clip-rule="evenodd" d="M33.8058 29.33H62.0055V73.01H33.8058V29.33ZM37.7458 33.27V69.07H58.0656V33.27H37.7458Z" fill="#2988FF"/>
<path d="M49.9995 27C49.9995 26.4477 50.4472 26 50.9995 26H54.9994C55.5517 26 55.9994 26.4477 55.9994 27V30.9999C55.9994 31.5522 55.5517 31.9999 54.9994 31.9999H50.9995C50.4472 31.9999 49.9995 31.5522 49.9995 30.9999V27Z" fill="#2988FF"/>
<path fill-rule="evenodd" clip-rule="evenodd" d="M40.5097 47.738C40.5097 47.1858 40.9574 46.738 41.5097 46.738H45.0981C45.6504 46.738 46.0981 47.1858 46.0981 47.738V54.639C46.0981 55.1913 45.6504 55.639 45.0981 55.639H41.5097C40.9574 55.639 40.5097 55.1913 40.5097 54.639V47.738ZM42.5097 48.738V53.639H44.0981V48.738H42.5097Z" fill="#2988FF"/>
<path fill-rule="evenodd" clip-rule="evenodd" d="M49.8138 47.738C49.8138 47.1858 50.2615 46.738 50.8138 46.738H54.4022C54.9545 46.738 55.4022 47.1858 55.4022 47.738V54.639C55.4022 55.1913 54.9545 55.639 54.4022 55.639H50.8138C50.2615 55.639 49.8138 55.1913 49.8138 54.639V47.738ZM51.8138 48.738V53.639H53.4022V48.738H51.8138Z" fill="#2988FF"/>
</svg>
