<svg width="96" height="96" viewBox="0 0 96 96" fill="none" xmlns="http://www.w3.org/2000/svg">
<path d="M77.9 55.4996C79 55.4996 79.9 54.5996 79.8 53.4996C79.8 52.3996 78.9 51.5996 77.8 51.5996C76.7 51.5996 75.9 52.4996 75.9 53.5996C75.9 54.5996 76.8 55.4996 77.9 55.4996Z" fill="#2988FF"/>
<path d="M65.3 53.4995C65.3 54.5995 66.2 55.3995 67.3 55.3995C68.4 55.3995 69.3 54.4995 69.3 53.3995C69.3 52.3995 68.4 51.4995 67.3 51.4995C66.2 51.4995 65.2 52.4995 65.3 53.4995Z" fill="#2988FF"/>
<path d="M89 61.5995C89 60.8995 88.4 60.2995 87.7 60.1995C87 60.1995 86.3 60.7995 86.3 61.5995C86.3 62.3995 86.9 62.9995 87.7 62.9995C88.5 62.9995 89 62.3995 89 61.5995Z" fill="#2988FF"/>
<path d="M90.9 69.4995C91.4 69.4995 91.5 69.0995 91.5 68.6995C91.5 68.3995 91.5 68.0995 91.5 67.8995C91.5 67.1995 91.5 66.4995 91.5 65.7995C91.5 64.3995 90.8 63.7995 89.5 63.7995C89 63.7995 88.4 63.7995 87.9 63.7995C87.1 63.7995 86.2 63.7995 85.4 63.7995C84.9 63.7995 84.7 63.4995 84.6 63.0995C84.2 61.4995 83.7 59.8995 83.2 58.2995C82.7 56.7995 81.9 56.1995 80.3 56.1995C79 56.1995 77.7 56.1995 76.4 56.1995C74.5 56.1995 73.7 56.7995 73.2 58.5995C73 59.0995 72.9 59.5995 72.7 60.1995C72.6 60.3995 72.6 60.5995 72.5 60.8995C72.2 60.1995 72 59.5995 71.8 58.9995C71.7 58.6995 71.6 58.4995 71.5 58.1995C71.1 56.8995 70.2 56.2995 68.8 56.2995C67.7 56.2995 66.6 56.2995 65.5 56.2995C64.2 56.2995 63.3 56.8995 62.9 58.0995C62.7 58.5995 62.6 59.0995 62.5 59.4995C62.5 59.5995 62.4 59.6995 62.4 59.7995L62.3 59.9995C61.9 61.1995 61.6 62.4995 61.2 63.6995C61.1 64.1995 61.2 64.6995 61.7 64.7995C62.3 64.8995 62.6 64.5995 62.8 64.0995C62.8 63.9995 62.8 63.9995 62.8 63.8995V63.7995C62.9 63.3995 63.1 62.8995 63.2 62.4995C63.5 61.4995 63.8 60.4995 64.1 59.4995C64.2 58.9995 64.4 58.7995 65 59.0995C64.3 62.0995 63.6 65.0995 62.8 68.1995H64.8V68.9995C64.8 69.4995 64.8 70.0995 64.8 70.5995C64.8 71.7995 64.8 73.0995 64.8 74.2995C64.8 75.1995 65.1 75.5995 65.8 75.5995C66.4 75.5995 66.8 75.0995 66.8 74.1995C66.8 73.4995 66.8 72.8995 66.8 72.1995C66.8 71.8995 66.8 71.5995 66.8 71.3995V68.1995H67.6V68.9995C67.6 69.4995 67.6 69.9995 67.6 70.4995C67.6 71.7995 67.6 72.9995 67.6 74.2995C67.6 75.1995 68 75.6995 68.6 75.6995C69.2 75.6995 69.6 75.1995 69.6 74.2995C69.6 73.4995 69.6 72.5995 69.6 71.7995C69.6 71.4995 69.6 71.0995 69.6 70.7995V68.1995H71.5C71 66.0995 70.5 64.0995 70 61.9995L69.4 58.9995C69.9 58.7995 70.1 58.8995 70.2 59.3995C70.4 60.2995 70.7 61.0995 70.9 61.9995C71.1 62.5995 71.3 63.2995 71.5 63.8995C71.6 64.3995 71.8 64.7995 72.4 64.7995C73 64.7995 73.2 64.3995 73.4 63.8995C73.6 63.2995 73.8 62.6995 73.9 61.9995C74.2 61.0995 74.4 60.1995 74.7 59.2995C74.8 58.7995 75 58.6995 75.5 58.8995V59.6995V69.2995C75.5 69.7995 75.5 70.1995 75.5 70.6995C75.5 71.8995 75.5 72.9995 75.5 74.1995C75.5 75.1995 76.2 75.6995 77 75.4995C77.7 75.2995 77.8 74.6995 77.8 74.0995C77.8 72.3995 77.8 70.6995 77.8 68.9995C77.8 68.1995 77.8 67.2995 77.8 66.4995V65.5995H78.6V69.4995C78.6 69.8995 78.6 70.3995 78.6 70.7995C78.6 71.8995 78.6 72.9995 78.6 74.0995C78.6 74.9995 79 75.4995 79.7 75.4995C80.5 75.4995 80.9 74.9995 80.9 74.0995C80.9 73.8995 80.9 73.7995 80.9 73.6995C80.9 73.5995 80.9 73.5995 80.9 73.4995V59.7995V58.9995C81.4 58.7995 81.7 58.8995 81.8 59.3995C82 60.0995 82.2 60.7995 82.4 61.5995C82.6 62.2995 82.8 62.9995 83 63.6995C83.2 64.3995 83.5 64.6995 84.2 64.8995C84.6 64.9995 85 65.0995 85.3 65.1995C85.5 65.1995 85.7 65.2995 85.8 65.3995V66.2995C85.8 67.0995 85.8 67.8995 85.8 68.5995C85.8 70.5995 85.8 72.6995 85.8 74.6995C85.8 75.2995 85.9 75.7995 86.6 75.7995C87.3 75.7995 87.4 75.2995 87.4 74.6995C87.4 74.3995 87.4 74.0995 87.4 73.6995C87.4 72.8995 87.4 71.9995 87.4 71.1995C87.4 70.8995 87.6 70.1995 87.7 70.1995C88.2 70.2995 88.1 70.5995 88.1 70.8995C88.1 70.9995 88.1 71.0995 88.1 71.1995C88.1 72.1995 88.1 73.0995 88.1 74.0995C88.1 74.2995 88.1 74.5995 88.1 74.7995C88.1 75.2995 88.2 75.7995 88.9 75.7995C89.6 75.7995 89.7 75.3995 89.7 74.7995C89.7 74.6995 89.7 74.5995 89.7 74.4995C89.7 74.3995 89.7 74.2995 89.7 74.1995C89.7 73.6995 89.7 73.1995 89.7 72.6995C89.7 70.6995 89.7 68.6995 89.7 66.6995C89.7 66.5995 89.8 66.3995 89.9 66.2995C89.9 66.1995 90 66.1995 90 66.0995C90 66.1995 90.1 66.1995 90.1 66.2995C90.2 66.3995 90.3 66.4995 90.3 66.6995C90.3 67.2995 90.3 67.7995 90.3 68.3995C90.3 68.5995 90.3 68.7995 90.3 68.9995C90.3 69.0995 90.4 69.4995 90.9 69.4995Z" fill="#2988FF"/>
<path d="M43.3 60.0996H47.1C47.5 60.0996 47.8 59.7996 47.8 59.3996V52.4996C47.8 52.0996 47.5 51.7996 47.1 51.7996H43.3C42.9 51.7996 42.6 52.0996 42.6 52.4996V59.3996C42.6 59.7996 42.9 60.0996 43.3 60.0996ZM44 53.1996H46.3V58.5996H44V53.1996Z" fill="#2988FF"/>
<path d="M35.8 83.2995C36.4 83.2995 36.8 82.8995 36.8 82.2995V76.4995C37 76.5995 37.2 76.5995 37.4 76.5995C42.7 76.5995 47.4 76.5995 50.7 76.5995C52.4 76.5995 53.7 76.5995 54.5 76.5995C57.1 76.5995 58.3 75.3995 58.3 72.7995V49.2995H59.5C60.6 49.2995 61.8 49.2995 62.9 49.2995C65 49.3995 65.8 48.2995 66.2 47.3995C66.8 46.0995 66.4 44.7995 65.2 43.6995C63.7 42.2995 55.4 34.4995 48.7 28.1995C44.4 24.0995 40.6 20.5995 39.7 19.7995C38.8 18.8995 37.8 18.5995 36.8 18.6995V11.9995C36.8 11.3995 36.4 10.9995 35.8 10.9995C35.2 10.9995 34.8 11.3995 34.8 11.9995V82.2995C34.8 82.7995 35.3 83.2995 35.8 83.2995ZM36.9 22.6995C37.9 23.5995 41.5 27.0995 45.8 31.0995C51.3 36.1995 57.7 42.2995 60.8 45.0995C60.3 45.0995 59.9 45.0995 59.4 45.0995H57.7C55.4 45.0995 54.1 46.3995 54.1 48.6995V72.2995C53.3 72.2995 52.1 72.2995 50.6 72.2995C47.3 72.2995 42.6 72.2995 37.4 72.2995C37.2 72.2995 37 72.2995 36.8 72.3995L36.9 22.6995C36.9 22.6995 36.8 22.6995 36.9 22.6995Z" fill="#2988FF"/>
<path d="M6.50001 49.1996C8.10001 49.1996 9.70001 49.1996 11.2 49.1996V72.6996C11.2 75.1996 12.4 76.4996 15 76.4996H31C32.1 76.4996 33.1 75.5996 33.1 74.3996C33.1 73.1996 32.2 72.2996 31 72.2996H15.3V48.6996C15.3 46.3996 14 45.0996 11.7 45.0996C10.7 45.0996 9.60001 45.0996 8.60001 45.0996C13.2 40.7996 25.6 29.1996 30.5 24.5996L32.5 22.6996C33.3 21.8996 33.4 20.5996 32.6 19.7996C31.8 18.9996 30.5 18.8996 29.7 19.6996L27.7 21.5996C22 26.8996 6.40001 41.5996 4.30001 43.5996C3.10001 44.7996 2.70001 45.9996 3.30001 47.3996C3.70001 48.1996 4.50001 49.1996 6.50001 49.1996Z" fill="#1C3553"/>
</svg>
