<svg width="96" height="96" viewBox="0 0 96 96" fill="none" xmlns="http://www.w3.org/2000/svg">
<path d="M48 45.1722C50.0389 45.1722 51.6699 43.5626 51.6699 41.5506C51.6699 39.5386 50.0389 37.929 48 37.929C45.9612 37.929 44.3301 39.5386 44.3301 41.5506C44.3301 43.5626 45.9612 45.1722 48 45.1722Z" fill="#2988FF"/>
<path d="M38.6214 50.001C38.6214 50.2022 38.2136 55.2323 38.4175 56.8419V64.2863C38.4175 65.0911 39.0292 65.8959 40.0486 65.8959C41.068 65.8959 41.6796 65.0911 41.6796 64.2863V53.8239C41.6796 52.0131 42.2913 51.6107 43.1068 51.8119V53.4215V70.1212C43.1068 70.5236 43.1068 71.1272 43.1068 71.3284C43.1068 74.3464 43.1068 77.5656 43.1068 80.5836C43.1068 80.986 43.1068 81.1872 43.3107 81.5896C43.3107 81.7908 43.5146 81.992 43.7185 82.1932L43.9224 82.3944C44.1262 82.5956 44.3301 82.5956 44.3301 82.7968C44.7379 82.998 45.3495 82.998 45.7573 82.7968C45.7573 82.7968 45.7573 82.7968 45.9612 82.7968L46.1651 82.5956C46.9806 82.1932 47.1845 81.1872 47.1845 80.1812C47.1845 75.3524 47.1845 70.7248 47.1845 65.8959V64.2863H48.8156V66.0971C48.8156 70.926 48.8156 75.5536 48.8156 80.3824C48.8156 81.3884 49.0194 82.1932 49.835 82.7968C49.835 82.7968 50.0389 82.7968 50.0389 82.998C50.0389 82.998 50.0389 82.998 50.2427 82.998C50.8544 83.1992 51.2622 83.1992 51.6699 82.998C51.8738 82.998 52.0777 82.7968 52.0777 82.5956L52.2816 82.3944C52.4855 82.1932 52.4855 81.992 52.6893 81.7908C52.6893 81.5896 52.8932 81.1872 52.8932 80.7848C52.8932 77.7668 52.8932 74.5476 52.8932 71.5296C52.8932 71.3284 52.8932 70.7248 52.8932 70.3224V53.6227V52.0131C53.5049 51.8119 54.3204 52.2143 54.3204 54.0251V64.2863C54.3204 65.0911 54.9321 65.8959 55.9515 65.8959C56.767 65.8959 57.5826 65.0911 57.5826 64.2863V56.6407C57.5826 55.0311 57.3787 50.001 57.3787 49.7998C56.5631 46.983 54.9321 46.1782 51.8738 46.1782C51.6699 46.1782 51.466 46.1782 51.466 46.1782C50.2427 46.1782 49.2233 46.1782 48 46.1782C46.7767 46.1782 45.7573 46.1782 44.534 46.1782C44.3301 46.1782 44.1262 46.1782 44.1262 46.1782C41.2719 46.3794 39.4369 47.1842 38.6214 50.001Z" fill="#2988FF"/>
<path d="M79.1942 46.3794C80.0097 44.3674 78.5825 42.959 78.1748 42.5566C76.7476 41.1482 69 33.905 62.068 27.6677L50.8544 17.2053C49.835 16.1992 48.8156 15.998 48 15.998C46.9806 15.998 45.9612 16.4004 45.1457 17.2053L32.7088 28.6737C26.1845 34.7098 19.2524 41.1482 17.8253 42.5566C17.4175 42.959 15.9903 44.3674 16.8058 46.3794C17.2136 47.1842 18.0291 48.3914 20.2719 48.3914H25.369V73.5416C25.369 76.1572 26.5923 77.3644 29.2427 77.3644H37.8058C39.0291 77.3644 39.8447 76.5596 39.8447 75.3524C39.8447 74.1452 39.0291 73.3404 37.8058 73.3404H29.2427V47.989C29.2427 45.5746 27.8156 44.3674 25.5728 44.3674H21.9029C24.5534 41.953 30.2622 36.7218 35.5631 31.6917L47.7961 20.0221L59.2136 30.6857C64.9224 35.917 71.2427 41.7518 74.0971 44.3674H70.4272C67.9806 44.3674 66.7573 45.7758 66.7573 47.989V73.3404H58.3981C57.1748 73.3404 56.3592 74.1452 56.3592 75.3524C56.3592 76.5596 57.1748 77.3644 58.3981 77.3644H66.9612C69.6117 77.3644 70.835 76.1572 70.835 73.5416V48.3914H75.9321C77.9709 48.3914 78.7864 47.3854 79.1942 46.3794Z" fill="#1C3553"/>
</svg>
