<svg width="96" height="97" viewBox="0 0 96 97" fill="none" xmlns="http://www.w3.org/2000/svg">
<path d="M67 52.9992C68.1 52.9992 69 52.0992 69 51.0992C69 50.0992 68.1 49.1992 67.1 49.1992C66 49.1992 65.1 50.0992 65.1 51.1992C65.1 52.0992 66 52.9992 67 52.9992Z" fill="#2988FF"/>
<path d="M88.9 61.0991C88.4 61.0991 87.8 61.0991 87.3 61.0991C86.5 61.0991 85.7 61.0991 84.8 61.0991C84.3 61.0991 84.1 60.7991 84 60.3991C83.6 58.7991 83.1 57.2991 82.7 55.6991C82.2 54.1991 81.4 53.5991 79.9 53.5991C78.6 53.5991 77.3 53.5991 76 53.5991C74.1 53.5991 73.4 54.1991 72.9 55.9991C72.8 56.4991 72.6 56.8991 72.5 57.3991C72.4 57.6991 72.3 57.8991 72.3 58.1991C72 57.5991 71.8 56.8991 71.6 56.2991C71.5 55.9991 71.4 55.7991 71.3 55.4991C70.9 54.1991 70 53.5991 68.7 53.5991C67.6 53.5991 66.5 53.5991 65.4 53.5991C64.1 53.5991 63.3 54.1991 62.8 55.3991C62.6 55.8991 62.5 56.2991 62.4 56.7991C62.4 56.8991 62.3 56.9991 62.3 57.0991V57.2991C61.9 58.4991 61.6 59.7991 61.2 60.9991C61.1 61.4991 61.2 61.9991 61.7 62.0991C62.3 62.2991 62.6 61.8991 62.8 61.3991C62.8 61.2991 62.8 61.2991 62.8 61.1991V61.0991C62.9 60.6991 63 60.2991 63.2 59.8991C63.5 58.8991 63.8 57.8991 64.1 56.8991C64.2 56.3991 64.4 56.1991 65 56.4991C64.3 59.4991 63.6 62.3991 62.8 65.4991H64.8V66.3991C64.8 67.0991 64.8 67.6991 64.8 68.3991C64.8 69.4991 64.8 70.4991 64.8 71.5991C64.8 72.4991 65.1 72.8991 65.8 72.8991C66.4 72.8991 66.8 72.3991 66.8 71.5991C66.8 70.9991 66.8 70.2991 66.8 69.6991C66.8 69.3991 66.8 69.0991 66.8 68.7991V65.5991H67.6V66.3991C67.6 66.8991 67.6 67.3991 67.6 67.8991C67.6 69.0991 67.6 70.3991 67.6 71.5991C67.6 72.4991 67.9 72.9991 68.6 72.9991C69.2 72.9991 69.5 72.4991 69.5 71.6991C69.5 70.8991 69.5 69.9991 69.5 69.1991C69.5 68.8991 69.5 68.4991 69.5 68.1991V65.5991H71.4L70.9 63.2991C70.4 61.0991 69.8 58.8991 69.3 56.6991C69.8 56.4991 70 56.5991 70.1 57.0991C70.3 57.9991 70.6 58.7991 70.8 59.6991C71 60.2991 71.2 60.9991 71.3 61.5991C71.4 62.0991 71.6 62.3991 72.2 62.4991C72.8 62.4991 73 62.0991 73.2 61.5991C73.4 60.9991 73.6 60.3991 73.7 59.7991C74 58.8991 74.2 57.9991 74.4 57.1991C74.5 56.6991 74.7 56.5991 75.2 56.7991V57.5991V66.9991C75.2 67.4991 75.2 67.8991 75.2 68.3991C75.2 69.4991 75.2 70.6991 75.2 71.7991C75.2 72.6991 75.9 73.2991 76.7 72.9991C77.4 72.7991 77.5 72.2991 77.5 71.6991C77.5 69.9991 77.5 68.3991 77.5 66.6991C77.5 65.8991 77.5 64.9991 77.5 64.1991V63.2991H78.3V67.0991C78.3 67.4991 78.3 67.8991 78.3 68.2991C78.3 69.3991 78.3 70.4991 78.3 71.6991C78.3 72.5991 78.7 73.0991 79.4 73.0991C80.1 73.0991 80.5 72.6991 80.6 71.6991C80.6 71.5991 80.6 71.3991 80.6 71.2991V71.1991V71.0991V57.2991V56.4991C81.1 56.2991 81.4 56.3991 81.5 56.8991C81.7 57.5991 81.9 58.2991 82.1 58.9991C82.3 59.6991 82.5 60.3991 82.7 60.9991C82.9 61.5991 83.2 61.9991 83.9 62.1991C84.3 62.2991 84.6 62.3991 85 62.4991C85.2 62.5991 85.4 62.5991 85.5 62.6991V63.5991C85.5 64.3991 85.5 65.0991 85.5 65.8991C85.5 67.8991 85.5 69.8991 85.5 71.8991C85.5 72.4991 85.6 72.9991 86.3 72.9991C87 72.9991 87.1 72.4991 87.1 71.8991C87.1 71.5991 87.1 71.1991 87.1 70.8991C87.1 70.0991 87.1 69.2991 87.1 68.4991C87.1 68.1991 87.3 67.4991 87.4 67.5991C87.9 67.6991 87.8 67.9991 87.7 68.2991C87.7 68.3991 87.7 68.4991 87.7 68.5991C87.7 69.5991 87.7 70.4991 87.7 71.4991C87.7 71.6991 87.7 71.9991 87.7 72.1991C87.7 72.6991 87.8 73.1991 88.5 73.1991C89.2 73.1991 89.3 72.7991 89.3 72.1991C89.3 72.0991 89.3 71.8991 89.3 71.7991V71.6991V71.5991C89.3 71.0991 89.3 70.5991 89.3 70.0991C89.3 68.0991 89.3 66.1991 89.3 64.1991C89.3 64.0991 89.4 63.9991 89.5 63.7991C89.5 63.6991 89.6 63.6991 89.6 63.5991C89.6 63.6991 89.7 63.6991 89.7 63.7991C89.8 63.8991 89.9 63.9991 89.9 64.1991C89.9 64.7991 89.9 65.2991 89.9 65.7991C89.9 65.9991 89.9 66.1991 89.9 66.3991C89.9 66.7991 90 67.1991 90.5 67.1991C91 67.1991 91.1 66.7991 91.1 66.3991C91.1 66.0991 91.1 65.8991 91.1 65.5991C91.1 64.8991 91.1 64.1991 91.1 63.4991C90.9 61.7991 90.3 61.0991 88.9 61.0991Z" fill="#2988FF"/>
<path d="M88.5 59.0991C88.5 58.3991 87.9 57.7991 87.2 57.7991C86.5 57.7991 85.8 58.3991 85.8 59.0991C85.8 59.7991 86.4 60.3991 87.2 60.3991C88 60.3991 88.5 59.7991 88.5 59.0991Z" fill="#2988FF"/>
<path d="M77.5 52.9992C78.6 52.9992 79.4 52.0992 79.4 51.0992C79.4 50.0992 78.5 49.1992 77.4 49.1992C76.3 49.1992 75.5 50.0992 75.5 51.1992C75.6 52.1992 76.5 52.9992 77.5 52.9992Z" fill="#2988FF"/>
<path d="M21.3 67.7992C21.3 66.9992 20.6 66.3992 19.9 66.3992C19.2 66.3992 18.6 66.9992 18.6 67.7992C18.6 68.5992 19.2 69.1992 20 69.1992C20.7 69.1992 21.3 68.4992 21.3 67.7992Z" fill="#2988FF"/>
<path d="M28.2 58.0991C27.1 58.0991 26.2 58.9991 26.2 60.0991C26.2 61.1991 27.1 61.9991 28.2 61.9991C29.3 61.9991 30.2 61.0991 30.2 59.9991C30.1 58.9991 29.2 58.0991 28.2 58.0991Z" fill="#2988FF"/>
<path d="M36.8 60.0992C36.8 61.1992 37.7 61.9992 38.8 61.9992C39.9 61.9992 40.8 61.0992 40.7 59.9992C40.7 58.8992 39.8 57.9992 38.7 58.0992C37.7 58.0992 36.8 58.9992 36.8 60.0992Z" fill="#2988FF"/>
<path d="M47.3 68.1991C47.3 68.9991 47.9 69.5991 48.7 69.5991C49.5 69.5991 50.1 68.9991 50.1 68.1991C50.1 67.4991 49.5 66.8991 48.8 66.7991C47.9 66.7991 47.3 67.4991 47.3 68.1991Z" fill="#2988FF"/>
<path d="M31.1 65.8992C31.5 67.3992 32 68.8992 32.4 70.4992C32.5 70.9992 32.7 71.3992 33.3 71.3992C33.9 71.3992 34.1 70.9992 34.3 70.4992C34.7 68.9992 35.2 67.4992 35.6 65.8992C35.7 65.3992 35.9 65.2992 36.4 65.4992V66.2992V75.8992C36.4 77.4992 36.4 79.1992 36.4 80.7992C36.4 81.7992 37.1 82.2992 37.9 82.0992C38.6 81.8992 38.7 81.2992 38.7 80.6992C38.7 78.1992 38.7 75.5992 38.7 73.0992V72.1992H39.5V76.0992C39.5 77.6992 39.5 79.1992 39.5 80.7992C39.5 81.6992 39.9 82.1992 40.6 82.1992C41.4 82.1992 41.8 81.6992 41.8 80.7992C41.8 80.5992 41.8 80.3992 41.8 80.1992V66.3992V65.5992C42.3 65.3992 42.6 65.4992 42.7 65.9992C43.1 67.3992 43.5 68.7992 43.8 70.1992C44 70.8992 44.3 71.2992 45 71.3992C45.6 71.4992 46.1 71.6992 46.7 71.8992V72.7992C46.7 75.5992 46.7 78.3992 46.7 81.1992C46.7 81.7992 46.8 82.2992 47.5 82.2992C48.2 82.2992 48.3 81.6992 48.3 81.1992C48.3 79.9992 48.3 78.8992 48.3 77.6992C48.3 77.4992 48.4 77.2992 48.4 77.0992C48.5 76.8992 48.5 76.6992 48.6 76.6992C49.2 76.7992 48.9 77.2992 48.9 77.5992C48.9 78.7992 48.9 79.9992 48.9 81.1992C48.9 81.6992 49 82.1992 49.7 82.1992C50.4 82.1992 50.5 81.7992 50.5 81.1992C50.5 80.9992 50.5 80.7992 50.5 80.4992C50.5 77.9992 50.5 75.4992 50.5 72.9992C50.5 72.7992 50.7 72.5992 50.8 72.3992C50.9 72.5992 51.1 72.7992 51.1 72.9992C51.1 73.7992 51.1 74.4992 51.1 75.2992C51.1 75.6992 51.2 76.0992 51.7 76.0992C52.2 76.0992 52.3 75.6992 52.3 75.2992C52.3 74.2992 52.3 73.2992 52.3 72.3992C52.3 70.9992 51.6 70.3992 50.3 70.3992C48.9 70.3992 47.5 70.2992 46.2 70.2992C45.7 70.2992 45.5 69.9992 45.4 69.5992C45 67.9992 44.5 66.3992 44 64.7992C43.5 63.2992 42.7 62.6992 41.1 62.6992C39.8 62.6992 38.5 62.6992 37.2 62.6992C35.3 62.6992 34.5 63.2992 34 65.0992C33.8 65.8992 33.6 66.5992 33.3 67.2992C32.9 66.3992 32.6 65.4992 32.3 64.5992C31.9 63.2992 31 62.6992 29.6 62.6992C28.5 62.6992 27.4 62.6992 26.3 62.6992C25 62.6992 24.1 63.2992 23.7 64.4992C23.5 65.0992 23.3 65.5992 23.2 66.1992C22.9 67.2992 22.6 68.3992 22.3 69.3992C22.2 69.6992 22 69.7992 21.6 69.7992C21.5 69.7992 21.3 69.7992 21.2 69.7992C21.2 69.7992 19.9 69.8992 19.2 69.8992C18.4 69.8992 17.8 70.2992 17.5 71.0992C17.4 71.4992 17.3 71.7992 17.2 72.1992C17 73.0992 16.7 73.8992 16.5 74.6992C16.4 74.9992 16.5 75.2992 16.8 75.3992C17.2 75.4992 17.4 75.2992 17.5 74.9992C17.5 74.8992 17.5 74.8992 17.5 74.7992C17.8 73.8992 18 72.9992 18.3 71.9992C18.4 71.6992 18.5 71.4992 18.9 71.6992C18.4 73.5992 18 75.4992 17.5 77.4992H18.8V78.0992C18.8 79.1992 18.8 80.2992 18.8 81.4992C18.8 82.0992 19 82.2992 19.4 82.2992C19.8 82.2992 20 81.9992 20 81.3992C20 80.7992 20 80.1992 20 79.5992V77.4992H20.5V77.9992C20.5 79.0992 20.5 80.1992 20.5 81.3992C20.5 81.9992 20.7 82.2992 21.1 82.2992C21.5 82.2992 21.7 81.9992 21.7 81.3992C21.7 80.5992 21.7 79.8992 21.7 79.1992V77.4992H22.9C22.4 75.4992 21.7 71.4992 21.7 71.1992C22 71.0992 22.4 70.9992 22.7 70.8992C23.4 70.6992 23.7 70.3992 23.9 69.6992C24 69.3992 24.1 69.0992 24.2 68.6992C24.5 67.7992 24.7 66.7992 25 65.8992C25.1 65.3992 25.3 65.1992 25.9 65.4992C25.2 68.4992 24.5 71.4992 23.7 74.5992H25.7V75.4992C25.7 77.2992 25.7 78.9992 25.7 80.7992C25.7 81.6992 26 82.0992 26.7 82.0992C27.3 82.0992 27.7 81.5992 27.7 80.7992C27.7 79.7992 27.7 78.8992 27.7 77.8992V74.6992H28.5V75.4992C28.5 77.2992 28.5 78.9992 28.5 80.7992C28.5 81.6992 28.9 82.1992 29.5 82.1992C30.1 82.1992 30.5 81.6992 30.5 80.8992C30.5 79.6992 30.5 78.4992 30.5 77.2992V74.6992H32.4C31.7 71.5992 30.9 68.5992 30.2 65.5992C30.8 65.3992 31 65.4992 31.1 65.8992Z" fill="#2988FF"/>
<path d="M20.4 45.8992C20 45.8992 19.7 46.1992 19.7 46.5992V52.7992C19.7 53.1992 20 53.4992 20.4 53.4992H23.7999C24.1999 53.4992 24.5 53.1992 24.5 52.7992V46.5992C24.5 46.1992 24.1999 45.8992 23.7999 45.8992H20.4ZM23 52.0992H21.1V47.3992H23V52.0992Z" fill="#1C3553"/>
<path d="M48.6 53.4992C49 53.4992 49.3 53.1992 49.3 52.7992V46.5992C49.3 46.1992 49 45.8992 48.6 45.8992H45.2C44.8 45.8992 44.5 46.1992 44.5 46.5992V52.7992C44.5 53.1992 44.8 53.4992 45.2 53.4992H48.6ZM46 47.3992H47.9V52.0992H46V47.3992Z" fill="#1C3553"/>
<path d="M32.1 52.7992C32.1 53.1992 32.4 53.4992 32.8 53.4992H36.2C36.6 53.4992 36.9 53.1992 36.9 52.7992V46.5992C36.9 46.1992 36.6 45.8992 36.2 45.8992H32.8C32.4 45.8992 32.1 46.1992 32.1 46.5992V52.7992ZM33.6 47.3992H35.5V52.0992H33.6V47.3992Z" fill="#1C3553"/>
<path d="M32.8 40.1991H36.2C36.6 40.1991 36.9 39.8991 36.9 39.4991V33.2991C36.9 32.8991 36.6 32.5991 36.2 32.5991H32.8C32.4 32.5991 32.1 32.8991 32.1 33.2991V39.4991C32.1 39.8991 32.4 40.1991 32.8 40.1991ZM33.6 33.9991H35.5V38.6991H33.6V33.9991Z" fill="#1C3553"/>
<path d="M5.69998 45.5992C6.99998 45.5992 7.69998 45.5992 8.59998 45.5992H9.69998V70.5992C9.69998 73.2992 11 74.4992 13.6 74.4992C14.7 74.4992 15.6 73.5992 15.6 72.4992C15.6 71.3992 14.7 70.4992 13.7 70.4992V45.2992C13.7 42.8992 12.4 41.5992 9.99998 41.5992H8.69998C8.19998 41.5992 7.79998 41.5992 7.29998 41.5992C11.5 37.6992 23.8 26.0992 30.4 19.8992L34.4 16.0992C34.4 16.0992 34.4 16.0992 34.5 15.9992H34.6C34.6 15.9992 34.6 15.9992 34.7 16.0992L40.3 21.3992C47.1 27.7992 58 37.9992 61.8 41.5992C61.3 41.5992 60.9 41.5992 60.4 41.5992H59C56.6 41.5992 55.3 42.8992 55.3 45.2992V70.4992C54.2 70.4992 53.4 71.3992 53.4 72.4992C53.4 73.5992 54.3 74.4992 55.4 74.4992C58.1 74.4992 59.3 73.2992 59.3 70.5992V45.5992H60.4C61.3 45.5992 62 45.5992 63.3 45.5992C65.4 45.5992 66.3 44.4992 66.7 43.5992C67.6 41.5992 66.1 40.1992 65.6 39.7992C63.5 37.8992 50.6 25.7992 42.9 18.4992L37.3 13.1992C37 12.7992 35.9 11.8992 34.5 11.9992C33 11.8992 32 12.7992 31.6 13.1992L27.6 16.9992C20.2 23.8992 5.49998 37.5992 3.29998 39.6992C2.79998 40.1992 1.39998 41.4992 2.19998 43.4992C2.69998 44.4992 3.59998 45.5992 5.69998 45.5992Z" fill="#1C3553"/>
</svg>
