<svg width="96" height="96" viewBox="0 0 96 96" fill="none" xmlns="http://www.w3.org/2000/svg">
<path d="M57.5002 58.0006C58.1002 58.0006 58.5002 57.5006 58.5002 57.0006V50.1006C58.5002 49.5006 58.0002 49.1006 57.5002 49.1006H53.7002C53.1002 49.1006 52.7002 49.6006 52.7002 50.1006V57.0006C52.7002 57.6006 53.2002 58.0006 53.7002 58.0006H57.5002ZM54.7002 51.1006H56.4002V55.9006H54.7002V51.1006Z" fill="#2988FF"/>
<path d="M43.5001 56.9005V50.0005C43.5001 49.4005 43.0001 49.0005 42.5001 49.0005H38.6001C38.0001 49.0005 37.6001 49.5005 37.6001 50.0005V56.9005C37.6001 57.5005 38.1001 57.9005 38.6001 57.9005H42.4001C43.0001 58.0005 43.5001 57.5005 43.5001 56.9005ZM41.4001 55.9005H39.7001V51.1005H41.4001V55.9005Z" fill="#2988FF"/>
<path d="M50.8002 20.1005C49.9002 19.3005 49.0002 18.9005 48.1002 19.0005C47.2002 18.9005 46.2002 19.3005 45.4002 20.1005L38.6002 26.4005C31.6002 33.0005 21.6002 42.4005 19.9002 44.0005C18.7002 45.2005 18.3002 46.4005 18.9002 47.7005C19.3002 48.6005 20.1002 49.6005 22.1002 49.6005C23.7002 49.6005 25.2002 49.6005 26.8002 49.6005V73.1005C26.8002 75.6005 28.0002 76.8005 30.5002 76.8005C32.6002 76.8005 40.3002 76.8005 48.0002 76.8005C55.7002 76.8005 63.4002 76.8005 65.5002 76.8005C68.0002 76.8005 69.2002 75.6005 69.2002 73.1005V49.6005C70.8002 49.6005 72.3002 49.6005 73.9002 49.6005C75.9002 49.6005 76.7002 48.6005 77.1002 47.7005C77.7002 46.4005 77.3002 45.2005 76.1002 44.0005C74.4002 42.4005 64.2002 32.9005 57.2002 26.3005L50.8002 20.1005ZM68.8002 45.6005C66.5002 45.6005 65.3002 46.9005 65.3002 49.2005V72.9005C60.4002 72.9005 35.6002 72.9005 30.8002 72.9005V49.2005C30.8002 47.0005 29.5002 45.7005 27.3002 45.6005C26.2002 45.6005 25.2002 45.6005 24.1002 45.6005C27.5002 42.4005 35.5002 34.9005 41.4002 29.4005L48.0002 23.0005L54.5002 29.1005C60.4002 34.6005 68.5002 42.3005 72.0002 45.5005C71.0002 45.6005 69.9002 45.6005 68.8002 45.6005Z" fill="#1C3553"/>
</svg>
