<svg width="96" height="96" viewBox="0 0 96 96" fill="none" xmlns="http://www.w3.org/2000/svg">
<path fill-rule="evenodd" clip-rule="evenodd" d="M41.3979 25.3148C41.3979 24.316 42.2076 23.5063 43.2064 23.5063H79.7664C80.7652 23.5063 81.5749 24.316 81.5749 25.3148V30.0828C81.5749 31.0816 80.7652 31.8913 79.7664 31.8913C78.7676 31.8913 77.9579 31.0816 77.9579 30.0828V27.1233H45.0149V70.4209H77.9579V62.7655C77.9579 61.7667 78.7676 60.957 79.7664 60.957C80.7652 60.957 81.5749 61.7667 81.5749 62.7655V72.2294C81.5749 73.2282 80.7652 74.0379 79.7664 74.0379H43.2064C42.2076 74.0379 41.3979 73.2282 41.3979 72.2294V25.3148Z" fill="#1C3553"/>
<path fill-rule="evenodd" clip-rule="evenodd" d="M52.7973 36.0728V41.1328H50.7373V36.0728H52.7973ZM53.2673 34.6028C53.8196 34.6028 54.2673 35.0505 54.2673 35.6028V41.6028C54.2673 42.1551 53.8196 42.6028 53.2673 42.6028H50.2673C49.715 42.6028 49.2673 42.1551 49.2673 41.6028V35.6028C49.2673 35.0505 49.715 34.6028 50.2673 34.6028H53.2673Z" fill="#1C3553"/>
<path fill-rule="evenodd" clip-rule="evenodd" d="M52.7973 50.0728V55.1328H50.7373V50.0728H52.7973ZM53.2673 48.6028C53.8196 48.6028 54.2673 49.0505 54.2673 49.6028V55.6028C54.2673 56.1551 53.8196 56.6028 53.2673 56.6028H50.2673C49.715 56.6028 49.2673 56.1551 49.2673 55.6028V49.6028C49.2673 49.0505 49.715 48.6028 50.2673 48.6028H53.2673Z" fill="#1C3553"/>
<path fill-rule="evenodd" clip-rule="evenodd" d="M30.4624 20.0836C29.4245 21.0485 26.266 23.9817 22.493 27.4857C16.5207 33.032 9.00867 40.0083 5.92949 42.8719C7.15025 42.8688 8.36944 42.8715 9.5868 42.8771C10.2919 42.8802 11.3313 42.9845 12.122 43.7708C12.9183 44.5626 13.0202 45.6046 13.0202 46.3058M4.16595 42.8708C4.16595 42.8708 4.16654 42.8709 4.1677 42.8711L4.16595 42.8708ZM30.4624 20.0836C31.5177 21.0622 32.8188 22.2566 33.8767 23.225C34.4381 23.7389 34.9317 24.19 35.2851 24.5126L35.8514 25.0292C36.6127 25.723 37.7929 25.6688 38.4867 24.9075C39.1805 24.1462 39.1257 22.9666 38.3644 22.2728L37.8 21.7579C37.4476 21.4362 36.9552 20.9863 36.3954 20.4738C35.275 19.4481 33.8879 18.1747 32.8126 17.176C32.3241 16.7222 31.5202 16.0866 30.416 16.1077C29.3406 16.1283 28.5529 16.7662 28.0698 17.215C27.2227 18.0028 23.9394 21.052 19.9736 24.735C12.9816 31.2283 3.86588 39.6939 2.22823 41.2212C2.22199 41.227 2.21515 41.2334 2.20837 41.2397C2.00695 41.4272 1.57227 41.832 1.29441 42.388C0.933909 43.1094 0.887248 43.9489 1.24916 44.7804C1.57836 45.5358 2.14157 46.0636 2.82991 46.3469C3.4285 46.5932 4.02172 46.6114 4.38746 46.609C6.01984 46.5977 7.65375 46.5989 9.29023 46.6058C9.29119 54.5487 9.29119 62.4907 9.29119 70.4338C9.29119 71.0986 9.32198 72.2959 10.2058 73.1524C11.0678 73.9879 12.2529 74.0153 12.9269 74.0158C15.8491 74.0163 21.9925 74.0163 27.4042 74.0162L37.4964 74.0158C37.4966 74.0158 37.4973 74.0158 37.4972 72.1508L37.4964 74.0158C38.5264 74.0157 39.3622 73.1807 39.3622 72.1507C39.3621 71.1207 38.5271 70.2857 37.4971 70.2858L37.4972 72.147C37.4971 70.2858 37.4972 70.2858 37.4971 70.2858L27.4042 70.2862C22.0489 70.2863 15.9786 70.2863 13.0212 70.2858C13.0212 62.2923 13.0212 54.2995 13.0202 46.3058" fill="#1C3553"/>
<path fill-rule="evenodd" clip-rule="evenodd" d="M18.147 47.684C18.147 47.278 18.4761 46.949 18.882 46.949H22.661C23.0669 46.949 23.396 47.278 23.396 47.684V54.309C23.396 54.7149 23.0669 55.044 22.661 55.044H18.882C18.4761 55.044 18.147 54.7149 18.147 54.309V47.684ZM19.617 48.419V53.574H21.926V48.419H19.617Z" fill="#1C3553"/>
<path fill-rule="evenodd" clip-rule="evenodd" d="M31.9315 47.6835C31.9315 47.2776 32.2606 46.9485 32.6665 46.9485H35.0025C35.4084 46.9485 35.7375 47.2776 35.7375 47.6835C35.7375 48.0894 35.4084 48.4185 35.0025 48.4185H33.4015V53.5735H35.0025C35.4084 53.5735 35.7375 53.9026 35.7375 54.3085C35.7375 54.7144 35.4084 55.0435 35.0025 55.0435H32.6665C32.2606 55.0435 31.9315 54.7144 31.9315 54.3085V47.6835Z" fill="#1C3553"/>
<path fill-rule="evenodd" clip-rule="evenodd" d="M81.822 20.118C81.822 19.317 81.198 18.668 80.427 18.668H51.867C51.905 17.368 51.912 17.362 51.871 16.063C51.856 15.566 51.3 15.193 50.539 15.056C50.532 15.055 50.526 15.055 50.519 15.054C50.46 15.043 50.401 15.034 50.341 15.028C50.337 15.027 50.334 15.027 50.33 15.026C50.264 15.018 50.2 15.013 50.132 15.008H50.126C50.065 15.004 50.002 15.002 49.94 15.002C49.931 15.001 49.922 15.001 49.912 15C49.9 15 49.889 15.001 49.877 15.001C49.858 15.001 49.839 15 49.818 15C49.803 15.001 49.789 15.002 49.773 15.003C48.678 15.026 47.894 15.485 47.864 16.169C47.835 16.847 47.85 18.083 47.859 18.668H42.546C41.776 18.668 41.151 19.317 41.151 20.118C41.151 20.919 41.776 21.568 42.546 21.568H80.427C81.198 21.568 81.822 20.919 81.822 20.118Z" fill="#1C3553"/>
<path fill-rule="evenodd" clip-rule="evenodd" d="M11.8002 29.4373C11.8002 29.4373 11.7882 25.1403 11.7922 21.9713C11.7942 21.1143 12.1402 20.7733 13.0122 20.7693C14.3172 20.7613 15.6212 20.7603 16.9262 20.7693C17.7812 20.7753 18.1322 21.1363 18.1392 21.9923C18.1442 22.7283 18.1232 22.6903 18.1472 23.4253L11.8002 29.4373Z" fill="#1C3553"/>
<path fill-rule="evenodd" clip-rule="evenodd" d="M68.0357 31.8441C75.5277 30.2513 82.892 35.0341 84.4847 42.5258L84.4848 42.526C86.0763 50.0167 81.2948 57.381 73.8029 58.9737C66.311 60.5664 58.9466 55.7839 57.3549 48.292M68.7409 35.1609C63.0816 36.3642 59.4685 41.9279 60.6717 47.5867L60.6718 47.587C61.8742 53.2468 67.4377 56.8601 73.0977 55.6568C78.7577 54.4536 82.3701 48.8901 81.1679 43.231M68.7409 35.1609C74.4008 33.9577 79.9644 37.5708 81.1678 43.2308L68.7409 35.1609ZM68.0357 31.8441L68.0357 31.8441L68.0357 31.8441ZM68.0357 31.8441C60.545 33.4367 55.7622 40.8007 57.3548 48.2917L68.0357 31.8441Z" fill="#2988FF"/>
<path fill-rule="evenodd" clip-rule="evenodd" d="M94.2584 64.3302C94.1604 64.2422 86.5064 57.2613 83.2884 54.3263L83.2784 54.2913C83.2784 54.2913 82.3534 53.4593 81.0554 52.2783C80.2754 53.4093 79.2444 54.3393 78.1804 55.2493C80.2814 57.1663 82.5384 59.2253 83.9464 60.5092L83.9564 60.5442C83.9564 60.5442 91.2424 67.1802 91.3664 67.2912C92.2124 68.0472 93.5454 67.9982 94.3444 67.1802C95.1434 66.3622 95.1044 65.0862 94.2584 64.3302Z" fill="#2988FF"/>
<path fill-rule="evenodd" clip-rule="evenodd" d="M94.2584 64.3302C94.1604 64.2422 86.5064 57.2613 83.2884 54.3263L83.2784 54.2913C83.2784 54.2913 82.3534 53.4593 81.0554 52.2783C80.2754 53.4093 79.2444 54.3393 78.1804 55.2493C80.2814 57.1663 82.5384 59.2253 83.9464 60.5092L83.9564 60.5442C83.9564 60.5442 91.2424 67.1802 91.3664 67.2912C92.2124 68.0472 93.5454 67.9982 94.3444 67.1802C95.1434 66.3622 95.1044 65.0862 94.2584 64.3302Z" fill="#2988FF"/>
<path fill-rule="evenodd" clip-rule="evenodd" d="M80.9377 51.2541C81.2333 51.2201 81.5291 51.3155 81.7492 51.5157C82.3972 52.1053 82.9521 52.6078 83.3449 52.9628C83.5413 53.1403 83.6972 53.2809 83.8039 53.3771L83.9672 53.5242C84.0186 53.5704 84.0655 53.6219 84.1063 53.6768L94.9212 63.5395C94.9402 63.5567 94.9473 63.5632 94.9472 63.5631L94.2585 64.3301L94.9454 63.5614C96.2347 64.7136 96.2863 66.6676 95.0819 67.9006C93.9017 69.1089 91.9412 69.1875 90.6794 68.0599C90.613 68.0005 88.7537 66.3075 86.9207 64.6384L83.2625 61.3068C83.2624 61.3067 83.2622 61.3065 83.9564 60.5442L83.2625 61.3068C83.2131 61.2618 83.168 61.2119 83.1285 61.1587C81.7143 59.869 79.5263 57.873 77.4855 56.0109C77.2671 55.8117 77.1448 55.5283 77.1495 55.2327C77.1543 54.9372 77.2856 54.6579 77.5103 54.4658C78.5729 53.557 79.5104 52.7026 80.2067 51.693C80.3756 51.448 80.6421 51.288 80.9377 51.2541ZM92.0473 66.5169L84.7739 59.8943L92.0473 66.5169ZM84.7739 59.8943C84.7346 59.8414 84.6902 59.7922 84.6411 59.7474C83.4221 58.6358 81.5667 56.9432 79.727 55.2648C80.2305 54.8082 80.7278 54.3218 81.186 53.7898C81.4855 54.0613 81.7479 54.2988 81.9624 54.4926C82.1595 54.6707 82.316 54.8119 82.4233 54.9086L82.4637 54.9451C82.5023 54.9965 82.5457 55.0444 82.5936 55.0881L83.3375 55.7665C86.8528 58.9726 93.4748 65.0122 93.5696 65.0973L93.5714 65.099C93.974 65.4588 94.0005 66.0567 93.6068 66.4598C93.1892 66.8873 92.4841 66.9068 92.0538 66.5228" fill="#2988FF"/>
</svg>
