<svg width="96" height="96" viewBox="0 0 96 96" fill="none" xmlns="http://www.w3.org/2000/svg">
<path fill-rule="evenodd" clip-rule="evenodd" d="M18.0358 30.6407C18.5718 30.0232 19.5199 29.3168 20.9092 29.3168H74.313C75.7023 29.3168 76.6504 30.0232 77.1864 30.6407C77.4482 30.9423 77.6277 31.2368 77.7431 31.4557C77.8019 31.5673 77.8471 31.6652 77.8804 31.7426C77.8971 31.7816 77.911 31.8158 77.9223 31.8447L77.9373 31.884L77.9434 31.9006L77.9462 31.9081L77.9474 31.9116C77.9475 31.9119 77.9483 31.914 77.8433 31.9517L77.9484 31.9142L82.9858 46.0242C83.2044 46.6367 83.1116 47.3173 82.737 47.8489C82.3623 48.3804 81.7526 48.6967 81.1022 48.6967H78.9051V71.0568C78.9051 72.1614 78.0097 73.0568 76.9051 73.0568H18.3171C17.2125 73.0568 16.3171 72.1614 16.3171 71.0568V48.6967H14.12C13.4696 48.6967 12.8599 48.3804 12.4852 47.8489C12.1106 47.3173 12.0178 46.6367 12.2364 46.0242L17.2738 31.9142L17.3787 31.9516C17.2739 31.914 17.2737 31.9145 17.2738 31.9142L17.2748 31.9116L17.2761 31.9081L17.2788 31.9006L17.2849 31.884L17.2999 31.8447C17.3112 31.8158 17.3251 31.7816 17.3418 31.7426C17.3751 31.6652 17.4203 31.5673 17.4791 31.4557C17.5945 31.2368 17.774 30.9423 18.0358 30.6407ZM21.0203 33.3168L16.9576 44.6967H18.3171C19.4216 44.6967 20.317 45.5921 20.317 46.6967V69.0568H74.9052V46.6967C74.9052 45.5921 75.8006 44.6967 76.9051 44.6967H78.2646L74.2019 33.3168H21.0203Z" fill="#1C3553"/>
<path fill-rule="evenodd" clip-rule="evenodd" d="M33.8058 29.3299H62.0055V73.0099H33.8058V29.3299ZM37.7458 33.2699V69.0699H58.0656V33.2699H37.7458Z" fill="#2988FF"/>
<path d="M49.9995 27C49.9995 26.4477 50.4472 26 50.9995 26H54.9994C55.5517 26 55.9994 26.4477 55.9994 27V30.9999C55.9994 31.5522 55.5517 31.9999 54.9994 31.9999H50.9995C50.4472 31.9999 49.9995 31.5522 49.9995 30.9999V27Z" fill="#2988FF"/>
<path fill-rule="evenodd" clip-rule="evenodd" d="M40.5098 47.7379C40.5098 47.1856 40.9576 46.7379 41.5098 46.7379H45.0982C45.6505 46.7379 46.0982 47.1856 46.0982 47.7379V54.6389C46.0982 55.1911 45.6505 55.6388 45.0982 55.6388H41.5098C40.9576 55.6388 40.5098 55.1911 40.5098 54.6389V47.7379ZM42.5098 48.7379V53.6389H44.0983V48.7379H42.5098Z" fill="#2988FF"/>
<path fill-rule="evenodd" clip-rule="evenodd" d="M49.8139 47.7379C49.8139 47.1856 50.2617 46.7379 50.8139 46.7379H54.4024C54.9546 46.7379 55.4023 47.1856 55.4023 47.7379V54.6389C55.4023 55.1911 54.9546 55.6388 54.4024 55.6388H50.8139C50.2617 55.6388 49.8139 55.1911 49.8139 54.6389V47.7379ZM51.8139 48.7379V53.6389H53.4024V48.7379H51.8139Z" fill="#2988FF"/>
</svg>
