<svg width="96" height="97" viewBox="0 0 96 97" fill="none" xmlns="http://www.w3.org/2000/svg">
<path d="M67.0001 52.9993C68.1001 52.9993 69.0001 52.0993 69.0001 51.0993C69.0001 50.0993 68.1001 49.1993 67.1001 49.1993C66.0001 49.1993 65.1001 50.0993 65.1001 51.1993C65.1001 52.0993 66.0001 52.9993 67.0001 52.9993Z" fill="#2988FF"/>
<path d="M88.8999 61.0992C88.3999 61.0992 87.7999 61.0992 87.2999 61.0992C86.4999 61.0992 85.6999 61.0992 84.7999 61.0992C84.2999 61.0992 84.0999 60.7992 83.9999 60.3992C83.5999 58.7992 83.0999 57.2992 82.6999 55.6992C82.1999 54.1992 81.3999 53.5992 79.8999 53.5992C78.5999 53.5992 77.2999 53.5992 75.9999 53.5992C74.0999 53.5992 73.3999 54.1992 72.8999 55.9992C72.7999 56.4992 72.5999 56.8992 72.4999 57.3992C72.3999 57.6992 72.2999 57.8992 72.2999 58.1992C71.9999 57.5992 71.7999 56.8992 71.5999 56.2992C71.4999 55.9992 71.3999 55.7992 71.2999 55.4992C70.8999 54.1992 69.9999 53.5992 68.6999 53.5992C67.5999 53.5992 66.4999 53.5992 65.3999 53.5992C64.0999 53.5992 63.2999 54.1992 62.7999 55.3992C62.5999 55.8992 62.4999 56.2992 62.3999 56.7992C62.3999 56.8992 62.2999 56.9992 62.2999 57.0992V57.2992C61.8999 58.4992 61.5999 59.7992 61.1999 60.9992C61.0999 61.4992 61.1999 61.9992 61.6999 62.0992C62.2999 62.2992 62.5999 61.8992 62.7999 61.3992C62.7999 61.2992 62.7999 61.2992 62.7999 61.1992V61.0992C62.8999 60.6992 62.9999 60.2992 63.1999 59.8992C63.4999 58.8992 63.7999 57.8992 64.0999 56.8992C64.1999 56.3992 64.3999 56.1992 64.9999 56.4992C64.2999 59.4992 63.5999 62.3992 62.7999 65.4992H64.7999V66.3992C64.7999 67.0992 64.7999 67.6992 64.7999 68.3992C64.7999 69.4992 64.7999 70.4992 64.7999 71.5992C64.7999 72.4992 65.0999 72.8992 65.7999 72.8992C66.3999 72.8992 66.7999 72.3992 66.7999 71.5992C66.7999 70.9992 66.7999 70.2992 66.7999 69.6992C66.7999 69.3992 66.7999 69.0992 66.7999 68.7992V65.5992H67.5999V66.3992C67.5999 66.8992 67.5999 67.3992 67.5999 67.8992C67.5999 69.0992 67.5999 70.3992 67.5999 71.5992C67.5999 72.4992 67.8999 72.9992 68.5999 72.9992C69.1999 72.9992 69.4999 72.4992 69.4999 71.6992C69.4999 70.8992 69.4999 69.9992 69.4999 69.1992C69.4999 68.8992 69.4999 68.4992 69.4999 68.1992V65.5992H71.3999L70.8999 63.2992C70.3999 61.0992 69.7999 58.8992 69.2999 56.6992C69.7999 56.4992 69.9999 56.5992 70.0999 57.0992C70.2999 57.9992 70.5999 58.7992 70.7999 59.6992C70.9999 60.2992 71.1999 60.9992 71.2999 61.5992C71.3999 62.0992 71.5999 62.3992 72.1999 62.4992C72.7999 62.4992 72.9999 62.0992 73.1999 61.5992C73.3999 60.9992 73.5999 60.3992 73.6999 59.7992C73.9999 58.8992 74.1999 57.9992 74.3999 57.1992C74.4999 56.6992 74.6999 56.5992 75.1999 56.7992V57.5992V66.9992C75.1999 67.4992 75.1999 67.8992 75.1999 68.3992C75.1999 69.4992 75.1999 70.6992 75.1999 71.7992C75.1999 72.6992 75.8999 73.2992 76.6999 72.9992C77.3999 72.7992 77.4999 72.2992 77.4999 71.6992C77.4999 69.9992 77.4999 68.3992 77.4999 66.6992C77.4999 65.8992 77.4999 64.9992 77.4999 64.1992V63.2992H78.2999V67.0992C78.2999 67.4992 78.2999 67.8992 78.2999 68.2992C78.2999 69.3992 78.2999 70.4992 78.2999 71.6992C78.2999 72.5992 78.6999 73.0992 79.3999 73.0992C80.0999 73.0992 80.4999 72.6992 80.5999 71.6992C80.5999 71.5992 80.5999 71.3992 80.5999 71.2992V71.1992V71.0992V57.2992V56.4992C81.0999 56.2992 81.3999 56.3992 81.4999 56.8992C81.6999 57.5992 81.8999 58.2992 82.0999 58.9992C82.2999 59.6992 82.4999 60.3992 82.6999 60.9992C82.8999 61.5992 83.1999 61.9992 83.8999 62.1992C84.2999 62.2992 84.5999 62.3992 84.9999 62.4992C85.1999 62.5992 85.3999 62.5992 85.4999 62.6992V63.5992C85.4999 64.3992 85.4999 65.0992 85.4999 65.8992C85.4999 67.8992 85.4999 69.8992 85.4999 71.8992C85.4999 72.4992 85.5999 72.9992 86.2999 72.9992C86.9999 72.9992 87.0999 72.4992 87.0999 71.8992C87.0999 71.5992 87.0999 71.1992 87.0999 70.8992C87.0999 70.0992 87.0999 69.2992 87.0999 68.4992C87.0999 68.1992 87.2999 67.4992 87.3999 67.5992C87.8999 67.6992 87.7999 67.9992 87.6999 68.2992C87.6999 68.3992 87.6999 68.4992 87.6999 68.5992C87.6999 69.5992 87.6999 70.4992 87.6999 71.4992C87.6999 71.6992 87.6999 71.9992 87.6999 72.1992C87.6999 72.6992 87.7999 73.1992 88.4999 73.1992C89.1999 73.1992 89.2999 72.7992 89.2999 72.1992C89.2999 72.0992 89.2999 71.8992 89.2999 71.7992V71.6992V71.5992C89.2999 71.0992 89.2999 70.5992 89.2999 70.0992C89.2999 68.0992 89.2999 66.1992 89.2999 64.1992C89.2999 64.0992 89.3999 63.9992 89.4999 63.7992C89.4999 63.6992 89.5999 63.6992 89.5999 63.5992C89.5999 63.6992 89.6999 63.6992 89.6999 63.7992C89.7999 63.8992 89.8999 63.9992 89.8999 64.1992C89.8999 64.7992 89.8999 65.2992 89.8999 65.7992C89.8999 65.9992 89.8999 66.1992 89.8999 66.3992C89.8999 66.7992 89.9999 67.1992 90.4999 67.1992C90.9999 67.1992 91.0999 66.7992 91.0999 66.3992C91.0999 66.0992 91.0999 65.8992 91.0999 65.5992C91.0999 64.8992 91.0999 64.1992 91.0999 63.4992C90.8999 61.7992 90.2999 61.0992 88.8999 61.0992Z" fill="#2988FF"/>
<path d="M88.4998 59.0992C88.4998 58.3992 87.8998 57.7992 87.1998 57.7992C86.4998 57.7992 85.7998 58.3992 85.7998 59.0992C85.7998 59.7992 86.3998 60.3992 87.1998 60.3992C87.9998 60.3992 88.4998 59.7992 88.4998 59.0992Z" fill="#2988FF"/>
<path d="M77.5 52.9993C78.6 52.9993 79.4 52.0993 79.4 51.0993C79.4 50.0993 78.5 49.1993 77.4 49.1993C76.3 49.1993 75.5 50.0993 75.5 51.1993C75.6 52.1993 76.5 52.9993 77.5 52.9993Z" fill="#2988FF"/>
<path d="M21.3001 67.7993C21.3001 66.9993 20.6001 66.3993 19.9001 66.3993C19.2001 66.3993 18.6001 66.9993 18.6001 67.7993C18.6001 68.5993 19.2001 69.1993 20.0001 69.1993C20.7001 69.1993 21.3001 68.4993 21.3001 67.7993Z" fill="#2988FF"/>
<path d="M28.1997 58.0992C27.0997 58.0992 26.1997 58.9992 26.1997 60.0992C26.1997 61.1992 27.0997 61.9992 28.1997 61.9992C29.2997 61.9992 30.1997 61.0992 30.1997 59.9992C30.0997 58.9992 29.1997 58.0992 28.1997 58.0992Z" fill="#2988FF"/>
<path d="M36.7998 60.0993C36.7998 61.1993 37.6998 61.9993 38.7998 61.9993C39.8998 61.9993 40.7998 61.0993 40.6998 59.9993C40.6998 58.8993 39.7998 57.9993 38.6998 58.0993C37.6998 58.0993 36.7998 58.9993 36.7998 60.0993Z" fill="#2988FF"/>
<path d="M47.2998 68.1992C47.2998 68.9992 47.8998 69.5992 48.6998 69.5992C49.4998 69.5992 50.0998 68.9992 50.0998 68.1992C50.0998 67.4992 49.4998 66.8992 48.7998 66.7992C47.8998 66.7992 47.2998 67.4992 47.2998 68.1992Z" fill="#2988FF"/>
<path d="M31.0999 65.8993C31.4999 67.3993 31.9999 68.8993 32.3999 70.4993C32.4999 70.9993 32.6999 71.3993 33.2999 71.3993C33.8999 71.3993 34.0999 70.9993 34.2999 70.4993C34.6999 68.9993 35.1999 67.4993 35.5999 65.8993C35.6999 65.3993 35.8999 65.2993 36.3999 65.4993V66.2993V75.8993C36.3999 77.4993 36.3999 79.1993 36.3999 80.7993C36.3999 81.7993 37.0999 82.2993 37.8999 82.0993C38.5999 81.8993 38.6999 81.2993 38.6999 80.6993C38.6999 78.1993 38.6999 75.5993 38.6999 73.0993V72.1993H39.4999V76.0993C39.4999 77.6993 39.4999 79.1993 39.4999 80.7993C39.4999 81.6993 39.8999 82.1993 40.5999 82.1993C41.3999 82.1993 41.7999 81.6993 41.7999 80.7993C41.7999 80.5993 41.7999 80.3993 41.7999 80.1993V66.3993V65.5993C42.2999 65.3993 42.5999 65.4993 42.6999 65.9993C43.0999 67.3993 43.4999 68.7993 43.7999 70.1993C43.9999 70.8993 44.2999 71.2993 44.9999 71.3993C45.5999 71.4993 46.0999 71.6993 46.6999 71.8993V72.7993C46.6999 75.5993 46.6999 78.3993 46.6999 81.1993C46.6999 81.7993 46.7999 82.2993 47.4999 82.2993C48.1999 82.2993 48.2999 81.6993 48.2999 81.1993C48.2999 79.9993 48.2999 78.8993 48.2999 77.6993C48.2999 77.4993 48.3999 77.2993 48.3999 77.0993C48.4999 76.8993 48.4999 76.6993 48.5999 76.6993C49.1999 76.7993 48.8999 77.2993 48.8999 77.5993C48.8999 78.7993 48.8999 79.9993 48.8999 81.1993C48.8999 81.6993 48.9999 82.1993 49.6999 82.1993C50.3999 82.1993 50.4999 81.7993 50.4999 81.1993C50.4999 80.9993 50.4999 80.7993 50.4999 80.4993C50.4999 77.9993 50.4999 75.4993 50.4999 72.9993C50.4999 72.7993 50.6999 72.5993 50.7999 72.3993C50.8999 72.5993 51.0999 72.7993 51.0999 72.9993C51.0999 73.7993 51.0999 74.4993 51.0999 75.2993C51.0999 75.6993 51.1999 76.0993 51.6999 76.0993C52.1999 76.0993 52.2999 75.6993 52.2999 75.2993C52.2999 74.2993 52.2999 73.2993 52.2999 72.3993C52.2999 70.9993 51.5999 70.3993 50.2999 70.3993C48.8999 70.3993 47.4999 70.2993 46.1999 70.2993C45.6999 70.2993 45.4999 69.9993 45.3999 69.5993C44.9999 67.9993 44.4999 66.3993 43.9999 64.7993C43.4999 63.2993 42.6999 62.6993 41.0999 62.6993C39.7999 62.6993 38.4999 62.6993 37.1999 62.6993C35.2999 62.6993 34.4999 63.2993 33.9999 65.0993C33.7999 65.8993 33.5999 66.5993 33.2999 67.2993C32.8999 66.3993 32.5999 65.4993 32.2999 64.5993C31.8999 63.2993 30.9999 62.6993 29.5999 62.6993C28.4999 62.6993 27.3999 62.6993 26.2999 62.6993C24.9999 62.6993 24.0999 63.2993 23.6999 64.4993C23.4999 65.0993 23.2999 65.5993 23.1999 66.1993C22.8999 67.2993 22.5999 68.3993 22.2999 69.3993C22.1999 69.6993 21.9999 69.7993 21.5999 69.7993C21.4999 69.7993 21.2999 69.7993 21.1999 69.7993C21.1999 69.7993 19.8999 69.8993 19.1999 69.8993C18.3999 69.8993 17.7999 70.2993 17.4999 71.0993C17.3999 71.4993 17.2999 71.7993 17.1999 72.1993C16.9999 73.0993 16.6999 73.8993 16.4999 74.6993C16.3999 74.9993 16.4999 75.2993 16.7999 75.3993C17.1999 75.4993 17.3999 75.2993 17.4999 74.9993C17.4999 74.8993 17.4999 74.8993 17.4999 74.7993C17.7999 73.8993 17.9999 72.9993 18.2999 71.9993C18.3999 71.6993 18.4999 71.4993 18.8999 71.6993C18.3999 73.5993 17.9999 75.4993 17.4999 77.4993H18.7999V78.0993C18.7999 79.1993 18.7999 80.2993 18.7999 81.4993C18.7999 82.0993 18.9999 82.2993 19.3999 82.2993C19.7999 82.2993 19.9999 81.9993 19.9999 81.3993C19.9999 80.7993 19.9999 80.1993 19.9999 79.5993V77.4993H20.4999V77.9993C20.4999 79.0993 20.4999 80.1993 20.4999 81.3993C20.4999 81.9993 20.6999 82.2993 21.0999 82.2993C21.4999 82.2993 21.6999 81.9993 21.6999 81.3993C21.6999 80.5993 21.6999 79.8993 21.6999 79.1993V77.4993H22.8999C22.3999 75.4993 21.6999 71.4993 21.6999 71.1993C21.9999 71.0993 22.3999 70.9993 22.6999 70.8993C23.3999 70.6993 23.6999 70.3993 23.8999 69.6993C23.9999 69.3993 24.0999 69.0993 24.1999 68.6993C24.4999 67.7993 24.6999 66.7993 24.9999 65.8993C25.0999 65.3993 25.2999 65.1993 25.8999 65.4993C25.1999 68.4993 24.4999 71.4993 23.6999 74.5993H25.6999V75.4993C25.6999 77.2993 25.6999 78.9993 25.6999 80.7993C25.6999 81.6993 25.9999 82.0993 26.6999 82.0993C27.2999 82.0993 27.6999 81.5993 27.6999 80.7993C27.6999 79.7993 27.6999 78.8993 27.6999 77.8993V74.6993H28.4999V75.4993C28.4999 77.2993 28.4999 78.9993 28.4999 80.7993C28.4999 81.6993 28.8999 82.1993 29.4999 82.1993C30.0999 82.1993 30.4999 81.6993 30.4999 80.8993C30.4999 79.6993 30.4999 78.4993 30.4999 77.2993V74.6993H32.3999C31.6999 71.5993 30.8999 68.5993 30.1999 65.5993C30.7999 65.3993 30.9999 65.4993 31.0999 65.8993Z" fill="#2988FF"/>
<path d="M20.4002 45.8993C20.0002 45.8993 19.7002 46.1993 19.7002 46.5993V52.7993C19.7002 53.1993 20.0002 53.4993 20.4002 53.4993H23.8002C24.2002 53.4993 24.5002 53.1993 24.5002 52.7993V46.5993C24.5002 46.1993 24.2002 45.8993 23.8002 45.8993H20.4002ZM23.0002 52.0993H21.1002V47.3993H23.0002V52.0993Z" fill="#1C3553"/>
<path d="M48.6 53.4993C49 53.4993 49.3 53.1993 49.3 52.7993V46.5993C49.3 46.1993 49 45.8993 48.6 45.8993H45.2C44.8 45.8993 44.5 46.1993 44.5 46.5993V52.7993C44.5 53.1993 44.8 53.4993 45.2 53.4993H48.6ZM46 47.3993H47.9V52.0993H46V47.3993Z" fill="#1C3553"/>
<path d="M32.1001 52.7993C32.1001 53.1993 32.4001 53.4993 32.8001 53.4993H36.2001C36.6001 53.4993 36.9001 53.1993 36.9001 52.7993V46.5993C36.9001 46.1993 36.6001 45.8993 36.2001 45.8993H32.8001C32.4001 45.8993 32.1001 46.1993 32.1001 46.5993V52.7993ZM33.6001 47.3993H35.5001V52.0993H33.6001V47.3993Z" fill="#1C3553"/>
<path d="M32.8001 40.1992H36.2001C36.6001 40.1992 36.9001 39.8992 36.9001 39.4992V33.2992C36.9001 32.8992 36.6001 32.5992 36.2001 32.5992H32.8001C32.4001 32.5992 32.1001 32.8992 32.1001 33.2992V39.4992C32.1001 39.8992 32.4001 40.1992 32.8001 40.1992ZM33.6001 33.9992H35.5001V38.6992H33.6001V33.9992Z" fill="#1C3553"/>
<path d="M5.70022 45.5993C7.00022 45.5993 7.70022 45.5993 8.60022 45.5993H9.70022V70.5993C9.70022 73.2993 11.0002 74.4993 13.6002 74.4993C14.7002 74.4993 15.6002 73.5993 15.6002 72.4993C15.6002 71.3993 14.7002 70.4993 13.7002 70.4993V45.2993C13.7002 42.8993 12.4002 41.5993 10.0002 41.5993H8.70022C8.20022 41.5993 7.80022 41.5993 7.30022 41.5993C11.5002 37.6993 23.8002 26.0993 30.4002 19.8993L34.4002 16.0993C34.4002 16.0993 34.4002 16.0993 34.5002 15.9993H34.6002C34.6002 15.9993 34.6002 15.9993 34.7002 16.0993L40.3002 21.3993C47.1002 27.7993 58.0002 37.9993 61.8002 41.5993C61.3002 41.5993 60.9002 41.5993 60.4002 41.5993H59.0002C56.6002 41.5993 55.3002 42.8993 55.3002 45.2993V70.4993C54.2002 70.4993 53.4002 71.3993 53.4002 72.4993C53.4002 73.5993 54.3002 74.4993 55.4002 74.4993C58.1002 74.4993 59.3002 73.2993 59.3002 70.5993V45.5993H60.4002C61.3002 45.5993 62.0002 45.5993 63.3002 45.5993C65.4002 45.5993 66.3002 44.4993 66.7002 43.5993C67.6002 41.5993 66.1002 40.1993 65.6002 39.7993C63.5002 37.8993 50.6002 25.7993 42.9002 18.4993L37.3002 13.1993C37.0002 12.7993 35.9002 11.8993 34.5002 11.9993C33.0002 11.8993 32.0002 12.7993 31.6002 13.1993L27.6002 16.9993C20.2002 23.8993 5.50022 37.5993 3.30022 39.6993C2.80022 40.1993 1.40022 41.4993 2.20022 43.4993C2.70022 44.4993 3.60022 45.5993 5.70022 45.5993Z" fill="#1C3553"/>
</svg>
