<svg width="96" height="96" viewBox="0 0 96 96" fill="none" xmlns="http://www.w3.org/2000/svg">
<path d="M89.0998 64.098C87.6998 64.098 86.2998 63.998 84.9998 63.998C84.4998 63.998 84.2998 63.698 84.1998 63.298C83.7998 61.698 83.2998 60.098 82.7998 58.498C82.2998 56.998 81.4998 56.398 79.8998 56.398C78.5998 56.398 77.2998 56.398 75.9998 56.398C74.0998 56.398 73.2998 56.998 72.7998 58.798C72.5998 59.598 72.3998 60.298 72.0998 60.998C71.6998 60.098 71.3998 59.198 71.0998 58.298C70.6998 56.998 69.7998 56.398 68.3998 56.398C67.2998 56.398 66.1998 56.398 65.0999 56.398C63.7999 56.398 62.8999 56.998 62.4999 58.198C62.2999 58.798 62.0999 59.298 61.9999 59.898C61.5999 61.198 61.1999 62.498 60.8999 63.898C60.7999 64.398 60.8999 64.898 61.3999 64.998C61.9999 65.198 62.2999 64.798 62.4999 64.298C62.4999 64.198 62.4999 64.098 62.5999 63.998C62.9999 62.598 63.3999 61.098 63.7999 59.698C63.8999 59.198 64.0999 58.998 64.6999 59.298C63.9999 62.298 63.2999 65.298 62.4999 68.398H64.4999V69.298C64.4999 71.098 64.4999 72.798 64.4999 74.598C64.4999 75.498 64.7999 75.898 65.4999 75.898C66.0999 75.898 66.4998 75.398 66.4998 74.598C66.4998 73.698 66.4998 72.698 66.4998 71.698V68.498H67.2998V69.298C67.2998 71.098 67.2998 72.798 67.2998 74.598C67.2998 75.498 67.6998 75.998 68.2998 75.998C68.8998 75.998 69.2998 75.498 69.2998 74.698C69.2998 73.498 69.2998 72.298 69.2998 71.198V68.598H71.1998C70.4998 65.498 69.7998 62.498 68.9998 59.498C69.4998 59.298 69.6998 59.398 69.7998 59.898C70.1998 61.398 70.6998 62.898 71.0998 64.398C71.1998 64.898 71.3998 65.298 71.9998 65.298C72.5998 65.298 72.7998 64.898 72.9998 64.398C73.3998 62.898 73.8998 61.398 74.2998 59.898C74.3998 59.498 74.5998 59.298 75.0998 59.498V60.298V69.898C75.0998 71.498 75.0998 73.198 75.0998 74.798C75.0998 75.798 75.7998 76.298 76.5998 76.098C77.2998 75.898 77.3998 75.298 77.3998 74.698C77.3998 72.198 77.3998 69.598 77.3998 67.098V65.998H78.1998V69.898C78.1998 71.498 78.1998 72.998 78.1998 74.598C78.1998 75.498 78.5998 75.998 79.2998 75.998C80.0998 75.998 80.4998 75.498 80.4998 74.598C80.4998 74.398 80.4998 74.198 80.4998 73.998V60.198V59.398C80.9998 59.198 81.2998 59.298 81.3998 59.798C81.7998 61.198 82.1998 62.598 82.4998 63.998C82.6998 64.698 82.9998 65.098 83.6998 65.198C84.2998 65.298 84.7998 65.498 85.3998 65.698V66.598C85.3998 69.398 85.3998 72.198 85.3998 74.998C85.3998 75.598 85.4998 76.098 86.1998 76.098C86.8998 76.098 86.9998 75.498 86.9998 74.998C86.9998 73.798 86.9998 72.698 86.9998 71.498C86.9998 71.198 87.1998 70.498 87.2998 70.498C87.8998 70.598 87.5998 71.098 87.5998 71.398C87.5998 72.598 87.5998 73.798 87.5998 74.998C87.5998 75.498 87.6998 75.998 88.3998 75.998C89.0998 75.998 89.1998 75.598 89.1998 74.998C89.1998 74.798 89.1998 74.498 89.1998 74.298C89.1998 71.798 89.1998 69.298 89.1998 66.798C89.1998 66.598 89.3998 66.398 89.4998 66.198C89.5998 66.398 89.7998 66.598 89.7998 66.698C89.7998 67.498 89.7998 68.198 89.7998 68.998C89.7998 69.398 89.8998 69.798 90.3998 69.798C90.8998 69.798 90.9998 69.398 90.9998 68.998C90.9998 67.998 90.9998 66.998 90.9998 66.098C91.1998 64.798 90.4998 64.098 89.0998 64.098Z" fill="#2988FF"/>
<path d="M64.8999 53.8981C64.8999 54.9981 65.7999 55.798 66.8999 55.798C67.9999 55.798 68.8998 54.8981 68.8998 53.7981C68.8998 52.6981 67.9999 51.8981 66.8999 51.8981C65.8999 51.8981 64.8999 52.8981 64.8999 53.8981Z" fill="#2988FF"/>
<path d="M75.5998 53.8981C75.5998 54.9981 76.4998 55.7981 77.5998 55.7981C78.6998 55.7981 79.5998 54.8981 79.4998 53.7981C79.4998 52.6981 78.5998 51.7981 77.4998 51.8981C76.4998 51.9981 75.5998 52.8981 75.5998 53.8981Z" fill="#2988FF"/>
<path d="M88.6998 61.9982C88.6998 61.2982 88.0998 60.6982 87.3998 60.5982C86.6998 60.5982 85.9998 61.1982 85.9998 61.9982C85.9998 62.7982 86.5998 63.3982 87.3998 63.3982C88.1998 63.3982 88.6998 62.7982 88.6998 61.9982Z" fill="#2988FF"/>
<path d="M5.29998 47.6981C5.69998 48.5981 6.49998 49.5981 8.49998 49.5981C10.1 49.5981 11.6 49.5981 13.2 49.5981V73.198C13.2 75.698 14.4 76.898 16.9 76.898H33.7999H33.8999H52.2999C54.7999 76.898 55.9999 75.698 55.9999 73.198V49.6981C57.5998 49.6981 59.0998 49.6981 60.6998 49.6981C62.6998 49.6981 63.5998 48.6981 63.8998 47.7981C64.4998 46.4981 64.0998 45.2981 62.8998 44.0981C60.4998 41.5981 39.8999 22.2982 37.5999 20.0982C36.6999 19.1982 35.6999 18.8982 34.6999 18.9982C33.6999 18.7982 32.6999 19.1982 31.7999 20.0982L23.2999 27.9982C16.5 34.3981 7.79998 42.4981 6.29998 43.9981C4.99998 45.0981 4.69998 46.3981 5.29998 47.6981ZM25.9999 30.8981L34.3999 22.9982C34.4999 22.9982 34.4999 22.9982 34.5999 22.9982C34.6999 22.9982 34.6999 22.9982 34.7999 22.9982C36.8999 24.8982 53.4999 40.4981 58.7998 45.4981C57.6999 45.4981 56.6998 45.4981 55.5999 45.4981C53.2999 45.4981 51.9999 46.7981 51.9999 48.9981V72.698H35.3999H35.2999H17.2V48.9981C17.2 46.7981 15.9 45.4981 13.7 45.3981C12.6 45.3981 11.6 45.3981 10.5 45.3981C13.5 42.6981 20.3999 36.1981 25.9999 30.8981Z" fill="#1C3553"/>
<path d="M40.0999 60.698H43.8999C44.2999 60.698 44.5999 60.398 44.5999 59.998V53.0981C44.5999 52.6981 44.2999 52.3981 43.8999 52.3981H40.0999C39.6999 52.3981 39.3999 52.6981 39.3999 53.0981V59.998C39.3999 60.298 39.6999 60.698 40.0999 60.698ZM40.8999 53.7981H43.1999V59.198H40.8999V53.7981Z" fill="#1C3553"/>
<path d="M25.0999 60.698H28.8999C29.2999 60.698 29.5999 60.398 29.5999 59.998V53.0981C29.5999 52.6981 29.2999 52.3981 28.8999 52.3981H25.0999C24.6999 52.3981 24.3999 52.6981 24.3999 53.0981V59.998C24.2999 60.298 24.6999 60.698 25.0999 60.698ZM25.7999 53.7981H28.0999V59.198H25.7999V53.7981Z" fill="#1C3553"/>
</svg>
