<svg width="96" height="96" viewBox="0 0 96 96" fill="none" xmlns="http://www.w3.org/2000/svg">
<path d="M89.0999 64.098C87.6999 64.098 86.2999 63.998 84.9999 63.998C84.4999 63.998 84.2999 63.698 84.1999 63.298C83.7999 61.698 83.2999 60.098 82.7999 58.498C82.2999 56.998 81.4999 56.398 79.8999 56.398C78.5999 56.398 77.2999 56.398 75.9999 56.398C74.0999 56.398 73.2999 56.998 72.7999 58.798C72.5999 59.598 72.3999 60.298 72.0999 60.998C71.6999 60.098 71.3999 59.198 71.0999 58.298C70.6999 56.998 69.7999 56.398 68.3999 56.398C67.2999 56.398 66.1999 56.398 65.0999 56.398C63.7999 56.398 62.8999 56.998 62.4999 58.198C62.2999 58.798 62.0999 59.298 61.9999 59.898C61.5999 61.198 61.1999 62.498 60.8999 63.898C60.7999 64.398 60.8999 64.898 61.3999 64.998C61.9999 65.198 62.2999 64.798 62.4999 64.298C62.4999 64.198 62.4999 64.098 62.5999 63.998C62.9999 62.598 63.3999 61.098 63.7999 59.698C63.8999 59.198 64.0999 58.998 64.6999 59.298C63.9999 62.298 63.2999 65.298 62.4999 68.398H64.4999V69.298C64.4999 71.098 64.4999 72.798 64.4999 74.598C64.4999 75.498 64.7999 75.898 65.4999 75.898C66.0999 75.898 66.4999 75.398 66.4999 74.598C66.4999 73.698 66.4999 72.698 66.4999 71.698V68.498H67.2999V69.298C67.2999 71.098 67.2999 72.798 67.2999 74.598C67.2999 75.498 67.6999 75.998 68.2999 75.998C68.8999 75.998 69.2999 75.498 69.2999 74.698C69.2999 73.498 69.2999 72.298 69.2999 71.198V68.598H71.1999C70.4999 65.498 69.7999 62.498 68.9999 59.498C69.4999 59.298 69.6999 59.398 69.7999 59.898C70.1999 61.398 70.6999 62.898 71.0999 64.398C71.1999 64.898 71.3999 65.298 71.9999 65.298C72.5999 65.298 72.7999 64.898 72.9999 64.398C73.3999 62.898 73.8999 61.398 74.2999 59.898C74.3999 59.498 74.5999 59.298 75.0999 59.498V60.298V69.898C75.0999 71.498 75.0999 73.198 75.0999 74.798C75.0999 75.798 75.7999 76.298 76.5999 76.098C77.2999 75.898 77.3999 75.298 77.3999 74.698C77.3999 72.198 77.3999 69.598 77.3999 67.098V65.998H78.1999V69.898C78.1999 71.498 78.1999 72.998 78.1999 74.598C78.1999 75.498 78.5999 75.998 79.2999 75.998C80.0999 75.998 80.4999 75.498 80.4999 74.598C80.4999 74.398 80.4999 74.198 80.4999 73.998V60.198V59.398C80.9999 59.198 81.2999 59.298 81.3999 59.798C81.7999 61.198 82.1999 62.598 82.4999 63.998C82.6999 64.698 82.9999 65.098 83.6999 65.198C84.2999 65.298 84.7999 65.498 85.3999 65.698V66.598C85.3999 69.398 85.3999 72.198 85.3999 74.998C85.3999 75.598 85.4999 76.098 86.1999 76.098C86.8999 76.098 86.9999 75.498 86.9999 74.998C86.9999 73.798 86.9999 72.698 86.9999 71.498C86.9999 71.198 87.1999 70.498 87.2999 70.498C87.8999 70.598 87.5999 71.098 87.5999 71.398C87.5999 72.598 87.5999 73.798 87.5999 74.998C87.5999 75.498 87.6999 75.998 88.3999 75.998C89.0999 75.998 89.1999 75.598 89.1999 74.998C89.1999 74.798 89.1999 74.498 89.1999 74.298C89.1999 71.798 89.1999 69.298 89.1999 66.798C89.1999 66.598 89.3999 66.398 89.4999 66.198C89.5999 66.398 89.7999 66.598 89.7999 66.698C89.7999 67.498 89.7999 68.198 89.7999 68.998C89.7999 69.398 89.8999 69.798 90.3999 69.798C90.8999 69.798 90.9998 69.398 90.9998 68.998C90.9998 67.998 90.9998 66.998 90.9998 66.098C91.1998 64.798 90.4998 64.098 89.0999 64.098Z" fill="#2988FF"/>
<path d="M64.8997 53.8981C64.8997 54.9981 65.7997 55.798 66.8997 55.798C67.9997 55.798 68.8997 54.8981 68.8997 53.7981C68.8997 52.6981 67.9997 51.8981 66.8997 51.8981C65.8997 51.8981 64.8997 52.8981 64.8997 53.8981Z" fill="#2988FF"/>
<path d="M75.5999 53.8981C75.5999 54.9981 76.4999 55.7981 77.5999 55.7981C78.6999 55.7981 79.5999 54.8981 79.4999 53.7981C79.4999 52.6981 78.5999 51.7981 77.4999 51.8981C76.4999 51.9981 75.5999 52.8981 75.5999 53.8981Z" fill="#2988FF"/>
<path d="M88.6998 61.9982C88.6998 61.2982 88.0998 60.6982 87.3998 60.5982C86.6998 60.5982 85.9998 61.1982 85.9998 61.9982C85.9998 62.7982 86.5998 63.3982 87.3998 63.3982C88.1998 63.3982 88.6998 62.7982 88.6998 61.9982Z" fill="#2988FF"/>
<path d="M5.2998 47.6981C5.6998 48.5981 6.4998 49.5981 8.49979 49.5981C10.0998 49.5981 11.5998 49.5981 13.1998 49.5981V73.198C13.1998 75.698 14.3998 76.898 16.8998 76.898H33.7997H33.8997H52.2997C54.7997 76.898 55.9997 75.698 55.9997 73.198V49.6981C57.5997 49.6981 59.0997 49.6981 60.6997 49.6981C62.6997 49.6981 63.5997 48.6981 63.8997 47.7981C64.4996 46.4981 64.0997 45.2981 62.8997 44.0981C60.4997 41.5981 39.8997 22.2982 37.5997 20.0982C36.6997 19.1982 35.6997 18.8982 34.6997 18.9982C33.6997 18.7982 32.6997 19.1982 31.7997 20.0982L23.2998 27.9982C16.4998 34.3981 7.79979 42.4981 6.2998 43.9981C4.9998 45.0981 4.6998 46.3981 5.2998 47.6981ZM25.9997 30.8981L34.3997 22.9982C34.4997 22.9982 34.4997 22.9982 34.5997 22.9982C34.6997 22.9982 34.6997 22.9982 34.7997 22.9982C36.8997 24.8982 53.4997 40.4981 58.7997 45.4981C57.6997 45.4981 56.6997 45.4981 55.5997 45.4981C53.2997 45.4981 51.9997 46.7981 51.9997 48.9981V72.698H35.3997H35.2997H17.1998V48.9981C17.1998 46.7981 15.8998 45.4981 13.6998 45.3981C12.5998 45.3981 11.5998 45.3981 10.4998 45.3981C13.4998 42.6981 20.3998 36.1981 25.9997 30.8981Z" fill="#1C3553"/>
<path d="M40.0998 60.698H43.8998C44.2998 60.698 44.5998 60.398 44.5998 59.998V53.0981C44.5998 52.6981 44.2998 52.3981 43.8998 52.3981H40.0998C39.6998 52.3981 39.3998 52.6981 39.3998 53.0981V59.998C39.3998 60.298 39.6998 60.698 40.0998 60.698ZM40.8998 53.7981H43.1998V59.198H40.8998V53.7981Z" fill="#1C3553"/>
<path d="M25.0998 60.698H28.8997C29.2997 60.698 29.5997 60.398 29.5997 59.998V53.0981C29.5997 52.6981 29.2997 52.3981 28.8997 52.3981H25.0998C24.6998 52.3981 24.3998 52.6981 24.3998 53.0981V59.998C24.2998 60.298 24.6998 60.698 25.0998 60.698ZM25.7998 53.7981H28.0997V59.198H25.7998V53.7981Z" fill="#1C3553"/>
</svg>
