<svg width="96" height="96" viewBox="0 0 96 96" fill="none" xmlns="http://www.w3.org/2000/svg">
<path d="M86.4988 57.0983C86.3988 56.9983 86.2988 56.8983 86.0988 56.7983C85.9988 56.7983 85.9988 56.8983 85.8988 56.8983C85.7988 56.9983 85.5988 56.9983 85.3988 57.0983C84.4988 57.3983 83.0988 57.5983 80.9988 57.5983C80.3988 57.5983 79.7988 57.5983 79.2988 57.4983V58.0983V58.5983C79.7988 58.5983 80.3988 58.6983 80.9988 58.6983C82.7988 58.6983 84.4988 58.4983 85.4988 58.1983H85.5988V59.4983C85.7988 59.4983 86.0988 59.4983 86.2988 59.4983C86.3988 59.4983 86.4988 59.4983 86.5988 59.4983V57.5983V57.3983V57.1983H86.4988V57.0983Z" fill="#2988FF"/>
<path d="M78.3986 65.6984C77.8986 65.5984 77.4986 65.5984 77.0986 65.4984C76.7986 65.5984 76.3986 65.5984 75.9986 65.6984C75.8986 65.6984 75.8986 65.6984 75.7986 65.6984C75.7986 65.6984 75.7986 65.6984 75.6986 65.6984C75.5986 65.6984 75.3986 65.6984 75.2986 65.6984C75.1986 65.6984 75.0986 65.6984 74.8986 65.6984C74.3986 65.6984 73.8986 65.7984 73.3986 65.7984V65.8984V66.3984C73.8986 66.3984 74.4986 66.3984 74.9986 66.2984C75.0986 66.2984 75.2986 66.2984 75.3986 66.2984C75.4986 66.2984 75.5986 66.2984 75.6986 66.2984H75.7986C75.9986 66.2984 76.1986 66.1984 76.3986 66.1984C76.6986 66.0984 76.8986 66.0984 77.1986 66.0984C77.4986 66.0984 77.5986 65.9984 77.7986 65.8984H77.8986V66.1984V66.3984V67.1984C77.7986 67.2984 77.5986 67.3984 77.0986 67.4984C76.7986 67.5984 76.4986 67.6984 75.9986 67.6984C75.8986 67.6984 75.8986 67.6984 75.7986 67.6984C75.6986 67.6984 75.5986 67.6984 75.4986 67.6984C75.3986 67.6984 75.3986 67.6984 75.2986 67.6984C75.1986 67.6984 74.9986 67.6984 74.8986 67.6984C74.5986 67.6984 74.1986 67.6984 73.7986 67.7984L73.2986 67.5984V67.7984V67.8984C73.2986 67.9984 73.1986 68.0984 72.8986 68.2984C72.7986 68.3984 72.6986 68.3984 72.5986 68.4984C72.6986 68.5984 72.7986 68.6984 72.8986 68.6984C72.9986 68.6984 72.9986 68.6984 73.0986 68.6984C74.2986 68.6984 75.1986 68.5984 75.8986 68.4984C76.1986 68.4984 76.3986 68.3984 76.6986 68.3984C76.7986 68.3984 76.8986 68.3984 76.9986 68.2984C77.1986 68.1984 77.3986 68.1984 77.4986 68.0984C77.5986 67.9984 77.7986 67.9984 77.8986 67.9984C78.2986 67.7984 78.4986 67.6984 78.5986 67.4984C78.6986 67.3984 78.6986 67.2984 78.7986 67.2984V66.4984V65.9984V65.5984V65.3984C78.6986 65.7984 78.5986 65.7984 78.3986 65.6984Z" fill="#2988FF"/>
<path d="M86.4982 44.7985C86.3982 44.6985 86.2982 44.5985 86.0982 44.4985C85.9982 44.4985 85.9982 44.5985 85.8982 44.5985C85.7982 44.6985 85.5982 44.6985 85.3982 44.7985C84.4982 45.0985 83.0982 45.2985 80.9982 45.2985C80.3982 45.2985 79.7982 45.2985 79.2982 45.1985V45.7985V46.2985C79.7982 46.2985 80.3982 46.3985 80.9982 46.3985C82.7982 46.3985 84.4982 46.1985 85.4982 45.8985H85.5982V47.1985C85.3982 47.2985 84.9982 47.5985 83.7982 47.7985C83.2982 47.8985 82.5982 47.8985 81.6982 47.9985L80.7982 47.5985L79.2982 46.9985V47.6985V47.8985V47.9985V48.0985C79.1982 48.1985 79.0982 48.2985 78.8982 48.4985C78.8982 48.4985 78.7982 48.4985 78.7982 48.5985C78.6982 48.5985 78.6982 48.6985 78.5982 48.6985C78.4982 48.6985 78.4982 48.7985 78.3982 48.7985C78.2982 48.7985 78.2982 48.8985 78.1982 48.8985C78.1982 48.8985 78.1982 48.8985 78.2982 48.8985C78.3982 48.8985 78.5982 48.8985 78.6982 48.9985C78.7982 48.9985 78.8982 48.9985 78.9982 48.9985C79.5982 49.0985 80.2982 49.0985 80.9982 49.0985C82.4982 49.0985 83.5982 48.9985 84.4982 48.7985C84.7982 48.6985 85.0982 48.6985 85.2982 48.5985C85.3982 48.5985 85.3982 48.5985 85.4982 48.4985C85.5982 48.3985 85.6982 48.3985 85.7982 48.3985C86.3982 48.0985 86.5982 47.8985 86.5982 47.6985V45.3985V45.1985V44.9985H86.4982V44.7985Z" fill="#2988FF"/>
<path d="M61.599 75.1984V75.4984V75.6984C61.699 75.9984 62.599 77.0984 67.199 77.0984C71.799 77.0984 72.699 75.9984 72.799 75.6984V73.3984V73.1984V72.9984H72.699L72.599 72.8984L72.499 72.9984C72.499 72.9984 72.499 72.9984 72.399 72.9984C72.299 73.0984 72.199 73.0984 71.999 73.1984C71.099 73.4984 69.699 73.8984 67.099 73.8984C64.499 73.8984 63.099 73.5984 62.199 73.1984C61.999 73.0984 61.899 73.0984 61.799 72.9984C61.799 72.9984 61.799 72.9984 61.699 72.9984L61.599 72.8984L61.499 72.9984H61.599V75.1984ZM67.299 74.4984C69.099 74.4984 70.799 74.2984 71.799 73.9984H71.899V75.2984C71.699 75.4984 70.699 75.9984 67.899 75.9984L63.399 74.0984C64.399 74.3984 65.799 74.4984 67.299 74.4984Z" fill="#2988FF"/>
<path d="M86.4982 40.6984C86.3982 40.5984 86.2982 40.4984 86.0982 40.3984C85.9982 40.3984 85.9982 40.4984 85.8982 40.4984C85.7982 40.5984 85.5982 40.5984 85.3982 40.6984C84.4982 40.9984 83.0982 41.1984 80.9982 41.1984C80.3982 41.1984 79.7982 41.1984 79.2982 41.0984V41.6984V42.0984C79.7982 42.0984 80.3982 42.1984 80.9982 42.1984C82.7982 42.1984 84.4982 41.9984 85.4982 41.6984H85.5982V42.9984C85.3982 43.0984 84.9982 43.3984 83.7982 43.5984C83.2982 43.6984 82.5982 43.6984 81.6982 43.7984L80.7982 43.3984L79.2982 42.7984V43.4984V43.6984C79.2982 43.6984 79.2982 43.6984 79.2982 43.7984C79.1982 43.8984 79.0982 43.9984 78.8982 44.1984C78.8982 44.1984 78.7982 44.1984 78.7982 44.2984C78.6982 44.3984 78.6982 44.3984 78.5982 44.3984C78.4982 44.3984 78.4982 44.4984 78.3982 44.4984C78.2982 44.4984 78.2982 44.5984 78.1982 44.5984C78.1982 44.5984 78.1982 44.5984 78.2982 44.5984C78.3982 44.5984 78.5982 44.5984 78.6982 44.6984C78.7982 44.6984 78.8982 44.6984 78.9982 44.6984C79.5982 44.6984 80.1982 44.7984 80.9982 44.7984C82.4982 44.7984 83.5982 44.6984 84.3982 44.4984C84.6982 44.3984 84.9982 44.3984 85.1982 44.2984C85.2982 44.2984 85.2982 44.1984 85.3982 44.1984C85.4982 44.1984 85.5982 44.0984 85.6982 44.0984C86.2982 43.7984 86.4982 43.4984 86.4982 43.3984V41.0984V40.8984V40.6984Z" fill="#2988FF"/>
<path d="M86.4982 52.9987C86.3982 52.8987 86.2982 52.7987 86.0982 52.6987C85.9982 52.6987 85.9982 52.7987 85.8982 52.7987C85.6982 52.8987 85.5982 52.9987 85.3982 52.9987C84.4982 53.2987 83.0982 53.4987 80.9982 53.4987C80.3982 53.4987 79.7982 53.4987 79.2982 53.3987V53.9987V54.3987C79.7982 54.3987 80.3982 54.4987 80.9982 54.4987C82.7982 54.4987 84.4982 54.2987 85.4982 53.9987H85.5982V55.2987C85.3982 55.3987 84.9982 55.6987 83.7982 55.8987C83.2982 55.9987 82.5982 55.9987 81.6982 56.0987L80.7982 55.6987L79.2982 55.0987V55.7987V55.9987V56.0987C79.2982 56.0987 79.2982 56.0987 79.2982 56.1987C79.1982 56.2987 79.0982 56.3987 78.8982 56.5987C78.8982 56.5987 78.7982 56.5987 78.7982 56.6987C78.6982 56.7987 78.6982 56.7987 78.5982 56.7987C78.4982 56.7987 78.4982 56.8987 78.3982 56.8987C78.2982 56.8987 78.2982 56.9987 78.1982 56.9987C78.1982 56.9987 78.1982 56.9987 78.2982 56.9987C78.3982 56.9987 78.5982 56.9987 78.6982 56.9987C78.7982 56.9987 78.8982 56.9987 78.9982 56.9987C79.5982 57.0987 80.2982 57.0987 80.9982 57.0987C82.4982 57.0987 83.5982 56.9987 84.4982 56.7987C84.7982 56.6987 85.0982 56.6987 85.2982 56.5987C85.3982 56.5987 85.3982 56.4987 85.4982 56.4987C85.5982 56.4987 85.6982 56.3987 85.7982 56.3987C86.3982 56.0987 86.5982 55.7987 86.5982 55.6987V53.3987V53.1987V52.9987H86.4982Z" fill="#2988FF"/>
<path d="M86.4986 48.8986C86.3986 48.7986 86.2986 48.6986 86.0986 48.5986C85.9986 48.5986 85.9986 48.6986 85.8986 48.6986C85.7986 48.7986 85.5986 48.7986 85.3986 48.8986C84.4986 49.1986 83.0986 49.3986 80.9986 49.3986C80.3986 49.3986 79.7986 49.3986 79.2986 49.2986V49.8986V50.2986C79.7986 50.2986 80.3986 50.3986 80.9986 50.3986C82.7986 50.3986 84.4986 50.1986 85.4986 49.8986H85.5986V51.1986C85.3986 51.2986 84.9986 51.5986 83.7986 51.7986C83.1986 51.8986 82.4986 51.9986 81.5986 51.9986L80.6986 51.5986L79.1986 50.9986V51.6986V51.8986V51.9986C79.1986 51.9986 79.1986 51.9986 79.1986 52.0986C79.0986 52.1986 78.9986 52.2986 78.7986 52.4986C78.7986 52.4986 78.6986 52.4986 78.6986 52.5986C78.5986 52.5986 78.5986 52.6986 78.4986 52.6986C78.3986 52.6986 78.3986 52.7986 78.2986 52.7986C78.1986 52.7986 78.1986 52.8986 78.0986 52.8986C78.0986 52.8986 78.0986 52.8986 78.1986 52.8986C78.2986 52.8986 78.4986 52.8986 78.5986 52.9986C78.6986 52.9986 78.7986 52.9986 78.8986 52.9986C79.4986 52.9986 80.1986 53.0986 80.8986 53.0986C82.3986 53.0986 83.4986 52.9986 84.3986 52.7986C84.6986 52.6986 84.9986 52.6986 85.1986 52.5986C85.2986 52.5986 85.2986 52.5986 85.3986 52.4986C85.4986 52.4986 85.5986 52.3986 85.6986 52.3986C86.2986 52.0986 86.4986 51.7986 86.4986 51.6986V49.3986V49.1986V48.9986V48.8986Z" fill="#2988FF"/>
<path d="M86.4982 36.5986C85.9982 35.9986 83.6982 35.5986 80.9982 35.5986C80.3982 35.5986 79.7982 35.5986 79.1982 35.6986C79.0982 35.7986 78.9982 35.9986 78.7982 36.0986C78.6982 36.0986 78.6982 36.1986 78.5982 36.1986C78.7982 36.2986 78.8982 36.3986 79.0982 36.5986L79.1982 36.6986H79.2982V37.0986V37.6986V38.0986C79.7982 38.0986 80.3982 38.1986 80.9982 38.1986C82.7982 38.1986 84.4982 37.9986 85.4982 37.6986H85.5982V38.9986C85.3982 39.0986 84.9982 39.3986 83.7982 39.5986C83.2982 39.6986 82.5982 39.6986 81.6982 39.7986L80.7982 39.3986L79.2982 38.7986V39.4986V39.6986V39.7986C79.2982 39.7986 79.2982 39.7986 79.2982 39.8986C79.1982 39.9986 79.0982 40.0986 78.8982 40.2986C78.8982 40.2986 78.7982 40.2986 78.7982 40.3986C78.6982 40.3986 78.6982 40.4986 78.5982 40.4986C78.4982 40.4986 78.4982 40.5986 78.3982 40.5986C78.2982 40.5986 78.2982 40.6986 78.1982 40.6986C78.1982 40.6986 78.1982 40.6986 78.2982 40.6986C78.3982 40.6986 78.5982 40.6986 78.6982 40.7986C78.7982 40.7986 78.8982 40.7986 78.9982 40.7986C79.5982 40.8986 80.2982 40.8986 80.9982 40.8986C82.4982 40.8986 83.5982 40.7986 84.4982 40.5986C84.7982 40.4986 85.0982 40.4986 85.2982 40.3986C85.3982 40.3986 85.3982 40.3986 85.4982 40.2986C85.5982 40.1986 85.6982 40.1986 85.7982 40.1986C86.3982 39.8986 86.5982 39.6986 86.5982 39.4986V37.1986V36.9986V36.7986H86.4982V36.5986Z" fill="#2988FF"/>
<path d="M47.999 56.3986V56.5986C48.099 56.6986 48.299 56.9986 48.799 57.2986C48.899 57.3986 48.999 57.3986 49.099 57.3986C49.199 57.3986 49.199 57.3986 49.299 57.4986C49.499 57.5986 49.799 57.5986 50.099 57.6986C50.899 57.8986 51.999 57.9986 53.599 57.9986C55.099 57.9986 56.199 57.8986 57.099 57.6986C57.399 57.5986 57.699 57.5986 57.899 57.4986C57.999 57.4986 57.999 57.4986 58.099 57.3986C58.199 57.3986 58.299 57.2986 58.399 57.2986C58.999 56.9986 59.199 56.6986 59.199 56.5986V54.2986V54.0986V53.8986H59.099C58.999 53.7986 58.899 53.6986 58.699 53.5986C58.599 53.5986 58.599 53.6986 58.499 53.6986C58.399 53.7986 58.199 53.7986 57.999 53.8986C57.099 54.1986 55.699 54.3986 53.599 54.3986C51.399 54.3986 50.099 54.1986 49.199 53.8986C48.999 53.7986 48.799 53.7986 48.699 53.6986C48.599 53.6986 48.599 53.5986 48.499 53.5986C48.299 53.6986 48.199 53.7986 48.099 53.8986H47.999V56.3986ZM53.699 55.3986C55.499 55.3986 57.199 55.1986 58.199 54.8986H58.299V56.1986C58.099 56.2986 57.699 56.5986 56.499 56.7986C55.999 56.8986 55.299 56.8986 54.399 56.9986L53.499 56.5986L49.899 55.0986C50.799 55.2986 52.199 55.3986 53.699 55.3986Z" fill="#2988FF"/>
<path d="M47.999 64.5987C48.099 64.5987 48.199 64.5987 48.299 64.5987C48.299 64.5987 48.299 64.5987 48.399 64.5987C48.899 64.6987 49.299 64.6987 49.699 64.7987C49.899 64.8987 50.099 64.8987 50.299 64.9987H50.399C50.599 65.0987 50.799 65.1987 50.999 65.2987C51.099 65.3987 51.299 65.3987 51.399 65.4987C51.499 65.5987 51.499 65.5987 51.599 65.6987L51.699 65.7987H51.799V65.9987C52.299 65.9987 52.899 66.0987 53.599 66.0987C55.399 66.0987 56.699 65.8987 57.499 65.6987C57.599 65.6987 57.699 65.5987 57.799 65.5987C57.999 65.4987 58.199 65.4987 58.399 65.3987C58.499 65.3987 58.499 65.2987 58.599 65.2987C58.699 65.2987 58.799 65.1987 58.799 65.1987C59.099 64.9987 59.199 64.7987 59.299 64.6987V62.3987V62.1987V61.9987H59.199C59.099 61.8987 58.999 61.7987 58.799 61.6987C58.699 61.6987 58.699 61.7987 58.599 61.7987C58.499 61.8987 58.299 61.8987 58.099 61.9987C57.199 62.2987 55.799 62.4987 53.699 62.4987C51.499 62.4987 50.199 62.2987 49.299 61.9987C49.099 61.8987 48.899 61.8987 48.799 61.7987C48.699 61.7987 48.699 61.6987 48.599 61.6987C48.399 61.7987 48.299 61.8987 48.199 61.9987H48.099V64.5987H47.999ZM53.699 63.6987C55.499 63.6987 57.199 63.4987 58.199 63.1987H58.299V64.4987C58.199 64.5987 57.899 64.6987 57.399 64.8987C57.199 64.8987 56.899 64.9987 56.599 64.9987C56.599 64.9987 56.499 64.9987 56.399 64.9987C55.899 65.0987 55.199 65.0987 54.299 65.1987L53.399 64.7987L52.599 64.4987L49.799 63.3987C50.799 63.4987 52.199 63.6987 53.699 63.6987Z" fill="#2988FF"/>
<path d="M47.999 60.5983V60.7983C48.099 60.8983 48.299 61.1983 48.799 61.4983C48.899 61.4983 48.999 61.5983 49.099 61.5983C49.199 61.5983 49.199 61.6983 49.299 61.6983C49.499 61.7983 49.799 61.7983 50.099 61.8983C50.899 62.0983 51.999 62.1983 53.599 62.1983C55.099 62.1983 56.199 62.0983 57.099 61.8983C57.399 61.7983 57.699 61.7983 57.899 61.6983C57.999 61.6983 57.999 61.6983 58.099 61.5983C58.199 61.5983 58.299 61.4983 58.399 61.4983C58.999 61.1983 59.199 60.8983 59.199 60.7983V58.4983V58.2983V58.0983H59.099C58.999 57.9983 58.899 57.8983 58.699 57.7983C58.599 57.7983 58.599 57.8983 58.499 57.8983C58.399 57.9983 58.199 57.9983 57.999 58.0983C57.099 58.3983 55.699 58.5983 53.599 58.5983C51.399 58.5983 50.099 58.3983 49.199 58.0983C48.999 57.9983 48.799 57.9983 48.699 57.8983C48.599 57.8983 48.599 57.7983 48.499 57.7983C48.299 57.8983 48.199 57.9983 48.099 58.0983H47.999V60.5983ZM53.699 59.5983C55.499 59.5983 57.199 59.3983 58.199 59.0983H58.299V60.3983C58.099 60.4983 57.699 60.7983 56.499 60.9983C55.999 61.0983 55.299 61.0983 54.399 61.1983L53.499 60.7983L49.899 59.2983C50.799 59.3983 52.199 59.5983 53.699 59.5983Z" fill="#2988FF"/>
<path d="M51.0986 69.5983C51.1986 69.6983 51.2986 69.7983 51.3986 69.8983C51.9986 69.9983 52.7986 69.9983 53.5986 69.9983C58.1986 69.9983 59.0986 68.9983 59.1986 68.5983V66.2983V66.0983V65.8983H59.0986L58.9986 65.7983L58.8986 65.8983C58.8986 65.8983 58.8986 65.8983 58.7986 65.8983C58.7986 65.9983 58.6986 65.9983 58.5986 66.0983C57.6986 66.4983 56.2986 66.7983 53.6986 66.7983C52.9986 66.7983 52.3986 66.7983 51.8986 66.6983V66.8983V67.2983C52.4986 67.3983 53.0986 67.3983 53.6986 67.3983C55.4986 67.3983 57.1986 67.1983 58.1986 66.8983H58.2986V68.1983C58.0986 68.3983 57.0986 68.8983 54.2986 68.8983L51.7986 67.8983V68.8983V68.9983C51.7986 69.0983 51.6986 69.1983 51.4986 69.3983C51.3986 69.4983 51.2986 69.4983 51.0986 69.5983C51.1986 69.5983 51.0986 69.5983 51.0986 69.5983Z" fill="#2988FF"/>
<path d="M47.999 39.9987V40.1987C48.099 40.2987 48.299 40.5987 48.799 40.8987C48.899 40.8987 48.999 40.9987 49.099 40.9987C49.199 40.9987 49.199 40.9987 49.299 41.0987C49.499 41.1987 49.799 41.1987 50.099 41.2987C50.899 41.4987 51.999 41.5987 53.599 41.5987C55.099 41.5987 56.199 41.4987 57.099 41.2987C57.399 41.1987 57.699 41.1987 57.899 41.0987C57.999 41.0987 57.999 41.0987 58.099 40.9987C58.199 40.8987 58.299 40.8987 58.399 40.8987C58.999 40.5987 59.199 40.2987 59.199 40.1987V37.8987V37.6987V37.4987H59.099C58.999 37.3987 58.899 37.2987 58.699 37.1987C58.599 37.1987 58.599 37.2987 58.499 37.2987C58.399 37.3987 58.199 37.3987 57.999 37.4987C57.099 37.7987 55.699 37.9987 53.599 37.9987C51.399 37.9987 50.099 37.7987 49.199 37.4987C48.999 37.3987 48.799 37.3987 48.699 37.2987C48.599 37.2987 48.599 37.1987 48.499 37.1987C48.299 37.2987 48.199 37.3987 48.099 37.4987H47.999V39.9987ZM53.699 38.9987C55.499 38.9987 57.199 38.7987 58.199 38.4987H58.299V39.7987C58.099 39.8987 57.699 40.1987 56.499 40.3987C55.999 40.4987 55.299 40.4987 54.399 40.5987L53.499 40.1987L49.899 38.6987C50.799 38.8987 52.199 38.9987 53.699 38.9987Z" fill="#2988FF"/>
<path d="M47.9988 44.0983V44.2983C48.0988 44.3983 48.2988 44.6983 48.7988 44.9983C48.8988 45.0983 48.9988 45.0983 49.0988 45.0983C49.1988 45.0983 49.1988 45.0983 49.2988 45.1983C49.4988 45.2983 49.7988 45.2983 50.0988 45.3983C50.8988 45.5983 51.9988 45.6983 53.4988 45.6983C54.9988 45.6983 56.0988 45.5983 56.8988 45.3983C57.1988 45.2983 57.4988 45.2983 57.6988 45.1983C57.7988 45.1983 57.7988 45.1983 57.8988 45.0983C57.9988 44.9983 58.0988 44.9983 58.1988 44.9983C58.7988 44.6983 58.9988 44.4983 58.9988 44.2983V41.9983V41.7983V41.5983H58.8988C58.7988 41.4983 58.6988 41.3983 58.4988 41.2983C58.3988 41.2983 58.3988 41.3983 58.2988 41.3983C58.1988 41.4983 57.9988 41.4983 57.7988 41.5983C56.8988 41.8983 55.4988 42.0983 53.3988 42.0983C51.1988 42.0983 49.8988 41.8983 48.9988 41.5983C48.7988 41.4983 48.5988 41.4983 48.4988 41.3983C48.3988 41.3983 48.3988 41.2983 48.2988 41.2983C48.0988 41.3983 47.9988 41.4983 47.8988 41.5983H47.7988V44.0983H47.9988ZM53.6988 43.0983C55.4988 43.0983 57.1988 42.8983 58.1988 42.5983H58.2988V43.8983C58.0988 43.9983 57.6988 44.2983 56.4988 44.4983C55.9988 44.5983 55.2988 44.5983 54.3988 44.6983L53.4988 44.2983L49.8988 42.7983C50.7988 42.9983 52.1988 43.0983 53.6988 43.0983Z" fill="#2988FF"/>
<path d="M47.999 52.2985V52.4985C48.099 52.6985 48.299 52.8985 48.799 53.1985C48.899 53.2985 48.999 53.2985 49.099 53.2985C49.199 53.2985 49.199 53.2985 49.299 53.3985C49.499 53.4985 49.799 53.4985 50.099 53.5985C50.899 53.7985 51.999 53.8985 53.599 53.8985C55.099 53.8985 56.199 53.7985 57.099 53.5985C57.399 53.4985 57.699 53.4985 57.899 53.3985C57.999 53.3985 57.999 53.3985 58.099 53.2985C58.199 53.1985 58.299 53.1985 58.399 53.1985C58.999 52.8985 59.199 52.6985 59.199 52.4985V50.1985V49.9985V49.7985H59.099C58.999 49.6985 58.899 49.5985 58.699 49.4985C58.599 49.4985 58.599 49.5985 58.499 49.5985C58.399 49.6985 58.199 49.6985 57.999 49.7985C57.099 50.0985 55.699 50.2985 53.599 50.2985C51.399 50.2985 50.099 50.0985 49.199 49.7985C48.999 49.6985 48.799 49.6985 48.699 49.5985C48.599 49.5985 48.599 49.4985 48.499 49.4985C48.299 49.5985 48.199 49.6985 48.099 49.7985H47.999V52.2985ZM53.699 51.2985C55.499 51.2985 57.199 51.0985 58.199 50.7985H58.299V52.0985C58.099 52.1985 57.699 52.4985 56.499 52.6985C55.999 52.7985 55.299 52.7985 54.399 52.8985L53.499 52.4985L49.799 50.9985C50.799 51.1985 52.199 51.2985 53.699 51.2985Z" fill="#2988FF"/>
<path d="M47.999 48.1984V48.3984C48.099 48.4984 48.299 48.7984 48.799 49.0984C48.899 49.0984 48.999 49.1984 49.099 49.1984C49.199 49.1984 49.199 49.2984 49.299 49.2984C49.499 49.3984 49.799 49.3984 50.099 49.4984C50.899 49.6984 51.999 49.7984 53.599 49.7984C55.099 49.7984 56.199 49.6984 57.099 49.4984C57.399 49.3984 57.699 49.3984 57.899 49.2984C57.999 49.2984 57.999 49.1984 58.099 49.1984C58.199 49.1984 58.299 49.0984 58.399 49.0984C58.999 48.7984 59.199 48.4984 59.199 48.3984V46.0984V45.8984V45.6984H59.099C58.999 45.5984 58.899 45.4984 58.699 45.3984C58.599 45.3984 58.599 45.4984 58.499 45.4984C58.399 45.5984 58.199 45.5984 57.999 45.6984C57.099 45.9984 55.699 46.1984 53.599 46.1984C51.399 46.1984 50.099 45.9984 49.199 45.6984C48.999 45.5984 48.799 45.5984 48.699 45.4984C48.599 45.4984 48.599 45.3984 48.499 45.3984C48.299 45.4984 48.199 45.5984 48.099 45.6984H47.999V48.1984ZM53.699 47.1984C55.499 47.1984 57.199 46.9984 58.199 46.6984H58.299V47.9984C58.099 48.0984 57.699 48.3984 56.499 48.5984C55.999 48.6984 55.299 48.6984 54.399 48.7984L53.499 48.3984L49.899 46.8984C50.799 47.0984 52.199 47.1984 53.699 47.1984Z" fill="#2988FF"/>
<path d="M47.999 35.8986V36.0986C48.099 36.1986 48.299 36.4986 48.799 36.7986C48.899 36.7986 48.999 36.8986 49.099 36.8986C49.199 36.8986 49.199 36.9986 49.299 36.9986C49.499 37.0986 49.799 37.0986 50.099 37.1986C50.899 37.3986 51.999 37.4986 53.599 37.4986C55.099 37.4986 56.199 37.3986 57.099 37.1986C57.399 37.0986 57.699 37.0986 57.899 36.9986C57.999 36.9986 57.999 36.9986 58.099 36.8986C58.199 36.8986 58.299 36.7986 58.399 36.7986C58.999 36.4986 59.199 36.1986 59.199 36.0986V33.7986V33.5986V33.3986H59.099C58.999 33.2986 58.899 33.1986 58.699 33.0986C58.599 33.0986 58.599 33.1986 58.499 33.1986C58.399 33.2986 58.199 33.2986 57.999 33.3986C57.099 33.6986 55.699 33.8986 53.599 33.8986C51.399 33.8986 50.099 33.6986 49.199 33.3986C48.999 33.2986 48.799 33.2986 48.699 33.1986C48.599 33.1986 48.599 33.0986 48.499 33.0986C48.299 33.1986 48.199 33.2986 48.099 33.3986H47.999V35.8986ZM53.699 34.8986C55.499 34.8986 57.199 34.6986 58.199 34.3986H58.299V35.6986C58.099 35.7986 57.699 36.0986 56.499 36.2986C55.999 36.3986 55.299 36.4986 54.399 36.4986L53.399 35.9986L49.799 34.4986C50.799 34.6986 52.199 34.8986 53.699 34.8986Z" fill="#2988FF"/>
<path d="M61.5986 55.2987V55.4987C61.6986 55.6987 61.8986 55.8987 62.3986 56.1987C62.4986 56.1987 62.5986 56.2987 62.6986 56.2987C62.7986 56.2987 62.7986 56.3987 62.8986 56.3987C63.0986 56.4987 63.3986 56.4987 63.6986 56.5987C64.4986 56.7987 65.5986 56.8987 67.1986 56.8987C67.2986 56.8987 67.3986 56.8987 67.4986 56.8987C67.5986 56.8987 67.6986 56.8987 67.8986 56.8987H67.9986C68.0986 56.8987 68.1986 56.8987 68.2986 56.8987C68.4986 56.8987 68.6986 56.8987 68.8986 56.8987C68.9986 56.8987 69.1986 56.8987 69.2986 56.8987C69.5986 56.8987 69.8986 56.7987 70.0986 56.7987C70.2986 56.7987 70.3986 56.6987 70.5986 56.6987C70.6986 56.6987 70.6986 56.6987 70.7986 56.5987C70.9986 56.4987 71.1986 56.4987 71.3986 56.4987C71.4986 56.4987 71.4986 56.4987 71.5986 56.3987C71.6986 56.3987 71.7986 56.2987 71.8986 56.2987C71.9986 56.2987 71.9986 56.1987 72.0986 56.1987C72.0986 56.1987 72.0986 56.1987 72.1986 56.1987C72.3986 56.0987 72.5986 55.9987 72.6986 55.7987C72.6986 55.6987 72.7986 55.6987 72.7986 55.5987V54.6987V54.1987V53.6987V53.3987V53.2987V53.1987V52.9987H72.6986L72.5986 52.8987C72.4986 52.7987 72.3986 52.7987 72.2986 52.6987C72.1986 52.6987 72.1986 52.7987 72.0986 52.7987C71.9986 52.8987 71.8986 52.8987 71.7986 52.8987H71.6986C71.4986 52.9987 71.2986 52.9987 71.0986 53.0987C70.9986 53.0987 70.7986 53.0987 70.6986 53.1987C70.2986 53.2987 69.8986 53.2987 69.3986 53.3987C68.9986 53.3987 68.6986 53.4987 68.2986 53.4987C68.0986 53.4987 67.8986 53.4987 67.6986 53.4987H67.5986C67.4986 53.4987 67.4986 53.4987 67.3986 53.4987C67.2986 53.4987 67.2986 53.4987 67.1986 53.4987C65.0986 53.4987 63.7986 53.2987 62.8986 52.9987C62.6986 52.8987 62.4986 52.8987 62.3986 52.7987C62.2986 52.7987 62.2986 52.6987 62.1986 52.6987C61.9986 52.7987 61.8986 52.8987 61.7986 52.9987H61.5986V55.2987ZM67.0986 54.2987C67.1986 54.2987 67.1986 54.2987 67.2986 54.2987C67.3986 54.2987 67.3986 54.2987 67.4986 54.2987C67.5986 54.2987 67.6986 54.2987 67.7986 54.2987H67.8986C68.0986 54.2987 68.2986 54.2987 68.4986 54.2987C68.7986 54.2987 68.9986 54.2987 69.2986 54.1987C69.7986 54.1987 70.2986 54.0987 70.6986 53.9987C71.0986 53.8987 71.4986 53.8987 71.7986 53.7987H71.8986V53.9987V54.4987V55.0987C71.8986 55.0987 71.7986 55.1987 71.6986 55.1987C71.3986 55.2987 70.8986 55.4987 69.9986 55.6987C69.7986 55.6987 69.5986 55.6987 69.3986 55.7987C68.9986 55.7987 68.5986 55.8987 67.9986 55.8987C67.8986 55.8987 67.8986 55.8987 67.7986 55.8987L67.3986 55.7987L66.9986 55.5987H66.8986L63.3986 53.9987C64.3986 54.1987 65.6986 54.2987 67.0986 54.2987Z" fill="#2988FF"/>
<path d="M61.5986 51.1986V51.3986C61.6986 51.4986 61.8986 51.7986 62.3986 52.0986C62.4986 52.1986 62.5986 52.1986 62.6986 52.1986C62.7986 52.1986 62.7986 52.1986 62.8986 52.2986C63.0986 52.3986 63.3986 52.3986 63.6986 52.4986C64.4986 52.6986 65.5986 52.7986 67.1986 52.7986C67.2986 52.7986 67.3986 52.7986 67.4986 52.7986C67.5986 52.7986 67.6986 52.7986 67.8986 52.7986H67.9986C68.0986 52.7986 68.1986 52.7986 68.2986 52.7986C68.4986 52.7986 68.6986 52.7986 68.8986 52.7986C68.9986 52.7986 69.1986 52.7986 69.2986 52.7986C69.5986 52.7986 69.8986 52.6986 70.0986 52.6986C70.2986 52.6986 70.3986 52.5986 70.5986 52.5986C70.6986 52.5986 70.6986 52.5986 70.7986 52.5986C70.9986 52.4986 71.1986 52.4986 71.3986 52.3986C71.4986 52.3986 71.4986 52.2986 71.5986 52.2986C71.6986 52.2986 71.7986 52.1986 71.8986 52.1986C71.9986 52.1986 71.9986 52.0986 72.0986 52.0986C72.0986 52.0986 72.0986 52.0986 72.1986 52.0986C72.3986 51.9986 72.5986 51.7986 72.6986 51.6986C72.6986 51.6986 72.6986 51.6986 72.6986 51.5986C72.6986 51.4986 72.7986 51.4986 72.7986 51.3986V50.4986V49.9986V49.4986V49.1986V49.0986V48.9986V48.7986H72.6986L72.5986 48.6986C72.4986 48.5986 72.3986 48.5986 72.2986 48.5986C72.1986 48.5986 72.1986 48.6986 72.0986 48.6986C71.9986 48.6986 71.8986 48.7986 71.7986 48.7986H71.6986C71.4986 48.8986 71.2986 48.8986 71.0986 48.9986C70.9986 48.9986 70.7986 49.0986 70.6986 49.0986C70.2986 49.1986 69.8986 49.1986 69.3986 49.2986C69.0986 49.2986 68.6986 49.3986 68.2986 49.3986C68.0986 49.3986 67.8986 49.3986 67.6986 49.3986H67.5986C67.4986 49.3986 67.4986 49.3986 67.3986 49.3986C67.2986 49.3986 67.2986 49.3986 67.1986 49.3986C65.0986 49.3986 63.7986 49.1986 62.8986 48.8986C62.6986 48.7986 62.4986 48.7986 62.3986 48.6986C62.2986 48.6986 62.2986 48.5986 62.1986 48.5986C61.9986 48.6986 61.8986 48.7986 61.7986 48.8986H61.5986V51.1986ZM67.0986 50.1986C67.1986 50.1986 67.1986 50.1986 67.2986 50.1986C67.3986 50.1986 67.3986 50.1986 67.4986 50.1986C67.5986 50.1986 67.6986 50.1986 67.7986 50.1986H67.8986C68.0986 50.1986 68.2986 50.1986 68.4986 50.1986C68.7986 50.1986 68.9986 50.1986 69.2986 50.0986C69.7986 50.0986 70.2986 49.9986 70.6986 49.8986C71.0986 49.7986 71.4986 49.6986 71.7986 49.6986H71.8986V49.8986V50.3986V50.9986C71.8986 50.9986 71.7986 51.0986 71.6986 51.0986C71.3986 51.1986 70.8986 51.3986 69.9986 51.5986C69.7986 51.5986 69.5986 51.6986 69.3986 51.6986C68.9986 51.6986 68.5986 51.7986 67.9986 51.7986C67.8986 51.7986 67.8986 51.7986 67.7986 51.7986L67.3986 51.5986L66.9986 51.3986H66.8986L63.2986 49.8986C64.3986 50.0986 65.6986 50.1986 67.0986 50.1986Z" fill="#2988FF"/>
<path d="M61.5986 59.3986V59.5986C61.6986 59.6986 61.8986 59.9986 62.3986 60.2986C62.4986 60.3986 62.5986 60.3986 62.6986 60.3986C62.7986 60.3986 62.7986 60.3986 62.8986 60.4986C63.0986 60.5986 63.3986 60.5986 63.6986 60.6986C64.4986 60.8986 65.5986 60.9986 67.1986 60.9986C67.2986 60.9986 67.3986 60.9986 67.4986 60.9986C67.5986 60.9986 67.6986 60.9986 67.8986 60.9986H67.9986C68.0986 60.9986 68.1986 60.9986 68.2986 60.9986C68.4986 60.9986 68.6986 60.9986 68.8986 60.9986C68.9986 60.9986 69.1986 60.9986 69.2986 60.9986C69.5986 60.9986 69.8986 60.8986 70.0986 60.8986C70.2986 60.8986 70.3986 60.7986 70.5986 60.7986C70.6986 60.7986 70.6986 60.7986 70.7986 60.6986C70.9986 60.6986 71.1986 60.5986 71.3986 60.4986C71.4986 60.4986 71.4986 60.4986 71.5986 60.3986C71.6986 60.2986 71.7986 60.2986 71.8986 60.2986C71.9986 60.2986 71.9986 60.1986 72.0986 60.1986C72.0986 60.1986 72.0986 60.1986 72.1986 60.1986C72.3986 60.0986 72.5986 59.9986 72.6986 59.7986C72.6986 59.7986 72.6986 59.7986 72.6986 59.6986C72.6986 59.5986 72.7986 59.5986 72.7986 59.4986V58.4986V57.9986V57.4986V57.1986V57.0986V56.9986V56.7986H72.6986L72.5986 56.6986C72.4986 56.6986 72.3986 56.5986 72.2986 56.5986C72.1986 56.5986 72.1986 56.6986 72.0986 56.6986C71.9986 56.6986 71.8986 56.7986 71.7986 56.7986H71.6986C71.4986 56.8986 71.2986 56.8986 71.0986 56.9986C70.9986 56.9986 70.7986 57.0986 70.6986 57.0986C70.2986 57.1986 69.8986 57.1986 69.3986 57.2986C68.9986 57.2986 68.6986 57.3986 68.2986 57.3986C68.0986 57.3986 67.8986 57.3986 67.6986 57.3986H67.5986C67.4986 57.3986 67.4986 57.3986 67.3986 57.3986C67.2986 57.3986 67.2986 57.3986 67.1986 57.3986C65.0986 57.3986 63.7986 57.1986 62.8986 56.8986C62.6986 56.7986 62.4986 56.7986 62.3986 56.6986C62.2986 56.6986 62.2986 56.5986 62.1986 56.5986C61.9986 56.6986 61.8986 56.7986 61.7986 56.8986H61.5986V59.3986ZM67.0986 58.3986C67.1986 58.3986 67.1986 58.3986 67.2986 58.3986C67.3986 58.3986 67.3986 58.3986 67.4986 58.3986C67.5986 58.3986 67.6986 58.3986 67.7986 58.3986H67.8986C68.0986 58.3986 68.2986 58.3986 68.4986 58.3986C68.7986 58.3986 68.9986 58.3986 69.2986 58.2986C69.7986 58.2986 70.2986 58.1986 70.6986 58.0986C71.0986 57.9986 71.4986 57.8986 71.7986 57.8986H71.8986V58.0986V58.5986V59.1986C71.8986 59.1986 71.7986 59.2986 71.6986 59.2986C71.3986 59.3986 70.8986 59.5986 69.9986 59.7986C69.7986 59.7986 69.5986 59.8986 69.3986 59.8986C68.9986 59.8986 68.5986 59.9986 67.9986 59.9986C67.8986 59.9986 67.8986 59.9986 67.7986 59.9986L67.3986 59.7986L66.9986 59.5986H66.8986L63.2986 58.0986C64.3986 58.2986 65.6986 58.3986 67.0986 58.3986Z" fill="#2988FF"/>
<path d="M61.5986 47.0984V47.2984C61.6986 47.3984 61.8986 47.6984 62.3986 47.9984C62.4986 48.0984 62.5986 48.0984 62.6986 48.0984C62.7986 48.0984 62.7986 48.0984 62.8986 48.1984C63.0986 48.2984 63.3986 48.2984 63.6986 48.3984C64.4986 48.5984 65.5986 48.6984 67.1986 48.6984C67.2986 48.6984 67.3986 48.6984 67.4986 48.6984C67.5986 48.6984 67.6986 48.6984 67.8986 48.6984H67.9986C68.0986 48.6984 68.1986 48.6984 68.2986 48.6984C68.4986 48.6984 68.6986 48.6984 68.8986 48.6984C68.9986 48.6984 69.1986 48.6984 69.2986 48.6984C69.5986 48.6984 69.8986 48.5984 70.0986 48.5984C70.2986 48.5984 70.3986 48.4984 70.5986 48.4984C70.6986 48.4984 70.6986 48.4984 70.7986 48.3984C70.9986 48.3984 71.1986 48.2984 71.3986 48.2984C71.4986 48.2984 71.4986 48.2984 71.5986 48.1984C71.6986 48.0984 71.7986 48.0984 71.8986 48.0984C71.9986 48.0984 71.9986 48.0984 72.0986 47.9984C72.0986 47.9984 72.0986 47.9984 72.1986 47.9984C72.3986 47.8984 72.5986 47.7984 72.6986 47.5984C72.6986 47.4984 72.7986 47.4984 72.7986 47.3984V46.3984V45.8984V45.3984V45.0984V44.9984V44.8984V44.6984H72.6986L72.5986 44.5984C72.4986 44.4984 72.3986 44.4984 72.2986 44.3984C72.1986 44.3984 72.1986 44.4984 72.0986 44.4984C71.9986 44.5984 71.8986 44.5984 71.7986 44.5984C71.7986 44.5984 71.6986 44.5984 71.6986 44.6984C71.4986 44.7984 71.2986 44.7984 71.0986 44.8984C70.9986 44.8984 70.7986 44.9984 70.6986 44.9984C70.2986 45.0984 69.8986 45.0984 69.3986 45.1984C68.9986 45.1984 68.6986 45.2984 68.2986 45.2984C68.0986 45.2984 67.8986 45.2984 67.6986 45.2984H67.5986C67.4986 45.2984 67.4986 45.2984 67.3986 45.2984C67.2986 45.2984 67.2986 45.2984 67.1986 45.2984C65.0986 45.2984 63.7986 45.0984 62.8986 44.7984C62.6986 44.6984 62.4986 44.6984 62.3986 44.5984C62.2986 44.5984 62.2986 44.4984 62.1986 44.4984C61.9986 44.5984 61.8986 44.6984 61.7986 44.7984H61.5986V47.0984ZM67.0986 46.0984C67.1986 46.0984 67.1986 46.0984 67.2986 46.0984C67.3986 46.0984 67.3986 46.0984 67.4986 46.0984C67.5986 46.0984 67.6986 46.0984 67.7986 46.0984H67.8986C68.0986 46.0984 68.2986 46.0984 68.4986 46.0984C68.7986 46.0984 68.9986 46.0984 69.2986 45.9984C69.7986 45.9984 70.2986 45.8984 70.6986 45.7984C71.0986 45.6984 71.4986 45.6984 71.7986 45.5984H71.8986V45.7984V46.2984V46.8984C71.8986 46.8984 71.7986 46.9984 71.6986 46.9984C71.3986 47.0984 70.8986 47.2984 69.9986 47.4984C69.7986 47.4984 69.5986 47.4984 69.3986 47.5984C68.9986 47.5984 68.5986 47.6984 67.9986 47.6984C67.8986 47.6984 67.8986 47.6984 67.7986 47.6984L67.3986 47.5984L66.9986 47.3984H66.8986L63.2986 45.8984C64.3986 45.8984 65.6986 46.0984 67.0986 46.0984Z" fill="#2988FF"/>
<path d="M61.5986 42.9984V43.1984C61.6986 43.2984 61.8986 43.5984 62.3986 43.8984C62.4986 43.8984 62.5986 43.9984 62.6986 43.9984C62.7986 43.9984 62.7986 44.0984 62.8986 44.0984C63.0986 44.1984 63.3986 44.1984 63.6986 44.2984C64.4986 44.4984 65.5986 44.5984 67.1986 44.5984C67.2986 44.5984 67.3986 44.5984 67.4986 44.5984C67.5986 44.5984 67.6986 44.5984 67.8986 44.5984C67.8986 44.5984 67.8986 44.5984 67.9986 44.5984C68.0986 44.5984 68.1986 44.5984 68.2986 44.5984C68.4986 44.5984 68.6986 44.5984 68.8986 44.5984C68.9986 44.5984 69.1986 44.5984 69.2986 44.5984C69.5986 44.5984 69.8986 44.4984 70.0986 44.4984C70.2986 44.4984 70.3986 44.3984 70.5986 44.3984C70.6986 44.3984 70.6986 44.3984 70.7986 44.3984C70.9986 44.2984 71.1986 44.2984 71.3986 44.1984C71.4986 44.1984 71.4986 44.1984 71.5986 44.0984C71.6986 44.0984 71.7986 43.9984 71.8986 43.9984C71.9986 43.9984 71.9986 43.8984 72.0986 43.8984C72.0986 43.8984 72.0986 43.8984 72.1986 43.8984C72.3986 43.7984 72.5986 43.6984 72.6986 43.4984C72.6986 43.4984 72.6986 43.4984 72.6986 43.3984C72.6986 43.2984 72.7986 43.2984 72.7986 43.1984V42.2984V41.7984V41.2984V40.9984V40.8984V40.7984V40.5984H72.6986L72.5986 40.4984C72.4986 40.3984 72.3986 40.3984 72.2986 40.3984C72.1986 40.3984 72.1986 40.4984 72.0986 40.4984C71.9986 40.4984 71.8986 40.5984 71.7986 40.5984H71.6986C71.4986 40.5984 71.2986 40.6984 71.0986 40.7984C70.9986 40.7984 70.7986 40.8984 70.6986 40.8984C70.2986 40.9984 69.8986 40.9984 69.3986 41.0984C68.9986 41.0984 68.6986 41.1984 68.2986 41.1984C68.0986 41.1984 67.8986 41.1984 67.6986 41.1984H67.5986C67.4986 41.1984 67.4986 41.1984 67.3986 41.1984C67.2986 41.1984 67.2986 41.1984 67.1986 41.1984C65.0986 41.1984 63.7986 40.9984 62.8986 40.6984C62.6986 40.5984 62.4986 40.5984 62.3986 40.4984C62.2986 40.4984 62.2986 40.3984 62.1986 40.3984C61.9986 40.4984 61.8986 40.5984 61.7986 40.6984H61.5986V42.9984ZM67.0986 41.9984C67.1986 41.9984 67.1986 41.9984 67.2986 41.9984C67.3986 41.9984 67.3986 41.9984 67.4986 41.9984C67.5986 41.9984 67.6986 41.9984 67.7986 41.9984H67.8986C68.0986 41.9984 68.2986 41.9984 68.4986 41.9984C68.7986 41.9984 68.9986 41.9984 69.2986 41.8984C69.7986 41.8984 70.2986 41.7984 70.6986 41.6984C71.0986 41.5984 71.4986 41.4984 71.7986 41.4984H71.8986V41.6984V42.1984V42.7984C71.8986 42.7984 71.7986 42.8984 71.6986 42.8984C71.3986 42.9984 70.8986 43.1984 70.0986 43.2984C69.8986 43.2984 69.6986 43.3984 69.4986 43.3984C69.0986 43.3984 68.6986 43.4984 68.0986 43.4984C67.9986 43.4984 67.9986 43.4984 67.8986 43.4984L67.4986 43.3984L67.0986 43.1984H66.9986L63.3986 41.6984C64.3986 41.7984 65.6986 41.9984 67.0986 41.9984Z" fill="#2988FF"/>
<path d="M61.5986 63.4984V63.6984C61.6986 63.7984 61.8986 64.0984 62.3986 64.3984C62.4986 64.3984 62.5986 64.4984 62.6986 64.4984C62.7986 64.4984 62.7986 64.5984 62.8986 64.5984C63.0986 64.6984 63.3986 64.6984 63.6986 64.7984C64.4986 64.9984 65.5986 65.0984 66.9986 65.0984C67.0986 65.0984 67.0986 65.0984 67.1986 65.0984C67.2986 65.0984 67.2986 65.0984 67.3986 65.0984C67.4986 65.0984 67.4986 65.0984 67.5986 65.0984C67.6986 65.0984 67.7986 65.0984 67.8986 65.0984C68.0986 65.0984 68.1986 65.0984 68.3986 65.0984C68.5986 65.0984 68.7986 65.0984 68.8986 65.0984C68.9986 65.0984 69.1986 65.0984 69.2986 65.0984C69.3986 65.0984 69.5986 65.0984 69.6986 65.0984C69.7986 65.0984 69.9986 65.0984 70.0986 64.9984C70.2986 64.9984 70.3986 64.8984 70.5986 64.8984C70.6986 64.8984 70.6986 64.8984 70.7986 64.8984C70.9986 64.7984 71.1986 64.7984 71.3986 64.7984C71.4986 64.7984 71.4986 64.6984 71.5986 64.6984C71.6986 64.6984 71.7986 64.5984 71.8986 64.5984C71.9986 64.5984 71.9986 64.4984 71.9986 64.4984H72.0986C72.2986 64.3984 72.4986 64.1984 72.5986 64.0984C72.5986 64.0984 72.5986 64.0984 72.5986 63.9984C72.5986 63.8984 72.6986 63.8984 72.6986 63.7984V63.5984V62.7984V62.2984V61.7984V61.4984V61.3984V61.2984V61.0984H72.5986L72.4986 60.9984C72.3986 60.8984 72.2986 60.8984 72.1986 60.8984C72.0986 60.8984 72.0986 60.9984 71.9986 60.9984C71.8986 60.9984 71.7986 61.0984 71.6986 61.0984H71.5986C71.3986 61.1984 71.1986 61.1984 70.9986 61.2984C70.8986 61.2984 70.6986 61.3984 70.5986 61.3984C70.1986 61.4984 69.7986 61.4984 69.2986 61.5984C68.9986 61.5984 68.5986 61.5984 68.1986 61.6984C67.9986 61.6984 67.7986 61.6984 67.5986 61.6984H67.4986C67.3986 61.6984 67.3986 61.6984 67.2986 61.6984C67.1986 61.6984 67.1986 61.6984 67.0986 61.6984C64.9986 61.6984 63.6986 61.4984 62.7986 61.1984C62.5986 61.0984 62.3986 61.0984 62.2986 60.9984C62.1986 60.9984 62.1986 60.8984 62.0986 60.8984C61.8986 60.9984 61.7986 61.0984 61.6986 61.1984H61.5986V63.4984ZM67.0986 62.4984C67.1986 62.4984 67.1986 62.4984 67.2986 62.4984C67.3986 62.4984 67.3986 62.4984 67.4986 62.4984C67.5986 62.4984 67.6986 62.4984 67.7986 62.4984H67.8986C68.0986 62.4984 68.2986 62.4984 68.4986 62.4984C68.7986 62.4984 68.9986 62.4984 69.2986 62.4984C69.7986 62.4984 70.2986 62.3984 70.6986 62.2984C71.0986 62.1984 71.4986 62.0984 71.7986 62.0984H71.8986V62.2984V62.7984V63.3984C71.8986 63.3984 71.7986 63.4984 71.6986 63.4984C71.5986 63.5984 71.3986 63.5984 71.1986 63.6984C70.8986 63.7984 70.5986 63.8984 70.0986 63.8984C69.8986 63.8984 69.6986 63.9984 69.4986 63.9984C69.3986 63.9984 69.3986 63.9984 69.2986 63.9984C68.9986 63.9984 68.5986 64.0984 68.0986 64.0984C67.9986 64.0984 67.9986 64.0984 67.8986 64.0984L67.4986 63.9984L67.0986 63.7984H66.9986L63.3986 62.2984C64.3986 62.3984 65.6986 62.4984 67.0986 62.4984Z" fill="#2988FF"/>
<path d="M61.5986 71.7985V71.9985C61.5986 72.0985 61.7986 72.2985 62.0986 72.4985C62.1986 72.4985 62.1986 72.5985 62.2986 72.5985C62.3986 72.5985 62.3986 72.6985 62.4986 72.6985C62.6986 72.7985 62.7986 72.7985 63.0986 72.8985C63.1986 72.8985 63.2986 72.9985 63.3986 72.9985C64.1986 73.1985 65.4986 73.3985 67.2986 73.3985C69.0986 73.3985 70.3986 73.1985 71.1986 72.9985C71.2986 72.9985 71.3986 72.8985 71.4986 72.8985C71.6986 72.7985 71.8986 72.7985 72.0986 72.6985C72.1986 72.6985 72.1986 72.5985 72.2986 72.5985C72.3986 72.5985 72.4986 72.4985 72.4986 72.4985C72.7986 72.2985 72.8986 72.0985 72.9986 71.9985V69.6985V69.5985V69.4985V69.2985H72.8986C72.8986 69.2985 72.7986 69.1985 72.6986 69.1985C72.5986 69.1985 72.5986 69.0985 72.4986 69.0985C72.3986 69.0985 72.3986 69.1985 72.2986 69.1985C72.2986 69.1985 72.2986 69.1985 72.1986 69.1985C72.0986 69.1985 71.9986 69.2985 71.8986 69.2985H71.7986C71.4986 69.3985 71.1986 69.4985 70.7986 69.4985C69.9986 69.6985 68.8986 69.7985 67.3986 69.7985C65.1986 69.7985 63.8986 69.5985 62.9986 69.2985C62.7986 69.1985 62.5986 69.1985 62.4986 69.0985C62.3986 69.0985 62.3986 68.9985 62.2986 68.9985C62.0986 69.0985 61.9986 69.1985 61.8986 69.2985H61.5986V71.7985ZM67.2986 70.7985C69.0986 70.7985 70.7986 70.5985 71.7986 70.2985H71.8986V71.5985C71.7986 71.6985 71.4986 71.7985 70.9986 71.9985C70.7986 72.0985 70.4986 72.0985 70.1986 72.1985C70.0986 72.1985 70.0986 72.1985 69.9986 72.1985C69.4986 72.2985 68.7986 72.2985 67.8986 72.3985L66.9986 71.9985L66.1986 71.5985L63.3986 70.3985C64.3986 70.5985 65.7986 70.7985 67.2986 70.7985Z" fill="#2988FF"/>
<path d="M61.5986 67.5983V67.7983C61.6986 67.8983 61.8986 68.1983 62.3986 68.4983C62.4986 68.5983 62.5986 68.5983 62.6986 68.5983C62.7986 68.5983 62.7986 68.5983 62.8986 68.6983C63.0986 68.7983 63.3986 68.7983 63.6986 68.8983C64.4986 69.0983 65.5986 69.1983 67.1986 69.1983C67.7986 69.1983 68.3986 69.1983 68.8986 69.0983C69.3986 69.0983 69.7986 68.9983 70.1986 68.9983C70.2986 68.9983 70.4986 68.9983 70.5986 68.8983C70.5986 68.8983 70.5986 68.8983 70.6986 68.8983C70.9986 68.7983 71.1986 68.7983 71.3986 68.6983C71.3986 68.6983 71.3986 68.6983 71.4986 68.6983C71.5986 68.6983 71.5986 68.6983 71.6986 68.5983C71.7986 68.5983 71.7986 68.5983 71.8986 68.4983C71.9986 68.4983 71.9986 68.3983 72.0986 68.3983C72.4986 68.1983 72.6986 68.0983 72.7986 67.8983C72.8986 67.7983 72.8986 67.7983 72.8986 67.6983V67.4983V66.2983V65.7983V65.6983V65.3983V65.2983V65.1983V64.9983H72.7986L72.6986 64.8983C72.5986 64.8983 72.5986 64.7983 72.4986 64.7983C72.3986 64.7983 72.3986 64.8983 72.2986 64.8983H72.1986C72.0986 64.8983 71.9986 64.9983 71.8986 64.9983H71.7986C71.5986 65.0983 71.3986 65.0983 71.1986 65.1983C71.0986 65.1983 70.8986 65.2983 70.7986 65.2983C70.3986 65.3983 69.9986 65.3983 69.4986 65.4983C69.0986 65.4983 68.5986 65.5983 67.9986 65.5983H67.8986C67.7986 65.5983 67.6986 65.5983 67.5986 65.5983C67.4986 65.5983 67.4986 65.5983 67.3986 65.5983C67.2986 65.5983 67.2986 65.5983 67.1986 65.5983C65.0986 65.5983 63.7986 65.3983 62.8986 65.0983C62.6986 64.9983 62.4986 64.9983 62.3986 64.8983C62.2986 64.8983 62.2986 64.7983 62.1986 64.7983C61.9986 64.8983 61.8986 64.9983 61.7986 65.0983H61.5986V67.5983ZM67.0986 66.5983C67.1986 66.5983 67.1986 66.5983 67.2986 66.5983C67.3986 66.5983 67.3986 66.5983 67.4986 66.5983C67.5986 66.5983 67.5986 66.5983 67.6986 66.5983C67.7986 66.5983 67.7986 66.5983 67.8986 66.5983C68.0986 66.5983 68.2986 66.5983 68.4986 66.5983C68.9986 66.5983 69.5986 66.4983 69.9986 66.4983C70.1986 66.4983 70.3986 66.3983 70.6986 66.3983C71.0986 66.2983 71.4986 66.1983 71.7986 66.1983H71.8986V66.4983V67.2983V67.4983C71.7986 67.5983 71.3986 67.7983 70.5986 67.9983C70.3986 67.9983 70.1986 68.0983 69.9986 68.0983C69.5986 68.1983 69.0986 68.1983 68.3986 68.2983C68.1986 68.2983 68.0986 68.2983 67.8986 68.2983C67.8986 68.2983 67.8986 68.2983 67.7986 68.2983L67.5986 67.9983L67.0986 67.7983H66.9986L63.3986 66.2983C64.3986 66.4983 65.6986 66.5983 67.0986 66.5983Z" fill="#2988FF"/>
<path d="M80.4982 65.9983V65.8983C79.9982 65.8983 79.5982 65.8983 79.1982 65.7983V65.9983V66.4983C79.5982 66.4983 80.0982 66.4983 80.4982 66.4983V65.9983Z" fill="#2988FF"/>
<path d="M72.7986 36.2985C72.6986 36.1985 72.6986 36.1985 72.6986 36.1985C72.5986 36.0985 72.4986 36.0985 72.3986 35.9985C72.2986 35.9985 72.2986 36.0985 72.1986 36.0985C72.0986 36.0985 71.9986 36.1985 71.8986 36.1985H71.7986C71.5986 36.2985 71.3986 36.2985 71.1986 36.3985C71.0986 36.3985 70.8986 36.4985 70.7986 36.4985C70.3986 36.5985 69.9986 36.5985 69.4986 36.6985C69.0986 36.6985 68.7986 36.7985 68.3986 36.7985C68.1986 36.7985 67.9986 36.7985 67.7986 36.7985H67.6986C67.5986 36.7985 67.5986 36.7985 67.4986 36.7985C67.3986 36.7985 67.3986 36.7985 67.2986 36.7985C65.1986 36.7985 63.8986 36.5985 62.9986 36.2985C62.7986 36.1985 62.5986 36.1985 62.4986 36.0985C62.3986 36.0985 62.3986 35.9985 62.2986 35.9985C62.0986 36.0985 61.9986 36.1985 61.8986 36.2985H61.5986V38.7985V38.9985C61.6986 39.0985 61.8986 39.3985 62.3986 39.6985C62.4986 39.7985 62.5986 39.7985 62.6986 39.7985C62.7986 39.7985 62.7986 39.7985 62.8986 39.8985C63.0986 39.9985 63.3986 39.9985 63.6986 40.0985C64.4986 40.2985 65.5986 40.3985 67.1986 40.3985C67.2986 40.3985 67.3986 40.3985 67.4986 40.3985C67.5986 40.3985 67.6986 40.3985 67.8986 40.3985C67.8986 40.3985 67.8986 40.3985 67.9986 40.3985C68.0986 40.3985 68.1986 40.3985 68.2986 40.3985C68.4986 40.3985 68.6986 40.3985 68.8986 40.3985C68.9986 40.3985 69.1986 40.3985 69.2986 40.3985C69.5986 40.3985 69.8986 40.2985 70.0986 40.2985C70.2986 40.2985 70.3986 40.1985 70.5986 40.1985C70.6986 40.1985 70.6986 40.1985 70.7986 40.1985C70.9986 40.0985 71.1986 40.0985 71.3986 40.0985C71.4986 40.0985 71.4986 39.9985 71.5986 39.9985C71.6986 39.9985 71.7986 39.8985 71.8986 39.8985C71.9986 39.8985 71.9986 39.8985 72.0986 39.7985C72.0986 39.7985 72.0986 39.7985 72.1986 39.7985C72.3986 39.6985 72.5986 39.4985 72.6986 39.3985C72.6986 39.3985 72.6986 39.3985 72.6986 39.2985C72.6986 39.1985 72.7986 39.1985 72.7986 39.0985V38.1985V37.6985V37.1985V36.8985V36.7985V36.6985V36.4985V36.2985ZM71.8986 37.5985V38.0985V38.6985C71.8986 38.6985 71.7986 38.7985 71.6986 38.7985C71.3986 38.8985 70.8986 39.0985 70.0986 39.2985C69.8986 39.2985 69.6986 39.3985 69.4986 39.3985C69.0986 39.3985 68.6986 39.4985 68.0986 39.4985C67.9986 39.4985 67.9986 39.4985 67.8986 39.4985L67.4986 39.2985L67.0986 39.0985H66.9986L63.3986 37.5985C64.3986 37.7985 65.6986 37.8985 67.0986 37.9985C67.1986 37.9985 67.1986 37.9985 67.2986 37.9985C67.3986 37.9985 67.3986 37.9985 67.4986 37.9985C67.5986 37.9985 67.6986 37.9985 67.7986 37.9985H67.8986C68.0986 37.9985 68.2986 37.9985 68.4986 37.9985C68.7986 37.9985 68.9986 37.9985 69.2986 37.8985C69.7986 37.8985 70.2986 37.7985 70.6986 37.6985C71.0986 37.5985 71.4986 37.4985 71.7986 37.4985H71.8986V37.5985Z" fill="#2988FF"/>
<path d="M67.4984 30.7987C67.5984 30.7987 67.6984 30.7987 67.7984 30.7987H67.8984C68.1984 30.7987 68.4984 30.7987 68.7984 30.8987C69.4984 30.9987 70.2984 31.0987 70.8984 31.1987C71.1984 31.2987 71.3984 31.2987 71.5984 31.3987C71.6984 31.3987 71.6984 31.4987 71.7984 31.4987C72.0984 31.5987 72.2984 31.6987 72.4984 31.8987C72.5984 31.9987 72.6984 31.9987 72.7984 32.0987C72.8984 32.1987 72.8984 32.1987 72.9984 32.2987L73.0984 32.3987H73.1984V32.5987C74.6984 32.5987 75.6984 32.4987 76.4984 32.2987C76.7984 32.1987 77.0984 32.1987 77.2984 32.0987C77.3984 32.0987 77.3984 32.0987 77.4984 31.9987C77.5984 31.9987 77.6984 31.8987 77.7984 31.8987C78.3984 31.5987 78.5984 31.3987 78.5984 31.1987V28.8987V28.6987V28.4987H78.4984C78.3984 28.3987 78.2984 28.2987 78.0984 28.1987C77.9984 28.1987 77.9984 28.2987 77.8984 28.2987C77.7984 28.3987 77.5984 28.3987 77.3984 28.4987C76.4984 28.7987 75.0984 28.9987 72.9984 28.9987C70.7984 28.9987 69.4984 28.7987 68.5984 28.4987C68.3984 28.3987 68.1984 28.3987 68.0984 28.2987C67.9984 28.2987 67.9984 28.1987 67.8984 28.1987C67.6984 28.2987 67.5984 28.3987 67.4984 28.4987H67.3984V30.7987H67.4984ZM73.1984 29.8987C74.9984 29.8987 76.6984 29.6987 77.6984 29.3987H77.7984V30.6987C77.5984 30.7987 77.1984 31.0987 75.9984 31.2987C75.4984 31.3987 74.7984 31.4987 73.8984 31.4987L72.8984 30.9987L69.2984 29.4987C70.2984 29.6987 71.6984 29.8987 73.1984 29.8987Z" fill="#2988FF"/>
<path d="M67.4984 24.1987V26.6987V26.8987C67.5984 26.9987 67.7984 27.2987 68.2984 27.5987C68.3984 27.6987 68.4984 27.6987 68.5984 27.6987C68.6984 27.6987 68.6984 27.6987 68.7984 27.7987C68.9984 27.8987 69.2984 27.8987 69.5984 27.9987C70.3984 28.1987 71.4984 28.2987 72.9984 28.2987C74.4984 28.2987 75.5984 28.1987 76.3984 27.9987C76.6984 27.8987 76.9984 27.8987 77.1984 27.7987C77.2984 27.7987 77.2984 27.7987 77.3984 27.6987C77.4984 27.5987 77.5984 27.5987 77.6984 27.5987C78.2984 27.2987 78.4984 26.9987 78.4984 26.8987V24.5987V24.3987V24.1987H78.3984C77.8984 23.5987 75.5984 23.1987 72.8984 23.1987C70.1984 23.1987 67.8984 23.5987 67.3984 24.1987H67.4984ZM73.1984 25.7987C74.9984 25.7987 76.6984 25.5987 77.6984 25.2987H77.7984V26.5987C77.5984 26.6987 77.1984 26.9987 75.9984 27.1987C75.4984 27.2987 74.7984 27.2987 73.8984 27.3987L72.9984 26.9987L69.3984 25.4987C70.2984 25.5987 71.6984 25.7987 73.1984 25.7987Z" fill="#2988FF"/>
<path d="M92.0988 68.6986C91.9988 68.5986 91.8988 68.6986 91.8988 68.6986C91.8988 68.6986 91.8988 68.6986 91.7988 68.6986C91.6988 68.7986 91.5988 68.7986 91.3988 68.8986C90.4988 69.2986 89.0988 69.5986 86.4988 69.5986C85.2988 69.5986 84.3988 69.4986 83.5988 69.3986C83.0988 69.2986 82.5988 69.1986 82.2988 69.0986C82.1988 69.0986 81.9988 68.9986 81.8988 68.9986C81.7988 68.9986 81.6988 68.8986 81.5988 68.8986C81.4988 68.8986 81.3988 68.7986 81.2988 68.7986C81.1988 68.7986 81.1988 68.6986 81.1988 68.6986C81.1988 68.6986 81.1988 68.6986 81.0988 68.6986L80.9988 68.5986C80.9988 68.5986 80.8988 68.5986 80.8988 68.6986H80.7988V68.7986V68.9986V69.0986V69.1986V69.5986V70.8986V71.1986V71.3986C80.8988 71.6986 81.7988 72.7986 86.3988 72.7986C90.9988 72.7986 91.8988 71.6986 91.9988 71.3986V69.0986V68.8986V68.6986H92.0988ZM91.1988 70.9986C90.9988 71.1986 89.9988 71.6986 87.1988 71.6986L82.6988 69.7986C83.6988 69.9986 85.0988 70.0986 86.5988 70.0986C88.3988 70.0986 90.0988 69.8986 91.0988 69.5986H91.1988V70.9986Z" fill="#2988FF"/>
<path d="M78.6982 32.3986C78.5982 32.2986 78.4982 32.1986 78.2982 32.0986C78.1982 32.0986 78.1982 32.1986 78.0982 32.1986C77.9982 32.2986 77.7982 32.2986 77.5982 32.3986C76.6982 32.6986 75.3982 32.8986 73.2982 32.8986V33.3986V33.8986C75.0982 33.8986 76.6982 33.6986 77.6982 33.3986H77.7982V34.6986C77.5982 34.7986 77.1982 35.0986 75.9982 35.2986C75.4982 35.3986 74.7982 35.3986 73.8982 35.4986L73.3982 35.2986C73.3982 35.3986 73.2982 35.3986 73.1982 35.4986C73.0982 35.5986 72.8982 35.6986 72.6982 35.8986C72.7982 35.9986 72.8982 35.9986 72.9982 36.0986C73.0982 36.1986 73.0982 36.1986 73.1982 36.2986L73.2982 36.3986H73.3982V36.5986C74.0982 36.5986 74.6982 36.5986 75.2982 36.4986C75.3982 36.4986 75.4982 36.4986 75.5982 36.4986C75.6982 36.4986 75.8982 36.4986 75.9982 36.3986C76.2982 36.3986 76.4982 36.2986 76.6982 36.2986C76.9982 36.1986 77.2982 36.1986 77.4982 36.0986C77.5982 36.0986 77.5982 36.0986 77.6982 35.9986C77.7982 35.9986 77.8982 35.8986 77.9982 35.8986C78.0982 35.7986 78.1982 35.7986 78.2982 35.6986C78.2982 35.6986 78.3982 35.6986 78.3982 35.5986C78.5982 35.3986 78.7982 35.2986 78.7982 35.1986V35.0986V32.7986V32.5986V32.3986H78.6982Z" fill="#2988FF"/>
<path d="M78.6986 36.5983C78.5986 36.4983 78.4986 36.3983 78.2986 36.2983C78.1986 36.2983 78.1986 36.3983 78.0986 36.3983C77.9986 36.4983 77.7986 36.4983 77.5986 36.5983C77.0986 36.6983 76.5986 36.8983 75.7986 36.9983C75.5986 36.9983 75.4986 36.9983 75.2986 37.0983C75.1986 37.0983 75.0986 37.0983 74.8986 37.0983C74.3986 37.0983 73.8986 37.1983 73.3986 37.1983V37.6983V38.1983C73.8986 38.1983 74.4986 38.1983 74.9986 38.0983C75.0986 38.0983 75.2986 38.0983 75.3986 38.0983C75.4986 38.0983 75.5986 38.0983 75.6986 38.0983H75.7986C75.9986 38.0983 76.1986 38.0983 76.3986 37.9983C76.6986 37.9983 76.8986 37.8983 77.1986 37.8983C77.3986 37.8983 77.5986 37.7983 77.7986 37.6983H77.8986V37.9983V38.1983V38.9983C77.7986 39.0983 77.5986 39.1983 77.0986 39.2983C76.7986 39.3983 76.4986 39.4983 75.9986 39.4983C75.8986 39.4983 75.8986 39.4983 75.7986 39.4983C75.6986 39.4983 75.5986 39.4983 75.4986 39.4983C75.3986 39.4983 75.3986 39.4983 75.2986 39.4983C75.1986 39.4983 74.9986 39.4983 74.8986 39.4983C74.5986 39.4983 74.1986 39.4983 73.7986 39.5983L73.2986 39.3983C73.2986 39.3983 73.1986 39.4983 73.0986 39.5983C72.9986 39.6983 72.7986 39.8983 72.5986 39.9983C72.6986 40.0983 72.7986 40.0983 72.7986 40.1983C72.8986 40.2983 72.8986 40.2983 72.9986 40.3983L73.0986 40.4983H73.1986V40.6983C73.8986 40.6983 74.4986 40.6983 75.0986 40.5983C75.1986 40.5983 75.2986 40.5983 75.3986 40.5983C75.4986 40.5983 75.6986 40.5983 75.7986 40.4983C75.7986 40.4983 75.7986 40.4983 75.8986 40.4983C76.0986 40.4983 76.2986 40.3983 76.4986 40.3983C76.5986 40.3983 76.5986 40.3983 76.5986 40.3983C76.6986 40.3983 76.7986 40.3983 76.8986 40.2983C76.9986 40.2983 77.0986 40.1983 77.2986 40.1983H77.3986C77.3986 40.1983 77.3986 40.1983 77.4986 40.1983C77.5986 40.1983 77.6986 40.0983 77.7986 40.0983C77.8986 40.0983 77.9986 39.9983 78.0986 39.9983C78.0986 39.9983 78.1986 39.9983 78.1986 39.8983C78.2986 39.7983 78.3986 39.6983 78.4986 39.5983C78.4986 39.4983 78.5986 39.4983 78.5986 39.4983V39.3983V38.5983V38.0983V37.6983V37.0983V36.8983V36.6983H78.6986V36.5983Z" fill="#2988FF"/>
<path d="M92.0984 64.9987C91.9984 64.8987 91.8984 64.7987 91.6984 64.6987C91.5984 64.6987 91.5984 64.7987 91.4984 64.7987C91.3984 64.8987 91.1984 64.8987 90.9984 64.9987C90.1984 65.2987 88.8984 65.4987 86.9984 65.4987C86.8984 65.4987 86.7984 65.4987 86.5984 65.4987H86.4984C86.3984 65.4987 86.2984 65.4987 86.1984 65.4987C85.7984 65.4987 85.3984 65.4987 85.0984 65.4987C84.5984 65.4987 84.0984 65.3987 83.6984 65.3987C83.4984 65.3987 83.3984 65.2987 83.1984 65.2987C82.8984 65.2987 82.5984 65.1987 82.2984 65.0987C82.1984 65.0987 82.0984 65.0987 82.0984 64.9987C81.8984 64.8987 81.7984 64.8987 81.5984 64.7987C81.4984 64.7987 81.4984 64.6987 81.3984 64.6987C81.1984 64.7987 81.0984 64.8987 80.9984 64.9987H80.8984V65.0987V65.1987V65.2987V65.3987V65.7987V65.9987V66.4987V67.1987V67.4987V67.6987V67.7987C80.8984 67.8987 80.9984 67.9987 81.0984 67.9987C81.1984 68.0987 81.1984 68.0987 81.2984 68.1987C81.3984 68.1987 81.3984 68.2987 81.4984 68.2987C81.5984 68.2987 81.5984 68.3987 81.6984 68.3987C81.8984 68.4987 81.9984 68.4987 82.2984 68.5987C82.3984 68.5987 82.4984 68.6987 82.5984 68.6987C82.6984 68.6987 82.6984 68.6987 82.7984 68.6987C83.0984 68.7987 83.2984 68.7987 83.6984 68.8987C83.7984 68.8987 83.9984 68.8987 84.1984 68.8987C84.5984 68.8987 84.9984 68.9987 85.4984 68.9987C85.8984 68.9987 86.1984 68.9987 86.6984 68.9987C88.4984 68.9987 89.7984 68.7987 90.5984 68.5987C90.6984 68.5987 90.7984 68.4987 90.8984 68.4987C91.0984 68.3987 91.2984 68.3987 91.4984 68.2987C91.5984 68.2987 91.5984 68.1987 91.6984 68.1987C91.7984 68.1987 91.8984 68.0987 91.8984 68.0987C92.1984 67.8987 92.2984 67.6987 92.3984 67.5987V65.2987V65.0987V64.8987H92.0984V64.9987ZM91.1984 67.2987C91.0984 67.3987 90.7984 67.4987 90.2984 67.6987C90.0984 67.7987 89.7984 67.7987 89.4984 67.8987C89.4984 67.8987 89.3984 67.8987 89.2984 67.8987C88.7984 67.9987 88.0984 67.9987 87.1984 68.0987L86.8984 67.9987L86.5984 67.7987H86.4984L86.2984 67.6987L86.1984 67.5987L85.4984 67.2987L83.2984 66.3987L82.7984 66.1987C83.0984 66.2987 83.3984 66.2987 83.7984 66.3987C84.3984 66.4987 84.9984 66.4987 85.6984 66.5987C85.8984 66.5987 86.0984 66.5987 86.2984 66.5987C86.3984 66.5987 86.4984 66.5987 86.6984 66.5987C86.7984 66.5987 86.8984 66.5987 87.0984 66.5987C88.7984 66.5987 90.2984 66.3987 91.1984 66.0987H91.2984V67.2987H91.1984Z" fill="#2988FF"/>
<path d="M79.1986 67.9986C79.1986 68.0986 79.0986 68.2986 78.7986 68.4986C78.6986 68.5986 78.5986 68.5986 78.4986 68.6986C78.3986 68.7986 78.1986 68.7986 78.0986 68.8986C78.6986 68.9986 79.5986 68.9986 80.4986 69.0986V68.8986H80.6986C80.7986 68.7986 80.8986 68.6986 80.8986 68.5986C80.5986 68.3986 80.4986 68.1986 80.4986 68.0986V67.9986V67.6986L79.1986 67.0986V67.9986Z" fill="#2988FF"/>
<path d="M59.1986 29.1984C59.0986 29.0984 58.9986 28.9984 58.7986 28.8984C58.7986 28.9984 58.6986 28.9984 58.5986 28.9984C58.4986 29.0984 58.2986 29.0984 58.0986 29.1984C57.1986 29.4984 55.7986 29.6984 53.6986 29.6984C51.4986 29.6984 50.1986 29.4984 49.2986 29.1984C49.0986 29.0984 48.8986 29.0984 48.7986 28.9984C48.6986 28.9984 48.6986 28.8984 48.5986 28.8984C48.3986 28.9984 48.2986 29.0984 48.1986 29.1984H48.0986V31.6984V31.8984C48.1986 31.9984 48.3986 32.2984 48.8986 32.5984C48.9986 32.6984 49.0986 32.6984 49.1986 32.6984C49.2986 32.6984 49.2986 32.6984 49.3986 32.7984C49.5986 32.8984 49.8986 32.8984 50.1986 32.9984C50.9986 33.1984 52.0986 33.2984 53.6986 33.2984C55.1986 33.2984 56.2986 33.1984 57.1986 32.9984C57.4986 32.8984 57.7986 32.8984 57.9986 32.7984C58.0986 32.7984 58.0986 32.7984 58.1986 32.6984C58.2986 32.5984 58.3986 32.5984 58.4986 32.5984C59.0986 32.2984 59.2986 31.9984 59.2986 31.8984V29.5984V29.3984V29.1984H59.1986ZM58.2986 31.5984C58.0986 31.6984 57.6986 31.9984 56.4986 32.1984C55.9986 32.2984 55.2986 32.2984 54.3986 32.3984L53.4986 31.9984L49.8986 30.4984C50.8986 30.6984 52.2986 30.7984 53.7986 30.7984C55.5986 30.7984 57.2986 30.5984 58.2986 30.2984H58.3986V31.5984H58.2986Z" fill="#2988FF"/>
<path d="M78.1982 64.4987L78.2982 64.3987C78.3982 64.2987 78.4982 64.1987 78.5982 64.0987C78.5982 63.9987 78.6982 63.9987 78.6982 63.8987C78.6982 63.8987 78.6982 63.8987 78.6982 63.7987V63.4987V62.9987V62.4987V62.0987V61.4987C78.4982 61.4987 78.3982 61.4987 78.1982 61.3987C77.6982 61.2987 77.2982 61.2987 76.9982 61.1987C76.6982 61.2987 76.1982 61.3987 75.7982 61.3987C75.5982 61.3987 75.4982 61.3987 75.2982 61.4987C75.1982 61.4987 75.0982 61.4987 74.8982 61.4987C74.3982 61.4987 73.8982 61.4987 73.3982 61.4987V61.9987V62.4987C73.8982 62.4987 74.4982 62.4987 74.9982 62.3987C75.0982 62.3987 75.2982 62.3987 75.3982 62.3987C75.4982 62.3987 75.5982 62.3987 75.6982 62.3987H75.7982C75.9982 62.3987 76.1982 62.2987 76.3982 62.2987C76.6982 62.2987 76.8982 62.1987 77.1982 62.1987C77.3982 62.0987 77.5982 62.0987 77.7982 61.9987H77.8982V62.2987V62.4987V63.2987C77.7982 63.3987 77.5982 63.4987 77.0982 63.6987H76.9982C76.7982 63.7987 76.4982 63.7987 76.1982 63.8987H76.0982C75.9982 63.8987 75.9982 63.8987 75.8982 63.8987C75.7982 63.8987 75.6982 63.8987 75.5982 63.8987C75.4982 63.8987 75.4982 63.8987 75.3982 63.8987C75.2982 63.8987 75.0982 63.8987 74.9982 63.8987C74.6982 63.8987 74.2982 63.9987 73.8982 63.9987L73.3982 63.7987C73.3982 63.8987 73.2982 63.8987 73.1982 63.9987C73.0982 64.0987 72.8982 64.2987 72.6982 64.3987C72.7982 64.4987 72.8982 64.4987 72.9982 64.5987C72.9982 64.5987 72.9982 64.5987 73.0982 64.6987L73.1982 64.7987L73.2982 64.8987H73.3982V65.0987C73.9982 65.0987 74.4982 65.0987 74.9982 64.9987C75.0982 64.9987 75.2982 64.9987 75.3982 64.9987H75.4982C75.6982 64.9987 75.8982 64.9987 76.0982 64.8987C76.0982 64.8987 76.0982 64.8987 76.1982 64.8987C76.4982 64.8987 76.6982 64.7987 76.8982 64.7987C76.9982 64.7987 77.0982 64.7987 77.1982 64.6987C77.2982 64.6987 77.3982 64.6987 77.4982 64.5987C77.5982 64.5987 77.5982 64.5987 77.6982 64.4987C77.7982 64.3987 77.9982 64.3987 78.0982 64.3987C78.1982 64.3987 78.1982 64.2987 78.2982 64.2987C78.0982 64.5987 78.1982 64.5987 78.1982 64.4987Z" fill="#2988FF"/>
<path d="M40.0986 70.2983V70.4983V72.1983V72.4983V72.6983C40.1986 72.9983 41.0986 74.0983 45.6986 74.0983C50.2986 74.0983 51.1986 72.9983 51.2986 72.6983V70.3983V70.2983V70.1983V69.9983H51.1986C51.1986 69.9983 51.0986 69.8983 50.9986 69.8983C50.8986 69.8983 50.8986 69.7983 50.7986 69.7983L50.6986 69.8983C50.6986 69.8983 50.6986 69.8983 50.5986 69.8983C50.4986 69.8983 50.4986 69.9983 50.3986 69.9983C50.2986 69.9983 50.1986 70.0983 50.0986 70.0983C49.9986 70.0983 49.7986 70.1983 49.6986 70.1983C48.7986 70.3983 47.4986 70.5983 45.6986 70.5983C43.4986 70.5983 42.1986 70.3983 41.2986 70.0983C41.0986 69.9983 40.8986 69.9983 40.7986 69.8983C40.6986 69.8983 40.6986 69.7983 40.5986 69.7983C40.3986 69.8983 40.2986 69.9983 40.1986 70.0983H40.0986V70.2983ZM45.7986 71.4983C47.5986 71.4983 49.2986 71.2983 50.2986 70.9983H50.3986V72.2983C50.1986 72.4983 49.1986 72.9983 46.3986 72.9983L41.8986 71.0983C42.8986 71.3983 44.2986 71.4983 45.7986 71.4983Z" fill="#2988FF"/>
<path d="M40.0986 65.8985V66.1985V66.3985V68.0985V68.3985V68.5985C40.1986 68.6985 40.3986 68.9985 40.8986 69.2985C40.9986 69.3985 41.0986 69.3985 41.1986 69.3985C41.2986 69.3985 41.2986 69.3985 41.3986 69.4985C41.5986 69.5985 41.8986 69.5985 42.1986 69.6985C42.9986 69.8985 44.0986 69.9985 45.6986 69.9985C46.9986 69.9985 47.8986 69.8985 48.6986 69.7985C48.8986 69.7985 48.9986 69.6985 49.1986 69.6985C49.2986 69.6985 49.3986 69.6985 49.4986 69.5985C49.5986 69.5985 49.6986 69.4985 49.7986 69.4985C49.8986 69.4985 49.9986 69.3985 49.9986 69.3985C50.0986 69.3985 50.0986 69.3985 50.1986 69.2985C50.1986 69.2985 50.1986 69.2985 50.2986 69.2985C50.3986 69.2985 50.4986 69.1985 50.5986 69.1985C50.5986 69.1985 50.5986 69.1985 50.6986 69.1985C50.9986 68.9985 51.1986 68.8985 51.3986 68.6985C51.4986 68.5985 51.4986 68.5985 51.4986 68.4985V67.5985V67.1985V66.7985V66.5985V66.2985V66.1985V66.0985V65.8985H51.3986C51.2986 65.7985 51.1986 65.6985 50.9986 65.5985C50.8986 65.5985 50.7986 65.4985 50.6986 65.4985C50.4986 65.3985 50.1986 65.2985 49.8986 65.2985C49.7986 65.2985 49.7986 65.2985 49.6986 65.2985C49.4986 65.2985 49.2986 65.1985 49.0986 65.1985C48.9986 65.1985 48.8986 65.1985 48.6986 65.0985C48.5986 65.0985 48.4986 65.0985 48.3986 65.0985C48.2986 65.0985 48.1986 65.0985 48.0986 65.0985H47.9986C47.8986 65.0985 47.6986 65.0985 47.5986 65.0985C46.9986 64.9985 46.3986 64.9985 45.7986 64.9985C43.0986 64.9985 40.7986 65.3985 40.2986 65.9985H40.0986V65.8985ZM45.7986 67.3985C46.3986 67.3985 47.0986 67.3985 47.5986 67.2985C47.6986 67.2985 47.8986 67.2985 47.9986 67.2985C48.0986 67.2985 48.1986 67.2985 48.2986 67.2985H48.3986C48.5986 67.2985 48.7986 67.1985 48.9986 67.1985C49.2986 67.1985 49.4986 67.0985 49.7986 67.0985C49.9986 66.9985 50.0986 66.9985 50.2986 66.9985H50.3986V67.1985V67.2985V68.1985C50.2986 68.2985 50.0986 68.3985 49.7986 68.4985C49.4986 68.5985 49.1986 68.6985 48.7986 68.6985H48.6986C48.5986 68.6985 48.4986 68.6985 48.3986 68.6985C48.2986 68.6985 48.2986 68.6985 48.1986 68.6985C48.0986 68.6985 47.8986 68.6985 47.7986 68.6985C47.3986 68.6985 46.9986 68.7985 46.5986 68.7985L45.6986 68.3985L42.0986 66.8985C42.8986 67.2985 44.2986 67.3985 45.7986 67.3985Z" fill="#2988FF"/>
<path d="M80.7988 64.2983C80.6988 64.1983 80.5988 63.9983 80.5988 63.9983V63.8983L79.8988 63.5983L79.2988 63.2983V63.5983V63.9983V64.1983V64.2983V64.3983C79.1988 64.4983 79.0988 64.5983 78.9988 64.7983C78.9988 64.7983 78.8988 64.8983 78.7988 64.8983L78.6988 64.9983C78.5988 65.0983 78.4988 65.0983 78.2988 65.1983C78.4988 65.1983 78.6988 65.1983 78.8988 65.2983H78.9988C79.0988 65.2983 79.1988 65.2983 79.3988 65.2983C79.7988 65.2983 80.1988 65.3983 80.6988 65.3983V65.0983H80.8988L80.9988 64.9983C80.9988 64.8983 81.0988 64.8983 81.1988 64.7983C81.2988 64.6983 81.3988 64.6983 81.4988 64.5983C81.0988 64.4983 80.8988 64.3983 80.7988 64.2983C80.8988 64.2983 80.7988 64.2983 80.7988 64.2983Z" fill="#2988FF"/>
<path d="M86.5988 59.7983C86.5988 59.7983 86.4988 59.7983 86.5988 59.7983C86.3988 59.7983 86.2988 59.7983 86.1988 59.7983C85.4988 59.7983 84.7988 59.8983 84.0988 59.8983C83.8988 59.8983 83.7988 59.8983 83.5988 59.9983C83.3988 59.9983 83.1988 60.0983 82.9988 60.0983C82.7988 60.1983 82.4988 60.1983 82.2988 60.1983C81.8988 60.2983 81.5988 60.3983 81.2988 60.4983C81.0988 60.5983 80.9988 60.6983 80.8988 60.7983H80.7988V60.9983V61.0983V61.1983V61.2983V61.6983V62.1983V62.6983V62.9983V63.2983V63.3983V63.4983C80.7988 63.5983 80.8988 63.6983 81.0988 63.7983C81.1988 63.8983 81.3988 63.9983 81.6988 64.1983H81.7988C81.8988 64.1983 81.8988 64.2983 81.9988 64.2983C82.0988 64.2983 82.0988 64.2983 82.1988 64.3983C82.3988 64.4983 82.6988 64.4983 82.9988 64.5983C83.2988 64.6983 83.5988 64.6983 83.9988 64.7983C84.2988 64.7983 84.4988 64.8983 84.7988 64.8983C84.8988 64.8983 84.9988 64.8983 85.0988 64.8983H85.1988C85.2988 64.8983 85.3988 64.8983 85.5988 64.8983C85.6988 64.8983 85.8988 64.8983 86.0988 64.8983C86.0988 64.8983 86.0988 64.8983 86.1988 64.8983C86.2988 64.8983 86.2988 64.8983 86.3988 64.8983H86.4988C86.5988 64.8983 86.5988 64.8983 86.5988 64.8983C88.0988 64.8983 89.0988 64.7983 89.8988 64.5983C90.1988 64.4983 90.4988 64.4983 90.6988 64.3983C90.7988 64.3983 90.7988 64.3983 90.8988 64.2983C90.9988 64.1983 91.0988 64.1983 91.1988 64.1983C91.7988 63.8983 91.9988 63.5983 91.9988 63.4983V61.1983V60.9983V60.7983H91.8988C91.3988 60.1983 89.2988 59.7983 86.6988 59.7983C86.7988 59.7983 86.6988 59.7983 86.5988 59.7983ZM91.0988 61.8983H91.1988V63.1983C90.9988 63.2983 90.5988 63.5983 89.3988 63.7983C88.8988 63.8983 88.1988 63.8983 87.2988 63.9983L86.9988 63.8983L86.5988 63.6983L86.3988 63.5983L86.2988 63.4983L85.5988 63.2983L83.9988 62.5983L83.1988 62.2983L82.6988 62.0983C83.0988 62.1983 83.4988 62.2983 83.9988 62.2983C84.2988 62.2983 84.6988 62.3983 85.0988 62.3983C85.2988 62.3983 85.3988 62.3983 85.5988 62.3983C85.7988 62.3983 85.9988 62.3983 86.1988 62.3983C86.2988 62.3983 86.3988 62.3983 86.5988 62.3983C86.6988 62.3983 86.8988 62.3983 86.9988 62.3983C88.5988 62.3983 90.0988 62.1983 91.0988 61.8983Z" fill="#2988FF"/>
<path d="M48.099 25.0986H47.999V27.5986V27.7986C48.099 27.8986 48.299 28.1986 48.799 28.4986C48.899 28.4986 48.999 28.5986 49.099 28.5986C49.199 28.5986 49.199 28.5986 49.299 28.6986C49.499 28.7986 49.799 28.7986 50.099 28.8986C50.899 29.0986 51.999 29.1986 53.499 29.1986C54.999 29.1986 56.099 29.0986 56.899 28.8986C57.199 28.7986 57.499 28.7986 57.699 28.6986C57.799 28.6986 57.799 28.6986 57.899 28.5986C57.999 28.5986 58.099 28.4986 58.199 28.4986C58.799 28.1986 58.999 27.8986 58.999 27.7986V25.4986V25.2986V25.0986H58.899C58.399 24.4986 56.099 24.0986 53.399 24.0986C50.699 24.0986 48.699 24.4986 48.099 25.0986ZM58.299 26.0986V27.3986C58.099 27.4986 57.699 27.7986 56.499 27.9986C55.999 28.0986 55.299 28.1986 54.399 28.1986L53.499 27.7986L49.899 26.2986C50.899 26.4986 52.299 26.6986 53.799 26.6986C55.599 26.6986 57.299 26.4986 58.299 26.1986V26.0986Z" fill="#2988FF"/>
<path d="M80.999 60.5987C81.199 60.4987 81.399 60.3987 81.599 60.1987C81.599 60.1987 81.599 60.1987 81.699 60.1987C81.599 60.1987 81.599 60.1987 81.499 60.1987L80.599 59.7987L79.099 59.1987V59.8987V60.0987V60.1987C79.099 60.1987 79.099 60.1987 79.099 60.2987C78.999 60.3987 78.899 60.4987 78.699 60.6987C78.699 60.6987 78.599 60.6987 78.599 60.7987C78.499 60.7987 78.499 60.8987 78.399 60.8987C78.299 60.8987 78.299 60.9987 78.199 60.9987C78.099 60.9987 78.099 61.0987 77.999 61.0987C77.999 61.0987 77.999 61.0987 78.099 61.0987C78.199 61.0987 78.399 61.0987 78.499 61.1987C78.599 61.1987 78.699 61.1987 78.799 61.1987C79.299 61.1987 79.799 61.2987 80.399 61.2987V60.9987H80.599C80.799 60.8987 80.899 60.7987 80.999 60.5987C80.999 60.6987 80.999 60.5987 80.999 60.5987Z" fill="#2988FF"/>
<path d="M79.1982 62.6983C79.5982 62.6983 80.0982 62.7983 80.4982 62.7983V62.2983V61.7983C79.9982 61.7983 79.5982 61.7983 79.1982 61.7983V62.3983V62.6983Z" fill="#2988FF"/>
<path d="M78.2986 60.3983C78.3986 60.2983 78.4986 60.1983 78.5986 60.0983C78.5986 59.9983 78.6986 59.9983 78.6986 59.9983V59.8983V59.0983V58.5983V58.1983V57.5983C78.4986 57.5983 78.3986 57.5983 78.1986 57.4983C77.6986 57.3983 77.2986 57.3983 76.9986 57.2983C76.6986 57.3983 76.1986 57.4983 75.7986 57.4983C75.5986 57.4983 75.4986 57.4983 75.2986 57.5983C75.1986 57.5983 75.0986 57.5983 74.8986 57.5983C74.3986 57.5983 73.8986 57.6983 73.3986 57.6983V58.1983V58.6983C73.8986 58.6983 74.4986 58.6983 74.9986 58.5983C75.0986 58.5983 75.2986 58.5983 75.3986 58.5983C75.4986 58.5983 75.5986 58.5983 75.6986 58.5983H75.7986C75.9986 58.5983 76.1986 58.4983 76.3986 58.4983C76.6986 58.4983 76.8986 58.3983 77.1986 58.3983C77.3986 58.2983 77.5986 58.2983 77.7986 58.1983H77.8986V58.4983V58.6983V59.4983C77.7986 59.5983 77.5986 59.6983 77.0986 59.7983C76.7986 59.8983 76.4986 59.9983 75.9986 59.9983C75.8986 59.9983 75.8986 59.9983 75.7986 59.9983C75.6986 59.9983 75.5986 59.9983 75.4986 59.9983C75.3986 59.9983 75.3986 59.9983 75.2986 59.9983C75.1986 59.9983 74.9986 59.9983 74.8986 59.9983C74.5986 59.9983 74.1986 59.9983 73.7986 60.0983L73.2986 59.9983C73.2986 60.0983 73.1986 60.0983 73.0986 60.1983C72.9986 60.2983 72.7986 60.3983 72.5986 60.5983C72.6986 60.6983 72.7986 60.6983 72.8986 60.7983C72.9986 60.8983 72.9986 60.8983 73.0986 60.9983L73.1986 61.0983H73.2986V61.2983C73.9986 61.2983 74.5986 61.2983 75.1986 61.1983C75.2986 61.1983 75.3986 61.1983 75.4986 61.1983C75.5986 61.1983 75.7986 61.1983 75.8986 61.0983C75.8986 61.0983 75.8986 61.0983 75.9986 61.0983C76.1986 61.0983 76.3986 60.9983 76.5986 60.9983H76.6986C76.7986 60.9983 76.8986 60.9983 76.9986 60.8983C77.0986 60.8983 77.1986 60.7983 77.3986 60.7983H77.4986C77.4986 60.7983 77.4986 60.7983 77.5986 60.7983C77.6986 60.6983 77.7986 60.6983 77.8986 60.6983C78.0986 60.4983 78.0986 60.4983 78.2986 60.3983Z" fill="#2988FF"/>
<path d="M78.2986 56.1986C78.3986 56.0986 78.4986 55.9986 78.5986 55.8986L78.6986 55.7986V55.6986V54.8986V54.3986V53.9986V53.3986C78.4986 53.3986 78.3986 53.3986 78.1986 53.2986C77.6986 53.1986 77.2986 53.1986 76.9986 53.0986C76.6986 53.1986 76.1986 53.1986 75.7986 53.2986C75.5986 53.2986 75.4986 53.2986 75.2986 53.3986C75.1986 53.3986 75.0986 53.3986 74.8986 53.3986C74.3986 53.3986 73.8986 53.4986 73.3986 53.4986V53.9986V54.4986C73.8986 54.4986 74.4986 54.4986 74.9986 54.3986C75.0986 54.3986 75.2986 54.3986 75.3986 54.3986C75.4986 54.3986 75.5986 54.3986 75.6986 54.3986H75.7986C75.9986 54.3986 76.1986 54.2986 76.3986 54.2986C76.6986 54.2986 76.8986 54.1986 77.1986 54.1986C77.3986 54.0986 77.5986 54.0986 77.7986 53.9986H77.8986V54.2986V54.4986V55.2986C77.7986 55.3986 77.5986 55.4986 77.0986 55.5986C76.7986 55.6986 76.4986 55.7986 75.9986 55.7986C75.8986 55.7986 75.8986 55.7986 75.7986 55.7986C75.6986 55.7986 75.5986 55.7986 75.4986 55.7986C75.3986 55.7986 75.3986 55.7986 75.2986 55.7986C75.1986 55.7986 74.9986 55.7986 74.8986 55.7986C74.5986 55.7986 74.1986 55.7986 73.7986 55.8986L73.2986 55.6986C73.2986 55.7986 73.1986 55.7986 73.0986 55.8986C72.9986 55.9986 72.7986 56.0986 72.5986 56.2986C72.6986 56.3986 72.7986 56.3986 72.8986 56.4986C72.9986 56.5986 72.9986 56.5986 73.0986 56.6986L73.1986 56.7986H73.2986V56.9986C73.9986 56.9986 74.5986 56.9986 75.1986 56.8986C75.2986 56.8986 75.3986 56.8986 75.4986 56.8986C75.5986 56.8986 75.7986 56.8986 75.8986 56.8986C75.8986 56.8986 75.8986 56.8986 75.9986 56.8986C76.1986 56.8986 76.3986 56.7986 76.5986 56.7986H76.6986C76.7986 56.7986 76.8986 56.7986 76.9986 56.6986C77.0986 56.6986 77.1986 56.5986 77.3986 56.5986C77.3986 56.5986 77.4986 56.5986 77.4986 56.4986C77.4986 56.4986 77.4986 56.4986 77.5986 56.4986C77.6986 56.4986 77.7986 56.3986 77.8986 56.3986C78.0986 56.3986 78.0986 56.3986 78.2986 56.1986C78.2986 56.2986 78.2986 56.2986 78.2986 56.1986Z" fill="#2988FF"/>
<path d="M78.2986 47.9985C78.3986 47.8985 78.4986 47.7985 78.5986 47.7985L78.6986 47.6985V47.5985V46.7985V46.2985V45.8985V45.2985C78.4986 45.2985 78.3986 45.2985 78.1986 45.1985C77.6986 45.0985 77.2986 45.0985 76.9986 44.9985C76.6986 45.0985 76.1986 45.0985 75.7986 45.1985C75.5986 45.1985 75.4986 45.1985 75.2986 45.2985C75.1986 45.2985 75.0986 45.2985 74.8986 45.2985C74.3986 45.2985 73.8986 45.3985 73.3986 45.3985V45.8985V46.3985C73.8986 46.3985 74.4986 46.3985 74.9986 46.2985C75.0986 46.2985 75.2986 46.2985 75.3986 46.2985C75.4986 46.2985 75.5986 46.2985 75.6986 46.2985H75.7986C75.9986 46.2985 76.1986 46.1985 76.3986 46.1985C76.6986 46.1985 76.8986 46.0985 77.1986 46.0985C77.3986 46.0985 77.5986 45.9985 77.7986 45.8985H77.8986V46.1985V46.3985V47.1985C77.7986 47.2985 77.5986 47.3985 77.0986 47.4985C76.7986 47.5985 76.4986 47.6985 75.9986 47.6985C75.8986 47.6985 75.8986 47.6985 75.7986 47.6985C75.6986 47.6985 75.5986 47.6985 75.4986 47.6985C75.3986 47.6985 75.3986 47.6985 75.2986 47.6985C75.1986 47.6985 74.9986 47.6985 74.8986 47.6985C74.5986 47.6985 74.1986 47.6985 73.7986 47.7985L73.2986 47.5985C73.2986 47.6985 73.1986 47.6985 73.0986 47.7985C72.9986 47.8985 72.7986 47.9985 72.5986 48.1985C72.6986 48.2985 72.7986 48.2985 72.8986 48.3985C72.9986 48.4985 72.9986 48.4985 73.0986 48.5985L73.1986 48.6985H73.2986V48.8985C73.9986 48.8985 74.5986 48.8985 75.1986 48.7985C75.2986 48.7985 75.3986 48.7985 75.4986 48.7985C75.6986 48.7985 75.7986 48.7985 75.8986 48.6985C75.8986 48.6985 75.8986 48.6985 75.9986 48.6985C76.1986 48.6985 76.3986 48.5985 76.5986 48.5985H76.6986C76.7986 48.5985 76.8986 48.5985 76.9986 48.4985C77.0986 48.4985 77.1986 48.3985 77.3986 48.3985C77.3986 48.3985 77.4986 48.3985 77.4986 48.2985C77.4986 48.2985 77.4986 48.2985 77.5986 48.2985C77.6986 48.1985 77.7986 48.1985 77.8986 48.1985C78.0986 48.1985 78.0986 48.0985 78.2986 47.9985C78.2986 48.0985 78.2986 47.9985 78.2986 47.9985Z" fill="#2988FF"/>
<path d="M78.2986 43.8983C78.3986 43.7983 78.4986 43.6983 78.5986 43.5983C78.5986 43.4983 78.6986 43.4983 78.6986 43.4983V43.3983V42.5983V42.0983V41.6983V41.0983C78.4986 41.0983 78.3986 41.0983 78.1986 40.9983C77.6986 40.8983 77.2986 40.8983 76.9986 40.7983C76.6986 40.8983 76.1986 40.8983 75.7986 40.9983C75.5986 40.9983 75.4986 40.9983 75.2986 41.0983C75.1986 41.0983 75.0986 41.0983 74.8986 41.0983C74.3986 41.0983 73.8986 41.1983 73.3986 41.1983V41.6983V42.1983C73.8986 42.1983 74.4986 42.1983 74.9986 42.0983C75.0986 42.0983 75.2986 42.0983 75.3986 42.0983C75.4986 42.0983 75.5986 42.0983 75.6986 42.0983H75.7986C75.9986 42.0983 76.1986 41.9983 76.3986 41.9983C76.6986 41.9983 76.8986 41.8983 77.1986 41.8983C77.4986 41.8983 77.5986 41.7983 77.7986 41.6983H77.8986V41.9983V42.1983V42.9983C77.7986 43.0983 77.5986 43.1983 77.0986 43.2983C76.7986 43.3983 76.4986 43.4983 75.9986 43.4983C75.8986 43.4983 75.8986 43.4983 75.7986 43.4983C75.6986 43.4983 75.5986 43.4983 75.4986 43.4983C75.3986 43.4983 75.3986 43.4983 75.2986 43.4983C75.1986 43.4983 74.9986 43.4983 74.8986 43.4983C74.5986 43.4983 74.1986 43.4983 73.7986 43.4983L73.2986 43.2983C73.2986 43.3983 73.1986 43.3983 73.0986 43.4983C72.9986 43.5983 72.7986 43.6983 72.5986 43.8983C72.6986 43.9983 72.7986 43.9983 72.8986 44.0983C72.9986 44.1983 72.9986 44.1983 73.0986 44.2983L73.1986 44.3983H73.2986V44.5983C73.9986 44.5983 74.5986 44.5983 75.1986 44.4983C75.2986 44.4983 75.3986 44.4983 75.4986 44.4983C75.5986 44.4983 75.7986 44.4983 75.8986 44.3983C75.8986 44.3983 75.8986 44.3983 75.9986 44.3983C76.1986 44.3983 76.3986 44.2983 76.5986 44.2983H76.6986C76.7986 44.2983 76.8986 44.2983 76.9986 44.1983C77.0986 44.1983 77.1986 44.0983 77.3986 44.0983C77.3986 44.0983 77.4986 44.0983 77.4986 43.9983C77.4986 43.9983 77.4986 43.9983 77.5986 43.9983C77.6986 43.9983 77.7986 43.8983 77.8986 43.8983C78.0986 44.0983 78.0986 43.9983 78.2986 43.8983Z" fill="#2988FF"/>
<path d="M78.2986 52.0986C78.4986 51.9986 78.5986 51.9986 78.5986 51.8986C78.5986 51.7986 78.6986 51.7986 78.6986 51.7986V51.6986V50.8986V50.3986V49.9986V49.3986C78.4986 49.3986 78.3986 49.3986 78.1986 49.2986C77.6986 49.2986 77.2986 49.1986 76.9986 49.0986C76.6986 49.1986 76.1986 49.2986 75.7986 49.2986C75.5986 49.2986 75.4986 49.2986 75.2986 49.3986C75.1986 49.3986 75.0986 49.3986 74.8986 49.3986C74.3986 49.3986 73.8986 49.4986 73.3986 49.4986V49.9986V50.4986C73.8986 50.4986 74.4986 50.4986 74.9986 50.3986C75.0986 50.3986 75.2986 50.3986 75.3986 50.3986C75.4986 50.3986 75.5986 50.3986 75.6986 50.3986H75.7986C75.9986 50.3986 76.1986 50.2986 76.3986 50.2986C76.6986 50.2986 76.8986 50.1986 77.1986 50.1986C77.4986 50.1986 77.5986 50.0986 77.7986 49.9986H77.8986V50.2986V50.4986V51.2986C77.7986 51.3986 77.5986 51.4986 77.0986 51.6986C76.7986 51.7986 76.4986 51.8986 75.9986 51.8986C75.8986 51.8986 75.8986 51.8986 75.7986 51.8986C75.6986 51.8986 75.5986 51.8986 75.4986 51.8986C75.3986 51.8986 75.3986 51.8986 75.2986 51.8986C75.1986 51.8986 74.9986 51.8986 74.8986 51.8986C74.5986 51.8986 74.1986 51.8986 73.7986 51.8986L73.2986 51.6986C73.2986 51.7986 73.1986 51.7986 73.0986 51.8986C72.9986 51.9986 72.7986 52.1986 72.5986 52.2986C72.6986 52.3986 72.7986 52.3986 72.8986 52.4986C72.9986 52.5986 72.9986 52.5986 73.0986 52.6986L73.1986 52.7986H73.2986V52.9986C73.9986 52.9986 74.5986 52.9986 75.1986 52.8986C75.2986 52.8986 75.3986 52.8986 75.4986 52.8986C75.5986 52.8986 75.7986 52.8986 75.8986 52.7986C75.8986 52.7986 75.8986 52.7986 75.9986 52.7986C76.1986 52.7986 76.3986 52.6986 76.5986 52.6986H76.6986C76.7986 52.6986 76.8986 52.6986 76.9986 52.5986C77.0986 52.5986 77.1986 52.4986 77.3986 52.4986H77.4986C77.4986 52.4986 77.4986 52.4986 77.5986 52.4986C77.6986 52.4986 77.7986 52.3986 77.8986 52.3986C78.0986 52.2986 78.0986 52.1986 78.2986 52.0986C78.2986 52.1986 78.2986 52.1986 78.2986 52.0986Z" fill="#2988FF"/>
<path d="M67.2986 31.1987C67.1986 31.1987 67.1986 31.1987 67.0986 31.1987C64.3986 31.1987 62.1986 31.5987 61.6986 32.1987H61.5986V34.6987V34.8987C61.6986 34.9987 61.8986 35.2987 62.3986 35.5987C62.4986 35.6987 62.5986 35.6987 62.6986 35.6987C62.7986 35.6987 62.7986 35.6987 62.8986 35.7987C63.0986 35.8987 63.3986 35.8987 63.6986 35.9987C64.4986 36.1987 65.5986 36.2987 67.0986 36.2987C67.1986 36.2987 67.2986 36.2987 67.3986 36.2987C67.4986 36.2987 67.5986 36.2987 67.7986 36.2987H67.8986C67.9986 36.2987 68.0986 36.2987 68.1986 36.2987C68.3986 36.2987 68.5986 36.2987 68.7986 36.2987C68.8986 36.2987 69.0986 36.2987 69.1986 36.2987C69.4986 36.2987 69.7986 36.1987 69.9986 36.1987C70.1986 36.1987 70.2986 36.0987 70.4986 36.0987C70.5986 36.0987 70.5986 36.0987 70.6986 35.9987C70.8986 35.9987 71.0986 35.8987 71.2986 35.8987C71.3986 35.8987 71.3986 35.8987 71.4986 35.7987C71.5986 35.6987 71.6986 35.6987 71.7986 35.6987C71.8986 35.6987 71.8986 35.5987 71.9986 35.5987C71.9986 35.5987 71.9986 35.5987 72.0986 35.5987C72.2986 35.4987 72.4986 35.3987 72.5986 35.1987C72.5986 35.1987 72.5986 35.1987 72.5986 35.0987C72.5986 34.9987 72.6986 34.9987 72.6986 34.8987V33.8987V33.3987V32.8987V32.5987V32.4987V32.3987V32.1987H72.5986L72.4986 32.0987C72.3986 31.9987 72.1986 31.8987 71.9986 31.8987C71.6986 31.7987 71.3986 31.6987 70.8986 31.5987H70.7986C70.4986 31.4987 70.0986 31.4987 69.6986 31.3987C69.0986 31.2987 68.4986 31.2987 67.8986 31.2987C67.7986 31.2987 67.6986 31.2987 67.6986 31.2987C67.5986 31.2987 67.4986 31.2987 67.3986 31.2987H67.2986C67.3986 31.1987 67.3986 31.1987 67.2986 31.1987ZM67.7986 33.6987C67.7986 33.6987 67.8986 33.6987 67.7986 33.6987C68.0986 33.6987 68.2986 33.6987 68.4986 33.6987C68.7986 33.6987 68.9986 33.6987 69.2986 33.5987C69.7986 33.4987 70.2986 33.4987 70.6986 33.3987C71.0986 33.2987 71.4986 33.2987 71.7986 33.1987H71.8986V33.3987V33.9987V34.5987C71.8986 34.5987 71.7986 34.6987 71.6986 34.6987C71.3986 34.7987 70.8986 34.9987 70.0986 35.1987C69.8986 35.1987 69.6986 35.2987 69.4986 35.2987C69.0986 35.2987 68.6986 35.3987 68.0986 35.3987C67.9986 35.3987 67.9986 35.3987 67.8986 35.3987L67.4986 35.2987L67.0986 35.0987H66.9986L63.3986 33.5987C64.3986 33.7987 65.6986 33.8987 67.0986 33.8987C67.1986 33.8987 67.1986 33.8987 67.2986 33.8987C67.3986 33.8987 67.3986 33.8987 67.4986 33.8987C67.5986 33.6987 67.6986 33.6987 67.7986 33.6987Z" fill="#2988FF"/>
<path d="M41.5977 46.1987H37.7977C37.3977 46.1987 37.0977 46.4987 37.0977 46.8987V53.7987C37.0977 54.1987 37.3977 54.4987 37.7977 54.4987H41.5977C41.9977 54.4987 42.2977 54.1987 42.2977 53.7987V46.9987C42.2977 46.5987 41.9977 46.1987 41.5977 46.1987ZM40.7977 53.0987H38.4977V47.6987H40.7977V53.0987Z" fill="#1C3553"/>
<path d="M22.698 46.1987C22.298 46.1987 21.998 46.4987 21.998 46.8987V53.7987C21.998 54.1987 22.298 54.4987 22.698 54.4987H26.498C26.898 54.4987 27.198 54.1987 27.198 53.7987V46.9987C27.198 46.5987 26.898 46.2987 26.498 46.2987H22.698V46.1987ZM25.798 53.0987H23.498V47.6987H25.798V53.0987Z" fill="#1C3553"/>
<path d="M34.198 73.7986C35.298 73.7986 36.198 72.8986 36.198 71.7986C36.198 70.6986 35.298 69.7986 34.198 69.7986H15.998V46.0986C15.998 43.8986 14.698 42.5986 12.398 42.5986C11.298 42.5986 10.198 42.5986 9.09796 42.5986C12.198 39.7986 18.798 33.6986 24.498 28.5986C28.698 24.7986 32.398 21.3986 33.598 20.2986C35.998 22.4986 42.398 28.6986 42.398 28.7986C43.198 29.5986 44.498 29.5986 45.198 28.7986C45.998 27.9986 45.998 26.6986 45.198 25.9986C44.898 25.6986 38.198 19.1986 35.998 17.1986C34.898 16.1986 33.098 15.3986 31.098 17.1986C30.198 18.0986 26.298 21.5986 21.798 25.6986C14.898 31.8986 6.49796 39.4986 4.89796 40.9986C3.59796 42.1986 3.29796 43.3986 3.89796 44.6986C4.29796 45.5986 5.19796 46.5986 7.19796 46.5986C8.79796 46.5986 10.398 46.5986 11.998 46.5986V70.0986C11.998 72.5986 13.198 73.7986 15.798 73.7986H34.198Z" fill="#1C3553"/>
</svg>
