<svg width="96" height="96" viewBox="0 0 96 96" fill="none" xmlns="http://www.w3.org/2000/svg">
<path d="M86.4982 57.0983C86.3982 56.9983 86.2982 56.8983 86.0982 56.7983C85.9982 56.7983 85.9982 56.8983 85.8982 56.8983C85.7982 56.9983 85.5982 56.9983 85.3982 57.0983C84.4982 57.3983 83.0982 57.5983 80.9982 57.5983C80.3982 57.5983 79.7982 57.5983 79.2982 57.4983V58.0983V58.5983C79.7982 58.5983 80.3982 58.6983 80.9982 58.6983C82.7982 58.6983 84.4982 58.4983 85.4982 58.1983H85.5982V59.4983C85.7982 59.4983 86.0982 59.4983 86.2982 59.4983C86.3982 59.4983 86.4982 59.4983 86.5982 59.4983V57.5983V57.3983V57.1983H86.4982V57.0983Z" fill="#2988FF"/>
<path d="M78.3982 65.6984C77.8982 65.5984 77.4982 65.5984 77.0982 65.4984C76.7982 65.5984 76.3982 65.5984 75.9982 65.6984C75.8982 65.6984 75.8982 65.6984 75.7982 65.6984C75.7982 65.6984 75.7982 65.6984 75.6982 65.6984C75.5982 65.6984 75.3982 65.6984 75.2982 65.6984C75.1982 65.6984 75.0982 65.6984 74.8982 65.6984C74.3982 65.6984 73.8982 65.7984 73.3982 65.7984V65.8984V66.3984C73.8982 66.3984 74.4982 66.3984 74.9982 66.2984C75.0982 66.2984 75.2982 66.2984 75.3982 66.2984C75.4982 66.2984 75.5982 66.2984 75.6982 66.2984H75.7982C75.9982 66.2984 76.1982 66.1984 76.3982 66.1984C76.6982 66.0984 76.8982 66.0984 77.1982 66.0984C77.4982 66.0984 77.5982 65.9984 77.7982 65.8984H77.8982V66.1984V66.3984V67.1984C77.7982 67.2984 77.5982 67.3984 77.0982 67.4984C76.7982 67.5984 76.4982 67.6984 75.9982 67.6984C75.8982 67.6984 75.8982 67.6984 75.7982 67.6984C75.6982 67.6984 75.5982 67.6984 75.4982 67.6984C75.3982 67.6984 75.3982 67.6984 75.2982 67.6984C75.1982 67.6984 74.9982 67.6984 74.8982 67.6984C74.5982 67.6984 74.1982 67.6984 73.7982 67.7984L73.2982 67.5984V67.7984V67.8984C73.2982 67.9984 73.1982 68.0984 72.8982 68.2984C72.7982 68.3984 72.6982 68.3984 72.5982 68.4984C72.6982 68.5984 72.7982 68.6984 72.8982 68.6984C72.9982 68.6984 72.9982 68.6984 73.0982 68.6984C74.2982 68.6984 75.1982 68.5984 75.8982 68.4984C76.1982 68.4984 76.3982 68.3984 76.6982 68.3984C76.7982 68.3984 76.8982 68.3984 76.9982 68.2984C77.1982 68.1984 77.3982 68.1984 77.4982 68.0984C77.5982 67.9984 77.7982 67.9984 77.8982 67.9984C78.2982 67.7984 78.4982 67.6984 78.5982 67.4984C78.6982 67.3984 78.6982 67.2984 78.7982 67.2984V66.4984V65.9984V65.5984V65.3984C78.6982 65.7984 78.5982 65.7984 78.3982 65.6984Z" fill="#2988FF"/>
<path d="M86.4982 44.7985C86.3982 44.6985 86.2982 44.5985 86.0982 44.4985C85.9982 44.4985 85.9982 44.5985 85.8982 44.5985C85.7982 44.6985 85.5982 44.6985 85.3982 44.7985C84.4982 45.0985 83.0982 45.2985 80.9982 45.2985C80.3982 45.2985 79.7982 45.2985 79.2982 45.1985V45.7985V46.2985C79.7982 46.2985 80.3982 46.3985 80.9982 46.3985C82.7982 46.3985 84.4982 46.1985 85.4982 45.8985H85.5982V47.1985C85.3982 47.2985 84.9982 47.5985 83.7982 47.7985C83.2982 47.8985 82.5982 47.8985 81.6982 47.9985L80.7982 47.5985L79.2982 46.9985V47.6985V47.8985V47.9985V48.0985C79.1982 48.1985 79.0982 48.2985 78.8982 48.4985C78.8982 48.4985 78.7982 48.4985 78.7982 48.5985C78.6982 48.5985 78.6982 48.6985 78.5982 48.6985C78.4982 48.6985 78.4982 48.7985 78.3982 48.7985C78.2982 48.7985 78.2982 48.8985 78.1982 48.8985C78.1982 48.8985 78.1982 48.8985 78.2982 48.8985C78.3982 48.8985 78.5982 48.8985 78.6982 48.9985C78.7982 48.9985 78.8982 48.9985 78.9982 48.9985C79.5982 49.0985 80.2982 49.0985 80.9982 49.0985C82.4982 49.0985 83.5982 48.9985 84.4982 48.7985C84.7982 48.6985 85.0982 48.6985 85.2982 48.5985C85.3982 48.5985 85.3982 48.5985 85.4982 48.4985C85.5982 48.3985 85.6982 48.3985 85.7982 48.3985C86.3982 48.0985 86.5982 47.8985 86.5982 47.6985V45.3985V45.1985V44.9985H86.4982V44.7985Z" fill="#2988FF"/>
<path d="M61.5982 75.1984V75.4984V75.6984C61.6982 75.9984 62.5982 77.0984 67.1982 77.0984C71.7982 77.0984 72.6982 75.9984 72.7982 75.6984V73.3984V73.1984V72.9984H72.6982L72.5982 72.8984L72.4982 72.9984C72.4982 72.9984 72.4982 72.9984 72.3982 72.9984C72.2982 73.0984 72.1982 73.0984 71.9982 73.1984C71.0982 73.4984 69.6982 73.8984 67.0982 73.8984C64.4982 73.8984 63.0982 73.5984 62.1982 73.1984C61.9982 73.0984 61.8982 73.0984 61.7982 72.9984C61.7982 72.9984 61.7982 72.9984 61.6982 72.9984L61.5982 72.8984L61.4982 72.9984H61.5982V75.1984ZM67.2982 74.4984C69.0982 74.4984 70.7982 74.2984 71.7982 73.9984H71.8982V75.2984C71.6982 75.4984 70.6982 75.9984 67.8982 75.9984L63.3982 74.0984C64.3982 74.3984 65.7982 74.4984 67.2982 74.4984Z" fill="#2988FF"/>
<path d="M86.4982 40.6984C86.3982 40.5984 86.2982 40.4984 86.0982 40.3984C85.9982 40.3984 85.9982 40.4984 85.8982 40.4984C85.7982 40.5984 85.5982 40.5984 85.3982 40.6984C84.4982 40.9984 83.0982 41.1984 80.9982 41.1984C80.3982 41.1984 79.7982 41.1984 79.2982 41.0984V41.6984V42.0984C79.7982 42.0984 80.3982 42.1984 80.9982 42.1984C82.7982 42.1984 84.4982 41.9984 85.4982 41.6984H85.5982V42.9984C85.3982 43.0984 84.9982 43.3984 83.7982 43.5984C83.2982 43.6984 82.5982 43.6984 81.6982 43.7984L80.7982 43.3984L79.2982 42.7984V43.4984V43.6984C79.2982 43.6984 79.2982 43.6984 79.2982 43.7984C79.1982 43.8984 79.0982 43.9984 78.8982 44.1984C78.8982 44.1984 78.7982 44.1984 78.7982 44.2984C78.6982 44.3984 78.6982 44.3984 78.5982 44.3984C78.4982 44.3984 78.4982 44.4984 78.3982 44.4984C78.2982 44.4984 78.2982 44.5984 78.1982 44.5984C78.1982 44.5984 78.1982 44.5984 78.2982 44.5984C78.3982 44.5984 78.5982 44.5984 78.6982 44.6984C78.7982 44.6984 78.8982 44.6984 78.9982 44.6984C79.5982 44.6984 80.1982 44.7984 80.9982 44.7984C82.4982 44.7984 83.5982 44.6984 84.3982 44.4984C84.6982 44.3984 84.9982 44.3984 85.1982 44.2984C85.2982 44.2984 85.2982 44.1984 85.3982 44.1984C85.4982 44.1984 85.5982 44.0984 85.6982 44.0984C86.2982 43.7984 86.4982 43.4984 86.4982 43.3984V41.0984V40.8984V40.6984Z" fill="#2988FF"/>
<path d="M86.4982 52.9987C86.3982 52.8987 86.2982 52.7987 86.0982 52.6987C85.9982 52.6987 85.9982 52.7987 85.8982 52.7987C85.6982 52.8987 85.5982 52.9987 85.3982 52.9987C84.4982 53.2987 83.0982 53.4987 80.9982 53.4987C80.3982 53.4987 79.7982 53.4987 79.2982 53.3987V53.9987V54.3987C79.7982 54.3987 80.3982 54.4987 80.9982 54.4987C82.7982 54.4987 84.4982 54.2987 85.4982 53.9987H85.5982V55.2987C85.3982 55.3987 84.9982 55.6987 83.7982 55.8987C83.2982 55.9987 82.5982 55.9987 81.6982 56.0987L80.7982 55.6987L79.2982 55.0987V55.7987V55.9987V56.0987C79.2982 56.0987 79.2982 56.0987 79.2982 56.1987C79.1982 56.2987 79.0982 56.3987 78.8982 56.5987C78.8982 56.5987 78.7982 56.5987 78.7982 56.6987C78.6982 56.7987 78.6982 56.7987 78.5982 56.7987C78.4982 56.7987 78.4982 56.8987 78.3982 56.8987C78.2982 56.8987 78.2982 56.9987 78.1982 56.9987C78.1982 56.9987 78.1982 56.9987 78.2982 56.9987C78.3982 56.9987 78.5982 56.9987 78.6982 56.9987C78.7982 56.9987 78.8982 56.9987 78.9982 56.9987C79.5982 57.0987 80.2982 57.0987 80.9982 57.0987C82.4982 57.0987 83.5982 56.9987 84.4982 56.7987C84.7982 56.6987 85.0982 56.6987 85.2982 56.5987C85.3982 56.5987 85.3982 56.4987 85.4982 56.4987C85.5982 56.4987 85.6982 56.3987 85.7982 56.3987C86.3982 56.0987 86.5982 55.7987 86.5982 55.6987V53.3987V53.1987V52.9987H86.4982Z" fill="#2988FF"/>
<path d="M86.4982 48.8986C86.3982 48.7986 86.2982 48.6986 86.0982 48.5986C85.9982 48.5986 85.9982 48.6986 85.8982 48.6986C85.7982 48.7986 85.5982 48.7986 85.3982 48.8986C84.4982 49.1986 83.0982 49.3986 80.9982 49.3986C80.3982 49.3986 79.7982 49.3986 79.2982 49.2986V49.8986V50.2986C79.7982 50.2986 80.3982 50.3986 80.9982 50.3986C82.7982 50.3986 84.4982 50.1986 85.4982 49.8986H85.5982V51.1986C85.3982 51.2986 84.9982 51.5986 83.7982 51.7986C83.1982 51.8986 82.4982 51.9986 81.5982 51.9986L80.6982 51.5986L79.1982 50.9986V51.6986V51.8986V51.9986C79.1982 51.9986 79.1982 51.9986 79.1982 52.0986C79.0982 52.1986 78.9982 52.2986 78.7982 52.4986C78.7982 52.4986 78.6982 52.4986 78.6982 52.5986C78.5982 52.5986 78.5982 52.6986 78.4982 52.6986C78.3982 52.6986 78.3982 52.7986 78.2982 52.7986C78.1982 52.7986 78.1982 52.8986 78.0982 52.8986C78.0982 52.8986 78.0982 52.8986 78.1982 52.8986C78.2982 52.8986 78.4982 52.8986 78.5982 52.9986C78.6982 52.9986 78.7982 52.9986 78.8982 52.9986C79.4982 52.9986 80.1982 53.0986 80.8982 53.0986C82.3982 53.0986 83.4982 52.9986 84.3982 52.7986C84.6982 52.6986 84.9982 52.6986 85.1982 52.5986C85.2982 52.5986 85.2982 52.5986 85.3982 52.4986C85.4982 52.4986 85.5982 52.3986 85.6982 52.3986C86.2982 52.0986 86.4982 51.7986 86.4982 51.6986V49.3986V49.1986V48.9986V48.8986Z" fill="#2988FF"/>
<path d="M86.4982 36.5986C85.9982 35.9986 83.6982 35.5986 80.9982 35.5986C80.3982 35.5986 79.7982 35.5986 79.1982 35.6986C79.0982 35.7986 78.9982 35.9986 78.7982 36.0986C78.6982 36.0986 78.6982 36.1986 78.5982 36.1986C78.7982 36.2986 78.8982 36.3986 79.0982 36.5986L79.1982 36.6986H79.2982V37.0986V37.6986V38.0986C79.7982 38.0986 80.3982 38.1986 80.9982 38.1986C82.7982 38.1986 84.4982 37.9986 85.4982 37.6986H85.5982V38.9986C85.3982 39.0986 84.9982 39.3986 83.7982 39.5986C83.2982 39.6986 82.5982 39.6986 81.6982 39.7986L80.7982 39.3986L79.2982 38.7986V39.4986V39.6986V39.7986C79.2982 39.7986 79.2982 39.7986 79.2982 39.8986C79.1982 39.9986 79.0982 40.0986 78.8982 40.2986C78.8982 40.2986 78.7982 40.2986 78.7982 40.3986C78.6982 40.3986 78.6982 40.4986 78.5982 40.4986C78.4982 40.4986 78.4982 40.5986 78.3982 40.5986C78.2982 40.5986 78.2982 40.6986 78.1982 40.6986C78.1982 40.6986 78.1982 40.6986 78.2982 40.6986C78.3982 40.6986 78.5982 40.6986 78.6982 40.7986C78.7982 40.7986 78.8982 40.7986 78.9982 40.7986C79.5982 40.8986 80.2982 40.8986 80.9982 40.8986C82.4982 40.8986 83.5982 40.7986 84.4982 40.5986C84.7982 40.4986 85.0982 40.4986 85.2982 40.3986C85.3982 40.3986 85.3982 40.3986 85.4982 40.2986C85.5982 40.1986 85.6982 40.1986 85.7982 40.1986C86.3982 39.8986 86.5982 39.6986 86.5982 39.4986V37.1986V36.9986V36.7986H86.4982V36.5986Z" fill="#2988FF"/>
<path d="M47.9982 56.3986V56.5986C48.0982 56.6986 48.2982 56.9986 48.7982 57.2986C48.8982 57.3986 48.9982 57.3986 49.0982 57.3986C49.1982 57.3986 49.1982 57.3986 49.2982 57.4986C49.4982 57.5986 49.7982 57.5986 50.0982 57.6986C50.8982 57.8986 51.9982 57.9986 53.5982 57.9986C55.0982 57.9986 56.1982 57.8986 57.0982 57.6986C57.3982 57.5986 57.6982 57.5986 57.8982 57.4986C57.9982 57.4986 57.9982 57.4986 58.0982 57.3986C58.1982 57.3986 58.2982 57.2986 58.3982 57.2986C58.9982 56.9986 59.1982 56.6986 59.1982 56.5986V54.2986V54.0986V53.8986H59.0982C58.9982 53.7986 58.8982 53.6986 58.6982 53.5986C58.5982 53.5986 58.5982 53.6986 58.4982 53.6986C58.3982 53.7986 58.1982 53.7986 57.9982 53.8986C57.0982 54.1986 55.6982 54.3986 53.5982 54.3986C51.3982 54.3986 50.0982 54.1986 49.1982 53.8986C48.9982 53.7986 48.7982 53.7986 48.6982 53.6986C48.5982 53.6986 48.5982 53.5986 48.4982 53.5986C48.2982 53.6986 48.1982 53.7986 48.0982 53.8986H47.9982V56.3986ZM53.6982 55.3986C55.4982 55.3986 57.1982 55.1986 58.1982 54.8986H58.2982V56.1986C58.0982 56.2986 57.6982 56.5986 56.4982 56.7986C55.9982 56.8986 55.2982 56.8986 54.3982 56.9986L53.4982 56.5986L49.8982 55.0986C50.7982 55.2986 52.1982 55.3986 53.6982 55.3986Z" fill="#2988FF"/>
<path d="M47.9982 64.5987C48.0982 64.5987 48.1982 64.5987 48.2982 64.5987C48.2982 64.5987 48.2982 64.5987 48.3982 64.5987C48.8982 64.6987 49.2982 64.6987 49.6982 64.7987C49.8982 64.8987 50.0982 64.8987 50.2982 64.9987H50.3982C50.5982 65.0987 50.7982 65.1987 50.9982 65.2987C51.0982 65.3987 51.2982 65.3987 51.3982 65.4987C51.4982 65.5987 51.4982 65.5987 51.5982 65.6987L51.6982 65.7987H51.7982V65.9987C52.2982 65.9987 52.8982 66.0987 53.5982 66.0987C55.3982 66.0987 56.6982 65.8987 57.4982 65.6987C57.5982 65.6987 57.6982 65.5987 57.7982 65.5987C57.9982 65.4987 58.1982 65.4987 58.3982 65.3987C58.4982 65.3987 58.4982 65.2987 58.5982 65.2987C58.6982 65.2987 58.7982 65.1987 58.7982 65.1987C59.0982 64.9987 59.1982 64.7987 59.2982 64.6987V62.3987V62.1987V61.9987H59.1982C59.0982 61.8987 58.9982 61.7987 58.7982 61.6987C58.6982 61.6987 58.6982 61.7987 58.5982 61.7987C58.4982 61.8987 58.2982 61.8987 58.0982 61.9987C57.1982 62.2987 55.7982 62.4987 53.6982 62.4987C51.4982 62.4987 50.1982 62.2987 49.2982 61.9987C49.0982 61.8987 48.8982 61.8987 48.7982 61.7987C48.6982 61.7987 48.6982 61.6987 48.5982 61.6987C48.3982 61.7987 48.2982 61.8987 48.1982 61.9987H48.0982V64.5987H47.9982ZM53.6982 63.6987C55.4982 63.6987 57.1982 63.4987 58.1982 63.1987H58.2982V64.4987C58.1982 64.5987 57.8982 64.6987 57.3982 64.8987C57.1982 64.8987 56.8982 64.9987 56.5982 64.9987C56.5982 64.9987 56.4982 64.9987 56.3982 64.9987C55.8982 65.0987 55.1982 65.0987 54.2982 65.1987L53.3982 64.7987L52.5982 64.4987L49.7982 63.3987C50.7982 63.4987 52.1982 63.6987 53.6982 63.6987Z" fill="#2988FF"/>
<path d="M47.9982 60.5983V60.7983C48.0982 60.8983 48.2982 61.1983 48.7982 61.4983C48.8982 61.4983 48.9982 61.5983 49.0982 61.5983C49.1982 61.5983 49.1982 61.6983 49.2982 61.6983C49.4982 61.7983 49.7982 61.7983 50.0982 61.8983C50.8982 62.0983 51.9982 62.1983 53.5982 62.1983C55.0982 62.1983 56.1982 62.0983 57.0982 61.8983C57.3982 61.7983 57.6982 61.7983 57.8982 61.6983C57.9982 61.6983 57.9982 61.6983 58.0982 61.5983C58.1982 61.5983 58.2982 61.4983 58.3982 61.4983C58.9982 61.1983 59.1982 60.8983 59.1982 60.7983V58.4983V58.2983V58.0983H59.0982C58.9982 57.9983 58.8982 57.8983 58.6982 57.7983C58.5982 57.7983 58.5982 57.8983 58.4982 57.8983C58.3982 57.9983 58.1982 57.9983 57.9982 58.0983C57.0982 58.3983 55.6982 58.5983 53.5982 58.5983C51.3982 58.5983 50.0982 58.3983 49.1982 58.0983C48.9982 57.9983 48.7982 57.9983 48.6982 57.8983C48.5982 57.8983 48.5982 57.7983 48.4982 57.7983C48.2982 57.8983 48.1982 57.9983 48.0982 58.0983H47.9982V60.5983ZM53.6982 59.5983C55.4982 59.5983 57.1982 59.3983 58.1982 59.0983H58.2982V60.3983C58.0982 60.4983 57.6982 60.7983 56.4982 60.9983C55.9982 61.0983 55.2982 61.0983 54.3982 61.1983L53.4982 60.7983L49.8982 59.2983C50.7982 59.3983 52.1982 59.5983 53.6982 59.5983Z" fill="#2988FF"/>
<path d="M51.0982 69.5983C51.1982 69.6983 51.2982 69.7983 51.3982 69.8983C51.9982 69.9983 52.7982 69.9983 53.5982 69.9983C58.1982 69.9983 59.0982 68.9983 59.1982 68.5983V66.2983V66.0983V65.8983H59.0982L58.9982 65.7983L58.8982 65.8983C58.8982 65.8983 58.8982 65.8983 58.7982 65.8983C58.7982 65.9983 58.6982 65.9983 58.5982 66.0983C57.6982 66.4983 56.2982 66.7983 53.6982 66.7983C52.9982 66.7983 52.3982 66.7983 51.8982 66.6983V66.8983V67.2983C52.4982 67.3983 53.0982 67.3983 53.6982 67.3983C55.4982 67.3983 57.1982 67.1983 58.1982 66.8983H58.2982V68.1983C58.0982 68.3983 57.0982 68.8983 54.2982 68.8983L51.7982 67.8983V68.8983V68.9983C51.7982 69.0983 51.6982 69.1983 51.4982 69.3983C51.3982 69.4983 51.2982 69.4983 51.0982 69.5983C51.0982 69.5983 51.1982 69.5983 51.0982 69.5983Z" fill="#2988FF"/>
<path d="M47.9982 39.9987V40.1987C48.0982 40.2987 48.2982 40.5987 48.7982 40.8987C48.8982 40.8987 48.9982 40.9987 49.0982 40.9987C49.1982 40.9987 49.1982 40.9987 49.2982 41.0987C49.4982 41.1987 49.7982 41.1987 50.0982 41.2987C50.8982 41.4987 51.9982 41.5987 53.5982 41.5987C55.0982 41.5987 56.1982 41.4987 57.0982 41.2987C57.3982 41.1987 57.6982 41.1987 57.8982 41.0987C57.9982 41.0987 57.9982 41.0987 58.0982 40.9987C58.1982 40.8987 58.2982 40.8987 58.3982 40.8987C58.9982 40.5987 59.1982 40.2987 59.1982 40.1987V37.8987V37.6987V37.4987H59.0982C58.9982 37.3987 58.8982 37.2987 58.6982 37.1987C58.5982 37.1987 58.5982 37.2987 58.4982 37.2987C58.3982 37.3987 58.1982 37.3987 57.9982 37.4987C57.0982 37.7987 55.6982 37.9987 53.5982 37.9987C51.3982 37.9987 50.0982 37.7987 49.1982 37.4987C48.9982 37.3987 48.7982 37.3987 48.6982 37.2987C48.5982 37.2987 48.5982 37.1987 48.4982 37.1987C48.2982 37.2987 48.1982 37.3987 48.0982 37.4987H47.9982V39.9987ZM53.6982 38.9987C55.4982 38.9987 57.1982 38.7987 58.1982 38.4987H58.2982V39.7987C58.0982 39.8987 57.6982 40.1987 56.4982 40.3987C55.9982 40.4987 55.2982 40.4987 54.3982 40.5987L53.4982 40.1987L49.8982 38.6987C50.7982 38.8987 52.1982 38.9987 53.6982 38.9987Z" fill="#2988FF"/>
<path d="M47.9982 44.0983V44.2983C48.0982 44.3983 48.2982 44.6983 48.7982 44.9983C48.8982 45.0983 48.9982 45.0983 49.0982 45.0983C49.1982 45.0983 49.1982 45.0983 49.2982 45.1983C49.4982 45.2983 49.7982 45.2983 50.0982 45.3983C50.8982 45.5983 51.9982 45.6983 53.4982 45.6983C54.9982 45.6983 56.0982 45.5983 56.8982 45.3983C57.1982 45.2983 57.4982 45.2983 57.6982 45.1983C57.7982 45.1983 57.7982 45.1983 57.8982 45.0983C57.9982 44.9983 58.0982 44.9983 58.1982 44.9983C58.7982 44.6983 58.9982 44.4983 58.9982 44.2983V41.9983V41.7983V41.5983H58.8982C58.7982 41.4983 58.6982 41.3983 58.4982 41.2983C58.3982 41.2983 58.3982 41.3983 58.2982 41.3983C58.1982 41.4983 57.9982 41.4983 57.7982 41.5983C56.8982 41.8983 55.4982 42.0983 53.3982 42.0983C51.1982 42.0983 49.8982 41.8983 48.9982 41.5983C48.7982 41.4983 48.5982 41.4983 48.4982 41.3983C48.3982 41.3983 48.3982 41.2983 48.2982 41.2983C48.0982 41.3983 47.9982 41.4983 47.8982 41.5983H47.7982V44.0983H47.9982ZM53.6982 43.0983C55.4982 43.0983 57.1982 42.8983 58.1982 42.5983H58.2982V43.8983C58.0982 43.9983 57.6982 44.2983 56.4982 44.4983C55.9982 44.5983 55.2982 44.5983 54.3982 44.6983L53.4982 44.2983L49.8982 42.7983C50.7982 42.9983 52.1982 43.0983 53.6982 43.0983Z" fill="#2988FF"/>
<path d="M47.9982 52.2985V52.4985C48.0982 52.6985 48.2982 52.8985 48.7982 53.1985C48.8982 53.2985 48.9982 53.2985 49.0982 53.2985C49.1982 53.2985 49.1982 53.2985 49.2982 53.3985C49.4982 53.4985 49.7982 53.4985 50.0982 53.5985C50.8982 53.7985 51.9982 53.8985 53.5982 53.8985C55.0982 53.8985 56.1982 53.7985 57.0982 53.5985C57.3982 53.4985 57.6982 53.4985 57.8982 53.3985C57.9982 53.3985 57.9982 53.3985 58.0982 53.2985C58.1982 53.1985 58.2982 53.1985 58.3982 53.1985C58.9982 52.8985 59.1982 52.6985 59.1982 52.4985V50.1985V49.9985V49.7985H59.0982C58.9982 49.6985 58.8982 49.5985 58.6982 49.4985C58.5982 49.4985 58.5982 49.5985 58.4982 49.5985C58.3982 49.6985 58.1982 49.6985 57.9982 49.7985C57.0982 50.0985 55.6982 50.2985 53.5982 50.2985C51.3982 50.2985 50.0982 50.0985 49.1982 49.7985C48.9982 49.6985 48.7982 49.6985 48.6982 49.5985C48.5982 49.5985 48.5982 49.4985 48.4982 49.4985C48.2982 49.5985 48.1982 49.6985 48.0982 49.7985H47.9982V52.2985ZM53.6982 51.2985C55.4982 51.2985 57.1982 51.0985 58.1982 50.7985H58.2982V52.0985C58.0982 52.1985 57.6982 52.4985 56.4982 52.6985C55.9982 52.7985 55.2982 52.7985 54.3982 52.8985L53.4982 52.4985L49.7982 50.9985C50.7982 51.1985 52.1982 51.2985 53.6982 51.2985Z" fill="#2988FF"/>
<path d="M47.9982 48.1984V48.3984C48.0982 48.4984 48.2982 48.7984 48.7982 49.0984C48.8982 49.0984 48.9982 49.1984 49.0982 49.1984C49.1982 49.1984 49.1982 49.2984 49.2982 49.2984C49.4982 49.3984 49.7982 49.3984 50.0982 49.4984C50.8982 49.6984 51.9982 49.7984 53.5982 49.7984C55.0982 49.7984 56.1982 49.6984 57.0982 49.4984C57.3982 49.3984 57.6982 49.3984 57.8982 49.2984C57.9982 49.2984 57.9982 49.1984 58.0982 49.1984C58.1982 49.1984 58.2982 49.0984 58.3982 49.0984C58.9982 48.7984 59.1982 48.4984 59.1982 48.3984V46.0984V45.8984V45.6984H59.0982C58.9982 45.5984 58.8982 45.4984 58.6982 45.3984C58.5982 45.3984 58.5982 45.4984 58.4982 45.4984C58.3982 45.5984 58.1982 45.5984 57.9982 45.6984C57.0982 45.9984 55.6982 46.1984 53.5982 46.1984C51.3982 46.1984 50.0982 45.9984 49.1982 45.6984C48.9982 45.5984 48.7982 45.5984 48.6982 45.4984C48.5982 45.4984 48.5982 45.3984 48.4982 45.3984C48.2982 45.4984 48.1982 45.5984 48.0982 45.6984H47.9982V48.1984ZM53.6982 47.1984C55.4982 47.1984 57.1982 46.9984 58.1982 46.6984H58.2982V47.9984C58.0982 48.0984 57.6982 48.3984 56.4982 48.5984C55.9982 48.6984 55.2982 48.6984 54.3982 48.7984L53.4982 48.3984L49.8982 46.8984C50.7982 47.0984 52.1982 47.1984 53.6982 47.1984Z" fill="#2988FF"/>
<path d="M47.9982 35.8986V36.0986C48.0982 36.1986 48.2982 36.4986 48.7982 36.7986C48.8982 36.7986 48.9982 36.8986 49.0982 36.8986C49.1982 36.8986 49.1982 36.9986 49.2982 36.9986C49.4982 37.0986 49.7982 37.0986 50.0982 37.1986C50.8982 37.3986 51.9982 37.4986 53.5982 37.4986C55.0982 37.4986 56.1982 37.3986 57.0982 37.1986C57.3982 37.0986 57.6982 37.0986 57.8982 36.9986C57.9982 36.9986 57.9982 36.9986 58.0982 36.8986C58.1982 36.8986 58.2982 36.7986 58.3982 36.7986C58.9982 36.4986 59.1982 36.1986 59.1982 36.0986V33.7986V33.5986V33.3986H59.0982C58.9982 33.2986 58.8982 33.1986 58.6982 33.0986C58.5982 33.0986 58.5982 33.1986 58.4982 33.1986C58.3982 33.2986 58.1982 33.2986 57.9982 33.3986C57.0982 33.6986 55.6982 33.8986 53.5982 33.8986C51.3982 33.8986 50.0982 33.6986 49.1982 33.3986C48.9982 33.2986 48.7982 33.2986 48.6982 33.1986C48.5982 33.1986 48.5982 33.0986 48.4982 33.0986C48.2982 33.1986 48.1982 33.2986 48.0982 33.3986H47.9982V35.8986ZM53.6982 34.8986C55.4982 34.8986 57.1982 34.6986 58.1982 34.3986H58.2982V35.6986C58.0982 35.7986 57.6982 36.0986 56.4982 36.2986C55.9982 36.3986 55.2982 36.4986 54.3982 36.4986L53.3982 35.9986L49.7982 34.4986C50.7982 34.6986 52.1982 34.8986 53.6982 34.8986Z" fill="#2988FF"/>
<path d="M61.5982 55.2987V55.4987C61.6982 55.6987 61.8982 55.8987 62.3982 56.1987C62.4982 56.1987 62.5982 56.2987 62.6982 56.2987C62.7982 56.2987 62.7982 56.3987 62.8982 56.3987C63.0982 56.4987 63.3982 56.4987 63.6982 56.5987C64.4982 56.7987 65.5982 56.8987 67.1982 56.8987C67.2982 56.8987 67.3982 56.8987 67.4982 56.8987C67.5982 56.8987 67.6982 56.8987 67.8982 56.8987H67.9982C68.0982 56.8987 68.1982 56.8987 68.2982 56.8987C68.4982 56.8987 68.6982 56.8987 68.8982 56.8987C68.9982 56.8987 69.1982 56.8987 69.2982 56.8987C69.5982 56.8987 69.8982 56.7987 70.0982 56.7987C70.2982 56.7987 70.3982 56.6987 70.5982 56.6987C70.6982 56.6987 70.6982 56.6987 70.7982 56.5987C70.9982 56.4987 71.1982 56.4987 71.3982 56.4987C71.4982 56.4987 71.4982 56.4987 71.5982 56.3987C71.6982 56.3987 71.7982 56.2987 71.8982 56.2987C71.9982 56.2987 71.9982 56.1987 72.0982 56.1987C72.0982 56.1987 72.0982 56.1987 72.1982 56.1987C72.3982 56.0987 72.5982 55.9987 72.6982 55.7987C72.6982 55.6987 72.7982 55.6987 72.7982 55.5987V54.6987V54.1987V53.6987V53.3987V53.2987V53.1987V52.9987H72.6982L72.5982 52.8987C72.4982 52.7987 72.3982 52.7987 72.2982 52.6987C72.1982 52.6987 72.1982 52.7987 72.0982 52.7987C71.9982 52.8987 71.8982 52.8987 71.7982 52.8987H71.6982C71.4982 52.9987 71.2982 52.9987 71.0982 53.0987C70.9982 53.0987 70.7982 53.0987 70.6982 53.1987C70.2982 53.2987 69.8982 53.2987 69.3982 53.3987C68.9982 53.3987 68.6982 53.4987 68.2982 53.4987C68.0982 53.4987 67.8982 53.4987 67.6982 53.4987H67.5982C67.4982 53.4987 67.4982 53.4987 67.3982 53.4987C67.2982 53.4987 67.2982 53.4987 67.1982 53.4987C65.0982 53.4987 63.7982 53.2987 62.8982 52.9987C62.6982 52.8987 62.4982 52.8987 62.3982 52.7987C62.2982 52.7987 62.2982 52.6987 62.1982 52.6987C61.9982 52.7987 61.8982 52.8987 61.7982 52.9987H61.5982V55.2987ZM67.0982 54.2987C67.1982 54.2987 67.1982 54.2987 67.2982 54.2987C67.3982 54.2987 67.3982 54.2987 67.4982 54.2987C67.5982 54.2987 67.6982 54.2987 67.7982 54.2987H67.8982C68.0982 54.2987 68.2982 54.2987 68.4982 54.2987C68.7982 54.2987 68.9982 54.2987 69.2982 54.1987C69.7982 54.1987 70.2982 54.0987 70.6982 53.9987C71.0982 53.8987 71.4982 53.8987 71.7982 53.7987H71.8982V53.9987V54.4987V55.0987C71.8982 55.0987 71.7982 55.1987 71.6982 55.1987C71.3982 55.2987 70.8982 55.4987 69.9982 55.6987C69.7982 55.6987 69.5982 55.6987 69.3982 55.7987C68.9982 55.7987 68.5982 55.8987 67.9982 55.8987C67.8982 55.8987 67.8982 55.8987 67.7982 55.8987L67.3982 55.7987L66.9982 55.5987H66.8982L63.3982 53.9987C64.3982 54.1987 65.6982 54.2987 67.0982 54.2987Z" fill="#2988FF"/>
<path d="M61.5982 51.1986V51.3986C61.6982 51.4986 61.8982 51.7986 62.3982 52.0986C62.4982 52.1986 62.5982 52.1986 62.6982 52.1986C62.7982 52.1986 62.7982 52.1986 62.8982 52.2986C63.0982 52.3986 63.3982 52.3986 63.6982 52.4986C64.4982 52.6986 65.5982 52.7986 67.1982 52.7986C67.2982 52.7986 67.3982 52.7986 67.4982 52.7986C67.5982 52.7986 67.6982 52.7986 67.8982 52.7986H67.9982C68.0982 52.7986 68.1982 52.7986 68.2982 52.7986C68.4982 52.7986 68.6982 52.7986 68.8982 52.7986C68.9982 52.7986 69.1982 52.7986 69.2982 52.7986C69.5982 52.7986 69.8982 52.6986 70.0982 52.6986C70.2982 52.6986 70.3982 52.5986 70.5982 52.5986C70.6982 52.5986 70.6982 52.5986 70.7982 52.5986C70.9982 52.4986 71.1982 52.4986 71.3982 52.3986C71.4982 52.3986 71.4982 52.2986 71.5982 52.2986C71.6982 52.2986 71.7982 52.1986 71.8982 52.1986C71.9982 52.1986 71.9982 52.0986 72.0982 52.0986C72.0982 52.0986 72.0982 52.0986 72.1982 52.0986C72.3982 51.9986 72.5982 51.7986 72.6982 51.6986C72.6982 51.6986 72.6982 51.6986 72.6982 51.5986C72.6982 51.4986 72.7982 51.4986 72.7982 51.3986V50.4986V49.9986V49.4986V49.1986V49.0986V48.9986V48.7986H72.6982L72.5982 48.6986C72.4982 48.5986 72.3982 48.5986 72.2982 48.5986C72.1982 48.5986 72.1982 48.6986 72.0982 48.6986C71.9982 48.6986 71.8982 48.7986 71.7982 48.7986H71.6982C71.4982 48.8986 71.2982 48.8986 71.0982 48.9986C70.9982 48.9986 70.7982 49.0986 70.6982 49.0986C70.2982 49.1986 69.8982 49.1986 69.3982 49.2986C69.0982 49.2986 68.6982 49.3986 68.2982 49.3986C68.0982 49.3986 67.8982 49.3986 67.6982 49.3986H67.5982C67.4982 49.3986 67.4982 49.3986 67.3982 49.3986C67.2982 49.3986 67.2982 49.3986 67.1982 49.3986C65.0982 49.3986 63.7982 49.1986 62.8982 48.8986C62.6982 48.7986 62.4982 48.7986 62.3982 48.6986C62.2982 48.6986 62.2982 48.5986 62.1982 48.5986C61.9982 48.6986 61.8982 48.7986 61.7982 48.8986H61.5982V51.1986ZM67.0982 50.1986C67.1982 50.1986 67.1982 50.1986 67.2982 50.1986C67.3982 50.1986 67.3982 50.1986 67.4982 50.1986C67.5982 50.1986 67.6982 50.1986 67.7982 50.1986H67.8982C68.0982 50.1986 68.2982 50.1986 68.4982 50.1986C68.7982 50.1986 68.9982 50.1986 69.2982 50.0986C69.7982 50.0986 70.2982 49.9986 70.6982 49.8986C71.0982 49.7986 71.4982 49.6986 71.7982 49.6986H71.8982V49.8986V50.3986V50.9986C71.8982 50.9986 71.7982 51.0986 71.6982 51.0986C71.3982 51.1986 70.8982 51.3986 69.9982 51.5986C69.7982 51.5986 69.5982 51.6986 69.3982 51.6986C68.9982 51.6986 68.5982 51.7986 67.9982 51.7986C67.8982 51.7986 67.8982 51.7986 67.7982 51.7986L67.3982 51.5986L66.9982 51.3986H66.8982L63.2982 49.8986C64.3982 50.0986 65.6982 50.1986 67.0982 50.1986Z" fill="#2988FF"/>
<path d="M61.5982 59.3986V59.5986C61.6982 59.6986 61.8982 59.9986 62.3982 60.2986C62.4982 60.3986 62.5982 60.3986 62.6982 60.3986C62.7982 60.3986 62.7982 60.3986 62.8982 60.4986C63.0982 60.5986 63.3982 60.5986 63.6982 60.6986C64.4982 60.8986 65.5982 60.9986 67.1982 60.9986C67.2982 60.9986 67.3982 60.9986 67.4982 60.9986C67.5982 60.9986 67.6982 60.9986 67.8982 60.9986H67.9982C68.0982 60.9986 68.1982 60.9986 68.2982 60.9986C68.4982 60.9986 68.6982 60.9986 68.8982 60.9986C68.9982 60.9986 69.1982 60.9986 69.2982 60.9986C69.5982 60.9986 69.8982 60.8986 70.0982 60.8986C70.2982 60.8986 70.3982 60.7986 70.5982 60.7986C70.6982 60.7986 70.6982 60.7986 70.7982 60.6986C70.9982 60.6986 71.1982 60.5986 71.3982 60.4986C71.4982 60.4986 71.4982 60.4986 71.5982 60.3986C71.6982 60.2986 71.7982 60.2986 71.8982 60.2986C71.9982 60.2986 71.9982 60.1986 72.0982 60.1986C72.0982 60.1986 72.0982 60.1986 72.1982 60.1986C72.3982 60.0986 72.5982 59.9986 72.6982 59.7986C72.6982 59.7986 72.6982 59.7986 72.6982 59.6986C72.6982 59.5986 72.7982 59.5986 72.7982 59.4986V58.4986V57.9986V57.4986V57.1986V57.0986V56.9986V56.7986H72.6982L72.5982 56.6986C72.4982 56.6986 72.3982 56.5986 72.2982 56.5986C72.1982 56.5986 72.1982 56.6986 72.0982 56.6986C71.9982 56.6986 71.8982 56.7986 71.7982 56.7986H71.6982C71.4982 56.8986 71.2982 56.8986 71.0982 56.9986C70.9982 56.9986 70.7982 57.0986 70.6982 57.0986C70.2982 57.1986 69.8982 57.1986 69.3982 57.2986C68.9982 57.2986 68.6982 57.3986 68.2982 57.3986C68.0982 57.3986 67.8982 57.3986 67.6982 57.3986H67.5982C67.4982 57.3986 67.4982 57.3986 67.3982 57.3986C67.2982 57.3986 67.2982 57.3986 67.1982 57.3986C65.0982 57.3986 63.7982 57.1986 62.8982 56.8986C62.6982 56.7986 62.4982 56.7986 62.3982 56.6986C62.2982 56.6986 62.2982 56.5986 62.1982 56.5986C61.9982 56.6986 61.8982 56.7986 61.7982 56.8986H61.5982V59.3986ZM67.0982 58.3986C67.1982 58.3986 67.1982 58.3986 67.2982 58.3986C67.3982 58.3986 67.3982 58.3986 67.4982 58.3986C67.5982 58.3986 67.6982 58.3986 67.7982 58.3986H67.8982C68.0982 58.3986 68.2982 58.3986 68.4982 58.3986C68.7982 58.3986 68.9982 58.3986 69.2982 58.2986C69.7982 58.2986 70.2982 58.1986 70.6982 58.0986C71.0982 57.9986 71.4982 57.8986 71.7982 57.8986H71.8982V58.0986V58.5986V59.1986C71.8982 59.1986 71.7982 59.2986 71.6982 59.2986C71.3982 59.3986 70.8982 59.5986 69.9982 59.7986C69.7982 59.7986 69.5982 59.8986 69.3982 59.8986C68.9982 59.8986 68.5982 59.9986 67.9982 59.9986C67.8982 59.9986 67.8982 59.9986 67.7982 59.9986L67.3982 59.7986L66.9982 59.5986H66.8982L63.2982 58.0986C64.3982 58.2986 65.6982 58.3986 67.0982 58.3986Z" fill="#2988FF"/>
<path d="M61.5982 47.0984V47.2984C61.6982 47.3984 61.8982 47.6984 62.3982 47.9984C62.4982 48.0984 62.5982 48.0984 62.6982 48.0984C62.7982 48.0984 62.7982 48.0984 62.8982 48.1984C63.0982 48.2984 63.3982 48.2984 63.6982 48.3984C64.4982 48.5984 65.5982 48.6984 67.1982 48.6984C67.2982 48.6984 67.3982 48.6984 67.4982 48.6984C67.5982 48.6984 67.6982 48.6984 67.8982 48.6984H67.9982C68.0982 48.6984 68.1982 48.6984 68.2982 48.6984C68.4982 48.6984 68.6982 48.6984 68.8982 48.6984C68.9982 48.6984 69.1982 48.6984 69.2982 48.6984C69.5982 48.6984 69.8982 48.5984 70.0982 48.5984C70.2982 48.5984 70.3982 48.4984 70.5982 48.4984C70.6982 48.4984 70.6982 48.4984 70.7982 48.3984C70.9982 48.3984 71.1982 48.2984 71.3982 48.2984C71.4982 48.2984 71.4982 48.2984 71.5982 48.1984C71.6982 48.0984 71.7982 48.0984 71.8982 48.0984C71.9982 48.0984 71.9982 48.0984 72.0982 47.9984C72.0982 47.9984 72.0982 47.9984 72.1982 47.9984C72.3982 47.8984 72.5982 47.7984 72.6982 47.5984C72.6982 47.4984 72.7982 47.4984 72.7982 47.3984V46.3984V45.8984V45.3984V45.0984V44.9984V44.8984V44.6984H72.6982L72.5982 44.5984C72.4982 44.4984 72.3982 44.4984 72.2982 44.3984C72.1982 44.3984 72.1982 44.4984 72.0982 44.4984C71.9982 44.5984 71.8982 44.5984 71.7982 44.5984C71.7982 44.5984 71.6982 44.5984 71.6982 44.6984C71.4982 44.7984 71.2982 44.7984 71.0982 44.8984C70.9982 44.8984 70.7982 44.9984 70.6982 44.9984C70.2982 45.0984 69.8982 45.0984 69.3982 45.1984C68.9982 45.1984 68.6982 45.2984 68.2982 45.2984C68.0982 45.2984 67.8982 45.2984 67.6982 45.2984H67.5982C67.4982 45.2984 67.4982 45.2984 67.3982 45.2984C67.2982 45.2984 67.2982 45.2984 67.1982 45.2984C65.0982 45.2984 63.7982 45.0984 62.8982 44.7984C62.6982 44.6984 62.4982 44.6984 62.3982 44.5984C62.2982 44.5984 62.2982 44.4984 62.1982 44.4984C61.9982 44.5984 61.8982 44.6984 61.7982 44.7984H61.5982V47.0984ZM67.0982 46.0984C67.1982 46.0984 67.1982 46.0984 67.2982 46.0984C67.3982 46.0984 67.3982 46.0984 67.4982 46.0984C67.5982 46.0984 67.6982 46.0984 67.7982 46.0984H67.8982C68.0982 46.0984 68.2982 46.0984 68.4982 46.0984C68.7982 46.0984 68.9982 46.0984 69.2982 45.9984C69.7982 45.9984 70.2982 45.8984 70.6982 45.7984C71.0982 45.6984 71.4982 45.6984 71.7982 45.5984H71.8982V45.7984V46.2984V46.8984C71.8982 46.8984 71.7982 46.9984 71.6982 46.9984C71.3982 47.0984 70.8982 47.2984 69.9982 47.4984C69.7982 47.4984 69.5982 47.4984 69.3982 47.5984C68.9982 47.5984 68.5982 47.6984 67.9982 47.6984C67.8982 47.6984 67.8982 47.6984 67.7982 47.6984L67.3982 47.5984L66.9982 47.3984H66.8982L63.2982 45.8984C64.3982 45.8984 65.6982 46.0984 67.0982 46.0984Z" fill="#2988FF"/>
<path d="M61.5982 42.9984V43.1984C61.6982 43.2984 61.8982 43.5984 62.3982 43.8984C62.4982 43.8984 62.5982 43.9984 62.6982 43.9984C62.7982 43.9984 62.7982 44.0984 62.8982 44.0984C63.0982 44.1984 63.3982 44.1984 63.6982 44.2984C64.4982 44.4984 65.5982 44.5984 67.1982 44.5984C67.2982 44.5984 67.3982 44.5984 67.4982 44.5984C67.5982 44.5984 67.6982 44.5984 67.8982 44.5984C67.8982 44.5984 67.8982 44.5984 67.9982 44.5984C68.0982 44.5984 68.1982 44.5984 68.2982 44.5984C68.4982 44.5984 68.6982 44.5984 68.8982 44.5984C68.9982 44.5984 69.1982 44.5984 69.2982 44.5984C69.5982 44.5984 69.8982 44.4984 70.0982 44.4984C70.2982 44.4984 70.3982 44.3984 70.5982 44.3984C70.6982 44.3984 70.6982 44.3984 70.7982 44.3984C70.9982 44.2984 71.1982 44.2984 71.3982 44.1984C71.4982 44.1984 71.4982 44.1984 71.5982 44.0984C71.6982 44.0984 71.7982 43.9984 71.8982 43.9984C71.9982 43.9984 71.9982 43.8984 72.0982 43.8984C72.0982 43.8984 72.0982 43.8984 72.1982 43.8984C72.3982 43.7984 72.5982 43.6984 72.6982 43.4984C72.6982 43.4984 72.6982 43.4984 72.6982 43.3984C72.6982 43.2984 72.7982 43.2984 72.7982 43.1984V42.2984V41.7984V41.2984V40.9984V40.8984V40.7984V40.5984H72.6982L72.5982 40.4984C72.4982 40.3984 72.3982 40.3984 72.2982 40.3984C72.1982 40.3984 72.1982 40.4984 72.0982 40.4984C71.9982 40.4984 71.8982 40.5984 71.7982 40.5984H71.6982C71.4982 40.5984 71.2982 40.6984 71.0982 40.7984C70.9982 40.7984 70.7982 40.8984 70.6982 40.8984C70.2982 40.9984 69.8982 40.9984 69.3982 41.0984C68.9982 41.0984 68.6982 41.1984 68.2982 41.1984C68.0982 41.1984 67.8982 41.1984 67.6982 41.1984H67.5982C67.4982 41.1984 67.4982 41.1984 67.3982 41.1984C67.2982 41.1984 67.2982 41.1984 67.1982 41.1984C65.0982 41.1984 63.7982 40.9984 62.8982 40.6984C62.6982 40.5984 62.4982 40.5984 62.3982 40.4984C62.2982 40.4984 62.2982 40.3984 62.1982 40.3984C61.9982 40.4984 61.8982 40.5984 61.7982 40.6984H61.5982V42.9984ZM67.0982 41.9984C67.1982 41.9984 67.1982 41.9984 67.2982 41.9984C67.3982 41.9984 67.3982 41.9984 67.4982 41.9984C67.5982 41.9984 67.6982 41.9984 67.7982 41.9984H67.8982C68.0982 41.9984 68.2982 41.9984 68.4982 41.9984C68.7982 41.9984 68.9982 41.9984 69.2982 41.8984C69.7982 41.8984 70.2982 41.7984 70.6982 41.6984C71.0982 41.5984 71.4982 41.4984 71.7982 41.4984H71.8982V41.6984V42.1984V42.7984C71.8982 42.7984 71.7982 42.8984 71.6982 42.8984C71.3982 42.9984 70.8982 43.1984 70.0982 43.2984C69.8982 43.2984 69.6982 43.3984 69.4982 43.3984C69.0982 43.3984 68.6982 43.4984 68.0982 43.4984C67.9982 43.4984 67.9982 43.4984 67.8982 43.4984L67.4982 43.3984L67.0982 43.1984H66.9982L63.3982 41.6984C64.3982 41.7984 65.6982 41.9984 67.0982 41.9984Z" fill="#2988FF"/>
<path d="M61.5982 63.4984V63.6984C61.6982 63.7984 61.8982 64.0984 62.3982 64.3984C62.4982 64.3984 62.5982 64.4984 62.6982 64.4984C62.7982 64.4984 62.7982 64.5984 62.8982 64.5984C63.0982 64.6984 63.3982 64.6984 63.6982 64.7984C64.4982 64.9984 65.5982 65.0984 66.9982 65.0984C67.0982 65.0984 67.0982 65.0984 67.1982 65.0984C67.2982 65.0984 67.2982 65.0984 67.3982 65.0984C67.4982 65.0984 67.4982 65.0984 67.5982 65.0984C67.6982 65.0984 67.7982 65.0984 67.8982 65.0984C68.0982 65.0984 68.1982 65.0984 68.3982 65.0984C68.5982 65.0984 68.7982 65.0984 68.8982 65.0984C68.9982 65.0984 69.1982 65.0984 69.2982 65.0984C69.3982 65.0984 69.5982 65.0984 69.6982 65.0984C69.7982 65.0984 69.9982 65.0984 70.0982 64.9984C70.2982 64.9984 70.3982 64.8984 70.5982 64.8984C70.6982 64.8984 70.6982 64.8984 70.7982 64.8984C70.9982 64.7984 71.1982 64.7984 71.3982 64.7984C71.4982 64.7984 71.4982 64.6984 71.5982 64.6984C71.6982 64.6984 71.7982 64.5984 71.8982 64.5984C71.9982 64.5984 71.9982 64.4984 71.9982 64.4984H72.0982C72.2982 64.3984 72.4982 64.1984 72.5982 64.0984C72.5982 64.0984 72.5982 64.0984 72.5982 63.9984C72.5982 63.8984 72.6982 63.8984 72.6982 63.7984V63.5984V62.7984V62.2984V61.7984V61.4984V61.3984V61.2984V61.0984H72.5982L72.4982 60.9984C72.3982 60.8984 72.2982 60.8984 72.1982 60.8984C72.0982 60.8984 72.0982 60.9984 71.9982 60.9984C71.8982 60.9984 71.7982 61.0984 71.6982 61.0984H71.5982C71.3982 61.1984 71.1982 61.1984 70.9982 61.2984C70.8982 61.2984 70.6982 61.3984 70.5982 61.3984C70.1982 61.4984 69.7982 61.4984 69.2982 61.5984C68.9982 61.5984 68.5982 61.5984 68.1982 61.6984C67.9982 61.6984 67.7982 61.6984 67.5982 61.6984H67.4982C67.3982 61.6984 67.3982 61.6984 67.2982 61.6984C67.1982 61.6984 67.1982 61.6984 67.0982 61.6984C64.9982 61.6984 63.6982 61.4984 62.7982 61.1984C62.5982 61.0984 62.3982 61.0984 62.2982 60.9984C62.1982 60.9984 62.1982 60.8984 62.0982 60.8984C61.8982 60.9984 61.7982 61.0984 61.6982 61.1984H61.5982V63.4984ZM67.0982 62.4984C67.1982 62.4984 67.1982 62.4984 67.2982 62.4984C67.3982 62.4984 67.3982 62.4984 67.4982 62.4984C67.5982 62.4984 67.6982 62.4984 67.7982 62.4984H67.8982C68.0982 62.4984 68.2982 62.4984 68.4982 62.4984C68.7982 62.4984 68.9982 62.4984 69.2982 62.4984C69.7982 62.4984 70.2982 62.3984 70.6982 62.2984C71.0982 62.1984 71.4982 62.0984 71.7982 62.0984H71.8982V62.2984V62.7984V63.3984C71.8982 63.3984 71.7982 63.4984 71.6982 63.4984C71.5982 63.5984 71.3982 63.5984 71.1982 63.6984C70.8982 63.7984 70.5982 63.8984 70.0982 63.8984C69.8982 63.8984 69.6982 63.9984 69.4982 63.9984C69.3982 63.9984 69.3982 63.9984 69.2982 63.9984C68.9982 63.9984 68.5982 64.0984 68.0982 64.0984C67.9982 64.0984 67.9982 64.0984 67.8982 64.0984L67.4982 63.9984L67.0982 63.7984H66.9982L63.3982 62.2984C64.3982 62.3984 65.6982 62.4984 67.0982 62.4984Z" fill="#2988FF"/>
<path d="M61.5982 71.7985V71.9985C61.5982 72.0985 61.7982 72.2985 62.0982 72.4985C62.1982 72.4985 62.1982 72.5985 62.2982 72.5985C62.3982 72.5985 62.3982 72.6985 62.4982 72.6985C62.6982 72.7985 62.7982 72.7985 63.0982 72.8985C63.1982 72.8985 63.2982 72.9985 63.3982 72.9985C64.1982 73.1985 65.4982 73.3985 67.2982 73.3985C69.0982 73.3985 70.3982 73.1985 71.1982 72.9985C71.2982 72.9985 71.3982 72.8985 71.4982 72.8985C71.6982 72.7985 71.8982 72.7985 72.0982 72.6985C72.1982 72.6985 72.1982 72.5985 72.2982 72.5985C72.3982 72.5985 72.4982 72.4985 72.4982 72.4985C72.7982 72.2985 72.8982 72.0985 72.9982 71.9985V69.6985V69.5985V69.4985V69.2985H72.8982C72.8982 69.2985 72.7982 69.1985 72.6982 69.1985C72.5982 69.1985 72.5982 69.0985 72.4982 69.0985C72.3982 69.0985 72.3982 69.1985 72.2982 69.1985C72.2982 69.1985 72.2982 69.1985 72.1982 69.1985C72.0982 69.1985 71.9982 69.2985 71.8982 69.2985H71.7982C71.4982 69.3985 71.1982 69.4985 70.7982 69.4985C69.9982 69.6985 68.8982 69.7985 67.3982 69.7985C65.1982 69.7985 63.8982 69.5985 62.9982 69.2985C62.7982 69.1985 62.5982 69.1985 62.4982 69.0985C62.3982 69.0985 62.3982 68.9985 62.2982 68.9985C62.0982 69.0985 61.9982 69.1985 61.8982 69.2985H61.5982V71.7985ZM67.2982 70.7985C69.0982 70.7985 70.7982 70.5985 71.7982 70.2985H71.8982V71.5985C71.7982 71.6985 71.4982 71.7985 70.9982 71.9985C70.7982 72.0985 70.4982 72.0985 70.1982 72.1985C70.0982 72.1985 70.0982 72.1985 69.9982 72.1985C69.4982 72.2985 68.7982 72.2985 67.8982 72.3985L66.9982 71.9985L66.1982 71.5985L63.3982 70.3985C64.3982 70.5985 65.7982 70.7985 67.2982 70.7985Z" fill="#2988FF"/>
<path d="M61.5982 67.5983V67.7983C61.6982 67.8983 61.8982 68.1983 62.3982 68.4983C62.4982 68.5983 62.5982 68.5983 62.6982 68.5983C62.7982 68.5983 62.7982 68.5983 62.8982 68.6983C63.0982 68.7983 63.3982 68.7983 63.6982 68.8983C64.4982 69.0983 65.5982 69.1983 67.1982 69.1983C67.7982 69.1983 68.3982 69.1983 68.8982 69.0983C69.3982 69.0983 69.7982 68.9983 70.1982 68.9983C70.2982 68.9983 70.4982 68.9983 70.5982 68.8983C70.5982 68.8983 70.5982 68.8983 70.6982 68.8983C70.9982 68.7983 71.1982 68.7983 71.3982 68.6983C71.3982 68.6983 71.3982 68.6983 71.4982 68.6983C71.5982 68.6983 71.5982 68.6983 71.6982 68.5983C71.7982 68.5983 71.7982 68.5983 71.8982 68.4983C71.9982 68.4983 71.9982 68.3983 72.0982 68.3983C72.4982 68.1983 72.6982 68.0983 72.7982 67.8983C72.8982 67.7983 72.8982 67.7983 72.8982 67.6983V67.4983V66.2983V65.7983V65.6983V65.3983V65.2983V65.1983V64.9983H72.7982L72.6982 64.8983C72.5982 64.8983 72.5982 64.7983 72.4982 64.7983C72.3982 64.7983 72.3982 64.8983 72.2982 64.8983H72.1982C72.0982 64.8983 71.9982 64.9983 71.8982 64.9983H71.7982C71.5982 65.0983 71.3982 65.0983 71.1982 65.1983C71.0982 65.1983 70.8982 65.2983 70.7982 65.2983C70.3982 65.3983 69.9982 65.3983 69.4982 65.4983C69.0982 65.4983 68.5982 65.5983 67.9982 65.5983H67.8982C67.7982 65.5983 67.6982 65.5983 67.5982 65.5983C67.4982 65.5983 67.4982 65.5983 67.3982 65.5983C67.2982 65.5983 67.2982 65.5983 67.1982 65.5983C65.0982 65.5983 63.7982 65.3983 62.8982 65.0983C62.6982 64.9983 62.4982 64.9983 62.3982 64.8983C62.2982 64.8983 62.2982 64.7983 62.1982 64.7983C61.9982 64.8983 61.8982 64.9983 61.7982 65.0983H61.5982V67.5983ZM67.0982 66.5983C67.1982 66.5983 67.1982 66.5983 67.2982 66.5983C67.3982 66.5983 67.3982 66.5983 67.4982 66.5983C67.5982 66.5983 67.5982 66.5983 67.6982 66.5983C67.7982 66.5983 67.7982 66.5983 67.8982 66.5983C68.0982 66.5983 68.2982 66.5983 68.4982 66.5983C68.9982 66.5983 69.5982 66.4983 69.9982 66.4983C70.1982 66.4983 70.3982 66.3983 70.6982 66.3983C71.0982 66.2983 71.4982 66.1983 71.7982 66.1983H71.8982V66.4983V67.2983V67.4983C71.7982 67.5983 71.3982 67.7983 70.5982 67.9983C70.3982 67.9983 70.1982 68.0983 69.9982 68.0983C69.5982 68.1983 69.0982 68.1983 68.3982 68.2983C68.1982 68.2983 68.0982 68.2983 67.8982 68.2983C67.8982 68.2983 67.8982 68.2983 67.7982 68.2983L67.5982 67.9983L67.0982 67.7983H66.9982L63.3982 66.2983C64.3982 66.4983 65.6982 66.5983 67.0982 66.5983Z" fill="#2988FF"/>
<path d="M80.4982 65.9983V65.8983C79.9982 65.8983 79.5982 65.8983 79.1982 65.7983V65.9983V66.4983C79.5982 66.4983 80.0982 66.4983 80.4982 66.4983V65.9983Z" fill="#2988FF"/>
<path d="M72.7982 36.2985C72.6982 36.1985 72.6982 36.1985 72.6982 36.1985C72.5982 36.0985 72.4982 36.0985 72.3982 35.9985C72.2982 35.9985 72.2982 36.0985 72.1982 36.0985C72.0982 36.0985 71.9982 36.1985 71.8982 36.1985H71.7982C71.5982 36.2985 71.3982 36.2985 71.1982 36.3985C71.0982 36.3985 70.8982 36.4985 70.7982 36.4985C70.3982 36.5985 69.9982 36.5985 69.4982 36.6985C69.0982 36.6985 68.7982 36.7985 68.3982 36.7985C68.1982 36.7985 67.9982 36.7985 67.7982 36.7985H67.6982C67.5982 36.7985 67.5982 36.7985 67.4982 36.7985C67.3982 36.7985 67.3982 36.7985 67.2982 36.7985C65.1982 36.7985 63.8982 36.5985 62.9982 36.2985C62.7982 36.1985 62.5982 36.1985 62.4982 36.0985C62.3982 36.0985 62.3982 35.9985 62.2982 35.9985C62.0982 36.0985 61.9982 36.1985 61.8982 36.2985H61.5982V38.7985V38.9985C61.6982 39.0985 61.8982 39.3985 62.3982 39.6985C62.4982 39.7985 62.5982 39.7985 62.6982 39.7985C62.7982 39.7985 62.7982 39.7985 62.8982 39.8985C63.0982 39.9985 63.3982 39.9985 63.6982 40.0985C64.4982 40.2985 65.5982 40.3985 67.1982 40.3985C67.2982 40.3985 67.3982 40.3985 67.4982 40.3985C67.5982 40.3985 67.6982 40.3985 67.8982 40.3985C67.8982 40.3985 67.8982 40.3985 67.9982 40.3985C68.0982 40.3985 68.1982 40.3985 68.2982 40.3985C68.4982 40.3985 68.6982 40.3985 68.8982 40.3985C68.9982 40.3985 69.1982 40.3985 69.2982 40.3985C69.5982 40.3985 69.8982 40.2985 70.0982 40.2985C70.2982 40.2985 70.3982 40.1985 70.5982 40.1985C70.6982 40.1985 70.6982 40.1985 70.7982 40.1985C70.9982 40.0985 71.1982 40.0985 71.3982 40.0985C71.4982 40.0985 71.4982 39.9985 71.5982 39.9985C71.6982 39.9985 71.7982 39.8985 71.8982 39.8985C71.9982 39.8985 71.9982 39.8985 72.0982 39.7985C72.0982 39.7985 72.0982 39.7985 72.1982 39.7985C72.3982 39.6985 72.5982 39.4985 72.6982 39.3985C72.6982 39.3985 72.6982 39.3985 72.6982 39.2985C72.6982 39.1985 72.7982 39.1985 72.7982 39.0985V38.1985V37.6985V37.1985V36.8985V36.7985V36.6985V36.4985V36.2985ZM71.8982 37.5985V38.0985V38.6985C71.8982 38.6985 71.7982 38.7985 71.6982 38.7985C71.3982 38.8985 70.8982 39.0985 70.0982 39.2985C69.8982 39.2985 69.6982 39.3985 69.4982 39.3985C69.0982 39.3985 68.6982 39.4985 68.0982 39.4985C67.9982 39.4985 67.9982 39.4985 67.8982 39.4985L67.4982 39.2985L67.0982 39.0985H66.9982L63.3982 37.5985C64.3982 37.7985 65.6982 37.8985 67.0982 37.9985C67.1982 37.9985 67.1982 37.9985 67.2982 37.9985C67.3982 37.9985 67.3982 37.9985 67.4982 37.9985C67.5982 37.9985 67.6982 37.9985 67.7982 37.9985H67.8982C68.0982 37.9985 68.2982 37.9985 68.4982 37.9985C68.7982 37.9985 68.9982 37.9985 69.2982 37.8985C69.7982 37.8985 70.2982 37.7985 70.6982 37.6985C71.0982 37.5985 71.4982 37.4985 71.7982 37.4985H71.8982V37.5985Z" fill="#2988FF"/>
<path d="M67.4982 30.7987C67.5982 30.7987 67.6982 30.7987 67.7982 30.7987H67.8982C68.1982 30.7987 68.4982 30.7987 68.7982 30.8987C69.4982 30.9987 70.2982 31.0987 70.8982 31.1987C71.1982 31.2987 71.3982 31.2987 71.5982 31.3987C71.6982 31.3987 71.6982 31.4987 71.7982 31.4987C72.0982 31.5987 72.2982 31.6987 72.4982 31.8987C72.5982 31.9987 72.6982 31.9987 72.7982 32.0987C72.8982 32.1987 72.8982 32.1987 72.9982 32.2987L73.0982 32.3987H73.1982V32.5987C74.6982 32.5987 75.6982 32.4987 76.4982 32.2987C76.7982 32.1987 77.0982 32.1987 77.2982 32.0987C77.3982 32.0987 77.3982 32.0987 77.4982 31.9987C77.5982 31.9987 77.6982 31.8987 77.7982 31.8987C78.3982 31.5987 78.5982 31.3987 78.5982 31.1987V28.8987V28.6987V28.4987H78.4982C78.3982 28.3987 78.2982 28.2987 78.0982 28.1987C77.9982 28.1987 77.9982 28.2987 77.8982 28.2987C77.7982 28.3987 77.5982 28.3987 77.3982 28.4987C76.4982 28.7987 75.0982 28.9987 72.9982 28.9987C70.7982 28.9987 69.4982 28.7987 68.5982 28.4987C68.3982 28.3987 68.1982 28.3987 68.0982 28.2987C67.9982 28.2987 67.9982 28.1987 67.8982 28.1987C67.6982 28.2987 67.5982 28.3987 67.4982 28.4987H67.3982V30.7987H67.4982ZM73.1982 29.8987C74.9982 29.8987 76.6982 29.6987 77.6982 29.3987H77.7982V30.6987C77.5982 30.7987 77.1982 31.0987 75.9982 31.2987C75.4982 31.3987 74.7982 31.4987 73.8982 31.4987L72.8982 30.9987L69.2982 29.4987C70.2982 29.6987 71.6982 29.8987 73.1982 29.8987Z" fill="#2988FF"/>
<path d="M67.4982 24.1987V26.6987V26.8987C67.5982 26.9987 67.7982 27.2987 68.2982 27.5987C68.3982 27.6987 68.4982 27.6987 68.5982 27.6987C68.6982 27.6987 68.6982 27.6987 68.7982 27.7987C68.9982 27.8987 69.2982 27.8987 69.5982 27.9987C70.3982 28.1987 71.4982 28.2987 72.9982 28.2987C74.4982 28.2987 75.5982 28.1987 76.3982 27.9987C76.6982 27.8987 76.9982 27.8987 77.1982 27.7987C77.2982 27.7987 77.2982 27.7987 77.3982 27.6987C77.4982 27.5987 77.5982 27.5987 77.6982 27.5987C78.2982 27.2987 78.4982 26.9987 78.4982 26.8987V24.5987V24.3987V24.1987H78.3982C77.8982 23.5987 75.5982 23.1987 72.8982 23.1987C70.1982 23.1987 67.8982 23.5987 67.3982 24.1987H67.4982ZM73.1982 25.7987C74.9982 25.7987 76.6982 25.5987 77.6982 25.2987H77.7982V26.5987C77.5982 26.6987 77.1982 26.9987 75.9982 27.1987C75.4982 27.2987 74.7982 27.2987 73.8982 27.3987L72.9982 26.9987L69.3982 25.4987C70.2982 25.5987 71.6982 25.7987 73.1982 25.7987Z" fill="#2988FF"/>
<path d="M92.0982 68.6986C91.9982 68.5986 91.8982 68.6986 91.8982 68.6986C91.8982 68.6986 91.8982 68.6986 91.7982 68.6986C91.6982 68.7986 91.5982 68.7986 91.3982 68.8986C90.4982 69.2986 89.0982 69.5986 86.4982 69.5986C85.2982 69.5986 84.3982 69.4986 83.5982 69.3986C83.0982 69.2986 82.5982 69.1986 82.2982 69.0986C82.1982 69.0986 81.9982 68.9986 81.8982 68.9986C81.7982 68.9986 81.6982 68.8986 81.5982 68.8986C81.4982 68.8986 81.3982 68.7986 81.2982 68.7986C81.1982 68.7986 81.1982 68.6986 81.1982 68.6986C81.1982 68.6986 81.1982 68.6986 81.0982 68.6986L80.9982 68.5986C80.9982 68.5986 80.8982 68.5986 80.8982 68.6986H80.7982V68.7986V68.9986V69.0986V69.1986V69.5986V70.8986V71.1986V71.3986C80.8982 71.6986 81.7982 72.7986 86.3982 72.7986C90.9982 72.7986 91.8982 71.6986 91.9982 71.3986V69.0986V68.8986V68.6986H92.0982ZM91.1982 70.9986C90.9982 71.1986 89.9982 71.6986 87.1982 71.6986L82.6982 69.7986C83.6982 69.9986 85.0982 70.0986 86.5982 70.0986C88.3982 70.0986 90.0982 69.8986 91.0982 69.5986H91.1982V70.9986Z" fill="#2988FF"/>
<path d="M78.6982 32.3986C78.5982 32.2986 78.4982 32.1986 78.2982 32.0986C78.1982 32.0986 78.1982 32.1986 78.0982 32.1986C77.9982 32.2986 77.7982 32.2986 77.5982 32.3986C76.6982 32.6986 75.3982 32.8986 73.2982 32.8986V33.3986V33.8986C75.0982 33.8986 76.6982 33.6986 77.6982 33.3986H77.7982V34.6986C77.5982 34.7986 77.1982 35.0986 75.9982 35.2986C75.4982 35.3986 74.7982 35.3986 73.8982 35.4986L73.3982 35.2986C73.3982 35.3986 73.2982 35.3986 73.1982 35.4986C73.0982 35.5986 72.8982 35.6986 72.6982 35.8986C72.7982 35.9986 72.8982 35.9986 72.9982 36.0986C73.0982 36.1986 73.0982 36.1986 73.1982 36.2986L73.2982 36.3986H73.3982V36.5986C74.0982 36.5986 74.6982 36.5986 75.2982 36.4986C75.3982 36.4986 75.4982 36.4986 75.5982 36.4986C75.6982 36.4986 75.8982 36.4986 75.9982 36.3986C76.2982 36.3986 76.4982 36.2986 76.6982 36.2986C76.9982 36.1986 77.2982 36.1986 77.4982 36.0986C77.5982 36.0986 77.5982 36.0986 77.6982 35.9986C77.7982 35.9986 77.8982 35.8986 77.9982 35.8986C78.0982 35.7986 78.1982 35.7986 78.2982 35.6986C78.2982 35.6986 78.3982 35.6986 78.3982 35.5986C78.5982 35.3986 78.7982 35.2986 78.7982 35.1986V35.0986V32.7986V32.5986V32.3986H78.6982Z" fill="#2988FF"/>
<path d="M78.6982 36.5983C78.5982 36.4983 78.4982 36.3983 78.2982 36.2983C78.1982 36.2983 78.1982 36.3983 78.0982 36.3983C77.9982 36.4983 77.7982 36.4983 77.5982 36.5983C77.0982 36.6983 76.5982 36.8983 75.7982 36.9983C75.5982 36.9983 75.4982 36.9983 75.2982 37.0983C75.1982 37.0983 75.0982 37.0983 74.8982 37.0983C74.3982 37.0983 73.8982 37.1983 73.3982 37.1983V37.6983V38.1983C73.8982 38.1983 74.4982 38.1983 74.9982 38.0983C75.0982 38.0983 75.2982 38.0983 75.3982 38.0983C75.4982 38.0983 75.5982 38.0983 75.6982 38.0983H75.7982C75.9982 38.0983 76.1982 38.0983 76.3982 37.9983C76.6982 37.9983 76.8982 37.8983 77.1982 37.8983C77.3982 37.8983 77.5982 37.7983 77.7982 37.6983H77.8982V37.9983V38.1983V38.9983C77.7982 39.0983 77.5982 39.1983 77.0982 39.2983C76.7982 39.3983 76.4982 39.4983 75.9982 39.4983C75.8982 39.4983 75.8982 39.4983 75.7982 39.4983C75.6982 39.4983 75.5982 39.4983 75.4982 39.4983C75.3982 39.4983 75.3982 39.4983 75.2982 39.4983C75.1982 39.4983 74.9982 39.4983 74.8982 39.4983C74.5982 39.4983 74.1982 39.4983 73.7982 39.5983L73.2982 39.3983C73.2982 39.3983 73.1982 39.4983 73.0982 39.5983C72.9982 39.6983 72.7982 39.8983 72.5982 39.9983C72.6982 40.0983 72.7982 40.0983 72.7982 40.1983C72.8982 40.2983 72.8982 40.2983 72.9982 40.3983L73.0982 40.4983H73.1982V40.6983C73.8982 40.6983 74.4982 40.6983 75.0982 40.5983C75.1982 40.5983 75.2982 40.5983 75.3982 40.5983C75.4982 40.5983 75.6982 40.5983 75.7982 40.4983C75.7982 40.4983 75.7982 40.4983 75.8982 40.4983C76.0982 40.4983 76.2982 40.3983 76.4982 40.3983C76.5982 40.3983 76.5982 40.3983 76.5982 40.3983C76.6982 40.3983 76.7982 40.3983 76.8982 40.2983C76.9982 40.2983 77.0982 40.1983 77.2982 40.1983H77.3982C77.3982 40.1983 77.3982 40.1983 77.4982 40.1983C77.5982 40.1983 77.6982 40.0983 77.7982 40.0983C77.8982 40.0983 77.9982 39.9983 78.0982 39.9983C78.0982 39.9983 78.1982 39.9983 78.1982 39.8983C78.2982 39.7983 78.3982 39.6983 78.4982 39.5983C78.4982 39.4983 78.5982 39.4983 78.5982 39.4983V39.3983V38.5983V38.0983V37.6983V37.0983V36.8983V36.6983H78.6982V36.5983Z" fill="#2988FF"/>
<path d="M92.0982 64.9987C91.9982 64.8987 91.8982 64.7987 91.6982 64.6987C91.5982 64.6987 91.5982 64.7987 91.4982 64.7987C91.3982 64.8987 91.1982 64.8987 90.9982 64.9987C90.1982 65.2987 88.8982 65.4987 86.9982 65.4987C86.8982 65.4987 86.7982 65.4987 86.5982 65.4987H86.4982C86.3982 65.4987 86.2982 65.4987 86.1982 65.4987C85.7982 65.4987 85.3982 65.4987 85.0982 65.4987C84.5982 65.4987 84.0982 65.3987 83.6982 65.3987C83.4982 65.3987 83.3982 65.2987 83.1982 65.2987C82.8982 65.2987 82.5982 65.1987 82.2982 65.0987C82.1982 65.0987 82.0982 65.0987 82.0982 64.9987C81.8982 64.8987 81.7982 64.8987 81.5982 64.7987C81.4982 64.7987 81.4982 64.6987 81.3982 64.6987C81.1982 64.7987 81.0982 64.8987 80.9982 64.9987H80.8982V65.0987V65.1987V65.2987V65.3987V65.7987V65.9987V66.4987V67.1987V67.4987V67.6987V67.7987C80.8982 67.8987 80.9982 67.9987 81.0982 67.9987C81.1982 68.0987 81.1982 68.0987 81.2982 68.1987C81.3982 68.1987 81.3982 68.2987 81.4982 68.2987C81.5982 68.2987 81.5982 68.3987 81.6982 68.3987C81.8982 68.4987 81.9982 68.4987 82.2982 68.5987C82.3982 68.5987 82.4982 68.6987 82.5982 68.6987C82.6982 68.6987 82.6982 68.6987 82.7982 68.6987C83.0982 68.7987 83.2982 68.7987 83.6982 68.8987C83.7982 68.8987 83.9982 68.8987 84.1982 68.8987C84.5982 68.8987 84.9982 68.9987 85.4982 68.9987C85.8982 68.9987 86.1982 68.9987 86.6982 68.9987C88.4982 68.9987 89.7982 68.7987 90.5982 68.5987C90.6982 68.5987 90.7982 68.4987 90.8982 68.4987C91.0982 68.3987 91.2982 68.3987 91.4982 68.2987C91.5982 68.2987 91.5982 68.1987 91.6982 68.1987C91.7982 68.1987 91.8982 68.0987 91.8982 68.0987C92.1982 67.8987 92.2982 67.6987 92.3982 67.5987V65.2987V65.0987V64.8987H92.0982V64.9987ZM91.1982 67.2987C91.0982 67.3987 90.7982 67.4987 90.2982 67.6987C90.0982 67.7987 89.7982 67.7987 89.4982 67.8987C89.4982 67.8987 89.3982 67.8987 89.2982 67.8987C88.7982 67.9987 88.0982 67.9987 87.1982 68.0987L86.8982 67.9987L86.5982 67.7987H86.4982L86.2982 67.6987L86.1982 67.5987L85.4982 67.2987L83.2982 66.3987L82.7982 66.1987C83.0982 66.2987 83.3982 66.2987 83.7982 66.3987C84.3982 66.4987 84.9982 66.4987 85.6982 66.5987C85.8982 66.5987 86.0982 66.5987 86.2982 66.5987C86.3982 66.5987 86.4982 66.5987 86.6982 66.5987C86.7982 66.5987 86.8982 66.5987 87.0982 66.5987C88.7982 66.5987 90.2982 66.3987 91.1982 66.0987H91.2982V67.2987H91.1982Z" fill="#2988FF"/>
<path d="M79.1982 67.9986C79.1982 68.0986 79.0982 68.2986 78.7982 68.4986C78.6982 68.5986 78.5982 68.5986 78.4982 68.6986C78.3982 68.7986 78.1982 68.7986 78.0982 68.8986C78.6982 68.9986 79.5982 68.9986 80.4982 69.0986V68.8986H80.6982C80.7982 68.7986 80.8982 68.6986 80.8982 68.5986C80.5982 68.3986 80.4982 68.1986 80.4982 68.0986V67.9986V67.6986L79.1982 67.0986V67.9986Z" fill="#2988FF"/>
<path d="M59.1982 29.1984C59.0982 29.0984 58.9982 28.9984 58.7982 28.8984C58.7982 28.9984 58.6982 28.9984 58.5982 28.9984C58.4982 29.0984 58.2982 29.0984 58.0982 29.1984C57.1982 29.4984 55.7982 29.6984 53.6982 29.6984C51.4982 29.6984 50.1982 29.4984 49.2982 29.1984C49.0982 29.0984 48.8982 29.0984 48.7982 28.9984C48.6982 28.9984 48.6982 28.8984 48.5982 28.8984C48.3982 28.9984 48.2982 29.0984 48.1982 29.1984H48.0982V31.6984V31.8984C48.1982 31.9984 48.3982 32.2984 48.8982 32.5984C48.9982 32.6984 49.0982 32.6984 49.1982 32.6984C49.2982 32.6984 49.2982 32.6984 49.3982 32.7984C49.5982 32.8984 49.8982 32.8984 50.1982 32.9984C50.9982 33.1984 52.0982 33.2984 53.6982 33.2984C55.1982 33.2984 56.2982 33.1984 57.1982 32.9984C57.4982 32.8984 57.7982 32.8984 57.9982 32.7984C58.0982 32.7984 58.0982 32.7984 58.1982 32.6984C58.2982 32.5984 58.3982 32.5984 58.4982 32.5984C59.0982 32.2984 59.2982 31.9984 59.2982 31.8984V29.5984V29.3984V29.1984H59.1982ZM58.2982 31.5984C58.0982 31.6984 57.6982 31.9984 56.4982 32.1984C55.9982 32.2984 55.2982 32.2984 54.3982 32.3984L53.4982 31.9984L49.8982 30.4984C50.8982 30.6984 52.2982 30.7984 53.7982 30.7984C55.5982 30.7984 57.2982 30.5984 58.2982 30.2984H58.3982V31.5984H58.2982Z" fill="#2988FF"/>
<path d="M78.1982 64.4987L78.2982 64.3987C78.3982 64.2987 78.4982 64.1987 78.5982 64.0987C78.5982 63.9987 78.6982 63.9987 78.6982 63.8987C78.6982 63.8987 78.6982 63.8987 78.6982 63.7987V63.4987V62.9987V62.4987V62.0987V61.4987C78.4982 61.4987 78.3982 61.4987 78.1982 61.3987C77.6982 61.2987 77.2982 61.2987 76.9982 61.1987C76.6982 61.2987 76.1982 61.3987 75.7982 61.3987C75.5982 61.3987 75.4982 61.3987 75.2982 61.4987C75.1982 61.4987 75.0982 61.4987 74.8982 61.4987C74.3982 61.4987 73.8982 61.4987 73.3982 61.4987V61.9987V62.4987C73.8982 62.4987 74.4982 62.4987 74.9982 62.3987C75.0982 62.3987 75.2982 62.3987 75.3982 62.3987C75.4982 62.3987 75.5982 62.3987 75.6982 62.3987H75.7982C75.9982 62.3987 76.1982 62.2987 76.3982 62.2987C76.6982 62.2987 76.8982 62.1987 77.1982 62.1987C77.3982 62.0987 77.5982 62.0987 77.7982 61.9987H77.8982V62.2987V62.4987V63.2987C77.7982 63.3987 77.5982 63.4987 77.0982 63.6987H76.9982C76.7982 63.7987 76.4982 63.7987 76.1982 63.8987H76.0982C75.9982 63.8987 75.9982 63.8987 75.8982 63.8987C75.7982 63.8987 75.6982 63.8987 75.5982 63.8987C75.4982 63.8987 75.4982 63.8987 75.3982 63.8987C75.2982 63.8987 75.0982 63.8987 74.9982 63.8987C74.6982 63.8987 74.2982 63.9987 73.8982 63.9987L73.3982 63.7987C73.3982 63.8987 73.2982 63.8987 73.1982 63.9987C73.0982 64.0987 72.8982 64.2987 72.6982 64.3987C72.7982 64.4987 72.8982 64.4987 72.9982 64.5987C72.9982 64.5987 72.9982 64.5987 73.0982 64.6987L73.1982 64.7987L73.2982 64.8987H73.3982V65.0987C73.9982 65.0987 74.4982 65.0987 74.9982 64.9987C75.0982 64.9987 75.2982 64.9987 75.3982 64.9987H75.4982C75.6982 64.9987 75.8982 64.9987 76.0982 64.8987C76.0982 64.8987 76.0982 64.8987 76.1982 64.8987C76.4982 64.8987 76.6982 64.7987 76.8982 64.7987C76.9982 64.7987 77.0982 64.7987 77.1982 64.6987C77.2982 64.6987 77.3982 64.6987 77.4982 64.5987C77.5982 64.5987 77.5982 64.5987 77.6982 64.4987C77.7982 64.3987 77.9982 64.3987 78.0982 64.3987C78.1982 64.3987 78.1982 64.2987 78.2982 64.2987C78.0982 64.5987 78.1982 64.5987 78.1982 64.4987Z" fill="#2988FF"/>
<path d="M40.0982 70.2983V70.4983V72.1983V72.4983V72.6983C40.1982 72.9983 41.0982 74.0983 45.6982 74.0983C50.2982 74.0983 51.1982 72.9983 51.2982 72.6983V70.3983V70.2983V70.1983V69.9983H51.1982C51.1982 69.9983 51.0982 69.8983 50.9982 69.8983C50.8982 69.8983 50.8982 69.7983 50.7982 69.7983L50.6982 69.8983C50.6982 69.8983 50.6982 69.8983 50.5982 69.8983C50.4982 69.8983 50.4982 69.9983 50.3982 69.9983C50.2982 69.9983 50.1982 70.0983 50.0982 70.0983C49.9982 70.0983 49.7982 70.1983 49.6982 70.1983C48.7982 70.3983 47.4982 70.5983 45.6982 70.5983C43.4982 70.5983 42.1982 70.3983 41.2982 70.0983C41.0982 69.9983 40.8982 69.9983 40.7982 69.8983C40.6982 69.8983 40.6982 69.7983 40.5982 69.7983C40.3982 69.8983 40.2982 69.9983 40.1982 70.0983H40.0982V70.2983ZM45.7982 71.4983C47.5982 71.4983 49.2982 71.2983 50.2982 70.9983H50.3982V72.2983C50.1982 72.4983 49.1982 72.9983 46.3982 72.9983L41.8982 71.0983C42.8982 71.3983 44.2982 71.4983 45.7982 71.4983Z" fill="#2988FF"/>
<path d="M40.0982 65.8985V66.1985V66.3985V68.0985V68.3985V68.5985C40.1982 68.6985 40.3982 68.9985 40.8982 69.2985C40.9982 69.3985 41.0982 69.3985 41.1982 69.3985C41.2982 69.3985 41.2982 69.3985 41.3982 69.4985C41.5982 69.5985 41.8982 69.5985 42.1982 69.6985C42.9982 69.8985 44.0982 69.9985 45.6982 69.9985C46.9982 69.9985 47.8982 69.8985 48.6982 69.7985C48.8982 69.7985 48.9982 69.6985 49.1982 69.6985C49.2982 69.6985 49.3982 69.6985 49.4982 69.5985C49.5982 69.5985 49.6982 69.4985 49.7982 69.4985C49.8982 69.4985 49.9982 69.3985 49.9982 69.3985C50.0982 69.3985 50.0982 69.3985 50.1982 69.2985C50.1982 69.2985 50.1982 69.2985 50.2982 69.2985C50.3982 69.2985 50.4982 69.1985 50.5982 69.1985C50.5982 69.1985 50.5982 69.1985 50.6982 69.1985C50.9982 68.9985 51.1982 68.8985 51.3982 68.6985C51.4982 68.5985 51.4982 68.5985 51.4982 68.4985V67.5985V67.1985V66.7985V66.5985V66.2985V66.1985V66.0985V65.8985H51.3982C51.2982 65.7985 51.1982 65.6985 50.9982 65.5985C50.8982 65.5985 50.7982 65.4985 50.6982 65.4985C50.4982 65.3985 50.1982 65.2985 49.8982 65.2985C49.7982 65.2985 49.7982 65.2985 49.6982 65.2985C49.4982 65.2985 49.2982 65.1985 49.0982 65.1985C48.9982 65.1985 48.8982 65.1985 48.6982 65.0985C48.5982 65.0985 48.4982 65.0985 48.3982 65.0985C48.2982 65.0985 48.1982 65.0985 48.0982 65.0985H47.9982C47.8982 65.0985 47.6982 65.0985 47.5982 65.0985C46.9982 64.9985 46.3982 64.9985 45.7982 64.9985C43.0982 64.9985 40.7982 65.3985 40.2982 65.9985H40.0982V65.8985ZM45.7982 67.3985C46.3982 67.3985 47.0982 67.3985 47.5982 67.2985C47.6982 67.2985 47.8982 67.2985 47.9982 67.2985C48.0982 67.2985 48.1982 67.2985 48.2982 67.2985H48.3982C48.5982 67.2985 48.7982 67.1985 48.9982 67.1985C49.2982 67.1985 49.4982 67.0985 49.7982 67.0985C49.9982 66.9985 50.0982 66.9985 50.2982 66.9985H50.3982V67.1985V67.2985V68.1985C50.2982 68.2985 50.0982 68.3985 49.7982 68.4985C49.4982 68.5985 49.1982 68.6985 48.7982 68.6985H48.6982C48.5982 68.6985 48.4982 68.6985 48.3982 68.6985C48.2982 68.6985 48.2982 68.6985 48.1982 68.6985C48.0982 68.6985 47.8982 68.6985 47.7982 68.6985C47.3982 68.6985 46.9982 68.7985 46.5982 68.7985L45.6982 68.3985L42.0982 66.8985C42.8982 67.2985 44.2982 67.3985 45.7982 67.3985Z" fill="#2988FF"/>
<path d="M80.7982 64.2983C80.6982 64.1983 80.5982 63.9983 80.5982 63.9983V63.8983L79.8982 63.5983L79.2982 63.2983V63.5983V63.9983V64.1983V64.2983V64.3983C79.1982 64.4983 79.0982 64.5983 78.9982 64.7983C78.9982 64.7983 78.8982 64.8983 78.7982 64.8983L78.6982 64.9983C78.5982 65.0983 78.4982 65.0983 78.2982 65.1983C78.4982 65.1983 78.6982 65.1983 78.8982 65.2983H78.9982C79.0982 65.2983 79.1982 65.2983 79.3982 65.2983C79.7982 65.2983 80.1982 65.3983 80.6982 65.3983V65.0983H80.8982L80.9982 64.9983C80.9982 64.8983 81.0982 64.8983 81.1982 64.7983C81.2982 64.6983 81.3982 64.6983 81.4982 64.5983C81.0982 64.4983 80.8982 64.3983 80.7982 64.2983C80.7982 64.2983 80.8982 64.2983 80.7982 64.2983Z" fill="#2988FF"/>
<path d="M86.5982 59.7983C86.5982 59.7983 86.4982 59.7983 86.5982 59.7983C86.3982 59.7983 86.2982 59.7983 86.1982 59.7983C85.4982 59.7983 84.7982 59.8983 84.0982 59.8983C83.8982 59.8983 83.7982 59.8983 83.5982 59.9983C83.3982 59.9983 83.1982 60.0983 82.9982 60.0983C82.7982 60.1983 82.4982 60.1983 82.2982 60.1983C81.8982 60.2983 81.5982 60.3983 81.2982 60.4983C81.0982 60.5983 80.9982 60.6983 80.8982 60.7983H80.7982V60.9983V61.0983V61.1983V61.2983V61.6983V62.1983V62.6983V62.9983V63.2983V63.3983V63.4983C80.7982 63.5983 80.8982 63.6983 81.0982 63.7983C81.1982 63.8983 81.3982 63.9983 81.6982 64.1983H81.7982C81.8982 64.1983 81.8982 64.2983 81.9982 64.2983C82.0982 64.2983 82.0982 64.2983 82.1982 64.3983C82.3982 64.4983 82.6982 64.4983 82.9982 64.5983C83.2982 64.6983 83.5982 64.6983 83.9982 64.7983C84.2982 64.7983 84.4982 64.8983 84.7982 64.8983C84.8982 64.8983 84.9982 64.8983 85.0982 64.8983H85.1982C85.2982 64.8983 85.3982 64.8983 85.5982 64.8983C85.6982 64.8983 85.8982 64.8983 86.0982 64.8983C86.0982 64.8983 86.0982 64.8983 86.1982 64.8983C86.2982 64.8983 86.2982 64.8983 86.3982 64.8983H86.4982C86.5982 64.8983 86.5982 64.8983 86.5982 64.8983C88.0982 64.8983 89.0982 64.7983 89.8982 64.5983C90.1982 64.4983 90.4982 64.4983 90.6982 64.3983C90.7982 64.3983 90.7982 64.3983 90.8982 64.2983C90.9982 64.1983 91.0982 64.1983 91.1982 64.1983C91.7982 63.8983 91.9982 63.5983 91.9982 63.4983V61.1983V60.9983V60.7983H91.8982C91.3982 60.1983 89.2982 59.7983 86.6982 59.7983C86.7982 59.7983 86.6982 59.7983 86.5982 59.7983ZM91.0982 61.8983H91.1982V63.1983C90.9982 63.2983 90.5982 63.5983 89.3982 63.7983C88.8982 63.8983 88.1982 63.8983 87.2982 63.9983L86.9982 63.8983L86.5982 63.6983L86.3982 63.5983L86.2982 63.4983L85.5982 63.2983L83.9982 62.5983L83.1982 62.2983L82.6982 62.0983C83.0982 62.1983 83.4982 62.2983 83.9982 62.2983C84.2982 62.2983 84.6982 62.3983 85.0982 62.3983C85.2982 62.3983 85.3982 62.3983 85.5982 62.3983C85.7982 62.3983 85.9982 62.3983 86.1982 62.3983C86.2982 62.3983 86.3982 62.3983 86.5982 62.3983C86.6982 62.3983 86.8982 62.3983 86.9982 62.3983C88.5982 62.3983 90.0982 62.1983 91.0982 61.8983Z" fill="#2988FF"/>
<path d="M48.0982 25.0986H47.9982V27.5986V27.7986C48.0982 27.8986 48.2982 28.1986 48.7982 28.4986C48.8982 28.4986 48.9982 28.5986 49.0982 28.5986C49.1982 28.5986 49.1982 28.5986 49.2982 28.6986C49.4982 28.7986 49.7982 28.7986 50.0982 28.8986C50.8982 29.0986 51.9982 29.1986 53.4982 29.1986C54.9982 29.1986 56.0982 29.0986 56.8982 28.8986C57.1982 28.7986 57.4982 28.7986 57.6982 28.6986C57.7982 28.6986 57.7982 28.6986 57.8982 28.5986C57.9982 28.5986 58.0982 28.4986 58.1982 28.4986C58.7982 28.1986 58.9982 27.8986 58.9982 27.7986V25.4986V25.2986V25.0986H58.8982C58.3982 24.4986 56.0982 24.0986 53.3982 24.0986C50.6982 24.0986 48.6982 24.4986 48.0982 25.0986ZM58.2982 26.0986V27.3986C58.0982 27.4986 57.6982 27.7986 56.4982 27.9986C55.9982 28.0986 55.2982 28.1986 54.3982 28.1986L53.4982 27.7986L49.8982 26.2986C50.8982 26.4986 52.2982 26.6986 53.7982 26.6986C55.5982 26.6986 57.2982 26.4986 58.2982 26.1986V26.0986Z" fill="#2988FF"/>
<path d="M80.9982 60.5987C81.1982 60.4987 81.3982 60.3987 81.5982 60.1987C81.5982 60.1987 81.5982 60.1987 81.6982 60.1987C81.5982 60.1987 81.5982 60.1987 81.4982 60.1987L80.5982 59.7987L79.0982 59.1987V59.8987V60.0987V60.1987C79.0982 60.1987 79.0982 60.1987 79.0982 60.2987C78.9982 60.3987 78.8982 60.4987 78.6982 60.6987C78.6982 60.6987 78.5982 60.6987 78.5982 60.7987C78.4982 60.7987 78.4982 60.8987 78.3982 60.8987C78.2982 60.8987 78.2982 60.9987 78.1982 60.9987C78.0982 60.9987 78.0982 61.0987 77.9982 61.0987C77.9982 61.0987 77.9982 61.0987 78.0982 61.0987C78.1982 61.0987 78.3982 61.0987 78.4982 61.1987C78.5982 61.1987 78.6982 61.1987 78.7982 61.1987C79.2982 61.1987 79.7982 61.2987 80.3982 61.2987V60.9987H80.5982C80.7982 60.8987 80.8982 60.7987 80.9982 60.5987C80.9982 60.5987 80.9982 60.6987 80.9982 60.5987Z" fill="#2988FF"/>
<path d="M79.1982 62.6983C79.5982 62.6983 80.0982 62.7983 80.4982 62.7983V62.2983V61.7983C79.9982 61.7983 79.5982 61.7983 79.1982 61.7983V62.3983V62.6983Z" fill="#2988FF"/>
<path d="M78.2982 60.3983C78.3982 60.2983 78.4982 60.1983 78.5982 60.0983C78.5982 59.9983 78.6982 59.9983 78.6982 59.9983V59.8983V59.0983V58.5983V58.1983V57.5983C78.4982 57.5983 78.3982 57.5983 78.1982 57.4983C77.6982 57.3983 77.2982 57.3983 76.9982 57.2983C76.6982 57.3983 76.1982 57.4983 75.7982 57.4983C75.5982 57.4983 75.4982 57.4983 75.2982 57.5983C75.1982 57.5983 75.0982 57.5983 74.8982 57.5983C74.3982 57.5983 73.8982 57.6983 73.3982 57.6983V58.1983V58.6983C73.8982 58.6983 74.4982 58.6983 74.9982 58.5983C75.0982 58.5983 75.2982 58.5983 75.3982 58.5983C75.4982 58.5983 75.5982 58.5983 75.6982 58.5983H75.7982C75.9982 58.5983 76.1982 58.4983 76.3982 58.4983C76.6982 58.4983 76.8982 58.3983 77.1982 58.3983C77.3982 58.2983 77.5982 58.2983 77.7982 58.1983H77.8982V58.4983V58.6983V59.4983C77.7982 59.5983 77.5982 59.6983 77.0982 59.7983C76.7982 59.8983 76.4982 59.9983 75.9982 59.9983C75.8982 59.9983 75.8982 59.9983 75.7982 59.9983C75.6982 59.9983 75.5982 59.9983 75.4982 59.9983C75.3982 59.9983 75.3982 59.9983 75.2982 59.9983C75.1982 59.9983 74.9982 59.9983 74.8982 59.9983C74.5982 59.9983 74.1982 59.9983 73.7982 60.0983L73.2982 59.9983C73.2982 60.0983 73.1982 60.0983 73.0982 60.1983C72.9982 60.2983 72.7982 60.3983 72.5982 60.5983C72.6982 60.6983 72.7982 60.6983 72.8982 60.7983C72.9982 60.8983 72.9982 60.8983 73.0982 60.9983L73.1982 61.0983H73.2982V61.2983C73.9982 61.2983 74.5982 61.2983 75.1982 61.1983C75.2982 61.1983 75.3982 61.1983 75.4982 61.1983C75.5982 61.1983 75.7982 61.1983 75.8982 61.0983C75.8982 61.0983 75.8982 61.0983 75.9982 61.0983C76.1982 61.0983 76.3982 60.9983 76.5982 60.9983H76.6982C76.7982 60.9983 76.8982 60.9983 76.9982 60.8983C77.0982 60.8983 77.1982 60.7983 77.3982 60.7983H77.4982C77.4982 60.7983 77.4982 60.7983 77.5982 60.7983C77.6982 60.6983 77.7982 60.6983 77.8982 60.6983C78.0982 60.4983 78.0982 60.4983 78.2982 60.3983Z" fill="#2988FF"/>
<path d="M78.2982 56.1986C78.3982 56.0986 78.4982 55.9986 78.5982 55.8986L78.6982 55.7986V55.6986V54.8986V54.3986V53.9986V53.3986C78.4982 53.3986 78.3982 53.3986 78.1982 53.2986C77.6982 53.1986 77.2982 53.1986 76.9982 53.0986C76.6982 53.1986 76.1982 53.1986 75.7982 53.2986C75.5982 53.2986 75.4982 53.2986 75.2982 53.3986C75.1982 53.3986 75.0982 53.3986 74.8982 53.3986C74.3982 53.3986 73.8982 53.4986 73.3982 53.4986V53.9986V54.4986C73.8982 54.4986 74.4982 54.4986 74.9982 54.3986C75.0982 54.3986 75.2982 54.3986 75.3982 54.3986C75.4982 54.3986 75.5982 54.3986 75.6982 54.3986H75.7982C75.9982 54.3986 76.1982 54.2986 76.3982 54.2986C76.6982 54.2986 76.8982 54.1986 77.1982 54.1986C77.3982 54.0986 77.5982 54.0986 77.7982 53.9986H77.8982V54.2986V54.4986V55.2986C77.7982 55.3986 77.5982 55.4986 77.0982 55.5986C76.7982 55.6986 76.4982 55.7986 75.9982 55.7986C75.8982 55.7986 75.8982 55.7986 75.7982 55.7986C75.6982 55.7986 75.5982 55.7986 75.4982 55.7986C75.3982 55.7986 75.3982 55.7986 75.2982 55.7986C75.1982 55.7986 74.9982 55.7986 74.8982 55.7986C74.5982 55.7986 74.1982 55.7986 73.7982 55.8986L73.2982 55.6986C73.2982 55.7986 73.1982 55.7986 73.0982 55.8986C72.9982 55.9986 72.7982 56.0986 72.5982 56.2986C72.6982 56.3986 72.7982 56.3986 72.8982 56.4986C72.9982 56.5986 72.9982 56.5986 73.0982 56.6986L73.1982 56.7986H73.2982V56.9986C73.9982 56.9986 74.5982 56.9986 75.1982 56.8986C75.2982 56.8986 75.3982 56.8986 75.4982 56.8986C75.5982 56.8986 75.7982 56.8986 75.8982 56.8986C75.8982 56.8986 75.8982 56.8986 75.9982 56.8986C76.1982 56.8986 76.3982 56.7986 76.5982 56.7986H76.6982C76.7982 56.7986 76.8982 56.7986 76.9982 56.6986C77.0982 56.6986 77.1982 56.5986 77.3982 56.5986C77.3982 56.5986 77.4982 56.5986 77.4982 56.4986C77.4982 56.4986 77.4982 56.4986 77.5982 56.4986C77.6982 56.4986 77.7982 56.3986 77.8982 56.3986C78.0982 56.3986 78.0982 56.3986 78.2982 56.1986C78.2982 56.2986 78.2982 56.2986 78.2982 56.1986Z" fill="#2988FF"/>
<path d="M78.2982 47.9985C78.3982 47.8985 78.4982 47.7985 78.5982 47.7985L78.6982 47.6985V47.5985V46.7985V46.2985V45.8985V45.2985C78.4982 45.2985 78.3982 45.2985 78.1982 45.1985C77.6982 45.0985 77.2982 45.0985 76.9982 44.9985C76.6982 45.0985 76.1982 45.0985 75.7982 45.1985C75.5982 45.1985 75.4982 45.1985 75.2982 45.2985C75.1982 45.2985 75.0982 45.2985 74.8982 45.2985C74.3982 45.2985 73.8982 45.3985 73.3982 45.3985V45.8985V46.3985C73.8982 46.3985 74.4982 46.3985 74.9982 46.2985C75.0982 46.2985 75.2982 46.2985 75.3982 46.2985C75.4982 46.2985 75.5982 46.2985 75.6982 46.2985H75.7982C75.9982 46.2985 76.1982 46.1985 76.3982 46.1985C76.6982 46.1985 76.8982 46.0985 77.1982 46.0985C77.3982 46.0985 77.5982 45.9985 77.7982 45.8985H77.8982V46.1985V46.3985V47.1985C77.7982 47.2985 77.5982 47.3985 77.0982 47.4985C76.7982 47.5985 76.4982 47.6985 75.9982 47.6985C75.8982 47.6985 75.8982 47.6985 75.7982 47.6985C75.6982 47.6985 75.5982 47.6985 75.4982 47.6985C75.3982 47.6985 75.3982 47.6985 75.2982 47.6985C75.1982 47.6985 74.9982 47.6985 74.8982 47.6985C74.5982 47.6985 74.1982 47.6985 73.7982 47.7985L73.2982 47.5985C73.2982 47.6985 73.1982 47.6985 73.0982 47.7985C72.9982 47.8985 72.7982 47.9985 72.5982 48.1985C72.6982 48.2985 72.7982 48.2985 72.8982 48.3985C72.9982 48.4985 72.9982 48.4985 73.0982 48.5985L73.1982 48.6985H73.2982V48.8985C73.9982 48.8985 74.5982 48.8985 75.1982 48.7985C75.2982 48.7985 75.3982 48.7985 75.4982 48.7985C75.6982 48.7985 75.7982 48.7985 75.8982 48.6985C75.8982 48.6985 75.8982 48.6985 75.9982 48.6985C76.1982 48.6985 76.3982 48.5985 76.5982 48.5985H76.6982C76.7982 48.5985 76.8982 48.5985 76.9982 48.4985C77.0982 48.4985 77.1982 48.3985 77.3982 48.3985C77.3982 48.3985 77.4982 48.3985 77.4982 48.2985C77.4982 48.2985 77.4982 48.2985 77.5982 48.2985C77.6982 48.1985 77.7982 48.1985 77.8982 48.1985C78.0982 48.1985 78.0982 48.0985 78.2982 47.9985C78.2982 47.9985 78.2982 48.0985 78.2982 47.9985Z" fill="#2988FF"/>
<path d="M78.2982 43.8983C78.3982 43.7983 78.4982 43.6983 78.5982 43.5983C78.5982 43.4983 78.6982 43.4983 78.6982 43.4983V43.3983V42.5983V42.0983V41.6983V41.0983C78.4982 41.0983 78.3982 41.0983 78.1982 40.9983C77.6982 40.8983 77.2982 40.8983 76.9982 40.7983C76.6982 40.8983 76.1982 40.8983 75.7982 40.9983C75.5982 40.9983 75.4982 40.9983 75.2982 41.0983C75.1982 41.0983 75.0982 41.0983 74.8982 41.0983C74.3982 41.0983 73.8982 41.1983 73.3982 41.1983V41.6983V42.1983C73.8982 42.1983 74.4982 42.1983 74.9982 42.0983C75.0982 42.0983 75.2982 42.0983 75.3982 42.0983C75.4982 42.0983 75.5982 42.0983 75.6982 42.0983H75.7982C75.9982 42.0983 76.1982 41.9983 76.3982 41.9983C76.6982 41.9983 76.8982 41.8983 77.1982 41.8983C77.4982 41.8983 77.5982 41.7983 77.7982 41.6983H77.8982V41.9983V42.1983V42.9983C77.7982 43.0983 77.5982 43.1983 77.0982 43.2983C76.7982 43.3983 76.4982 43.4983 75.9982 43.4983C75.8982 43.4983 75.8982 43.4983 75.7982 43.4983C75.6982 43.4983 75.5982 43.4983 75.4982 43.4983C75.3982 43.4983 75.3982 43.4983 75.2982 43.4983C75.1982 43.4983 74.9982 43.4983 74.8982 43.4983C74.5982 43.4983 74.1982 43.4983 73.7982 43.4983L73.2982 43.2983C73.2982 43.3983 73.1982 43.3983 73.0982 43.4983C72.9982 43.5983 72.7982 43.6983 72.5982 43.8983C72.6982 43.9983 72.7982 43.9983 72.8982 44.0983C72.9982 44.1983 72.9982 44.1983 73.0982 44.2983L73.1982 44.3983H73.2982V44.5983C73.9982 44.5983 74.5982 44.5983 75.1982 44.4983C75.2982 44.4983 75.3982 44.4983 75.4982 44.4983C75.5982 44.4983 75.7982 44.4983 75.8982 44.3983C75.8982 44.3983 75.8982 44.3983 75.9982 44.3983C76.1982 44.3983 76.3982 44.2983 76.5982 44.2983H76.6982C76.7982 44.2983 76.8982 44.2983 76.9982 44.1983C77.0982 44.1983 77.1982 44.0983 77.3982 44.0983C77.3982 44.0983 77.4982 44.0983 77.4982 43.9983C77.4982 43.9983 77.4982 43.9983 77.5982 43.9983C77.6982 43.9983 77.7982 43.8983 77.8982 43.8983C78.0982 44.0983 78.0982 43.9983 78.2982 43.8983Z" fill="#2988FF"/>
<path d="M78.2982 52.0986C78.4982 51.9986 78.5982 51.9986 78.5982 51.8986C78.5982 51.7986 78.6982 51.7986 78.6982 51.7986V51.6986V50.8986V50.3986V49.9986V49.3986C78.4982 49.3986 78.3982 49.3986 78.1982 49.2986C77.6982 49.2986 77.2982 49.1986 76.9982 49.0986C76.6982 49.1986 76.1982 49.2986 75.7982 49.2986C75.5982 49.2986 75.4982 49.2986 75.2982 49.3986C75.1982 49.3986 75.0982 49.3986 74.8982 49.3986C74.3982 49.3986 73.8982 49.4986 73.3982 49.4986V49.9986V50.4986C73.8982 50.4986 74.4982 50.4986 74.9982 50.3986C75.0982 50.3986 75.2982 50.3986 75.3982 50.3986C75.4982 50.3986 75.5982 50.3986 75.6982 50.3986H75.7982C75.9982 50.3986 76.1982 50.2986 76.3982 50.2986C76.6982 50.2986 76.8982 50.1986 77.1982 50.1986C77.4982 50.1986 77.5982 50.0986 77.7982 49.9986H77.8982V50.2986V50.4986V51.2986C77.7982 51.3986 77.5982 51.4986 77.0982 51.6986C76.7982 51.7986 76.4982 51.8986 75.9982 51.8986C75.8982 51.8986 75.8982 51.8986 75.7982 51.8986C75.6982 51.8986 75.5982 51.8986 75.4982 51.8986C75.3982 51.8986 75.3982 51.8986 75.2982 51.8986C75.1982 51.8986 74.9982 51.8986 74.8982 51.8986C74.5982 51.8986 74.1982 51.8986 73.7982 51.8986L73.2982 51.6986C73.2982 51.7986 73.1982 51.7986 73.0982 51.8986C72.9982 51.9986 72.7982 52.1986 72.5982 52.2986C72.6982 52.3986 72.7982 52.3986 72.8982 52.4986C72.9982 52.5986 72.9982 52.5986 73.0982 52.6986L73.1982 52.7986H73.2982V52.9986C73.9982 52.9986 74.5982 52.9986 75.1982 52.8986C75.2982 52.8986 75.3982 52.8986 75.4982 52.8986C75.5982 52.8986 75.7982 52.8986 75.8982 52.7986C75.8982 52.7986 75.8982 52.7986 75.9982 52.7986C76.1982 52.7986 76.3982 52.6986 76.5982 52.6986H76.6982C76.7982 52.6986 76.8982 52.6986 76.9982 52.5986C77.0982 52.5986 77.1982 52.4986 77.3982 52.4986H77.4982C77.4982 52.4986 77.4982 52.4986 77.5982 52.4986C77.6982 52.4986 77.7982 52.3986 77.8982 52.3986C78.0982 52.2986 78.0982 52.1986 78.2982 52.0986C78.2982 52.1986 78.2982 52.1986 78.2982 52.0986Z" fill="#2988FF"/>
<path d="M67.2982 31.1987C67.1982 31.1987 67.1982 31.1987 67.0982 31.1987C64.3982 31.1987 62.1982 31.5987 61.6982 32.1987H61.5982V34.6987V34.8987C61.6982 34.9987 61.8982 35.2987 62.3982 35.5987C62.4982 35.6987 62.5982 35.6987 62.6982 35.6987C62.7982 35.6987 62.7982 35.6987 62.8982 35.7987C63.0982 35.8987 63.3982 35.8987 63.6982 35.9987C64.4982 36.1987 65.5982 36.2987 67.0982 36.2987C67.1982 36.2987 67.2982 36.2987 67.3982 36.2987C67.4982 36.2987 67.5982 36.2987 67.7982 36.2987H67.8982C67.9982 36.2987 68.0982 36.2987 68.1982 36.2987C68.3982 36.2987 68.5982 36.2987 68.7982 36.2987C68.8982 36.2987 69.0982 36.2987 69.1982 36.2987C69.4982 36.2987 69.7982 36.1987 69.9982 36.1987C70.1982 36.1987 70.2982 36.0987 70.4982 36.0987C70.5982 36.0987 70.5982 36.0987 70.6982 35.9987C70.8982 35.9987 71.0982 35.8987 71.2982 35.8987C71.3982 35.8987 71.3982 35.8987 71.4982 35.7987C71.5982 35.6987 71.6982 35.6987 71.7982 35.6987C71.8982 35.6987 71.8982 35.5987 71.9982 35.5987C71.9982 35.5987 71.9982 35.5987 72.0982 35.5987C72.2982 35.4987 72.4982 35.3987 72.5982 35.1987C72.5982 35.1987 72.5982 35.1987 72.5982 35.0987C72.5982 34.9987 72.6982 34.9987 72.6982 34.8987V33.8987V33.3987V32.8987V32.5987V32.4987V32.3987V32.1987H72.5982L72.4982 32.0987C72.3982 31.9987 72.1982 31.8987 71.9982 31.8987C71.6982 31.7987 71.3982 31.6987 70.8982 31.5987H70.7982C70.4982 31.4987 70.0982 31.4987 69.6982 31.3987C69.0982 31.2987 68.4982 31.2987 67.8982 31.2987C67.7982 31.2987 67.6982 31.2987 67.6982 31.2987C67.5982 31.2987 67.4982 31.2987 67.3982 31.2987H67.2982C67.3982 31.1987 67.3982 31.1987 67.2982 31.1987ZM67.7982 33.6987C67.7982 33.6987 67.8982 33.6987 67.7982 33.6987C68.0982 33.6987 68.2982 33.6987 68.4982 33.6987C68.7982 33.6987 68.9982 33.6987 69.2982 33.5987C69.7982 33.4987 70.2982 33.4987 70.6982 33.3987C71.0982 33.2987 71.4982 33.2987 71.7982 33.1987H71.8982V33.3987V33.9987V34.5987C71.8982 34.5987 71.7982 34.6987 71.6982 34.6987C71.3982 34.7987 70.8982 34.9987 70.0982 35.1987C69.8982 35.1987 69.6982 35.2987 69.4982 35.2987C69.0982 35.2987 68.6982 35.3987 68.0982 35.3987C67.9982 35.3987 67.9982 35.3987 67.8982 35.3987L67.4982 35.2987L67.0982 35.0987H66.9982L63.3982 33.5987C64.3982 33.7987 65.6982 33.8987 67.0982 33.8987C67.1982 33.8987 67.1982 33.8987 67.2982 33.8987C67.3982 33.8987 67.3982 33.8987 67.4982 33.8987C67.5982 33.6987 67.6982 33.6987 67.7982 33.6987Z" fill="#2988FF"/>
<path d="M41.5982 46.1987H37.7982C37.3982 46.1987 37.0982 46.4987 37.0982 46.8987V53.7987C37.0982 54.1987 37.3982 54.4987 37.7982 54.4987H41.5982C41.9982 54.4987 42.2982 54.1987 42.2982 53.7987V46.9987C42.2982 46.5987 41.9982 46.1987 41.5982 46.1987ZM40.7982 53.0987H38.4982V47.6987H40.7982V53.0987Z" fill="#1C3553"/>
<path d="M22.6982 46.1987C22.2982 46.1987 21.9982 46.4987 21.9982 46.8987V53.7987C21.9982 54.1987 22.2982 54.4987 22.6982 54.4987H26.4982C26.8982 54.4987 27.1982 54.1987 27.1982 53.7987V46.9987C27.1982 46.5987 26.8982 46.2987 26.4982 46.2987H22.6982V46.1987ZM25.7982 53.0987H23.4982V47.6987H25.7982V53.0987Z" fill="#1C3553"/>
<path d="M34.1982 73.7986C35.2982 73.7986 36.1982 72.8986 36.1982 71.7986C36.1982 70.6986 35.2982 69.7986 34.1982 69.7986H15.9982V46.0986C15.9982 43.8986 14.6982 42.5986 12.3982 42.5986C11.2982 42.5986 10.1982 42.5986 9.0982 42.5986C12.1982 39.7986 18.7982 33.6986 24.4982 28.5986C28.6982 24.7986 32.3982 21.3986 33.5982 20.2986C35.9982 22.4986 42.3982 28.6986 42.3982 28.7986C43.1982 29.5986 44.4982 29.5986 45.1982 28.7986C45.9982 27.9986 45.9982 26.6986 45.1982 25.9986C44.8982 25.6986 38.1982 19.1986 35.9982 17.1986C34.8982 16.1986 33.0982 15.3986 31.0982 17.1986C30.1982 18.0986 26.2982 21.5986 21.7982 25.6986C14.8982 31.8986 6.4982 39.4986 4.8982 40.9986C3.5982 42.1986 3.2982 43.3986 3.8982 44.6986C4.2982 45.5986 5.1982 46.5986 7.1982 46.5986C8.7982 46.5986 10.3982 46.5986 11.9982 46.5986V70.0986C11.9982 72.5986 13.1982 73.7986 15.7982 73.7986H34.1982Z" fill="#1C3553"/>
</svg>
