<svg width="96" height="96" viewBox="0 0 96 96" fill="none" xmlns="http://www.w3.org/2000/svg">
<path fill-rule="evenodd" clip-rule="evenodd" d="M23.5717 59.8739C23.8934 59.5832 24.3115 59.4223 24.7451 59.4223H37.4931C38.4595 59.4223 39.243 60.2058 39.243 61.1723C39.243 62.1388 38.4595 62.9223 37.4931 62.9223H25.4187L14.0935 73.1573H82.425L71.6274 62.9223H58.807C57.8405 62.9223 57.057 62.1388 57.057 61.1723C57.057 60.2058 57.8405 59.4223 58.807 59.4223H72.3246C72.7726 59.4223 73.2038 59.5941 73.5289 59.9022L88.0189 73.6372C88.5388 74.13 88.7058 74.8899 88.4406 75.5553C88.1753 76.2207 87.5313 76.6573 86.815 76.6573H9.54709C8.82316 76.6573 8.17396 76.2115 7.9139 75.5359C7.65385 74.8603 7.83663 74.0943 8.37372 73.6089L23.5717 59.8739Z" fill="#2988FF"/>
<path fill-rule="evenodd" clip-rule="evenodd" d="M58.0587 61.877C58.412 61.6576 58.8762 61.7662 59.0956 62.1195L66.3536 73.8074C66.573 74.1607 66.4645 74.625 66.1112 74.8444C65.7579 75.0638 65.2936 74.9552 65.0742 74.6019L57.8162 62.9139C57.5969 62.5606 57.7054 62.0964 58.0587 61.877ZM37.1333 62.1194C37.3527 61.7661 37.817 61.6576 38.1702 61.877C38.5235 62.0964 38.632 62.5607 38.4126 62.914L31.1536 74.602C30.9342 74.9552 30.47 75.0638 30.1167 74.8444C29.7634 74.6249 29.6549 74.1607 29.8743 73.8074L37.1333 62.1194ZM31.1107 62.1007C31.3879 61.7908 31.8639 61.7642 32.1739 62.0414C32.4839 62.3186 32.5105 62.7946 32.2333 63.1046L22.0173 74.5286C21.7401 74.8386 21.264 74.8652 20.954 74.588C20.644 74.3108 20.6175 73.8347 20.8947 73.5247L31.1107 62.1007ZM64.054 62.0414C64.364 61.7642 64.84 61.7908 65.1172 62.1007L75.3332 73.5247C75.6104 73.8347 75.5839 74.3108 75.2739 74.588C74.9639 74.8652 74.4878 74.8386 74.2106 74.5286L63.9946 63.1046C63.7174 62.7946 63.744 62.3186 64.054 62.0414ZM42.9607 63.2613C43.115 62.8751 43.5532 62.6871 43.9394 62.8415C44.3256 62.9958 44.5135 63.434 44.3592 63.8201L39.8362 75.1381C39.6819 75.5243 39.2437 75.7122 38.8575 75.5579C38.4714 75.4036 38.2834 74.9654 38.4377 74.5792L42.9607 63.2613ZM52.2885 62.8415C52.6747 62.6871 53.1128 62.8751 53.2672 63.2613L57.7902 74.5792C57.9445 74.9654 57.7565 75.4036 57.3704 75.5579C56.9842 75.7122 56.546 75.5243 56.3917 75.1381L51.8687 63.8201C51.7144 63.434 51.9023 62.9958 52.2885 62.8415ZM47.3469 68.8317C47.3469 68.4158 47.6841 68.0787 48.0999 68.0787C48.5158 68.0787 48.8529 68.4158 48.8529 68.8317V74.6857C48.8529 75.1015 48.5158 75.4387 48.0999 75.4387C47.6841 75.4387 47.3469 75.1015 47.3469 74.6857V68.8317Z" fill="#2988FF"/>
<path fill-rule="evenodd" clip-rule="evenodd" d="M53.2469 65.344C53.2469 64.9281 53.584 64.591 53.9999 64.591H75.9228C76.3387 64.591 76.6758 64.9281 76.6758 65.344C76.6758 65.7599 76.3387 66.097 75.9228 66.097H53.9999C53.584 66.097 53.2469 65.7599 53.2469 65.344ZM20.2704 65.3441C20.2704 64.9282 20.6075 64.5911 21.0234 64.5911H42.9463C43.3622 64.5911 43.6993 64.9282 43.6993 65.3441C43.6993 65.76 43.3622 66.0971 42.9463 66.0971H21.0234C20.6075 66.0971 20.2704 65.76 20.2704 65.3441ZM16.1254 68.7431C16.1254 68.3272 16.4625 67.9901 16.8784 67.9901H79.3493C79.7652 67.9901 80.1023 68.3272 80.1023 68.7431C80.1023 69.159 79.7652 69.4961 79.3493 69.4961H16.8784C16.4625 69.4961 16.1254 69.159 16.1254 68.7431Z" fill="#2988FF"/>
<path fill-rule="evenodd" clip-rule="evenodd" d="M42.0293 45.8088C42.4431 45.7695 42.8103 46.0731 42.8495 46.4868L43.5445 53.8118C43.5838 54.2256 43.2802 54.5928 42.8665 54.632C42.4527 54.6713 42.0855 54.3677 42.0463 53.954L41.3513 46.629C41.312 46.2153 41.6156 45.848 42.0293 45.8088Z" fill="#1C3553"/>
<path fill-rule="evenodd" clip-rule="evenodd" d="M54.1664 45.8088C54.5802 45.848 54.8838 46.2153 54.8445 46.629L54.1495 53.954C54.1103 54.3677 53.743 54.6713 53.3293 54.632C52.9156 54.5928 52.612 54.2256 52.6512 53.8118L53.3462 46.4868C53.3855 46.0731 53.7527 45.7695 54.1664 45.8088Z" fill="#1C3553"/>
<path fill-rule="evenodd" clip-rule="evenodd" d="M41.321 34.3074C43.1889 33.6144 45.7403 32.8142 47.7814 32.8142C49.8026 32.8142 52.5113 33.6042 54.5296 34.2916C55.5789 34.6491 56.5161 35.0055 57.1906 35.2724C57.5284 35.4061 57.8018 35.5179 57.9921 35.5968C58.0873 35.6363 58.1617 35.6676 58.2132 35.6894L58.2729 35.7147L58.2893 35.7217L58.2955 35.7244C58.2957 35.7245 58.2964 35.7248 57.6044 37.3322L58.2955 35.7244C58.9375 36.0008 59.3544 36.6331 59.3544 37.3322V47.6461C59.3544 48.1037 59.1753 48.543 58.8553 48.87L56.4216 51.3573L54.6364 67.977C54.5409 68.8661 53.7906 69.5401 52.8964 69.5401H43.3304C42.4363 69.5401 41.6859 68.866 41.5904 67.9769L39.8062 51.3573L37.3726 48.87C37.0526 48.543 36.8735 48.1037 36.8735 47.6461V37.3322C36.8735 36.6592 37.2593 36.0459 37.8659 35.7546L38.6235 37.3322C37.8659 35.7546 37.8657 35.7547 37.8659 35.7546L37.873 35.7513L37.8883 35.7439L37.9434 35.7179C37.9906 35.6956 38.0586 35.6639 38.1453 35.6239C38.3188 35.5439 38.5676 35.4311 38.8759 35.2963C39.4913 35.0272 40.3496 34.6678 41.321 34.3074ZM40.3735 38.4616V46.9324L42.7323 49.3433C43.0072 49.6242 43.1795 49.9895 43.2215 50.3803L44.9026 66.0401H51.3243L53.0064 50.3802C53.0484 49.9895 53.2207 49.6242 53.4956 49.3433L55.8544 46.9324V38.5078C55.2214 38.258 54.3587 37.9309 53.4011 37.6047C51.3561 36.9082 49.1533 36.3142 47.7814 36.3142C46.4286 36.3142 44.401 36.8979 42.5384 37.5889C41.6932 37.9025 40.9365 38.217 40.3735 38.4616Z" fill="#1C3553"/>
<path fill-rule="evenodd" clip-rule="evenodd" d="M42.1 25.0117C42.1 21.6914 44.7943 18.9997 48.114 18.9997C51.4337 18.9997 54.128 21.6914 54.128 25.0117C54.128 28.3348 51.434 31.0257 48.114 31.0257C44.794 31.0257 42.1 28.3348 42.1 25.0117ZM48.114 22.4997C46.7257 22.4997 45.6 23.626 45.6 25.0117C45.6 26.4007 46.726 27.5257 48.114 27.5257C49.502 27.5257 50.628 26.4007 50.628 25.0117C50.628 23.626 49.5023 22.4997 48.114 22.4997Z" fill="#1C3553"/>
</svg>
