<svg width="96" height="96" viewBox="0 0 96 96" fill="none" xmlns="http://www.w3.org/2000/svg">
<path fill-rule="evenodd" clip-rule="evenodd" d="M23.5715 59.8739C23.8932 59.5832 24.3113 59.4223 24.7449 59.4223H37.4929C38.4594 59.4223 39.2429 60.2058 39.2429 61.1723C39.2429 62.1388 38.4594 62.9223 37.4929 62.9223H25.4185L14.0933 73.1573H82.4248L71.6272 62.9223H58.8069C57.8404 62.9223 57.0569 62.1388 57.0569 61.1723C57.0569 60.2058 57.8404 59.4223 58.8069 59.4223H72.3245C72.7724 59.4223 73.2037 59.5941 73.5288 59.9022L88.0187 73.6372C88.5386 74.13 88.7057 74.8899 88.4404 75.5553C88.1752 76.2207 87.5312 76.6573 86.8148 76.6573H9.54693C8.823 76.6573 8.1738 76.2115 7.91375 75.5359C7.65369 74.8603 7.83648 74.0943 8.37357 73.6089L23.5715 59.8739Z" fill="#2988FF"/>
<path fill-rule="evenodd" clip-rule="evenodd" d="M58.0588 61.877C58.4121 61.6576 58.8764 61.7662 59.0958 62.1195L66.3537 73.8074C66.5731 74.1607 66.4646 74.625 66.1113 74.8444C65.758 75.0638 65.2937 74.9552 65.0744 74.6019L57.8164 62.9139C57.597 62.5606 57.7055 62.0964 58.0588 61.877ZM37.1334 62.1194C37.3528 61.7661 37.8171 61.6576 38.1704 61.877C38.5236 62.0964 38.6322 62.5607 38.4128 62.914L31.1538 74.602C30.9344 74.9552 30.4701 75.0638 30.1168 74.8444C29.7635 74.6249 29.655 74.1607 29.8744 73.8074L37.1334 62.1194ZM31.1108 62.1007C31.388 61.7908 31.864 61.7642 32.174 62.0414C32.484 62.3186 32.5106 62.7946 32.2334 63.1046L22.0174 74.5286C21.7402 74.8386 21.2642 74.8652 20.9542 74.588C20.6442 74.3108 20.6176 73.8347 20.8948 73.5247L31.1108 62.1007ZM64.0541 62.0414C64.3641 61.7642 64.8401 61.7908 65.1173 62.1007L75.3333 73.5247C75.6105 73.8347 75.584 74.3108 75.274 74.588C74.964 74.8652 74.488 74.8386 74.2107 74.5286L63.9947 63.1046C63.7175 62.7946 63.7441 62.3186 64.0541 62.0414ZM42.9608 63.2613C43.1152 62.8751 43.5533 62.6871 43.9395 62.8415C44.3257 62.9958 44.5136 63.434 44.3593 63.8201L39.8363 75.1381C39.682 75.5243 39.2438 75.7122 38.8576 75.5579C38.4715 75.4036 38.2835 74.9654 38.4378 74.5792L42.9608 63.2613ZM52.2886 62.8415C52.6748 62.6871 53.113 62.8751 53.2673 63.2613L57.7903 74.5792C57.9446 74.9654 57.7567 75.4036 57.3705 75.5579C56.9843 75.7122 56.5462 75.5243 56.3918 75.1381L51.8688 63.8201C51.7145 63.434 51.9025 62.9958 52.2886 62.8415ZM47.3471 68.8317C47.3471 68.4158 47.6842 68.0787 48.1001 68.0787C48.5159 68.0787 48.8531 68.4158 48.8531 68.8317V74.6857C48.8531 75.1015 48.5159 75.4387 48.1001 75.4387C47.6842 75.4387 47.3471 75.1015 47.3471 74.6857V68.8317Z" fill="#2988FF"/>
<path fill-rule="evenodd" clip-rule="evenodd" d="M53.2465 65.344C53.2465 64.9281 53.5836 64.591 53.9995 64.591H75.9224C76.3383 64.591 76.6754 64.9281 76.6754 65.344C76.6754 65.7599 76.3383 66.097 75.9224 66.097H53.9995C53.5836 66.097 53.2465 65.7599 53.2465 65.344ZM20.27 65.3441C20.27 64.9282 20.6071 64.5911 21.023 64.5911H42.9459C43.3618 64.5911 43.6989 64.9282 43.6989 65.3441C43.6989 65.76 43.3618 66.0971 42.9459 66.0971H21.023C20.6071 66.0971 20.27 65.76 20.27 65.3441ZM16.125 68.7431C16.125 68.3272 16.4621 67.9901 16.878 67.9901H79.3489C79.7648 67.9901 80.1019 68.3272 80.1019 68.7431C80.1019 69.159 79.7648 69.4961 79.3489 69.4961H16.878C16.4621 69.4961 16.125 69.159 16.125 68.7431Z" fill="#2988FF"/>
<path fill-rule="evenodd" clip-rule="evenodd" d="M42.0291 45.8087C42.4428 45.7694 42.81 46.073 42.8493 46.4867L43.5443 53.8117C43.5835 54.2254 43.28 54.5927 42.8662 54.6319C42.4525 54.6712 42.0853 54.3676 42.046 53.9539L41.351 46.6289C41.3118 46.2151 41.6153 45.8479 42.0291 45.8087Z" fill="#1C3553"/>
<path fill-rule="evenodd" clip-rule="evenodd" d="M54.166 45.8087C54.5798 45.8479 54.8833 46.2151 54.8441 46.6289L54.1491 53.9539C54.1098 54.3676 53.7426 54.6712 53.3289 54.6319C52.9151 54.5927 52.6116 54.2254 52.6508 53.8117L53.3458 46.4867C53.3851 46.073 53.7523 45.7694 54.166 45.8087Z" fill="#1C3553"/>
<path fill-rule="evenodd" clip-rule="evenodd" d="M41.3205 34.3074C43.1885 33.6144 45.7398 32.8142 47.781 32.8142C49.8021 32.8142 52.5108 33.6042 54.5291 34.2916C55.5785 34.6491 56.5157 35.0055 57.1901 35.2724C57.528 35.4061 57.8013 35.5179 57.9916 35.5968C58.0868 35.6363 58.1613 35.6676 58.2128 35.6894L58.2724 35.7147L58.2888 35.7217L58.295 35.7244C58.2952 35.7245 58.2959 35.7248 57.604 37.3322L58.295 35.7244C58.9371 36.0008 59.354 36.6331 59.354 37.3322V47.6461C59.354 48.1037 59.1748 48.543 58.8548 48.87L56.4212 51.3573L54.636 67.977C54.5405 68.8661 53.7901 69.5401 52.896 69.5401H43.33C42.4358 69.5401 41.6854 68.866 41.59 67.9769L39.8058 51.3573L37.3721 48.87C37.0522 48.543 36.873 48.1037 36.873 47.6461V37.3322C36.873 36.6592 37.2588 36.0459 37.8654 35.7546L38.623 37.3322C37.8654 35.7546 37.8652 35.7547 37.8654 35.7546L37.8725 35.7513L37.8879 35.7439L37.9429 35.7179C37.9901 35.6956 38.0581 35.6639 38.1449 35.6239C38.3183 35.5439 38.5672 35.4311 38.8755 35.2963C39.4908 35.0272 40.3491 34.6678 41.3205 34.3074ZM40.373 38.4616V46.9324L42.7318 49.3433C43.0067 49.6242 43.179 49.9895 43.221 50.3803L44.9022 66.0401H51.3239L53.006 50.3802C53.048 49.9895 53.2203 49.6242 53.4951 49.3433L55.854 46.9324V38.5078C55.2209 38.258 54.3582 37.9309 53.4006 37.6047C51.3556 36.9082 49.1528 36.3142 47.781 36.3142C46.4282 36.3142 44.4005 36.8979 42.5379 37.5889C41.6927 37.9025 40.936 38.217 40.373 38.4616Z" fill="#1C3553"/>
<path fill-rule="evenodd" clip-rule="evenodd" d="M42.0996 25.0117C42.0996 21.6914 44.7939 18.9997 48.1135 18.9997C51.4332 18.9997 54.1275 21.6914 54.1275 25.0117C54.1275 28.3348 51.4335 31.0257 48.1135 31.0257C44.7936 31.0257 42.0996 28.3348 42.0996 25.0117ZM48.1135 22.4997C46.7252 22.4997 45.5996 23.626 45.5996 25.0117C45.5996 26.4007 46.7255 27.5257 48.1135 27.5257C49.5016 27.5257 50.6275 26.4007 50.6275 25.0117C50.6275 23.626 49.5019 22.4997 48.1135 22.4997Z" fill="#1C3553"/>
</svg>
