<svg width="96" height="96" viewBox="0 0 96 96" fill="none" xmlns="http://www.w3.org/2000/svg">
<path fill-rule="evenodd" clip-rule="evenodd" d="M23.5715 59.8739C23.8932 59.5832 24.3113 59.4223 24.7449 59.4223H37.4929C38.4594 59.4223 39.2429 60.2058 39.2429 61.1723C39.2429 62.1388 38.4594 62.9223 37.4929 62.9223H25.4185L14.0933 73.1573H82.4248L71.6272 62.9223H58.8069C57.8404 62.9223 57.0569 62.1388 57.0569 61.1723C57.0569 60.2058 57.8404 59.4223 58.8069 59.4223H72.3245C72.7724 59.4223 73.2037 59.5941 73.5288 59.9022L88.0187 73.6372C88.5386 74.13 88.7057 74.8899 88.4404 75.5553C88.1752 76.2207 87.5312 76.6573 86.8148 76.6573H9.54693C8.823 76.6573 8.1738 76.2115 7.91375 75.5359C7.65369 74.8603 7.83648 74.0943 8.37357 73.6089L23.5715 59.8739Z" fill="#2988FF"/>
<path fill-rule="evenodd" clip-rule="evenodd" d="M58.0583 61.877C58.4116 61.6576 58.8759 61.7662 59.0953 62.1195L66.3533 73.8074C66.5726 74.1607 66.4641 74.625 66.1108 74.8444C65.7575 75.0638 65.2933 74.9552 65.0739 74.6019L57.8159 62.9139C57.5965 62.5606 57.705 62.0964 58.0583 61.877ZM37.1329 62.1194C37.3523 61.7661 37.8166 61.6576 38.1699 61.877C38.5232 62.0964 38.6317 62.5607 38.4123 62.914L31.1533 74.602C30.9339 74.9552 30.4696 75.0638 30.1163 74.8444C29.763 74.6249 29.6545 74.1607 29.8739 73.8074L37.1329 62.1194ZM31.1103 62.1007C31.3875 61.7908 31.8636 61.7642 32.1736 62.0414C32.4835 62.3186 32.5101 62.7946 32.2329 63.1046L22.0169 74.5286C21.7397 74.8386 21.2637 74.8652 20.9537 74.588C20.6437 74.3108 20.6171 73.8347 20.8943 73.5247L31.1103 62.1007ZM64.0536 62.0414C64.3636 61.7642 64.8396 61.7908 65.1169 62.1007L75.3328 73.5247C75.6101 73.8347 75.5835 74.3108 75.2735 74.588C74.9635 74.8652 74.4875 74.8386 74.2102 74.5286L63.9943 63.1046C63.717 62.7946 63.7436 62.3186 64.0536 62.0414ZM42.9604 63.2613C43.1147 62.8751 43.5528 62.6871 43.939 62.8415C44.3252 62.9958 44.5131 63.434 44.3588 63.8201L39.8358 75.1381C39.6815 75.5243 39.2433 75.7122 38.8572 75.5579C38.471 75.4036 38.283 74.9654 38.4374 74.5792L42.9604 63.2613ZM52.2881 62.8415C52.6743 62.6871 53.1125 62.8751 53.2668 63.2613L57.7898 74.5792C57.9441 74.9654 57.7562 75.4036 57.37 75.5579C56.9838 75.7122 56.5457 75.5243 56.3913 75.1381L51.8683 63.8201C51.714 63.434 51.902 62.9958 52.2881 62.8415ZM47.3466 68.8317C47.3466 68.4158 47.6837 68.0787 48.0996 68.0787C48.5155 68.0787 48.8526 68.4158 48.8526 68.8317V74.6857C48.8526 75.1015 48.5155 75.4387 48.0996 75.4387C47.6837 75.4387 47.3466 75.1015 47.3466 74.6857V68.8317Z" fill="#2988FF"/>
<path fill-rule="evenodd" clip-rule="evenodd" d="M53.2465 65.344C53.2465 64.9281 53.5836 64.591 53.9995 64.591H75.9224C76.3383 64.591 76.6754 64.9281 76.6754 65.344C76.6754 65.7599 76.3383 66.097 75.9224 66.097H53.9995C53.5836 66.097 53.2465 65.7599 53.2465 65.344ZM20.27 65.3441C20.27 64.9282 20.6071 64.5911 21.023 64.5911H42.9459C43.3618 64.5911 43.6989 64.9282 43.6989 65.3441C43.6989 65.76 43.3618 66.0971 42.9459 66.0971H21.023C20.6071 66.0971 20.27 65.76 20.27 65.3441ZM16.125 68.7431C16.125 68.3272 16.4621 67.9901 16.878 67.9901H79.3489C79.7648 67.9901 80.1019 68.3272 80.1019 68.7431C80.1019 69.159 79.7648 69.4961 79.3489 69.4961H16.878C16.4621 69.4961 16.125 69.159 16.125 68.7431Z" fill="#2988FF"/>
<path fill-rule="evenodd" clip-rule="evenodd" d="M42.0296 45.8088C42.4433 45.7695 42.8105 46.0731 42.8498 46.4868L43.5448 53.8118C43.584 54.2256 43.2805 54.5928 42.8667 54.632C42.453 54.6713 42.0858 54.3677 42.0465 53.954L41.3515 46.629C41.3123 46.2153 41.6158 45.848 42.0296 45.8088Z" fill="#1C3553"/>
<path fill-rule="evenodd" clip-rule="evenodd" d="M54.1665 45.8088C54.5802 45.848 54.8838 46.2153 54.8446 46.629L54.1496 53.954C54.1103 54.3677 53.7431 54.6713 53.3294 54.632C52.9156 54.5928 52.612 54.2256 52.6513 53.8118L53.3463 46.4868C53.3856 46.0731 53.7528 45.7695 54.1665 45.8088Z" fill="#1C3553"/>
<path fill-rule="evenodd" clip-rule="evenodd" d="M41.321 34.3074C43.189 33.6144 45.7403 32.8142 47.7815 32.8142C49.8026 32.8142 52.5113 33.6042 54.5296 34.2916C55.579 34.6491 56.5161 35.0055 57.1906 35.2724C57.5285 35.4061 57.8018 35.5179 57.9921 35.5968C58.0873 35.6363 58.1618 35.6676 58.2132 35.6894L58.2729 35.7147L58.2893 35.7217L58.2955 35.7244C58.2957 35.7245 58.2964 35.7248 57.6045 37.3322L58.2955 35.7244C58.9376 36.0008 59.3545 36.6331 59.3545 37.3322V47.6461C59.3545 48.1037 59.1753 48.543 58.8553 48.87L56.4217 51.3573L54.6365 67.977C54.541 68.8661 53.7906 69.5401 52.8965 69.5401H43.3305C42.4363 69.5401 41.6859 68.866 41.5905 67.9769L39.8063 51.3573L37.3726 48.87C37.0527 48.543 36.8735 48.1037 36.8735 47.6461V37.3322C36.8735 36.6592 37.2593 36.0459 37.8659 35.7546L38.6235 37.3322C37.8659 35.7546 37.8657 35.7547 37.8659 35.7546L37.873 35.7513L37.8884 35.7439L37.9434 35.7179C37.9906 35.6956 38.0586 35.6639 38.1454 35.6239C38.3188 35.5439 38.5677 35.4311 38.876 35.2963C39.4913 35.0272 40.3496 34.6678 41.321 34.3074ZM40.3735 38.4616V46.9324L42.7323 49.3433C43.0072 49.6242 43.1795 49.9895 43.2215 50.3803L44.9027 66.0401H51.3244L53.0065 50.3802C53.0485 49.9895 53.2207 49.6242 53.4956 49.3433L55.8545 46.9324V38.5078C55.2214 38.258 54.3587 37.9309 53.4011 37.6047C51.3561 36.9082 49.1533 36.3142 47.7815 36.3142C46.4286 36.3142 44.401 36.8979 42.5384 37.5889C41.6932 37.9025 40.9365 38.217 40.3735 38.4616Z" fill="#1C3553"/>
<path fill-rule="evenodd" clip-rule="evenodd" d="M42.1 25.0117C42.1 21.6914 44.7943 18.9997 48.114 18.9997C51.4337 18.9997 54.128 21.6914 54.128 25.0117C54.128 28.3348 51.434 31.0257 48.114 31.0257C44.7941 31.0257 42.1 28.3348 42.1 25.0117ZM48.114 22.4997C46.7257 22.4997 45.6 23.626 45.6 25.0117C45.6 26.4007 46.726 27.5257 48.114 27.5257C49.5021 27.5257 50.628 26.4007 50.628 25.0117C50.628 23.626 49.5023 22.4997 48.114 22.4997Z" fill="#1C3553"/>
</svg>
