<svg width="96" height="96" viewBox="0 0 96 96" fill="none" xmlns="http://www.w3.org/2000/svg">
<path d="M28.4096 84.2412H50.5087H50.6654H50.8221C51.1356 84.2412 51.6058 84.0844 51.9193 83.9277L67.1222 73.8969H67.2789C67.5924 73.8969 67.9058 73.7402 68.2193 73.5834L89.8482 74.994C90.6319 74.994 91.4155 74.5238 91.729 73.7402C92.0425 72.9565 91.8857 72.0161 91.1021 71.5459L66.652 50.8574C66.3385 50.5439 65.8683 50.3872 65.3981 50.3872H58.3452C57.2481 50.3872 56.4645 51.3276 56.4645 52.268C56.4645 53.2084 57.4048 54.1488 58.3452 54.1488H61.7933L65.2414 59.9478C63.9876 59.9478 62.7337 59.9478 61.4799 60.1045C60.6962 60.2613 59.9125 60.418 59.1289 60.7315L57.0914 58.8507C56.3077 58.067 55.0539 58.067 54.2702 58.8507C53.4866 59.6343 53.4866 60.8882 54.2702 61.6719L55.6808 63.0824C55.5241 63.2392 55.3673 63.3959 55.2106 63.5526C54.8971 64.0228 54.5837 64.6498 54.1135 65.1199C51.7625 68.568 48.9414 72.7998 45.1798 74.2104L40.7913 69.9786L49.8817 64.3363L49.0981 63.0824L39.6942 69.0382L32.3278 61.9853L42.3586 56.0295C43.299 55.4026 43.6125 54.3055 42.9856 53.3651C42.3586 52.4247 41.2615 52.1113 40.3211 52.7382L29.0365 59.3209L6.15372 58.2238C5.37006 58.2238 4.5864 58.694 4.27294 59.3209C3.95948 60.1045 4.11621 60.8882 4.74314 61.5151L26.999 83.6142C27.4692 84.0844 27.9394 84.2412 28.4096 84.2412ZM19.9461 71.0757C21.6701 70.2921 24.3345 69.6652 28.0961 70.7623L31.3875 80.4796H29.1932L19.9461 71.0757ZM28.0961 63.0824L29.5067 64.3363L27.6259 64.6498L27.1557 63.0824H28.0961ZM30.9173 65.9036L40.1644 74.8373C38.7538 74.5238 37.1865 73.7402 35.7759 72.6431C33.425 71.0757 31.3875 70.1353 29.3499 69.5084L28.2528 66.2171L30.9173 65.9036ZM45.9635 80.3229H33.1115L29.9769 71.2325C31.3875 71.8594 33.1115 72.643 34.8355 73.7402C37.3432 75.4642 39.6942 76.2479 42.0452 76.4046L45.9635 80.3229ZM27.4692 68.8815C23.5509 68.0978 20.573 69.0382 18.6922 69.8219L15.8711 67.0007L26.5288 66.0603L27.4692 68.8815ZM72.9212 69.9786L68.2193 61.9853C71.3539 62.4555 74.802 63.7094 77.6232 65.2767L84.2059 70.7623L72.9212 69.9786ZM63.6741 54.3055H64.7712L73.5482 61.6719C71.5107 60.8882 69.3164 60.418 67.2789 60.2613L63.6741 54.3055ZM61.7933 61.8286C63.2039 61.6719 64.6145 61.5151 66.1818 61.6719L71.0405 69.8219L67.9058 69.6652L60.3827 62.1421C60.8529 61.9853 61.3231 61.9853 61.7933 61.8286ZM55.6808 66.2171C55.9943 65.7469 56.4645 65.1199 56.7779 64.6498C56.9346 64.493 56.9346 64.493 57.0914 64.3363L64.1443 71.3892L51.1356 79.8527L46.5904 75.4642C50.5087 73.7402 53.4866 69.3517 55.6808 66.2171ZM25.4317 62.9257L26.0586 64.6498L14.4605 65.7469L11.1691 62.4555L25.4317 62.9257Z" fill="#2988FF"/>
<path d="M50.3521 39.5737C56.3078 39.5737 61.1665 34.7151 61.1665 28.7593C61.1665 22.8035 56.3078 17.9448 50.3521 17.9448C44.3963 17.9448 39.5376 22.8035 39.5376 28.7593C39.6943 34.7151 44.553 39.5737 50.3521 39.5737ZM50.3521 21.8631C54.1136 21.8631 57.2482 24.9977 57.2482 28.7593C57.2482 32.5208 54.1136 35.6555 50.3521 35.6555C46.5905 35.6555 43.4559 32.5208 43.4559 28.7593C43.6126 24.9977 46.5905 21.8631 50.3521 21.8631Z" fill="#1C3553"/>
<path d="M31.5444 31.1098C31.7011 32.0502 31.8579 32.9906 32.1713 33.931C34.0521 40.8271 37.5002 46.9396 40.7916 52.582C40.7916 52.7387 48.1579 64.6503 50.3522 64.807L51.2926 64.9637L51.9195 64.1801L52.0762 64.0234C56.308 58.0676 61.1666 50.8579 65.0849 42.5512C66.6522 39.2598 67.7493 36.2819 68.3763 33.6175C68.6897 32.8338 68.8465 32.0502 69.0032 31.1098L69.1599 30.4829C69.3166 29.8559 69.3166 28.9156 69.3166 27.6617C69.3166 16.6905 60.6964 7.6001 50.1954 7.6001C39.6944 7.6001 31.0742 16.5338 31.0742 27.6617C31.0742 28.7588 31.2309 29.8559 31.3877 30.9531L31.5444 31.1098ZM50.3522 11.6751C58.6589 11.6751 65.5551 18.8848 65.5551 27.8184C65.5551 28.7588 65.3984 29.6992 65.3984 30.0127C65.3984 30.1694 65.3984 30.3261 65.3984 30.4829V30.6396C65.2416 31.2665 65.0849 32.0502 64.9282 32.6771C64.3012 35.1848 63.2041 37.8492 61.7935 40.9839C58.5022 48.0368 54.4272 54.306 50.6656 59.6349C48.9416 57.2839 45.9637 53.0522 44.3964 50.5445C41.2618 45.2156 37.9704 39.4165 36.0896 32.8338C35.9329 32.0502 35.6194 31.2665 35.4627 30.4829V30.3261C35.306 29.3857 35.306 28.6021 35.306 27.6617C35.306 18.8847 42.0454 11.6751 50.3522 11.6751Z" fill="#1C3553"/>
</svg>
