<svg width="96" height="96" viewBox="0 0 96 96" fill="none" xmlns="http://www.w3.org/2000/svg">
<path fill-rule="evenodd" clip-rule="evenodd" d="M78.3176 72.2767C78.2926 72.2477 78.2556 72.2197 78.2236 72.1917C78.1806 72.2197 78.1326 72.2487 78.0846 72.2767C78.0646 72.2877 78.0446 72.2997 78.0236 72.3107C77.8876 72.3877 77.7356 72.4647 77.5526 72.5407C76.5596 72.9547 74.8336 73.3287 71.8386 73.3287C70.4637 73.3287 69.3667 73.2467 68.4747 73.1217C67.8657 73.0367 67.3517 72.9307 66.9267 72.8127C66.7767 72.7707 66.6337 72.7287 66.5047 72.6837C66.3667 72.6377 66.2407 72.5897 66.1237 72.5407C66.0147 72.4957 65.9177 72.4497 65.8247 72.4037C65.7627 72.3727 65.7067 72.3417 65.6517 72.3107C65.6317 72.2997 65.6107 72.2887 65.5917 72.2767C65.5427 72.2487 65.4957 72.2207 65.4527 72.1927C65.4197 72.2207 65.3837 72.2487 65.3587 72.2767H65.2257V72.4117V72.7117V72.8617V73.3117V75.2387V75.2407L65.2757 75.4817C65.4407 75.8577 66.4027 77.0857 71.8386 77.0857C77.2736 77.0857 78.2356 75.8577 78.4006 75.4817L78.4426 72.8207L78.4466 72.5977C78.4466 72.5907 78.4506 72.5837 78.4506 72.5767C78.4506 72.5707 78.4476 72.5647 78.4466 72.5577L78.4516 72.2767H78.3176ZM77.2476 73.4787V75.0077C76.9666 75.2187 75.8986 75.7957 72.5976 75.8737L67.3077 73.6697C68.4917 73.9227 70.0827 74.0797 71.8376 74.0797C73.9976 74.0797 75.9106 73.8437 77.1166 73.4787H77.2476Z" fill="#1C3553"/>
<path fill-rule="evenodd" clip-rule="evenodd" d="M77.8495 67.5955C77.7775 67.6315 77.7005 67.6665 77.6185 67.7025C77.4475 67.7765 77.2505 67.8485 77.0305 67.9185C77.0245 67.9205 77.0175 67.9225 77.0105 67.9245C76.0345 68.2325 74.5455 68.4805 72.2955 68.5115C72.1445 68.5135 72.0035 68.5185 71.8455 68.5185H71.8385H71.8365C71.7875 68.5185 71.7465 68.5165 71.6995 68.5165C71.5745 68.5155 71.4605 68.5125 71.3395 68.5105C70.8806 68.5035 70.4486 68.4895 70.0516 68.4655C69.4576 68.4295 68.9306 68.3775 68.4636 68.3115C68.2776 68.2855 68.1016 68.2565 67.9346 68.2275C67.5606 68.1605 67.2246 68.0865 66.9336 68.0055C66.8396 67.9795 66.7516 67.9525 66.6646 67.9245C66.6586 67.9225 66.6516 67.9205 66.6446 67.9185C66.6286 67.9135 66.6106 67.9085 66.5946 67.9035C66.3946 67.8385 66.2156 67.7715 66.0566 67.7025C65.9746 67.6675 65.8976 67.6315 65.8256 67.5955C65.6296 67.6935 65.4746 67.7965 65.3736 67.9035C65.3686 67.9085 65.3616 67.9135 65.3576 67.9185H65.2246V68.0535V68.3535V68.5035V68.9545V69.1065V69.7065V70.8815V70.8835L65.2756 71.1235C65.2876 71.1525 65.3076 71.1875 65.3306 71.2245C65.3796 71.3035 65.4576 71.4005 65.5776 71.5065C65.6446 71.5655 65.7256 71.6275 65.8226 71.6915C65.8866 71.7335 65.9566 71.7755 66.0346 71.8185C66.0476 71.8255 66.0636 71.8335 66.0776 71.8405C66.1446 71.8765 66.2136 71.9115 66.2916 71.9465C66.4746 72.0295 66.6886 72.1115 66.9416 72.1885C67.0396 72.2195 67.1506 72.2485 67.2606 72.2765C67.3246 72.2935 67.3856 72.3115 67.4546 72.3275C67.7536 72.3985 68.0956 72.4635 68.4816 72.5195C68.6476 72.5435 68.8266 72.5655 69.0106 72.5855C69.4466 72.6345 69.9356 72.6715 70.4796 72.6955C70.9006 72.7145 71.3445 72.7275 71.8375 72.7275C73.9925 72.7275 75.4355 72.5335 76.4135 72.2765C76.5235 72.2485 76.6345 72.2195 76.7325 72.1885C76.9855 72.1115 77.1995 72.0295 77.3825 71.9465C77.4605 71.9115 77.5305 71.8765 77.5975 71.8405C77.6915 71.7905 77.7775 71.7405 77.8515 71.6915C78.2025 71.4595 78.3455 71.2465 78.3985 71.1235L78.4415 68.4625L78.4445 68.2405C78.4455 68.2335 78.4495 68.2265 78.4495 68.2195C78.4495 68.2125 78.4455 68.2065 78.4455 68.2005L78.4495 67.9185H78.3165C78.2165 67.8055 78.0545 67.6975 77.8495 67.5955ZM77.2475 69.1205V70.6495C77.1175 70.7475 76.8155 70.9245 76.2015 71.0935C75.9475 71.1635 75.6375 71.2325 75.2655 71.2935C75.2075 71.3035 75.1465 71.3125 75.0835 71.3215C74.4435 71.4175 73.6315 71.4905 72.5965 71.5155L72.2655 71.3765L71.8455 71.2015L71.7625 71.1675L71.5475 71.0775H71.5455L71.3935 71.0135L70.5816 70.6755L70.5546 70.6645L67.9366 69.5735L67.3066 69.3115C67.6626 69.3875 68.0556 69.4545 68.4786 69.5115C69.1356 69.5995 69.8646 69.6635 70.6426 69.6955C70.8866 69.7055 71.1356 69.7125 71.3885 69.7155C71.5305 69.7175 71.6715 69.7205 71.8165 69.7205C71.8235 69.7205 71.8305 69.7215 71.8375 69.7215H71.8445C71.9925 69.7215 72.1375 69.7185 72.2825 69.7165C74.2595 69.6865 75.9945 69.4595 77.1175 69.1205H77.2475Z" fill="#1C3553"/>
<path fill-rule="evenodd" clip-rule="evenodd" d="M72.2688 61.9116C72.1278 61.9096 71.9888 61.9066 71.8458 61.9066H71.8378C71.8228 61.9066 71.8098 61.9076 71.7948 61.9076C71.6598 61.9076 71.5278 61.9096 71.3938 61.9116C70.5278 61.9246 69.7088 61.9756 68.9658 62.0576C68.7768 62.0786 68.5928 62.1006 68.4148 62.1256C68.1818 62.1576 67.9578 62.1926 67.7458 62.2306C67.4648 62.2806 67.2058 62.3366 66.9648 62.3956C66.9508 62.3996 66.9368 62.4036 66.9218 62.4066C66.4528 62.5256 66.0628 62.6606 65.7778 62.8086C65.5938 62.9046 65.4508 63.0056 65.3568 63.1096H65.2238V63.2436V63.5446V63.6946V64.1446V64.7476V65.3476V66.0716L65.2248 66.0736L65.2618 66.2506L65.2748 66.3126C65.3148 66.4036 65.4028 66.5436 65.5858 66.7046H65.5868C65.7378 66.8366 65.9528 66.9826 66.2638 67.1256C66.2688 67.1276 66.2758 67.1306 66.2808 67.1326C66.3198 67.1506 66.3668 67.1676 66.4088 67.1866C66.4888 67.2196 66.5708 67.2526 66.6618 67.2846C66.7328 67.3106 66.8078 67.3356 66.8858 67.3606C67.1438 67.4426 67.4448 67.5196 67.7898 67.5896C68.1388 67.6606 68.5378 67.7226 68.9888 67.7746C69.2908 67.8086 69.6088 67.8396 69.9598 67.8616C70.0758 67.8696 70.2038 67.8736 70.3258 67.8796C70.3558 67.8816 70.3868 67.8826 70.4168 67.8836C70.5588 67.8906 70.6928 67.8986 70.8418 67.9036C71.0138 67.9086 71.2028 67.9096 71.3858 67.9116C71.4108 67.9126 71.4358 67.9126 71.4608 67.9126C71.5488 67.9136 71.6308 67.9166 71.7218 67.9166C71.7618 67.9166 71.7968 67.9186 71.8378 67.9186H71.8438C71.9038 67.9186 71.9558 67.9166 72.0148 67.9166C73.7158 67.9076 74.9657 67.7766 75.8847 67.5896C76.2297 67.5196 76.5297 67.4426 76.7877 67.3606C76.8667 67.3356 76.9407 67.3106 77.0127 67.2846C77.1577 67.2326 77.2927 67.1796 77.4097 67.1256C78.0997 66.8076 78.3267 66.4786 78.3987 66.3136L78.4407 63.6536L78.4447 63.4316C78.4447 63.4236 78.4497 63.4176 78.4497 63.4096C78.4497 63.4036 78.4457 63.3976 78.4457 63.3906L78.4497 63.1096H78.3177C77.7347 62.4546 75.2747 61.9556 72.2688 61.9116ZM72.5978 66.7066L72.2698 66.5706L71.8458 66.3936L71.8008 66.3746L71.5548 66.2726L71.3918 66.2046L70.6428 65.8926L68.7718 65.1126L67.8948 64.7476L67.3068 64.5026C67.7608 64.5996 68.2738 64.6816 68.8348 64.7476C69.2368 64.7936 69.6618 64.8306 70.1058 64.8586C70.2828 64.8696 70.4608 64.8786 70.6428 64.8866C70.8868 64.8966 71.1348 64.9036 71.3868 64.9066C71.5318 64.9086 71.6768 64.9116 71.8238 64.9116C71.8288 64.9116 71.8338 64.9126 71.8378 64.9126H71.8458C71.9948 64.9126 72.1408 64.9086 72.2878 64.9076C74.2617 64.8766 75.9947 64.6506 77.1167 64.3126H77.2477V65.8396C77.0557 65.9836 76.4907 66.3006 75.0937 66.5116C74.4527 66.6076 73.6368 66.6816 72.5978 66.7066Z" fill="#1C3553"/>
<path fill-rule="evenodd" clip-rule="evenodd" d="M63.2243 69.635C63.7183 69.671 64.2383 69.693 64.7743 69.701V69.106V68.947C64.2193 68.939 63.6973 68.922 63.2323 68.89L63.2293 69.106L63.2243 69.635Z" fill="#1C3553"/>
<path fill-rule="evenodd" clip-rule="evenodd" d="M65.2725 72.0676C64.9546 71.8226 64.8426 71.6116 64.8056 71.5176L64.8026 71.5046L64.7736 71.3526V70.9926L63.2166 70.3436L63.2056 71.4406L63.2046 71.5026C63.1686 71.5966 63.0556 71.8056 62.7406 72.0496C62.6496 72.1206 62.5366 72.1936 62.4076 72.2686C62.2686 72.3496 62.1106 72.4306 61.9206 72.5116C62.6786 72.6196 63.6246 72.6896 64.7736 72.7056V72.4056V72.3706H64.9745C65.0465 72.2646 65.1585 72.1696 65.2655 72.0746C65.2685 72.0726 65.2705 72.0696 65.2725 72.0676Z" fill="#1C3553"/>
<path fill-rule="evenodd" clip-rule="evenodd" d="M63.2243 65.2769C63.7183 65.3129 64.2383 65.3349 64.7743 65.3429V64.7479V64.1379C64.2203 64.1309 63.7003 64.1139 63.2363 64.0819V64.0889L63.2293 64.7479L63.2243 65.2769Z" fill="#1C3553"/>
<path fill-rule="evenodd" clip-rule="evenodd" d="M64.774 68.0472V68.0122H64.975C65.002 67.9732 65.051 67.9412 65.082 67.9032C65.136 67.8392 65.198 67.7762 65.266 67.7162C65.363 67.6292 65.471 67.5482 65.594 67.4692C65.406 67.3602 65.26 67.2522 65.149 67.1532C65.148 67.1522 65.146 67.1512 65.145 67.1502C64.926 66.9532 64.837 66.7892 64.806 66.7082L64.805 66.7062V66.7052L64.793 66.6422L63.95 66.2912L63.217 65.9852L63.213 66.3442L63.209 66.7722V66.7922L63.206 67.0812L63.205 67.1432C63.194 67.1712 63.173 67.2122 63.146 67.2582C63.081 67.3672 62.963 67.5192 62.741 67.6902C62.74 67.6912 62.739 67.6922 62.738 67.6932C62.686 67.7332 62.624 67.7752 62.559 67.8182C62.516 67.8462 62.468 67.8742 62.419 67.9022C62.416 67.9042 62.412 67.9072 62.408 67.9092C62.393 67.9182 62.376 67.9272 62.36 67.9362C62.232 68.0082 62.09 68.0802 61.921 68.1522C62.15 68.1852 62.395 68.2142 62.656 68.2392C62.694 68.2432 62.738 68.2452 62.776 68.2492C62.778 68.2492 62.78 68.2502 62.781 68.2502C62.925 68.2632 63.074 68.2752 63.227 68.2852C63.693 68.3182 64.21 68.3382 64.775 68.3462V68.0472H64.774Z" fill="#1C3553"/>
<path fill-rule="evenodd" clip-rule="evenodd" d="M70.6019 61.4949C70.8669 61.4799 71.1289 61.4729 71.3919 61.4679C71.5279 61.4649 71.6659 61.4579 71.8019 61.4579L71.8359 59.2799L71.8389 59.0599C71.8399 59.0519 71.8449 59.0439 71.8449 59.0369C71.8449 59.0299 71.8409 59.0229 71.8399 59.0159L71.8439 58.7359H71.7119C71.6109 58.6229 71.4489 58.5149 71.2439 58.4129C71.1719 58.4489 71.0949 58.4849 71.0129 58.5199C70.8419 58.5939 70.6459 58.6659 70.4269 58.7359C70.4199 58.7379 70.4119 58.7399 70.4049 58.7419C69.3619 59.0719 67.7489 59.3369 65.232 59.3369C64.491 59.3369 63.829 59.3139 63.236 59.2729V59.2809L63.229 59.9389L63.224 60.4679C63.858 60.5139 64.532 60.5389 65.232 60.5389C67.3939 60.5389 69.3069 60.3029 70.5129 59.9379H70.6419V61.4659C70.6309 61.4749 70.6159 61.4849 70.6019 61.4949Z" fill="#1C3553"/>
<path fill-rule="evenodd" clip-rule="evenodd" d="M65.3741 62.7971C65.5731 62.6431 65.8241 62.5061 66.1051 62.3801C66.1191 62.3741 66.1351 62.3681 66.1491 62.3621C66.1521 62.3611 66.1551 62.3601 66.1581 62.3581C66.1851 62.3461 66.2161 62.3361 66.2441 62.3251C66.1601 62.3271 66.0801 62.3311 65.9931 62.3331L64.9511 61.8991L63.2171 61.1761L63.2081 61.9861L63.2051 62.2731V62.3351C63.1961 62.3571 63.1821 62.3851 63.1651 62.4181C63.1611 62.4251 63.1551 62.4331 63.1511 62.4401C63.0871 62.5501 62.9681 62.7051 62.7411 62.8821C62.7131 62.9031 62.6781 62.9251 62.6471 62.9481C62.5791 62.9961 62.5021 63.0451 62.4161 63.0961C62.4141 63.0971 62.4101 63.0991 62.4071 63.1011C62.3381 63.1411 62.2661 63.1811 62.1851 63.2211C62.1131 63.2571 62.0361 63.2921 61.9541 63.3281C61.9421 63.3331 61.9321 63.3391 61.9201 63.3441C61.9471 63.3481 61.9781 63.3511 62.0051 63.3551C62.1651 63.3761 62.3331 63.3961 62.5081 63.4151C62.6171 63.4271 62.7331 63.4371 62.8481 63.4471C63.4101 63.4971 64.0511 63.5281 64.7731 63.5381V63.2381V63.2021H64.9751C65.0471 63.0961 65.1581 63.0021 65.2661 62.9061C65.3061 62.8711 65.3301 62.8311 65.3741 62.7971Z" fill="#1C3553"/>
<path fill-rule="evenodd" clip-rule="evenodd" d="M71.8402 54.2069L71.8442 53.9269H71.7122C71.6112 53.8139 71.4492 53.7059 71.2442 53.6039C71.1722 53.6399 71.0952 53.6749 71.0132 53.7109C70.8422 53.7849 70.6442 53.8569 70.4242 53.9269C70.4182 53.9289 70.4112 53.9309 70.4052 53.9329C69.3622 54.2619 67.7492 54.5269 65.2323 54.5269C64.4913 54.5269 63.8303 54.5039 63.2363 54.4629V54.4699L63.2293 55.1289L63.2243 55.6589C63.8583 55.7049 64.5323 55.7299 65.2323 55.7299C67.3932 55.7299 69.3052 55.4939 70.5122 55.1289H70.6422V56.6569C70.4502 56.8019 69.8842 57.1179 68.4892 57.3279C67.8472 57.4249 67.0312 57.4989 65.9922 57.5239L64.9493 57.0889L63.2173 56.3669L63.2083 57.1769L63.2053 57.4629V57.5249C63.1963 57.5469 63.1823 57.5759 63.1643 57.6089C63.1613 57.6159 63.1553 57.6239 63.1513 57.6309C63.0873 57.7409 62.9683 57.8959 62.7403 58.0729C62.7133 58.0939 62.6783 58.1159 62.6483 58.1379C62.5793 58.1869 62.5023 58.2359 62.4163 58.2859C62.4133 58.2879 62.4103 58.2899 62.4063 58.2919C62.3373 58.3319 62.2663 58.3719 62.1853 58.4119C62.1133 58.4479 62.0363 58.4829 61.9543 58.5189C61.9423 58.5239 61.9333 58.5289 61.9213 58.5339C61.9473 58.5379 61.9783 58.5409 62.0053 58.5449C62.1643 58.5669 62.3333 58.5869 62.5083 58.6049C62.6173 58.6169 62.7323 58.6269 62.8483 58.6369C63.5293 58.6969 64.3123 58.7349 65.2323 58.7349C67.0282 58.7349 68.3282 58.5999 69.2802 58.4059C69.6242 58.3359 69.9252 58.2589 70.1832 58.1769C70.2612 58.1519 70.3362 58.1269 70.4072 58.1009C70.5522 58.0489 70.6872 57.9959 70.8052 57.9419C71.4952 57.6239 71.7212 57.2949 71.7932 57.1289L71.8352 54.4699L71.8392 54.2499C71.8392 54.2419 71.8442 54.2339 71.8442 54.2259C71.8452 54.2209 71.8402 54.2139 71.8402 54.2069Z" fill="#1C3553"/>
<path fill-rule="evenodd" clip-rule="evenodd" d="M71.8402 49.3978L71.8442 49.1188H71.7122C71.6112 49.0048 71.4502 48.8978 71.2442 48.7948C71.1722 48.8308 71.0952 48.8668 71.0132 48.9018C70.8422 48.9758 70.6442 49.0478 70.4242 49.1188C70.4182 49.1208 70.4112 49.1228 70.4052 49.1238C69.3622 49.4538 67.7492 49.7188 65.2322 49.7188C64.4912 49.7188 63.8292 49.6948 63.2352 49.6548L63.2362 49.6618L63.2292 50.3208L63.2242 50.8498C63.8572 50.8958 64.5312 50.9208 65.2322 50.9208C67.3922 50.9208 69.3042 50.6848 70.5102 50.3208H70.6422V51.8478C70.4502 51.9928 69.8852 52.3098 68.4882 52.5198C67.8462 52.6168 67.0312 52.6908 65.9922 52.7148L64.9502 52.2808L63.2172 51.5588L63.2082 52.3688L63.2052 52.6558V52.7178C63.1962 52.7388 63.1822 52.7678 63.1642 52.8008C63.1612 52.8078 63.1552 52.8158 63.1512 52.8228C63.0872 52.9328 62.9682 53.0878 62.7403 53.2648C62.7133 53.2858 62.6783 53.3088 62.6473 53.3308C62.5793 53.3788 62.5023 53.4278 62.4173 53.4778C62.4143 53.4798 62.4113 53.4818 62.4083 53.4828C62.3383 53.5228 62.2663 53.5638 62.1853 53.6038C62.1133 53.6398 62.0363 53.6748 61.9543 53.7108C61.9423 53.7158 61.9323 53.7208 61.9203 53.7268C61.9473 53.7308 61.9773 53.7338 62.0053 53.7368C62.1643 53.7588 62.3333 53.7788 62.5083 53.7978C62.6173 53.8088 62.7333 53.8188 62.8483 53.8288C63.5302 53.8898 64.3122 53.9268 65.2322 53.9268C67.0282 53.9268 68.3272 53.7918 69.2792 53.5978C69.6242 53.5278 69.9242 53.4508 70.1822 53.3688C70.2612 53.3438 70.3352 53.3188 70.4062 53.2928C70.5512 53.2408 70.6862 53.1878 70.8032 53.1338C71.4942 52.8158 71.7212 52.4868 71.7932 52.3208L71.8352 49.6618L71.8382 49.4418C71.8392 49.4338 71.8442 49.4258 71.8442 49.4188C71.8452 49.4108 71.8402 49.4048 71.8402 49.3978Z" fill="#1C3553"/>
<path fill-rule="evenodd" clip-rule="evenodd" d="M71.8402 44.5887L71.8442 44.3087H71.7122C71.6112 44.1957 71.4492 44.0877 71.2432 43.9857C71.1712 44.0217 71.0942 44.0567 71.0122 44.0927C70.8412 44.1667 70.6442 44.2387 70.4242 44.3087C70.4182 44.3107 70.4112 44.3127 70.4042 44.3147C69.3612 44.6437 67.7492 44.9087 65.2322 44.9087C64.4912 44.9087 63.8302 44.8857 63.2362 44.8447V44.8527L63.2302 45.5107L63.2242 46.0407C63.8582 46.0867 64.5322 46.1117 65.2322 46.1117C67.3942 46.1117 69.3072 45.8757 70.5132 45.5107H70.6432V47.0387C70.4502 47.1837 69.8852 47.5007 68.4882 47.7107C67.8472 47.8077 67.0322 47.8817 65.9932 47.9067L64.9512 47.4717L63.2172 46.7497L63.2092 47.5597L63.2062 47.8467L63.2052 47.9087C63.1972 47.9297 63.1832 47.9587 63.1652 47.9907C63.1622 47.9977 63.1562 48.0067 63.1522 48.0137C63.0882 48.1227 62.9693 48.2787 62.7413 48.4547C62.7143 48.4767 62.6793 48.4987 62.6483 48.5207C62.5803 48.5697 62.5033 48.6187 62.4173 48.6687C62.4143 48.6707 62.4113 48.6717 62.4083 48.6737C62.3393 48.7137 62.2673 48.7537 62.1853 48.7937C62.1133 48.8297 62.0363 48.8657 61.9543 48.9007C61.9423 48.9067 61.9333 48.9117 61.9203 48.9167C61.9483 48.9207 61.9783 48.9237 62.0063 48.9277C62.1653 48.9497 62.3343 48.9697 62.5093 48.9877C62.6173 48.9997 62.7333 49.0097 62.8483 49.0197C63.5302 49.0797 64.3122 49.1177 65.2322 49.1177C67.0282 49.1177 68.3282 48.9817 69.2802 48.7887C69.6252 48.7187 69.9252 48.6417 70.1832 48.5597C70.2622 48.5347 70.3362 48.5097 70.4072 48.4837C70.5522 48.4317 70.6872 48.3777 70.8042 48.3247C71.4952 48.0067 71.7212 47.6767 71.7942 47.5117L71.8362 44.8517L71.8392 44.6317C71.8402 44.6237 71.8442 44.6157 71.8442 44.6087C71.8452 44.6027 71.8402 44.5957 71.8402 44.5887Z" fill="#1C3553"/>
<path fill-rule="evenodd" clip-rule="evenodd" d="M71.8403 39.7797L71.8443 39.4997H71.7123C71.6113 39.3867 71.4493 39.2787 71.2443 39.1767C71.1723 39.2127 71.0953 39.2477 71.0133 39.2837C70.8423 39.3577 70.6443 39.4297 70.4243 39.4997C70.4183 39.5017 70.4113 39.5037 70.4053 39.5057C69.3623 39.8357 67.7493 40.0997 65.2323 40.0997C64.4913 40.0997 63.8303 40.0767 63.2363 40.0357V40.0437L63.2293 40.7027L63.2243 41.2317C63.8583 41.2777 64.5323 41.3027 65.2323 41.3027C67.3933 41.3027 69.3053 41.0657 70.5123 40.7027H70.6423V42.2307C70.4503 42.3756 69.8843 42.6916 68.4893 42.9016C67.8473 42.9976 67.0313 43.0726 65.9923 43.0966L64.9503 42.6626L63.2173 41.9407L63.2093 42.7496L63.2063 43.0366L63.2053 43.0986C63.1963 43.1206 63.1823 43.1496 63.1653 43.1816C63.1613 43.1886 63.1553 43.1976 63.1513 43.2046C63.0873 43.3136 62.9683 43.4696 62.7413 43.6456C62.7133 43.6676 62.6783 43.6896 62.6483 43.7116C62.5793 43.7606 62.5023 43.8096 62.4173 43.8596C62.4143 43.8616 62.4113 43.8626 62.4083 43.8646C62.3393 43.9046 62.2663 43.9446 62.1853 43.9856C62.1133 44.0216 62.0363 44.0566 61.9543 44.0916C61.9423 44.0976 61.9323 44.1026 61.9203 44.1076C61.9473 44.1116 61.9773 44.1146 62.0053 44.1186C62.1643 44.1406 62.3333 44.1606 62.5083 44.1786C62.6173 44.1906 62.7323 44.2006 62.8473 44.2106C63.5293 44.2716 64.3123 44.3086 65.2323 44.3086C67.0283 44.3086 68.3283 44.1736 69.2803 43.9796C69.6243 43.9096 69.9253 43.8336 70.1833 43.7506C70.2613 43.7266 70.3363 43.7006 70.4073 43.6756C70.5523 43.6226 70.6873 43.5696 70.8053 43.5156C71.4953 43.1986 71.7213 42.8686 71.7933 42.7036L71.8353 40.0437L71.8393 39.8237C71.8393 39.8157 71.8443 39.8077 71.8443 39.7997C71.8453 39.7927 71.8403 39.7867 71.8403 39.7797Z" fill="#1C3553"/>
<path fill-rule="evenodd" clip-rule="evenodd" d="M62.4174 34.2422C62.6324 34.3802 62.8114 34.5282 62.9434 34.6902C62.9704 34.7232 63.0134 34.7512 63.0364 34.7842H63.2094L63.2364 35.2352L63.2304 35.8932L63.2244 36.4232C63.8584 36.4692 64.5324 36.4942 65.2324 36.4942C67.3944 36.4942 69.3084 36.2572 70.5144 35.8932H70.6424V37.4212C70.4504 37.5662 69.8854 37.8822 68.4884 38.0932C67.8474 38.1902 67.0314 38.2642 65.9934 38.2882L64.9504 37.8542L63.2174 37.1312L63.2094 37.9412L63.2054 38.2282V38.2902C63.1964 38.3122 63.1834 38.3402 63.1654 38.3732C63.1614 38.3802 63.1564 38.3882 63.1514 38.3952C63.0884 38.5052 62.9694 38.6602 62.7414 38.8372C62.7134 38.8582 62.6794 38.8802 62.6484 38.9032C62.5794 38.9512 62.5024 39.0002 62.4174 39.0502C62.4144 39.0522 62.4114 39.0532 62.4084 39.0552C62.3394 39.0952 62.2674 39.1352 62.1854 39.1762C62.1134 39.2122 62.0364 39.2472 61.9544 39.2832C61.9424 39.2882 61.9334 39.2932 61.9214 39.2982C61.9484 39.3032 61.9784 39.3052 62.0064 39.3102C62.1654 39.3312 62.3344 39.3512 62.5094 39.3702C62.6184 39.3822 62.7334 39.3922 62.8484 39.4022C63.5304 39.4622 64.3124 39.4992 65.2324 39.4992C67.0284 39.4992 68.3284 39.3642 69.2794 39.1712C69.6244 39.1012 69.9254 39.0232 70.1834 38.9412C70.2614 38.9162 70.3364 38.8912 70.4074 38.8652C70.5524 38.8132 70.6874 38.7602 70.8044 38.7062C71.4954 38.3882 71.7214 38.0582 71.7944 37.8932L71.8364 35.2342L71.8394 35.0142C71.8404 35.0062 71.8444 34.9992 71.8444 34.9912C71.8444 34.9842 71.8404 34.9772 71.8404 34.9702L71.8444 34.6902H71.7114C71.0984 34.0042 68.4314 33.4882 65.2314 33.4882C64.5094 33.4882 63.8154 33.5152 63.1644 33.5642C63.1614 33.5712 63.1554 33.5802 63.1514 33.5872C63.0794 33.7102 62.9324 33.8922 62.6474 34.0942C62.5804 34.1432 62.5034 34.1922 62.4174 34.2422Z" fill="#1C3553"/>
<path fill-rule="evenodd" clip-rule="evenodd" d="M55.5561 38.7661C55.6631 38.8351 55.7631 38.9061 55.8501 38.9821C55.9301 39.0511 56.0001 39.1231 56.0621 39.1981C56.0921 39.2341 56.1401 39.2661 56.1661 39.3041H56.3391L56.3511 39.4971C57.1931 39.4931 57.9241 39.4591 58.5601 39.4021C58.6751 39.3921 58.7901 39.3821 58.8991 39.3701C59.0731 39.3511 59.2421 39.3321 59.4021 39.3101C59.4291 39.3061 59.4591 39.3031 59.4861 39.2991C59.7551 39.2601 59.9951 39.2171 60.2221 39.1711C60.2801 39.1591 60.3361 39.1471 60.3921 39.1341C60.5 39.1111 60.605 39.0861 60.704 39.0611C60.855 39.0231 60.996 38.9831 61.125 38.9411C61.182 38.9231 61.235 38.9051 61.288 38.8861C61.308 38.8791 61.33 38.8731 61.35 38.8651C61.491 38.8151 61.621 38.7631 61.735 38.7111C61.739 38.7091 61.744 38.7081 61.747 38.7061C61.875 38.6471 61.984 38.5881 62.082 38.5291C62.116 38.5081 62.15 38.4881 62.181 38.4671C62.343 38.3611 62.463 38.2591 62.548 38.1671C62.604 38.1061 62.645 38.0511 62.676 38.0011C62.702 37.9611 62.723 37.9241 62.736 37.8931L62.751 36.9371L62.76 36.3841L62.768 35.8921L62.778 35.2341L62.781 35.0151C62.782 35.0071 62.787 34.9991 62.787 34.9901C62.787 34.9831 62.782 34.9761 62.782 34.9691L62.786 34.6901H62.654C62.553 34.5771 62.391 34.4701 62.186 34.3681C62.114 34.4031 62.037 34.4391 61.955 34.4741C61.785 34.5481 61.589 34.6201 61.37 34.6901C61.362 34.6921 61.354 34.6951 61.347 34.6971C60.82 34.8631 60.1431 35.0121 59.2791 35.1191C59.0891 35.1431 58.8881 35.1631 58.6801 35.1831C58.6771 35.1831 58.6741 35.1831 58.6711 35.1831C58.6551 35.1851 58.6371 35.1871 58.6201 35.1881C58.4711 35.2011 58.3291 35.2161 58.1701 35.2271C57.6291 35.2641 57.0241 35.2841 56.3621 35.2881L56.3551 35.8921L56.3491 36.4911C56.9821 36.4881 57.5931 36.4651 58.1701 36.4231C58.3231 36.4121 58.4721 36.3991 58.6201 36.3861C58.7231 36.3771 58.8241 36.3671 58.9241 36.3561C58.9741 36.3511 59.0221 36.3451 59.0701 36.3401C59.3301 36.3111 59.5831 36.2801 59.8221 36.2431C60.1371 36.1961 60.429 36.1421 60.703 36.0841C60.977 36.0251 61.228 35.9611 61.455 35.8921H61.584V36.2431V36.4511V37.4211C61.465 37.5101 61.201 37.6651 60.691 37.8211C60.378 37.9161 59.9701 38.0111 59.4411 38.0911C59.4381 38.0921 59.4331 38.0921 59.4301 38.0931C59.3601 38.1031 59.2871 38.1131 59.2131 38.1231C59.1011 38.1381 58.9811 38.1521 58.8591 38.1661C58.7921 38.1731 58.7271 38.1811 58.6571 38.1881C58.5091 38.2031 58.3521 38.2161 58.1901 38.2281C57.8121 38.2561 57.3961 38.2771 56.9351 38.2881L56.3201 38.0321C56.2921 38.0931 56.2391 38.1841 56.1401 38.2961L56.1391 38.2971C56.0201 38.4321 55.8311 38.5931 55.5461 38.7601C55.5501 38.7621 55.5531 38.7641 55.5561 38.7661Z" fill="#1C3553"/>
<path fill-rule="evenodd" clip-rule="evenodd" d="M59.4301 33.284C58.7891 33.381 57.9741 33.455 56.9361 33.479L56.3201 33.222C56.2921 33.284 56.2391 33.375 56.1401 33.488H56.1391C56.0211 33.623 55.8321 33.784 55.5461 33.951C55.5491 33.953 55.5531 33.955 55.5561 33.957C55.6631 34.026 55.7621 34.097 55.8491 34.172C55.9301 34.241 56.0001 34.314 56.0621 34.389C56.0921 34.425 56.1391 34.456 56.1651 34.493H56.3381L56.3501 34.688C57.1921 34.684 57.9231 34.649 58.5591 34.593C58.6731 34.583 58.7881 34.573 58.8971 34.561C59.0721 34.542 59.2411 34.522 59.4001 34.501C59.7011 34.459 59.9711 34.412 60.2211 34.362C60.566 34.292 60.867 34.214 61.125 34.133C61.203 34.107 61.278 34.082 61.349 34.057C61.494 34.004 61.629 33.951 61.746 33.898C61.875 33.838 61.983 33.779 62.082 33.72C62.116 33.699 62.149 33.679 62.18 33.658C62.449 33.482 62.597 33.317 62.675 33.193C62.701 33.153 62.722 33.115 62.735 33.085L62.777 30.425L62.78 30.206C62.781 30.198 62.786 30.19 62.786 30.181C62.786 30.174 62.781 30.167 62.781 30.16L62.785 29.881H62.653C62.552 29.768 62.39 29.66 62.185 29.558C62.113 29.594 62.036 29.629 61.954 29.665C61.783 29.739 61.585 29.811 61.366 29.881C61.359 29.883 61.352 29.885 61.346 29.887C60.3301 30.208 58.7661 30.465 56.3611 30.478L56.3551 31.083L56.3491 31.682C58.4371 31.67 60.2801 31.438 61.454 31.083H61.583V32.612C61.392 32.757 60.827 33.074 59.4301 33.284Z" fill="#1C3553"/>
<path fill-rule="evenodd" clip-rule="evenodd" d="M49.8617 27.9514C49.9117 27.9524 49.9617 27.9534 50.0127 27.9554C50.3817 27.9674 50.7507 27.9874 51.1187 28.0174C51.9887 28.0884 52.8347 28.2084 53.5877 28.3874C53.8907 28.4594 54.1787 28.5394 54.4457 28.6294C54.5277 28.6564 54.5967 28.6904 54.6757 28.7194C54.6837 28.7224 54.6917 28.7264 54.6997 28.7284C55.0267 28.8534 55.3137 28.9924 55.5557 29.1484C55.6627 29.2174 55.7617 29.2884 55.8497 29.3634C55.9297 29.4324 55.9997 29.5054 56.0617 29.5794C56.0917 29.6164 56.1387 29.6474 56.1647 29.6854H56.3377L56.3497 29.8794C58.0517 29.8704 59.3027 29.7394 60.2207 29.5534C60.5657 29.4834 60.8667 29.4064 61.1237 29.3244C61.2027 29.2994 61.2767 29.2734 61.3487 29.2484C61.4937 29.1954 61.6287 29.1424 61.7457 29.0884C62.4367 28.7704 62.6637 28.4404 62.7357 28.2754L62.7777 25.6174L62.7807 25.3984C62.7817 25.3904 62.7867 25.3824 62.7867 25.3734C62.7867 25.3664 62.7817 25.3594 62.7817 25.3524L62.7857 25.0734H62.6537C62.5537 24.9604 62.3917 24.8524 62.1857 24.7504C62.1137 24.7864 62.0367 24.8214 61.9547 24.8574C61.7837 24.9314 61.5867 25.0034 61.3657 25.0734C61.3597 25.0754 61.3527 25.0774 61.3467 25.0794C60.3037 25.4094 58.6907 25.6744 56.1737 25.6744C53.6567 25.6744 52.0447 25.4094 51.0017 25.0804C50.9957 25.0784 50.9887 25.0764 50.9817 25.0744C50.7617 25.0044 50.5647 24.9314 50.3937 24.8574C50.3117 24.8224 50.2347 24.7864 50.1627 24.7514C49.9567 24.8534 49.7957 24.9614 49.6947 25.0744H49.5617V27.9464C49.6617 27.9454 49.7617 27.9494 49.8617 27.9514ZM51.6447 26.4654C52.8277 26.7194 54.4187 26.8754 56.1747 26.8754C58.3347 26.8754 60.2467 26.6394 61.4537 26.2754H61.5837V27.8024C61.3917 27.9474 60.8267 28.2644 59.4297 28.4744C58.7887 28.5714 57.9727 28.6454 56.9337 28.6694L55.8917 28.2354L51.6447 26.4654Z" fill="#1C3553"/>
<path fill-rule="evenodd" clip-rule="evenodd" d="M49.6127 23.4675C49.6847 23.6325 49.9117 23.9625 50.6017 24.2795C50.7187 24.3335 50.8537 24.3865 50.9987 24.4395C51.0707 24.4645 51.1447 24.4905 51.2237 24.5155C51.4817 24.5975 51.7817 24.6745 52.1267 24.7445C53.0787 24.9375 54.3787 25.0725 56.1747 25.0725C57.9707 25.0725 59.2707 24.9375 60.2217 24.7445C60.5667 24.6745 60.8677 24.5965 61.1257 24.5145C61.2037 24.4895 61.2787 24.4645 61.3497 24.4385C61.4947 24.3865 61.6297 24.3335 61.7467 24.2795C62.4377 23.9615 62.6637 23.6315 62.7357 23.4665L62.7777 20.8075L62.7817 20.5885C62.7817 20.5805 62.7867 20.5725 62.7867 20.5645C62.7867 20.5565 62.7827 20.5495 62.7817 20.5425L62.7867 20.2635H62.6537C62.0407 19.5775 59.3737 19.0615 56.1737 19.0615C52.9747 19.0615 50.3067 19.5775 49.6947 20.2635H49.5617V23.2255V23.2265L49.6127 23.4675ZM56.9347 23.8615L55.8927 23.4265L51.6447 21.6565C52.8287 21.9105 54.4197 22.0665 56.1747 22.0665C58.3367 22.0665 60.2497 21.8305 61.4557 21.4655H61.5847V22.9935C61.3927 23.1385 60.8277 23.4555 59.4307 23.6665C58.7887 23.7625 57.9737 23.8365 56.9347 23.8615Z" fill="#1C3553"/>
<path fill-rule="evenodd" clip-rule="evenodd" d="M55.849 67.8354C55.874 67.8574 55.892 67.8814 55.916 67.9034C55.967 67.9514 56.019 68.0004 56.061 68.0514C56.091 68.0884 56.139 68.1194 56.165 68.1574H56.338L56.35 68.3514C57.025 68.3474 57.629 68.3254 58.17 68.2874C58.325 68.2764 58.475 68.2644 58.62 68.2514C58.624 68.2504 58.627 68.2504 58.631 68.2504C58.669 68.2464 58.713 68.2444 58.751 68.2404C59.012 68.2144 59.257 68.1854 59.486 68.1534C59.511 68.1494 59.532 68.1454 59.557 68.1414C59.865 68.0954 60.139 68.0444 60.391 67.9884C60.499 67.9644 60.605 67.9404 60.703 67.9154C60.719 67.9114 60.733 67.9074 60.748 67.9034C60.859 67.8744 60.97 67.8454 61.069 67.8154C61.147 67.7914 61.217 67.7654 61.288 67.7404C61.446 67.6854 61.593 67.6294 61.719 67.5724C61.724 67.5694 61.73 67.5674 61.735 67.5654C61.807 67.5324 61.87 67.4994 61.933 67.4654C61.974 67.4444 62.016 67.4224 62.053 67.4014C62.101 67.3724 62.145 67.3444 62.187 67.3174C62.346 67.2124 62.463 67.1114 62.547 67.0204C62.606 66.9574 62.648 66.8994 62.68 66.8494C62.687 66.8374 62.695 66.8254 62.701 66.8154C62.715 66.7904 62.727 66.7674 62.736 66.7474L62.742 66.3974L62.751 65.7914L62.76 65.2384L62.768 64.7474L62.778 64.0884L62.779 64.0414C62.764 64.0404 62.75 64.0394 62.736 64.0384C62.733 64.0374 62.73 64.0374 62.727 64.0374C62.519 64.0184 62.318 63.9974 62.129 63.9734C61.581 63.9054 61.11 63.8214 60.704 63.7254C60.298 63.8214 59.826 63.9054 59.279 63.9734C59.089 63.9974 58.889 64.0174 58.68 64.0374C58.678 64.0374 58.675 64.0384 58.672 64.0384C58.655 64.0394 58.638 64.0414 58.621 64.0424C58.472 64.0564 58.329 64.0704 58.17 64.0814C57.63 64.1194 57.024 64.1394 56.362 64.1424L56.356 64.7474L56.35 65.3464C56.982 65.3424 57.594 65.3194 58.17 65.2784C58.323 65.2674 58.472 65.2544 58.62 65.2404C58.723 65.2314 58.824 65.2214 58.925 65.2114C58.974 65.2064 59.022 65.2004 59.071 65.1954C59.331 65.1664 59.584 65.1344 59.823 65.0984C60.137 65.0514 60.43 64.9974 60.703 64.9384C60.977 64.8804 61.227 64.8164 61.453 64.7484H61.584V65.0994V65.3064V66.2754C61.465 66.3654 61.202 66.5204 60.692 66.6754C60.642 66.6914 60.592 66.7064 60.536 66.7214C60.283 66.7914 59.973 66.8594 59.602 66.9204C59.55 66.9294 59.497 66.9374 59.442 66.9464C59.435 66.9474 59.428 66.9484 59.421 66.9494C59.354 66.9594 59.284 66.9684 59.214 66.9784C59.101 66.9934 58.982 67.0074 58.859 67.0214C58.792 67.0284 58.728 67.0364 58.657 67.0434C58.509 67.0584 58.352 67.0714 58.19 67.0834C57.812 67.1114 57.396 67.1314 56.935 67.1434L56.32 66.8864C56.292 66.9484 56.239 67.0394 56.14 67.1524L56.139 67.1534C56.02 67.2874 55.832 67.4484 55.547 67.6154C55.657 67.6854 55.759 67.7584 55.849 67.8354Z" fill="#2988FF"/>
<path fill-rule="evenodd" clip-rule="evenodd" d="M55.5561 62.8114C55.6631 62.8804 55.7621 62.9514 55.8491 63.0264C55.9301 63.0954 56.0001 63.1684 56.0621 63.2434C56.0921 63.2794 56.1391 63.3104 56.1651 63.3474H56.3381L56.3501 63.5424C57.1921 63.5384 57.9231 63.5034 58.5591 63.4474C58.6731 63.4364 58.7891 63.4274 58.8971 63.4154C59.0721 63.3964 59.2411 63.3764 59.4001 63.3554C59.4281 63.3514 59.4581 63.3474 59.4861 63.3444C59.7541 63.3054 59.9951 63.2624 60.2211 63.2154C60.2801 63.2034 60.3361 63.1914 60.3921 63.1794C60.4991 63.1554 60.6051 63.1314 60.7031 63.1064C60.8541 63.0674 60.9951 63.0274 61.1251 62.9864C61.1821 62.9684 61.2341 62.9504 61.2871 62.9314C61.3071 62.9244 61.3291 62.9174 61.3491 62.9104C61.4901 62.8594 61.6211 62.8084 61.7351 62.7554C61.7391 62.7544 61.7431 62.7524 61.7461 62.7514C61.8751 62.6914 61.9841 62.6324 62.0821 62.5734C62.1171 62.5524 62.1501 62.5324 62.1811 62.5124C62.3431 62.4054 62.4631 62.3034 62.5471 62.2114C62.6041 62.1504 62.6451 62.0954 62.6761 62.0464C62.7011 62.0064 62.7221 61.9684 62.7361 61.9384L62.7511 60.9814L62.7601 60.4284L62.7671 59.9374L62.7781 59.2794V59.2324C62.7641 59.2304 62.7501 59.2294 62.7351 59.2284C62.7321 59.2274 62.7291 59.2274 62.7261 59.2274C62.5191 59.2084 62.3181 59.1874 62.1291 59.1634C61.5811 59.0954 61.1091 59.0114 60.7031 58.9154C60.2971 59.0114 59.8261 59.0954 59.2781 59.1634C59.0891 59.1874 58.8881 59.2074 58.6801 59.2274C58.6771 59.2274 58.6741 59.2274 58.6711 59.2274C58.6541 59.2294 58.6371 59.2304 58.6201 59.2324C58.4711 59.2454 58.3291 59.2604 58.1701 59.2714C57.6291 59.3084 57.0241 59.3284 56.3621 59.3324L56.3551 59.9364L56.3491 60.5354C56.9821 60.5324 57.5931 60.5094 58.1701 60.4674C58.3231 60.4564 58.4721 60.4434 58.6201 60.4304C58.7231 60.4214 58.8241 60.4114 58.9241 60.4004C58.9731 60.3954 59.0211 60.3894 59.0701 60.3844C59.3301 60.3554 59.5831 60.3234 59.8221 60.2874C60.1371 60.2404 60.4291 60.1864 60.7031 60.1274C60.9771 60.0694 61.2281 60.0054 61.4551 59.9364H61.5831V60.2874V60.4954V61.4654C61.4651 61.5544 61.2011 61.7094 60.6911 61.8654C60.3771 61.9604 59.9701 62.0554 59.4411 62.1354C59.4371 62.1364 59.4331 62.1364 59.4291 62.1374C59.3591 62.1474 59.2871 62.1584 59.2131 62.1674C59.1001 62.1834 58.9811 62.1964 58.8581 62.2104C58.7911 62.2184 58.7271 62.2264 58.6561 62.2334C58.5081 62.2474 58.3511 62.2604 58.1891 62.2724C57.8111 62.3004 57.3951 62.3214 56.9351 62.3324L56.3191 62.0754C56.2911 62.1374 56.2381 62.2284 56.1391 62.3414H56.1381C56.0201 62.4764 55.8311 62.6374 55.5451 62.8044C55.5491 62.8074 55.5531 62.8094 55.5561 62.8114Z" fill="#2988FF"/>
<path fill-rule="evenodd" clip-rule="evenodd" d="M55.555 58.0013C55.663 58.0703 55.762 58.1413 55.85 58.2173C55.931 58.2873 56.001 58.3593 56.063 58.4343C56.093 58.4703 56.14 58.5013 56.166 58.5383H56.339L56.351 58.7323C57.193 58.7283 57.924 58.6933 58.56 58.6373C58.675 58.6273 58.79 58.6173 58.899 58.6053C59.074 58.5873 59.243 58.5673 59.403 58.5453C59.43 58.5423 59.46 58.5383 59.486 58.5353C59.755 58.4963 59.996 58.4533 60.223 58.4063C60.281 58.3953 60.336 58.3823 60.392 58.3703C60.5 58.3463 60.606 58.3223 60.704 58.2973C60.855 58.2593 60.996 58.2193 61.126 58.1783C61.182 58.1603 61.234 58.1423 61.287 58.1233C61.308 58.1163 61.33 58.1093 61.35 58.1023C61.491 58.0513 61.622 57.9993 61.736 57.9473C61.74 57.9453 61.744 57.9443 61.748 57.9423C61.876 57.8833 61.985 57.8243 62.083 57.7653C62.118 57.7443 62.151 57.7233 62.182 57.7033C62.344 57.5973 62.464 57.4943 62.549 57.4023C62.605 57.3413 62.646 57.2863 62.678 57.2373C62.703 57.1973 62.724 57.1603 62.737 57.1293L62.752 56.1733L62.761 55.6193L62.768 55.1283L62.779 54.4703V54.4223C62.765 54.4213 62.751 54.4193 62.736 54.4183C62.733 54.4183 62.73 54.4183 62.728 54.4173C62.52 54.3983 62.319 54.3783 62.129 54.3543C61.582 54.2863 61.11 54.2013 60.704 54.1063C60.298 54.2013 59.827 54.2863 59.28 54.3543C59.09 54.3773 58.889 54.3983 58.681 54.4173C58.678 54.4183 58.675 54.4183 58.672 54.4183C58.655 54.4203 58.638 54.4213 58.621 54.4233C58.472 54.4363 58.33 54.4513 58.171 54.4623C57.63 54.4993 57.025 54.5193 56.363 54.5233L56.356 55.1283L56.35 55.7273C56.983 55.7233 57.594 55.7003 58.171 55.6593C58.324 55.6483 58.473 55.6353 58.621 55.6213C58.724 55.6123 58.825 55.6023 58.925 55.5913C58.975 55.5863 59.023 55.5803 59.071 55.5753C59.331 55.5463 59.584 55.5143 59.823 55.4793C60.138 55.4313 60.43 55.3773 60.704 55.3193C60.978 55.2603 61.228 55.1963 61.455 55.1283H61.584V55.4793V55.6863V56.6563C61.466 56.7463 61.202 56.9003 60.692 57.0553C60.378 57.1513 59.97 57.2463 59.442 57.3263C59.438 57.3263 59.434 57.3273 59.431 57.3273C59.361 57.3383 59.288 57.3483 59.214 57.3583C59.101 57.3733 58.982 57.3873 58.859 57.4013C58.792 57.4083 58.727 57.4163 58.657 57.4233C58.509 57.4383 58.352 57.4513 58.19 57.4633C57.812 57.4913 57.395 57.5123 56.934 57.5223L56.32 57.2673C56.292 57.3283 56.24 57.4193 56.141 57.5313C56.141 57.5323 56.14 57.5323 56.14 57.5323C56.021 57.6673 55.832 57.8293 55.547 57.9963C55.549 57.9983 55.552 57.9993 55.555 58.0013Z" fill="#2988FF"/>
<path fill-rule="evenodd" clip-rule="evenodd" d="M55.556 53.1927C55.663 53.2617 55.763 53.3327 55.85 53.4087C55.93 53.4777 56 53.5497 56.062 53.6247C56.092 53.6607 56.14 53.6927 56.166 53.7297H56.339L56.351 53.9237C57.193 53.9197 57.924 53.8847 58.56 53.8287C58.675 53.8187 58.79 53.8087 58.899 53.7967C59.074 53.7777 59.243 53.7587 59.402 53.7367C59.43 53.7327 59.46 53.7297 59.487 53.7257C59.755 53.6877 59.996 53.6437 60.222 53.5977C60.281 53.5857 60.336 53.5737 60.392 53.5617C60.5 53.5377 60.606 53.5137 60.704 53.4887C60.855 53.4497 60.996 53.4107 61.125 53.3687C61.182 53.3507 61.235 53.3327 61.288 53.3137C61.309 53.3067 61.33 53.2997 61.35 53.2927C61.491 53.2427 61.621 53.1907 61.736 53.1387C61.74 53.1367 61.744 53.1347 61.748 53.1337C61.876 53.0747 61.984 53.0157 62.082 52.9567C62.117 52.9357 62.15 52.9157 62.181 52.8947C62.343 52.7877 62.463 52.6857 62.549 52.5937C62.605 52.5327 62.646 52.4787 62.677 52.4287C62.702 52.3887 62.723 52.3507 62.737 52.3207L62.752 51.3647L62.761 50.8107L62.768 50.3207L62.779 49.6617V49.6137C62.765 49.6127 62.751 49.6117 62.737 49.6107C62.734 49.6097 62.731 49.6097 62.728 49.6097C62.52 49.5907 62.319 49.5697 62.129 49.5457C61.582 49.4787 61.11 49.3937 60.704 49.2977C60.298 49.3937 59.827 49.4787 59.28 49.5457C59.09 49.5697 58.889 49.5907 58.681 49.6097C58.678 49.6097 58.675 49.6107 58.672 49.6107C58.656 49.6117 58.638 49.6137 58.621 49.6147C58.472 49.6287 58.33 49.6437 58.171 49.6547C57.63 49.6917 57.025 49.7117 56.363 49.7147L56.356 50.3207L56.35 50.9187C56.983 50.9147 57.594 50.8917 58.171 50.8507C58.324 50.8397 58.473 50.8267 58.621 50.8127C58.724 50.8037 58.825 50.7937 58.925 50.7827C58.975 50.7777 59.023 50.7717 59.071 50.7667C59.331 50.7377 59.584 50.7057 59.823 50.6707C60.138 50.6227 60.43 50.5687 60.704 50.5107C60.977 50.4517 61.227 50.3887 61.453 50.3197H61.585V50.6707V50.8777V51.8477C61.466 51.9367 61.202 52.0917 60.692 52.2467C60.379 52.3427 59.971 52.4377 59.442 52.5177C59.439 52.5187 59.434 52.5187 59.431 52.5197C59.361 52.5297 59.288 52.5397 59.214 52.5497C59.102 52.5647 58.982 52.5787 58.86 52.5927C58.793 52.5997 58.728 52.6077 58.658 52.6147C58.51 52.6297 58.353 52.6427 58.191 52.6547C57.813 52.6827 57.397 52.7037 56.936 52.7147L56.32 52.4577C56.293 52.5197 56.24 52.6107 56.141 52.7227C56.141 52.7237 56.141 52.7237 56.141 52.7237H56.14C56.021 52.8587 55.832 53.0197 55.547 53.1867C55.55 53.1887 55.553 53.1907 55.556 53.1927Z" fill="#2988FF"/>
<path fill-rule="evenodd" clip-rule="evenodd" d="M55.5561 48.3842C55.6631 48.4532 55.7621 48.5242 55.8491 48.5992C55.9301 48.6692 56.0001 48.7412 56.0621 48.8162C56.0921 48.8522 56.1391 48.8832 56.1651 48.9212H56.3381L56.3501 49.1152C57.1921 49.1112 57.9231 49.0772 58.5591 49.0202C58.6731 49.0102 58.7891 49.0002 58.8971 48.9882C59.0721 48.9692 59.2411 48.9502 59.4001 48.9282C59.4281 48.9242 59.4581 48.9212 59.4861 48.9172C59.7541 48.8792 59.9951 48.8352 60.2211 48.7892C60.2801 48.7772 60.3361 48.7652 60.3921 48.7522C60.4991 48.7282 60.6051 48.7042 60.7031 48.6792C60.8541 48.6412 60.9951 48.6012 61.1251 48.5592C61.1821 48.5412 61.2341 48.5232 61.2871 48.5052C61.3071 48.4982 61.3291 48.4902 61.3491 48.4832C61.4901 48.4332 61.6211 48.3812 61.7351 48.3292C61.7381 48.3272 61.7421 48.3262 61.7461 48.3242C61.8751 48.2652 61.9831 48.2052 62.0821 48.1462C62.1161 48.1262 62.1491 48.1052 62.1801 48.0852C62.3421 47.9782 62.4621 47.8762 62.5471 47.7852C62.6031 47.7242 62.6441 47.6692 62.6751 47.6192C62.7011 47.5792 62.7221 47.5422 62.7351 47.5112L62.7501 46.5552L62.7591 46.0012L62.7671 45.5102L62.7771 44.8522L62.7781 44.8042C62.7631 44.8032 62.7491 44.8012 62.7341 44.8002C62.7321 44.7992 62.7291 44.7992 62.7261 44.7992C62.5181 44.7802 62.3161 44.7592 62.1271 44.7362C61.5801 44.6682 61.1081 44.5832 60.7031 44.4882C60.2971 44.5832 59.8261 44.6672 59.2801 44.7352C59.0901 44.7592 58.8881 44.7802 58.6791 44.7992C58.6761 44.7992 58.6741 44.7992 58.6711 44.8002C58.6541 44.8012 58.6371 44.8032 58.6201 44.8042C58.4711 44.8182 58.3281 44.8332 58.1691 44.8442C57.6291 44.8812 57.0231 44.9012 56.3611 44.9052L56.3551 45.5102L56.3491 46.1082C56.9811 46.1052 57.5931 46.0822 58.1691 46.0402C58.3231 46.0302 58.4721 46.0162 58.6191 46.0032C58.7231 45.9942 58.8231 45.9842 58.9241 45.9732C58.9731 45.9682 59.0211 45.9622 59.0701 45.9572C59.3301 45.9282 59.5831 45.8972 59.8221 45.8612C60.1361 45.8132 60.4291 45.7602 60.7021 45.7012H60.7031C60.9771 45.6432 61.2271 45.5792 61.4541 45.5102H61.5831V45.8612V46.0682V47.0382C61.4651 47.1282 61.2011 47.2832 60.6911 47.4392C60.3771 47.5342 59.9701 47.6292 59.4411 47.7092C59.4371 47.7102 59.4331 47.7102 59.4291 47.7112C59.3591 47.7212 59.2871 47.7312 59.2131 47.7412C59.1001 47.7562 58.9811 47.7702 58.8581 47.7842C58.7911 47.7912 58.7271 47.7992 58.6561 47.8062C58.5081 47.8212 58.3511 47.8342 58.1891 47.8462C57.8111 47.8742 57.3951 47.8952 56.9351 47.9062L56.3191 47.6492C56.2911 47.7112 56.2381 47.8022 56.1391 47.9152H56.1381C56.0201 48.0502 55.8311 48.2112 55.5451 48.3782C55.5491 48.3802 55.5531 48.3822 55.5561 48.3842Z" fill="#2988FF"/>
<path fill-rule="evenodd" clip-rule="evenodd" d="M55.5551 43.5746C55.6631 43.6436 55.7621 43.7146 55.8491 43.7906C55.9301 43.8596 56.0001 43.9316 56.0621 44.0066C56.0921 44.0426 56.1401 44.0736 56.1651 44.1116H56.3381L56.3501 44.3056C57.1931 44.3016 57.9231 44.2666 58.5591 44.2106C58.6741 44.2006 58.7901 44.1906 58.8991 44.1786C59.0741 44.1606 59.2431 44.1406 59.4021 44.1186C59.4291 44.1146 59.4601 44.1116 59.4871 44.1076C59.7551 44.0696 59.9961 44.0256 60.2221 43.9796C60.2801 43.9676 60.3361 43.9556 60.3921 43.9436C60.5 43.9196 60.605 43.8956 60.704 43.8706C60.854 43.8316 60.995 43.7926 61.125 43.7506C61.182 43.7326 61.235 43.7146 61.289 43.6956C61.308 43.6886 61.33 43.6816 61.35 43.6746C61.49 43.6246 61.621 43.5726 61.736 43.5206C61.739 43.5186 61.744 43.5176 61.747 43.5156C61.876 43.4566 61.984 43.3976 62.083 43.3386C62.117 43.3176 62.15 43.2976 62.181 43.2766C62.343 43.1706 62.463 43.0676 62.548 42.9766C62.604 42.9156 62.645 42.8606 62.677 42.8106C62.702 42.7706 62.723 42.7336 62.736 42.7036L62.751 41.7466L62.76 41.1936L62.768 40.7026L62.778 40.0436L62.779 39.9966C62.764 39.9956 62.75 39.9946 62.736 39.9936C62.733 39.9926 62.73 39.9926 62.727 39.9926C62.519 39.9736 62.318 39.9526 62.129 39.9286C61.581 39.8606 61.11 39.7766 60.704 39.6806C60.2981 39.7766 59.8261 39.8606 59.2791 39.9286C59.0901 39.9526 58.8881 39.9736 58.6801 39.9926C58.6771 39.9926 58.6751 39.9936 58.6721 39.9936C58.6551 39.9946 58.6371 39.9956 58.6201 39.9976C58.4711 40.0116 58.3291 40.0256 58.1701 40.0366C57.6291 40.0746 57.0241 40.0946 56.3621 40.0976L56.3561 40.7026L56.3491 41.3016C56.9821 41.2976 57.5941 41.2746 58.1701 41.2336C58.3231 41.2226 58.4721 41.2096 58.6201 41.1956C58.7231 41.1866 58.8241 41.1766 58.9241 41.1656C58.9741 41.1606 59.0221 41.1556 59.0701 41.1496C59.3301 41.1206 59.5831 41.0896 59.8221 41.0536C60.1371 41.0056 60.43 40.9516 60.703 40.8936C60.977 40.8346 61.227 40.7706 61.454 40.7026H61.584V41.0536V41.2606V42.2316C61.465 42.3206 61.201 42.4756 60.691 42.6306C60.378 42.7256 59.9701 42.8206 59.4411 42.9006C59.4381 42.9016 59.4341 42.9016 59.4301 42.9026C59.3601 42.9126 59.2871 42.9226 59.2131 42.9326C59.1001 42.9476 58.9811 42.9616 58.8581 42.9756C58.7911 42.9826 58.7271 42.9906 58.6561 42.9976C58.5081 43.0126 58.3511 43.0256 58.1891 43.0376C57.8111 43.0656 57.3951 43.0866 56.9331 43.0966L56.3191 42.8406C56.2911 42.9026 56.2381 42.9936 56.1401 43.1056C56.1391 43.1056 56.1391 43.1066 56.1391 43.1066C56.0201 43.2416 55.8311 43.4026 55.5461 43.5696C55.5491 43.5716 55.5521 43.5726 55.5551 43.5746Z" fill="#2988FF"/>
<path fill-rule="evenodd" clip-rule="evenodd" d="M62.736 71.106L62.751 70.15L62.76 69.596L62.767 69.106L62.771 68.849C62.622 68.836 62.466 68.824 62.327 68.808C62.299 68.805 62.275 68.801 62.247 68.798C61.647 68.727 61.139 68.636 60.703 68.534C60.334 68.621 59.908 68.698 59.423 68.763C59.343 68.773 59.266 68.785 59.183 68.794C59.175 68.796 59.168 68.796 59.16 68.798C59.129 68.801 59.102 68.806 59.071 68.809C58.929 68.825 58.772 68.837 58.621 68.85C58.472 68.864 58.329 68.879 58.17 68.89C57.63 68.927 57.024 68.947 56.362 68.951L56.361 69.105L56.355 69.703C56.986 69.699 57.596 69.677 58.171 69.635C58.324 69.624 58.473 69.611 58.621 69.598C58.724 69.588 58.825 69.578 58.925 69.568C58.975 69.563 59.023 69.557 59.071 69.552C59.331 69.523 59.584 69.491 59.823 69.455C60.138 69.408 60.43 69.354 60.704 69.295C60.977 69.237 61.227 69.173 61.453 69.105H61.585V69.455V69.662V70.632C61.466 70.721 61.202 70.877 60.692 71.032C60.379 71.127 59.971 71.222 59.442 71.302C59.369 71.313 59.292 71.324 59.214 71.334C59.102 71.35 58.982 71.364 58.86 71.377C58.793 71.385 58.728 71.393 58.658 71.4C58.51 71.415 58.353 71.427 58.191 71.439C57.813 71.467 57.397 71.488 56.936 71.499L56.34 71.251L56.337 71.507L56.335 71.662C56.3 71.751 56.194 71.944 55.917 72.171C55.826 72.245 55.716 72.323 55.583 72.403C55.571 72.41 55.558 72.416 55.547 72.423C55.687 72.512 55.807 72.607 55.912 72.707C56.002 72.708 56.083 72.711 56.175 72.711C57.543 72.711 58.627 72.633 59.487 72.51C59.825 72.462 60.12 72.406 60.392 72.346C60.5 72.322 60.606 72.298 60.704 72.273C60.922 72.217 61.115 72.159 61.288 72.098C61.453 72.041 61.605 71.983 61.735 71.923C62.151 71.733 62.399 71.54 62.548 71.379C62.649 71.269 62.706 71.173 62.736 71.106Z" fill="#2988FF"/>
<path fill-rule="evenodd" clip-rule="evenodd" d="M55.9148 77.2313H55.7828C55.7568 77.2023 55.7208 77.1743 55.6878 77.1463C55.6448 77.1743 55.5968 77.2023 55.5488 77.2313C55.5298 77.2423 55.5088 77.2533 55.4888 77.2653C55.3518 77.3413 55.1998 77.4193 55.0168 77.4953C54.0238 77.9083 52.2978 78.2823 49.3028 78.2823C46.3079 78.2823 44.5819 77.9083 43.5889 77.4953C43.4059 77.4193 43.2539 77.3423 43.1169 77.2653C43.0969 77.2543 43.0759 77.2433 43.0569 77.2323C43.0079 77.2033 42.9599 77.1753 42.9169 77.1473C42.8839 77.1753 42.8479 77.2023 42.8219 77.2323H42.6899V77.5323V77.7753V79.8103V79.9033V80.1933L42.7409 80.4353C42.9059 80.8123 43.8669 82.0403 49.3018 82.0403C54.7388 82.0403 55.6988 80.8113 55.8638 80.4343L55.9058 77.7753L55.9088 77.5563C55.9098 77.5483 55.9148 77.5403 55.9148 77.5323C55.9148 77.5253 55.9098 77.5173 55.9098 77.5103L55.9148 77.2313ZM54.7118 78.4343V79.9613C54.4318 80.1723 53.3648 80.7503 50.0628 80.8283L44.7739 78.6243C45.9579 78.8773 47.5479 79.0343 49.3028 79.0343C51.4628 79.0343 53.3748 78.7973 54.5808 78.4343H54.7118Z" fill="#2988FF"/>
<path fill-rule="evenodd" clip-rule="evenodd" d="M55.9148 72.8731H55.7828C55.7778 72.8671 55.7698 72.8611 55.7648 72.8561C55.7158 72.8041 55.6538 72.7531 55.5818 72.7041C55.5058 72.6511 55.4148 72.6001 55.3148 72.5501C55.2428 72.5851 55.1658 72.6211 55.0838 72.6571C55.0588 72.6671 55.0358 72.6781 55.0088 72.6891C54.9008 72.7341 54.7828 72.7781 54.6558 72.8221C54.6058 72.8391 54.5478 72.8561 54.4948 72.8731C54.4888 72.8751 54.4818 72.8771 54.4758 72.8791C54.1408 72.9851 53.7428 73.0831 53.2788 73.1681C52.2958 73.3491 51.0108 73.4731 49.3018 73.4731C46.7849 73.4731 45.1719 73.2081 44.1289 72.8791C44.1229 72.8771 44.1159 72.8751 44.1099 72.8731C43.8899 72.8031 43.6929 72.7311 43.5219 72.6571C43.4399 72.6211 43.3619 72.5851 43.2909 72.5501C43.0849 72.6521 42.9229 72.7601 42.8219 72.8731H42.6899V73.1731V73.4171V75.4521V75.5451V75.8351L42.7409 76.0771C42.7949 76.2001 42.9379 76.4141 43.2889 76.6461C43.3629 76.6941 43.4489 76.7441 43.5429 76.7941C43.6099 76.8301 43.6799 76.8651 43.7579 76.9001C43.9409 76.9831 44.1549 77.0651 44.4069 77.1431C44.5059 77.1731 44.6169 77.2021 44.7279 77.2311C45.7049 77.4881 47.1489 77.6821 49.3018 77.6821C51.4558 77.6821 52.8988 77.4881 53.8758 77.2311C53.9868 77.2021 54.0978 77.1731 54.1968 77.1431C54.4498 77.0651 54.6638 76.9831 54.8468 76.9001C54.9248 76.8651 54.9938 76.8291 55.0608 76.7941C55.1558 76.7441 55.2408 76.6941 55.3158 76.6451C55.6668 76.4131 55.8098 76.1981 55.8638 76.0751L55.9058 73.4171L55.9078 73.3081L55.9088 73.1971C55.9098 73.1891 55.9148 73.1811 55.9148 73.1731C55.9148 73.1661 55.9098 73.1591 55.9098 73.1521L55.9148 72.8731ZM54.7118 74.0751V75.6021C54.5818 75.7011 54.2808 75.8781 53.6648 76.0481C53.4108 76.1181 53.1018 76.1861 52.7308 76.2471C52.6718 76.2571 52.6108 76.2661 52.5488 76.2761C51.9088 76.3721 51.0958 76.4451 50.0628 76.4701L49.0118 76.0321H49.0108L48.0209 75.6191L44.7719 74.2651C45.9559 74.5191 47.5469 74.6751 49.3018 74.6751C51.4628 74.6751 53.3748 74.4391 54.5808 74.0751H54.7118Z" fill="#2988FF"/>
<path fill-rule="evenodd" clip-rule="evenodd" d="M43.7297 72.0801C43.8467 72.1341 43.9817 72.1871 44.1267 72.2391C44.1977 72.2651 44.2727 72.2901 44.3517 72.3151C44.6087 72.397 44.9087 72.474 45.2537 72.544C46.2057 72.737 47.5057 72.873 49.3027 72.873C50.0507 72.873 50.7067 72.848 51.2957 72.807C51.8527 72.767 52.3416 72.713 52.7716 72.646C52.9466 72.619 53.1146 72.5911 53.2706 72.561C53.2986 72.556 53.3226 72.55 53.3496 72.544C53.6566 72.4821 53.9336 72.4151 54.1706 72.3431C54.2006 72.3341 54.2246 72.3241 54.2526 72.3151C54.3316 72.2901 54.4066 72.2651 54.4776 72.2391C54.5396 72.2171 54.5986 72.1941 54.6556 72.1711C54.7306 72.1411 54.8076 72.1111 54.8746 72.0801C55.3146 71.8771 55.5626 71.6711 55.7056 71.5051C55.7866 71.4101 55.8376 71.3271 55.8636 71.2671L55.8676 71.0561L55.8886 69.7031L55.8976 69.1061L55.9006 68.9501L55.9056 68.6071L55.9076 68.4991L55.9096 68.3881C55.9096 68.3801 55.9146 68.3721 55.9146 68.3641C55.9146 68.3591 55.9116 68.3541 55.9116 68.3501C55.9116 68.3471 55.9106 68.3451 55.9096 68.3431L55.9146 68.0631H55.7816C55.7766 68.0581 55.7706 68.0531 55.7656 68.0481C55.7226 68.0031 55.6726 67.9581 55.6126 67.9141C55.6076 67.9101 55.6006 67.9071 55.5956 67.9031C55.5156 67.8471 55.4196 67.7931 55.3136 67.7401C55.2416 67.7761 55.1646 67.8121 55.0826 67.8471C55.0706 67.8531 55.0616 67.8571 55.0506 67.8621C55.0176 67.8761 54.9806 67.8901 54.9466 67.9041C54.8526 67.9411 54.7566 67.9791 54.6496 68.0151C54.6016 68.0321 54.5466 68.0471 54.4956 68.0641C54.4896 68.0661 54.4816 68.0681 54.4746 68.0701C54.2686 68.1351 54.0376 68.1971 53.7836 68.2561C53.6276 68.2921 53.4626 68.3261 53.2876 68.3581C52.8446 68.4401 52.3356 68.5091 51.7557 68.5611C51.2357 68.6081 50.6557 68.6401 50.0117 68.6541C49.9637 68.6551 49.9147 68.6551 49.8667 68.6561C49.7647 68.6581 49.6657 68.6601 49.5607 68.6611C49.4717 68.6621 49.3927 68.6651 49.3017 68.6651C49.2347 68.6651 49.1767 68.6621 49.1107 68.6621C46.7067 68.6481 45.1437 68.3911 44.1287 68.0701C44.1217 68.0681 44.1137 68.0661 44.1077 68.0641C43.8877 67.9941 43.6917 67.9221 43.5207 67.8481C43.4387 67.8131 43.3627 67.7771 43.2897 67.7411C43.0847 67.8431 42.9227 67.9511 42.8217 68.0641H42.6887V68.3641V68.6081V70.6431V70.7351V71.0261L42.7397 71.2681C42.8137 71.4331 43.0397 71.7621 43.7297 72.0801ZM49.1117 69.8641C49.1757 69.8651 49.2377 69.8671 49.3027 69.8671C49.3897 69.8671 49.4747 69.8641 49.5617 69.8641C49.6307 69.8631 49.6997 69.8621 49.7687 69.8611C49.8497 69.8601 49.9317 69.8601 50.0117 69.8581C50.2677 69.8511 50.5177 69.8411 50.7637 69.8281C51.3977 69.7961 51.9967 69.7431 52.5476 69.6721C52.8156 69.6381 53.0706 69.5991 53.3146 69.5571C53.7936 69.4731 54.2206 69.3751 54.5836 69.2661H54.7126V69.6681V70.5751V70.7941C54.5536 70.9141 54.1376 71.1511 53.2126 71.3481C53.0176 71.3901 52.8016 71.4301 52.5586 71.4661C52.0586 71.5411 51.4527 71.6031 50.7167 71.6381C50.7057 71.6391 50.6957 71.6391 50.6847 71.6401C50.5097 71.6481 50.3237 71.6541 50.1327 71.6591C50.1087 71.6601 50.0877 71.6611 50.0627 71.6621L49.6777 71.5011L49.1107 71.2651L49.0207 71.2281L44.7717 69.4571C45.9127 69.7011 47.4317 69.8531 49.1117 69.8641Z" fill="#2988FF"/>
<path fill-rule="evenodd" clip-rule="evenodd" d="M43.7293 67.2705C43.8463 67.3245 43.9813 67.3775 44.1273 67.4295C44.1983 67.4555 44.2733 67.4815 44.3513 67.5055C44.6093 67.5875 44.9093 67.6645 45.2543 67.7345C46.1703 67.9205 47.4163 68.0505 49.1113 68.0595C49.1763 68.0605 49.2353 68.0625 49.3023 68.0625C49.3933 68.0625 49.4733 68.0595 49.5613 68.0595C49.5723 68.0595 49.5823 68.0585 49.5933 68.0585C49.6813 68.0585 49.7663 68.0565 49.8523 68.0545C49.9693 68.0525 50.0933 68.0525 50.2053 68.0505C50.3923 68.0445 50.5653 68.0365 50.7413 68.0275C50.9503 68.0175 51.1543 68.0065 51.3473 67.9925C51.5033 67.9815 51.6583 67.9695 51.8043 67.9555C51.9713 67.9405 52.1273 67.9215 52.2803 67.9035C52.4553 67.8815 52.6243 67.8595 52.7823 67.8345C52.9843 67.8035 53.1743 67.7705 53.3503 67.7345C53.4363 67.7165 53.5213 67.6985 53.6003 67.6805C53.8423 67.6255 54.0593 67.5665 54.2533 67.5055C54.3313 67.4795 54.4063 67.4545 54.4773 67.4295C54.6223 67.3765 54.7583 67.3235 54.8753 67.2695C54.9373 67.2415 54.9893 67.2125 55.0443 67.1845C55.0773 67.1675 55.1153 67.1495 55.1453 67.1325C55.4153 66.9805 55.5853 66.8335 55.6963 66.7065L55.6973 66.7055C55.7143 66.6855 55.7333 66.6655 55.7472 66.6475C55.8052 66.5725 55.8422 66.5075 55.8643 66.4575L55.8673 66.2575L55.8813 65.3445L55.8912 64.7475L55.9003 64.1405L55.9062 63.7985L55.9082 63.6905L55.9093 63.5785C55.9103 63.5705 55.9152 63.5625 55.9152 63.5545C55.9152 63.5515 55.9132 63.5485 55.9132 63.5455C55.9132 63.5435 55.9122 63.5425 55.9122 63.5415C55.9122 63.5385 55.9102 63.5365 55.9102 63.5335L55.9152 63.2545H55.7823C55.7783 63.2495 55.7713 63.2445 55.7662 63.2395C55.7232 63.1935 55.6733 63.1495 55.6133 63.1055C55.5303 63.0455 55.4273 62.9875 55.3133 62.9315C55.2423 62.9675 55.1653 63.0025 55.0833 63.0385C55.0713 63.0435 55.0623 63.0485 55.0503 63.0535C54.9283 63.1045 54.7943 63.1565 54.6493 63.2055C54.6003 63.2225 54.5453 63.2385 54.4943 63.2545C54.4883 63.2565 54.4813 63.2585 54.4753 63.2605C54.2683 63.3255 54.0363 63.3885 53.7813 63.4465C53.6313 63.4815 53.4713 63.5135 53.3033 63.5455C53.2983 63.5465 53.2923 63.5465 53.2873 63.5485C52.8433 63.6305 52.3343 63.6985 51.7533 63.7515C51.3433 63.7885 50.9073 63.8185 50.4213 63.8355C50.1993 63.8425 49.9583 63.8455 49.7193 63.8485C49.6663 63.8485 49.6163 63.8505 49.5623 63.8505H49.5613C49.4723 63.8515 49.3933 63.8545 49.3023 63.8545C49.2353 63.8545 49.1773 63.8515 49.1113 63.8515C46.7083 63.8375 45.1443 63.5805 44.1293 63.2605C44.1233 63.2585 44.1163 63.2565 44.1103 63.2545C43.8903 63.1845 43.6933 63.1125 43.5223 63.0385C43.4403 63.0025 43.3623 62.9665 43.2913 62.9315C43.0853 63.0335 42.9233 63.1415 42.8223 63.2545H42.6893V63.5555V63.7985V65.8345V65.9265V66.2175L42.7403 66.4595C42.8133 66.6245 43.0393 66.9535 43.7293 67.2705ZM49.1113 65.0555C49.1753 65.0555 49.2383 65.0575 49.3023 65.0575C49.3903 65.0575 49.4753 65.0555 49.5613 65.0545C49.6813 65.0535 49.8013 65.0535 49.9193 65.0505C49.9503 65.0505 49.9813 65.0495 50.0123 65.0495C50.2673 65.0425 50.5173 65.0325 50.7643 65.0205C51.0813 65.0035 51.3883 64.9825 51.6863 64.9555C51.6963 64.9545 51.7063 64.9545 51.7163 64.9535C52.2943 64.9015 52.8303 64.8315 53.3153 64.7475C53.7933 64.6645 54.2193 64.5665 54.5823 64.4575H54.7123V64.7475V65.3095V65.9855C54.6643 66.0215 54.5893 66.0695 54.4873 66.1225C54.3433 66.1985 54.1383 66.2865 53.8503 66.3755C53.5313 66.4745 53.1093 66.5735 52.5593 66.6565C52.3503 66.6885 52.1233 66.7165 51.8763 66.7425C51.8033 66.7505 51.7293 66.7575 51.6523 66.7645C51.2483 66.8015 50.7913 66.8285 50.2823 66.8445C50.2083 66.8475 50.1383 66.8505 50.0613 66.8525L50.0123 66.8315L49.5923 66.6565L49.5613 66.6435L49.1113 66.4555L49.0193 66.4175L44.7723 64.6485C45.9123 64.8915 47.4323 65.0445 49.1113 65.0555Z" fill="#2988FF"/>
<path fill-rule="evenodd" clip-rule="evenodd" d="M43.7297 62.4619C43.8467 62.5159 43.9817 62.5689 44.1267 62.6209C44.1987 62.6469 44.2727 62.6729 44.3517 62.6969C44.6097 62.7789 44.9097 62.8559 45.2547 62.9259C46.2067 63.1189 47.5057 63.2549 49.3017 63.2549C49.4397 63.2549 49.5627 63.2509 49.6947 63.2489C49.8367 63.2479 49.9807 63.2459 50.1167 63.2429C50.1447 63.2419 50.1767 63.2429 50.2047 63.2419C50.3427 63.2379 50.4697 63.2309 50.6017 63.2259C50.8617 63.2149 51.1117 63.2009 51.3467 63.1839C51.5037 63.1729 51.6577 63.1609 51.8027 63.1469C52.1607 63.1139 52.4837 63.0719 52.7807 63.0269C52.9827 62.9949 53.1727 62.9619 53.3487 62.9259C53.4357 62.9079 53.5197 62.8899 53.6007 62.8719C53.8417 62.8169 54.0587 62.7579 54.2517 62.6969C54.3307 62.6709 54.4057 62.6459 54.4767 62.6209C54.6217 62.5679 54.7567 62.5149 54.8737 62.4609C54.9397 62.4309 54.9947 62.4009 55.0517 62.3709C55.0557 62.3689 55.0597 62.3669 55.0637 62.3649C55.0897 62.3519 55.1197 62.3379 55.1437 62.3239C55.4087 62.1749 55.5787 62.0289 55.6907 61.9039C55.7107 61.8809 55.7297 61.8589 55.7467 61.8379C55.8047 61.7629 55.8417 61.6979 55.8637 61.6479L55.8807 60.5349L55.8907 59.9369L55.8997 59.3319L55.9057 58.9889L55.9077 58.8809L55.9087 58.7699C55.9097 58.7619 55.9147 58.7539 55.9147 58.7459C55.9147 58.7419 55.9117 58.7389 55.9117 58.7359C55.9117 58.7339 55.9117 58.7329 55.9117 58.7319C55.9117 58.7289 55.9097 58.7279 55.9097 58.7249L55.9137 58.4459H55.7817C55.7777 58.4409 55.7707 58.4359 55.7657 58.4309C55.7227 58.3849 55.6737 58.3399 55.6127 58.2959C55.5307 58.2369 55.4267 58.1789 55.3137 58.1229C55.2417 58.1589 55.1647 58.1939 55.0827 58.2299C55.0717 58.2349 55.0627 58.2399 55.0507 58.2439C54.9287 58.2959 54.7947 58.3479 54.6487 58.3979C54.6007 58.4149 54.5457 58.4299 54.4947 58.4459C54.4877 58.4479 54.4817 58.4499 54.4747 58.4519C54.2687 58.5169 54.0387 58.5789 53.7847 58.6379C53.6347 58.6719 53.4767 58.7049 53.3097 58.7359C53.3027 58.7369 53.2947 58.7379 53.2877 58.7399C52.8447 58.8219 52.3357 58.8909 51.7547 58.9429C51.3447 58.9799 50.9077 59.0099 50.4217 59.0269C50.1997 59.0349 49.9577 59.0369 49.7187 59.0399C49.6667 59.0409 49.6167 59.0419 49.5627 59.0419H49.5617C49.4727 59.0429 49.3937 59.0459 49.3027 59.0459C49.2357 59.0459 49.1777 59.0439 49.1117 59.0429C46.7077 59.0299 45.1447 58.7729 44.1297 58.4519C44.1237 58.4499 44.1167 58.4479 44.1097 58.4459C43.8897 58.3759 43.6927 58.3039 43.5217 58.2299C43.4397 58.1939 43.3627 58.1589 43.2907 58.1229C43.0847 58.2249 42.9237 58.3329 42.8227 58.4459H42.6907V58.7459V58.9899V61.0249V61.1179V61.4079L42.7407 61.6499C42.8137 61.8149 43.0397 62.1439 43.7297 62.4619ZM49.1117 60.2469C49.1757 60.2469 49.2377 60.2489 49.3027 60.2489C49.3897 60.2489 49.4747 60.2469 49.5617 60.2459C49.6817 60.2449 49.8017 60.2439 49.9197 60.2419C49.9507 60.2409 49.9807 60.2409 50.0117 60.2399C50.2677 60.2339 50.5177 60.2239 50.7637 60.2109C51.0807 60.1949 51.3877 60.1729 51.6867 60.1469C51.6967 60.1459 51.7067 60.1449 51.7167 60.1439C52.2957 60.0929 52.8327 60.0229 53.3187 59.9379C53.7957 59.8549 54.2197 59.7579 54.5817 59.6489H54.7127V59.9379V60.5009V61.1759C54.6647 61.2119 54.5897 61.2599 54.4877 61.3139C54.1837 61.4739 53.6047 61.6899 52.5587 61.8479C52.3507 61.8789 52.1227 61.9079 51.8757 61.9329C51.4177 61.9809 50.8887 62.0169 50.2827 62.0359C50.2087 62.0379 50.1387 62.0409 50.0627 62.0429L50.0127 62.0219L49.5927 61.8469L49.5617 61.8339L49.1117 61.6459L49.0207 61.6079L44.7717 59.8389C45.9117 60.0829 47.4317 60.2359 49.1117 60.2469Z" fill="#2988FF"/>
<path fill-rule="evenodd" clip-rule="evenodd" d="M43.7297 57.6528C43.8467 57.7068 43.9817 57.7598 44.1267 57.8118C44.1977 57.8378 44.2727 57.8628 44.3517 57.8878C44.6087 57.9698 44.9097 58.0468 45.2547 58.1168C46.2057 58.3098 47.5057 58.4458 49.3027 58.4458C49.4397 58.4458 49.5617 58.4418 49.6937 58.4398C49.8357 58.4388 49.9807 58.4378 50.1167 58.4338C50.1457 58.4338 50.1777 58.4338 50.2067 58.4328C50.3447 58.4288 50.4707 58.4218 50.6017 58.4168C50.8627 58.4058 51.1127 58.3918 51.3487 58.3748C51.5057 58.3638 51.6607 58.3518 51.8067 58.3388C52.1627 58.3048 52.4857 58.2638 52.7817 58.2178C52.9837 58.1858 53.1737 58.1528 53.3507 58.1168C53.4367 58.0988 53.5217 58.0808 53.6027 58.0628C53.8437 58.0078 54.0607 57.9488 54.2537 57.8878C54.3327 57.8628 54.4067 57.8368 54.4777 57.8118C54.6236 57.7598 54.7577 57.7058 54.8746 57.6518C54.9406 57.6218 54.9966 57.5918 55.0536 57.5618C55.0576 57.5598 55.0616 57.5578 55.0656 57.5558C55.0916 57.5418 55.1226 57.5278 55.1466 57.5148C55.4116 57.3648 55.5806 57.2188 55.6926 57.0938C55.7116 57.0718 55.7316 57.0498 55.7476 57.0288C55.8056 56.9548 55.8426 56.8888 55.8646 56.8388L55.8826 55.7258L55.8916 55.1288L55.9016 54.5218L55.9066 54.1799L55.9086 54.0719L55.9106 53.9609C55.9106 53.9529 55.9156 53.9449 55.9156 53.9369C55.9156 53.9329 55.9136 53.9299 55.9136 53.9259C55.9136 53.9249 55.9126 53.9239 55.9116 53.9229C55.9116 53.9209 55.9106 53.9179 55.9106 53.9159L55.9146 53.6359H55.7826C55.7776 53.6309 55.7706 53.6259 55.7656 53.6209C55.7226 53.5759 55.6736 53.5309 55.6136 53.4869C55.5306 53.4269 55.4276 53.3699 55.3136 53.3129C55.2426 53.3489 55.1656 53.3849 55.0836 53.4199C55.0716 53.4249 55.0626 53.4299 55.0516 53.4349C54.9296 53.4869 54.7957 53.5379 54.6507 53.5879C54.6027 53.6039 54.5476 53.6199 54.4976 53.6359C54.4906 53.6379 54.4827 53.6409 54.4757 53.6429C54.2697 53.7079 54.0387 53.7699 53.7847 53.8289C53.6347 53.8629 53.4757 53.8959 53.3087 53.9269C53.3027 53.9279 53.2957 53.9289 53.2887 53.9309C52.8457 54.0129 52.3367 54.0819 51.7567 54.1339C51.3457 54.1709 50.9087 54.2009 50.4207 54.2179C50.1987 54.2259 49.9577 54.2279 49.7187 54.2309C49.6667 54.2319 49.6167 54.2329 49.5627 54.2329H49.5617C49.4727 54.2339 49.3937 54.2379 49.3027 54.2379C49.2347 54.2379 49.1767 54.2349 49.1107 54.2339C46.7077 54.2209 45.1437 53.9629 44.1297 53.6429C44.1227 53.6409 44.1147 53.6379 44.1077 53.6359C43.8887 53.5669 43.6917 53.4939 43.5217 53.4209C43.4397 53.3849 43.3627 53.3489 43.2907 53.3139C43.0847 53.4159 42.9237 53.5239 42.8227 53.6359H42.6897V53.9369V54.1809V56.2158V56.3088V56.5988L42.7407 56.8408C42.8137 57.0058 43.0397 57.3348 43.7297 57.6528ZM49.1117 55.4378C49.1757 55.4378 49.2377 55.4398 49.3027 55.4398C49.3897 55.4398 49.4747 55.4378 49.5617 55.4368C49.6817 55.4358 49.8017 55.4348 49.9197 55.4328C49.9507 55.4318 49.9807 55.4318 50.0117 55.4308C50.2677 55.4248 50.5177 55.4148 50.7637 55.4018C51.0807 55.3858 51.3877 55.3638 51.6857 55.3378C51.6957 55.3368 51.7067 55.3358 51.7167 55.3348C52.2947 55.2838 52.8317 55.2138 53.3167 55.1298C53.7957 55.0458 54.2207 54.9488 54.5837 54.8388H54.7126V55.1298V55.6918V56.3678C54.6636 56.4038 54.5897 56.4518 54.4877 56.5048C54.1837 56.6648 53.6047 56.8818 52.5587 57.0398C52.3507 57.0708 52.1237 57.0988 51.8767 57.1248C51.4187 57.1728 50.8897 57.2088 50.2827 57.2278C50.2097 57.2298 50.1397 57.2328 50.0637 57.2348L50.0127 57.2138L49.5927 57.0388L49.5617 57.0258L49.1117 56.8378L49.0217 56.8008L44.7727 55.0298C45.9127 55.2738 47.4317 55.4268 49.1117 55.4378Z" fill="#2988FF"/>
<path fill-rule="evenodd" clip-rule="evenodd" d="M43.7293 52.8437C43.8463 52.8977 43.9813 52.9507 44.1273 53.0027C44.1983 53.0287 44.2733 53.0537 44.3513 53.0787C44.6093 53.1607 44.9093 53.2377 45.2543 53.3077C46.2063 53.5007 47.5062 53.6367 49.3022 53.6367C49.4402 53.6367 49.5632 53.6327 49.6952 53.6307C49.8372 53.6287 49.9822 53.6277 50.1182 53.6247C50.1462 53.6237 50.1772 53.6247 50.2052 53.6237C50.3442 53.6197 50.4712 53.6127 50.6032 53.6067C50.8622 53.5967 51.1122 53.5827 51.3472 53.5657C51.5032 53.5547 51.6582 53.5427 51.8042 53.5297C52.1612 53.4957 52.4842 53.4547 52.7822 53.4087C52.9842 53.3767 53.1732 53.3437 53.3502 53.3077C53.4362 53.2907 53.5202 53.2727 53.6002 53.2537C53.8422 53.1987 54.0592 53.1407 54.2532 53.0787C54.3312 53.0537 54.4062 53.0287 54.4772 53.0027C54.6222 52.9507 54.7582 52.8977 54.8752 52.8437C54.9402 52.8137 54.9962 52.7837 55.0532 52.7527C55.0572 52.7507 55.0612 52.7487 55.0652 52.7467C55.0912 52.7337 55.1212 52.7197 55.1452 52.7057C55.4112 52.5557 55.5802 52.4107 55.6912 52.2857C55.7112 52.2627 55.7302 52.2408 55.7472 52.2208C55.8042 52.1458 55.8422 52.0808 55.8632 52.0308L55.8812 50.9178L55.8912 50.3208L55.9002 49.7138L55.9062 49.3718L55.9072 49.2638L55.9092 49.1518C55.9102 49.1438 55.9142 49.1358 55.9142 49.1278C55.9142 49.1248 55.9122 49.1218 55.9122 49.1188C55.9122 49.1168 55.9122 49.1158 55.9122 49.1148C55.9122 49.1118 55.9102 49.1098 55.9102 49.1078L55.9142 48.8278H55.7822C55.7772 48.8228 55.7712 48.8178 55.7662 48.8128C55.7232 48.7668 55.6732 48.7228 55.6132 48.6788C55.5302 48.6188 55.4272 48.5618 55.3132 48.5048C55.2422 48.5408 55.1652 48.5758 55.0832 48.6118C55.0712 48.6168 55.0622 48.6218 55.0502 48.6268C54.9282 48.6788 54.7942 48.7298 54.6492 48.7798C54.6002 48.7958 54.5452 48.8118 54.4942 48.8278C54.4882 48.8298 54.4812 48.8318 54.4752 48.8338C54.2682 48.8998 54.0362 48.9618 53.7812 49.0208C53.6312 49.0548 53.4712 49.0868 53.3032 49.1188C53.2982 49.1198 53.2922 49.1208 53.2872 49.1218C52.8432 49.2038 52.3342 49.2728 51.7542 49.3248C51.3442 49.3618 50.9082 49.3918 50.4222 49.4088C50.2002 49.4168 49.9582 49.4188 49.7192 49.4218C49.6662 49.4228 49.6172 49.4238 49.5632 49.4248H49.5612C49.4732 49.4248 49.3932 49.4288 49.3022 49.4288C49.2352 49.4288 49.1772 49.4258 49.1112 49.4248C46.7082 49.4118 45.1453 49.1548 44.1303 48.8338C44.1233 48.8318 44.1163 48.8298 44.1103 48.8278C43.8903 48.7588 43.6933 48.6858 43.5223 48.6118C43.4403 48.5768 43.3633 48.5408 43.2913 48.5048C43.0853 48.6078 42.9233 48.7158 42.8233 48.8288H42.6903V49.1288V49.3728V51.4078V51.4998V51.7908L42.7413 52.0328C42.8133 52.1978 43.0393 52.5267 43.7293 52.8437ZM49.1112 50.6288C49.1752 50.6288 49.2382 50.6308 49.3022 50.6308C49.3902 50.6308 49.4752 50.6288 49.5612 50.6278C49.6812 50.6268 49.8012 50.6258 49.9192 50.6238C49.9502 50.6228 49.9812 50.6228 50.0122 50.6218C50.2672 50.6158 50.5172 50.6058 50.7642 50.5928C51.0812 50.5768 51.3882 50.5548 51.6862 50.5288C51.6962 50.5278 51.7062 50.5268 51.7172 50.5258C52.2942 50.4748 52.8302 50.4048 53.3142 50.3208C53.7932 50.2368 54.2192 50.1398 54.5822 50.0298H54.7122V50.3208V50.8828V51.5588C54.6642 51.5948 54.5892 51.6428 54.4872 51.6958C54.1832 51.8558 53.6052 52.0728 52.5592 52.2297C52.3502 52.2617 52.1232 52.2897 51.8762 52.3157C51.4182 52.3627 50.8882 52.3987 50.2822 52.4177C50.2082 52.4197 50.1382 52.4227 50.0612 52.4247L50.0122 52.4047L49.5922 52.2297L49.5612 52.2167L49.1112 52.0288L49.0192 51.9908L44.7723 50.2208C45.9123 50.4648 47.4322 50.6178 49.1112 50.6288Z" fill="#2988FF"/>
<path fill-rule="evenodd" clip-rule="evenodd" d="M43.7297 48.0347C43.8467 48.0887 43.9817 48.1417 44.1267 48.1937C44.1987 48.2197 44.2727 48.2457 44.3517 48.2697C44.6097 48.3517 44.9097 48.4287 45.2547 48.4987C46.2067 48.6917 47.5067 48.8277 49.3027 48.8277C49.4397 48.8277 49.5627 48.8237 49.6947 48.8217C49.8367 48.8207 49.9817 48.8197 50.1177 48.8157C50.1457 48.8157 50.1767 48.8157 50.2047 48.8147C50.3437 48.8107 50.4697 48.8037 50.6017 48.7987C50.8627 48.7877 51.1127 48.7737 51.3477 48.7567C51.5037 48.7457 51.6587 48.7337 51.8037 48.7197C52.1607 48.6867 52.4837 48.6447 52.7817 48.5997C52.9837 48.5677 53.1727 48.5347 53.3497 48.4987C53.4357 48.4807 53.5207 48.4627 53.6007 48.4447C53.8427 48.3897 54.0597 48.3307 54.2527 48.2697C54.3317 48.2437 54.4057 48.2187 54.4777 48.1937C54.6227 48.1407 54.7577 48.0877 54.8747 48.0337C54.9397 48.0037 54.9957 47.9737 55.0527 47.9437C55.0567 47.9417 55.0607 47.9397 55.0647 47.9377C55.0907 47.9237 55.1197 47.9097 55.1437 47.8967C55.4097 47.7477 55.5787 47.6017 55.6907 47.4767C55.7107 47.4537 55.7307 47.4317 55.7467 47.4107C55.8047 47.3357 55.8427 47.2707 55.8637 47.2207L55.8817 46.1077L55.8907 45.5097L55.9007 44.9037L55.9057 44.5617L55.9077 44.4537L55.9097 44.3417C55.9107 44.3337 55.9147 44.3257 55.9147 44.3177C55.9147 44.3147 55.9127 44.3117 55.9127 44.3077C55.9127 44.3067 55.9117 44.3057 55.9117 44.3037C55.9117 44.3017 55.9107 44.2997 55.9107 44.2967L55.9147 44.0167H55.7817C55.7777 44.0117 55.7707 44.0067 55.7657 44.0017C55.7227 43.9567 55.6737 43.9117 55.6127 43.8677C55.5307 43.8087 55.4277 43.7507 55.3147 43.6947C55.2427 43.7307 55.1657 43.7657 55.0837 43.8017C55.0717 43.8067 55.0627 43.8117 55.0517 43.8167C54.9307 43.8677 54.7967 43.9187 54.6517 43.9687C54.6037 43.9847 54.5487 44.0007 54.4977 44.0167C54.4907 44.0197 54.4827 44.0217 54.4757 44.0237C54.2697 44.0887 54.0387 44.1517 53.7847 44.2097C53.6357 44.2437 53.4767 44.2767 53.3097 44.3077C53.3027 44.3087 53.2957 44.3107 53.2887 44.3117C52.8457 44.3937 52.3377 44.4617 51.7577 44.5147C51.3467 44.5507 50.9087 44.5817 50.4217 44.5987C50.1997 44.6067 49.9587 44.6087 49.7197 44.6117C49.6667 44.6127 49.6167 44.6137 49.5637 44.6137H49.5627C49.4737 44.6147 49.3937 44.6177 49.3027 44.6177C49.2357 44.6177 49.1777 44.6157 49.1117 44.6157C46.7077 44.6017 45.1447 44.3447 44.1297 44.0237C44.1227 44.0217 44.1147 44.0187 44.1077 44.0167C43.8887 43.9467 43.6917 43.8747 43.5217 43.8017C43.4397 43.7657 43.3627 43.7307 43.2907 43.6947C43.0857 43.7967 42.9237 43.9047 42.8237 44.0167H42.6907V44.3177V44.5617V46.5977V46.6897V46.9797L42.7407 47.2217C42.8137 47.3877 43.0397 47.7167 43.7297 48.0347ZM49.1117 45.8197C49.1757 45.8197 49.2377 45.8217 49.3027 45.8217C49.3897 45.8217 49.4747 45.8197 49.5617 45.8187C49.6817 45.8177 49.8017 45.8167 49.9197 45.8147C49.9507 45.8137 49.9807 45.8137 50.0117 45.8127C50.2677 45.8067 50.5177 45.7967 50.7637 45.7837C51.0807 45.7677 51.3877 45.7457 51.6857 45.7197C51.6957 45.7187 51.7067 45.7177 51.7167 45.7167C52.2947 45.6657 52.8327 45.5957 53.3187 45.5107C53.7967 45.4277 54.2217 45.3297 54.5837 45.2207H54.7127V45.5107V46.0737V46.7487C54.6637 46.7857 54.5887 46.8337 54.4877 46.8867C54.1827 47.0467 53.6047 47.2637 52.5587 47.4217C52.3507 47.4527 52.1227 47.4817 51.8757 47.5067C51.4177 47.5547 50.8887 47.5907 50.2827 47.6087C50.2087 47.6117 50.1387 47.6147 50.0627 47.6167L50.0127 47.5957L49.5927 47.4207L49.5617 47.4077L49.1117 47.2197L49.0207 47.1817L44.7727 45.4117C45.9127 45.6557 47.4317 45.8087 49.1117 45.8197Z" fill="#2988FF"/>
<path fill-rule="evenodd" clip-rule="evenodd" d="M43.7297 43.2256C43.8467 43.2796 43.9817 43.3326 44.1267 43.3846C44.1977 43.4106 44.2727 43.4356 44.3507 43.4606C44.6087 43.5426 44.9087 43.6196 45.2537 43.6896C46.1927 43.8806 47.4737 44.0136 49.2317 44.0176C49.2557 44.0176 49.2777 44.0186 49.3017 44.0186C49.3267 44.0186 49.3477 44.0176 49.3727 44.0176C49.4837 44.0176 49.5847 44.0146 49.6937 44.0126C49.8357 44.0116 49.9797 44.0106 50.1157 44.0066C50.1447 44.0056 50.1777 44.0056 50.2067 44.0056C50.3437 44.0016 50.4697 43.9946 50.6007 43.9896C50.8617 43.9786 51.1127 43.9646 51.3487 43.9476C51.5057 43.9366 51.6607 43.9246 51.8067 43.9106C52.1637 43.8776 52.4867 43.8356 52.7847 43.7896C52.9857 43.7586 53.1737 43.7256 53.3497 43.6896C53.4367 43.6716 53.5217 43.6546 53.6027 43.6356C53.8437 43.5806 54.0607 43.5216 54.2537 43.4606C54.3317 43.4356 54.4067 43.4106 54.4777 43.3846C54.6227 43.3326 54.7577 43.2796 54.8746 43.2256C54.9406 43.1956 54.9956 43.1646 55.0536 43.1346C55.0576 43.1326 55.0616 43.1306 55.0656 43.1286C55.0916 43.1146 55.1216 43.1006 55.1456 43.0876C55.4116 42.9376 55.5806 42.7916 55.6916 42.6666C55.7116 42.6446 55.7306 42.6226 55.7476 42.6016C55.8046 42.5276 55.8426 42.4626 55.8646 42.4126L55.8816 41.2986L55.8916 40.7016L55.9016 40.0956L55.9066 39.7526L55.9086 39.6456L55.9096 39.5336C55.9106 39.5256 55.9156 39.5176 55.9156 39.5096C55.9156 39.5066 55.9136 39.5036 55.9126 39.4996C55.9126 39.4986 55.9116 39.4976 55.9116 39.4976C55.9116 39.4936 55.9106 39.4916 55.9106 39.4886L55.9146 39.2096H55.7826C55.7776 39.2046 55.7706 39.1986 55.7656 39.1936C55.7226 39.1486 55.6736 39.1036 55.6136 39.0596C55.5306 39.0006 55.4276 38.9426 55.3136 38.8866C55.2416 38.9226 55.1646 38.9576 55.0826 38.9936C55.0706 38.9976 55.0616 39.0026 55.0506 39.0076C54.9286 39.0596 54.7946 39.1106 54.6486 39.1606C54.6006 39.1776 54.5457 39.1926 54.4947 39.2096C54.4887 39.2116 54.4817 39.2136 54.4747 39.2156C54.2677 39.2806 54.0367 39.3426 53.7817 39.4016C53.6317 39.4356 53.4717 39.4686 53.3037 39.4996C53.2987 39.5006 53.2927 39.5016 53.2867 39.5036C52.8427 39.5856 52.3347 39.6536 51.7537 39.7056C51.3447 39.7426 50.9077 39.7726 50.4227 39.7896C50.1997 39.7976 49.9587 39.7996 49.7197 39.8026C49.6667 39.8036 49.6167 39.8046 49.5627 39.8056H49.5617C49.4727 39.8056 49.3937 39.8096 49.3027 39.8096C49.2347 39.8096 49.1767 39.8066 49.1107 39.8066C46.7077 39.7926 45.1447 39.5356 44.1297 39.2156C44.1237 39.2136 44.1167 39.2116 44.1097 39.2096C43.8897 39.1396 43.6927 39.0666 43.5217 38.9936C43.4397 38.9576 43.3627 38.9216 43.2907 38.8866C43.0857 38.9886 42.9237 39.0966 42.8227 39.2096H42.6897V39.5096V39.7536V41.7886V41.8816V42.1716L42.7407 42.4136C42.8137 42.5786 43.0397 42.9076 43.7297 43.2256ZM49.1117 41.0097C49.1757 41.0107 49.2377 41.0127 49.3027 41.0127C49.3897 41.0127 49.4747 41.0097 49.5617 41.0097C49.6817 41.0087 49.8017 41.0077 49.9197 41.0057C49.9507 41.0047 49.9807 41.0047 50.0117 41.0037C50.2677 40.9977 50.5177 40.9877 50.7637 40.9747C51.0807 40.9577 51.3877 40.9367 51.6867 40.9107C51.6967 40.9097 51.7067 40.9087 51.7167 40.9077C52.2947 40.8557 52.8307 40.7867 53.3167 40.7017C53.7947 40.6187 54.2207 40.5207 54.5826 40.4117H54.7127V40.7017V41.2647V41.9397C54.6647 41.9767 54.5897 42.0237 54.4877 42.0777C54.1837 42.2377 53.6057 42.4547 52.5587 42.6117C52.3507 42.6437 52.1237 42.6717 51.8767 42.6977C51.4187 42.7457 50.8897 42.7817 50.2827 42.8007C50.2097 42.8027 50.1397 42.8057 50.0637 42.8077L50.0127 42.7857L49.5927 42.6117L49.5617 42.5987L49.1117 42.4107L49.0217 42.3737L44.7717 40.6027C45.9117 40.8467 47.4317 40.9997 49.1117 41.0097Z" fill="#2988FF"/>
<path fill-rule="evenodd" clip-rule="evenodd" d="M43.73 38.416C43.847 38.47 43.982 38.523 44.128 38.575C44.199 38.601 44.274 38.626 44.352 38.651C44.61 38.733 44.91 38.81 45.255 38.88C46.207 39.073 47.5069 39.209 49.3029 39.209C49.4399 39.209 49.5629 39.205 49.6949 39.203C49.8379 39.202 49.9819 39.201 50.1179 39.197C50.1459 39.197 50.1779 39.197 50.2049 39.196C50.3439 39.192 50.4709 39.185 50.6029 39.18C50.8629 39.169 51.1119 39.155 51.3469 39.139C51.5039 39.127 51.6589 39.116 51.8049 39.102C52.1619 39.068 52.4849 39.027 52.7819 38.981C52.9839 38.95 53.1739 38.916 53.3499 38.88C53.4359 38.863 53.5209 38.845 53.6009 38.827C53.8419 38.772 54.0599 38.713 54.2529 38.651C54.3319 38.626 54.4059 38.601 54.4769 38.575C54.6229 38.523 54.7579 38.47 54.8749 38.416C54.9399 38.386 54.9959 38.356 55.0529 38.326C55.0569 38.324 55.0609 38.322 55.0649 38.32C55.0909 38.306 55.1209 38.293 55.1449 38.279C55.4109 38.13 55.5799 37.984 55.6919 37.858C55.7109 37.836 55.7309 37.814 55.7479 37.793C55.8059 37.718 55.8429 37.653 55.8649 37.603L55.8829 36.491L55.8919 35.893L55.9019 35.287L55.9069 34.945L55.9089 34.837L55.9109 34.725C55.9109 34.717 55.9159 34.709 55.9159 34.701C55.9159 34.698 55.9139 34.694 55.9139 34.691C55.9139 34.691 55.9129 34.689 55.9129 34.688C55.9129 34.685 55.9109 34.683 55.9109 34.68L55.9159 34.401H55.7829C55.7789 34.396 55.7719 34.391 55.7669 34.386C55.7239 34.34 55.6749 34.295 55.6139 34.251C55.5319 34.192 55.4279 34.134 55.3149 34.078C55.2429 34.114 55.1659 34.149 55.0839 34.185C55.0729 34.19 55.0629 34.194 55.0519 34.199C54.9299 34.251 54.7959 34.302 54.6499 34.352C54.6019 34.369 54.5469 34.384 54.4949 34.401C54.4889 34.403 54.4819 34.405 54.4759 34.407C54.2689 34.472 54.0369 34.534 53.7819 34.593C53.6339 34.627 53.4759 34.659 53.3099 34.69C53.3029 34.692 53.2949 34.693 53.2879 34.694C52.8439 34.776 52.3349 34.845 51.7549 34.897C51.3449 34.934 50.9089 34.964 50.4229 34.981C50.2009 34.989 49.9589 34.991 49.7199 34.994C49.6669 34.995 49.6169 34.997 49.5639 34.997H49.5629C49.4739 34.998 49.3939 35.001 49.3029 35.001C49.2359 35.001 49.1779 34.998 49.1119 34.998C46.709 34.984 45.146 34.727 44.131 34.407C44.124 34.405 44.117 34.403 44.111 34.401C43.891 34.331 43.694 34.258 43.523 34.185C43.441 34.149 43.363 34.113 43.292 34.078C43.086 34.18 42.924 34.288 42.823 34.401H42.691V34.701V34.945V36.98V37.073V37.362L42.741 37.604C42.813 37.769 43.04 38.098 43.73 38.416ZM49.1109 36.201C49.1759 36.201 49.2379 36.203 49.3029 36.203C49.3899 36.203 49.4749 36.201 49.5619 36.2C49.6819 36.199 49.8019 36.199 49.9199 36.196C49.9499 36.196 49.9809 36.195 50.0119 36.195C50.2679 36.188 50.5179 36.178 50.7639 36.166C51.0809 36.149 51.3879 36.128 51.6859 36.101C51.6959 36.1 51.7069 36.1 51.7159 36.099C52.2959 36.047 52.8339 35.977 53.3199 35.892C53.7969 35.809 54.2199 35.712 54.5819 35.603H54.7119V35.892V36.456V37.13C54.6639 37.167 54.5889 37.215 54.4869 37.268C54.1829 37.428 53.6049 37.645 52.5579 37.802C52.3499 37.834 52.1229 37.862 51.8749 37.888C51.4179 37.935 50.8879 37.971 50.2819 37.99C50.2079 37.992 50.1379 37.995 50.0619 37.997L50.0119 37.977L49.5929 37.802L49.5619 37.789L49.1109 37.601L49.0199 37.563L44.773 35.793C45.913 36.037 47.432 36.19 49.1109 36.201Z" fill="#2988FF"/>
<path fill-rule="evenodd" clip-rule="evenodd" d="M43.7297 33.6076C43.8467 33.6616 43.9817 33.7146 44.1267 33.7666C44.1987 33.7926 44.2727 33.8186 44.3517 33.8426C44.6097 33.9246 44.9097 34.0016 45.2547 34.0716C46.2067 34.2646 47.5067 34.4006 49.3027 34.4006C49.4397 34.4006 49.5627 34.3966 49.6947 34.3946C49.8367 34.3936 49.9817 34.3926 50.1167 34.3886C50.1447 34.3886 50.1767 34.3886 50.2047 34.3876C50.3437 34.3836 50.4697 34.3766 50.6017 34.3716C50.8617 34.3606 51.1117 34.3466 51.3477 34.3296C51.5037 34.3186 51.6587 34.3066 51.8037 34.2936C52.1607 34.2596 52.4837 34.2186 52.7817 34.1726C52.9837 34.1406 53.1727 34.1076 53.3497 34.0716C53.4357 34.0536 53.5207 34.0356 53.6007 34.0176C53.8417 33.9626 54.0597 33.9036 54.2527 33.8426C54.3317 33.8176 54.4057 33.7916 54.4766 33.7666C54.6226 33.7146 54.7577 33.6606 54.8746 33.6066C54.9396 33.5766 54.9956 33.5466 55.0526 33.5166C55.0566 33.5146 55.0606 33.5126 55.0646 33.5106C55.0896 33.4966 55.1196 33.4836 55.1436 33.4696C55.4086 33.3206 55.5786 33.1746 55.6906 33.0496C55.7106 33.0266 55.7296 33.0046 55.7466 32.9836C55.8046 32.9086 55.8416 32.8436 55.8636 32.7936L55.8806 31.6806L55.8906 31.0826L55.8996 30.4766L55.9056 30.1346L55.9076 30.0266L55.9086 29.9146C55.9096 29.9066 55.9146 29.8986 55.9146 29.8906C55.9146 29.8876 55.9116 29.8846 55.9116 29.8806C55.9116 29.8796 55.9116 29.8776 55.9116 29.8776C55.9116 29.8746 55.9096 29.8726 55.9096 29.8696L55.9136 29.5896H55.7816C55.7766 29.5846 55.7696 29.5796 55.7646 29.5746C55.7226 29.5296 55.6726 29.4846 55.6126 29.4406C55.4766 29.3426 55.2966 29.2496 55.0796 29.1606C54.7516 29.0266 54.3336 28.9056 53.8467 28.8016C53.8187 28.7946 53.7887 28.7896 53.7587 28.7836C53.3567 28.6996 52.9127 28.6256 52.4287 28.5666C51.7827 28.4876 51.0697 28.4336 50.3177 28.4076C50.2217 28.4046 50.1277 28.4006 50.0317 28.3976C49.9147 28.3946 49.7957 28.3936 49.6777 28.3926C49.6387 28.3916 49.5997 28.3916 49.5607 28.3906C49.4747 28.3896 49.3897 28.3876 49.3017 28.3876C49.2377 28.3876 49.1747 28.3896 49.1107 28.3896C45.9977 28.4106 43.4227 28.9176 42.8227 29.5896H42.6897V29.8906V30.1346V32.1696V32.2626V32.5526L42.7397 32.7946C42.8137 32.9606 43.0397 33.2896 43.7297 33.6076ZM54.7126 31.6466V32.3216C54.6636 32.3576 54.5896 32.4056 54.4876 32.4596C54.1827 32.6196 53.6047 32.8356 52.5587 32.9936C52.3497 33.0246 52.1227 33.0536 51.8757 33.0796C51.4177 33.1266 50.8887 33.1626 50.2827 33.1816C50.2087 33.1836 50.1387 33.1866 50.0627 33.1886L50.0117 33.1676L49.5927 32.9926L49.5617 32.9796L49.1107 32.7916L49.0207 32.7546L44.7717 30.9836C45.9117 31.2286 47.4317 31.3806 49.1107 31.3916C49.1747 31.3926 49.2377 31.3946 49.3017 31.3946C49.3897 31.3946 49.4747 31.3916 49.5607 31.3916C49.6807 31.3906 49.8007 31.3896 49.9187 31.3876C49.9497 31.3866 49.9807 31.3866 50.0117 31.3856C50.2667 31.3796 50.5167 31.3696 50.7637 31.3566C51.0807 31.3396 51.3877 31.3186 51.6857 31.2926C51.6957 31.2916 51.7057 31.2906 51.7157 31.2896C52.2947 31.2376 52.8317 31.1676 53.3177 31.0836C53.7957 31.0006 54.2207 30.9026 54.5837 30.7936H54.7116V31.0836V31.6466H54.7126Z" fill="#2988FF"/>
<path fill-rule="evenodd" clip-rule="evenodd" d="M39.985 68.9398H39.853C39.827 68.9108 39.791 68.8828 39.758 68.8548C39.715 68.8828 39.667 68.9118 39.618 68.9398C39.599 68.9508 39.579 68.9618 39.559 68.9738C39.422 69.0498 39.27 69.1278 39.087 69.2038C38.094 69.6168 36.368 69.9908 33.373 69.9908C32.564 69.9908 31.855 69.9618 31.221 69.9138L31.219 70.1428L31.213 70.6598C31.891 70.7128 32.616 70.7428 33.373 70.7428C35.533 70.7428 37.445 70.5068 38.652 70.1428H38.783V71.6698C38.503 71.8818 37.435 72.4598 34.133 72.5378L31.207 71.3178L31.195 72.4648L31.194 72.5758C31.16 72.6638 31.055 72.8528 30.787 73.0748C30.701 73.1468 30.6 73.2208 30.475 73.2978C30.454 73.3108 30.428 73.3238 30.406 73.3368C30.552 73.4298 30.675 73.5298 30.784 73.6348C31.509 73.7068 32.363 73.7488 33.373 73.7488C38.809 73.7488 39.77 72.5188 39.935 72.1428L39.977 69.4838L39.98 69.2648C39.981 69.2568 39.985 69.2488 39.985 69.2408C39.985 69.2328 39.981 69.2258 39.981 69.2188L39.985 68.9398Z" fill="#2988FF"/>
<path fill-rule="evenodd" clip-rule="evenodd" d="M39.985 64.5816H39.853C39.752 64.4686 39.59 64.3606 39.385 64.2586C39.313 64.2946 39.236 64.3296 39.154 64.3656C38.983 64.4386 38.785 64.5116 38.565 64.5816C38.559 64.5836 38.552 64.5856 38.545 64.5876C37.502 64.9166 35.89 65.1816 33.373 65.1816C30.855 65.1816 29.243 64.9166 28.2 64.5876C28.193 64.5856 28.187 64.5836 28.18 64.5816C27.96 64.5116 27.763 64.4396 27.592 64.3656C27.51 64.3306 27.433 64.2946 27.361 64.2586C27.155 64.3616 26.993 64.4696 26.893 64.5826H26.76V67.4826C26.884 67.4986 27.007 67.5126 27.128 67.5296C27.155 67.5336 27.184 67.5356 27.21 67.5396C27.74 67.6176 28.237 67.7206 28.702 67.8426C28.939 67.9046 29.169 67.9706 29.381 68.0446C29.429 68.0606 29.471 68.0806 29.517 68.0976C29.786 68.1986 30.027 68.3096 30.242 68.4306C30.394 68.5166 30.541 68.6046 30.661 68.7006C30.754 68.7766 30.825 68.8586 30.896 68.9406C30.91 68.9566 30.929 68.9716 30.942 68.9886C30.965 69.0166 31.003 69.0406 31.023 69.0706H31.196L31.211 69.3106C31.841 69.3596 32.55 69.3906 33.372 69.3906C35.525 69.3906 36.968 69.1966 37.946 68.9406C38.056 68.9116 38.167 68.8816 38.266 68.8516C38.519 68.7736 38.733 68.6916 38.916 68.6086C38.994 68.5736 39.064 68.5386 39.13 68.5026C39.225 68.4526 39.31 68.4036 39.385 68.3536C39.737 68.1216 39.88 67.9076 39.933 67.7846L39.975 65.1256L39.979 64.9066C39.979 64.8986 39.984 64.8906 39.984 64.8816C39.984 64.8746 39.98 64.8676 39.979 64.8606L39.985 64.5816ZM38.782 65.7836V67.3106C38.652 67.4096 38.351 67.5866 37.735 67.7566C37.481 67.8266 37.172 67.8956 36.801 67.9556C36.742 67.9656 36.681 67.9746 36.619 67.9846C35.979 68.0806 35.166 68.1536 34.133 68.1786L33.083 67.7406L33.081 67.7396L32.091 67.3276L28.843 65.9746C30.027 66.2276 31.618 66.3846 33.373 66.3846C35.533 66.3846 37.445 66.1476 38.652 65.7836H38.782Z" fill="#2988FF"/>
<path fill-rule="evenodd" clip-rule="evenodd" d="M39.985 59.7716H39.853C39.752 59.6586 39.59 59.5506 39.385 59.4486C39.313 59.4846 39.236 59.5196 39.154 59.5556C38.983 59.6296 38.786 59.7016 38.567 59.7716C38.56 59.7736 38.553 59.7756 38.546 59.7776C37.503 60.1076 35.89 60.3726 33.373 60.3726C30.855 60.3726 29.243 60.1076 28.2 59.7776C28.193 59.7756 28.185 59.7736 28.178 59.7716C27.959 59.7016 27.763 59.6296 27.592 59.5556C27.51 59.5196 27.433 59.4836 27.361 59.4486C27.156 59.5506 26.994 59.6576 26.893 59.7706H26.761V62.7336L26.811 62.9756C26.883 63.1406 27.11 63.4696 27.8 63.7876C27.917 63.8416 28.052 63.8946 28.197 63.9466C28.268 63.9726 28.343 63.9976 28.422 64.0226C28.679 64.1046 28.98 64.1816 29.324 64.2516C30.276 64.4456 31.576 64.5806 33.373 64.5806C35.169 64.5806 36.469 64.4456 37.42 64.2526C37.765 64.1826 38.066 64.1046 38.324 64.0226C38.402 63.9976 38.477 63.9726 38.548 63.9466C38.693 63.8946 38.828 63.8416 38.945 63.7876C39.635 63.4696 39.862 63.1396 39.934 62.9746L39.976 60.3156L39.979 60.0966C39.98 60.0886 39.985 60.0806 39.985 60.0716C39.985 60.0646 39.98 60.0576 39.98 60.0506L39.985 59.7716ZM34.133 63.3696L33.091 62.9346L28.843 61.1646C30.026 61.4186 31.618 61.5746 33.373 61.5746C35.534 61.5746 37.447 61.3386 38.654 60.9736H38.782V62.5016C38.59 62.6466 38.025 62.9636 36.628 63.1736C35.987 63.2706 35.172 63.3446 34.133 63.3696Z" fill="#2988FF"/>
<path fill-rule="evenodd" clip-rule="evenodd" d="M39.985 54.963H39.853C39.752 54.85 39.59 54.742 39.384 54.64C39.312 54.675 39.235 54.711 39.153 54.747C38.982 54.82 38.785 54.893 38.565 54.963C38.559 54.965 38.552 54.967 38.545 54.969C37.502 55.298 35.89 55.563 33.373 55.563C30.856 55.563 29.243 55.298 28.2 54.969C28.194 54.967 28.187 54.965 28.181 54.963C27.961 54.893 27.764 54.821 27.593 54.747C27.511 54.712 27.433 54.676 27.362 54.64C27.156 54.743 26.994 54.851 26.893 54.963H26.761V57.926L26.811 58.168C26.884 58.333 27.11 58.662 27.8 58.979C27.917 59.033 28.052 59.086 28.198 59.139C28.269 59.164 28.344 59.189 28.422 59.214C28.68 59.296 28.98 59.373 29.325 59.443C30.277 59.636 31.577 59.772 33.373 59.772C35.169 59.772 36.469 59.636 37.421 59.443C37.766 59.373 38.066 59.296 38.324 59.214C38.402 59.189 38.477 59.164 38.548 59.138C38.693 59.086 38.829 59.033 38.946 58.979C39.636 58.661 39.862 58.332 39.935 58.166L39.977 55.507L39.98 55.288C39.981 55.28 39.985 55.272 39.985 55.263C39.985 55.256 39.981 55.249 39.981 55.242L39.985 54.963ZM34.132 58.56L33.09 58.125L28.843 56.356C30.026 56.61 31.618 56.766 33.373 56.766C35.534 56.766 37.446 56.53 38.653 56.165H38.783V57.693C38.59 57.838 38.025 58.154 36.629 58.364C35.988 58.461 35.171 58.535 34.132 58.56Z" fill="#2988FF"/>
<path fill-rule="evenodd" clip-rule="evenodd" d="M39.985 50.1544H39.853C39.752 50.0414 39.59 49.9334 39.385 49.8314C39.313 49.8664 39.236 49.9024 39.154 49.9374C38.982 50.0114 38.785 50.0844 38.565 50.1544C38.559 50.1564 38.552 50.1584 38.545 50.1604C37.502 50.4894 35.89 50.7544 33.373 50.7544C30.855 50.7544 29.243 50.4894 28.2 50.1604C28.193 50.1584 28.187 50.1564 28.18 50.1544C27.96 50.0844 27.763 50.0124 27.592 49.9384C27.51 49.9024 27.433 49.8664 27.361 49.8314C27.155 49.9334 26.993 50.0414 26.893 50.1544H26.76V53.1164L26.811 53.3584C26.883 53.5234 27.11 53.8524 27.8 54.1704C27.917 54.2244 28.052 54.2774 28.197 54.3294C28.269 54.3554 28.343 54.3804 28.422 54.4054C28.68 54.4874 28.98 54.5644 29.325 54.6344C30.277 54.8274 31.576 54.9634 33.372 54.9634C35.168 54.9634 36.468 54.8274 37.42 54.6344C37.765 54.5644 38.065 54.4874 38.323 54.4054C38.402 54.3804 38.476 54.3554 38.547 54.3294C38.692 54.2774 38.828 54.2244 38.944 54.1704C39.635 53.8524 39.861 53.5224 39.934 53.3574L39.976 50.6984L39.979 50.4794C39.98 50.4714 39.984 50.4634 39.984 50.4544C39.984 50.4474 39.98 50.4404 39.98 50.4334L39.985 50.1544ZM34.133 53.7514L33.091 53.3164L28.842 51.5474C30.026 51.8004 31.617 51.9574 33.373 51.9574C35.533 51.9574 37.445 51.7204 38.651 51.3574H38.782V52.8844C38.59 53.0294 38.025 53.3454 36.628 53.5564C35.987 53.6524 35.171 53.7264 34.133 53.7514Z" fill="#2988FF"/>
<path fill-rule="evenodd" clip-rule="evenodd" d="M39.985 45.3449H39.853C39.752 45.2319 39.59 45.1239 39.385 45.0219C39.313 45.0579 39.236 45.0929 39.154 45.1289C38.983 45.2029 38.787 45.2749 38.567 45.3449C38.561 45.3469 38.553 45.3489 38.546 45.3509C37.504 45.6809 35.891 45.9459 33.373 45.9459C30.856 45.9459 29.243 45.6809 28.2 45.3509C28.193 45.3489 28.185 45.3469 28.179 45.3449C27.959 45.2749 27.763 45.2019 27.592 45.1289C27.51 45.0929 27.433 45.0569 27.361 45.0219C27.156 45.1239 26.994 45.2319 26.893 45.3449H26.761V48.3068V48.3078L26.811 48.5488C26.883 48.7138 27.11 49.0438 27.8 49.3608C27.917 49.4148 28.052 49.4678 28.197 49.5198C28.268 49.5458 28.343 49.5708 28.422 49.5958C28.679 49.6778 28.98 49.7548 29.324 49.8248C30.276 50.0188 31.576 50.1538 33.373 50.1538C35.169 50.1538 36.469 50.0188 37.42 49.8258C37.765 49.7558 38.066 49.6778 38.324 49.5958C38.402 49.5708 38.477 49.5458 38.548 49.5198C38.693 49.4678 38.828 49.4148 38.945 49.3608C39.636 49.0428 39.862 48.7128 39.934 48.5478L39.976 45.8889L39.98 45.6699C39.98 45.6609 39.985 45.6529 39.985 45.6449C39.985 45.6369 39.981 45.6299 39.98 45.6229L39.985 45.3449ZM34.133 48.9428L33.091 48.5088L28.843 46.7379C30.026 46.9919 31.618 47.1479 33.373 47.1479C35.534 47.1479 37.447 46.9119 38.654 46.5469H38.782V48.0749C38.59 48.2198 38.025 48.5368 36.628 48.7478C35.987 48.8438 35.172 48.9188 34.133 48.9428Z" fill="#2988FF"/>
<path fill-rule="evenodd" clip-rule="evenodd" d="M39.985 40.5363H39.853C39.752 40.4233 39.59 40.3153 39.385 40.2133C39.313 40.2483 39.236 40.2843 39.154 40.3203C38.983 40.3933 38.785 40.4663 38.565 40.5363C38.559 40.5383 38.552 40.5403 38.546 40.5423C37.503 40.8713 35.89 41.1363 33.373 41.1363C30.856 41.1363 29.244 40.8713 28.201 40.5423C28.194 40.5403 28.187 40.5383 28.181 40.5363C27.961 40.4663 27.764 40.3943 27.593 40.3203C27.511 40.2853 27.434 40.2493 27.362 40.2133C27.156 40.3163 26.994 40.4243 26.894 40.5373H26.761V43.4993V43.5003L26.812 43.7413C26.884 43.9063 27.111 44.2353 27.8 44.5533C27.917 44.6073 28.053 44.6593 28.198 44.7123C28.269 44.7383 28.344 44.7633 28.423 44.7883C28.68 44.8703 28.981 44.9473 29.326 45.0173C30.278 45.2103 31.577 45.3463 33.374 45.3463C35.17 45.3463 36.47 45.2103 37.421 45.0173C37.766 44.9473 38.067 44.8703 38.325 44.7883C38.403 44.7633 38.477 44.7383 38.549 44.7123C38.694 44.6603 38.829 44.6073 38.946 44.5533C39.637 44.2353 39.863 43.9063 39.935 43.7403L39.977 41.0813L39.981 40.8623C39.981 40.8543 39.986 40.8463 39.986 40.8373C39.986 40.8303 39.982 40.8233 39.981 40.8163L39.985 40.5363ZM34.132 44.1333L33.09 43.6993L28.843 41.9293C30.026 42.1833 31.618 42.3393 33.373 42.3393C35.533 42.3393 37.446 42.1033 38.652 41.7393H38.782V43.2673C38.59 43.4113 38.025 43.7283 36.629 43.9383C35.988 44.0343 35.171 44.1083 34.132 44.1333Z" fill="#2988FF"/>
<path fill-rule="evenodd" clip-rule="evenodd" d="M39.985 35.7262H39.852C39.752 35.6132 39.59 35.5062 39.385 35.4042C39.313 35.4402 39.236 35.4752 39.154 35.5112C38.983 35.5842 38.787 35.6562 38.568 35.7262C38.561 35.7282 38.553 35.7312 38.545 35.7332C37.502 36.0622 35.89 36.3272 33.373 36.3272C30.855 36.3272 29.243 36.0622 28.2 35.7332C28.192 35.7312 28.184 35.7282 28.177 35.7262C27.958 35.6562 27.762 35.5842 27.592 35.5112C27.51 35.4752 27.433 35.4402 27.361 35.4042C27.156 35.5062 26.994 35.6142 26.893 35.7262H26.761V38.6892L26.811 38.9312C26.883 39.0962 27.11 39.4252 27.8 39.7432C27.917 39.7972 28.052 39.8502 28.197 39.9022C28.269 39.9282 28.343 39.9532 28.422 39.9782C28.68 40.0602 28.98 40.1372 29.325 40.2072C30.277 40.4002 31.576 40.5362 33.372 40.5362C35.168 40.5362 36.468 40.4002 37.42 40.2072C37.765 40.1372 38.065 40.0602 38.323 39.9782C38.402 39.9532 38.476 39.9282 38.547 39.9022C38.693 39.8502 38.828 39.7972 38.945 39.7432C39.635 39.4252 39.862 39.0952 39.934 38.9302L39.976 36.2712L39.979 36.0522C39.98 36.0442 39.985 36.0362 39.985 36.0272C39.985 36.0202 39.98 36.0132 39.98 36.0062L39.985 35.7262ZM34.133 39.3242L33.091 38.8902L28.843 37.1192C30.027 37.3732 31.618 37.5292 33.373 37.5292C35.535 37.5292 37.448 37.2932 38.655 36.9282H38.783V38.4562C38.591 38.6012 38.026 38.9182 36.629 39.1292C35.987 39.2262 35.172 39.3002 34.133 39.3242Z" fill="#2988FF"/>
<path fill-rule="evenodd" clip-rule="evenodd" d="M39.985 30.9176H39.853C39.752 30.8046 39.59 30.6966 39.384 30.5946C39.312 30.6306 39.235 30.6656 39.153 30.7016C38.982 30.7756 38.785 30.8476 38.565 30.9176C38.559 30.9196 38.552 30.9216 38.545 30.9236C37.502 31.2526 35.89 31.5176 33.373 31.5176C30.856 31.5176 29.244 31.2526 28.201 30.9236C28.194 30.9216 28.187 30.9196 28.181 30.9176C27.961 30.8476 27.764 30.7756 27.593 30.7016C27.511 30.6666 27.434 30.6306 27.362 30.5946C27.156 30.6976 26.994 30.8046 26.893 30.9176H26.761V33.8806L26.811 34.1226C26.883 34.2876 27.11 34.6166 27.8 34.9346C27.917 34.9886 28.052 35.0416 28.197 35.0936C28.268 35.1196 28.343 35.1446 28.421 35.1696C28.679 35.2516 28.98 35.3286 29.324 35.3986C30.263 35.5896 31.544 35.7226 33.302 35.7266C33.327 35.7266 33.348 35.7276 33.372 35.7276C33.397 35.7276 33.418 35.7266 33.443 35.7266C35.201 35.7226 36.481 35.5896 37.42 35.3986C37.765 35.3286 38.066 35.2516 38.324 35.1696C38.402 35.1446 38.477 35.1196 38.548 35.0936C38.693 35.0416 38.828 34.9886 38.945 34.9346C39.635 34.6166 39.862 34.2866 39.934 34.1216L39.976 31.4626L39.979 31.2436C39.98 31.2346 39.985 31.2266 39.985 31.2186C39.985 31.2116 39.98 31.2036 39.98 31.1966L39.985 30.9176ZM34.134 34.5156L33.091 34.0816L28.842 32.3106C30.026 32.5646 31.617 32.7206 33.373 32.7206C35.534 32.7206 37.447 32.4836 38.653 32.1196H38.782V33.6476C38.59 33.7926 38.025 34.1096 36.628 34.3206C35.987 34.4166 35.172 34.4916 34.134 34.5156Z" fill="#2988FF"/>
<path fill-rule="evenodd" clip-rule="evenodd" d="M39.985 26.1091H39.853C39.752 25.9961 39.59 25.8881 39.385 25.7861C39.313 25.8211 39.236 25.8571 39.154 25.8921C38.983 25.9661 38.785 26.0391 38.565 26.1091C38.559 26.1111 38.552 26.1131 38.546 26.1151C37.503 26.4441 35.89 26.7101 33.373 26.7101C30.856 26.7101 29.244 26.4441 28.201 26.1151C28.194 26.1131 28.187 26.1111 28.181 26.1091C27.961 26.0391 27.764 25.9671 27.593 25.8931C27.511 25.8581 27.434 25.8221 27.362 25.7861C27.156 25.8891 26.994 25.9971 26.894 26.1101H26.761V29.0711V29.0721L26.812 29.3131C26.884 29.4781 27.111 29.8081 27.801 30.1251C27.918 30.1791 28.053 30.2321 28.199 30.2851C28.27 30.3101 28.345 30.3361 28.423 30.3611C28.681 30.4431 28.982 30.5201 29.326 30.5891C30.278 30.7831 31.578 30.9181 33.374 30.9181C35.17 30.9181 36.469 30.7831 37.421 30.5891C37.766 30.5201 38.067 30.4431 38.324 30.3611C38.403 30.3361 38.477 30.3101 38.548 30.2851C38.694 30.2321 38.829 30.1791 38.946 30.1251C39.637 29.8071 39.863 29.4771 39.936 29.3121L39.978 26.6541L39.981 26.4351C39.982 26.4271 39.986 26.4191 39.986 26.4101C39.986 26.4031 39.982 26.3961 39.982 26.3891L39.985 26.1091ZM34.132 29.7061L33.09 29.2711L28.843 27.5021C30.027 27.7551 31.618 27.9121 33.373 27.9121C35.534 27.9121 37.446 27.6751 38.653 27.3111H38.783V28.8381C38.591 28.9831 38.026 29.3001 36.629 29.5101C35.987 29.6071 35.171 29.6811 34.132 29.7061Z" fill="#2988FF"/>
<path fill-rule="evenodd" clip-rule="evenodd" d="M39.985 21.2991H39.852C39.24 20.6131 36.572 20.0971 33.373 20.0971C30.173 20.0971 27.506 20.6131 26.893 21.2991H26.76V24.2611V24.2621L26.811 24.5031C26.883 24.6691 27.11 24.9981 27.8 25.3161C27.917 25.3701 28.052 25.4221 28.197 25.4751C28.268 25.5011 28.343 25.5261 28.422 25.5511C28.679 25.6331 28.98 25.7101 29.325 25.7801C30.277 25.9731 31.576 26.1091 33.372 26.1091C35.168 26.1091 36.468 25.9731 37.42 25.7801C37.765 25.7101 38.065 25.6331 38.323 25.5511C38.402 25.5261 38.477 25.5001 38.547 25.4751C38.693 25.4221 38.828 25.3691 38.945 25.3151C39.635 24.9971 39.862 24.6681 39.934 24.5021L39.976 21.8431L39.979 21.6241C39.98 21.6161 39.985 21.6081 39.985 21.6001C39.985 21.5921 39.98 21.5851 39.98 21.5781L39.985 21.2991ZM34.133 24.8971L33.091 24.4631L28.843 22.6921C30.026 22.9461 31.618 23.1021 33.373 23.1021C35.535 23.1021 37.448 22.8661 38.654 22.5011H38.782V24.0291C38.59 24.1741 38.025 24.4911 36.628 24.7021C35.987 24.7981 35.172 24.8731 34.133 24.8971Z" fill="#2988FF"/>
<path fill-rule="evenodd" clip-rule="evenodd" d="M30.6416 73.7842C30.6356 73.7782 30.6276 73.7722 30.6216 73.7652C30.5636 73.7052 30.4866 73.6462 30.3976 73.5882C30.3306 73.5452 30.2566 73.5022 30.1736 73.4612C30.1216 73.4872 30.0636 73.5132 30.0066 73.5382C29.9846 73.5482 29.9656 73.5582 29.9426 73.5682C29.8796 73.5952 29.8106 73.6222 29.7416 73.6482C29.6216 73.6952 29.4936 73.7402 29.3536 73.7842C29.3476 73.7862 29.3406 73.7882 29.3346 73.7902C29.1836 73.8382 29.0196 73.8842 28.8436 73.9282C27.8026 74.1902 26.3146 74.3842 24.1616 74.3842C21.6446 74.3842 20.0316 74.1192 18.9886 73.7902C18.9826 73.7882 18.9756 73.7862 18.9686 73.7842C18.7486 73.7142 18.5516 73.6422 18.3806 73.5682C18.2986 73.5332 18.2216 73.4972 18.1496 73.4612C17.9436 73.5642 17.7816 73.6722 17.6816 73.7852H17.5486V76.7462V76.7482L17.5986 76.9882C17.7636 77.3652 18.7256 78.5932 24.1616 78.5932C29.5966 78.5932 30.5586 77.3652 30.7236 76.9882L30.7646 74.3282L30.7666 74.2312L30.7686 74.1062C30.7686 74.0992 30.7736 74.0922 30.7736 74.0852C30.7736 74.0782 30.7696 74.0722 30.7696 74.0662L30.7736 73.7842H30.6416ZM29.5716 74.9872V76.5142C29.2906 76.7252 28.2226 77.3032 24.9206 77.3812L19.6316 75.1772C20.8156 75.4302 22.4066 75.5872 24.1616 75.5872C26.3216 75.5872 28.2336 75.3502 29.4406 74.9862H29.5716V74.9872Z" fill="#2988FF"/>
<path fill-rule="evenodd" clip-rule="evenodd" d="M17.5991 72.1793C17.6711 72.3443 17.8981 72.6743 18.5881 72.9913C18.7061 73.0453 18.8401 73.0983 18.9861 73.1513C19.0571 73.1763 19.1321 73.2023 19.2101 73.2273C19.4681 73.3093 19.7691 73.3863 20.1141 73.4563C21.0651 73.6493 22.3651 73.7843 24.1621 73.7843C25.6261 73.7843 26.7571 73.6933 27.6441 73.5563C27.8451 73.5253 28.0341 73.4913 28.2091 73.4563C28.3221 73.4323 28.4351 73.4103 28.5391 73.3853C28.6441 73.3603 28.7381 73.3343 28.8341 73.3073C28.9301 73.2803 29.0251 73.2543 29.1121 73.2263C29.1911 73.2013 29.2651 73.1763 29.3371 73.1503C29.3571 73.1433 29.3801 73.1373 29.3991 73.1293C29.5211 73.0843 29.6331 73.0383 29.7341 72.9913C29.7621 72.9783 29.7861 72.9653 29.8131 72.9523C30.2131 72.7563 30.4451 72.5613 30.5771 72.4023C30.6511 72.3143 30.6981 72.2363 30.7231 72.1793L30.7401 71.1223L30.7481 70.6183L30.7551 70.1413L30.7601 69.8723L30.7651 69.5193L30.7671 69.4203L30.7691 69.2973C30.7691 69.2893 30.7741 69.2833 30.7741 69.2753H30.7731C30.7731 69.2683 30.7701 69.2633 30.7691 69.2573L30.7741 68.9753H30.6401C30.6341 68.9673 30.6241 68.9603 30.6171 68.9533C30.6121 68.9483 30.6061 68.9443 30.6011 68.9393C30.4941 68.8323 30.3351 68.7303 30.1341 68.6343C30.0361 68.5873 29.9291 68.5423 29.8111 68.4973C29.5571 68.4023 29.2601 68.3143 28.9221 68.2343C28.8441 68.2163 28.7621 68.1983 28.6801 68.1803C28.4731 68.1363 28.2551 68.0953 28.0241 68.0583C27.8841 68.0343 27.7401 68.0133 27.5921 67.9933C27.4871 67.9783 27.3841 67.9633 27.2751 67.9503C27.1471 67.9343 27.0131 67.9203 26.8801 67.9073C26.8391 67.9033 26.8001 67.8983 26.7601 67.8943C26.6131 67.8793 26.4611 67.8673 26.3091 67.8553C25.6351 67.8033 24.9141 67.7733 24.1611 67.7733C20.9621 67.7733 18.2941 68.2893 17.6811 68.9753H17.5481V71.9373L17.5491 71.9393L17.5991 72.1793ZM29.5721 70.4683V70.6363V71.7053C29.4641 71.7873 29.2361 71.9233 28.8121 72.0633C28.5141 72.1623 28.1171 72.2633 27.5921 72.3503C27.5351 72.3593 27.4771 72.3683 27.4171 72.3773C27.4021 72.3803 27.3861 72.3823 27.3701 72.3843C27.2561 72.4013 27.1391 72.4173 27.0131 72.4323C26.9481 72.4403 26.8781 72.4473 26.8101 72.4553C26.6591 72.4713 26.5001 72.4863 26.3341 72.5003C25.9151 72.5343 25.4491 72.5603 24.9221 72.5733L23.8801 72.1383L19.6341 70.3693C20.8181 70.6223 22.4071 70.7783 24.1611 70.7783C24.9151 70.7783 25.6351 70.7483 26.3091 70.6953C26.4611 70.6843 26.6131 70.6723 26.7601 70.6573C26.8621 70.6473 26.9591 70.6353 27.0581 70.6253C27.1081 70.6193 27.1601 70.6143 27.2101 70.6083C27.4721 70.5773 27.7231 70.5423 27.9621 70.5043C28.2791 70.4533 28.5771 70.3973 28.8491 70.3353C28.8511 70.3353 28.8521 70.3343 28.8531 70.3343C29.0661 70.2853 29.2601 70.2323 29.4421 70.1773H29.5711V70.4683H29.5721Z" fill="#2988FF"/>
</svg>
