<svg width="96" height="96" viewBox="0 0 96 96" fill="none" xmlns="http://www.w3.org/2000/svg">
<path fill-rule="evenodd" clip-rule="evenodd" d="M78.3179 72.2768C78.2929 72.2478 78.2559 72.2198 78.2239 72.1918C78.1809 72.2198 78.1329 72.2488 78.0849 72.2768C78.0649 72.2878 78.0449 72.2998 78.0239 72.3108C77.8879 72.3878 77.7359 72.4648 77.5529 72.5408C76.5599 72.9548 74.8339 73.3288 71.8389 73.3288C70.4639 73.3288 69.3669 73.2468 68.4749 73.1218C67.8659 73.0368 67.3519 72.9308 66.9269 72.8128C66.7769 72.7708 66.6339 72.7288 66.5049 72.6838C66.3669 72.6378 66.2409 72.5898 66.1239 72.5408C66.0149 72.4958 65.9179 72.4498 65.8249 72.4038C65.7629 72.3728 65.7069 72.3418 65.6519 72.3108C65.6319 72.2998 65.6109 72.2888 65.5919 72.2768C65.5429 72.2488 65.4959 72.2208 65.4529 72.1928C65.4199 72.2208 65.3839 72.2488 65.3589 72.2768H65.2259V72.4118V72.7118V72.8618V73.3118V75.2388V75.2408L65.2759 75.4818C65.4409 75.8578 66.4029 77.0858 71.8389 77.0858C77.2739 77.0858 78.2359 75.8578 78.4009 75.4818L78.4429 72.8208L78.4469 72.5978C78.4469 72.5908 78.4509 72.5838 78.4509 72.5768C78.4509 72.5708 78.4479 72.5648 78.4469 72.5578L78.4519 72.2768H78.3179ZM77.2479 73.4788V75.0078C76.9669 75.2188 75.8989 75.7958 72.5979 75.8738L67.3079 73.6698C68.4919 73.9228 70.0829 74.0798 71.8379 74.0798C73.9979 74.0798 75.9109 73.8438 77.1169 73.4788H77.2479Z" fill="#1C3553"/>
<path fill-rule="evenodd" clip-rule="evenodd" d="M77.8499 67.5955C77.7779 67.6315 77.7009 67.6665 77.6189 67.7025C77.4479 67.7765 77.2509 67.8485 77.0309 67.9185C77.0249 67.9205 77.0179 67.9225 77.0109 67.9245C76.0349 68.2325 74.5459 68.4805 72.2959 68.5115C72.1449 68.5135 72.0039 68.5185 71.8459 68.5185H71.8389H71.8369C71.7879 68.5185 71.7469 68.5165 71.6999 68.5165C71.5749 68.5155 71.4609 68.5125 71.3399 68.5105C70.8809 68.5035 70.4489 68.4895 70.0519 68.4655C69.4579 68.4295 68.9309 68.3775 68.4639 68.3115C68.2779 68.2855 68.1019 68.2565 67.9349 68.2275C67.5609 68.1605 67.2249 68.0865 66.9339 68.0055C66.8399 67.9795 66.7519 67.9525 66.6649 67.9245C66.6589 67.9225 66.6519 67.9205 66.6449 67.9185C66.6289 67.9135 66.6109 67.9085 66.5949 67.9035C66.3949 67.8385 66.2159 67.7715 66.0569 67.7025C65.9749 67.6675 65.8979 67.6315 65.8259 67.5955C65.6299 67.6935 65.4749 67.7965 65.3739 67.9035C65.3689 67.9085 65.3619 67.9135 65.3579 67.9185H65.2249V68.0535V68.3535V68.5035V68.9545V69.1065V69.7065V70.8815V70.8835L65.2759 71.1235C65.2879 71.1525 65.3079 71.1875 65.3309 71.2245C65.3799 71.3035 65.4579 71.4005 65.5779 71.5065C65.6449 71.5655 65.7259 71.6275 65.8229 71.6915C65.8869 71.7335 65.9569 71.7755 66.0349 71.8185C66.0479 71.8255 66.0639 71.8335 66.0779 71.8405C66.1449 71.8765 66.2139 71.9115 66.2919 71.9465C66.4749 72.0295 66.6889 72.1115 66.9419 72.1885C67.0399 72.2195 67.1509 72.2485 67.2609 72.2765C67.3249 72.2935 67.3859 72.3115 67.4549 72.3275C67.7539 72.3985 68.0959 72.4635 68.4819 72.5195C68.6479 72.5435 68.8269 72.5655 69.0109 72.5855C69.4469 72.6345 69.9359 72.6715 70.4799 72.6955C70.9009 72.7145 71.3449 72.7275 71.8379 72.7275C73.9929 72.7275 75.4359 72.5335 76.4139 72.2765C76.5239 72.2485 76.6349 72.2195 76.7329 72.1885C76.9859 72.1115 77.1999 72.0295 77.3829 71.9465C77.4609 71.9115 77.5309 71.8765 77.5979 71.8405C77.6919 71.7905 77.7779 71.7405 77.8519 71.6915C78.2029 71.4595 78.3459 71.2465 78.3989 71.1235L78.4419 68.4625L78.4449 68.2405C78.4459 68.2335 78.4499 68.2265 78.4499 68.2195C78.4499 68.2125 78.4459 68.2065 78.4459 68.2005L78.4499 67.9185H78.3169C78.2169 67.8055 78.0549 67.6975 77.8499 67.5955ZM77.2479 69.1205V70.6495C77.1179 70.7475 76.8159 70.9245 76.2019 71.0935C75.9479 71.1635 75.6379 71.2325 75.2659 71.2935C75.2079 71.3035 75.1469 71.3125 75.0839 71.3215C74.4439 71.4175 73.6319 71.4905 72.5969 71.5155L72.2659 71.3765L71.8459 71.2015L71.7629 71.1675L71.5479 71.0775H71.5459L71.3939 71.0135L70.5819 70.6755L70.5549 70.6645L67.9369 69.5735L67.3069 69.3115C67.6629 69.3875 68.0559 69.4545 68.4789 69.5115C69.1359 69.5995 69.8649 69.6635 70.6429 69.6955C70.8869 69.7055 71.1359 69.7125 71.3889 69.7155C71.5309 69.7175 71.6719 69.7205 71.8169 69.7205C71.8239 69.7205 71.8309 69.7215 71.8379 69.7215H71.8449C71.9929 69.7215 72.1379 69.7185 72.2829 69.7165C74.2599 69.6865 75.9949 69.4595 77.1179 69.1205H77.2479Z" fill="#1C3553"/>
<path fill-rule="evenodd" clip-rule="evenodd" d="M72.2689 61.9117C72.1279 61.9097 71.9889 61.9067 71.8459 61.9067H71.8379C71.8229 61.9067 71.8099 61.9077 71.7949 61.9077C71.6599 61.9077 71.5279 61.9097 71.3939 61.9117C70.5279 61.9247 69.7089 61.9757 68.9659 62.0577C68.7769 62.0787 68.5929 62.1007 68.4149 62.1257C68.1819 62.1577 67.9579 62.1927 67.7459 62.2307C67.4649 62.2807 67.206 62.3367 66.965 62.3957C66.951 62.3997 66.937 62.4037 66.922 62.4067C66.453 62.5257 66.063 62.6607 65.778 62.8087C65.594 62.9047 65.451 63.0057 65.357 63.1097H65.224V63.2437V63.5447V63.6947V64.1447V64.7477V65.3477V66.0717L65.225 66.0737L65.262 66.2507L65.275 66.3127C65.315 66.4037 65.403 66.5437 65.586 66.7047H65.587C65.738 66.8367 65.953 66.9827 66.264 67.1257C66.269 67.1277 66.276 67.1307 66.281 67.1327C66.32 67.1507 66.367 67.1677 66.409 67.1867C66.489 67.2197 66.571 67.2527 66.662 67.2847C66.733 67.3107 66.808 67.3357 66.886 67.3607C67.144 67.4427 67.4449 67.5197 67.7899 67.5897C68.1389 67.6607 68.5379 67.7227 68.9889 67.7747C69.2909 67.8087 69.6089 67.8397 69.9599 67.8617C70.0759 67.8697 70.2039 67.8737 70.3259 67.8797C70.3559 67.8817 70.3869 67.8827 70.4169 67.8837C70.5589 67.8907 70.6929 67.8987 70.8419 67.9037C71.0139 67.9087 71.2029 67.9097 71.3859 67.9117C71.4109 67.9127 71.4359 67.9127 71.4609 67.9127C71.5489 67.9137 71.6309 67.9167 71.7219 67.9167C71.7619 67.9167 71.7969 67.9187 71.8379 67.9187H71.8439C71.9039 67.9187 71.9559 67.9167 72.0149 67.9167C73.7159 67.9077 74.9659 67.7767 75.8849 67.5897C76.2299 67.5197 76.5299 67.4427 76.7879 67.3607C76.8669 67.3357 76.9409 67.3107 77.0129 67.2847C77.1579 67.2327 77.2929 67.1797 77.4099 67.1257C78.0999 66.8077 78.3269 66.4787 78.3989 66.3137L78.4409 63.6537L78.4449 63.4317C78.4449 63.4237 78.4499 63.4177 78.4499 63.4097C78.4499 63.4037 78.4459 63.3977 78.4459 63.3907L78.4499 63.1097H78.3179C77.7349 62.4547 75.2749 61.9557 72.2689 61.9117ZM72.5979 66.7067L72.2699 66.5707L71.8459 66.3937L71.8009 66.3747L71.5549 66.2727L71.3919 66.2047L70.6429 65.8927L68.7719 65.1127L67.8949 64.7477L67.3069 64.5027C67.7609 64.5997 68.2739 64.6817 68.8349 64.7477C69.2369 64.7937 69.6619 64.8307 70.1059 64.8587C70.2829 64.8697 70.4609 64.8787 70.6429 64.8867C70.8869 64.8967 71.1349 64.9037 71.3869 64.9067C71.5319 64.9087 71.6769 64.9117 71.8239 64.9117C71.8289 64.9117 71.8339 64.9127 71.8379 64.9127H71.8459C71.9949 64.9127 72.1409 64.9087 72.2879 64.9077C74.2619 64.8767 75.9949 64.6507 77.1169 64.3127H77.2479V65.8397C77.0559 65.9837 76.4909 66.3007 75.0939 66.5117C74.4529 66.6077 73.6369 66.6817 72.5979 66.7067Z" fill="#1C3553"/>
<path fill-rule="evenodd" clip-rule="evenodd" d="M63.2244 69.6351C63.7184 69.6711 64.2384 69.6931 64.7744 69.7011V69.1061V68.9471C64.2194 68.9391 63.6974 68.9221 63.2324 68.8901L63.2294 69.1061L63.2244 69.6351Z" fill="#1C3553"/>
<path fill-rule="evenodd" clip-rule="evenodd" d="M65.2727 72.0676C64.9547 71.8226 64.8427 71.6116 64.8057 71.5176L64.8027 71.5046L64.7737 71.3526V70.9926L63.2167 70.3436L63.2057 71.4406L63.2047 71.5026C63.1687 71.5966 63.0557 71.8056 62.7407 72.0496C62.6497 72.1206 62.5367 72.1936 62.4077 72.2686C62.2687 72.3496 62.1107 72.4306 61.9207 72.5116C62.6787 72.6196 63.6247 72.6896 64.7737 72.7056V72.4056V72.3706H64.9747C65.0467 72.2646 65.1587 72.1696 65.2657 72.0746C65.2687 72.0726 65.2707 72.0696 65.2727 72.0676Z" fill="#1C3553"/>
<path fill-rule="evenodd" clip-rule="evenodd" d="M63.2244 65.2771C63.7184 65.3131 64.2384 65.3351 64.7744 65.3431V64.7481V64.1381C64.2204 64.1311 63.7004 64.1141 63.2364 64.0821V64.0891L63.2294 64.7481L63.2244 65.2771Z" fill="#1C3553"/>
<path fill-rule="evenodd" clip-rule="evenodd" d="M64.7742 68.0473V68.0123H64.9752C65.0022 67.9733 65.0512 67.9413 65.0822 67.9033C65.1362 67.8393 65.1982 67.7763 65.2662 67.7163C65.3632 67.6293 65.4712 67.5483 65.5942 67.4693C65.4062 67.3603 65.2602 67.2523 65.1492 67.1533C65.1482 67.1523 65.1462 67.1513 65.1452 67.1503C64.9262 66.9533 64.8372 66.7893 64.8062 66.7083L64.8052 66.7063V66.7053L64.7932 66.6423L63.9502 66.2913L63.2172 65.9853L63.2132 66.3443L63.2092 66.7723V66.7923L63.2062 67.0813L63.2052 67.1433C63.1942 67.1713 63.1732 67.2123 63.1462 67.2583C63.0812 67.3673 62.9632 67.5193 62.7412 67.6903C62.7402 67.6913 62.7392 67.6923 62.7382 67.6933C62.6862 67.7333 62.6242 67.7753 62.5592 67.8183C62.5162 67.8463 62.4682 67.8743 62.4192 67.9023C62.4162 67.9043 62.4122 67.9073 62.4082 67.9093C62.3932 67.9183 62.3762 67.9273 62.3602 67.9363C62.2322 68.0083 62.0902 68.0803 61.9212 68.1523C62.1502 68.1853 62.3952 68.2143 62.6562 68.2393C62.6942 68.2433 62.7382 68.2453 62.7762 68.2493C62.7782 68.2493 62.7802 68.2503 62.7812 68.2503C62.9252 68.2633 63.0742 68.2753 63.2272 68.2853C63.6932 68.3183 64.2102 68.3383 64.7752 68.3463V68.0473H64.7742Z" fill="#1C3553"/>
<path fill-rule="evenodd" clip-rule="evenodd" d="M70.6019 61.4948C70.8669 61.4798 71.1289 61.4728 71.3919 61.4678C71.5279 61.4648 71.6659 61.4578 71.8019 61.4578L71.8359 59.2798L71.8389 59.0598C71.8399 59.0518 71.8449 59.0438 71.8449 59.0368C71.8449 59.0298 71.8409 59.0228 71.8399 59.0158L71.8439 58.7358H71.7119C71.6109 58.6228 71.4489 58.5148 71.2439 58.4128C71.1719 58.4488 71.0949 58.4848 71.0129 58.5198C70.8419 58.5938 70.6459 58.6658 70.4269 58.7358C70.4199 58.7378 70.4119 58.7398 70.4049 58.7418C69.3619 59.0718 67.7489 59.3368 65.232 59.3368C64.491 59.3368 63.829 59.3138 63.236 59.2728V59.2808L63.229 59.9388L63.224 60.4678C63.858 60.5138 64.532 60.5388 65.232 60.5388C67.3939 60.5388 69.3069 60.3028 70.5129 59.9378H70.6419V61.4658C70.6309 61.4748 70.6159 61.4848 70.6019 61.4948Z" fill="#1C3553"/>
<path fill-rule="evenodd" clip-rule="evenodd" d="M65.3742 62.7972C65.5732 62.6432 65.8242 62.5062 66.1052 62.3802C66.1192 62.3742 66.1352 62.3682 66.1492 62.3622C66.1522 62.3612 66.1552 62.3602 66.1582 62.3582C66.1852 62.3462 66.2162 62.3362 66.2442 62.3252C66.1602 62.3272 66.0802 62.3312 65.9932 62.3332L64.9512 61.8992L63.2172 61.1762L63.2082 61.9862L63.2052 62.2732V62.3352C63.1962 62.3572 63.1822 62.3852 63.1652 62.4182C63.1612 62.4252 63.1552 62.4332 63.1512 62.4402C63.0872 62.5502 62.9682 62.7052 62.7413 62.8822C62.7133 62.9032 62.6783 62.9252 62.6473 62.9482C62.5793 62.9962 62.5023 63.0452 62.4163 63.0962C62.4143 63.0972 62.4103 63.0992 62.4073 63.1012C62.3383 63.1412 62.2663 63.1812 62.1853 63.2212C62.1133 63.2572 62.0363 63.2922 61.9543 63.3282C61.9423 63.3332 61.9323 63.3392 61.9203 63.3442C61.9473 63.3482 61.9783 63.3512 62.0053 63.3552C62.1653 63.3762 62.3333 63.3962 62.5083 63.4152C62.6173 63.4272 62.7333 63.4372 62.8483 63.4472C63.4102 63.4972 64.0512 63.5282 64.7732 63.5382V63.2382V63.2022H64.9752C65.0472 63.0962 65.1582 63.0022 65.2662 62.9062C65.3062 62.8712 65.3302 62.8312 65.3742 62.7972Z" fill="#1C3553"/>
<path fill-rule="evenodd" clip-rule="evenodd" d="M71.8402 54.2067L71.8442 53.9267H71.7122C71.6112 53.8137 71.4492 53.7057 71.2442 53.6037C71.1722 53.6397 71.0952 53.6747 71.0132 53.7107C70.8422 53.7847 70.6442 53.8567 70.4242 53.9267C70.4182 53.9287 70.4112 53.9307 70.4052 53.9327C69.3622 54.2617 67.7492 54.5267 65.2322 54.5267C64.4912 54.5267 63.8302 54.5037 63.2362 54.4627V54.4697L63.2292 55.1287L63.2242 55.6587C63.8582 55.7047 64.5322 55.7297 65.2322 55.7297C67.3932 55.7297 69.3052 55.4937 70.5122 55.1287H70.6422V56.6567C70.4502 56.8017 69.8842 57.1177 68.4892 57.3277C67.8472 57.4247 67.0312 57.4987 65.9922 57.5237L64.9492 57.0887L63.2172 56.3667L63.2082 57.1767L63.2052 57.4627V57.5247C63.1962 57.5467 63.1822 57.5757 63.1642 57.6087C63.1612 57.6157 63.1552 57.6237 63.1512 57.6307C63.0872 57.7407 62.9682 57.8957 62.7402 58.0727C62.7132 58.0937 62.6782 58.1157 62.6482 58.1377C62.5792 58.1867 62.5022 58.2357 62.4162 58.2857C62.4132 58.2877 62.4102 58.2897 62.4062 58.2917C62.3372 58.3317 62.2662 58.3717 62.1852 58.4117C62.1132 58.4477 62.0362 58.4827 61.9542 58.5187C61.9422 58.5237 61.9332 58.5287 61.9212 58.5337C61.9472 58.5377 61.9782 58.5407 62.0052 58.5447C62.1642 58.5667 62.3332 58.5867 62.5082 58.6047C62.6172 58.6167 62.7322 58.6267 62.8482 58.6367C63.5292 58.6967 64.3122 58.7347 65.2322 58.7347C67.0282 58.7347 68.3282 58.5997 69.2802 58.4057C69.6242 58.3357 69.9252 58.2587 70.1832 58.1767C70.2612 58.1517 70.3362 58.1267 70.4072 58.1007C70.5522 58.0487 70.6872 57.9957 70.8052 57.9417C71.4952 57.6237 71.7212 57.2947 71.7932 57.1287L71.8352 54.4697L71.8392 54.2497C71.8392 54.2417 71.8442 54.2337 71.8442 54.2257C71.8452 54.2207 71.8402 54.2137 71.8402 54.2067Z" fill="#1C3553"/>
<path fill-rule="evenodd" clip-rule="evenodd" d="M71.8402 49.3978L71.8442 49.1188H71.7122C71.6112 49.0048 71.4502 48.8978 71.2442 48.7948C71.1722 48.8308 71.0952 48.8668 71.0132 48.9018C70.8422 48.9758 70.6442 49.0478 70.4242 49.1188C70.4182 49.1208 70.4112 49.1228 70.4052 49.1238C69.3622 49.4538 67.7492 49.7188 65.2322 49.7188C64.4912 49.7188 63.8292 49.6948 63.2352 49.6548L63.2362 49.6618L63.2292 50.3208L63.2242 50.8498C63.8572 50.8958 64.5312 50.9208 65.2322 50.9208C67.3922 50.9208 69.3042 50.6848 70.5102 50.3208H70.6422V51.8478C70.4502 51.9928 69.8852 52.3098 68.4882 52.5198C67.8462 52.6168 67.0312 52.6908 65.9922 52.7148L64.9502 52.2808L63.2172 51.5588L63.2082 52.3688L63.2052 52.6558V52.7178C63.1962 52.7388 63.1822 52.7678 63.1642 52.8008C63.1612 52.8078 63.1552 52.8158 63.1512 52.8228C63.0872 52.9328 62.9682 53.0878 62.7403 53.2648C62.7133 53.2858 62.6783 53.3088 62.6473 53.3308C62.5793 53.3788 62.5023 53.4278 62.4173 53.4778C62.4143 53.4798 62.4113 53.4818 62.4083 53.4828C62.3383 53.5228 62.2663 53.5638 62.1853 53.6038C62.1133 53.6398 62.0363 53.6748 61.9543 53.7108C61.9423 53.7158 61.9323 53.7208 61.9203 53.7268C61.9473 53.7308 61.9773 53.7338 62.0053 53.7368C62.1643 53.7588 62.3333 53.7788 62.5083 53.7978C62.6173 53.8088 62.7333 53.8188 62.8483 53.8288C63.5302 53.8898 64.3122 53.9268 65.2322 53.9268C67.0282 53.9268 68.3272 53.7918 69.2792 53.5978C69.6242 53.5278 69.9242 53.4508 70.1822 53.3688C70.2612 53.3438 70.3352 53.3188 70.4062 53.2928C70.5512 53.2408 70.6862 53.1878 70.8032 53.1338C71.4942 52.8158 71.7212 52.4868 71.7932 52.3208L71.8352 49.6618L71.8382 49.4418C71.8392 49.4338 71.8442 49.4258 71.8442 49.4188C71.8452 49.4108 71.8402 49.4048 71.8402 49.3978Z" fill="#1C3553"/>
<path fill-rule="evenodd" clip-rule="evenodd" d="M71.8402 44.5886L71.8442 44.3086H71.7122C71.6112 44.1956 71.4492 44.0876 71.2432 43.9856C71.1712 44.0216 71.0942 44.0566 71.0122 44.0926C70.8412 44.1666 70.6442 44.2386 70.4242 44.3086C70.4182 44.3106 70.4112 44.3126 70.4042 44.3146C69.3612 44.6436 67.7492 44.9086 65.2322 44.9086C64.4912 44.9086 63.8302 44.8856 63.2362 44.8446V44.8526L63.2302 45.5106L63.2242 46.0406C63.8582 46.0866 64.5322 46.1116 65.2322 46.1116C67.3942 46.1116 69.3072 45.8756 70.5132 45.5106H70.6432V47.0386C70.4502 47.1836 69.8852 47.5006 68.4882 47.7106C67.8472 47.8076 67.0322 47.8816 65.9932 47.9066L64.9512 47.4716L63.2172 46.7496L63.2092 47.5596L63.2062 47.8466L63.2052 47.9086C63.1972 47.9296 63.1832 47.9586 63.1652 47.9906C63.1622 47.9976 63.1562 48.0066 63.1522 48.0136C63.0882 48.1226 62.9693 48.2786 62.7413 48.4546C62.7143 48.4766 62.6793 48.4986 62.6483 48.5206C62.5803 48.5696 62.5033 48.6186 62.4173 48.6686C62.4143 48.6706 62.4113 48.6716 62.4083 48.6736C62.3393 48.7136 62.2673 48.7536 62.1853 48.7936C62.1133 48.8296 62.0363 48.8656 61.9543 48.9006C61.9423 48.9066 61.9333 48.9116 61.9203 48.9166C61.9483 48.9206 61.9783 48.9236 62.0063 48.9276C62.1653 48.9496 62.3343 48.9696 62.5093 48.9876C62.6173 48.9996 62.7333 49.0096 62.8483 49.0196C63.5302 49.0796 64.3122 49.1176 65.2322 49.1176C67.0282 49.1176 68.3282 48.9816 69.2802 48.7886C69.6252 48.7186 69.9252 48.6416 70.1832 48.5596C70.2622 48.5346 70.3362 48.5096 70.4072 48.4836C70.5522 48.4316 70.6872 48.3776 70.8042 48.3246C71.4952 48.0066 71.7212 47.6766 71.7942 47.5116L71.8362 44.8516L71.8392 44.6316C71.8402 44.6236 71.8442 44.6156 71.8442 44.6086C71.8452 44.6026 71.8402 44.5956 71.8402 44.5886Z" fill="#1C3553"/>
<path fill-rule="evenodd" clip-rule="evenodd" d="M71.8402 39.7795L71.8442 39.4995H71.7122C71.6112 39.3865 71.4492 39.2785 71.2442 39.1765C71.1722 39.2125 71.0952 39.2475 71.0132 39.2835C70.8422 39.3575 70.6442 39.4295 70.4242 39.4995C70.4182 39.5015 70.4112 39.5035 70.4052 39.5055C69.3622 39.8355 67.7492 40.0995 65.2322 40.0995C64.4912 40.0995 63.8302 40.0765 63.2362 40.0355V40.0435L63.2292 40.7025L63.2242 41.2315C63.8582 41.2775 64.5322 41.3025 65.2322 41.3025C67.3932 41.3025 69.3052 41.0655 70.5122 40.7025H70.6422V42.2305C70.4502 42.3755 69.8842 42.6915 68.4892 42.9015C67.8472 42.9975 67.0312 43.0725 65.9922 43.0965L64.9502 42.6625L63.2172 41.9405L63.2092 42.7495L63.2062 43.0365L63.2052 43.0985C63.1962 43.1205 63.1822 43.1495 63.1652 43.1815C63.1612 43.1885 63.1552 43.1975 63.1512 43.2045C63.0872 43.3135 62.9682 43.4695 62.7413 43.6455C62.7133 43.6675 62.6783 43.6895 62.6483 43.7115C62.5793 43.7605 62.5023 43.8095 62.4173 43.8595C62.4143 43.8615 62.4113 43.8625 62.4083 43.8645C62.3393 43.9045 62.2663 43.9445 62.1853 43.9855C62.1133 44.0215 62.0363 44.0565 61.9543 44.0915C61.9423 44.0975 61.9323 44.1025 61.9203 44.1075C61.9473 44.1115 61.9773 44.1145 62.0053 44.1185C62.1643 44.1405 62.3333 44.1605 62.5083 44.1785C62.6173 44.1905 62.7323 44.2005 62.8473 44.2105C63.5292 44.2715 64.3122 44.3085 65.2322 44.3085C67.0282 44.3085 68.3282 44.1735 69.2802 43.9795C69.6242 43.9095 69.9252 43.8335 70.1832 43.7505C70.2612 43.7265 70.3362 43.7005 70.4072 43.6755C70.5522 43.6225 70.6872 43.5695 70.8052 43.5155C71.4952 43.1985 71.7212 42.8685 71.7932 42.7035L71.8352 40.0435L71.8392 39.8235C71.8392 39.8155 71.8442 39.8075 71.8442 39.7995C71.8452 39.7925 71.8402 39.7865 71.8402 39.7795Z" fill="#1C3553"/>
<path fill-rule="evenodd" clip-rule="evenodd" d="M62.4177 34.2422C62.6327 34.3802 62.8117 34.5282 62.9437 34.6902C62.9707 34.7232 63.0137 34.7512 63.0367 34.7842H63.2097L63.2367 35.2352L63.2307 35.8932L63.2247 36.4232C63.8587 36.4692 64.5327 36.4942 65.2327 36.4942C67.3947 36.4942 69.3087 36.2572 70.5147 35.8932H70.6427V37.4212C70.4507 37.5662 69.8857 37.8822 68.4887 38.0932C67.8477 38.1902 67.0317 38.2642 65.9937 38.2882L64.9507 37.8542L63.2177 37.1312L63.2097 37.9412L63.2057 38.2282V38.2902C63.1967 38.3122 63.1837 38.3402 63.1657 38.3732C63.1617 38.3802 63.1567 38.3882 63.1517 38.3952C63.0887 38.5052 62.9697 38.6602 62.7417 38.8372C62.7137 38.8582 62.6797 38.8802 62.6487 38.9032C62.5797 38.9512 62.5027 39.0002 62.4177 39.0502C62.4147 39.0522 62.4117 39.0532 62.4087 39.0552C62.3397 39.0952 62.2677 39.1352 62.1857 39.1762C62.1137 39.2122 62.0367 39.2472 61.9547 39.2832C61.9427 39.2882 61.9337 39.2932 61.9217 39.2982C61.9487 39.3032 61.9787 39.3052 62.0067 39.3102C62.1657 39.3312 62.3347 39.3512 62.5097 39.3702C62.6187 39.3822 62.7337 39.3922 62.8487 39.4022C63.5307 39.4622 64.3127 39.4992 65.2327 39.4992C67.0287 39.4992 68.3287 39.3642 69.2797 39.1712C69.6247 39.1012 69.9257 39.0232 70.1837 38.9412C70.2617 38.9162 70.3367 38.8912 70.4077 38.8652C70.5527 38.8132 70.6877 38.7602 70.8047 38.7062C71.4957 38.3882 71.7217 38.0582 71.7947 37.8932L71.8367 35.2342L71.8397 35.0142C71.8407 35.0062 71.8447 34.9992 71.8447 34.9912C71.8447 34.9842 71.8407 34.9772 71.8407 34.9702L71.8447 34.6902H71.7117C71.0987 34.0042 68.4317 33.4882 65.2317 33.4882C64.5097 33.4882 63.8157 33.5152 63.1647 33.5642C63.1617 33.5712 63.1557 33.5802 63.1517 33.5872C63.0797 33.7102 62.9327 33.8922 62.6477 34.0942C62.5807 34.1432 62.5037 34.1922 62.4177 34.2422Z" fill="#1C3553"/>
<path fill-rule="evenodd" clip-rule="evenodd" d="M55.5562 38.7661C55.6632 38.8351 55.7632 38.9061 55.8502 38.9821C55.9302 39.0511 56.0002 39.1231 56.0622 39.1981C56.0922 39.2341 56.1402 39.2661 56.1662 39.3041H56.3392L56.3512 39.4971C57.1932 39.4931 57.9242 39.4591 58.5602 39.4021C58.6752 39.3921 58.7902 39.3821 58.8992 39.3701C59.0732 39.3511 59.2422 39.3321 59.4022 39.3101C59.4292 39.3061 59.4592 39.3031 59.4862 39.2991C59.7552 39.2601 59.9952 39.2171 60.2222 39.1711C60.2802 39.1591 60.3362 39.1471 60.3922 39.1341C60.5002 39.1111 60.6052 39.0861 60.7042 39.0611C60.8552 39.0231 60.9962 38.9831 61.1252 38.9411C61.1822 38.9231 61.2352 38.9051 61.2882 38.8861C61.3082 38.8791 61.3302 38.8731 61.3502 38.8651C61.4912 38.8151 61.6212 38.7631 61.7352 38.7111C61.7392 38.7091 61.7442 38.7081 61.7472 38.7061C61.8752 38.6471 61.9842 38.5881 62.0822 38.5291C62.1162 38.5081 62.1502 38.4881 62.1812 38.4671C62.3432 38.3611 62.4632 38.2591 62.5482 38.1671C62.6042 38.1061 62.6452 38.0511 62.6762 38.0011C62.7022 37.9611 62.7232 37.9241 62.7362 37.8931L62.7512 36.9371L62.7602 36.3841L62.7682 35.8921L62.7782 35.2341L62.7812 35.0151C62.7822 35.0071 62.7872 34.9991 62.7872 34.9901C62.7872 34.9831 62.7822 34.9761 62.7822 34.9691L62.7862 34.6901H62.6542C62.5532 34.5771 62.3912 34.4701 62.1862 34.3681C62.1142 34.4031 62.0372 34.4391 61.9552 34.4741C61.7852 34.5481 61.5892 34.6201 61.3702 34.6901C61.3622 34.6921 61.3542 34.6951 61.3472 34.6971C60.8202 34.8631 60.1432 35.0121 59.2792 35.1191C59.0892 35.1431 58.8882 35.1631 58.6802 35.1831C58.6772 35.1831 58.6742 35.1831 58.6712 35.1831C58.6552 35.1851 58.6372 35.1871 58.6202 35.1881C58.4712 35.2011 58.3292 35.2161 58.1702 35.2271C57.6292 35.2641 57.0242 35.2841 56.3622 35.2881L56.3552 35.8921L56.3492 36.4911C56.9822 36.4881 57.5932 36.4651 58.1702 36.4231C58.3232 36.4121 58.4722 36.3991 58.6202 36.3861C58.7232 36.3771 58.8242 36.3671 58.9242 36.3561C58.9742 36.3511 59.0222 36.3451 59.0702 36.3401C59.3302 36.3111 59.5832 36.2801 59.8222 36.2431C60.1372 36.1961 60.4292 36.1421 60.7032 36.0841C60.9772 36.0251 61.2282 35.9611 61.4552 35.8921H61.5842V36.2431V36.4511V37.4211C61.4652 37.5101 61.2012 37.6651 60.6912 37.8211C60.3782 37.9161 59.9702 38.0111 59.4412 38.0911C59.4382 38.0921 59.4332 38.0921 59.4302 38.0931C59.3602 38.1031 59.2872 38.1131 59.2132 38.1231C59.1012 38.1381 58.9812 38.1521 58.8592 38.1661C58.7922 38.1731 58.7272 38.1811 58.6572 38.1881C58.5092 38.2031 58.3522 38.2161 58.1902 38.2281C57.8122 38.2561 57.3962 38.2771 56.9352 38.2881L56.3202 38.0321C56.2922 38.0931 56.2392 38.1841 56.1402 38.2961L56.1392 38.2971C56.0202 38.4321 55.8312 38.5931 55.5462 38.7601C55.5502 38.7621 55.5532 38.7641 55.5562 38.7661Z" fill="#1C3553"/>
<path fill-rule="evenodd" clip-rule="evenodd" d="M59.4302 33.284C58.7892 33.381 57.9742 33.455 56.9362 33.479L56.3202 33.222C56.2922 33.284 56.2392 33.375 56.1402 33.488H56.1392C56.0212 33.623 55.8322 33.784 55.5462 33.951C55.5492 33.953 55.5532 33.955 55.5562 33.957C55.6632 34.026 55.7622 34.097 55.8492 34.172C55.9302 34.241 56.0002 34.314 56.0622 34.389C56.0922 34.425 56.1392 34.456 56.1652 34.493H56.3382L56.3502 34.688C57.1922 34.684 57.9232 34.649 58.5592 34.593C58.6732 34.583 58.7882 34.573 58.8972 34.561C59.0722 34.542 59.2412 34.522 59.4002 34.501C59.7012 34.459 59.9712 34.412 60.2212 34.362C60.5662 34.292 60.8672 34.214 61.1252 34.133C61.2032 34.107 61.2782 34.082 61.3492 34.057C61.4942 34.004 61.6292 33.951 61.7462 33.898C61.8752 33.838 61.9832 33.779 62.0822 33.72C62.1162 33.699 62.1492 33.679 62.1802 33.658C62.4492 33.482 62.5972 33.317 62.6752 33.193C62.7012 33.153 62.7222 33.115 62.7352 33.085L62.7772 30.425L62.7802 30.206C62.7812 30.198 62.7862 30.19 62.7862 30.181C62.7862 30.174 62.7812 30.167 62.7812 30.16L62.7852 29.881H62.6532C62.5522 29.768 62.3902 29.66 62.1852 29.558C62.1132 29.594 62.0362 29.629 61.9542 29.665C61.7832 29.739 61.5852 29.811 61.3662 29.881C61.3592 29.883 61.3522 29.885 61.3462 29.887C60.3302 30.208 58.7662 30.465 56.3612 30.478L56.3552 31.083L56.3492 31.682C58.4372 31.67 60.2802 31.438 61.4542 31.083H61.5832V32.612C61.3922 32.757 60.8272 33.074 59.4302 33.284Z" fill="#1C3553"/>
<path fill-rule="evenodd" clip-rule="evenodd" d="M49.8619 27.9514C49.9119 27.9524 49.9619 27.9534 50.0129 27.9554C50.3819 27.9674 50.7509 27.9874 51.1189 28.0174C51.9889 28.0884 52.8349 28.2084 53.5879 28.3874C53.8909 28.4594 54.1789 28.5394 54.4459 28.6294C54.5279 28.6564 54.5969 28.6904 54.6759 28.7194C54.6839 28.7224 54.6919 28.7264 54.6999 28.7284C55.0269 28.8534 55.3139 28.9924 55.5559 29.1484C55.6629 29.2174 55.7619 29.2884 55.8499 29.3634C55.9299 29.4324 55.9999 29.5054 56.0619 29.5794C56.0919 29.6164 56.1389 29.6474 56.1649 29.6854H56.3379L56.3499 29.8794C58.0519 29.8704 59.3029 29.7394 60.2209 29.5534C60.5659 29.4834 60.8669 29.4064 61.1239 29.3244C61.2029 29.2994 61.2769 29.2734 61.3489 29.2484C61.4939 29.1954 61.6289 29.1424 61.7459 29.0884C62.4369 28.7704 62.6639 28.4404 62.7359 28.2754L62.7779 25.6174L62.7809 25.3984C62.7819 25.3904 62.7869 25.3824 62.7869 25.3734C62.7869 25.3664 62.7819 25.3594 62.7819 25.3524L62.7859 25.0734H62.6539C62.5539 24.9604 62.3919 24.8524 62.1859 24.7504C62.1139 24.7864 62.0369 24.8214 61.9549 24.8574C61.7839 24.9314 61.5869 25.0034 61.3659 25.0734C61.3599 25.0754 61.3529 25.0774 61.3469 25.0794C60.3039 25.4094 58.6909 25.6744 56.1739 25.6744C53.6569 25.6744 52.0449 25.4094 51.0019 25.0804C50.9959 25.0784 50.9889 25.0764 50.9819 25.0744C50.7619 25.0044 50.5649 24.9314 50.3939 24.8574C50.3119 24.8224 50.2349 24.7864 50.1629 24.7514C49.9569 24.8534 49.7959 24.9614 49.6949 25.0744H49.5619V27.9464C49.6619 27.9454 49.7619 27.9494 49.8619 27.9514ZM51.6449 26.4654C52.8279 26.7194 54.4189 26.8754 56.1749 26.8754C58.3349 26.8754 60.2469 26.6394 61.4539 26.2754H61.5839V27.8024C61.3919 27.9474 60.8269 28.2644 59.4299 28.4744C58.7889 28.5714 57.9729 28.6454 56.9339 28.6694L55.8919 28.2354L51.6449 26.4654Z" fill="#1C3553"/>
<path fill-rule="evenodd" clip-rule="evenodd" d="M49.6129 23.4675C49.6849 23.6325 49.9119 23.9625 50.6019 24.2795C50.7189 24.3335 50.8539 24.3865 50.9989 24.4395C51.0709 24.4645 51.1449 24.4905 51.2239 24.5155C51.4819 24.5975 51.7819 24.6745 52.1269 24.7445C53.0789 24.9375 54.3789 25.0725 56.1749 25.0725C57.9709 25.0725 59.2709 24.9375 60.2219 24.7445C60.5669 24.6745 60.8679 24.5965 61.1259 24.5145C61.2039 24.4895 61.2789 24.4645 61.3499 24.4385C61.4949 24.3865 61.6299 24.3335 61.7469 24.2795C62.4379 23.9615 62.6639 23.6315 62.7359 23.4665L62.7779 20.8075L62.7819 20.5885C62.7819 20.5805 62.7869 20.5725 62.7869 20.5645C62.7869 20.5565 62.7829 20.5495 62.7819 20.5425L62.7869 20.2635H62.6539C62.0409 19.5775 59.3739 19.0615 56.1739 19.0615C52.9749 19.0615 50.3069 19.5775 49.6949 20.2635H49.5619V23.2255V23.2265L49.6129 23.4675ZM56.9349 23.8615L55.8929 23.4265L51.6449 21.6565C52.8289 21.9105 54.4199 22.0665 56.1749 22.0665C58.3369 22.0665 60.2499 21.8305 61.4559 21.4655H61.5849V22.9935C61.3929 23.1385 60.8279 23.4555 59.4309 23.6665C58.7889 23.7625 57.9739 23.8365 56.9349 23.8615Z" fill="#1C3553"/>
<path fill-rule="evenodd" clip-rule="evenodd" d="M55.8492 67.8355C55.8742 67.8575 55.8922 67.8815 55.9162 67.9035C55.9672 67.9515 56.0192 68.0005 56.0612 68.0515C56.0912 68.0885 56.1392 68.1195 56.1652 68.1575H56.3382L56.3502 68.3515C57.0252 68.3475 57.6292 68.3255 58.1702 68.2875C58.3252 68.2765 58.4752 68.2645 58.6202 68.2515C58.6242 68.2505 58.6272 68.2505 58.6312 68.2505C58.6692 68.2465 58.7132 68.2445 58.7512 68.2405C59.0122 68.2145 59.2572 68.1855 59.4862 68.1535C59.5112 68.1495 59.5322 68.1455 59.5572 68.1415C59.8652 68.0955 60.1392 68.0445 60.3912 67.9885C60.4992 67.9645 60.6052 67.9405 60.7032 67.9155C60.7192 67.9115 60.7332 67.9075 60.7482 67.9035C60.8592 67.8745 60.9702 67.8455 61.0692 67.8155C61.1472 67.7915 61.2172 67.7655 61.2882 67.7405C61.4462 67.6855 61.5932 67.6295 61.7192 67.5725C61.7242 67.5695 61.7302 67.5675 61.7352 67.5655C61.8072 67.5325 61.8702 67.4995 61.9332 67.4655C61.9742 67.4445 62.0162 67.4225 62.0532 67.4015C62.1012 67.3725 62.1452 67.3445 62.1872 67.3175C62.3462 67.2125 62.4632 67.1115 62.5472 67.0205C62.6062 66.9575 62.6482 66.8995 62.6802 66.8495C62.6872 66.8375 62.6952 66.8255 62.7012 66.8155C62.7152 66.7905 62.7272 66.7675 62.7362 66.7475L62.7422 66.3975L62.7512 65.7915L62.7602 65.2385L62.7682 64.7475L62.7782 64.0885L62.7792 64.0415C62.7642 64.0405 62.7502 64.0395 62.7362 64.0385C62.7332 64.0375 62.7302 64.0375 62.7272 64.0375C62.5192 64.0185 62.3182 63.9975 62.1292 63.9735C61.5812 63.9055 61.1102 63.8215 60.7042 63.7255C60.2982 63.8215 59.8262 63.9055 59.2792 63.9735C59.0892 63.9975 58.8892 64.0175 58.6802 64.0375C58.6782 64.0375 58.6752 64.0385 58.6722 64.0385C58.6552 64.0395 58.6382 64.0415 58.6212 64.0425C58.4722 64.0565 58.3292 64.0705 58.1702 64.0815C57.6302 64.1195 57.0242 64.1395 56.3622 64.1425L56.3562 64.7475L56.3502 65.3465C56.9822 65.3425 57.5942 65.3195 58.1702 65.2785C58.3232 65.2675 58.4722 65.2545 58.6202 65.2405C58.7232 65.2315 58.8242 65.2215 58.9252 65.2115C58.9742 65.2065 59.0222 65.2005 59.0712 65.1955C59.3312 65.1665 59.5842 65.1345 59.8232 65.0985C60.1372 65.0515 60.4302 64.9975 60.7032 64.9385C60.9772 64.8805 61.2272 64.8165 61.4532 64.7485H61.5842V65.0995V65.3065V66.2755C61.4652 66.3655 61.2022 66.5205 60.6922 66.6755C60.6422 66.6915 60.5922 66.7065 60.5362 66.7215C60.2832 66.7915 59.9732 66.8595 59.6022 66.9205C59.5502 66.9295 59.4972 66.9375 59.4422 66.9465C59.4352 66.9475 59.4282 66.9485 59.4212 66.9495C59.3542 66.9595 59.2842 66.9685 59.2142 66.9785C59.1012 66.9935 58.9822 67.0075 58.8592 67.0215C58.7922 67.0285 58.7282 67.0365 58.6572 67.0435C58.5092 67.0585 58.3522 67.0715 58.1902 67.0835C57.8122 67.1115 57.3962 67.1315 56.9352 67.1435L56.3202 66.8865C56.2922 66.9485 56.2392 67.0395 56.1402 67.1525L56.1392 67.1535C56.0202 67.2875 55.8322 67.4485 55.5472 67.6155C55.6572 67.6855 55.7592 67.7585 55.8492 67.8355Z" fill="#2988FF"/>
<path fill-rule="evenodd" clip-rule="evenodd" d="M55.5563 62.8115C55.6633 62.8805 55.7623 62.9515 55.8493 63.0265C55.9303 63.0955 56.0003 63.1685 56.0623 63.2435C56.0923 63.2795 56.1393 63.3105 56.1653 63.3475H56.3383L56.3503 63.5425C57.1923 63.5385 57.9233 63.5035 58.5593 63.4475C58.6733 63.4365 58.7893 63.4275 58.8973 63.4155C59.0723 63.3965 59.2413 63.3765 59.4003 63.3555C59.4283 63.3515 59.4583 63.3475 59.4863 63.3445C59.7543 63.3055 59.9953 63.2625 60.2213 63.2155C60.2803 63.2035 60.3363 63.1915 60.3923 63.1795C60.4993 63.1555 60.6053 63.1315 60.7033 63.1065C60.8543 63.0675 60.9953 63.0275 61.1253 62.9865C61.1823 62.9685 61.2343 62.9505 61.2873 62.9315C61.3073 62.9245 61.3293 62.9175 61.3493 62.9105C61.4903 62.8595 61.6213 62.8085 61.7353 62.7555C61.7393 62.7545 61.7433 62.7525 61.7463 62.7515C61.8753 62.6915 61.9843 62.6325 62.0823 62.5735C62.1173 62.5525 62.1503 62.5325 62.1813 62.5125C62.3433 62.4055 62.4633 62.3035 62.5473 62.2115C62.6043 62.1505 62.6453 62.0955 62.6763 62.0465C62.7013 62.0065 62.7223 61.9685 62.7363 61.9385L62.7513 60.9815L62.7603 60.4285L62.7673 59.9375L62.7783 59.2795V59.2325C62.7643 59.2305 62.7503 59.2295 62.7353 59.2285C62.7323 59.2275 62.7293 59.2275 62.7263 59.2275C62.5193 59.2085 62.3183 59.1875 62.1293 59.1635C61.5813 59.0955 61.1093 59.0115 60.7033 58.9155C60.2973 59.0115 59.8263 59.0955 59.2783 59.1635C59.0893 59.1875 58.8883 59.2075 58.6803 59.2275C58.6773 59.2275 58.6743 59.2275 58.6713 59.2275C58.6543 59.2295 58.6373 59.2305 58.6203 59.2325C58.4713 59.2455 58.3293 59.2605 58.1703 59.2715C57.6293 59.3085 57.0243 59.3285 56.3623 59.3325L56.3553 59.9365L56.3493 60.5355C56.9823 60.5325 57.5933 60.5095 58.1703 60.4675C58.3233 60.4565 58.4723 60.4435 58.6203 60.4305C58.7233 60.4215 58.8243 60.4115 58.9243 60.4005C58.9733 60.3955 59.0213 60.3895 59.0703 60.3845C59.3303 60.3555 59.5833 60.3235 59.8223 60.2875C60.1373 60.2405 60.4293 60.1865 60.7033 60.1275C60.9773 60.0695 61.2283 60.0055 61.4553 59.9365H61.5833V60.2875V60.4955V61.4655C61.4653 61.5545 61.2013 61.7095 60.6913 61.8655C60.3773 61.9605 59.9703 62.0555 59.4413 62.1355C59.4373 62.1365 59.4333 62.1365 59.4293 62.1375C59.3593 62.1475 59.2873 62.1585 59.2133 62.1675C59.1003 62.1835 58.9813 62.1965 58.8583 62.2105C58.7913 62.2185 58.7273 62.2265 58.6563 62.2335C58.5083 62.2475 58.3513 62.2605 58.1893 62.2725C57.8113 62.3005 57.3953 62.3215 56.9353 62.3325L56.3193 62.0755C56.2913 62.1375 56.2383 62.2285 56.1393 62.3415H56.1383C56.0203 62.4765 55.8313 62.6375 55.5453 62.8045C55.5493 62.8075 55.5533 62.8095 55.5563 62.8115Z" fill="#2988FF"/>
<path fill-rule="evenodd" clip-rule="evenodd" d="M55.5552 58.0014C55.6632 58.0704 55.7622 58.1414 55.8502 58.2174C55.9312 58.2874 56.0012 58.3594 56.0632 58.4344C56.0932 58.4704 56.1402 58.5014 56.1662 58.5384H56.3392L56.3512 58.7324C57.1932 58.7284 57.9242 58.6934 58.5602 58.6374C58.6752 58.6274 58.7902 58.6174 58.8992 58.6054C59.0742 58.5874 59.2432 58.5674 59.4032 58.5454C59.4302 58.5424 59.4602 58.5384 59.4862 58.5354C59.7552 58.4964 59.9962 58.4534 60.2232 58.4064C60.2812 58.3954 60.3362 58.3824 60.3922 58.3704C60.5002 58.3464 60.6062 58.3224 60.7042 58.2974C60.8552 58.2594 60.9962 58.2194 61.1262 58.1784C61.1822 58.1604 61.2342 58.1424 61.2872 58.1234C61.3082 58.1164 61.3302 58.1094 61.3502 58.1024C61.4912 58.0514 61.6222 57.9994 61.7362 57.9474C61.7402 57.9454 61.7442 57.9444 61.7482 57.9424C61.8762 57.8834 61.9852 57.8244 62.0832 57.7654C62.1182 57.7444 62.1512 57.7234 62.1822 57.7034C62.3442 57.5974 62.4642 57.4944 62.5492 57.4024C62.6052 57.3414 62.6462 57.2864 62.6782 57.2374C62.7032 57.1974 62.7242 57.1604 62.7372 57.1294L62.7522 56.1734L62.7612 55.6194L62.7682 55.1284L62.7792 54.4704V54.4224C62.7652 54.4214 62.7512 54.4194 62.7362 54.4184C62.7332 54.4184 62.7302 54.4184 62.7282 54.4174C62.5202 54.3984 62.3192 54.3784 62.1292 54.3544C61.5822 54.2864 61.1102 54.2014 60.7042 54.1064C60.2982 54.2014 59.8272 54.2864 59.2802 54.3544C59.0902 54.3774 58.8892 54.3984 58.6812 54.4174C58.6782 54.4184 58.6752 54.4184 58.6722 54.4184C58.6552 54.4204 58.6382 54.4214 58.6212 54.4234C58.4722 54.4364 58.3302 54.4514 58.1712 54.4624C57.6302 54.4994 57.0252 54.5194 56.3632 54.5234L56.3562 55.1284L56.3502 55.7274C56.9832 55.7234 57.5942 55.7004 58.1712 55.6594C58.3242 55.6484 58.4732 55.6354 58.6212 55.6214C58.7242 55.6124 58.8252 55.6024 58.9252 55.5914C58.9752 55.5864 59.0232 55.5804 59.0712 55.5754C59.3312 55.5464 59.5842 55.5144 59.8232 55.4794C60.1382 55.4314 60.4302 55.3774 60.7042 55.3194C60.9782 55.2604 61.2282 55.1964 61.4552 55.1284H61.5842V55.4794V55.6864V56.6564C61.4662 56.7464 61.2022 56.9004 60.6922 57.0554C60.3782 57.1514 59.9702 57.2464 59.4422 57.3264C59.4382 57.3264 59.4342 57.3274 59.4312 57.3274C59.3612 57.3384 59.2882 57.3484 59.2142 57.3584C59.1012 57.3734 58.9822 57.3874 58.8592 57.4014C58.7922 57.4084 58.7272 57.4164 58.6572 57.4234C58.5092 57.4384 58.3522 57.4514 58.1902 57.4634C57.8122 57.4914 57.3952 57.5124 56.9342 57.5224L56.3202 57.2674C56.2922 57.3284 56.2402 57.4194 56.1412 57.5314C56.1412 57.5324 56.1402 57.5324 56.1402 57.5324C56.0212 57.6674 55.8322 57.8294 55.5472 57.9964C55.5492 57.9984 55.5522 57.9994 55.5552 58.0014Z" fill="#2988FF"/>
<path fill-rule="evenodd" clip-rule="evenodd" d="M55.5562 53.1928C55.6632 53.2618 55.7632 53.3328 55.8502 53.4088C55.9302 53.4778 56.0002 53.5498 56.0622 53.6248C56.0922 53.6608 56.1402 53.6928 56.1662 53.7298H56.3392L56.3512 53.9238C57.1932 53.9198 57.9242 53.8848 58.5602 53.8288C58.6752 53.8188 58.7902 53.8088 58.8992 53.7968C59.0742 53.7778 59.2432 53.7588 59.4022 53.7368C59.4302 53.7328 59.4602 53.7298 59.4872 53.7258C59.7552 53.6878 59.9962 53.6438 60.2222 53.5978C60.2812 53.5858 60.3362 53.5738 60.3922 53.5618C60.5002 53.5378 60.6062 53.5138 60.7042 53.4888C60.8552 53.4498 60.9962 53.4108 61.1252 53.3688C61.1822 53.3508 61.2352 53.3328 61.2882 53.3138C61.3092 53.3068 61.3302 53.2998 61.3502 53.2928C61.4912 53.2428 61.6212 53.1908 61.7362 53.1388C61.7402 53.1368 61.7442 53.1348 61.7482 53.1338C61.8762 53.0748 61.9842 53.0158 62.0822 52.9568C62.1172 52.9358 62.1502 52.9158 62.1812 52.8948C62.3432 52.7878 62.4632 52.6858 62.5492 52.5938C62.6052 52.5328 62.6462 52.4788 62.6772 52.4288C62.7022 52.3888 62.7232 52.3508 62.7372 52.3208L62.7522 51.3648L62.7612 50.8108L62.7682 50.3208L62.7792 49.6618V49.6138C62.7652 49.6128 62.7512 49.6118 62.7372 49.6108C62.7342 49.6098 62.7312 49.6098 62.7282 49.6098C62.5202 49.5908 62.3192 49.5698 62.1292 49.5458C61.5822 49.4788 61.1102 49.3938 60.7042 49.2978C60.2982 49.3938 59.8272 49.4788 59.2802 49.5458C59.0902 49.5698 58.8892 49.5908 58.6812 49.6098C58.6782 49.6098 58.6752 49.6108 58.6722 49.6108C58.6562 49.6118 58.6382 49.6138 58.6212 49.6148C58.4722 49.6288 58.3302 49.6438 58.1712 49.6548C57.6302 49.6918 57.0252 49.7118 56.3632 49.7148L56.3562 50.3208L56.3502 50.9188C56.9832 50.9148 57.5942 50.8918 58.1712 50.8508C58.3242 50.8398 58.4732 50.8268 58.6212 50.8128C58.7242 50.8038 58.8252 50.7938 58.9252 50.7828C58.9752 50.7778 59.0232 50.7718 59.0712 50.7668C59.3312 50.7378 59.5842 50.7058 59.8232 50.6708C60.1382 50.6228 60.4302 50.5688 60.7042 50.5108C60.9772 50.4518 61.2272 50.3888 61.4532 50.3198H61.5852V50.6708V50.8778V51.8478C61.4662 51.9368 61.2022 52.0918 60.6922 52.2468C60.3792 52.3428 59.9712 52.4378 59.4422 52.5178C59.4392 52.5188 59.4342 52.5188 59.4312 52.5198C59.3612 52.5298 59.2882 52.5398 59.2142 52.5498C59.1022 52.5648 58.9822 52.5788 58.8602 52.5928C58.7932 52.5998 58.7282 52.6078 58.6582 52.6148C58.5102 52.6298 58.3532 52.6428 58.1912 52.6548C57.8132 52.6828 57.3972 52.7038 56.9362 52.7148L56.3202 52.4578C56.2932 52.5198 56.2402 52.6108 56.1412 52.7228C56.1412 52.7238 56.1412 52.7238 56.1412 52.7238H56.1402C56.0212 52.8588 55.8322 53.0198 55.5472 53.1868C55.5502 53.1888 55.5532 53.1908 55.5562 53.1928Z" fill="#2988FF"/>
<path fill-rule="evenodd" clip-rule="evenodd" d="M55.5563 48.3843C55.6633 48.4533 55.7623 48.5243 55.8493 48.5993C55.9303 48.6693 56.0003 48.7413 56.0623 48.8163C56.0923 48.8523 56.1393 48.8833 56.1653 48.9213H56.3383L56.3503 49.1153C57.1923 49.1113 57.9233 49.0773 58.5593 49.0203C58.6733 49.0103 58.7893 49.0003 58.8973 48.9883C59.0723 48.9693 59.2413 48.9503 59.4003 48.9283C59.4283 48.9243 59.4583 48.9213 59.4863 48.9173C59.7543 48.8793 59.9953 48.8353 60.2213 48.7893C60.2803 48.7773 60.3363 48.7653 60.3923 48.7523C60.4993 48.7283 60.6053 48.7043 60.7033 48.6793C60.8543 48.6413 60.9953 48.6013 61.1253 48.5593C61.1823 48.5413 61.2343 48.5233 61.2873 48.5053C61.3073 48.4983 61.3293 48.4903 61.3493 48.4833C61.4903 48.4333 61.6213 48.3813 61.7353 48.3293C61.7383 48.3273 61.7423 48.3263 61.7463 48.3243C61.8753 48.2653 61.9833 48.2053 62.0823 48.1463C62.1163 48.1263 62.1493 48.1053 62.1803 48.0853C62.3423 47.9783 62.4623 47.8763 62.5473 47.7853C62.6033 47.7243 62.6443 47.6693 62.6753 47.6193C62.7013 47.5793 62.7223 47.5423 62.7353 47.5113L62.7503 46.5553L62.7593 46.0013L62.7673 45.5103L62.7773 44.8523L62.7783 44.8043C62.7633 44.8033 62.7493 44.8013 62.7343 44.8003C62.7323 44.7993 62.7293 44.7993 62.7263 44.7993C62.5183 44.7803 62.3163 44.7593 62.1273 44.7363C61.5803 44.6683 61.1083 44.5833 60.7033 44.4883C60.2973 44.5833 59.8263 44.6673 59.2803 44.7353C59.0903 44.7593 58.8883 44.7803 58.6793 44.7993C58.6763 44.7993 58.6743 44.7993 58.6713 44.8003C58.6543 44.8013 58.6373 44.8033 58.6203 44.8043C58.4713 44.8183 58.3283 44.8333 58.1693 44.8443C57.6293 44.8813 57.0233 44.9013 56.3613 44.9053L56.3553 45.5103L56.3493 46.1083C56.9813 46.1053 57.5933 46.0823 58.1693 46.0403C58.3233 46.0303 58.4723 46.0163 58.6193 46.0033C58.7233 45.9943 58.8233 45.9843 58.9243 45.9733C58.9733 45.9683 59.0213 45.9623 59.0703 45.9573C59.3303 45.9283 59.5833 45.8973 59.8223 45.8613C60.1363 45.8133 60.4293 45.7603 60.7023 45.7013H60.7033C60.9773 45.6433 61.2273 45.5793 61.4543 45.5103H61.5833V45.8613V46.0683V47.0383C61.4653 47.1283 61.2013 47.2833 60.6913 47.4393C60.3773 47.5343 59.9703 47.6293 59.4413 47.7093C59.4373 47.7103 59.4333 47.7103 59.4293 47.7113C59.3593 47.7213 59.2873 47.7313 59.2133 47.7413C59.1003 47.7563 58.9813 47.7703 58.8583 47.7843C58.7913 47.7913 58.7273 47.7993 58.6563 47.8063C58.5083 47.8213 58.3513 47.8343 58.1893 47.8463C57.8113 47.8743 57.3953 47.8953 56.9353 47.9063L56.3193 47.6493C56.2913 47.7113 56.2383 47.8023 56.1393 47.9153H56.1383C56.0203 48.0503 55.8313 48.2113 55.5453 48.3783C55.5493 48.3803 55.5533 48.3823 55.5563 48.3843Z" fill="#2988FF"/>
<path fill-rule="evenodd" clip-rule="evenodd" d="M55.5552 43.5746C55.6632 43.6436 55.7622 43.7146 55.8492 43.7906C55.9302 43.8596 56.0002 43.9316 56.0622 44.0066C56.0922 44.0426 56.1402 44.0736 56.1652 44.1116H56.3382L56.3502 44.3056C57.1932 44.3016 57.9232 44.2666 58.5592 44.2106C58.6742 44.2006 58.7902 44.1906 58.8992 44.1786C59.0742 44.1606 59.2432 44.1406 59.4022 44.1186C59.4292 44.1146 59.4602 44.1116 59.4872 44.1076C59.7552 44.0696 59.9962 44.0256 60.2222 43.9796C60.2802 43.9676 60.3362 43.9556 60.3922 43.9436C60.5002 43.9196 60.6052 43.8956 60.7042 43.8706C60.8542 43.8316 60.9952 43.7926 61.1252 43.7506C61.1822 43.7326 61.2352 43.7146 61.2892 43.6956C61.3082 43.6886 61.3302 43.6816 61.3502 43.6746C61.4902 43.6246 61.6212 43.5726 61.7362 43.5206C61.7392 43.5186 61.7442 43.5176 61.7472 43.5156C61.8762 43.4566 61.9842 43.3976 62.0832 43.3386C62.1172 43.3176 62.1502 43.2976 62.1812 43.2766C62.3432 43.1706 62.4632 43.0676 62.5482 42.9766C62.6042 42.9156 62.6452 42.8606 62.6772 42.8106C62.7022 42.7706 62.7232 42.7336 62.7362 42.7036L62.7512 41.7466L62.7602 41.1936L62.7682 40.7026L62.7782 40.0436L62.7792 39.9966C62.7642 39.9956 62.7502 39.9946 62.7362 39.9936C62.7332 39.9926 62.7302 39.9926 62.7272 39.9926C62.5192 39.9736 62.3182 39.9526 62.1292 39.9286C61.5812 39.8606 61.1102 39.7766 60.7042 39.6806C60.2982 39.7766 59.8262 39.8606 59.2792 39.9286C59.0902 39.9526 58.8882 39.9736 58.6802 39.9926C58.6772 39.9926 58.6752 39.9936 58.6722 39.9936C58.6552 39.9946 58.6372 39.9956 58.6202 39.9976C58.4712 40.0116 58.3292 40.0256 58.1702 40.0366C57.6292 40.0746 57.0242 40.0946 56.3622 40.0976L56.3562 40.7026L56.3492 41.3016C56.9822 41.2976 57.5942 41.2746 58.1702 41.2336C58.3232 41.2226 58.4722 41.2096 58.6202 41.1956C58.7232 41.1866 58.8242 41.1766 58.9242 41.1656C58.9742 41.1606 59.0222 41.1556 59.0702 41.1496C59.3302 41.1206 59.5832 41.0896 59.8222 41.0536C60.1372 41.0056 60.4302 40.9516 60.7032 40.8936C60.9772 40.8346 61.2272 40.7706 61.4542 40.7026H61.5842V41.0536V41.2606V42.2316C61.4652 42.3206 61.2012 42.4756 60.6912 42.6306C60.3782 42.7256 59.9702 42.8206 59.4412 42.9006C59.4382 42.9016 59.4342 42.9016 59.4302 42.9026C59.3602 42.9126 59.2872 42.9226 59.2132 42.9326C59.1002 42.9476 58.9812 42.9616 58.8582 42.9756C58.7912 42.9826 58.7272 42.9906 58.6562 42.9976C58.5082 43.0126 58.3512 43.0256 58.1892 43.0376C57.8112 43.0656 57.3952 43.0866 56.9332 43.0966L56.3192 42.8406C56.2912 42.9026 56.2382 42.9936 56.1402 43.1056C56.1392 43.1056 56.1392 43.1066 56.1392 43.1066C56.0202 43.2416 55.8312 43.4026 55.5462 43.5696C55.5492 43.5716 55.5522 43.5726 55.5552 43.5746Z" fill="#2988FF"/>
<path fill-rule="evenodd" clip-rule="evenodd" d="M62.7362 71.1061L62.7512 70.1501L62.7602 69.5961L62.7672 69.1061L62.7712 68.8491C62.6222 68.8361 62.4662 68.8241 62.3272 68.8081C62.2992 68.8051 62.2752 68.8011 62.2472 68.7981C61.6472 68.7271 61.1392 68.6361 60.7032 68.5341C60.3342 68.6211 59.9082 68.6981 59.4232 68.7631C59.3432 68.7731 59.2662 68.7851 59.1832 68.7941C59.1752 68.7961 59.1682 68.7961 59.1602 68.7981C59.1292 68.8011 59.1022 68.8061 59.0712 68.8091C58.9292 68.8251 58.7722 68.8371 58.6212 68.8501C58.4722 68.8641 58.3292 68.8791 58.1702 68.8901C57.6302 68.9271 57.0242 68.9471 56.3622 68.9511L56.3612 69.1051L56.3552 69.7031C56.9862 69.6991 57.5962 69.6771 58.1712 69.6351C58.3242 69.6241 58.4732 69.6111 58.6212 69.5981C58.7242 69.5881 58.8252 69.5781 58.9252 69.5681C58.9752 69.5631 59.0232 69.5571 59.0712 69.5521C59.3312 69.5231 59.5842 69.4911 59.8232 69.4551C60.1382 69.4081 60.4302 69.3541 60.7042 69.2951C60.9772 69.2371 61.2272 69.1731 61.4532 69.1051H61.5852V69.4551V69.6621V70.6321C61.4662 70.7211 61.2022 70.8771 60.6922 71.0321C60.3792 71.1271 59.9712 71.2221 59.4422 71.3021C59.3692 71.3131 59.2922 71.3241 59.2142 71.3341C59.1022 71.3501 58.9822 71.3641 58.8602 71.3771C58.7932 71.3851 58.7282 71.3931 58.6582 71.4001C58.5102 71.4151 58.3532 71.4271 58.1912 71.4391C57.8132 71.4671 57.3972 71.4881 56.9362 71.4991L56.3402 71.2511L56.3372 71.5071L56.3352 71.6621C56.3002 71.7511 56.1942 71.9441 55.9172 72.1711C55.8262 72.2451 55.7162 72.3231 55.5832 72.4031C55.5712 72.4101 55.5582 72.4161 55.5472 72.4231C55.6872 72.5121 55.8072 72.6071 55.9122 72.7071C56.0022 72.7081 56.0832 72.7111 56.1752 72.7111C57.5432 72.7111 58.6272 72.6331 59.4872 72.5101C59.8252 72.4621 60.1202 72.4061 60.3922 72.3461C60.5002 72.3221 60.6062 72.2981 60.7042 72.2731C60.9222 72.2171 61.1152 72.1591 61.2882 72.0981C61.4532 72.0411 61.6052 71.9831 61.7352 71.9231C62.1512 71.7331 62.3992 71.5401 62.5482 71.3791C62.6492 71.2691 62.7062 71.1731 62.7362 71.1061Z" fill="#2988FF"/>
<path fill-rule="evenodd" clip-rule="evenodd" d="M55.9148 77.2312H55.7828C55.7568 77.2022 55.7208 77.1742 55.6878 77.1462C55.6448 77.1742 55.5968 77.2022 55.5488 77.2312C55.5298 77.2422 55.5088 77.2532 55.4888 77.2652C55.3518 77.3412 55.1998 77.4192 55.0168 77.4952C54.0238 77.9082 52.2978 78.2822 49.3028 78.2822C46.3078 78.2822 44.5818 77.9082 43.5888 77.4952C43.4058 77.4192 43.2538 77.3422 43.1168 77.2652C43.0968 77.2542 43.0758 77.2432 43.0568 77.2322C43.0078 77.2032 42.9598 77.1752 42.9168 77.1472C42.8838 77.1752 42.8478 77.2022 42.8218 77.2322H42.6898V77.5322V77.7752V79.8102V79.9032V80.1932L42.7408 80.4352C42.9058 80.8122 43.8668 82.0402 49.3018 82.0402C54.7388 82.0402 55.6988 80.8112 55.8638 80.4342L55.9058 77.7752L55.9088 77.5562C55.9098 77.5482 55.9148 77.5402 55.9148 77.5322C55.9148 77.5252 55.9098 77.5172 55.9098 77.5102L55.9148 77.2312ZM54.7118 78.4342V79.9612C54.4318 80.1722 53.3648 80.7502 50.0628 80.8282L44.7738 78.6242C45.9578 78.8772 47.5478 79.0342 49.3028 79.0342C51.4628 79.0342 53.3748 78.7972 54.5808 78.4342H54.7118Z" fill="#2988FF"/>
<path fill-rule="evenodd" clip-rule="evenodd" d="M55.9148 72.8731H55.7828C55.7778 72.8671 55.7698 72.8611 55.7648 72.8561C55.7158 72.8041 55.6538 72.7531 55.5818 72.7041C55.5058 72.6511 55.4148 72.6001 55.3148 72.5501C55.2428 72.5851 55.1658 72.6211 55.0838 72.6571C55.0588 72.6671 55.0358 72.6781 55.0088 72.6891C54.9008 72.7341 54.7828 72.7781 54.6558 72.8221C54.6058 72.8391 54.5478 72.8561 54.4948 72.8731C54.4888 72.8751 54.4818 72.8771 54.4758 72.8791C54.1408 72.9851 53.7428 73.0831 53.2788 73.1681C52.2958 73.3491 51.0108 73.4731 49.3018 73.4731C46.7848 73.4731 45.1718 73.2081 44.1288 72.8791C44.1228 72.8771 44.1158 72.8751 44.1098 72.8731C43.8898 72.8031 43.6928 72.7311 43.5218 72.6571C43.4398 72.6211 43.3618 72.5851 43.2908 72.5501C43.0848 72.6521 42.9228 72.7601 42.8218 72.8731H42.6898V73.1731V73.4171V75.4521V75.5451V75.8351L42.7408 76.0771C42.7948 76.2001 42.9378 76.4141 43.2888 76.6461C43.3628 76.6941 43.4488 76.7441 43.5428 76.7941C43.6098 76.8301 43.6798 76.8651 43.7578 76.9001C43.9408 76.9831 44.1548 77.0651 44.4068 77.1431C44.5058 77.1731 44.6168 77.2021 44.7278 77.2311C45.7048 77.4881 47.1488 77.6821 49.3018 77.6821C51.4558 77.6821 52.8988 77.4881 53.8758 77.2311C53.9868 77.2021 54.0978 77.1731 54.1968 77.1431C54.4498 77.0651 54.6638 76.9831 54.8468 76.9001C54.9248 76.8651 54.9938 76.8291 55.0608 76.7941C55.1558 76.7441 55.2408 76.6941 55.3158 76.6451C55.6668 76.4131 55.8098 76.1981 55.8638 76.0751L55.9058 73.4171L55.9078 73.3081L55.9088 73.1971C55.9098 73.1891 55.9148 73.1811 55.9148 73.1731C55.9148 73.1661 55.9098 73.1591 55.9098 73.1521L55.9148 72.8731ZM54.7118 74.0751V75.6021C54.5818 75.7011 54.2808 75.8781 53.6648 76.0481C53.4108 76.1181 53.1018 76.1861 52.7308 76.2471C52.6718 76.2571 52.6108 76.2661 52.5488 76.2761C51.9088 76.3721 51.0958 76.4451 50.0628 76.4701L49.0118 76.0321H49.0108L48.0208 75.6191L44.7718 74.2651C45.9558 74.5191 47.5468 74.6751 49.3018 74.6751C51.4628 74.6751 53.3748 74.4391 54.5808 74.0751H54.7118Z" fill="#2988FF"/>
<path fill-rule="evenodd" clip-rule="evenodd" d="M43.7299 72.0803C43.8469 72.1343 43.9819 72.1873 44.1269 72.2393C44.1979 72.2653 44.2729 72.2903 44.3519 72.3153C44.6089 72.3973 44.9089 72.4743 45.2538 72.5443C46.2058 72.7373 47.5058 72.8733 49.3028 72.8733C50.0508 72.8733 50.7068 72.8483 51.2958 72.8073C51.8528 72.7673 52.3418 72.7133 52.7718 72.6463C52.9468 72.6193 53.1148 72.5913 53.2708 72.5613C53.2988 72.5563 53.3228 72.5503 53.3498 72.5443C53.6568 72.4823 53.9338 72.4153 54.1708 72.3433C54.2008 72.3343 54.2248 72.3243 54.2528 72.3153C54.3318 72.2903 54.4068 72.2653 54.4778 72.2393C54.5398 72.2173 54.5988 72.1943 54.6558 72.1713C54.7308 72.1413 54.8078 72.1113 54.8748 72.0803C55.3148 71.8773 55.5628 71.6713 55.7058 71.5053C55.7868 71.4103 55.8378 71.3273 55.8638 71.2673L55.8678 71.0563L55.8888 69.7033L55.8978 69.1063L55.9008 68.9503L55.9058 68.6073L55.9078 68.4993L55.9098 68.3883C55.9098 68.3803 55.9148 68.3723 55.9148 68.3643C55.9148 68.3593 55.9118 68.3543 55.9118 68.3503C55.9118 68.3473 55.9108 68.3453 55.9098 68.3433L55.9148 68.0633H55.7818C55.7768 68.0583 55.7708 68.0533 55.7658 68.0483C55.7228 68.0033 55.6728 67.9583 55.6128 67.9143C55.6078 67.9103 55.6008 67.9073 55.5958 67.9033C55.5158 67.8473 55.4198 67.7933 55.3138 67.7403C55.2418 67.7763 55.1648 67.8123 55.0828 67.8473C55.0708 67.8533 55.0618 67.8573 55.0508 67.8623C55.0178 67.8763 54.9808 67.8903 54.9468 67.9043C54.8528 67.9413 54.7568 67.9793 54.6498 68.0153C54.6018 68.0323 54.5468 68.0473 54.4958 68.0643C54.4898 68.0663 54.4818 68.0683 54.4748 68.0703C54.2688 68.1353 54.0378 68.1973 53.7838 68.2563C53.6278 68.2923 53.4628 68.3263 53.2878 68.3583C52.8448 68.4403 52.3358 68.5093 51.7558 68.5613C51.2358 68.6083 50.6558 68.6403 50.0118 68.6543C49.9638 68.6553 49.9148 68.6553 49.8668 68.6563C49.7648 68.6583 49.6658 68.6603 49.5608 68.6613C49.4718 68.6623 49.3928 68.6653 49.3018 68.6653C49.2348 68.6653 49.1768 68.6623 49.1108 68.6623C46.7068 68.6483 45.1438 68.3913 44.1289 68.0703C44.1219 68.0683 44.1139 68.0663 44.1079 68.0643C43.8879 67.9943 43.6919 67.9223 43.5209 67.8483C43.4389 67.8133 43.3629 67.7773 43.2899 67.7413C43.0849 67.8433 42.9229 67.9513 42.8219 68.0643H42.6889V68.3643V68.6083V70.6433V70.7353V71.0263L42.7399 71.2683C42.8139 71.4333 43.0399 71.7623 43.7299 72.0803ZM49.1118 69.8643C49.1758 69.8653 49.2378 69.8673 49.3028 69.8673C49.3898 69.8673 49.4748 69.8643 49.5618 69.8643C49.6308 69.8633 49.6998 69.8623 49.7688 69.8613C49.8498 69.8603 49.9318 69.8603 50.0118 69.8583C50.2678 69.8513 50.5178 69.8413 50.7638 69.8283C51.3978 69.7963 51.9968 69.7433 52.5478 69.6723C52.8158 69.6383 53.0708 69.5993 53.3148 69.5573C53.7938 69.4733 54.2208 69.3753 54.5838 69.2663H54.7128V69.6683V70.5753V70.7943C54.5538 70.9143 54.1378 71.1513 53.2128 71.3483C53.0178 71.3903 52.8018 71.4303 52.5588 71.4663C52.0588 71.5413 51.4528 71.6033 50.7168 71.6383C50.7058 71.6393 50.6958 71.6393 50.6848 71.6403C50.5098 71.6483 50.3238 71.6543 50.1328 71.6593C50.1088 71.6603 50.0878 71.6613 50.0628 71.6623L49.6778 71.5013L49.1108 71.2653L49.0208 71.2283L44.7719 69.4573C45.9128 69.7013 47.4318 69.8533 49.1118 69.8643Z" fill="#2988FF"/>
<path fill-rule="evenodd" clip-rule="evenodd" d="M43.7293 67.2706C43.8463 67.3246 43.9813 67.3776 44.1273 67.4296C44.1983 67.4556 44.2733 67.4816 44.3513 67.5056C44.6093 67.5876 44.9093 67.6646 45.2543 67.7346C46.1703 67.9206 47.4163 68.0506 49.1113 68.0596C49.1763 68.0606 49.2353 68.0626 49.3023 68.0626C49.3933 68.0626 49.4733 68.0596 49.5613 68.0596C49.5723 68.0596 49.5823 68.0586 49.5933 68.0586C49.6813 68.0586 49.7663 68.0566 49.8523 68.0546C49.9693 68.0526 50.0933 68.0526 50.2053 68.0506C50.3923 68.0446 50.5653 68.0366 50.7413 68.0276C50.9503 68.0176 51.1543 68.0066 51.3473 67.9926C51.5033 67.9816 51.6583 67.9696 51.8043 67.9556C51.9713 67.9406 52.1273 67.9216 52.2803 67.9036C52.4553 67.8816 52.6243 67.8596 52.7823 67.8346C52.9843 67.8036 53.1743 67.7706 53.3503 67.7346C53.4363 67.7166 53.5213 67.6986 53.6003 67.6806C53.8423 67.6256 54.0593 67.5666 54.2533 67.5056C54.3313 67.4796 54.4063 67.4546 54.4773 67.4296C54.6223 67.3766 54.7583 67.3236 54.8753 67.2696C54.9373 67.2416 54.9893 67.2126 55.0443 67.1846C55.0773 67.1676 55.1153 67.1496 55.1453 67.1326C55.4153 66.9806 55.5853 66.8336 55.6963 66.7066L55.6973 66.7056C55.7143 66.6856 55.7333 66.6656 55.7473 66.6476C55.8053 66.5726 55.8423 66.5076 55.8643 66.4576L55.8673 66.2576L55.8813 65.3446L55.8913 64.7476L55.9003 64.1406L55.9063 63.7986L55.9083 63.6906L55.9093 63.5786C55.9103 63.5706 55.9153 63.5626 55.9153 63.5546C55.9153 63.5516 55.9133 63.5486 55.9133 63.5456C55.9133 63.5436 55.9123 63.5426 55.9123 63.5416C55.9123 63.5386 55.9103 63.5366 55.9103 63.5336L55.9153 63.2546H55.7823C55.7783 63.2496 55.7713 63.2446 55.7663 63.2396C55.7233 63.1936 55.6733 63.1496 55.6133 63.1056C55.5303 63.0456 55.4273 62.9876 55.3133 62.9316C55.2423 62.9676 55.1653 63.0026 55.0833 63.0386C55.0713 63.0436 55.0623 63.0486 55.0503 63.0536C54.9283 63.1046 54.7943 63.1566 54.6493 63.2056C54.6003 63.2226 54.5453 63.2386 54.4943 63.2546C54.4883 63.2566 54.4813 63.2586 54.4753 63.2606C54.2683 63.3256 54.0363 63.3886 53.7813 63.4466C53.6313 63.4816 53.4713 63.5136 53.3033 63.5456C53.2983 63.5466 53.2923 63.5466 53.2873 63.5486C52.8433 63.6306 52.3343 63.6986 51.7533 63.7516C51.3433 63.7886 50.9073 63.8186 50.4213 63.8356C50.1993 63.8426 49.9583 63.8456 49.7193 63.8486C49.6663 63.8486 49.6163 63.8506 49.5623 63.8506H49.5613C49.4723 63.8516 49.3933 63.8546 49.3023 63.8546C49.2353 63.8546 49.1773 63.8516 49.1113 63.8516C46.7083 63.8376 45.1443 63.5806 44.1293 63.2606C44.1233 63.2586 44.1163 63.2566 44.1103 63.2546C43.8903 63.1846 43.6933 63.1126 43.5223 63.0386C43.4403 63.0026 43.3623 62.9666 43.2913 62.9316C43.0853 63.0336 42.9233 63.1416 42.8223 63.2546H42.6893V63.5556V63.7986V65.8346V65.9266V66.2176L42.7403 66.4596C42.8133 66.6246 43.0393 66.9536 43.7293 67.2706ZM49.1113 65.0556C49.1753 65.0556 49.2383 65.0576 49.3023 65.0576C49.3903 65.0576 49.4753 65.0556 49.5613 65.0546C49.6813 65.0536 49.8013 65.0536 49.9193 65.0506C49.9503 65.0506 49.9813 65.0496 50.0123 65.0496C50.2673 65.0426 50.5173 65.0326 50.7643 65.0206C51.0813 65.0036 51.3883 64.9826 51.6863 64.9556C51.6963 64.9546 51.7063 64.9546 51.7163 64.9536C52.2943 64.9016 52.8303 64.8316 53.3153 64.7476C53.7933 64.6646 54.2193 64.5666 54.5823 64.4576H54.7123V64.7476V65.3096V65.9856C54.6643 66.0216 54.5893 66.0696 54.4873 66.1226C54.3433 66.1986 54.1383 66.2866 53.8503 66.3756C53.5313 66.4746 53.1093 66.5736 52.5593 66.6566C52.3503 66.6886 52.1233 66.7166 51.8763 66.7426C51.8033 66.7506 51.7293 66.7576 51.6523 66.7646C51.2483 66.8016 50.7913 66.8286 50.2823 66.8446C50.2083 66.8476 50.1383 66.8506 50.0613 66.8526L50.0123 66.8316L49.5923 66.6566L49.5613 66.6436L49.1113 66.4556L49.0193 66.4176L44.7723 64.6486C45.9123 64.8916 47.4323 65.0446 49.1113 65.0556Z" fill="#2988FF"/>
<path fill-rule="evenodd" clip-rule="evenodd" d="M43.7298 62.4618C43.8468 62.5158 43.9818 62.5688 44.1268 62.6208C44.1988 62.6468 44.2728 62.6728 44.3518 62.6968C44.6098 62.7788 44.9098 62.8558 45.2548 62.9258C46.2068 63.1188 47.5058 63.2548 49.3018 63.2548C49.4398 63.2548 49.5628 63.2508 49.6948 63.2488C49.8368 63.2478 49.9808 63.2458 50.1168 63.2428C50.1448 63.2418 50.1768 63.2428 50.2048 63.2418C50.3428 63.2378 50.4698 63.2308 50.6018 63.2258C50.8618 63.2148 51.1118 63.2008 51.3468 63.1838C51.5038 63.1728 51.6578 63.1608 51.8028 63.1468C52.1608 63.1138 52.4838 63.0718 52.7808 63.0268C52.9828 62.9948 53.1728 62.9618 53.3488 62.9258C53.4358 62.9078 53.5198 62.8898 53.6008 62.8718C53.8418 62.8168 54.0588 62.7578 54.2518 62.6968C54.3308 62.6708 54.4058 62.6458 54.4768 62.6208C54.6218 62.5678 54.7568 62.5148 54.8738 62.4608C54.9398 62.4308 54.9948 62.4008 55.0518 62.3708C55.0558 62.3688 55.0598 62.3668 55.0638 62.3648C55.0898 62.3518 55.1198 62.3378 55.1438 62.3238C55.4088 62.1748 55.5788 62.0288 55.6908 61.9038C55.7108 61.8808 55.7298 61.8588 55.7468 61.8378C55.8048 61.7628 55.8418 61.6978 55.8638 61.6478L55.8808 60.5348L55.8908 59.9368L55.8998 59.3318L55.9058 58.9888L55.9078 58.8808L55.9088 58.7698C55.9098 58.7618 55.9148 58.7538 55.9148 58.7458C55.9148 58.7418 55.9118 58.7388 55.9118 58.7358C55.9118 58.7338 55.9118 58.7328 55.9118 58.7318C55.9118 58.7288 55.9098 58.7278 55.9098 58.7248L55.9138 58.4458H55.7818C55.7778 58.4408 55.7708 58.4358 55.7658 58.4308C55.7228 58.3848 55.6738 58.3398 55.6128 58.2958C55.5308 58.2368 55.4268 58.1788 55.3138 58.1228C55.2418 58.1588 55.1648 58.1938 55.0828 58.2298C55.0718 58.2348 55.0628 58.2398 55.0508 58.2438C54.9288 58.2958 54.7948 58.3478 54.6488 58.3978C54.6008 58.4148 54.5458 58.4298 54.4948 58.4458C54.4878 58.4478 54.4818 58.4498 54.4748 58.4518C54.2688 58.5168 54.0388 58.5788 53.7848 58.6378C53.6348 58.6718 53.4768 58.7048 53.3098 58.7358C53.3028 58.7368 53.2948 58.7378 53.2878 58.7398C52.8448 58.8218 52.3358 58.8908 51.7548 58.9428C51.3448 58.9798 50.9078 59.0098 50.4218 59.0268C50.1998 59.0348 49.9578 59.0368 49.7188 59.0398C49.6668 59.0408 49.6168 59.0418 49.5628 59.0418H49.5618C49.4728 59.0428 49.3938 59.0458 49.3028 59.0458C49.2358 59.0458 49.1778 59.0438 49.1118 59.0428C46.7078 59.0298 45.1448 58.7728 44.1298 58.4518C44.1238 58.4498 44.1168 58.4478 44.1098 58.4458C43.8898 58.3758 43.6928 58.3038 43.5218 58.2298C43.4398 58.1938 43.3628 58.1588 43.2908 58.1228C43.0848 58.2248 42.9238 58.3328 42.8228 58.4458H42.6908V58.7458V58.9898V61.0248V61.1178V61.4078L42.7408 61.6498C42.8138 61.8148 43.0398 62.1438 43.7298 62.4618ZM49.1118 60.2468C49.1758 60.2468 49.2378 60.2488 49.3028 60.2488C49.3898 60.2488 49.4748 60.2468 49.5618 60.2458C49.6818 60.2448 49.8018 60.2438 49.9198 60.2418C49.9508 60.2408 49.9808 60.2408 50.0118 60.2398C50.2678 60.2338 50.5178 60.2238 50.7638 60.2108C51.0808 60.1948 51.3878 60.1728 51.6868 60.1468C51.6968 60.1458 51.7068 60.1448 51.7168 60.1438C52.2958 60.0928 52.8328 60.0228 53.3188 59.9378C53.7958 59.8548 54.2198 59.7578 54.5818 59.6488H54.7128V59.9378V60.5008V61.1758C54.6648 61.2118 54.5898 61.2598 54.4878 61.3138C54.1838 61.4738 53.6048 61.6898 52.5588 61.8478C52.3508 61.8788 52.1228 61.9078 51.8758 61.9328C51.4178 61.9808 50.8888 62.0168 50.2828 62.0358C50.2088 62.0378 50.1388 62.0408 50.0628 62.0428L50.0128 62.0218L49.5928 61.8468L49.5618 61.8338L49.1118 61.6458L49.0208 61.6078L44.7718 59.8388C45.9118 60.0828 47.4318 60.2358 49.1118 60.2468Z" fill="#2988FF"/>
<path fill-rule="evenodd" clip-rule="evenodd" d="M43.7298 57.6528C43.8468 57.7068 43.9818 57.7598 44.1268 57.8118C44.1978 57.8378 44.2728 57.8628 44.3518 57.8878C44.6088 57.9698 44.9098 58.0468 45.2548 58.1168C46.2058 58.3098 47.5058 58.4458 49.3028 58.4458C49.4398 58.4458 49.5618 58.4418 49.6938 58.4398C49.8358 58.4388 49.9808 58.4378 50.1168 58.4338C50.1458 58.4338 50.1778 58.4338 50.2068 58.4328C50.3448 58.4288 50.4708 58.4218 50.6018 58.4168C50.8628 58.4058 51.1128 58.3918 51.3488 58.3748C51.5058 58.3638 51.6608 58.3518 51.8068 58.3388C52.1628 58.3048 52.4858 58.2638 52.7818 58.2178C52.9838 58.1858 53.1738 58.1528 53.3508 58.1168C53.4368 58.0988 53.5218 58.0808 53.6028 58.0628C53.8438 58.0078 54.0608 57.9488 54.2538 57.8878C54.3328 57.8628 54.4068 57.8368 54.4778 57.8118C54.6238 57.7598 54.7578 57.7058 54.8748 57.6518C54.9408 57.6218 54.9968 57.5918 55.0538 57.5618C55.0578 57.5598 55.0618 57.5578 55.0658 57.5558C55.0918 57.5418 55.1228 57.5278 55.1468 57.5148C55.4118 57.3648 55.5808 57.2188 55.6928 57.0938C55.7118 57.0718 55.7318 57.0498 55.7478 57.0288C55.8058 56.9548 55.8428 56.8888 55.8648 56.8388L55.8828 55.7258L55.8918 55.1288L55.9018 54.5218L55.9068 54.1799L55.9088 54.0719L55.9108 53.9609C55.9108 53.9529 55.9158 53.9449 55.9158 53.9369C55.9158 53.9329 55.9138 53.9299 55.9138 53.9259C55.9138 53.9249 55.9128 53.9239 55.9118 53.9229C55.9118 53.9209 55.9108 53.9179 55.9108 53.9159L55.9148 53.6359H55.7828C55.7778 53.6309 55.7708 53.6259 55.7658 53.6209C55.7228 53.5759 55.6738 53.5309 55.6138 53.4869C55.5308 53.4269 55.4278 53.3699 55.3138 53.3129C55.2428 53.3489 55.1658 53.3849 55.0838 53.4199C55.0718 53.4249 55.0628 53.4299 55.0518 53.4349C54.9298 53.4869 54.7958 53.5379 54.6508 53.5879C54.6028 53.6039 54.5478 53.6199 54.4978 53.6359C54.4908 53.6379 54.4828 53.6409 54.4758 53.6429C54.2698 53.7079 54.0388 53.7699 53.7848 53.8289C53.6348 53.8629 53.4758 53.8959 53.3088 53.9269C53.3028 53.9279 53.2958 53.9289 53.2888 53.9309C52.8458 54.0129 52.3368 54.0819 51.7568 54.1339C51.3458 54.1709 50.9088 54.2009 50.4208 54.2179C50.1988 54.2259 49.9578 54.2279 49.7188 54.2309C49.6668 54.2319 49.6168 54.2329 49.5628 54.2329H49.5618C49.4728 54.2339 49.3938 54.2379 49.3028 54.2379C49.2348 54.2379 49.1768 54.2349 49.1108 54.2339C46.7078 54.2209 45.1438 53.9629 44.1298 53.6429C44.1228 53.6409 44.1148 53.6379 44.1078 53.6359C43.8888 53.5669 43.6918 53.4939 43.5218 53.4209C43.4398 53.3849 43.3628 53.3489 43.2908 53.3139C43.0848 53.4159 42.9238 53.5239 42.8228 53.6359H42.6898V53.9369V54.1809V56.2158V56.3088V56.5988L42.7408 56.8408C42.8138 57.0058 43.0398 57.3348 43.7298 57.6528ZM49.1118 55.4378C49.1758 55.4378 49.2378 55.4398 49.3028 55.4398C49.3898 55.4398 49.4748 55.4378 49.5618 55.4368C49.6818 55.4358 49.8018 55.4348 49.9198 55.4328C49.9508 55.4318 49.9808 55.4318 50.0118 55.4308C50.2678 55.4248 50.5178 55.4148 50.7638 55.4018C51.0808 55.3858 51.3878 55.3638 51.6858 55.3378C51.6958 55.3368 51.7068 55.3358 51.7168 55.3348C52.2948 55.2838 52.8318 55.2138 53.3168 55.1298C53.7958 55.0458 54.2208 54.9488 54.5838 54.8388H54.7128V55.1298V55.6918V56.3678C54.6638 56.4038 54.5898 56.4518 54.4878 56.5048C54.1838 56.6648 53.6048 56.8818 52.5588 57.0398C52.3508 57.0708 52.1238 57.0988 51.8768 57.1248C51.4188 57.1728 50.8898 57.2088 50.2828 57.2278C50.2098 57.2298 50.1398 57.2328 50.0638 57.2348L50.0128 57.2138L49.5928 57.0388L49.5618 57.0258L49.1118 56.8378L49.0218 56.8008L44.7728 55.0298C45.9128 55.2738 47.4318 55.4268 49.1118 55.4378Z" fill="#2988FF"/>
<path fill-rule="evenodd" clip-rule="evenodd" d="M43.7293 52.8436C43.8463 52.8976 43.9813 52.9506 44.1273 53.0026C44.1983 53.0286 44.2733 53.0536 44.3513 53.0786C44.6093 53.1606 44.9093 53.2376 45.2543 53.3076C46.2063 53.5006 47.5063 53.6366 49.3023 53.6366C49.4403 53.6366 49.5633 53.6326 49.6953 53.6306C49.8373 53.6286 49.9823 53.6276 50.1183 53.6246C50.1463 53.6236 50.1773 53.6246 50.2053 53.6236C50.3443 53.6196 50.4713 53.6126 50.6033 53.6066C50.8623 53.5966 51.1123 53.5826 51.3473 53.5656C51.5033 53.5546 51.6583 53.5426 51.8043 53.5296C52.1613 53.4956 52.4843 53.4546 52.7823 53.4086C52.9843 53.3766 53.1733 53.3436 53.3503 53.3076C53.4363 53.2906 53.5203 53.2726 53.6003 53.2536C53.8423 53.1986 54.0593 53.1406 54.2533 53.0786C54.3313 53.0536 54.4063 53.0286 54.4773 53.0026C54.6223 52.9506 54.7583 52.8976 54.8753 52.8436C54.9403 52.8136 54.9963 52.7836 55.0533 52.7526C55.0573 52.7506 55.0613 52.7486 55.0653 52.7466C55.0913 52.7336 55.1213 52.7196 55.1453 52.7056C55.4113 52.5556 55.5803 52.4106 55.6913 52.2856C55.7113 52.2626 55.7303 52.2406 55.7473 52.2206C55.8043 52.1456 55.8423 52.0806 55.8633 52.0306L55.8813 50.9176L55.8913 50.3206L55.9003 49.7136L55.9063 49.3716L55.9073 49.2636L55.9093 49.1516C55.9103 49.1436 55.9143 49.1356 55.9143 49.1276C55.9143 49.1246 55.9123 49.1216 55.9123 49.1186C55.9123 49.1166 55.9123 49.1156 55.9123 49.1146C55.9123 49.1116 55.9103 49.1096 55.9103 49.1076L55.9143 48.8276H55.7823C55.7773 48.8226 55.7713 48.8176 55.7663 48.8126C55.7233 48.7666 55.6733 48.7226 55.6133 48.6786C55.5303 48.6186 55.4273 48.5616 55.3133 48.5046C55.2423 48.5406 55.1653 48.5756 55.0833 48.6116C55.0713 48.6166 55.0623 48.6216 55.0503 48.6266C54.9283 48.6786 54.7943 48.7296 54.6493 48.7796C54.6003 48.7956 54.5453 48.8116 54.4943 48.8276C54.4883 48.8296 54.4813 48.8316 54.4753 48.8336C54.2683 48.8996 54.0363 48.9616 53.7813 49.0206C53.6313 49.0546 53.4713 49.0866 53.3033 49.1186C53.2983 49.1196 53.2923 49.1206 53.2873 49.1216C52.8433 49.2036 52.3343 49.2726 51.7543 49.3246C51.3443 49.3616 50.9083 49.3916 50.4223 49.4086C50.2003 49.4166 49.9583 49.4186 49.7193 49.4216C49.6663 49.4226 49.6173 49.4236 49.5633 49.4246H49.5613C49.4733 49.4246 49.3933 49.4286 49.3023 49.4286C49.2353 49.4286 49.1773 49.4256 49.1113 49.4246C46.7083 49.4116 45.1453 49.1546 44.1303 48.8336C44.1233 48.8316 44.1163 48.8296 44.1103 48.8276C43.8903 48.7586 43.6933 48.6856 43.5223 48.6116C43.4403 48.5766 43.3633 48.5406 43.2913 48.5046C43.0853 48.6076 42.9233 48.7156 42.8233 48.8286H42.6903V49.1286V49.3726V51.4076V51.4996V51.7906L42.7413 52.0326C42.8133 52.1976 43.0393 52.5266 43.7293 52.8436ZM49.1113 50.6286C49.1753 50.6286 49.2383 50.6306 49.3023 50.6306C49.3903 50.6306 49.4753 50.6286 49.5613 50.6276C49.6813 50.6266 49.8013 50.6256 49.9193 50.6236C49.9503 50.6226 49.9813 50.6226 50.0123 50.6216C50.2673 50.6156 50.5173 50.6056 50.7643 50.5926C51.0813 50.5766 51.3883 50.5546 51.6863 50.5286C51.6963 50.5276 51.7063 50.5266 51.7173 50.5256C52.2943 50.4746 52.8303 50.4046 53.3143 50.3206C53.7933 50.2366 54.2193 50.1396 54.5823 50.0296H54.7123V50.3206V50.8826V51.5586C54.6643 51.5946 54.5893 51.6426 54.4873 51.6956C54.1833 51.8556 53.6053 52.0726 52.5593 52.2296C52.3503 52.2616 52.1233 52.2896 51.8763 52.3156C51.4183 52.3626 50.8883 52.3986 50.2823 52.4176C50.2083 52.4196 50.1383 52.4226 50.0613 52.4246L50.0123 52.4046L49.5923 52.2296L49.5613 52.2166L49.1113 52.0286L49.0193 51.9906L44.7723 50.2206C45.9123 50.4646 47.4323 50.6176 49.1113 50.6286Z" fill="#2988FF"/>
<path fill-rule="evenodd" clip-rule="evenodd" d="M43.7298 48.0347C43.8468 48.0887 43.9818 48.1417 44.1268 48.1937C44.1988 48.2197 44.2728 48.2457 44.3518 48.2697C44.6098 48.3517 44.9098 48.4287 45.2548 48.4987C46.2068 48.6917 47.5068 48.8277 49.3028 48.8277C49.4398 48.8277 49.5628 48.8237 49.6948 48.8217C49.8368 48.8207 49.9818 48.8197 50.1178 48.8157C50.1458 48.8157 50.1768 48.8157 50.2048 48.8147C50.3438 48.8107 50.4698 48.8037 50.6018 48.7987C50.8628 48.7877 51.1128 48.7737 51.3478 48.7567C51.5038 48.7457 51.6588 48.7337 51.8038 48.7197C52.1608 48.6867 52.4838 48.6447 52.7818 48.5997C52.9838 48.5677 53.1728 48.5347 53.3498 48.4987C53.4358 48.4807 53.5208 48.4627 53.6008 48.4447C53.8428 48.3897 54.0598 48.3307 54.2528 48.2697C54.3318 48.2437 54.4058 48.2187 54.4778 48.1937C54.6228 48.1407 54.7578 48.0877 54.8748 48.0337C54.9398 48.0037 54.9958 47.9737 55.0528 47.9437C55.0568 47.9417 55.0608 47.9397 55.0648 47.9377C55.0908 47.9237 55.1198 47.9097 55.1438 47.8967C55.4098 47.7477 55.5788 47.6017 55.6908 47.4767C55.7108 47.4537 55.7308 47.4317 55.7468 47.4107C55.8048 47.3357 55.8428 47.2707 55.8638 47.2207L55.8818 46.1077L55.8908 45.5097L55.9008 44.9037L55.9058 44.5617L55.9078 44.4537L55.9098 44.3417C55.9108 44.3337 55.9148 44.3257 55.9148 44.3177C55.9148 44.3147 55.9128 44.3117 55.9128 44.3077C55.9128 44.3067 55.9118 44.3057 55.9118 44.3037C55.9118 44.3017 55.9108 44.2997 55.9108 44.2967L55.9148 44.0167H55.7818C55.7778 44.0117 55.7708 44.0067 55.7658 44.0017C55.7228 43.9567 55.6738 43.9117 55.6128 43.8677C55.5308 43.8087 55.4278 43.7507 55.3148 43.6947C55.2428 43.7307 55.1658 43.7657 55.0838 43.8017C55.0718 43.8067 55.0628 43.8117 55.0518 43.8167C54.9308 43.8677 54.7968 43.9187 54.6518 43.9687C54.6038 43.9847 54.5488 44.0007 54.4978 44.0167C54.4908 44.0197 54.4828 44.0217 54.4758 44.0237C54.2698 44.0887 54.0388 44.1517 53.7848 44.2097C53.6358 44.2437 53.4768 44.2767 53.3098 44.3077C53.3028 44.3087 53.2958 44.3107 53.2888 44.3117C52.8458 44.3937 52.3378 44.4617 51.7578 44.5147C51.3468 44.5507 50.9088 44.5817 50.4218 44.5987C50.1998 44.6067 49.9588 44.6087 49.7198 44.6117C49.6668 44.6127 49.6168 44.6137 49.5638 44.6137H49.5628C49.4738 44.6147 49.3938 44.6177 49.3028 44.6177C49.2358 44.6177 49.1778 44.6157 49.1118 44.6157C46.7078 44.6017 45.1448 44.3447 44.1298 44.0237C44.1228 44.0217 44.1148 44.0187 44.1078 44.0167C43.8888 43.9467 43.6918 43.8747 43.5218 43.8017C43.4398 43.7657 43.3628 43.7307 43.2908 43.6947C43.0858 43.7967 42.9238 43.9047 42.8238 44.0167H42.6908V44.3177V44.5617V46.5977V46.6897V46.9797L42.7408 47.2217C42.8138 47.3877 43.0398 47.7167 43.7298 48.0347ZM49.1118 45.8197C49.1758 45.8197 49.2378 45.8217 49.3028 45.8217C49.3898 45.8217 49.4748 45.8197 49.5618 45.8187C49.6818 45.8177 49.8018 45.8167 49.9198 45.8147C49.9508 45.8137 49.9808 45.8137 50.0118 45.8127C50.2678 45.8067 50.5178 45.7967 50.7638 45.7837C51.0808 45.7677 51.3878 45.7457 51.6858 45.7197C51.6958 45.7187 51.7068 45.7177 51.7168 45.7167C52.2948 45.6657 52.8328 45.5957 53.3188 45.5107C53.7968 45.4277 54.2218 45.3297 54.5838 45.2207H54.7128V45.5107V46.0737V46.7487C54.6638 46.7857 54.5888 46.8337 54.4878 46.8867C54.1828 47.0467 53.6048 47.2637 52.5588 47.4217C52.3508 47.4527 52.1228 47.4817 51.8758 47.5067C51.4178 47.5547 50.8888 47.5907 50.2828 47.6087C50.2088 47.6117 50.1388 47.6147 50.0628 47.6167L50.0128 47.5957L49.5928 47.4207L49.5618 47.4077L49.1118 47.2197L49.0208 47.1817L44.7728 45.4117C45.9128 45.6557 47.4318 45.8087 49.1118 45.8197Z" fill="#2988FF"/>
<path fill-rule="evenodd" clip-rule="evenodd" d="M43.7298 43.2257C43.8468 43.2797 43.9818 43.3327 44.1268 43.3847C44.1978 43.4107 44.2728 43.4357 44.3508 43.4607C44.6088 43.5427 44.9088 43.6197 45.2538 43.6897C46.1928 43.8807 47.4738 44.0137 49.2318 44.0177C49.2558 44.0177 49.2778 44.0187 49.3018 44.0187C49.3268 44.0187 49.3478 44.0177 49.3728 44.0177C49.4838 44.0177 49.5848 44.0147 49.6938 44.0127C49.8358 44.0117 49.9798 44.0107 50.1158 44.0067C50.1448 44.0057 50.1778 44.0057 50.2068 44.0057C50.3438 44.0017 50.4698 43.9947 50.6008 43.9897C50.8618 43.9787 51.1128 43.9647 51.3488 43.9477C51.5058 43.9367 51.6608 43.9247 51.8068 43.9107C52.1638 43.8777 52.4868 43.8357 52.7848 43.7897C52.9858 43.7587 53.1738 43.7257 53.3498 43.6897C53.4368 43.6717 53.5218 43.6547 53.6028 43.6357C53.8438 43.5807 54.0608 43.5217 54.2538 43.4607C54.3318 43.4357 54.4068 43.4107 54.4778 43.3847C54.6228 43.3327 54.7578 43.2797 54.8748 43.2257C54.9408 43.1957 54.9958 43.1647 55.0538 43.1347C55.0578 43.1327 55.0618 43.1307 55.0658 43.1287C55.0918 43.1147 55.1218 43.1007 55.1458 43.0877C55.4118 42.9377 55.5808 42.7917 55.6918 42.6667C55.7118 42.6447 55.7308 42.6227 55.7478 42.6017C55.8048 42.5277 55.8428 42.4627 55.8648 42.4127L55.8818 41.2987L55.8918 40.7017L55.9018 40.0957L55.9068 39.7527L55.9088 39.6457L55.9098 39.5337C55.9108 39.5257 55.9158 39.5177 55.9158 39.5097C55.9158 39.5067 55.9138 39.5037 55.9128 39.4997C55.9128 39.4987 55.9118 39.4977 55.9118 39.4977C55.9118 39.4937 55.9108 39.4917 55.9108 39.4887L55.9148 39.2097H55.7828C55.7778 39.2047 55.7708 39.1987 55.7658 39.1937C55.7228 39.1487 55.6738 39.1037 55.6138 39.0597C55.5308 39.0007 55.4278 38.9427 55.3138 38.8867C55.2418 38.9227 55.1648 38.9577 55.0828 38.9937C55.0708 38.9977 55.0618 39.0027 55.0508 39.0077C54.9288 39.0597 54.7948 39.1107 54.6488 39.1607C54.6008 39.1777 54.5458 39.1927 54.4948 39.2097C54.4888 39.2117 54.4818 39.2137 54.4748 39.2157C54.2678 39.2807 54.0368 39.3427 53.7818 39.4017C53.6318 39.4357 53.4718 39.4687 53.3038 39.4997C53.2988 39.5007 53.2928 39.5017 53.2868 39.5037C52.8428 39.5857 52.3348 39.6537 51.7538 39.7057C51.3448 39.7427 50.9078 39.7727 50.4228 39.7897C50.1998 39.7977 49.9588 39.7997 49.7198 39.8027C49.6668 39.8037 49.6168 39.8047 49.5628 39.8057H49.5618C49.4728 39.8057 49.3938 39.8097 49.3028 39.8097C49.2348 39.8097 49.1768 39.8067 49.1108 39.8067C46.7078 39.7927 45.1448 39.5357 44.1298 39.2157C44.1238 39.2137 44.1168 39.2117 44.1098 39.2097C43.8898 39.1397 43.6928 39.0667 43.5218 38.9937C43.4398 38.9577 43.3628 38.9217 43.2908 38.8867C43.0858 38.9887 42.9238 39.0967 42.8228 39.2097H42.6898V39.5097V39.7537V41.7887V41.8817V42.1717L42.7408 42.4137C42.8138 42.5787 43.0398 42.9077 43.7298 43.2257ZM49.1118 41.0098C49.1758 41.0108 49.2378 41.0128 49.3028 41.0128C49.3898 41.0128 49.4748 41.0098 49.5618 41.0098C49.6818 41.0088 49.8018 41.0078 49.9198 41.0058C49.9508 41.0048 49.9808 41.0048 50.0118 41.0038C50.2678 40.9978 50.5178 40.9878 50.7638 40.9748C51.0808 40.9578 51.3878 40.9368 51.6868 40.9108C51.6968 40.9098 51.7068 40.9088 51.7168 40.9078C52.2948 40.8558 52.8308 40.7868 53.3168 40.7018C53.7948 40.6188 54.2208 40.5208 54.5828 40.4118H54.7128V40.7018V41.2648V41.9398C54.6648 41.9768 54.5898 42.0238 54.4878 42.0778C54.1838 42.2378 53.6058 42.4548 52.5588 42.6118C52.3508 42.6438 52.1238 42.6718 51.8768 42.6978C51.4188 42.7458 50.8898 42.7818 50.2828 42.8008C50.2098 42.8028 50.1398 42.8058 50.0638 42.8078L50.0128 42.7858L49.5928 42.6118L49.5618 42.5988L49.1118 42.4108L49.0218 42.3738L44.7718 40.6028C45.9118 40.8468 47.4318 40.9998 49.1118 41.0098Z" fill="#2988FF"/>
<path fill-rule="evenodd" clip-rule="evenodd" d="M43.7303 38.4161C43.8473 38.4701 43.9823 38.5231 44.1283 38.5751C44.1993 38.6011 44.2743 38.6261 44.3523 38.6511C44.6103 38.7331 44.9103 38.8101 45.2553 38.8801C46.2073 39.0731 47.5073 39.2091 49.3033 39.2091C49.4403 39.2091 49.5633 39.2051 49.6953 39.2031C49.8383 39.2021 49.9823 39.2011 50.1183 39.1971C50.1463 39.1971 50.1783 39.1971 50.2053 39.1961C50.3443 39.1921 50.4713 39.1851 50.6033 39.1801C50.8633 39.1691 51.1123 39.1551 51.3473 39.1391C51.5043 39.1271 51.6593 39.1161 51.8053 39.1021C52.1623 39.0681 52.4853 39.0271 52.7823 38.9811C52.9843 38.9501 53.1743 38.9161 53.3503 38.8801C53.4363 38.8631 53.5213 38.8451 53.6013 38.8271C53.8423 38.7721 54.0603 38.7131 54.2533 38.6511C54.3323 38.6261 54.4063 38.6011 54.4773 38.5751C54.6233 38.5231 54.7583 38.4701 54.8753 38.4161C54.9403 38.3861 54.9963 38.3561 55.0533 38.3261C55.0573 38.3241 55.0613 38.3221 55.0653 38.3201C55.0913 38.3061 55.1213 38.2931 55.1453 38.2791C55.4113 38.1302 55.5803 37.9842 55.6923 37.8582C55.7113 37.8362 55.7313 37.8142 55.7483 37.7932C55.8063 37.7182 55.8433 37.6532 55.8653 37.6032L55.8833 36.4912L55.8923 35.8932L55.9023 35.2872L55.9073 34.9452L55.9093 34.8372L55.9113 34.7252C55.9113 34.7172 55.9163 34.7092 55.9163 34.7012C55.9163 34.6982 55.9143 34.6942 55.9143 34.6912C55.9143 34.6912 55.9133 34.6892 55.9133 34.6882C55.9133 34.6852 55.9113 34.6832 55.9113 34.6802L55.9163 34.4012H55.7833C55.7793 34.3962 55.7723 34.3912 55.7673 34.3862C55.7243 34.3402 55.6753 34.2952 55.6143 34.2512C55.5323 34.1922 55.4283 34.1342 55.3153 34.0782C55.2433 34.1142 55.1663 34.1492 55.0843 34.1852C55.0733 34.1902 55.0633 34.1942 55.0523 34.1992C54.9303 34.2512 54.7963 34.3022 54.6503 34.3522C54.6023 34.3692 54.5473 34.3842 54.4953 34.4012C54.4893 34.4032 54.4823 34.4052 54.4763 34.4072C54.2693 34.4722 54.0373 34.5342 53.7823 34.5932C53.6343 34.6272 53.4763 34.6592 53.3103 34.6902C53.3033 34.6922 53.2953 34.6932 53.2883 34.6942C52.8443 34.7762 52.3353 34.8452 51.7553 34.8972C51.3453 34.9342 50.9093 34.9642 50.4233 34.9812C50.2013 34.9892 49.9593 34.9912 49.7203 34.9942C49.6673 34.9952 49.6173 34.9972 49.5643 34.9972H49.5633C49.4743 34.9982 49.3943 35.0012 49.3033 35.0012C49.2363 35.0012 49.1783 34.9982 49.1123 34.9982C46.7093 34.9842 45.1463 34.7272 44.1313 34.4072C44.1243 34.4052 44.1173 34.4032 44.1113 34.4012C43.8913 34.3312 43.6943 34.2582 43.5233 34.1852C43.4413 34.1492 43.3633 34.1132 43.2923 34.0782C43.0863 34.1802 42.9243 34.2882 42.8233 34.4012H42.6913V34.7012V34.9452V36.9802V37.0732V37.3622L42.7413 37.6042C42.8133 37.7692 43.0403 38.0982 43.7303 38.4161ZM49.1113 36.2012C49.1763 36.2012 49.2383 36.2032 49.3033 36.2032C49.3903 36.2032 49.4753 36.2012 49.5623 36.2002C49.6823 36.1992 49.8023 36.1992 49.9203 36.1962C49.9503 36.1962 49.9813 36.1952 50.0123 36.1952C50.2683 36.1882 50.5183 36.1782 50.7643 36.1662C51.0813 36.1492 51.3883 36.1282 51.6863 36.1012C51.6963 36.1002 51.7073 36.1002 51.7163 36.0992C52.2963 36.0472 52.8343 35.9772 53.3203 35.8922C53.7973 35.8092 54.2203 35.7122 54.5823 35.6032H54.7123V35.8922V36.4562V37.1302C54.6643 37.1672 54.5893 37.2152 54.4873 37.2682C54.1833 37.4282 53.6053 37.6452 52.5583 37.8022C52.3503 37.8342 52.1233 37.8622 51.8753 37.8882C51.4183 37.9352 50.8883 37.9712 50.2823 37.9902C50.2083 37.9922 50.1383 37.9952 50.0623 37.9972L50.0123 37.9772L49.5933 37.8022L49.5623 37.7892L49.1113 37.6012L49.0203 37.5632L44.7733 35.7932C45.9133 36.0372 47.4323 36.1902 49.1113 36.2012Z" fill="#2988FF"/>
<path fill-rule="evenodd" clip-rule="evenodd" d="M43.7298 33.6076C43.8468 33.6616 43.9818 33.7146 44.1268 33.7666C44.1988 33.7926 44.2728 33.8186 44.3518 33.8426C44.6098 33.9246 44.9098 34.0016 45.2548 34.0716C46.2068 34.2646 47.5068 34.4006 49.3028 34.4006C49.4398 34.4006 49.5628 34.3966 49.6948 34.3946C49.8368 34.3936 49.9818 34.3926 50.1168 34.3886C50.1448 34.3886 50.1768 34.3886 50.2048 34.3876C50.3438 34.3836 50.4698 34.3766 50.6018 34.3716C50.8618 34.3606 51.1118 34.3466 51.3478 34.3296C51.5038 34.3186 51.6588 34.3066 51.8038 34.2936C52.1608 34.2596 52.4838 34.2186 52.7818 34.1726C52.9838 34.1406 53.1728 34.1076 53.3498 34.0716C53.4358 34.0536 53.5208 34.0356 53.6008 34.0176C53.8418 33.9626 54.0598 33.9036 54.2528 33.8426C54.3318 33.8176 54.4058 33.7916 54.4768 33.7666C54.6228 33.7146 54.7578 33.6606 54.8748 33.6066C54.9398 33.5766 54.9958 33.5466 55.0528 33.5166C55.0568 33.5146 55.0608 33.5126 55.0648 33.5106C55.0898 33.4966 55.1198 33.4836 55.1438 33.4696C55.4088 33.3206 55.5788 33.1746 55.6908 33.0496C55.7108 33.0266 55.7298 33.0046 55.7468 32.9836C55.8048 32.9086 55.8418 32.8436 55.8638 32.7936L55.8808 31.6806L55.8908 31.0826L55.8998 30.4766L55.9058 30.1346L55.9078 30.0266L55.9088 29.9146C55.9098 29.9066 55.9148 29.8986 55.9148 29.8906C55.9148 29.8876 55.9118 29.8846 55.9118 29.8806C55.9118 29.8796 55.9118 29.8776 55.9118 29.8776C55.9118 29.8746 55.9098 29.8726 55.9098 29.8696L55.9138 29.5896H55.7818C55.7768 29.5846 55.7698 29.5796 55.7648 29.5746C55.7228 29.5296 55.6728 29.4846 55.6128 29.4406C55.4768 29.3426 55.2968 29.2496 55.0798 29.1606C54.7518 29.0266 54.3338 28.9056 53.8468 28.8016C53.8188 28.7946 53.7888 28.7896 53.7588 28.7836C53.3568 28.6996 52.9128 28.6256 52.4288 28.5666C51.7828 28.4876 51.0698 28.4336 50.3178 28.4076C50.2218 28.4046 50.1278 28.4006 50.0318 28.3976C49.9148 28.3946 49.7958 28.3936 49.6778 28.3926C49.6388 28.3916 49.5998 28.3916 49.5608 28.3906C49.4748 28.3896 49.3898 28.3876 49.3018 28.3876C49.2378 28.3876 49.1748 28.3896 49.1108 28.3896C45.9978 28.4106 43.4228 28.9176 42.8228 29.5896H42.6898V29.8906V30.1346V32.1696V32.2626V32.5526L42.7398 32.7946C42.8138 32.9606 43.0398 33.2896 43.7298 33.6076ZM54.7128 31.6466V32.3216C54.6638 32.3576 54.5898 32.4056 54.4878 32.4596C54.1828 32.6196 53.6048 32.8356 52.5588 32.9936C52.3498 33.0246 52.1228 33.0536 51.8758 33.0796C51.4178 33.1266 50.8888 33.1626 50.2828 33.1816C50.2088 33.1836 50.1388 33.1866 50.0628 33.1886L50.0118 33.1676L49.5928 32.9926L49.5618 32.9796L49.1108 32.7916L49.0208 32.7546L44.7718 30.9836C45.9118 31.2286 47.4318 31.3806 49.1108 31.3916C49.1748 31.3926 49.2378 31.3946 49.3018 31.3946C49.3898 31.3946 49.4748 31.3916 49.5608 31.3916C49.6808 31.3906 49.8008 31.3896 49.9188 31.3876C49.9498 31.3866 49.9808 31.3866 50.0118 31.3856C50.2668 31.3796 50.5168 31.3696 50.7638 31.3566C51.0808 31.3396 51.3878 31.3186 51.6858 31.2926C51.6958 31.2916 51.7058 31.2906 51.7158 31.2896C52.2948 31.2376 52.8318 31.1676 53.3178 31.0836C53.7958 31.0006 54.2208 30.9026 54.5838 30.7936H54.7118V31.0836V31.6466H54.7128Z" fill="#2988FF"/>
<path fill-rule="evenodd" clip-rule="evenodd" d="M39.9851 68.9397H39.8531C39.8271 68.9107 39.7911 68.8827 39.7581 68.8547C39.7151 68.8827 39.6671 68.9117 39.6181 68.9397C39.5991 68.9507 39.5791 68.9617 39.5591 68.9737C39.4221 69.0497 39.2701 69.1277 39.0872 69.2037C38.0942 69.6167 36.3682 69.9907 33.3732 69.9907C32.5642 69.9907 31.8552 69.9617 31.2212 69.9137L31.2192 70.1427L31.2132 70.6597C31.8912 70.7127 32.6162 70.7427 33.3732 70.7427C35.5332 70.7427 37.4452 70.5067 38.6522 70.1427H38.7832V71.6697C38.5032 71.8817 37.4352 72.4597 34.1332 72.5377L31.2072 71.3177L31.1952 72.4647L31.1942 72.5757C31.1602 72.6637 31.0552 72.8527 30.7872 73.0747C30.7012 73.1467 30.6002 73.2207 30.4752 73.2977C30.4542 73.3107 30.4282 73.3237 30.4062 73.3367C30.5522 73.4297 30.6752 73.5297 30.7842 73.6347C31.5092 73.7067 32.3632 73.7487 33.3732 73.7487C38.8092 73.7487 39.7701 72.5187 39.9351 72.1427L39.9771 69.4837L39.9801 69.2647C39.9811 69.2567 39.9851 69.2487 39.9851 69.2407C39.9851 69.2327 39.9811 69.2257 39.9811 69.2187L39.9851 68.9397Z" fill="#2988FF"/>
<path fill-rule="evenodd" clip-rule="evenodd" d="M39.9852 64.5816H39.8532C39.7522 64.4686 39.5902 64.3606 39.3852 64.2586C39.3132 64.2946 39.2362 64.3296 39.1542 64.3656C38.9832 64.4386 38.7852 64.5116 38.5652 64.5816C38.5592 64.5836 38.5522 64.5856 38.5452 64.5876C37.5022 64.9166 35.8902 65.1816 33.3732 65.1816C30.8552 65.1816 29.2432 64.9166 28.2002 64.5876C28.1932 64.5856 28.1872 64.5836 28.1802 64.5816C27.9602 64.5116 27.7632 64.4396 27.5922 64.3656C27.5102 64.3306 27.4332 64.2946 27.3612 64.2586C27.1552 64.3616 26.9932 64.4696 26.8932 64.5826H26.7602V67.4826C26.8842 67.4986 27.0072 67.5126 27.1282 67.5296C27.1552 67.5336 27.1842 67.5356 27.2102 67.5396C27.7402 67.6176 28.2372 67.7206 28.7022 67.8426C28.9392 67.9046 29.1692 67.9706 29.3812 68.0446C29.4292 68.0606 29.4712 68.0806 29.5172 68.0976C29.7862 68.1986 30.0272 68.3096 30.2422 68.4306C30.3942 68.5166 30.5412 68.6046 30.6612 68.7006C30.7542 68.7766 30.8252 68.8586 30.8962 68.9406C30.9102 68.9566 30.9292 68.9716 30.9422 68.9886C30.9652 69.0166 31.0032 69.0406 31.0232 69.0706H31.1962L31.2112 69.3106C31.8412 69.3596 32.5502 69.3906 33.3722 69.3906C35.5252 69.3906 36.9682 69.1966 37.9462 68.9406C38.0562 68.9116 38.1672 68.8816 38.2662 68.8516C38.5192 68.7736 38.7332 68.6916 38.9162 68.6086C38.9942 68.5736 39.0642 68.5386 39.1302 68.5026C39.2252 68.4526 39.3102 68.4036 39.3852 68.3536C39.7372 68.1216 39.8802 67.9076 39.9332 67.7846L39.9752 65.1256L39.9792 64.9066C39.9792 64.8986 39.9842 64.8906 39.9842 64.8816C39.9842 64.8746 39.9802 64.8676 39.9792 64.8606L39.9852 64.5816ZM38.7822 65.7836V67.3106C38.6522 67.4096 38.3512 67.5866 37.7352 67.7566C37.4812 67.8266 37.1722 67.8956 36.8012 67.9556C36.7422 67.9656 36.6812 67.9746 36.6192 67.9846C35.9792 68.0806 35.1662 68.1536 34.1332 68.1786L33.0832 67.7406L33.0812 67.7396L32.0912 67.3276L28.8432 65.9746C30.0272 66.2276 31.6182 66.3846 33.3732 66.3846C35.5332 66.3846 37.4452 66.1476 38.6522 65.7836H38.7822Z" fill="#2988FF"/>
<path fill-rule="evenodd" clip-rule="evenodd" d="M39.9851 59.7718H39.8531C39.7521 59.6588 39.5901 59.5508 39.3851 59.4488C39.3131 59.4848 39.2361 59.5198 39.1541 59.5558C38.9831 59.6298 38.7861 59.7018 38.5671 59.7718C38.5601 59.7738 38.5531 59.7758 38.5461 59.7778C37.5031 60.1078 35.8901 60.3728 33.3731 60.3728C30.8552 60.3728 29.2432 60.1078 28.2002 59.7778C28.1932 59.7758 28.1852 59.7738 28.1782 59.7718C27.9592 59.7018 27.7632 59.6298 27.5922 59.5558C27.5102 59.5198 27.4332 59.4838 27.3612 59.4488C27.1562 59.5508 26.9942 59.6578 26.8932 59.7708H26.7612V62.7338L26.8112 62.9758C26.8832 63.1408 27.1102 63.4698 27.8002 63.7878C27.9172 63.8418 28.0522 63.8948 28.1972 63.9468C28.2682 63.9728 28.3432 63.9978 28.4222 64.0228C28.6792 64.1048 28.9802 64.1818 29.3242 64.2518C30.2762 64.4458 31.5762 64.5808 33.3731 64.5808C35.1691 64.5808 36.4691 64.4458 37.4201 64.2528C37.7651 64.1828 38.0661 64.1048 38.3241 64.0228C38.4021 63.9978 38.4771 63.9728 38.5481 63.9468C38.6931 63.8948 38.8281 63.8418 38.9451 63.7878C39.6351 63.4698 39.8621 63.1398 39.9341 62.9748L39.9761 60.3158L39.9791 60.0968C39.9801 60.0888 39.9851 60.0808 39.9851 60.0718C39.9851 60.0648 39.9801 60.0578 39.9801 60.0508L39.9851 59.7718ZM34.1331 63.3698L33.0911 62.9348L28.8432 61.1648C30.0262 61.4188 31.6182 61.5748 33.3731 61.5748C35.5341 61.5748 37.4471 61.3388 38.6541 60.9738H38.7821V62.5018C38.5901 62.6468 38.0251 62.9638 36.6281 63.1738C35.9871 63.2708 35.1721 63.3448 34.1331 63.3698Z" fill="#2988FF"/>
<path fill-rule="evenodd" clip-rule="evenodd" d="M39.9851 54.9631H39.8531C39.7521 54.8501 39.5901 54.7421 39.3841 54.6401C39.3121 54.6751 39.2351 54.7111 39.1531 54.7471C38.9821 54.8201 38.7851 54.8931 38.5651 54.9631C38.5591 54.9651 38.5521 54.9671 38.5451 54.9691C37.5021 55.2981 35.8901 55.5631 33.3731 55.5631C30.8562 55.5631 29.2432 55.2981 28.2002 54.9691C28.1942 54.9671 28.1872 54.9651 28.1812 54.9631C27.9612 54.8931 27.7642 54.8211 27.5932 54.7471C27.5112 54.7121 27.4332 54.6761 27.3622 54.6401C27.1562 54.7431 26.9942 54.8511 26.8932 54.9631H26.7612V57.9261L26.8112 58.1681C26.8842 58.3331 27.1102 58.6621 27.8002 58.9791C27.9172 59.0331 28.0522 59.0861 28.1982 59.1391C28.2692 59.1641 28.3442 59.1891 28.4222 59.2141C28.6802 59.2961 28.9802 59.3731 29.3252 59.4431C30.2772 59.6361 31.5772 59.7721 33.3731 59.7721C35.1691 59.7721 36.4691 59.6361 37.4211 59.4431C37.7661 59.3731 38.0661 59.2961 38.3241 59.2141C38.4021 59.1891 38.4771 59.1641 38.5481 59.1381C38.6931 59.0861 38.8291 59.0331 38.9461 58.9791C39.6361 58.6611 39.8621 58.3321 39.9351 58.1661L39.9771 55.5071L39.9801 55.2881C39.9811 55.2801 39.9851 55.2721 39.9851 55.2631C39.9851 55.2561 39.9811 55.2491 39.9811 55.2421L39.9851 54.9631ZM34.1321 58.5601L33.0901 58.1251L28.8432 56.3561C30.0262 56.6101 31.6182 56.7661 33.3731 56.7661C35.5341 56.7661 37.4461 56.5301 38.6531 56.1651H38.7831V57.6931C38.5901 57.8381 38.0251 58.1541 36.6291 58.3641C35.9881 58.4611 35.1711 58.5351 34.1321 58.5601Z" fill="#2988FF"/>
<path fill-rule="evenodd" clip-rule="evenodd" d="M39.9852 50.1544H39.8532C39.7522 50.0414 39.5902 49.9334 39.3852 49.8314C39.3132 49.8664 39.2362 49.9024 39.1542 49.9374C38.9822 50.0114 38.7852 50.0844 38.5652 50.1544C38.5592 50.1564 38.5522 50.1584 38.5452 50.1604C37.5022 50.4894 35.8902 50.7544 33.3732 50.7544C30.8552 50.7544 29.2432 50.4894 28.2002 50.1604C28.1932 50.1584 28.1872 50.1564 28.1802 50.1544C27.9602 50.0844 27.7632 50.0124 27.5922 49.9384C27.5102 49.9024 27.4332 49.8664 27.3612 49.8314C27.1552 49.9334 26.9932 50.0414 26.8932 50.1544H26.7602V53.1164L26.8112 53.3584C26.8832 53.5234 27.1102 53.8524 27.8002 54.1704C27.9172 54.2244 28.0522 54.2774 28.1972 54.3294C28.2692 54.3554 28.3432 54.3804 28.4222 54.4054C28.6802 54.4874 28.9802 54.5644 29.3252 54.6344C30.2772 54.8274 31.5762 54.9634 33.3722 54.9634C35.1682 54.9634 36.4682 54.8274 37.4202 54.6344C37.7652 54.5644 38.0652 54.4874 38.3232 54.4054C38.4022 54.3804 38.4762 54.3554 38.5472 54.3294C38.6922 54.2774 38.8282 54.2244 38.9442 54.1704C39.6352 53.8524 39.8612 53.5224 39.9342 53.3574L39.9762 50.6984L39.9792 50.4794C39.9802 50.4714 39.9842 50.4634 39.9842 50.4544C39.9842 50.4474 39.9802 50.4404 39.9802 50.4334L39.9852 50.1544ZM34.1332 53.7514L33.0912 53.3164L28.8422 51.5474C30.0262 51.8004 31.6172 51.9574 33.3732 51.9574C35.5332 51.9574 37.4452 51.7204 38.6512 51.3574H38.7822V52.8844C38.5902 53.0294 38.0252 53.3454 36.6282 53.5564C35.9872 53.6524 35.1712 53.7264 34.1332 53.7514Z" fill="#2988FF"/>
<path fill-rule="evenodd" clip-rule="evenodd" d="M39.9851 45.3446H39.8531C39.7521 45.2316 39.5901 45.1236 39.3851 45.0216C39.3131 45.0576 39.2361 45.0926 39.1541 45.1286C38.9831 45.2026 38.7871 45.2746 38.5671 45.3446C38.5611 45.3466 38.5531 45.3486 38.5461 45.3506C37.5041 45.6806 35.8911 45.9456 33.3731 45.9456C30.8562 45.9456 29.2432 45.6806 28.2002 45.3506C28.1932 45.3486 28.1852 45.3466 28.1792 45.3446C27.9592 45.2746 27.7632 45.2016 27.5922 45.1286C27.5102 45.0926 27.4332 45.0566 27.3612 45.0216C27.1562 45.1236 26.9942 45.2316 26.8932 45.3446H26.7612V48.3066V48.3076L26.8112 48.5486C26.8832 48.7136 27.1102 49.0436 27.8002 49.3606C27.9172 49.4146 28.0522 49.4676 28.1972 49.5196C28.2682 49.5456 28.3432 49.5706 28.4222 49.5956C28.6792 49.6776 28.9802 49.7546 29.3242 49.8246C30.2762 50.0186 31.5762 50.1536 33.3731 50.1536C35.1691 50.1536 36.4691 50.0186 37.4201 49.8256C37.7651 49.7556 38.0661 49.6776 38.3241 49.5956C38.4021 49.5706 38.4771 49.5456 38.5481 49.5196C38.6931 49.4676 38.8281 49.4146 38.9451 49.3606C39.6361 49.0426 39.8621 48.7126 39.9341 48.5476L39.9761 45.8886L39.9801 45.6696C39.9801 45.6606 39.9851 45.6526 39.9851 45.6446C39.9851 45.6366 39.9811 45.6296 39.9801 45.6226L39.9851 45.3446ZM34.1331 48.9426L33.0911 48.5086L28.8432 46.7376C30.0262 46.9916 31.6182 47.1476 33.3731 47.1476C35.5341 47.1476 37.4471 46.9116 38.6541 46.5466H38.7821V48.0746C38.5901 48.2196 38.0251 48.5366 36.6281 48.7476C35.9871 48.8436 35.1721 48.9186 34.1331 48.9426Z" fill="#2988FF"/>
<path fill-rule="evenodd" clip-rule="evenodd" d="M39.9851 40.536H39.8531C39.7521 40.423 39.5901 40.315 39.3851 40.213C39.3131 40.248 39.2361 40.284 39.1541 40.32C38.9831 40.393 38.7851 40.466 38.5651 40.536C38.5591 40.538 38.5521 40.54 38.5461 40.542C37.5031 40.871 35.8901 41.136 33.3731 41.136C30.8562 41.136 29.2442 40.871 28.2012 40.542C28.1942 40.54 28.1872 40.538 28.1812 40.536C27.9612 40.466 27.7642 40.394 27.5932 40.32C27.5112 40.285 27.4342 40.249 27.3622 40.213C27.1562 40.316 26.9942 40.424 26.8942 40.537H26.7612V43.499V43.5L26.8122 43.741C26.8842 43.906 27.1112 44.235 27.8002 44.553C27.9172 44.607 28.0532 44.659 28.1982 44.712C28.2692 44.738 28.3442 44.763 28.4232 44.788C28.6802 44.87 28.9812 44.947 29.3262 45.017C30.2782 45.21 31.5772 45.346 33.3741 45.346C35.1701 45.346 36.4701 45.21 37.4211 45.017C37.7661 44.947 38.0671 44.87 38.3251 44.788C38.4031 44.763 38.4771 44.738 38.5491 44.712C38.6941 44.66 38.8291 44.607 38.9461 44.553C39.6371 44.235 39.8631 43.906 39.9351 43.74L39.9771 41.081L39.9811 40.862C39.9811 40.854 39.9861 40.846 39.9861 40.837C39.9861 40.83 39.9821 40.823 39.9811 40.816L39.9851 40.536ZM34.1321 44.133L33.0901 43.699L28.8432 41.929C30.0262 42.183 31.6182 42.339 33.3731 42.339C35.5331 42.339 37.4461 42.103 38.6521 41.739H38.7821V43.267C38.5901 43.411 38.0251 43.728 36.6291 43.938C35.9881 44.034 35.1711 44.108 34.1321 44.133Z" fill="#2988FF"/>
<path fill-rule="evenodd" clip-rule="evenodd" d="M39.9851 35.7262H39.8521C39.7521 35.6132 39.5901 35.5062 39.3851 35.4042C39.3131 35.4402 39.2361 35.4752 39.1541 35.5112C38.9831 35.5842 38.7871 35.6562 38.5681 35.7262C38.5611 35.7282 38.5531 35.7312 38.5451 35.7332C37.5021 36.0622 35.8901 36.3272 33.3731 36.3272C30.8552 36.3272 29.2432 36.0622 28.2002 35.7332C28.1922 35.7312 28.1842 35.7282 28.1772 35.7262C27.9582 35.6562 27.7622 35.5842 27.5922 35.5112C27.5102 35.4752 27.4332 35.4402 27.3612 35.4042C27.1562 35.5062 26.9942 35.6142 26.8932 35.7262H26.7612V38.6892L26.8112 38.9312C26.8832 39.0962 27.1102 39.4252 27.8002 39.7432C27.9172 39.7972 28.0522 39.8502 28.1972 39.9022C28.2692 39.9282 28.3432 39.9532 28.4222 39.9782C28.6802 40.0602 28.9802 40.1372 29.3252 40.2072C30.2772 40.4002 31.5762 40.5362 33.3721 40.5362C35.1681 40.5362 36.4681 40.4002 37.4201 40.2072C37.7651 40.1372 38.0651 40.0602 38.3231 39.9782C38.4021 39.9532 38.4761 39.9282 38.5471 39.9022C38.6931 39.8502 38.8281 39.7972 38.9451 39.7432C39.6351 39.4252 39.8621 39.0952 39.9341 38.9302L39.9761 36.2712L39.9791 36.0522C39.9801 36.0442 39.9851 36.0362 39.9851 36.0272C39.9851 36.0202 39.9801 36.0132 39.9801 36.0062L39.9851 35.7262ZM34.1331 39.3242L33.0911 38.8902L28.8432 37.1192C30.0272 37.3732 31.6182 37.5292 33.3731 37.5292C35.5351 37.5292 37.4481 37.2932 38.6551 36.9282H38.7831V38.4562C38.5911 38.6012 38.0261 38.9182 36.6291 39.1292C35.9871 39.2262 35.1721 39.3002 34.1331 39.3242Z" fill="#2988FF"/>
<path fill-rule="evenodd" clip-rule="evenodd" d="M39.9851 30.9176H39.8531C39.7521 30.8046 39.5901 30.6966 39.3841 30.5946C39.3121 30.6306 39.2351 30.6656 39.1531 30.7016C38.9821 30.7756 38.7851 30.8476 38.5651 30.9176C38.5591 30.9196 38.5521 30.9216 38.5451 30.9236C37.5021 31.2526 35.8901 31.5176 33.3731 31.5176C30.8562 31.5176 29.2442 31.2526 28.2012 30.9236C28.1942 30.9216 28.1872 30.9196 28.1812 30.9176C27.9612 30.8476 27.7642 30.7756 27.5932 30.7016C27.5112 30.6666 27.4342 30.6306 27.3622 30.5946C27.1562 30.6976 26.9942 30.8046 26.8932 30.9176H26.7612V33.8806L26.8112 34.1226C26.8832 34.2876 27.1102 34.6166 27.8002 34.9346C27.9172 34.9886 28.0522 35.0416 28.1972 35.0936C28.2682 35.1196 28.3432 35.1446 28.4212 35.1696C28.6792 35.2516 28.9802 35.3286 29.3242 35.3986C30.2632 35.5896 31.5442 35.7226 33.3021 35.7266C33.3271 35.7266 33.3481 35.7276 33.3721 35.7276C33.3971 35.7276 33.4181 35.7266 33.4431 35.7266C35.2011 35.7226 36.4811 35.5896 37.4201 35.3986C37.7651 35.3286 38.0661 35.2516 38.3241 35.1696C38.4021 35.1446 38.4771 35.1196 38.5481 35.0936C38.6931 35.0416 38.8281 34.9886 38.9451 34.9346C39.6351 34.6166 39.8621 34.2866 39.9341 34.1216L39.9761 31.4626L39.9791 31.2436C39.9801 31.2346 39.9851 31.2266 39.9851 31.2186C39.9851 31.2116 39.9801 31.2036 39.9801 31.1966L39.9851 30.9176ZM34.1341 34.5156L33.0911 34.0816L28.8422 32.3106C30.0262 32.5646 31.6172 32.7206 33.3731 32.7206C35.5341 32.7206 37.4471 32.4836 38.6531 32.1196H38.7821V33.6476C38.5901 33.7926 38.0251 34.1096 36.6281 34.3206C35.9871 34.4166 35.1721 34.4916 34.1341 34.5156Z" fill="#2988FF"/>
<path fill-rule="evenodd" clip-rule="evenodd" d="M39.9851 26.1089H39.8531C39.7521 25.9959 39.5901 25.8879 39.3851 25.7859C39.3131 25.8209 39.2361 25.8569 39.1541 25.8919C38.9831 25.9659 38.7851 26.0389 38.5651 26.1089C38.5591 26.1109 38.5521 26.1129 38.5461 26.1149C37.5031 26.4439 35.8901 26.7099 33.3731 26.7099C30.8562 26.7099 29.2442 26.4439 28.2012 26.1149C28.1942 26.1129 28.1872 26.1109 28.1812 26.1089C27.9612 26.0389 27.7642 25.9669 27.5932 25.8929C27.5112 25.8579 27.4342 25.8219 27.3622 25.7859C27.1562 25.8889 26.9942 25.9969 26.8942 26.1099H26.7612V29.0709V29.0719L26.8122 29.3129C26.8842 29.4779 27.1112 29.8079 27.8012 30.1249C27.9182 30.1789 28.0532 30.2319 28.1992 30.2849C28.2702 30.3099 28.3452 30.3359 28.4232 30.3609C28.6812 30.4429 28.9822 30.5199 29.3262 30.5889C30.2782 30.7829 31.5782 30.9179 33.3741 30.9179C35.1701 30.9179 36.4691 30.7829 37.4211 30.5889C37.7661 30.5199 38.0671 30.4429 38.3241 30.3609C38.4031 30.3359 38.4771 30.3099 38.5481 30.2849C38.6941 30.2319 38.8291 30.1789 38.9461 30.1249C39.6371 29.8069 39.8631 29.4769 39.9361 29.3119L39.9781 26.6539L39.9811 26.4349C39.9821 26.4269 39.9861 26.4189 39.9861 26.4099C39.9861 26.4029 39.9821 26.3959 39.9821 26.3889L39.9851 26.1089ZM34.1321 29.7059L33.0901 29.2709L28.8432 27.5019C30.0272 27.7549 31.6182 27.9119 33.3731 27.9119C35.5341 27.9119 37.4461 27.6749 38.6531 27.3109H38.7831V28.8379C38.5911 28.9829 38.0261 29.2999 36.6291 29.5099C35.9871 29.6069 35.1711 29.6809 34.1321 29.7059Z" fill="#2988FF"/>
<path fill-rule="evenodd" clip-rule="evenodd" d="M39.9852 21.2991H39.8522C39.2402 20.6131 36.5722 20.0971 33.3732 20.0971C30.1732 20.0971 27.5062 20.6131 26.8932 21.2991H26.7602V24.2611V24.2621L26.8112 24.5031C26.8832 24.6691 27.1102 24.9981 27.8002 25.3161C27.9172 25.3701 28.0522 25.4221 28.1972 25.4751C28.2682 25.5011 28.3432 25.5261 28.4222 25.5511C28.6792 25.6331 28.9802 25.7101 29.3252 25.7801C30.2772 25.9731 31.5762 26.1091 33.3722 26.1091C35.1682 26.1091 36.4682 25.9731 37.4202 25.7801C37.7652 25.7101 38.0652 25.6331 38.3232 25.5511C38.4022 25.5261 38.4772 25.5001 38.5472 25.4751C38.6932 25.4221 38.8282 25.3691 38.9452 25.3151C39.6352 24.9971 39.8622 24.6681 39.9342 24.5021L39.9762 21.8431L39.9792 21.6241C39.9802 21.6161 39.9852 21.6081 39.9852 21.6001C39.9852 21.5921 39.9802 21.5851 39.9802 21.5781L39.9852 21.2991ZM34.1332 24.8971L33.0912 24.4631L28.8432 22.6921C30.0262 22.9461 31.6182 23.1021 33.3732 23.1021C35.5352 23.1021 37.4482 22.8661 38.6542 22.5011H38.7822V24.0291C38.5902 24.1741 38.0252 24.4911 36.6282 24.7021C35.9872 24.7981 35.1722 24.8731 34.1332 24.8971Z" fill="#2988FF"/>
<path fill-rule="evenodd" clip-rule="evenodd" d="M30.6418 73.7842C30.6358 73.7782 30.6277 73.7722 30.6218 73.7652C30.5638 73.7052 30.4868 73.6462 30.3978 73.5882C30.3308 73.5452 30.2568 73.5022 30.1738 73.4612C30.1218 73.4872 30.0638 73.5132 30.0068 73.5382C29.9848 73.5482 29.9658 73.5582 29.9428 73.5682C29.8798 73.5952 29.8108 73.6222 29.7418 73.6482C29.6218 73.6952 29.4938 73.7402 29.3538 73.7842C29.3478 73.7862 29.3408 73.7882 29.3348 73.7902C29.1838 73.8382 29.0198 73.8842 28.8438 73.9282C27.8028 74.1902 26.3148 74.3842 24.1618 74.3842C21.6448 74.3842 20.0318 74.1192 18.9888 73.7902C18.9828 73.7882 18.9758 73.7862 18.9688 73.7842C18.7488 73.7142 18.5518 73.6422 18.3808 73.5682C18.2988 73.5332 18.2218 73.4972 18.1498 73.4612C17.9438 73.5642 17.7818 73.6722 17.6818 73.7852H17.5488V76.7462V76.7482L17.5988 76.9882C17.7638 77.3652 18.7258 78.5932 24.1618 78.5932C29.5968 78.5932 30.5588 77.3652 30.7238 76.9882L30.7647 74.3282L30.7668 74.2312L30.7688 74.1062C30.7688 74.0992 30.7738 74.0922 30.7738 74.0852C30.7738 74.0782 30.7697 74.0722 30.7697 74.0662L30.7738 73.7842H30.6418ZM29.5718 74.9872V76.5142C29.2908 76.7252 28.2228 77.3032 24.9208 77.3812L19.6318 75.1772C20.8158 75.4302 22.4068 75.5872 24.1618 75.5872C26.3218 75.5872 28.2338 75.3502 29.4408 74.9862H29.5718V74.9872Z" fill="#2988FF"/>
<path fill-rule="evenodd" clip-rule="evenodd" d="M17.5993 72.1793C17.6713 72.3443 17.8983 72.6743 18.5883 72.9913C18.7063 73.0453 18.8403 73.0983 18.9863 73.1513C19.0573 73.1763 19.1323 73.2023 19.2103 73.2273C19.4683 73.3093 19.7693 73.3863 20.1143 73.4563C21.0653 73.6493 22.3653 73.7843 24.1623 73.7843C25.6263 73.7843 26.7573 73.6933 27.6443 73.5563C27.8453 73.5253 28.0343 73.4913 28.2093 73.4563C28.3223 73.4323 28.4353 73.4103 28.5393 73.3853C28.6443 73.3603 28.7383 73.3343 28.8343 73.3073C28.9303 73.2803 29.0253 73.2543 29.1123 73.2263C29.1913 73.2013 29.2653 73.1763 29.3373 73.1503C29.3573 73.1433 29.3803 73.1373 29.3993 73.1293C29.5213 73.0843 29.6333 73.0383 29.7343 72.9913C29.7623 72.9783 29.7863 72.9653 29.8133 72.9523C30.2133 72.7563 30.4453 72.5613 30.5773 72.4023C30.6513 72.3143 30.6983 72.2363 30.7233 72.1793L30.7403 71.1223L30.7483 70.6183L30.7553 70.1413L30.7603 69.8723L30.7653 69.5193L30.7673 69.4203L30.7693 69.2973C30.7693 69.2893 30.7743 69.2833 30.7743 69.2753H30.7733C30.7733 69.2683 30.7703 69.2633 30.7693 69.2573L30.7743 68.9753H30.6403C30.6343 68.9673 30.6243 68.9603 30.6173 68.9533C30.6123 68.9483 30.6063 68.9443 30.6013 68.9393C30.4943 68.8323 30.3353 68.7303 30.1343 68.6343C30.0363 68.5873 29.9293 68.5423 29.8113 68.4973C29.5573 68.4023 29.2603 68.3143 28.9223 68.2343C28.8443 68.2163 28.7623 68.1983 28.6803 68.1803C28.4733 68.1363 28.2553 68.0953 28.0243 68.0583C27.8843 68.0343 27.7403 68.0133 27.5923 67.9933C27.4873 67.9783 27.3843 67.9633 27.2753 67.9503C27.1473 67.9343 27.0133 67.9203 26.8803 67.9073C26.8393 67.9033 26.8003 67.8983 26.7603 67.8943C26.6133 67.8793 26.4613 67.8673 26.3093 67.8553C25.6353 67.8033 24.9143 67.7733 24.1613 67.7733C20.9623 67.7733 18.2943 68.2893 17.6813 68.9753H17.5483V71.9373L17.5493 71.9393L17.5993 72.1793ZM29.5723 70.4683V70.6363V71.7053C29.4643 71.7873 29.2363 71.9233 28.8123 72.0633C28.5143 72.1623 28.1173 72.2633 27.5923 72.3503C27.5353 72.3593 27.4773 72.3683 27.4173 72.3773C27.4023 72.3803 27.3863 72.3823 27.3703 72.3843C27.2563 72.4013 27.1393 72.4173 27.0133 72.4323C26.9483 72.4403 26.8783 72.4473 26.8103 72.4553C26.6593 72.4713 26.5003 72.4863 26.3343 72.5003C25.9153 72.5343 25.4493 72.5603 24.9223 72.5733L23.8803 72.1383L19.6343 70.3693C20.8183 70.6223 22.4073 70.7783 24.1613 70.7783C24.9153 70.7783 25.6353 70.7483 26.3093 70.6953C26.4613 70.6843 26.6133 70.6723 26.7603 70.6573C26.8623 70.6473 26.9593 70.6353 27.0583 70.6253C27.1083 70.6193 27.1603 70.6143 27.2103 70.6083C27.4723 70.5773 27.7233 70.5423 27.9623 70.5043C28.2793 70.4533 28.5773 70.3973 28.8493 70.3353C28.8513 70.3353 28.8523 70.3343 28.8533 70.3343C29.0663 70.2853 29.2603 70.2323 29.4423 70.1773H29.5713V70.4683H29.5723Z" fill="#2988FF"/>
</svg>
