<svg width="96" height="96" viewBox="0 0 96 96" fill="none" xmlns="http://www.w3.org/2000/svg">
<path d="M45.2004 57.7C45.2004 56.3 45.4004 55.3 45.7004 54.5C46.0004 53.7 46.6004 52.8 47.5004 51.9L49.7004 49.6C50.6004 48.5 51.1004 47.4 51.1004 46.1C51.1004 44.9 50.8004 44 50.2004 43.3C49.6004 42.6 48.7004 42.3 47.5004 42.3C46.3004 42.3 45.4004 42.6 44.7004 43.2C44.0004 43.8 43.6004 44.6 43.6004 45.7H40.4004C40.4004 43.9 41.1004 42.4 42.4004 41.2C43.7004 40.1 45.4004 39.5 47.5004 39.5C49.6004 39.5 51.3004 40.1 52.5004 41.2C53.7004 42.4 54.3004 43.9 54.3004 46C54.3004 48 53.4004 50 51.5004 51.9L49.6004 53.7C48.8004 54.6 48.4004 55.9 48.4004 57.7H45.2004ZM45.1004 63.1C45.1004 62.6 45.3004 62.2 45.6004 61.8C45.9004 61.5 46.4004 61.3 47.0004 61.3C47.6004 61.3 48.1004 61.5 48.4004 61.8C48.7004 62.1 48.9004 62.6 48.9004 63.1C48.9004 63.6 48.7004 64 48.4004 64.4C48.1004 64.7 47.6004 64.9 47.0004 64.9C46.4004 64.9 45.9004 64.7 45.6004 64.4C45.3004 64 45.1004 63.6 45.1004 63.1Z" fill="#2988FF"/>
<path d="M74.8002 44.4999C74.0002 43.7999 69.0002 39.0999 63.7002 33.9999C57.7002 28.2999 51.1002 22.0999 50.0002 21.0999C49.7002 20.7999 48.8002 19.9999 47.5002 19.9999C46.2002 19.8999 45.3002 20.7999 45.0002 21.0999C43.9002 22.0999 37.6002 28.0999 31.6002 33.7999C26.2002 38.8999 21.0002 43.6999 20.2002 44.4999C19.0002 45.5999 18.7002 46.8999 19.2002 48.1999C19.6002 49.0999 20.4002 50.0999 22.4002 50.0999C23.9002 50.0999 25.4002 50.0999 26.9002 50.0999C26.9002 57.7999 26.9002 65.3999 26.9002 73.0999C26.9002 75.5999 28.1002 76.7999 30.6002 76.7999H64.2002C66.7002 76.7999 67.9002 75.5999 67.9002 73.0999V49.9999C69.4002 49.9999 70.9002 49.9999 72.4002 49.9999C74.3002 49.9999 75.2002 48.9999 75.6002 48.0999C76.3002 46.8999 76.0002 45.6999 74.8002 44.4999ZM67.5002 45.9999C65.3002 45.9999 64.0002 47.2999 64.0002 49.4999V72.6999H31.0002C31.0002 64.9999 31.0002 57.2999 31.0002 49.4999C31.0002 47.2999 29.7002 45.9999 27.5002 45.9999C26.5002 45.9999 25.5002 45.9999 24.4002 45.9999C26.5002 44.0999 30.3002 40.3999 34.3002 36.5999C40.0002 31.2999 46.0002 25.5999 47.5002 24.1999C49.0002 25.5999 55.2002 31.4999 61.0002 36.8999C64.9002 40.5999 68.6002 44.0999 70.6002 45.9999C69.5002 45.9999 68.5002 45.9999 67.5002 45.9999Z" fill="#1C3553"/>
</svg>
