<svg width="96" height="96" viewBox="0 0 96 96" fill="none" xmlns="http://www.w3.org/2000/svg">
<path d="M38.8565 65.4988C39.1565 65.7988 39.5565 65.8988 39.9565 65.8988C40.3565 65.8988 40.7565 65.7988 41.0565 65.4988L47.9565 58.5988L54.8565 65.4988C55.1565 65.7988 55.5565 65.8988 55.9565 65.8988C56.3565 65.8988 56.7565 65.7988 57.0565 65.4988C57.6565 64.8988 57.6565 63.9988 57.0565 63.3988L50.1565 56.4988L56.9565 49.6988C57.5565 49.0988 57.5565 48.1988 56.9565 47.5988C56.3565 46.9988 55.4565 46.9988 54.8565 47.5988L47.9565 54.2988L41.1565 47.4988C40.5565 46.8988 39.6565 46.8988 39.0565 47.4988C38.4565 48.0988 38.4565 48.9988 39.0565 49.5988L45.8565 56.3988L38.9565 63.2988C38.3565 63.8988 38.3565 64.8988 38.8565 65.4988Z" fill="#2988FF"/>
<path d="M22.9275 49.9989C23.0275 49.9989 23.0275 49.9989 22.9275 49.9989C24.5275 49.9989 26.0275 49.9989 27.5275 49.9989V72.9989C27.5275 75.4989 28.7275 76.6989 31.2275 76.6989H64.8275C67.3275 76.6989 68.5275 75.4989 68.5275 72.9989V49.9989C70.0275 49.9989 71.5275 49.9989 73.0275 49.9989C74.9275 49.9989 75.8275 48.9989 76.2275 48.0989C76.8275 46.7989 76.4275 45.5989 75.2275 44.3989C74.5275 43.6989 70.1275 39.5989 65.3275 34.9989C58.9275 28.9989 51.7275 22.0989 50.5275 20.9989C50.2275 20.6989 49.3275 19.8989 48.0275 19.8989C47.1275 19.8989 46.3275 20.1989 45.5275 20.9989C44.3275 22.1989 36.9275 29.0989 30.5275 35.1989C25.7275 39.7989 21.4275 43.7989 20.7275 44.4989C19.5275 45.5989 19.2275 46.8989 19.7275 48.1989C20.1275 48.9989 21.0275 49.9989 22.9275 49.9989ZM33.3275 38.0989C39.4275 32.2989 46.3275 25.6989 48.0275 24.1989C49.6275 25.6989 56.5275 32.1989 62.6275 37.9989C66.1275 41.2989 69.3275 44.2989 71.1275 46.0989C70.1275 46.0989 69.1275 46.0989 68.0275 46.0989C65.8275 46.0989 64.5275 47.3989 64.5275 49.5989V72.7989H31.5275V49.5989C31.5275 47.3989 30.2275 46.0989 28.0275 46.0989C27.0275 46.0989 26.0275 46.0989 24.9275 46.0989C26.7275 44.2989 29.9275 41.3989 33.3275 38.0989Z" fill="#1C3553"/>
</svg>
