<svg width="96" height="96" viewBox="0 0 96 96" fill="none" xmlns="http://www.w3.org/2000/svg">
<path d="M45.1999 57.7C45.1999 56.3 45.3999 55.3 45.6999 54.5C45.9999 53.7 46.5999 52.8 47.4999 51.9L49.6999 49.6C50.5999 48.5 51.0999 47.4 51.0999 46.1C51.0999 44.9 50.7999 44 50.1999 43.3C49.5999 42.6 48.6999 42.3 47.4999 42.3C46.2999 42.3 45.3999 42.6 44.6999 43.2C43.9999 43.8 43.5999 44.6 43.5999 45.7H40.3999C40.3999 43.9 41.0999 42.4 42.3999 41.2C43.6999 40.1 45.3999 39.5 47.4999 39.5C49.5999 39.5 51.2999 40.1 52.4999 41.2C53.6999 42.4 54.2999 43.9 54.2999 46C54.2999 48 53.3999 50 51.4999 51.9L49.5999 53.7C48.7999 54.6 48.3999 55.9 48.3999 57.7H45.1999ZM45.0999 63.1C45.0999 62.6 45.2999 62.2 45.5999 61.8C45.8999 61.5 46.3999 61.3 46.9999 61.3C47.5999 61.3 48.0999 61.5 48.3999 61.8C48.6999 62.1 48.8999 62.6 48.8999 63.1C48.8999 63.6 48.6999 64 48.3999 64.4C48.0999 64.7 47.5999 64.9 46.9999 64.9C46.3999 64.9 45.8999 64.7 45.5999 64.4C45.2999 64 45.0999 63.6 45.0999 63.1Z" fill="#2988FF"/>
<path d="M74.8002 44.4999C74.0002 43.7999 69.0002 39.0999 63.7002 33.9999C57.7002 28.2999 51.1002 22.0999 50.0002 21.0999C49.7002 20.7999 48.8002 19.9999 47.5002 19.9999C46.2002 19.8999 45.3002 20.7999 45.0002 21.0999C43.9002 22.0999 37.6002 28.0999 31.6002 33.7999C26.2002 38.8999 21.0002 43.6999 20.2002 44.4999C19.0002 45.5999 18.7002 46.8999 19.2002 48.1999C19.6002 49.0999 20.4002 50.0999 22.4002 50.0999C23.9002 50.0999 25.4002 50.0999 26.9002 50.0999C26.9002 57.7999 26.9002 65.3999 26.9002 73.0999C26.9002 75.5999 28.1002 76.7999 30.6002 76.7999H64.2002C66.7002 76.7999 67.9002 75.5999 67.9002 73.0999V49.9999C69.4002 49.9999 70.9002 49.9999 72.4002 49.9999C74.3002 49.9999 75.2002 48.9999 75.6002 48.0999C76.3002 46.8999 76.0002 45.6999 74.8002 44.4999ZM67.5002 45.9999C65.3002 45.9999 64.0002 47.2999 64.0002 49.4999V72.6999H31.0002C31.0002 64.9999 31.0002 57.2999 31.0002 49.4999C31.0002 47.2999 29.7002 45.9999 27.5002 45.9999C26.5002 45.9999 25.5002 45.9999 24.4002 45.9999C26.5002 44.0999 30.3002 40.3999 34.3002 36.5999C40.0002 31.2999 46.0002 25.5999 47.5002 24.1999C49.0002 25.5999 55.2002 31.4999 61.0002 36.8999C64.9002 40.5999 68.6002 44.0999 70.6002 45.9999C69.5002 45.9999 68.5002 45.9999 67.5002 45.9999Z" fill="#1C3553"/>
</svg>
