<svg width="96" height="96" viewBox="0 0 96 96" fill="none" xmlns="http://www.w3.org/2000/svg">
<path d="M45.2 57.7C45.2 56.3 45.4 55.3 45.7 54.5C46 53.7 46.6 52.8 47.5 51.9L49.7 49.6C50.6 48.5 51.1 47.4 51.1 46.1C51.1 44.9 50.8 44 50.2 43.3C49.6 42.6 48.7 42.3 47.5 42.3C46.3 42.3 45.4 42.6 44.7 43.2C44 43.8 43.6 44.6 43.6 45.7H40.4C40.4 43.9 41.1 42.4 42.4 41.2C43.7 40.1 45.4 39.5 47.5 39.5C49.6 39.5 51.3 40.1 52.5 41.2C53.7 42.4 54.3 43.9 54.3 46C54.3 48 53.4 50 51.5 51.9L49.6 53.7C48.8 54.6 48.4 55.9 48.4 57.7H45.2ZM45.1 63.1C45.1 62.6 45.3 62.2 45.6 61.8C45.9 61.5 46.4 61.3 47 61.3C47.6 61.3 48.1 61.5 48.4 61.8C48.7 62.1 48.9 62.6 48.9 63.1C48.9 63.6 48.7 64 48.4 64.4C48.1 64.7 47.6 64.9 47 64.9C46.4 64.9 45.9 64.7 45.6 64.4C45.3 64 45.1 63.6 45.1 63.1Z" fill="#2988FF"/>
<path d="M74.8 44.4999C74 43.7999 69 39.0999 63.7 33.9999C57.7 28.2999 51.1 22.0999 50 21.0999C49.7 20.7999 48.8 19.9999 47.5 19.9999C46.2 19.8999 45.3 20.7999 45 21.0999C43.9 22.0999 37.6 28.0999 31.6 33.7999C26.2 38.8999 21 43.6999 20.2 44.4999C19 45.5999 18.7 46.8999 19.2 48.1999C19.6 49.0999 20.4 50.0999 22.4 50.0999C23.9 50.0999 25.4 50.0999 26.9 50.0999C26.9 57.7999 26.9 65.3999 26.9 73.0999C26.9 75.5999 28.1 76.7999 30.6 76.7999H64.2C66.7 76.7999 67.9 75.5999 67.9 73.0999V49.9999C69.4 49.9999 70.9 49.9999 72.4 49.9999C74.3 49.9999 75.2 48.9999 75.6 48.0999C76.3 46.8999 76 45.6999 74.8 44.4999ZM67.5 45.9999C65.3 45.9999 64 47.2999 64 49.4999V72.6999H31C31 64.9999 31 57.2999 31 49.4999C31 47.2999 29.7 45.9999 27.5 45.9999C26.5 45.9999 25.5 45.9999 24.4 45.9999C26.5 44.0999 30.3 40.3999 34.3 36.5999C40 31.2999 46 25.5999 47.5 24.1999C49 25.5999 55.2 31.4999 61 36.8999C64.9 40.5999 68.6 44.0999 70.6 45.9999C69.5 45.9999 68.5 45.9999 67.5 45.9999Z" fill="#1C3553"/>
</svg>
