<svg width="96" height="96" viewBox="0 0 96 96" fill="none" xmlns="http://www.w3.org/2000/svg">
<path d="M38.8565 65.4988C39.1565 65.7988 39.5565 65.8988 39.9565 65.8988C40.3565 65.8988 40.7565 65.7988 41.0565 65.4988L47.9565 58.5988L54.8565 65.4988C55.1565 65.7988 55.5565 65.8988 55.9565 65.8988C56.3565 65.8988 56.7565 65.7988 57.0565 65.4988C57.6565 64.8988 57.6565 63.9988 57.0565 63.3988L50.1565 56.4988L56.9565 49.6988C57.5565 49.0988 57.5565 48.1988 56.9565 47.5988C56.3565 46.9988 55.4565 46.9988 54.8565 47.5988L47.9565 54.2988L41.1565 47.4988C40.5565 46.8988 39.6565 46.8988 39.0565 47.4988C38.4565 48.0988 38.4565 48.9988 39.0565 49.5988L45.8565 56.3988L38.9565 63.2988C38.3565 63.8988 38.3565 64.8988 38.8565 65.4988Z" fill="#2988FF"/>
<path d="M22.928 49.9989C23.028 49.9989 23.028 49.9989 22.928 49.9989C24.528 49.9989 26.028 49.9989 27.528 49.9989V72.9989C27.528 75.4989 28.728 76.6989 31.228 76.6989H64.828C67.328 76.6989 68.528 75.4989 68.528 72.9989V49.9989C70.028 49.9989 71.528 49.9989 73.028 49.9989C74.928 49.9989 75.828 48.9989 76.228 48.0989C76.828 46.7989 76.428 45.5989 75.228 44.3989C74.528 43.6989 70.128 39.5989 65.328 34.9989C58.928 28.9989 51.728 22.0989 50.528 20.9989C50.228 20.6989 49.328 19.8989 48.028 19.8989C47.128 19.8989 46.328 20.1989 45.528 20.9989C44.328 22.1989 36.928 29.0989 30.528 35.1989C25.728 39.7989 21.428 43.7989 20.728 44.4989C19.528 45.5989 19.228 46.8989 19.728 48.1989C20.128 48.9989 21.028 49.9989 22.928 49.9989ZM33.328 38.0989C39.428 32.2989 46.328 25.6989 48.028 24.1989C49.628 25.6989 56.528 32.1989 62.628 37.9989C66.128 41.2989 69.328 44.2989 71.128 46.0989C70.128 46.0989 69.128 46.0989 68.028 46.0989C65.828 46.0989 64.528 47.3989 64.528 49.5989V72.7989H31.528V49.5989C31.528 47.3989 30.228 46.0989 28.028 46.0989C27.028 46.0989 26.028 46.0989 24.928 46.0989C26.728 44.2989 29.928 41.3989 33.328 38.0989Z" fill="#1C3553"/>
</svg>
