<svg width="96" height="96" viewBox="0 0 96 96" fill="none" xmlns="http://www.w3.org/2000/svg">
<path d="M38.8567 65.4988C39.1567 65.7988 39.5567 65.8988 39.9567 65.8988C40.3567 65.8988 40.7567 65.7988 41.0567 65.4988L47.9567 58.5988L54.8567 65.4988C55.1567 65.7988 55.5567 65.8988 55.9567 65.8988C56.3567 65.8988 56.7567 65.7988 57.0567 65.4988C57.6567 64.8988 57.6567 63.9988 57.0567 63.3988L50.1567 56.4988L56.9567 49.6988C57.5567 49.0988 57.5567 48.1988 56.9567 47.5988C56.3567 46.9988 55.4567 46.9988 54.8567 47.5988L47.9567 54.2988L41.1567 47.4988C40.5567 46.8988 39.6567 46.8988 39.0567 47.4988C38.4567 48.0988 38.4567 48.9988 39.0567 49.5988L45.8567 56.3988L38.9567 63.2988C38.3567 63.8988 38.3567 64.8988 38.8567 65.4988Z" fill="#2988FF"/>
<path d="M22.9279 49.9989C23.0279 49.9989 23.0279 49.9989 22.9279 49.9989C24.5279 49.9989 26.0279 49.9989 27.5279 49.9989V72.9989C27.5279 75.4989 28.7279 76.6989 31.2279 76.6989H64.8279C67.3279 76.6989 68.5279 75.4989 68.5279 72.9989V49.9989C70.0279 49.9989 71.5279 49.9989 73.0279 49.9989C74.9279 49.9989 75.8279 48.9989 76.2279 48.0989C76.8279 46.7989 76.4279 45.5989 75.2279 44.3989C74.5279 43.6989 70.1279 39.5989 65.3279 34.9989C58.9279 28.9989 51.7279 22.0989 50.5279 20.9989C50.2279 20.6989 49.3279 19.8989 48.0279 19.8989C47.1279 19.8989 46.3279 20.1989 45.5279 20.9989C44.3279 22.1989 36.9279 29.0989 30.5279 35.1989C25.7279 39.7989 21.4279 43.7989 20.7279 44.4989C19.5279 45.5989 19.2279 46.8989 19.7279 48.1989C20.1279 48.9989 21.0279 49.9989 22.9279 49.9989ZM33.3279 38.0989C39.4279 32.2989 46.3279 25.6989 48.0279 24.1989C49.6279 25.6989 56.5279 32.1989 62.6279 37.9989C66.1279 41.2989 69.3279 44.2989 71.1279 46.0989C70.1279 46.0989 69.1279 46.0989 68.0279 46.0989C65.8279 46.0989 64.5279 47.3989 64.5279 49.5989V72.7989H31.5279V49.5989C31.5279 47.3989 30.2279 46.0989 28.0279 46.0989C27.0279 46.0989 26.0279 46.0989 24.9279 46.0989C26.7279 44.2989 29.9279 41.3989 33.3279 38.0989Z" fill="#1C3553"/>
</svg>
