<svg width="96" height="96" viewBox="0 0 96 96" fill="none" xmlns="http://www.w3.org/2000/svg">
<path fill-rule="evenodd" clip-rule="evenodd" d="M8.49609 57.0283C8.49609 55.9238 9.39152 55.0283 10.4961 55.0283H19C20.1046 55.0283 21 55.9238 21 57.0283C21 58.1329 20.1046 59.0283 19 59.0283H12.4961V66.6701H86.7183V59.0283H75C73.8954 59.0283 73 58.1329 73 57.0283C73 55.9238 73.8954 55.0283 75 55.0283H88.7183C89.8229 55.0283 90.7183 55.9238 90.7183 57.0283V68.6701C90.7183 69.7747 89.8229 70.6701 88.7183 70.6701H10.4961C9.39152 70.6701 8.49609 69.7747 8.49609 68.6701V57.0283Z" fill="#2988FF"/>
<path fill-rule="evenodd" clip-rule="evenodd" d="M67.2678 36.9761C71.8076 37.6681 75.1349 39.0673 77.5293 40.9083C80.0118 42.8171 81.3837 45.1189 82.0824 47.3361C82.7726 49.5266 82.7952 51.5941 82.6573 53.0893C82.5878 53.8423 82.4761 54.4668 82.3792 54.9118C82.3306 55.1347 82.2854 55.3141 82.2506 55.4436C82.2331 55.5084 82.2182 55.5608 82.2067 55.6001L82.1921 55.6492L82.1869 55.6662L82.1839 55.6757C82.1835 55.6769 82.1832 55.6781 80.2755 55.0775L81.1518 56.8753L81.1062 56.8975L80.9821 56.9575C80.8756 57.0089 80.7235 57.082 80.5394 57.1696C80.1722 57.3445 79.6743 57.5789 79.1567 57.8144C78.6436 58.0479 78.0914 58.2915 77.6217 58.4801C77.3892 58.5735 77.1513 58.6637 76.9356 58.7338L76.9227 58.7381C76.7888 58.7817 76.3943 58.9106 75.9786 58.9106C74.874 58.9106 73.9786 58.0151 73.9786 56.9105C73.9786 55.9011 74.7264 55.0664 75.6981 54.93C75.6985 54.9299 75.6978 54.9301 75.6981 54.93C75.7909 54.8999 75.9358 54.8466 76.1313 54.7681C76.5176 54.613 77.006 54.3984 77.5 54.1736C77.8717 54.0045 78.2354 53.8347 78.5442 53.6888C78.5921 53.4202 78.6399 53.0936 78.6742 52.7218C78.7796 51.579 78.7519 50.0763 78.2673 48.5383C77.7911 47.0271 76.8635 45.442 75.0912 44.0793C73.3021 42.7038 70.5471 41.475 66.3006 40.877C66.0334 40.8394 65.7765 40.7481 65.5455 40.6085C57.6585 35.8451 53.2561 33.6506 50.8694 32.6501C49.6753 32.1496 49.0359 31.9694 48.7504 31.9079C48.7114 31.8995 48.6813 31.8938 48.6592 31.89C48.6356 31.8909 48.612 31.8913 48.5884 31.8913H22.9295C22.9221 32.3826 22.734 32.8667 22.3789 33.24C22.3786 33.2404 22.3793 33.2397 22.3789 33.24L22.3756 33.2436L22.3514 33.2696C22.3279 33.2951 22.2901 33.3366 22.2399 33.393C22.1395 33.5059 21.9905 33.678 21.8091 33.9007C21.4447 34.3482 20.958 34.9898 20.4737 35.759C19.4704 37.3522 18.6328 39.2486 18.6328 41.0061V54.9105H22C23.1046 54.9105 24 55.806 24 56.9105C24 58.0151 23.1046 58.9106 22 58.9106H16.6328C15.5282 58.9106 14.6328 58.0151 14.6328 56.9105V41.0061C14.6328 38.1219 15.9437 35.446 17.0889 33.6275C17.5971 32.8204 18.1037 32.1339 18.5164 31.6128L18.0998 30.8483C17.7621 30.2286 17.776 29.4768 18.1363 28.87C18.4967 28.2632 19.1502 27.8913 19.8559 27.8913H48.488C48.5858 27.8845 48.6847 27.8834 48.7847 27.8871C49.0185 27.8956 49.2836 27.931 49.5926 27.9976C50.2048 28.1294 51.0925 28.4064 52.4158 28.9611C55.0252 30.0549 59.5235 32.3122 67.2678 36.9761ZM75.6201 54.9527C75.6208 54.9521 75.6327 54.9486 75.6539 54.9439C75.6301 54.9509 75.6195 54.9533 75.6201 54.9527ZM80.2755 55.0775L81.1518 56.8753C81.6452 56.6347 82.0183 56.2018 82.1832 55.6781L80.2755 55.0775Z" fill="#1C3553"/>
<path fill-rule="evenodd" clip-rule="evenodd" d="M68 59.0005H32V55.0005H68V59.0005Z" fill="#1C3553"/>
<path fill-rule="evenodd" clip-rule="evenodd" d="M71.4956 45.51C71.4956 44.4054 72.391 43.51 73.4956 43.51H79.0689C80.1735 43.51 81.0689 44.4054 81.0689 45.51C81.0689 46.6146 80.1735 47.51 79.0689 47.51H73.4956C72.391 47.51 71.4956 46.6146 71.4956 45.51Z" fill="#1C3553"/>
<path fill-rule="evenodd" clip-rule="evenodd" d="M25.1261 29.5554C25.8438 29.5367 26.4408 30.1034 26.4594 30.8212L26.6879 39.6124H62.8389L65.4388 37.273C65.9725 36.7927 66.7944 36.8361 67.2747 37.3698C67.7549 37.9035 67.7116 38.7255 67.1779 39.2057L64.2072 41.8788C63.9685 42.0936 63.6588 42.2124 63.3376 42.2124H25.4212C24.7164 42.2124 24.14 41.6507 24.1216 40.9462L23.8603 30.8887C23.8417 30.171 24.4084 29.574 25.1261 29.5554Z" fill="#1C3553"/>
<path fill-rule="evenodd" clip-rule="evenodd" d="M38.6952 29.3863C39.3147 29.0236 40.1111 29.2318 40.4738 29.8514L45.9263 39.1645C46.289 39.7841 46.0808 40.5804 45.4612 40.9432C44.8416 41.3059 44.0453 41.0977 43.6825 40.4781L38.2301 31.165C37.8673 30.5454 38.0756 29.7491 38.6952 29.3863Z" fill="#1C3553"/>
<path fill-rule="evenodd" clip-rule="evenodd" d="M43.9937 45.8703C43.9937 45.1523 44.5757 44.5703 45.2937 44.5703H46.8385C47.5565 44.5703 48.1385 45.1523 48.1385 45.8703C48.1385 46.5883 47.5565 47.1703 46.8385 47.1703H45.2937C44.5757 47.1703 43.9937 46.5883 43.9937 45.8703Z" fill="#1C3553"/>
<path fill-rule="evenodd" clip-rule="evenodd" d="M15.4116 45.51C15.4116 44.4054 16.3071 43.51 17.4116 43.51H21.4916C22.5962 43.51 23.4916 44.4054 23.4916 45.51C23.4916 46.6146 22.5962 47.51 21.4916 47.51H17.4116C16.3071 47.51 15.4116 46.6146 15.4116 45.51Z" fill="#1C3553"/>
<path fill-rule="evenodd" clip-rule="evenodd" d="M27.1025 54.7788C25.8104 54.7788 24.8394 55.7902 24.8394 56.951C24.8394 58.1084 25.8104 59.1215 27.1025 59.1215C28.3946 59.1215 29.3656 58.1084 29.3656 56.951C29.3656 55.7902 28.3946 54.7788 27.1025 54.7788ZM20.8394 56.951C20.8394 53.4997 23.6835 50.7788 27.1025 50.7788C30.5215 50.7788 33.3656 53.4997 33.3656 56.951C33.3656 60.3989 30.5215 63.1215 27.1025 63.1215C23.6835 63.1215 20.8394 60.3989 20.8394 56.951Z" fill="#1C3553"/>
<path fill-rule="evenodd" clip-rule="evenodd" d="M70.4799 54.7788C69.1878 54.7788 68.2168 55.7902 68.2168 56.951C68.2168 58.1084 69.1878 59.1215 70.4799 59.1215C71.772 59.1215 72.743 58.1084 72.743 56.951C72.743 55.7902 71.772 54.7788 70.4799 54.7788ZM64.2168 56.951C64.2168 53.4997 67.0609 50.7788 70.4799 50.7788C73.8989 50.7788 76.743 53.4997 76.743 56.951C76.743 60.3989 73.8989 63.1215 70.4799 63.1215C67.0609 63.1215 64.2168 60.3989 64.2168 56.951Z" fill="#1C3553"/>
</svg>
