<svg width="96" height="96" viewBox="0 0 96 96" fill="none" xmlns="http://www.w3.org/2000/svg">
<path fill-rule="evenodd" clip-rule="evenodd" d="M59.4927 38.3996C59.4927 37.6772 60.0783 37.0916 60.8007 37.0916H65.6007C66.3231 37.0916 66.9087 37.6772 66.9087 38.3996V44.7997C66.9087 45.5221 66.3231 46.1077 65.6007 46.1077H60.8007C60.0783 46.1077 59.4927 45.5221 59.4927 44.7997V38.3996ZM62.1087 39.7076V43.4917H64.2927V39.7076H62.1087Z" fill="#1C3553"/>
<path fill-rule="evenodd" clip-rule="evenodd" d="M45.0927 38.3996C45.0927 37.6772 45.6783 37.0916 46.4007 37.0916H51.2007C51.9231 37.0916 52.5087 37.6772 52.5087 38.3996V44.7997C52.5087 45.5221 51.9231 46.1077 51.2007 46.1077H46.4007C45.6783 46.1077 45.0927 45.5221 45.0927 44.7997V38.3996ZM47.7087 39.7076V43.4917H49.8927V39.7076H47.7087Z" fill="#1C3553"/>
<path fill-rule="evenodd" clip-rule="evenodd" d="M39.5698 22.2738C39.5698 22.2738 39.556 17.7945 39.5612 14.1778C39.5629 13.1988 39.954 12.812 40.9379 12.8051C42.4129 12.7983 43.8861 12.7966 45.3593 12.8068C46.326 12.8137 46.7223 13.2262 46.7292 14.2018C46.7361 15.0422 46.712 14.7632 46.7395 15.6019L39.5698 22.2738Z" fill="#1C3553"/>
<path fill-rule="evenodd" clip-rule="evenodd" d="M33.2968 35.7257C33.1718 35.7262 33.0329 35.7268 32.8754 35.7274C31.9475 35.7311 31.1924 34.982 31.1886 34.0541C31.1849 33.1263 31.9341 32.3711 32.8619 32.3674C33.0183 32.3667 33.1567 32.3662 33.2814 32.3657C34.1792 32.3619 34.3677 32.3611 35.4979 32.3657C36.152 32.3687 37.1026 32.4666 37.8225 33.1844C38.5463 33.906 38.6409 34.857 38.6409 35.5074V43.2011C38.6409 44.129 37.8888 44.8816 36.9609 44.8816C36.0331 44.8816 35.2809 44.1294 35.2809 43.2016V35.7255C34.3417 35.7219 34.131 35.7222 33.2968 35.7257Z" fill="#1C3553"/>
<path fill-rule="evenodd" clip-rule="evenodd" d="M56.2046 11.3292C57.1789 11.2357 57.9672 11.6774 58.5816 12.2485C59.2612 12.8802 59.3 13.9432 58.6683 14.6228C58.0366 15.3024 56.9736 15.3413 56.294 14.7096C56.2909 14.7066 56.2878 14.7037 56.2847 14.701C56.2519 14.7028 56.2163 14.7039 56.1782 14.7038C56.1408 14.7039 56.1058 14.7028 56.0734 14.701M56.065 14.7088C55.3151 15.4075 52.2004 18.1699 48.4807 21.4688C47.4595 22.3745 46.3927 23.3206 45.3167 24.2755C40.2903 28.7366 35.0529 33.3998 33.1574 35.1812C32.4813 35.8166 31.4181 35.7836 30.7827 35.1075C30.1473 34.4313 30.1803 33.3681 30.8564 32.7327C32.7965 30.9094 38.082 26.204 43.0864 21.7624C44.1826 20.7895 45.2649 19.8296 46.2968 18.9145C50.0037 15.6269 53.06 12.9163 53.775 12.25L53.7766 12.2485C54.3896 11.6786 55.1782 11.2354 56.1524 11.3292C56.1612 11.3297 56.1698 11.3301 56.1782 11.3307C56.1868 11.3301 56.1956 11.3296 56.2046 11.3292" fill="#1C3553"/>
<path fill-rule="evenodd" clip-rule="evenodd" d="M79.2889 32.3656C79.4136 32.3662 79.552 32.3667 79.7084 32.3674C80.6363 32.3711 81.3854 33.1263 81.3817 34.0541C81.378 34.982 80.6228 35.7311 79.695 35.7274C79.5374 35.7268 79.3985 35.7262 79.2735 35.7257C78.4393 35.7222 78.2286 35.7213 77.2894 35.7249V45.9372L75.6094 45.9381L73.9294 45.938V35.5074C73.9294 34.857 74.024 33.906 74.7478 33.1844C75.4677 32.4666 76.4172 32.3687 77.0713 32.3657C78.2015 32.3611 78.3911 32.3619 79.2889 32.3656ZM75.6094 45.9381L73.9294 45.938C73.9294 46.8659 74.6815 47.6181 75.6094 47.6181C76.5372 47.6181 77.2894 46.8651 77.2894 45.9372L75.6094 45.9381Z" fill="#1C3553"/>
<path fill-rule="evenodd" clip-rule="evenodd" d="M56.2856 14.701C56.2825 14.7037 56.2794 14.7066 56.2763 14.7096C55.5967 15.3413 54.5337 15.3024 53.902 14.6228C53.2703 13.9432 53.3091 12.8802 53.9887 12.2485C54.6031 11.6774 55.3914 11.2357 56.3657 11.3292C56.3747 11.3296 56.3835 11.3301 56.3921 11.3307C56.4005 11.3301 56.4091 11.3297 56.4179 11.3292C57.3921 11.2354 58.1807 11.6786 58.7937 12.2485L58.7953 12.25C59.5103 12.9163 62.5667 15.627 66.2737 18.9147C67.3055 19.8298 68.3877 20.7896 69.4839 21.7624C74.4883 26.204 79.7738 30.9094 81.7139 32.7327C82.39 33.3681 82.423 34.4313 81.7876 35.1075C81.1522 35.7836 80.089 35.8166 79.4129 35.1812C77.5174 33.3998 72.28 28.7366 67.2536 24.2755C66.1776 23.3206 65.1108 22.3745 64.0896 21.4688C60.3702 18.1702 57.2556 15.4079 56.5055 14.709C56.5052 14.7087 56.5048 14.7084 56.5045 14.7081L56.5119 14.7002C56.507 14.7005 56.502 14.7008 56.4969 14.701C56.4919 14.6964 56.487 14.692 56.4823 14.6879C56.4743 14.6877 56.4662 14.6874 56.4581 14.6871L56.4588 14.7024C56.4358 14.7033 56.4135 14.7038 56.3921 14.7038C56.3706 14.7038 56.3483 14.7033 56.3254 14.7024L56.326 14.6871C56.3173 14.6874 56.3087 14.6877 56.3 14.6879M56.3264 14.6768L56.326 14.6864C56.3176 14.6866 56.3092 14.6868 56.3011 14.6869M56.4577 14.6768L56.4581 14.6864C56.466 14.6866 56.4737 14.6868 56.4813 14.6869C56.4768 14.6829 56.4725 14.6791 56.4684 14.6755C56.4648 14.676 56.4613 14.6764 56.4577 14.6768ZM56.4573 14.666C56.4608 14.669 56.4645 14.6721 56.4683 14.6755L56.4573 14.666ZM56.3264 14.6767C56.3224 14.6763 56.3183 14.6758 56.3143 14.6753C56.3187 14.6715 56.3229 14.6678 56.3269 14.6645L56.3264 14.6767ZM56.3142 14.6753C56.3183 14.6758 56.3223 14.6763 56.3264 14.6768L56.3142 14.6753ZM56.3921 14.7038C56.4295 14.7039 56.4645 14.7028 56.4969 14.701C56.4997 14.7036 56.5026 14.7063 56.5055 14.709C56.5057 14.7092 56.5059 14.7094 56.5061 14.7096L56.5151 14.6999C56.5291 14.699 56.5426 14.698 56.5556 14.6968C56.6079 14.6922 56.6536 14.6859 56.6901 14.68M56.2856 14.701C56.3184 14.7028 56.354 14.7039 56.3921 14.7038L56.2856 14.701Z" fill="#1C3553"/>
<path fill-rule="evenodd" clip-rule="evenodd" d="M12.4813 37.3383C12.4813 36.0128 13.5558 34.9382 14.8813 34.9382H27.1892C28.1111 34.9382 28.9514 35.4663 29.3515 36.2968L44.0825 66.8823H64.113C65.4385 66.8823 66.513 67.9569 66.513 69.2824C66.513 70.6079 65.4385 71.6824 64.113 71.6824H42.5746C41.6527 71.6824 40.8123 71.1544 40.4123 70.3238L25.6813 39.7383H14.8813C13.5558 39.7383 12.4813 38.6638 12.4813 37.3383Z" fill="#2988FF"/>
<path fill-rule="evenodd" clip-rule="evenodd" d="M80.3564 49.2493C81.5434 49.8392 82.0274 51.2797 81.4376 52.4667L72.5499 70.3515C72.1444 71.1675 71.3119 71.6835 70.4007 71.6835H48.9794C47.6539 71.6835 46.5794 70.6089 46.5794 69.2834C46.5794 67.9579 47.6539 66.8834 48.9794 66.8834H68.9134L77.1391 50.3305C77.729 49.1435 79.1694 48.6595 80.3564 49.2493Z" fill="#2988FF"/>
<path fill-rule="evenodd" clip-rule="evenodd" d="M44.2964 81.9877C46.5657 81.9877 48.406 80.1597 48.406 77.9055C48.406 75.6513 46.5657 73.8232 44.2964 73.8232C42.0271 73.8232 40.1869 75.6513 40.1869 77.9055C40.1869 80.1597 42.0271 81.9877 44.2964 81.9877Z" fill="#2988FF"/>
<path fill-rule="evenodd" clip-rule="evenodd" d="M67.4968 81.9877C69.7661 81.9877 71.6063 80.1597 71.6063 77.9055C71.6063 75.6513 69.7661 73.8232 67.4968 73.8232C65.2275 73.8232 63.3873 75.6513 63.3873 77.9055C63.3873 80.1597 65.2275 81.9877 67.4968 81.9877Z" fill="#2988FF"/>
<path fill-rule="evenodd" clip-rule="evenodd" d="M33.1926 50H80.4073V54.0001H33.1926V50Z" fill="#2988FF"/>
</svg>
