<svg width="96" height="96" viewBox="0 0 96 96" fill="none" xmlns="http://www.w3.org/2000/svg">
<path fill-rule="evenodd" clip-rule="evenodd" d="M69.9635 60.0459C70.4907 59.4803 71.3765 59.4491 71.9422 59.9763L75.6976 63.4763C76.2632 64.0035 76.2944 64.8893 75.7672 65.455C75.24 66.0206 74.3542 66.0518 73.7885 65.5246L70.0332 62.0246C69.4675 61.4975 69.4363 60.6116 69.9635 60.0459ZM81.2296 70.5459C81.7568 69.9803 82.6427 69.9491 83.2083 70.4763L86.9637 73.9763C87.3845 74.3684 87.5226 74.9781 87.3118 75.5133C87.1011 76.0486 86.5844 76.4004 86.0092 76.4004H82.2592C81.486 76.4004 80.8592 75.7736 80.8592 75.0004C80.8592 74.2272 81.486 73.6004 82.2592 73.6004H82.4536L81.2993 72.5246C80.7337 71.9974 80.7025 71.1115 81.2296 70.5459ZM9.60935 75.0004C9.60935 74.2272 10.2362 73.6004 11.0094 73.6004H14.7593C15.5325 73.6004 16.1593 74.2272 16.1593 75.0004C16.1593 75.7736 15.5325 76.4004 14.7593 76.4004H11.0094C10.2362 76.4004 9.60935 75.7736 9.60935 75.0004ZM20.8593 75.0004C20.8593 74.2272 21.4861 73.6004 22.2593 73.6004H29.7593C30.5325 73.6004 31.1593 74.2272 31.1593 75.0004C31.1593 75.7736 30.5325 76.4004 29.7593 76.4004H22.2593C21.4861 76.4004 20.8593 75.7736 20.8593 75.0004ZM35.8593 75.0004C35.8593 74.2272 36.4861 73.6004 37.2593 73.6004H44.7593C45.5325 73.6004 46.1593 74.2272 46.1593 75.0004C46.1593 75.7736 45.5325 76.4004 44.7593 76.4004H37.2593C36.4861 76.4004 35.8593 75.7736 35.8593 75.0004ZM50.8593 75.0004C50.8593 74.2272 51.4861 73.6004 52.2593 73.6004H59.7592C60.5324 73.6004 61.1592 74.2272 61.1592 75.0004C61.1592 75.7736 60.5324 76.4004 59.7592 76.4004H52.2593C51.4861 76.4004 50.8593 75.7736 50.8593 75.0004ZM65.8592 75.0004C65.8592 74.2272 66.486 73.6004 67.2592 73.6004H74.7592C75.5324 73.6004 76.1592 74.2272 76.1592 75.0004C76.1592 75.7736 75.5324 76.4004 74.7592 76.4004H67.2592C66.486 76.4004 65.8592 75.7736 65.8592 75.0004Z" fill="#2988FF"/>
<path fill-rule="evenodd" clip-rule="evenodd" d="M41.6457 18.3173C42.3017 18.3173 42.9027 18.6842 43.2024 19.2677L53.0817 38.5002C53.3604 39.0427 53.3365 39.6911 53.0187 40.2117C52.7009 40.7322 52.135 41.0498 51.5251 41.0498H50.8663L56.0584 51.1593C56.337 51.7019 56.3131 52.3503 55.9953 52.8708C55.6775 53.3913 55.1116 53.7088 54.5017 53.7088H53.1575L56.0424 59.3241H70.5229C71.1028 59.3241 71.5729 59.7942 71.5729 60.3741C71.5729 60.954 71.1028 61.4241 70.5229 61.4241H57.0942C57.2468 61.903 57.1872 62.4302 56.9204 62.8672C56.6026 63.3878 56.0366 63.7053 55.4267 63.7053H44.4444V67.088C44.4444 68.0545 43.6609 68.838 42.6944 68.838H40.5992C39.6327 68.838 38.8492 68.0545 38.8492 67.088V63.7053H27.8658C27.256 63.7053 26.6901 63.3878 26.3722 62.8673C26.1054 62.4302 26.0458 61.903 26.1984 61.4241H25.3135L10.3709 75.901C9.95444 76.3045 9.2897 76.294 8.88619 75.8775C8.48268 75.461 8.49321 74.7962 8.9097 74.3927L24.1577 59.62C24.3536 59.4302 24.6156 59.3241 24.8883 59.3241H27.25L30.1343 53.7088H28.7898C28.1799 53.7088 27.614 53.3913 27.2962 52.8707C26.9784 52.3501 26.9545 51.7017 27.2332 51.1591L32.4268 41.0498H31.7685C31.1586 41.0498 30.5928 40.7323 30.2749 40.2118C29.9571 39.6912 29.9332 39.0428 30.2118 38.5003L40.0891 19.2679C40.3888 18.6843 40.9897 18.3174 41.6457 18.3173ZM34.6346 37.5498H35.2933C35.9032 37.5498 36.4691 37.8673 36.7869 38.3879C37.1047 38.9085 37.1286 39.5569 36.8499 40.0995L31.6563 50.2088H33.0005C33.6104 50.2088 34.1763 50.5264 34.4941 51.0469C34.8119 51.5674 34.8358 52.2159 34.5572 52.7584L30.7321 60.2053H35.5094V60.2001H47.5094V60.2053H52.5602L48.7344 52.7585C48.4557 52.216 48.4796 51.5675 48.7974 51.047C49.1152 50.5264 49.6811 50.2088 50.291 50.2088H51.6357L46.4436 40.0993C46.165 39.5568 46.1889 38.9083 46.5067 38.3878C46.8245 37.8673 47.3904 37.5498 48.0003 37.5498H48.6588L41.6459 23.8976L34.6346 37.5498Z" fill="#1C3553"/>
</svg>
