<svg width="96" height="96" viewBox="0 0 96 96" fill="none" xmlns="http://www.w3.org/2000/svg">
<path fill-rule="evenodd" clip-rule="evenodd" d="M23.7 58.9287C24.0722 58.5727 24.5674 58.374 25.0824 58.374H29.7726C30.8772 58.374 31.7726 59.2695 31.7726 60.374C31.7726 61.4786 30.8772 62.374 29.7726 62.374H25.8848L14.6211 73.1468H81.771L70.5072 62.374H56.5082C55.4036 62.374 54.5082 61.4786 54.5082 60.374C54.5082 59.2695 55.4036 58.374 56.5082 58.374H71.3097C71.8247 58.374 72.3199 58.5727 72.692 58.9287L88.1381 73.7015C88.7286 74.2662 88.9161 75.1333 88.6119 75.8916C88.3077 76.6498 87.5728 77.1468 86.7557 77.1468H9.63631C8.81927 77.1468 8.08439 76.6498 7.78015 75.8916C7.4759 75.1333 7.66349 74.2662 8.25395 73.7015L23.7 58.9287Z" fill="#2988FF"/>
<path fill-rule="evenodd" clip-rule="evenodd" d="M58.3316 62.6514C58.6841 62.4308 59.1488 62.5377 59.3694 62.8902L66.8184 74.7907C67.0391 75.1432 66.9322 75.6079 66.5797 75.8285C66.2272 76.0492 65.7625 75.9423 65.5419 75.5898L58.0929 63.6892C57.8722 63.3367 57.9791 62.8721 58.3316 62.6514ZM36.8656 62.8902C37.0863 62.5377 37.5509 62.4308 37.9034 62.6515C38.2559 62.8721 38.3628 63.3368 38.1421 63.6893L30.6921 75.5898C30.4714 75.9423 30.0068 76.0491 29.6543 75.8285C29.3018 75.6078 29.1949 75.1432 29.4156 74.7907L36.8656 62.8902ZM47.715 63.2897C47.715 62.8739 48.0521 62.5367 48.468 62.5367C48.8839 62.5367 49.221 62.8739 49.221 63.2897V75.68C49.221 76.0958 48.8839 76.433 48.468 76.433C48.0521 76.433 47.715 76.0958 47.715 75.68V63.2897ZM30.683 62.8731C30.9614 62.5642 31.4376 62.5395 31.7465 62.818C32.0554 63.0964 32.0801 63.5726 31.8016 63.8814L31.522 63.6294L31.8016 63.8814L21.3168 75.5132C21.0383 75.8221 20.5622 75.8467 20.2533 75.5683L20.5054 75.2886L20.2533 75.5683C19.9444 75.2899 19.9197 74.8137 20.1982 74.5048L30.683 62.8731L30.9627 63.1252L30.683 62.8731ZM64.4875 62.818C64.7964 62.5395 65.2726 62.5642 65.551 62.8731L76.0358 74.5048C76.3143 74.8137 76.2896 75.2899 75.9807 75.5683C75.6718 75.8467 75.1957 75.8221 74.9172 75.5132L64.4324 63.8814C64.1539 63.5725 64.1786 63.0964 64.4875 62.818ZM42.8473 64.051C43.0027 63.6652 43.4414 63.4785 43.8271 63.6339C44.2129 63.7893 44.3996 64.2279 44.2443 64.6137L39.6022 76.1375C39.4468 76.5232 39.0082 76.71 38.6224 76.5546C38.2367 76.3992 38.0499 75.9605 38.2053 75.5748L42.8473 64.051ZM52.4069 63.6339C52.7926 63.4785 53.2313 63.6652 53.3867 64.051L58.0287 75.5748C58.1841 75.9605 57.9973 76.3992 57.6116 76.5546C57.2258 76.71 56.7872 76.5232 56.6318 76.1375L51.9897 64.6137C51.8344 64.2279 52.0211 63.7893 52.4069 63.6339Z" fill="#2988FF"/>
<path fill-rule="evenodd" clip-rule="evenodd" d="M19.5605 66.1685C19.5605 65.7527 19.8976 65.4155 20.3135 65.4155H76.7609C77.1767 65.4155 77.5139 65.7527 77.5139 66.1685C77.5139 66.5844 77.1767 66.9215 76.7609 66.9215H20.3135C19.8976 66.9215 19.5605 66.5844 19.5605 66.1685ZM15.3064 69.6293C15.3064 69.2135 15.6435 68.8763 16.0594 68.8763H80.1744C80.5902 68.8763 80.9274 69.2135 80.9274 69.6293C80.9274 70.0452 80.5902 70.3823 80.1744 70.3823H16.0594C15.6435 70.3823 15.3064 70.0452 15.3064 69.6293Z" fill="#2988FF"/>
<path fill-rule="evenodd" clip-rule="evenodd" d="M42.0586 18.3171C42.7113 18.3171 43.3098 18.6803 43.6111 19.2593L53.6187 38.4918C53.901 39.0343 53.8796 39.6848 53.5623 40.2076C53.245 40.7303 52.6778 41.0496 52.0663 41.0496H51.3788L56.634 51.151C56.9163 51.6935 56.8949 52.3439 56.5776 52.8667C56.2603 53.3894 55.6931 53.7086 55.0816 53.7086H53.6997L57.571 61.1473C57.8533 61.6898 57.8319 62.3403 57.5146 62.8631C57.1974 63.3859 56.6302 63.7051 56.0186 63.7051H44.8709V67.0878C44.8709 68.0543 44.0874 68.8378 43.1209 68.8378H40.9985C40.032 68.8378 39.2485 68.0543 39.2485 67.0878V63.7051H28.0997C27.4882 63.7051 26.921 63.3859 26.6037 62.8631C26.2864 62.3404 26.265 61.6899 26.5473 61.1474L30.4178 53.7086H29.0357C28.4242 53.7086 27.857 53.3894 27.5397 52.8666C27.2224 52.3438 27.201 51.6933 27.4834 51.1508L32.7401 41.0496H32.0531C31.4416 41.0496 30.8744 40.7304 30.5571 40.2076C30.2398 39.6849 30.2184 39.0344 30.5006 38.4919L40.5062 19.2595C40.8074 18.6804 41.4059 18.3172 42.0586 18.3171ZM34.9362 37.5496H35.6237C36.2352 37.5496 36.8024 37.8688 37.1197 38.3916C37.437 38.9144 37.4583 39.565 37.176 40.1074L31.9192 50.2086H33.3011C33.9126 50.2086 34.4798 50.5279 34.7971 51.0506C35.1144 51.5734 35.1358 52.2239 34.8535 52.7664L30.983 60.2051H40.9985C41.3975 60.2051 41.7653 60.3387 42.0597 60.5635C42.3541 60.3387 42.7219 60.2051 43.1209 60.2051H53.1351L49.2638 52.7665C48.9815 52.224 49.0029 51.5735 49.3202 51.0507C49.6375 50.5279 50.2047 50.2086 50.8162 50.2086H52.1985L46.9432 40.1072C46.661 39.5648 46.6824 38.9143 46.9997 38.3915C47.317 37.8688 47.8842 37.5496 48.4957 37.5496H49.1829L42.0588 23.8586L34.9362 37.5496Z" fill="#1C3553"/>
</svg>
