<svg width="96" height="96" viewBox="0 0 96 96" fill="none" xmlns="http://www.w3.org/2000/svg">
<path fill-rule="evenodd" clip-rule="evenodd" d="M23.7005 58.9287C24.0727 58.5727 24.5678 58.374 25.0828 58.374H29.7731C30.8777 58.374 31.7731 59.2695 31.7731 60.374C31.7731 61.4786 30.8777 62.374 29.7731 62.374H25.8853L14.6215 73.1468H81.7715L70.5077 62.374H56.5086C55.4041 62.374 54.5086 61.4786 54.5086 60.374C54.5086 59.2695 55.4041 58.374 56.5086 58.374H71.3102C71.8252 58.374 72.3203 58.5727 72.6925 58.9287L88.1386 73.7015C88.729 74.2662 88.9166 75.1333 88.6124 75.8916C88.3081 76.6498 87.5732 77.1468 86.7562 77.1468H9.63679C8.81975 77.1468 8.08486 76.6498 7.78062 75.8916C7.47638 75.1333 7.66397 74.2662 8.25442 73.7015L23.7005 58.9287Z" fill="#2988FF"/>
<path fill-rule="evenodd" clip-rule="evenodd" d="M58.3321 62.6515C58.6846 62.4309 59.1492 62.5378 59.3698 62.8903L66.8188 74.7908C67.0395 75.1433 66.9326 75.6079 66.5801 75.8286C66.2276 76.0492 65.7629 75.9423 65.5423 75.5898L58.0933 63.6893C57.8727 63.3368 57.9795 62.8722 58.3321 62.6515ZM36.866 62.8902C37.0867 62.5377 37.5513 62.4309 37.9038 62.6515C38.2563 62.8722 38.3632 63.3368 38.1425 63.6893L30.6925 75.5899C30.4718 75.9423 30.0072 76.0492 29.6547 75.8285C29.3022 75.6079 29.1953 75.1432 29.416 74.7907L36.866 62.8902ZM47.7154 63.2898C47.7154 62.8739 48.0525 62.5368 48.4684 62.5368C48.8843 62.5368 49.2214 62.8739 49.2214 63.2898V75.68C49.2214 76.0959 48.8843 76.433 48.4684 76.433C48.0525 76.433 47.7154 76.0959 47.7154 75.68V63.2898ZM30.6834 62.8732C30.9619 62.5643 31.438 62.5396 31.7469 62.818C32.0558 63.0965 32.0805 63.5726 31.802 63.8815L31.5224 63.6294L31.802 63.8815L21.3172 75.5132C21.0388 75.8221 20.5626 75.8468 20.2537 75.5684L20.5058 75.2887L20.2537 75.5684C19.9448 75.2899 19.9201 74.8138 20.1986 74.5049L30.6834 62.8732L30.9631 63.1253L30.6834 62.8732ZM64.4879 62.818C64.7968 62.5396 65.273 62.5643 65.5514 62.8732L76.0363 74.5049C76.3147 74.8138 76.29 75.2899 75.9811 75.5684C75.6722 75.8468 75.1961 75.8221 74.9176 75.5132L64.4328 63.8815C64.1543 63.5726 64.179 63.0965 64.4879 62.818ZM42.8477 64.051C43.0031 63.6653 43.4418 63.4786 43.8276 63.6339C44.2133 63.7893 44.4001 64.228 44.2447 64.6138L39.6026 76.1375C39.4473 76.5233 39.0086 76.71 38.6228 76.5546C38.2371 76.3993 38.0503 75.9606 38.2057 75.5748L42.8477 64.051ZM52.4073 63.6339C52.793 63.4786 53.2317 63.6653 53.3871 64.051L58.0291 75.5748C58.1845 75.9606 57.9978 76.3993 57.612 76.5546C57.2263 76.71 56.7876 76.5233 56.6322 76.1375L51.9902 64.6138C51.8348 64.228 52.0215 63.7893 52.4073 63.6339Z" fill="#2988FF"/>
<path fill-rule="evenodd" clip-rule="evenodd" d="M19.5607 66.1686C19.5607 65.7527 19.8978 65.4156 20.3137 65.4156H76.7611C77.177 65.4156 77.5141 65.7527 77.5141 66.1686C77.5141 66.5845 77.177 66.9216 76.7611 66.9216H20.3137C19.8978 66.9216 19.5607 66.5845 19.5607 66.1686ZM15.3066 69.6294C15.3066 69.2135 15.6438 68.8764 16.0596 68.8764H80.1746C80.5905 68.8764 80.9276 69.2135 80.9276 69.6294C80.9276 70.0453 80.5905 70.3824 80.1746 70.3824H16.0596C15.6438 70.3824 15.3066 70.0453 15.3066 69.6294Z" fill="#2988FF"/>
<path fill-rule="evenodd" clip-rule="evenodd" d="M42.0585 18.3171C42.7112 18.3171 43.3097 18.6803 43.6109 19.2593L53.6185 38.4918C53.9008 39.0343 53.8795 39.6848 53.5622 40.2076C53.2449 40.7303 52.6777 41.0496 52.0661 41.0496H51.3787L56.6339 51.151C56.9162 51.6935 56.8947 52.3439 56.5774 52.8667C56.2601 53.3894 55.693 53.7086 55.0815 53.7086H53.6996L57.5708 61.1473C57.8532 61.6898 57.8318 62.3403 57.5145 62.8631C57.1972 63.3859 56.63 63.7051 56.0185 63.7051H44.8708V67.0878C44.8708 68.0543 44.0873 68.8378 43.1208 68.8378H40.9983C40.0318 68.8378 39.2483 68.0543 39.2483 67.0878V63.7051H28.0996C27.4881 63.7051 26.9209 63.3859 26.6036 62.8631C26.2863 62.3404 26.2649 61.6899 26.5472 61.1474L30.4177 53.7086H29.0356C28.4241 53.7086 27.8569 53.3894 27.5396 52.8666C27.2223 52.3438 27.2009 51.6933 27.4832 51.1508L32.74 41.0496H32.053C31.4415 41.0496 30.8743 40.7304 30.557 40.2076C30.2397 39.6849 30.2183 39.0344 30.5005 38.4919L40.5061 19.2595C40.8073 18.6804 41.4057 18.3172 42.0585 18.3171ZM34.9361 37.5496H35.6235C36.2351 37.5496 36.8023 37.8688 37.1196 38.3916C37.4369 38.9144 37.4582 39.565 37.1759 40.1074L31.9191 50.2086H33.301C33.9125 50.2086 34.4797 50.5279 34.797 51.0506C35.1143 51.5734 35.1357 52.2239 34.8534 52.7664L30.9829 60.2051H40.9983C41.3974 60.2051 41.7652 60.3387 42.0596 60.5635C42.3539 60.3387 42.7218 60.2051 43.1208 60.2051H53.1349L49.2637 52.7665C48.9814 52.224 49.0028 51.5735 49.32 51.0507C49.6373 50.5279 50.2045 50.2086 50.8161 50.2086H52.1984L46.9431 40.1072C46.6609 39.5648 46.6823 38.9143 46.9996 38.3915C47.3169 37.8688 47.8841 37.5496 48.4956 37.5496H49.1828L42.0587 23.8586L34.9361 37.5496Z" fill="#1C3553"/>
</svg>
