<svg width="96" height="96" viewBox="0 0 96 96" fill="none" xmlns="http://www.w3.org/2000/svg">
<path fill-rule="evenodd" clip-rule="evenodd" d="M22.279 61.03C22.9904 61.7748 22.9634 62.9553 22.2185 63.6668L15.3051 70.2701H81.1577L74.2722 63.6639C73.5289 62.9508 73.5045 61.7702 74.2176 61.0269C74.9307 60.2837 76.1113 60.2593 76.8545 60.9724L87.0865 70.7894C87.6359 71.3165 87.8097 72.1246 87.5257 72.831C87.2416 73.5373 86.5567 74.0001 85.7954 74.0001H10.6524C9.89024 74.0001 9.2048 73.5364 8.92125 72.829C8.6377 72.1216 8.81308 71.3129 9.3642 70.7865L19.6422 60.9695C20.387 60.258 21.5676 60.2851 22.279 61.03Z" fill="#2988FF"/>
<path fill-rule="evenodd" clip-rule="evenodd" d="M64.1323 38.7713V27.8773C64.1583 27.8763 64.1813 27.8743 64.2043 27.8743C65.8053 27.8743 67.4063 27.8683 69.0073 27.8783C69.7543 27.8823 70.4863 27.9953 71.1753 28.3033C71.8833 28.6193 72.4373 29.1023 72.7743 29.8123C72.9363 30.1523 73.0273 30.5113 73.0703 30.8853C73.1373 31.4703 73.1103 32.0483 72.9413 32.6143C72.6633 33.5463 72.0503 34.1793 71.1733 34.5693C70.7633 34.7523 70.3313 34.8583 69.8873 34.9223C69.4713 34.9813 69.0533 34.9983 68.6343 34.9973C68.1033 34.9973 67.5713 34.9973 67.0403 34.9973H66.9483V35.0863C66.9483 36.2853 66.9483 37.4843 66.9483 38.6833C66.9483 38.7713 66.9483 38.7713 66.8623 38.7713C65.9783 38.7713 65.0953 38.7713 64.2113 38.7713H64.1323ZM66.9523 32.9413C66.9763 32.9433 66.9973 32.9453 67.0183 32.9453C67.5133 32.9453 68.0073 32.9453 68.5023 32.9463C68.7253 32.9463 68.9463 32.9263 69.1613 32.8653C69.5883 32.7453 69.9123 32.5023 70.0803 32.0803C70.2033 31.7703 70.2193 31.4473 70.1703 31.1193C70.1033 30.6713 69.8773 30.3333 69.4723 30.1233C69.1773 29.9703 68.8583 29.9233 68.5323 29.9203C68.0213 29.9143 67.5093 29.9183 66.9973 29.9173C66.9823 29.9173 66.9683 29.9213 66.9523 29.9223V32.9413Z" fill="#2988FF"/>
<path fill-rule="evenodd" clip-rule="evenodd" d="M32.9254 61.7304C32.9254 60.95 33.558 60.3174 34.3384 60.3174H65.1484C65.9288 60.3174 66.5614 60.95 66.5614 61.7304C66.5614 62.5108 65.9288 63.1434 65.1484 63.1434H34.3384C33.558 63.1434 32.9254 62.5108 32.9254 61.7304Z" fill="#1C3553"/>
<path fill-rule="evenodd" clip-rule="evenodd" d="M73.5406 52.8671C73.5406 52.0867 74.1733 51.4541 74.9536 51.4541H76.4776C77.258 51.4541 77.8906 52.0867 77.8906 52.8671C77.8906 53.6475 77.258 54.2801 76.4776 54.2801H74.9536C74.1733 54.2801 73.5406 53.6475 73.5406 52.8671Z" fill="#1C3553"/>
<path fill-rule="evenodd" clip-rule="evenodd" d="M28.2757 38.5507C29.0558 38.5315 29.7038 39.1484 29.723 39.9286L29.9271 48.2283H62.529L64.8269 46.0441C65.3926 45.5065 66.2869 45.5292 66.8246 46.0948C67.3622 46.6605 67.3395 47.5548 66.7739 48.0925L64.0669 50.6655C63.8042 50.9151 63.4558 51.0543 63.0934 51.0543H28.5484C27.7816 51.0543 27.1547 50.4427 27.1358 49.676L26.8978 39.998C26.8787 39.2179 27.4955 38.5699 28.2757 38.5507Z" fill="#1C3553"/>
<path fill-rule="evenodd" clip-rule="evenodd" d="M42.3431 38.3071C43.1134 38.182 43.8392 38.705 43.9643 39.4753L45.4443 48.5903C45.5693 49.3606 45.0463 50.0865 44.276 50.2115C43.5057 50.3366 42.7799 49.8135 42.6548 49.0433L41.1748 39.9283C41.0497 39.158 41.5728 38.4321 42.3431 38.3071Z" fill="#1C3553"/>
<path fill-rule="evenodd" clip-rule="evenodd" d="M47.2968 52.8671C47.2968 52.0867 47.9294 51.4541 48.7098 51.4541H49.8258C50.6062 51.4541 51.2388 52.0867 51.2388 52.8671C51.2388 53.6475 50.6062 54.2801 49.8258 54.2801H48.7098C47.9294 54.2801 47.2968 53.6475 47.2968 52.8671Z" fill="#1C3553"/>
<path fill-rule="evenodd" clip-rule="evenodd" d="M20.3723 52.8671C20.3723 52.0867 21.0049 51.4541 21.7853 51.4541H22.9013C23.6817 51.4541 24.3143 52.0867 24.3143 52.8671C24.3143 53.6475 23.6817 54.2801 22.9013 54.2801H21.7853C21.0049 54.2801 20.3723 53.6475 20.3723 52.8671Z" fill="#1C3553"/>
<path fill-rule="evenodd" clip-rule="evenodd" d="M69.953 57.911C68.4114 57.911 67.161 59.1613 67.161 60.703C67.161 62.2446 68.4114 63.495 69.953 63.495C71.4946 63.495 72.745 62.2446 72.745 60.703C72.745 59.1613 71.4946 57.911 69.953 57.911ZM64.335 60.703C64.335 57.6006 66.8506 55.085 69.953 55.085C73.0554 55.085 75.571 57.6006 75.571 60.703C75.571 63.8053 73.0554 66.321 69.953 66.321C66.8506 66.321 64.335 63.8053 64.335 60.703Z" fill="#1C3553"/>
<path fill-rule="evenodd" clip-rule="evenodd" d="M29.1751 57.911C27.6335 57.911 26.3831 59.1613 26.3831 60.703C26.3831 62.2446 27.6335 63.495 29.1751 63.495C30.7168 63.495 31.9671 62.2446 31.9671 60.703C31.9671 59.1613 30.7168 57.911 29.1751 57.911ZM23.5571 60.703C23.5571 57.6006 26.0728 55.085 29.1751 55.085C32.2775 55.085 34.7931 57.6006 34.7931 60.703C34.7931 63.8053 32.2775 66.321 29.1751 66.321C26.0728 66.321 23.5571 63.8053 23.5571 60.703Z" fill="#1C3553"/>
<path fill-rule="evenodd" clip-rule="evenodd" d="M20.3459 49.6618C20.3459 48.8972 20.9658 48.2773 21.7304 48.2773H56.2604C57.0251 48.2773 57.6449 48.8972 57.6449 49.6618C57.6449 50.4265 57.0251 51.0463 56.2604 51.0463H21.7304C20.9658 51.0463 20.3459 50.4265 20.3459 49.6618Z" fill="#1C3553"/>
<path fill-rule="evenodd" clip-rule="evenodd" d="M65.9297 45.3618C69.9513 45.9255 72.8659 47.0754 74.9478 48.5751C77.0924 50.12 78.2861 51.9888 78.8972 53.8057C79.5012 55.6017 79.5219 57.3012 79.4006 58.5334C79.3396 59.1532 79.2415 59.6667 79.1567 60.0316C79.1142 60.2144 79.0748 60.3611 79.0446 60.4664C79.0294 60.519 79.0166 60.5615 79.0067 60.593L78.9943 60.6321L78.9899 60.6453L78.9883 60.6504L78.9876 60.6525C78.9872 60.6535 78.9869 60.6544 77.6475 60.2044C78.2459 61.4844 78.2458 61.4844 78.2457 61.4845L78.2432 61.4857L78.2114 61.5005L78.1183 61.5436C78.0384 61.5805 77.9242 61.633 77.7858 61.6959C77.5098 61.8213 77.1347 61.9895 76.7423 62.1586C76.3532 62.3262 75.9322 62.5011 75.5689 62.6364C75.3885 62.7035 75.2045 62.7677 75.0362 62.8169C74.9172 62.8518 74.645 62.9304 74.3605 62.9304C73.5801 62.9304 72.9475 62.2977 72.9475 61.5174C72.9475 60.7846 73.5053 60.1821 74.2194 60.1113C74.226 60.1095 74.2334 60.1074 74.2418 60.1049C74.3186 60.0824 74.4324 60.044 74.5827 59.988C74.8805 59.8771 75.2513 59.7238 75.6242 59.5631C75.9196 59.4359 76.207 59.3081 76.446 59.2003C76.4973 58.9515 76.5514 58.6309 76.5882 58.2565C76.6833 57.2911 76.6592 56.0165 76.2186 54.7065C75.785 53.4174 74.9343 52.0483 73.296 50.8681C71.642 49.6766 69.1204 48.632 65.2857 48.1262C65.106 48.1025 64.9325 48.0444 64.7747 47.9552C57.7557 43.984 53.8221 42.1453 51.6729 41.3013C50.5979 40.8792 50.0026 40.7192 49.7125 40.6607C49.6372 40.6455 49.5875 40.6382 49.5597 40.6347C49.531 40.6365 49.5023 40.6374 49.4735 40.6374H26.2751C26.3474 41.0804 26.2058 41.5439 25.8711 41.873L25.8678 41.8762L25.8445 41.8998C25.8224 41.9222 25.7874 41.9581 25.7415 42.0065C25.6497 42.1034 25.5144 42.2498 25.3501 42.4388C25.0204 42.8181 24.5808 43.3612 24.1433 44.0123C23.2391 45.3576 22.4735 46.9735 22.4735 48.4824V60.3174H23.7005C24.4809 60.3174 25.1135 60.95 25.1135 61.7304C25.1135 62.5107 24.4809 63.1434 23.7005 63.1434H21.0605C20.2801 63.1434 19.6475 62.5107 19.6475 61.7304V48.4824C19.6475 46.1252 20.7919 43.9326 21.7978 42.4359C22.2801 41.7183 22.7607 41.1167 23.1367 40.6781L22.7043 39.9351C22.4499 39.498 22.4485 38.9583 22.7006 38.52C22.9527 38.0816 23.4198 37.8114 23.9255 37.8114H49.401C49.4747 37.806 49.5515 37.8048 49.6317 37.8076C49.8068 37.8136 50.0156 37.8389 50.2716 37.8905C50.7799 37.9931 51.5425 38.214 52.7059 38.6709C55.0074 39.5747 59.0074 41.4539 65.9297 45.3618ZM24.8805 40.8654L25.8711 41.873C25.8711 41.873 25.8712 41.8729 25.8711 41.873C25.8709 41.8732 25.8662 41.8692 24.8805 40.8654ZM77.6475 60.2044L78.2457 61.4845C78.5959 61.3208 78.8638 61.0208 78.9869 60.6544L77.6475 60.2044Z" fill="#1C3553"/>
<path fill-rule="evenodd" clip-rule="evenodd" d="M56.5817 22.585C56.5817 21.8358 57.1891 21.2285 57.9382 21.2285H79.0872C79.8364 21.2285 80.4437 21.8358 80.4437 22.585V42.612C80.4437 43.3612 79.8364 43.9685 79.0872 43.9685H59.8612C59.1121 43.9685 58.5047 43.3612 58.5047 42.612C58.5047 42.5954 58.505 42.5789 58.5056 42.5625C58.333 42.6421 58.1408 42.6865 57.9382 42.6865C57.1891 42.6865 56.5817 42.0792 56.5817 41.33V22.585ZM59.2938 41.3795C59.4665 41.2999 59.6587 41.2555 59.8612 41.2555H77.7307V23.9415H59.2947V41.33C59.2947 41.3466 59.2944 41.3631 59.2938 41.3795Z" fill="#1C3553"/>
</svg>
