<svg width="96" height="96" viewBox="0 0 96 96" fill="none" xmlns="http://www.w3.org/2000/svg">
<path fill-rule="evenodd" clip-rule="evenodd" d="M69.9637 60.0459C70.4908 59.4803 71.3767 59.4491 71.9423 59.9763L75.6977 63.4763C76.2633 64.0035 76.2945 64.8893 75.7674 65.455C75.2402 66.0206 74.3543 66.0518 73.7887 65.5246L70.0333 62.0246C69.4677 61.4975 69.4365 60.6116 69.9637 60.0459ZM81.2298 70.5459C81.757 69.9803 82.6428 69.9491 83.2085 70.4763L86.9638 73.9763C87.3846 74.3684 87.5227 74.9781 87.312 75.5133C87.1012 76.0486 86.5846 76.4004 86.0093 76.4004H82.2593C81.4861 76.4004 80.8593 75.7736 80.8593 75.0004C80.8593 74.2272 81.4861 73.6004 82.2593 73.6004H82.4538L81.2994 72.5246C80.7338 71.9974 80.7026 71.1115 81.2298 70.5459ZM9.60951 75.0004C9.60951 74.2272 10.2363 73.6004 11.0095 73.6004H14.7595C15.5327 73.6004 16.1595 74.2272 16.1595 75.0004C16.1595 75.7736 15.5327 76.4004 14.7595 76.4004H11.0095C10.2363 76.4004 9.60951 75.7736 9.60951 75.0004ZM20.8595 75.0004C20.8595 74.2272 21.4863 73.6004 22.2595 73.6004H29.7595C30.5327 73.6004 31.1595 74.2272 31.1595 75.0004C31.1595 75.7736 30.5327 76.4004 29.7595 76.4004H22.2595C21.4863 76.4004 20.8595 75.7736 20.8595 75.0004ZM35.8594 75.0004C35.8594 74.2272 36.4862 73.6004 37.2594 73.6004H44.7594C45.5326 73.6004 46.1594 74.2272 46.1594 75.0004C46.1594 75.7736 45.5326 76.4004 44.7594 76.4004H37.2594C36.4862 76.4004 35.8594 75.7736 35.8594 75.0004ZM50.8594 75.0004C50.8594 74.2272 51.4862 73.6004 52.2594 73.6004H59.7594C60.5326 73.6004 61.1594 74.2272 61.1594 75.0004C61.1594 75.7736 60.5326 76.4004 59.7594 76.4004H52.2594C51.4862 76.4004 50.8594 75.7736 50.8594 75.0004ZM65.8594 75.0004C65.8594 74.2272 66.4862 73.6004 67.2594 73.6004H74.7594C75.5326 73.6004 76.1594 74.2272 76.1594 75.0004C76.1594 75.7736 75.5326 76.4004 74.7594 76.4004H67.2594C66.4862 76.4004 65.8594 75.7736 65.8594 75.0004Z" fill="#2988FF"/>
<path fill-rule="evenodd" clip-rule="evenodd" d="M41.6458 18.3173C42.3018 18.3173 42.9027 18.6842 43.2025 19.2677L53.0818 38.5002C53.3604 39.0427 53.3366 39.6911 53.0187 40.2117C52.7009 40.7322 52.135 41.0498 51.5251 41.0498H50.8664L56.0585 51.1593C56.3371 51.7019 56.3132 52.3503 55.9954 52.8708C55.6775 53.3913 55.1116 53.7088 54.5018 53.7088H53.1576L56.0424 59.3241H70.5229C71.1028 59.3241 71.5729 59.7942 71.5729 60.3741C71.5729 60.954 71.1028 61.4241 70.5229 61.4241H57.0942C57.2469 61.903 57.1872 62.4302 56.9204 62.8672C56.6026 63.3878 56.0367 63.7053 55.4268 63.7053H44.4445V67.088C44.4445 68.0545 43.661 68.838 42.6945 68.838H40.5992C39.6328 68.838 38.8493 68.0545 38.8493 67.088V63.7053H27.8659C27.256 63.7053 26.6901 63.3878 26.3723 62.8673C26.1055 62.4302 26.0458 61.903 26.1985 61.4241H25.3136L10.371 75.901C9.9545 76.3045 9.28976 76.294 8.88625 75.8775C8.48275 75.461 8.49327 74.7962 8.90976 74.3927L24.1577 59.62C24.3536 59.4302 24.6156 59.3241 24.8884 59.3241H27.2501L30.1343 53.7088H28.7899C28.18 53.7088 27.6141 53.3913 27.2963 52.8707C26.9785 52.3501 26.9546 51.7017 27.2333 51.1591L32.4269 41.0498H31.7686C31.1587 41.0498 30.5928 40.7323 30.275 40.2118C29.9572 39.6912 29.9333 39.0428 30.2119 38.5003L40.0891 19.2679C40.3888 18.6843 40.9897 18.3174 41.6458 18.3173ZM34.6346 37.5498H35.2934C35.9033 37.5498 36.4692 37.8673 36.787 38.3879C37.1048 38.9085 37.1287 39.5569 36.8499 40.0995L31.6564 50.2088H33.0006C33.6105 50.2088 34.1764 50.5264 34.4942 51.0469C34.812 51.5674 34.8359 52.2159 34.5572 52.7584L30.7321 60.2053H35.5094V60.2001H47.5094V60.2053H52.5603L48.7345 52.7585C48.4558 52.216 48.4796 51.5675 48.7975 51.047C49.1153 50.5264 49.6812 50.2088 50.2911 50.2088H51.6357L46.4437 40.0993C46.165 39.5568 46.1889 38.9083 46.5068 38.3878C46.8246 37.8673 47.3905 37.5498 48.0004 37.5498H48.6588L41.646 23.8976L34.6346 37.5498Z" fill="#1C3553"/>
</svg>
