<svg width="96" height="96" viewBox="0 0 96 96" fill="none" xmlns="http://www.w3.org/2000/svg">
<path fill-rule="evenodd" clip-rule="evenodd" d="M22.2788 61.03C22.9903 61.7748 22.9632 62.9553 22.2183 63.6668L15.3049 70.2701H81.1575L74.272 63.6639C73.5287 62.9508 73.5043 61.7702 74.2174 61.0269C74.9305 60.2837 76.1111 60.2593 76.8544 60.9724L87.0864 70.7894C87.6357 71.3165 87.8096 72.1246 87.5255 72.831C87.2414 73.5373 86.5565 74.0001 85.7952 74.0001H10.6522C9.89006 74.0001 9.20462 73.5364 8.92107 72.829C8.63751 72.1216 8.8129 71.3129 9.36401 70.7865L19.642 60.9695C20.3869 60.258 21.5674 60.2851 22.2788 61.03Z" fill="#2988FF"/>
<path fill-rule="evenodd" clip-rule="evenodd" d="M64.1323 38.7713V27.8773C64.1583 27.8763 64.1813 27.8743 64.2043 27.8743C65.8053 27.8743 67.4063 27.8683 69.0073 27.8783C69.7543 27.8823 70.4863 27.9953 71.1753 28.3033C71.8833 28.6193 72.4373 29.1023 72.7743 29.8123C72.9363 30.1523 73.0273 30.5113 73.0703 30.8853C73.1373 31.4703 73.1103 32.0483 72.9413 32.6143C72.6633 33.5463 72.0503 34.1793 71.1733 34.5693C70.7633 34.7523 70.3313 34.8583 69.8873 34.9223C69.4713 34.9813 69.0533 34.9983 68.6343 34.9973C68.1033 34.9973 67.5713 34.9973 67.0403 34.9973H66.9483V35.0863C66.9483 36.2853 66.9483 37.4843 66.9483 38.6833C66.9483 38.7713 66.9483 38.7713 66.8623 38.7713C65.9783 38.7713 65.0953 38.7713 64.2113 38.7713H64.1323ZM66.9523 32.9413C66.9763 32.9433 66.9973 32.9453 67.0183 32.9453C67.5133 32.9453 68.0073 32.9453 68.5023 32.9463C68.7253 32.9463 68.9463 32.9263 69.1613 32.8653C69.5883 32.7453 69.9123 32.5023 70.0803 32.0803C70.2033 31.7703 70.2193 31.4473 70.1703 31.1193C70.1033 30.6713 69.8773 30.3333 69.4723 30.1233C69.1773 29.9703 68.8583 29.9233 68.5323 29.9203C68.0213 29.9143 67.5093 29.9183 66.9973 29.9173C66.9823 29.9173 66.9683 29.9213 66.9523 29.9223V32.9413Z" fill="#2988FF"/>
<path fill-rule="evenodd" clip-rule="evenodd" d="M32.9253 61.7304C32.9253 60.95 33.5579 60.3174 34.3383 60.3174H65.1483C65.9287 60.3174 66.5613 60.95 66.5613 61.7304C66.5613 62.5108 65.9287 63.1434 65.1483 63.1434H34.3383C33.5579 63.1434 32.9253 62.5108 32.9253 61.7304Z" fill="#1C3553"/>
<path fill-rule="evenodd" clip-rule="evenodd" d="M73.5405 52.8671C73.5405 52.0867 74.1731 51.4541 74.9535 51.4541H76.4775C77.2579 51.4541 77.8905 52.0867 77.8905 52.8671C77.8905 53.6475 77.2579 54.2801 76.4775 54.2801H74.9535C74.1731 54.2801 73.5405 53.6475 73.5405 52.8671Z" fill="#1C3553"/>
<path fill-rule="evenodd" clip-rule="evenodd" d="M28.2757 38.5507C29.0559 38.5315 29.7039 39.1484 29.723 39.9286L29.9271 48.2283H62.5291L64.827 46.0441C65.3926 45.5065 66.287 45.5292 66.8246 46.0948C67.3623 46.6605 67.3396 47.5548 66.7739 48.0925L64.0669 50.6655C63.8043 50.9151 63.4558 51.0543 63.0935 51.0543H28.5485C27.7816 51.0543 27.1547 50.4427 27.1359 49.676L26.8979 39.998C26.8787 39.2179 27.4956 38.5699 28.2757 38.5507Z" fill="#1C3553"/>
<path fill-rule="evenodd" clip-rule="evenodd" d="M42.343 38.3073C43.1133 38.1822 43.8391 38.7053 43.9642 39.4756L45.4442 48.5906C45.5693 49.3609 45.0462 50.0867 44.2759 50.2118C43.5056 50.3368 42.7798 49.8138 42.6547 49.0435L41.1747 39.9285C41.0497 39.1582 41.5727 38.4324 42.343 38.3073Z" fill="#1C3553"/>
<path fill-rule="evenodd" clip-rule="evenodd" d="M47.2969 52.8671C47.2969 52.0867 47.9295 51.4541 48.7099 51.4541H49.8259C50.6063 51.4541 51.2389 52.0867 51.2389 52.8671C51.2389 53.6475 50.6063 54.2801 49.8259 54.2801H48.7099C47.9295 54.2801 47.2969 53.6475 47.2969 52.8671Z" fill="#1C3553"/>
<path fill-rule="evenodd" clip-rule="evenodd" d="M20.3721 52.8671C20.3721 52.0867 21.0047 51.4541 21.7851 51.4541H22.9011C23.6814 51.4541 24.3141 52.0867 24.3141 52.8671C24.3141 53.6475 23.6814 54.2801 22.9011 54.2801H21.7851C21.0047 54.2801 20.3721 53.6475 20.3721 52.8671Z" fill="#1C3553"/>
<path fill-rule="evenodd" clip-rule="evenodd" d="M69.953 57.911C68.4113 57.911 67.161 59.1613 67.161 60.703C67.161 62.2446 68.4113 63.495 69.953 63.495C71.4946 63.495 72.745 62.2446 72.745 60.703C72.745 59.1613 71.4946 57.911 69.953 57.911ZM64.335 60.703C64.335 57.6006 66.8506 55.085 69.953 55.085C73.0553 55.085 75.571 57.6006 75.571 60.703C75.571 63.8053 73.0553 66.321 69.953 66.321C66.8506 66.321 64.335 63.8053 64.335 60.703Z" fill="#1C3553"/>
<path fill-rule="evenodd" clip-rule="evenodd" d="M29.1751 57.911C27.6335 57.911 26.3831 59.1613 26.3831 60.703C26.3831 62.2446 27.6335 63.495 29.1751 63.495C30.7168 63.495 31.9671 62.2446 31.9671 60.703C31.9671 59.1613 30.7168 57.911 29.1751 57.911ZM23.5571 60.703C23.5571 57.6006 26.0728 55.085 29.1751 55.085C32.2775 55.085 34.7931 57.6006 34.7931 60.703C34.7931 63.8053 32.2775 66.321 29.1751 66.321C26.0728 66.321 23.5571 63.8053 23.5571 60.703Z" fill="#1C3553"/>
<path fill-rule="evenodd" clip-rule="evenodd" d="M20.3457 49.6618C20.3457 48.8972 20.9656 48.2773 21.7302 48.2773H56.2602C57.0248 48.2773 57.6447 48.8972 57.6447 49.6618C57.6447 50.4265 57.0248 51.0463 56.2602 51.0463H21.7302C20.9656 51.0463 20.3457 50.4265 20.3457 49.6618Z" fill="#1C3553"/>
<path fill-rule="evenodd" clip-rule="evenodd" d="M65.9296 45.3621C69.9512 45.9257 72.8659 47.0756 74.9478 48.5754C77.0924 50.1203 78.2861 51.9891 78.8971 53.8059C79.5012 55.602 79.5219 57.3014 79.4006 58.5337C79.3396 59.1534 79.2415 59.6669 79.1567 60.0318C79.1142 60.2147 79.0748 60.3613 79.0445 60.4666C79.0294 60.5193 79.0165 60.5617 79.0067 60.5932L78.9942 60.6323L78.9899 60.6456L78.9882 60.6507L78.9875 60.6528C78.9872 60.6537 78.9869 60.6546 77.6475 60.2046C78.2458 61.4847 78.2457 61.4847 78.2457 61.4847L78.2431 61.4859L78.2114 61.5007L78.1182 61.5438C78.0383 61.5807 77.9241 61.6332 77.7858 61.6961C77.5098 61.8216 77.1346 61.9898 76.7422 62.1588C76.3532 62.3264 75.9321 62.5013 75.5688 62.6366C75.3885 62.7038 75.2044 62.7679 75.0362 62.8172C74.9171 62.8521 74.645 62.9306 74.3605 62.9306C73.5801 62.9306 72.9475 62.298 72.9475 61.5176C72.9475 60.7849 73.5052 60.1824 74.2193 60.1116C74.2259 60.1097 74.2333 60.1076 74.2417 60.1052C74.3186 60.0827 74.4324 60.0442 74.5826 59.9883C74.8804 59.8774 75.2512 59.724 75.6242 59.5634C75.9196 59.4361 76.2069 59.3084 76.446 59.2006C76.4973 58.9518 76.5513 58.6311 76.5882 58.2568C76.6832 57.2914 76.6591 56.0167 76.2186 54.7068C75.785 53.4176 74.9343 52.0485 73.2959 50.8683C71.642 49.6769 69.1204 48.6323 65.2857 48.1265C65.1059 48.1028 64.9325 48.0447 64.7747 47.9554C57.7556 43.9843 53.822 42.1455 51.6729 41.3016C50.5979 40.8794 50.0025 40.7195 49.7125 40.6609C49.6371 40.6457 49.5875 40.6384 49.5596 40.635C49.5309 40.6367 49.5022 40.6376 49.4735 40.6376H26.2751C26.3474 41.0806 26.2057 41.5442 25.871 41.8732L25.8678 41.8765L25.8444 41.9C25.8223 41.9225 25.7874 41.9584 25.7415 42.0068C25.6496 42.1036 25.5143 42.25 25.3501 42.439C25.0204 42.8184 24.5808 43.3614 24.1432 44.0125C23.239 45.3579 22.4735 46.9737 22.4735 48.4826V60.3176H23.7005C24.4808 60.3176 25.1135 60.9502 25.1135 61.7306C25.1135 62.511 24.4808 63.1436 23.7005 63.1436H21.0605C20.2801 63.1436 19.6475 62.511 19.6475 61.7306V48.4826C19.6475 46.1255 20.7919 43.9328 21.7977 42.4362C22.28 41.7185 22.7606 41.1169 23.1366 40.6784L22.7042 39.9353C22.4499 39.4983 22.4485 38.9586 22.7005 38.5202C22.9526 38.0818 23.4198 37.8116 23.9255 37.8116H49.4009C49.4747 37.8062 49.5514 37.8051 49.6316 37.8078C49.8067 37.8139 50.0155 37.8391 50.2715 37.8908C50.7799 37.9934 51.5424 38.2143 52.7058 38.6711C55.0073 39.5749 59.0073 41.4542 65.9296 45.3621ZM24.8805 40.8656L25.871 41.8732C25.871 41.8733 25.8711 41.8732 25.871 41.8732C25.8708 41.8734 25.8662 41.8694 24.8805 40.8656ZM77.6475 60.2046L78.2457 61.4847C78.5958 61.321 78.8638 61.021 78.9869 60.6546L77.6475 60.2046Z" fill="#1C3553"/>
<path fill-rule="evenodd" clip-rule="evenodd" d="M56.5815 22.585C56.5815 21.8358 57.1889 21.2285 57.938 21.2285H79.087C79.8362 21.2285 80.4435 21.8358 80.4435 22.585V42.612C80.4435 43.3612 79.8362 43.9685 79.087 43.9685H59.861C59.1119 43.9685 58.5045 43.3612 58.5045 42.612C58.5045 42.5954 58.5048 42.5789 58.5054 42.5625C58.3328 42.6421 58.1406 42.6865 57.938 42.6865C57.1889 42.6865 56.5815 42.0792 56.5815 41.33V22.585ZM59.2937 41.3795C59.4663 41.2999 59.6585 41.2555 59.861 41.2555H77.7305V23.9415H59.2945V41.33C59.2945 41.3466 59.2942 41.3631 59.2937 41.3795Z" fill="#1C3553"/>
</svg>
