<svg width="96" height="96" viewBox="0 0 96 96" fill="none" xmlns="http://www.w3.org/2000/svg">
<path fill-rule="evenodd" clip-rule="evenodd" d="M22.2788 61.03C22.9903 61.7749 22.9632 62.9554 22.2183 63.6668L15.3049 70.2702H81.1575L74.272 63.664C73.5287 62.9509 73.5043 61.7703 74.2174 61.027C74.9305 60.2838 76.1111 60.2593 76.8544 60.9724L87.0864 70.7894C87.6357 71.3165 87.8096 72.1247 87.5255 72.831C87.2414 73.5374 86.5565 74.0002 85.7952 74.0002H10.6522C9.89006 74.0002 9.20462 73.5365 8.92107 72.8291C8.63751 72.1217 8.8129 71.3129 9.36401 70.7865L19.642 60.9695C20.3869 60.2581 21.5674 60.2852 22.2788 61.03Z" fill="#2988FF"/>
<path fill-rule="evenodd" clip-rule="evenodd" d="M64.1318 38.7713V27.8773C64.1578 27.8763 64.1808 27.8743 64.2038 27.8743C65.8048 27.8743 67.4058 27.8683 69.0068 27.8783C69.7538 27.8823 70.4858 27.9953 71.1748 28.3033C71.8828 28.6193 72.4368 29.1023 72.7738 29.8123C72.9358 30.1523 73.0268 30.5113 73.0698 30.8853C73.1368 31.4703 73.1098 32.0483 72.9408 32.6143C72.6628 33.5463 72.0498 34.1793 71.1728 34.5693C70.7628 34.7523 70.3308 34.8583 69.8868 34.9223C69.4708 34.9813 69.0528 34.9983 68.6338 34.9973C68.1028 34.9973 67.5708 34.9973 67.0398 34.9973H66.9478V35.0863C66.9478 36.2853 66.9478 37.4843 66.9478 38.6833C66.9478 38.7713 66.9478 38.7713 66.8618 38.7713C65.9778 38.7713 65.0948 38.7713 64.2108 38.7713H64.1318ZM66.9518 32.9413C66.9758 32.9433 66.9968 32.9453 67.0178 32.9453C67.5128 32.9453 68.0068 32.9453 68.5018 32.9463C68.7248 32.9463 68.9458 32.9263 69.1608 32.8653C69.5878 32.7453 69.9118 32.5023 70.0798 32.0803C70.2028 31.7703 70.2188 31.4473 70.1698 31.1193C70.1028 30.6713 69.8768 30.3333 69.4718 30.1233C69.1768 29.9703 68.8578 29.9233 68.5318 29.9203C68.0208 29.9143 67.5088 29.9183 66.9968 29.9173C66.9818 29.9173 66.9678 29.9213 66.9518 29.9223V32.9413Z" fill="#2988FF"/>
<path fill-rule="evenodd" clip-rule="evenodd" d="M32.9253 61.7302C32.9253 60.9498 33.5579 60.3172 34.3383 60.3172H65.1483C65.9287 60.3172 66.5613 60.9498 66.5613 61.7302C66.5613 62.5106 65.9287 63.1432 65.1483 63.1432H34.3383C33.5579 63.1432 32.9253 62.5106 32.9253 61.7302Z" fill="#1C3553"/>
<path fill-rule="evenodd" clip-rule="evenodd" d="M73.541 52.8669C73.541 52.0865 74.1736 51.4539 74.954 51.4539H76.478C77.2584 51.4539 77.891 52.0865 77.891 52.8669C77.891 53.6473 77.2584 54.2799 76.478 54.2799H74.954C74.1736 54.2799 73.541 53.6473 73.541 52.8669Z" fill="#1C3553"/>
<path fill-rule="evenodd" clip-rule="evenodd" d="M28.2757 38.5506C29.0559 38.5314 29.7039 39.1483 29.723 39.9284L29.9271 48.2282H62.5291L64.827 46.044C65.3926 45.5064 66.287 45.5291 66.8246 46.0947C67.3623 46.6603 67.3396 47.5547 66.7739 48.0923L64.0669 50.6653C63.8043 50.915 63.4558 51.0542 63.0935 51.0542H28.5485C27.7816 51.0542 27.1547 50.4425 27.1359 49.6759L26.8979 39.9979C26.8787 39.2178 27.4956 38.5698 28.2757 38.5506Z" fill="#1C3553"/>
<path fill-rule="evenodd" clip-rule="evenodd" d="M42.343 38.3071C43.1133 38.182 43.8391 38.7051 43.9642 39.4754L45.4442 48.5904C45.5693 49.3607 45.0462 50.0865 44.2759 50.2116C43.5056 50.3367 42.7798 49.8136 42.6547 49.0433L41.1747 39.9283C41.0497 39.158 41.5727 38.4322 42.343 38.3071Z" fill="#1C3553"/>
<path fill-rule="evenodd" clip-rule="evenodd" d="M47.2969 52.8669C47.2969 52.0865 47.9295 51.4539 48.7099 51.4539H49.8259C50.6063 51.4539 51.2389 52.0865 51.2389 52.8669C51.2389 53.6473 50.6063 54.2799 49.8259 54.2799H48.7099C47.9295 54.2799 47.2969 53.6473 47.2969 52.8669Z" fill="#1C3553"/>
<path fill-rule="evenodd" clip-rule="evenodd" d="M20.3721 52.8669C20.3721 52.0865 21.0047 51.4539 21.7851 51.4539H22.9011C23.6814 51.4539 24.3141 52.0865 24.3141 52.8669C24.3141 53.6473 23.6814 54.2799 22.9011 54.2799H21.7851C21.0047 54.2799 20.3721 53.6473 20.3721 52.8669Z" fill="#1C3553"/>
<path fill-rule="evenodd" clip-rule="evenodd" d="M69.953 57.9109C68.4113 57.9109 67.161 59.1613 67.161 60.7029C67.161 62.2445 68.4113 63.4949 69.953 63.4949C71.4946 63.4949 72.745 62.2445 72.745 60.7029C72.745 59.1613 71.4946 57.9109 69.953 57.9109ZM64.335 60.7029C64.335 57.6005 66.8506 55.0849 69.953 55.0849C73.0553 55.0849 75.571 57.6005 75.571 60.7029C75.571 63.8053 73.0553 66.3209 69.953 66.3209C66.8506 66.3209 64.335 63.8053 64.335 60.7029Z" fill="#1C3553"/>
<path fill-rule="evenodd" clip-rule="evenodd" d="M29.1751 57.9109C27.6335 57.9109 26.3831 59.1613 26.3831 60.7029C26.3831 62.2445 27.6335 63.4949 29.1751 63.4949C30.7168 63.4949 31.9671 62.2445 31.9671 60.7029C31.9671 59.1613 30.7168 57.9109 29.1751 57.9109ZM23.5571 60.7029C23.5571 57.6005 26.0728 55.0849 29.1751 55.0849C32.2775 55.0849 34.7931 57.6005 34.7931 60.7029C34.7931 63.8053 32.2775 66.3209 29.1751 66.3209C26.0728 66.3209 23.5571 63.8053 23.5571 60.7029Z" fill="#1C3553"/>
<path fill-rule="evenodd" clip-rule="evenodd" d="M20.3457 49.6618C20.3457 48.8972 20.9656 48.2773 21.7302 48.2773H56.2602C57.0248 48.2773 57.6447 48.8972 57.6447 49.6618C57.6447 50.4265 57.0248 51.0463 56.2602 51.0463H21.7302C20.9656 51.0463 20.3457 50.4265 20.3457 49.6618Z" fill="#1C3553"/>
<path fill-rule="evenodd" clip-rule="evenodd" d="M65.9296 45.3619C69.9512 45.9256 72.8659 47.0755 74.9478 48.5752C77.0924 50.1202 78.2861 51.989 78.8971 53.8058C79.5012 55.6018 79.5219 57.3013 79.4006 58.5335C79.3396 59.1533 79.2415 59.6668 79.1567 60.0317C79.1142 60.2146 79.0748 60.3612 79.0445 60.4665C79.0294 60.5192 79.0165 60.5616 79.0067 60.5931L78.9942 60.6322L78.9899 60.6455L78.9882 60.6505L78.9875 60.6527C78.9872 60.6536 78.9869 60.6545 77.6475 60.2045C78.2458 61.4845 78.2457 61.4846 78.2457 61.4846L78.2431 61.4858L78.2114 61.5006L78.1182 61.5437C78.0383 61.5806 77.9241 61.6331 77.7858 61.696C77.5098 61.8214 77.1346 61.9897 76.7422 62.1587C76.3532 62.3263 75.9321 62.5012 75.5688 62.6365C75.3885 62.7036 75.2044 62.7678 75.0362 62.8171C74.9171 62.8519 74.645 62.9305 74.3605 62.9305C73.5801 62.9305 72.9475 62.2979 72.9475 61.5175C72.9475 60.7847 73.5052 60.1823 74.2193 60.1114C74.2259 60.1096 74.2333 60.1075 74.2417 60.105C74.3186 60.0825 74.4324 60.0441 74.5826 59.9881C74.8804 59.8773 75.2512 59.7239 75.6242 59.5633C75.9196 59.436 76.2069 59.3082 76.446 59.2004C76.4973 58.9517 76.5513 58.631 76.5882 58.2567C76.6832 57.2913 76.6591 56.0166 76.2186 54.7067C75.785 53.4175 74.9343 52.0484 73.2959 50.8682C71.642 49.6767 69.1204 48.6321 65.2857 48.1263C65.1059 48.1026 64.9325 48.0446 64.7747 47.9553C57.7556 43.9841 53.822 42.1454 51.6729 41.3014C50.5979 40.8793 50.0025 40.7193 49.7125 40.6608C49.6371 40.6456 49.5875 40.6383 49.5596 40.6348C49.5309 40.6366 49.5022 40.6375 49.4735 40.6375H26.2751C26.3474 41.0805 26.2057 41.5441 25.871 41.8731L25.8678 41.8764L25.8444 41.8999C25.8223 41.9224 25.7874 41.9582 25.7415 42.0066C25.6496 42.1035 25.5143 42.2499 25.3501 42.4389C25.0204 42.8183 24.5808 43.3613 24.1432 44.0124C23.239 45.3578 22.4735 46.9736 22.4735 48.4825V60.3175H23.7005C24.4808 60.3175 25.1135 60.9501 25.1135 61.7305C25.1135 62.5109 24.4808 63.1435 23.7005 63.1435H21.0605C20.2801 63.1435 19.6475 62.5109 19.6475 61.7305V48.4825C19.6475 46.1253 20.7919 43.9327 21.7977 42.4361C22.28 41.7184 22.7606 41.1168 23.1366 40.6783L22.7042 39.9352C22.4499 39.4981 22.4485 38.9585 22.7005 38.5201C22.9526 38.0817 23.4198 37.8115 23.9255 37.8115H49.4009C49.4747 37.8061 49.5514 37.805 49.6316 37.8077C49.8067 37.8137 50.0155 37.839 50.2715 37.8907C50.7799 37.9932 51.5424 38.2141 52.7058 38.671C55.0073 39.5748 59.0073 41.4541 65.9296 45.3619ZM24.8805 40.8655L25.871 41.8731C25.871 41.8731 25.8711 41.8731 25.871 41.8731C25.8708 41.8733 25.8662 41.8693 24.8805 40.8655ZM77.6475 60.2045L78.2457 61.4846C78.5958 61.3209 78.8638 61.0209 78.9869 60.6545L77.6475 60.2045Z" fill="#1C3553"/>
<path fill-rule="evenodd" clip-rule="evenodd" d="M56.582 22.585C56.582 21.8358 57.1894 21.2285 57.9385 21.2285H79.0875C79.8367 21.2285 80.444 21.8358 80.444 22.585V42.612C80.444 43.3611 79.8367 43.9685 79.0875 43.9685H59.8615C59.1124 43.9685 58.505 43.3611 58.505 42.612C58.505 42.5954 58.5053 42.5789 58.5059 42.5625C58.3333 42.6421 58.1411 42.6865 57.9385 42.6865C57.1894 42.6865 56.582 42.0791 56.582 41.33V22.585ZM59.2941 41.3795C59.4668 41.2999 59.659 41.2555 59.8615 41.2555H77.731V23.9415H59.295V41.33C59.295 41.3465 59.2947 41.363 59.2941 41.3795Z" fill="#1C3553"/>
</svg>
