<svg width="96" height="96" viewBox="0 0 96 96" fill="none" xmlns="http://www.w3.org/2000/svg">
<path fill-rule="evenodd" clip-rule="evenodd" d="M22.5649 74.5566L73.6339 23.0844L71.5043 20.9714L20.4352 72.4436L22.5649 74.5566Z" fill="#2988FF"/>
<path fill-rule="evenodd" clip-rule="evenodd" d="M39.5595 75.562L74.8377 40.365L72.7188 38.2412L37.4406 73.4383L39.5595 75.562Z" fill="#2988FF"/>
<path fill-rule="evenodd" clip-rule="evenodd" d="M59.5607 75.5608L74.5607 60.5608L72.4393 58.4395L57.4394 73.4395L59.5607 75.5608Z" fill="#2988FF"/>
<path fill-rule="evenodd" clip-rule="evenodd" d="M21.5769 56.5443L53.5769 23.5442L51.4232 21.4558L19.4232 54.4558L21.5769 56.5443Z" fill="#2988FF"/>
<path fill-rule="evenodd" clip-rule="evenodd" d="M22.5607 37.5608L37.5607 22.5608L35.4393 20.4395L20.4393 35.4395L22.5607 37.5608Z" fill="#2988FF"/>
<path fill-rule="evenodd" clip-rule="evenodd" d="M55.3354 39.688L65.4517 49.5729L67.5483 47.4272L57.432 37.5422L55.3354 39.688Z" fill="#2988FF"/>
<path fill-rule="evenodd" clip-rule="evenodd" d="M38.4393 22.5608L46.4393 30.5608L48.5607 28.4395L40.5607 20.4395L38.4393 22.5608Z" fill="#2988FF"/>
<path fill-rule="evenodd" clip-rule="evenodd" d="M46.4393 66.5608L55.4393 75.5608L57.5607 73.4395L48.5607 64.4395L46.4393 66.5608Z" fill="#2988FF"/>
<path fill-rule="evenodd" clip-rule="evenodd" d="M28.2055 47.7895L38.6416 58.2257L40.7629 56.1043L30.3268 45.6682L28.2055 47.7895Z" fill="#2988FF"/>
<path fill-rule="evenodd" clip-rule="evenodd" d="M19.6 22.0006C19.6 21.2274 20.2268 20.6006 21 20.6006H73.9425C74.7157 20.6006 75.3425 21.2274 75.3425 22.0006V74.9431C75.3425 75.7163 74.7157 76.3431 73.9425 76.3431H21C20.2268 76.3431 19.6 75.7163 19.6 74.9431V22.0006ZM22.4 23.4006V73.5431H72.5425V23.4006H22.4Z" fill="#1C3553"/>
</svg>
