<svg width="96" height="97" viewBox="0 0 96 97" fill="none" xmlns="http://www.w3.org/2000/svg">
<path d="M16.1999 79.1017H24.3999C26.2999 79.1017 27.7999 77.6017 27.7999 75.7017V75.3017C32.4999 76.9017 43.3999 80.5017 47.4999 81.9017C48.9999 82.4017 50.3999 82.6017 51.7999 82.6017C55.6999 82.6017 58.8999 81.0017 60.4999 80.1017L60.8999 79.9017C62.7999 79.0017 78.0999 70.7017 80.6999 69.3017C84.1999 67.4017 84.9999 64.6017 84.2999 62.7017C83.8999 61.8017 83.0999 61.0017 82.0999 60.6017C80.4999 59.9017 78.5999 60.0017 76.7999 60.8017C75.0999 61.4017 69.7999 63.3017 66.2999 64.5017C66.0999 61.7017 63.7999 59.5017 61.0999 59.5017H51.3999C51.2999 59.5017 50.7999 59.4017 50.7999 59.3017L50.6999 59.2017C44.4999 52.4017 31.8999 52.5017 27.9999 52.8017C27.5999 51.4017 26.2999 50.3017 24.7999 50.3017L14.2999 50.2017H11.8999L11.4999 51.4017C11.4999 51.5017 11.1999 52.4017 11.1999 53.5017C10.9999 54.8017 9.99986 67.1017 15.6999 78.2017L16.1999 79.1017ZM28.0999 56.5017C31.3999 56.3017 42.7999 56.1017 47.9999 61.7017C49.1999 63.2017 51.1999 63.3017 51.3999 63.3017H60.9999C61.7999 63.3017 62.6999 64.1017 62.6999 65.2017C62.6999 66.3017 61.8999 67.1017 60.7999 67.1017H44.4999C43.4999 67.1017 42.6999 67.9017 42.6999 68.9017C42.6999 69.9017 43.4999 70.7017 44.4999 70.7017H60.7999C62.2999 70.7017 63.6999 70.1017 64.6999 69.1017C66.4999 68.5017 75.6999 65.2017 78.0999 64.3017C79.7999 63.6017 80.8999 64.0017 80.9999 64.2017C81.0999 64.4017 80.6999 65.4017 78.9999 66.3017C76.6999 67.6017 61.0999 75.9017 59.2999 76.9017L58.8999 77.1017C56.9999 78.1017 52.9999 80.1017 48.6999 78.7017C44.1999 77.1017 31.5999 72.9017 27.8999 71.7017L28.0999 56.5017ZM14.6999 53.8017L24.4999 54.0017L24.2999 75.5017H18.3999C13.5999 65.4017 14.6999 54.1017 14.6999 53.8017Z" fill="#2988FF"/>
<path fill-rule="evenodd" clip-rule="evenodd" d="M47 46.0007V50.0008H49V46.0007H47ZM46 44.0007C45.4477 44.0007 45 44.4484 45 45.0007V51.0008C45 51.5531 45.4477 52.0008 46 52.0008H50C50.5523 52.0008 51 51.5531 51 51.0008V45.0007C51 44.4484 50.5523 44.0007 50 44.0007H46Z" fill="#1C3553"/>
<path fill-rule="evenodd" clip-rule="evenodd" d="M62 46.0007V50.0008H64V46.0007H62ZM61 44.0007C60.4477 44.0007 60 44.4484 60 45.0007V51.0008C60 51.5531 60.4477 52.0008 61 52.0008H65C65.5523 52.0008 66 51.5531 66 51.0008V45.0007C66 44.4484 65.5523 44.0007 65 44.0007H61Z" fill="#1C3553"/>
<path d="M58.8999 14.1018C58.0999 13.3018 57.1999 13.0018 56.2999 13.1018C55.3999 13.0018 54.4999 13.4018 53.6999 14.1018L44.9999 22.2018C38.1999 28.6018 29.7999 36.5018 28.1999 37.9018C27.7999 38.3018 26.4999 39.5018 27.1999 41.4018C27.5999 42.2018 28.3999 43.2018 30.2999 43.2018C31.8999 43.2018 33.4999 43.2018 35.1999 43.2018V49.5018C35.1999 50.5018 35.9999 51.3018 36.9999 51.3018C37.9999 51.3018 38.7999 50.5018 38.7999 49.5018V42.9018C38.7999 40.8018 37.5999 39.6018 35.4999 39.5018C34.2999 39.5018 32.9999 39.5018 31.7999 39.5018C34.6999 36.8018 41.6999 30.2018 47.4999 24.7018L56.1999 16.6018C56.2999 16.6018 56.2999 16.6018 56.2999 16.6018C57.1999 17.4018 60.8999 20.9018 65.1999 25.0018C70.9999 30.4018 77.8999 36.9018 80.6999 39.5018C79.4999 39.5018 78.1999 39.5018 76.9999 39.5018C74.7999 39.5018 73.6999 40.7018 73.6999 42.9018V57.5018C73.6999 58.5018 74.4999 59.3018 75.4999 59.3018C76.4999 59.3018 77.2999 58.5018 77.2999 57.5018V43.2018C78.8999 43.2018 80.4999 43.2018 82.0999 43.2018C83.9999 43.2018 84.7999 42.2018 85.1999 41.4018C85.9999 39.6018 84.6999 38.3018 84.1999 37.9018C82.6999 36.5018 74.3999 28.7018 67.6999 22.4018C63.4999 18.4018 59.7999 14.9018 58.8999 14.1018Z" fill="#1C3553"/>
<path d="M42.9997 20.4017C42.9997 19.4017 42.5997 19.0017 41.5997 19.0017C40.0997 19.0017 38.5997 19.0017 37.0997 19.0017C36.0997 19.0017 35.6997 19.4017 35.6997 20.4017C35.6997 24.1017 35.6997 29.2017 35.6997 29.2017L42.9997 22.1017C42.9997 21.3017 42.9997 21.3017 42.9997 20.4017Z" fill="#1C3553"/>
</svg>
