<svg width="96" height="96" viewBox="0 0 96 96" fill="none" xmlns="http://www.w3.org/2000/svg">
<path fill-rule="evenodd" clip-rule="evenodd" d="M59.4927 38.3996C59.4927 37.6772 60.0783 37.0916 60.8007 37.0916H65.6007C66.3231 37.0916 66.9087 37.6772 66.9087 38.3996V44.7998C66.9087 45.5222 66.3231 46.1078 65.6007 46.1078H60.8007C60.0783 46.1078 59.4927 45.5222 59.4927 44.7998V38.3996ZM62.1087 39.7077V43.4917H64.2927V39.7077H62.1087Z" fill="#1C3553"/>
<path fill-rule="evenodd" clip-rule="evenodd" d="M45.0928 38.3996C45.0928 37.6772 45.6784 37.0916 46.4008 37.0916H51.2008C51.9232 37.0916 52.5088 37.6772 52.5088 38.3996V44.7998C52.5088 45.5222 51.9232 46.1078 51.2008 46.1078H46.4008C45.6784 46.1078 45.0928 45.5222 45.0928 44.7998V38.3996ZM47.7088 39.7077V43.4917H49.8928V39.7077H47.7088Z" fill="#1C3553"/>
<path fill-rule="evenodd" clip-rule="evenodd" d="M39.5698 22.2739C39.5698 22.2739 39.556 17.7946 39.5612 14.1779C39.5629 13.1989 39.9541 12.812 40.938 12.8052C42.4129 12.7983 43.8861 12.7966 45.3594 12.8069C46.326 12.8137 46.7223 13.2262 46.7292 14.2019C46.7361 15.0423 46.712 14.7633 46.7396 15.602L39.5698 22.2739Z" fill="#1C3553"/>
<path fill-rule="evenodd" clip-rule="evenodd" d="M33.2972 35.7257C33.1722 35.7263 33.0332 35.7268 32.8757 35.7275C31.9479 35.7312 31.1927 34.982 31.189 34.0542C31.1853 33.1263 31.9344 32.3712 32.8622 32.3674C33.0187 32.3668 33.157 32.3662 33.2817 32.3657C34.1796 32.362 34.368 32.3612 35.4982 32.3657C36.1523 32.3688 37.1029 32.4666 37.8229 33.1844C38.5466 33.9061 38.6413 34.8571 38.6413 35.5075V43.2012C38.6413 44.129 37.8891 44.8817 36.9613 44.8817C36.0334 44.8817 35.2813 44.1295 35.2813 43.2016V35.7256C34.3421 35.722 34.1313 35.7223 33.2972 35.7257Z" fill="#1C3553"/>
<path fill-rule="evenodd" clip-rule="evenodd" d="M56.2049 11.3292C57.1792 11.2357 57.9674 11.6774 58.5818 12.2485C59.2614 12.8802 59.3003 13.9432 58.6686 14.6228C58.0369 15.3024 56.9739 15.3413 56.2943 14.7096C56.2911 14.7066 56.288 14.7037 56.285 14.701C56.2521 14.7028 56.2165 14.7039 56.1785 14.7038C56.1411 14.7039 56.106 14.7028 56.0736 14.701M56.0652 14.7088C55.3154 15.4075 52.2006 18.1699 48.481 21.4688C47.4597 22.3745 46.3929 23.3206 45.317 24.2755C40.2905 28.7366 35.0532 33.3998 33.1577 35.1812C32.4815 35.8166 31.4183 35.7836 30.7829 35.1075C30.1475 34.4313 30.1805 33.3681 30.8566 32.7327C32.7967 30.9094 38.0822 26.204 43.0866 21.7624C44.1829 20.7895 45.2652 19.8296 46.2971 18.9145C50.004 15.6269 53.0603 12.9163 53.7753 12.25L53.7769 12.2485C54.3899 11.6786 55.1784 11.2354 56.1527 11.3292C56.1615 11.3297 56.1701 11.3301 56.1785 11.3307C56.1871 11.3301 56.1959 11.3296 56.2049 11.3292" fill="#1C3553"/>
<path fill-rule="evenodd" clip-rule="evenodd" d="M79.2893 32.3657C79.4139 32.3662 79.5523 32.3668 79.7087 32.3674C80.6366 32.3711 81.3857 33.1263 81.382 34.0542C81.3783 34.982 80.6231 35.7312 79.6953 35.7275C79.5378 35.7268 79.3988 35.7263 79.2738 35.7257C78.4396 35.7223 78.2289 35.7214 77.2897 35.725V45.9373L75.6097 45.9381L73.9297 45.9381V35.5075C73.9297 34.8571 74.0243 33.9061 74.7481 33.1844C75.468 32.4666 76.4175 32.3688 77.0716 32.3657C78.2018 32.3612 78.3914 32.362 79.2893 32.3657ZM75.6097 45.9381L73.9297 45.9381C73.9297 46.866 74.6818 47.6182 75.6097 47.6182C76.5375 47.6182 77.2897 46.8652 77.2897 45.9373L75.6097 45.9381Z" fill="#1C3553"/>
<path fill-rule="evenodd" clip-rule="evenodd" d="M56.2857 14.701C56.2827 14.7037 56.2796 14.7066 56.2764 14.7096C55.5968 15.3413 54.5338 15.3024 53.9021 14.6228C53.2704 13.9432 53.3093 12.8802 53.9889 12.2485C54.6033 11.6774 55.3915 11.2357 56.3658 11.3292C56.3748 11.3296 56.3836 11.3301 56.3922 11.3307C56.4006 11.3301 56.4092 11.3297 56.418 11.3292C57.3923 11.2354 58.1808 11.6786 58.7938 12.2485L58.7954 12.25C59.5104 12.9163 62.5668 15.627 66.2738 18.9147C67.3056 19.8298 68.3879 20.7896 69.484 21.7624C74.4885 26.204 79.774 30.9094 81.7141 32.7327C82.3902 33.3681 82.4232 34.4313 81.7878 35.1075C81.1524 35.7836 80.0892 35.8166 79.413 35.1812C77.5175 33.3998 72.2802 28.7366 67.2537 24.2755C66.1778 23.3206 65.111 22.3745 64.0898 21.4688C60.3704 18.1702 57.2558 15.4079 56.5056 14.709C56.5053 14.7087 56.505 14.7084 56.5047 14.7081L56.5121 14.7002C56.5071 14.7005 56.5021 14.7008 56.4971 14.701C56.492 14.6964 56.4872 14.692 56.4825 14.6879C56.4744 14.6877 56.4664 14.6874 56.4583 14.6871L56.4589 14.7024C56.4359 14.7033 56.4137 14.7038 56.3922 14.7038C56.3707 14.7038 56.3485 14.7033 56.3255 14.7024L56.3261 14.6871C56.3175 14.6874 56.3088 14.6877 56.3002 14.6879M56.3265 14.6768L56.3262 14.6864C56.3177 14.6866 56.3094 14.6868 56.3012 14.6869M56.4579 14.6768L56.4583 14.6864C56.4661 14.6866 56.4738 14.6868 56.4814 14.6869C56.477 14.6829 56.4727 14.6791 56.4685 14.6755C56.465 14.676 56.4614 14.6764 56.4579 14.6768ZM56.4575 14.666C56.461 14.669 56.4647 14.6721 56.4685 14.6755L56.4575 14.666ZM56.3265 14.6767C56.3225 14.6763 56.3185 14.6758 56.3144 14.6753C56.3188 14.6715 56.323 14.6678 56.327 14.6645L56.3265 14.6767ZM56.3144 14.6753C56.3184 14.6758 56.3225 14.6763 56.3265 14.6768L56.3144 14.6753ZM56.3922 14.7038C56.4296 14.7039 56.4647 14.7028 56.4971 14.701C56.4999 14.7036 56.5027 14.7063 56.5056 14.709C56.5059 14.7092 56.5061 14.7094 56.5063 14.7096L56.5152 14.6999C56.5293 14.699 56.5428 14.698 56.5557 14.6968C56.6081 14.6922 56.6537 14.6859 56.6903 14.68M56.2857 14.701C56.3186 14.7028 56.3542 14.7039 56.3922 14.7038L56.2857 14.701Z" fill="#1C3553"/>
<path fill-rule="evenodd" clip-rule="evenodd" d="M12.4814 37.3383C12.4814 36.0128 13.556 34.9382 14.8814 34.9382H27.1894C28.1112 34.9382 28.9516 35.4663 29.3516 36.2968L44.0827 66.8823H64.1132C65.4387 66.8823 66.5132 67.9569 66.5132 69.2824C66.5132 70.6079 65.4387 71.6824 64.1132 71.6824H42.5747C41.6529 71.6824 40.8125 71.1544 40.4125 70.3238L25.6815 39.7383H14.8814C13.556 39.7383 12.4814 38.6638 12.4814 37.3383Z" fill="#2988FF"/>
<path fill-rule="evenodd" clip-rule="evenodd" d="M80.3566 49.2493C81.5436 49.8392 82.0276 51.2797 81.4378 52.4667L72.5501 70.3515C72.1446 71.1675 71.312 71.6835 70.4009 71.6835H48.9796C47.6541 71.6835 46.5796 70.6089 46.5796 69.2834C46.5796 67.9579 47.6541 66.8834 48.9796 66.8834H68.9135L77.1393 50.3305C77.7291 49.1435 79.1696 48.6595 80.3566 49.2493Z" fill="#2988FF"/>
<path fill-rule="evenodd" clip-rule="evenodd" d="M44.2965 81.9878C46.5658 81.9878 48.4061 80.1597 48.4061 77.9055C48.4061 75.6513 46.5658 73.8233 44.2965 73.8233C42.0273 73.8233 40.187 75.6513 40.187 77.9055C40.187 80.1597 42.0273 81.9878 44.2965 81.9878Z" fill="#2988FF"/>
<path fill-rule="evenodd" clip-rule="evenodd" d="M67.4967 81.9878C69.766 81.9878 71.6063 80.1597 71.6063 77.9055C71.6063 75.6513 69.766 73.8233 67.4967 73.8233C65.2275 73.8233 63.3872 75.6513 63.3872 77.9055C63.3872 80.1597 65.2275 81.9878 67.4967 81.9878Z" fill="#2988FF"/>
<path fill-rule="evenodd" clip-rule="evenodd" d="M33.1929 50.0001H80.4075V54.0001H33.1929V50.0001Z" fill="#2988FF"/>
</svg>
