<svg width="96" height="97" viewBox="0 0 96 97" fill="none" xmlns="http://www.w3.org/2000/svg">
<path d="M16.2 79.1017H24.4C26.3 79.1017 27.8 77.6017 27.8 75.7017V75.3017C32.5 76.9017 43.4 80.5017 47.5 81.9017C49 82.4017 50.4 82.6017 51.8 82.6017C55.7 82.6017 58.9 81.0017 60.5 80.1017L60.9 79.9017C62.8 79.0017 78.1 70.7017 80.7 69.3017C84.2 67.4017 85 64.6017 84.3 62.7017C83.9 61.8017 83.1 61.0017 82.1 60.6017C80.5 59.9017 78.6 60.0017 76.8 60.8017C75.1 61.4017 69.8 63.3017 66.3 64.5017C66.1 61.7017 63.8 59.5017 61.1 59.5017H51.4C51.3 59.5017 50.8 59.4017 50.8 59.3017L50.7 59.2017C44.5 52.4017 31.9 52.5017 28 52.8017C27.6 51.4017 26.3 50.3017 24.8 50.3017L14.3 50.2017H11.9L11.5 51.4017C11.5 51.5017 11.2 52.4017 11.2 53.5017C11 54.8017 10 67.1017 15.7 78.2017L16.2 79.1017ZM28.1 56.5017C31.4 56.3017 42.8 56.1017 48 61.7017C49.2 63.2017 51.2 63.3017 51.4 63.3017H61C61.8 63.3017 62.7 64.1017 62.7 65.2017C62.7 66.3017 61.9 67.1017 60.8 67.1017H44.5C43.5 67.1017 42.7 67.9017 42.7 68.9017C42.7 69.9017 43.5 70.7017 44.5 70.7017H60.8C62.3 70.7017 63.7 70.1017 64.7 69.1017C66.5 68.5017 75.7 65.2017 78.1 64.3017C79.8 63.6017 80.9 64.0017 81 64.2017C81.1 64.4017 80.7 65.4017 79 66.3017C76.7 67.6017 61.1 75.9017 59.3 76.9017L58.9 77.1017C57 78.1017 53 80.1017 48.7 78.7017C44.2 77.1017 31.6 72.9017 27.9 71.7017L28.1 56.5017ZM14.7 53.8017L24.5 54.0017L24.3 75.5017H18.4C13.6 65.4017 14.7 54.1017 14.7 53.8017Z" fill="#2988FF"/>
<path fill-rule="evenodd" clip-rule="evenodd" d="M47 46.0007V50.0008H49V46.0007H47ZM46 44.0007C45.4477 44.0007 45 44.4484 45 45.0007V51.0008C45 51.5531 45.4477 52.0008 46 52.0008H50C50.5523 52.0008 51 51.5531 51 51.0008V45.0007C51 44.4484 50.5523 44.0007 50 44.0007H46Z" fill="#1C3553"/>
<path fill-rule="evenodd" clip-rule="evenodd" d="M62 46.0007V50.0008H64V46.0007H62ZM61 44.0007C60.4477 44.0007 60 44.4484 60 45.0007V51.0008C60 51.5531 60.4477 52.0008 61 52.0008H65C65.5523 52.0008 66 51.5531 66 51.0008V45.0007C66 44.4484 65.5523 44.0007 65 44.0007H61Z" fill="#1C3553"/>
<path d="M58.9 14.1018C58.1 13.3018 57.2 13.0018 56.3 13.1018C55.4 13.0018 54.5 13.4018 53.7 14.1018L45 22.2018C38.2 28.6018 29.8 36.5018 28.2 37.9018C27.8 38.3018 26.5 39.5018 27.2 41.4018C27.6 42.2018 28.4 43.2018 30.3 43.2018C31.9 43.2018 33.5 43.2018 35.2 43.2018V49.5018C35.2 50.5018 36 51.3018 37 51.3018C38 51.3018 38.8 50.5018 38.8 49.5018V42.9018C38.8 40.8018 37.6 39.6018 35.5 39.5018C34.3 39.5018 33 39.5018 31.8 39.5018C34.7 36.8018 41.7 30.2018 47.5 24.7018L56.2 16.6018C56.3 16.6018 56.3 16.6018 56.3 16.6018C57.2 17.4018 60.9 20.9018 65.2 25.0018C71 30.4018 77.9 36.9018 80.7 39.5018C79.5 39.5018 78.2 39.5018 77 39.5018C74.8 39.5018 73.7 40.7018 73.7 42.9018V57.5018C73.7 58.5018 74.5 59.3018 75.5 59.3018C76.5 59.3018 77.3 58.5018 77.3 57.5018V43.2018C78.9 43.2018 80.5 43.2018 82.1 43.2018C84 43.2018 84.8 42.2018 85.2 41.4018C86 39.6018 84.7 38.3018 84.2 37.9018C82.7 36.5018 74.4 28.7018 67.7 22.4018C63.5 18.4018 59.8 14.9018 58.9 14.1018Z" fill="#1C3553"/>
<path d="M43 20.4017C43 19.4017 42.6 19.0017 41.6 19.0017C40.1 19.0017 38.6 19.0017 37.1 19.0017C36.1 19.0017 35.7 19.4017 35.7 20.4017C35.7 24.1017 35.7 29.2017 35.7 29.2017L43 22.1017C43 21.3017 43 21.3017 43 20.4017Z" fill="#1C3553"/>
</svg>
