<svg width="96" height="96" viewBox="0 0 96 96" fill="none" xmlns="http://www.w3.org/2000/svg">
<path fill-rule="evenodd" clip-rule="evenodd" d="M8.49609 57.0283C8.49609 55.9238 9.39152 55.0283 10.4961 55.0283H19C20.1046 55.0283 21 55.9238 21 57.0283C21 58.1329 20.1046 59.0283 19 59.0283H12.4961V66.6701H86.7183V59.0283H75C73.8954 59.0283 73 58.1329 73 57.0283C73 55.9238 73.8954 55.0283 75 55.0283H88.7183C89.8229 55.0283 90.7183 55.9238 90.7183 57.0283V68.6701C90.7183 69.7747 89.8229 70.6701 88.7183 70.6701H10.4961C9.39152 70.6701 8.49609 69.7747 8.49609 68.6701V57.0283Z" fill="#2988FF"/>
<path fill-rule="evenodd" clip-rule="evenodd" d="M67.2678 36.9758C71.8076 37.6678 75.1349 39.067 77.5293 40.908C80.0118 42.8168 81.3837 45.1187 82.0824 47.3359C82.7726 49.5264 82.7952 51.5939 82.6573 53.0891C82.5878 53.8421 82.4761 54.4665 82.3792 54.9115C82.3306 55.1345 82.2854 55.3139 82.2506 55.4433C82.2331 55.5081 82.2182 55.5606 82.2067 55.5999L82.1921 55.649L82.1869 55.666L82.1839 55.6754C82.1835 55.6767 82.1832 55.6779 80.2755 55.0772L81.1518 56.8751L81.1062 56.8972L80.9821 56.9572C80.8756 57.0087 80.7235 57.0818 80.5394 57.1694C80.1722 57.3443 79.6743 57.5787 79.1567 57.8142C78.6436 58.0477 78.0914 58.2913 77.6217 58.4799C77.3892 58.5732 77.1513 58.6635 76.9356 58.7336L76.9227 58.7378C76.7888 58.7815 76.3943 58.9103 75.9786 58.9103C74.874 58.9103 73.9786 58.0149 73.9786 56.9103C73.9786 55.9009 74.7264 55.0662 75.6981 54.9298C75.6985 54.9297 75.6978 54.9299 75.6981 54.9298C75.7909 54.8996 75.9358 54.8464 76.1313 54.7679C76.5176 54.6128 77.006 54.3982 77.5 54.1734C77.8717 54.0042 78.2354 53.8345 78.5442 53.6886C78.5921 53.42 78.6399 53.0933 78.6742 52.7216C78.7796 51.5787 78.7519 50.0761 78.2673 48.5381C77.7911 47.0268 76.8635 45.4418 75.0912 44.0791C73.3021 42.7035 70.5471 41.4748 66.3006 40.8768C66.0334 40.8391 65.7765 40.7478 65.5455 40.6083C57.6585 35.8449 53.2561 33.6503 50.8694 32.6499C49.6753 32.1494 49.0359 31.9692 48.7504 31.9077C48.7114 31.8993 48.6813 31.8936 48.6592 31.8898C48.6356 31.8906 48.612 31.891 48.5884 31.891H22.9295C22.9221 32.3823 22.734 32.8664 22.3789 33.2398C22.3786 33.2402 22.3793 33.2394 22.3789 33.2398L22.3756 33.2434L22.3514 33.2694C22.3279 33.2948 22.2901 33.3363 22.2399 33.3927C22.1395 33.5057 21.9905 33.6777 21.8091 33.9005C21.4447 34.348 20.958 34.9895 20.4737 35.7588C19.4704 37.352 18.6328 39.2483 18.6328 41.0059V54.9103H22C23.1046 54.9103 24 55.8057 24 56.9103C24 58.0149 23.1046 58.9103 22 58.9103H16.6328C15.5282 58.9103 14.6328 58.0149 14.6328 56.9103V41.0059C14.6328 38.1217 15.9437 35.4458 17.0889 33.6273C17.5971 32.8202 18.1037 32.1337 18.5164 31.6126L18.0998 30.8481C17.7621 30.2284 17.776 29.4766 18.1363 28.8698C18.4967 28.263 19.1502 27.891 19.8559 27.891H48.488C48.5858 27.8842 48.6847 27.8832 48.7847 27.8868C49.0185 27.8954 49.2836 27.9308 49.5926 27.9973C50.2048 28.1292 51.0925 28.4062 52.4158 28.9609C55.0252 30.0547 59.5235 32.312 67.2678 36.9758ZM75.6201 54.9525C75.6208 54.9519 75.6327 54.9484 75.6539 54.9436C75.6301 54.9507 75.6195 54.9531 75.6201 54.9525ZM80.2755 55.0772L81.1518 56.8751C81.6452 56.6345 82.0183 56.2016 82.1832 55.6779L80.2755 55.0772Z" fill="#1C3553"/>
<path fill-rule="evenodd" clip-rule="evenodd" d="M68 59H32V55H68V59Z" fill="#1C3553"/>
<path fill-rule="evenodd" clip-rule="evenodd" d="M71.4956 45.5098C71.4956 44.4052 72.391 43.5098 73.4956 43.5098H79.0689C80.1735 43.5098 81.0689 44.4052 81.0689 45.5098C81.0689 46.6144 80.1735 47.5098 79.0689 47.5098H73.4956C72.391 47.5098 71.4956 46.6144 71.4956 45.5098Z" fill="#1C3553"/>
<path fill-rule="evenodd" clip-rule="evenodd" d="M25.126 29.5551C25.8437 29.5365 26.4407 30.1032 26.4593 30.8209L26.6877 39.6121H62.8387L65.4386 37.2727C65.9724 36.7925 66.7943 36.8358 67.2746 37.3695C67.7548 37.9032 67.7115 38.7252 67.1777 39.2055L64.2071 41.8785C63.9684 42.0933 63.6586 42.2122 63.3375 42.2122H25.4211C24.7163 42.2122 24.1398 41.6505 24.1215 40.9459L23.8602 30.8885C23.8415 30.1707 24.4083 29.5738 25.126 29.5551Z" fill="#1C3553"/>
<path fill-rule="evenodd" clip-rule="evenodd" d="M38.6953 29.3863C39.3149 29.0236 40.1112 29.2318 40.474 29.8514L45.9264 39.1645C46.2892 39.7841 46.0809 40.5804 45.4613 40.9432C44.8418 41.3059 44.0454 41.0977 43.6827 40.4781L38.2302 31.165C37.8675 30.5454 38.0757 29.7491 38.6953 29.3863Z" fill="#1C3553"/>
<path fill-rule="evenodd" clip-rule="evenodd" d="M43.9935 45.8698C43.9935 45.1519 44.5756 44.5698 45.2935 44.5698H46.8384C47.5564 44.5698 48.1384 45.1519 48.1384 45.8698C48.1384 46.5878 47.5564 47.1698 46.8384 47.1698H45.2935C44.5756 47.1698 43.9935 46.5878 43.9935 45.8698Z" fill="#1C3553"/>
<path fill-rule="evenodd" clip-rule="evenodd" d="M15.4119 45.5098C15.4119 44.4052 16.3073 43.5098 17.4119 43.5098H21.4919C22.5964 43.5098 23.4919 44.4052 23.4919 45.5098C23.4919 46.6144 22.5964 47.5098 21.4919 47.5098H17.4119C16.3073 47.5098 15.4119 46.6144 15.4119 45.5098Z" fill="#1C3553"/>
<path fill-rule="evenodd" clip-rule="evenodd" d="M27.1023 54.7783C25.8102 54.7783 24.8392 55.7897 24.8392 56.9505C24.8392 58.1079 25.8102 59.121 27.1023 59.121C28.3944 59.121 29.3655 58.1079 29.3655 56.9505C29.3655 55.7897 28.3944 54.7783 27.1023 54.7783ZM20.8392 56.9505C20.8392 53.4992 23.6833 50.7783 27.1023 50.7783C30.5214 50.7783 33.3655 53.4992 33.3655 56.9505C33.3655 60.3984 30.5214 63.121 27.1023 63.121C23.6833 63.121 20.8392 60.3984 20.8392 56.9505Z" fill="#1C3553"/>
<path fill-rule="evenodd" clip-rule="evenodd" d="M70.4802 54.7783C69.188 54.7783 68.217 55.7897 68.217 56.9505C68.217 58.1079 69.188 59.121 70.4802 59.121C71.7723 59.121 72.7433 58.1079 72.7433 56.9505C72.7433 55.7897 71.7723 54.7783 70.4802 54.7783ZM64.217 56.9505C64.217 53.4992 67.0611 50.7783 70.4802 50.7783C73.8992 50.7783 76.7433 53.4992 76.7433 56.9505C76.7433 60.3984 73.8992 63.121 70.4802 63.121C67.0611 63.121 64.217 60.3984 64.217 56.9505Z" fill="#1C3553"/>
</svg>
