<svg width="96" height="96" viewBox="0 0 96 96" fill="none" xmlns="http://www.w3.org/2000/svg">
<path d="M72.6 35.7962V45.2962C72.6 46.1962 73.3 46.9962 74.2 46.9962C75.1 46.9962 75.8 46.2962 75.8 45.2962V35.8962C77.5 35.8962 79.1 35.8962 80.8 35.8962C82.6 35.9962 83.4 34.9962 83.7 34.1962C84.4 32.4962 83.2 31.2962 82.8 30.8962C81.2 29.3962 72.5 21.1962 65.7 14.7962L57.4 6.99624C57.1 6.69624 56.2 5.79624 54.9 5.99624C53.6 5.79624 52.7 6.69624 52.4 6.99624L44 14.8962C37.2 21.2962 28.6 29.3962 27 30.8962C26.6 31.2962 25.3 32.4962 26.1 34.1962C26.4 34.9962 27.2 35.8962 29 35.8962C30.7 35.8962 32.3 35.8962 34 35.8962V43.5962C34 44.4962 34.7 45.2962 35.6 45.2962C36.5 45.2962 37.2 44.5962 37.2 43.5962V35.7962C37.2 33.6962 36.1 32.5962 34 32.5962C32.6 32.5962 31.3 32.5962 29.9 32.5962C32.6 30.0962 40.1 23.0962 46.1 17.3962L54.5 9.49624L54.6 9.39624C54.7 9.39624 54.8 9.39624 54.9 9.39624L55 9.49624L63.3 17.2962C69.4 22.9962 77 30.0962 79.7 32.6962C78.3 32.6962 77 32.6962 75.6 32.6962C73.7 32.5962 72.6 33.6962 72.6 35.7962Z" fill="#1C3553"/>
<path d="M40.0001 10.9963C38.5001 10.9963 37.0001 10.9963 35.5001 10.9963C34.5001 10.9963 34.1001 11.3963 34.1001 12.3963C34.1001 16.0963 34.1001 21.9963 34.1001 21.9963L41.4001 14.8963C41.4001 13.9963 41.4001 13.2963 41.4001 12.3963C41.4001 11.3963 41.0001 10.9963 40.0001 10.9963Z" fill="#1C3553"/>
<path fill-rule="evenodd" clip-rule="evenodd" d="M46 39.9995V43.9994H48V39.9995H46ZM45 37.9995C44.4477 37.9995 44 38.4472 44 38.9995V44.9994C44 45.5517 44.4477 45.9994 45 45.9994H49C49.5523 45.9994 50 45.5517 50 44.9994V38.9995C50 38.4472 49.5523 37.9995 49 37.9995H45Z" fill="#1C3553"/>
<path fill-rule="evenodd" clip-rule="evenodd" d="M62 39.9995V43.9994H64V39.9995H62ZM61 37.9995C60.4477 37.9995 60 38.4472 60 38.9995V44.9994C60 45.5517 60.4477 45.9994 61 45.9994H65C65.5523 45.9994 66 45.5517 66 44.9994V38.9995C66 38.4472 65.5523 37.9995 65 37.9995H61Z" fill="#1C3553"/>
<path d="M30.2 64.8964L26.2 72.1964C25.9 72.6964 25.9 73.2964 26.2 73.7964L27.2 75.7964C27.5 76.3964 28.1 76.7964 28.8 76.7964H72.7L74.2 79.7964C74.5 80.3964 75.1 80.7964 75.8 80.7964C76.1 80.7964 76.3 80.6964 76.6 80.5964C77.5 80.1964 77.8 79.0964 77.4 78.2964L75.4 74.2964C75.1 73.6964 74.5 73.2964 73.8 73.2964H29.9L29.8 73.0964L33.9 65.7964H73.9C74.8 65.7964 75.5 65.0964 75.6 64.1964L77.6 45.7964C77.7 45.2964 77.5 44.7964 77.2 44.4964C76.9 44.0964 76.4 43.8964 75.9 43.8964L28 43.1964C27.9 43.1964 27.8 43.1964 27.7 43.1964L24.5 32.0964C24.3 31.5964 24 31.0964 23.4 30.8964C17.9 28.7964 14.7 27.7964 13.8 27.7964C12.8 27.7964 12 28.5964 12 29.5964C12 30.4964 12.7 31.2964 13.7 31.2964C14.5 31.3964 18.1 32.6964 21.3 33.8964L30.1 64.4964C30 64.5964 30.1 64.6964 30.2 64.8964ZM61.9 56.8964L53.2 56.7964L52.9 53.0964L61.9 53.2964V56.8964ZM63.9 53.2964L73 53.4964L72.6 56.9964L63.9 56.8964V53.2964ZM53.4 58.7964L61.9 58.8964V62.2964H53.7L53.4 58.7964ZM51.7 62.1964H43.5L42.8 58.5964L51.5 58.6964L51.7 62.1964ZM52.8 51.0964L52.4 46.9964L61.9 47.0964V51.1964L52.8 51.0964ZM50.7 50.9964L41.1 50.7964L40.3 46.7964L50.3 46.8964L50.7 50.9964ZM50.9 52.9964L51.2 56.6964L42.3 56.5964L41.5 52.7964L50.9 52.9964ZM40.3 56.5964L31.3 56.4964L30.2 52.5964L39.5 52.7964L40.3 56.5964ZM40.7 58.5964L41.4 62.1964H32.9L31.8 58.4964L40.7 58.5964ZM63.9 62.1964V58.7964L72.4 58.8964L72 62.1964H63.9ZM73.2 51.4964L63.9 51.2964V47.0964L73.7 47.1964L73.2 51.4964ZM38.3 46.7964L39.1 50.7964L29.6 50.5964L28.5 46.5964L38.3 46.7964Z" fill="#2988FF"/>
<path d="M38.1998 84.1963C38.1998 81.0963 35.6998 78.4963 32.4998 78.4963C29.3998 78.4963 26.7998 80.9963 26.7998 84.1963C26.7998 87.2963 29.2998 89.7963 32.4998 89.7963C35.6998 89.7963 38.1998 87.2963 38.1998 84.1963ZM30.3998 84.1963C30.3998 82.9963 31.3998 81.9963 32.5998 81.9963C33.7998 81.9963 34.7998 82.9963 34.7998 84.1963C34.7998 85.3963 33.7998 86.2963 32.5998 86.2963C31.3998 86.2963 30.3998 85.3963 30.3998 84.1963Z" fill="#2988FF"/>
<path d="M66.5999 78.4963C63.4999 78.4963 60.8999 80.9963 60.8999 84.1963C60.8999 87.2963 63.3999 89.7963 66.5999 89.7963C69.6999 89.7963 72.2999 87.2963 72.2999 84.1963C72.1999 81.0963 69.6999 78.4963 66.5999 78.4963ZM66.5999 86.2963C65.3999 86.2963 64.3999 85.2963 64.3999 84.1963C64.3999 82.9963 65.3999 81.9963 66.5999 81.9963C67.7999 81.9963 68.7999 82.9963 68.7999 84.1963C68.6999 85.3963 67.6999 86.2963 66.5999 86.2963Z" fill="#2988FF"/>
</svg>
