<svg width="96" height="96" viewBox="0 0 96 96" fill="none" xmlns="http://www.w3.org/2000/svg">
<path d="M51.8645 65.0981L50.7645 60.6981L54.5645 57.6981L49.5645 57.2981L47.5645 53.0981L45.5645 57.2981L40.5645 57.6981L44.3645 60.6981L43.2645 65.0981L47.5645 62.6981L51.8645 65.0981Z" fill="#2988FF"/>
<path d="M75.6644 42.1981C74.5644 41.2981 51.5644 22.6981 48.9644 20.4981C48.2644 19.8981 47.1644 19.8981 46.4644 20.4981C45.4644 21.2981 21.5644 41.0981 20.3644 42.1981C19.0644 43.2981 18.7644 44.5981 19.3644 45.8981C19.7644 46.6981 20.5644 47.6981 22.5644 47.6981C24.1644 47.6981 25.6644 47.6981 27.2644 47.6981V47.8981C27.2644 47.9981 27.2644 48.0981 27.2644 48.1981V49.8981C27.2644 49.9981 27.2644 50.0981 27.2644 50.1981V71.1981C27.2644 73.2981 27.2644 76.7981 30.9644 76.7981H65.0644C68.7644 76.7981 68.7644 73.2981 68.7644 71.1981V50.2981C68.7644 50.1981 68.7644 50.0981 68.7644 49.8981V47.7981C70.2644 47.7981 71.8644 47.7981 73.3644 47.7981C75.3644 47.7981 76.1644 46.7981 76.5644 45.9981C77.2644 44.5981 76.9644 43.2981 75.6644 42.1981ZM27.2644 46.7981C27.2644 46.7981 27.1644 46.7981 27.2644 46.7981V46.7981ZM68.2644 43.6981C67.2644 43.6981 64.9644 43.6981 64.8644 46.5981C64.8644 46.6981 64.8644 46.8981 64.8644 46.9981V71.0981C64.8644 71.8981 64.8644 72.3981 64.7644 72.6981H31.2644C31.2644 72.3981 31.1644 71.8981 31.1644 71.0981V46.9981C31.1644 46.8981 31.1644 46.6981 31.1644 46.5981C31.0644 43.6981 28.6644 43.6981 27.6644 43.6981C26.6644 43.6981 25.7644 43.6981 24.7644 43.6981C29.1644 39.9981 40.4644 30.6981 47.6644 24.6981C55.9644 31.3981 66.8644 40.1981 71.1644 43.6981C70.2644 43.6981 69.2644 43.6981 68.2644 43.6981Z" fill="#1C3553"/>
</svg>
