<svg width="96" height="96" viewBox="0 0 96 96" fill="none" xmlns="http://www.w3.org/2000/svg">
<path d="M51.8645 65.0981L50.7645 60.6981L54.5645 57.6981L49.5645 57.2981L47.5645 53.0981L45.5645 57.2981L40.5645 57.6981L44.3645 60.6981L43.2645 65.0981L47.5645 62.6981L51.8645 65.0981Z" fill="#2988FF"/>
<path d="M75.6643 42.1981C74.5643 41.2981 51.5643 22.6981 48.9643 20.4981C48.2643 19.8981 47.1643 19.8981 46.4643 20.4981C45.4643 21.2981 21.5643 41.0981 20.3643 42.1981C19.0643 43.2981 18.7643 44.5981 19.3643 45.8981C19.7643 46.6981 20.5643 47.6981 22.5643 47.6981C24.1643 47.6981 25.6643 47.6981 27.2643 47.6981V47.8981C27.2643 47.9981 27.2643 48.0981 27.2643 48.1981V49.8981C27.2643 49.9981 27.2643 50.0981 27.2643 50.1981V71.1981C27.2643 73.2981 27.2643 76.7981 30.9643 76.7981H65.0643C68.7643 76.7981 68.7643 73.2981 68.7643 71.1981V50.2981C68.7643 50.1981 68.7643 50.0981 68.7643 49.8981V47.7981C70.2643 47.7981 71.8643 47.7981 73.3643 47.7981C75.3643 47.7981 76.1643 46.7981 76.5643 45.9981C77.2643 44.5981 76.9643 43.2981 75.6643 42.1981ZM27.2643 46.7981C27.2643 46.7981 27.1643 46.7981 27.2643 46.7981V46.7981ZM68.2643 43.6981C67.2643 43.6981 64.9643 43.6981 64.8643 46.5981C64.8643 46.6981 64.8643 46.8981 64.8643 46.9981V71.0981C64.8643 71.8981 64.8643 72.3981 64.7643 72.6981H31.2643C31.2643 72.3981 31.1643 71.8981 31.1643 71.0981V46.9981C31.1643 46.8981 31.1643 46.6981 31.1643 46.5981C31.0643 43.6981 28.6643 43.6981 27.6643 43.6981C26.6643 43.6981 25.7643 43.6981 24.7643 43.6981C29.1643 39.9981 40.4643 30.6981 47.6643 24.6981C55.9643 31.3981 66.8643 40.1981 71.1643 43.6981C70.2643 43.6981 69.2643 43.6981 68.2643 43.6981Z" fill="#1C3553"/>
</svg>
