<svg width="96" height="96" viewBox="0 0 96 96" fill="none" xmlns="http://www.w3.org/2000/svg">
<path d="M34.9998 60.5985L38.7998 57.5985L33.7998 57.1985L31.7998 52.9985L29.7998 57.1985L24.7998 57.5985L28.5998 60.5985L27.4998 64.9985L31.7998 62.5985L36.0998 64.9985L34.9998 60.5985Z" fill="#2988FF"/>
<path d="M50.9998 60.5985L54.7998 57.5985L49.7998 57.1985L47.7998 52.9985L45.7998 57.1985L40.7998 57.5985L44.5998 60.5985L43.4998 64.9985L47.7998 62.5985L52.0998 64.9985L50.9998 60.5985Z" fill="#2988FF"/>
<path d="M66.9998 60.5985L70.7998 57.5985L65.7998 57.1985L63.7998 52.9985L61.7998 57.1985L56.7998 57.5985L60.5998 60.5985L59.4998 64.9985L63.7998 62.5985L68.0998 64.9985L66.9998 60.5985Z" fill="#2988FF"/>
<path d="M29.3779 66.9985C28.2779 66.9985 27.3779 67.8985 27.3779 68.9985V72.4985C27.3779 74.9985 30.0779 74.9985 30.9779 74.9985H63.1779C64.0779 74.9985 66.7779 74.9985 66.7779 72.4985V68.9985C66.7779 67.8985 65.8779 66.9985 64.7779 66.9985C63.6779 66.9985 62.7779 67.8985 62.7779 68.9985V70.9985H31.3779V68.9985C31.3779 67.8985 30.4779 66.9985 29.3779 66.9985Z" fill="#1C3553"/>
<path d="M28.0778 47.5986C28.0778 47.6986 28.0778 47.8986 28.0778 47.9986V49.6986C28.0778 50.7986 28.9778 51.6986 30.0778 51.6986C31.1778 51.6986 32.0778 50.7986 32.0778 49.6986L31.6778 49.4986C31.9778 49.1986 32.0778 48.6986 32.0778 48.2986V46.5986C32.0778 43.5986 29.5778 43.5986 28.6778 43.5986C27.7778 43.5986 26.8778 43.5986 26.0778 43.5986C30.1778 39.9986 40.7778 30.5986 47.6778 24.5986C55.4778 31.2986 65.7778 40.0986 69.7778 43.5986C68.8778 43.5986 67.9778 43.5986 67.0778 43.5986C66.1778 43.5986 63.7778 43.5986 63.7778 46.6986V49.7986C63.7778 50.8986 64.6778 51.7986 65.7778 51.7986C66.8778 51.7986 67.7778 50.8986 67.7778 49.7986V47.6986C69.1778 47.6986 70.5778 47.6986 72.0778 47.6986C73.9778 47.6986 74.8778 46.6986 75.1778 45.7986C75.7778 44.4986 75.3778 43.2986 74.1778 42.1986C73.1778 41.2986 51.3778 22.6986 48.9778 20.4986C48.1778 19.8986 47.0778 19.8986 46.3778 20.4986C45.3778 21.2986 22.8778 41.0986 21.7778 42.1986C20.5778 43.2986 20.2778 44.4986 20.7778 45.7986C21.1778 46.6986 21.9778 47.6986 23.9778 47.6986C25.1778 47.5986 26.5778 47.5986 28.0778 47.5986ZM28.4778 46.7986C28.3778 46.8986 28.3778 46.9986 28.2778 46.9986C28.1778 46.8986 28.0778 46.6986 28.0778 46.5986L28.4778 46.7986Z" fill="#1C3553"/>
</svg>
