<svg width="96" height="96" viewBox="0 0 96 96" fill="none" xmlns="http://www.w3.org/2000/svg">
<path d="M26 57.1L24 52.8L22 57.1L17 57.5L20.8 60.5L19.7 64.8L24 62.5L28.3 64.8L27.2 60.5L31 57.5L26 57.1Z" fill="#2988FF"/>
<path d="M42 57.1L40 52.8L38 57.1L33 57.5L36.8 60.5L35.7 64.8L40 62.5L44.3 64.8L43.2 60.5L47 57.5L42 57.1Z" fill="#2988FF"/>
<path d="M58 57.1L56 52.8L54 57.1L49 57.5L52.8 60.5L51.7 64.8L56 62.5L60.3 64.8L59.2 60.5L63 57.5L58 57.1Z" fill="#2988FF"/>
<path d="M74 57.1L72 52.8L70 57.1L65 57.5L68.8 60.5L67.7 64.8L72 62.5L76.3 64.8L75.2 60.5L79 57.5L74 57.1Z" fill="#2988FF"/>
<path d="M65.4999 67C64.4999 67 63.5999 67.8 63.5999 68.9V71H31.7999V68.9C31.7999 67.9 30.9999 67 29.8999 67C28.7999 67 27.9999 67.7 27.9999 68.8V72.3C27.9999 74.7 30.4999 74.7 31.4999 74.7H63.6999C64.6999 74.7 67.1999 74.7 67.1999 72.3V68.8C67.3999 67.8 66.4999 67 65.4999 67Z" fill="#1C3553"/>
<path d="M49.2999 20.5C48.5999 19.9 47.5999 19.9 46.8999 20.5C45.8999 21.3 23.3999 41.1 22.2999 42.1C21.8999 42.5 20.5999 43.7001 21.3999 45.5C21.7999 46.3 22.5999 47.3 24.3999 47.3C25.8999 47.3 27.2999 47.3 28.8999 47.3C28.7999 47.5 28.7999 47.7 28.7999 47.9V49.6C28.7999 50.6 29.5999 51.5 30.6999 51.5C31.7999 51.5 32.5999 50.7001 32.5999 49.6L32.1999 49.4C32.4999 49.1 32.5999 48.7001 32.5999 48.2001V46.5C32.5999 43.6 30.2999 43.6 29.2999 43.6C28.2999 43.6 27.2999 43.6 26.2999 43.6C30.1999 40.2001 41.1999 30.5 48.1999 24.3C56.1999 31.2 66.8999 40.3001 70.6999 43.6C69.6999 43.6 68.6999 43.6 67.6999 43.6C66.7999 43.6 64.4999 43.6 64.4999 46.5V49.6C64.4999 50.6 65.2999 51.5 66.3999 51.5C67.4999 51.5 68.2999 50.7001 68.2999 49.6V47.3C69.7999 47.3 71.1999 47.3 72.6999 47.3C74.5999 47.3 75.3999 46.3 75.6999 45.5C76.1999 44.3 75.8999 43.1 74.7999 42C73.5999 41.1 51.7999 22.6 49.2999 20.5ZM29.1999 46.7001C29.0999 46.8001 29.0999 46.8 28.9999 46.9C28.8999 46.8 28.7999 46.6 28.7999 46.5L29.1999 46.7001Z" fill="#1C3553"/>
</svg>
