<svg width="96" height="96" viewBox="0 0 96 96" fill="none" xmlns="http://www.w3.org/2000/svg">
<path d="M42.5 57.2996L40.5 53.0996L38.5 57.2996L33.5 57.6996L37.3 60.6996L36.2 65.0996L40.5 62.6996L44.8 65.0996L43.7 60.6996L47.5 57.6996L42.5 57.2996Z" fill="#2988FF"/>
<path d="M57.5 57.2996L55.5 53.0996L53.5 57.2996L48.5 57.6996L52.3 60.6996L51.2 65.0996L55.5 62.6996L59.8 65.0996L58.7 60.6996L62.5 57.6996L57.5 57.2996Z" fill="#2988FF"/>
<path d="M75.6 42.1996C74.5 41.2996 51.5 22.6996 48.9 20.4996C48.2 19.8996 47.1 19.8996 46.4 20.4996C45.4 21.2996 21.5 41.0996 20.3 42.1996C19 43.2996 18.7 44.5996 19.3 45.8996C19.7 46.6996 20.5 47.6996 22.5 47.6996C24.1 47.6996 25.6 47.6996 27.2 47.6996V47.8996C27.2 47.9996 27.2 48.0996 27.2 48.1996V49.8996C27.2 49.9996 27.2 50.0996 27.2 50.1996V71.1996C27.2 73.2996 27.2 76.7996 30.9 76.7996H65C68.7 76.7996 68.7 73.2996 68.7 71.1996V50.2996C68.7 50.1996 68.7 50.0996 68.7 49.8996V47.7996C70.2 47.7996 71.8 47.7996 73.3 47.7996C75.3 47.7996 76.1 46.7996 76.5 45.9996C77.2 44.5996 76.9 43.2996 75.6 42.1996ZM27.2 46.7996C27.2 46.7996 27.1 46.7996 27.2 46.7996V46.7996ZM68.2 43.6996C67.2 43.6996 64.9 43.6996 64.8 46.5996C64.8 46.6996 64.8 46.8996 64.8 46.9996V71.0996C64.8 71.8996 64.8 72.3996 64.7 72.6996H31.2C31.2 72.3996 31.1 71.8996 31.1 71.0996V46.9996C31.1 46.8996 31.1 46.6996 31.1 46.5996C31 43.6996 28.6 43.6996 27.6 43.6996C26.6 43.6996 25.7 43.6996 24.7 43.6996C29.1 39.9996 40.4 30.6996 47.6 24.6996C55.9 31.3996 66.8 40.1996 71.1 43.6996C70.2 43.6996 69.2 43.6996 68.2 43.6996Z" fill="#1C3553"/>
</svg>
