<svg width="96" height="96" viewBox="0 0 96 96" fill="none" xmlns="http://www.w3.org/2000/svg">
<path d="M42.5 57.2996L40.5 53.0996L38.5 57.2996L33.5 57.6996L37.3 60.6996L36.2 65.0996L40.5 62.6996L44.8 65.0996L43.7 60.6996L47.5 57.6996L42.5 57.2996Z" fill="#2988FF"/>
<path d="M57.5 57.2996L55.5 53.0996L53.5 57.2996L48.5 57.6996L52.3 60.6996L51.2 65.0996L55.5 62.6996L59.8 65.0996L58.7 60.6996L62.5 57.6996L57.5 57.2996Z" fill="#2988FF"/>
<path d="M75.5998 42.1996C74.4998 41.2996 51.4998 22.6996 48.8998 20.4996C48.1998 19.8996 47.0998 19.8996 46.3998 20.4996C45.3998 21.2996 21.4998 41.0996 20.2998 42.1996C18.9998 43.2996 18.6998 44.5996 19.2998 45.8996C19.6998 46.6996 20.4998 47.6996 22.4998 47.6996C24.0998 47.6996 25.5998 47.6996 27.1998 47.6996V47.8996C27.1998 47.9996 27.1998 48.0996 27.1998 48.1996V49.8996C27.1998 49.9996 27.1998 50.0996 27.1998 50.1996V71.1996C27.1998 73.2996 27.1998 76.7996 30.8998 76.7996H64.9998C68.6998 76.7996 68.6998 73.2996 68.6998 71.1996V50.2996C68.6998 50.1996 68.6998 50.0996 68.6998 49.8996V47.7996C70.1998 47.7996 71.7998 47.7996 73.2998 47.7996C75.2998 47.7996 76.0998 46.7996 76.4998 45.9996C77.1998 44.5996 76.8998 43.2996 75.5998 42.1996ZM27.1998 46.7996C27.1998 46.7996 27.0998 46.7996 27.1998 46.7996V46.7996ZM68.1998 43.6996C67.1998 43.6996 64.8998 43.6996 64.7998 46.5996C64.7998 46.6996 64.7998 46.8996 64.7998 46.9996V71.0996C64.7998 71.8996 64.7998 72.3996 64.6998 72.6996H31.1998C31.1998 72.3996 31.0998 71.8996 31.0998 71.0996V46.9996C31.0998 46.8996 31.0998 46.6996 31.0998 46.5996C30.9998 43.6996 28.5998 43.6996 27.5998 43.6996C26.5998 43.6996 25.6998 43.6996 24.6998 43.6996C29.0998 39.9996 40.3998 30.6996 47.5998 24.6996C55.8998 31.3996 66.7998 40.1996 71.0998 43.6996C70.1998 43.6996 69.1998 43.6996 68.1998 43.6996Z" fill="#1C3553"/>
</svg>
