<svg width="96" height="96" viewBox="0 0 96 96" fill="none" xmlns="http://www.w3.org/2000/svg">
<path d="M35 60.5985L38.8 57.5985L33.8 57.1985L31.8 52.9985L29.8 57.1985L24.8 57.5985L28.6 60.5985L27.5 64.9985L31.8 62.5985L36.1 64.9985L35 60.5985Z" fill="#2988FF"/>
<path d="M51 60.5985L54.8 57.5985L49.8 57.1985L47.8 52.9985L45.8 57.1985L40.8 57.5985L44.6 60.5985L43.5 64.9985L47.8 62.5985L52.1 64.9985L51 60.5985Z" fill="#2988FF"/>
<path d="M67 60.5985L70.8 57.5985L65.8 57.1985L63.8 52.9985L61.8 57.1985L56.8 57.5985L60.6 60.5985L59.5 64.9985L63.8 62.5985L68.1 64.9985L67 60.5985Z" fill="#2988FF"/>
<path d="M29.3779 66.9985C28.2779 66.9985 27.3779 67.8985 27.3779 68.9985V72.4985C27.3779 74.9985 30.0779 74.9985 30.9779 74.9985H63.1779C64.0779 74.9985 66.7779 74.9985 66.7779 72.4985V68.9985C66.7779 67.8985 65.8779 66.9985 64.7779 66.9985C63.6779 66.9985 62.7779 67.8985 62.7779 68.9985V70.9985H31.3779V68.9985C31.3779 67.8985 30.4779 66.9985 29.3779 66.9985Z" fill="#1C3553"/>
<path d="M28.0779 47.5986C28.0779 47.6986 28.0779 47.8986 28.0779 47.9986V49.6986C28.0779 50.7986 28.9779 51.6986 30.0779 51.6986C31.1779 51.6986 32.0779 50.7986 32.0779 49.6986L31.6779 49.4986C31.9779 49.1986 32.0779 48.6986 32.0779 48.2986V46.5986C32.0779 43.5986 29.5779 43.5986 28.6779 43.5986C27.7779 43.5986 26.8779 43.5986 26.0779 43.5986C30.1779 39.9986 40.7779 30.5986 47.6779 24.5986C55.4779 31.2986 65.7779 40.0986 69.7779 43.5986C68.8779 43.5986 67.9779 43.5986 67.0779 43.5986C66.1779 43.5986 63.7779 43.5986 63.7779 46.6986V49.7986C63.7779 50.8986 64.6779 51.7986 65.7779 51.7986C66.8779 51.7986 67.7779 50.8986 67.7779 49.7986V47.6986C69.1779 47.6986 70.5779 47.6986 72.0779 47.6986C73.9779 47.6986 74.8779 46.6986 75.1779 45.7986C75.7779 44.4986 75.3779 43.2986 74.1779 42.1986C73.1779 41.2986 51.3779 22.6986 48.9779 20.4986C48.1779 19.8986 47.0779 19.8986 46.3779 20.4986C45.3779 21.2986 22.8779 41.0986 21.7779 42.1986C20.5779 43.2986 20.2779 44.4986 20.7779 45.7986C21.1779 46.6986 21.9779 47.6986 23.9779 47.6986C25.1779 47.5986 26.5779 47.5986 28.0779 47.5986ZM28.4779 46.7986C28.3779 46.8986 28.3779 46.9986 28.2779 46.9986C28.1779 46.8986 28.0779 46.6986 28.0779 46.5986L28.4779 46.7986Z" fill="#1C3553"/>
</svg>
