<svg width="96" height="96" viewBox="0 0 96 96" fill="none" xmlns="http://www.w3.org/2000/svg">
<path d="M26 57.1L24 52.8L22 57.1L17 57.5L20.8 60.5L19.7 64.8L24 62.5L28.3 64.8L27.2 60.5L31 57.5L26 57.1Z" fill="#2988FF"/>
<path d="M42 57.1L40 52.8L38 57.1L33 57.5L36.8 60.5L35.7 64.8L40 62.5L44.3 64.8L43.2 60.5L47 57.5L42 57.1Z" fill="#2988FF"/>
<path d="M58 57.1L56 52.8L54 57.1L49 57.5L52.8 60.5L51.7 64.8L56 62.5L60.3 64.8L59.2 60.5L63 57.5L58 57.1Z" fill="#2988FF"/>
<path d="M74 57.1L72 52.8L70 57.1L65 57.5L68.8 60.5L67.7 64.8L72 62.5L76.3 64.8L75.2 60.5L79 57.5L74 57.1Z" fill="#2988FF"/>
<path d="M65.5 67C64.5 67 63.6 67.8 63.6 68.9V71H31.8V68.9C31.8 67.9 31 67 29.9 67C28.8 67 28 67.7 28 68.8V72.3C28 74.7 30.5 74.7 31.5 74.7H63.7C64.7 74.7 67.2 74.7 67.2 72.3V68.8C67.4 67.8 66.5 67 65.5 67Z" fill="#1C3553"/>
<path d="M49.2998 20.5C48.5998 19.9 47.5998 19.9 46.8998 20.5C45.8998 21.3 23.3998 41.1 22.2998 42.1C21.8998 42.5 20.5998 43.7 21.3998 45.5C21.7998 46.3 22.5998 47.3 24.3998 47.3C25.8998 47.3 27.2998 47.3 28.8998 47.3C28.7998 47.5 28.7998 47.7 28.7998 47.9V49.6C28.7998 50.6 29.5998 51.5 30.6998 51.5C31.7998 51.5 32.5998 50.7 32.5998 49.6L32.1998 49.4C32.4998 49.1 32.5998 48.7 32.5998 48.2V46.5C32.5998 43.6 30.2998 43.6 29.2998 43.6C28.2998 43.6 27.2998 43.6 26.2998 43.6C30.1998 40.2 41.1998 30.5 48.1998 24.3C56.1998 31.2 66.8998 40.3 70.6998 43.6C69.6998 43.6 68.6998 43.6 67.6998 43.6C66.7998 43.6 64.4998 43.6 64.4998 46.5V49.6C64.4998 50.6 65.2998 51.5 66.3998 51.5C67.4998 51.5 68.2998 50.7 68.2998 49.6V47.3C69.7998 47.3 71.1998 47.3 72.6998 47.3C74.5998 47.3 75.3998 46.3 75.6998 45.5C76.1998 44.3 75.8998 43.1 74.7998 42C73.5998 41.1 51.7998 22.6 49.2998 20.5ZM29.1998 46.7C29.0998 46.8 29.0998 46.8 28.9998 46.9C28.8998 46.8 28.7998 46.6 28.7998 46.5L29.1998 46.7Z" fill="#1C3553"/>
</svg>
