<svg width="96" height="96" viewBox="0 0 96 96" fill="none" xmlns="http://www.w3.org/2000/svg">
<path fill-rule="evenodd" clip-rule="evenodd" d="M28.2812 27.7538C28.2812 26.8702 28.9976 26.1538 29.8812 26.1538H35.2968C36.1804 26.1538 36.8968 26.8702 36.8968 27.7538V83.2C36.8968 84.0836 36.1804 84.8 35.2968 84.8H29.8812C28.9976 84.8 28.2812 84.0836 28.2812 83.2V27.7538ZM31.4812 29.3538V81.6H33.6968V29.3538H31.4812Z" fill="#1C3553"/>
<path fill-rule="evenodd" clip-rule="evenodd" d="M28.374 12.8632C28.374 11.9795 29.0904 11.2632 29.974 11.2632H35.2057C36.0894 11.2632 36.8057 11.9795 36.8057 12.8632C36.8057 13.7468 36.0894 14.4632 35.2057 14.4632H29.974C29.0904 14.4632 28.374 13.7468 28.374 12.8632Z" fill="#1C3553"/>
<path fill-rule="evenodd" clip-rule="evenodd" d="M69.2798 49.6C69.2798 48.7163 69.9961 48 70.8798 48H75.6798C76.5634 48 77.2798 48.7163 77.2798 49.6V83.2C77.2798 84.0837 76.5634 84.8 75.6798 84.8H70.8798C69.9961 84.8 69.2798 84.0837 69.2798 83.2V49.6ZM72.4798 51.2V81.6H74.0798V51.2H72.4798Z" fill="#1C3553"/>
<path fill-rule="evenodd" clip-rule="evenodd" d="M49.9995 20.7999C49.9995 20.1371 50.5368 19.5999 51.1995 19.5999H55.024C55.6867 19.5999 56.224 20.1371 56.224 20.7999C56.224 21.4626 55.6867 21.9999 55.024 21.9999H52.3995V34.2787H73.5995C74.2622 34.2787 74.7995 34.816 74.7995 35.4787V47.9998C74.7995 48.6626 74.2622 49.1999 73.5995 49.1999C72.9368 49.1999 72.3995 48.6626 72.3995 47.9998V36.6787H51.1995C50.5368 36.6787 49.9995 36.1415 49.9995 35.4787V20.7999Z" fill="#1C3553"/>
<path fill-rule="evenodd" clip-rule="evenodd" d="M83.3613 17.2416C83.5592 17.3396 83.6403 17.5795 83.5423 17.7775L81.9583 20.9775C81.8603 21.1755 81.6203 21.2565 81.4223 21.1585C81.2244 21.0605 81.1433 20.8206 81.2413 20.6226L82.8253 17.4226C82.9233 17.2246 83.1633 17.1436 83.3613 17.2416Z" fill="#2988FF"/>
<path fill-rule="evenodd" clip-rule="evenodd" d="M80.1615 17.2416C80.3595 17.3396 80.4406 17.5795 80.3426 17.7775L78.7586 20.9775C78.6606 21.1755 78.4206 21.2565 78.2226 21.1585C78.0247 21.0605 77.9436 20.8206 78.0416 20.6226L79.6256 17.4226C79.7236 17.2246 79.9636 17.1436 80.1615 17.2416Z" fill="#2988FF"/>
<path fill-rule="evenodd" clip-rule="evenodd" d="M76.9614 17.2416C77.1593 17.3396 77.2404 17.5795 77.1424 17.7775L75.5584 20.9775C75.4604 21.1755 75.2204 21.2565 75.0224 21.1585C74.8245 21.0605 74.7434 20.8206 74.8414 20.6226L76.4254 17.4226C76.5234 17.2246 76.7634 17.1436 76.9614 17.2416Z" fill="#2988FF"/>
<path fill-rule="evenodd" clip-rule="evenodd" d="M73.7611 17.2416C73.9591 17.3396 74.0402 17.5795 73.9422 17.7775L72.3582 20.9775C72.2602 21.1755 72.0202 21.2565 71.8222 21.1585C71.6243 21.0605 71.5432 20.8206 71.6412 20.6226L73.2252 17.4226C73.3232 17.2246 73.5632 17.1436 73.7611 17.2416Z" fill="#2988FF"/>
<path fill-rule="evenodd" clip-rule="evenodd" d="M67.3612 17.2416C67.5592 17.3396 67.6403 17.5795 67.5423 17.7775L65.9583 20.9775C65.8603 21.1755 65.6203 21.2565 65.4223 21.1585C65.2244 21.0605 65.1433 20.8206 65.2413 20.6226L66.8253 17.4226C66.9233 17.2246 67.1633 17.1436 67.3612 17.2416Z" fill="#2988FF"/>
<path fill-rule="evenodd" clip-rule="evenodd" d="M70.5614 17.2416C70.7594 17.3396 70.8405 17.5795 70.7425 17.7775L69.1585 20.9775C69.0605 21.1755 68.8205 21.2565 68.6225 21.1585C68.4246 21.0605 68.3435 20.8206 68.4415 20.6226L70.0255 17.4226C70.1235 17.2246 70.3635 17.1436 70.5614 17.2416Z" fill="#2988FF"/>
<path fill-rule="evenodd" clip-rule="evenodd" d="M64.1615 17.2416C64.3595 17.3396 64.4406 17.5795 64.3426 17.7775L62.7586 20.9775C62.6606 21.1755 62.4206 21.2565 62.2226 21.1585C62.0247 21.0605 61.9436 20.8206 62.0416 20.6226L63.6256 17.4226C63.7236 17.2246 63.9636 17.1436 64.1615 17.2416Z" fill="#2988FF"/>
<path fill-rule="evenodd" clip-rule="evenodd" d="M54.0801 16.0001C54.0801 14.9397 54.9397 14.0801 56.0001 14.0801H88.0001C89.0605 14.0801 89.9201 14.9397 89.9201 16.0001V24.0001C89.9201 25.0605 89.0605 25.9201 88.0001 25.9201H56.0001C54.9397 25.9201 54.0801 25.0605 54.0801 24.0001V16.0001ZM57.9201 17.9201V22.0801H86.0801V17.9201H57.9201Z" fill="#2988FF"/>
<path fill-rule="evenodd" clip-rule="evenodd" d="M22.4871 13.8812C22.75 13.7525 23.0388 13.6855 23.3316 13.6855H40.351C41.4113 13.6855 42.271 14.5452 42.271 15.6055V25.451C42.271 26.5114 41.4113 27.371 40.351 27.371H8.00008C6.93969 27.371 6.08008 26.5114 6.08008 25.451V23.1141C6.08008 22.3812 6.49736 21.7122 7.1556 21.3898L22.4871 13.8812ZM23.7765 17.5255L11.5141 23.531H38.431V17.5255H23.7765Z" fill="#2988FF"/>
</svg>
