<svg width="96" height="96" viewBox="0 0 96 96" fill="none" xmlns="http://www.w3.org/2000/svg">
<path d="M64.1 33.6003H62.2V33.5003C62.2 32.8003 61.7 32.3003 61 32.3003H57C56.3 32.3003 55.8 32.8003 55.8 33.5003V33.6003H53.3C53.1 33.6003 52.8 33.7003 52.6 33.8003L42.9 38.8003C42.4 39.1003 42.1 39.6003 42.1 40.1003V41.7003C42.1 42.5003 42.8 43.2003 43.6 43.2003H55.7V75.4003C55.7 76.1003 56.2 76.6003 56.9 76.6003H61C61.7 76.6003 62.2 76.1003 62.2 75.4003V43.2003H64.1C64.9 43.2003 65.6 42.5003 65.6 41.7003V35.1003C65.6 34.3003 64.9 33.6003 64.1 33.6003ZM59.8 74.2003H58.1V43.4003H59.8V74.2003ZM62.6 40.2003H46.7L53.6 36.6003H62.5V40.2003H62.6Z" fill="#2988FF"/>
<path d="M92.2 36.9999H90V35.0999C90 34.3999 89.5 33.8999 88.8 33.8999H69C68.3 33.8999 67.8 34.3999 67.8 35.0999V41.3999C67.8 42.0999 68.3 42.5999 69 42.5999H88.8C89.5 42.5999 90 42.0999 90 41.3999V39.9999H90.8V46.3999H78.5C77.7 46.3999 77 47.0999 77 47.8999V53.5999H76.5C75.8 53.5999 75.3 54.0999 75.3 54.7999V75.2999C75.3 75.9999 75.8 76.4999 76.5 76.4999H80.6C81.3 76.4999 81.8 75.9999 81.8 75.2999V54.7999C81.8 54.0999 81.3 53.5999 80.6 53.5999H80V49.3999H92.2C93 49.3999 93.7 48.6999 93.7 47.8999V38.4999C93.7 37.6999 93.1 36.9999 92.2 36.9999ZM87.6 40.1999H70.2V36.2999H72.7L71.7 37.9999C71.6 38.1999 71.6 38.4999 71.9 38.6999C72 38.6999 72.1 38.7999 72.2 38.7999C72.4 38.7999 72.5 38.6999 72.6 38.5999L73.9 36.3999H75.2L74.2 38.0999C74.1 38.2999 74.1 38.5999 74.4 38.7999C74.5 38.7999 74.6 38.8999 74.7 38.8999C74.9 38.8999 75 38.7999 75.1 38.6999L76.4 36.4999H77.7L76.7 38.1999C76.6 38.3999 76.6 38.6999 76.9 38.8999C77 38.8999 77.1 38.9999 77.2 38.9999C77.4 38.9999 77.5 38.8999 77.6 38.7999L78.9 36.5999H80.2L79.2 38.2999C79.1 38.4999 79.1 38.7999 79.4 38.9999C79.5 38.9999 79.6 39.0999 79.7 39.0999C79.9 39.0999 80 38.9999 80.1 38.8999L81.4 36.6999H82.7L81.7 38.3999C81.6 38.5999 81.6 38.8999 81.9 39.0999C82 39.0999 82.1 39.1999 82.2 39.1999C82.4 39.1999 82.5 39.0999 82.6 38.9999L83.9 36.7999H85.2L84.2 38.4999C84.1 38.6999 84.1 38.9999 84.4 39.1999C84.5 39.1999 84.6 39.2999 84.7 39.2999C84.9 39.2999 85 39.1999 85.1 39.0999L86.4 36.8999H87.6V40.1999ZM79.4 74.1999H77.7V55.9999H79.4V74.1999Z" fill="#2988FF"/>
<path d="M4.50001 49.6001C6.10001 49.6001 7.60001 49.6001 9.20001 49.6001V73.1001C9.20001 75.6001 10.4 76.8001 12.9 76.8001H47.9C50.4 76.8001 51.6 75.6001 51.6 73.1001V49.5001C52.5 49.3001 53.2 48.5001 53.2 47.6001C53.2 46.5001 52.3 45.6001 51.2 45.6001C48.9 45.6001 47.6 46.9001 47.6 49.1001V72.8001H13.2V49.1001C13.2 46.8001 11.9 45.6001 9.70001 45.6001C8.60001 45.6001 7.50001 45.6001 6.50001 45.6001C9.50001 42.8001 15.9 36.7001 21.5 31.6001C25.9 27.5001 29.6 24.0001 30.6 23.1001L33.6 25.9001C35.9 28.1001 39.3 31.2001 42.7 34.4001C43.5 35.2001 44.8 35.1001 45.5 34.3001C46.3 33.5001 46.2 32.2001 45.4 31.5001C42 28.3001 38.7 25.2001 36.3 23.0001L33.3 20.2001C32.4 19.4001 31.5 19.0001 30.6 19.1001C29.7 19.0001 28.7 19.4001 27.9 20.2001C26.8 21.0001 23 24.5001 18.6 28.6001C11.9 34.9001 3.80001 42.5001 2.30001 44.0001C1.10001 45.1001 0.700012 46.4001 1.30001 47.7001C1.60001 48.5001 2.50001 49.6001 4.50001 49.6001Z" fill="#1C3553"/>
<path d="M35.9 49.1001C35.5 49.1001 35.2 49.4001 35.2 49.8001V56.7001C35.2 57.1001 35.5 57.4001 35.9 57.4001H39.7C40.1 57.4001 40.4 57.1001 40.4 56.7001V49.8001C40.4 49.4001 40.1 49.1001 39.7 49.1001H35.9ZM38.9 56.0001H36.6V50.6001H38.9V56.0001Z" fill="#1C3553"/>
<path d="M20.8 49.1001C20.4 49.1001 20.1 49.4001 20.1 49.8001V56.7001C20.1 57.1001 20.4 57.4001 20.8 57.4001H24.6C25 57.4001 25.3 57.1001 25.3 56.7001V49.8001C25.3 49.4001 25 49.1001 24.6 49.1001H20.8ZM23.9 56.0001H21.6V50.6001H23.9V56.0001Z" fill="#1C3553"/>
</svg>
