<svg width="96" height="96" viewBox="0 0 96 96" fill="none" xmlns="http://www.w3.org/2000/svg">
<path d="M64.0996 33.6003H62.1996V33.5003C62.1996 32.8003 61.6996 32.3003 60.9996 32.3003H56.9996C56.2996 32.3003 55.7996 32.8003 55.7996 33.5003V33.6003H53.2996C53.0996 33.6003 52.7996 33.7003 52.5996 33.8003L42.8996 38.8003C42.3996 39.1003 42.0996 39.6003 42.0996 40.1003V41.7003C42.0996 42.5003 42.7996 43.2003 43.5996 43.2003H55.6996V75.4003C55.6996 76.1003 56.1996 76.6003 56.8996 76.6003H60.9996C61.6996 76.6003 62.1996 76.1003 62.1996 75.4003V43.2003H64.0996C64.8996 43.2003 65.5996 42.5003 65.5996 41.7003V35.1003C65.5996 34.3003 64.8996 33.6003 64.0996 33.6003ZM59.7996 74.2003H58.0996V43.4003H59.7996V74.2003ZM62.5996 40.2003H46.6996L53.5996 36.6003H62.4996V40.2003H62.5996Z" fill="#2988FF"/>
<path d="M92.1998 36.9999H89.9998V35.0999C89.9998 34.3999 89.4998 33.8999 88.7998 33.8999H68.9998C68.2998 33.8999 67.7998 34.3999 67.7998 35.0999V41.3999C67.7998 42.0999 68.2998 42.5999 68.9998 42.5999H88.7998C89.4998 42.5999 89.9998 42.0999 89.9998 41.3999V39.9999H90.7998V46.3999H78.4998C77.6998 46.3999 76.9998 47.0999 76.9998 47.8999V53.5999H76.4998C75.7998 53.5999 75.2998 54.0999 75.2998 54.7999V75.2999C75.2998 75.9999 75.7998 76.4999 76.4998 76.4999H80.5998C81.2998 76.4999 81.7998 75.9999 81.7998 75.2999V54.7999C81.7998 54.0999 81.2998 53.5999 80.5998 53.5999H79.9998V49.3999H92.1998C92.9998 49.3999 93.6998 48.6999 93.6998 47.8999V38.4999C93.6998 37.6999 93.0998 36.9999 92.1998 36.9999ZM87.5998 40.1999H70.1998V36.2999H72.6998L71.6998 37.9999C71.5998 38.1999 71.5998 38.4999 71.8998 38.6999C71.9998 38.6999 72.0998 38.7999 72.1998 38.7999C72.3998 38.7999 72.4998 38.6999 72.5998 38.5999L73.8998 36.3999H75.1998L74.1998 38.0999C74.0998 38.2999 74.0998 38.5999 74.3998 38.7999C74.4998 38.7999 74.5998 38.8999 74.6998 38.8999C74.8998 38.8999 74.9998 38.7999 75.0998 38.6999L76.3998 36.4999H77.6998L76.6998 38.1999C76.5998 38.3999 76.5998 38.6999 76.8998 38.8999C76.9998 38.8999 77.0998 38.9999 77.1998 38.9999C77.3998 38.9999 77.4998 38.8999 77.5998 38.7999L78.8998 36.5999H80.1998L79.1998 38.2999C79.0998 38.4999 79.0998 38.7999 79.3998 38.9999C79.4998 38.9999 79.5998 39.0999 79.6998 39.0999C79.8998 39.0999 79.9998 38.9999 80.0998 38.8999L81.3998 36.6999H82.6998L81.6998 38.3999C81.5998 38.5999 81.5998 38.8999 81.8998 39.0999C81.9998 39.0999 82.0998 39.1999 82.1998 39.1999C82.3998 39.1999 82.4998 39.0999 82.5998 38.9999L83.8998 36.7999H85.1998L84.1998 38.4999C84.0998 38.6999 84.0998 38.9999 84.3998 39.1999C84.4998 39.1999 84.5998 39.2999 84.6998 39.2999C84.8998 39.2999 84.9998 39.1999 85.0998 39.0999L86.3998 36.8999H87.5998V40.1999ZM79.3998 74.1999H77.6998V55.9999H79.3998V74.1999Z" fill="#2988FF"/>
<path d="M4.50007 49.6001C6.10007 49.6001 7.60007 49.6001 9.20007 49.6001V73.1001C9.20007 75.6001 10.4001 76.8001 12.9001 76.8001H47.9001C50.4001 76.8001 51.6001 75.6001 51.6001 73.1001V49.5001C52.5001 49.3001 53.2001 48.5001 53.2001 47.6001C53.2001 46.5001 52.3001 45.6001 51.2001 45.6001C48.9001 45.6001 47.6001 46.9001 47.6001 49.1001V72.8001H13.2001V49.1001C13.2001 46.8001 11.9001 45.6001 9.70007 45.6001C8.60007 45.6001 7.50007 45.6001 6.50007 45.6001C9.50007 42.8001 15.9001 36.7001 21.5001 31.6001C25.9001 27.5001 29.6001 24.0001 30.6001 23.1001L33.6001 25.9001C35.9001 28.1001 39.3001 31.2001 42.7001 34.4001C43.5001 35.2001 44.8001 35.1001 45.5001 34.3001C46.3001 33.5001 46.2001 32.2001 45.4001 31.5001C42.0001 28.3001 38.7001 25.2001 36.3001 23.0001L33.3001 20.2001C32.4001 19.4001 31.5001 19.0001 30.6001 19.1001C29.7001 19.0001 28.7001 19.4001 27.9001 20.2001C26.8001 21.0001 23.0001 24.5001 18.6001 28.6001C11.9001 34.9001 3.80007 42.5001 2.30007 44.0001C1.10007 45.1001 0.700073 46.4001 1.30007 47.7001C1.60007 48.5001 2.50007 49.6001 4.50007 49.6001Z" fill="#1C3553"/>
<path d="M35.9002 49.1001C35.5002 49.1001 35.2002 49.4001 35.2002 49.8001V56.7001C35.2002 57.1001 35.5002 57.4001 35.9002 57.4001H39.7002C40.1002 57.4001 40.4002 57.1001 40.4002 56.7001V49.8001C40.4002 49.4001 40.1002 49.1001 39.7002 49.1001H35.9002ZM38.9002 56.0001H36.6002V50.6001H38.9002V56.0001Z" fill="#1C3553"/>
<path d="M20.7996 49.1001C20.3996 49.1001 20.0996 49.4001 20.0996 49.8001V56.7001C20.0996 57.1001 20.3996 57.4001 20.7996 57.4001H24.5996C24.9996 57.4001 25.2996 57.1001 25.2996 56.7001V49.8001C25.2996 49.4001 24.9996 49.1001 24.5996 49.1001H20.7996ZM23.8996 56.0001H21.5996V50.6001H23.8996V56.0001Z" fill="#1C3553"/>
</svg>
