<svg width="96" height="96" viewBox="0 0 96 96" fill="none" xmlns="http://www.w3.org/2000/svg">
<path fill-rule="evenodd" clip-rule="evenodd" d="M28.2815 27.7538C28.2815 26.8702 28.9978 26.1538 29.8815 26.1538H35.297C36.1807 26.1538 36.897 26.8702 36.897 27.7538V83.2C36.897 84.0836 36.1807 84.8 35.297 84.8H29.8815C28.9978 84.8 28.2815 84.0836 28.2815 83.2V27.7538ZM31.4815 29.3538V81.6H33.697V29.3538H31.4815Z" fill="#1C3553"/>
<path fill-rule="evenodd" clip-rule="evenodd" d="M28.3744 12.8632C28.3744 11.9795 29.0907 11.2632 29.9744 11.2632H35.2061C36.0898 11.2632 36.8061 11.9795 36.8061 12.8632C36.8061 13.7468 36.0898 14.4632 35.2061 14.4632H29.9744C29.0907 14.4632 28.3744 13.7468 28.3744 12.8632Z" fill="#1C3553"/>
<path fill-rule="evenodd" clip-rule="evenodd" d="M69.28 49.6C69.28 48.7163 69.9963 48 70.88 48H75.68C76.5636 48 77.28 48.7163 77.28 49.6V83.2C77.28 84.0837 76.5636 84.8 75.68 84.8H70.88C69.9963 84.8 69.28 84.0837 69.28 83.2V49.6ZM72.48 51.2V81.6H74.08V51.2H72.48Z" fill="#1C3553"/>
<path fill-rule="evenodd" clip-rule="evenodd" d="M50 20.8001C50 20.1374 50.5373 19.6001 51.2 19.6001H55.0245C55.6872 19.6001 56.2245 20.1374 56.2245 20.8001C56.2245 21.4628 55.6872 22.0001 55.0245 22.0001H52.4V34.279H73.6C74.2627 34.279 74.8 34.8162 74.8 35.479V48.0001C74.8 48.6628 74.2627 49.2001 73.6 49.2001C72.9373 49.2001 72.4 48.6628 72.4 48.0001V36.679H51.2C50.5373 36.679 50 36.1417 50 35.479V20.8001Z" fill="#1C3553"/>
<path fill-rule="evenodd" clip-rule="evenodd" d="M83.3614 17.2418C83.5594 17.3398 83.6405 17.5797 83.5425 17.7777L81.9585 20.9777C81.8605 21.1757 81.6205 21.2568 81.4225 21.1588C81.2245 21.0608 81.1435 20.8208 81.2415 20.6228L82.8255 17.4228C82.9235 17.2248 83.1635 17.1438 83.3614 17.2418Z" fill="#2988FF"/>
<path fill-rule="evenodd" clip-rule="evenodd" d="M80.1615 17.2418C80.3595 17.3398 80.4405 17.5797 80.3425 17.7777L78.7585 20.9777C78.6605 21.1757 78.4206 21.2568 78.2226 21.1588C78.0246 21.0608 77.9435 20.8208 78.0415 20.6228L79.6255 17.4228C79.7235 17.2248 79.9635 17.1438 80.1615 17.2418Z" fill="#2988FF"/>
<path fill-rule="evenodd" clip-rule="evenodd" d="M76.9615 17.2418C77.1595 17.3398 77.2405 17.5797 77.1425 17.7777L75.5585 20.9777C75.4605 21.1757 75.2206 21.2568 75.0226 21.1588C74.8246 21.0608 74.7435 20.8208 74.8415 20.6228L76.4255 17.4228C76.5235 17.2248 76.7635 17.1438 76.9615 17.2418Z" fill="#2988FF"/>
<path fill-rule="evenodd" clip-rule="evenodd" d="M73.7615 17.2418C73.9594 17.3398 74.0405 17.5797 73.9425 17.7777L72.3585 20.9777C72.2605 21.1757 72.0205 21.2568 71.8226 21.1588C71.6246 21.0608 71.5435 20.8208 71.6415 20.6228L73.2255 17.4228C73.3235 17.2248 73.5635 17.1438 73.7615 17.2418Z" fill="#2988FF"/>
<path fill-rule="evenodd" clip-rule="evenodd" d="M67.3615 17.2418C67.5595 17.3398 67.6405 17.5797 67.5425 17.7777L65.9585 20.9777C65.8605 21.1757 65.6206 21.2568 65.4226 21.1588C65.2246 21.0608 65.1436 20.8208 65.2416 20.6228L66.8256 17.4228C66.9236 17.2248 67.1635 17.1438 67.3615 17.2418Z" fill="#2988FF"/>
<path fill-rule="evenodd" clip-rule="evenodd" d="M70.5614 17.2418C70.7594 17.3398 70.8405 17.5797 70.7425 17.7777L69.1585 20.9777C69.0605 21.1757 68.8205 21.2568 68.6225 21.1588C68.4246 21.0608 68.3435 20.8208 68.4415 20.6228L70.0255 17.4228C70.1235 17.2248 70.3635 17.1438 70.5614 17.2418Z" fill="#2988FF"/>
<path fill-rule="evenodd" clip-rule="evenodd" d="M64.1615 17.2418C64.3595 17.3398 64.4405 17.5797 64.3425 17.7777L62.7585 20.9777C62.6605 21.1757 62.4206 21.2568 62.2226 21.1588C62.0246 21.0608 61.9435 20.8208 62.0415 20.6228L63.6255 17.4228C63.7235 17.2248 63.9635 17.1438 64.1615 17.2418Z" fill="#2988FF"/>
<path fill-rule="evenodd" clip-rule="evenodd" d="M54.08 16.0001C54.08 14.9397 54.9396 14.0801 56 14.0801H88C89.0604 14.0801 89.92 14.9397 89.92 16.0001V24.0001C89.92 25.0605 89.0604 25.9201 88 25.9201H56C54.9396 25.9201 54.08 25.0605 54.08 24.0001V16.0001ZM57.92 17.9201V22.0801H86.08V17.9201H57.92Z" fill="#2988FF"/>
<path fill-rule="evenodd" clip-rule="evenodd" d="M22.4872 13.8812C22.7501 13.7525 23.039 13.6855 23.3317 13.6855H40.3511C41.4115 13.6855 42.2711 14.5452 42.2711 15.6055V25.451C42.2711 26.5114 41.4115 27.371 40.3511 27.371H8.0002C6.93981 27.371 6.0802 26.5114 6.0802 25.451V23.1141C6.0802 22.3812 6.49748 21.7122 7.15572 21.3898L22.4872 13.8812ZM23.7766 17.5255L11.5142 23.531H38.4311V17.5255H23.7766Z" fill="#2988FF"/>
</svg>
