<svg width="96" height="96" viewBox="0 0 96 96" fill="none" xmlns="http://www.w3.org/2000/svg">
<path d="M64.1001 33.6003H62.2001V33.5003C62.2001 32.8003 61.7001 32.3003 61.0001 32.3003H57.0001C56.3001 32.3003 55.8001 32.8003 55.8001 33.5003V33.6003H53.3001C53.1001 33.6003 52.8001 33.7003 52.6001 33.8003L42.9001 38.8003C42.4001 39.1003 42.1001 39.6003 42.1001 40.1003V41.7003C42.1001 42.5003 42.8001 43.2003 43.6001 43.2003H55.7001V75.4003C55.7001 76.1003 56.2001 76.6003 56.9001 76.6003H61.0001C61.7001 76.6003 62.2001 76.1003 62.2001 75.4003V43.2003H64.1001C64.9001 43.2003 65.6001 42.5003 65.6001 41.7003V35.1003C65.6001 34.3003 64.9001 33.6003 64.1001 33.6003ZM59.8001 74.2003H58.1001V43.4003H59.8001V74.2003ZM62.6001 40.2003H46.7001L53.6001 36.6003H62.5001V40.2003H62.6001Z" fill="#2988FF"/>
<path d="M92.2003 36.9999H90.0003V35.0999C90.0003 34.3999 89.5003 33.8999 88.8003 33.8999H69.0003C68.3003 33.8999 67.8003 34.3999 67.8003 35.0999V41.3999C67.8003 42.0999 68.3003 42.5999 69.0003 42.5999H88.8003C89.5003 42.5999 90.0003 42.0999 90.0003 41.3999V39.9999H90.8003V46.3999H78.5003C77.7003 46.3999 77.0003 47.0999 77.0003 47.8999V53.5999H76.5003C75.8003 53.5999 75.3003 54.0999 75.3003 54.7999V75.2999C75.3003 75.9999 75.8003 76.4999 76.5003 76.4999H80.6003C81.3003 76.4999 81.8003 75.9999 81.8003 75.2999V54.7999C81.8003 54.0999 81.3003 53.5999 80.6003 53.5999H80.0003V49.3999H92.2003C93.0003 49.3999 93.7003 48.6999 93.7003 47.8999V38.4999C93.7003 37.6999 93.1003 36.9999 92.2003 36.9999ZM87.6003 40.1999H70.2003V36.2999H72.7003L71.7003 37.9999C71.6003 38.1999 71.6003 38.4999 71.9003 38.6999C72.0003 38.6999 72.1003 38.7999 72.2003 38.7999C72.4003 38.7999 72.5003 38.6999 72.6003 38.5999L73.9003 36.3999H75.2003L74.2003 38.0999C74.1003 38.2999 74.1003 38.5999 74.4003 38.7999C74.5003 38.7999 74.6003 38.8999 74.7003 38.8999C74.9003 38.8999 75.0003 38.7999 75.1003 38.6999L76.4003 36.4999H77.7003L76.7003 38.1999C76.6003 38.3999 76.6003 38.6999 76.9003 38.8999C77.0003 38.8999 77.1003 38.9999 77.2003 38.9999C77.4003 38.9999 77.5003 38.8999 77.6003 38.7999L78.9003 36.5999H80.2003L79.2003 38.2999C79.1003 38.4999 79.1003 38.7999 79.4003 38.9999C79.5003 38.9999 79.6003 39.0999 79.7003 39.0999C79.9003 39.0999 80.0003 38.9999 80.1003 38.8999L81.4003 36.6999H82.7003L81.7003 38.3999C81.6003 38.5999 81.6003 38.8999 81.9003 39.0999C82.0003 39.0999 82.1003 39.1999 82.2003 39.1999C82.4003 39.1999 82.5003 39.0999 82.6003 38.9999L83.9003 36.7999H85.2003L84.2003 38.4999C84.1003 38.6999 84.1003 38.9999 84.4003 39.1999C84.5003 39.1999 84.6003 39.2999 84.7003 39.2999C84.9003 39.2999 85.0003 39.1999 85.1003 39.0999L86.4003 36.8999H87.6003V40.1999ZM79.4003 74.1999H77.7003V55.9999H79.4003V74.1999Z" fill="#2988FF"/>
<path d="M4.50007 49.6001C6.10007 49.6001 7.60007 49.6001 9.20007 49.6001V73.1001C9.20007 75.6001 10.4001 76.8001 12.9001 76.8001H47.9001C50.4001 76.8001 51.6001 75.6001 51.6001 73.1001V49.5001C52.5001 49.3001 53.2001 48.5001 53.2001 47.6001C53.2001 46.5001 52.3001 45.6001 51.2001 45.6001C48.9001 45.6001 47.6001 46.9001 47.6001 49.1001V72.8001H13.2001V49.1001C13.2001 46.8001 11.9001 45.6001 9.70007 45.6001C8.60007 45.6001 7.50007 45.6001 6.50007 45.6001C9.50007 42.8001 15.9001 36.7001 21.5001 31.6001C25.9001 27.5001 29.6001 24.0001 30.6001 23.1001L33.6001 25.9001C35.9001 28.1001 39.3001 31.2001 42.7001 34.4001C43.5001 35.2001 44.8001 35.1001 45.5001 34.3001C46.3001 33.5001 46.2001 32.2001 45.4001 31.5001C42.0001 28.3001 38.7001 25.2001 36.3001 23.0001L33.3001 20.2001C32.4001 19.4001 31.5001 19.0001 30.6001 19.1001C29.7001 19.0001 28.7001 19.4001 27.9001 20.2001C26.8001 21.0001 23.0001 24.5001 18.6001 28.6001C11.9001 34.9001 3.80007 42.5001 2.30007 44.0001C1.10007 45.1001 0.700073 46.4001 1.30007 47.7001C1.60007 48.5001 2.50007 49.6001 4.50007 49.6001Z" fill="#1C3553"/>
<path d="M35.9002 49.1001C35.5002 49.1001 35.2002 49.4001 35.2002 49.8001V56.7001C35.2002 57.1001 35.5002 57.4001 35.9002 57.4001H39.7002C40.1002 57.4001 40.4002 57.1001 40.4002 56.7001V49.8001C40.4002 49.4001 40.1002 49.1001 39.7002 49.1001H35.9002ZM38.9002 56.0001H36.6002V50.6001H38.9002V56.0001Z" fill="#1C3553"/>
<path d="M20.8001 49.1001C20.4001 49.1001 20.1001 49.4001 20.1001 49.8001V56.7001C20.1001 57.1001 20.4001 57.4001 20.8001 57.4001H24.6001C25.0001 57.4001 25.3001 57.1001 25.3001 56.7001V49.8001C25.3001 49.4001 25.0001 49.1001 24.6001 49.1001H20.8001ZM23.9001 56.0001H21.6001V50.6001H23.9001V56.0001Z" fill="#1C3553"/>
</svg>
