<svg width="96" height="96" viewBox="0 0 96 96" fill="none" xmlns="http://www.w3.org/2000/svg">
<path fill-rule="evenodd" clip-rule="evenodd" d="M28.2812 27.7538C28.2812 26.8702 28.9976 26.1538 29.8812 26.1538H35.2968C36.1804 26.1538 36.8968 26.8702 36.8968 27.7538V83.2C36.8968 84.0836 36.1804 84.8 35.2968 84.8H29.8812C28.9976 84.8 28.2812 84.0836 28.2812 83.2V27.7538ZM31.4812 29.3538V81.6H33.6968V29.3538H31.4812Z" fill="#1C3553"/>
<path fill-rule="evenodd" clip-rule="evenodd" d="M28.374 12.8632C28.374 11.9795 29.0904 11.2632 29.974 11.2632H35.2057C36.0894 11.2632 36.8057 11.9795 36.8057 12.8632C36.8057 13.7468 36.0894 14.4632 35.2057 14.4632H29.974C29.0904 14.4632 28.374 13.7468 28.374 12.8632Z" fill="#1C3553"/>
<path fill-rule="evenodd" clip-rule="evenodd" d="M69.2793 49.5999C69.2793 48.7163 69.9956 47.9999 70.8793 47.9999H75.6793C76.5629 47.9999 77.2793 48.7163 77.2793 49.5999V83.1999C77.2793 84.0836 76.5629 84.7999 75.6793 84.7999H70.8793C69.9956 84.7999 69.2793 84.0836 69.2793 83.1999V49.5999ZM72.4793 51.1999V81.5999H74.0793V51.1999H72.4793Z" fill="#1C3553"/>
<path fill-rule="evenodd" clip-rule="evenodd" d="M50 20.7999C50 20.1372 50.5373 19.5999 51.2 19.5999H55.0245C55.6872 19.5999 56.2245 20.1372 56.2245 20.7999C56.2245 21.4627 55.6872 21.9999 55.0245 21.9999H52.4V34.2788H73.6C74.2627 34.2788 74.8 34.8161 74.8 35.4788V47.9999C74.8 48.6627 74.2627 49.1999 73.6 49.1999C72.9373 49.1999 72.4 48.6627 72.4 47.9999V36.6788H51.2C50.5373 36.6788 50 36.1416 50 35.4788V20.7999Z" fill="#1C3553"/>
<path fill-rule="evenodd" clip-rule="evenodd" d="M83.3617 17.2416C83.5597 17.3396 83.6408 17.5796 83.5428 17.7776L81.9588 20.9776C81.8608 21.1756 81.6208 21.2566 81.4228 21.1586C81.2248 21.0606 81.1438 20.8207 81.2418 20.6227L82.8258 17.4227C82.9238 17.2247 83.1638 17.1436 83.3617 17.2416Z" fill="#2988FF"/>
<path fill-rule="evenodd" clip-rule="evenodd" d="M80.1615 17.2416C80.3595 17.3396 80.4406 17.5796 80.3426 17.7776L78.7586 20.9776C78.6606 21.1756 78.4206 21.2566 78.2226 21.1586C78.0247 21.0606 77.9436 20.8207 78.0416 20.6227L79.6256 17.4227C79.7236 17.2247 79.9636 17.1436 80.1615 17.2416Z" fill="#2988FF"/>
<path fill-rule="evenodd" clip-rule="evenodd" d="M76.9614 17.2416C77.1593 17.3396 77.2404 17.5796 77.1424 17.7776L75.5584 20.9776C75.4604 21.1756 75.2204 21.2566 75.0224 21.1586C74.8245 21.0606 74.7434 20.8207 74.8414 20.6227L76.4254 17.4227C76.5234 17.2247 76.7634 17.1436 76.9614 17.2416Z" fill="#2988FF"/>
<path fill-rule="evenodd" clip-rule="evenodd" d="M73.7611 17.2416C73.9591 17.3396 74.0402 17.5796 73.9422 17.7776L72.3582 20.9776C72.2602 21.1756 72.0202 21.2566 71.8222 21.1586C71.6243 21.0606 71.5432 20.8207 71.6412 20.6227L73.2252 17.4227C73.3232 17.2247 73.5632 17.1436 73.7611 17.2416Z" fill="#2988FF"/>
<path fill-rule="evenodd" clip-rule="evenodd" d="M67.3617 17.2416C67.5597 17.3396 67.6408 17.5796 67.5428 17.7776L65.9588 20.9776C65.8608 21.1756 65.6208 21.2566 65.4228 21.1586C65.2248 21.0606 65.1438 20.8207 65.2418 20.6227L66.8258 17.4227C66.9238 17.2247 67.1637 17.1436 67.3617 17.2416Z" fill="#2988FF"/>
<path fill-rule="evenodd" clip-rule="evenodd" d="M70.561 17.2416C70.7589 17.3396 70.84 17.5796 70.742 17.7776L69.158 20.9776C69.06 21.1756 68.82 21.2566 68.6221 21.1586C68.4241 21.0606 68.343 20.8207 68.441 20.6227L70.025 17.4227C70.123 17.2247 70.363 17.1436 70.561 17.2416Z" fill="#2988FF"/>
<path fill-rule="evenodd" clip-rule="evenodd" d="M64.1615 17.2416C64.3595 17.3396 64.4406 17.5796 64.3426 17.7776L62.7586 20.9776C62.6606 21.1756 62.4206 21.2566 62.2226 21.1586C62.0247 21.0606 61.9436 20.8207 62.0416 20.6227L63.6256 17.4227C63.7236 17.2247 63.9636 17.1436 64.1615 17.2416Z" fill="#2988FF"/>
<path fill-rule="evenodd" clip-rule="evenodd" d="M54.0801 16.0001C54.0801 14.9398 54.9397 14.0801 56.0001 14.0801H88.0001C89.0605 14.0801 89.9201 14.9398 89.9201 16.0001V24.0001C89.9201 25.0605 89.0605 25.9201 88.0001 25.9201H56.0001C54.9397 25.9201 54.0801 25.0605 54.0801 24.0001V16.0001ZM57.9201 17.9201V22.0801H86.0801V17.9201H57.9201Z" fill="#2988FF"/>
<path fill-rule="evenodd" clip-rule="evenodd" d="M22.4871 13.8812C22.75 13.7525 23.0388 13.6855 23.3316 13.6855H40.351C41.4113 13.6855 42.271 14.5452 42.271 15.6055V25.451C42.271 26.5114 41.4113 27.371 40.351 27.371H8.00008C6.93969 27.371 6.08008 26.5114 6.08008 25.451V23.1141C6.08008 22.3812 6.49736 21.7122 7.1556 21.3898L22.4871 13.8812ZM23.7765 17.5255L11.5141 23.531H38.431V17.5255H23.7765Z" fill="#2988FF"/>
</svg>
