<svg width="96" height="96" viewBox="0 0 96 96" fill="none" xmlns="http://www.w3.org/2000/svg">
<path fill-rule="evenodd" clip-rule="evenodd" d="M36.8996 39.9097C36.8996 38.8051 37.795 37.9097 38.8996 37.9097H44.1376C45.2421 37.9097 46.1376 38.8051 46.1376 39.9097C46.1376 41.0142 45.2421 41.9097 44.1376 41.9097H38.8996C37.795 41.9097 36.8996 41.0142 36.8996 39.9097Z" fill="#1C3553"/>
<path fill-rule="evenodd" clip-rule="evenodd" d="M79.6615 39.9097C79.6615 38.8051 80.557 37.9097 81.6615 37.9097H86.8995C88.0041 37.9097 88.8996 38.8051 88.8996 39.9097C88.8996 41.0142 88.0041 41.9097 86.8995 41.9097H81.6615C80.557 41.9097 79.6615 41.0142 79.6615 39.9097Z" fill="#1C3553"/>
<path fill-rule="evenodd" clip-rule="evenodd" d="M62.8996 14C64.0041 14 64.8996 14.8954 64.8996 16V21.238C64.8996 22.3425 64.0041 23.238 62.8996 23.238C61.795 23.238 60.8996 22.3425 60.8996 21.238V16C60.8996 14.8954 61.795 14 62.8996 14Z" fill="#1C3553"/>
<path fill-rule="evenodd" clip-rule="evenodd" d="M44.6687 21.7694C45.4498 20.9883 46.7161 20.9883 47.4972 21.7694L50.8932 25.1654C51.6742 25.9464 51.6742 27.2127 50.8932 27.9938C50.1121 28.7748 48.8458 28.7748 48.0647 27.9938L44.6687 24.5978C43.8877 23.8168 43.8877 22.5504 44.6687 21.7694Z" fill="#1C3553"/>
<path fill-rule="evenodd" clip-rule="evenodd" d="M74.9061 52.0064C75.6872 51.2254 76.9535 51.2254 77.7346 52.0064L81.1306 55.4024C81.9116 56.1835 81.9116 57.4498 81.1306 58.2309C80.3495 59.0119 79.0832 59.0119 78.3021 58.2309L74.9061 54.8349C74.1251 54.0538 74.1251 52.7875 74.9061 52.0064Z" fill="#1C3553"/>
<path fill-rule="evenodd" clip-rule="evenodd" d="M61.9449 28.6684C68.6427 28.1433 74.5207 33.1197 75.0484 39.807C75.3886 44.0874 73.4489 48.0184 70.2597 50.4264C69.3782 51.092 68.124 50.9169 67.4585 50.0354C66.7929 49.1539 66.9679 47.8997 67.8494 47.2341C70 45.6104 71.2881 42.978 71.0609 40.123L71.0608 40.1216C70.7085 35.6571 66.7749 32.3017 62.257 32.6562L62.2562 32.6562C57.7377 33.009 54.3845 36.931 54.7383 41.3942C54.8256 42.4954 54.0037 43.4587 52.9026 43.546C51.8015 43.6333 50.8381 42.8114 50.7508 41.7103C50.2206 35.0219 55.2431 29.192 61.9441 28.6684" fill="#1C3553"/>
<path fill-rule="evenodd" clip-rule="evenodd" d="M81.1304 21.7689C81.9115 22.5499 81.9115 23.8163 81.1304 24.5973L77.7344 27.9933C76.9534 28.7743 75.687 28.7743 74.906 27.9933C74.1249 27.2123 74.1249 25.9459 74.906 25.1649L78.302 21.7689C79.083 20.9878 80.3494 20.9878 81.1304 21.7689Z" fill="#1C3553"/>
<path fill-rule="evenodd" clip-rule="evenodd" d="M4.23367 47.5H59.1381L83.5663 77.9759H28.6619L4.23367 47.5ZM12.5663 51.5L30.5821 73.9759H75.2337L57.2179 51.5H12.5663Z" fill="#2988FF"/>
<path fill-rule="evenodd" clip-rule="evenodd" d="M24.6551 48.941C25.3018 48.4232 26.2457 48.5276 26.7636 49.1742L47.4056 74.9502C47.9234 75.5968 47.819 76.5408 47.1724 77.0586C46.5258 77.5765 45.5818 77.4721 45.0639 76.8254L24.4219 51.0495C23.9041 50.4029 24.0085 49.4589 24.6551 48.941Z" fill="#2988FF"/>
<path fill-rule="evenodd" clip-rule="evenodd" d="M40.0739 48.941C40.7206 48.4232 41.6646 48.5276 42.1824 49.1742L62.8244 74.9502C63.3422 75.5968 63.2378 76.5408 62.5912 77.0586C61.9446 77.5765 61.0006 77.4721 60.4827 76.8254L39.8407 51.0495C39.3229 50.4029 39.4273 49.4589 40.0739 48.941Z" fill="#2988FF"/>
<path fill-rule="evenodd" clip-rule="evenodd" d="M17.3996 62C17.3996 61.1716 18.0711 60.5 18.8996 60.5H66.8996C67.728 60.5 68.3996 61.1716 68.3996 62C68.3996 62.8284 67.728 63.5 66.8996 63.5H18.8996C18.0711 63.5 17.3996 62.8284 17.3996 62Z" fill="#2988FF"/>
</svg>
