<svg width="96" height="96" viewBox="0 0 96 96" fill="none" xmlns="http://www.w3.org/2000/svg">
<path fill-rule="evenodd" clip-rule="evenodd" d="M63.8345 59.9494C64.1835 59.7165 64.5715 59.5313 64.9875 59.4001C65.4025 59.2689 65.8415 59.2028 66.2915 59.2028H68.5905C68.7955 59.2028 68.9745 59.1265 69.1225 58.9749C69.2695 58.8254 69.3445 58.6382 69.3445 58.4195C69.3445 58.212 69.2695 58.0299 69.1225 57.8793C68.9745 57.7288 68.7955 57.6525 68.5905 57.6525H66.2915C65.6365 57.6525 65.0025 57.7583 64.4065 57.9668C63.8125 58.1743 63.2625 58.4643 62.7715 58.8284C62.2785 59.1926 61.8425 59.631 61.4735 60.1336C61.1205 60.6137 60.8405 61.1457 60.6425 61.7174H59.9225C59.7175 61.7174 59.5385 61.7927 59.3905 61.9432C59.2425 62.0938 59.1675 62.2759 59.1675 62.4844C59.1675 62.7031 59.2425 62.8903 59.3905 63.0408C59.5385 63.1904 59.7165 63.2656 59.9225 63.2656H60.3215C60.3165 63.3206 60.3125 63.3755 60.3105 63.4315C60.3065 63.5281 60.3035 63.6278 60.3035 63.7295C60.3035 63.8404 60.3065 63.9452 60.3105 64.0418C60.3125 64.0977 60.3165 64.1537 60.3215 64.2076H59.9225C59.7175 64.2076 59.5385 64.2839 59.3915 64.4334C59.2425 64.583 59.1675 64.7691 59.1675 64.9889C59.1675 65.1974 59.2425 65.3795 59.3905 65.529C59.5385 65.6796 59.7175 65.7559 59.9225 65.7559H60.6425C60.8405 66.3265 61.1205 66.8596 61.4735 67.3397C61.8425 67.8422 62.2785 68.2806 62.7715 68.6448C63.0275 68.834 63.3015 69.0019 63.5885 69.1504C63.8505 69.2867 64.1225 69.4067 64.4065 69.5074C65.0005 69.715 65.6345 69.8197 66.2915 69.8197H68.5905C68.7955 69.8197 68.9745 69.7445 69.1225 69.5939V69.5929C69.2455 69.4678 69.3045 69.3162 69.3255 69.1504C69.3295 69.1168 69.3445 69.0873 69.3445 69.0527C69.3445 68.834 69.2695 68.6479 69.1215 68.4963C68.9735 68.3468 68.7955 68.2715 68.5905 68.2715H66.2915C65.8405 68.2715 65.4015 68.2044 64.9875 68.0731C64.5695 67.9409 64.1815 67.7557 63.8345 67.5238C63.4865 67.2899 63.1685 67.006 62.8915 66.6805C62.6505 66.3977 62.4475 66.0885 62.2855 65.7559H67.6465C67.8525 65.7559 68.0315 65.6796 68.1785 65.529C68.3255 65.3795 68.4005 65.1974 68.4005 64.9889C68.4005 64.7691 68.3255 64.583 68.1785 64.4334C68.0305 64.2839 67.8525 64.2076 67.6465 64.2076H61.8455C61.8405 64.1496 61.8355 64.0916 61.8325 64.0306C61.8275 63.937 61.8255 63.8373 61.8255 63.7295C61.8255 63.6308 61.8275 63.5352 61.8325 63.4416C61.8355 63.3826 61.8405 63.3236 61.8455 63.2656H67.6465C67.8525 63.2656 68.0315 63.1904 68.1785 63.0408C68.3255 62.8903 68.4005 62.7031 68.4005 62.4844C68.4005 62.2759 68.3255 62.0938 68.1785 61.9442C68.0315 61.7927 67.8525 61.7174 67.6465 61.7174H62.2855C62.4475 61.3848 62.6505 61.0745 62.8915 60.7917C63.1685 60.4662 63.4865 60.1824 63.8345 59.9494Z" fill="#2988FF"/>
<path fill-rule="evenodd" clip-rule="evenodd" d="M75.8301 64.3933H75.7671L75.6851 51.689C75.6831 51.3462 75.5361 51.0217 75.2811 50.7969L65.9691 42.5858C65.5421 42.2094 64.9121 42.1982 64.4691 42.5583L54.4371 50.7695C54.1591 50.9973 53.9981 51.3411 54.0001 51.7043L54.1211 70.4693H54.1531L54.1621 76.7161C54.1661 77.3702 54.6891 77.8992 55.3321 77.8992H74.6771C74.9881 77.8992 75.2871 77.772 75.5071 77.5482C75.7261 77.3224 75.8491 77.0182 75.8471 76.7009L75.8301 64.3933ZM73.4651 70.4693H73.4891L73.4921 75.3551H56.4881L56.4811 64.3933H56.4221L56.3441 52.2638L65.1741 45.0353L73.3491 52.2434L73.4581 69.1499L73.4651 70.4693Z" fill="#2988FF"/>
<path d="M18.2583 64.1597C18.2583 63.6074 18.706 63.1597 19.2583 63.1597H27.0648C27.6171 63.1597 28.0648 63.6074 28.0648 64.1597V67.3307C28.0648 67.883 27.6171 68.3307 27.0648 68.3307H19.2583C18.706 68.3307 18.2583 67.883 18.2583 67.3307V64.1597Z" fill="#1C3553"/>
<path fill-rule="evenodd" clip-rule="evenodd" d="M30.5166 64.1597C30.5166 63.6074 30.9643 63.1597 31.5166 63.1597H39.3231C39.8754 63.1597 40.3231 63.6074 40.3231 64.1597V67.3307C40.3231 67.883 39.8754 68.3307 39.3231 68.3307H31.5166C30.9643 68.3307 30.5166 67.883 30.5166 67.3307V64.1597Z" fill="#1C3553"/>
<path fill-rule="evenodd" clip-rule="evenodd" d="M42.7744 64.1597C42.7744 63.6074 43.2222 63.1597 43.7744 63.1597H50.7744C51.3267 63.1597 51.7744 63.6074 51.7744 64.1597V67.3307C51.7744 67.883 51.3267 68.3307 50.7744 68.3307H43.7744C43.2222 68.3307 42.7744 67.883 42.7744 67.3307V64.1597Z" fill="#1C3553"/>
<path d="M18.2583 56.4034C18.2583 55.8511 18.706 55.4034 19.2583 55.4034H27.0648C27.6171 55.4034 28.0648 55.8511 28.0648 56.4034V59.5743C28.0648 60.1266 27.6171 60.5743 27.0648 60.5743H19.2583C18.706 60.5743 18.2583 60.1266 18.2583 59.5743V56.4034Z" fill="#1C3553"/>
<path fill-rule="evenodd" clip-rule="evenodd" d="M30.5166 56.4034C30.5166 55.8511 30.9643 55.4034 31.5166 55.4034H39.3231C39.8754 55.4034 40.3231 55.8511 40.3231 56.4034V59.5743C40.3231 60.1266 39.8754 60.5743 39.3231 60.5743H31.5166C30.9643 60.5743 30.5166 60.1266 30.5166 59.5743V56.4034Z" fill="#1C3553"/>
<path fill-rule="evenodd" clip-rule="evenodd" d="M42.7744 56.4034C42.7744 55.8511 43.2222 55.4034 43.7744 55.4034H50.7744C51.3267 55.4034 51.7744 55.8511 51.7744 56.4034V59.5743C51.7744 60.1266 51.3267 60.5743 50.7744 60.5743H43.7744C43.2222 60.5743 42.7744 60.1266 42.7744 59.5743V56.4034Z" fill="#1C3553"/>
<path d="M18.2583 48.6469C18.2583 48.0946 18.706 47.6469 19.2583 47.6469H27.0648C27.6171 47.6469 28.0648 48.0946 28.0648 48.6469V51.8179C28.0648 52.3701 27.6171 52.8179 27.0648 52.8179H19.2583C18.706 52.8179 18.2583 52.3701 18.2583 51.8179V48.6469Z" fill="#1C3553"/>
<path fill-rule="evenodd" clip-rule="evenodd" d="M30.5166 48.6469C30.5166 48.0946 30.9643 47.6469 31.5166 47.6469H39.3231C39.8754 47.6469 40.3231 48.0946 40.3231 48.6469V51.8179C40.3231 52.3701 39.8754 52.8179 39.3231 52.8179H31.5166C30.9643 52.8179 30.5166 52.3701 30.5166 51.8179V48.6469Z" fill="#1C3553"/>
<path fill-rule="evenodd" clip-rule="evenodd" d="M42.7744 48.6469C42.7744 48.0946 43.2222 47.6469 43.7744 47.6469H50.7744C51.3267 47.6469 51.7744 48.0946 51.7744 48.6469V51.8179C51.7744 52.3701 51.3267 52.8179 50.7744 52.8179H43.7744C43.2222 52.8179 42.7744 52.3701 42.7744 51.8179V48.6469Z" fill="#1C3553"/>
<path d="M18.2583 40.8905C18.2583 40.3382 18.706 39.8905 19.2583 39.8905H27.0648C27.6171 39.8905 28.0648 40.3382 28.0648 40.8905V44.0615C28.0648 44.6138 27.6171 45.0615 27.0648 45.0615H19.2583C18.706 45.0615 18.2583 44.6138 18.2583 44.0615V40.8905Z" fill="#1C3553"/>
<path fill-rule="evenodd" clip-rule="evenodd" d="M30.5166 40.8905C30.5166 40.3382 30.9643 39.8905 31.5166 39.8905H39.3231C39.8754 39.8905 40.3231 40.3382 40.3231 40.8905V44.0615C40.3231 44.6138 39.8754 45.0615 39.3231 45.0615H31.5166C30.9643 45.0615 30.5166 44.6138 30.5166 44.0615V40.8905Z" fill="#1C3553"/>
<path fill-rule="evenodd" clip-rule="evenodd" d="M42.7744 40.8905C42.7744 40.3382 43.2222 39.8905 43.7744 39.8905H51.5809C52.1332 39.8905 52.5809 40.3382 52.5809 40.8905V44.0615C52.5809 44.6138 52.1332 45.0615 51.5809 45.0615H43.7744C43.2222 45.0615 42.7744 44.6138 42.7744 44.0615V40.8905Z" fill="#1C3553"/>
<path fill-rule="evenodd" clip-rule="evenodd" d="M57.6826 45.0615L63.987 39.9014C63.9388 39.8942 63.8894 39.8905 63.8392 39.8905H56.0328C55.4805 39.8905 55.0327 40.3382 55.0327 40.8905V44.0615C55.0327 44.6138 55.4805 45.0615 56.0328 45.0615H57.6826Z" fill="#1C3553"/>
<path fill-rule="evenodd" clip-rule="evenodd" d="M68.2905 39.8905C67.7987 39.8905 67.3899 40.2455 67.3062 40.7132L72.2374 45.0615H76.097C76.6493 45.0615 77.097 44.6138 77.097 44.0615V40.8905C77.097 40.3382 76.6493 39.8905 76.097 39.8905H68.2905Z" fill="#1C3553"/>
<path fill-rule="evenodd" clip-rule="evenodd" d="M13.9448 33.2832H82.6679V36.9832H13.9448V33.2832Z" fill="#1C3553"/>
<path fill-rule="evenodd" clip-rule="evenodd" d="M69.7421 17.1499C70.7639 17.1499 71.5921 17.9782 71.5921 18.9999V23.9641C71.5921 24.9858 70.7639 25.8141 69.7421 25.8141C68.7204 25.8141 67.8921 24.9858 67.8921 23.9641V18.9999C67.8921 17.9782 68.7204 17.1499 69.7421 17.1499Z" fill="#1C3553"/>
<path fill-rule="evenodd" clip-rule="evenodd" d="M25.6127 17.1499C26.6344 17.1499 27.4627 17.9782 27.4627 18.9999V23.9641C27.4627 24.9858 26.6344 25.8141 25.6127 25.8141C24.591 25.8141 23.7627 24.9858 23.7627 23.9641V18.9999C23.7627 17.9782 24.591 17.1499 25.6127 17.1499Z" fill="#1C3553"/>
<path fill-rule="evenodd" clip-rule="evenodd" d="M11 22.0109C11 20.9063 11.8954 20.0109 13 20.0109H82.0078C83.1124 20.0109 84.0078 20.9063 84.0078 22.0109V73.0025C84.0078 74.1071 83.1124 75.0025 82.0078 75.0025H77.9987V71.0025H80.0078V24.0109H15V71.0025H52V75.0025H13C11.8954 75.0025 11 74.1071 11 73.0025V22.0109Z" fill="#1C3553"/>
</svg>
