<svg width="96" height="96" viewBox="0 0 96 96" fill="none" xmlns="http://www.w3.org/2000/svg">
<path d="M53.1996 41.6C52.5996 41.6 52.1996 42 52.1996 42.6C52.1996 43.2 52.5996 43.6 53.1996 43.6H57.4996C58.0996 43.6 58.4996 43.2 58.4996 42.6C58.4996 42 58.0996 41.6 57.4996 41.6H53.1996Z" fill="#1C3553"/>
<path d="M27.5998 46.8C26.7998 46.2 25.6998 46.3 25.0998 47.1L8.39986 68.0999C7.79986 68.8999 7.89986 69.9999 8.69986 70.5999C8.99986 70.8999 9.39986 70.9999 9.79986 70.9999C10.2999 70.9999 10.7999 70.7999 11.1999 70.2999L27.8998 49.3C28.4998 48.5 28.3998 47.4 27.5998 46.8Z" fill="#1C3553"/>
<path d="M61.5999 43.7999C61.5999 44.3999 62.0999 44.7999 62.6999 44.6999C63.1999 44.6999 63.6999 44.1999 63.5999 43.5999C63.2999 40.1999 65.8999 37.0999 69.3999 36.8999C72.7999 36.5999 75.8999 39.1999 76.0999 42.6999C76.2999 44.7999 75.2999 46.8999 73.5999 48.1999C73.1999 48.4999 73.0999 49.1999 73.3999 49.5999C73.5999 49.8999 73.8999 49.9999 74.1999 49.9999C74.3999 49.9999 74.5999 49.8999 74.7999 49.7999C77.0999 48.0999 78.2999 45.3999 77.9999 42.5999C77.5999 38.0999 73.6999 34.5999 69.0999 34.9999C64.6999 35.2999 61.2999 39.2999 61.5999 43.7999Z" fill="#1C3553"/>
<path d="M81.1996 42.6C81.1996 43.2 81.5996 43.6 82.1996 43.6H86.4996C87.0996 43.6 87.4996 43.2 87.4996 42.6C87.4996 42 87.0996 41.6 86.4996 41.6H82.1996C81.6996 41.6 81.1996 42.1 81.1996 42.6Z" fill="#1C3553"/>
<path d="M70.8998 30.3V26C70.8998 25.4 70.4998 25 69.8998 25C69.2998 25 68.8998 25.4 68.8998 26V30.3C68.8998 30.9 69.2998 31.3 69.8998 31.3C70.4998 31.3 70.8998 30.8 70.8998 30.3Z" fill="#1C3553"/>
<path d="M61.1 34.8999C61.4 34.8999 61.6 34.7999 61.8 34.5999C62.2 34.1999 62.2 33.5999 61.8 33.1999L58.8 30.1999C58.4 29.7999 57.8 29.7999 57.4 30.1999C57 30.5999 57 31.1999 57.4 31.5999L60.4 34.5999C60.6 34.7999 60.9 34.8999 61.1 34.8999Z" fill="#1C3553"/>
<path d="M77.9 50.6998C77.5 51.0998 77.5 51.6998 77.9 52.0998L80.9 55.0998C81.1 55.2998 81.4 55.3998 81.6 55.3998C81.8 55.3998 82.1 55.2998 82.3 55.0998C82.7 54.6998 82.7 54.0998 82.3 53.6998L79.3 50.6998C78.9 50.2998 78.3 50.2998 77.9 50.6998Z" fill="#1C3553"/>
<path d="M82.3 30.1999C81.9 29.7999 81.3 29.7999 80.9 30.1999L77.9 33.1999C77.5 33.5999 77.5 34.1999 77.9 34.5999C78.1 34.7999 78.4 34.8999 78.6 34.8999C78.8 34.8999 79.1 34.7999 79.3 34.5999L82.3 31.5999C82.7 31.1999 82.7 30.5999 82.3 30.1999Z" fill="#1C3553"/>
<path d="M86 70.2999C86.3 69.6999 86.2 68.9999 85.8 68.3999L68.5 46.8999C68.2 46.4999 67.7 46.1999 67.1 46.1999H26.6001C25.9001 46.1999 25.3001 46.5999 25.0001 47.1999C24.7001 47.7999 24.8001 48.4999 25.2001 49.0999L36.3001 62.9999C36.3001 63.0999 36.4001 63.0999 36.5001 63.1999L42.5001 70.5999C42.8001 70.9999 43.3001 71.2999 43.9001 71.2999H84.4C85.1 71.2999 85.7 70.8999 86 70.2999ZM64.8 67.7999L61.4 63.4999H68.9L72.3 67.7999H64.8ZM54.8 67.7999L51.4001 63.4999H58.9L62.3 67.7999H54.8ZM35.0001 55.7999H42.7001L47.2001 61.4999H39.6001L35.0001 55.7999ZM45.3001 55.7999H52.8L57.3 61.4999H49.8001L45.3001 55.7999ZM48.1001 49.7999L51.3001 53.7999H43.8001L40.6001 49.7999H48.1001ZM58.1 49.7999L61.3 53.7999H53.8L50.6001 49.7999H58.1ZM59.8 61.4999L55.3 55.7999H62.8L67.3 61.4999H59.8ZM65.4 55.7999H71.1L75.7 61.4999H70L65.4 55.7999ZM69.5 53.7999H63.9L60.7 49.7999H66.3L69.5 53.7999ZM38.0001 49.7999L41.2001 53.7999H33.5001L30.3001 49.7999H38.0001ZM41.2001 63.4999H48.8001L52.2001 67.7999H44.7001L41.2001 63.4999ZM74.9 67.7999L71.5 63.4999H77.3L80.8 67.7999H74.9Z" fill="#2988FF"/>
</svg>
