<svg width="96" height="96" viewBox="0 0 96 96" fill="none" xmlns="http://www.w3.org/2000/svg">
<path fill-rule="evenodd" clip-rule="evenodd" d="M36.8994 39.9097C36.8994 38.8051 37.7948 37.9097 38.8994 37.9097H44.1374C45.242 37.9097 46.1374 38.8051 46.1374 39.9097C46.1374 41.0142 45.242 41.9097 44.1374 41.9097H38.8994C37.7948 41.9097 36.8994 41.0142 36.8994 39.9097Z" fill="#1C3553"/>
<path fill-rule="evenodd" clip-rule="evenodd" d="M79.6616 39.9097C79.6616 38.8051 80.5571 37.9097 81.6616 37.9097H86.8996C88.0042 37.9097 88.8996 38.8051 88.8996 39.9097C88.8996 41.0142 88.0042 41.9097 86.8996 41.9097H81.6616C80.5571 41.9097 79.6616 41.0142 79.6616 39.9097Z" fill="#1C3553"/>
<path fill-rule="evenodd" clip-rule="evenodd" d="M62.8994 14C64.004 14 64.8994 14.8954 64.8994 16V21.238C64.8994 22.3425 64.004 23.238 62.8994 23.238C61.7948 23.238 60.8994 22.3425 60.8994 21.238V16C60.8994 14.8954 61.7948 14 62.8994 14Z" fill="#1C3553"/>
<path fill-rule="evenodd" clip-rule="evenodd" d="M44.6688 21.7694C45.4498 20.9883 46.7162 20.9883 47.4972 21.7694L50.8932 25.1654C51.6743 25.9464 51.6743 27.2127 50.8932 27.9938C50.1122 28.7748 48.8458 28.7748 48.0648 27.9938L44.6688 24.5978C43.8877 23.8168 43.8877 22.5504 44.6688 21.7694Z" fill="#1C3553"/>
<path fill-rule="evenodd" clip-rule="evenodd" d="M74.9061 52.0064C75.6871 51.2254 76.9535 51.2254 77.7345 52.0064L81.1305 55.4024C81.9116 56.1835 81.9116 57.4498 81.1305 58.2309C80.3495 59.0119 79.0831 59.0119 78.3021 58.2309L74.9061 54.8349C74.1251 54.0538 74.1251 52.7875 74.9061 52.0064Z" fill="#1C3553"/>
<path fill-rule="evenodd" clip-rule="evenodd" d="M61.9449 28.6684C68.6426 28.1433 74.5207 33.1197 75.0484 39.807C75.3886 44.0874 73.4488 48.0184 70.2597 50.4264C69.3782 51.092 68.124 50.9169 67.4584 50.0354C66.7928 49.1539 66.9679 47.8997 67.8494 47.2341C69.9999 45.6104 71.2881 42.978 71.0609 40.123L71.0607 40.1216C70.7085 35.6571 66.7749 32.3017 62.257 32.6562L62.2562 32.6562C57.7377 33.009 54.3845 36.931 54.7383 41.3942C54.8256 42.4954 54.0037 43.4587 52.9026 43.546C51.8015 43.6333 50.8381 42.8114 50.7508 41.7103C50.2206 35.0219 55.2431 29.192 61.9441 28.6684" fill="#1C3553"/>
<path fill-rule="evenodd" clip-rule="evenodd" d="M81.13 21.7689C81.9111 22.5499 81.9111 23.8163 81.13 24.5973L77.734 27.9933C76.953 28.7743 75.6867 28.7743 74.9056 27.9933C74.1246 27.2123 74.1246 25.9459 74.9056 25.1649L78.3016 21.7689C79.0827 20.9878 80.349 20.9878 81.13 21.7689Z" fill="#1C3553"/>
<path fill-rule="evenodd" clip-rule="evenodd" d="M4.23389 47.5H59.1383L83.5665 77.9759H28.6621L4.23389 47.5ZM12.5665 51.5L30.5823 73.9759H75.2339L57.2181 51.5H12.5665Z" fill="#2988FF"/>
<path fill-rule="evenodd" clip-rule="evenodd" d="M24.6552 48.941C25.3018 48.4232 26.2458 48.5276 26.7637 49.1742L47.4057 74.9502C47.9235 75.5968 47.8191 76.5408 47.1725 77.0586C46.5258 77.5765 45.5818 77.4721 45.064 76.8254L24.422 51.0495C23.9042 50.4029 24.0086 49.4589 24.6552 48.941Z" fill="#2988FF"/>
<path fill-rule="evenodd" clip-rule="evenodd" d="M40.0741 48.941C40.7208 48.4232 41.6648 48.5276 42.1826 49.1742L62.8246 74.9502C63.3424 75.5968 63.238 76.5408 62.5914 77.0586C61.9448 77.5765 61.0008 77.4721 60.4829 76.8254L39.8409 51.0495C39.3231 50.4029 39.4275 49.4589 40.0741 48.941Z" fill="#2988FF"/>
<path fill-rule="evenodd" clip-rule="evenodd" d="M17.3999 62C17.3999 61.1716 18.0715 60.5 18.8999 60.5H66.8999C67.7283 60.5 68.3999 61.1716 68.3999 62C68.3999 62.8284 67.7283 63.5 66.8999 63.5H18.8999C18.0715 63.5 17.3999 62.8284 17.3999 62Z" fill="#2988FF"/>
</svg>
