<svg width="96" height="96" viewBox="0 0 96 96" fill="none" xmlns="http://www.w3.org/2000/svg">
<path fill-rule="evenodd" clip-rule="evenodd" d="M63.8345 59.9493C64.1835 59.7164 64.5715 59.5312 64.9875 59.4C65.4025 59.2688 65.8415 59.2027 66.2915 59.2027H68.5905C68.7955 59.2027 68.9745 59.1264 69.1225 58.9748C69.2695 58.8253 69.3445 58.6381 69.3445 58.4194C69.3445 58.2119 69.2695 58.0298 69.1225 57.8792C68.9745 57.7287 68.7955 57.6524 68.5905 57.6524H66.2915C65.6365 57.6524 65.0025 57.7582 64.4065 57.9667C63.8125 58.1742 63.2625 58.4641 62.7715 58.8283C62.2785 59.1925 61.8425 59.6309 61.4735 60.1334C61.1205 60.6136 60.8405 61.1456 60.6425 61.7173H59.9225C59.7175 61.7173 59.5385 61.7926 59.3905 61.9431C59.2425 62.0937 59.1675 62.2757 59.1675 62.4843C59.1675 62.703 59.2425 62.8902 59.3905 63.0407C59.5385 63.1902 59.7165 63.2655 59.9225 63.2655H60.3215C60.3165 63.3205 60.3125 63.3754 60.3105 63.4313C60.3065 63.528 60.3035 63.6277 60.3035 63.7294C60.3035 63.8403 60.3065 63.945 60.3105 64.0417C60.3125 64.0976 60.3165 64.1536 60.3215 64.2075H59.9225C59.7175 64.2075 59.5385 64.2838 59.3915 64.4333C59.2425 64.5829 59.1675 64.769 59.1675 64.9887C59.1675 65.1973 59.2425 65.3794 59.3905 65.5289C59.5385 65.6794 59.7175 65.7557 59.9225 65.7557H60.6425C60.8405 66.3264 61.1205 66.8594 61.4735 67.3396C61.8425 67.8421 62.2785 68.2805 62.7715 68.6447C63.0275 68.8339 63.3015 69.0017 63.5885 69.1503C63.8505 69.2866 64.1225 69.4066 64.4065 69.5073C65.0005 69.7148 65.6345 69.8196 66.2915 69.8196H68.5905C68.7955 69.8196 68.9745 69.7443 69.1225 69.5938V69.5928C69.2455 69.4676 69.3045 69.3161 69.3255 69.1503C69.3295 69.1167 69.3445 69.0872 69.3445 69.0526C69.3445 68.8339 69.2695 68.6477 69.1215 68.4962C68.9735 68.3466 68.7955 68.2714 68.5905 68.2714H66.2915C65.8405 68.2714 65.4015 68.2042 64.9875 68.073C64.5695 67.9408 64.1815 67.7556 63.8345 67.5237C63.4865 67.2897 63.1685 67.0059 62.8915 66.6804C62.6505 66.3976 62.4475 66.0884 62.2855 65.7557H67.6465C67.8525 65.7557 68.0315 65.6794 68.1785 65.5289C68.3255 65.3794 68.4005 65.1973 68.4005 64.9887C68.4005 64.769 68.3255 64.5829 68.1785 64.4333C68.0305 64.2838 67.8525 64.2075 67.6465 64.2075H61.8455C61.8405 64.1495 61.8355 64.0915 61.8325 64.0305C61.8275 63.9369 61.8255 63.8372 61.8255 63.7294C61.8255 63.6307 61.8275 63.5351 61.8325 63.4415C61.8355 63.3825 61.8405 63.3235 61.8455 63.2655H67.6465C67.8525 63.2655 68.0315 63.1902 68.1785 63.0407C68.3255 62.8902 68.4005 62.703 68.4005 62.4843C68.4005 62.2757 68.3255 62.0937 68.1785 61.9441C68.0315 61.7926 67.8525 61.7173 67.6465 61.7173H62.2855C62.4475 61.3846 62.6505 61.0744 62.8915 60.7916C63.1685 60.4661 63.4865 60.1823 63.8345 59.9493Z" fill="#2988FF"/>
<path fill-rule="evenodd" clip-rule="evenodd" d="M75.83 64.3933H75.767L75.685 51.689C75.683 51.3462 75.536 51.0217 75.281 50.7969L65.969 42.5858C65.542 42.2094 64.912 42.1982 64.469 42.5583L54.437 50.7695C54.159 50.9973 53.998 51.3411 54 51.7043L54.121 70.4693H54.153L54.162 76.7161C54.166 77.3702 54.689 77.8992 55.332 77.8992H74.677C74.988 77.8992 75.287 77.772 75.507 77.5482C75.726 77.3224 75.849 77.0182 75.847 76.7009L75.83 64.3933ZM73.465 70.4693H73.489L73.492 75.3551H56.488L56.481 64.3933H56.422L56.344 52.2638L65.174 45.0353L73.349 52.2434L73.458 69.1499L73.465 70.4693Z" fill="#2988FF"/>
<path d="M18.2581 64.1597C18.2581 63.6074 18.7058 63.1597 19.2581 63.1597H27.0645C27.6168 63.1597 28.0645 63.6074 28.0645 64.1597V67.3307C28.0645 67.883 27.6168 68.3307 27.0645 68.3307H19.2581C18.7058 68.3307 18.2581 67.883 18.2581 67.3307V64.1597Z" fill="#1C3553"/>
<path fill-rule="evenodd" clip-rule="evenodd" d="M30.5161 64.1597C30.5161 63.6074 30.9638 63.1597 31.5161 63.1597H39.3226C39.8749 63.1597 40.3226 63.6074 40.3226 64.1597V67.3307C40.3226 67.883 39.8749 68.3307 39.3226 68.3307H31.5161C30.9638 68.3307 30.5161 67.883 30.5161 67.3307V64.1597Z" fill="#1C3553"/>
<path fill-rule="evenodd" clip-rule="evenodd" d="M42.7742 64.1597C42.7742 63.6074 43.2219 63.1597 43.7742 63.1597H50.7742C51.3265 63.1597 51.7742 63.6074 51.7742 64.1597V67.3307C51.7742 67.883 51.3265 68.3307 50.7742 68.3307H43.7742C43.2219 68.3307 42.7742 67.883 42.7742 67.3307V64.1597Z" fill="#1C3553"/>
<path d="M18.2581 56.4034C18.2581 55.8511 18.7058 55.4034 19.2581 55.4034H27.0645C27.6168 55.4034 28.0645 55.8511 28.0645 56.4034V59.5743C28.0645 60.1266 27.6168 60.5743 27.0645 60.5743H19.2581C18.7058 60.5743 18.2581 60.1266 18.2581 59.5743V56.4034Z" fill="#1C3553"/>
<path fill-rule="evenodd" clip-rule="evenodd" d="M30.5161 56.4034C30.5161 55.8511 30.9638 55.4034 31.5161 55.4034H39.3226C39.8749 55.4034 40.3226 55.8511 40.3226 56.4034V59.5743C40.3226 60.1266 39.8749 60.5743 39.3226 60.5743H31.5161C30.9638 60.5743 30.5161 60.1266 30.5161 59.5743V56.4034Z" fill="#1C3553"/>
<path fill-rule="evenodd" clip-rule="evenodd" d="M42.7742 56.4034C42.7742 55.8511 43.2219 55.4034 43.7742 55.4034H50.7742C51.3265 55.4034 51.7742 55.8511 51.7742 56.4034V59.5743C51.7742 60.1266 51.3265 60.5743 50.7742 60.5743H43.7742C43.2219 60.5743 42.7742 60.1266 42.7742 59.5743V56.4034Z" fill="#1C3553"/>
<path d="M18.2581 48.647C18.2581 48.0947 18.7058 47.647 19.2581 47.647H27.0645C27.6168 47.647 28.0645 48.0947 28.0645 48.647V51.818C28.0645 52.3703 27.6168 52.818 27.0645 52.818H19.2581C18.7058 52.818 18.2581 52.3703 18.2581 51.818V48.647Z" fill="#1C3553"/>
<path fill-rule="evenodd" clip-rule="evenodd" d="M30.5161 48.647C30.5161 48.0947 30.9638 47.647 31.5161 47.647H39.3226C39.8749 47.647 40.3226 48.0947 40.3226 48.647V51.818C40.3226 52.3703 39.8749 52.818 39.3226 52.818H31.5161C30.9638 52.818 30.5161 52.3703 30.5161 51.818V48.647Z" fill="#1C3553"/>
<path fill-rule="evenodd" clip-rule="evenodd" d="M42.7742 48.647C42.7742 48.0947 43.2219 47.647 43.7742 47.647H50.7742C51.3265 47.647 51.7742 48.0947 51.7742 48.647V51.818C51.7742 52.3703 51.3265 52.818 50.7742 52.818H43.7742C43.2219 52.818 42.7742 52.3703 42.7742 51.818V48.647Z" fill="#1C3553"/>
<path d="M18.2581 40.8904C18.2581 40.3381 18.7058 39.8904 19.2581 39.8904H27.0645C27.6168 39.8904 28.0645 40.3381 28.0645 40.8904V44.0614C28.0645 44.6137 27.6168 45.0614 27.0645 45.0614H19.2581C18.7058 45.0614 18.2581 44.6137 18.2581 44.0614V40.8904Z" fill="#1C3553"/>
<path fill-rule="evenodd" clip-rule="evenodd" d="M30.5161 40.8904C30.5161 40.3381 30.9638 39.8904 31.5161 39.8904H39.3226C39.8749 39.8904 40.3226 40.3381 40.3226 40.8904V44.0614C40.3226 44.6137 39.8749 45.0614 39.3226 45.0614H31.5161C30.9638 45.0614 30.5161 44.6137 30.5161 44.0614V40.8904Z" fill="#1C3553"/>
<path fill-rule="evenodd" clip-rule="evenodd" d="M42.7742 40.8904C42.7742 40.3381 43.2219 39.8904 43.7742 39.8904H51.5807C52.1329 39.8904 52.5807 40.3381 52.5807 40.8904V44.0614C52.5807 44.6137 52.1329 45.0614 51.5807 45.0614H43.7742C43.2219 45.0614 42.7742 44.6137 42.7742 44.0614V40.8904Z" fill="#1C3553"/>
<path fill-rule="evenodd" clip-rule="evenodd" d="M57.6821 45.0614L63.9865 39.9013C63.9383 39.8941 63.8889 39.8904 63.8387 39.8904H56.0323C55.48 39.8904 55.0323 40.3381 55.0323 40.8904V44.0614C55.0323 44.6137 55.48 45.0614 56.0323 45.0614H57.6821Z" fill="#1C3553"/>
<path fill-rule="evenodd" clip-rule="evenodd" d="M68.2903 39.8904C67.7986 39.8904 67.3897 40.2454 67.306 40.7131L72.2373 45.0614H76.0968C76.6491 45.0614 77.0968 44.6137 77.0968 44.0614V40.8904C77.0968 40.3381 76.6491 39.8904 76.0968 39.8904H68.2903Z" fill="#1C3553"/>
<path fill-rule="evenodd" clip-rule="evenodd" d="M13.9449 33.2832H82.668V36.9832H13.9449V33.2832Z" fill="#1C3553"/>
<path fill-rule="evenodd" clip-rule="evenodd" d="M69.742 17.1499C70.7637 17.1499 71.592 17.9782 71.592 18.9999V23.9641C71.592 24.9858 70.7637 25.8141 69.742 25.8141C68.7203 25.8141 67.892 24.9858 67.892 23.9641V18.9999C67.892 17.9782 68.7203 17.1499 69.742 17.1499Z" fill="#1C3553"/>
<path fill-rule="evenodd" clip-rule="evenodd" d="M25.613 17.1499C26.6347 17.1499 27.463 17.9782 27.463 18.9999V23.9641C27.463 24.9858 26.6347 25.8141 25.613 25.8141C24.5912 25.8141 23.763 24.9858 23.763 23.9641V18.9999C23.763 17.9782 24.5912 17.1499 25.613 17.1499Z" fill="#1C3553"/>
<path fill-rule="evenodd" clip-rule="evenodd" d="M11 22.0108C11 20.9062 11.8954 20.0108 13 20.0108H82.0078C83.1124 20.0108 84.0078 20.9062 84.0078 22.0108V73.0024C84.0078 74.107 83.1124 75.0024 82.0078 75.0024H77.9987V71.0024H80.0078V24.0108H15V71.0024H52V75.0024H13C11.8954 75.0024 11 74.107 11 73.0024V22.0108Z" fill="#1C3553"/>
</svg>
