<svg width="96" height="96" viewBox="0 0 96 96" fill="none" xmlns="http://www.w3.org/2000/svg">
<path fill-rule="evenodd" clip-rule="evenodd" d="M36.8994 39.9097C36.8994 38.8051 37.7948 37.9097 38.8994 37.9097H44.1374C45.242 37.9097 46.1374 38.8051 46.1374 39.9097C46.1374 41.0142 45.242 41.9097 44.1374 41.9097H38.8994C37.7948 41.9097 36.8994 41.0142 36.8994 39.9097Z" fill="#1C3553"/>
<path fill-rule="evenodd" clip-rule="evenodd" d="M79.6616 39.9097C79.6616 38.8051 80.5571 37.9097 81.6616 37.9097H86.8996C88.0042 37.9097 88.8996 38.8051 88.8996 39.9097C88.8996 41.0142 88.0042 41.9097 86.8996 41.9097H81.6616C80.5571 41.9097 79.6616 41.0142 79.6616 39.9097Z" fill="#1C3553"/>
<path fill-rule="evenodd" clip-rule="evenodd" d="M62.8994 14C64.004 14 64.8994 14.8954 64.8994 16V21.238C64.8994 22.3425 64.004 23.238 62.8994 23.238C61.7948 23.238 60.8994 22.3425 60.8994 21.238V16C60.8994 14.8954 61.7948 14 62.8994 14Z" fill="#1C3553"/>
<path fill-rule="evenodd" clip-rule="evenodd" d="M44.6688 21.7693C45.4498 20.9882 46.7162 20.9882 47.4972 21.7693L50.8932 25.1652C51.6743 25.9463 51.6743 27.2126 50.8932 27.9937C50.1122 28.7747 48.8458 28.7747 48.0648 27.9937L44.6688 24.5977C43.8877 23.8166 43.8877 22.5503 44.6688 21.7693Z" fill="#1C3553"/>
<path fill-rule="evenodd" clip-rule="evenodd" d="M74.9061 52.0066C75.6871 51.2255 76.9535 51.2255 77.7345 52.0066L81.1305 55.4026C81.9116 56.1836 81.9116 57.4499 81.1305 58.231C80.3495 59.012 79.0831 59.012 78.3021 58.231L74.9061 54.835C74.1251 54.0539 74.1251 52.7876 74.9061 52.0066Z" fill="#1C3553"/>
<path fill-rule="evenodd" clip-rule="evenodd" d="M61.9449 28.6683C68.6426 28.1432 74.5207 33.1196 75.0484 39.8068C75.3886 44.0873 73.4488 48.0183 70.2597 50.4263C69.3782 51.0918 68.124 50.9168 67.4584 50.0353C66.7928 49.1538 66.9679 47.8996 67.8494 47.234C69.9999 45.6103 71.2881 42.9778 71.0609 40.1229L71.0607 40.1215C70.7085 35.657 66.7749 32.3016 62.257 32.6561L62.2562 32.6561C57.7377 33.0089 54.3845 36.9309 54.7383 41.3941C54.8256 42.4952 54.0037 43.4586 52.9026 43.5459C51.8015 43.6332 50.8381 42.8113 50.7508 41.7102C50.2206 35.0217 55.2431 29.1919 61.9441 28.6683" fill="#1C3553"/>
<path fill-rule="evenodd" clip-rule="evenodd" d="M81.13 21.7689C81.9111 22.5499 81.9111 23.8163 81.13 24.5973L77.734 27.9933C76.953 28.7743 75.6867 28.7743 74.9056 27.9933C74.1246 27.2123 74.1246 25.9459 74.9056 25.1649L78.3016 21.7689C79.0827 20.9878 80.349 20.9878 81.13 21.7689Z" fill="#1C3553"/>
<path fill-rule="evenodd" clip-rule="evenodd" d="M4.23389 47.5H59.1383L83.5665 77.9759H28.6621L4.23389 47.5ZM12.5665 51.5L30.5823 73.9759H75.2339L57.2181 51.5H12.5665Z" fill="#2988FF"/>
<path fill-rule="evenodd" clip-rule="evenodd" d="M24.6552 48.9412C25.3018 48.4233 26.2458 48.5277 26.7637 49.1744L47.4057 74.9503C47.9235 75.5969 47.8191 76.5409 47.1725 77.0587C46.5258 77.5766 45.5818 77.4722 45.064 76.8255L24.422 51.0496C23.9042 50.403 24.0086 49.459 24.6552 48.9412Z" fill="#2988FF"/>
<path fill-rule="evenodd" clip-rule="evenodd" d="M40.0741 48.9412C40.7208 48.4233 41.6648 48.5277 42.1826 49.1744L62.8246 74.9503C63.3424 75.5969 63.238 76.5409 62.5914 77.0587C61.9448 77.5766 61.0008 77.4722 60.4829 76.8255L39.8409 51.0496C39.3231 50.403 39.4275 49.459 40.0741 48.9412Z" fill="#2988FF"/>
<path fill-rule="evenodd" clip-rule="evenodd" d="M17.3999 61.9999C17.3999 61.1715 18.0715 60.4999 18.8999 60.4999H66.8999C67.7283 60.4999 68.3999 61.1715 68.3999 61.9999C68.3999 62.8284 67.7283 63.4999 66.8999 63.4999H18.8999C18.0715 63.4999 17.3999 62.8284 17.3999 61.9999Z" fill="#2988FF"/>
</svg>
