<svg width="96" height="96" viewBox="0 0 96 96" fill="none" xmlns="http://www.w3.org/2000/svg">
<path d="M53.1999 41.6C52.5999 41.6 52.1999 42 52.1999 42.6C52.1999 43.2 52.5999 43.6 53.1999 43.6H57.4999C58.0999 43.6 58.4999 43.2 58.4999 42.6C58.4999 42 58.0999 41.6 57.4999 41.6H53.1999Z" fill="#1C3553"/>
<path d="M27.6 46.8C26.8 46.2 25.7 46.3 25.1 47.1L8.39999 68.0999C7.79999 68.8999 7.89999 69.9999 8.69999 70.5999C8.99999 70.8999 9.39999 70.9999 9.79999 70.9999C10.3 70.9999 10.8 70.7999 11.2 70.2999L27.9 49.3C28.5 48.5 28.4 47.4 27.6 46.8Z" fill="#1C3553"/>
<path d="M61.5999 43.7999C61.5999 44.3999 62.0999 44.7999 62.6999 44.6999C63.1999 44.6999 63.6999 44.1999 63.5999 43.5999C63.2999 40.1999 65.8999 37.0999 69.3999 36.8999C72.7999 36.5999 75.8999 39.1999 76.0999 42.6999C76.2999 44.7999 75.2999 46.8999 73.5999 48.1999C73.1999 48.4999 73.0999 49.1999 73.3999 49.5999C73.5999 49.8999 73.8999 49.9999 74.1999 49.9999C74.3999 49.9999 74.5999 49.8999 74.7999 49.7999C77.0999 48.0999 78.2999 45.3999 77.9999 42.5999C77.5999 38.0999 73.6999 34.5999 69.0999 34.9999C64.6999 35.2999 61.2999 39.2999 61.5999 43.7999Z" fill="#1C3553"/>
<path d="M81.1999 42.6C81.1999 43.2 81.5999 43.6 82.1999 43.6H86.4999C87.0999 43.6 87.4999 43.2 87.4999 42.6C87.4999 42 87.0999 41.6 86.4999 41.6H82.1999C81.6999 41.6 81.1999 42.1 81.1999 42.6Z" fill="#1C3553"/>
<path d="M70.8999 30.3V26C70.8999 25.4 70.4999 25 69.8999 25C69.2999 25 68.8999 25.4 68.8999 26V30.3C68.8999 30.9 69.2999 31.3 69.8999 31.3C70.4999 31.3 70.8999 30.8 70.8999 30.3Z" fill="#1C3553"/>
<path d="M61.0999 34.8999C61.3999 34.8999 61.5999 34.7999 61.7999 34.5999C62.1999 34.1999 62.1999 33.5999 61.7999 33.1999L58.7999 30.1999C58.3999 29.7999 57.7999 29.7999 57.3999 30.1999C56.9999 30.5999 56.9999 31.1999 57.3999 31.5999L60.3999 34.5999C60.5999 34.7999 60.8999 34.8999 61.0999 34.8999Z" fill="#1C3553"/>
<path d="M77.8999 50.6998C77.4999 51.0998 77.4999 51.6998 77.8999 52.0998L80.8999 55.0998C81.0999 55.2998 81.3999 55.3998 81.5999 55.3998C81.7999 55.3998 82.0999 55.2998 82.2999 55.0998C82.6999 54.6998 82.6999 54.0998 82.2999 53.6998L79.2999 50.6998C78.8999 50.2998 78.2999 50.2998 77.8999 50.6998Z" fill="#1C3553"/>
<path d="M82.2999 30.1999C81.8999 29.7999 81.2999 29.7999 80.8999 30.1999L77.8999 33.1999C77.4999 33.5999 77.4999 34.1999 77.8999 34.5999C78.0999 34.7999 78.3999 34.8999 78.5999 34.8999C78.7999 34.8999 79.0999 34.7999 79.2999 34.5999L82.2999 31.5999C82.6999 31.1999 82.6999 30.5999 82.2999 30.1999Z" fill="#1C3553"/>
<path d="M85.9999 70.2999C86.2999 69.6999 86.1999 68.9999 85.7999 68.3999L68.4999 46.8999C68.1999 46.4999 67.6999 46.1999 67.0999 46.1999H26.6C25.9 46.1999 25.3 46.5999 25 47.1999C24.7 47.7999 24.8 48.4999 25.2 49.0999L36.3 62.9999C36.3 63.0999 36.4 63.0999 36.5 63.1999L42.4999 70.5999C42.7999 70.9999 43.2999 71.2999 43.8999 71.2999H84.3999C85.0999 71.2999 85.6999 70.8999 85.9999 70.2999ZM64.7999 67.7999L61.3999 63.4999H68.8999L72.2999 67.7999H64.7999ZM54.7999 67.7999L51.3999 63.4999H58.8999L62.2999 67.7999H54.7999ZM35 55.7999H42.6999L47.1999 61.4999H39.6L35 55.7999ZM45.2999 55.7999H52.7999L57.2999 61.4999H49.7999L45.2999 55.7999ZM48.0999 49.7999L51.2999 53.7999H43.7999L40.5999 49.7999H48.0999ZM58.0999 49.7999L61.2999 53.7999H53.7999L50.5999 49.7999H58.0999ZM59.7999 61.4999L55.2999 55.7999H62.7999L67.2999 61.4999H59.7999ZM65.3999 55.7999H71.0999L75.6999 61.4999H69.9999L65.3999 55.7999ZM69.4999 53.7999H63.8999L60.6999 49.7999H66.2999L69.4999 53.7999ZM38 49.7999L41.2 53.7999H33.5L30.3 49.7999H38ZM41.2 63.4999H48.7999L52.1999 67.7999H44.6999L41.2 63.4999ZM74.8999 67.7999L71.4999 63.4999H77.2999L80.7999 67.7999H74.8999Z" fill="#2988FF"/>
</svg>
