<svg width="96" height="96" viewBox="0 0 96 96" fill="none" xmlns="http://www.w3.org/2000/svg">
<path d="M37 55.9995H43C43.6 55.9995 44 55.5995 44 54.9995V46.9995C44 46.3995 43.6 45.9995 43 45.9995H37C36.4 45.9995 36 46.3995 36 46.9995V54.9995C36 55.5995 36.4 55.9995 37 55.9995ZM38 47.9995H42V53.9995H38V47.9995Z" fill="#1C3553"/>
<path d="M53 55.9995H59C59.6 55.9995 60 55.5995 60 54.9995V46.9995C60 46.3995 59.6 45.9995 59 45.9995H53C52.4 45.9995 52 46.3995 52 46.9995V54.9995C52 55.5995 52.4 55.9995 53 55.9995ZM54 47.9995H58V53.9995H54V47.9995Z" fill="#1C3553"/>
<path d="M26.6002 43.7995V44.3995V46.1995V69.3995C26.6002 71.7995 26.6002 75.3995 30.4002 75.3995H66.6002C70.4002 75.3995 70.4002 71.7995 70.4002 69.3995V46.3995V43.7995C72.0002 43.7995 73.8002 43.7995 75.4002 43.7995C77.4002 43.7995 78.4002 42.7995 78.8002 41.7995C79.4002 40.3995 79.0002 39.1995 77.8002 37.9995C76.6002 37.1995 50.6002 15.3995 49.4002 14.3995C48.6002 13.7995 47.6002 13.7995 46.8002 14.3995C45.8002 15.3995 20.6002 36.9995 19.2002 38.1995C18.8002 38.5995 17.4002 39.9995 18.2002 41.9995C18.6002 42.7995 19.4002 43.9995 21.6002 43.9995C23.2002 43.7995 24.8002 43.7995 26.6002 43.7995ZM26.8002 43.1995L26.6002 42.9995L27.2002 43.1995H26.8002ZM48.2002 18.5995C55.2002 24.3995 69.0002 35.9995 73.6002 39.7995C72.4002 39.7995 71.2002 39.7995 70.0002 39.7995C69.0002 39.7995 66.4002 39.7995 66.4002 42.9995V43.1995V69.5995C66.4002 70.5995 66.4002 71.1995 66.4002 71.5995H30.8002C30.8002 71.1995 30.8002 70.5995 30.8002 69.5995V43.1995V42.9995C30.8002 42.3995 30.8002 41.3995 30.0002 40.5995C29.2002 39.7995 28.2002 39.7995 27.2002 39.7995C26.0002 39.7995 24.8002 39.7995 23.6002 39.7995C27.8002 35.9995 40.4002 25.3995 48.2002 18.5995Z" fill="#1C3553"/>
<path d="M20 75.9995H76C77.2 75.9995 78 75.1995 78 73.9995V69.9995C78 68.7995 77.2 67.9995 76 67.9995H20C18.8 67.9995 18 68.7995 18 69.9995V73.9995C18 75.1995 18.8 75.9995 20 75.9995Z" fill="#2988FF"/>
</svg>
