<svg width="96" height="96" viewBox="0 0 96 96" fill="none" xmlns="http://www.w3.org/2000/svg">
<path d="M37 55.9995H43C43.6 55.9995 44 55.5995 44 54.9995V46.9995C44 46.3995 43.6 45.9995 43 45.9995H37C36.4 45.9995 36 46.3995 36 46.9995V54.9995C36 55.5995 36.4 55.9995 37 55.9995ZM38 47.9995H42V53.9995H38V47.9995Z" fill="#1C3553"/>
<path d="M53 55.9995H59C59.6 55.9995 60 55.5995 60 54.9995V46.9995C60 46.3995 59.6 45.9995 59 45.9995H53C52.4 45.9995 52 46.3995 52 46.9995V54.9995C52 55.5995 52.4 55.9995 53 55.9995ZM54 47.9995H58V53.9995H54V47.9995Z" fill="#1C3553"/>
<path d="M26.6 43.7995V44.3995V46.1995V69.3995C26.6 71.7995 26.6 75.3995 30.4 75.3995H66.6C70.4 75.3995 70.4 71.7995 70.4 69.3995V46.3995V43.7995C72 43.7995 73.8 43.7995 75.4 43.7995C77.4 43.7995 78.4 42.7995 78.8 41.7995C79.4 40.3995 79 39.1995 77.8 37.9995C76.6 37.1995 50.6 15.3995 49.4 14.3995C48.6 13.7995 47.6 13.7995 46.8 14.3995C45.8 15.3995 20.6 36.9995 19.2 38.1995C18.8 38.5995 17.4 39.9995 18.2 41.9995C18.6 42.7995 19.4 43.9995 21.6 43.9995C23.2 43.7995 24.8 43.7995 26.6 43.7995ZM26.8 43.1995L26.6 42.9995L27.2 43.1995H26.8ZM48.2 18.5995C55.2 24.3995 69 35.9995 73.6 39.7995C72.4 39.7995 71.2 39.7995 70 39.7995C69 39.7995 66.4 39.7995 66.4 42.9995V43.1995V69.5995C66.4 70.5995 66.4 71.1995 66.4 71.5995H30.8C30.8 71.1995 30.8 70.5995 30.8 69.5995V43.1995V42.9995C30.8 42.3995 30.8 41.3995 30 40.5995C29.2 39.7995 28.2 39.7995 27.2 39.7995C26 39.7995 24.8 39.7995 23.6 39.7995C27.8 35.9995 40.4 25.3995 48.2 18.5995Z" fill="#1C3553"/>
<path d="M20 75.9995H76C77.2 75.9995 78 75.1995 78 73.9995V69.9995C78 68.7995 77.2 67.9995 76 67.9995H20C18.8 67.9995 18 68.7995 18 69.9995V73.9995C18 75.1995 18.8 75.9995 20 75.9995Z" fill="#2988FF"/>
</svg>
