<svg width="96" height="96" viewBox="0 0 96 96" fill="none" xmlns="http://www.w3.org/2000/svg">
<path fill-rule="evenodd" clip-rule="evenodd" d="M42.5303 49.4702V54.5302H40.4703V49.4702H42.5303ZM43.0003 48.0002C43.5526 48.0002 44.0003 48.448 44.0003 49.0002V55.0002C44.0003 55.5525 43.5526 56.0002 43.0003 56.0002H40.0003C39.448 56.0002 39.0003 55.5525 39.0003 55.0002V49.0002C39.0003 48.448 39.448 48.0002 40.0003 48.0002H43.0003Z" fill="#1C3553"/>
<path fill-rule="evenodd" clip-rule="evenodd" d="M56.5303 49.4702V54.5302H54.4703V49.4702H56.5303ZM57.0003 48.0002C57.5526 48.0002 58.0003 48.448 58.0003 49.0002V55.0002C58.0003 55.5525 57.5526 56.0002 57.0003 56.0002H54.0003C53.448 56.0002 53.0003 55.5525 53.0003 55.0002V49.0002C53.0003 48.448 53.448 48.0002 54.0003 48.0002H57.0003Z" fill="#1C3553"/>
<path d="M12 67.9H23.5C24.1 67.9 24.5 67.5 24.5 66.9C24.5 66.7 24.5 66.6 24.4 66.5C24.6 66.3 24.8 66.1 24.8 65.7V59.8H26.8C27 59.8 27.2 59.7 27.3 59.6V65.9C27.3 67 28.2 67.9 29.3 67.9C30.4 67.9 31.3 67 31.3 65.9V45.1C31.3 42.8 30 41.5 27.8 41.5C26.7 41.5 25.6 41.5 24.6 41.5C27.7 38.6 34.4 32.3 40.1 27C44.2 23.1 47.8 19.8 48.7 19C49.6 19.9 53.4 23.4 57.8 27.5C63.3 32.7 69.8 38.7 72.8 41.5C71.7 41.5 70.7 41.5 69.6 41.5C67.3 41.5 66 42.8 66 45.1V66C66 67.1 66.9 68 68 68C69.1 68 70 67.1 70 66V59.7H72V65.6C72 65.9 72.1 66.2 72.4 66.4C72.3 66.5 72.3 66.7 72.3 66.8C72.3 67.4 72.7 67.8 73.3 67.8H84.8C85.4 67.8 85.8 67.4 85.8 66.8C85.8 66.2 85.4 65.8 84.8 65.8H83.7C83.7 65.7 83.7 65.7 83.7 65.6V59.7H84C84.6 59.7 85 59.3 85 58.7C85 58.1 84.6 57.7 84 57.7H83.6V55.9C83.6 55.3 83.2 54.9 82.6 54.9C82 54.9 81.6 55.3 81.6 55.9V57.7H78.7V55.9C78.7 55.3 78.3 54.9 77.7 54.9C77.1 54.9 76.7 55.3 76.7 55.9V57.7H73.8V55.9C73.8 55.3 73.4 54.9 72.8 54.9C72.2 54.9 71.8 55.3 71.8 55.9V57.7H69.8V45.6C71.4 45.6 72.9 45.6 74.5 45.6C76.5 45.6 77.4 44.6 77.7 43.7C78.3 42.4 77.9 41.2 76.7 40C75.2 38.6 67 30.9 60.3 24.7C56 20.5 52.2 17 51.3 16.1C50.4 15.3 49.5 14.9 48.6 15C47.7 14.9 46.7 15.3 45.9 16.1C45 16.9 41.5 20.2 37.3 24.1C30.5 30.5 22 38.5 20.4 40C19.2 41.1 18.8 42.4 19.4 43.7C19.8 44.6 20.6 45.6 22.6 45.6C24.2 45.6 25.7 45.6 27.3 45.6V57.9C27.1 57.8 27 57.7 26.8 57.7H24.8V55.9C24.8 55.3 24.4 54.9 23.8 54.9C23.2 54.9 22.8 55.3 22.8 55.9V57.7H20V55.9C20 55.3 19.6 54.9 19 54.9C18.4 54.9 18 55.3 18 55.9V57.7H15.1V55.9C15.1 55.3 14.7 54.9 14.1 54.9C13.5 54.9 13.1 55.3 13.1 55.9V57.7H12.7C12.1 57.7 11.7 58.1 11.7 58.7C11.7 59.3 12.1 59.7 12.7 59.7H13.1V65.6C13.1 65.7 13.1 65.7 13.1 65.8H12C11.4 65.8 11 66.2 11 66.8C11 67.4 11.5 67.9 12 67.9ZM81.5 59.7V65.6C81.5 65.7 81.5 65.7 81.5 65.8H78.6C78.6 65.7 78.6 65.7 78.6 65.6V59.7H81.5ZM76.7 59.7V65.6C76.7 65.7 76.7 65.7 76.7 65.8H73.8C73.8 65.7 73.8 65.7 73.8 65.6V59.7H76.7ZM22.8 59.7V65.6C22.8 65.7 22.8 65.7 22.8 65.8H19.9C19.9 65.7 19.9 65.7 19.9 65.6V59.7H22.8ZM15.1 65.7V59.8H18V65.7C18 65.8 18 65.8 18 65.9H15.1C15.1 65.8 15.1 65.8 15.1 65.7Z" fill="#1C3553"/>
<path d="M10.8 80.9999H85.9C86.6 80.9999 87.3 80.4999 87.5 79.8999C87.8 79.1999 87.6 78.3999 87 77.9999L72 64.7999C71.7 64.4999 71.3 64.3999 70.8 64.3999H25.8C25.4 64.3999 25 64.5999 24.6 64.7999L9.6 77.8999C9.1 78.3999 8.9 79.1999 9.1 79.7999C9.4 80.4999 10 80.9999 10.8 80.9999ZM21.8 77.4999L26.4 72.7999H31.2L28.2 77.4999H21.8ZM33.9 72.7999H39.2L37.7 77.4999H30.9L33.9 72.7999ZM41.6 72.7999H47.2V77.4999H40L41.6 72.7999ZM49.5 72.7999H55.1L56.6 77.4999H49.5V72.7999ZM59 77.4999L57.5 72.7999H62.8L65.8 77.4999H59ZM68.5 77.4999L65.5 72.7999H70.3L74.9 77.4999H68.5ZM65.5 67.8999L69.2 71.6999H64.7L62.2 67.8999H65.5ZM59.5 67.8999L62 71.6999H57.1L55.9 67.8999H59.5ZM53.5 67.8999L54.7 71.6999H49.5V67.8999H53.5ZM47.1 71.6999H41.9L43.1 67.8999H47.1V71.6999ZM39.6 71.6999H34.7L37.2 67.8999H40.9L39.6 71.6999ZM31.9 71.6999H27.4L31.1 67.8999H34.3L31.9 71.6999ZM78 77.4999L73.4 72.7999H75.8L81.2 77.4999H78ZM74.6 71.6999H72.4L68.7 67.8999H70.3L74.6 71.6999ZM26.5 67.8999H28L24.3 71.6999H22.1L26.5 67.8999ZM20.8 72.7999H23.2L18.6 77.4999H15.4L20.8 72.7999Z" fill="#2988FF"/>
</svg>
