<svg width="96" height="96" viewBox="0 0 96 96" fill="none" xmlns="http://www.w3.org/2000/svg">
  <path fill-rule="evenodd" clip-rule="evenodd" d="M24.7251 32.3714H71.7751V70.8714H60.1021V47.4461H36.3971V70.8714H24.7251V32.3714ZM28.2251 35.8714V67.3714H32.8971V43.9461H63.6021V67.3714H68.2751V35.8714H28.2251Z" fill="#1895FF"/>
  <path fill-rule="evenodd" clip-rule="evenodd" d="M24.9631 39C24.9631 38.5858 25.2989 38.25 25.7131 38.25H70.7131C71.1273 38.25 71.4631 38.5858 71.4631 39C71.4631 39.4142 71.1273 39.75 70.7131 39.75H25.7131C25.2989 39.75 24.9631 39.4142 24.9631 39Z" fill="#1895FF"/>
  <path fill-rule="evenodd" clip-rule="evenodd" d="M20.7869 24.75C20.7869 23.7835 21.5704 23 22.5369 23H73.9629C74.9294 23 75.7129 23.7835 75.7129 24.75V33.154C75.7129 34.1205 74.9294 34.904 73.9629 34.904H22.5369C21.5704 34.904 20.7869 34.1205 20.7869 33.154V24.75ZM72.2129 26.5H24.2869V31.404H72.2129V26.5Z" fill="#1895FF"/>
  <path d="M43.698 50.5861C43.8761 50.3776 44.1513 50.279 44.4213 50.3267C45.388 50.4977 46.7486 50.9082 47.8 51.923C48.8584 52.9447 49.363 54.3543 49.3847 56.0178C49.6319 56.8375 49.9579 57.2363 50.2163 57.4218C50.472 57.6052 50.732 57.632 50.9695 57.5769C51.5892 57.4324 52.1031 56.7024 51.965 55.873L51.9644 55.8695C51.881 55.3542 51.7855 54.7756 51.595 54.1779C51.4881 53.8425 51.6211 53.4771 51.9186 53.2889C52.216 53.1006 52.6031 53.1368 52.8605 53.377C55.2854 55.6396 55.496 58.6455 54.6879 61.0734L54.4434 61.8077L52.9746 61.3188L53.2191 60.5844C53.5897 59.471 53.6917 58.2579 53.3851 57.0987C53.0829 58.0549 52.3396 58.8475 51.3199 59.0848C50.6954 59.2297 49.969 59.1496 49.3139 58.6795C48.6716 58.2187 48.1774 57.4415 47.8666 56.3413C47.8473 56.2728 47.8375 56.202 47.8375 56.1309C47.8375 54.7257 47.4326 53.72 46.7249 53.0368C46.3137 52.6398 45.8151 52.3612 45.3099 52.1671C45.4303 53.3742 45.1905 54.7909 44.2159 56.2266L43.7811 56.867L42.5004 55.9975L42.9351 55.3572C43.9823 53.8146 43.9082 52.367 43.5547 51.341C43.4654 51.0818 43.5199 50.7946 43.698 50.5861Z" fill="#1C3553"/>
  <path fill-rule="evenodd" clip-rule="evenodd" d="M43.0629 55.0191L43.6547 56.4235C44.6391 58.76 46.8812 60.324 49.3854 60.324C51.0237 60.324 52.5628 59.6663 53.7176 58.5052L54.8888 57.3277L55.0373 58.9818C55.0533 59.1605 55.0614 59.3386 55.0614 59.517C55.0614 63.1357 51.9503 66 48.2244 66C44.4985 66 41.3874 63.1357 41.3874 59.517C41.3874 58.3868 41.698 57.2904 42.278 56.3253L43.0629 55.0191ZM43.0469 58.5104C42.9731 58.8393 42.9354 59.1763 42.9354 59.517C42.9354 62.1943 45.2643 64.452 48.2244 64.452C50.7118 64.452 52.7535 62.8578 53.3421 60.76C52.1645 61.4778 50.806 61.872 49.3854 61.872C46.8024 61.872 44.4741 60.5577 43.0469 58.5104Z" fill="#1C3553"/>
  <path fill-rule="evenodd" clip-rule="evenodd" d="M18 69.25C18 68.2835 18.7835 67.5 19.75 67.5H76.75C77.7165 67.5 78.5 68.2835 78.5 69.25C78.5 70.2165 77.7165 71 76.75 71H19.75C18.7835 71 18 70.2165 18 69.25Z" fill="#1C3553"/>
</svg>
