<svg width="24" height="24" xmlns="http://www.w3.org/2000/svg"><g fill="none" fill-rule="evenodd"><path d="M0 0h24v24H0z"/><circle stroke="#1895FF" stroke-width="2" fill="#1895FF" opacity=".7" cx="12" cy="12" r="8"/><path d="M10.95 14.402c-.35-2.314 2.183-3.218 2.183-4.644 0-.76-.5-1.268-1.35-1.268-.683 0-1.233.317-1.716.824L9 8.38C9.717 7.571 10.7 7 11.917 7 13.717 7 15 7.903 15 9.631c0 2.013-2.6 2.726-2.367 4.771H10.95zm-.383 2.362c0-.714.533-1.237 1.233-1.237.7 0 1.25.523 1.25 1.237 0 .713-.55 1.236-1.25 1.236s-1.233-.523-1.233-1.236z" fill="#FFF"/></g></svg>