<svg width="96" height="96" viewBox="0 0 96 96" fill="none" xmlns="http://www.w3.org/2000/svg">
<path d="M67 52L66 68H53V62H41V56H29V52L20 50.5L48 22L75.5 50.5L67 52Z" fill="#8FC1FF"/>
<path fill-rule="evenodd" clip-rule="evenodd" d="M69 70C69 71.1046 68.1046 72 67 72H55C53.8954 72 53 71.1046 53 70C53 68.8954 53.8954 68 55 68H67C68.1046 68 69 68.8954 69 70Z" fill="#0F1D2E"/>
<path fill-rule="evenodd" clip-rule="evenodd" d="M56.999 64C56.999 62.8954 56.1036 62 54.999 62H42.999C41.8945 62 40.999 62.8954 40.999 64C40.999 65.1046 41.8945 66 42.999 66H52.999V70C52.999 71.1046 53.8945 72 54.999 72C56.1036 72 56.999 71.1046 56.999 70V64Z" fill="#0F1D2E"/>
<path fill-rule="evenodd" clip-rule="evenodd" d="M45.0015 58C45.0015 56.8954 44.106 56 43.0015 56H29.0015C27.8969 56 27.0015 56.8954 27.0015 58C27.0015 59.1046 27.8969 60 29.0015 60H41.0015V64C41.0015 65.1046 41.8969 66 43.0015 66C44.106 66 45.0015 65.1046 45.0015 64V58Z" fill="#0F1D2E"/>
<path fill-rule="evenodd" clip-rule="evenodd" d="M43.6886 22.5792C46.0467 20.1426 49.9538 20.1426 52.3119 22.5792L76.156 47.2181C78.6123 49.7563 76.8137 53.9998 73.2816 53.9998H68.9997V69.9997C68.9997 71.1043 68.1042 71.9997 66.9997 71.9997C65.8951 71.9997 64.9997 71.1043 64.9997 69.9997V52.9998C64.9997 51.343 66.3428 49.9998 67.9997 49.9998L73.2816 49.9998L49.4375 25.3609C48.6515 24.5487 47.3491 24.5487 46.563 25.3609L22.7189 49.9998H27.9997C29.6565 49.9998 30.9997 51.343 30.9997 52.9998V57.9997C30.9997 59.1043 30.1043 59.9997 28.9997 59.9997C27.8951 59.9997 26.9997 59.1043 26.9997 57.9997V53.9998H22.7189C19.1868 53.9998 17.3882 49.7563 19.8445 47.2181L43.6886 22.5792Z" fill="#0F1D2E"/>
<path d="M44 43.9998C44 42.8952 44.8954 41.9998 46 41.9998H50C51.1046 41.9998 52 42.8952 52 43.9998V47.9998C52 49.1044 51.1046 49.9998 50 49.9998H46C44.8954 49.9998 44 49.1044 44 47.9998V43.9998Z" fill="#0F1D2E"/>
</svg>
