<svg width="96" height="96" viewBox="0 0 96 96" fill="none" xmlns="http://www.w3.org/2000/svg">
<path d="M16 53.9999C16 51.7907 17.7909 49.9999 20 49.9999H38V55.9998C38 58.2089 39.7909 59.9998 42 59.9998H54C56.2091 59.9998 58 58.2089 58 55.9998V49.9999H76C78.2091 49.9999 80 51.7907 80 53.9999V71.9999C80 74.209 78.2091 75.9999 76 75.9999H20C17.7909 75.9999 16 74.209 16 71.9999V53.9999Z" fill="#8FC1FF"/>
<path fill-rule="evenodd" clip-rule="evenodd" d="M36 25.9998C36 23.7906 37.7909 21.9998 40 21.9998H56C58.2091 21.9998 60 23.7906 60 25.9998V57.9998C60 60.2089 58.2091 61.9998 56 61.9998H40C37.7909 61.9998 36 60.2089 36 57.9998V25.9998ZM56 25.9998L40 25.9998V57.9998H56V25.9998Z" fill="#0F1D2E"/>
<path fill-rule="evenodd" clip-rule="evenodd" d="M20 51.9999C18.8954 51.9999 18 52.8953 18 53.9999V71.9999C18 73.1044 18.8954 73.9999 20 73.9999H76C77.1046 73.9999 78 73.1044 78 71.9999V53.9999C78 52.8953 77.1046 51.9999 76 51.9999H66C64.8954 51.9999 64 51.1044 64 49.9999C64 48.8953 64.8954 47.9999 66 47.9999H76C79.3137 47.9999 82 50.6862 82 53.9999V71.9999C82 75.3136 79.3137 77.9999 76 77.9999H20C16.6863 77.9999 14 75.3136 14 71.9999V53.9999C14 50.6862 16.6863 47.9999 20 47.9999H30C31.1046 47.9999 32 48.8953 32 49.9999C32 51.1044 31.1046 51.9999 30 51.9999H20Z" fill="#0F1D2E"/>
<path fill-rule="evenodd" clip-rule="evenodd" d="M42 41.9998C42 40.8952 42.8954 39.9998 44 39.9998H45C46.1046 39.9998 47 40.8952 47 41.9998C47 43.1043 46.1046 43.9998 45 43.9998H44C42.8954 43.9998 42 43.1043 42 41.9998Z" fill="#0F1D2E"/>
</svg>
