<svg width="96" height="96" viewBox="0 0 96 96" fill="none" xmlns="http://www.w3.org/2000/svg">
<path d="M75.9999 75.9999H20C17.7908 75.9999 16 74.2091 16 71.9999V46.7643C16 45.6403 16.4729 44.5682 17.3029 43.8103L35.6514 27.0573C36.9352 25.8852 39 26.796 39 28.5343V42.7328C39 43.6019 40.0323 44.0573 40.6742 43.4713L58.6514 27.0573C59.9351 25.8852 61.9999 26.796 61.9999 28.5343V44.9999H75.9999C78.209 44.9999 79.9999 46.7908 79.9999 48.9999V71.9999C79.9999 74.2091 78.209 75.9999 75.9999 75.9999Z" fill="#8FC1FF"/>
<path fill-rule="evenodd" clip-rule="evenodd" d="M34.3029 25.5804C36.8703 23.2362 40.9999 25.0577 40.9999 28.5343V40.4657L57.3028 25.5804C59.8703 23.2362 63.9999 25.0577 63.9999 28.5343V43H75.9999C79.3136 43 81.9999 45.6863 81.9999 49V71.9999C81.9999 75.3137 79.3136 77.9999 75.9999 77.9999H20C16.6863 77.9999 14 75.3137 14 71.9999V46.7643C14 45.0783 14.7093 43.4702 15.9544 42.3334L34.3029 25.5804ZM37 28.5343L18.6514 45.2873C18.2364 45.6663 18 46.2023 18 46.7643V71.9999C18 73.1045 18.8954 73.9999 20 73.9999H75.9999C77.1045 73.9999 77.9999 73.1045 77.9999 71.9999V49C77.9999 47.8954 77.1045 47 75.9999 47H61.9999C60.8954 47 59.9999 46.1045 59.9999 45V28.5343L42.0228 44.9483C40.0971 46.7064 37 45.3403 37 42.7328V28.5343Z" fill="#0F1D2E"/>
<path d="M24 57.9999C24 56.8954 24.8954 55.9999 26 55.9999H30C31.1045 55.9999 32 56.8954 32 57.9999V61.9999C32 63.1045 31.1045 63.9999 30 63.9999H26C24.8954 63.9999 24 63.1045 24 61.9999V57.9999Z" fill="#0F1D2E"/>
<path d="M36 57.9999C36 56.8954 36.8954 55.9999 38 55.9999H41.9999C43.1045 55.9999 43.9999 56.8954 43.9999 57.9999V61.9999C43.9999 63.1045 43.1045 63.9999 41.9999 63.9999H38C36.8954 63.9999 36 63.1045 36 61.9999V57.9999Z" fill="#0F1D2E"/>
<path d="M47.9999 57.9999C47.9999 56.8954 48.8954 55.9999 49.9999 55.9999H53.9999C55.1045 55.9999 55.9999 56.8954 55.9999 57.9999V61.9999C55.9999 63.1045 55.1045 63.9999 53.9999 63.9999H49.9999C48.8954 63.9999 47.9999 63.1045 47.9999 61.9999V57.9999Z" fill="#0F1D2E"/>
<path d="M63.9999 61.9999C63.9999 60.8954 64.8953 59.9999 65.9999 59.9999H69.9999C71.1045 59.9999 71.9999 60.8954 71.9999 61.9999V73.9999C71.9999 75.1045 71.1045 75.9999 69.9999 75.9999H65.9999C64.8953 75.9999 63.9999 75.1045 63.9999 73.9999V61.9999Z" fill="#0F1D2E"/>
</svg>
