<svg width="96" height="96" viewBox="0 0 96 96" fill="none" xmlns="http://www.w3.org/2000/svg">
<path d="M29 20H67V44H29V20Z" fill="#8FC1FF"/>
<path fill-rule="evenodd" clip-rule="evenodd" d="M23 48C23 45.7909 24.7909 44 27 44H69C71.2091 44 73 45.7909 73 48V74C73 76.2091 71.2091 78 69 78H27C24.7909 78 23 76.2091 23 74V48ZM69 48H27V74H69V48Z" fill="#0F1D2E"/>
<path fill-rule="evenodd" clip-rule="evenodd" d="M27 22C27 19.7909 28.7909 18 31 18H65C67.2091 18 69 19.7909 69 22V44C69 46.2091 67.2091 48 65 48H31C28.7909 48 27 46.2091 27 44V22ZM65 22H31V44H65V22Z" fill="#0F1D2E"/>
<path fill-rule="evenodd" clip-rule="evenodd" d="M23 38C23 36.8954 23.8954 36 25 36H71C72.1046 36 73 36.8954 73 38C73 39.1046 72.1046 40 71 40H25C23.8954 40 23 39.1046 23 38Z" fill="#0F1D2E"/>
<path d="M36 58C36 56.8954 36.8954 56 38 56H42C43.1046 56 44 56.8954 44 58V62C44 63.1046 43.1046 64 42 64H38C36.8954 64 36 63.1046 36 62V58Z" fill="#0F1D2E"/>
<path d="M35 28C35 26.8954 35.8954 26 37 26H39C40.1046 26 41 26.8954 41 28V30C41 31.1046 40.1046 32 39 32H37C35.8954 32 35 31.1046 35 30V28Z" fill="#0F1D2E"/>
<path d="M45 28C45 26.8954 45.8954 26 47 26H49C50.1046 26 51 26.8954 51 28V30C51 31.1046 50.1046 32 49 32H47C45.8954 32 45 31.1046 45 30V28Z" fill="#0F1D2E"/>
<path d="M45 28C45 26.8954 45.8954 26 47 26H49C50.1046 26 51 26.8954 51 28V30C51 31.1046 50.1046 32 49 32H47C45.8954 32 45 31.1046 45 30V28Z" fill="#0F1D2E"/>
<path d="M55 28C55 26.8954 55.8954 26 57 26H59C60.1046 26 61 26.8954 61 28V30C61 31.1046 60.1046 32 59 32H57C55.8954 32 55 31.1046 55 30V28Z" fill="#0F1D2E"/>
<path d="M52 62C52 60.8954 52.8954 60 54 60H58C59.1046 60 60 60.8954 60 62V74C60 75.1046 59.1046 76 58 76H54C52.8954 76 52 75.1046 52 74V62Z" fill="#0F1D2E"/>
<path fill-rule="evenodd" clip-rule="evenodd" d="M38 36C39.1046 36 40 36.8954 40 38V46C40 47.1046 39.1046 48 38 48C36.8954 48 36 47.1046 36 46V38C36 36.8954 36.8954 36 38 36Z" fill="#0F1D2E"/>
<path fill-rule="evenodd" clip-rule="evenodd" d="M48 36C49.1046 36 50 36.8954 50 38V46C50 47.1046 49.1046 48 48 48C46.8954 48 46 47.1046 46 46V38C46 36.8954 46.8954 36 48 36Z" fill="#0F1D2E"/>
<path fill-rule="evenodd" clip-rule="evenodd" d="M58 37C59.1046 37 60 37.8954 60 39V46C60 47.1046 59.1046 48 58 48C56.8954 48 56 47.1046 56 46V39C56 37.8954 56.8954 37 58 37Z" fill="#0F1D2E"/>
</svg>
