<svg width="96" height="96" viewBox="0 0 96 96" fill="none" xmlns="http://www.w3.org/2000/svg">
<path d="M28 44H68V76H28V44Z" fill="#8FC1FF"/>
<path fill-rule="evenodd" clip-rule="evenodd" d="M26 29.9999C26 27.7907 27.7909 25.9999 30 25.9999H66C68.2091 25.9999 70 27.7907 70 29.9999V73.9999C70 76.209 68.2091 77.9999 66 77.9999H30C27.7909 77.9999 26 76.209 26 73.9999V29.9999ZM66 29.9999L30 29.9999V73.9999H66V29.9999Z" fill="#0F1D2E"/>
<path fill-rule="evenodd" clip-rule="evenodd" d="M26 20C26 18.8954 26.8954 18 28 18L68 18C69.1046 18 70 18.8954 70 20C70 21.1046 69.1046 22 68 22L28 22C26.8954 22 26 21.1046 26 20Z" fill="#0F1D2E"/>
<path fill-rule="evenodd" clip-rule="evenodd" d="M52 14C53.1046 14 54 14.8954 54 16V20C54 21.1046 53.1046 22 52 22C50.8954 22 50 21.1046 50 20V16C50 14.8954 50.8954 14 52 14Z" fill="#0F1D2E"/>
<path fill-rule="evenodd" clip-rule="evenodd" d="M60 14C61.1046 14 62 14.8954 62 16V20C62 21.1046 61.1046 22 60 22C58.8954 22 58 21.1046 58 20V16C58 14.8954 58.8954 14 60 14Z" fill="#0F1D2E"/>
<path d="M34 50C34 48.8954 34.8954 48 36 48H38C39.1046 48 40 48.8954 40 50V52C40 53.1046 39.1046 54 38 54H36C34.8954 54 34 53.1046 34 52V50Z" fill="#0F1D2E"/>
<path d="M56 50C56 48.8954 56.8954 48 58 48H60C61.1046 48 62 48.8954 62 50V52C62 53.1046 61.1046 54 60 54H58C56.8954 54 56 53.1046 56 52V50Z" fill="#0F1D2E"/>
<path d="M34 36C34 34.8954 34.8954 34 36 34H38C39.1046 34 40 34.8954 40 36V38C40 39.1046 39.1046 40 38 40H36C34.8954 40 34 39.1046 34 38V36Z" fill="#0F1D2E"/>
<path d="M56 36C56 34.8954 56.8954 34 58 34H60C61.1046 34 62 34.8954 62 36V38C62 39.1046 61.1046 40 60 40H58C56.8954 40 56 39.1046 56 38V36Z" fill="#0F1D2E"/>
<path d="M44 50C44 48.8954 44.8954 48 46 48H50C51.1046 48 52 48.8954 52 50V62C52 63.1046 51.1046 64 50 64H46C44.8954 64 44 63.1046 44 62V50Z" fill="#0F1D2E"/>
<path fill-rule="evenodd" clip-rule="evenodd" d="M58 59C59.1046 59 60 59.8954 60 61V75C60 76.1046 59.1046 77 58 77C56.8954 77 56 76.1046 56 75V61C56 59.8954 56.8954 59 58 59Z" fill="#0F1D2E"/>
<path fill-rule="evenodd" clip-rule="evenodd" d="M38 59C39.1046 59 40 59.8954 40 61L40 75C40 76.1046 39.1046 77 38 77C36.8954 77 36 76.1046 36 75L36 61C36 59.8954 36.8954 59 38 59Z" fill="#0F1D2E"/>
<path fill-rule="evenodd" clip-rule="evenodd" d="M36 70C36 68.8954 36.8954 68 38 68H58C59.1046 68 60 68.8954 60 70C60 71.1046 59.1046 72 58 72H38C36.8954 72 36 71.1046 36 70Z" fill="#0F1D2E"/>
<path fill-rule="evenodd" clip-rule="evenodd" d="M36 64C36 62.8954 36.8954 62 38 62L58 62C59.1046 62 60 62.8954 60 64C60 65.1046 59.1046 66 58 66H38C36.8954 66 36 65.1046 36 64Z" fill="#0F1D2E"/>
</svg>
