<svg width="96" height="96" viewBox="0 0 96 96" fill="none" xmlns="http://www.w3.org/2000/svg">
<path d="M28 28H68V58H50C48.8954 58 48 57.1046 48 56V46C48 44.8954 47.1046 44 46 44H28V28Z" fill="#8FC1FF"/>
<path fill-rule="evenodd" clip-rule="evenodd" d="M26 29.9999C26 27.7907 27.7909 25.9999 30 25.9999H66C68.2091 25.9999 70 27.7907 70 29.9999V73.9999C70 76.209 68.2091 77.9999 66 77.9999H30C27.7909 77.9999 26 76.209 26 73.9999V29.9999ZM66 29.9999L30 29.9999V73.9999H66V29.9999Z" fill="#0F1D2E"/>
<path fill-rule="evenodd" clip-rule="evenodd" d="M26 20C26 18.8954 26.8954 18 28 18L68 18C69.1046 18 70 18.8954 70 20C70 21.1046 69.1046 22 68 22L28 22C26.8954 22 26 21.1046 26 20Z" fill="#0F1D2E"/>
<path fill-rule="evenodd" clip-rule="evenodd" d="M52 14C53.1046 14 54 14.8954 54 16V20C54 21.1046 53.1046 22 52 22C50.8954 22 50 21.1046 50 20V16C50 14.8954 50.8954 14 52 14Z" fill="#0F1D2E"/>
<path fill-rule="evenodd" clip-rule="evenodd" d="M60 14C61.1046 14 62 14.8954 62 16V20C62 21.1046 61.1046 22 60 22C58.8954 22 58 21.1046 58 20V16C58 14.8954 58.8954 14 60 14Z" fill="#0F1D2E"/>
<path d="M34 64C34 62.8954 34.8954 62 36 62H38C39.1046 62 40 62.8954 40 64V66C40 67.1046 39.1046 68 38 68H36C34.8954 68 34 67.1046 34 66V64Z" fill="#0F1D2E"/>
<path d="M56 64C56 62.8954 56.8954 62 58 62H60C61.1046 62 62 62.8954 62 64V66C62 67.1046 61.1046 68 60 68H58C56.8954 68 56 67.1046 56 66V64Z" fill="#0F1D2E"/>
<path d="M34 50C34 48.8954 34.8954 48 36 48H38C39.1046 48 40 48.8954 40 50V52C40 53.1046 39.1046 54 38 54H36C34.8954 54 34 53.1046 34 52V50Z" fill="#0F1D2E"/>
<path d="M56 50C56 48.8954 56.8954 48 58 48H60C61.1046 48 62 48.8954 62 50V52C62 53.1046 61.1046 54 60 54H58C56.8954 54 56 53.1046 56 52V50Z" fill="#0F1D2E"/>
<path d="M34 36C34 34.8954 34.8954 34 36 34H38C39.1046 34 40 34.8954 40 36V38C40 39.1046 39.1046 40 38 40H36C34.8954 40 34 39.1046 34 38V36Z" fill="#0F1D2E"/>
<path d="M56 36C56 34.8954 56.8954 34 58 34H60C61.1046 34 62 34.8954 62 36V38C62 39.1046 61.1046 40 60 40H58C56.8954 40 56 39.1046 56 38V36Z" fill="#0F1D2E"/>
<path d="M44 64C44 62.8954 44.8954 62 46 62H50C51.1046 62 52 62.8954 52 64V74C52 75.1046 51.1046 76 50 76H46C44.8954 76 44 75.1046 44 74V64Z" fill="#0F1D2E"/>
</svg>
