<svg width="96" height="96" viewBox="0 0 96 96" fill="none" xmlns="http://www.w3.org/2000/svg">
<path d="M28 44C28 43.4477 28.4477 43 29 43H67C67.5523 43 68 43.4477 68 44V77C68 77.5523 67.5523 78 67 78H29C28.4477 78 28 77.5523 28 77V44Z" fill="#8FC1FF"/>
<path fill-rule="evenodd" clip-rule="evenodd" d="M26 29C26 26.7909 27.7909 25 30 25H66C68.2091 25 70 26.7909 70 29V57C70 59.2091 68.2091 61 66 61H30C27.7909 61 26 59.2091 26 57V29ZM66 29H30V57H66V29Z" fill="#0F1D2E"/>
<path d="M34 35C34 33.8954 34.8954 33 36 33H38C39.1046 33 40 33.8954 40 35V37C40 38.1046 39.1046 39 38 39H36C34.8954 39 34 38.1046 34 37V35Z" fill="#0F1D2E"/>
<path d="M56 35C56 33.8954 56.8954 33 58 33H60C61.1046 33 62 33.8954 62 35V37C62 38.1046 61.1046 39 60 39H58C56.8954 39 56 38.1046 56 37V35Z" fill="#0F1D2E"/>
<path fill-rule="evenodd" clip-rule="evenodd" d="M23 59C23 57.8954 23.8954 57 25 57L71 57C72.1046 57 73 57.8954 73 59C73 60.1046 72.1046 61 71 61L25 61C23.8954 61 23 60.1046 23 59Z" fill="#0F1D2E"/>
<path d="M56 49C56 47.8954 56.8954 47 58 47H60C61.1046 47 62 47.8954 62 49V51C62 52.1046 61.1046 53 60 53H58C56.8954 53 56 52.1046 56 51V49Z" fill="#0F1D2E"/>
<path d="M34 49C34 47.8954 34.8954 47 36 47H38C39.1046 47 40 47.8954 40 49V51C40 52.1046 39.1046 53 38 53H36C34.8954 53 34 52.1046 34 51V49Z" fill="#0F1D2E"/>
<path d="M44 49C44 47.8954 44.8954 47 46 47H50C51.1046 47 52 47.8954 52 49V57C52 58.1046 51.1046 59 50 59H46C44.8954 59 44 58.1046 44 57V49Z" fill="#0F1D2E"/>
<path fill-rule="evenodd" clip-rule="evenodd" d="M26 20C26 18.8954 26.8954 18 28 18L68 18C69.1046 18 70 18.8954 70 20C70 21.1046 69.1046 22 68 22L28 22C26.8954 22 26 21.1046 26 20Z" fill="#0F1D2E"/>
<path fill-rule="evenodd" clip-rule="evenodd" d="M52 14C53.1046 14 54 14.8954 54 16V20C54 21.1046 53.1046 22 52 22C50.8954 22 50 21.1046 50 20V16C50 14.8954 50.8954 14 52 14Z" fill="#0F1D2E"/>
<path fill-rule="evenodd" clip-rule="evenodd" d="M60 14C61.1046 14 62 14.8954 62 16V20C62 21.1046 61.1046 22 60 22C58.8954 22 58 21.1046 58 20V16C58 14.8954 58.8954 14 60 14Z" fill="#0F1D2E"/>
</svg>
