<svg width="96" height="96" viewBox="0 0 96 96" fill="none" xmlns="http://www.w3.org/2000/svg">
<path d="M28 29H68V76H60V64H48V76H28V29Z" fill="#8FC1FF"/>
<path fill-rule="evenodd" clip-rule="evenodd" d="M26 29.9999C26 27.7907 27.7909 25.9999 30 25.9999H66C68.2091 25.9999 70 27.7907 70 29.9999V73.9999C70 76.209 68.2091 77.9999 66 77.9999H30C27.7909 77.9999 26 76.209 26 73.9999V29.9999ZM66 29.9999L30 29.9999V73.9999H66V29.9999Z" fill="#0F1D2E"/>
<path fill-rule="evenodd" clip-rule="evenodd" d="M46 66C46 63.7909 47.7909 62 50 62H58C60.2091 62 62 63.7909 62 66V74C62 76.2091 60.2091 78 58 78H50C47.7909 78 46 76.2091 46 74V66ZM58 66H50V74H58V66Z" fill="#0F1D2E"/>
<path fill-rule="evenodd" clip-rule="evenodd" d="M26 20C26 18.8954 26.8954 18 28 18L68 18C69.1046 18 70 18.8954 70 20C70 21.1046 69.1046 22 68 22L28 22C26.8954 22 26 21.1046 26 20Z" fill="#0F1D2E"/>
<path fill-rule="evenodd" clip-rule="evenodd" d="M26 56C26 54.8954 26.8954 54 28 54L68 54C69.1046 54 70 54.8954 70 56C70 57.1046 69.1046 58 68 58L28 58C26.8954 58 26 57.1046 26 56Z" fill="#0F1D2E"/>
<path fill-rule="evenodd" clip-rule="evenodd" d="M52 14C53.1046 14 54 14.8954 54 16V20C54 21.1046 53.1046 22 52 22C50.8954 22 50 21.1046 50 20V16C50 14.8954 50.8954 14 52 14Z" fill="#0F1D2E"/>
<path fill-rule="evenodd" clip-rule="evenodd" d="M60 14C61.1046 14 62 14.8954 62 16V20C62 21.1046 61.1046 22 60 22C58.8954 22 58 21.1046 58 20V16C58 14.8954 58.8954 14 60 14Z" fill="#0F1D2E"/>
<path d="M34 46C34 44.8954 34.8954 44 36 44H38C39.1046 44 40 44.8954 40 46V48C40 49.1046 39.1046 50 38 50H36C34.8954 50 34 49.1046 34 48V46Z" fill="#0F1D2E"/>
<path d="M56 46C56 44.8954 56.8954 44 58 44H60C61.1046 44 62 44.8954 62 46V48C62 49.1046 61.1046 50 60 50H58C56.8954 50 56 49.1046 56 48V46Z" fill="#0F1D2E"/>
<path d="M34 36C34 34.8954 34.8954 34 36 34H38C39.1046 34 40 34.8954 40 36V38C40 39.1046 39.1046 40 38 40H36C34.8954 40 34 39.1046 34 38V36Z" fill="#0F1D2E"/>
<path d="M56 36C56 34.8954 56.8954 34 58 34H60C61.1046 34 62 34.8954 62 36V38C62 39.1046 61.1046 40 60 40H58C56.8954 40 56 39.1046 56 38V36Z" fill="#0F1D2E"/>
<path d="M34 64C34 62.8954 34.8954 62 36 62H40C41.1046 62 42 62.8954 42 64V74C42 75.1046 41.1046 76 40 76H36C34.8954 76 34 75.1046 34 74V64Z" fill="#0F1D2E"/>
</svg>
