<svg width="96" height="96" viewBox="0 0 96 96" fill="none" xmlns="http://www.w3.org/2000/svg">
<path d="M28 58H60V75.9999H28V58Z" fill="#8FC1FF"/>
<path d="M34 64C34 62.8954 34.8954 62 36 62H38C39.1046 62 40 62.8954 40 64V66C40 67.1046 39.1046 68 38 68H36C34.8954 68 34 67.1046 34 66V64Z" fill="#0F1D2E"/>
<path d="M34 50C34 48.8954 34.8954 48 36 48H38C39.1046 48 40 48.8954 40 50V52C40 53.1046 39.1046 54 38 54H36C34.8954 54 34 53.1046 34 52V50Z" fill="#0F1D2E"/>
<path d="M34 36C34 34.8954 34.8954 34 36 34H38C39.1046 34 40 34.8954 40 36V38C40 39.1046 39.1046 40 38 40H36C34.8954 40 34 39.1046 34 38V36Z" fill="#0F1D2E"/>
<path d="M48 50C48 48.8954 48.8954 48 50 48H52C53.1046 48 54 48.8954 54 50V52C54 53.1046 53.1046 54 52 54H50C48.8954 54 48 53.1046 48 52V50Z" fill="#0F1D2E"/>
<path d="M48 36C48 34.8954 48.8954 34 50 34H52C53.1046 34 54 34.8954 54 36V38C54 39.1046 53.1046 40 52 40H50C48.8954 40 48 39.1046 48 38V36Z" fill="#0F1D2E"/>
<path d="M46 64C46 62.8954 46.8954 62 48 62H52C53.1046 62 54 62.8954 54 64V74C54 75.1046 53.1046 76 52 76H48C46.8954 76 46 75.1046 46 74V64Z" fill="#0F1D2E"/>
<path fill-rule="evenodd" clip-rule="evenodd" d="M68 62C69.1046 62 70 62.8954 70 64V76C70 77.1046 69.1046 78 68 78C66.8954 78 66 77.1046 66 76V64C66 62.8954 66.8954 62 68 62Z" fill="#0F1D2E"/>
<path fill-rule="evenodd" clip-rule="evenodd" d="M76 62C77.1046 62 78 62.8954 78 64V76C78 77.1046 77.1046 78 76 78C74.8954 78 74 77.1046 74 76V64C74 62.8954 74.8954 62 76 62Z" fill="#0F1D2E"/>
<path fill-rule="evenodd" clip-rule="evenodd" d="M58 68C58 66.8954 58.8954 66 60 66H80C81.1046 66 82 66.8954 82 68C82 69.1046 81.1046 70 80 70H60C58.8954 70 58 69.1046 58 68Z" fill="#0F1D2E"/>
<path fill-rule="evenodd" clip-rule="evenodd" d="M26 29.9999C26 27.7907 27.7909 25.9999 30 25.9999H58C60.2091 25.9999 62 27.7907 62 29.9999V73.9999C62 76.209 60.2091 77.9999 58 77.9999H30C27.7909 77.9999 26 76.209 26 73.9999V29.9999ZM58 29.9999L30 29.9999V73.9999H58V29.9999Z" fill="#0F1D2E"/>
<path fill-rule="evenodd" clip-rule="evenodd" d="M26 20C26 18.8954 26.8954 18 28 18L60 18C61.1046 18 62 18.8954 62 20C62 21.1046 61.1046 22 60 22L28 22C26.8954 22 26 21.1046 26 20Z" fill="#0F1D2E"/>
<path fill-rule="evenodd" clip-rule="evenodd" d="M44 14C45.1046 14 46 14.8954 46 16V20C46 21.1046 45.1046 22 44 22C42.8954 22 42 21.1046 42 20V16C42 14.8954 42.8954 14 44 14Z" fill="#0F1D2E"/>
<path fill-rule="evenodd" clip-rule="evenodd" d="M52 14C53.1046 14 54 14.8954 54 16V20C54 21.1046 53.1046 22 52 22C50.8954 22 50 21.1046 50 20V16C50 14.8954 50.8954 14 52 14Z" fill="#0F1D2E"/>
</svg>
