<svg width="96" height="96" viewBox="0 0 96 96" fill="none" xmlns="http://www.w3.org/2000/svg">
<path d="M81.7486 47.5583L50.1645 79.1424C48.7326 80.5743 46.411 80.5743 44.9791 79.1424L42.6775 76.8408C41.0848 75.2481 41.0848 72.6658 42.6775 71.0731C47.0033 66.7472 8.11806 47.6498 28.8265 26.9413C49.535 6.2328 69.3535 44.3971 73.6793 40.0713C75.272 38.4786 77.8543 38.4786 79.4471 40.0713L81.7486 42.3728C83.1805 43.8048 83.1805 46.1264 81.7486 47.5583Z" fill="#8FC1FF"/>
<path fill-rule="evenodd" clip-rule="evenodd" d="M67.172 27.0157C66.391 26.2346 66.391 24.9683 67.172 24.1872L70.6623 20.6969C71.4434 19.9159 72.7097 19.9159 73.4908 20.6969C74.2718 21.478 74.2718 22.7443 73.4908 23.5253L70.0005 27.0157C69.2194 27.7967 67.9531 27.7967 67.172 27.0157Z" fill="#0F1D2E"/>
<path fill-rule="evenodd" clip-rule="evenodd" d="M61.2763 23.5752C60.2106 23.2846 59.5824 22.1851 59.873 21.1194L61.227 16.1547C61.5176 15.0891 62.6171 14.4608 63.6828 14.7514C64.7484 15.042 65.3767 16.1415 65.0861 17.2072L63.732 22.1719C63.4414 23.2375 62.3419 23.8658 61.2763 23.5752Z" fill="#0F1D2E"/>
<path fill-rule="evenodd" clip-rule="evenodd" d="M29.2599 64.9281C28.4789 64.147 27.2125 64.147 26.4315 64.9281L22.9412 68.4184C22.1601 69.1994 22.1601 70.4658 22.9412 71.2468C23.7222 72.0279 24.9886 72.0279 25.7696 71.2468L29.2599 67.7565C30.041 66.9754 30.041 65.7091 29.2599 64.9281Z" fill="#0F1D2E"/>
<path fill-rule="evenodd" clip-rule="evenodd" d="M25.819 59.0318C25.5284 57.9662 24.4289 57.3379 23.3633 57.6285L18.3985 58.9826C17.3329 59.2732 16.7046 60.3727 16.9952 61.4383C17.2859 62.504 18.3854 63.1322 19.451 62.8416L24.4157 61.4876C25.4814 61.197 26.1097 60.0975 25.819 59.0318Z" fill="#0F1D2E"/>
<path fill-rule="evenodd" clip-rule="evenodd" d="M20.8812 42.2413C20.1167 36.7639 21.8563 31.0823 27.4116 25.527C32.9672 19.9715 38.6821 18.1966 44.2076 18.8798C49.5896 19.5453 54.4949 22.5092 58.6386 25.7958C61.7417 28.2571 64.5856 31.0446 66.9477 33.3598C67.7323 34.1289 68.4637 34.8458 69.1339 35.4814C70.5383 36.8134 71.5993 37.7184 72.3767 38.1781C72.4781 38.2381 72.5631 38.2833 72.6328 38.3173C75.021 36.2892 78.606 36.4024 80.8606 38.657L83.1622 40.9586C85.3751 43.1715 85.3751 46.7595 83.1622 48.9725L51.5781 80.5566C49.3651 82.7695 45.7772 82.7695 43.5642 80.5566L41.2626 78.255C39.0165 76.0088 38.8957 72.4421 40.9004 70.0539C40.8683 69.9941 40.8279 69.9237 40.7771 69.8421C40.3038 69.083 39.3758 68.0478 38.009 66.6765C37.3573 66.0228 36.6225 65.3095 35.8342 64.5443C33.4608 62.2403 30.6028 59.4661 28.072 56.4316C24.6945 52.3822 21.6244 47.5664 20.8812 42.2413ZM44.9946 69.8731C45.0967 70.8003 44.8306 71.7477 44.091 72.4872C43.2794 73.2989 43.2794 74.6149 44.091 75.4266L46.3926 77.7281C47.0435 78.379 48.0988 78.379 48.7496 77.7281L80.3337 46.144C80.9846 45.4932 80.9846 44.4379 80.3337 43.787L78.0322 41.4854C77.2205 40.6738 75.9045 40.6738 75.0928 41.4854C74.3559 42.2223 73.4158 42.4871 72.5004 42.4002C71.6885 42.323 70.9466 41.9794 70.3408 41.6212C69.1255 40.9027 67.7666 39.6976 66.3812 38.3836C65.6288 37.67 64.8429 36.8998 64.0224 36.0957C61.689 33.809 59.0752 31.2476 56.1529 28.9297C52.2127 25.8045 48.0102 23.3805 43.7167 22.8496C39.5668 22.3365 35.0388 23.5567 30.2401 28.3554C25.4411 33.1544 24.2758 37.6257 24.8428 41.6884C25.4311 45.9036 27.9292 50.0154 31.1438 53.8696C33.5264 56.7263 36.1518 59.2754 38.4959 61.5513C39.3203 62.3517 40.1099 63.1183 40.8419 63.8526C42.1887 65.2037 43.4271 66.5319 44.1715 67.7261C44.542 68.3203 44.9048 69.0574 44.9946 69.8731Z" fill="#0F1D2E"/>
<path fill-rule="evenodd" clip-rule="evenodd" d="M79.3914 58.4006C78.1146 59.6775 75.2807 59.9468 72.3203 56.9864C71.5393 56.2054 70.273 56.2054 69.4919 56.9864C68.7109 57.7675 68.7109 59.0338 69.4919 59.8149C73.278 63.6009 78.7345 64.7144 82.2198 61.2291C85.7052 57.7437 84.5917 52.2872 80.8056 48.5011C80.0246 47.7201 78.7583 47.7201 77.9772 48.5011C77.1962 49.2822 77.1962 50.5485 77.9772 51.3296C80.9376 54.29 80.6683 57.1238 79.3914 58.4006Z" fill="#0F1D2E"/>
<path fill-rule="evenodd" clip-rule="evenodd" d="M25.6508 23.0453C24.2854 24.4107 24.1929 27.2443 26.3579 29.4093C27.139 30.1903 27.139 31.4566 26.3579 32.2377C25.5769 33.0187 24.3105 33.0187 23.5295 32.2377C20.2271 28.9353 19.5015 23.5377 22.8224 20.2169C26.1432 16.896 31.5409 17.6216 34.8432 20.924C35.6242 21.705 35.6242 22.9713 34.8432 23.7524C34.0621 24.5334 32.7958 24.5334 32.0148 23.7524C29.8498 21.5874 27.0162 21.6799 25.6508 23.0453Z" fill="#0F1D2E"/>
</svg>
