<svg width="96" height="96" viewBox="0 0 96 96" fill="none" xmlns="http://www.w3.org/2000/svg">
<path d="M18 52C18 50.8954 18.8954 50 20 50H76C77.1046 50 78 50.8954 78 52V74C78 75.1046 77.1046 76 76 76H20C18.8954 76 18 75.1046 18 74V52Z" fill="#8FC1FF"/>
<path fill-rule="evenodd" clip-rule="evenodd" d="M18 48C19.1046 48 20 48.8954 20 50V76C20 77.1046 19.1046 78 18 78C16.8954 78 16 77.1046 16 76V50C16 48.8954 16.8954 48 18 48Z" fill="#0F1D2E"/>
<path fill-rule="evenodd" clip-rule="evenodd" d="M30 48C31.1046 48 32 48.8954 32 50V76C32 77.1046 31.1046 78 30 78C28.8954 78 28 77.1046 28 76V50C28 48.8954 28.8954 48 30 48Z" fill="#0F1D2E"/>
<path fill-rule="evenodd" clip-rule="evenodd" d="M38 20C39.1046 20 40 20.8954 40 22V42C40 43.1046 39.1046 44 38 44C36.8954 44 36 43.1046 36 42V22C36 20.8954 36.8954 20 38 20Z" fill="#0F1D2E"/>
<path fill-rule="evenodd" clip-rule="evenodd" d="M22 34C22 32.8954 22.8954 32 24 32L52 32C53.1046 32 54 32.8954 54 34C54 35.1046 53.1046 36 52 36L24 36C22.8954 36 22 35.1046 22 34Z" fill="#0F1D2E"/>
<path fill-rule="evenodd" clip-rule="evenodd" d="M12 50C12 48.8954 12.8954 48 14 48L82 48C83.1046 48 84 48.8954 84 50C84 51.1046 83.1046 52 82 52L14 52C12.8954 52 12 51.1046 12 50Z" fill="#0F1D2E"/>
<path fill-rule="evenodd" clip-rule="evenodd" d="M12 76C12 74.8954 12.8954 74 14 74H82C83.1046 74 84 74.8954 84 76C84 77.1046 83.1046 78 82 78H14C12.8954 78 12 77.1046 12 76Z" fill="#0F1D2E"/>
<path fill-rule="evenodd" clip-rule="evenodd" d="M42 48C43.1046 48 44 48.8954 44 50V76C44 77.1046 43.1046 78 42 78C40.8954 78 40 77.1046 40 76V50C40 48.8954 40.8954 48 42 48Z" fill="#0F1D2E"/>
<path fill-rule="evenodd" clip-rule="evenodd" d="M54 48C55.1046 48 56 48.8954 56 50V76C56 77.1046 55.1046 78 54 78C52.8954 78 52 77.1046 52 76V50C52 48.8954 52.8954 48 54 48Z" fill="#0F1D2E"/>
<path fill-rule="evenodd" clip-rule="evenodd" d="M66 48C67.1046 48 68 48.8954 68 50V76C68 77.1046 67.1046 78 66 78C64.8954 78 64 77.1046 64 76V50C64 48.8954 64.8954 48 66 48Z" fill="#0F1D2E"/>
<path fill-rule="evenodd" clip-rule="evenodd" d="M78 48C79.1046 48 80 48.8954 80 50V76C80 77.1046 79.1046 78 78 78C76.8954 78 76 77.1046 76 76V50C76 48.8954 76.8954 48 78 48Z" fill="#0F1D2E"/>
<path fill-rule="evenodd" clip-rule="evenodd" d="M22 24C22 21.7909 23.7909 20 26 20H50C52.2091 20 54 21.7909 54 24V42C54 43.1046 53.1046 44 52 44C50.8954 44 50 43.1046 50 42V24L26 24V42C26 43.1046 25.1046 44 24 44C22.8954 44 22 43.1046 22 42V24Z" fill="#0F1D2E"/>
</svg>
