<svg width="96" height="96" viewBox="0 0 96 96" fill="none" xmlns="http://www.w3.org/2000/svg">
<path d="M29 67H67V83H29V67Z" fill="#8FC1FF"/>
<path fill-rule="evenodd" clip-rule="evenodd" d="M43.6882 22.5792C46.0462 20.1426 49.9534 20.1425 52.3114 22.5792L76.1555 47.2181C78.6118 49.7563 76.8132 53.9998 73.2811 53.9998H68.9992V77.9998C68.9992 81.3135 66.3129 83.9998 62.9992 83.9998H32.9992C29.6855 83.9998 26.9992 81.3135 26.9992 77.9998V53.9998H22.7184C19.1863 53.9998 17.3877 49.7563 19.844 47.2181L43.6882 22.5792ZM49.437 25.3609C48.651 24.5487 47.3486 24.5487 46.5626 25.3609L22.7184 49.9998H27.9992C29.6561 49.9998 30.9992 51.343 30.9992 52.9998V77.9998C30.9992 79.1044 31.8946 79.9998 32.9992 79.9998H62.9992C64.1038 79.9998 64.9992 79.1044 64.9992 77.9998V52.9998C64.9992 51.3429 66.3423 49.9998 67.9992 49.9998L73.2811 49.9998L49.437 25.3609Z" fill="#0F1D2E"/>
<path fill-rule="evenodd" clip-rule="evenodd" d="M14 67C14 65.8954 14.8954 65 16 65H80C81.1046 65 82 65.8954 82 67C82 68.1046 81.1046 69 80 69H16C14.8954 69 14 68.1046 14 67Z" fill="#0F1D2E"/>
</svg>
