<svg width="96" height="96" viewBox="0 0 96 96" fill="none" xmlns="http://www.w3.org/2000/svg">
<path d="M41 22H21C18.7909 22 17 23.7909 17 26V76C17 77.1046 17.8954 78 19 78H44.938C44.9723 78 45 77.9723 45 77.938V26C45 23.7909 43.2091 22 41 22Z" fill="#8FC1FF"/>
<path d="M53 59.9999C53 58.8954 53.8954 57.9999 55 57.9999H77C78.1046 57.9999 79 58.8954 79 59.9999V75.9999C79 77.1045 78.1046 77.9999 77 77.9999H55C53.8954 77.9999 53 77.1045 53 75.9999V59.9999Z" fill="#8FC1FF"/>
<path d="M73 29C73 32.866 69.866 36 66 36C62.134 36 59 32.866 59 29C59 25.134 62.134 22 66 22C69.866 22 73 25.134 73 29Z" fill="#8FC1FF"/>
<path fill-rule="evenodd" clip-rule="evenodd" d="M51 59.9999C51 57.7908 52.7909 55.9999 55 55.9999H77C79.2091 55.9999 81 57.7908 81 59.9999V75.9999C81 78.2091 79.2091 79.9999 77 79.9999H55C52.7909 79.9999 51 78.2091 51 75.9999V59.9999ZM77 59.9999L55 59.9999V75.9999H77V59.9999Z" fill="#0F1D2E"/>
<path fill-rule="evenodd" clip-rule="evenodd" d="M57 51.3333C57 49.4923 58.4924 47.9999 60.3333 47.9999H71.6667C73.5076 47.9999 75 49.4923 75 51.3333C75 56.1197 71.1198 59.9999 66.3333 59.9999H65.6667C60.8802 59.9999 57 56.1197 57 51.3333ZM61.0473 51.9999C61.3707 54.2615 63.3157 55.9999 65.6667 55.9999H66.3333C68.6843 55.9999 70.6293 54.2615 70.9527 51.9999H61.0473Z" fill="#0F1D2E"/>
<path fill-rule="evenodd" clip-rule="evenodd" d="M66.0399 45.9995C67.1261 45.9783 68 45.0912 68 43.9999C68 42.8954 67.1046 41.9999 66 41.9999C65.1513 41.9999 64.3646 42.218 63.703 42.6775C63.0533 43.1286 62.6585 43.7189 62.4224 44.2502C61.9968 45.2077 61.9992 46.1896 61.9999 46.4719C62 46.4822 62 46.4915 62 46.4999L62 49.9994C62 51.104 62.8954 51.9999 64 51.9999C65.1046 51.9999 66 51.1045 66 49.9999L66 46.4999C66 46.385 66.001 46.2689 66.0167 46.139C66.0233 46.0848 66.0314 46.0384 66.0399 45.9995Z" fill="#0F1D2E"/>
<path fill-rule="evenodd" clip-rule="evenodd" d="M66 24C63.2386 24 61 26.2386 61 29C61 31.7614 63.2386 34 66 34C68.7614 34 71 31.7614 71 29C71 26.2386 68.7614 24 66 24ZM57 29C57 24.0294 61.0294 20 66 20C70.9706 20 75 24.0294 75 29C75 33.9706 70.9706 38 66 38C61.0294 38 57 33.9706 57 29Z" fill="#0F1D2E"/>
<path fill-rule="evenodd" clip-rule="evenodd" d="M15 26C15 22.6863 17.6863 20 21 20H41C44.3137 20 47 22.6863 47 26V77.938C47 79.0768 46.0768 80 44.938 80H19C16.7909 80 15 78.2091 15 76V26ZM21 24C19.8954 24 19 24.8954 19 26V76H43V26C43 24.8954 42.1046 24 41 24H21Z" fill="#0F1D2E"/>
<path fill-rule="evenodd" clip-rule="evenodd" d="M31 20C32.1046 20 33 20.8954 33 22L33 29C33 30.1046 32.1046 31 31 31C29.8954 31 29 30.1046 29 29L29 22C29 20.8954 29.8954 20 31 20Z" fill="#0F1D2E"/>
<path fill-rule="evenodd" clip-rule="evenodd" d="M25 35C26.1046 35 27 35.8954 27 37L27 41C27 42.1046 26.1046 43 25 43C23.8954 43 23 42.1046 23 41L23 37C23 35.8954 23.8954 35 25 35Z" fill="#0F1D2E"/>
<path fill-rule="evenodd" clip-rule="evenodd" d="M31 35C32.1046 35 33 35.8954 33 37L33 45C33 46.1046 32.1046 47 31 47C29.8954 47 29 46.1046 29 45L29 37C29 35.8954 29.8954 35 31 35Z" fill="#0F1D2E"/>
<path fill-rule="evenodd" clip-rule="evenodd" d="M37 35C38.1046 35 39 35.8954 39 37L39 41C39 42.1046 38.1046 43 37 43C35.8954 43 35 42.1046 35 41L35 37C35 35.8954 35.8954 35 37 35Z" fill="#0F1D2E"/>
<path d="M36.1667 30H25.8333C25.3731 30 25 30.3731 25 30.8333C25 30.9254 25.0746 31 25.1667 31H36.8333C36.9254 31 37 30.9254 37 30.8333C37 30.3731 36.6269 30 36.1667 30Z" fill="#0F1D2E"/>
<path fill-rule="evenodd" clip-rule="evenodd" d="M23 30.8333C23 29.2685 24.2685 28 25.8333 28H36.1667C37.7315 28 39 29.2685 39 30.8333C39 32.03 38.0299 33 36.8333 33H25.1667C23.9701 33 23 32.03 23 30.8333Z" fill="#0F1D2E"/>
</svg>
