<svg width="96" height="96" viewBox="0 0 96 96" fill="none" xmlns="http://www.w3.org/2000/svg">
<path d="M78 47.9999C78 64.5684 64.5685 77.9999 48 77.9999C31.4315 77.9999 18 64.5684 18 47.9999C18 31.4313 31.4315 17.9999 48 17.9999C64.5685 17.9999 78 31.4313 78 47.9999Z" fill="#8FC1FF"/>
<path fill-rule="evenodd" clip-rule="evenodd" d="M48 19.9999C32.536 19.9999 20 32.5359 20 47.9999C20 63.4639 32.536 75.9999 48 75.9999C63.464 75.9999 76 63.4639 76 47.9999C76 32.5359 63.464 19.9999 48 19.9999ZM16 47.9999C16 30.3268 30.3269 15.9999 48 15.9999C65.6731 15.9999 80 30.3268 80 47.9999C80 65.673 65.6731 79.9999 48 79.9999C30.3269 79.9999 16 65.673 16 47.9999Z" fill="#0F1D2E"/>
<path fill-rule="evenodd" clip-rule="evenodd" d="M66.3838 36.056C67.1813 36.8203 67.2082 38.0863 66.444 38.8838L44.8575 61.4088C43.306 63.0278 40.7268 63.0552 39.1412 61.4696L28.5858 50.9142C27.8047 50.1332 27.8047 48.8668 28.5858 48.0858C29.3668 47.3047 30.6332 47.3047 31.4142 48.0858L41.9696 58.6412L63.556 36.1162C64.3203 35.3187 65.5863 35.2918 66.3838 36.056Z" fill="#0F1D2E"/>
</svg>
