<svg width="96" height="96" viewBox="0 0 96 96" fill="none" xmlns="http://www.w3.org/2000/svg">
<path d="M22 38.9999C22 36.7907 23.7909 34.9999 26 34.9999H70C72.2091 34.9999 74 36.7907 74 38.9999V75.9999H66C64.8954 75.9999 64 75.1045 64 73.9999V45.9995C64 44.8949 63.1046 43.9995 62 43.9995H34C32.8954 43.9995 32 44.8949 32 45.9995V73.9999C32 75.1045 31.1046 75.9999 30 75.9999H22V38.9999Z" fill="#8FC1FF"/>
<path d="M49.628 54C33.6062 61.3333 40.0534 74.0794 44.1045 76H51.2849C56.2566 76 59.0175 66.0476 54.0457 65C50.0683 64.1619 49.0734 58.7143 49.628 54Z" fill="#8FC1FF"/>
<path d="M75 25.9994L21 25.9994C19.8954 25.9994 19 26.8948 19 27.9994V29.9993C19 32.2084 20.7909 33.9993 23 33.9993L73 33.9993C75.2091 33.9993 77 32.2084 77 29.9993V27.9994C77 26.8948 76.1046 25.9994 75 25.9994Z" fill="#8FC1FF"/>
<path fill-rule="evenodd" clip-rule="evenodd" d="M20 37.9999C20 34.6862 22.6863 31.9999 26 31.9999H70C73.3137 31.9999 76 34.6862 76 37.9999V75.9999C76 77.1044 75.1046 77.9999 74 77.9999H22C20.8954 77.9999 20 77.1044 20 75.9999V37.9999ZM26 35.9999C24.8954 35.9999 24 36.8953 24 37.9999V73.9999H72V37.9999C72 36.8953 71.1046 35.9999 70 35.9999H26Z" fill="#0F1D2E"/>
<path fill-rule="evenodd" clip-rule="evenodd" d="M17 27.9999C17 25.7907 18.7909 23.9999 21 23.9999L75 23.9999C77.2091 23.9999 79 25.7907 79 27.9999V29.9998C79 33.3135 76.3137 35.9998 73 35.9998L23 35.9998C19.6863 35.9998 17 33.3135 17 29.9998V27.9999ZM75 27.9999L21 27.9999V29.9998C21 31.1043 21.8954 31.9998 23 31.9998L73 31.9998C74.1046 31.9998 75 31.1043 75 29.9998V27.9999Z" fill="#0F1D2E"/>
<path fill-rule="evenodd" clip-rule="evenodd" d="M14 76C14 74.8954 14.8954 74 16 74H80C81.1046 74 82 74.8954 82 76C82 77.1046 81.1046 78 80 78H16C14.8954 78 14 77.1046 14 76Z" fill="#0F1D2E"/>
<path fill-rule="evenodd" clip-rule="evenodd" d="M34 45.9999V75.9999C34 77.1044 33.1046 77.9999 32 77.9999C30.8954 77.9999 30 77.1044 30 75.9999V44.9999C30 43.343 31.3431 41.9999 33 41.9999H63C64.6569 41.9999 66 43.343 66 44.9999V75.9999C66 77.1044 65.1046 77.9999 64 77.9999C62.8954 77.9999 62 77.1044 62 75.9999V45.9999H34Z" fill="#0F1D2E"/>
<path fill-rule="evenodd" clip-rule="evenodd" d="M50.6459 52.3599C51.245 52.7781 51.5685 53.4896 51.4896 54.2159C51.2522 56.4022 51.3631 58.6538 51.8851 60.3723C52.4176 62.125 53.2065 62.8635 54.0243 63.0502C56.0221 63.5062 57.1786 64.9734 57.6729 66.5688C58.1452 68.0931 58.0661 69.8207 57.6902 71.3656C57.3112 72.9239 56.5816 74.5003 55.5298 75.7291C54.4814 76.954 52.9526 78 51.0307 78H44.4026C44.0848 78 43.7716 77.9243 43.4889 77.7791C42.054 77.0421 40.7345 75.4979 39.782 73.7335C38.7972 71.9092 38.0661 69.6004 38.0043 67.0788C37.8762 61.8583 40.6156 56.1736 48.6128 52.2082C49.2674 51.8836 50.0468 51.9418 50.6459 52.3599ZM44.9857 74C44.529 73.6374 43.8928 72.928 43.3019 71.8334C42.5813 70.4986 42.0478 68.8024 42.0031 66.9807C41.9322 64.0932 43.0861 60.5885 47.4009 57.5517C47.4734 58.9282 47.6798 60.2905 48.0578 61.5349C48.7745 63.894 50.2805 66.2984 53.1341 66.9498C53.4309 67.0176 53.6769 67.1873 53.8521 67.7526C54.0493 68.3891 54.0649 69.3459 53.8036 70.4201C53.5456 71.4808 53.0644 72.4581 52.4909 73.1281C51.9142 73.8019 51.4035 74 51.0307 74H44.9857Z" fill="#0F1D2E"/>
</svg>
