<svg width="96" height="96" viewBox="0 0 96 96" fill="none" xmlns="http://www.w3.org/2000/svg">
<path d="M17 37.9998H78.9999V71.9998C78.9999 74.2089 77.209 75.9998 74.9999 75.9998H21C18.7908 75.9998 17 74.2089 17 71.9998V37.9998Z" fill="#8FC1FF"/>
<path fill-rule="evenodd" clip-rule="evenodd" d="M15 37.9998C15 36.8953 15.8954 35.9998 17 35.9998H78.9999C80.1045 35.9998 80.9999 36.8953 80.9999 37.9998V71.9998C80.9999 75.3135 78.3136 77.9998 74.9999 77.9998H21C17.6863 77.9998 15 75.3135 15 71.9998V37.9998ZM19 39.9998V71.9998C19 73.1044 19.8954 73.9998 21 73.9998H74.9999C76.1045 73.9998 76.9999 73.1044 76.9999 71.9998V39.9998H19Z" fill="#0F1D2E"/>
<path fill-rule="evenodd" clip-rule="evenodd" d="M15 30C15 27.7908 16.7908 26 19 26H76.9999C79.209 26 80.9999 27.7908 80.9999 30V38C80.9999 39.1045 80.1045 39.9999 78.9999 39.9999H17C15.8954 39.9999 15 39.1045 15 38V30ZM76.9999 30H19V36H76.9999V30Z" fill="#0F1D2E"/>
<path fill-rule="evenodd" clip-rule="evenodd" d="M25 22C26.1045 22 27 22.8954 27 24V30C27 31.1045 26.1045 32 25 32C23.8954 32 23 31.1045 23 30V24C23 22.8954 23.8954 22 25 22Z" fill="#0F1D2E"/>
<path fill-rule="evenodd" clip-rule="evenodd" d="M70.9999 22C72.1045 22 72.9999 22.8954 72.9999 24V30C72.9999 31.1045 72.1045 32 70.9999 32C69.8953 32 68.9999 31.1045 68.9999 30V24C68.9999 22.8954 69.8953 22 70.9999 22Z" fill="#0F1D2E"/>
<path fill-rule="evenodd" clip-rule="evenodd" d="M57.0789 51.6216C57.0461 51.679 56.9999 51.7873 56.9999 51.9999C56.9999 53.1045 56.1045 53.9999 54.9999 53.9999C53.8954 53.9999 52.9999 53.1045 52.9999 51.9999C52.9999 50.1864 53.8998 48.8295 55.1684 48.014C56.3429 47.259 57.7588 46.9999 58.9999 46.9999C60.2966 46.9999 61.7076 47.3181 62.8593 48.0858C64.0703 48.8931 64.9999 50.2241 64.9999 51.9999C64.9999 53.0643 64.802 54.2404 64.2813 55.2845C65.4787 56.3177 65.9999 57.8656 65.9999 59.7142C65.9999 62.0607 64.8544 63.7253 63.3627 64.7242C61.9606 65.6632 60.2982 65.9999 58.9999 65.9999C57.7982 65.9999 56.1468 65.7732 54.7232 64.9216C53.1744 63.9951 51.9999 62.3722 51.9999 59.9999C51.9999 58.8954 52.8954 57.9999 53.9999 57.9999C55.1045 57.9999 55.9999 58.8954 55.9999 59.9999C55.9999 60.8419 56.3254 61.219 56.7767 61.4889C57.3531 61.8338 58.2016 61.9999 58.9999 61.9999C59.7016 61.9999 60.5393 61.8009 61.1371 61.4006C61.6454 61.0602 61.9999 60.582 61.9999 59.7142C61.9999 58.5403 61.6828 58.3195 61.6285 58.2817C61.6272 58.2807 61.626 58.2799 61.6249 58.2792C61.4306 58.1404 60.9852 57.9999 59.9999 57.9999C58.8954 57.9999 57.9999 57.1045 57.9999 55.9999C57.9999 54.8954 58.8954 53.9999 59.9999 53.9999C60.1947 53.9999 60.2972 53.9572 60.3562 53.9232C60.4224 53.8851 60.5122 53.8113 60.6105 53.66C60.8265 53.3278 60.9999 52.7419 60.9999 51.9999C60.9999 51.7757 60.9296 51.6067 60.6405 51.414C60.2922 51.1818 59.7032 50.9999 58.9999 50.9999C58.241 50.9999 57.657 51.1695 57.3314 51.3787C57.185 51.4728 57.1153 51.5581 57.0789 51.6216Z" fill="#0F1D2E"/>
<path fill-rule="evenodd" clip-rule="evenodd" d="M35.7653 48.1522C36.5127 48.4617 37 49.191 37 49.9999V63.9999C37 65.1045 36.1045 65.9999 35 65.9999C33.8954 65.9999 33 65.1045 33 63.9999V54.7326C32.2351 55.1746 31.2401 55.0685 30.5857 54.4141C29.8047 53.6331 29.8047 52.3668 30.5857 51.5857L33.5857 48.5857C34.1577 48.0137 35.018 47.8426 35.7653 48.1522Z" fill="#0F1D2E"/>
<path fill-rule="evenodd" clip-rule="evenodd" d="M31.0014 63.9999C31.0014 62.8954 31.8969 61.9999 33.0014 61.9999H37.0014C38.106 61.9999 39.0014 62.8954 39.0014 63.9999C39.0014 65.1045 38.106 65.9999 37.0014 65.9999H33.0014C31.8969 65.9999 31.0014 65.1045 31.0014 63.9999Z" fill="#0F1D2E"/>
<path fill-rule="evenodd" clip-rule="evenodd" d="M41.9999 56.9999C41.9999 55.8954 42.8954 54.9999 43.9999 54.9999H47.9999C49.1045 54.9999 49.9999 55.8954 49.9999 56.9999C49.9999 58.1045 49.1045 58.9999 47.9999 58.9999H43.9999C42.8954 58.9999 41.9999 58.1045 41.9999 56.9999Z" fill="#0F1D2E"/>
</svg>
