<svg width="96" height="96" viewBox="0 0 96 96" fill="none" xmlns="http://www.w3.org/2000/svg">
<path d="M17 37.9998H78.9999V71.9998C78.9999 74.2089 77.209 75.9998 74.9999 75.9998H21C18.7908 75.9998 17 74.2089 17 71.9998V37.9998Z" fill="#8FC1FF"/>
<path fill-rule="evenodd" clip-rule="evenodd" d="M15 37.9998C15 36.8953 15.8954 35.9998 17 35.9998H78.9999C80.1045 35.9998 80.9999 36.8953 80.9999 37.9998V71.9998C80.9999 75.3135 78.3136 77.9998 74.9999 77.9998H21C17.6863 77.9998 15 75.3135 15 71.9998V37.9998ZM19 39.9998V71.9998C19 73.1044 19.8954 73.9998 21 73.9998H74.9999C76.1045 73.9998 76.9999 73.1044 76.9999 71.9998V39.9998H19Z" fill="#0F1D2E"/>
<path fill-rule="evenodd" clip-rule="evenodd" d="M15 30C15 27.7908 16.7908 26 19 26H76.9999C79.209 26 80.9999 27.7908 80.9999 30V38C80.9999 39.1045 80.1045 39.9999 78.9999 39.9999H17C15.8954 39.9999 15 39.1045 15 38V30ZM76.9999 30H19V36H76.9999V30Z" fill="#0F1D2E"/>
<path fill-rule="evenodd" clip-rule="evenodd" d="M25 22C26.1045 22 27 22.8954 27 24V30C27 31.1045 26.1045 32 25 32C23.8954 32 23 31.1045 23 30V24C23 22.8954 23.8954 22 25 22Z" fill="#0F1D2E"/>
<path fill-rule="evenodd" clip-rule="evenodd" d="M70.9999 22C72.1045 22 72.9999 22.8954 72.9999 24V30C72.9999 31.1045 72.1045 32 70.9999 32C69.8953 32 68.9999 31.1045 68.9999 30V24C68.9999 22.8954 69.8953 22 70.9999 22Z" fill="#0F1D2E"/>
<path fill-rule="evenodd" clip-rule="evenodd" d="M43.9999 56.9999C43.9999 57.5935 43.7363 58.1564 43.2803 58.5364L37.2803 63.5364C36.4318 64.2435 35.1706 64.1288 34.4635 63.2803C33.7564 62.4317 33.871 61.1706 34.7196 60.4635L38.8759 56.9999L34.7196 53.5364C33.871 52.8293 33.7564 51.5681 34.4635 50.7196C35.1706 49.871 36.4318 49.7564 37.2803 50.4635L43.2803 55.4635C43.7363 55.8435 43.9999 56.4064 43.9999 56.9999Z" fill="#0F1D2E"/>
<path fill-rule="evenodd" clip-rule="evenodd" d="M51.6032 52.4452C51.3074 52.8649 50.9998 53.634 50.9999 54.9996V60C50.9999 61.1045 50.1045 62 48.9999 62C47.8954 62 46.9999 61.1045 46.9999 60V55C46.9999 55 46.9999 55.0001 46.9999 55C46.9998 53.0466 47.442 51.406 48.3336 50.1409C49.2386 48.8569 50.4905 48.126 51.7828 47.8158C54.2076 47.2336 56.9207 48.0923 58.4141 49.5857C59.1952 50.3668 59.1952 51.6331 58.4141 52.4142C57.6331 53.1952 56.3668 53.1952 55.5857 52.4142C55.0792 51.9076 53.792 51.4471 52.7166 51.7052C52.2588 51.8152 51.8857 52.0444 51.6032 52.4452Z" fill="#0F1D2E"/>
<path fill-rule="evenodd" clip-rule="evenodd" d="M51.419 58.4632C51.2247 58.6725 51.0014 59.1131 51.0014 59.9999C51.0014 60.8867 51.2247 61.3273 51.419 61.5366C51.5883 61.719 51.9883 61.9999 53.0014 61.9999C54.0145 61.9999 54.4145 61.719 54.5838 61.5366C54.7781 61.3273 55.0014 60.8867 55.0014 59.9999C55.0014 59.1131 54.7781 58.6725 54.5838 58.4632C54.4145 58.2807 54.0145 57.9999 53.0014 57.9999C51.9883 57.9999 51.5883 58.2807 51.419 58.4632ZM48.4872 55.742C49.619 54.5226 51.219 53.9999 53.0014 53.9999C54.7838 53.9999 56.3838 54.5226 57.5156 55.742C58.6224 56.9344 59.0014 58.4938 59.0014 59.9999C59.0014 61.5059 58.6224 63.0653 57.5156 64.2578C56.3838 65.4772 54.7838 65.9999 53.0014 65.9999C51.219 65.9999 49.619 65.4772 48.4872 64.2578C47.3804 63.0653 47.0014 61.5059 47.0014 59.9999C47.0014 58.4938 47.3804 56.9344 48.4872 55.742Z" fill="#0F1D2E"/>
</svg>
