<svg width="96" height="96" viewBox="0 0 96 96" fill="none" xmlns="http://www.w3.org/2000/svg">
<path d="M78 47.9999C78 64.5684 64.5685 77.9999 48 77.9999C31.4315 77.9999 18 64.5684 18 47.9999C18 31.4313 31.4315 17.9999 48 17.9999C64.5685 17.9999 78 31.4313 78 47.9999Z" fill="#8FC1FF"/>
<path fill-rule="evenodd" clip-rule="evenodd" d="M48 19.9999C32.536 19.9999 20 32.5359 20 47.9999C20 63.4639 32.536 75.9999 48 75.9999C63.464 75.9999 76 63.4639 76 47.9999C76 32.5359 63.464 19.9999 48 19.9999ZM16 47.9999C16 30.3268 30.3269 15.9999 48 15.9999C65.6731 15.9999 80 30.3268 80 47.9999C80 65.673 65.6731 79.9999 48 79.9999C30.3269 79.9999 16 65.673 16 47.9999Z" fill="#0F1D2E"/>
<path fill-rule="evenodd" clip-rule="evenodd" d="M33.5856 33.5858C34.3666 32.8047 35.633 32.8047 36.414 33.5858L62.4141 59.5857C63.1952 60.3667 63.1952 61.6331 62.4141 62.4141C61.6331 63.1952 60.3667 63.1952 59.5857 62.4141L33.5856 36.4142C32.8046 35.6332 32.8045 34.3668 33.5856 33.5858Z" fill="#0F1D2E"/>
<path fill-rule="evenodd" clip-rule="evenodd" d="M62.4137 33.5858C63.1948 34.3669 63.1948 35.6332 62.4137 36.4143L36.4139 62.4142C35.6328 63.1952 34.3665 63.1952 33.5854 62.4142C32.8044 61.6331 32.8044 60.3668 33.5854 59.5857L59.5853 33.5858C60.3663 32.8048 61.6327 32.8048 62.4137 33.5858Z" fill="#0F1D2E"/>
</svg>
