<svg width="96" height="96" viewBox="0 0 96 96" fill="none" xmlns="http://www.w3.org/2000/svg">
<path d="M17 37.9998H78.9999V71.9998C78.9999 74.2089 77.209 75.9998 74.9999 75.9998H21C18.7908 75.9998 17 74.2089 17 71.9998V37.9998Z" fill="#8FC1FF"/>
<path fill-rule="evenodd" clip-rule="evenodd" d="M15 37.9998C15 36.8953 15.8954 35.9998 17 35.9998H78.9999C80.1045 35.9998 80.9999 36.8953 80.9999 37.9998V71.9998C80.9999 75.3135 78.3136 77.9998 74.9999 77.9998H21C17.6863 77.9998 15 75.3135 15 71.9998V37.9998ZM19 39.9998V71.9998C19 73.1044 19.8954 73.9998 21 73.9998H74.9999C76.1045 73.9998 76.9999 73.1044 76.9999 71.9998V39.9998H19Z" fill="#0F1D2E"/>
<path fill-rule="evenodd" clip-rule="evenodd" d="M15 30C15 27.7908 16.7908 26 19 26H76.9999C79.209 26 80.9999 27.7908 80.9999 30V38C80.9999 39.1045 80.1045 39.9999 78.9999 39.9999H17C15.8954 39.9999 15 39.1045 15 38V30ZM76.9999 30H19V36H76.9999V30Z" fill="#0F1D2E"/>
<path fill-rule="evenodd" clip-rule="evenodd" d="M25 22C26.1045 22 27 22.8954 27 24V30C27 31.1045 26.1045 32 25 32C23.8954 32 23 31.1045 23 30V24C23 22.8954 23.8954 22 25 22Z" fill="#0F1D2E"/>
<path fill-rule="evenodd" clip-rule="evenodd" d="M70.9999 22C72.1045 22 72.9999 22.8954 72.9999 24V30C72.9999 31.1045 72.1045 32 70.9999 32C69.8953 32 68.9999 31.1045 68.9999 30V24C68.9999 22.8954 69.8953 22 70.9999 22Z" fill="#0F1D2E"/>
<path fill-rule="evenodd" clip-rule="evenodd" d="M48.7653 48.1522C49.5127 48.4617 49.9999 49.191 49.9999 49.9999V63.9999C49.9999 65.1045 49.1045 65.9999 47.9999 65.9999C46.8954 65.9999 45.9999 65.1045 45.9999 63.9999V54.7326C45.2351 55.1746 44.2401 55.0685 43.5857 54.4141C42.8047 53.6331 42.8047 52.3668 43.5857 51.5857L46.5857 48.5857C47.1577 48.0137 48.018 47.8426 48.7653 48.1522Z" fill="#0F1D2E"/>
<path fill-rule="evenodd" clip-rule="evenodd" d="M44.0014 63.9999C44.0014 62.8954 44.8968 61.9999 46.0014 61.9999H50.0014C51.106 61.9999 52.0014 62.8954 52.0014 63.9999C52.0014 65.1045 51.106 65.9999 50.0014 65.9999H46.0014C44.8968 65.9999 44.0014 65.1045 44.0014 63.9999Z" fill="#0F1D2E"/>
<path fill-rule="evenodd" clip-rule="evenodd" d="M53.9994 49.9999C53.9994 48.8954 54.8949 47.9999 55.9994 47.9999H61.9994C63.104 47.9999 63.9994 48.8954 63.9994 49.9999C63.9994 51.1045 63.104 51.9999 61.9994 51.9999H57.9994V53.8045C59.7767 53.8375 61.2239 54.396 62.2886 55.4607C63.6993 56.8714 63.9994 58.7508 63.9994 59.9999C63.9994 62.9154 61.6844 65.9999 58.1597 65.9999C56.3826 65.9999 55.1158 65.1891 54.3396 64.4282C53.9567 64.0529 53.6814 63.6807 53.4989 63.3986C53.4067 63.2561 53.3354 63.1322 53.2837 63.0364C53.2577 62.9883 53.2364 62.9469 53.2197 62.9132C53.2113 62.8964 53.204 62.8814 53.1979 62.8685L53.1894 62.8507L53.1858 62.8429L53.1841 62.8393L53.1833 62.8376C53.1829 62.8368 53.1826 62.836 54.9994 61.9999L53.1826 62.836C52.7208 61.8325 53.16 60.6448 54.1634 60.1831C55.1565 59.7261 56.33 60.1515 56.8018 61.1329C56.8021 61.1337 56.8026 61.1345 56.8031 61.1353C56.8104 61.1489 56.8285 61.1812 56.8576 61.2262C56.9177 61.3191 57.0124 61.447 57.1396 61.5717C57.3836 61.8108 57.6969 61.9999 58.1597 61.9999C59.1151 61.9999 59.9994 61.0845 59.9994 59.9999C59.9994 59.2491 59.7995 58.6285 59.4602 58.2891C59.219 58.048 58.496 57.5402 56.3917 57.9611C55.8041 58.0786 55.1948 57.9265 54.7315 57.5466C54.2681 57.1667 53.9994 56.5991 53.9994 55.9999V49.9999ZM56.8148 61.1607C56.8148 61.1607 56.8148 61.1607 56.8149 61.1607L56.8148 61.1607L56.8148 61.1607Z" fill="#0F1D2E"/>
<path fill-rule="evenodd" clip-rule="evenodd" d="M39.9999 56.9999C39.9999 57.5935 39.7363 58.1564 39.2803 58.5364L33.2803 63.5364C32.4318 64.2435 31.1706 64.1288 30.4635 63.2803C29.7564 62.4317 29.871 61.1706 30.7196 60.4635L34.8759 56.9999L30.7196 53.5364C29.871 52.8293 29.7564 51.5681 30.4635 50.7196C31.1706 49.871 32.4318 49.7564 33.2803 50.4635L39.2803 55.4635C39.7363 55.8435 39.9999 56.4064 39.9999 56.9999Z" fill="#0F1D2E"/>
</svg>
