<svg width="96" height="96" viewBox="0 0 96 96" fill="none" xmlns="http://www.w3.org/2000/svg">
<path d="M22 33.9999H83.9999V67.9999C83.9999 70.209 82.209 71.9998 79.9999 71.9998H26C23.7908 71.9998 22 70.209 22 67.9999V33.9999Z" fill="#8FC1FF"/>
<path fill-rule="evenodd" clip-rule="evenodd" d="M20 33.9999C20 32.8953 20.8954 31.9999 22 31.9999H83.9999C85.1045 31.9999 85.9999 32.8953 85.9999 33.9999V67.9999C85.9999 71.3136 83.3136 73.9998 79.9999 73.9998H26C22.6863 73.9998 20 71.3136 20 67.9999V33.9999ZM24 35.9999V67.9999C24 69.1044 24.8954 69.9998 26 69.9998H79.9999C81.1045 69.9998 81.9999 69.1044 81.9999 67.9999V35.9999H24Z" fill="#0F1D2E"/>
<path fill-rule="evenodd" clip-rule="evenodd" d="M20 25.9999C20 23.7908 21.7908 21.9999 24 21.9999H81.9999C84.209 21.9999 85.9999 23.7908 85.9999 25.9999V33.9999C85.9999 35.1045 85.1045 35.9999 83.9999 35.9999H22C20.8954 35.9999 20 35.1045 20 33.9999V25.9999ZM81.9999 25.9999H24V31.9999H81.9999V25.9999Z" fill="#0F1D2E"/>
<path fill-rule="evenodd" clip-rule="evenodd" d="M18 33C16.8954 33 16 33.8954 16 35V71.9999C16 75.3136 18.6863 77.9999 22 77.9999H69.9999C72.209 77.9999 73.9999 76.209 73.9999 73.9999V71.9999C73.9999 70.8953 74.8953 69.9999 75.9999 69.9999C77.1045 69.9999 77.9999 70.8953 77.9999 71.9999V73.9999C77.9999 78.4182 74.4182 81.9999 69.9999 81.9999H22C16.4771 81.9999 12 77.5227 12 71.9999V35C12 31.6863 14.6863 29 18 29H22C23.1045 29 24 29.8954 24 31C24 32.1045 23.1045 33 22 33H18Z" fill="#0F1D2E"/>
<path d="M28 41.9999C28 40.8953 28.8954 39.9999 30 39.9999H34C35.1045 39.9999 36 40.8953 36 41.9999V43.9999C36 45.1045 35.1045 45.9999 34 45.9999H30C28.8954 45.9999 28 45.1045 28 43.9999V41.9999Z" fill="#0F1D2E"/>
<path d="M41.9999 41.9999C41.9999 40.8953 42.8954 39.9999 43.9999 39.9999H47.9999C49.1045 39.9999 49.9999 40.8953 49.9999 41.9999V43.9999C49.9999 45.1045 49.1045 45.9999 47.9999 45.9999H43.9999C42.8954 45.9999 41.9999 45.1045 41.9999 43.9999V41.9999Z" fill="#0F1D2E"/>
<path d="M55.9999 41.9999C55.9999 40.8953 56.8954 39.9999 57.9999 39.9999H61.9999C63.1045 39.9999 63.9999 40.8953 63.9999 41.9999V43.9999C63.9999 45.1045 63.1045 45.9999 61.9999 45.9999H57.9999C56.8954 45.9999 55.9999 45.1045 55.9999 43.9999V41.9999Z" fill="#0F1D2E"/>
<path d="M69.9999 41.9999C69.9999 40.8953 70.8953 39.9999 71.9999 39.9999H75.9999C77.1045 39.9999 77.9999 40.8953 77.9999 41.9999V43.9999C77.9999 45.1045 77.1045 45.9999 75.9999 45.9999H71.9999C70.8953 45.9999 69.9999 45.1045 69.9999 43.9999V41.9999Z" fill="#0F1D2E"/>
<path d="M28 51.9999C28 50.8953 28.8954 49.9999 30 49.9999H34C35.1045 49.9999 36 50.8953 36 51.9999V53.9999C36 55.1044 35.1045 55.9999 34 55.9999H30C28.8954 55.9999 28 55.1044 28 53.9999V51.9999Z" fill="#0F1D2E"/>
<path d="M41.9999 51.9999C41.9999 50.8953 42.8954 49.9999 43.9999 49.9999H47.9999C49.1045 49.9999 49.9999 50.8953 49.9999 51.9999V53.9999C49.9999 55.1044 49.1045 55.9999 47.9999 55.9999H43.9999C42.8954 55.9999 41.9999 55.1044 41.9999 53.9999V51.9999Z" fill="#0F1D2E"/>
<path d="M55.9999 51.9999C55.9999 50.8953 56.8954 49.9999 57.9999 49.9999H61.9999C63.1045 49.9999 63.9999 50.8953 63.9999 51.9999V53.9999C63.9999 55.1044 63.1045 55.9999 61.9999 55.9999H57.9999C56.8954 55.9999 55.9999 55.1044 55.9999 53.9999V51.9999Z" fill="#0F1D2E"/>
<path d="M69.9999 51.9999C69.9999 50.8953 70.8953 49.9999 71.9999 49.9999H75.9999C77.1045 49.9999 77.9999 50.8953 77.9999 51.9999V53.9999C77.9999 55.1044 77.1045 55.9999 75.9999 55.9999H71.9999C70.8953 55.9999 69.9999 55.1044 69.9999 53.9999V51.9999Z" fill="#0F1D2E"/>
<path d="M28 61.9999C28 60.8953 28.8954 59.9999 30 59.9999H34C35.1045 59.9999 36 60.8953 36 61.9999V63.9999C36 65.1044 35.1045 65.9999 34 65.9999H30C28.8954 65.9999 28 65.1044 28 63.9999V61.9999Z" fill="#0F1D2E"/>
<path d="M41.9999 61.9999C41.9999 60.8953 42.8954 59.9999 43.9999 59.9999H47.9999C49.1045 59.9999 49.9999 60.8953 49.9999 61.9999V63.9999C49.9999 65.1044 49.1045 65.9999 47.9999 65.9999H43.9999C42.8954 65.9999 41.9999 65.1044 41.9999 63.9999V61.9999Z" fill="#0F1D2E"/>
<path d="M55.9999 61.9999C55.9999 60.8953 56.8954 59.9999 57.9999 59.9999H61.9999C63.1045 59.9999 63.9999 60.8953 63.9999 61.9999V63.9999C63.9999 65.1044 63.1045 65.9999 61.9999 65.9999H57.9999C56.8954 65.9999 55.9999 65.1044 55.9999 63.9999V61.9999Z" fill="#0F1D2E"/>
<path d="M69.9999 61.9999C69.9999 60.8953 70.8953 59.9999 71.9999 59.9999H75.9999C77.1045 59.9999 77.9999 60.8953 77.9999 61.9999V63.9999C77.9999 65.1044 77.1045 65.9999 75.9999 65.9999H71.9999C70.8953 65.9999 69.9999 65.1044 69.9999 63.9999V61.9999Z" fill="#0F1D2E"/>
<path fill-rule="evenodd" clip-rule="evenodd" d="M30 18C31.1045 18 32 18.8954 32 20V26C32 27.1045 31.1045 28 30 28C28.8954 28 28 27.1045 28 26V20C28 18.8954 28.8954 18 30 18Z" fill="#0F1D2E"/>
<path fill-rule="evenodd" clip-rule="evenodd" d="M75.9999 18C77.1045 18 77.9999 18.8954 77.9999 20V26C77.9999 27.1045 77.1045 28 75.9999 28C74.8953 28 73.9999 27.1045 73.9999 26V20C73.9999 18.8954 74.8953 18 75.9999 18Z" fill="#0F1D2E"/>
</svg>
