<svg width="96" height="96" viewBox="0 0 96 96" fill="none" xmlns="http://www.w3.org/2000/svg">
<path d="M17 37.9998H78.9999V71.9998C78.9999 74.2089 77.209 75.9998 74.9999 75.9998H21C18.7908 75.9998 17 74.2089 17 71.9998V37.9998Z" fill="#8FC1FF"/>
<path fill-rule="evenodd" clip-rule="evenodd" d="M15 37.9998C15 36.8953 15.8954 35.9998 17 35.9998H78.9999C80.1045 35.9998 80.9999 36.8953 80.9999 37.9998V71.9998C80.9999 75.3135 78.3136 77.9998 74.9999 77.9998H21C17.6863 77.9998 15 75.3135 15 71.9998V37.9998ZM19 39.9998V71.9998C19 73.1044 19.8954 73.9998 21 73.9998H74.9999C76.1045 73.9998 76.9999 73.1044 76.9999 71.9998V39.9998H19Z" fill="#0F1D2E"/>
<path fill-rule="evenodd" clip-rule="evenodd" d="M15 30C15 27.7908 16.7908 26 19 26H76.9999C79.209 26 80.9999 27.7908 80.9999 30V38C80.9999 39.1045 80.1045 39.9999 78.9999 39.9999H17C15.8954 39.9999 15 39.1045 15 38V30ZM76.9999 30H19V36H76.9999V30Z" fill="#0F1D2E"/>
<path fill-rule="evenodd" clip-rule="evenodd" d="M25 22C26.1045 22 27 22.8954 27 24V30C27 31.1045 26.1045 32 25 32C23.8954 32 23 31.1045 23 30V24C23 22.8954 23.8954 22 25 22Z" fill="#0F1D2E"/>
<path fill-rule="evenodd" clip-rule="evenodd" d="M70.9999 22C72.1045 22 72.9999 22.8954 72.9999 24V30C72.9999 31.1045 72.1045 32 70.9999 32C69.8953 32 68.9999 31.1045 68.9999 30V24C68.9999 22.8954 69.8953 22 70.9999 22Z" fill="#0F1D2E"/>
<path fill-rule="evenodd" clip-rule="evenodd" d="M44.9999 56.9999C44.9999 55.8954 45.8954 54.9999 46.9999 54.9999H49.9999C51.1045 54.9999 51.9999 55.8954 51.9999 56.9999C51.9999 58.1045 51.1045 58.9999 49.9999 58.9999H46.9999C45.8954 58.9999 44.9999 58.1045 44.9999 56.9999Z" fill="#0F1D2E"/>
<path fill-rule="evenodd" clip-rule="evenodd" d="M27.7653 48.1522C28.5127 48.4617 29 49.191 29 49.9999V63.9999C29 65.1045 28.1045 65.9999 27 65.9999C25.8954 65.9999 25 65.1045 25 63.9999V54.7326C24.2351 55.1746 23.2401 55.0685 22.5858 54.4141C21.8047 53.6331 21.8047 52.3668 22.5858 51.5857L25.5858 48.5857C26.1577 48.0137 27.018 47.8426 27.7653 48.1522Z" fill="#0F1D2E"/>
<path fill-rule="evenodd" clip-rule="evenodd" d="M23.0014 63.9999C23.0014 62.8954 23.8969 61.9999 25.0014 61.9999H29.0014C30.106 61.9999 31.0014 62.8954 31.0014 63.9999C31.0014 65.1045 30.106 65.9999 29.0014 65.9999H25.0014C23.8969 65.9999 23.0014 65.1045 23.0014 63.9999Z" fill="#0F1D2E"/>
<path fill-rule="evenodd" clip-rule="evenodd" d="M35.8534 52.7071C35.4211 53.3791 35 54.692 35 56.9999C35 59.3079 35.4211 60.6207 35.8534 61.2927C36.2211 61.8642 36.5973 61.9999 37 61.9999C37.4026 61.9999 37.7788 61.8642 38.1465 61.2927C38.5788 60.6207 39 59.3079 39 56.9999C39 54.692 38.5788 53.3791 38.1465 52.7071C37.7788 52.1357 37.4026 51.9999 37 51.9999C36.5973 51.9999 36.2211 52.1357 35.8534 52.7071ZM32.4896 50.5427C33.5696 48.8642 35.1934 47.9999 37 47.9999C38.8065 47.9999 40.4303 48.8642 41.5103 50.5427C42.5256 52.1208 42.9999 54.3079 42.9999 56.9999C42.9999 59.692 42.5256 61.8791 41.5103 63.4571C40.4303 65.1357 38.8065 65.9999 37 65.9999C35.1934 65.9999 33.5696 65.1357 32.4896 63.4571C31.4743 61.8791 31 59.692 31 56.9999C31 54.3079 31.4743 52.1208 32.4896 50.5427Z" fill="#0F1D2E"/>
<path fill-rule="evenodd" clip-rule="evenodd" d="M58.7653 48.1522C59.5126 48.4617 59.9999 49.191 59.9999 49.9999V63.9999C59.9999 65.1045 59.1045 65.9999 57.9999 65.9999C56.8954 65.9999 55.9999 65.1045 55.9999 63.9999V54.7326C55.2351 55.1746 54.2401 55.0685 53.5857 54.4141C52.8047 53.6331 52.8047 52.3668 53.5857 51.5857L56.5857 48.5857C57.1577 48.0137 58.0179 47.8426 58.7653 48.1522Z" fill="#0F1D2E"/>
<path fill-rule="evenodd" clip-rule="evenodd" d="M54.0014 63.9999C54.0014 62.8954 54.8968 61.9999 56.0014 61.9999H60.0014C61.106 61.9999 62.0014 62.8954 62.0014 63.9999C62.0014 65.1045 61.106 65.9999 60.0014 65.9999H56.0014C54.8968 65.9999 54.0014 65.1045 54.0014 63.9999Z" fill="#0F1D2E"/>
<path fill-rule="evenodd" clip-rule="evenodd" d="M63.9994 49.9999C63.9994 48.8954 64.8949 47.9999 65.9994 47.9999H71.9994C73.104 47.9999 73.9994 48.8954 73.9994 49.9999C73.9994 51.1045 73.104 51.9999 71.9994 51.9999H67.9994V53.8045C69.7767 53.8375 71.2239 54.396 72.2886 55.4607C73.6993 56.8714 73.9994 58.7508 73.9994 59.9999C73.9994 62.9154 71.6844 65.9999 68.1597 65.9999C66.3826 65.9999 65.1158 65.1891 64.3395 64.4282C63.9567 64.0529 63.6813 63.6807 63.4989 63.3986C63.4067 63.2561 63.3354 63.1322 63.2837 63.0364C63.2577 62.9883 63.2364 62.9469 63.2197 62.9132C63.2113 62.8964 63.204 62.8814 63.1978 62.8685L63.1894 62.8507L63.1858 62.8429L63.1841 62.8393L63.1833 62.8376C63.1829 62.8368 63.1826 62.836 64.9994 61.9999L63.1826 62.836C62.7208 61.8325 63.1599 60.6448 64.1634 60.1831C65.1564 59.7261 66.33 60.1515 66.8017 61.1329C66.8021 61.1337 66.8026 61.1345 66.803 61.1353C66.8103 61.1489 66.8285 61.1812 66.8575 61.2262C66.9177 61.3191 67.0124 61.447 67.1396 61.5717C67.3835 61.8108 67.6969 61.9999 68.1597 61.9999C69.1151 61.9999 69.9994 61.0845 69.9994 59.9999C69.9994 59.2491 69.7995 58.6285 69.4602 58.2891C69.219 58.048 68.496 57.5402 66.3917 57.9611C65.8041 58.0786 65.1948 57.9265 64.7314 57.5466C64.2681 57.1667 63.9994 56.5991 63.9994 55.9999V49.9999ZM66.8148 61.1607C66.8148 61.1607 66.8148 61.1607 66.8148 61.1607L66.8148 61.1607L66.8148 61.1607Z" fill="#0F1D2E"/>
</svg>
