<svg width="96" height="96" viewBox="0 0 96 96" fill="none" xmlns="http://www.w3.org/2000/svg">
<path d="M17 37.9999H78.9999V71.9998C78.9999 74.209 77.209 75.9998 74.9999 75.9998H21C18.7908 75.9998 17 74.209 17 71.9998V37.9999Z" fill="#8FC1FF"/>
<path fill-rule="evenodd" clip-rule="evenodd" d="M15 37.9999C15 36.8953 15.8954 35.9999 17 35.9999H78.9999C80.1045 35.9999 80.9999 36.8953 80.9999 37.9999V71.9998C80.9999 75.3136 78.3136 77.9998 74.9999 77.9998H21C17.6863 77.9998 15 75.3136 15 71.9998V37.9999ZM19 39.9999V71.9998C19 73.1044 19.8954 73.9998 21 73.9998H74.9999C76.1045 73.9998 76.9999 73.1044 76.9999 71.9998V39.9999H19Z" fill="#0F1D2E"/>
<path fill-rule="evenodd" clip-rule="evenodd" d="M15 29.9999C15 27.7908 16.7908 25.9999 19 25.9999H76.9999C79.209 25.9999 80.9999 27.7908 80.9999 29.9999V37.9999C80.9999 39.1045 80.1045 39.9999 78.9999 39.9999H17C15.8954 39.9999 15 39.1045 15 37.9999V29.9999ZM76.9999 29.9999H19V35.9999H76.9999V29.9999Z" fill="#0F1D2E"/>
<path d="M23 45.9999C23 44.8953 23.8954 43.9999 25 43.9999H29C30.1045 43.9999 31 44.8953 31 45.9999V47.9999C31 49.1044 30.1045 49.9999 29 49.9999H25C23.8954 49.9999 23 49.1044 23 47.9999V45.9999Z" fill="#0F1D2E"/>
<path d="M37 45.9999C37 44.8953 37.8954 43.9999 39 43.9999H42.9999C44.1045 43.9999 44.9999 44.8953 44.9999 45.9999V47.9999C44.9999 49.1044 44.1045 49.9999 42.9999 49.9999H39C37.8954 49.9999 37 49.1044 37 47.9999V45.9999Z" fill="#0F1D2E"/>
<path d="M50.9999 45.9999C50.9999 44.8953 51.8954 43.9999 52.9999 43.9999H56.9999C58.1045 43.9999 58.9999 44.8953 58.9999 45.9999V47.9999C58.9999 49.1044 58.1045 49.9999 56.9999 49.9999H52.9999C51.8954 49.9999 50.9999 49.1044 50.9999 47.9999V45.9999Z" fill="#0F1D2E"/>
<path d="M64.9999 45.9999C64.9999 44.8953 65.8953 43.9999 66.9999 43.9999H70.9999C72.1045 43.9999 72.9999 44.8953 72.9999 45.9999V47.9999C72.9999 49.1044 72.1045 49.9999 70.9999 49.9999H66.9999C65.8953 49.9999 64.9999 49.1044 64.9999 47.9999V45.9999Z" fill="#0F1D2E"/>
<path d="M23 55.9999C23 54.8953 23.8954 53.9999 25 53.9999H29C30.1045 53.9999 31 54.8953 31 55.9999V57.9999C31 59.1044 30.1045 59.9999 29 59.9999H25C23.8954 59.9999 23 59.1044 23 57.9999V55.9999Z" fill="#0F1D2E"/>
<path d="M37 55.9999C37 54.8953 37.8954 53.9999 39 53.9999H42.9999C44.1045 53.9999 44.9999 54.8953 44.9999 55.9999V57.9999C44.9999 59.1044 44.1045 59.9999 42.9999 59.9999H39C37.8954 59.9999 37 59.1044 37 57.9999V55.9999Z" fill="#0F1D2E"/>
<path fill-rule="evenodd" clip-rule="evenodd" d="M25 22C26.1045 22 27 22.8954 27 24V30C27 31.1045 26.1045 32 25 32C23.8954 32 23 31.1045 23 30V24C23 22.8954 23.8954 22 25 22Z" fill="#0F1D2E"/>
<path fill-rule="evenodd" clip-rule="evenodd" d="M70.9999 22C72.1045 22 72.9999 22.8954 72.9999 24V30C72.9999 31.1045 72.1045 32 70.9999 32C69.8953 32 68.9999 31.1045 68.9999 30V24C68.9999 22.8954 69.8953 22 70.9999 22Z" fill="#0F1D2E"/>
</svg>
