<svg width="96" height="96" viewBox="0 0 96 96" fill="none" xmlns="http://www.w3.org/2000/svg">
<path d="M17 37.9998H78.9999V71.9998C78.9999 74.2089 77.209 75.9998 74.9999 75.9998H21C18.7908 75.9998 17 74.2089 17 71.9998V37.9998Z" fill="#8FC1FF"/>
<path fill-rule="evenodd" clip-rule="evenodd" d="M15 37.9998C15 36.8953 15.8954 35.9998 17 35.9998H78.9999C80.1045 35.9998 80.9999 36.8953 80.9999 37.9998V71.9998C80.9999 75.3135 78.3136 77.9998 74.9999 77.9998H21C17.6863 77.9998 15 75.3135 15 71.9998V37.9998ZM19 39.9998V71.9998C19 73.1044 19.8954 73.9998 21 73.9998H74.9999C76.1045 73.9998 76.9999 73.1044 76.9999 71.9998V39.9998H19Z" fill="#0F1D2E"/>
<path fill-rule="evenodd" clip-rule="evenodd" d="M15 30C15 27.7908 16.7908 26 19 26H76.9999C79.209 26 80.9999 27.7908 80.9999 30V38C80.9999 39.1045 80.1045 39.9999 78.9999 39.9999H17C15.8954 39.9999 15 39.1045 15 38V30ZM76.9999 30H19V36H76.9999V30Z" fill="#0F1D2E"/>
<path fill-rule="evenodd" clip-rule="evenodd" d="M25 22C26.1045 22 27 22.8954 27 24V30C27 31.1045 26.1045 32 25 32C23.8954 32 23 31.1045 23 30V24C23 22.8954 23.8954 22 25 22Z" fill="#0F1D2E"/>
<path fill-rule="evenodd" clip-rule="evenodd" d="M70.9999 22C72.1045 22 72.9999 22.8954 72.9999 24V30C72.9999 31.1045 72.1045 32 70.9999 32C69.8953 32 68.9999 31.1045 68.9999 30V24C68.9999 22.8954 69.8953 22 70.9999 22Z" fill="#0F1D2E"/>
<path fill-rule="evenodd" clip-rule="evenodd" d="M31.1026 49.3675C31.3748 48.5508 32.1391 47.9999 33 47.9999H38C39.1045 47.9999 40 48.8954 40 49.9999V56.9999C41.1045 56.9999 42 57.8954 42 58.9999C42 60.1045 41.1045 60.9999 40 60.9999V63.9999C40 65.1045 39.1045 65.9999 38 65.9999C36.8954 65.9999 36 65.1045 36 63.9999V60.9999H30C29.3571 60.9999 28.7534 60.6909 28.3775 60.1693C28.0016 59.6478 27.8993 58.9774 28.1026 58.3675L31.1026 49.3675ZM36 56.9999V51.9999H34.4415L32.7748 56.9999H36Z" fill="#0F1D2E"/>
<path fill-rule="evenodd" clip-rule="evenodd" d="M43.9999 56.9999C43.9999 55.8954 44.8954 54.9999 45.9999 54.9999H49.9999C51.1045 54.9999 51.9999 55.8954 51.9999 56.9999C51.9999 58.1045 51.1045 58.9999 49.9999 58.9999H45.9999C44.8954 58.9999 43.9999 58.1045 43.9999 56.9999Z" fill="#0F1D2E"/>
<path fill-rule="evenodd" clip-rule="evenodd" d="M59.6032 52.4452C59.3074 52.8649 58.9998 53.634 58.9999 54.9996V59.9998C58.9999 61.1044 58.1045 61.9998 56.9999 61.9998C55.8954 61.9998 54.9999 61.1044 54.9999 59.9998L54.9999 55C54.9999 55 54.9999 55.0001 54.9999 55C54.9998 53.0466 55.442 51.406 56.3336 50.1409C57.2386 48.8569 58.4905 48.1261 59.7828 47.8158C62.2076 47.2336 64.9207 48.0923 66.4141 49.5857C67.1952 50.3668 67.1952 51.6331 66.4141 52.4142C65.6331 53.1952 64.3667 53.1952 63.5857 52.4141C63.0792 51.9076 61.792 51.4471 60.7166 51.7052C60.2588 51.8152 59.8857 52.0444 59.6032 52.4452Z" fill="#0F1D2E"/>
<path fill-rule="evenodd" clip-rule="evenodd" d="M59.4175 58.4631C59.2232 58.6724 58.9999 59.113 58.9999 59.9998C58.9999 60.8866 59.2232 61.3272 59.4175 61.5365C59.5868 61.719 59.9868 61.9998 60.9999 61.9998C62.013 61.9998 62.413 61.719 62.5824 61.5365C62.7766 61.3272 62.9999 60.8866 62.9999 59.9998C62.9999 59.113 62.7766 58.6724 62.5824 58.4631C62.413 58.2807 62.013 57.9998 60.9999 57.9998C59.9868 57.9998 59.5868 58.2807 59.4175 58.4631ZM56.4858 55.7419C57.6176 54.5226 59.2176 53.9998 60.9999 53.9998C62.7823 53.9998 64.3823 54.5226 65.5141 55.7419C66.6209 56.9344 66.9999 58.4938 66.9999 59.9998C66.9999 61.5059 66.6209 63.0653 65.5141 64.2577C64.3823 65.4771 62.7823 65.9998 60.9999 65.9998C59.2176 65.9998 57.6176 65.4771 56.4858 64.2577C55.3789 63.0653 54.9999 61.5059 54.9999 59.9998C54.9999 58.4938 55.3789 56.9344 56.4858 55.7419Z" fill="#0F1D2E"/>
</svg>
