<svg width="96" height="96" viewBox="0 0 96 96" fill="none" xmlns="http://www.w3.org/2000/svg">
<path d="M25 28C25 27.4477 25.4477 27 26 27H70C70.5523 27 71 27.4477 71 28V78C71 78.5523 70.5523 79 70 79H26C25.4477 79 25 78.5523 25 78V28Z" fill="#8FC1FF"/>
<path fill-rule="evenodd" clip-rule="evenodd" d="M73 29C73 26.7909 71.2091 25 69 25H27C24.7909 25 23 26.7909 23 29V77C23 79.2091 24.7909 81 27 81H69C71.2091 81 73 79.2091 73 77V29ZM27 29L69 29V77L27 77V29Z" fill="#0F1D2E"/>
<path fill-rule="evenodd" clip-rule="evenodd" d="M48 41.9564C48 40.8519 48.8954 39.9564 50 39.9564H63C64.1046 39.9564 65 40.8519 65 41.9564C65 43.061 64.1046 43.9564 63 43.9564H50C48.8954 43.9564 48 43.061 48 41.9564Z" fill="#0F1D2E"/>
<path fill-rule="evenodd" clip-rule="evenodd" d="M43.4141 37.5422C44.1951 38.3233 44.1951 39.5896 43.4141 40.3706L37.4141 46.3706C36.6412 47.1436 35.3909 47.1528 34.6067 46.3913L31.6067 43.4785C30.8142 42.709 30.7955 41.4428 31.565 40.6503C32.3345 39.8579 33.6007 39.8392 34.3931 40.6087L35.9792 42.1487L40.5857 37.5422C41.3667 36.7612 42.633 36.7612 43.4141 37.5422Z" fill="#0F1D2E"/>
<path fill-rule="evenodd" clip-rule="evenodd" d="M48 60.9564C48 59.8519 48.8954 58.9564 50 58.9564H63C64.1046 58.9564 65 59.8519 65 60.9564C65 62.061 64.1046 62.9564 63 62.9564H50C48.8954 62.9564 48 62.061 48 60.9564Z" fill="#0F1D2E"/>
<path fill-rule="evenodd" clip-rule="evenodd" d="M43.4141 56.5422C44.1951 57.3233 44.1951 58.5896 43.4141 59.3706L37.4141 65.3706C36.6412 66.1436 35.3909 66.1528 34.6067 65.3913L31.6067 62.4785C30.8142 61.709 30.7955 60.4428 31.565 59.6503C32.3345 58.8579 33.6007 58.8392 34.3931 59.6087L35.9792 61.1487L40.5857 56.5422C41.3667 55.7612 42.633 55.7612 43.4141 56.5422Z" fill="#0F1D2E"/>
<path fill-rule="evenodd" clip-rule="evenodd" d="M40 14C40 12.8954 40.8954 12 42 12H55C56.1046 12 57 12.8954 57 14V17.9091L64 17.9091C65.1046 17.9091 66 18.8045 66 19.9091V27C66 28.1046 65.1046 29 64 29H33C31.8954 29 31 28.1046 31 27V19.9091C31 18.8045 31.8954 17.9091 33 17.9091L40 17.9091V14ZM44 16V17.9091C44 20.1182 42.2091 21.9091 40 21.9091H35V25H62V21.9091H57C54.7909 21.9091 53 20.1182 53 17.9091V16H44Z" fill="#0F1D2E"/>
</svg>
