<svg width="96" height="96" viewBox="0 0 96 96" fill="none" xmlns="http://www.w3.org/2000/svg">
<path d="M63 55C63 62.1797 57.1797 68 50 68C42.8203 68 37 62.1797 37 55C37 47.8203 42.8203 42 50 42C57.1797 42 63 47.8203 63 55Z" fill="#8FC1FF"/>
<path fill-rule="evenodd" clip-rule="evenodd" d="M45.6882 22.5794C48.0462 20.1428 51.9534 20.1428 54.3114 22.5794L78.1555 47.2183C80.6118 49.7565 78.8132 54 75.2811 54H70.9992V72C70.9992 75.3137 68.3129 78 64.9992 78H34.9992C31.6855 78 28.9992 75.3137 28.9992 72V54H24.7184C21.1863 54 19.3877 49.7565 21.844 47.2183L45.6882 22.5794ZM51.437 25.3611C50.651 24.5489 49.3486 24.5489 48.5626 25.3611L24.7184 50H29.9992C31.6561 50 32.9992 51.3432 32.9992 53V72C32.9992 73.1046 33.8946 74 34.9992 74H64.9992C66.1038 74 66.9992 73.1046 66.9992 72V53C66.9992 51.3432 68.3423 50 69.9992 50L75.2811 50L51.437 25.3611Z" fill="#0F1D2E"/>
<path fill-rule="evenodd" clip-rule="evenodd" d="M48.5858 47.5858C49.3668 46.8047 50.6332 46.8047 51.4142 47.5858L57.4142 53.5858C58.1953 54.3668 58.1953 55.6332 57.4142 56.4142L51.4142 62.4142C50.6332 63.1953 49.3668 63.1953 48.5858 62.4142C47.8047 61.6332 47.8047 60.3668 48.5858 59.5858L51.1716 57H44C42.8954 57 42 56.1046 42 55C42 53.8954 42.8954 53 44 53H51.1716L48.5858 50.4142C47.8047 49.6332 47.8047 48.3668 48.5858 47.5858Z" fill="#0F1D2E"/>
<path fill-rule="evenodd" clip-rule="evenodd" d="M17 60C17 58.8954 17.8954 58 19 58L23 58C24.1046 58 25 58.8954 25 60C25 61.1046 24.1046 62 23 62L19 62C17.8954 62 17 61.1046 17 60Z" fill="#0F1D2E"/>
<path fill-rule="evenodd" clip-rule="evenodd" d="M13 66C13 64.8954 13.8954 64 15 64L23 64C24.1046 64 25 64.8954 25 66C25 67.1046 24.1046 68 23 68L15 68C13.8954 68 13 67.1046 13 66Z" fill="#0F1D2E"/>
<path fill-rule="evenodd" clip-rule="evenodd" d="M17 72C17 70.8954 17.8954 70 19 70L23 70C24.1046 70 25 70.8954 25 72C25 73.1046 24.1046 74 23 74L19 74C17.8954 74 17 73.1046 17 72Z" fill="#0F1D2E"/>
</svg>
