<svg width="96" height="96" viewBox="0 0 96 96" fill="none" xmlns="http://www.w3.org/2000/svg">
<path fill-rule="evenodd" clip-rule="evenodd" d="M38 39H60V45H48V49H42V45H38V39Z" fill="#8FC1FF"/>
<path fill-rule="evenodd" clip-rule="evenodd" d="M70 19C70 16.7909 68.2091 15 66 15H36C35.4696 15 34.9609 15.2107 34.5858 15.5858L22.5858 27.5858C22.2107 27.9609 22 28.4696 22 29V71C22 73.2091 23.7909 75 26 75H66C68.2091 75 70 73.2091 70 71V56C70 54.8954 69.1046 54 68 54C66.8954 54 66 54.8954 66 56V71H26V31H34C36.2091 31 38 29.2091 38 27V19H66V26C66 27.1046 66.8954 28 68 28C69.1046 28 70 27.1046 70 26V19ZM34 21.8284L28.8284 27H34V21.8284Z" fill="#0F1D2E"/>
<path fill-rule="evenodd" clip-rule="evenodd" d="M50 57C50 55.8954 49.1046 55 48 55H32C30.8954 55 30 55.8954 30 57C30 58.1046 30.8954 59 32 59H48C49.1046 59 50 58.1046 50 57Z" fill="#0F1D2E"/>
<path fill-rule="evenodd" clip-rule="evenodd" d="M46 65C46 63.8954 45.1046 63 44 63H32C30.8954 63 30 63.8954 30 65C30 66.1046 30.8954 67 32 67H44C45.1046 67 46 66.1046 46 65Z" fill="#0F1D2E"/>
<path fill-rule="evenodd" clip-rule="evenodd" d="M36 39C36 37.8954 36.8954 37 38 37H60C61.1046 37 62 37.8954 62 39V45C62 46.1046 61.1046 47 60 47H50V49C50 50.1046 49.1046 51 48 51H42C40.8954 51 40 50.1046 40 49V47H38C36.8954 47 36 46.1046 36 45V39ZM44 47H46V45C46 43.8954 46.8954 43 48 43H58V41H40V43H42C43.1046 43 44 43.8954 44 45V47Z" fill="#0F1D2E"/>
<path fill-rule="evenodd" clip-rule="evenodd" d="M67 36C64.2386 36 62 38.2386 62 41C62 43.7614 64.2386 46 67 46C69.7614 46 72 43.7614 72 41C72 38.2386 69.7614 36 67 36ZM58 41C58 36.0294 62.0294 32 67 32C71.9706 32 76 36.0294 76 41C76 45.9706 71.9706 50 67 50C62.0294 50 58 45.9706 58 41Z" fill="#0F1D2E"/>
<path fill-rule="evenodd" clip-rule="evenodd" d="M42 25C42 23.8954 42.8954 23 44 23H54C55.1046 23 56 23.8954 56 25C56 26.1046 55.1046 27 54 27H44C42.8954 27 42 26.1046 42 25Z" fill="#0F1D2E"/>
</svg>
