<svg width="96" height="96" viewBox="0 0 96 96" fill="none" xmlns="http://www.w3.org/2000/svg">
<path d="M42 47C42 45.8954 42.8954 45 44 45H55C56.1046 45 57 45.8954 57 47V54C57 55.1046 56.1046 56 55 56H44C42.8954 56 42 55.1046 42 54V47Z" fill="#8FC1FF"/>
<path fill-rule="evenodd" clip-rule="evenodd" d="M26 19C26 16.7909 27.7909 15 30 15H61C61.5606 15 62.0955 15.2353 62.4743 15.6486L73.4743 27.6486C73.8124 28.0174 74 28.4996 74 29V67C74 69.2091 72.2091 71 70 71H30C27.7909 71 26 69.2091 26 67V19ZM59 19L30 19V67H70V31H63C60.7909 31 59 29.2091 59 27V19ZM63 22.1416L67.4535 27H63V22.1416Z" fill="#0F1D2E"/>
<path fill-rule="evenodd" clip-rule="evenodd" d="M18 26C18 23.7909 19.7909 22 22 22H28C29.1046 22 30 22.8954 30 24C30 25.1046 29.1046 26 28 26L22 26V73C22 74.1046 22.8954 75 24 75H66V69C66 67.8954 66.8954 67 68 67C69.1046 67 70 67.8954 70 69V75C70 77.2091 68.2091 79 66 79H24C20.6863 79 18 76.3137 18 73V26Z" fill="#0F1D2E"/>
<path fill-rule="evenodd" clip-rule="evenodd" d="M34 25C34 23.8954 34.8954 23 36 23H46C47.1046 23 48 23.8954 48 25C48 26.1046 47.1046 27 46 27H36C34.8954 27 34 26.1046 34 25Z" fill="#0F1D2E"/>
<path fill-rule="evenodd" clip-rule="evenodd" d="M40 47C40 44.7909 41.7909 43 44 43H55C57.2091 43 59 44.7909 59 47V54C59 56.2091 57.2091 58 55 58H44C41.7909 58 40 56.2091 40 54V47ZM55 47H44V54H55V47Z" fill="#0F1D2E"/>
<path fill-rule="evenodd" clip-rule="evenodd" d="M47.0779 38.6413C47.0441 38.6989 47 38.8011 47 39V45C47 46.1046 46.1046 47 45 47C43.8954 47 43 46.1046 43 45V39C43 37.1612 43.942 35.8118 45.2014 35.0104C46.374 34.2643 47.7813 34 49 34C50.2187 34 51.626 34.2643 52.7986 35.0104C54.058 35.8118 55 37.1612 55 39C55 40.1046 54.1046 41 53 41C51.8954 41 51 40.1046 51 39C51 38.8011 50.9559 38.6989 50.9221 38.6413C50.8834 38.5754 50.8076 38.4847 50.6511 38.3851C50.307 38.1661 49.7143 38 49 38C48.2857 38 47.693 38.1661 47.3489 38.3851C47.1924 38.4847 47.1166 38.5754 47.0779 38.6413Z" fill="#0F1D2E"/>
</svg>
