<svg width="96" height="96" viewBox="0 0 96 96" fill="none" xmlns="http://www.w3.org/2000/svg">
<path d="M34 35C34 34.4477 34.4477 34 35 34H65C65.5523 34 66 34.4477 66 35V53C66 53.5523 65.5523 54 65 54H35C34.4477 54 34 53.5523 34 53V35Z" fill="#8FC1FF"/>
<path fill-rule="evenodd" clip-rule="evenodd" d="M26 19C26 16.7909 27.7909 15 30 15H61C61.5304 15 62.0391 15.2107 62.4142 15.5858L73.4142 26.5858C73.7893 26.9609 74 27.4696 74 28V67C74 69.2091 72.2091 71 70 71H30C27.7909 71 26 69.2091 26 67V19ZM59 19L30 19V67H70V30H63C60.7909 30 59 28.2091 59 26V19ZM63 21.8284L67.1716 26H63V21.8284Z" fill="#0F1D2E"/>
<path fill-rule="evenodd" clip-rule="evenodd" d="M18 26C18 23.7909 19.7909 22 22 22H28C29.1046 22 30 22.8954 30 24C30 25.1046 29.1046 26 28 26L22 26V73C22 74.1046 22.8954 75 24 75H66V69C66 67.8954 66.8954 67 68 67C69.1046 67 70 67.8954 70 69V75C70 77.2091 68.2091 79 66 79H24C20.6863 79 18 76.3137 18 73V26Z" fill="#0F1D2E"/>
<path fill-rule="evenodd" clip-rule="evenodd" d="M34 25C34 23.8954 34.8954 23 36 23H46C47.1046 23 48 23.8954 48 25C48 26.1046 47.1046 27 46 27H36C34.8954 27 34 26.1046 34 25Z" fill="#0F1D2E"/>
<path fill-rule="evenodd" clip-rule="evenodd" d="M34 61C34 59.8954 34.8954 59 36 59H48C49.1046 59 50 59.8954 50 61C50 62.1046 49.1046 63 48 63H36C34.8954 63 34 62.1046 34 61Z" fill="#0F1D2E"/>
<path fill-rule="evenodd" clip-rule="evenodd" d="M44.0331 36.0003C44.7475 36.0122 45.4012 36.4042 45.7481 37.0287L49.4605 43.7109L52.5856 40.5858C53.0211 40.1503 53.6329 39.9397 54.2442 40.015C54.8554 40.0902 55.3979 40.4429 55.7148 40.971L57.1454 43.3553L60.3723 38.8375C61.0144 37.9387 62.2635 37.7305 63.1623 38.3725C64.0611 39.0146 64.2693 40.2637 63.6273 41.1625L58.6273 48.1625C58.2354 48.7111 57.5936 49.0253 56.92 48.9984C56.2464 48.9715 55.6317 48.6071 55.2848 48.029L53.6027 45.2255L50.414 48.4142C49.9703 48.858 49.3439 49.0677 48.7224 48.9807C48.1009 48.8936 47.5563 48.5199 47.2515 47.9713L43.9332 41.9983L39.7148 49.029C39.1465 49.9762 37.918 50.2833 36.9708 49.715C36.0237 49.1467 35.7165 47.9182 36.2848 46.971L42.2848 36.971C42.6524 36.3584 43.3188 35.9884 44.0331 36.0003Z" fill="#0F1D2E"/>
</svg>
