<svg width="96" height="96" viewBox="0 0 96 96" fill="none" xmlns="http://www.w3.org/2000/svg">
<path d="M61 19.0001C61 17.8955 60.1046 17.0001 59 17.0001H30C28.8954 17.0001 28 17.8955 28 19.0001V67.0001C28 68.1046 28.8954 69.0001 30 69.0001H70C71.1046 69.0001 72 68.1046 72 67.0001V30.0001C72 28.8955 71.1046 28.0001 70 28.0001H63C61.8954 28.0001 61 27.1046 61 26.0001V19.0001Z" fill="#8FC1FF"/>
<path d="M61 28V18L71 28H61Z" fill="#8FC1FF"/>
<path fill-rule="evenodd" clip-rule="evenodd" d="M26 19C26 16.7909 27.7909 15 30 15H61C61.5304 15 62.0391 15.2107 62.4142 15.5858L73.4142 26.5858C73.7893 26.9609 74 27.4696 74 28V67C74 69.2091 72.2091 71 70 71H30C27.7909 71 26 69.2091 26 67V19ZM59 19L30 19V67H70V30H63C60.7909 30 59 28.2091 59 26V19ZM63 21.8284L67.1716 26H63V21.8284Z" fill="#0F1D2E"/>
<path fill-rule="evenodd" clip-rule="evenodd" d="M18 26C18 23.7909 19.7909 22 22 22H28C29.1046 22 30 22.8954 30 24C30 25.1046 29.1046 26 28 26L22 26V73C22 74.1046 22.8954 75 24 75H66V69C66 67.8954 66.8954 67 68 67C69.1046 67 70 67.8954 70 69V75C70 77.2091 68.2091 79 66 79H24C20.6863 79 18 76.3137 18 73V26Z" fill="#0F1D2E"/>
<path fill-rule="evenodd" clip-rule="evenodd" d="M34 25C34 23.8954 34.8954 23 36 23H46C47.1046 23 48 23.8954 48 25C48 26.1046 47.1046 27 46 27H36C34.8954 27 34 26.1046 34 25Z" fill="#0F1D2E"/>
<path fill-rule="evenodd" clip-rule="evenodd" d="M34 38C34 36.8954 34.8954 36 36 36H60C61.1046 36 62 36.8954 62 38C62 39.1046 61.1046 40 60 40H36C34.8954 40 34 39.1046 34 38Z" fill="#0F1D2E"/>
<path fill-rule="evenodd" clip-rule="evenodd" d="M34 46C34 44.8954 34.8954 44 36 44H60C61.1046 44 62 44.8954 62 46C62 47.1046 61.1046 48 60 48H36C34.8954 48 34 47.1046 34 46Z" fill="#0F1D2E"/>
<path fill-rule="evenodd" clip-rule="evenodd" d="M34 54C34 52.8954 34.8954 52 36 52H48C49.1046 52 50 52.8954 50 54C50 55.1046 49.1046 56 48 56H36C34.8954 56 34 55.1046 34 54Z" fill="#0F1D2E"/>
</svg>
