<svg width="96" height="96" viewBox="0 0 96 96" fill="none" xmlns="http://www.w3.org/2000/svg">
<path d="M18 40C18 38.8954 18.8954 38 20 38H42C43.1046 38 44 38.8954 44 40V51C44 52.1046 43.1046 53 42 53H41C39.8954 53 39 53.8954 39 55V58L31.4864 53.304C31.1685 53.1053 30.8012 53 30.4264 53H20C18.8954 53 18 52.1046 18 51V40Z" fill="#8FC1FF"/>
<path d="M78 35C78 33.8954 77.1046 33 76 33H54C52.8954 33 52 33.8954 52 35V46C52 47.1046 52.8954 48 54 48H55C56.1046 48 57 48.8954 57 50V53L64.5136 48.304C64.8315 48.1053 65.1988 48 65.5736 48H76C77.1046 48 78 47.1046 78 46V35Z" fill="#8FC1FF"/>
<path fill-rule="evenodd" clip-rule="evenodd" d="M73 19C73 16.7909 71.2091 15 69 15H37C36.4696 15 35.9609 15.2107 35.5858 15.5858L23.5858 27.5858C23.2107 27.9609 23 28.4696 23 29V38.5C23 39.6046 23.8954 40.5 25 40.5C26.1046 40.5 27 39.6046 27 38.5V31H35C37.2091 31 39 29.2091 39 27V19H69V33C69 34.1046 69.8954 35 71 35C72.1046 35 73 34.1046 73 33V19ZM35 21.8284L29.8284 27H35V21.8284ZM71 46C69.8954 46 69 46.8954 69 48V71H27V53C27 51.8954 26.1046 51 25 51C23.8954 51 23 51.8954 23 53V71C23 73.2091 24.7909 75 27 75H69C71.2091 75 73 73.2091 73 71V48C73 46.8954 72.1046 46 71 46Z" fill="#0F1D2E"/>
<path fill-rule="evenodd" clip-rule="evenodd" d="M65 65C65 66.1046 64.1046 67 63 67H33C31.8954 67 31 66.1046 31 65C31 63.8954 31.8954 63 33 63L63 63C64.1046 63 65 63.8954 65 65Z" fill="#0F1D2E"/>
<path fill-rule="evenodd" clip-rule="evenodd" d="M43 25C43 23.8954 43.8954 23 45 23H55C56.1046 23 57 23.8954 57 25C57 26.1046 56.1046 27 55 27H45C43.8954 27 43 26.1046 43 25Z" fill="#0F1D2E"/>
<path fill-rule="evenodd" clip-rule="evenodd" d="M16 40C16 37.7909 17.7909 36 20 36H42C44.2091 36 46 37.7909 46 40V51C46 53.2091 44.2091 55 42 55H41V58C41 58.7271 40.6054 59.3968 39.9695 59.7493C39.3336 60.1017 38.5565 60.0813 37.94 59.696L30.4264 55H20C17.7909 55 16 53.2091 16 51V40ZM42 40H20V51H30.4264C31.1761 51 31.9107 51.2107 32.5464 51.608L37.0421 54.4178C37.324 52.4846 38.9886 51 41 51H42V40Z" fill="#0F1D2E"/>
<path fill-rule="evenodd" clip-rule="evenodd" d="M80 35C80 32.7909 78.2091 31 76 31H54C51.7909 31 50 32.7909 50 35V46C50 48.2091 51.7909 50 54 50H55V53C55 53.7271 55.3946 54.3968 56.0305 54.7493C56.6664 55.1017 57.4435 55.0813 58.06 54.696L65.5736 50H76C78.2091 50 80 48.2091 80 46V35ZM54 35H76V46H65.5736C64.8239 46 64.0893 46.2107 63.4536 46.608L58.9579 49.4178C58.676 47.4846 57.0114 46 55 46H54V35Z" fill="#0F1D2E"/>
</svg>
