<svg width="96" height="96" viewBox="0 0 96 96" fill="none" xmlns="http://www.w3.org/2000/svg">
<path d="M61 19.0001C61 17.8955 60.1046 17.0001 59 17.0001H30C28.8954 17.0001 28 17.8955 28 19.0001V53.2968C28 54.2784 28.7124 55.115 29.6815 55.2713L43.0526 57.4279C43.3471 57.4754 43.6273 57.5882 43.8726 57.758L49.4863 61.6444C49.8208 61.876 50.2179 62.0001 50.6248 62.0001H60.3696C60.7799 62.0001 61.1803 62.1263 61.5165 62.3616L65.2528 64.977C65.7274 65.3093 66.3228 65.4194 66.8848 65.2789L70.4851 64.3788C71.3754 64.1562 72 63.3562 72 62.4385V30.0001C72 28.8955 71.1046 28.0001 70 28.0001H63C61.8954 28.0001 61 27.1046 61 26.0001V19.0001Z" fill="#8FC1FF"/>
<path d="M61 28V18L71 28H61Z" fill="#8FC1FF"/>
<path fill-rule="evenodd" clip-rule="evenodd" d="M26 19C26 16.7909 27.7909 15 30 15H61C61.5304 15 62.0391 15.2107 62.4142 15.5858L73.4142 26.5858C73.7893 26.9609 74 27.4696 74 28V55C74 56.1046 73.1046 57 72 57C70.8954 57 70 56.1046 70 55V30H63C60.7909 30 59 28.2091 59 26V19L30 19V45C30 46.1046 29.1046 47 28 47C26.8954 47 26 46.1046 26 45V19ZM63 21.8284L67.1716 26H63V21.8284Z" fill="#0F1D2E"/>
<path fill-rule="evenodd" clip-rule="evenodd" d="M18 26C18 23.7909 19.7909 22 22 22H28C29.1046 22 30 22.8954 30 24C30 25.1046 29.1046 26 28 26H22V45C22 46.1046 21.1046 47 20 47C18.8954 47 18 46.1046 18 45V26Z" fill="#0F1D2E"/>
<path fill-rule="evenodd" clip-rule="evenodd" d="M34 25C34 23.8954 34.8954 23 36 23H46C47.1046 23 48 23.8954 48 25C48 26.1046 47.1046 27 46 27H36C34.8954 27 34 26.1046 34 25Z" fill="#0F1D2E"/>
<path fill-rule="evenodd" clip-rule="evenodd" d="M34 38C34 36.8954 34.8954 36 36 36H60C61.1046 36 62 36.8954 62 38C62 39.1046 61.1046 40 60 40H36C34.8954 40 34 39.1046 34 38Z" fill="#0F1D2E"/>
<path fill-rule="evenodd" clip-rule="evenodd" d="M34 46C34 44.8954 34.8954 44 36 44H60C61.1046 44 62 44.8954 62 46C62 47.1046 61.1046 48 60 48H36C34.8954 48 34 47.1046 34 46Z" fill="#0F1D2E"/>
<path fill-rule="evenodd" clip-rule="evenodd" d="M10.4624 50.721C10.8424 50.2642 11.4058 50 12 50H26C27.1046 50 28 50.8954 28 52V53.0277C30.6694 53.0927 34.2998 53.2964 37.9113 53.899C40.2228 54.2846 42.5799 54.8421 44.6977 55.6576C46.7981 56.4665 48.7925 57.5782 50.2488 59.1463C50.6906 59.622 51.0124 59.8027 51.2184 59.884C51.4268 59.9662 51.6493 60 52 60H61.0436L61.0444 62L61.0443 64H52C51.3828 64 50.6046 63.9419 49.7505 63.6049C48.8941 63.267 48.0915 62.7014 47.3178 61.8683C46.4347 60.9173 45.0598 60.0834 43.2602 59.3904C41.4779 58.7041 39.4042 58.2033 37.253 57.8444C33.928 57.2896 30.5456 57.0938 28 57.029V72.5564C28.3784 72.682 28.8254 72.8305 29.3287 72.9978C30.9819 73.5474 33.2428 74.3 35.673 75.1124C40.5264 76.7346 46.0774 78.6022 48.8024 79.5619C50.94 80.3147 53.4574 80.0568 55.8423 79.3738C58.1301 78.7186 60.0481 77.7468 61.0182 77.2552C61.0451 77.2416 61.0713 77.2284 61.0967 77.2155C62.3116 76.6004 69.01 72.8309 74.2015 69.9094C76.8887 68.3972 79.1722 67.1122 80.0825 66.6094C81.2735 65.9517 81.7066 65.476 81.86 65.1791C81.953 64.999 82.0647 64.6651 81.7526 63.8124C81.4512 62.9892 81.0999 62.7318 80.8465 62.6321C80.5397 62.5115 79.8936 62.4339 78.6911 62.8767C77.4152 63.3464 74.1832 64.5894 71.25 65.7229C69.7879 66.2879 68.4064 66.8232 67.3904 67.2173C67.2182 67.2841 67.0564 67.3469 66.9066 67.405C66.8125 67.9978 66.6241 68.6915 66.2477 69.3591C65.3451 70.9596 63.6297 72.005 61.0519 72.0146L61.0444 72.0146H45C43.8954 72.0146 43 71.1192 43 70.0146C43 68.91 43.8954 68.0146 45 68.0146H61.0403C61.7761 68.0114 62.1783 67.8708 62.3845 67.76C62.5771 67.6565 62.6847 67.534 62.7635 67.3944C62.9703 67.0276 63 66.5271 63 65.9999C63 65.4719 62.9701 64.9729 62.7644 64.6089C62.6865 64.4711 62.5804 64.3506 62.3896 64.2488C62.1847 64.1394 61.7824 64 61.0443 64L61.0444 62L61.0436 60C63.6214 60 65.3417 61.0394 66.2468 62.6409C66.3619 62.8447 66.4595 63.0509 66.5422 63.256C67.4738 62.8948 68.6141 62.4532 69.8082 61.9918C72.7278 60.8636 75.9958 59.6065 77.309 59.123C79.0103 58.4966 80.7449 58.2941 82.3102 58.9095C83.9288 59.546 84.9408 60.8857 85.5088 62.4374C86.066 63.9597 86.1816 65.5285 85.4139 67.0148C84.7065 68.3843 83.4144 69.3388 82.0163 70.1109C81.1906 70.5669 79.0468 71.7733 76.4732 73.2214C71.2262 76.1738 64.193 80.1313 62.9034 80.7842C62.8708 80.8007 62.8367 80.818 62.801 80.8361C61.8057 81.3408 59.604 82.4573 56.9436 83.2192C54.2216 83.9987 50.7494 84.4884 47.4736 83.3347C44.7852 82.3879 39.2672 80.5313 34.405 78.906C31.9774 78.0946 29.7187 77.3427 28.0669 76.7936C28.0445 76.7861 28.0222 76.7787 28 76.7713V77C28 79.2091 26.2092 81 24 81H20.3273C17.4349 81 14.9543 78.9365 14.4276 76.0925L10.0335 52.3642C9.92526 51.7799 10.0824 51.1778 10.4624 50.721ZM24 55.0014C24 55.0006 24 54.9998 24 54.999V54H14.4044L18.3607 75.3642C18.5363 76.3122 19.3632 77 20.3273 77H24V55.0014Z" fill="#0F1D2E"/>
</svg>
