<svg width="96" height="96" viewBox="0 0 96 96" fill="none" xmlns="http://www.w3.org/2000/svg">
<path d="M12 36C12 34.8954 12.8954 34 14 34H46C47.1046 34 48 34.8954 48 36V57C48 58.1046 47.1046 59 46 59H14C12.8954 59 12 58.1046 12 57V36Z" fill="#8FC1FF"/>
<path d="M48 36C48 34.8954 48.8954 34 50 34H81C82.1046 34 83 34.8954 83 36V72C83 73.1046 82.1046 74 81 74H50C48.8954 74 48 73.1046 48 72V36Z" fill="#8FC1FF"/>
<path fill-rule="evenodd" clip-rule="evenodd" d="M28.7057 38.514C29.4707 37.8249 30.6338 37.8292 31.3937 38.5238L37.3494 43.9682C37.7639 44.3471 38 44.8828 38 45.4444V53C38 54.1046 37.1046 55 36 55H24C22.8954 55 22 54.1046 22 53V45.4444C22 44.8777 22.2404 44.3376 22.6614 43.9584L28.7057 38.514ZM26 46.3346V51H34V46.3258L30.0343 42.7007L26 46.3346Z" fill="#0F1D2E"/>
<path fill-rule="evenodd" clip-rule="evenodd" d="M14 22V72H46V23.0546C45.8476 22.9617 45.6774 22.8634 45.4932 22.7653C44.6648 22.3241 43.7607 22 43 22L14 22ZM48 22L49.246 20.4356C49.7224 20.815 50 21.3909 50 22V74C50 75.1046 49.1046 76 48 76H13.9859C11.7583 76 10 74.1906 10 72V22C10 19.8006 11.7737 18 13.9925 18L43 18C44.7282 18 46.3241 18.6759 47.3734 19.2347C47.9214 19.5265 48.3766 19.8171 48.6974 20.0364C48.8586 20.1466 48.9881 20.2403 49.0809 20.3093C49.1273 20.3438 49.1647 20.3723 49.1924 20.3936L49.2266 20.4203L49.2382 20.4294L49.246 20.4356C49.2464 20.4359 49.246 20.4356 48 22Z" fill="#0F1D2E"/>
<path fill-rule="evenodd" clip-rule="evenodd" d="M50 22.958V72H82V22H53.0666C51.947 22 51.0205 22.3596 50.3566 22.7378C50.2252 22.8127 50.1061 22.8872 50 22.958ZM48.3767 19.2622C49.4683 18.6404 51.0752 18 53.0666 18H82.0077C84.2268 18 86 19.8009 86 22V72C86 74.1906 84.2417 76 82.0141 76H48C46.8954 76 46 75.1046 46 74V22C46 21.4774 46.2046 20.9755 46.57 20.6018L48 22C46.57 20.6018 46.5705 20.6012 46.5711 20.6006L46.5722 20.5995L46.5747 20.597L46.5802 20.5914L46.5935 20.578C46.6034 20.5682 46.6153 20.5564 46.6293 20.5428C46.6572 20.5157 46.6933 20.4814 46.7373 20.441C46.8252 20.3602 46.9456 20.2544 47.0968 20.1321C47.3982 19.8885 47.8289 19.5742 48.3767 19.2622Z" fill="#0F1D2E"/>
<path fill-rule="evenodd" clip-rule="evenodd" d="M18 28C18 26.8954 18.8954 26 20 26H38C39.1046 26 40 26.8954 40 28C40 29.1046 39.1046 30 38 30H20C18.8954 30 18 29.1046 18 28Z" fill="#0F1D2E"/>
<path fill-rule="evenodd" clip-rule="evenodd" d="M18 66C18 64.8954 18.8954 64 20 64L34 64C35.1046 64 36 64.8954 36 66C36 67.1046 35.1046 68 34 68H20C18.8954 68 18 67.1046 18 66Z" fill="#0F1D2E"/>
<path fill-rule="evenodd" clip-rule="evenodd" d="M54 28C54 26.8954 54.8954 26 56 26L76 26C77.1046 26 78 26.8954 78 28C78 29.1046 77.1046 30 76 30L56 30C54.8954 30 54 29.1046 54 28Z" fill="#0F1D2E"/>
<path fill-rule="evenodd" clip-rule="evenodd" d="M66 49C67.1046 49 68 49.8954 68 51V56C68 57.1046 67.1046 58 66 58C64.8954 58 64 57.1046 64 56V55H56C54.8954 55 54 54.1046 54 53C54 51.8954 54.8954 51 56 51L64 51C64 49.8954 64.8954 49 66 49Z" fill="#0F1D2E"/>
<path fill-rule="evenodd" clip-rule="evenodd" d="M54 42C54 39.7909 55.7909 38 58 38H74C76.2091 38 78 39.7909 78 42V50C78 51.1046 77.1046 52 76 52C74.8954 52 74 51.1046 74 50V42H68V44C68 45.1046 67.1046 46 66 46C64.8954 46 64 45.1046 64 44V42H58V56C58 57.1046 57.1046 58 56 58C54.8954 58 54 57.1046 54 56V42ZM76 54C77.1046 54 78 54.8954 78 56V64C78 66.2091 76.2091 68 74 68H68C66.8954 68 66 67.1046 66 66C66 64.8954 66.8954 64 68 64H74V56C74 54.8954 74.8954 54 76 54ZM56 60C57.1046 60 58 60.8954 58 62V64H62C63.1046 64 64 64.8954 64 66C64 67.1046 63.1046 68 62 68H58C55.7909 68 54 66.2091 54 64V62C54 60.8954 54.8954 60 56 60Z" fill="#0F1D2E"/>
</svg>
