<svg width="96" height="96" viewBox="0 0 96 96" fill="none" xmlns="http://www.w3.org/2000/svg">
<path d="M84 47.5C84 61.5833 72.5833 73 58.5 73C44.4167 73 33 61.5833 33 47.5C33 33.4167 44.4167 22 58.5 22C72.5833 22 84 33.4167 84 47.5Z" fill="#8FC1FF"/>
<path fill-rule="evenodd" clip-rule="evenodd" d="M58.5 24C45.5213 24 35 34.5213 35 47.5C35 60.4787 45.5213 71 58.5 71C71.4787 71 82 60.4787 82 47.5C82 34.5213 71.4787 24 58.5 24ZM31 47.5C31 32.3122 43.3122 20 58.5 20C73.6878 20 86 32.3122 86 47.5C86 62.6878 73.6878 75 58.5 75C43.3122 75 31 62.6878 31 47.5Z" fill="#0F1D2E"/>
<path fill-rule="evenodd" clip-rule="evenodd" d="M42 43C42 41.8954 42.8954 41 44 41H63C64.1046 41 65 41.8954 65 43C65 44.1046 64.1046 45 63 45H44C42.8954 45 42 44.1046 42 43Z" fill="#0F1D2E"/>
<path fill-rule="evenodd" clip-rule="evenodd" d="M42 51C42 49.8954 42.8954 49 44 49L60 49C61.1046 49 62 49.8954 62 51C62 52.1046 61.1046 53 60 53L44 53C42.8954 53 42 52.1046 42 51Z" fill="#0F1D2E"/>
<path fill-rule="evenodd" clip-rule="evenodd" d="M13 63C13 61.8954 13.8954 61 15 61H27C28.1046 61 29 61.8954 29 63C29 64.1046 28.1046 65 27 65H15C13.8954 65 13 64.1046 13 63Z" fill="#0F1D2E"/>
<path fill-rule="evenodd" clip-rule="evenodd" d="M21 23C22.1046 23 23 23.8954 23 25L23 37C23 38.1046 22.1046 39 21 39C19.8954 39 19 38.1046 19 37L19 25C19 23.8954 19.8954 23 21 23Z" fill="#0F1D2E"/>
<path fill-rule="evenodd" clip-rule="evenodd" d="M13 31C13 29.8954 13.8954 29 15 29H27C28.1046 29 29 29.8954 29 31C29 32.1046 28.1046 33 27 33H15C13.8954 33 13 32.1046 13 31Z" fill="#0F1D2E"/>
<path fill-rule="evenodd" clip-rule="evenodd" d="M59.7353 34C54.788 34 50 39.3354 50 47C50 54.6646 54.788 60 59.7353 60C61.9693 60 63.9737 59.2121 65.5796 57.592C66.3572 56.8075 67.6235 56.802 68.408 57.5796C69.1925 58.3572 69.198 59.6235 68.4204 60.408C66.0299 62.8196 62.9876 64 59.7353 64C51.7202 64 46 55.9039 46 47C46 38.0961 51.7202 30 59.7353 30C62.9876 30 66.0299 31.1804 68.4204 33.592C69.198 34.3765 69.1925 35.6428 68.408 36.4204C67.6235 37.198 66.3572 37.1925 65.5796 36.408C63.9737 34.7879 61.9693 34 59.7353 34Z" fill="#0F1D2E"/>
</svg>
