<svg width="96" height="96" viewBox="0 0 96 96" fill="none" xmlns="http://www.w3.org/2000/svg">
<path d="M25 33.9998C25 31.7906 26.7909 29.9998 29 29.9998H67C69.2091 29.9998 71 31.7906 71 33.9998V71.9998C71 74.2089 69.2091 75.9998 67 75.9998H29C26.7909 75.9998 25 74.2089 25 71.9998V33.9998Z" fill="#8FC1FF"/>
<path d="M44.0018 56.9996V67.9996C44.0018 68.9621 44.9 69.9996 46 69.9996H50C51.1 69.9996 52 68.9621 52 67.9996V56.9996C53.1 56.9996 54 56.3371 54 55.3746V47.4996C54 45.5746 53.2 43.9996 51 43.9996H45C42.8 43.9996 42 45.5746 42 47.4996V55.3746C42 56.3371 42.9 56.9996 44 56.9996H44.0018Z" fill="#0F1D2E"/>
<path d="M51 38.9996C51 40.6565 49.6569 41.9996 48 41.9996C46.3431 41.9996 45 40.6565 45 38.9996C45 37.3428 46.3431 35.9996 48 35.9996C49.6569 35.9996 51 37.3428 51 38.9996Z" fill="#0F1D2E"/>
<path fill-rule="evenodd" clip-rule="evenodd" d="M23 33.9998C23 30.686 25.6863 27.9998 29 27.9998H67C70.3137 27.9998 73 30.686 73 33.9998V71.9998C73 75.3135 70.3137 77.9998 67 77.9998H29C25.6863 77.9998 23 75.3135 23 71.9998V33.9998ZM29 31.9998C27.8954 31.9998 27 32.8952 27 33.9998V71.9998C27 73.1043 27.8954 73.9998 29 73.9998H67C68.1046 73.9998 69 73.1043 69 71.9998V33.9998C69 32.8952 68.1046 31.9998 67 31.9998H29Z" fill="#0F1D2E"/>
<path fill-rule="evenodd" clip-rule="evenodd" d="M38.0001 13.9998C38.5936 13.9998 39.1565 14.2634 39.5365 14.7194L44.5365 20.7194C45.2436 21.5679 45.129 22.8291 44.2804 23.5362C43.4319 24.2433 42.1707 24.1287 41.4636 23.2801L38.0001 19.1239L34.5365 23.2801C33.8294 24.1287 32.5682 24.2433 31.7197 23.5362C30.8711 22.8291 30.7565 21.5679 31.4636 20.7194L36.4636 14.7194C36.8436 14.2634 37.4065 13.9998 38.0001 13.9998Z" fill="#0F1D2E"/>
<path fill-rule="evenodd" clip-rule="evenodd" d="M57.9999 23.9998C57.4064 23.9998 56.8435 23.7361 56.4635 23.2801L51.4635 17.2801C50.7564 16.4316 50.871 15.1704 51.7196 14.4633C52.5681 13.7562 53.8293 13.8708 54.5364 14.7194L58 18.8757L61.4635 14.7194C62.1706 13.8708 63.4318 13.7562 64.2803 14.4633C65.1289 15.1704 65.2435 16.4316 64.5364 17.2801L59.5364 23.2801C59.1564 23.7361 58.5935 23.9998 57.9999 23.9998Z" fill="#0F1D2E"/>
</svg>
