<svg width="96" height="96" viewBox="0 0 96 96" fill="none" xmlns="http://www.w3.org/2000/svg">
<path d="M84.5 51.9999H78.029V75.9999H48V25.9999H74L84.5 51.9999Z" fill="#8FC1FF"/>
<path fill-rule="evenodd" clip-rule="evenodd" d="M26.6511 28C25.8476 28 25.1222 28.4808 24.8091 29.2207L16.0179 49.9999H19.0001C20.657 49.9999 22.0001 51.343 22.0001 52.9999V71.9999C22.0001 73.1045 22.8956 73.9999 24.0001 73.9999H74.0001C75.1047 73.9999 76.0001 73.1045 76.0001 71.9999V52.9999C76.0001 51.343 77.3433 49.9999 79.0001 49.9999L81.9823 49.9999L72.6746 28H26.6511ZM21.1253 27.6622C22.0644 25.4423 24.2408 24 26.6511 24H73.3702C74.5555 24 75.6257 24.7093 76.0875 25.8008L85.6662 48.4413C86.782 51.0787 84.846 53.9999 81.9823 53.9999H80.0001V71.9999C80.0001 75.3136 77.3138 77.9999 74.0001 77.9999H24.0001C20.6864 77.9999 18.0001 75.3136 18.0001 71.9999V53.9999H16.0179C13.1542 53.9999 11.2182 51.0787 12.334 48.4413L21.1253 27.6622Z" fill="#0F1D2E"/>
<path d="M52.0586 60.3528C52.0586 59.2482 52.954 58.3528 54.0586 58.3528H58.0586C59.1632 58.3528 60.0586 59.2482 60.0586 60.3528V74.3528C60.0586 75.4574 59.1632 76.3528 58.0586 76.3528H54.0586C52.954 76.3528 52.0586 75.4574 52.0586 74.3528V60.3528Z" fill="#0F1D2E"/>
<path d="M64.0586 58.9999C64.0586 57.8953 64.954 56.9999 66.0586 56.9999H70.0586C71.1632 56.9999 72.0586 57.8953 72.0586 58.9999V62.9999C72.0586 64.1044 71.1632 64.9999 70.0586 64.9999H66.0586C64.954 64.9999 64.0586 64.1044 64.0586 62.9999V58.9999Z" fill="#0F1D2E"/>
</svg>
