<svg width="96" height="96" viewBox="0 0 96 96" fill="none" xmlns="http://www.w3.org/2000/svg">
<path d="M16 28.2308C16 27.551 16.551 27 17.2308 27H78.7692C79.449 27 80 27.551 80 28.2308V67.7692C80 68.449 79.449 69 78.7692 69H17.2308C16.551 69 16 68.449 16 67.7692V28.2308Z" fill="#8FC1FF"/>
<path fill-rule="evenodd" clip-rule="evenodd" d="M14 27C14 25.8954 14.8954 25 16 25H80C81.1046 25 82 25.8954 82 27V69C82 70.1046 81.1046 71 80 71H16C14.8954 71 14 70.1046 14 69V27ZM21.074 29L39.837 46.5121L45.3832 51.3095C46.8857 52.6091 49.1143 52.6091 50.6168 51.3095L56.163 46.5121L74.926 29H21.074ZM78 31.6024L60.4312 48L78 64.3976V31.6024ZM74.926 67L57.4492 50.6884L53.2336 54.3347C50.2286 56.934 45.7714 56.934 42.7664 54.3347L38.5508 50.6884L21.074 67H74.926ZM18 64.3976V31.6024L35.5688 48L18 64.3976Z" fill="#0F1D2E"/>
</svg>
