<svg width="96" height="96" viewBox="0 0 96 96" fill="none" xmlns="http://www.w3.org/2000/svg">
<path d="M29 69C29 67.8954 29.8954 67 31 67H65C66.1046 67 67 67.8954 67 69V81C67 82.1046 66.1046 83 65 83H31C29.8954 83 29 82.1046 29 81V69Z" fill="#8FC1FF"/>
<path fill-rule="evenodd" clip-rule="evenodd" d="M43.6882 22.5793C46.0462 20.1426 49.9534 20.1426 52.3114 22.5793L76.1555 47.2182C78.6118 49.7564 76.8132 53.9999 73.2811 53.9999H68.9992V67C68.9992 68.1046 68.1038 69 66.9992 69C65.8946 69 64.9992 68.1046 64.9992 67V52.9999C64.9992 51.343 66.3423 49.9999 67.9992 49.9999L73.2811 49.9999L49.437 25.3609C48.651 24.5487 47.3486 24.5487 46.5626 25.3609L22.7184 49.9999H27.9992C29.656 49.9999 30.9992 51.343 30.9992 52.9999V67C30.9992 68.1046 30.1038 69 28.9992 69C27.8946 69 26.9992 68.1046 26.9992 67V53.9999H22.7184C19.1863 53.9999 17.3877 49.7564 19.844 47.2182L43.6882 22.5793Z" fill="#0F1D2E"/>
<path fill-rule="evenodd" clip-rule="evenodd" d="M14 67C14 65.8954 14.8954 65 16 65H80C81.1046 65 82 65.8954 82 67C82 68.1046 81.1046 69 80 69H16C14.8954 69 14 68.1046 14 67Z" fill="#0F1D2E"/>
<path d="M51 53C51 51.8954 51.8954 51 53 51H57C58.1046 51 59 51.8954 59 53V65C59 66.1046 58.1046 67 57 67H53C51.8954 67 51 66.1046 51 65V53Z" fill="#0F1D2E"/>
<path d="M37 53C37 51.8954 37.8954 51 39 51H43C44.1046 51 45 51.8954 45 53V57C45 58.1046 44.1046 59 43 59H39C37.8954 59 37 58.1046 37 57V53Z" fill="#0F1D2E"/>
</svg>
