<svg width="96" height="96" viewBox="0 0 96 96" fill="none" xmlns="http://www.w3.org/2000/svg">
<path d="M28 28H68V76H28V28Z" fill="#8FC1FF"/>
<path fill-rule="evenodd" clip-rule="evenodd" d="M26 29.9999C26 27.7907 27.7909 25.9999 30 25.9999H66C68.2091 25.9999 70 27.7907 70 29.9999V73.9999C70 76.209 68.2091 77.9999 66 77.9999H58C56.8954 77.9999 56 77.1044 56 75.9999C56 74.8953 56.8954 73.9999 58 73.9999H66V29.9999L30 29.9999V73.9999H38C39.1046 73.9999 40 74.8953 40 75.9999C40 77.1044 39.1046 77.9999 38 77.9999H30C27.7909 77.9999 26 76.209 26 73.9999V29.9999Z" fill="#0F1D2E"/>
<path fill-rule="evenodd" clip-rule="evenodd" d="M26 20C26 18.8954 26.8954 18 28 18L68 18C69.1046 18 70 18.8954 70 20C70 21.1046 69.1046 22 68 22L28 22C26.8954 22 26 21.1046 26 20Z" fill="#0F1D2E"/>
<path fill-rule="evenodd" clip-rule="evenodd" d="M52 14C53.1046 14 54 14.8954 54 16V20C54 21.1046 53.1046 22 52 22C50.8954 22 50 21.1046 50 20V16C50 14.8954 50.8954 14 52 14Z" fill="#0F1D2E"/>
<path fill-rule="evenodd" clip-rule="evenodd" d="M60 14C61.1046 14 62 14.8954 62 16V20C62 21.1046 61.1046 22 60 22C58.8954 22 58 21.1046 58 20V16C58 14.8954 58.8954 14 60 14Z" fill="#0F1D2E"/>
<path d="M44.0018 69V80C44.0018 80.9625 44.9 82 46 82H50C51.1 82 52 80.9625 52 80V69C53.1 69 54 68.3375 54 67.375V59.5C54 57.575 53.2 56 51 56H45C42.8 56 42 57.575 42 59.5V67.375C42 68.3375 42.9 69 44 69H44.0018Z" fill="#0F1D2E"/>
<path d="M51 51C51 52.6569 49.6569 54 48 54C46.3431 54 45 52.6569 45 51C45 49.3431 46.3431 48 48 48C49.6569 48 51 49.3431 51 51Z" fill="#0F1D2E"/>
</svg>
