<svg width="96" height="96" viewBox="0 0 96 96" fill="none" xmlns="http://www.w3.org/2000/svg">
<path d="M29 75V56H42V62H54V68H66V75H29Z" fill="#8FC1FF"/>
<path fill-rule="evenodd" clip-rule="evenodd" d="M69 68C69 69.1046 68.1046 70 67 70H54C52.8954 70 52 69.1046 52 68C52 66.8954 52.8954 66 54 66H67C68.1046 66 69 66.8954 69 68Z" fill="#0F1D2E"/>
<path fill-rule="evenodd" clip-rule="evenodd" d="M55.999 62C55.999 60.8954 55.1036 60 53.999 60H41.999C40.8945 60 39.999 60.8954 39.999 62C39.999 63.1046 40.8945 64 41.999 64H51.999V68C51.999 69.1046 52.8945 70 53.999 70C55.1036 70 55.999 69.1046 55.999 68V62Z" fill="#0F1D2E"/>
<path fill-rule="evenodd" clip-rule="evenodd" d="M44.0015 56C44.0015 54.8954 43.106 54 42.0015 54H28.9995C27.8949 54 26.9995 54.8954 26.9995 56C26.9995 57.1046 27.8949 58 28.9995 58H40.0015V62C40.0015 63.1046 40.8969 64 42.0015 64C43.106 64 44.0015 63.1046 44.0015 62V56Z" fill="#0F1D2E"/>
<path fill-rule="evenodd" clip-rule="evenodd" d="M43.6886 22.5794C46.0467 20.1428 49.9538 20.1428 52.3119 22.5794L76.156 47.2184C78.6123 49.7565 76.8137 54 73.2816 54H68.9997V72C68.9997 75.3138 66.3134 78 62.9997 78H32.9997C29.686 78 26.9997 75.3138 26.9997 72V54H22.7189C19.1868 54 17.3882 49.7565 19.8445 47.2184L43.6886 22.5794ZM49.4375 25.3611C48.6515 24.5489 47.3491 24.5489 46.563 25.3611L22.7189 50H27.9997C29.6565 50 30.9997 51.3432 30.9997 53V72C30.9997 73.1046 31.8951 74 32.9997 74H62.9997C64.1042 74 64.9997 73.1046 64.9997 72V53C64.9997 51.3432 66.3428 50 67.9997 50L73.2816 50L49.4375 25.3611Z" fill="#0F1D2E"/>
</svg>
