<svg width="96" height="96" viewBox="0 0 96 96" fill="none" xmlns="http://www.w3.org/2000/svg">
<path d="M28 75V56H42.0541V62H55.027V68H68V75H28Z" fill="#8FC1FF"/>
<path fill-rule="evenodd" clip-rule="evenodd" d="M70 68C70 69.1046 69.1046 70 68 70H55C53.8954 70 53 69.1046 53 68C53 66.8954 53.8954 66 55 66H68C69.1046 66 70 66.8954 70 68Z" fill="#0F1D2E"/>
<path fill-rule="evenodd" clip-rule="evenodd" d="M57 62C57 60.8954 56.1046 60 55 60H41C39.8954 60 39 60.8954 39 62C39 63.1046 39.8954 64 41 64H53V68C53 69.1046 53.8954 70 55 70C56.1046 70 57 69.1046 57 68V62Z" fill="#0F1D2E"/>
<path fill-rule="evenodd" clip-rule="evenodd" d="M43 56C43 54.8954 42.1046 54 41 54H28C26.8954 54 26 54.8954 26 56C26 57.1046 26.8954 58 28 58H39V62C39 63.1046 39.8954 64 41 64C42.1046 64 43 63.1046 43 62V56Z" fill="#0F1D2E"/>
<path fill-rule="evenodd" clip-rule="evenodd" d="M26 30C26 27.7909 27.7909 26 30 26H66C68.2091 26 70 27.7909 70 30V74C70 76.2091 68.2091 78 66 78H30C27.7909 78 26 76.2091 26 74V30ZM66 30L30 30V74H66V30Z" fill="#0F1D2E"/>
<path fill-rule="evenodd" clip-rule="evenodd" d="M26 20C26 18.8954 26.8954 18 28 18L68 18C69.1046 18 70 18.8954 70 20C70 21.1046 69.1046 22 68 22L28 22C26.8954 22 26 21.1046 26 20Z" fill="#0F1D2E"/>
<path fill-rule="evenodd" clip-rule="evenodd" d="M52 14C53.1046 14 54 14.8954 54 16V20C54 21.1046 53.1046 22 52 22C50.8954 22 50 21.1046 50 20V16C50 14.8954 50.8954 14 52 14Z" fill="#0F1D2E"/>
<path fill-rule="evenodd" clip-rule="evenodd" d="M60 14C61.1046 14 62 14.8954 62 16V20C62 21.1046 61.1046 22 60 22C58.8954 22 58 21.1046 58 20V16C58 14.8954 58.8954 14 60 14Z" fill="#0F1D2E"/>
</svg>
