<svg width="96" height="96" viewBox="0 0 96 96" fill="none" xmlns="http://www.w3.org/2000/svg">
<path d="M76 51.8002H20L48.5185 21.8002L76 51.8002Z" fill="#8FC1FF"/>
<path fill-rule="evenodd" clip-rule="evenodd" d="M43.6891 22.5785C46.0472 20.1419 49.9543 20.1419 52.3124 22.5785L76.1565 47.2175C78.6128 49.7556 76.8142 53.9992 73.2821 53.9992H69.0002V71.9992C69.0002 75.3129 66.3139 77.9992 63.0002 77.9992H33.0002C29.6865 77.9992 27.0002 75.3129 27.0002 71.9992V53.9992H22.7194C19.1873 53.9992 17.3887 49.7556 19.845 47.2175L43.6891 22.5785ZM49.4379 25.3602C48.6519 24.548 47.3495 24.548 46.5635 25.3602L22.7194 49.9992H28.0002C29.657 49.9992 31.0002 51.3423 31.0002 52.9992V71.9992C31.0002 73.1037 31.8956 73.9992 33.0002 73.9992H63.0002C64.1047 73.9992 65.0002 73.1037 65.0002 71.9992V52.9992C65.0002 51.3423 66.3433 49.9992 68.0002 49.9992L73.2821 49.9992L49.4379 25.3602Z" fill="#0F1D2E"/>
</svg>
