<svg width="96" height="96" viewBox="0 0 96 96" fill="none" xmlns="http://www.w3.org/2000/svg">
<path d="M50.8992 28.1988L43.0758 22.4775C42.3396 21.9391 42.6454 20.7623 43.5506 20.65C48.6149 20.0215 55.6291 19.2481 59.9602 21.6484C60.5586 21.98 60.5198 22.8024 59.9434 23.1711L52.0284 28.234C51.6808 28.4564 51.2323 28.4424 50.8992 28.1988Z" fill="#8FC1FF"/>
<path d="M68.7411 41.9928L76.0689 46.865C76.7335 47.307 77.6125 46.8299 77.553 46.0339C77.1828 41.0855 75.3979 37.0606 73.7217 33.7369C73.3546 33.009 72.3157 33.0139 71.9462 33.7405L68.4034 40.7067C68.1734 41.159 68.3186 41.7118 68.7411 41.9928Z" fill="#8FC1FF"/>
<path d="M33.3838 41.0298L25.5963 46.8143C24.9365 47.3044 24.0102 46.8315 24.0627 46.0112C24.4486 39.9822 26.5585 35.6846 28.7788 31.7832C29.1917 31.0576 30.2601 31.1384 30.5678 31.9144L33.7171 39.8585C33.884 40.2794 33.7472 40.7598 33.3838 41.0298Z" fill="#8FC1FF"/>
<path fill-rule="evenodd" clip-rule="evenodd" d="M51.1051 35.4322C50.7459 35.1757 50.261 35.1849 49.9119 35.4551L40.5897 42.6687C40.2398 42.9394 40.1094 43.4078 40.269 43.8204L44.3465 54.3608C44.4955 54.746 44.8661 55 45.2791 55H55.7084C56.1276 55 56.5024 54.7385 56.647 54.3449L60.737 43.2156C60.8923 42.7929 60.746 42.3186 60.3796 42.0569L51.1051 35.4322Z" fill="#8FC1FF"/>
<path d="M60.938 61.5485L56.9552 70.7849C56.6025 71.6027 57.4093 72.4207 58.2157 72.0426C64.5885 69.0555 68.7368 65.02 71.8887 61.7019C72.527 61.0299 71.9791 59.9208 71.0569 60.0136L61.7561 60.9495C61.3949 60.9858 61.0817 61.2151 60.938 61.5485Z" fill="#8FC1FF"/>
<path d="M40.9108 61.7924L44.3669 70.0105C44.694 70.7885 43.9706 71.5882 43.1736 71.3106C35.3139 68.5724 32.6408 64.9741 30.0487 61.8812C29.4278 61.1403 30.0601 59.8937 31.0189 60.0171L40.1167 61.1882C40.4702 61.2337 40.7727 61.4639 40.9108 61.7924Z" fill="#8FC1FF"/>
<path fill-rule="evenodd" clip-rule="evenodd" d="M49.8233 33.3825C50.5246 32.8725 51.4747 32.8725 52.176 33.3825L63.176 41.3825C63.8671 41.8852 64.1625 42.7714 63.9112 43.5882L59.9112 56.5882C59.653 57.4274 58.8776 58 57.9996 58H43.9996C43.1216 58 42.3463 57.4274 42.0881 56.5882L38.0881 43.5882C37.8368 42.7714 38.1322 41.8852 38.8233 41.3825L49.8233 33.3825ZM42.3313 43.7772L45.4768 54H56.5225L59.668 43.7772L50.9996 37.473L42.3313 43.7772Z" fill="#0F1D2E"/>
<path fill-rule="evenodd" clip-rule="evenodd" d="M51 27C52.1046 27 53 27.8954 53 29V35C53 36.1046 52.1046 37 51 37C49.8954 37 49 36.1046 49 35V29C49 27.8954 49.8954 27 51 27Z" fill="#0F1D2E"/>
<path fill-rule="evenodd" clip-rule="evenodd" d="M45.0288 54.285C45.976 54.8533 46.2831 56.0818 45.7148 57.029L42.7148 62.029C42.1465 62.9761 40.918 63.2833 39.9709 62.715C39.0237 62.1467 38.7166 60.9181 39.2849 59.971L42.2849 54.971C42.8532 54.0238 44.0817 53.7167 45.0288 54.285Z" fill="#0F1D2E"/>
<path fill-rule="evenodd" clip-rule="evenodd" d="M38.3124 20.9263C38.9055 19.9944 40.1416 19.7197 41.0735 20.3127L50.9998 26.6294L60.926 20.3127C61.8579 19.7197 63.0941 19.9944 63.6871 20.9263C64.2801 21.8581 64.0054 23.0943 63.0735 23.6873L52.0735 30.6873C51.4184 31.1042 50.5811 31.1042 49.926 30.6873L38.926 23.6873C37.9941 23.0943 37.7194 21.8581 38.3124 20.9263Z" fill="#0F1D2E"/>
<path fill-rule="evenodd" clip-rule="evenodd" d="M69.8975 40.3676C69.5482 39.3197 68.4156 38.7534 67.3677 39.1027L61.3677 41.1027C60.3198 41.452 59.7535 42.5846 60.1028 43.6325C60.4521 44.6804 61.5847 45.2467 62.6326 44.8974L68.6326 42.8974C69.6805 42.5481 70.2468 41.4155 69.8975 40.3676Z" fill="#0F1D2E"/>
<path fill-rule="evenodd" clip-rule="evenodd" d="M72.6833 28.1204C71.6452 27.7429 70.4977 28.2784 70.1202 29.3165L66.1201 40.3165C65.84 41.0869 66.0583 41.9502 66.671 42.4948L75.671 50.4948C76.4965 51.2287 77.7607 51.1543 78.4945 50.3287C79.2284 49.5032 79.154 48.239 78.3284 47.5052L70.3434 40.4073L73.8794 30.6835C74.2569 29.6454 73.7214 28.4979 72.6833 28.1204Z" fill="#0F1D2E"/>
<path fill-rule="evenodd" clip-rule="evenodd" d="M32.1635 40.3675C32.5128 39.3196 33.6454 38.7533 34.6933 39.1026L40.6933 41.1026C41.7412 41.4519 42.3076 42.5845 41.9583 43.6324C41.609 44.6803 40.4763 45.2466 39.4284 44.8973L33.4284 42.8973C32.3805 42.548 31.8142 41.4154 32.1635 40.3675Z" fill="#0F1D2E"/>
<path fill-rule="evenodd" clip-rule="evenodd" d="M29.3777 28.1204C30.4158 27.7429 31.5633 28.2784 31.9408 29.3165L35.9409 40.3165C36.2211 41.0869 36.0027 41.9502 35.3901 42.4948L26.3901 50.4948C25.5645 51.2287 24.3003 51.1543 23.5665 50.3287C22.8327 49.5032 22.907 48.239 23.7326 47.5052L31.7177 40.4073L28.1816 30.6835C27.8042 29.6454 28.3397 28.4979 29.3777 28.1204Z" fill="#0F1D2E"/>
<path fill-rule="evenodd" clip-rule="evenodd" d="M47.9571 73.7558C46.9874 74.2848 45.7726 73.9274 45.2436 72.9577L39.6831 62.7634L26.5804 59.9556C25.5003 59.7242 24.8124 58.661 25.0438 57.581C25.2753 56.5009 26.3384 55.813 27.4185 56.0444L41.4185 59.0444C41.9882 59.1665 42.4763 59.5309 42.7553 60.0423L48.7552 71.0423C49.2842 72.012 48.9268 73.2269 47.9571 73.7558Z" fill="#0F1D2E"/>
<path fill-rule="evenodd" clip-rule="evenodd" d="M56.9707 54.285C56.0235 54.8533 55.7164 56.0818 56.2847 57.029L59.2847 62.029C59.853 62.9761 61.0815 63.2833 62.0287 62.715C62.9758 62.1467 63.2829 60.9181 62.7147 59.971L59.7147 54.971C59.1464 54.0238 57.9178 53.7167 56.9707 54.285Z" fill="#0F1D2E"/>
<path fill-rule="evenodd" clip-rule="evenodd" d="M54.0419 73.7558C55.0116 74.2848 56.2264 73.9274 56.7554 72.9577L62.316 62.7634L75.4186 59.9556C76.4987 59.7242 77.1866 58.661 76.9552 57.581C76.7237 56.5009 75.6606 55.813 74.5805 56.0444L60.5806 59.0444C60.011 59.1665 59.5228 59.5309 59.2439 60.0423L53.2438 71.0423C52.7149 72.012 53.0722 73.2269 54.0419 73.7558Z" fill="#0F1D2E"/>
<path fill-rule="evenodd" clip-rule="evenodd" d="M21.5613 60.7505C22.2514 61.6131 22.1116 62.8716 21.2491 63.5617L16.2493 67.5617C15.3868 68.2517 14.1282 68.1119 13.4382 67.2494C12.7481 66.3869 12.888 65.1283 13.7505 64.4383L18.7502 60.4383C19.6127 59.7482 20.8713 59.888 21.5613 60.7505Z" fill="#0F1D2E"/>
<path fill-rule="evenodd" clip-rule="evenodd" d="M26.5615 66.7507C27.2514 67.6132 27.1116 68.8718 26.249 69.5618L21.2487 73.5617C20.3862 74.2517 19.1276 74.1118 18.4376 73.2493C17.7476 72.3867 17.8875 71.1282 18.7501 70.4382L23.7503 66.4382C24.6129 65.7482 25.8715 65.8881 26.5615 66.7507Z" fill="#0F1D2E"/>
<path fill-rule="evenodd" clip-rule="evenodd" d="M51 21C37.1929 21 26 32.1929 26 46C26 59.8071 37.1929 71 51 71C64.8071 71 76 59.8071 76 46C76 32.1929 64.8071 21 51 21ZM22 46C22 29.9837 34.9837 17 51 17C67.0163 17 80 29.9837 80 46C80 62.0163 67.0163 75 51 75C34.9837 75 22 62.0163 22 46Z" fill="#0F1D2E"/>
</svg>
