<svg width="96" height="96" viewBox="0 0 96 96" fill="none" xmlns="http://www.w3.org/2000/svg">
<path d="M78 47.9999C78 64.5684 64.5685 77.9999 48 77.9999C31.4315 77.9999 18 64.5684 18 47.9999C18 31.4313 31.4315 17.9999 48 17.9999C64.5685 17.9999 78 31.4313 78 47.9999Z" fill="#8FC1FF"/>
<path fill-rule="evenodd" clip-rule="evenodd" d="M48 20C32.536 20 20 32.536 20 48C20 63.464 32.536 76 48 76C63.464 76 76 63.464 76 48C76 32.536 63.464 20 48 20ZM16 48C16 30.3269 30.3269 16 48 16C65.6731 16 80 30.3269 80 48C80 65.6731 65.6731 80 48 80C30.3269 80 16 65.6731 16 48Z" fill="#0F1D2E"/>
<path d="M32.0018 57V62C32.0018 62.9625 32.9 64 34 64H38C39.1 64 40 62.9625 40 62V55C41.1 55 42 54.3375 42 53.375L41 43.5C41 41.575 40.2 40 38 40H34C31.8 40 31 41.575 31 43.5L30 53.375C30 54.3375 30.9 55 32 55L32.0018 57Z" fill="#0F1D2E"/>
<path d="M39 35C39 36.6569 37.6569 38 36 38C34.3431 38 33 36.6569 33 35C33 33.3431 34.3431 32 36 32C37.6569 32 39 33.3431 39 35Z" fill="#0F1D2E"/>
<path d="M46.0018 52V62C46.0018 62.9625 46.9 64 48 64H52C53.1 64 54 62.9625 54 62V52C55.1 52 56 51.3375 56 50.375V43.5C56 41.575 55.2 40 53 40H47C44.8 40 44 41.575 44 43.5V50.375C44 51.3375 44.9 53 46 53L46.0018 52Z" fill="#0F1D2E"/>
<path d="M53 35C53 36.6569 51.6569 38 50 38C48.3431 38 47 36.6569 47 35C47 33.3431 48.3431 32 50 32C51.6569 32 53 33.3431 53 35Z" fill="#0F1D2E"/>
<path d="M58.9987 55V62C59 63 59.9786 64 61 64H63C64 64 65 63 65 62V55C66 55 66 54 66 53V48C66 46 65.2143 45 63 45H61C58.7143 45 58.0012 46 58 48L58.0012 53C58 54 58 55 58.9987 55Z" fill="#0F1D2E"/>
<path d="M65 40.9999C65 42.6567 63.6569 43.9999 62 43.9999C60.3431 43.9999 59 42.6567 59 40.9999C59 39.343 60.3431 37.9999 62 37.9999C63.6569 37.9999 65 39.343 65 40.9999Z" fill="#0F1D2E"/>
</svg>
