<svg width="96" height="96" viewBox="0 0 96 96" fill="none" xmlns="http://www.w3.org/2000/svg">
<path d="M28 30H68V78H28V30Z" fill="#8FC1FF"/>
<path fill-rule="evenodd" clip-rule="evenodd" d="M26 29.9999C26 27.7907 27.7909 25.9999 30 25.9999H66C68.2091 25.9999 70 27.7907 70 29.9999V73.9999C70 76.209 68.2091 77.9999 66 77.9999H30C27.7909 77.9999 26 76.209 26 73.9999V29.9999ZM66 29.9999L30 29.9999V73.9999H66V29.9999Z" fill="#0F1D2E"/>
<path fill-rule="evenodd" clip-rule="evenodd" d="M26 20C26 18.8954 26.8954 18 28 18L68 18C69.1046 18 70 18.8954 70 20C70 21.1046 69.1046 22 68 22L28 22C26.8954 22 26 21.1046 26 20Z" fill="#0F1D2E"/>
<path fill-rule="evenodd" clip-rule="evenodd" d="M52 14C53.1046 14 54 14.8954 54 16V20C54 21.1046 53.1046 22 52 22C50.8954 22 50 21.1046 50 20V16C50 14.8954 50.8954 14 52 14Z" fill="#0F1D2E"/>
<path fill-rule="evenodd" clip-rule="evenodd" d="M60 14C61.1046 14 62 14.8954 62 16V20C62 21.1046 61.1046 22 60 22C58.8954 22 58 21.1046 58 20V16C58 14.8954 58.8954 14 60 14Z" fill="#0F1D2E"/>
<path d="M51 62C51 60.8954 51.8954 60 53 60H57C58.1046 60 59 60.8954 59 62V74C59 75.1046 58.1046 76 57 76H53C51.8954 76 51 75.1046 51 74V62Z" fill="#0F1D2E"/>
<path d="M37 62C37 60.8954 37.8954 60 39 60H43C44.1046 60 45 60.8954 45 62V66C45 67.1046 44.1046 68 43 68H39C37.8954 68 37 67.1046 37 66V62Z" fill="#0F1D2E"/>
<path d="M37 50C37 48.8954 37.8954 48 39 48H43C44.1046 48 45 48.8954 45 50V54C45 55.1046 44.1046 56 43 56H39C37.8954 56 37 55.1046 37 54V50Z" fill="#0F1D2E"/>
<path d="M51 50C51 48.8954 51.8954 48 53 48H57C58.1046 48 59 48.8954 59 50V54C59 55.1046 58.1046 56 57 56H53C51.8954 56 51 55.1046 51 54V50Z" fill="#0F1D2E"/>
<path d="M37 38C37 36.8954 37.8954 36 39 36H43C44.1046 36 45 36.8954 45 38V42C45 43.1046 44.1046 44 43 44H39C37.8954 44 37 43.1046 37 42V38Z" fill="#0F1D2E"/>
<path d="M51 38C51 36.8954 51.8954 36 53 36H57C58.1046 36 59 36.8954 59 38V42C59 43.1046 58.1046 44 57 44H53C51.8954 44 51 43.1046 51 42V38Z" fill="#0F1D2E"/>
</svg>
