<svg width="96" height="96" viewBox="0 0 96 96" fill="none" xmlns="http://www.w3.org/2000/svg">
<path d="M52.7399 25.9138L74.6817 50.0497C75.231 50.6539 74.8637 51.6261 74.0522 51.7163L67.8896 52.401C67.3831 52.4573 67 52.8854 67 53.3949V64.9999C67 65.5522 66.5523 65.9999 66 65.9999H52C51.4477 65.9999 51 65.5522 51 64.9999V58.9999C51 58.4476 50.5523 57.9999 50 57.9999H29C28.4477 57.9999 28 57.5522 28 56.9999V50.9999C28 50.4476 28.4477 49.9999 29 49.9999H50C50.5523 49.9999 51 49.5522 51 48.9999V26.5865C51 25.6725 52.1251 25.2375 52.7399 25.9138Z" fill="#8FC1FF"/>
<path fill-rule="evenodd" clip-rule="evenodd" d="M43.6882 22.5793C46.0462 20.1426 49.9534 20.1426 52.3114 22.5793L76.1555 47.2182C78.6118 49.7564 76.8132 53.9999 73.2811 53.9999H68.9992V71.9999C68.9992 75.3136 66.3129 77.9999 62.9992 77.9999H32.9992C29.6855 77.9999 26.9992 75.3136 26.9992 71.9999V53.9999H22.7184C19.1863 53.9999 17.3877 49.7564 19.844 47.2182L43.6882 22.5793ZM49.437 25.3609C48.651 24.5487 47.3486 24.5487 46.5626 25.3609L22.7184 49.9999H27.9992C29.6561 49.9999 30.9992 51.343 30.9992 52.9999V71.9999C30.9992 73.1044 31.8946 73.9999 32.9992 73.9999H62.9992C64.1038 73.9999 64.9992 73.1044 64.9992 71.9999V52.9999C64.9992 51.343 66.3423 49.9999 67.9992 49.9999L73.2811 49.9999L49.437 25.3609Z" fill="#0F1D2E"/>
</svg>
