<svg width="96" height="96" viewBox="0 0 96 96" fill="none" xmlns="http://www.w3.org/2000/svg">
<path d="M22 26C22 24.8954 22.8954 24 24 24H72C73.1046 24 74 24.8954 74 26V74C74 75.1046 73.1046 76 72 76H24C22.8954 76 22 75.1046 22 74V26Z" fill="#8FC1FF"/>
<path fill-rule="evenodd" clip-rule="evenodd" d="M21.0861 65.599C20.305 64.8179 20.3051 63.5516 21.0861 62.7706L60.773 23.0857C61.5541 22.3046 62.8204 22.3047 63.6014 23.0857C64.3824 23.8668 64.3824 25.1331 63.6013 25.9141L23.9145 65.5991C23.1334 66.3801 21.8671 66.3801 21.0861 65.599Z" fill="#0F1D2E"/>
<path fill-rule="evenodd" clip-rule="evenodd" d="M75.1421 38.4141L36.4131 77.1433C35.632 77.9244 34.3657 77.9244 33.5846 77.1433C32.8036 76.3623 32.8036 75.0959 33.5846 74.3149L72.3136 35.5857C73.0947 34.8046 74.361 34.8046 75.1421 35.5856C75.9231 36.3667 75.9231 37.633 75.1421 38.4141Z" fill="#0F1D2E"/>
<path fill-rule="evenodd" clip-rule="evenodd" d="M75.4148 62.1839L60.4151 77.1838C59.6341 77.9648 58.3678 77.9649 57.5867 77.1838C56.8057 76.4028 56.8056 75.1364 57.5867 74.3554L72.5863 59.3555C73.3674 58.5745 74.6337 58.5744 75.4147 59.3555C76.1958 60.1365 76.1958 61.4029 75.4148 62.1839Z" fill="#0F1D2E"/>
<path fill-rule="evenodd" clip-rule="evenodd" d="M38.6459 25.4141L23.6462 40.4142C22.8652 41.1953 21.5989 41.1953 20.8178 40.4142C20.0367 39.6332 20.0367 38.3669 20.8178 37.5858L35.8174 22.5857C36.5984 21.8046 37.8648 21.8046 38.6458 22.5856C39.4269 23.3667 39.4269 24.633 38.6459 25.4141Z" fill="#0F1D2E"/>
<path fill-rule="evenodd" clip-rule="evenodd" d="M66.7907 68.7899C66.0096 69.5709 64.7433 69.5709 63.9623 68.7899L52.9506 57.7782C52.1695 56.9971 52.1695 55.7308 52.9506 54.9498C53.7316 54.1687 54.9979 54.1687 55.779 54.9498L66.7907 65.9615C67.5717 66.7425 67.5717 68.0088 66.7907 68.7899Z" fill="#0F1D2E"/>
<path fill-rule="evenodd" clip-rule="evenodd" d="M43.758 45.7573C42.9769 46.5383 41.7106 46.5383 40.9295 45.7573L29.6159 34.4437C28.8349 33.6626 28.8349 32.3963 29.6159 31.6152C30.3969 30.8342 31.6633 30.8342 32.4443 31.6152L43.758 42.9289C44.539 43.7099 44.539 44.9762 43.758 45.7573Z" fill="#0F1D2E"/>
<path fill-rule="evenodd" clip-rule="evenodd" d="M20 26C20 23.7909 21.7909 22 24 22H72C74.2091 22 76 23.7909 76 26V74C76 76.2091 74.2091 78 72 78H24C21.7909 78 20 76.2091 20 74V26ZM72 26L24 26V74H72V26Z" fill="#0F1D2E"/>
</svg>
