<svg width="96" height="96" viewBox="0 0 96 96" fill="none" xmlns="http://www.w3.org/2000/svg">
<path d="M16 62C16 60.8954 16.8954 60 18 60H78C79.1046 60 80 60.8954 80 62V74C80 75.1046 79.1046 76 78 76H18C16.8954 76 16 75.1046 16 74V62Z" fill="#8FC1FF"/>
<path fill-rule="evenodd" clip-rule="evenodd" d="M14 62C14 59.7909 15.7909 58 18 58H27C28.1046 58 29 58.8954 29 60C29 61.1046 28.1046 62 27 62H18V74H78V62H43C41.8954 62 41 61.1046 41 60C41 58.8954 41.8954 58 43 58H78C80.2091 58 82 59.7909 82 62V74C82 76.2091 80.2091 78 78 78H18C15.7909 78 14 76.2091 14 74V62Z" fill="#0F1D2E"/>
<path fill-rule="evenodd" clip-rule="evenodd" d="M54 45.9999C55.1046 45.9999 56 46.8953 56 47.9999V59.9999C56 61.1044 55.1046 61.9999 54 61.9999C52.8954 61.9999 52 61.1044 52 59.9999V47.9999C52 46.8953 52.8954 45.9999 54 45.9999Z" fill="#0F1D2E"/>
<path fill-rule="evenodd" clip-rule="evenodd" d="M62 45.9999C63.1046 45.9999 64 46.8953 64 47.9999V59.9999C64 61.1044 63.1046 61.9999 62 61.9999C60.8954 61.9999 60 61.1044 60 59.9999V47.9999C60 46.8953 60.8954 45.9999 62 45.9999Z" fill="#0F1D2E"/>
<path fill-rule="evenodd" clip-rule="evenodd" d="M48 51.9999C48 50.8953 48.8954 49.9999 50 49.9999H73C74.1046 49.9999 75 50.8953 75 51.9999C75 53.1044 74.1046 53.9999 73 53.9999H50C48.8954 53.9999 48 53.1044 48 51.9999Z" fill="#0F1D2E"/>
<path fill-rule="evenodd" clip-rule="evenodd" d="M70 45.9999C71.1046 45.9999 72 46.8953 72 47.9999V59.9999C72 61.1044 71.1046 61.9999 70 61.9999C68.8954 61.9999 68 61.1044 68 59.9999V47.9999C68 46.8953 68.8954 45.9999 70 45.9999Z" fill="#0F1D2E"/>
<path fill-rule="evenodd" clip-rule="evenodd" d="M25.3458 23.0796C24.9226 17.6875 29.6594 14 34.7358 14C37.3247 14 39.8643 14.9407 41.7295 16.4995C43.6005 18.0633 44.9457 20.4042 44.6487 23.139C44.6405 23.2148 44.6306 23.2892 44.6194 23.3622C48.0676 24.6486 51 27.6647 51 31.6923C51 34.7121 49.3534 37.006 47.2502 38.522C47.5871 39.5483 47.8302 40.6909 47.8302 41.8462C47.8302 48.5831 42.3066 54 35.2642 54C28.3512 54 22.1698 48.7059 22.1698 41.8462C22.1698 40.6927 22.4102 39.5518 22.7467 38.5253C20.636 37.0103 19 34.7182 19 31.6923C19 27.6487 21.8812 24.6066 25.3728 23.3393C25.3613 23.249 25.3522 23.1621 25.3458 23.0796ZM34.7358 18C31.3124 18 29.142 20.327 29.3335 22.7666C29.3424 22.8801 29.3787 23.0954 29.4471 23.3403C29.4794 23.4558 29.5137 23.5595 29.5462 23.6439C29.5622 23.6855 29.5763 23.7183 29.5874 23.7425C29.5989 23.7674 29.6048 23.7776 29.6037 23.7758C29.9339 24.3527 29.9559 25.0559 29.6624 25.6522C29.369 26.2486 28.7984 26.6603 28.1399 26.7507C25.1127 27.1662 23 29.3689 23 31.6923C23 33.4049 24.1163 34.8971 26.1238 35.9049C27.0912 36.3906 27.4966 37.5579 27.0385 38.5387C26.5286 39.6302 26.1698 40.8274 26.1698 41.8462C26.1698 46.1472 30.1938 50 35.2642 50C40.2028 50 43.8302 46.2701 43.8302 41.8462C43.8302 40.8317 43.4695 39.6348 42.959 38.5333C42.5058 37.5555 42.9089 36.3944 43.8706 35.9078C45.8747 34.8936 47 33.3913 47 31.6923C47 29.4253 44.8522 27.2042 41.8325 26.7467C41.288 26.6642 40.8017 26.3608 40.4881 25.9082C40.1745 25.4555 40.0614 24.8936 40.1755 24.3549C40.2269 24.112 40.302 23.8878 40.3559 23.7338C40.3841 23.653 40.4138 23.5715 40.4394 23.5012L40.4407 23.4975C40.468 23.4225 40.4921 23.3565 40.5155 23.2899C40.6119 23.016 40.6574 22.8425 40.6721 22.7071C40.7885 21.6355 40.2965 20.5149 39.1643 19.5687C38.0263 18.6176 36.3969 18 34.7358 18Z" fill="#0F1D2E"/>
<path fill-rule="evenodd" clip-rule="evenodd" d="M35 37C36.1046 37 37 37.8954 37 39V52.6153C37 52.6153 37 52.6153 37 52.6154C37 53.3235 37.0034 54.0231 37.0068 54.7107C37.0132 56.0248 37.0194 57.2953 37.0012 58.4986C37.0305 60.4383 37.125 62.0467 37.3954 63.3436C37.6402 64.5179 37.9797 65.1413 38.3109 65.4717C38.582 65.7422 39.0288 66 40 66C41.1046 66 42 66.8954 42 68C42 69.1045 41.1046 70 40 70C38.2212 70 36.668 69.4827 35.4859 68.3036C35.3158 68.1339 35.1585 67.9554 35.0128 67.7694C34.856 67.97 34.6855 68.1618 34.4999 68.3433C33.3129 69.504 31.7624 70 30 70C28.8954 70 28 69.1045 28 68C28 66.8954 28.8954 66 30 66C30.9876 66 31.4371 65.7437 31.7033 65.4834C32.0257 65.1682 32.3617 64.5674 32.6054 63.4088C32.8788 62.1082 32.9721 60.4813 33 58.4956C32.9804 57.2769 32.9868 55.9928 32.9933 54.6704C32.9966 53.9942 33 53.308 33 52.6154C33 52.6154 33 52.6154 33 52.6154V39C33 37.8954 33.8954 37 35 37Z" fill="#0F1D2E"/>
</svg>
