<svg width="96" height="96" viewBox="0 0 96 96" fill="none" xmlns="http://www.w3.org/2000/svg">
<path fill-rule="evenodd" clip-rule="evenodd" d="M78 34H18V76H78V34ZM33 68.0001V58C33 55.0968 38 44 41 44H55C58 44 63 55.0968 63 58V68C63 70.2091 61.2091 72 59 72H37C34.7909 72 33 70.2092 33 68.0001Z" fill="#8FC1FF"/>
<path d="M82 30C82 32.2091 80.2091 34 78 34H18C15.7909 34 14 32.2091 14 30V27C14 26.4477 14.4477 26 15 26H81C81.5523 26 82 26.4477 82 27V30Z" fill="#8FC1FF"/>
<path fill-rule="evenodd" clip-rule="evenodd" d="M84 76C84 77.1046 83.1046 78 82 78H70C68.8954 78 68 77.1046 68 76C68 74.8954 68.8954 74 70 74H76V36H20V74H26C27.1046 74 28 74.8954 28 76C28 77.1046 27.1046 78 26 78H14C12.8954 78 12 77.1046 12 76C12 74.8954 12.8954 74 14 74H16V35C16 33.3432 17.3431 32 19 32H77C78.6569 32 80 33.3431 80 35V74H82C83.1046 74 84 74.8954 84 76Z" fill="#0F1D2E"/>
<path fill-rule="evenodd" clip-rule="evenodd" d="M84 30C84 33.3137 81.3137 36 78 36H18C14.6863 36 12 33.3137 12 30V27C12 25.3431 13.3431 24 15 24H81C82.6569 24 84 25.3431 84 27V30ZM78 32C79.1046 32 80 31.1046 80 30V28H16V30C16 31.1046 16.8954 32 18 32H78Z" fill="#0F1D2E"/>
<path fill-rule="evenodd" clip-rule="evenodd" d="M35.7123 53.2584C35.1976 54.7045 35 55.6529 35 56V67.0002C35 68.1047 35.8953 69 37 69H59C60.1046 69 61 68.1046 61 67V56C61 55.6529 60.8024 54.7045 60.2877 53.2584C59.8039 51.8993 59.1219 50.3231 58.3491 48.8312C57.5698 47.3267 56.7371 45.9836 55.9693 45.0477C55.5837 44.5776 55.2638 44.2714 55.0266 44.0984C54.958 44.0484 54.908 44.0178 54.8755 44H41.1245C41.092 44.0178 41.042 44.0484 40.9734 44.0984C40.7362 44.2714 40.4163 44.5776 40.0307 45.0477C39.2629 45.9836 38.4302 47.3267 37.6509 48.8312C36.8781 50.3231 36.1961 51.8993 35.7123 53.2584ZM41.1698 43.9777C41.1698 43.9777 41.1693 43.9779 41.1683 43.9783L41.1698 43.9777ZM38.6164 40.8666C39.2029 40.4389 40.023 40 41 40H55C55.977 40 56.7971 40.4389 57.3836 40.8666C57.994 41.3118 58.557 41.8952 59.0619 42.5108C60.0754 43.7462 61.0552 45.3588 61.9009 46.9914C62.7531 48.6365 63.5086 50.3789 64.0561 51.917C64.5726 53.368 65 54.8955 65 56V67C65 70.3137 62.3137 73 59 73H37C33.6864 73 31 70.3141 31 67.0002V56C31 54.8955 31.4274 53.368 31.9439 51.917C32.4914 50.3789 33.2469 48.6365 34.0991 46.9914C34.9448 45.3588 35.9246 43.7462 36.9381 42.5108C37.443 41.8952 38.006 41.3118 38.6164 40.8666Z" fill="#0F1D2E"/>
<path fill-rule="evenodd" clip-rule="evenodd" d="M34 67.9999C35.1046 67.9999 36 68.8953 36 69.9999V75.9999C36 77.1044 35.1046 77.9999 34 77.9999C32.8954 77.9999 32 77.1044 32 75.9999V69.9999C32 68.8953 32.8954 67.9999 34 67.9999Z" fill="#0F1D2E"/>
<path fill-rule="evenodd" clip-rule="evenodd" d="M62 67.9999C63.1046 67.9999 64 68.8953 64 69.9999V75.9999C64 77.1044 63.1046 77.9999 62 77.9999C60.8954 77.9999 60 77.1044 60 75.9999V69.9999C60 68.8953 60.8954 67.9999 62 67.9999Z" fill="#0F1D2E"/>
<path fill-rule="evenodd" clip-rule="evenodd" d="M32 57C32 55.8954 32.8954 55 34 55H62C63.1046 55 64 55.8954 64 57C64 58.1046 63.1046 59 62 59H34C32.8954 59 32 58.1046 32 57Z" fill="#0F1D2E"/>
<path fill-rule="evenodd" clip-rule="evenodd" d="M28 55C28 53.8954 28.8954 53 30 53H33C34.1046 53 35 53.8954 35 55C35 56.1046 34.1046 57 33 57H30C28.8954 57 28 56.1046 28 55Z" fill="#0F1D2E"/>
<path fill-rule="evenodd" clip-rule="evenodd" d="M61 55C61 53.8954 61.8954 53 63 53H66C67.1046 53 68 53.8954 68 55C68 56.1046 67.1046 57 66 57H63C61.8954 57 61 56.1046 61 55Z" fill="#0F1D2E"/>
<path fill-rule="evenodd" clip-rule="evenodd" d="M43 65C43 63.8954 43.8954 63 45 63H51C52.1046 63 53 63.8954 53 65C53 66.1046 52.1046 67 51 67H45C43.8954 67 43 66.1046 43 65Z" fill="#0F1D2E"/>
<path d="M41 65C41 66.1046 40.1046 67 39 67C37.8954 67 37 66.1046 37 65C37 63.8954 37.8954 63 39 63C40.1046 63 41 63.8954 41 65Z" fill="#0F1D2E"/>
<path d="M59 65C59 66.1046 58.1046 67 57 67C55.8954 67 55 66.1046 55 65C55 63.8954 55.8954 63 57 63C58.1046 63 59 63.8954 59 65Z" fill="#0F1D2E"/>
</svg>
