<svg width="96" height="96" viewBox="0 0 96 96" fill="none" xmlns="http://www.w3.org/2000/svg">
<path d="M45 30C45 29.4477 45.4477 29 46 29H80C80.5523 29 81 29.4477 81 30V66C81 66.5523 80.5523 67 80 67H46C45.4477 67 45 66.5523 45 66V30Z" fill="#8FC1FF"/>
<path fill-rule="evenodd" clip-rule="evenodd" d="M33.4179 19.4642C31.9279 16.5277 34.4261 13.1492 37.6703 13.7134L41.7979 14.4312C43.5023 14.7276 44.8231 16.0861 45.0713 17.7981L45.1496 18.3383L47.7199 18.1071C49.1042 17.9826 50.4233 18.6714 51.1183 19.8514L55.614 18.8483C57.2347 18.4867 58.9103 19.1641 59.8244 20.5504L64.6699 27.8991C65.2779 28.8212 65.0233 30.0617 64.1011 30.6697C63.179 31.2778 61.9385 31.0231 61.3305 30.101L56.485 22.7523L51.671 23.8264C50.1327 24.1696 48.5648 23.464 47.7932 22.1167L45.508 22.3223C43.3916 22.5126 41.4958 21.0151 41.191 18.9122L41.1126 18.372L36.985 17.6542L37.3812 18.4351C38.0948 19.8415 37.786 21.5307 36.6696 22.5952L37.0112 23.1002C37.9988 24.5601 37.9145 26.4943 36.8036 27.8627L36.593 28.1221C35.3442 29.6604 33.1574 30.0526 31.4518 29.0442L30.8015 28.6597L28.1393 29.1844L28.9548 31.8629C29.2317 32.7726 29.1755 33.7512 28.7963 34.6232L27.5297 37.5354L27.1341 40.6541C26.9749 41.9094 26.2311 43.0153 25.1285 43.6361L23.3229 44.6528L23.6186 46.4009C23.6559 46.6213 23.6746 46.8444 23.6746 47.068V48.813C23.6746 49.884 23.2451 50.9103 22.4822 51.6621L22.3336 51.8085L23.4131 54.645C23.586 55.0994 23.6746 55.5815 23.6746 56.0677V58.3255L24.532 59.452C25.062 60.1484 25.349 60.9994 25.349 61.8745V63.2177L27.126 65.3191L30.1102 65.5453C33.1728 65.7774 34.842 69.2314 33.1209 71.7752L31.0361 74.8568L31.554 77.9192L34.5146 76.3279C35.4432 75.8288 36.5313 75.7165 37.5423 76.0154L42.1255 77.3703L49.3304 77.8774L53.4354 76.529C54.1481 76.2949 54.9122 76.2659 55.6405 76.4454L56.7938 76.7295L56.5814 74.6372C56.5039 73.873 56.648 73.1027 56.9966 72.4182L60.218 66.0924C60.7192 65.1081 61.9235 64.7166 62.9078 65.2178C63.8921 65.7191 64.2836 66.9233 63.7824 67.9076L60.561 74.2334L60.7733 76.3256C61.0525 79.077 58.5222 81.2749 55.8369 80.6133L54.6837 80.3292L50.5787 81.6776C50.0861 81.8394 49.5668 81.9039 49.0496 81.8675L41.8447 81.3604C41.5556 81.34 41.2695 81.2883 40.9916 81.2062L36.4083 79.8512L33.4478 81.4425C31.0372 82.7382 28.0665 81.2848 27.6101 78.5863L27.0921 75.5239C26.9205 74.5093 27.1465 73.4677 27.7231 72.6154L29.8079 69.5338L26.8237 69.3076C25.7551 69.2266 24.7637 68.7202 24.0718 67.902L22.2947 65.8006C21.6841 65.0785 21.349 64.1634 21.349 63.2177L21.349 61.8745L20.4916 60.748C19.9616 60.0517 19.6746 59.2006 19.6746 58.3255L19.6746 56.0677L18.5952 53.2312C18.031 51.7486 18.3962 50.0728 19.526 48.9594L19.6746 48.813V47.068L19.379 45.3199C19.0976 43.6564 19.8902 41.9952 21.3603 41.1674L23.1659 40.1507L23.5615 37.0321C23.6092 36.6557 23.7103 36.288 23.8616 35.9401L25.1282 33.0278L24.3127 30.3494C23.6229 28.0835 25.0421 25.7179 27.3659 25.2599L30.0281 24.7352C30.9918 24.5453 31.9918 24.7166 32.8373 25.2165L33.4876 25.601L33.6982 25.3416L33.1239 24.4927C32.1357 23.032 32.3819 21.0884 33.6474 19.9165L33.4179 19.4642Z" fill="#0F1D2E"/>
<path fill-rule="evenodd" clip-rule="evenodd" d="M69.5 53C68.9141 53 68 53.6362 68 55C68 56.3638 68.9141 57 69.5 57C70.0859 57 71 56.3638 71 55C71 53.6362 70.0859 53 69.5 53ZM64 55C64 51.9455 66.2199 49 69.5 49C72.7801 49 75 51.9455 75 55C75 58.0545 72.7801 61 69.5 61C66.2199 61 64 58.0545 64 55Z" fill="#0F1D2E"/>
<path fill-rule="evenodd" clip-rule="evenodd" d="M72.4142 38.3249C73.1953 39.106 73.1953 40.3723 72.4142 41.1533L56.9194 56.6482C56.1383 57.4293 54.872 57.4293 54.0909 56.6482C53.3099 55.8672 53.3099 54.6008 54.0909 53.8198L69.5858 38.3249C70.3668 37.5439 71.6332 37.5439 72.4142 38.3249Z" fill="#0F1D2E"/>
<path fill-rule="evenodd" clip-rule="evenodd" d="M56.5 39C55.9141 39 55 39.6362 55 41C55 42.3638 55.9141 43 56.5 43C57.0859 43 58 42.3638 58 41C58 39.6362 57.0859 39 56.5 39ZM51 41C51 37.9455 53.2199 35 56.5 35C59.7801 35 62 37.9455 62 41C62 44.0545 59.7801 47 56.5 47C53.2199 47 51 44.0545 51 41Z" fill="#0F1D2E"/>
<path fill-rule="evenodd" clip-rule="evenodd" d="M43 30C43 28.3431 44.3431 27 46 27H80C81.6569 27 83 28.3431 83 30V66C83 67.6569 81.6569 69 80 69H46C44.3431 69 43 67.6569 43 66V30ZM47 31V65H79V31H47Z" fill="#0F1D2E"/>
</svg>
