<svg width="96" height="96" viewBox="0 0 96 96" fill="none" xmlns="http://www.w3.org/2000/svg">
<path d="M42.0206 36.0208C35.3816 42.6597 35.3816 53.4235 42.0206 60.0624C48.6595 66.7014 59.4233 66.7014 66.0622 60.0624C72.7011 53.4235 72.7011 42.6597 66.0622 36.0208C59.4233 29.3819 48.6595 29.3819 42.0206 36.0208Z" fill="#8FC1FF"/>
<path fill-rule="evenodd" clip-rule="evenodd" d="M33.4179 19.4642C31.9279 16.5277 34.4261 13.1492 37.6703 13.7134L41.7979 14.4312C43.5023 14.7276 44.8231 16.0861 45.0713 17.7981L45.1992 18.6805L47.1519 18.8943C48.8109 19.0759 50.0697 20.383 50.2592 21.9672L55.4439 19.2624C56.7139 18.5998 58.2413 18.667 59.4483 19.4385L67.0773 24.3149C68.008 24.9097 68.2802 26.1465 67.6854 27.0772C67.0905 28.0079 65.8537 28.2801 64.9231 27.6852L57.294 22.8088L51.3989 25.8842C49.0333 27.1183 46.2804 25.3736 46.258 22.8203L44.7638 22.6567C42.9512 22.4582 41.5022 21.059 41.2406 19.2543L41.1126 18.372L36.985 17.6542L37.3812 18.4351C38.0948 19.8415 37.786 21.5307 36.6696 22.5952L37.0112 23.1002C37.9988 24.5601 37.9145 26.4943 36.8036 27.8627L36.593 28.1221C35.3442 29.6604 33.1574 30.0526 31.4518 29.0442L30.8015 28.6597L28.1393 29.1844L28.9548 31.8629C29.2317 32.7726 29.1755 33.7512 28.7963 34.6232L27.5297 37.5354L27.1341 40.6541C26.9749 41.9094 26.2311 43.0153 25.1285 43.6361L23.3229 44.6528L23.6186 46.4009C23.6559 46.6213 23.6746 46.8444 23.6746 47.068V48.813C23.6746 49.884 23.2451 50.9103 22.4822 51.6621L22.3336 51.8085L23.4131 54.645C23.586 55.0994 23.6746 55.5815 23.6746 56.0677V58.3255L24.532 59.452C25.062 60.1484 25.349 60.9994 25.349 61.8745V63.2177L27.126 65.3191L30.1102 65.5453C33.1728 65.7774 34.842 69.2314 33.1209 71.7752L31.0361 74.8568L31.554 77.9192L34.5146 76.3279C35.4432 75.8288 36.5313 75.7165 37.5423 76.0154L42.1255 77.3703L49.3304 77.8774L53.4354 76.529C54.1481 76.2949 54.9122 76.2659 55.6405 76.4454L56.7938 76.7295L56.6367 75.1822C56.4945 73.7804 57.1003 72.4071 58.2315 71.567L61.2693 69.311C62.1561 68.6525 63.4088 68.8375 64.0674 69.7243C64.7259 70.6111 64.5409 71.8638 63.6541 72.5224L60.6163 74.7784L60.7733 76.3256C61.0525 79.077 58.5222 81.2749 55.8369 80.6133L54.6837 80.3292L50.5787 81.6776C50.0861 81.8394 49.5668 81.9039 49.0496 81.8675L41.8447 81.3604C41.5556 81.34 41.2695 81.2883 40.9916 81.2062L36.4083 79.8512L33.4478 81.4425C31.0372 82.7382 28.0665 81.2848 27.6101 78.5863L27.0921 75.5239C26.9205 74.5093 27.1465 73.4677 27.7231 72.6154L29.8079 69.5338L26.8237 69.3076C25.7551 69.2266 24.7637 68.7202 24.0718 67.902L22.2947 65.8006C21.6841 65.0785 21.349 64.1634 21.349 63.2177L21.349 61.8745L20.4916 60.748C19.9616 60.0517 19.6746 59.2006 19.6746 58.3255L19.6746 56.0677L18.5952 53.2312C18.031 51.7486 18.3962 50.0728 19.526 48.9594L19.6746 48.813V47.068L19.379 45.3199C19.0976 43.6564 19.8902 41.9952 21.3603 41.1674L23.1659 40.1507L23.5615 37.0321C23.6092 36.6557 23.7103 36.288 23.8616 35.9401L25.1282 33.0278L24.3127 30.3494C23.6229 28.0835 25.0421 25.7179 27.3659 25.2599L30.0281 24.7352C30.9918 24.5453 31.9918 24.7166 32.8373 25.2165L33.4876 25.601L33.6982 25.3416L33.1239 24.4927C32.1357 23.032 32.3819 21.0884 33.6474 19.9165L33.4179 19.4642Z" fill="#0F1D2E"/>
<path fill-rule="evenodd" clip-rule="evenodd" d="M64.6482 37.435C70.506 43.2929 70.506 52.7904 64.6482 58.6482C58.7903 64.5061 49.2928 64.5061 43.435 58.6482C37.5771 52.7904 37.5771 43.2929 43.435 37.435C49.2928 31.5772 58.7903 31.5772 64.6482 37.435ZM67.4766 61.4767C74.8966 54.0567 74.8966 42.0266 67.4766 34.6066C60.0566 27.1866 48.0265 27.1866 40.6065 34.6066C33.1866 42.0266 33.1866 54.0567 40.6065 61.4767C48.0265 68.8966 60.0566 68.8966 67.4766 61.4767Z" fill="#0F1D2E"/>
<path fill-rule="evenodd" clip-rule="evenodd" d="M84.4339 72.4633L68.8776 56.9069L63.2207 62.5638L78.7771 78.1201C80.3392 79.6822 82.8718 79.6822 84.4339 78.1201C85.996 76.558 85.996 74.0254 84.4339 72.4633Z" fill="#0F1D2E"/>
</svg>
