<svg width="96" height="96" viewBox="0 0 96 96" fill="none" xmlns="http://www.w3.org/2000/svg">
<path d="M48 13.9999L76 43.4999L67 44.4999V67.9999H29V43.4999L20 42.9999L48 13.9999Z" fill="#8FC1FF"/>
<path d="M20.0013 71V78C20 79 19.0214 80 18 80H16C15 80 14 79 14 78V71C13 71 13 70 13 69V64C13 62 13.7857 61 16 61H18C20.2857 61 20.9988 62 21 64L20.9988 69C21 70 21 71 20.0013 71Z" fill="#0F1D2E"/>
<path d="M14 56.9999C14 58.6567 15.3431 59.9999 17 59.9999C18.6569 59.9999 20 58.6567 20 56.9999C20 55.343 18.6569 53.9999 17 53.9999C15.3431 53.9999 14 55.343 14 56.9999Z" fill="#0F1D2E"/>
<path d="M24.9987 71V78C25 79 25.9786 80 27 80H29C30 80 31 79 31 78V71C32 71 32 70 32 69V64C32 62 31.2143 61 29 61H27C24.7143 61 24.0012 62 24 64L24.0012 69C24 70 24 71 24.9987 71Z" fill="#0F1D2E"/>
<path d="M31 56.9999C31 58.6567 29.6569 59.9999 28 59.9999C26.3431 59.9999 25 58.6567 25 56.9999C25 55.343 26.3431 53.9999 28 53.9999C29.6569 53.9999 31 55.343 31 56.9999Z" fill="#0F1D2E"/>
<path d="M71.0013 71V78C71 79 70.0214 80 69 80H67C66 80 65 79 65 78V71C64 71 64 70 64 69V64C64 62 64.7857 61 67 61H69C71.2857 61 71.9988 62 72 64L71.9988 69C72 70 72 71 71.0013 71Z" fill="#0F1D2E"/>
<path d="M65 56.9999C65 58.6567 66.3431 59.9999 68 59.9999C69.6569 59.9999 71 58.6567 71 56.9999C71 55.343 69.6569 53.9999 68 53.9999C66.3431 53.9999 65 55.343 65 56.9999Z" fill="#0F1D2E"/>
<path d="M82.0013 71V78C82 79 81.0214 80 80 80H78C77 80 76 79 76 78V71C75 71 75 70 75 69V64C75 62 75.7857 61 78 61H80C82.2857 61 82.9988 62 83 64L82.9988 69C83 70 83 71 82.0013 71Z" fill="#0F1D2E"/>
<path d="M76 56.9999C76 58.6567 77.3431 59.9999 79 59.9999C80.6569 59.9999 82 58.6567 82 56.9999C82 55.343 80.6569 53.9999 79 53.9999C77.3431 53.9999 76 55.343 76 56.9999Z" fill="#0F1D2E"/>
<path fill-rule="evenodd" clip-rule="evenodd" d="M36 68C36 66.8954 36.8954 66 38 66H58C59.1046 66 60 66.8954 60 68C60 69.1046 59.1046 70 58 70H38C36.8954 70 36 69.1046 36 68Z" fill="#0F1D2E"/>
<path fill-rule="evenodd" clip-rule="evenodd" d="M43.7573 14.4141C46.1004 12.071 49.8994 12.071 52.2425 14.4141L75.9999 38.1715C78.5198 40.6913 76.7351 44.9999 73.1715 44.9999H68.9993V48.9999C68.9993 50.1045 68.1039 50.9999 66.9993 50.9999C65.8948 50.9999 64.9993 50.1045 64.9993 48.9999V43.9999C64.9993 42.343 66.3425 40.9999 67.9993 40.9999H73.1715L49.4141 17.2425C48.6331 16.4615 47.3667 16.4615 46.5857 17.2425L22.8283 40.9999H27.9993C29.6562 40.9999 30.9993 42.343 30.9993 43.9999V48.9999C30.9993 50.1045 30.1039 50.9999 28.9993 50.9999C27.8948 50.9999 26.9993 50.1045 26.9993 48.9999V44.9999H22.8283C19.2647 44.9999 17.48 40.6913 19.9999 38.1715L43.7573 14.4141Z" fill="#0F1D2E"/>
</svg>
