<svg width="96" height="96" viewBox="0 0 96 96" fill="none" xmlns="http://www.w3.org/2000/svg">
<path d="M25 41C25 37.6863 27.6863 35 31 35H66C69.3137 35 72 37.6863 72 41V68C72 71.3137 69.3137 74 66 74H31C27.6863 74 25 71.3137 25 68V41Z" fill="#8FC1FF"/>
<path fill-rule="evenodd" clip-rule="evenodd" d="M70 45C70 43.8954 70.8954 43 72 43L76 43L76 40.3684C76.0001 39.2638 76.8955 38.3684 78.0001 38.3684C79.1046 38.3684 80.0001 39.2638 80 40.3684L80 45C80 46.1046 79.1046 47 78 47L72 47C70.8954 47 70 46.1046 70 45Z" fill="#0F1D2E"/>
<path fill-rule="evenodd" clip-rule="evenodd" d="M19 44C19 42.8954 19.8954 42 21 42H25C26.1046 42 27 42.8954 27 44C27 44.3643 26.9026 44.7058 26.7324 45C26.9026 45.2942 27 45.6357 27 46C27 47.1046 26.1046 48 25 48H21C19.8954 48 19 47.1046 19 46V44Z" fill="#0F1D2E"/>
<path fill-rule="evenodd" clip-rule="evenodd" d="M37.2681 14.9995C37.8206 14.0431 39.0439 13.7156 40.0003 14.2682L38.9999 16C40.0003 14.2682 40.0012 14.2687 40.0021 14.2692L40.0039 14.2702L40.0077 14.2725L40.0165 14.2776L40.0381 14.2904C40.0542 14.3001 40.0739 14.312 40.0966 14.3262C40.1422 14.3546 40.2007 14.3922 40.2694 14.4388C40.4058 14.5313 40.5874 14.6628 40.7894 14.8315C41.1783 15.1564 41.7169 15.6809 42.1252 16.4003C42.5475 17.1443 42.8542 18.1473 42.6393 19.3103C42.4276 20.4564 41.7588 21.4898 40.7488 22.408C40.1972 22.9094 40.1473 23.1952 40.142 23.2303C40.137 23.2633 40.1303 23.3409 40.2338 23.5138C40.3476 23.7041 40.5354 23.9024 40.74 24.0723C40.835 24.1511 40.9176 24.2106 40.9715 24.2473C40.998 24.2654 41.0162 24.2771 41.0239 24.2819C41.0247 24.2824 41.0253 24.2828 41.0259 24.2832C41.9675 24.8457 42.2811 26.0634 41.7253 27.0115C41.1667 27.9644 39.9413 28.284 38.9884 27.7253L39.9999 26C38.9884 27.7253 38.9876 27.7249 38.9868 27.7244L38.9851 27.7234L38.9814 27.7212L38.9729 27.7161L38.9517 27.7034C38.9358 27.6937 38.9161 27.6816 38.8932 27.6672C38.8474 27.6384 38.7881 27.6 38.7181 27.5522C38.5789 27.4573 38.393 27.3225 38.1853 27.1501C37.7846 26.8176 37.2312 26.2862 36.8012 25.5674C36.3608 24.8312 36.0076 23.8203 36.1868 22.6332C36.3657 21.4482 37.0307 20.3823 38.0581 19.4483C38.627 18.9311 38.6972 18.6308 38.7059 18.5837C38.7114 18.5535 38.7198 18.5039 38.6465 18.3747C38.5592 18.2209 38.4049 18.0516 38.2247 17.9011C38.1421 17.8321 38.0701 17.7804 38.0242 17.7492C38.0022 17.7343 37.9874 17.725 37.982 17.7216" fill="#0F1D2E"/>
<path fill-rule="evenodd" clip-rule="evenodd" d="M57.2716 14.9082C57.8745 13.9828 59.1136 13.7213 60.0391 14.3242L58.9473 16C60.0391 14.3242 60.04 14.3248 60.0409 14.3254L60.0428 14.3267L60.0469 14.3294L60.0559 14.3353L60.0776 14.3499C60.0936 14.3607 60.1128 14.3739 60.1348 14.3894C60.1786 14.4204 60.2341 14.4608 60.2986 14.5105C60.4266 14.6093 60.5947 14.7484 60.7792 14.9261C61.1363 15.2702 61.6175 15.8193 61.954 16.5637C62.3038 17.3374 62.4946 18.3247 62.2207 19.4287C61.9523 20.5102 61.2877 21.5034 60.2927 22.408C59.7199 22.9287 59.5985 23.269 59.5705 23.3885C59.5458 23.4937 59.5541 23.588 59.6142 23.7219C59.6855 23.8809 59.8137 24.0491 59.9606 24.1958C60.0285 24.2635 60.0873 24.3137 60.1233 24.3427C60.1375 24.3541 60.1473 24.3616 60.1517 24.3649C61.0454 24.9941 61.2693 26.2268 60.6495 27.1309C60.025 28.0419 58.7801 28.2741 57.8691 27.6496L59 26C57.8691 27.6496 57.8682 27.649 57.8673 27.6484L57.8655 27.6471L57.8616 27.6444L57.8528 27.6383L57.8316 27.6234C57.8159 27.6122 57.7971 27.5986 57.7754 27.5826C57.7321 27.5505 57.6771 27.5085 57.613 27.4569C57.4858 27.3544 57.3185 27.2102 57.1347 27.0267C56.7783 26.6709 56.3012 26.1094 55.9647 25.3594C55.6169 24.5842 55.4146 23.59 55.6762 22.475C55.9343 21.3744 56.5958 20.363 57.602 19.4483C58.1858 18.9175 58.3107 18.577 58.3384 18.4654C58.3606 18.3761 58.354 18.3108 58.3091 18.2114C58.2508 18.0825 58.14 17.9378 58.0036 17.8065C57.9414 17.7465 57.8875 17.7024 57.8551 17.6775C57.844 17.6689 57.8361 17.6631 57.8321 17.6602C56.9257 17.0518 56.6737 15.8259 57.2716 14.9082Z" fill="#0F1D2E"/>
<path fill-rule="evenodd" clip-rule="evenodd" d="M47.2667 12.0018C47.818 11.0446 49.0408 10.7156 49.998 11.2669L48.9998 13C49.998 11.2669 49.9989 11.2674 49.9999 11.268L50.0019 11.2691L50.0063 11.2717L50.0166 11.2777L50.0435 11.2937C50.064 11.306 50.0898 11.3216 50.1202 11.3407C50.1811 11.3787 50.2612 11.4304 50.3562 11.4955C50.5452 11.625 50.7987 11.8112 51.0793 12.0521C51.6256 12.5211 52.3513 13.2625 52.8662 14.2682C53.3987 15.3087 53.7049 16.6402 53.34 18.1507C52.9831 19.628 52.039 21.0506 50.5068 22.4179C49.3731 23.4296 48.9667 24.2136 48.8297 24.7179C48.7003 25.1939 48.7648 25.586 48.9218 25.9453C49.0932 26.3376 49.3799 26.6916 49.6658 26.9671C49.8027 27.0991 49.9242 27.1985 50.0055 27.2608C50.0456 27.2915 50.0746 27.3122 50.0889 27.3222C50.0925 27.3247 50.0952 27.3266 50.0968 27.3277C50.0968 27.3277 50.0968 27.3277 50.0968 27.3277C51.014 27.9291 51.2763 29.1589 50.6813 30.0828C50.0832 31.0115 48.8456 31.2795 47.9169 30.6815L48.9719 29.0433C47.9169 30.6814 47.916 30.6808 47.915 30.6802L47.913 30.6789L47.9085 30.676L47.8982 30.6693L47.8719 30.6518C47.8518 30.6384 47.8269 30.6214 47.7976 30.6009C47.739 30.5599 47.6624 30.5047 47.572 30.4354C47.3922 30.2976 47.1528 30.1006 46.8898 29.847C46.376 29.3517 45.7073 28.5787 45.2564 27.5469C44.7912 26.4821 44.5665 25.1527 44.9696 23.6691C45.3651 22.2135 46.3128 20.7995 47.8435 19.4334C48.9758 18.423 49.342 17.6661 49.4519 17.2114C49.5536 16.7901 49.4829 16.4374 49.3055 16.0908C49.1104 15.7096 48.7931 15.3612 48.4738 15.0871C48.3217 14.9565 48.1868 14.8579 48.0956 14.7955C48.0505 14.7646 48.0176 14.7435 48.0004 14.7328C47.9949 14.7293 47.991 14.727 47.989 14.7257C47.989 14.7257 47.989 14.7257 47.989 14.7257C47.0416 14.171 46.7178 12.9547 47.2667 12.0018Z" fill="#0F1D2E"/>
<path fill-rule="evenodd" clip-rule="evenodd" d="M23 41C23 36.5817 26.5817 33 31 33H66C70.4183 33 74 36.5817 74 41V68C74 72.4183 70.4183 76 66 76H31C26.5817 76 23 72.4183 23 68V41ZM31 37C28.7909 37 27 38.7909 27 41V68C27 70.2091 28.7909 72 31 72H66C68.2091 72 70 70.2091 70 68V41C70 38.7909 68.2091 37 66 37H31Z" fill="#0F1D2E"/>
<path fill-rule="evenodd" clip-rule="evenodd" d="M36 33C37.1046 33 38 33.8954 38 35V74C38 75.1046 37.1046 76 36 76C34.8954 76 34 75.1046 34 74V35C34 33.8954 34.8954 33 36 33Z" fill="#0F1D2E"/>
<path fill-rule="evenodd" clip-rule="evenodd" d="M48 33C49.1046 33 50 33.8954 50 35V74C50 75.1046 49.1046 76 48 76C46.8954 76 46 75.1046 46 74V35C46 33.8954 46.8954 33 48 33Z" fill="#0F1D2E"/>
<path fill-rule="evenodd" clip-rule="evenodd" d="M60 33C61.1046 33 62 33.8954 62 35V74C62 75.1046 61.1046 76 60 76C58.8954 76 58 75.1046 58 74V35C58 33.8954 58.8954 33 60 33Z" fill="#0F1D2E"/>
</svg>
