<svg width="96" height="96" viewBox="0 0 96 96" fill="none" xmlns="http://www.w3.org/2000/svg">
<path d="M48 21.9999L76 51.4999L67 52.4999V74.9999H29V51.4999L20 50.9999L48 21.9999Z" fill="#8FC1FF"/>
<path fill-rule="evenodd" clip-rule="evenodd" d="M43.6882 22.5793C46.0462 20.1426 49.9534 20.1426 52.3114 22.5793L76.1555 47.2182C78.6118 49.7564 76.8132 53.9999 73.2811 53.9999H68.9992V71.9999C68.9992 75.3136 66.3129 77.9999 62.9992 77.9999H32.9992C29.6855 77.9999 26.9992 75.3136 26.9992 71.9999V53.9999H22.7184C19.1863 53.9999 17.3877 49.7564 19.844 47.2182L43.6882 22.5793ZM49.437 25.361C48.651 24.5487 47.3486 24.5487 46.5626 25.361L22.7184 49.9999H27.9992C29.6561 49.9999 30.9992 51.343 30.9992 52.9999V71.9999C30.9992 73.1045 31.8946 73.9999 32.9992 73.9999H62.9992C64.1038 73.9999 64.9992 73.1045 64.9992 71.9999V52.9999C64.9992 51.343 66.3423 49.9999 67.9992 49.9999L73.2811 49.9999L49.437 25.361Z" fill="#0F1D2E"/>
<path d="M51 59.9999C51 58.8953 51.8954 57.9999 53 57.9999H57C58.1046 57.9999 59 58.8953 59 59.9999V73.9999C59 75.1045 58.1046 75.9999 57 75.9999H53C51.8954 75.9999 51 75.1045 51 73.9999V59.9999Z" fill="#0F1D2E"/>
<path d="M37 57.9999C37 56.8953 37.8954 55.9999 39 55.9999H43C44.1046 55.9999 45 56.8953 45 57.9999V61.9999C45 63.1045 44.1046 63.9999 43 63.9999H39C37.8954 63.9999 37 63.1045 37 61.9999V57.9999Z" fill="#0F1D2E"/>
</svg>
