<svg width="96" height="96" viewBox="0 0 96 96" fill="none" xmlns="http://www.w3.org/2000/svg">
<path d="M51.033 49.8198H48.2046L46.7903 48.4056L20.6274 74.5685C19.8463 75.3496 18.58 75.3496 17.799 74.5685L14.9705 71.7401C14.1895 70.9591 14.1895 69.6927 14.9705 68.9117L41.1335 42.7487L39.0122 40.6274L40.4264 34.9706C37.598 32.1421 30.8804 26.8388 26.9914 25.7782C32.6482 20.1213 42.7524 25.9829 46.0832 29.3137L56.6898 39.9203V44.163L58.8112 46.2843L61.6396 44.8701L66.5893 49.8198L57.3969 59.0122L52.4472 54.0624L53.1543 51.9411L51.033 49.8198Z" fill="#8FC1FF"/>
<path fill-rule="evenodd" clip-rule="evenodd" d="M54.689 22.5794C57.047 20.1428 60.9542 20.1428 63.3122 22.5794L87.1563 47.2184C89.6126 49.7565 87.814 54 84.2819 54H80V72C80 75.3138 77.3137 78 74 78H44C40.6863 78 38 75.3138 38 72V66C38 64.8955 38.8954 64 40 64C41.1046 64 42 64.8955 42 66V72C42 73.1046 42.8954 74 44 74H74C75.1046 74 76 73.1046 76 72V53C76 51.3432 77.3431 50 79 50L84.2819 50L60.4378 25.3611C59.6518 24.5489 58.3494 24.5489 57.5634 25.3611L56.6878 26.2659C55.9196 27.0596 54.6535 27.0804 53.8597 26.3122C53.066 25.5441 53.0452 24.2779 53.8134 23.4842L54.689 22.5794Z" fill="#0F1D2E"/>
<path fill-rule="evenodd" clip-rule="evenodd" d="M38.0223 22.2718C41.9874 23.548 45.6177 26.0198 47.4975 27.8996L58.1041 38.5062C58.4791 38.8812 58.6898 39.3899 58.6898 39.9204L58.6898 43.3346L59.2061 43.8508L60.7452 43.0813C61.5151 42.6963 62.4451 42.8472 63.0538 43.4559L68.0035 48.4056C68.3786 48.7807 68.5893 49.2894 68.5893 49.8199C68.5893 50.3503 68.3786 50.859 68.0035 51.2341L58.8112 60.4265C58.0301 61.2075 56.7638 61.2075 55.9827 60.4265L51.033 55.4767C50.4973 54.9411 50.3103 54.1487 50.5498 53.43L50.8661 52.4814L50.2046 51.8199L48.2046 51.8199C47.6741 51.8199 47.1654 51.6091 46.7903 51.2341L22.0416 75.9828C20.4795 77.5449 17.9469 77.5449 16.3848 75.9828L13.5563 73.1544C11.9942 71.5923 11.9942 69.0596 13.5563 67.4975L38.3051 42.7488L37.598 42.0417C37.1012 41.5449 36.9015 40.824 37.0719 40.1424L38.2049 35.6105C36.8526 34.3581 34.9451 32.7783 32.9388 31.3351C30.4304 29.5308 28.0321 28.1351 26.4651 27.7078C25.7773 27.5202 25.2413 26.9806 25.0584 26.2916C24.8754 25.6025 25.073 24.8681 25.5771 24.364C29.1908 20.7504 34.0833 21.004 38.0223 22.2718ZM49.033 47.8199L51.033 47.8199C51.5634 47.8199 52.0721 48.0306 52.4472 48.4056L54.5685 50.527C55.1042 51.0626 55.2912 51.855 55.0517 52.5736L54.7354 53.5223L57.3969 56.1838L63.7609 49.8199L61.2447 47.3036L59.7056 48.0732C58.9356 48.4582 58.0057 48.3073 57.3969 47.6985L55.2756 45.5772C54.9006 45.2021 54.6898 44.6934 54.6898 44.163L54.6898 40.7488L44.669 30.728C43.218 29.277 40.1307 27.1525 36.7968 26.0794C34.8371 25.4487 33.0039 25.2373 31.4109 25.576C32.7138 26.3184 34.0389 27.1992 35.2745 28.0879C37.8647 29.9511 40.337 32.0528 41.8406 33.5564C42.3374 34.0532 42.5371 34.7741 42.3667 35.4557L41.2271 40.014L42.5477 41.3346C43.3288 42.1156 43.3288 43.382 42.5477 44.163L16.3848 70.326L19.2132 73.1544L45.3761 46.9914C46.1572 46.2104 47.4235 46.2104 48.2046 46.9914L49.033 47.8199Z" fill="#0F1D2E"/>
</svg>
