<svg width="96" height="96" viewBox="0 0 96 96" fill="none" xmlns="http://www.w3.org/2000/svg">
<path d="M35 28H63V76H35V28Z" fill="#8FC1FF"/>
<path fill-rule="evenodd" clip-rule="evenodd" d="M26.6511 28.0001C25.8476 28.0001 25.1222 28.4809 24.8091 29.2208L16.0179 50H19.0001C20.657 50 22.0001 51.3431 22.0001 53V72C22.0001 73.1046 22.8956 74 24.0001 74H74.0001C75.1047 74 76.0001 73.1046 76.0001 72V53C76.0001 51.3431 77.3433 50 79.0001 50L81.9823 50L72.6746 28.0001H26.6511ZM21.1253 27.6623C22.0644 25.4425 24.2408 24.0001 26.6511 24.0001H73.3702C74.5555 24.0001 75.6257 24.7094 76.0875 25.801L85.6662 48.4414C86.782 51.0788 84.846 54 81.9823 54H80.0001V72C80.0001 75.3137 77.3138 78 74.0001 78H24.0001C20.6864 78 18.0001 75.3137 18.0001 72V54H16.0179C13.1542 54 11.2182 51.0788 12.334 48.4414L21.1253 27.6623Z" fill="#0F1D2E"/>
<path d="M39 60.3529C39 59.2483 39.8954 58.3529 41 58.3529H45C46.1046 58.3529 47 59.2483 47 60.3529V74.3529C47 75.4575 46.1046 76.3529 45 76.3529H41C39.8954 76.3529 39 75.4575 39 74.3529V60.3529Z" fill="#0F1D2E"/>
<path d="M51 59C51 57.8954 51.8954 57 53 57H57C58.1046 57 59 57.8954 59 59V63C59 64.1046 58.1046 65 57 65H53C51.8954 65 51 64.1046 51 63V59Z" fill="#0F1D2E"/>
</svg>
