<svg width="96" height="96" viewBox="0 0 96 96" fill="none" xmlns="http://www.w3.org/2000/svg">
<path d="M46 14L74 44H65V68H28L27 43.5L18 43L46 14Z" fill="#8FC1FF"/>
<path d="M47.0018 69.9998V79.9998C47.0018 80.9623 47.9 81.9998 49 81.9998H53C54.1 81.9998 55 80.9623 55 79.9998V70.9998C56.1 70.9998 57 69.9616 57 68.9991V61.4998C57 59.5748 56.2 57.9998 54 57.9998H48C45.8 57.9998 45 59.5748 45 61.4998V68.9991C45 69.9616 45.9 70.9998 47 70.9998L47.0018 69.9998Z" fill="#0F1D2E"/>
<circle cx="51" cy="52.9998" r="3" fill="#0F1D2E"/>
<path d="M61.0018 69.9998V79.9998C61.0018 80.9623 61.9 81.9998 63 81.9998H67C68.1 81.9998 69 80.9623 69 79.9998V70.9998C70.1 70.9998 71 69.9616 71 68.9991V61.4998C71 59.5748 70.2 57.9998 68 57.9998H62C59.8 57.9998 59 59.5748 59 61.4998V68.9991C59 69.9616 59.9 70.9998 61 70.9998L61.0018 69.9998Z" fill="#0F1D2E"/>
<circle cx="65" cy="52.9998" r="3" fill="#0F1D2E"/>
<path d="M73.9987 73V80C74 81 74.9786 82 76 82H78C79 82 80 81 80 80V73C81 73 81 72 81 71V66C81 64 80.2143 63 78 63H76C73.7143 63 73.0012 64 73 66L73.0012 71C73 72 73 73 73.9987 73Z" fill="#0F1D2E"/>
<path d="M80 58.9999C80 60.6567 78.6569 61.9999 77 61.9999C75.3431 61.9999 74 60.6567 74 58.9999C74 57.343 75.3431 55.9999 77 55.9999C78.6569 55.9999 80 57.343 80 58.9999Z" fill="#0F1D2E"/>
<path fill-rule="evenodd" clip-rule="evenodd" d="M41.7573 15.4141C44.1004 13.0709 47.8994 13.071 50.2426 15.4141L73.9999 39.1716C76.5198 41.6914 74.7351 46 71.1715 46H64.9993C63.8948 46 62.9993 45.1046 62.9993 44C62.9993 42.8954 63.8948 42 64.9993 42L71.1715 42L47.4141 18.2425C46.6331 17.4615 45.3668 17.4615 44.5857 18.2425L20.8283 42H25.9993C27.6562 42 28.9993 43.3431 28.9993 45V64C28.9993 65.1046 29.8948 66 30.9993 66H38.9999C40.1045 66 40.9999 66.8954 40.9999 68C40.9999 69.1046 40.1045 70 38.9999 70H30.9993C27.6856 70 24.9993 67.3137 24.9993 64V46H20.8283C17.2647 46 15.48 41.6914 17.9999 39.1716L41.7573 15.4141Z" fill="#0F1D2E"/>
</svg>
