<svg width="96" height="96" viewBox="0 0 96 96" fill="none" xmlns="http://www.w3.org/2000/svg">
<path d="M23 75V40L48 19L73 40V75H23Z" fill="#8FC1FF"/>
<path fill-rule="evenodd" clip-rule="evenodd" d="M48 58C46.8954 58 46 57.1046 46 56L46 38C46 36.8954 46.8954 36 48 36C49.1046 36 50 36.8954 50 38L50 56C50 57.1046 49.1046 58 48 58Z" fill="#0F1D2E"/>
<path fill-rule="evenodd" clip-rule="evenodd" d="M27 78C23.6863 78 21 75.3137 21 72L21 40C21 38.8954 21.8954 38 23 38C24.1046 38 25 38.8954 25 40L25 72C25 73.1046 25.8954 74 27 74L69 74C70.1046 74 71 73.1046 71 72L71 40C71 38.8954 71.8954 38 73 38C74.1046 38 75 38.8954 75 40L75 72C75 75.3137 72.3137 78 69 78L27 78Z" fill="#0F1D2E"/>
<path fill-rule="evenodd" clip-rule="evenodd" d="M49.0779 35.3155C48.4207 34.8948 47.5788 34.8948 46.9216 35.3155L21.9216 51.3155C20.9913 51.9109 20.7198 53.1478 21.3152 54.0781C21.9106 55.0085 23.1475 55.28 24.0779 54.6845L47.9998 39.3745L71.9216 54.6845C72.852 55.28 74.0889 55.0085 74.6843 54.0781C75.2797 53.1478 75.0082 51.9109 74.0779 51.3155L49.0779 35.3155Z" fill="#0F1D2E"/>
<path fill-rule="evenodd" clip-rule="evenodd" d="M21 56C21 54.8954 21.8954 54 23 54H73C74.1046 54 75 54.8954 75 56C75 57.1046 74.1046 58 73 58H23C21.8954 58 21 57.1046 21 56Z" fill="#0F1D2E"/>
<path fill-rule="evenodd" clip-rule="evenodd" d="M25 37C25 35.8954 25.8954 35 27 35L69 35C70.1046 35 71 35.8954 71 37C71 38.1046 70.1046 39 69 39L27 39C25.8954 39 25 38.1046 25 37Z" fill="#0F1D2E"/>
<path d="M56 64C56 62.8954 56.8954 62 58 62H60C61.1046 62 62 62.8954 62 64V66C62 67.1046 61.1046 68 60 68H58C56.8954 68 56 67.1046 56 66V64Z" fill="#0F1D2E"/>
<path d="M34 64C34 62.8954 34.8954 62 36 62H38C39.1046 62 40 62.8954 40 64V66C40 67.1046 39.1046 68 38 68H36C34.8954 68 34 67.1046 34 66V64Z" fill="#0F1D2E"/>
<path d="M44 64C44 62.8954 44.8954 62 46 62H50C51.1046 62 52 62.8954 52 64V74C52 75.1046 51.1046 76 50 76H46C44.8954 76 44 75.1046 44 74V64Z" fill="#0F1D2E"/>
<path fill-rule="evenodd" clip-rule="evenodd" d="M15.4604 45.9884C14.7552 45.1382 14.8728 43.8773 15.723 43.1722L46.723 17.4606C47.5732 16.7555 48.8341 16.8731 49.5392 17.7232C50.2444 18.5734 50.1268 19.8343 49.2766 20.5395L18.2766 46.251C17.4264 46.9562 16.1655 46.8386 15.4604 45.9884Z" fill="#0F1D2E"/>
<path fill-rule="evenodd" clip-rule="evenodd" d="M80.1734 45.9972C80.8834 45.151 80.773 43.8895 79.9269 43.1795L49.2851 17.468C48.439 16.758 47.1775 16.8684 46.4675 17.7145C45.7575 18.5607 45.8678 19.8222 46.714 20.5322L77.3557 46.2437C78.2019 46.9537 79.4634 46.8433 80.1734 45.9972Z" fill="#0F1D2E"/>
</svg>
