<svg width="96" height="96" viewBox="0 0 96 96" fill="none" xmlns="http://www.w3.org/2000/svg">
<path fill-rule="evenodd" clip-rule="evenodd" d="M73 35H35V62H73V35ZM48 54V46.4444L54.0442 41L60 46.4444V54H48Z" fill="#8FC1FF"/>
<path fill-rule="evenodd" clip-rule="evenodd" d="M43 25C44.1046 25 45 25.8954 45 27V33H63V27C63 25.8954 63.8954 25 65 25C66.1046 25 67 25.8954 67 27V33H73C74.1046 33 75 33.8954 75 35V62C75 63.1046 74.1046 64 73 64H35C33.8954 64 33 63.1046 33 62V35C33 33.8954 33.8954 33 35 33H41V27C41 25.8954 41.8954 25 43 25ZM37 37V60H71V37H37Z" fill="#0F1D2E"/>
<path fill-rule="evenodd" clip-rule="evenodd" d="M17 19C17 17.8954 17.8954 17 19 17H75C75.3949 17 75.7809 17.1169 76.1094 17.3359L82.1094 21.3359C82.6658 21.7068 83 22.3313 83 23C83 23.6687 82.6658 24.2932 82.1094 24.6641L76.1094 28.6641C75.7809 28.8831 75.3949 29 75 29H29V75C29 77.2091 27.2091 79 25 79H21C18.7909 79 17 77.2091 17 75V19ZM21 21V75H25V27C25 25.8954 25.8954 25 27 25H74.3944L77.3944 23L74.3944 21H21Z" fill="#0F1D2E"/>
<path fill-rule="evenodd" clip-rule="evenodd" d="M52.7057 39.514C53.4707 38.8249 54.6338 38.8292 55.3937 39.5238L61.3494 44.9682C61.7639 45.3471 62 45.8828 62 46.4444V54C62 55.1046 61.1046 56 60 56H48C46.8954 56 46 55.1046 46 54V46.4444C46 45.8777 46.2404 45.3376 46.6614 44.9584L52.7057 39.514ZM50 47.3346V52H58V47.3258L54.0343 43.7007L50 47.3346Z" fill="#0F1D2E"/>
</svg>
