<svg width="96" height="96" viewBox="0 0 96 96" fill="none" xmlns="http://www.w3.org/2000/svg">
<path d="M15 41L21 35L27.5 42H36V19H44V23H52V19H60V42H68L75 34L81 40V75H55V63H41V75H15V41Z" fill="#8FC1FF"/>
<path fill-rule="evenodd" clip-rule="evenodd" d="M34 19C34 17.8954 34.8954 17 36 17H44C45.1046 17 46 17.8954 46 19V21H50V19C50 17.8954 50.8954 17 52 17H60C61.1046 17 62 17.8954 62 19V34C62 35.1046 61.1046 36 60 36C58.8954 36 58 35.1046 58 34V21H54V23C54 24.1046 53.1046 25 52 25H44C42.8954 25 42 24.1046 42 23V21H38V34C38 35.1046 37.1046 36 36 36C34.8954 36 34 35.1046 34 34V19Z" fill="#0F1D2E"/>
<path fill-rule="evenodd" clip-rule="evenodd" d="M25 42C25 40.8954 25.8954 40 27 40H36C37.1046 40 38 40.8954 38 42V44H42V42C42 40.8954 42.8954 40 44 40H52C53.1046 40 54 40.8954 54 42V44H58V42C58 40.8954 58.8954 40 60 40H69C70.1046 40 71 40.8954 71 42V46C71 47.1046 70.1046 48 69 48C67.8954 48 67 47.1046 67 46V44H62V46C62 47.1046 61.1046 48 60 48H52C50.8954 48 50 47.1046 50 46V44H46V46C46 47.1046 45.1046 48 44 48H36C34.8954 48 34 47.1046 34 46V44H29V46C29 47.1046 28.1046 48 27 48C25.8954 48 25 47.1046 25 46V42Z" fill="#0F1D2E"/>
<path fill-rule="evenodd" clip-rule="evenodd" d="M43 65.3045V74H53V65.3045C52.6796 65.173 52.3075 65.0273 51.9035 64.8819C50.552 64.3957 49.0756 64 48 64C46.9244 64 45.448 64.3957 44.0965 64.8819C43.6925 65.0273 43.3204 65.173 43 65.3045ZM55 64L55.8737 62.2009C56.5626 62.5355 57 63.2341 57 64V76C57 77.1046 56.1046 78 55 78H41C39.8954 78 39 77.1046 39 76V64C39 63.2341 39.4374 62.5355 40.1263 62.2009L41 64C40.1263 62.2009 40.1261 62.201 40.1263 62.2009L40.1332 62.1976L40.1461 62.1914L40.1895 62.1707C40.226 62.1533 40.2777 62.1291 40.343 62.0988C40.4737 62.0384 40.6599 61.9539 40.8909 61.8534C41.3516 61.6531 41.9976 61.386 42.7424 61.1181C44.1704 60.6043 46.1941 60 48 60C49.8059 60 51.8296 60.6043 53.2576 61.1181C54.0024 61.386 54.6484 61.6531 55.1091 61.8534C55.3401 61.9539 55.5263 62.0384 55.657 62.0988C55.7223 62.1291 55.774 62.1533 55.8105 62.1707L55.8539 62.1914L55.8668 62.1976L55.8737 62.2009C55.8739 62.201 55.8737 62.2009 55 64Z" fill="#0F1D2E"/>
<path fill-rule="evenodd" clip-rule="evenodd" d="M27 42C28.1046 42 29 42.8954 29 44V74H67V44C67 42.8954 67.8954 42 69 42C70.1046 42 71 42.8954 71 44V76C71 77.1046 70.1046 78 69 78H27C25.8954 78 25 77.1046 25 76V44C25 42.8954 25.8954 42 27 42Z" fill="#0F1D2E"/>
<path fill-rule="evenodd" clip-rule="evenodd" d="M75 36.8541C73.8954 36.8541 73 35.9587 73 34.8541L73 27.5625C73 26.4579 73.8954 25.5625 75 25.5625C76.1046 25.5625 77 26.4579 77 27.5625L77 34.8541C77 35.9587 76.1046 36.8541 75 36.8541Z" fill="#0F1D2E"/>
<path fill-rule="evenodd" clip-rule="evenodd" d="M75 32C75.5838 32 76.1385 32.2551 76.5185 32.6984L82.5185 39.6984C82.8292 40.0609 83 40.5226 83 41V72C83 75.3138 80.3137 78 77 78H69C67.8954 78 67 77.1046 67 76V41C67 40.5226 67.1708 40.0609 67.4815 39.6984L73.4815 32.6984C73.8615 32.2551 74.4162 32 75 32ZM71 41.7398V74H77C78.1046 74 79 73.1046 79 72V41.7398L75 37.0732L71 41.7398Z" fill="#0F1D2E"/>
<path fill-rule="evenodd" clip-rule="evenodd" d="M73 26C73 24.8954 73.8954 24 75 24H81C82.1046 24 83 24.8954 83 26V30C83 31.1046 82.1046 32 81 32H75C73.8954 32 73 31.1046 73 30V26Z" fill="#0F1D2E"/>
<path fill-rule="evenodd" clip-rule="evenodd" d="M21 36.8541C19.8954 36.8541 19 35.9587 19 34.8541L19 27.5625C19 26.4579 19.8954 25.5625 21 25.5625C22.1046 25.5625 23 26.4579 23 27.5625L23 34.8541C23 35.9587 22.1046 36.8541 21 36.8541Z" fill="#0F1D2E"/>
<path fill-rule="evenodd" clip-rule="evenodd" d="M19 26C19 24.8954 19.8954 24 21 24H27C28.1046 24 29 24.8954 29 26V29C29 30.1046 28.1046 31 27 31H21C19.8954 31 19 30.1046 19 29V26Z" fill="#0F1D2E"/>
<path fill-rule="evenodd" clip-rule="evenodd" d="M21 32C21.5838 32 22.1385 32.2551 22.5185 32.6984L28.5185 39.6984C28.8292 40.0609 29 40.5226 29 41V76C29 77.1046 28.1046 78 27 78H19C15.6863 78 13 75.3137 13 72V41C13 40.5226 13.1708 40.0609 13.4815 39.6984L19.4815 32.6984C19.8615 32.2551 20.4162 32 21 32ZM17 41.7398V72C17 73.1046 17.8954 74 19 74H25V41.7398L21 37.0732L17 41.7398Z" fill="#0F1D2E"/>
<path d="M54 54C54 52.8954 54.8954 52 56 52H58C59.1046 52 60 52.8954 60 54V56C60 57.1046 59.1046 58 58 58H56C54.8954 58 54 57.1046 54 56V54Z" fill="#0F1D2E"/>
<path d="M45 31C45 29.8954 45.8954 29 47 29H49C50.1046 29 51 29.8954 51 31V33C51 34.1046 50.1046 35 49 35H47C45.8954 35 45 34.1046 45 33V31Z" fill="#0F1D2E"/>
<path d="M35 54C35 52.8954 35.8954 52 37 52H39C40.1046 52 41 52.8954 41 54V56C41 57.1046 40.1046 58 39 58H37C35.8954 58 35 57.1046 35 56V54Z" fill="#0F1D2E"/>
</svg>
