<svg width="96" height="96" viewBox="0 0 96 96" fill="none" xmlns="http://www.w3.org/2000/svg">
<path d="M85 55.5C85 69.5833 73.5833 81 59.5 81C45.4167 81 34 69.5833 34 55.5C34 41.4167 45.4167 30 59.5 30C73.5833 30 85 41.4167 85 55.5Z" fill="#8FC1FF"/>
<path fill-rule="evenodd" clip-rule="evenodd" d="M59.5 32C46.5213 32 36 42.5213 36 55.5C36 68.4787 46.5213 79 59.5 79C72.4787 79 83 68.4787 83 55.5C83 42.5213 72.4787 32 59.5 32ZM32 55.5C32 40.3122 44.3122 28 59.5 28C74.6878 28 87 40.3122 87 55.5C87 70.6878 74.6878 83 59.5 83C44.3122 83 32 70.6878 32 55.5Z" fill="#0F1D2E"/>
<path fill-rule="evenodd" clip-rule="evenodd" d="M60.7353 42C55.788 42 51 47.3354 51 55C51 62.6646 55.788 68 60.7353 68C62.9693 68 64.9737 67.2121 66.5796 65.592C67.3572 64.8075 68.6235 64.802 69.408 65.5796C70.1925 66.3572 70.198 67.6235 69.4204 68.408C67.0299 70.8196 63.9876 72 60.7353 72C52.7202 72 47 63.9039 47 55C47 46.0961 52.7202 38 60.7353 38C63.9876 38 67.0299 39.1804 69.4204 41.592C70.198 42.3765 70.1925 43.6428 69.408 44.4204C68.6235 45.198 67.3572 45.1925 66.5796 44.408C64.9737 42.7879 62.9693 42 60.7353 42Z" fill="#0F1D2E"/>
<path fill-rule="evenodd" clip-rule="evenodd" d="M43 51C43 49.8954 43.8954 49 45 49H64C65.1046 49 66 49.8954 66 51C66 52.1046 65.1046 53 64 53H45C43.8954 53 43 52.1046 43 51Z" fill="#0F1D2E"/>
<path fill-rule="evenodd" clip-rule="evenodd" d="M43 59C43 57.8954 43.8954 57 45 57L61 57C62.1046 57 63 57.8954 63 59C63 60.1046 62.1046 61 61 61L45 61C43.8954 61 43 60.1046 43 59Z" fill="#0F1D2E"/>
<path fill-rule="evenodd" clip-rule="evenodd" d="M38.4413 19.3732C37.6548 18.5576 36.3485 18.5576 35.562 19.3732L14.7072 40.999H19.0017C20.6586 40.999 22.0017 42.3421 22.0017 43.999V60.999C22.0017 62.1036 22.8971 62.999 24.0017 62.999H27.0017C28.1063 62.999 29.0017 63.8944 29.0017 64.999C29.0017 66.1036 28.1063 66.999 27.0017 66.999H24.0017C20.688 66.999 18.0017 64.3127 18.0017 60.999V44.999H14.7072C11.1785 44.999 9.37842 40.7624 11.8279 38.2224L32.6827 16.5965C35.0422 14.1497 38.9612 14.1498 41.3207 16.5967L47.6021 23.1107C48.3688 23.9058 48.3458 25.172 47.5507 25.9387C46.7556 26.7054 45.4895 26.6824 44.7227 25.8873L38.4413 19.3732Z" fill="#0F1D2E"/>
</svg>
