<svg width="96" height="96" viewBox="0 0 96 96" fill="none" xmlns="http://www.w3.org/2000/svg">
<path d="M61.0444 63C65 63 65 65.9997 65 66.9999C65 66.9999 75.411 62.9531 78 61.9999C80.9039 60.9306 82.7613 61.75 83.6307 64.1249C84.5 66.4999 83.6384 67.9303 81.0494 69.3602C78.4604 70.7901 63.8829 79.0466 62 79.9999C60.1171 80.9531 53.5514 84.3548 48.138 82.4483C42.7246 80.5418 26 75 26 75V78C26 79.1046 25.1046 80 24 80H20.3273C18.399 80 16.7453 78.6243 16.3941 76.7284L12 53H26V56C31.187 56.0196 44.1044 56.4691 48.7833 61.5073C49.9988 62.8161 51.032 63 52 63H61.0444Z" fill="#8FC1FF"/>
<path fill-rule="evenodd" clip-rule="evenodd" d="M10.4624 51.721C10.8424 51.2642 11.4058 51 12 51H26C27.1046 51 28 51.8954 28 53V54.0277C30.6694 54.0927 34.2998 54.2964 37.9113 54.899C40.2228 55.2846 42.5799 55.8421 44.6977 56.6576C46.7981 57.4665 48.7925 58.5782 50.2488 60.1463C50.6906 60.622 51.0124 60.8027 51.2184 60.884C51.4268 60.9662 51.6493 61 52 61H61.0436L61.0444 63L61.0443 65H52C51.3828 65 50.6046 64.9419 49.7505 64.6049C48.8941 64.267 48.0915 63.7014 47.3178 62.8683C46.4347 61.9173 45.0598 61.0834 43.2602 60.3904C41.4779 59.7041 39.4042 59.2033 37.253 58.8444C33.928 58.2896 30.5456 58.0938 28 58.029V73.5564C28.3784 73.682 28.8254 73.8305 29.3287 73.9978C30.9819 74.5474 33.2428 75.3 35.673 76.1124C40.5264 77.7346 46.0774 79.6022 48.8024 80.5619C50.94 81.3147 53.4574 81.0568 55.8423 80.3738C58.1301 79.7186 60.0481 78.7468 61.0182 78.2552C61.0451 78.2416 61.0713 78.2284 61.0967 78.2155C62.3116 77.6004 69.01 73.8309 74.2015 70.9094C76.8887 69.3972 79.1722 68.1122 80.0825 67.6094C81.2735 66.9517 81.7066 66.476 81.86 66.1791C81.953 65.999 82.0647 65.6651 81.7526 64.8124C81.4512 63.9892 81.0999 63.7318 80.8465 63.6321C80.5397 63.5115 79.8936 63.4339 78.6911 63.8767C77.4152 64.3464 74.1832 65.5894 71.25 66.7229C69.7879 67.2879 68.4064 67.8232 67.3904 68.2173C67.2182 68.2841 67.0564 68.3469 66.9066 68.405C66.8125 68.9978 66.6241 69.6915 66.2477 70.3591C65.3451 71.9596 63.6297 73.005 61.0519 73.0146L61.0444 73.0146H45C43.8954 73.0146 43 72.1192 43 71.0146C43 69.91 43.8954 69.0146 45 69.0146H61.0403C61.7761 69.0114 62.1783 68.8708 62.3845 68.76C62.5771 68.6565 62.6847 68.534 62.7635 68.3944C62.9703 68.0276 63 67.5271 63 66.9999C63 66.4719 62.9701 65.9729 62.7644 65.6089C62.6865 65.4711 62.5804 65.3506 62.3896 65.2488C62.1847 65.1394 61.7824 65 61.0443 65L61.0444 63L61.0436 61C63.6214 61 65.3417 62.0394 66.2468 63.6409C66.3619 63.8447 66.4595 64.0509 66.5422 64.256C67.4738 63.8948 68.6141 63.4532 69.8082 62.9918C72.7278 61.8636 75.9958 60.6065 77.309 60.123C79.0103 59.4966 80.7449 59.2941 82.3102 59.9095C83.9288 60.546 84.9408 61.8857 85.5088 63.4374C86.066 64.9597 86.1816 66.5285 85.4139 68.0148C84.7065 69.3843 83.4144 70.3388 82.0163 71.1109C81.1906 71.5669 79.0468 72.7733 76.4732 74.2214C71.2262 77.1738 64.193 81.1313 62.9034 81.7842C62.8708 81.8007 62.8367 81.818 62.801 81.8361C61.8057 82.3408 59.604 83.4573 56.9436 84.2192C54.2216 84.9987 50.7494 85.4884 47.4736 84.3347C44.7852 83.3879 39.2672 81.5313 34.405 79.906C31.9774 79.0946 29.7187 78.3427 28.0669 77.7936C28.0445 77.7861 28.0222 77.7787 28 77.7713V78C28 80.2091 26.2092 82 24 82H20.3273C17.4349 82 14.9543 79.9365 14.4276 77.0925L10.0335 53.3642C9.92526 52.7799 10.0824 52.1778 10.4624 51.721ZM24 56.0014C24 56.0006 24 55.9998 24 55.999V55H14.4044L18.3607 76.3642C18.5363 77.3122 19.3632 78 20.3273 78H24V56.0014Z" fill="#0F1D2E"/>
<path fill-rule="evenodd" clip-rule="evenodd" d="M51.7353 20C46.788 20 42 25.3354 42 33C42 40.6646 46.788 46 51.7353 46C53.9693 46 55.9737 45.2121 57.5796 43.592C58.3572 42.8075 59.6235 42.802 60.408 43.5796C61.1925 44.3572 61.198 45.6235 60.4204 46.408C58.0299 48.8196 54.9876 50 51.7353 50C43.7202 50 38 41.9039 38 33C38 24.0961 43.7202 16 51.7353 16C54.9876 16 58.0299 17.1804 60.4204 19.592C61.198 20.3765 61.1925 21.6428 60.408 22.4204C59.6235 23.198 58.3572 23.1925 57.5796 22.408C55.9737 20.7879 53.9693 20 51.7353 20Z" fill="#0F1D2E"/>
<path fill-rule="evenodd" clip-rule="evenodd" d="M34 29C34 27.8954 34.8954 27 36 27H55C56.1046 27 57 27.8954 57 29C57 30.1046 56.1046 31 55 31H36C34.8954 31 34 30.1046 34 29Z" fill="#0F1D2E"/>
<path fill-rule="evenodd" clip-rule="evenodd" d="M34 37C34 35.8954 34.8954 35 36 35L52 35C53.1046 35 54 35.8954 54 37C54 38.1046 53.1046 39 52 39L36 39C34.8954 39 34 38.1046 34 37Z" fill="#0F1D2E"/>
</svg>
