<svg width="96" height="96" viewBox="0 0 96 96" fill="none" xmlns="http://www.w3.org/2000/svg">
<path fill-rule="evenodd" clip-rule="evenodd" d="M76 51.5L48 22L20 51L29 51.5V75H67V52.5L76 51.5ZM38.7301 54.5218C34.0952 49.1903 39.3095 38.5273 48 47.4131C56.6905 38.5273 61.9048 49.1903 57.2699 54.5218C52.6349 59.8532 48 64 48 64C48 64 43.3651 59.8533 38.7301 54.5218Z" fill="#8FC1FF"/>
<path fill-rule="evenodd" clip-rule="evenodd" d="M39.9183 46.8993C38.7246 48.3639 38.5582 51.2754 40.2395 53.2094C42.5118 55.8232 44.7899 58.1529 46.503 59.8315C47.0728 60.3899 47.5789 60.875 48 61.2733C48.4211 60.875 48.9272 60.3899 49.4971 59.8315C51.2102 58.1529 53.4883 55.8231 55.7605 53.2094C57.4418 51.2755 57.2754 48.3639 56.0817 46.8993C55.5607 46.2601 54.8767 45.9227 53.9688 46.015C52.9693 46.1166 51.422 46.7744 49.4298 48.8113C49.0536 49.1961 48.5381 49.4129 48 49.4129C47.4619 49.4129 46.9464 49.1961 46.5702 48.8113C44.578 46.7744 43.0307 46.1166 42.0312 46.0149C41.1233 45.9226 40.4393 46.2601 39.9183 46.8993ZM48 63.9998L46.6665 65.4903C47.4257 66.1696 48.5743 66.1696 49.3335 65.4903L48 63.9998ZM48 63.9998C49.3335 65.4903 49.3334 65.4905 49.3335 65.4903L49.3503 65.4753L49.3935 65.4364C49.4309 65.4026 49.4853 65.3533 49.5557 65.2892C49.6963 65.1609 49.9007 64.9734 50.1596 64.7323C50.6773 64.2502 51.4139 63.5534 52.2966 62.6885C54.0597 60.9609 56.4166 58.5515 58.7793 55.8338C61.7329 52.4363 61.6097 47.3505 59.1823 44.3722C57.8927 42.79 55.9334 41.7946 53.5642 42.0355C51.7478 42.2202 49.8769 43.1108 48 44.6843C46.1232 43.1108 44.2522 42.2202 42.4358 42.0355C40.0666 41.7946 38.1073 42.79 36.8177 44.3722C34.3903 47.3505 34.2671 52.4363 37.2208 55.8338C39.5835 58.5515 41.9403 60.9609 43.7034 62.6885C44.5861 63.5535 45.3227 64.2502 45.8404 64.7323C46.0993 64.9734 46.3037 65.1609 46.4443 65.2892C46.5147 65.3533 46.5691 65.4026 46.6065 65.4364L46.6497 65.4753L46.6665 65.4903C46.6666 65.4905 46.6665 65.4903 48 63.9998Z" fill="#0F1D2E"/>
<path fill-rule="evenodd" clip-rule="evenodd" d="M43.6882 22.5792C46.0462 20.1426 49.9534 20.1425 52.3114 22.5792L76.1555 47.2181C78.6118 49.7563 76.8132 53.9998 73.2811 53.9998H68.9992V71.9998C68.9992 75.3135 66.3129 77.9998 62.9992 77.9998H32.9992C29.6855 77.9998 26.9992 75.3135 26.9992 71.9998V53.9998H22.7184C19.1863 53.9998 17.3877 49.7563 19.844 47.2181L43.6882 22.5792ZM49.437 25.3609C48.651 24.5487 47.3486 24.5487 46.5626 25.3609L22.7184 49.9998H27.9992C29.6561 49.9998 30.9992 51.3429 30.9992 52.9998V71.9998C30.9992 73.1044 31.8946 73.9998 32.9992 73.9998H62.9992C64.1038 73.9998 64.9992 73.1044 64.9992 71.9998V52.9998C64.9992 51.3429 66.3423 49.9998 67.9992 49.9998L73.2811 49.9998L49.437 25.3609Z" fill="#0F1D2E"/>
</svg>
