<svg width="96" height="96" viewBox="0 0 96 96" fill="none" xmlns="http://www.w3.org/2000/svg">
<path d="M33 20L19 33L20.5 75H75L75.5 33H77L64 20H33Z" fill="#8FC1FF"/>
<path fill-rule="evenodd" clip-rule="evenodd" d="M20 33C21.1046 33 22 33.8954 22 35V49H38C39.1046 49 40 49.8954 40 51C40 52.1046 39.1046 53 38 53H20C18.8954 53 18 52.1046 18 51V35C18 33.8954 18.8954 33 20 33ZM76 33C77.1046 33 78 33.8954 78 35V51C78 52.1046 77.1046 53 76 53H58C56.8954 53 56 52.1046 56 51C56 49.8954 56.8954 49 58 49H74V35C74 33.8954 74.8954 33 76 33Z" fill="#0F1D2E"/>
<path fill-rule="evenodd" clip-rule="evenodd" d="M20 48.0721C21.1046 48.0721 22 48.9676 22 50.0721V72C22 73.1045 22.8954 74 24 74H72C73.1046 74 74 73.1045 74 72V50.0721C74 48.9676 74.8954 48.0721 76 48.0721C77.1046 48.0721 78 48.9676 78 50.0721V72C78 75.3137 75.3137 78 72 78H24C20.6863 78 18 75.3137 18 72V50.0721C18 48.9676 18.8954 48.0721 20 48.0721Z" fill="#0F1D2E"/>
<path fill-rule="evenodd" clip-rule="evenodd" d="M38 49C39.1046 49 40 49.8954 40 51V68C40 69.1046 39.1046 70 38 70C36.8954 70 36 69.1046 36 68V51C36 49.8954 36.8954 49 38 49Z" fill="#0F1D2E"/>
<path fill-rule="evenodd" clip-rule="evenodd" d="M58 49C59.1046 49 60 49.8954 60 51V68C60 69.1046 59.1046 70 58 70C56.8954 70 56 69.1046 56 68V51C56 49.8954 56.8954 49 58 49Z" fill="#0F1D2E"/>
<path fill-rule="evenodd" clip-rule="evenodd" d="M58 59C59.1046 59 60 59.8954 60 61V76C60 77.1046 59.1046 78 58 78C56.8954 78 56 77.1046 56 76V61C56 59.8954 56.8954 59 58 59Z" fill="#0F1D2E"/>
<path fill-rule="evenodd" clip-rule="evenodd" d="M38 59C39.1046 59 40 59.8954 40 61L40 76C40 77.1046 39.1046 78 38 78C36.8954 78 36 77.1046 36 76L36 61C36 59.8954 36.8954 59 38 59Z" fill="#0F1D2E"/>
<path fill-rule="evenodd" clip-rule="evenodd" d="M36 70C36 68.8954 36.8954 68 38 68L58 68C59.1046 68 60 68.8954 60 70C60 71.1046 59.1046 72 58 72H38C36.8954 72 36 71.1046 36 70Z" fill="#0F1D2E"/>
<path fill-rule="evenodd" clip-rule="evenodd" d="M36 64C36 62.8954 36.8954 62 38 62L58 62C59.1046 62 60 62.8954 60 64C60 65.1046 59.1046 66 58 66H38C36.8954 66 36 65.1046 36 64Z" fill="#0F1D2E"/>
<path fill-rule="evenodd" clip-rule="evenodd" d="M31.6902 18.4886C32.0539 18.1735 32.5189 18 33.0001 18H63.0001C63.4813 18 63.9463 18.1735 64.31 18.4886L79.31 31.4886C79.9409 32.0355 80.1658 32.9167 79.874 33.699C79.5822 34.4813 78.8351 35 78.0001 35H18.0001C17.1651 35 16.418 34.4813 16.1262 33.699C15.8344 32.9167 16.0593 32.0355 16.6902 31.4886L31.6902 18.4886ZM33.7462 22L23.3615 31H72.6387L62.254 22H33.7462Z" fill="#0F1D2E"/>
<path fill-rule="evenodd" clip-rule="evenodd" d="M50 14C51.1046 14 52 14.8954 52 16V20C52 21.1046 51.1046 22 50 22C48.8954 22 48 21.1046 48 20V16C48 14.8954 48.8954 14 50 14Z" fill="#0F1D2E"/>
<path fill-rule="evenodd" clip-rule="evenodd" d="M58 14C59.1046 14 60 14.8954 60 16V20C60 21.1046 59.1046 22 58 22C56.8954 22 56 21.1046 56 20V16C56 14.8954 56.8954 14 58 14Z" fill="#0F1D2E"/>
<path d="M26 59C26 57.8954 26.8954 57 28 57H30C31.1046 57 32 57.8954 32 59V61C32 62.1046 31.1046 63 30 63H28C26.8954 63 26 62.1046 26 61V59Z" fill="#0F1D2E"/>
<path d="M44 52C44 50.8954 44.8954 50 46 50H50C51.1046 50 52 50.8954 52 52V62C52 63.1046 51.1046 64 50 64H46C44.8954 64 44 63.1046 44 62V52Z" fill="#0F1D2E"/>
<path d="M64 59C64 57.8954 64.8954 57 66 57H68C69.1046 57 70 57.8954 70 59V61C70 62.1046 69.1046 63 68 63H66C64.8954 63 64 62.1046 64 61V59Z" fill="#0F1D2E"/>
<path d="M26 41C26 39.8954 26.8954 39 28 39H30C31.1046 39 32 39.8954 32 41V43C32 44.1046 31.1046 45 30 45H28C26.8954 45 26 44.1046 26 43V41Z" fill="#0F1D2E"/>
<path d="M64 41C64 39.8954 64.8954 39 66 39H68C69.1046 39 70 39.8954 70 41V43C70 44.1046 69.1046 45 68 45H66C64.8954 45 64 44.1046 64 43V41Z" fill="#0F1D2E"/>
<path d="M45 41C45 39.8954 45.8954 39 47 39H49C50.1046 39 51 39.8954 51 41V43C51 44.1046 50.1046 45 49 45H47C45.8954 45 45 44.1046 45 43V41Z" fill="#0F1D2E"/>
</svg>
