<svg width="96" height="96" viewBox="0 0 96 96" fill="none" xmlns="http://www.w3.org/2000/svg">
<path d="M48 21.9999L76 51.4999L67 52.4999L66 75.9999H30L29 51.4999L20 50.9999L48 21.9999Z" fill="#8FC1FF"/>
<path d="M44.0018 69V80C44.0018 80.9625 44.9 82 46 82H50C51.1 82 52 80.9625 52 80V69C53.1 69 54 68.3375 54 67.375V59.5C54 57.575 53.2 56 51 56H45C42.8 56 42 57.575 42 59.5V67.375C42 68.3375 42.9 69 44 69H44.0018Z" fill="#0F1D2E"/>
<path d="M51 51C51 52.6569 49.6569 54 48 54C46.3431 54 45 52.6569 45 51C45 49.3431 46.3431 48 48 48C49.6569 48 51 49.3431 51 51Z" fill="#0F1D2E"/>
<path fill-rule="evenodd" clip-rule="evenodd" d="M43.6882 22.5793C46.0462 20.1426 49.9534 20.1426 52.3114 22.5793L76.1555 47.2182C78.6118 49.7564 76.8132 53.9999 73.2811 53.9999H68.9992V71.9999C68.9992 75.3136 66.3129 77.9999 62.9992 77.9999H57.9998C56.8952 77.9999 55.9998 77.1045 55.9998 75.9999C55.9998 74.8953 56.8952 73.9999 57.9998 73.9999H62.9992C64.1038 73.9999 64.9992 73.1045 64.9992 71.9999V52.9999C64.9992 51.343 66.3423 49.9999 67.9992 49.9999L73.2811 49.9999L49.437 25.361C48.651 24.5487 47.3486 24.5487 46.5626 25.361L22.7184 49.9999H27.9992C29.6561 49.9999 30.9992 51.343 30.9992 52.9999V71.9999C30.9992 73.1045 31.8946 73.9999 32.9992 73.9999H37.9992C39.1038 73.9999 39.9992 74.8953 39.9992 75.9999C39.9992 77.1045 39.1038 77.9999 37.9992 77.9999H32.9992C29.6855 77.9999 26.9992 75.3136 26.9992 71.9999V53.9999H22.7184C19.1863 53.9999 17.3877 49.7564 19.844 47.2182L43.6882 22.5793Z" fill="#0F1D2E"/>
</svg>
