<svg width="96" height="96" viewBox="0 0 96 96" fill="none" xmlns="http://www.w3.org/2000/svg">
<path d="M85 55.5C85 69.5833 73.5833 81 59.5 81C45.4167 81 34 69.5833 34 55.5C34 41.4167 45.4167 30 59.5 30C73.5833 30 85 41.4167 85 55.5Z" fill="#8FC1FF"/>
<path fill-rule="evenodd" clip-rule="evenodd" d="M59.5 32C46.5213 32 36 42.5213 36 55.5C36 68.4787 46.5213 79 59.5 79C72.4787 79 83 68.4787 83 55.5C83 42.5213 72.4787 32 59.5 32ZM32 55.5C32 40.3122 44.3122 28 59.5 28C74.6878 28 87 40.3122 87 55.5C87 70.6878 74.6878 83 59.5 83C44.3122 83 32 70.6878 32 55.5Z" fill="#0F1D2E"/>
<path fill-rule="evenodd" clip-rule="evenodd" d="M38.4413 19.3732C37.6548 18.5576 36.3485 18.5576 35.562 19.3732L14.7072 40.999H19.0017C20.6586 40.999 22.0017 42.3421 22.0017 43.999V60.999C22.0017 62.1036 22.8971 62.999 24.0017 62.999H27.0017C28.1063 62.999 29.0017 63.8944 29.0017 64.999C29.0017 66.1036 28.1063 66.999 27.0017 66.999H24.0017C20.688 66.999 18.0017 64.3127 18.0017 60.999V44.999H14.7072C11.1785 44.999 9.37842 40.7624 11.8279 38.2224L32.6827 16.5965C35.0422 14.1497 38.9612 14.1498 41.3207 16.5967L47.6021 23.1107C48.3688 23.9058 48.3458 25.172 47.5507 25.9387C46.7556 26.7054 45.4895 26.6824 44.7227 25.8873L38.4413 19.3732Z" fill="#0F1D2E"/>
<path fill-rule="evenodd" clip-rule="evenodd" d="M76.3793 45.5518C77.1792 46.3136 77.2101 47.5796 76.4483 48.3794L57.796 67.9642C56.2974 69.5378 53.8166 69.6271 52.2087 68.1654L42.6547 59.48C41.8374 58.737 41.7771 57.4721 42.5201 56.6548C43.2631 55.8374 44.528 55.7772 45.3454 56.5202L54.8994 65.2056L73.5517 45.6208C74.3135 44.8209 75.5795 44.79 76.3793 45.5518Z" fill="#0F1D2E"/>
</svg>
