<svg width="96" height="96" viewBox="0 0 96 96" fill="none" xmlns="http://www.w3.org/2000/svg">
<path fill-rule="evenodd" clip-rule="evenodd" d="M77.9624 49.5189L76.0002 50.5L73.5002 47.5L67.0002 51.5L63.5002 56.5L62.5002 60.5L59.5002 62L56.5002 64.5L53.0002 67.5L47.0002 66L43.0002 67.5L34.0002 62L29.0002 55L27.0002 50.5L24.0002 46.5L20.5002 50.5L18.0229 49.1788C18.642 65.2009 31.8264 78 48.0002 78C64.0594 78 77.1714 65.3817 77.9624 49.5189ZM68.5026 26.0989L63.5002 28.5L65.5002 33L62.5002 34.5L53.0002 35.5L43.0002 39L31.0002 34.5L33.5002 28.5L27.9208 25.7103C33.2378 20.9175 40.2783 18 48.0002 18C55.9287 18 63.1388 21.0756 68.5026 26.0989Z" fill="#8FC1FF"/>
<path fill-rule="evenodd" clip-rule="evenodd" d="M45.0409 40.6517C46.0339 40.2509 47.2716 39.7302 49.0005 38.7321C50.29 37.9876 52.9096 37.3227 55.5608 36.965C56.8422 36.7922 58.0292 36.7049 58.9351 36.7041C59.3915 36.7037 59.7343 36.7255 59.9627 36.7572C60.0139 36.7643 60.0532 36.771 60.0821 36.7766C60.5898 37.0392 61.1901 37.0736 61.7296 36.8624L66.0931 35.1544C67.1217 34.7517 67.6291 33.5915 67.2265 32.563C66.8239 31.5344 65.6637 31.0269 64.6351 31.4296L60.9515 32.8714C60.7847 32.8353 60.6338 32.8119 60.5115 32.795C60.0344 32.7289 59.4918 32.7037 58.9317 32.7041C57.8045 32.7051 56.4343 32.811 55.0261 33.0009C52.2985 33.3689 49.0105 34.1075 47.0005 35.268C45.494 36.1377 44.4438 36.5792 43.5437 36.9425C43.4641 36.9746 43.3841 37.0067 43.3037 37.0389C42.4794 37.3694 41.6109 37.7176 40.6792 38.3229C40.5716 38.3929 40.4709 38.473 40.3786 38.5622C39.3843 39.5237 39.1134 40.794 39.1492 41.857C39.1851 42.9218 39.5236 43.9801 40.0033 44.8772C40.4817 45.7717 41.1753 46.6453 42.0556 47.2553C42.9451 47.8716 44.1874 48.3128 45.5505 47.9229C45.5782 47.915 45.6056 47.9065 45.6329 47.8974L50.7597 46.1885C53.3495 47.4925 57.0828 47.3644 60.7621 45.8494C61.7834 45.4288 62.2705 44.2599 61.8499 43.2385C61.4294 42.2171 60.2604 41.7301 59.2391 42.1506C55.7542 43.5856 53.1769 43.1193 52.187 42.3899C51.6634 42.0041 50.985 41.897 50.3681 42.1026L44.4963 44.0599C44.4645 44.0475 44.4114 44.0212 44.3338 43.9674C44.0884 43.7974 43.7823 43.4615 43.5306 42.9909C43.2803 42.5227 43.1583 42.0602 43.147 41.7224C43.1434 41.617 43.1501 41.543 43.1589 41.4931C43.6397 41.2163 44.1223 41.0218 44.8522 40.7278C44.9133 40.7032 44.9762 40.6778 45.0409 40.6517ZM43.186 41.4046C43.1858 41.4044 43.184 41.4069 43.1813 41.4127C43.1848 41.4077 43.1862 41.4048 43.186 41.4046ZM44.5332 44.0698C44.533 44.0692 44.5279 44.0678 44.5183 44.0674C44.5285 44.0702 44.5333 44.0705 44.5332 44.0698ZM33.5152 47.0597C33.2717 47.1206 33.0419 47.2267 32.8378 47.3725L28.8762 50.2023C26.3415 52.0127 25.5187 55.5951 27.4715 58.2709C29.2467 60.7033 31.5448 63.4486 34.0682 65.7556C36.5509 68.0255 39.4432 70.0496 42.4121 70.7511C44.8868 71.3359 46.8765 69.7477 47.8017 68.1286L50.7367 62.9923C50.9094 62.6901 51.0002 62.3481 51.0002 62C51.0002 59.6365 49.6589 58.0331 48.195 57.1281C47.4002 56.6367 46.5163 56.3111 45.667 56.1387C45.4173 55.3167 45.0467 54.6064 44.5641 54.009C43.7806 53.039 42.8105 52.5006 41.9152 52.2179C41.5577 52.105 41.2095 52.0317 40.8833 51.9859C40.5537 50.6522 39.7801 49.513 38.8816 48.6897C37.5433 47.4636 35.5043 46.5624 33.5152 47.0597ZM34.7426 50.9276C35.0847 50.9556 35.6279 51.1337 36.1794 51.639C36.8527 52.2559 37.1383 53.0075 37.0277 53.6714C36.9184 54.3272 37.1422 54.9943 37.6247 55.4516C38.102 55.904 38.7708 56.0926 39.4134 55.9569C39.4197 55.9556 39.426 55.9542 39.4323 55.9529L39.4304 55.9533L39.4269 55.954L39.4134 55.9569C39.4212 55.9555 39.4429 55.9516 39.4755 55.947C39.5415 55.9377 39.6491 55.9255 39.7841 55.9206C40.0659 55.9103 40.4006 55.9343 40.7106 56.0322C41.0027 56.1244 41.2514 56.2735 41.4523 56.5223C41.6542 56.7723 41.9162 57.2569 42.0104 58.1991C42.1182 59.276 43.063 60.0718 44.1425 59.995C44.582 59.9637 45.4141 60.1116 46.0916 60.5304C46.5504 60.814 46.8345 61.1446 46.9461 61.5636L44.3287 66.144C44.151 66.4551 43.9243 66.6691 43.7289 66.7789C43.5525 66.878 43.4312 66.8818 43.3319 66.8583C41.3597 66.3923 39.0809 64.9188 36.7672 62.8035C34.4941 60.7253 32.3702 58.1979 30.7025 55.9128C30.1765 55.192 30.3141 54.0908 31.2011 53.4572L34.7426 50.9276ZM39.4134 55.9569C39.4103 55.9576 39.4102 55.9575 39.4134 55.9569C39.4136 55.9569 39.4132 55.957 39.4134 55.9569ZM65.0006 51C65.0006 52.1046 65.896 53 67.0006 53C67.8802 53 68.6582 52.91 69.3868 52.6443C70.1299 52.3733 70.6717 51.9728 71.1192 51.6017C71.279 51.4692 71.4357 51.3332 71.5985 51.1919C72.2841 50.5967 73.0779 49.9077 74.6698 48.9885C75.6264 48.4362 75.9542 47.2131 75.4019 46.2565C74.8496 45.2999 73.6264 44.9721 72.6698 45.5244C70.7209 46.6497 69.641 47.5906 68.9454 48.1968C68.8044 48.3196 68.6792 48.4287 68.5658 48.5227C68.2603 48.7761 68.1311 48.8445 68.0165 48.8863C67.8873 48.9334 67.6209 49 67.0006 49C65.896 49 65.0006 49.8954 65.0006 51Z" fill="#0F1D2E"/>
<path fill-rule="evenodd" clip-rule="evenodd" d="M76.7171 20.1328C76.1508 19.9155 75.5165 19.9668 74.9926 20.2724L62.9927 27.2725C62.0579 27.8177 61.7264 29.0077 62.2446 29.9577L73.3205 50.2635C74.3517 52.1541 76.6947 52.8889 78.6209 51.9258L81.8294 50.3215C84.4756 48.9985 85.7624 45.9441 84.8607 43.1263L77.9052 21.3905C77.7203 20.8128 77.2833 20.3502 76.7171 20.1328ZM74.8552 24.9835L81.051 44.3454C81.3515 45.2847 80.9226 46.3028 80.0406 46.7438L76.832 48.3481L66.6868 29.7484L74.8552 24.9835Z" fill="#0F1D2E"/>
<path fill-rule="evenodd" clip-rule="evenodd" d="M65.8096 46.6687C66.7546 47.1412 67.9539 48.0315 68.3977 49.5491C69.1319 52.0595 68.1704 54.1702 67.242 55.4806C66.905 55.9562 66.5522 56.3582 66.2392 56.678C66.2604 57.0792 66.2214 57.4648 66.1519 57.8093C65.9762 58.6809 65.5682 59.5209 65.0445 60.24C64.2893 61.2768 63.1097 62.2952 61.6356 62.7512C61.4743 63.2364 61.2358 63.8064 60.8832 64.3729C60.3982 65.1519 59.6602 65.9819 58.563 66.5237C57.9571 66.8229 57.2912 67.0097 56.5709 67.0736C56.5318 67.1778 56.489 67.2835 56.442 67.39C56.1892 67.9635 55.7704 68.6638 55.0719 69.2128C54.3297 69.7961 53.3826 70.1184 52.2911 70.0513C51.6653 70.0128 51.1434 69.8093 50.8246 69.6719C49.0105 68.8898 47.9231 68.3867 47.2781 68.0726C46.9552 67.9153 46.737 67.8024 46.5903 67.723C46.5166 67.6831 46.4588 67.6505 46.4132 67.6239C46.3903 67.6106 46.37 67.5984 46.3519 67.5874L46.3261 67.5714L46.3141 67.5639L46.3084 67.5602L46.3041 67.5574C46.3034 67.557 46.3027 67.5565 47.3868 65.8758L46.3027 67.5565C45.3745 66.9578 45.1074 65.72 45.7061 64.7917C46.2969 63.8759 47.5098 63.6037 48.4336 64.1717C48.442 64.1765 48.4614 64.1874 48.4942 64.2052C48.5789 64.2511 48.7443 64.3375 49.0295 64.4764C49.6008 64.7546 50.6281 65.2313 52.4082 65.9987C52.4907 66.0343 52.5394 66.0516 52.5673 66.06C52.5867 66.0603 52.6009 66.0594 52.6105 66.0585C52.637 66.0322 52.7041 65.9529 52.782 65.7763C52.8706 65.5753 52.931 65.3436 52.9675 65.142C52.9847 65.0464 52.9946 64.9695 52.9997 64.9221C53.0022 64.8988 53.0035 64.8835 53.004 64.8778L53.0037 64.8824L53.0034 64.8867L53.0034 64.8883M53.004 64.8778C53.004 64.8776 53.0039 64.878 53.004 64.8778C53.0041 64.8755 53.0041 64.8757 53.004 64.8778ZM53.004 64.8778C53.0389 64.3082 53.3158 63.7798 53.765 63.427C54.2181 63.0712 54.8026 62.928 55.3688 63.0342C56.1253 63.1761 56.5511 63.0561 56.7918 62.9372C57.0534 62.8081 57.2842 62.5853 57.4873 62.2591C57.5314 62.1883 57.5724 62.1153 57.6104 62.0414L53.1057 59.7888C52.1178 59.2947 51.7174 58.0934 52.2114 57.1054C52.7055 56.1175 53.9068 55.7171 54.8948 56.2111L60.3714 58.9498C60.8577 58.8236 61.3915 58.4612 61.8112 57.885C61.9763 57.6583 62.0881 57.4435 62.157 57.2642L54.0289 52.7482C53.0633 52.2118 52.7155 50.9942 53.252 50.0286C53.7884 49.0631 55.006 48.7152 55.9716 49.2517L63.6899 53.54C63.787 53.4248 63.8844 53.3005 63.9781 53.1683C64.5365 52.3801 64.8142 51.5461 64.5586 50.6719C64.5579 50.6696 64.555 50.6602 64.5434 50.6416C64.531 50.6218 64.5074 50.5897 64.4652 50.5475C64.3763 50.4587 64.2305 50.3513 64.0208 50.2464L57.1062 46.789L58.0002 44.9999C58.8947 43.2111 58.8948 43.2111 58.8948 43.2111L65.8096 46.6687M58.0002 44.9999L58.8948 43.2111C57.9068 42.7171 56.7054 43.1175 56.2114 44.1054C55.7174 45.0933 56.1182 46.2949 57.1062 46.789L58.0002 44.9999ZM62.2456 56.8894C62.2458 56.8892 62.2463 56.8928 62.2462 56.9005C62.2453 56.8934 62.2454 56.8895 62.2456 56.8894ZM37.1274 34.1994C39.3399 34.7789 41.9906 35.6201 44.2542 37.4419C45.1147 38.1345 45.2508 39.3934 44.5583 40.2539C43.8657 41.1144 42.6067 41.2506 41.7463 40.558C40.1752 39.2936 38.2214 38.6209 36.1138 38.0688C35.7191 37.9655 35.2787 37.8566 34.8323 37.7463C34.2022 37.5906 33.5603 37.432 33.0185 37.2817C32.0364 37.0092 30.9952 36.6674 30.0948 36.1475C29.1382 35.5952 28.8105 34.3721 29.3628 33.4155C29.9151 32.4589 31.1382 32.1311 32.0948 32.6834C32.5425 32.9419 33.1842 33.1765 34.088 33.4273C34.6203 33.575 35.1253 33.699 35.6754 33.8341C36.1176 33.9426 36.589 34.0584 37.1274 34.1994ZM21.6217 46.2615C22.174 45.3049 23.3971 44.9771 24.3537 45.5294C26.8414 46.9657 27.8211 48.2764 28.5161 49.4823C28.5914 49.613 28.6585 49.7319 28.7201 49.8409C29.1368 50.5789 29.2966 50.8621 29.9995 51.2679C30.9561 51.8202 31.2838 53.0434 30.7316 54C30.1793 54.9565 28.9561 55.2843 27.9995 54.732C26.3148 53.7593 25.6755 52.6048 25.2128 51.7692C25.1566 51.6676 25.103 51.5708 25.0504 51.4796C24.675 50.8281 24.1799 50.0478 22.3537 48.9935C21.3971 48.4412 21.0694 47.2181 21.6217 46.2615Z" fill="#0F1D2E"/>
<path fill-rule="evenodd" clip-rule="evenodd" d="M35.9184 28.4344C36.0753 28.9665 36.0041 29.5398 35.7219 30.0174L23.6704 50.4122C22.6019 52.2205 20.3166 52.8943 18.4379 51.9549L15.3265 50.3992C12.5802 49.026 11.3137 45.801 12.3919 42.926L20.1274 22.2977C20.3264 21.767 20.7414 21.3456 21.269 21.1384C21.7967 20.9312 22.3875 20.9576 22.8945 21.2111L34.8945 27.2111C35.3906 27.4592 35.7615 27.9022 35.9184 28.4344ZM23.0927 25.7824L16.1372 44.3305C15.7778 45.2888 16.1999 46.3638 17.1154 46.8215L20.2267 48.3772L31.1868 29.8294L23.0927 25.7824Z" fill="#0F1D2E"/>
<path fill-rule="evenodd" clip-rule="evenodd" d="M47.9999 20C40.8273 20 34.2888 22.6943 29.3338 27.1292C28.5107 27.8658 27.2463 27.7958 26.5097 26.9727C25.773 26.1497 25.8431 24.8853 26.6661 24.1486C32.3262 19.0827 39.8054 16 47.9999 16C56.4547 16 64.1475 19.2816 69.8669 24.6367C70.6732 25.3917 70.7148 26.6573 69.9598 27.4636C69.2049 28.2699 67.9392 28.3116 67.1329 27.5566C62.1253 22.8679 55.3997 20 47.9999 20ZM17.9341 48.0043C19.0363 47.9318 19.9886 48.7665 20.0612 49.8686C21.0216 64.4604 33.164 76 47.9999 76C62.6771 76 74.7185 64.7057 75.904 50.3356C75.9948 49.2347 76.9608 48.416 78.0616 48.5068C79.1625 48.5976 79.9813 49.5636 79.8904 50.6644C78.5352 67.0919 64.776 80 47.9999 80C31.0429 80 17.1677 66.8117 16.0698 50.1314C15.9973 49.0292 16.832 48.0769 17.9341 48.0043Z" fill="#0F1D2E"/>
</svg>
