<svg width="96" height="96" viewBox="0 0 96 96" fill="none" xmlns="http://www.w3.org/2000/svg">
<path d="M35 42L35.5 63L47 63.5L47.5 48H62.5V42L48.5 29L35 42Z" fill="#8FC1FF"/>
<path fill-rule="evenodd" clip-rule="evenodd" d="M48 20C32.536 20 20 32.536 20 48C20 63.464 32.536 76 48 76C63.464 76 76 63.464 76 48C76 32.536 63.464 20 48 20ZM16 48C16 30.3269 30.3269 16 48 16C65.6731 16 80 30.3269 80 48C80 65.6731 65.6731 80 48 80C30.3269 80 16 65.6731 16 48Z" fill="#0F1D2E"/>
<path fill-rule="evenodd" clip-rule="evenodd" d="M46.2775 28.7983C47.8122 27.3731 50.1865 27.3731 51.7212 28.7983L63.0815 39.3476C64.304 40.4829 64.9987 42.0759 64.9987 43.7443V48.0391C64.9987 48.5481 64.8047 49.0379 64.4562 49.4087L49.4575 65.3696C49.0795 65.7719 48.552 66 48 66H39C35.6863 66 33 63.3137 33 60V43.7443C33 42.0759 33.6947 40.4829 34.9172 39.3476L46.2775 28.7983ZM48.9993 31.7294L37.6391 42.2787C37.2316 42.6571 37 43.1881 37 43.7443V60C37 61.1046 37.8954 62 39 62H47.1349L60.9987 47.2469V43.7443C60.9987 43.1881 60.7671 42.6571 60.3596 42.2787L48.9993 31.7294Z" fill="#0F1D2E"/>
<path fill-rule="evenodd" clip-rule="evenodd" d="M49 50V64C49 65.1046 48.1046 66 47 66C45.8954 66 45 65.1046 45 64V50C45 47.7755 46.7755 46 49 46H49.0056V46L63.0048 46.0391C64.1094 46.0422 65.0023 46.9401 64.9992 48.0447C64.9961 49.1493 64.0982 50.0422 62.9936 50.0391L49 50Z" fill="#0F1D2E"/>
</svg>
