<svg width="96" height="96" viewBox="0 0 96 96" fill="none" xmlns="http://www.w3.org/2000/svg">
<path d="M45 20H21V56H30.5L42 76H74V56H59V38H45V20Z" fill="#8FC1FF"/>
<path fill-rule="evenodd" clip-rule="evenodd" d="M17 56C17 54.8954 17.8954 54 19 54H30C30.7025 54 31.3535 54.3686 31.715 54.971L43.1324 74H77C78.1046 74 79 74.8954 79 76C79 77.1046 78.1046 78 77 78H42C41.2975 78 40.6465 77.6314 40.285 77.029L28.8676 58H19C17.8954 58 17 57.1046 17 56Z" fill="#0F1D2E"/>
<path fill-rule="evenodd" clip-rule="evenodd" d="M28 56C28 54.8954 28.8954 54 30 54H71C74.3137 54 77 56.6863 77 60V76C77 77.1046 76.1046 78 75 78H42C40.8954 78 40 77.1046 40 76C40 74.8954 40.8954 74 42 74H73V60C73 58.8954 72.1046 58 71 58H30C28.8954 58 28 57.1046 28 56Z" fill="#0F1D2E"/>
<path fill-rule="evenodd" clip-rule="evenodd" d="M19.5858 36.5858C19.9609 36.2107 20.4696 36 21 36H56C59.3137 36 62 38.6863 62 42L62 56C62 57.1046 61.1046 58 60 58C58.8954 58 58 57.1046 58 56L58 42C58 40.8954 57.1046 40 56 40H23V56C23 57.1046 22.1046 58 21 58C19.8954 58 19 57.1046 19 56V38C19 37.4696 19.2107 36.9609 19.5858 36.5858Z" fill="#0F1D2E"/>
<path fill-rule="evenodd" clip-rule="evenodd" d="M25 22C23.8954 22 23 22.8954 23 24V38C23 39.1046 22.1046 40 21 40C19.8954 40 19 39.1046 19 38V24C19 20.6863 21.6863 18 25 18H42C45.3137 18 48 20.6863 48 24V38C48 39.1046 47.1046 40 46 40C44.8954 40 44 39.1046 44 38V24C44 22.8954 43.1046 22 42 22H25Z" fill="#0F1D2E"/>
<path fill-rule="evenodd" clip-rule="evenodd" d="M52 26C53.1046 26 54 26.8954 54 28V38C54 39.1046 53.1046 40 52 40C50.8954 40 50 39.1046 50 38V28C50 26.8954 50.8954 26 52 26Z" fill="#0F1D2E"/>
<path fill-rule="evenodd" clip-rule="evenodd" d="M58 26C59.1046 26 60 26.8954 60 28V38C60 39.1046 59.1046 40 58 40C56.8954 40 56 39.1046 56 38V28C56 26.8954 56.8954 26 58 26Z" fill="#0F1D2E"/>
<path fill-rule="evenodd" clip-rule="evenodd" d="M44 28C44 26.8954 44.8954 26 46 26L60 26C61.1046 26 62 26.8954 62 28C62 29.1046 61.1046 30 60 30L46 30C44.8954 30 44 29.1046 44 28Z" fill="#0F1D2E"/>
<path fill-rule="evenodd" clip-rule="evenodd" d="M66 44C67.1046 44 68 44.8954 68 46V56C68 57.1046 67.1046 58 66 58C64.8954 58 64 57.1046 64 56V46C64 44.8954 64.8954 44 66 44Z" fill="#0F1D2E"/>
<path fill-rule="evenodd" clip-rule="evenodd" d="M72 44C73.1046 44 74 44.8954 74 46V56C74 57.1046 73.1046 58 72 58C70.8954 58 70 57.1046 70 56V46C70 44.8954 70.8954 44 72 44Z" fill="#0F1D2E"/>
<path fill-rule="evenodd" clip-rule="evenodd" d="M58 46C58 44.8954 58.8954 44 60 44L74 44C75.1046 44 76 44.8954 76 46C76 47.1046 75.1046 48 74 48L60 48C58.8954 48 58 47.1046 58 46Z" fill="#0F1D2E"/>
<path d="M61 64C61 62.8954 61.8954 62 63 62H67C68.1046 62 69 62.8954 69 64V74C69 75.1046 68.1046 76 67 76H63C61.8954 76 61 75.1046 61 74V64Z" fill="#0F1D2E"/>
<path d="M47 64C47 62.8954 47.8954 62 49 62H51C52.1046 62 53 62.8954 53 64V66C53 67.1046 52.1046 68 51 68H49C47.8954 68 47 67.1046 47 66V64Z" fill="#0F1D2E"/>
<path d="M47 46C47 44.8954 47.8954 44 49 44H51C52.1046 44 53 44.8954 53 46V48C53 49.1046 52.1046 50 51 50H49C47.8954 50 47 49.1046 47 48V46Z" fill="#0F1D2E"/>
<path d="M27 46C27 44.8954 27.8954 44 29 44H31C32.1046 44 33 44.8954 33 46V48C33 49.1046 32.1046 50 31 50H29C27.8954 50 27 49.1046 27 48V46Z" fill="#0F1D2E"/>
<path d="M31 28C31 26.8954 31.8954 26 33 26H35C36.1046 26 37 26.8954 37 28V30C37 31.1046 36.1046 32 35 32H33C31.8954 32 31 31.1046 31 30V28Z" fill="#0F1D2E"/>
</svg>
