<svg width="96" height="96" viewBox="0 0 96 96" fill="none" xmlns="http://www.w3.org/2000/svg">
<path d="M22 80V60L20 58.5L30 49H53L62 58.5L60 60V80H22Z" fill="#8FC1FF"/>
<path fill-rule="evenodd" clip-rule="evenodd" d="M32 29.9999C32 27.7907 33.7909 25.9999 36 25.9999H72C74.2091 25.9999 76 27.7907 76 29.9999V73.9999C76 76.209 74.2092 77.9999 72.0001 77.9999L68 78C66.8955 78 66 77.1046 66 76C66 74.8955 66.8954 74 68 74L72 73.9999V29.9999H36V41C36 42.1046 35.1046 43 34 43C32.8954 43 32 42.1046 32 41V29.9999Z" fill="#0F1D2E"/>
<path fill-rule="evenodd" clip-rule="evenodd" d="M20 59C20 57.8954 20.8954 57 22 57H58C60.2091 57 62 58.7909 62 61V78C62 80.2091 60.2091 82 58 82H24C21.7909 82 20 80.2091 20 78V59ZM24 61V78H58V61H24Z" fill="#0F1D2E"/>
<path fill-rule="evenodd" clip-rule="evenodd" d="M32 20C32 18.8954 32.8954 18 34 18L74 18C75.1046 18 76 18.8954 76 20C76 21.1046 75.1046 22 74 22L34 22C32.8954 22 32 21.1046 32 20Z" fill="#0F1D2E"/>
<path fill-rule="evenodd" clip-rule="evenodd" d="M58 14C59.1046 14 60 14.8954 60 16V20C60 21.1046 59.1046 22 58 22C56.8954 22 56 21.1046 56 20V16C56 14.8954 56.8954 14 58 14Z" fill="#0F1D2E"/>
<path fill-rule="evenodd" clip-rule="evenodd" d="M66 14C67.1046 14 68 14.8954 68 16V20C68 21.1046 67.1046 22 66 22C64.8954 22 64 21.1046 64 20V16C64 14.8954 64.8954 14 66 14Z" fill="#0F1D2E"/>
<path fill-rule="evenodd" clip-rule="evenodd" d="M27.6343 47.6529C28.0133 47.237 28.5499 47 29.1126 47H52.8875C53.4502 47 53.9868 47.237 54.3658 47.6529L63.4783 57.6529C64.0118 58.2384 64.1495 59.0835 63.8295 59.808C63.5095 60.5326 62.7921 61 62 61H20C19.208 61 18.4905 60.5326 18.1705 59.808C17.8505 59.0835 17.9883 58.2384 18.5218 57.6529L27.6343 47.6529ZM29.9959 51L24.5284 57H57.4717L52.0042 51H29.9959Z" fill="#0F1D2E"/>
<path d="M44 67C44 65.8954 44.8954 65 46 65H50C51.1046 65 52 65.8954 52 67V79C52 80.1046 51.1046 81 50 81H46C44.8954 81 44 80.1046 44 79V67Z" fill="#0F1D2E"/>
<path d="M30 67C30 65.8954 30.8954 65 32 65H36C37.1046 65 38 65.8954 38 67V71C38 72.1046 37.1046 73 36 73H32C30.8954 73 30 72.1046 30 71V67Z" fill="#0F1D2E"/>
</svg>
