<svg width="96" height="96" viewBox="0 0 96 96" fill="none" xmlns="http://www.w3.org/2000/svg">
<path d="M52 27C52 24.7909 53.7909 23 56 23H74C76.2091 23 78 24.7909 78 27V76C78 77.1046 77.1046 78 76 78H54C52.8954 78 52 77.1046 52 76V27Z" fill="#8FC1FF"/>
<path d="M18 56C18 54.8954 18.8954 54 20 54H42C43.1046 54 44 54.8954 44 56V76C44 77.1046 43.1046 78 42 78H20C18.8954 78 18 77.1046 18 76V56Z" fill="#8FC1FF"/>
<path fill-rule="evenodd" clip-rule="evenodd" d="M50 27C50 23.6863 52.6863 21 56 21H74C77.3137 21 80 23.6863 80 27V76C80 78.2091 78.2091 80 76 80H54C51.7909 80 50 78.2091 50 76V27ZM56 25C54.8954 25 54 25.8954 54 27V76H76V27C76 25.8954 75.1046 25 74 25H56Z" fill="#0F1D2E"/>
<path fill-rule="evenodd" clip-rule="evenodd" d="M16 56.0001C16 53.7909 17.7909 52.0001 20 52.0001H42C44.2091 52.0001 46 53.7909 46 56.0001V76.0001C46 78.2092 44.2091 80.0001 42 80.0001H20C17.7909 80.0001 16 78.2092 16 76.0001V56.0001ZM42 56.0001L20 56.0001V76.0001H42V56.0001Z" fill="#0F1D2E"/>
<path fill-rule="evenodd" clip-rule="evenodd" d="M16 23C16 21.8954 16.8954 21 18 21L44 21C45.1046 21 46 21.8954 46 23C46 24.1046 45.1046 25 44 25L18 25C16.8954 25 16 24.1046 16 23Z" fill="#0F1D2E"/>
<path fill-rule="evenodd" clip-rule="evenodd" d="M38.9985 18.0001C40.1031 17.9994 40.9991 18.8942 40.9998 19.9988L41.0094 34.9988C41.0101 36.1033 40.1153 36.9993 39.0107 37.0001C37.9061 37.0008 37.0101 36.1059 37.0094 35.0013L36.9998 20.0013C36.9991 18.8968 37.894 18.0008 38.9985 18.0001Z" fill="#0F1D2E"/>
<path fill-rule="evenodd" clip-rule="evenodd" d="M30.9985 18.0001C32.1031 17.9994 32.9991 18.8942 32.9998 19.9988L33.0069 30.9988C33.0076 32.1033 32.1127 32.9994 31.0081 33.0001C29.9036 33.0008 29.0076 32.1059 29.0069 31.0013L28.9998 20.0013C28.9991 18.8968 29.894 18.0008 30.9985 18.0001Z" fill="#0F1D2E"/>
<path d="M43 35.4001C43 37.6093 41.2091 39.4001 39 39.4001C36.7909 39.4001 35 37.6093 35 35.4001C35 33.191 36.7909 31.4001 39 31.4001C41.2091 31.4001 43 33.191 43 35.4001Z" fill="#0F1D2E"/>
<path fill-rule="evenodd" clip-rule="evenodd" d="M50 44.0001C50 42.8955 50.8954 42.0001 52 42.0001L78 42.0001C79.1046 42.0001 80 42.8955 80 44.0001C80 45.1046 79.1046 46.0001 78 46.0001L52 46.0001C50.8954 46.0001 50 45.1046 50 44.0001Z" fill="#0F1D2E"/>
<path fill-rule="evenodd" clip-rule="evenodd" d="M58 48.0001C59.1046 48.0001 60 48.8955 60 50.0001L60 60.0001C60 61.1046 59.1046 62.0001 58 62.0001C56.8954 62.0001 56 61.1046 56 60.0001L56 50.0001C56 48.8955 56.8954 48.0001 58 48.0001Z" fill="#0F1D2E"/>
<path fill-rule="evenodd" clip-rule="evenodd" d="M58 32C59.1046 32 60 32.8954 60 34L60 38C60 39.1046 59.1046 40 58 40C56.8954 40 56 39.1046 56 38L56 34C56 32.8954 56.8954 32 58 32Z" fill="#0F1D2E"/>
<path fill-rule="evenodd" clip-rule="evenodd" d="M29.2102 42.2182C29.0425 42.0631 28.8275 41.9999 28.0002 41.9999C27.2934 41.9999 27.0634 42.1811 26.9451 42.3047C26.7548 42.5036 26.4929 42.9601 26.2997 43.9927C25.9709 45.7507 25.9809 48.2341 25.9947 51.6601C25.9977 52.3959 26.0008 53.1751 26.0008 54H22.0008C22.0008 53.26 21.9973 52.5358 21.9938 51.8304C21.977 48.4045 21.9624 45.4252 22.3679 43.2572C22.619 41.9148 23.0792 40.5588 24.0555 39.5389C25.1037 38.4437 26.4847 37.9999 28.0002 37.9999C28.028 37.9999 28.0576 37.9998 28.0889 37.9997C28.8307 37.9971 30.5309 37.9912 31.9261 39.2816C33.362 40.6096 34.0008 42.8268 34.0008 45.9999C34.0008 47.1045 33.1054 47.9999 32.0008 47.9999C30.8962 47.9999 30.0008 47.1045 30.0008 45.9999C30.0008 43.173 29.3962 42.3902 29.2102 42.2182Z" fill="#0F1D2E"/>
</svg>
