<svg width="96" height="96" viewBox="0 0 96 96" fill="none" xmlns="http://www.w3.org/2000/svg">
<path d="M16 54.0005C16 51.7913 17.7909 50.0005 20 50.0005H33V54C33 56.2091 34.7909 58 37 58H59C61.2091 58 63 56.2091 63 54V50.0005H76C78.2091 50.0005 80 51.7913 80 54.0005V72.0005C80 74.2096 78.2091 76.0005 76 76.0005H20C17.7909 76.0005 16 74.2096 16 72.0005V54.0005Z" fill="#8FC1FF"/>
<path fill-rule="evenodd" clip-rule="evenodd" d="M43.6718 16.6207C46.0331 14.1609 49.9671 14.1609 52.3284 16.6207L70.1932 35.2298C72.634 37.7723 70.8321 42 67.3077 42H65.0001V55C65.0001 58.3137 62.3138 61 59.0001 61H37.0001C33.6864 61 31.0001 58.3137 31.0001 55V42H28.6925C25.1681 42 23.3662 37.7723 25.807 35.2298L43.6718 16.6207ZM49.4429 19.3908C48.6558 18.5709 47.3444 18.5709 46.5573 19.3908L28.6925 38H32.0001C33.657 38 35.0001 39.3431 35.0001 41V55C35.0001 56.1045 35.8955 57 37.0001 57H59.0001C60.1047 57 61.0001 56.1045 61.0001 55V41C61.0001 39.3431 62.3433 38 64.0001 38L67.3077 38L49.4429 19.3908Z" fill="#0F1D2E"/>
<path fill-rule="evenodd" clip-rule="evenodd" d="M20 52.0005C18.8954 52.0005 18 52.8959 18 54.0005V72.0005C18 73.1051 18.8954 74.0005 20 74.0005H76C77.1046 74.0005 78 73.1051 78 72.0005V54.0005C78 52.8959 77.1046 52.0005 76 52.0005H71C69.8954 52.0005 69 51.1051 69 50.0005C69 48.8959 69.8954 48.0005 71 48.0005H76C79.3137 48.0005 82 50.6868 82 54.0005V72.0005C82 75.3142 79.3137 78.0005 76 78.0005H20C16.6863 78.0005 14 75.3142 14 72.0005V54.0005C14 50.6868 16.6863 48.0005 20 48.0005H25C26.1046 48.0005 27 48.8959 27 50.0005C27 51.1051 26.1046 52.0005 25 52.0005H20Z" fill="#0F1D2E"/>
</svg>
