<svg width="96" height="96" viewBox="0 0 96 96" fill="none" xmlns="http://www.w3.org/2000/svg">
<path fill-rule="evenodd" clip-rule="evenodd" d="M48.7779 57.7061C51.8539 53.5331 63 37.9458 63 31.1949C63 23.3633 55.9936 17 48 17C40.0064 17 33 23.3633 33 31.1949C33 37.9458 44.1461 53.5331 47.2221 57.7061C47.6143 58.2383 48.3857 58.2383 48.7779 57.7061ZM48 37.0397C51.2217 37.0397 53.8333 34.4229 53.8333 31.1948C53.8333 27.9667 51.2217 25.3499 48 25.3499C44.7784 25.3499 42.1667 27.9667 42.1667 31.1948C42.1667 34.4229 44.7784 37.0397 48 37.0397Z" fill="#8FC1FF"/>
<path fill-rule="evenodd" clip-rule="evenodd" d="M20 52C18.8954 52 18 52.8954 18 54V72C18 73.1046 18.8954 74 20 74H76C77.1046 74 78 73.1046 78 72V54C78 52.8954 77.1046 52 76 52H63C61.8954 52 61 51.1046 61 50C61 48.8954 61.8954 48 63 48H76C79.3137 48 82 50.6863 82 54V72C82 75.3137 79.3137 78 76 78H20C16.6863 78 14 75.3137 14 72V54C14 50.6863 16.6863 48 20 48H33C34.1046 48 35 48.8954 35 50C35 51.1046 34.1046 52 33 52H20Z" fill="#0F1D2E"/>
<path fill-rule="evenodd" clip-rule="evenodd" d="M48 19C40.9922 19 35 24.6213 35 31.28C35 32.5391 35.5471 34.4708 36.6205 36.9171C37.6661 39.2999 39.1085 41.9475 40.6716 44.5572C43.3161 48.9723 46.2398 53.1702 48 55.6172C49.7602 53.1702 52.6839 48.9723 55.3284 44.5572C56.8915 41.9475 58.3339 39.2999 59.3795 36.9171C60.4529 34.4708 61 32.5391 61 31.28C61 24.6213 55.0078 19 48 19ZM31 31.28C31 22.1818 39.0206 15 48 15C56.9794 15 65 22.1818 65 31.28C65 33.416 64.1544 35.9901 63.0424 38.5243C61.9026 41.1218 60.3671 43.9291 58.7599 46.6125C55.543 51.9834 51.9461 57.0101 50.3929 59.1301C49.2017 60.7559 46.7983 60.7559 45.6071 59.1301C44.0539 57.0101 40.457 51.9834 37.2401 46.6125C35.6329 43.9291 34.0974 41.1218 32.9576 38.5243C31.8457 35.9901 31 33.416 31 31.28Z" fill="#0F1D2E"/>
<path fill-rule="evenodd" clip-rule="evenodd" d="M48 27C45.7909 27 44 28.7909 44 31C44 33.2091 45.7909 35 48 35C50.2091 35 52 33.2091 52 31C52 28.7909 50.2091 27 48 27ZM40 31C40 26.5817 43.5817 23 48 23C52.4183 23 56 26.5817 56 31C56 35.4183 52.4183 39 48 39C43.5817 39 40 35.4183 40 31Z" fill="#0F1D2E"/>
<path fill-rule="evenodd" clip-rule="evenodd" d="M26 62C26 63.1046 26.8954 64 28 64C29.1046 64 30 63.1046 30 62C30 60.8954 29.1046 60 28 60C26.8954 60 26 60.8954 26 62ZM28 68C24.6863 68 22 65.3137 22 62C22 58.6863 24.6863 56 28 56C31.3137 56 34 58.6863 34 62C34 65.3137 31.3137 68 28 68Z" fill="#0F1D2E"/>
<path fill-rule="evenodd" clip-rule="evenodd" d="M65 62C65 63.1046 65.8954 64 67 64C68.1046 64 69 63.1046 69 62C69 60.8954 68.1046 60 67 60C65.8954 60 65 60.8954 65 62ZM67 68C63.6863 68 61 65.3137 61 62C61 58.6863 63.6863 56 67 56C70.3137 56 73 58.6863 73 62C73 65.3137 70.3137 68 67 68Z" fill="#0F1D2E"/>
<path fill-rule="evenodd" clip-rule="evenodd" d="M54.7999 60.4C55.1461 60.1404 55.5671 60 55.9999 60H62.9999C64.1044 60 64.9999 60.8954 64.9999 62C64.9999 63.1046 64.1044 64 62.9999 64H56.6665L49.1999 69.6C48.8537 69.8596 48.4326 70 47.9999 70H40.9999C40.66 70 40.3257 69.9134 40.0286 69.7483L31.0286 64.7483C30.063 64.2119 29.7151 62.9943 30.2516 62.0287C30.788 61.0631 32.0056 60.7153 32.9712 61.2517L41.5181 66H47.3332L54.7999 60.4Z" fill="#0F1D2E"/>
<path fill-rule="evenodd" clip-rule="evenodd" d="M14 62C14 60.8954 14.8954 60 16 60H23C24.1046 60 25 60.8954 25 62C25 63.1046 24.1046 64 23 64H16C14.8954 64 14 63.1046 14 62Z" fill="#0F1D2E"/>
</svg>
