<svg width="96" height="96" viewBox="0 0 96 96" fill="none" xmlns="http://www.w3.org/2000/svg">
<path d="M36 54H64V34H72V62H28V34H36V54Z" fill="#8FC1FF"/>
<path fill-rule="evenodd" clip-rule="evenodd" d="M15 72C15 69.7909 16.7909 68 19 68H81C83.2091 68 85 69.7909 85 72C85 76.4183 81.4183 80 77 80H23C18.5817 80 15 76.4183 15 72ZM81 72H19C19 74.2091 20.7909 76 23 76H77C79.2091 76 81 74.2091 81 72Z" fill="#0F1D2E"/>
<path fill-rule="evenodd" clip-rule="evenodd" d="M25 28C23.3431 28 22 29.3431 22 31V65C22 66.6569 23.3431 68 25 68H75C76.6569 68 78 66.6569 78 65V31C78 29.3431 76.6569 28 75 28H66C64.8954 28 64 27.1046 64 26C64 24.8954 64.8954 24 66 24H75C78.866 24 82 27.134 82 31V65C82 68.866 78.866 72 75 72H25C21.134 72 18 68.866 18 65V31C18 27.134 21.134 24 25 24H34C35.1046 24 36 24.8954 36 26C36 27.1046 35.1046 28 34 28H25Z" fill="#0F1D2E"/>
<path fill-rule="evenodd" clip-rule="evenodd" d="M28 32C29.1046 32 30 32.8954 30 34V60H70V34C70 32.8954 70.8954 32 72 32C73.1046 32 74 32.8954 74 34V62C74 63.1046 73.1046 64 72 64H28C26.8954 64 26 63.1046 26 62V34C26 32.8954 26.8954 32 28 32Z" fill="#0F1D2E"/>
<path fill-rule="evenodd" clip-rule="evenodd" d="M48.0476 21.0393C49.1711 20.0763 50.8289 20.0763 51.9524 21.0393L64.9524 32.1822C65.6173 32.7521 66 33.5842 66 34.4599V53C66 54.6569 64.6569 56 63 56H37C35.3431 56 34 54.6569 34 53V34.4599C34 33.5842 34.3827 32.7521 35.0476 32.1822L48.0476 21.0393ZM50 24.6342L38 34.9199V52H62V34.9199L50 24.6342Z" fill="#0F1D2E"/>
<path d="M52 41C52 40.4477 52.4477 40 53 40H57C57.5523 40 58 40.4477 58 41V53C58 53.5523 57.5523 54 57 54H53C52.4477 54 52 53.5523 52 53V41Z" fill="#0F1D2E"/>
<path d="M42 39C42 38.4477 42.4477 38 43 38H47C47.5523 38 48 38.4477 48 39V43C48 43.5523 47.5523 44 47 44H43C42.4477 44 42 43.5523 42 43V39Z" fill="#0F1D2E"/>
</svg>
