<svg width="96" height="96" viewBox="0 0 96 96" fill="none" xmlns="http://www.w3.org/2000/svg">
<path fill-rule="evenodd" clip-rule="evenodd" d="M48.7851 67.951C52.2497 63.2744 66 44.1975 66 36C66 26.6208 57.5923 19 48 19C38.4077 19 30 26.6208 30 36C30 44.1975 43.7503 63.2744 47.2149 67.951C47.608 68.4816 48.392 68.4816 48.7851 67.951ZM48 43C51.866 43 55 39.866 55 36C55 32.134 51.866 29 48 29C44.134 29 41 32.134 41 36C41 39.866 44.134 43 48 43Z" fill="#8FC1FF"/>
<path fill-rule="evenodd" clip-rule="evenodd" d="M48 21C39.378 21 32 27.8551 32 36C32 37.6031 32.7047 40.0061 34.0294 42.979C35.3249 45.886 37.1048 49.1055 39.018 52.2583C42.3287 57.714 45.9678 62.855 48 65.6419C50.0322 62.855 53.6713 57.714 56.982 52.2583C58.8952 49.1055 60.6751 45.886 61.9706 42.979C63.2953 40.0061 64 37.6031 64 36C64 27.8551 56.622 21 48 21ZM28 36C28 25.3866 37.4374 17 48 17C58.5626 17 68 25.3866 68 36C68 38.4956 66.9859 41.5513 65.6242 44.6071C64.2332 47.7287 62.359 51.1077 60.4016 54.3334C56.4841 60.7891 52.1385 66.7843 50.3921 69.1416C49.1995 70.7514 46.8005 70.7514 45.6079 69.1416C43.8615 66.7843 39.5159 60.7891 35.5984 54.3334C33.641 51.1077 31.7668 47.7287 30.3758 44.6071C29.0141 41.5513 28 38.4956 28 36Z" fill="#0F1D2E"/>
<path fill-rule="evenodd" clip-rule="evenodd" d="M48 31C45.2386 31 43 33.2386 43 36C43 38.7614 45.2386 41 48 41C50.7614 41 53 38.7614 53 36C53 33.2386 50.7614 31 48 31ZM39 36C39 31.0294 43.0294 27 48 27C52.9706 27 57 31.0294 57 36C57 40.9706 52.9706 45 48 45C43.0294 45 39 40.9706 39 36Z" fill="#0F1D2E"/>
<path fill-rule="evenodd" clip-rule="evenodd" d="M24 76C24 74.8954 24.8954 74 26 74H70C71.1046 74 72 74.8954 72 76C72 77.1046 71.1046 78 70 78H26C24.8954 78 24 77.1046 24 76Z" fill="#0F1D2E"/>
</svg>
