<svg width="96" height="96" viewBox="0 0 96 96" fill="none" xmlns="http://www.w3.org/2000/svg">
<path d="M55 42V34H72V62H28V43H37.5L46 52L47.5 42H55Z" fill="#8FC1FF"/>
<path fill-rule="evenodd" clip-rule="evenodd" d="M20 27C20 25.8954 20.8954 25 22 25L48 25C49.1046 25 50 25.8954 50 27C50 28.1046 49.1046 29 48 29L22 29C20.8954 29 20 28.1046 20 27Z" fill="#0F1D2E"/>
<path fill-rule="evenodd" clip-rule="evenodd" d="M20 35C20 33.8954 20.8954 33 22 33H38C39.1046 33 40 33.8954 40 35C40 36.1046 39.1046 37 38 37H22C20.8954 37 20 36.1046 20 35Z" fill="#0F1D2E"/>
<path fill-rule="evenodd" clip-rule="evenodd" d="M15 72C15 69.7909 16.7909 68 19 68H81C83.2091 68 85 69.7909 85 72C85 76.4183 81.4183 80 77 80H23C18.5817 80 15 76.4183 15 72ZM81 72H19C19 74.2091 20.7909 76 23 76H77C79.2091 76 81 74.2091 81 72Z" fill="#0F1D2E"/>
<path fill-rule="evenodd" clip-rule="evenodd" d="M62 26C62 24.8954 62.8954 24 64 24H75C78.866 24 82 27.134 82 31V65C82 68.866 78.866 72 75 72H25C21.134 72 18 68.866 18 65V52C18 50.8954 18.8954 50 20 50C21.1046 50 22 50.8954 22 52V65C22 66.6569 23.3431 68 25 68H75C76.6569 68 78 66.6569 78 65V31C78 29.3431 76.6569 28 75 28H64C62.8954 28 62 27.1046 62 26Z" fill="#0F1D2E"/>
<path fill-rule="evenodd" clip-rule="evenodd" d="M62 34C62 32.8954 62.8954 32 64 32H72C73.1046 32 74 32.8954 74 34V62C74 63.1046 73.1046 64 72 64H28C26.8954 64 26 63.1046 26 62V52C26 50.8954 26.8954 50 28 50C29.1046 50 30 50.8954 30 52V60H70V36H64C62.8954 36 62 35.1046 62 34Z" fill="#0F1D2E"/>
<path fill-rule="evenodd" clip-rule="evenodd" d="M12 23C12 19.6863 14.6863 17 18 17H52C55.3137 17 58 19.6863 58 23V39.0175C58 42.3312 55.3137 45.0175 52 45.0175H48V52C48 52.83 47.4873 53.5738 46.7117 53.8691C45.936 54.1644 45.0585 53.95 44.5065 53.3302L37.103 45.0175H18C14.6863 45.0175 12 42.3312 12 39.0175V23ZM18 21C16.8954 21 16 21.8954 16 23V39.0175C16 40.1221 16.8954 41.0175 18 41.0175H37.103C38.2442 41.0175 39.3311 41.505 40.0901 42.3572L44 46.7473V45.0175C44 42.8084 45.7909 41.0175 48 41.0175H52C53.1046 41.0175 54 40.1221 54 39.0175V23C54 21.8954 53.1046 21 52 21H18Z" fill="#0F1D2E"/>
</svg>
