<svg width="96" height="96" viewBox="0 0 96 96" fill="none" xmlns="http://www.w3.org/2000/svg">
<path d="M16 53.9999C16 51.7907 17.7909 49.9999 20 49.9999H76C78.2091 49.9999 80 51.7907 80 53.9999V71.9999C80 74.209 78.2091 75.9999 76 75.9999H20C17.7909 75.9999 16 74.209 16 71.9999V53.9999Z" fill="#8FC1FF"/>
<path d="M43.3354 45.9999V57.846C43.3354 58.8826 44.3833 59.9999 45.6667 59.9999H50.3333C51.6167 59.9999 52.6667 58.8826 52.6667 57.846V45.9999C53.95 45.9999 55 45.2864 55 44.2499V35.7691C55 33.696 54.0667 31.9999 51.5 31.9999H44.5C41.9333 31.9999 41 33.696 41 35.7691V44.2499C41 45.2864 42.05 45.9999 43.3333 45.9999H43.3354Z" fill="#0F1D2E"/>
<path d="M52 25.9999C52 28.209 50.2091 29.9999 48 29.9999C45.7909 29.9999 44 28.209 44 25.9999C44 23.7908 45.7909 21.9999 48 21.9999C50.2091 21.9999 52 23.7908 52 25.9999Z" fill="#0F1D2E"/>
<path fill-rule="evenodd" clip-rule="evenodd" d="M20 51.9999C18.8954 51.9999 18 52.8953 18 53.9999V71.9999C18 73.1045 18.8954 73.9999 20 73.9999H76C77.1046 73.9999 78 73.1045 78 71.9999V53.9999C78 52.8953 77.1046 51.9999 76 51.9999H61C59.8954 51.9999 59 51.1045 59 49.9999C59 48.8953 59.8954 47.9999 61 47.9999H76C79.3137 47.9999 82 50.6862 82 53.9999V71.9999C82 75.3136 79.3137 77.9999 76 77.9999H20C16.6863 77.9999 14 75.3136 14 71.9999V53.9999C14 50.6862 16.6863 47.9999 20 47.9999H35C36.1046 47.9999 37 48.8953 37 49.9999C37 51.1045 36.1046 51.9999 35 51.9999H20Z" fill="#0F1D2E"/>
</svg>
