<svg width="96" height="96" viewBox="0 0 96 96" fill="none" xmlns="http://www.w3.org/2000/svg">
<path d="M66 42C66 49.0304 64.8023 52.4311 58.9027 58.2154C53.6365 62.2622 58.4233 71 48 71C37.5767 71 42.3748 62.2622 37.1086 58.2154C31.209 52.4311 30 49.0304 30 42C30 32.0816 38.0568 24 48 24C57.9432 24 66 32.0816 66 42Z" fill="#8FC1FF"/>
<path fill-rule="evenodd" clip-rule="evenodd" d="M48 26C39.1631 26 32 33.1844 32 42C32 45.4152 32.2984 47.7074 33.1833 49.7942C34.0644 51.8723 35.6062 53.9313 38.4291 56.709C40.1081 58.0393 40.951 59.7186 41.4674 61.2991C41.7263 62.0914 41.912 62.8874 42.0721 63.601C42.0962 63.7083 42.1196 63.8133 42.1425 63.9162C42.2784 64.5255 42.3983 65.063 42.5448 65.5804C42.8834 66.7766 43.2763 67.516 43.8941 68.0124C44.5092 68.5065 45.6526 69 48 69C50.3472 69 51.4919 68.5066 52.1083 68.0118C52.7276 67.5147 53.1215 66.7746 53.4614 65.5786C53.6086 65.0606 53.7291 64.5225 53.8657 63.9124C53.8886 63.8102 53.912 63.7059 53.936 63.5993C54.0968 62.8857 54.2831 62.0899 54.5426 61.2978C55.06 59.7177 55.9035 58.039 57.5821 56.709C60.4044 53.9319 61.9431 51.8734 62.8216 49.796C63.7041 47.7092 64 45.4167 64 42C64 33.1844 56.8369 26 48 26ZM28 42C28 30.9789 36.9504 22 48 22C59.0496 22 68 30.9789 68 42C68 45.6137 67.6971 48.5368 66.5058 51.3539C65.3187 54.1611 63.3294 56.6761 60.3029 59.6435C60.2456 59.6996 60.1849 59.7523 60.1213 59.8012C59.2348 60.4825 58.7254 61.3779 58.3439 62.5427C58.1486 63.1389 57.9971 63.7729 57.8382 64.4785C57.8167 64.5736 57.7951 64.6705 57.773 64.7691C57.6381 65.3726 57.4899 66.0355 57.3091 66.6719C56.8845 68.1662 56.1916 69.8635 54.6122 71.1312C53.0301 72.4012 50.8644 73 48 73C45.1357 73 42.9702 72.4012 41.3888 71.1306C39.8102 69.8622 39.119 68.1642 38.696 66.6701C38.516 66.0342 38.3686 65.372 38.2344 64.7689C38.2123 64.6698 38.1906 64.5723 38.1692 64.4768C38.0108 63.7713 37.8599 63.1374 37.6652 62.5414C37.2847 61.377 36.7761 60.4822 35.8899 59.8012C35.8263 59.7523 35.7657 59.6996 35.7084 59.6435C32.6825 56.6767 30.6906 54.1622 29.5006 51.3557C28.3061 48.5385 28 45.6152 28 42Z" fill="#0F1D2E"/>
<path fill-rule="evenodd" clip-rule="evenodd" d="M40 73C40 71.8954 40.8954 71 42 71H54C55.1046 71 56 71.8954 56 73C56 74.1046 55.1046 75 54 75H42C40.8954 75 40 74.1046 40 73Z" fill="#0F1D2E"/>
<path fill-rule="evenodd" clip-rule="evenodd" d="M40 77C40 75.8954 40.8954 75 42 75H54C55.1046 75 56 75.8954 56 77C56 78.1046 55.1046 79 54 79H42C40.8954 79 40 78.1046 40 77Z" fill="#0F1D2E"/>
<path fill-rule="evenodd" clip-rule="evenodd" d="M43 81C43 79.8954 43.8954 79 45 79H51C52.1046 79 53 79.8954 53 81C53 82.1046 52.1046 83 51 83H45C43.8954 83 43 82.1046 43 81Z" fill="#0F1D2E"/>
<path fill-rule="evenodd" clip-rule="evenodd" d="M48.8804 9C49.9849 9 50.8804 9.89543 50.8804 11L50.8804 15C50.8804 16.1046 49.9849 17 48.8804 17C47.7758 17 46.8804 16.1046 46.8804 15L46.8804 11C46.8804 9.89543 47.7758 9 48.8804 9Z" fill="#0F1D2E"/>
<path fill-rule="evenodd" clip-rule="evenodd" d="M59.7765 20.9402C58.8199 20.388 58.4921 19.1648 59.0444 18.2082L61.0444 14.7441C61.5967 13.7875 62.8199 13.4598 63.7765 14.012C64.7331 14.5643 65.0608 15.7875 64.5085 16.7441L62.5085 20.2082C61.9563 21.1648 60.7331 21.4925 59.7765 20.9402Z" fill="#0F1D2E"/>
<path fill-rule="evenodd" clip-rule="evenodd" d="M31.7338 13.0635C32.6904 12.5113 33.9135 12.839 34.4658 13.7956L36.4658 17.2597C37.0181 18.2163 36.6904 19.4395 35.7338 19.9917C34.7772 20.544 33.554 20.2163 33.0017 19.2597L31.0017 15.7956C30.4494 14.839 30.7772 13.6158 31.7338 13.0635Z" fill="#0F1D2E"/>
<path fill-rule="evenodd" clip-rule="evenodd" d="M67.1787 26.9596C66.6264 26.003 66.9542 24.7798 67.9108 24.2275L71.3749 22.2275C72.3314 21.6753 73.5546 22.003 74.1069 22.9596C74.6592 23.9162 74.3314 25.1394 73.3749 25.6916L69.9108 27.6916C68.9542 28.2439 67.731 27.9162 67.1787 26.9596Z" fill="#0F1D2E"/>
<path fill-rule="evenodd" clip-rule="evenodd" d="M22 23.0212C22.5523 22.0647 23.7755 21.7369 24.7321 22.2892L28.1962 24.2892C29.1527 24.8415 29.4805 26.0647 28.9282 27.0212C28.3759 27.9778 27.1527 28.3056 26.1962 27.7533L22.7321 25.7533C21.7755 25.201 21.4477 23.9778 22 23.0212Z" fill="#0F1D2E"/>
<path fill-rule="evenodd" clip-rule="evenodd" d="M48 26C39.1631 26 32 33.1844 32 42C32 45.4152 32.2984 47.7074 33.1833 49.7942C34.0644 51.8723 35.6062 53.9313 38.4291 56.709C40.1081 58.0393 40.951 59.7186 41.4674 61.2991C41.7263 62.0914 41.912 62.8874 42.0721 63.601C42.0962 63.7083 42.1196 63.8133 42.1425 63.9162C42.2784 64.5255 42.3983 65.063 42.5448 65.5804C42.8834 66.7766 43.2763 67.516 43.8941 68.0124C44.5092 68.5065 45.6526 69 48 69C50.3472 69 51.4919 68.5066 52.1083 68.0118C52.7276 67.5147 53.1215 66.7746 53.4614 65.5786C53.6086 65.0606 53.7291 64.5225 53.8657 63.9124C53.8886 63.8102 53.912 63.7059 53.936 63.5993C54.0968 62.8857 54.2831 62.0899 54.5426 61.2978C55.06 59.7177 55.9035 58.039 57.5821 56.709C60.4044 53.9319 61.9431 51.8734 62.8216 49.796C63.7041 47.7092 64 45.4167 64 42C64 33.1844 56.8369 26 48 26ZM28 42C28 30.9789 36.9504 22 48 22C59.0496 22 68 30.9789 68 42C68 45.6137 67.6971 48.5368 66.5058 51.3539C65.3187 54.1611 63.3294 56.6761 60.3029 59.6435C60.2456 59.6996 60.1849 59.7523 60.1213 59.8012C59.2348 60.4825 58.7254 61.3779 58.3439 62.5427C58.1486 63.1389 57.9971 63.7729 57.8382 64.4785C57.8167 64.5736 57.7951 64.6705 57.773 64.7691C57.6381 65.3726 57.4899 66.0355 57.3091 66.6719C56.8845 68.1662 56.1916 69.8635 54.6122 71.1312C53.0301 72.4012 50.8644 73 48 73C45.1357 73 42.9702 72.4012 41.3888 71.1306C39.8102 69.8622 39.119 68.1642 38.696 66.6701C38.516 66.0342 38.3686 65.372 38.2344 64.7689C38.2123 64.6698 38.1906 64.5723 38.1692 64.4768C38.0108 63.7713 37.8599 63.1374 37.6652 62.5414C37.2847 61.377 36.7761 60.4822 35.8899 59.8012C35.8263 59.7523 35.7657 59.6996 35.7084 59.6435C32.6825 56.6767 30.6906 54.1622 29.5006 51.3557C28.3061 48.5385 28 45.6152 28 42Z" fill="#0F1D2E"/>
</svg>
