<svg width="96" height="96" viewBox="0 0 96 96" fill="none" xmlns="http://www.w3.org/2000/svg">
<path d="M27.8492 28.8492C19.6482 37.0503 19.6482 50.3467 27.8492 58.5477C36.0503 66.7487 49.3467 66.7487 57.5477 58.5477C65.7487 50.3467 65.7487 37.0503 57.5477 28.8492C49.3467 20.6482 36.0503 20.6482 27.8492 28.8492Z" fill="#8FC1FF"/>
<path fill-rule="evenodd" clip-rule="evenodd" d="M56.1333 57.3995C48.7133 64.8195 36.6832 64.8195 29.2632 57.3995C21.8432 49.9795 21.8433 37.9494 29.2632 30.5295C36.6832 23.1095 48.7133 23.1095 56.1333 30.5295C63.5532 37.9494 63.5532 49.9795 56.1333 57.3995ZM26.4348 60.2279C35.4168 69.21 49.9796 69.21 58.9617 60.2279C67.9438 51.2459 67.9438 36.6831 58.9617 27.701C49.9796 18.719 35.4168 18.719 26.4348 27.701C17.4527 36.6831 17.4527 51.2459 26.4348 60.2279Z" fill="#0F1D2E"/>
<path fill-rule="evenodd" clip-rule="evenodd" d="M76.3587 71.5416L60.8024 55.9853L55.1455 61.6422L70.7019 77.1985C72.264 78.7606 74.7966 78.7606 76.3587 77.1985C77.9208 75.6364 77.9208 73.1037 76.3587 71.5416Z" fill="#0F1D2E"/>
</svg>
