<svg width="96" height="96" viewBox="0 0 96 96" fill="none" xmlns="http://www.w3.org/2000/svg">
<path d="M35 28C35 20.8203 40.8203 15 48 15C55.1797 15 61 20.8203 61 28V50C61 57.1797 55.1797 63 48 63C40.8203 63 35 57.1797 35 50V28Z" fill="#8FC1FF"/>
<path fill-rule="evenodd" clip-rule="evenodd" d="M36 79C36 77.8954 36.8954 77 38 77H58C59.1046 77 60 77.8954 60 79C60 80.1046 59.1046 81 58 81H38C36.8954 81 36 80.1046 36 79Z" fill="#0F1D2E"/>
<path fill-rule="evenodd" clip-rule="evenodd" d="M33 43C33 41.8954 33.8954 41 35 41H43C44.1046 41 45 41.8954 45 43C45 44.1046 44.1046 45 43 45H35C33.8954 45 33 44.1046 33 43Z" fill="#0F1D2E"/>
<path fill-rule="evenodd" clip-rule="evenodd" d="M33 35C33 33.8954 33.8954 33 35 33H43C44.1046 33 45 33.8954 45 35C45 36.1046 44.1046 37 43 37H35C33.8954 37 33 36.1046 33 35Z" fill="#0F1D2E"/>
<path fill-rule="evenodd" clip-rule="evenodd" d="M51 43C51 41.8954 51.8954 41 53 41H61C62.1046 41 63 41.8954 63 43C63 44.1046 62.1046 45 61 45H53C51.8954 45 51 44.1046 51 43Z" fill="#0F1D2E"/>
<path fill-rule="evenodd" clip-rule="evenodd" d="M51 35C51 33.8954 51.8954 33 53 33H61C62.1046 33 63 33.8954 63 35C63 36.1046 62.1046 37 61 37H53C51.8954 37 51 36.1046 51 35Z" fill="#0F1D2E"/>
<path fill-rule="evenodd" clip-rule="evenodd" d="M48.0112 69C49.1158 69.0014 50.0101 69.8979 50.0087 71.0025L49.9987 79.0025C49.9973 80.1071 49.1007 81.0014 47.9962 81C46.8916 80.9986 45.9973 80.1021 45.9987 78.9975L46.0087 70.9975C46.0101 69.8929 46.9067 68.9986 48.0112 69Z" fill="#0F1D2E"/>
<path fill-rule="evenodd" clip-rule="evenodd" d="M33 28C33 19.7157 39.7157 13 48 13C56.2843 13 63 19.7157 63 28V50C63 58.2843 56.2843 65 48 65C39.7157 65 33 58.2843 33 50V28ZM48 17C41.9249 17 37 21.9249 37 28V50C37 56.0751 41.9249 61 48 61C54.0751 61 59 56.0751 59 50V28C59 21.9249 54.0751 17 48 17Z" fill="#0F1D2E"/>
<path fill-rule="evenodd" clip-rule="evenodd" d="M27 45C28.1046 45 29 45.8954 29 47V51C29 60.9411 37.0589 69 47 69H49C58.9411 69 67 60.9411 67 51V47C67 45.8954 67.8954 45 69 45C70.1046 45 71 45.8954 71 47V51C71 63.1503 61.1503 73 49 73H47C34.8497 73 25 63.1503 25 51V47C25 45.8954 25.8954 45 27 45Z" fill="#0F1D2E"/>
</svg>
