<svg width="96" height="96" viewBox="0 0 96 96" fill="none" xmlns="http://www.w3.org/2000/svg">
<path d="M30 29C30 34.5228 25.5228 39 20 39C14.4772 39 10 34.5228 10 29C10 23.4772 14.4772 19 20 19C25.5228 19 30 23.4772 30 29Z" fill="#8FC1FF"/>
<path d="M58 21C58 26.5228 53.5228 31 48 31C42.4772 31 38 26.5228 38 21C38 15.4772 42.4772 11 48 11C53.5228 11 58 15.4772 58 21Z" fill="#8FC1FF"/>
<path d="M86 29C86 34.5228 81.5228 39 76 39C70.4772 39 66 34.5228 66 29C66 23.4772 70.4772 19 76 19C81.5228 19 86 23.4772 86 29Z" fill="#8FC1FF"/>
<path d="M36 46H60V75H36V46Z" fill="#8FC1FF"/>
<path fill-rule="evenodd" clip-rule="evenodd" d="M34 43C34 39.6863 36.6863 37 40 37H56C59.3137 37 62 39.6863 62 43V77C62 80.3137 59.3137 83 56 83H40C36.6863 83 34 80.3137 34 77V43ZM38 77C38 78.1046 38.8954 79 40 79H56C57.1046 79 58 78.1046 58 77H38ZM58 73H38V48H58V73ZM58 44V43C58 41.8954 57.1046 41 56 41H40C38.8954 41 38 41.8954 38 43V44H58Z" fill="#0F1D2E"/>
<path fill-rule="evenodd" clip-rule="evenodd" d="M42 45C42 43.8954 42.8954 43 44 43H52C53.1046 43 54 43.8954 54 45C54 46.1046 53.1046 47 52 47H44C42.8954 47 42 46.1046 42 45Z" fill="#0F1D2E"/>
<path fill-rule="evenodd" clip-rule="evenodd" d="M20 21C15.5817 21 12 24.5817 12 29C12 33.4183 15.5817 37 20 37C24.4183 37 28 33.4183 28 29C28 24.5817 24.4183 21 20 21ZM8 29C8 22.3726 13.3726 17 20 17C26.6274 17 32 22.3726 32 29C32 35.6274 26.6274 41 20 41C13.3726 41 8 35.6274 8 29Z" fill="#0F1D2E"/>
<path fill-rule="evenodd" clip-rule="evenodd" d="M24.1094 24.3359C25.0285 24.9486 25.2768 26.1903 24.6641 27.1094L20.6641 33.1094C20.3317 33.6079 19.7933 33.9312 19.1971 33.9902C18.6008 34.0493 18.0095 33.8379 17.5858 33.4142L15.5858 31.4142C14.8047 30.6331 14.8047 29.3668 15.5858 28.5858C16.3668 27.8047 17.6332 27.8047 18.4142 28.5858L18.6892 28.8607L21.3359 24.8906C21.9486 23.9715 23.1903 23.7232 24.1094 24.3359Z" fill="#0F1D2E"/>
<path fill-rule="evenodd" clip-rule="evenodd" d="M48 13C43.5817 13 40 16.5817 40 21C40 25.4183 43.5817 29 48 29C52.4183 29 56 25.4183 56 21C56 16.5817 52.4183 13 48 13ZM36 21C36 14.3726 41.3726 9 48 9C54.6274 9 60 14.3726 60 21C60 27.6274 54.6274 33 48 33C41.3726 33 36 27.6274 36 21Z" fill="#0F1D2E"/>
<path d="M47.4813 16.8902C47.7128 16.4928 48.2868 16.4928 48.5183 16.8902L49.4832 18.5468C49.5679 18.6923 49.71 18.7955 49.8746 18.8312L51.7483 19.2369C52.1977 19.3342 52.3751 19.8802 52.0687 20.2231L50.7914 21.6527C50.6792 21.7783 50.6249 21.9453 50.6419 22.1129L50.835 24.0202C50.8813 24.4777 50.4169 24.8151 49.9961 24.6297L48.2418 23.8566C48.0876 23.7887 47.912 23.7887 47.7579 23.8566L46.0036 24.6297C45.5828 24.8151 45.1183 24.4777 45.1647 24.0202L45.3578 22.1129C45.3747 21.9453 45.3205 21.7783 45.2082 21.6527L43.9309 20.2231C43.6245 19.8802 43.8019 19.3342 44.2513 19.2369L46.125 18.8312C46.2896 18.7955 46.4317 18.6923 46.5165 18.5468L47.4813 16.8902Z" fill="#0F1D2E"/>
<path fill-rule="evenodd" clip-rule="evenodd" d="M44.2513 19.2369C43.8019 19.3342 43.6245 19.8802 43.9309 20.2231L45.2082 21.6527C45.3205 21.7783 45.3747 21.9453 45.3578 22.1129L45.1647 24.0202C45.1183 24.4777 45.5828 24.8151 46.0036 24.6297L47.7579 23.8566C47.912 23.7887 48.0876 23.7887 48.2418 23.8566L49.9961 24.6297C50.4169 24.8151 50.8813 24.4777 50.835 24.0202L50.6419 22.1129C50.6249 21.9453 50.6792 21.7783 50.7914 21.6527L52.0687 20.2231C52.3751 19.8802 52.1977 19.3342 51.7483 19.2369L49.8746 18.8312C49.71 18.7955 49.5679 18.6923 49.4832 18.5468L48.5183 16.8902C48.2868 16.4928 47.7128 16.4928 47.4813 16.8902L46.5165 18.5468C46.4317 18.6923 46.2896 18.7955 46.125 18.8312L44.2513 19.2369Z" fill="#0F1D2E"/>
<path fill-rule="evenodd" clip-rule="evenodd" d="M76 21C71.5817 21 68 24.5817 68 29C68 33.4183 71.5817 37 76 37C80.4183 37 84 33.4183 84 29C84 24.5817 80.4183 21 76 21ZM64 29C64 22.3726 69.3726 17 76 17C82.6274 17 88 22.3726 88 29C88 35.6274 82.6274 41 76 41C69.3726 41 64 35.6274 64 29Z" fill="#0F1D2E"/>
<path d="M71 25.5C71 25.2239 71.2239 25 71.5 25H80.5C80.7761 25 81 25.2239 81 25.5V30.5C81 30.7761 80.7761 31 80.5 31H78.1667C78.0585 31 77.9532 31.0351 77.8667 31.1L74.8 33.4C74.4704 33.6472 74 33.412 74 33V31.5C74 31.2239 73.7761 31 73.5 31H71.5C71.2239 31 71 30.7761 71 30.5V25.5Z" fill="#0F1D2E"/>
</svg>
