<svg width="96" height="96" viewBox="0 0 96 96" fill="none" xmlns="http://www.w3.org/2000/svg">
<path fill-rule="evenodd" clip-rule="evenodd" d="M14 76C14 74.8954 14.8954 74 16 74L80 74C81.1046 74 82 74.8954 82 76C82 77.1046 81.1046 78 80 78L16 78C14.8954 78 14 77.1046 14 76Z" fill="#0F1D2E"/>
<path d="M22 60C20.8954 60 20 60.8954 20 62V66C20 67.1046 20.8954 68 22 68H26C27.1046 68 28 67.1046 28 66V62C28 60.8954 27.1046 60 26 60H22Z" fill="#8FC1FF"/>
<path d="M38 56C36.8954 56 36 56.8954 36 58V66C36 67.1046 36.8954 68 38 68H42C43.1046 68 44 67.1046 44 66V58C44 56.8954 43.1046 56 42 56H38Z" fill="#8FC1FF"/>
<path d="M54 54C52.8954 54 52 54.8954 52 56V66C52 67.1046 52.8954 68 54 68H58C59.1046 68 60 67.1046 60 66V56C60 54.8954 59.1046 54 58 54H54Z" fill="#8FC1FF"/>
<path d="M70 60C68.8954 60 68 60.8954 68 62V66C68 67.1046 68.8954 68 70 68H74C75.1046 68 76 67.1046 76 66V62C76 60.8954 75.1046 60 74 60H70Z" fill="#8FC1FF"/>
<path fill-rule="evenodd" clip-rule="evenodd" d="M18 62C18 59.7909 19.7909 58 22 58H26C28.2091 58 30 59.7909 30 62V66C30 68.2091 28.2091 70 26 70H22C19.7909 70 18 68.2091 18 66V62ZM26 62L22 62V66H26V62Z" fill="#0F1D2E"/>
<path fill-rule="evenodd" clip-rule="evenodd" d="M34 58C34 55.7909 35.7909 54 38 54H42C44.2091 54 46 55.7909 46 58V66C46 68.2091 44.2091 70 42 70H38C35.7909 70 34 68.2091 34 66V58ZM42 58L38 58V66H42V58Z" fill="#0F1D2E"/>
<path fill-rule="evenodd" clip-rule="evenodd" d="M50 56C50 53.7909 51.7909 52 54 52H58C60.2091 52 62 53.7909 62 56V66C62 68.2091 60.2091 70 58 70H54C51.7909 70 50 68.2091 50 66V56ZM58 56L54 56V66L58 66V56Z" fill="#0F1D2E"/>
<path fill-rule="evenodd" clip-rule="evenodd" d="M66 62C66 59.7909 67.7909 58 70 58H74C76.2091 58 78 59.7909 78 62V66C78 68.2091 76.2091 70 74 70H70C67.7909 70 66 68.2091 66 66V62ZM74 62L70 62V66H74V62Z" fill="#0F1D2E"/>
</svg>
