<svg width="96" height="96" viewBox="0 0 96 96" fill="none" xmlns="http://www.w3.org/2000/svg">
<path d="M15 44.2841V32.7488C15 31.7473 15.7407 30.9003 16.7332 30.7667L62.4664 24.6103C64.8659 24.2873 67 26.1533 67 28.5745V49.3375C67 51.7891 64.8148 53.6638 62.3918 53.291L16.6959 46.2609C15.7202 46.1108 15 45.2713 15 44.2841Z" fill="#8FC1FF"/>
<path fill-rule="evenodd" clip-rule="evenodd" d="M62.1995 22.6282C65.7988 22.1437 69 24.9428 69 28.5746V49.3376C69 53.0149 65.7222 55.827 62.0877 55.2678L16.3918 48.2377C14.4404 47.9375 13 46.2585 13 44.2842V32.7488C13 30.7459 14.4814 29.0518 16.4664 28.7846L62.1995 22.6282ZM65 28.5746C65 27.364 63.9329 26.4309 62.7332 26.5924L17 32.7488V44.2842L62.6959 51.3143C63.9074 51.5007 65 50.5633 65 49.3376V28.5746Z" fill="#0F1D2E"/>
<path fill-rule="evenodd" clip-rule="evenodd" d="M24.2308 46.1539C25.2504 45.729 26.4214 46.2112 26.8462 47.2308L35.8205 68.7692C36.1311 69.5145 36.8593 70 37.6667 70H38.9492C40.3667 70 41.3343 68.5662 40.8039 67.2517L34.1453 50.7484C33.732 49.724 34.2274 48.5586 35.2517 48.1453C36.276 47.732 37.4415 48.2274 37.8548 49.2517L44.5134 65.755C46.1045 69.6986 43.2017 74 38.9492 74H37.6667C35.2445 74 33.0599 72.5436 32.1282 70.3077L23.1539 48.7693C22.729 47.7497 23.2112 46.5787 24.2308 46.1539Z" fill="#0F1D2E"/>
<path fill-rule="evenodd" clip-rule="evenodd" d="M31 27C32.1046 27 33 27.8954 33 29L33 48C33 49.1046 32.1046 50 31 50C29.8954 50 29 49.1046 29 48L29 29C29 27.8954 29.8954 27 31 27Z" fill="#0F1D2E"/>
<path fill-rule="evenodd" clip-rule="evenodd" d="M78 39.0001C78 37.8955 78.8954 37.0001 80 37.0001H84C85.1046 37.0001 86 37.8955 86 39.0001C86 40.1046 85.1046 41.0001 84 41.0001H80C78.8954 41.0001 78 40.1046 78 39.0001Z" fill="#0F1D2E"/>
<path fill-rule="evenodd" clip-rule="evenodd" d="M84.7641 26.971C85.3324 27.9181 85.0253 29.1467 84.0782 29.715L79.0782 32.715C78.131 33.2833 76.9025 32.9762 76.3342 32.029C75.7659 31.0819 76.073 29.8533 77.0202 29.285L82.0201 26.285C82.9673 25.7167 84.1958 26.0238 84.7641 26.971Z" fill="#0F1D2E"/>
<path fill-rule="evenodd" clip-rule="evenodd" d="M77.334 45.971C76.7657 46.9182 77.0728 48.1467 78.02 48.715L83.02 51.715C83.9671 52.2833 85.1956 51.9762 85.7639 51.0291C86.3322 50.0819 86.0251 48.8534 85.078 48.2851L80.078 45.2851C79.1308 44.7168 77.9023 45.0239 77.334 45.971Z" fill="#0F1D2E"/>
<path fill-rule="evenodd" clip-rule="evenodd" d="M69 37C69 35.8954 68.1046 35 67 35V31C70.3137 31 73 33.6863 73 37V41C73 44.3137 70.3137 47 67 47V43C68.1046 43 69 42.1046 69 41V37Z" fill="#0F1D2E"/>
</svg>
