<svg width="96" height="96" viewBox="0 0 96 96" fill="none" xmlns="http://www.w3.org/2000/svg">
<path fill-rule="evenodd" clip-rule="evenodd" d="M14 76C14 74.8954 14.8954 74 16 74L80 74C81.1046 74 82 74.8954 82 76C82 77.1046 81.1046 78 80 78L16 78C14.8954 78 14 77.1046 14 76Z" fill="#0F1D2E"/>
<path d="M22 36C20.8954 36 20 36.8954 20 38V66C20 67.1046 20.8954 68 22 68H26C27.1046 68 28 67.1046 28 66V38C28 36.8954 27.1046 36 26 36H22Z" fill="#8FC1FF"/>
<path d="M38 29C36.8954 29 36 29.8954 36 31V66C36 67.1046 36.8954 68 38 68H42C43.1046 68 44 67.1046 44 66V31C44 29.8954 43.1046 29 42 29H38Z" fill="#8FC1FF"/>
<path d="M54 20C52.8954 20 52 20.8954 52 22V66C52 67.1046 52.8954 68 54 68H58C59.1046 68 60 67.1046 60 66V22C60 20.8954 59.1046 20 58 20H54Z" fill="#8FC1FF"/>
<path d="M70 24C68.8954 24 68 24.8954 68 26V66C68 67.1046 68.8954 68 70 68H74C75.1046 68 76 67.1046 76 66V26C76 24.8954 75.1046 24 74 24H70Z" fill="#8FC1FF"/>
<path fill-rule="evenodd" clip-rule="evenodd" d="M18 38C18 35.7909 19.7909 34 22 34H26C28.2091 34 30 35.7909 30 38V66C30 68.2091 28.2091 70 26 70H22C19.7909 70 18 68.2091 18 66V38ZM26 38L22 38V66H26V38Z" fill="#0F1D2E"/>
<path fill-rule="evenodd" clip-rule="evenodd" d="M34 31C34 28.7909 35.7909 27 38 27H42C44.2091 27 46 28.7909 46 31V66C46 68.2091 44.2091 70 42 70H38C35.7909 70 34 68.2091 34 66V31ZM42 31L38 31V66H42V31Z" fill="#0F1D2E"/>
<path fill-rule="evenodd" clip-rule="evenodd" d="M50 20C50 17.7909 51.7909 16 54 16H58C60.2091 16 62 17.7909 62 20V66C62 68.2091 60.2091 70 58 70H54C51.7909 70 50 68.2091 50 66V20ZM58 20L54 20V66H58V20Z" fill="#0F1D2E"/>
<path fill-rule="evenodd" clip-rule="evenodd" d="M66 26C66 23.7909 67.7909 22 70 22H74C76.2091 22 78 23.7909 78 26V66C78 68.2091 76.2091 70 74 70H70C67.7909 70 66 68.2091 66 66V26ZM74 26L70 26V66H74V26Z" fill="#0F1D2E"/>
</svg>
