<svg width="96" height="96" viewBox="0 0 96 96" fill="none" xmlns="http://www.w3.org/2000/svg">
<path fill-rule="evenodd" clip-rule="evenodd" d="M14 76C14 74.8954 14.8954 74 16 74L80 74C81.1046 74 82 74.8954 82 76C82 77.1046 81.1046 78 80 78L16 78C14.8954 78 14 77.1046 14 76Z" fill="#0F1D2E"/>
<path d="M22 56C20.8954 56 20 56.8954 20 58V66C20 67.1046 20.8954 68 22 68H26C27.1046 68 28 67.1046 28 66V58C28 56.8954 27.1046 56 26 56H22Z" fill="#8FC1FF"/>
<path d="M38 42C36.8954 42 36 42.8954 36 44V66C36 67.1046 36.8954 68 38 68H42C43.1046 68 44 67.1046 44 66V44C44 42.8954 43.1046 42 42 42H38Z" fill="#8FC1FF"/>
<path d="M54 20C52.8954 20 52 20.8954 52 22V66C52 67.1046 52.8954 68 54 68H58C59.1046 68 60 67.1046 60 66V22C60 20.8954 59.1046 20 58 20H54Z" fill="#8FC1FF"/>
<path d="M70 29C68.8954 29 68 29.8954 68 31V66C68 67.1046 68.8954 68 70 68H74C75.1046 68 76 67.1046 76 66V31C76 29.8954 75.1046 29 74 29H70Z" fill="#8FC1FF"/>
<path fill-rule="evenodd" clip-rule="evenodd" d="M18 58C18 55.7909 19.7909 54 22 54H26C28.2091 54 30 55.7909 30 58V66C30 68.2091 28.2091 70 26 70H22C19.7909 70 18 68.2091 18 66V58ZM26 58L22 58V66H26V58Z" fill="#0F1D2E"/>
<path fill-rule="evenodd" clip-rule="evenodd" d="M34 44C34 41.7909 35.7909 40 38 40H42C44.2091 40 46 41.7909 46 44V66C46 68.2091 44.2091 70 42 70H38C35.7909 70 34 68.2091 34 66V44ZM42 44L38 44V66H42V44Z" fill="#0F1D2E"/>
<path fill-rule="evenodd" clip-rule="evenodd" d="M50 22C50 19.7909 51.7909 18 54 18H58C60.2091 18 62 19.7909 62 22V66C62 68.2091 60.2091 70 58 70H54C51.7909 70 50 68.2091 50 66V22ZM58 22L54 22V66H58V22Z" fill="#0F1D2E"/>
<path fill-rule="evenodd" clip-rule="evenodd" d="M66 31C66 28.7909 67.7909 27 70 27H74C76.2091 27 78 28.7909 78 31V66C78 68.2091 76.2091 70 74 70H70C67.7909 70 66 68.2091 66 66V31ZM74 31L70 31V66H74V31Z" fill="#0F1D2E"/>
</svg>
