<svg width="96" height="96" viewBox="0 0 96 96" fill="none" xmlns="http://www.w3.org/2000/svg">
<path d="M16 37.7903C16 36.7206 17.2706 36.1601 18.0606 36.8814L38.6475 55.6781C38.8743 55.8852 39.1703 56 39.4774 56H57.0149C57.3266 56 57.6268 55.8817 57.8547 55.669L77.9295 36.9325C78.7162 36.1982 80 36.7561 80 37.8322V75.7692C80 76.4489 79.449 77 78.7692 77H17.2308C16.551 77 16 76.4489 16 75.7692V37.7903Z" fill="#8FC1FF"/>
<path fill-rule="evenodd" clip-rule="evenodd" d="M27.6841 27.5149C28.2799 28.445 28.0089 29.682 27.0789 30.2778L19.2472 35.295L39.2883 54H56.7117L76.7528 35.295L68.9212 30.2778C67.9911 29.682 67.7201 28.445 68.3159 27.5149C68.9118 26.5848 70.1488 26.3139 71.0789 26.9097L81.0789 33.3159C81.6528 33.6836 82 34.3184 82 35V77C82 78.1046 81.1046 79 80 79H16C14.8954 79 14 78.1046 14 77V35C14 34.3184 14.3472 33.6836 14.9211 33.3159L24.9211 26.9097C25.8512 26.3139 27.0882 26.5848 27.6841 27.5149ZM78 39.6024L60.4312 56L78 72.3976V39.6024ZM74.926 75L56.7117 58H39.2883L21.074 75H74.926ZM18 72.3976V39.6024L35.5688 56L18 72.3976Z" fill="#0F1D2E"/>
<path fill-rule="evenodd" clip-rule="evenodd" d="M24 12C24 9.79086 25.7909 8 28 8H58C58.5304 8 59.0391 8.21071 59.4142 8.58579L71.4142 20.5858C71.7893 20.9609 72 21.4696 72 22V44C72 45.1046 71.1046 46 70 46C68.8954 46 68 45.1046 68 44V24H60C57.7909 24 56 22.2091 56 20V12H28V44C28 45.1046 27.1046 46 26 46C24.8954 46 24 45.1046 24 44V12ZM60 14.8284L65.1716 20H60V14.8284Z" fill="#0F1D2E"/>
<path d="M32 38C32 37.4477 32.4477 37 33 37H35C35.5523 37 36 37.4477 36 38V40C36 40.5523 35.5523 41 35 41H33C32.4477 41 32 40.5523 32 40V38Z" fill="#0F1D2E"/>
<path fill-rule="evenodd" clip-rule="evenodd" d="M40 39C40 37.8954 40.8954 37 42 37H60C61.1046 37 62 37.8954 62 39C62 40.1046 61.1046 41 60 41H42C40.8954 41 40 40.1046 40 39Z" fill="#0F1D2E"/>
<path d="M32 30C32 29.4477 32.4477 29 33 29H35C35.5523 29 36 29.4477 36 30V32C36 32.5523 35.5523 33 35 33H33C32.4477 33 32 32.5523 32 32V30Z" fill="#0F1D2E"/>
<path fill-rule="evenodd" clip-rule="evenodd" d="M40 31C40 29.8954 40.8954 29 42 29L62 29C63.1046 29 64 29.8954 64 31C64 32.1046 63.1046 33 62 33L42 33C40.8954 33 40 32.1046 40 31Z" fill="#0F1D2E"/>
<path fill-rule="evenodd" clip-rule="evenodd" d="M32 18C32 16.8954 32.8954 16 34 16H50C51.1046 16 52 16.8954 52 18C52 19.1046 51.1046 20 50 20H34C32.8954 20 32 19.1046 32 18Z" fill="#0F1D2E"/>
</svg>
