<svg width="96" height="96" viewBox="0 0 96 96" fill="none" xmlns="http://www.w3.org/2000/svg">
<path fill-rule="evenodd" clip-rule="evenodd" d="M14 76C14 74.8954 14.8954 74 16 74L80 74C81.1046 74 82 74.8954 82 76C82 77.1046 81.1046 78 80 78L16 78C14.8954 78 14 77.1046 14 76Z" fill="#0F1D2E"/>
<path d="M22 60C20.8954 60 20 60.8954 20 62V66C20 67.1046 20.8954 68 22 68H26C27.1046 68 28 67.1046 28 66V62C28 60.8954 27.1046 60 26 60H22Z" fill="#8FC1FF"/>
<path d="M38 52C36.8954 52 36 52.8954 36 54V66C36 67.1046 36.8954 68 38 68H42C43.1046 68 44 67.1046 44 66V54C44 52.8954 43.1046 52 42 52H38Z" fill="#8FC1FF"/>
<path d="M54 38C52.8954 38 52 38.8954 52 40V66C52 67.1046 52.8954 68 54 68H58C59.1046 68 60 67.1046 60 66V40C60 38.8954 59.1046 38 58 38H54Z" fill="#8FC1FF"/>
<path d="M70 50C68.8954 50 68 50.8954 68 52V66C68 67.1046 68.8954 68 70 68H74C75.1046 68 76 67.1046 76 66V52C76 50.8954 75.1046 50 74 50H70Z" fill="#8FC1FF"/>
<path fill-rule="evenodd" clip-rule="evenodd" d="M18 62C18 59.7909 19.7909 58 22 58H26C28.2091 58 30 59.7909 30 62V66C30 68.2091 28.2091 70 26 70H22C19.7909 70 18 68.2091 18 66V62ZM26 62L22 62V66H26V62Z" fill="#0F1D2E"/>
<path fill-rule="evenodd" clip-rule="evenodd" d="M34 54C34 51.7909 35.7909 50 38 50H42C44.2091 50 46 51.7909 46 54V66C46 68.2091 44.2091 70 42 70H38C35.7909 70 34 68.2091 34 66V54ZM42 54L38 54V66H42V54Z" fill="#0F1D2E"/>
<path fill-rule="evenodd" clip-rule="evenodd" d="M50 40C50 37.7909 51.7909 36 54 36H58C60.2091 36 62 37.7909 62 40V66C62 68.2091 60.2091 70 58 70H54C51.7909 70 50 68.2091 50 66V40ZM58 40L54 40V66L58 66V40Z" fill="#0F1D2E"/>
<path fill-rule="evenodd" clip-rule="evenodd" d="M66 52C66 49.7909 67.7909 48 70 48H74C76.2091 48 78 49.7909 78 52V66C78 68.2091 76.2091 70 74 70H70C67.7909 70 66 68.2091 66 66V52ZM74 52H70V66H74V52Z" fill="#0F1D2E"/>
</svg>
