<svg width="96" height="96" viewBox="0 0 96 96" fill="none" xmlns="http://www.w3.org/2000/svg">
<path d="M61 55C61 62.1797 55.1797 68 48 68C40.8203 68 35 62.1797 35 55C35 47.8203 40.8203 42 48 42C55.1797 42 61 47.8203 61 55Z" fill="#8FC1FF"/>
<path fill-rule="evenodd" clip-rule="evenodd" d="M41.5855 48.5857C42.3665 47.8046 43.6328 47.8046 44.4138 48.5857L54.4126 58.5857C55.1936 59.3668 55.1936 60.6332 54.4126 61.4143C53.6316 62.1954 52.3654 62.1954 51.5844 61.4143L41.5855 51.4143C40.8045 50.6332 40.8045 49.3668 41.5855 48.5857Z" fill="#0F1D2E"/>
<path fill-rule="evenodd" clip-rule="evenodd" d="M54.4141 48.5857C55.1951 49.3668 55.1951 50.6332 54.4141 51.4143L44.4154 61.4143C43.6344 62.1954 42.3681 62.1954 41.5871 61.4143C40.8061 60.6332 40.8061 59.3668 41.5871 58.5857L51.5859 48.5857C52.3669 47.8046 53.6331 47.8046 54.4141 48.5857Z" fill="#0F1D2E"/>
<path fill-rule="evenodd" clip-rule="evenodd" d="M43.6882 22.5794C46.0462 20.1428 49.9534 20.1428 52.3114 22.5794L76.1555 47.2183C78.6118 49.7565 76.8132 54 73.2811 54H68.9992V72C68.9992 75.3137 66.3129 78 62.9992 78H32.9992C29.6855 78 26.9992 75.3137 26.9992 72V54H22.7184C19.1863 54 17.3877 49.7565 19.844 47.2183L43.6882 22.5794ZM49.437 25.3611C48.651 24.5489 47.3486 24.5489 46.5626 25.3611L22.7184 50H27.9992C29.6561 50 30.9992 51.3432 30.9992 53V72C30.9992 73.1046 31.8946 74 32.9992 74H62.9992C64.1038 74 64.9992 73.1046 64.9992 72V53C64.9992 51.3432 66.3423 50 67.9992 50L73.2811 50L49.437 25.3611Z" fill="#0F1D2E"/>
</svg>
