<svg width="96" height="96" viewBox="0 0 96 96" fill="none" xmlns="http://www.w3.org/2000/svg">
<path d="M61 55C61 62.1797 55.1797 68 48 68C40.8203 68 35 62.1797 35 55C35 47.8203 40.8203 42 48 42C55.1797 42 61 47.8203 61 55Z" fill="#8FC1FF"/>
<path fill-rule="evenodd" clip-rule="evenodd" d="M47.4654 49.0157C46.4347 49.1207 45.3799 49.7456 44.8969 51.1946C44.5476 52.2424 43.415 52.8088 42.3671 52.4595C41.3192 52.1102 40.7529 50.9775 41.1022 49.9297C42.1192 46.8786 44.582 45.2887 47.0601 45.0363C49.4142 44.7965 52.0916 45.7741 53.2884 48.1676C54.7123 51.0154 53.7852 53.605 52.4137 54.9763C51.9454 55.4446 51.463 55.7823 51.1004 56.0283C51.0332 56.0739 50.9718 56.1153 50.9153 56.1535C50.6286 56.3471 50.468 56.4555 50.3203 56.584C50.1865 56.7004 50.138 56.7741 50.1058 56.8451C50.0693 56.9258 49.9996 57.1267 49.9996 57.562C49.9996 58.6666 49.1041 59.562 47.9996 59.562C46.895 59.562 45.9996 58.6666 45.9996 57.562C45.9996 56.6923 46.1409 55.9045 46.4619 55.1954C46.7872 54.4767 47.2428 53.9594 47.6951 53.566C48.0462 53.2606 48.4443 52.9937 48.7255 52.8051C48.7719 52.774 48.8152 52.745 48.8545 52.7183C49.1773 52.4992 49.3978 52.3353 49.5854 52.1478C49.8669 51.8663 50.2868 51.1087 49.7107 49.9565C49.4427 49.4205 48.6201 48.8981 47.4654 49.0157Z" fill="#0F1D2E"/>
<path d="M50 63C50 64.1046 49.1046 65 48 65C46.8954 65 46 64.1046 46 63C46 61.8954 46.8954 61 48 61C49.1046 61 50 61.8954 50 63Z" fill="#0F1D2E"/>
<path fill-rule="evenodd" clip-rule="evenodd" d="M43.6882 22.5794C46.0462 20.1428 49.9534 20.1428 52.3114 22.5794L76.1555 47.2183C78.6118 49.7565 76.8132 54 73.2811 54H68.9992V72C68.9992 75.3137 66.3129 78 62.9992 78H32.9992C29.6855 78 26.9992 75.3137 26.9992 72V54H22.7184C19.1863 54 17.3877 49.7565 19.844 47.2183L43.6882 22.5794ZM49.437 25.3611C48.651 24.5489 47.3486 24.5489 46.5626 25.3611L22.7184 50H27.9992C29.6561 50 30.9992 51.3432 30.9992 53V72C30.9992 73.1046 31.8946 74 32.9992 74H62.9992C64.1038 74 64.9992 73.1046 64.9992 72V53C64.9992 51.3432 66.3423 50 67.9992 50L73.2811 50L49.437 25.3611Z" fill="#0F1D2E"/>
</svg>
