<svg width="96" height="96" viewBox="0 0 96 96" fill="none" xmlns="http://www.w3.org/2000/svg">
<path d="M27.9653 74L24.2412 56H69.9998L64.8274 74H27.9653Z" fill="#8FC1FF"/>
<path fill-rule="evenodd" clip-rule="evenodd" d="M43.6779 17.6048C46.038 15.1539 49.9616 15.1539 52.3217 17.6048L72.1786 38.2253C74.6254 40.7661 72.8247 44.9999 69.2973 44.9999H65.9998V47.9999C65.9998 49.1044 65.1044 49.9999 63.9998 49.9999C62.8953 49.9999 61.9998 49.1044 61.9998 47.9999V43.9999C61.9998 42.343 63.343 40.9999 64.9998 40.9999L69.2973 40.9999L49.4405 20.3794C48.6538 19.5624 47.3459 19.5624 46.5592 20.3794L26.7023 40.9999H30.9998C32.6567 40.9999 33.9998 42.343 33.9998 43.9999V47.9999C33.9998 49.1044 33.1044 49.9999 31.9998 49.9999C30.8953 49.9999 29.9998 49.1044 29.9998 47.9999V44.9999H26.7023C23.175 44.9999 21.3743 40.7661 23.821 38.2253L43.6779 17.6048Z" fill="#0F1D2E"/>
<path fill-rule="evenodd" clip-rule="evenodd" d="M16 50C16 48.8954 16.8954 48 18 48H23C23.9484 48 24.7664 48.6661 24.9585 49.5948L25.8699 54H70C70.6281 54 71.2197 54.2951 71.5976 54.7968C71.9755 55.2986 72.0957 55.9487 71.9222 56.5524L66.7498 74.5524C66.5035 75.4095 65.7194 76 64.8276 76H27.9655C27.0171 76 26.1991 75.3339 26.007 74.4052L22.2914 56.4463C22.2855 56.4204 22.2801 56.3944 22.2752 56.3682L21.3714 52H18C16.8954 52 16 51.1046 16 50ZM26.6975 58L29.5941 72H63.3214L67.3444 58H26.6975Z" fill="#0F1D2E"/>
<path d="M39 84C39 86.2091 37.2091 88 35 88C32.7909 88 31 86.2091 31 84C31 81.7909 32.7909 80 35 80C37.2091 80 39 81.7909 39 84Z" fill="#0F1D2E"/>
<path d="M65 83.9999C65 86.209 63.2091 87.9999 61 87.9999C58.7909 87.9999 57 86.209 57 83.9999C57 81.7907 58.7909 79.9999 61 79.9999C63.2091 79.9999 65 81.7907 65 83.9999Z" fill="#0F1D2E"/>
<path d="M50 41.9994C50 40.8948 50.8954 39.9994 52 39.9994H56C57.1046 39.9994 58 40.8948 58 41.9994V47.9994C58 49.104 57.1046 49.9994 56 49.9994H52C50.8954 49.9994 50 49.104 50 47.9994V41.9994Z" fill="#0F1D2E"/>
<path d="M38 39.9994C38 38.8948 38.8954 37.9994 40 37.9994H44C45.1046 37.9994 46 38.8948 46 39.9994V43.9994C46 45.104 45.1046 45.9994 44 45.9994H40C38.8954 45.9994 38 45.104 38 43.9994V39.9994Z" fill="#0F1D2E"/>
</svg>
845 68.76C62.5771 68.6565 62.6847 68.534 62.7635 68.3944C62.9703 68.0276 63 67.5271 63 66.9999C63 66.4719 62.9701 65.9729 62.7644 65.6089C62.6865 65.4711 62.5804 65.3506 62.3896 65.2488C62.1847 65.1394 61.7824 65 61.0443 65L61.0444 63L61.0436 61C63.6214 61 65.3417 62.0394 66.2468 63.6409C66.3619 63.8447 66.4595 64.0509 66.5422 64.256C67.4738 63.8948 68.6141 63.4532 69.8082 62.9918C72.7278 61.8636 75.9958 60.6065 77.309 60.123C79.0103 59.4966 80.7449 59.2941 82.3102 59.9095C83.9288 60.546 84.9408 61.8857 85.5088 63.4374C86.066 64.9597 86.1816 66.5285 85.4139 68.0148C84.7065 69.3843 83.4144 70.3388 82.0163 71.1109C81.1906 71.5669 79.0468 72.7733 76.4732 74.2214C71.2262 77.1738 64.193 81.1313 62.9034 81.7842C62.8708 81.8007 62.8367 81.818 62.801 81.8361C61.8057 82.3408 59.604 83.4573 56.9436 84.2192C54.2216 84.9987 50.7494 85.4884 47.4736 84.3347C44.7852 83.3879 39.2672 81.5313 34.405 79.906C31.9774 79.0946 29.7187 78.3427 28.0669 77.7936C28.0445 77.7861 28.0222 77.7787 28 77.7713V78C28 80.2091 26.2092 82 24 82H20.3273C17.4349 82 14.9543 79.9365 14.4276 77.0925L10.0335 53.3642C9.92526 52.7799 10.0824 52.1778 10.4624 51.721ZM24 56.0014C24 56.0006 24 55.9998 24 55.999V55H14.4044L18.3607 76.3642C18.5363 77.3122 19.3632 78 20.3273 78H24V56.0014Z" fill="#0F1D2E"/>
<path fill-rule="evenodd" clip-rule="evenodd" d="M43.6779 17.6048C46.038 15.1539 49.9616 15.1539 52.3217 17.6048L72.1786 38.2253C74.6254 40.7661 72.8247 44.9999 69.2973 44.9999H65.9998V54.9999C65.9998 56.1044 65.1044 56.9999 63.9998 56.9999C62.8953 56.9999 61.9998 56.1044 61.9998 54.9999V43.9999C61.9998 42.343 63.343 40.9999 64.9998 40.9999L69.2973 40.9999L49.4405 20.3794C48.6538 19.5624 47.3459 19.5624 46.5592 20.3794L26.7023 40.9999H30.9998C32.6567 40.9999 33.9998 42.343 33.9998 43.9999V47.9999C33.9998 49.1044 33.1044 49.9999 31.9998 49.9999C30.8953 49.9999 29.9998 49.1044 29.9998 47.9999V44.9999H26.7023C23.175 44.9999 21.3743 40.7661 23.821 38.2253L43.6779 17.6048Z" fill="#0F1D2E"/>
<path d="M50 43.9994C50 42.8948 50.8954 41.9994 52 41.9994H56C57.1046 41.9994 58 42.8948 58 43.9994V54.9994C58 56.104 57.1046 56.9994 56 56.9994H52C50.8954 56.9994 50 56.104 50 54.9994V43.9994Z" fill="#0F1D2E"/>
<path d="M38 41.9994C38 40.8948 38.8954 39.9994 40 39.9994H44C45.1046 39.9994 46 40.8948 46 41.9994V45.9994C46 47.104 45.1046 47.9994 44 47.9994H40C38.8954 47.9994 38 47.104 38 45.9994V41.9994Z" fill="#0F1D2E"/>
</svg>
