<svg width="96" height="96" viewBox="0 0 96 96" fill="none" xmlns="http://www.w3.org/2000/svg">
<path fill-rule="evenodd" clip-rule="evenodd" d="M23 32.2308C23 31.551 23.551 31 24.2308 31H80.7692C81.449 31 82 31.551 82 32.2308V75.7692C82 76.449 81.449 77 80.7692 77H24.2308C23.551 77 23 76.449 23 75.7692V32.2308ZM67.5525 66H37.349C36.3562 66 35.7719 64.8849 36.3371 64.0687L44 53L49 58L57 48.5L68.5405 64.0353C69.1437 64.8474 68.5641 66 67.5525 66ZM37 48C39.2091 48 41 46.2091 41 44C41 41.7909 39.2091 40 37 40C34.7909 40 33 41.7909 33 44C33 46.2091 34.7909 48 37 48Z" fill="#8FC1FF"/>
<path fill-rule="evenodd" clip-rule="evenodd" d="M21 33.4616C21 30.9976 22.9975 29.0001 25.4615 29.0001H79.5385C82.0025 29.0001 84 30.9976 84 33.4616V74.5385C84 77.0026 82.0025 79.0001 79.5385 79.0001H25.4615C22.9975 79.0001 21 77.0026 21 74.5385V33.4616ZM25.4615 33.0001C25.2066 33.0001 25 33.2067 25 33.4616V74.5385C25 74.7934 25.2066 75.0001 25.4615 75.0001H79.5385C79.7934 75.0001 80 74.7934 80 74.5385V33.4616C80 33.2067 79.7934 33.0001 79.5385 33.0001H25.4615Z" fill="#0F1D2E"/>
<path fill-rule="evenodd" clip-rule="evenodd" d="M9.37872 27.6153C9.01756 25.2678 10.5588 23.0489 12.8847 22.5678L64.9255 11.8039C67.2846 11.3159 69.605 12.7889 70.1675 15.1313L71.9447 22.5331C72.2025 23.6072 71.5409 24.6869 70.4669 24.9448C69.3928 25.2027 68.3131 24.541 68.0552 23.467L66.278 16.0652C66.2198 15.8229 65.9798 15.6705 65.7357 15.721L13.6949 26.4849C13.4543 26.5347 13.2948 26.7642 13.3322 27.0071L16.9767 50.6959C17.1446 51.7876 16.3958 52.8088 15.304 52.9767C14.2123 53.1447 13.1911 52.3958 13.0232 51.3041L9.37872 27.6153Z" fill="#0F1D2E"/>
<path fill-rule="evenodd" clip-rule="evenodd" d="M57.0136 46C57.6259 46.0042 58.2026 46.2887 58.5786 46.7721L71.0336 62.7857C72.6841 64.9079 71.1718 68 68.4834 68H36.4994C33.8189 68 32.3043 64.924 33.9386 62.7994L42.4146 51.7806C42.7655 51.3244 43.296 51.0415 43.8703 51.0042C44.4446 50.9669 45.0071 51.1788 45.4141 51.5858L48.834 55.0057L55.4382 46.7506C55.8207 46.2724 56.4012 45.9959 57.0136 46ZM56.9778 51.2292L50.5616 59.2494C50.2062 59.6936 49.6785 59.9655 49.1105 59.9969C48.5425 60.0284 47.9879 59.8165 47.5857 59.4142L44.1963 56.0249L38.0616 64H66.9106L56.9778 51.2292Z" fill="#0F1D2E"/>
<path fill-rule="evenodd" clip-rule="evenodd" d="M37 42C35.8954 42 35 42.8954 35 44C35 45.1046 35.8954 46 37 46C38.1046 46 39 45.1046 39 44C39 42.8954 38.1046 42 37 42ZM31 44C31 40.6863 33.6863 38 37 38C40.3137 38 43 40.6863 43 44C43 47.3137 40.3137 50 37 50C33.6863 50 31 47.3137 31 44Z" fill="#0F1D2E"/>
</svg>
