<svg width="96" height="96" viewBox="0 0 96 96" fill="none" xmlns="http://www.w3.org/2000/svg">
<path d="M54.9389 37.4061C61.5778 44.045 61.5778 54.8088 54.9389 61.4477C48.3 68.0866 37.5362 68.0866 30.8973 61.4477C24.2584 54.8088 24.2584 44.045 30.8973 37.4061C37.5362 30.7671 48.3 30.7671 54.9389 37.4061Z" fill="#8FC1FF"/>
<path fill-rule="evenodd" clip-rule="evenodd" d="M32.3079 38.8202C26.45 44.678 26.45 54.1755 32.3079 60.0334C38.1658 65.8912 47.6632 65.8912 53.5211 60.0334C59.379 54.1755 59.379 44.678 53.5211 38.8202C47.6632 32.9623 38.1658 32.9623 32.3079 38.8202ZM29.4795 62.8618C22.0595 55.4418 22.0595 43.4117 29.4795 35.9917C36.8994 28.5718 48.9296 28.5718 56.3495 35.9917C63.7695 43.4117 63.7695 55.4418 56.3495 62.8618C48.9296 70.2817 36.8994 70.2817 29.4795 62.8618Z" fill="#0F1D2E"/>
<path fill-rule="evenodd" clip-rule="evenodd" d="M54.7583 16.4141C57.1015 14.0709 60.9005 14.071 63.2436 16.4141L85.001 38.1715C87.5208 40.6913 85.7362 44.9999 82.1725 44.9999H79.001V60.9999C79.001 64.3136 76.3147 66.9999 73.001 66.9999H62.001C60.8964 66.9999 60.001 66.1045 60.001 64.9999C60.001 63.8953 60.8964 62.9999 62.001 62.9999H73.001C74.1055 62.9999 75.001 62.1045 75.001 60.9999V43.9999C75.001 42.343 76.3441 40.9999 78.001 40.9999L82.1726 40.9999L60.4152 19.2425C59.6341 18.4615 58.3678 18.4615 57.5868 19.2425L50.4152 26.4141C49.6341 27.1951 48.3678 27.1951 47.5868 26.4141C46.8057 25.6331 46.8057 24.3667 47.5868 23.5857L54.7583 16.4141Z" fill="#0F1D2E"/>
<path fill-rule="evenodd" clip-rule="evenodd" d="M12.5226 73.8483L28.079 58.292L33.7358 63.9489L18.1795 79.5052C16.6174 81.0673 14.0847 81.0673 12.5226 79.5052C10.9605 77.9431 10.9605 75.4104 12.5226 73.8483Z" fill="#0F1D2E"/>
</svg>
