<svg width="96" height="96" viewBox="0 0 96 96" fill="none" xmlns="http://www.w3.org/2000/svg">
<path d="M23 42C23 39.7909 24.7909 38 27 38H65C67.2091 38 69 39.7909 69 42V74C69 76.2091 67.2091 78 65 78H27C24.7909 78 23 76.2091 23 74V42Z" fill="#8FC1FF"/>
<path fill-rule="evenodd" clip-rule="evenodd" d="M29 48C29 46.8954 29.8954 46 31 46H33C34.1046 46 35 46.8954 35 48C35 49.1046 34.1046 50 33 50H31C29.8954 50 29 49.1046 29 48Z" fill="#0F1D2E"/>
<path fill-rule="evenodd" clip-rule="evenodd" d="M29 57.7864C29 56.6819 29.8954 55.7864 31 55.7864H33C34.1046 55.7864 35 56.6819 35 57.7864C35 58.891 34.1046 59.7864 33 59.7864H31C29.8954 59.7864 29 58.891 29 57.7864Z" fill="#0F1D2E"/>
<path fill-rule="evenodd" clip-rule="evenodd" d="M29 67.5728C29 66.4682 29.8954 65.5728 31 65.5728H33C34.1046 65.5728 35 66.4682 35 67.5728C35 68.6774 34.1046 69.5728 33 69.5728H31C29.8954 69.5728 29 68.6774 29 67.5728Z" fill="#0F1D2E"/>
<path fill-rule="evenodd" clip-rule="evenodd" d="M33.449 17.2343C36.3195 14.521 40.3528 13 45.068 13C51.1521 13 56.0264 14.3344 59.4497 16.4676C62.8489 18.5859 65 21.6408 65 25V28C65 30.209 63.2092 32 61 32H57C54.7907 32 53 30.2088 53 27.9999V26.3379C52.7568 26.1653 52.3036 25.9407 51.5979 25.723C50.1486 25.2759 48.1065 25 46 25C44.0323 25 42.7984 25.0631 42.0077 25.4527C41.7022 25.6032 41.4996 25.791 41.3457 26.082C41.1738 26.4073 41 26.9853 41 28V38C41 39.1046 40.1046 40 39 40C37.8954 40 37 39.1046 37 38V28C37 26.5595 37.2425 25.2849 37.8096 24.2124C38.3948 23.1055 39.2541 22.3502 40.2399 21.8646C41.9963 20.9992 44.2084 20.9996 45.8984 21C45.9325 21 45.9664 21 46 21C48.3935 21 50.8514 21.3066 52.7771 21.9008C53.7283 22.1942 54.6731 22.5949 55.4226 23.1542C56.1548 23.7005 57 24.639 57 26V27.9999L61 28V25C61 23.466 59.9957 21.5209 57.3343 19.8625C54.6969 18.219 50.6052 17 45.068 17C41.22 17 38.2193 18.2294 36.1967 20.1412C34.1796 22.0479 33 24.7579 33 28V38C33 39.1046 32.1046 40 31 40C29.8954 40 29 39.1046 29 38V28C29 23.7428 30.5729 19.9529 33.449 17.2343ZM53.1352 26.4493C53.1349 26.4493 53.1319 26.4463 53.1269 26.4402C53.133 26.4462 53.1354 26.4493 53.1352 26.4493Z" fill="#0F1D2E"/>
<path fill-rule="evenodd" clip-rule="evenodd" d="M21 42C21 38.6863 23.6863 36 27 36H65C68.3137 36 71 38.6863 71 42V74C71 77.3137 68.3137 80 65 80H27C23.6863 80 21 77.3137 21 74V42ZM27 40C25.8954 40 25 40.8954 25 42V74C25 75.1046 25.8954 76 27 76H65C66.1046 76 67 75.1046 67 74V42C67 40.8954 66.1046 40 65 40H27Z" fill="#0F1D2E"/>
<path fill-rule="evenodd" clip-rule="evenodd" d="M69.0493 28C69.0493 26.8954 69.9447 26 71.0493 26H75.0493C76.1539 26 77.0493 26.8954 77.0493 28C77.0493 29.1046 76.1539 30 75.0493 30H71.0493C69.9447 30 69.0493 29.1046 69.0493 28Z" fill="#0F1D2E"/>
<path fill-rule="evenodd" clip-rule="evenodd" d="M75.7641 15.971C76.3324 16.9181 76.0253 18.1467 75.0782 18.715L70.0782 21.715C69.131 22.2833 67.9025 21.9762 67.3342 21.029C66.7659 20.0819 67.073 18.8533 68.0202 18.285L73.0201 15.285C73.9673 14.7167 75.1958 15.0238 75.7641 15.971Z" fill="#0F1D2E"/>
</svg>
