<svg width="96" height="96" viewBox="0 0 96 96" fill="none" xmlns="http://www.w3.org/2000/svg">
<path d="M16 61.9999C16 60.8953 16.8954 59.9999 18 59.9999H77.9998C79.1044 59.9999 79.9998 60.8953 79.9998 61.9999V73.9998C79.9998 75.1044 79.1044 75.9998 77.9998 75.9998H18C16.8954 75.9998 16 75.1044 16 73.9998V61.9999Z" fill="#8FC1FF"/>
<path fill-rule="evenodd" clip-rule="evenodd" d="M14 61.9999C14 59.7907 15.7908 57.9999 18 57.9999H27.9999C29.1045 57.9999 29.9999 58.8953 29.9999 59.9999C29.9999 61.1044 29.1045 61.9999 27.9999 61.9999H18V73.9998H77.9998V61.9999H67.9998C66.8953 61.9999 65.9999 61.1044 65.9999 59.9999C65.9999 58.8953 66.8953 57.9999 67.9998 57.9999H77.9998C80.209 57.9999 81.9998 59.7907 81.9998 61.9999V73.9998C81.9998 76.209 80.209 77.9998 77.9998 77.9998H18C15.7908 77.9998 14 76.209 14 73.9998V61.9999Z" fill="#0F1D2E"/>
<path fill-rule="evenodd" clip-rule="evenodd" d="M47.9999 57.9999C49.1045 57.9999 49.9999 58.8953 49.9999 59.9999V67.9999C49.9999 69.1044 49.1045 69.9999 47.9999 69.9999C46.8953 69.9999 45.9999 69.1044 45.9999 67.9999V59.9999C45.9999 58.8953 46.8953 57.9999 47.9999 57.9999Z" fill="#0F1D2E"/>
<path fill-rule="evenodd" clip-rule="evenodd" d="M47.9962 16C48.6535 15.9988 49.2694 16.3206 49.6437 16.8608L59.6431 31.2913C61.0217 33.2808 59.5978 35.9999 57.1772 35.9999H56.6632L61.7012 43.8369C63.4125 46.4989 61.5012 49.9999 58.3365 49.9999H57.6725L61.5573 55.7645C63.3478 58.4213 61.4441 61.9999 58.2402 61.9999H37.7595C34.5556 61.9999 32.6519 58.4213 34.4424 55.7645L38.3272 49.9999H37.6632C34.4985 49.9999 32.5872 46.4989 34.2985 43.8369L39.3365 35.9999H38.9009C36.4854 35.9999 35.0603 33.2908 36.4288 31.3003L46.3518 16.8669C46.7241 16.3253 47.3389 16.0012 47.9962 16ZM48.0063 21.5208L40.8019 31.9999H42.9999C43.7315 31.9999 44.4047 32.3994 44.7553 33.0416C45.1059 33.6837 45.0778 34.466 44.6822 35.0814L37.6632 45.9999H42.0868C42.8262 45.9999 43.5053 46.4078 43.8525 47.0606C44.1998 47.7134 44.1585 48.5045 43.7453 49.1176L37.7595 57.9999L58.2402 57.9999L52.2543 49.1176C51.8411 48.5045 51.7999 47.7134 52.1472 47.0606C52.4944 46.4078 53.1735 45.9999 53.9129 45.9999L58.3365 45.9999L51.3175 35.0814C50.9219 34.466 50.8938 33.6837 51.2444 33.0416C51.595 32.3994 52.2682 31.9999 52.9998 31.9999H55.2677L48.0063 21.5208Z" fill="#0F1D2E"/>
</svg>
