<svg width="96" height="96" viewBox="0 0 96 96" fill="none" xmlns="http://www.w3.org/2000/svg">
<path d="M12 53C12 51.8954 12.8954 51 14 51H18.4384C19.3562 51 20.1561 51.6246 20.3787 52.5149L20.7895 54.1582C20.9238 54.6952 21.2746 55.1526 21.7585 55.4214L29.0482 59.4712C29.6416 59.8009 30.3617 59.8071 30.9607 59.4876L37.0588 56.2353C37.3485 56.0808 37.6717 56 38 56H58.3496C58.7723 56 59.1841 56.1339 59.526 56.3825L63.1831 59.0423C63.95 59.6 65.0032 59.5426 65.7048 58.9047L69.8157 55.1676C69.9381 55.0563 70.0738 54.9606 70.2198 54.8828L77.0588 51.2353C77.3485 51.0808 77.6717 51 78 51H83C84.1046 51 85 51.8954 85 53V74C85 75.1046 84.1046 76 83 76H14C12.8954 76 12 75.1046 12 74V53Z" fill="#8FC1FF"/>
<path fill-rule="evenodd" clip-rule="evenodd" d="M12 47C13.1046 47 14 47.8954 14 49V74H83V49.5C83 48.3954 83.8954 47.5 85 47.5C86.1046 47.5 87 48.3954 87 49.5V74C87 76.2091 85.2091 78 83 78H14C11.7909 78 10 76.2091 10 74V49C10 47.8954 10.8954 47 12 47Z" fill="#0F1D2E"/>
<path fill-rule="evenodd" clip-rule="evenodd" d="M33 56C33 54.8954 33.8954 54 35 54H60C61.1046 54 62 54.8954 62 56C62 57.1046 61.1046 58 60 58H35C33.8954 58 33 57.1046 33 56Z" fill="#0F1D2E"/>
<path fill-rule="evenodd" clip-rule="evenodd" d="M69 46C69 44.8954 69.8954 44 71 44H75C76.1046 44 77 44.8954 77 46C77 47.1046 76.1046 48 75 48H71C69.8954 48 69 47.1046 69 46Z" fill="#0F1D2E"/>
<path fill-rule="evenodd" clip-rule="evenodd" d="M38.4253 28.0844C39.4833 27.767 40.5983 28.3674 40.9157 29.4253L43.9157 39.4253C44.2331 40.4833 43.6327 41.5983 42.5747 41.9157C41.5167 42.2331 40.4018 41.6327 40.0844 40.5747L37.0844 30.5747C36.767 29.5167 37.3674 28.4018 38.4253 28.0844Z" fill="#0F1D2E"/>
<path fill-rule="evenodd" clip-rule="evenodd" d="M46 48C46 46.8954 46.8954 46 48 46H50C51.1046 46 52 46.8954 52 48C52 49.1046 51.1046 50 50 50H48C46.8954 50 46 49.1046 46 48Z" fill="#0F1D2E"/>
<path fill-rule="evenodd" clip-rule="evenodd" d="M30.1797 54C29.0755 54 28.1797 54.8958 28.1797 56C28.1797 57.1042 29.0755 58 30.1797 58C31.2839 58 32.1797 57.1042 32.1797 56C32.1797 54.8958 31.2839 54 30.1797 54ZM24.1797 56C24.1797 52.6866 26.8663 50 30.1797 50C33.4931 50 36.1797 52.6866 36.1797 56C36.1797 59.3134 33.4931 62 30.1797 62C26.8663 62 24.1797 59.3134 24.1797 56Z" fill="#0F1D2E"/>
<path fill-rule="evenodd" clip-rule="evenodd" d="M64.1992 54C63.095 54 62.1992 54.8958 62.1992 56C62.1992 57.1042 63.095 58 64.1992 58C65.3034 58 66.1992 57.1042 66.1992 56C66.1992 54.8958 65.3034 54 64.1992 54ZM58.1992 56C58.1992 52.6866 60.8859 50 64.1992 50C67.5126 50 70.1992 52.6866 70.1992 56C70.1992 59.3134 67.5126 62 64.1992 62C60.8859 62 58.1992 59.3134 58.1992 56Z" fill="#0F1D2E"/>
<path fill-rule="evenodd" clip-rule="evenodd" d="M64.857 37.2573C65.2672 38.2828 64.7683 39.4468 63.7428 39.857L58.7428 41.857C58.5065 41.9515 58.2544 42 58 42H28C26.8954 42 26 41.1046 26 40C26 38.8955 26.8954 38 28 38H57.6148L62.2572 36.1431C63.2828 35.7329 64.4467 36.2317 64.857 37.2573Z" fill="#0F1D2E"/>
<path fill-rule="evenodd" clip-rule="evenodd" d="M20 30C20 28.8954 20.8954 28 22 28H50.084C50.1957 28 50.3072 28.0094 50.4173 28.028L50.084 30C50.4173 28.028 50.4182 28.0281 50.4192 28.0283L50.4211 28.0286L50.4255 28.0294L50.4358 28.0312L50.4629 28.0361C50.4839 28.0399 50.5106 28.045 50.5429 28.0514C50.6074 28.0643 50.6943 28.0825 50.8024 28.1075C51.0188 28.1574 51.3203 28.2339 51.6986 28.3467C52.4552 28.5723 53.5184 28.9431 54.8204 29.5362C57.3432 30.6854 60.7513 32.6646 64.5545 36.0258C72.4654 38.028 76.294 42.1051 78.0227 45.9786C78.8827 47.9055 79.1852 49.6978 79.2733 51.0123C79.3175 51.6713 79.3083 52.2173 79.2864 52.61C79.2755 52.8067 79.2613 52.9658 79.2488 53.0825C79.2425 53.1409 79.2367 53.1888 79.2319 53.2255L79.2256 53.2722L79.2231 53.2892L79.2221 53.2961L79.2217 53.2991C79.2214 53.3005 79.2212 53.3019 77.2442 53L79.2212 53.3019C79.1109 54.0245 78.615 54.6294 77.9281 54.8794L69.6839 57.8794C68.6459 58.2571 67.4983 57.7219 67.1206 56.6839C66.7429 55.6459 67.2781 54.4983 68.3161 54.1206L75.2979 51.5799C75.2944 51.4848 75.2893 51.3846 75.2823 51.2799C75.2182 50.324 74.9968 49.0132 74.37 47.6088C73.1612 44.9003 70.2891 41.4914 63.1332 39.7958C62.8063 39.7184 62.5042 39.5598 62.2548 39.3348C58.6162 36.053 55.4124 34.2013 53.1622 33.1763C52.0359 32.6632 51.1454 32.3558 50.5555 32.1799C50.2605 32.0919 50.0405 32.0368 49.9037 32.0052C49.8958 32.0034 49.8882 32.0017 49.8809 32H25.9409C25.8936 32.0593 25.8441 32.1219 25.7924 32.1878C25.3501 32.7516 24.7631 33.5403 24.1796 34.4429C23.5929 35.3506 23.032 36.3394 22.6232 37.3057C22.2057 38.2924 22 39.1322 22 39.7761V52C22 53.1046 22.8954 54 24 54H26C27.1046 54 28 54.8954 28 56C28 57.1046 27.1046 58 26 58H24C20.6863 58 18 55.3137 18 52V39.7761C18 38.3788 18.4193 36.976 18.9393 35.747C19.468 34.4976 20.1571 33.2974 20.8204 32.2714C20.9239 32.1112 21.0274 31.9544 21.1302 31.8015C20.4613 31.4779 20 30.7928 20 30ZM75.2651 52.7111L75.2655 52.7083C75.2651 52.7118 75.2649 52.7127 75.2651 52.7111Z" fill="#0F1D2E"/>
</svg>
