<svg width="96" height="96" viewBox="0 0 96 96" fill="none" xmlns="http://www.w3.org/2000/svg">
<path d="M72 20V33.25L52 35V56L49 57L51 62H72V73H36V62L26 54V20H72Z" fill="#8FC1FF"/>
<path fill-rule="evenodd" clip-rule="evenodd" d="M49.7843 28.9076C51.6119 26.3119 56 19.7704 56 16.8C56 13.0483 52.7303 10 49 10C45.2697 10 42 13.0483 42 16.8C42 19.7704 46.3881 26.3119 48.2157 28.9076C48.6024 29.4567 49.3976 29.4567 49.7843 28.9076ZM49 20C50.6569 20 52 18.6569 52 17C52 15.3431 50.6569 14 49 14C47.3431 14 46 15.3431 46 17C46 18.6569 47.3431 20 49 20Z" fill="#0F1D2E"/>
<path fill-rule="evenodd" clip-rule="evenodd" d="M51.05 58C51.2816 59.1411 52.2905 60 53.5 60H78.5C79.7095 60 80.7184 59.1411 80.95 58H51.05ZM47 57.5C47 55.567 48.567 54 50.5 54H81.5C83.433 54 85 55.567 85 57.5C85 61.0899 82.0899 64 78.5 64H53.5C49.9102 64 47 61.0899 47 57.5Z" fill="#0F1D2E"/>
<path fill-rule="evenodd" clip-rule="evenodd" d="M56 36C54.3431 36 53 37.3431 53 39V51C53 52.6569 54.3431 54 56 54H76C77.6569 54 79 52.6569 79 51V39C79 37.3431 77.6569 36 76 36H56ZM49 39C49 35.134 52.134 32 56 32H76C79.866 32 83 35.134 83 39V51C83 54.866 79.866 58 76 58H56C52.134 58 49 54.866 49 51V39Z" fill="#0F1D2E"/>
<path fill-rule="evenodd" clip-rule="evenodd" d="M62.9672 40.0003C63.6242 39.9894 64.2445 40.302 64.6268 40.8363L67.054 44.2291L68.9277 42.3774C69.6576 41.6562 70.8148 41.6043 71.6063 42.2573L74.273 44.4573C75.125 45.1602 75.2459 46.4207 74.543 47.2728C73.84 48.1248 72.5795 48.2457 71.7274 47.5427L70.4544 46.4924L68.1977 48.7226C67.7812 49.1342 67.2052 49.3426 66.6218 49.2928C66.0383 49.2429 65.506 48.9399 65.1653 48.4637L63.0583 45.5185L60.6643 49.1094C60.0516 50.0285 58.8099 50.2768 57.8908 49.6641C56.9718 49.0514 56.7234 47.8097 57.3361 46.8906L61.3361 40.8906C61.7006 40.3439 62.3103 40.0111 62.9672 40.0003Z" fill="#0F1D2E"/>
<path fill-rule="evenodd" clip-rule="evenodd" d="M23.9931 52.1155C25.134 51.0886 26.866 51.0886 28.0069 52.1155L37.0069 60.2155C37.639 60.7844 38 61.5949 38 62.4453V75C38 76.6568 36.6569 78 35 78H17C15.3431 78 14 76.6568 14 75V62.4453C14 61.5949 14.361 60.7844 14.9931 60.2155L23.9931 52.1155ZM26 55.6907L18 62.8907V74H34V62.8907L26 55.6907Z" fill="#0F1D2E"/>
<path d="M27 67C27 66.4477 27.4477 66 28 66H30C30.5523 66 31 66.4477 31 67V75C31 75.5523 30.5523 76 30 76H28C27.4477 76 27 75.5523 27 75V67Z" fill="#0F1D2E"/>
<path d="M21 65C21 64.4477 21.4477 64 22 64H24C24.5523 64 25 64.4477 25 65V67C25 67.5523 24.5523 68 24 68H22C21.4477 68 21 67.5523 21 67V65Z" fill="#0F1D2E"/>
<path fill-rule="evenodd" clip-rule="evenodd" d="M32 37C32 35.8954 32.8954 35 34 35H43C44.1046 35 45 35.8954 45 37C45 38.1046 44.1046 39 43 39H34C32.8954 39 32 38.1046 32 37Z" fill="#0F1D2E"/>
<path fill-rule="evenodd" clip-rule="evenodd" d="M32 45C32 43.8954 32.8954 43 34 43H43C44.1046 43 45 43.8954 45 45C45 46.1046 44.1046 47 43 47H34C32.8954 47 32 46.1046 32 45Z" fill="#0F1D2E"/>
<path fill-rule="evenodd" clip-rule="evenodd" d="M74 22C74 19.7909 72.2091 18 70 18H61C59.8954 18 59 18.8954 59 20C59 21.1046 59.8954 22 61 22H70V34C70 35.1046 70.8954 36 72 36C73.1046 36 74 35.1046 74 34V22ZM39 20C39 18.8954 38.1046 18 37 18H28C25.7909 18 24 19.7909 24 22V45C24 46.1046 24.8954 47 26 47C27.1046 47 28 46.1046 28 45V22H37C38.1046 22 39 21.1046 39 20ZM72 60C70.8954 60 70 60.8954 70 62V71H44C42.8954 71 42 71.8954 42 73C42 74.1046 42.8954 75 44 75H70C72.2091 75 74 73.2091 74 71V62C74 60.8954 73.1046 60 72 60Z" fill="#0F1D2E"/>
</svg>
