<svg width="96" height="96" viewBox="0 0 96 96" fill="none" xmlns="http://www.w3.org/2000/svg">
<path d="M62.2306 77.9768C31.8227 72.5254 24.5579 46.4986 22.6947 29.2453C21.9714 22.548 27.545 17 34.2812 17H41.3989C43.4459 17 45.1626 18.5455 45.3769 20.5813L46.6912 33.0666C46.8748 34.8107 45.9008 36.4711 44.2888 37.1619L42.9281 37.7451C41.2145 38.4795 40.211 40.3091 40.6834 42.1125C42.7234 49.9001 46.8823 55.3581 54.4946 58.1955C55.9904 58.753 57.6457 58.1928 58.6429 56.9463L59.5548 55.8065C60.4489 54.6889 61.8719 54.1341 63.2865 54.3518L70.6692 55.4876C72.5938 55.7837 74.0255 57.4225 74.0604 59.3694L74.1933 66.7849C74.3136 73.4954 68.8368 79.1612 62.2306 77.9768Z" fill="#8FC1FF"/>
<path fill-rule="evenodd" clip-rule="evenodd" d="M34.2814 19C28.59 19 24.1028 23.6552 24.6833 29.0306C25.6003 37.5223 27.8339 47.9985 33.4537 56.9755C39.0271 65.8782 47.9757 73.3893 62.5837 76.0082C67.6966 76.9248 72.2964 72.5413 72.1938 66.8207L72.0608 59.4052C72.0434 58.4318 71.3275 57.6124 70.3653 57.4643L62.9825 56.3285C62.2752 56.2197 61.5637 56.4971 61.1167 57.0559L60.2048 58.1957C58.7366 60.031 56.1995 60.9653 53.7963 60.0695C45.4661 56.9646 40.9224 50.9165 38.7489 42.6193C38.0011 39.7645 39.6085 36.9919 42.1404 35.9068L43.5012 35.3236C44.3071 34.9782 44.7941 34.148 44.7023 33.276L43.3881 20.7906C43.2809 19.7727 42.4226 19 41.3991 19H34.2814ZM20.7064 29.4601C19.8404 21.4408 26.5002 15 34.2814 15H41.3991C44.4696 15 47.0447 17.3182 47.3661 20.3719L48.6803 32.8572C48.9557 35.4734 47.4948 37.9639 45.0768 39.0002L43.7161 39.5834C42.8208 39.9671 42.4213 40.8536 42.6183 41.6057C44.5248 48.8837 48.2989 53.7516 55.1933 56.3215C55.7816 56.5407 56.5552 56.3546 57.0813 55.697L57.9932 54.5571C59.3343 52.8807 61.4689 52.0486 63.5908 52.375L70.9735 53.5108C73.8603 53.955 76.0079 56.4132 76.0602 59.3335L76.1932 66.749C76.3312 74.4495 69.9774 81.3975 61.8778 79.9454C46.0778 77.1129 36.1902 68.8849 30.0633 59.098C23.983 49.3855 21.6526 38.2217 20.7064 29.4601Z" fill="#0F1D2E"/>
<path fill-rule="evenodd" clip-rule="evenodd" d="M56 28C56 26.8954 56.8954 26 58 26H62C63.1046 26 64 26.8954 64 28C64 29.1046 63.1046 30 62 30H58C56.8954 30 56 29.1046 56 28Z" fill="#0F1D2E"/>
<path fill-rule="evenodd" clip-rule="evenodd" d="M62.7153 15.971C63.2836 16.9181 62.9765 18.1467 62.0293 18.715L57.0294 21.715C56.0822 22.2833 54.8537 21.9762 54.2854 21.029C53.7171 20.0819 54.0242 18.8533 54.9714 18.285L59.9713 15.285C60.9185 14.7167 62.147 15.0238 62.7153 15.971Z" fill="#0F1D2E"/>
</svg>
