<svg width="96" height="96" viewBox="0 0 96 96" fill="none" xmlns="http://www.w3.org/2000/svg">
<path d="M17 59.9995C17 58.8949 17.8954 57.9995 19 57.9995H77C78.1046 57.9995 79 58.8949 79 59.9995V71.9995C79 73.1041 78.1046 73.9995 77 73.9995H19C17.8954 73.9995 17 73.1041 17 71.9995V59.9995Z" fill="#8FC1FF"/>
<path fill-rule="evenodd" clip-rule="evenodd" d="M15 59.9995C15 57.7904 16.7909 55.9995 19 55.9995H77C79.2091 55.9995 81 57.7904 81 59.9995V71.9995C81 74.2087 79.2091 75.9995 77 75.9995H19C16.7909 75.9995 15 74.2087 15 71.9995V59.9995ZM77 59.9995H19V71.9995H77V59.9995Z" fill="#0F1D2E"/>
<path fill-rule="evenodd" clip-rule="evenodd" d="M46.0476 17.0388C47.1711 16.0758 48.8289 16.0758 49.9524 17.0388L62.9524 28.1817C63.6173 28.7516 64 29.5837 64 30.4594V48.9995C64 50.6564 62.6569 51.9995 61 51.9995H35C33.3431 51.9995 32 50.6564 32 48.9995V30.4594C32 29.5837 32.3827 28.7516 33.0476 28.1817L46.0476 17.0388ZM48 20.6337L36 30.9194V47.9995H60V30.9194L48 20.6337Z" fill="#0F1D2E"/>
<path d="M50 36.9995C50 36.4472 50.4477 35.9995 51 35.9995H55C55.5523 35.9995 56 36.4472 56 36.9995V48.9995C56 49.5518 55.5523 49.9995 55 49.9995H51C50.4477 49.9995 50 49.5518 50 48.9995V36.9995Z" fill="#0F1D2E"/>
<path d="M40 34.9995C40 34.4472 40.4477 33.9995 41 33.9995H45C45.5523 33.9995 46 34.4472 46 34.9995V38.9995C46 39.5518 45.5523 39.9995 45 39.9995H41C40.4477 39.9995 40 39.5518 40 38.9995V34.9995Z" fill="#0F1D2E"/>
<path d="M47.4813 61.8897C47.7128 61.4923 48.2868 61.4923 48.5183 61.8897L49.4832 63.5462C49.5679 63.6918 49.71 63.795 49.8746 63.8307L51.7483 64.2364C52.1977 64.3337 52.3751 64.8797 52.0687 65.2226L50.7914 66.6521C50.6792 66.7778 50.6249 66.9448 50.6419 67.1124L50.835 69.0197C50.8813 69.4772 50.4169 69.8146 49.9961 69.6292L48.2418 68.8561C48.0876 68.7882 47.912 68.7882 47.7579 68.8561L46.0036 69.6292C45.5828 69.8146 45.1183 69.4772 45.1647 69.0197L45.3578 67.1124C45.3747 66.9448 45.3205 66.7778 45.2082 66.6521L43.9309 65.2226C43.6245 64.8797 43.8019 64.3337 44.2513 64.2364L46.125 63.8307C46.2896 63.795 46.4317 63.6918 46.5165 63.5462L47.4813 61.8897Z" fill="#0F1D2E"/>
<path fill-rule="evenodd" clip-rule="evenodd" d="M44.2513 64.2364C43.8019 64.3337 43.6245 64.8797 43.9309 65.2226L45.2082 66.6521C45.3205 66.7778 45.3747 66.9448 45.3578 67.1124L45.1647 69.0197C45.1183 69.4772 45.5828 69.8146 46.0036 69.6292L47.7579 68.8561C47.912 68.7882 48.0876 68.7882 48.2418 68.8561L49.9961 69.6292C50.4169 69.8146 50.8813 69.4772 50.835 69.0197L50.6419 67.1124C50.6249 66.9448 50.6792 66.7778 50.7914 66.6521L52.0687 65.2226C52.3751 64.8797 52.1977 64.3337 51.7483 64.2364L49.8746 63.8307C49.71 63.795 49.5679 63.6918 49.4832 63.5462L48.5183 61.8897C48.2868 61.4923 47.7128 61.4923 47.4813 61.8897L46.5165 63.5462C46.4317 63.6918 46.2896 63.795 46.125 63.8307L44.2513 64.2364Z" fill="#0F1D2E"/>
</svg>
