<svg width="96" height="96" viewBox="0 0 96 96" fill="none" xmlns="http://www.w3.org/2000/svg">
<path d="M39.0001 47C39.0001 44.7908 40.7909 43 43.0001 43H80C82.2091 43 84 44.7908 84 47V69C84 71.2091 82.2091 73 80 73H76C74.8954 73 74 73.8954 74 75V80L66.5655 73.4948C66.2009 73.1758 65.733 73 65.2485 73H43C40.7909 73 39 71.2091 39 69L39.0001 47Z" fill="#8FC1FF"/>
<path fill-rule="evenodd" clip-rule="evenodd" d="M60 21C60 17.6863 57.3137 15 54 15H16C12.6863 15 10 17.6863 10 21V42C10 45.3137 12.6863 48 16 48H21V54C21 54.8089 21.4873 55.5382 22.2346 55.8478C22.982 56.1573 23.8422 55.9862 24.4142 55.4142L31.8284 48H38C39.1046 48 40 47.1046 40 46C40 44.8954 39.1046 44 38 44H31.8284C30.7676 44 29.7501 44.4214 29 45.1716L25 49.1716V48C25 45.7909 23.2091 44 21 44H16C14.8955 44 14 43.1046 14 42V21C14 19.8954 14.8955 19 16 19H54C55.1046 19 56 19.8954 56 21V43C56 44.1046 56.8954 45 58 45C59.1046 45 60 44.1046 60 43V21Z" fill="#0F1D2E"/>
<path fill-rule="evenodd" clip-rule="evenodd" d="M35 27C33.6691 27 32 28.4339 32 31C32 33.5661 33.6691 35 35 35C36.3309 35 38 33.5661 38 31C38 28.4339 36.3309 27 35 27ZM28 31C28 26.9386 30.8081 23 35 23C39.1919 23 42 26.9386 42 31C42 35.0614 39.1919 39 35 39C30.8081 39 28 35.0614 28 31Z" fill="#0F1D2E"/>
<path fill-rule="evenodd" clip-rule="evenodd" d="M35.5858 32.5858C36.3668 31.8047 37.6332 31.8047 38.4142 32.5858L41.2426 35.4142C42.0237 36.1953 42.0237 37.4616 41.2426 38.2426C40.4616 39.0237 39.1953 39.0237 38.4142 38.2426L35.5858 35.4142C34.8047 34.6332 34.8047 33.3668 35.5858 32.5858Z" fill="#0F1D2E"/>
<path fill-rule="evenodd" clip-rule="evenodd" d="M37.0001 46.9999C37.0001 43.6862 39.6864 41 43.0001 41H80C83.3137 41 86 43.6863 86 47V69C86 72.3137 83.3137 75 80 75H76V80C76 80.7847 75.541 81.497 74.8264 81.8212C74.1118 82.1455 73.2736 82.0219 72.683 81.5051L65.2485 75H43C39.6863 75 37 72.3137 37 68.9999L37.0001 46.9999ZM43.0001 45C41.8955 45 41.0001 45.8954 41.0001 47L41 69C41 70.1045 41.8954 71 43 71H65.2485C66.2174 71 67.1534 71.3516 67.8825 71.9897L72 75.5924V75C72 72.7908 73.7908 71 76 71H80C81.1046 71 82 70.1045 82 69V47C82 45.8954 81.1046 45 80 45H43.0001Z" fill="#0F1D2E"/>
<path fill-rule="evenodd" clip-rule="evenodd" d="M56.147 60.4117C56.147 59.3071 57.0424 58.4117 58.147 58.4117H66.147C67.2515 58.4117 68.147 59.3071 68.147 60.4117C68.147 61.5163 67.2515 62.4117 66.147 62.4117H58.147C57.0424 62.4117 56.147 61.5163 56.147 60.4117Z" fill="#0F1D2E"/>
<path fill-rule="evenodd" clip-rule="evenodd" d="M61.9999 50C62.7575 50 63.45 50.428 63.7888 51.1055L69.7888 63.1055C70.2828 64.0935 69.8823 65.2948 68.8944 65.7888C67.9064 66.2828 66.7051 65.8824 66.2111 64.8944L62 56.4721L57.7888 64.8944C57.2948 65.8824 56.0935 66.2828 55.1055 65.7888C54.1176 65.2948 53.7171 64.0935 54.2111 63.1055L60.2111 51.1055C60.5499 50.428 61.2424 50 61.9999 50Z" fill="#0F1D2E"/>
</svg>
