<svg width="96" height="96" viewBox="0 0 96 96" fill="none" xmlns="http://www.w3.org/2000/svg">
<path d="M17 59.9995C17 58.8949 17.8954 57.9995 19 57.9995H77C78.1046 57.9995 79 58.8949 79 59.9995V71.9995C79 73.1041 78.1046 73.9995 77 73.9995H19C17.8954 73.9995 17 73.1041 17 71.9995V59.9995Z" fill="#8FC1FF"/>
<path fill-rule="evenodd" clip-rule="evenodd" d="M15 59.9995C15 57.7904 16.7909 55.9995 19 55.9995H77C79.2091 55.9995 81 57.7904 81 59.9995V71.9995C81 74.2087 79.2091 75.9995 77 75.9995H19C16.7909 75.9995 15 74.2087 15 71.9995V59.9995ZM77 59.9995H19V71.9995H77V59.9995Z" fill="#0F1D2E"/>
<path fill-rule="evenodd" clip-rule="evenodd" d="M46.0476 17.0388C47.1711 16.0758 48.8289 16.0758 49.9524 17.0388L62.9524 28.1817C63.6173 28.7516 64 29.5837 64 30.4594V48.9995C64 50.6564 62.6569 51.9995 61 51.9995H35C33.3431 51.9995 32 50.6564 32 48.9995V30.4594C32 29.5837 32.3827 28.7516 33.0476 28.1817L46.0476 17.0388ZM48 20.6337L36 30.9194V47.9995H60V30.9194L48 20.6337Z" fill="#0F1D2E"/>
<path d="M50 36.9995C50 36.4472 50.4477 35.9995 51 35.9995H55C55.5523 35.9995 56 36.4472 56 36.9995V48.9995C56 49.5518 55.5523 49.9995 55 49.9995H51C50.4477 49.9995 50 49.5518 50 48.9995V36.9995Z" fill="#0F1D2E"/>
<path d="M40 34.9995C40 34.4472 40.4477 33.9995 41 33.9995H45C45.5523 33.9995 46 34.4472 46 34.9995V38.9995C46 39.5518 45.5523 39.9995 45 39.9995H41C40.4477 39.9995 40 39.5518 40 38.9995V34.9995Z" fill="#0F1D2E"/>
<path d="M29.4813 61.8897C29.7128 61.4923 30.2868 61.4923 30.5183 61.8897L31.4832 63.5462C31.5679 63.6918 31.71 63.795 31.8746 63.8307L33.7483 64.2364C34.1977 64.3337 34.3751 64.8797 34.0687 65.2226L32.7914 66.6521C32.6792 66.7778 32.6249 66.9448 32.6419 67.1124L32.835 69.0197C32.8813 69.4772 32.4169 69.8146 31.9961 69.6292L30.2418 68.8561C30.0876 68.7882 29.912 68.7882 29.7579 68.8561L28.0036 69.6292C27.5828 69.8146 27.1183 69.4772 27.1647 69.0197L27.3578 67.1124C27.3747 66.9448 27.3205 66.7778 27.2082 66.6521L25.9309 65.2226C25.6245 64.8797 25.8019 64.3337 26.2513 64.2364L28.125 63.8307C28.2896 63.795 28.4317 63.6918 28.5165 63.5462L29.4813 61.8897Z" fill="#0F1D2E"/>
<path fill-rule="evenodd" clip-rule="evenodd" d="M26.2513 64.2364C25.8019 64.3337 25.6245 64.8797 25.9309 65.2226L27.2082 66.6521C27.3205 66.7778 27.3747 66.9448 27.3578 67.1124L27.1647 69.0197C27.1183 69.4772 27.5828 69.8146 28.0036 69.6292L29.7579 68.8561C29.912 68.7882 30.0876 68.7882 30.2418 68.8561L31.9961 69.6292C32.4169 69.8146 32.8813 69.4772 32.835 69.0197L32.6419 67.1124C32.6249 66.9448 32.6792 66.7778 32.7914 66.6521L34.0687 65.2226C34.3751 64.8797 34.1977 64.3337 33.7483 64.2364L31.8746 63.8307C31.71 63.795 31.5679 63.6918 31.4832 63.5462L30.5183 61.8897C30.2868 61.4923 29.7128 61.4923 29.4813 61.8897L28.5165 63.5462C28.4317 63.6918 28.2896 63.795 28.125 63.8307L26.2513 64.2364Z" fill="#0F1D2E"/>
<path d="M41.4813 61.8897C41.7128 61.4923 42.2868 61.4923 42.5183 61.8897L43.4832 63.5462C43.5679 63.6918 43.71 63.795 43.8746 63.8307L45.7483 64.2364C46.1977 64.3337 46.3751 64.8797 46.0687 65.2226L44.7914 66.6521C44.6792 66.7778 44.6249 66.9448 44.6419 67.1124L44.835 69.0197C44.8813 69.4772 44.4169 69.8146 43.9961 69.6292L42.2418 68.8561C42.0876 68.7882 41.912 68.7882 41.7579 68.8561L40.0036 69.6292C39.5828 69.8146 39.1183 69.4772 39.1647 69.0197L39.3578 67.1124C39.3747 66.9448 39.3205 66.7778 39.2082 66.6521L37.9309 65.2226C37.6245 64.8797 37.8019 64.3337 38.2513 64.2364L40.125 63.8307C40.2896 63.795 40.4317 63.6918 40.5165 63.5462L41.4813 61.8897Z" fill="#0F1D2E"/>
<path fill-rule="evenodd" clip-rule="evenodd" d="M38.2513 64.2364C37.8019 64.3337 37.6245 64.8797 37.9309 65.2226L39.2082 66.6521C39.3205 66.7778 39.3747 66.9448 39.3578 67.1124L39.1647 69.0197C39.1183 69.4772 39.5828 69.8146 40.0036 69.6292L41.7579 68.8561C41.912 68.7882 42.0876 68.7882 42.2418 68.8561L43.9961 69.6292C44.4169 69.8146 44.8813 69.4772 44.835 69.0197L44.6419 67.1124C44.6249 66.9448 44.6792 66.7778 44.7914 66.6521L46.0687 65.2226C46.3751 64.8797 46.1977 64.3337 45.7483 64.2364L43.8746 63.8307C43.71 63.795 43.5679 63.6918 43.4832 63.5462L42.5183 61.8897C42.2868 61.4923 41.7128 61.4923 41.4813 61.8897L40.5165 63.5462C40.4317 63.6918 40.2896 63.795 40.125 63.8307L38.2513 64.2364Z" fill="#0F1D2E"/>
<path d="M53.4813 61.8897C53.7128 61.4923 54.2868 61.4923 54.5183 61.8897L55.4832 63.5462C55.5679 63.6918 55.71 63.795 55.8746 63.8307L57.7483 64.2364C58.1977 64.3337 58.3751 64.8797 58.0687 65.2226L56.7914 66.6521C56.6792 66.7778 56.6249 66.9448 56.6419 67.1124L56.835 69.0197C56.8813 69.4772 56.4169 69.8146 55.9961 69.6292L54.2418 68.8561C54.0876 68.7882 53.912 68.7882 53.7579 68.8561L52.0036 69.6292C51.5828 69.8146 51.1183 69.4772 51.1647 69.0197L51.3578 67.1124C51.3747 66.9448 51.3205 66.7778 51.2082 66.6521L49.9309 65.2226C49.6245 64.8797 49.8019 64.3337 50.2513 64.2364L52.125 63.8307C52.2896 63.795 52.4317 63.6918 52.5165 63.5462L53.4813 61.8897Z" fill="#0F1D2E"/>
<path fill-rule="evenodd" clip-rule="evenodd" d="M50.2513 64.2364C49.8019 64.3337 49.6245 64.8797 49.9309 65.2226L51.2082 66.6521C51.3205 66.7778 51.3747 66.9448 51.3578 67.1124L51.1647 69.0197C51.1183 69.4772 51.5828 69.8146 52.0036 69.6292L53.7579 68.8561C53.912 68.7882 54.0876 68.7882 54.2418 68.8561L55.9961 69.6292C56.4169 69.8146 56.8813 69.4772 56.835 69.0197L56.6419 67.1124C56.6249 66.9448 56.6792 66.7778 56.7914 66.6521L58.0687 65.2226C58.3751 64.8797 58.1977 64.3337 57.7483 64.2364L55.8746 63.8307C55.71 63.795 55.5679 63.6918 55.4832 63.5462L54.5183 61.8897C54.2868 61.4923 53.7128 61.4923 53.4813 61.8897L52.5165 63.5462C52.4317 63.6918 52.2896 63.795 52.125 63.8307L50.2513 64.2364Z" fill="#0F1D2E"/>
<path d="M65.4813 61.8897C65.7128 61.4923 66.2868 61.4923 66.5183 61.8897L67.4832 63.5462C67.5679 63.6918 67.71 63.795 67.8746 63.8307L69.7483 64.2364C70.1977 64.3337 70.3751 64.8797 70.0687 65.2226L68.7914 66.6521C68.6792 66.7778 68.6249 66.9448 68.6419 67.1124L68.835 69.0197C68.8813 69.4772 68.4169 69.8146 67.9961 69.6292L66.2418 68.8561C66.0876 68.7882 65.912 68.7882 65.7579 68.8561L64.0036 69.6292C63.5828 69.8146 63.1183 69.4772 63.1647 69.0197L63.3578 67.1124C63.3747 66.9448 63.3205 66.7778 63.2082 66.6521L61.9309 65.2226C61.6245 64.8797 61.8019 64.3337 62.2513 64.2364L64.125 63.8307C64.2896 63.795 64.4317 63.6918 64.5165 63.5462L65.4813 61.8897Z" fill="#0F1D2E"/>
<path fill-rule="evenodd" clip-rule="evenodd" d="M62.2513 64.2364C61.8019 64.3337 61.6245 64.8797 61.9309 65.2226L63.2082 66.6521C63.3205 66.7778 63.3747 66.9448 63.3578 67.1124L63.1647 69.0197C63.1183 69.4772 63.5828 69.8146 64.0036 69.6292L65.7579 68.8561C65.912 68.7882 66.0876 68.7882 66.2418 68.8561L67.9961 69.6292C68.4169 69.8146 68.8813 69.4772 68.835 69.0197L68.6419 67.1124C68.6249 66.9448 68.6792 66.7778 68.7914 66.6521L70.0687 65.2226C70.3751 64.8797 70.1977 64.3337 69.7483 64.2364L67.8746 63.8307C67.71 63.795 67.5679 63.6918 67.4832 63.5462L66.5183 61.8897C66.2868 61.4923 65.7128 61.4923 65.4813 61.8897L64.5165 63.5462C64.4317 63.6918 64.2896 63.795 64.125 63.8307L62.2513 64.2364Z" fill="#0F1D2E"/>
</svg>
