<svg width="96" height="96" viewBox="0 0 96 96" fill="none" xmlns="http://www.w3.org/2000/svg">
<path d="M47.1521 34.3568C47.5438 33.7301 48.4564 33.7301 48.8481 34.3568L62.0438 55.47C62.4601 56.136 61.9813 57 61.1958 57H34.8043C34.0189 57 33.5401 56.136 33.9563 55.47L47.1521 34.3568Z" fill="#8FC1FF"/>
<path fill-rule="evenodd" clip-rule="evenodd" d="M73 19C73 16.7909 71.2091 15 69 15H37C36.4696 15 35.9609 15.2107 35.5858 15.5858L23.5858 27.5858C23.2107 27.9609 23 28.4696 23 29V71C23 73.2091 24.7909 75 27 75H69C71.2091 75 73 73.2091 73 71V19ZM39 19L69 19V71H27V31H35C37.2091 31 39 29.2091 39 27V19ZM35 21.8284L29.8284 27H35V21.8284Z" fill="#0F1D2E"/>
<path fill-rule="evenodd" clip-rule="evenodd" d="M47 65C47 63.8954 46.1046 63 45 63H33C31.8954 63 31 63.8954 31 65C31 66.1046 31.8954 67 33 67H45C46.1046 67 47 66.1046 47 65Z" fill="#0F1D2E"/>
<path fill-rule="evenodd" clip-rule="evenodd" d="M43 25C43 23.8954 43.8954 23 45 23H55C56.1046 23 57 23.8954 57 25C57 26.1046 56.1046 27 55 27H45C43.8954 27 43 26.1046 43 25Z" fill="#0F1D2E"/>
<path fill-rule="evenodd" clip-rule="evenodd" d="M45.4559 33.2968C46.6309 31.4168 49.3689 31.4168 50.5439 33.2968L63.7396 54.41C64.9885 56.4081 63.5519 59 61.1956 59H34.8041C32.4478 59 31.0113 56.4081 32.2601 54.41L45.4559 33.2968ZM36.6084 55H59.3914L47.9999 36.7736L36.6084 55Z" fill="#0F1D2E"/>
<path d="M50 52C50 53.1046 49.1046 54 48 54C46.8954 54 46 53.1046 46 52C46 50.8954 46.8954 50 48 50C49.1046 50 50 50.8954 50 52Z" fill="#0F1D2E"/>
<path fill-rule="evenodd" clip-rule="evenodd" d="M48 53C48.5523 53 49 52.5523 49 52C49 51.4477 48.5523 51 48 51C47.4477 51 47 51.4477 47 52C47 52.5523 47.4477 53 48 53ZM48 54C49.1046 54 50 53.1046 50 52C50 50.8954 49.1046 50 48 50C46.8954 50 46 50.8954 46 52C46 53.1046 46.8954 54 48 54Z" fill="#0F1D2E"/>
<path fill-rule="evenodd" clip-rule="evenodd" d="M48 41C49.1046 41 50 41.8954 50 43V47C50 48.1046 49.1046 49 48 49C46.8954 49 46 48.1046 46 47V43C46 41.8954 46.8954 41 48 41Z" fill="#0F1D2E"/>
</svg>
