<svg width="96" height="96" viewBox="0 0 96 96" fill="none" xmlns="http://www.w3.org/2000/svg">
<path fill-rule="evenodd" clip-rule="evenodd" d="M72.0695 20.0116C66.0739 20.6081 55.2432 22.3723 50.1215 27.4939L27.4925 50.1229C25.9304 51.685 25.932 54.2161 27.4941 55.7782L40.222 68.5061C41.7841 70.0682 44.3152 70.0698 45.8773 68.5077L68.5063 45.8787C73.5615 40.8235 75.3532 29.9447 75.9715 23.9294C76.2065 21.6433 74.3564 19.7841 72.0695 20.0116ZM54.1254 41.8748C56.859 44.6085 61.2912 44.6085 64.0249 41.8748C66.7585 39.1411 66.7585 34.709 64.0249 31.9753C61.2912 29.2416 56.859 29.2416 54.1254 31.9753C51.3917 34.709 51.3917 39.1411 54.1254 41.8748Z" fill="#8FC1FF"/>
<path fill-rule="evenodd" clip-rule="evenodd" d="M73.982 23.7249C74.0878 22.6955 73.2929 21.8998 72.2675 22.0018C69.331 22.294 65.252 22.8689 61.3108 23.9807C57.3148 25.1079 53.7293 26.7145 51.5357 28.9081L28.9067 51.5371C28.1267 52.3171 28.1262 53.5819 28.9083 54.364L41.6362 67.0919C42.4183 67.874 43.683 67.8735 44.463 67.0935L67.0921 44.4645C69.2499 42.3066 70.8475 38.7295 71.9778 34.7213C73.0916 30.7712 73.6789 26.673 73.982 23.7249ZM71.8715 18.0215C75.4199 17.6684 78.3252 20.5912 77.961 24.1339C77.6457 27.2011 77.028 31.5499 75.8277 35.8069C74.6437 40.0056 72.8179 44.3955 69.9205 47.2929L47.2915 69.9219C44.9473 72.2661 41.1499 72.2624 38.8078 69.9203L26.0799 57.1924C23.7378 54.8503 23.7341 51.0529 26.0783 48.7087L48.7073 26.0797C51.6353 23.1517 56.0261 21.3154 60.2248 20.131C64.4782 18.9311 68.8124 18.3258 71.8715 18.0215Z" fill="#0F1D2E"/>
<path fill-rule="evenodd" clip-rule="evenodd" d="M62.8304 49.6436C61.7268 49.5956 60.7934 50.4513 60.7454 51.5548L60.0721 67.041L53.1056 74.0076L52.3638 63.8701C52.2832 62.7685 51.3248 61.9408 50.2232 62.0214C49.1215 62.102 48.2938 63.0604 48.3745 64.162L49.1162 74.2995C49.3661 77.7148 53.5125 79.2574 55.934 76.836L62.9005 69.8695C63.6081 69.1618 64.0248 68.2146 64.0683 67.2148L64.7416 51.7286C64.7896 50.625 63.9339 49.6916 62.8304 49.6436Z" fill="#0F1D2E"/>
<path fill-rule="evenodd" clip-rule="evenodd" d="M46.3564 33.1699C46.4043 34.2735 45.5486 35.207 44.4451 35.2549L28.9589 35.9282L21.9924 42.8948L32.1298 43.6365C33.2315 43.7171 34.0592 44.6755 33.9785 45.7771C33.8979 46.8788 32.9395 47.7065 31.8379 47.6259L21.7005 46.8841C18.2852 46.6342 16.7425 42.4878 19.164 40.0663L26.1305 33.0998C26.8381 32.3922 27.7853 31.9755 28.7851 31.932L44.2714 31.2587C45.3749 31.2107 46.3084 32.0664 46.3564 33.1699Z" fill="#0F1D2E"/>
<path fill-rule="evenodd" clip-rule="evenodd" d="M51.4295 44.5705C52.2106 45.3516 52.2106 46.6179 51.4295 47.399L35.8732 62.9553C35.0921 63.7364 33.8258 63.7364 33.0448 62.9553C32.2637 62.1743 32.2637 60.9079 33.0448 60.1269L48.6011 44.5705C49.3822 43.7895 50.6485 43.7895 51.4295 44.5705Z" fill="#0F1D2E"/>
<path fill-rule="evenodd" clip-rule="evenodd" d="M24.6659 71.3345C25.4469 72.1156 25.4469 73.3819 24.6659 74.1629L20.4232 78.4056C19.6422 79.1866 18.3758 79.1866 17.5948 78.4056C16.8137 77.6245 16.8137 76.3582 17.5948 75.5771L21.8374 71.3345C22.6185 70.5535 23.8848 70.5535 24.6659 71.3345Z" fill="#0F1D2E"/>
<path fill-rule="evenodd" clip-rule="evenodd" d="M23.2517 78.4055L26.0801 75.5771C26.8612 74.7961 28.1275 74.7961 28.9085 75.5771C29.6896 76.3582 29.6896 77.6245 28.9085 78.4055L26.0801 81.234C25.2991 82.015 24.0327 82.015 23.2517 81.234C22.4706 80.4529 22.4706 79.1866 23.2517 78.4055Z" fill="#0F1D2E"/>
<path fill-rule="evenodd" clip-rule="evenodd" d="M14.7663 69.9203L17.5948 67.0918C18.3758 66.3108 19.6421 66.3108 20.4232 67.0918C21.2042 67.8729 21.2042 69.1392 20.4232 69.9203L17.5948 72.7487C16.8137 73.5297 15.5474 73.5297 14.7663 72.7487C13.9853 71.9676 13.9853 70.7013 14.7663 69.9203Z" fill="#0F1D2E"/>
<path fill-rule="evenodd" clip-rule="evenodd" d="M56.9534 39.0464C58.125 40.218 60.0245 40.218 61.196 39.0464C62.3676 37.8748 62.3676 35.9753 61.196 34.8037C60.0245 33.6322 58.125 33.6322 56.9534 34.8037C55.7818 35.9753 55.7818 37.8748 56.9534 39.0464ZM54.125 41.8748C56.8586 44.6085 61.2908 44.6085 64.0245 41.8748C66.7581 39.1411 66.7581 34.709 64.0245 31.9753C61.2908 29.2417 56.8586 29.2417 54.125 31.9753C51.3913 34.709 51.3913 39.1411 54.125 41.8748Z" fill="#0F1D2E"/>
<path fill-rule="evenodd" clip-rule="evenodd" d="M27.8156 53.3561C28.7628 53.9243 29.0699 55.1529 28.5016 56.1L25.0624 61.8321L34.1677 70.9374L39.8998 67.4982C40.8469 66.9299 42.0754 67.237 42.6437 68.1842C43.212 69.1313 42.9049 70.3599 41.9577 70.9282L36.2257 74.3674C34.6518 75.3117 32.6372 75.0637 31.3393 73.7658L22.234 64.6605C20.9361 63.3626 20.6881 61.348 21.6324 59.7741L25.0716 54.042C25.6399 53.0949 26.8685 52.7878 27.8156 53.3561Z" fill="#0F1D2E"/>
</svg>
