<svg width="96" height="96" viewBox="0 0 96 96" fill="none" xmlns="http://www.w3.org/2000/svg">
<path d="M82 58H53L67.2456 44L82 58Z" fill="#8FC1FF"/>
<path fill-rule="evenodd" clip-rule="evenodd" d="M22.5386 17.4968C26.6715 16.9777 31.0062 17.6837 33.5043 18.5929L47.5997 23.7232C48.0981 23.9046 48.5041 24.2766 48.7283 24.7573L50.1712 27.8517L50.8572 28.1014L51.9269 26.7535C52.462 26.0791 53.3686 25.8229 54.1775 26.1173L60.7554 28.5115C61.2538 28.6929 61.6598 29.0649 61.884 29.5456C62.1081 30.0264 62.1322 30.5765 61.9507 31.0749L57.5045 43.2909C57.1267 44.3289 55.979 44.864 54.9411 44.4862L48.3632 42.0921C47.6513 41.833 47.147 41.194 47.0604 40.4414L46.946 39.4479L46.0669 39.128L44.2543 39.9732C43.7736 40.1974 43.2235 40.2214 42.7251 40.04L30.7543 72.9292C29.9988 75.0051 27.7034 76.0755 25.6275 75.3199L21.8687 73.9518C19.7928 73.1963 18.7225 70.9009 19.478 68.825L31.4487 35.9357L30.509 35.5937C29.8489 35.3534 29.3632 34.7844 29.2296 34.0947L28.3411 29.5086C26.5863 28.945 24.1898 28.3194 21.7616 27.8593C18.7257 27.2842 15.9623 27.0328 14.3615 27.3077C13.6588 27.4284 12.9451 27.1659 12.488 26.6187C12.031 26.0716 11.8997 25.3225 12.1436 24.6525C13.8915 19.8502 18.4327 18.0125 22.5386 17.4968ZM43.3147 35.9979L45.1273 35.1526C45.608 34.9285 46.1581 34.9044 46.6566 35.0859L49.4756 36.1119C50.1875 36.371 50.6919 37.0101 50.7785 37.7627L50.8928 38.7561L54.4297 40.0434L57.5079 31.5862L54.1641 30.3691L53.0944 31.717C52.5592 32.3913 51.6527 32.6476 50.8437 32.3532L48.0246 31.3271C47.5262 31.1457 47.1202 30.7737 46.8961 30.2929L45.4532 27.1986L32.1362 22.3517C30.2079 21.6498 26.5121 21.0291 23.037 21.4656C20.9943 21.7222 19.2435 22.3053 17.9429 23.2855C19.4376 23.4077 21.0107 23.6459 22.5061 23.9292C25.6411 24.5232 28.7699 25.3831 30.7681 26.1104C31.4283 26.3507 31.914 26.9197 32.0476 27.6094L32.9412 32.2222L34.6962 32.861C35.7342 33.2388 36.2693 34.3865 35.8915 35.4244L23.2368 70.1931L26.9956 71.5611L39.6503 36.7925C40.0281 35.7546 41.1758 35.2194 42.2137 35.5972L43.3147 35.9979Z" fill="#0F1D2E"/>
<path fill-rule="evenodd" clip-rule="evenodd" d="M65.0476 44.0392C66.1711 43.0763 67.8289 43.0763 68.9524 44.0392L81.9524 55.1821C82.6173 55.7521 83 56.5841 83 57.4599V75.9999C83 77.6568 81.6569 78.9999 80 78.9999H54C52.3431 78.9999 51 77.6568 51 75.9999V57.4599C51 56.5841 51.3827 55.7521 52.0476 55.1821L65.0476 44.0392ZM67 47.6341L55 57.9198V74.9999H79V57.9198L67 47.6341Z" fill="#0F1D2E"/>
<path d="M69 67.9999C69 67.4477 69.4477 66.9999 70 66.9999H74C74.5523 66.9999 75 67.4477 75 67.9999V75.9999C75 76.5522 74.5523 76.9999 74 76.9999H70C69.4477 76.9999 69 76.5522 69 75.9999V67.9999Z" fill="#0F1D2E"/>
<path d="M59 64.9999C59 64.4477 59.4477 63.9999 60 63.9999H64C64.5523 63.9999 65 64.4477 65 64.9999V68.9999C65 69.5522 64.5523 69.9999 64 69.9999H60C59.4477 69.9999 59 69.5522 59 68.9999V64.9999Z" fill="#0F1D2E"/>
<path fill-rule="evenodd" clip-rule="evenodd" d="M51 57.9999C51 56.8954 51.8954 55.9999 53 55.9999H81C82.1046 55.9999 83 56.8954 83 57.9999C83 59.1045 82.1046 59.9999 81 59.9999H53C51.8954 59.9999 51 59.1045 51 57.9999Z" fill="#0F1D2E"/>
</svg>
