<svg width="96" height="96" viewBox="0 0 96 96" fill="none" xmlns="http://www.w3.org/2000/svg">
<path d="M50.9999 75.9999V47.0726C50.9999 45.7729 51.6314 44.5542 52.6932 43.8047L65.6932 34.6282C67.0761 33.6521 68.9237 33.6521 70.3066 34.6282L83.3066 43.8047C84.3684 44.5542 84.9999 45.7729 84.9999 47.0726V75.9999C84.9999 77.1045 84.1045 77.9999 82.9999 77.9999H52.9999C51.8954 77.9999 50.9999 77.1045 50.9999 75.9999Z" fill="#8FC1FF"/>
<path fill-rule="evenodd" clip-rule="evenodd" d="M22 17C23.1045 17 24 17.8954 24 19V25C24 26.1045 23.1045 27 22 27C20.8954 27 20 26.1045 20 25V19C20 17.8954 20.8954 17 22 17Z" fill="#0F1D2E"/>
<path fill-rule="evenodd" clip-rule="evenodd" d="M67.9999 17C69.1045 17 69.9999 17.8954 69.9999 19V25C69.9999 26.1045 69.1045 27 67.9999 27C66.8953 27 65.9999 26.1045 65.9999 25V19C65.9999 17.8954 66.8953 17 67.9999 17Z" fill="#0F1D2E"/>
<path fill-rule="evenodd" clip-rule="evenodd" d="M13 24.9998C13 22.7907 14.7908 20.9999 17 20.9999H73.9999C76.209 20.9999 77.9999 22.7907 77.9999 24.9998V28.9998C77.9999 30.1044 77.1045 30.9998 75.9999 30.9998C74.8953 30.9998 73.9999 30.1044 73.9999 28.9998V24.9998H17V30.9998H45.4999C46.6045 30.9998 47.4999 31.8953 47.4999 32.9998C47.4999 34.1044 46.6045 34.9998 45.4999 34.9998H15C13.8954 34.9998 13 34.1044 13 32.9998V24.9998Z" fill="#0F1D2E"/>
<path fill-rule="evenodd" clip-rule="evenodd" d="M13 33C13 31.8954 13.8954 31 15 31H55.9999C57.1045 31 57.9999 31.8954 57.9999 33C57.9999 34.1045 57.1045 35 55.9999 35H17V66.9999C17 68.1045 17.8954 68.9999 19 68.9999H42.9999C44.1045 68.9999 44.9999 69.8953 44.9999 70.9999C44.9999 72.1045 44.1045 72.9999 42.9999 72.9999H19C15.6863 72.9999 13 70.3136 13 66.9999V33Z" fill="#0F1D2E"/>
<path fill-rule="evenodd" clip-rule="evenodd" d="M31.6712 39.505C32.429 38.8314 33.5709 38.8314 34.3287 39.505L43.3287 47.505C43.7556 47.8845 43.9999 48.4285 43.9999 48.9998V62.9998C43.9999 64.1044 43.1045 64.9998 41.9999 64.9998H24C22.8954 64.9998 22 64.1044 22 62.9998V48.9998C22 48.4285 22.2443 47.8845 22.6712 47.505L31.6712 39.505ZM26 49.8979V60.9998H39.9999V49.8979L33 43.6757L26 49.8979Z" fill="#0F1D2E"/>
<path d="M34 55.9998C34 55.4475 34.4477 54.9998 35 54.9998H37C37.5522 54.9998 38 55.4475 38 55.9998V61.9998C38 62.5521 37.5522 62.9998 37 62.9998H35C34.4477 62.9998 34 62.5521 34 61.9998V55.9998Z" fill="#0F1D2E"/>
<path d="M28 52.9998C28 52.4475 28.4477 51.9998 29 51.9998H31C31.5522 51.9998 32 52.4475 32 52.9998V54.9998C32 55.5521 31.5522 55.9998 31 55.9998H29C28.4477 55.9998 28 55.5521 28 54.9998V52.9998Z" fill="#0F1D2E"/>
<path fill-rule="evenodd" clip-rule="evenodd" d="M64.5398 32.9943C66.6142 31.5301 69.3856 31.5301 71.46 32.9943L84.46 42.1708C86.0527 43.295 86.9999 45.123 86.9999 47.0726V75.9999C86.9999 78.209 85.209 79.9999 82.9999 79.9999H52.9999C50.7908 79.9999 48.9999 78.209 48.9999 75.9999V47.0726C48.9999 45.123 49.9471 43.295 51.5398 42.1708L64.5398 32.9943ZM69.1533 36.2622C68.4618 35.7741 67.538 35.7741 66.8465 36.2622L53.8466 45.4386C53.3157 45.8134 52.9999 46.4227 52.9999 47.0726V75.9999H82.9999V47.0726C82.9999 46.4227 82.6842 45.8134 82.1533 45.4386L69.1533 36.2622Z" fill="#0F1D2E"/>
<path fill-rule="evenodd" clip-rule="evenodd" d="M70.0014 48.9999C66.36 48.9999 63.0014 52.2638 63.0014 57.9999C63.0014 60.8555 63.8699 63.4297 65.2085 65.2435C66.5443 67.0536 68.2474 67.9999 70.0014 67.9999C70.9437 67.9999 72.0843 67.8873 73.1034 67.5428C74.1189 67.1995 74.8595 66.6823 75.2864 65.9709C75.8547 65.0238 77.0832 64.7166 78.0304 65.2849C78.9775 65.8532 79.2846 67.0817 78.7164 68.0289C77.6432 69.8175 75.9572 70.8004 74.3844 71.3321C72.8153 71.8625 71.2059 71.9999 70.0014 71.9999C66.6831 71.9999 63.8862 70.1879 61.9901 67.6188C60.0968 65.0534 59.0014 61.6277 59.0014 57.9999C59.0014 50.7694 63.4982 44.9999 70.0014 44.9999C72.3205 44.9999 75.2878 45.4391 77.4218 47.592C78.1994 48.3764 78.1938 49.6428 77.4093 50.4204C76.6249 51.198 75.3586 51.1924 74.5809 50.4079C73.5874 49.4056 71.9759 48.9999 70.0014 48.9999Z" fill="#0F1D2E"/>
<path fill-rule="evenodd" clip-rule="evenodd" d="M55.9999 55C55.9999 53.8954 56.8954 53 57.9999 53L71.9999 53C73.1045 53 73.9999 53.8954 73.9999 55C73.9999 56.1046 73.1045 57 71.9999 57L57.9999 57C56.8954 57 55.9999 56.1046 55.9999 55Z" fill="#0F1D2E"/>
<path fill-rule="evenodd" clip-rule="evenodd" d="M55.9999 61C55.9999 59.8954 56.8954 59 57.9999 59L69.9999 59C71.1045 59 71.9999 59.8954 71.9999 61C71.9999 62.1046 71.1045 63 69.9999 63L57.9999 63C56.8954 63 55.9999 62.1046 55.9999 61Z" fill="#0F1D2E"/>
</svg>
