<svg width="96" height="96" viewBox="0 0 96 96" fill="none" xmlns="http://www.w3.org/2000/svg">
<path d="M49.4751 49.4994L76.9548 33.634L80.9548 40.5622L53.4751 56.4276L43.213 58.8392C42.2486 59.0658 41.577 57.9027 42.2555 57.1809L49.4751 49.4994Z" fill="#8FC1FF"/>
<path fill-rule="evenodd" clip-rule="evenodd" d="M67 19C67 16.7909 65.2091 15 63 15H33C32.4696 15 31.9609 15.2107 31.5858 15.5858L19.5858 27.5858C19.2107 27.9609 19 28.4696 19 29V71C19 73.2091 20.7909 75 23 75H63C65.2091 75 67 73.2091 67 71V58C67 56.8954 66.1046 56 65 56C63.8954 56 63 56.8954 63 58V71H23V31H31C33.2091 31 35 29.2091 35 27V19H63V24C63 25.1046 63.8954 26 65 26C66.1046 26 67 25.1046 67 24V19ZM31 21.8284L25.8284 27H31V21.8284Z" fill="#0F1D2E"/>
<path fill-rule="evenodd" clip-rule="evenodd" d="M47 37C47 35.8954 46.1046 35 45 35H29C27.8954 35 27 35.8954 27 37C27 38.1046 27.8954 39 29 39H45C46.1046 39 47 38.1046 47 37Z" fill="#0F1D2E"/>
<path fill-rule="evenodd" clip-rule="evenodd" d="M43 45C43 43.8954 42.1046 43 41 43H29C27.8954 43 27 43.8954 27 45C27 46.1046 27.8954 47 29 47H41C42.1046 47 43 46.1046 43 45Z" fill="#0F1D2E"/>
<path fill-rule="evenodd" clip-rule="evenodd" d="M48.0174 48.1296C48.1513 47.9872 48.3054 47.8651 48.4747 47.7673L75.9544 31.9019C76.911 31.3496 78.1342 31.6774 78.6864 32.634L82.6864 39.5622C83.2387 40.5188 82.911 41.742 81.9544 42.2942L54.4747 58.1596C54.3054 58.2574 54.1226 58.3298 53.9323 58.3745L43.6701 60.7862C40.777 61.466 38.7624 57.9768 40.7978 55.8111L48.0174 48.1296ZM50.7301 51.084L45.9844 56.1333L52.7301 54.5481L78.2223 39.8301L76.2223 36.366L50.7301 51.084Z" fill="#0F1D2E"/>
<path fill-rule="evenodd" clip-rule="evenodd" d="M62.7319 43C60.2467 38.6953 61.7215 33.191 66.0262 30.7057L71.2223 27.7057C73.1355 26.6012 75.5818 27.2567 76.6864 29.1699L79.1864 33.5C79.7387 34.4566 79.411 35.6797 78.4544 36.232C77.4978 36.7843 76.2746 36.4566 75.7223 35.5L73.2223 31.1699L68.0262 34.1699C65.6347 35.5506 64.8153 38.6085 66.196 41L62.7319 43Z" fill="#0F1D2E"/>
<path fill-rule="evenodd" clip-rule="evenodd" d="M49.1075 47.4019C50.0641 46.8496 51.2873 47.1774 51.8396 48.134L55.8396 55.0622C56.3919 56.0188 56.0641 57.2419 55.1075 57.7942C54.151 58.3465 52.9278 58.0188 52.3755 57.0622L48.3755 50.134C47.8232 49.1774 48.151 47.9542 49.1075 47.4019Z" fill="#0F1D2E"/>
<path d="M80.8204 38.3301L84.2846 36.3301C85.2411 35.7778 85.5689 34.5547 85.0166 33.5981C84.4643 32.6415 83.2411 32.3137 82.2846 32.866L78.8204 34.866L80.8204 38.3301Z" fill="#0F1D2E"/>
<path fill-rule="evenodd" clip-rule="evenodd" d="M81.2844 31.134C83.1976 30.0294 85.644 30.6849 86.7485 32.5981C87.8531 34.5112 87.1976 36.9576 85.2844 38.0622L81.8203 40.0622C80.8637 40.6145 79.6406 40.2867 79.0883 39.3301L77.0883 35.866C76.536 34.9094 76.8637 33.6863 77.8203 33.134L81.2844 31.134Z" fill="#0F1D2E"/>
</svg>
