<svg width="96" height="96" viewBox="0 0 96 96" fill="none" xmlns="http://www.w3.org/2000/svg">
<path d="M16 52C16 49.7909 17.7909 48 20 48H76C78.2091 48 80 49.7909 80 52V72C80 74.2091 78.2091 76 76 76H20C17.7909 76 16 74.2091 16 72V52Z" fill="#8FC1FF"/>
<path fill-rule="evenodd" clip-rule="evenodd" d="M22 50C20.8954 50 20 50.8954 20 52V72C20 73.1046 20.8954 74 22 74H74C75.1046 74 76 73.1046 76 72V52C76 50.8954 75.1046 50 74 50H22ZM16 52C16 48.6863 18.6863 46 22 46H74C77.3137 46 80 48.6863 80 52V72C80 75.3137 77.3137 78 74 78H22C18.6863 78 16 75.3137 16 72V52Z" fill="#0F1D2E"/>
<path fill-rule="evenodd" clip-rule="evenodd" d="M57 26C52.5817 26 49 29.5817 49 34C49 35.8036 49.5945 37.4626 50.599 38.7996C51.2625 39.6827 51.0844 40.9365 50.2013 41.6C49.3183 42.2634 48.0645 42.0854 47.401 41.2023C45.8939 39.1964 45 36.6997 45 34C45 27.3726 50.3726 22 57 22C63.6274 22 69 27.3726 69 34C69 36.6997 68.1061 39.1964 66.599 41.2023C65.9355 42.0854 64.6817 42.2634 63.7987 41.6C62.9156 40.9365 62.7375 39.6827 63.401 38.7996C64.4055 37.4626 65 35.8036 65 34C65 29.5817 61.4183 26 57 26Z" fill="#0F1D2E"/>
<path fill-rule="evenodd" clip-rule="evenodd" d="M57 8C58.1046 8 59 8.89543 59 10V16C59 17.1046 58.1046 18 57 18C55.8954 18 55 17.1046 55 16V10C55 8.89543 55.8954 8 57 8Z" fill="#0F1D2E"/>
<path fill-rule="evenodd" clip-rule="evenodd" d="M31 34C31 32.8954 31.8954 32 33 32L39 32C40.1046 32 41 32.8954 41 34C41 35.1046 40.1046 36 39 36L33 36C31.8954 36 31 35.1046 31 34Z" fill="#0F1D2E"/>
<path fill-rule="evenodd" clip-rule="evenodd" d="M73 34C73 32.8954 73.8954 32 75 32L81 32C82.1046 32 83 32.8954 83 34C83 35.1046 82.1046 36 81 36L75 36C73.8954 36 73 35.1046 73 34Z" fill="#0F1D2E"/>
<path fill-rule="evenodd" clip-rule="evenodd" d="M37.5856 14.5858C38.3666 13.8047 39.633 13.8047 40.414 14.5858L44.6567 18.8284C45.4377 19.6095 45.4377 20.8758 44.6567 21.6569C43.8756 22.4379 42.6093 22.4379 41.8282 21.6569L37.5856 17.4142C36.8046 16.6332 36.8046 15.3668 37.5856 14.5858Z" fill="#0F1D2E"/>
<path fill-rule="evenodd" clip-rule="evenodd" d="M76.6566 14.5858C75.8755 13.8047 74.6092 13.8047 73.8282 14.5858L69.5855 18.8284C68.8045 19.6095 68.8045 20.8758 69.5855 21.6569C70.3666 22.4379 71.6329 22.4379 72.4139 21.6569L76.6566 17.4142C77.4376 16.6332 77.4376 15.3668 76.6566 14.5858Z" fill="#0F1D2E"/>
<path fill-rule="evenodd" clip-rule="evenodd" d="M16 63C16 61.8954 16.8954 61 18 61L78 61C79.1046 61 80 61.8954 80 63C80 64.1046 79.1046 65 78 65L18 65C16.8954 65 16 64.1046 16 63Z" fill="#0F1D2E"/>
<path fill-rule="evenodd" clip-rule="evenodd" d="M38 46C39.1046 46 40 46.8954 40 48V76C40 77.1046 39.1046 78 38 78C36.8954 78 36 77.1046 36 76V48C36 46.8954 36.8954 46 38 46Z" fill="#0F1D2E"/>
<path fill-rule="evenodd" clip-rule="evenodd" d="M58 46C59.1046 46 60 46.8954 60 48V76C60 77.1046 59.1046 78 58 78C56.8954 78 56 77.1046 56 76V48C56 46.8954 56.8954 46 58 46Z" fill="#0F1D2E"/>
</svg>
