<svg width="96" height="96" viewBox="0 0 96 96" fill="none" xmlns="http://www.w3.org/2000/svg">
<path d="M83 78.9999C83 79.5522 82.5523 79.9999 82 79.9999H26C25.4477 79.9999 25 79.5522 25 78.9999V72.9999C25 72.4476 25.4477 71.9999 26 71.9999H82C82.5523 71.9999 83 72.4476 83 72.9999V78.9999Z" fill="#8FC1FF"/>
<path fill-rule="evenodd" clip-rule="evenodd" d="M39.6882 18.5793C42.0462 16.1426 45.9534 16.1426 48.3114 18.5793L72.1555 43.2182C74.6118 45.7564 72.8132 49.9999 69.2811 49.9999H64.9992V71.9999C64.9992 73.1044 64.1038 73.9999 62.9992 73.9999C61.8946 73.9999 60.9992 73.1044 60.9992 71.9999V47.9999C60.9992 46.8953 61.8946 45.9999 62.9992 45.9999L69.2811 45.9999L45.437 21.3609C44.651 20.5487 43.3486 20.5487 42.5626 21.3609L18.7184 45.9999H24.9992C26.1038 45.9999 26.9992 46.8953 26.9992 47.9999V73.9999C26.9992 75.1044 26.1038 75.9999 24.9992 75.9999C23.8946 75.9999 22.9992 75.1044 22.9992 73.9999V49.9999H18.7184C15.1863 49.9999 13.3877 45.7564 15.844 43.2182L39.6882 18.5793Z" fill="#0F1D2E"/>
<path d="M47 55.9999C47 54.8953 47.8954 53.9999 49 53.9999H53C54.1046 53.9999 55 54.8953 55 55.9999V69.9999C55 71.1044 54.1046 71.9999 53 71.9999H49C47.8954 71.9999 47 71.1044 47 69.9999V55.9999Z" fill="#0F1D2E"/>
<path d="M33 53.9999C33 52.8953 33.8954 51.9999 35 51.9999H39C40.1046 51.9999 41 52.8953 41 53.9999V57.9999C41 59.1044 40.1046 59.9999 39 59.9999H35C33.8954 59.9999 33 59.1044 33 57.9999V53.9999Z" fill="#0F1D2E"/>
<path fill-rule="evenodd" clip-rule="evenodd" d="M85 78.9999C85 80.6567 83.6569 81.9999 82 81.9999H26C24.3431 81.9999 23 80.6567 23 78.9999V72.9999C23 71.343 24.3431 69.9999 26 69.9999H82C83.6569 69.9999 85 71.343 85 72.9999V78.9999ZM81 77.9999V73.9999H27V77.9999H81Z" fill="#0F1D2E"/>
<path fill-rule="evenodd" clip-rule="evenodd" d="M71 57.9999C72.1046 57.9999 73 58.8953 73 59.9999V71.9999C73 73.1044 72.1046 73.9999 71 73.9999C69.8954 73.9999 69 73.1044 69 71.9999V59.9999C69 58.8953 69.8954 57.9999 71 57.9999Z" fill="#0F1D2E"/>
<path fill-rule="evenodd" clip-rule="evenodd" d="M79 57.9999C80.1046 57.9999 81 58.8953 81 59.9999V71.9999C81 73.1044 80.1046 73.9999 79 73.9999C77.8954 73.9999 77 73.1044 77 71.9999V59.9999C77 58.8953 77.8954 57.9999 79 57.9999Z" fill="#0F1D2E"/>
<path fill-rule="evenodd" clip-rule="evenodd" d="M61 63.9999C61 62.8953 61.8954 61.9999 63 61.9999H83C84.1046 61.9999 85 62.8953 85 63.9999C85 65.1044 84.1046 65.9999 83 65.9999H63C61.8954 65.9999 61 65.1044 61 63.9999Z" fill="#0F1D2E"/>
</svg>
