<svg width="96" height="96" viewBox="0 0 96 96" fill="none" xmlns="http://www.w3.org/2000/svg">
<path d="M48 77.9999C64.5685 77.9999 78 64.5684 78 47.9999C78 31.4313 64.5685 17.9999 48 17.9999V47.9999H18C18 64.5684 31.4315 77.9999 48 77.9999Z" fill="#8FC1FF"/>
<path d="M52 48C52 50.2091 50.2091 52 48 52C45.7909 52 44 50.2091 44 48C44 45.7909 45.7909 44 48 44C50.2091 44 52 45.7909 52 48Z" fill="#8FC1FF"/>
<path fill-rule="evenodd" clip-rule="evenodd" d="M48 19.9999C32.536 19.9999 20 32.5359 20 47.9999C20 63.4639 32.536 75.9999 48 75.9999C63.464 75.9999 76 63.4639 76 47.9999C76 32.5359 63.464 19.9999 48 19.9999ZM16 47.9999C16 30.3268 30.3269 15.9999 48 15.9999C65.6731 15.9999 80 30.3268 80 47.9999C80 65.673 65.6731 79.9999 48 79.9999C30.3269 79.9999 16 65.673 16 47.9999Z" fill="#0F1D2E"/>
<path fill-rule="evenodd" clip-rule="evenodd" d="M48 46C46.8954 46 46 46.8954 46 48C46 49.1046 46.8954 50 48 50C49.1046 50 50 49.1046 50 48C50 46.8954 49.1046 46 48 46ZM42 48C42 44.6863 44.6863 42 48 42C51.3137 42 54 44.6863 54 48C54 51.3137 51.3137 54 48 54C44.6863 54 42 51.3137 42 48Z" fill="#0F1D2E"/>
<path fill-rule="evenodd" clip-rule="evenodd" d="M27 48C27 46.8954 27.8954 46 29 46H44C45.1046 46 46 46.8954 46 48C46 49.1046 45.1046 50 44 50H29C27.8954 50 27 49.1046 27 48Z" fill="#0F1D2E"/>
<path d="M50 12H46V18H50V12Z" fill="#0F1D2E"/>
<path fill-rule="evenodd" clip-rule="evenodd" d="M44 12C44 10.8954 44.8954 10 46 10H50C51.1046 10 52 10.8954 52 12V18C52 19.1046 51.1046 20 50 20H46C44.8954 20 44 19.1046 44 18V12Z" fill="#0F1D2E"/>
<path d="M43 12L53 12C53.5523 12 54 11.5523 54 11C54 10.4477 53.5523 10 53 10L43 10C42.4477 10 42 10.4477 42 11C42 11.5523 42.4477 12 43 12Z" fill="#0F1D2E"/>
<path fill-rule="evenodd" clip-rule="evenodd" d="M53 8C54.6569 8 56 9.34315 56 11C56 12.6569 54.6569 14 53 14L43 14C41.3431 14 40 12.6569 40 11C40 9.34314 41.3431 8 43 8L53 8Z" fill="#0F1D2E"/>
<path d="M70.8285 28.0711L73.6569 25.2426C74.4379 24.4616 74.4379 23.1953 73.6569 22.4142C72.8758 21.6332 71.6095 21.6332 70.8285 22.4142L68 25.2426L70.8285 28.0711Z" fill="#0F1D2E"/>
<path fill-rule="evenodd" clip-rule="evenodd" d="M69.4142 21.0001C70.9763 19.438 73.509 19.438 75.0711 21.0001C76.6332 22.5622 76.6332 25.0948 75.0711 26.6569L72.2427 29.4853C71.4616 30.2664 70.1953 30.2664 69.4142 29.4853L66.5858 26.6569C65.8048 25.8759 65.8048 24.6095 66.5858 23.8285L69.4142 21.0001Z" fill="#0F1D2E"/>
</svg>
