<svg width="96" height="96" viewBox="0 0 96 96" fill="none" xmlns="http://www.w3.org/2000/svg">
<path fill-rule="evenodd" clip-rule="evenodd" d="M43.0001 43C40.7909 43 39.0001 44.7909 39.0001 47L39 69C39 71.2091 40.7909 73 43 73H65.2485C65.733 73 66.2009 73.1758 66.5655 73.4948L74 80V75C74 73.8954 74.8954 73 76 73H80C82.2091 73 84 71.2091 84 69V47C84 44.7909 82.2091 43 80 43H43.0001ZM56 63V55.4444L62 51L68 55.4444V63H56Z" fill="#8FC1FF"/>
<path fill-rule="evenodd" clip-rule="evenodd" d="M60 21C60 17.6863 57.3137 15 54 15H16C12.6863 15 10 17.6863 10 21V42C10 45.3137 12.6863 48 16 48H21V54C21 54.8089 21.4873 55.5382 22.2346 55.8478C22.982 56.1573 23.8422 55.9862 24.4142 55.4142L31.8284 48H38C39.1046 48 40 47.1046 40 46C40 44.8954 39.1046 44 38 44H31.8284C30.7676 44 29.7501 44.4214 29 45.1716L25 49.1716V48C25 45.7909 23.2091 44 21 44H16C14.8955 44 14 43.1046 14 42V21C14 19.8954 14.8955 19 16 19H54C55.1046 19 56 19.8954 56 21V43C56 44.1046 56.8954 45 58 45C59.1046 45 60 44.1046 60 43V21Z" fill="#0F1D2E"/>
<path fill-rule="evenodd" clip-rule="evenodd" d="M37.0001 47C37.0001 43.6863 39.6864 41 43.0001 41H80C83.3137 41 86 43.6863 86 47V69C86 72.3137 83.3137 75 80 75H76V80C76 80.7848 75.541 81.497 74.8264 81.8213C74.1118 82.1455 73.2736 82.0219 72.683 81.5052L65.2485 75H43C39.6863 75 37 72.3137 37 69L37.0001 47ZM43.0001 45C41.8955 45 41.0001 45.8954 41.0001 47L41 69C41 70.1046 41.8954 71 43 71H65.2485C66.2174 71 67.1534 71.3517 67.8825 71.9897L72 75.5925V75C72 72.7909 73.7908 71 76 71H80C81.1046 71 82 70.1046 82 69V47C82 45.8954 81.1046 45 80 45H43.0001Z" fill="#0F1D2E"/>
<path fill-rule="evenodd" clip-rule="evenodd" d="M33.656 23.5189C34.4185 22.827 35.5815 22.827 36.344 23.5189L42.344 28.9633C42.7618 29.3424 43 29.8803 43 30.4444V37C43 38.1046 42.1046 39 41 39H29C27.8954 39 27 38.1046 27 37V30.4444C27 29.8803 27.2382 29.3424 27.656 28.9633L33.656 23.5189ZM31 31.3302V35H39V31.3302L35 27.7006L31 31.3302Z" fill="#0F1D2E"/>
<path fill-rule="evenodd" clip-rule="evenodd" d="M60.656 49.5189C61.4185 48.827 62.5815 48.827 63.344 49.5189L69.344 54.9633C69.7618 55.3424 70 55.8803 70 56.4444V63C70 64.1046 69.1046 65 68 65H56C54.8954 65 54 64.1046 54 63V56.4444C54 55.8803 54.2382 55.3424 54.656 54.9633L60.656 49.5189ZM58 57.3302V61H66V57.3302L62 53.7006L58 57.3302Z" fill="#0F1D2E"/>
</svg>
