<svg width="96" height="96" viewBox="0 0 96 96" fill="none" xmlns="http://www.w3.org/2000/svg">
<path fill-rule="evenodd" clip-rule="evenodd" d="M24 40H63C65.2091 40 67 41.7909 67 44V65C67 67.2091 65.2091 69 63 69H24C21.7909 69 20 67.2091 20 65V44C20 41.7909 21.7909 40 24 40ZM56 58C58.2091 58 60 56.2091 60 54C60 51.7909 58.2091 50 56 50C53.7909 50 52 51.7909 52 54C52 56.2091 53.7909 58 56 58Z" fill="#8FC1FF"/>
<path d="M65 27C65 33.0751 60.0751 38 54 38C51.2703 38 48.7728 37.0057 46.85 35.3595C44.4934 33.3421 43 30.3454 43 27C43 24.1485 44.085 21.5505 45.8646 19.5962C47.8765 17.3867 50.7763 16 54 16C60.0751 16 65 20.9249 65 27Z" fill="#8FC1FF"/>
<path d="M39 30C39 34.4183 35.4183 38 31 38C29.0148 38 27.1984 37.2769 25.8 36.0797C24.0861 34.6124 23 32.433 23 30C23 27.9262 23.7891 26.0367 25.0833 24.6154C26.5466 23.0085 28.6555 22 31 22C35.4183 22 39 25.5817 39 30Z" fill="#8FC1FF"/>
<path d="M69 58.8119V49.1881C69 48.3048 69.5793 47.5262 70.4253 47.2724L75.4253 45.7724C76.7085 45.3874 78 46.3483 78 47.6881V60.3119C78 61.6517 76.7085 62.6126 75.4253 62.2276L70.4253 60.7276C69.5793 60.4738 69 59.6952 69 58.8119Z" fill="#8FC1FF"/>
<path fill-rule="evenodd" clip-rule="evenodd" d="M18 43C18 39.6863 20.6863 37 24 37H64C67.3137 37 70 39.6863 70 43V65C70 68.3137 67.3137 71 64 71H24C20.6863 71 18 68.3137 18 65V43ZM24 41C22.8954 41 22 41.8954 22 43V65C22 66.1046 22.8954 67 24 67H64C65.1046 67 66 66.1046 66 65V43C66 41.8954 65.1046 41 64 41H24Z" fill="#0F1D2E"/>
<path fill-rule="evenodd" clip-rule="evenodd" d="M72.2711 42.6354C76.1218 41.4766 80 44.3596 80 48.3809V59.1208C80 62.9071 76.5361 65.7468 72.8233 65.0043L67.6078 63.9612C66.5247 63.7446 65.8223 62.6909 66.0389 61.6078C66.2555 60.5247 67.3092 59.8222 68.3923 60.0389L73.6078 61.082C74.8454 61.3295 76 60.3829 76 59.1208V48.3809C76 47.0405 74.7073 46.0795 73.4237 46.4657L68.5764 47.9244C67.5186 48.2427 66.4032 47.6433 66.0849 46.5856C65.7666 45.5279 66.366 44.4124 67.4237 44.0941L72.2711 42.6354Z" fill="#0F1D2E"/>
<path fill-rule="evenodd" clip-rule="evenodd" d="M14 53C14 51.8954 14.8954 51 16 51H20C21.1046 51 22 51.8954 22 53C22 53.3643 21.9026 53.7058 21.7324 54C21.9026 54.2942 22 54.6357 22 55C22 56.1046 21.1046 57 20 57H16C14.8954 57 14 56.1046 14 55V53Z" fill="#0F1D2E"/>
<path fill-rule="evenodd" clip-rule="evenodd" d="M56 52C54.8954 52 54 52.8954 54 54C54 55.1046 54.8954 56 56 56C57.1046 56 58 55.1046 58 54C58 52.8954 57.1046 52 56 52ZM50 54C50 50.6863 52.6863 48 56 48C59.3137 48 62 50.6863 62 54C62 57.3137 59.3137 60 56 60C52.6863 60 50 57.3137 50 54Z" fill="#0F1D2E"/>
<path fill-rule="evenodd" clip-rule="evenodd" d="M44.6432 67C45.2244 67.004 45.7752 67.2606 46.1521 67.7031L55.5225 78.7031C56.2388 79.5439 56.1378 80.8062 55.297 81.5225C54.4561 82.2388 53.1938 82.1378 52.4775 81.2969L44.609 72.06L36.5049 81.3174C35.7773 82.1485 34.5138 82.2324 33.6827 81.5048C32.8516 80.7773 32.7676 79.5137 33.4952 78.6826L43.1248 67.6826C43.5077 67.2453 44.0619 66.9961 44.6432 67Z" fill="#0F1D2E"/>
<path fill-rule="evenodd" clip-rule="evenodd" d="M31 23C28.9486 23 27.1056 23.8798 25.8225 25.2889C24.6887 26.534 24 28.1843 24 30C24 33.866 27.134 37 31 37C34.866 37 38 33.866 38 30C38 26.134 34.866 23 31 23ZM22.865 22.5957C24.8742 20.3893 27.7763 19 31 19C37.0751 19 42 23.9249 42 30C42 36.0751 37.0751 41 31 41C24.9249 41 20 36.0751 20 30C20 27.1497 21.0867 24.5486 22.865 22.5957Z" fill="#0F1D2E"/>
<path fill-rule="evenodd" clip-rule="evenodd" d="M54.0547 17C51.1242 17 48.4903 18.258 46.6585 20.2696C45.0393 22.0478 44.0547 24.4066 44.0547 27C44.0547 30.0408 45.4095 32.7631 47.5554 34.6002C49.3043 36.0975 51.5716 37 54.0547 37C59.5775 37 64.0547 32.5228 64.0547 27C64.0547 21.4772 59.5775 17 54.0547 17ZM43.7009 17.5765C46.2588 14.7675 49.9518 13 54.0547 13C61.7867 13 68.0547 19.268 68.0547 27C68.0547 34.732 61.7867 41 54.0547 41C50.5821 41 47.4003 39.7331 44.954 37.6388C41.9583 35.0741 40.0547 31.2583 40.0547 27C40.0547 23.372 41.4373 20.0624 43.7009 17.5765Z" fill="#0F1D2E"/>
<path fill-rule="evenodd" clip-rule="evenodd" d="M29 54C29 52.8954 29.8954 52 31 52L41 52C42.1046 52 43 52.8954 43 54C43 55.1046 42.1046 56 41 56L31 56C29.8954 56 29 55.1046 29 54Z" fill="#0F1D2E"/>
</svg>
