<svg width="96" height="96" viewBox="0 0 96 96" fill="none" xmlns="http://www.w3.org/2000/svg">
<path d="M30 27H66V71H30V27Z" fill="#8FC1FF"/>
<path fill-rule="evenodd" clip-rule="evenodd" d="M74.0493 46C74.0493 44.8954 74.9447 44 76.0493 44H80.0493C81.1539 44 82.0493 44.8954 82.0493 46C82.0493 47.1046 81.1539 48 80.0493 48H76.0493C74.9447 48 74.0493 47.1046 74.0493 46Z" fill="#0F1D2E"/>
<path fill-rule="evenodd" clip-rule="evenodd" d="M80.7641 33.971C81.3324 34.9181 81.0253 36.1467 80.0782 36.715L75.0782 39.715C74.131 40.2833 72.9025 39.9762 72.3342 39.029C71.7659 38.0819 72.073 36.8533 73.0202 36.285L78.0201 33.285C78.9673 32.7167 80.1958 33.0238 80.7641 33.971Z" fill="#0F1D2E"/>
<path fill-rule="evenodd" clip-rule="evenodd" d="M22 46C22 44.8954 21.1046 44 20 44H16C14.8954 44 14 44.8954 14 46C14 47.1046 14.8954 48 16 48H20C21.1046 48 22 47.1046 22 46Z" fill="#0F1D2E"/>
<path fill-rule="evenodd" clip-rule="evenodd" d="M15.2852 33.971C14.7169 34.9181 15.024 36.1467 15.9712 36.715L20.9711 39.715C21.9183 40.2833 23.1468 39.9762 23.7151 39.029C24.2834 38.0819 23.9763 36.8533 23.0291 36.285L18.0292 33.285C17.082 32.7167 15.8535 33.0238 15.2852 33.971Z" fill="#0F1D2E"/>
<path d="M48 50C50.21 50 52 48.21 52 46C52 43.79 50.21 42 48 42C45.79 42 44 43.79 44 46C44 48.21 45.79 50 48 50ZM48 52C45.33 52 40 53.34 40 56V57C40 57.55 40.45 58 41 58H55C55.55 58 56 57.55 56 57V56C56 53.34 50.67 52 48 52Z" fill="#0F1D2E"/>
<path fill-rule="evenodd" clip-rule="evenodd" d="M28 21C28 17.6863 30.6863 15 34 15H62C65.3137 15 68 17.6863 68 21V75C68 78.3137 65.3137 81 62 81H34C30.6863 81 28 78.3137 28 75V21ZM32 73V75C32 76.1046 32.8954 77 34 77H62C63.1046 77 64 76.1046 64 75V73H32ZM64 69H32V29H64V69ZM64 25V21C64 19.8954 63.1046 19 62 19H34C32.8954 19 32 19.8954 32 21V25H64Z" fill="#0F1D2E"/>
<path fill-rule="evenodd" clip-rule="evenodd" d="M40 25C40 23.8954 40.8954 23 42 23H54C55.1046 23 56 23.8954 56 25C56 26.1046 55.1046 27 54 27H42C40.8954 27 40 26.1046 40 25Z" fill="#0F1D2E"/>
</svg>
