<svg width="96" height="96" viewBox="0 0 96 96" fill="none" xmlns="http://www.w3.org/2000/svg">
<path d="M83 27.9994C83 19.7151 76.2843 12.9994 68 12.9994C59.7157 12.9994 53 19.7151 53 27.9994C53 36.2837 59.7157 42.9994 68 42.9994C76.2843 42.9994 83 36.2837 83 27.9994Z" fill="#8FC1FF"/>
<path fill-rule="evenodd" clip-rule="evenodd" d="M48.999 59.0005C47.8944 59.0005 46.999 59.8959 46.999 61.0005V67.0005C46.999 67.9892 47.7214 68.8295 48.6989 68.9779C49.023 69.027 49.9795 69.3681 51.4491 70.1361C52.8361 70.8609 54.4826 71.8604 56.1111 73.0304C57.7429 74.2027 59.3169 75.5177 60.5839 76.8655C61.8712 78.2349 62.7321 79.5233 63.1016 80.6318C63.4509 81.6797 64.5835 82.2461 65.6314 81.8968C66.6793 81.5475 67.2456 80.4148 66.8963 79.3669C66.2659 77.4755 64.9698 75.6911 63.4984 74.1258C62.0066 72.5388 60.2201 71.0572 58.445 69.7818C56.6665 68.5041 54.8594 67.4049 53.3017 66.5909C52.5132 66.1789 51.7234 65.8048 50.999 65.5216V61.0005C50.999 59.8959 50.1035 59.0005 48.999 59.0005Z" fill="#0F1D2E"/>
<path fill-rule="evenodd" clip-rule="evenodd" d="M37.0001 58.9994C38.1046 58.9994 39.0001 59.8948 39.0001 60.9994V66.9994C39.0001 67.9881 38.2776 68.8284 37.3001 68.9768C36.9761 69.0259 36.0196 69.367 34.5499 70.135C33.1629 70.8598 31.5164 71.8593 29.8879 73.0293C28.2561 74.2016 26.6821 75.5166 25.4151 76.8644C24.1278 78.2338 23.2669 79.5222 22.8974 80.6307C22.5481 81.6786 21.4155 82.245 20.3676 81.8957C19.3197 81.5464 18.7534 80.4137 19.1027 79.3658C19.7332 77.4744 21.0293 75.69 22.5007 74.1247C23.9925 72.5377 25.7789 71.0561 27.5541 69.7807C29.3326 68.503 31.1396 67.4038 32.6973 66.5898C33.4858 66.1778 34.2756 65.8037 35.0001 65.5205V60.9994C35.0001 59.8948 35.8955 58.9994 37.0001 58.9994Z" fill="#0F1D2E"/>
<path fill-rule="evenodd" clip-rule="evenodd" d="M56.7483 69.0302C57.2846 69.9959 56.9365 71.2134 55.9709 71.7497C51.3169 74.3343 47.2225 75.7498 42.9999 75.7499C38.7773 75.7499 34.6829 74.3344 30.0289 71.7498C29.0632 71.2135 28.7151 69.996 29.2514 69.0303C29.7877 68.0646 31.0052 67.7166 31.9709 68.2528C36.3168 70.6663 39.7224 71.7499 42.9999 71.7499C46.2773 71.7498 49.6829 70.6663 54.0289 68.2528C54.9945 67.7165 56.2121 68.0646 56.7483 69.0302Z" fill="#0F1D2E"/>
<path fill-rule="evenodd" clip-rule="evenodd" d="M34.6092 41.0955C35.6611 41.4326 36.2407 42.5585 35.9037 43.6104C35.8827 43.6758 35.862 43.7402 35.8417 43.8036C35.3177 45.4367 34.999 46.4301 34.999 48.0002C34.999 51.691 35.9125 55.0518 37.4124 57.4232C38.9013 59.7771 40.8385 61.0002 42.9988 61.0002C45.1592 61.0002 47.0965 59.7771 48.5855 57.4231C50.0854 55.0518 50.999 51.691 50.999 48.0002C50.999 46.4301 50.6803 45.4367 50.1563 43.8036C50.136 43.7402 50.1153 43.6758 50.0944 43.6104C49.7574 42.5585 50.3369 41.4326 51.3888 41.0955C52.4407 40.7585 53.5666 41.338 53.9037 42.3899C53.9347 42.4867 53.9657 42.5831 53.9967 42.6793C54.5081 44.2674 54.999 45.792 54.999 48.0002C54.999 52.2883 53.9482 56.4275 51.966 59.5614C49.9727 62.7127 46.91 65.0002 42.9988 65.0002C39.0877 65.0002 36.0251 62.7127 34.0319 59.5614C32.0497 56.4275 30.999 52.2883 30.999 48.0002C30.999 45.792 31.49 44.2674 32.0014 42.6793C32.0323 42.5831 32.0634 42.4867 32.0944 42.3899C32.4314 41.338 33.5573 40.7585 34.6092 41.0955Z" fill="#0F1D2E"/>
<path fill-rule="evenodd" clip-rule="evenodd" d="M36.0001 32.428C33.8744 33.7334 31.3918 36.3742 28.5104 41.9224C22.7864 52.9442 23.5165 59.7958 25.2563 63.7475C26.1453 65.7667 27.3512 67.1572 28.3232 68.0377C28.8092 68.478 29.2337 68.7878 29.5244 68.9811C29.6695 69.0776 29.7803 69.1444 29.8477 69.1834C29.8813 69.2029 29.9039 69.2154 29.9145 69.2211C29.9168 69.2224 29.9185 69.2233 29.9196 69.2239C30.8954 69.7289 31.2816 70.9278 30.782 71.9082C30.2804 72.8923 29.076 73.2835 28.0919 72.7819L29.0001 71C28.0919 72.7819 28.0904 72.7812 28.0889 72.7804L28.0856 72.7787L28.078 72.7748L28.0588 72.7648C28.0444 72.7572 28.0265 72.7477 28.0055 72.7362C27.9633 72.7133 27.9082 72.6826 27.8414 72.6439C27.7078 72.5665 27.5271 72.4565 27.3095 72.3118C26.8748 72.0228 26.2895 71.5926 25.6378 71.0023C24.3345 69.8217 22.7532 67.9888 21.5954 65.3593C19.2417 60.0133 18.8395 51.8652 24.9606 40.0788C28.0018 34.2228 30.9043 30.8633 33.9069 29.0194C36.9612 27.1438 39.8657 27 42.4011 27C43.2655 27 44.2079 27.0177 45.194 27.1138C46.2934 27.2209 47.0977 28.1989 46.9907 29.2983C46.8836 30.3976 45.9055 31.202 44.8062 31.0949C44.0104 31.0174 43.2174 31 42.4011 31C40.041 31 38.074 31.1544 36.0001 32.428ZM62.5476 49.0669C63.6149 48.7823 64.7108 49.4168 64.9954 50.4841C67.0798 58.3004 65.769 63.8364 63.7484 67.4779C62.7524 69.273 61.6116 70.5579 60.7042 71.4035C60.2502 71.8266 59.8527 72.1416 59.5573 72.3575C59.4095 72.4656 59.2869 72.5491 59.1951 72.6093C59.1492 72.6394 59.1109 72.6637 59.081 72.6823L59.0424 72.706L59.028 72.7147L59.022 72.7183L59.0194 72.7199C59.0181 72.7206 59.0169 72.7214 57.9986 71L59.0169 72.7214C58.0662 73.2837 56.8396 72.969 56.2773 72.0183C55.7174 71.0718 56.0269 69.8519 56.9677 69.2861C56.9718 69.2836 56.9834 69.2763 57.002 69.2642C57.0398 69.2394 57.1063 69.1944 57.1964 69.1285C57.3769 68.9966 57.6504 68.7817 57.9772 68.4772C58.6314 67.8676 59.4911 66.9063 60.2508 65.5372C61.7416 62.8503 62.9629 58.386 61.1305 51.5147C60.8459 50.4475 61.4804 49.3515 62.5476 49.0669ZM56.9781 69.28C56.9781 69.28 56.9781 69.28 56.9781 69.28L56.9763 69.281C56.9769 69.2807 56.9775 69.2803 56.9781 69.28Z" fill="#0F1D2E"/>
<path fill-rule="evenodd" clip-rule="evenodd" d="M41.7288 37.1381C40.9623 36.838 40.0903 37.0381 39.5313 37.6423C39.0399 38.1736 38.1306 39.0598 37.0474 39.7976C35.9228 40.5637 34.8571 41.0004 33.9995 41.0004C32.8949 41.0004 31.9995 41.8959 31.9995 43.0004C31.9995 44.105 32.8949 45.0004 33.9995 45.0004C35.9134 45.0004 37.6786 44.1608 39.0202 43.2893C39.1602 44.257 39.993 45.0004 40.9995 45.0004H51.9995C53.1041 45.0004 53.9995 44.105 53.9995 43.0004C53.9995 41.8959 53.1041 41.0004 51.9995 41.0004H42.9995V39.0004C42.9995 38.1773 42.4952 37.4383 41.7288 37.1381Z" fill="#0F1D2E"/>
<path fill-rule="evenodd" clip-rule="evenodd" d="M68 40.9994C60.8203 40.9994 55 35.1791 55 27.9994C55 20.8197 60.8203 14.9994 68 14.9994C75.1797 14.9994 81 20.8197 81 27.9994C81 35.1791 75.1797 40.9994 68 40.9994ZM51 27.9994C51 37.3882 58.6112 44.9994 68 44.9994C77.3888 44.9994 85 37.3882 85 27.9994C85 18.6106 77.3888 10.9994 68 10.9994C58.6112 10.9994 51 18.6106 51 27.9994Z" fill="#0F1D2E"/>
<path d="M71.0233 35.6125C63.956 34.1282 61.2691 28.6263 61.0193 23.42C60.9247 21.4485 62.6555 20 64.6293 20H65.5242C66.6288 20 67.5242 20.8954 67.5242 22V24.0217C67.5242 24.2086 67.4718 24.3918 67.373 24.5504L66.5254 25.9111C66.4266 26.0698 66.3696 26.2537 66.3896 26.4395C66.5835 28.2442 68.5587 29.6774 69.4231 30.2231C69.6458 30.3637 69.9327 30.2877 70.072 30.0642L70.1619 29.9199C70.641 29.1507 71.5776 28.7998 72.4442 29.0648L73.5846 29.4134C74.4255 29.6706 74.9999 30.4467 74.9999 31.326V32C74.9999 34.2091 73.1853 36.0666 71.0233 35.6125Z" fill="#0F1D2E"/>
</svg>
