<svg width="96" height="96" viewBox="0 0 96 96" fill="none" xmlns="http://www.w3.org/2000/svg">
<path d="M78 47.9999C78 64.5684 64.5685 77.9999 48 77.9999C31.4315 77.9999 18 64.5684 18 47.9999C18 31.4313 31.4315 17.9999 48 17.9999C64.5685 17.9999 78 31.4313 78 47.9999Z" fill="#8FC1FF"/>
<path fill-rule="evenodd" clip-rule="evenodd" d="M48 19.9999C32.536 19.9999 20 32.5359 20 47.9999C20 63.4639 32.536 75.9999 48 75.9999C63.464 75.9999 76 63.4639 76 47.9999C76 32.5359 63.464 19.9999 48 19.9999ZM16 47.9999C16 30.3268 30.3269 15.9999 48 15.9999C65.6731 15.9999 80 30.3268 80 47.9999C80 65.673 65.6731 79.9999 48 79.9999C30.3269 79.9999 16 65.673 16 47.9999Z" fill="#0F1D2E"/>
<path fill-rule="evenodd" clip-rule="evenodd" d="M40.7211 36.5713C38.4591 39.4859 37.0005 43.5497 37.0005 47.9999C37.0005 56.9822 42.7925 62.9999 49.0005 62.9999C52.1727 62.9999 55.4944 62.4675 57.373 59.8374C58.015 58.9386 59.2641 58.7304 60.163 59.3724C61.0618 60.0144 61.27 61.2635 60.628 62.1624C57.5066 66.5322 52.2828 66.9999 49.0005 66.9999C39.9586 66.9999 33.0005 58.51 33.0005 47.9999C33.0005 42.7038 34.7294 37.7676 37.5611 34.1188C40.3893 30.4746 44.4268 27.9999 49.0005 27.9999C52.8462 27.9999 56.7589 29.9064 59.4209 32.5919C60.1985 33.3764 60.1929 34.6427 59.4085 35.4203C58.624 36.1979 57.3577 36.1923 56.5801 35.4079C54.5405 33.3502 51.6093 31.9999 49.0005 31.9999C45.9492 31.9999 42.9867 33.6521 40.7211 36.5713Z" fill="#0F1D2E"/>
<path fill-rule="evenodd" clip-rule="evenodd" d="M29 43.9999C29 42.8953 29.8954 41.9999 31 41.9999H54C55.1046 41.9999 56 42.8953 56 43.9999C56 45.1044 55.1046 45.9999 54 45.9999H31C29.8954 45.9999 29 45.1044 29 43.9999Z" fill="#0F1D2E"/>
<path fill-rule="evenodd" clip-rule="evenodd" d="M29 51.9999C29 50.8953 29.8954 49.9999 31 49.9999L50 49.9999C51.1046 49.9999 52 50.8953 52 51.9999C52 53.1044 51.1046 53.9999 50 53.9999L31 53.9999C29.8954 53.9999 29 53.1044 29 51.9999Z" fill="#0F1D2E"/>
</svg>
