<svg width="96" height="96" viewBox="0 0 96 96" fill="none" xmlns="http://www.w3.org/2000/svg">
<path d="M15 68.9994C15 67.8948 15.8954 66.9994 17 66.9994H79C80.1046 66.9994 81 67.8948 81 68.9994V80.9994C81 82.104 80.1046 82.9994 79 82.9994H17C15.8954 82.9994 15 82.104 15 80.9994V68.9994Z" fill="#8FC1FF"/>
<path d="M41.4813 70.8896C41.7128 70.4922 42.2868 70.4922 42.5183 70.8896L43.4832 72.5462C43.5679 72.6917 43.71 72.7949 43.8746 72.8306L45.7483 73.2363C46.1977 73.3336 46.3751 73.8796 46.0687 74.2225L44.7914 75.6521C44.6792 75.7777 44.6249 75.9447 44.6419 76.1123L44.835 78.0196C44.8813 78.4771 44.4169 78.8145 43.9961 78.6291L42.2418 77.856C42.0876 77.7881 41.912 77.7881 41.7579 77.856L40.0036 78.6291C39.5828 78.8145 39.1183 78.4771 39.1647 78.0196L39.3578 76.1123C39.3747 75.9447 39.3205 75.7777 39.2082 75.6521L37.9309 74.2225C37.6245 73.8796 37.8019 73.3336 38.2513 73.2363L40.125 72.8306C40.2896 72.7949 40.4317 72.6917 40.5165 72.5462L41.4813 70.8896Z" fill="#0F1D2E"/>
<path fill-rule="evenodd" clip-rule="evenodd" d="M38.2513 73.2363C37.8019 73.3336 37.6245 73.8796 37.9309 74.2225L39.2082 75.6521C39.3205 75.7777 39.3747 75.9447 39.3578 76.1123L39.1647 78.0196C39.1183 78.4771 39.5828 78.8145 40.0036 78.6291L41.7579 77.856C41.912 77.7881 42.0876 77.7881 42.2418 77.856L43.9961 78.6291C44.4169 78.8145 44.8813 78.4771 44.835 78.0196L44.6419 76.1123C44.6249 75.9447 44.6792 75.7777 44.7914 75.6521L46.0687 74.2225C46.3751 73.8796 46.1977 73.3336 45.7483 73.2363L43.8746 72.8306C43.71 72.7949 43.5679 72.6917 43.4832 72.5462L42.5183 70.8896C42.2868 70.4922 41.7128 70.4922 41.4813 70.8896L40.5165 72.5462C40.4317 72.6917 40.2896 72.7949 40.125 72.8306L38.2513 73.2363Z" fill="#0F1D2E"/>
<path d="M53.4813 70.8896C53.7128 70.4922 54.2868 70.4922 54.5183 70.8896L55.4832 72.5462C55.5679 72.6917 55.71 72.7949 55.8746 72.8306L57.7483 73.2363C58.1977 73.3336 58.3751 73.8796 58.0687 74.2225L56.7914 75.6521C56.6792 75.7777 56.6249 75.9447 56.6419 76.1123L56.835 78.0196C56.8813 78.4771 56.4169 78.8145 55.9961 78.6291L54.2418 77.856C54.0876 77.7881 53.912 77.7881 53.7579 77.856L52.0036 78.6291C51.5828 78.8145 51.1183 78.4771 51.1647 78.0196L51.3578 76.1123C51.3747 75.9447 51.3205 75.7777 51.2082 75.6521L49.9309 74.2225C49.6245 73.8796 49.8019 73.3336 50.2513 73.2363L52.125 72.8306C52.2896 72.7949 52.4317 72.6917 52.5165 72.5462L53.4813 70.8896Z" fill="#0F1D2E"/>
<path fill-rule="evenodd" clip-rule="evenodd" d="M50.2513 73.2363C49.8019 73.3336 49.6245 73.8796 49.9309 74.2225L51.2082 75.6521C51.3205 75.7777 51.3747 75.9447 51.3578 76.1123L51.1647 78.0196C51.1183 78.4771 51.5828 78.8145 52.0036 78.6291L53.7579 77.856C53.912 77.7881 54.0876 77.7881 54.2418 77.856L55.9961 78.6291C56.4169 78.8145 56.8813 78.4771 56.835 78.0196L56.6419 76.1123C56.6249 75.9447 56.6792 75.7777 56.7914 75.6521L58.0687 74.2225C58.3751 73.8796 58.1977 73.3336 57.7483 73.2363L55.8746 72.8306C55.71 72.7949 55.5679 72.6917 55.4832 72.5462L54.5183 70.8896C54.2868 70.4922 53.7128 70.4922 53.4813 70.8896L52.5165 72.5462C52.4317 72.6917 52.2896 72.7949 52.125 72.8306L50.2513 73.2363Z" fill="#0F1D2E"/>
<path fill-rule="evenodd" clip-rule="evenodd" d="M53.999 46.0005C52.8944 46.0005 51.999 46.8959 51.999 48.0005V54.0005C51.999 54.9892 52.7214 55.8295 53.6989 55.9779C54.023 56.027 54.9795 56.3681 56.4491 57.1361C57.8361 57.8609 59.4826 58.8604 61.1111 60.0304C62.7429 61.2027 64.3169 62.5177 65.5839 63.8655C66.8712 65.2349 67.7321 66.5233 68.1016 67.6318C68.4509 68.6797 69.5835 69.2461 70.6314 68.8968C71.6793 68.5475 72.2456 67.4148 71.8963 66.3669C71.2659 64.4755 69.9698 62.6911 68.4984 61.1258C67.0066 59.5388 65.2201 58.0572 63.445 56.7818C61.6665 55.5041 59.8594 54.4049 58.3017 53.5909C57.5132 53.1789 56.7234 52.8048 55.999 52.5216V48.0005C55.999 46.8959 55.1035 46.0005 53.999 46.0005Z" fill="#0F1D2E"/>
<path fill-rule="evenodd" clip-rule="evenodd" d="M42.0001 45.9994C43.1046 45.9994 44.0001 46.8948 44.0001 47.9994V53.9994C44.0001 54.9881 43.2776 55.8284 42.3001 55.9768C41.9761 56.0259 41.0196 56.367 39.5499 57.135C38.1629 57.8598 36.5164 58.8593 34.8879 60.0293C33.2561 61.2016 31.6821 62.5166 30.4151 63.8644C29.1278 65.2338 28.2669 66.5222 27.8974 67.6307C27.5481 68.6786 26.4155 69.245 25.3676 68.8957C24.3197 68.5464 23.7534 67.4137 24.1027 66.3658C24.7332 64.4744 26.0293 62.69 27.5007 61.1247C28.9925 59.5377 30.7789 58.0561 32.5541 56.7807C34.3326 55.503 36.1396 54.4038 37.6973 53.5898C38.4858 53.1778 39.2756 52.8037 40.0001 52.5205V47.9994C40.0001 46.8948 40.8955 45.9994 42.0001 45.9994Z" fill="#0F1D2E"/>
<path fill-rule="evenodd" clip-rule="evenodd" d="M61.7483 56.0302C62.2846 56.9959 61.9365 58.2134 60.9709 58.7497C56.3169 61.3343 52.2225 62.7498 47.9999 62.7499C43.7773 62.7499 39.6829 61.3344 35.0289 58.7498C34.0632 58.2135 33.7151 56.996 34.2514 56.0303C34.7877 55.0646 36.0052 54.7166 36.9709 55.2528C41.3168 57.6663 44.7224 58.7499 47.9999 58.7499C51.2773 58.7498 54.6829 57.6663 59.0289 55.2528C59.9945 54.7165 61.2121 55.0646 61.7483 56.0302Z" fill="#0F1D2E"/>
<path fill-rule="evenodd" clip-rule="evenodd" d="M39.6092 28.0955C40.6611 28.4326 41.2407 29.5585 40.9037 30.6104C40.8827 30.6758 40.862 30.7402 40.8417 30.8036C40.3177 32.4367 39.999 33.4301 39.999 35.0002C39.999 38.691 40.9125 42.0518 42.4124 44.4232C43.9013 46.7771 45.8385 48.0002 47.9988 48.0002C50.1592 48.0002 52.0965 46.7771 53.5855 44.4231C55.0854 42.0518 55.999 38.691 55.999 35.0002C55.999 33.4301 55.6803 32.4367 55.1563 30.8036C55.136 30.7402 55.1153 30.6758 55.0944 30.6104C54.7574 29.5585 55.3369 28.4326 56.3888 28.0955C57.4407 27.7585 58.5666 28.338 58.9037 29.3899C58.9347 29.4867 58.9657 29.5831 58.9967 29.6793C59.5081 31.2674 59.999 32.792 59.999 35.0002C59.999 39.2883 58.9482 43.4275 56.966 46.5614C54.9727 49.7127 51.91 52.0002 47.9988 52.0002C44.0877 52.0002 41.0251 49.7127 39.0319 46.5614C37.0497 43.4275 35.999 39.2883 35.999 35.0002C35.999 32.792 36.49 31.2674 37.0014 29.6793C37.0323 29.5831 37.0634 29.4867 37.0944 29.3899C37.4314 28.338 38.5573 27.7585 39.6092 28.0955Z" fill="#0F1D2E"/>
<path fill-rule="evenodd" clip-rule="evenodd" d="M41.221 19.4515C38.9686 20.7647 36.3759 23.4047 33.5103 28.9224C27.808 39.9023 29.044 46.4024 31.1566 50.0513C32.2514 51.9422 33.6696 53.2282 34.8224 54.0431C35.3969 54.4492 35.8971 54.7323 36.2429 54.9095C36.4154 54.9978 36.5482 55.0592 36.631 55.0959C36.6724 55.1142 36.7012 55.1262 36.7161 55.1324L36.7254 55.1362L36.72 55.1341C36.7224 55.135 36.7247 55.1359 36.7271 55.1368C37.7517 55.5366 38.2619 56.6896 37.8669 57.7175C37.4706 58.7485 36.3136 59.2631 35.2825 58.8669L36 57C35.2825 58.8669 35.2811 58.8663 35.2796 58.8658L35.2764 58.8645L35.2687 58.8615L35.249 58.8537C35.2339 58.8477 35.2149 58.8401 35.1922 58.8307C35.1468 58.812 35.0866 58.7866 35.0129 58.7539C34.8655 58.6888 34.6638 58.5949 34.4189 58.4694C33.93 58.2189 33.2641 57.84 32.5134 57.3094C31.0158 56.2507 29.1469 54.5633 27.6949 52.0555C24.7139 46.9067 23.8176 38.9071 29.9605 27.0788C33.0176 21.1924 36.0571 17.832 39.2064 15.9959C42.3841 14.1432 45.4185 14 48.0001 14C50.5821 14 53.5706 14.143 56.6998 16.0051C59.7916 17.845 62.7708 21.206 65.8208 27.0788C71.942 38.8655 71.3673 46.8197 68.7459 51.9617C67.4624 54.4795 65.7539 56.1832 64.3641 57.2582C63.6686 57.7962 63.0473 58.1812 62.5882 58.4368C62.3583 58.5649 62.1678 58.6611 62.0276 58.7283C61.9575 58.7619 61.8997 58.7884 61.8558 58.808C61.8447 58.8129 61.8345 58.8174 61.8252 58.8215C61.816 58.8256 61.8077 58.8292 61.8003 58.8324L61.7805 58.8408L61.7727 58.8441L61.7693 58.8455C61.7678 58.8461 61.7663 58.8468 60.9985 57L61.7663 58.8468C60.7463 59.2708 59.5758 58.7877 59.1518 57.7678C58.7293 56.7515 59.2073 55.5858 60.2196 55.1579C60.2209 55.1573 60.2231 55.1564 60.226 55.1551C60.2377 55.1499 60.2621 55.1388 60.2982 55.1215C60.3703 55.0869 60.4883 55.0278 60.6424 54.942C60.9514 54.7699 61.4011 54.4931 61.9167 54.0943C62.9491 53.2957 64.2234 52.0261 65.1823 50.145C67.0459 46.4894 67.9948 39.9439 62.2709 28.9224C59.3984 23.3913 56.8548 20.752 54.6543 19.4425C52.4913 18.1554 50.4182 18 48.0001 18C45.5816 18 43.4449 18.155 41.221 19.4515ZM36.72 55.1341C36.7191 55.1338 36.7183 55.1334 36.7175 55.1331L36.0155 56.9596C36.7175 55.1331 36.7188 55.1336 36.72 55.1341Z" fill="#0F1D2E"/>
<path fill-rule="evenodd" clip-rule="evenodd" d="M49.2702 24.1381C50.0367 23.838 50.9087 24.0381 51.4677 24.6423C51.9592 25.1736 52.8684 26.0598 53.9516 26.7976C55.0762 27.5637 56.1419 28.0004 56.9995 28.0004C58.1041 28.0004 58.9995 28.8959 58.9995 30.0004C58.9995 31.105 58.1041 32.0004 56.9995 32.0004C55.0856 32.0004 53.3204 31.1608 51.9788 30.2893C51.8388 31.257 51.006 32.0004 49.9995 32.0004H38.9995C37.8949 32.0004 36.9995 31.105 36.9995 30.0004C36.9995 28.8959 37.8949 28.0004 38.9995 28.0004H47.9995V26.0004C47.9995 25.1773 48.5038 24.4383 49.2702 24.1381Z" fill="#0F1D2E"/>
<path fill-rule="evenodd" clip-rule="evenodd" d="M13 68.9994C13 66.7903 14.7909 64.9994 17 64.9994H79C81.2091 64.9994 83 66.7903 83 68.9994V80.9994C83 83.2085 81.2091 84.9994 79 84.9994H17C14.7909 84.9994 13 83.2085 13 80.9994V68.9994ZM79 68.9994H17V80.9994H79V68.9994Z" fill="#0F1D2E"/>
</svg>
