<svg width="96" height="96" viewBox="0 0 96 96" fill="none" xmlns="http://www.w3.org/2000/svg">
<path d="M69 19H27C24.7909 19 23 20.7909 23 23V65C23 67.2091 24.7909 69 27 69H69C71.2091 69 73 67.2091 73 65V23C73 20.7909 71.2091 19 69 19Z" fill="#8FC1FF"/>
<path fill-rule="evenodd" clip-rule="evenodd" d="M21 23C21 19.6863 23.6863 17 27 17H69C72.3137 17 75 19.6863 75 23V65C75 68.3137 72.3137 71 69 71H27C23.6863 71 21 68.3137 21 65V23ZM27 21C25.8954 21 25 21.8954 25 23V65C25 66.1046 25.8954 67 27 67H69C70.1046 67 71 66.1046 71 65V23C71 21.8954 70.1046 21 69 21H27Z" fill="#0F1D2E"/>
<path fill-rule="evenodd" clip-rule="evenodd" d="M48 17C49.1046 17 50 17.8954 50 19V69C50 70.1046 49.1046 71 48 71C46.8954 71 46 70.1046 46 69V19C46 17.8954 46.8954 17 48 17Z" fill="#0F1D2E"/>
<path fill-rule="evenodd" clip-rule="evenodd" d="M21 44C21 42.8954 21.8954 42 23 42L73 42C74.1046 42 75 42.8954 75 44C75 45.1046 74.1046 46 73 46L23 46C21.8954 46 21 45.1046 21 44Z" fill="#0F1D2E"/>
<path fill-rule="evenodd" clip-rule="evenodd" d="M16 77C16 78.1046 16.8954 79 18 79L78 79C79.1046 79 80 78.1046 80 77C80 75.8954 79.1046 75 78 75L18 75C16.8954 75 16 75.8954 16 77Z" fill="#0F1D2E"/>
</svg>
