<svg width="96" height="96" viewBox="0 0 96 96" fill="none" xmlns="http://www.w3.org/2000/svg">
<path d="M46.2982 19.7564C47.0796 18.4906 48.9203 18.4906 49.7017 19.7564L81.6165 71.4493C82.4391 72.7818 81.4806 74.5 79.9147 74.5H16.0852C14.5193 74.5 13.5608 72.7818 14.3834 71.4493L46.2982 19.7564Z" fill="#8FC1FF"/>
<path fill-rule="evenodd" clip-rule="evenodd" d="M42.9073 19.3926C45.2558 15.6226 50.7441 15.6226 53.0926 19.3926L83.8882 68.8275C86.3778 72.8241 83.5041 78 78.7955 78H17.2044C12.4957 78 9.62204 72.8241 12.1117 68.8275L42.9073 19.3926ZM49.6975 21.5076C48.9146 20.2509 47.0852 20.2509 46.3024 21.5076L15.5068 70.9425C14.6769 72.2747 15.6348 74 17.2044 74H78.7955C80.365 74 81.3229 72.2747 80.493 70.9425L49.6975 21.5076Z" fill="#0F1D2E"/>
<path d="M50 65C50 66.1046 49.1046 67 48 67C46.8954 67 46 66.1046 46 65C46 63.8955 46.8954 63 48 63C49.1046 63 50 63.8955 50 65Z" fill="#0F1D2E"/>
<path fill-rule="evenodd" clip-rule="evenodd" d="M48 39C49.1046 39 50 39.8954 50.0001 41L50.0007 59C50.0007 60.1045 49.1053 61 48.0007 61C46.8962 61.0001 46.0007 60.1047 46.0007 59.0001L46.0001 41.0001C46 39.8955 46.8954 39.0001 48 39Z" fill="#0F1D2E"/>
</svg>
