<svg width="96" height="96" viewBox="0 0 96 96" fill="none" xmlns="http://www.w3.org/2000/svg">
<path d="M44 33.9999H75V41.9999H44V33.9999Z" fill="#8FC1FF"/>
<path d="M59 56.9999C61.2091 56.9999 63 58.7907 63 60.9999L63 80.9999L55 80.9999L55 60.9999C55 58.7907 56.7909 56.9999 59 56.9999Z" fill="#8FC1FF"/>
<path d="M24 25.9999L26 27.9999H28L28 64.9999C28 66.1044 28.8954 66.9999 30 66.9999H34C35.1046 66.9999 36 66.1044 36 64.9999L36 27.9999H39L42 22.9999C46 22.9999 54.5 23.9999 58 25.9999C58 17.9999 46.7105 14.9999 42 14.9999L27 14.9999L24 17.9999H21L20 14.9999L13 14.9999V27.9999L20 27.9999L21 25.9999H24Z" fill="#8FC1FF"/>
<path fill-rule="evenodd" clip-rule="evenodd" d="M42 34C42 32.8954 42.8954 32 44 32H75C76.1046 32 77 32.8954 77 34V42C77 43.1046 76.1046 44 75 44H44C42.8954 44 42 43.1046 42 42V34ZM46 36V40H73V36H46Z" fill="#0F1D2E"/>
<path fill-rule="evenodd" clip-rule="evenodd" d="M59 55C62.3137 55 65 57.6863 65 61L65 81C65 82.1046 64.1046 83 63 83L55 83C53.8954 83 53 82.1046 53 81L53 61C53 57.6863 55.6863 55 59 55ZM61 61C61 59.8954 60.1046 59 59 59C57.8954 59 57 59.8954 57 61L57 79L61 79L61 61Z" fill="#0F1D2E"/>
<path fill-rule="evenodd" clip-rule="evenodd" d="M73 38C73 36.8954 73.8954 36 75 36H83C84.1046 36 85 36.8954 85 38V50C85 51.1046 84.1046 52 83 52H61V57C61 58.1046 60.1046 59 59 59C57.8954 59 57 58.1046 57 57V50C57 48.8954 57.8954 48 59 48H81V40H75C73.8954 40 73 39.1046 73 38Z" fill="#0F1D2E"/>
<path fill-rule="evenodd" clip-rule="evenodd" d="M52.6793 15.7205C48.9732 13.8192 44.6584 13 42 13L27 13C26.4696 13 25.9609 13.2107 25.5858 13.5858L23.1716 16H22.4415L21.8974 14.3675C21.6251 13.5509 20.8609 13 20 13L13 13C12.4696 13 11.9609 13.2107 11.5858 13.5858C11.2107 13.9609 11 14.4696 11 15V28C11 29.1046 11.8954 30 13 30H20C20.7575 30 21.4501 29.572 21.7889 28.8944L22.2361 28H23.1716L24.5858 29.4142C24.9609 29.7893 25.4696 30 26 30L26 65C26 67.2091 27.7909 69 30 69H34C36.2091 69 38 67.2091 38 65L38 30H39C39.7025 30 40.3535 29.6314 40.715 29.029L43.1184 25.0233C44.9602 25.0939 47.4261 25.3256 49.8652 25.7239C52.9148 26.2217 55.5975 26.9307 57.0077 27.7365C57.6267 28.0902 58.3872 28.0877 59.0039 27.7298C59.6205 27.372 60 26.7129 60 26C60 20.8895 56.3612 17.6094 52.6793 15.7205ZM26.8284 26L25.4142 24.5858C25.0391 24.2107 24.5304 24 24 24H21C20.2425 24 19.5499 24.428 19.2111 25.1056L18.7639 26H15V17L18.5585 17L19.1026 18.6325C19.3749 19.4491 20.1391 20 21 20H24C24.5304 20 25.0391 19.7893 25.4142 19.4142L27.8284 17L42 17C44.0521 17 47.7373 17.6808 50.8535 19.2795C52.6853 20.2192 54.131 21.366 55.0179 22.732C53.5717 22.3356 52.0119 22.0214 50.5098 21.7761C47.3607 21.262 44.1265 21 42 21C41.2975 21 40.6465 21.3686 40.285 21.971L37.8676 26L36 26C34.8954 26 34 26.8954 34 28L34 65H30L30 28C30 26.8954 29.1046 26 28 26H26.8284Z" fill="#0F1D2E"/>
</svg>
