<svg width="96" height="96" viewBox="0 0 96 96" fill="none" xmlns="http://www.w3.org/2000/svg">
<path fill-rule="evenodd" clip-rule="evenodd" d="M33 62L36.5 74L28.5 70.5L21 60.5L18.5 49.5V42.5163C18.1716 44.2942 18 46.127 18 47.9999C18 64.5684 31.4315 77.9999 48 77.9999C64.5685 77.9999 78 64.5684 78 47.9999C78 33.2896 67.4124 21.0521 53.4418 18.4922L60 22.5L63.5 37L57.5 45L48 47.5L36.5 52L33 62ZM20.8292 35.265L22.6698 31.9186C21.9883 32.9898 21.3728 34.1072 20.8292 35.265ZM25.0967 28.6226L34.1453 21.3838C30.6758 23.1935 27.6043 25.6617 25.0967 28.6226ZM48 67C50.2091 67 52 65.2091 52 63C52 60.7909 50.2091 59 48 59C45.7909 59 44 60.7909 44 63C44 65.2091 45.7909 67 48 67Z" fill="#8FC1FF"/>
<path d="M52 33C52 35.2091 50.2091 37 48 37C45.7909 37 44 35.2091 44 33C44 30.7909 45.7909 29 48 29C50.2091 29 52 30.7909 52 33Z" fill="#8FC1FF"/>
<path fill-rule="evenodd" clip-rule="evenodd" d="M48 19.9999C32.536 19.9999 20 32.5359 20 47.9999C20 63.4639 32.536 75.9999 48 75.9999C63.464 75.9999 76 63.4639 76 47.9999C76 32.5359 63.464 19.9999 48 19.9999ZM16 47.9999C16 30.3268 30.3269 15.9999 48 15.9999C65.6731 15.9999 80 30.3268 80 47.9999C80 65.673 65.6731 79.9999 48 79.9999C30.3269 79.9999 16 65.673 16 47.9999Z" fill="#0F1D2E"/>
<path fill-rule="evenodd" clip-rule="evenodd" d="M46 18C46 16.8954 46.8954 16 48 16C57.3888 16 65 23.6112 65 33C65 42.3888 57.3888 50 48 50C46.8954 50 46 49.1046 46 48C46 46.8954 46.8954 46 48 46C55.1797 46 61 40.1797 61 33C61 25.8203 55.1797 20 48 20C46.8954 20 46 19.1046 46 18Z" fill="#0F1D2E"/>
<path fill-rule="evenodd" clip-rule="evenodd" d="M48 50C40.8203 50 35 55.8203 35 63C35 65.4675 35.6855 67.7688 36.8755 69.7307C39.1575 73.4932 43.287 76 48 76C49.1046 76 50 76.8954 50 78C50 79.1046 49.1046 80 48 80C41.8314 80 36.4323 76.7133 33.4554 71.805C31.8968 69.2354 31 66.2194 31 63C31 53.6112 38.6112 46 48 46C49.1046 46 50 46.8954 50 48C50 49.1046 49.1046 50 48 50Z" fill="#0F1D2E"/>
<path fill-rule="evenodd" clip-rule="evenodd" d="M48 31C46.8954 31 46 31.8954 46 33C46 34.1046 46.8954 35 48 35C49.1046 35 50 34.1046 50 33C50 31.8954 49.1046 31 48 31ZM42 33C42 29.6863 44.6863 27 48 27C51.3137 27 54 29.6863 54 33C54 36.3137 51.3137 39 48 39C44.6863 39 42 36.3137 42 33Z" fill="#0F1D2E"/>
<path fill-rule="evenodd" clip-rule="evenodd" d="M48 61C46.8954 61 46 61.8954 46 63C46 64.1046 46.8954 65 48 65C49.1046 65 50 64.1046 50 63C50 61.8954 49.1046 61 48 61ZM42 63C42 59.6863 44.6863 57 48 57C51.3137 57 54 59.6863 54 63C54 66.3137 51.3137 69 48 69C44.6863 69 42 66.3137 42 63Z" fill="#0F1D2E"/>
</svg>
