<?xml version="1.0" encoding="UTF-8"?>
<svg width="176px" height="42px" viewBox="0 0 176 42" version="1.1" xmlns="http://www.w3.org/2000/svg" xmlns:xlink="http://www.w3.org/1999/xlink">
    <defs>
        <rect id="path-1" x="495" y="108" width="450" height="500" rx="4"></rect>
        <filter x="-3.1%" y="-2.8%" width="107.1%" height="106.4%" filterUnits="objectBoundingBox" id="filter-2">
            <feOffset dx="2" dy="2" in="SourceAlpha" result="shadowOffsetOuter1"></feOffset>
            <feGaussianBlur stdDeviation="5" in="shadowOffsetOuter1" result="shadowBlurOuter1"></feGaussianBlur>
            <feColorMatrix values="0 0 0 0 0   0 0 0 0 0   0 0 0 0 0  0 0 0 0.2 0" type="matrix" in="shadowBlurOuter1"></feColorMatrix>
        </filter>
        <polygon id="path-3" points="17.8863736 19.4200983 0.419118661 19.4200983 0.419118661 0.25305882 17.8863736 0.25305882 17.8863736 19.4200983"></polygon>
        <polygon id="path-5" points="1.34759597e-20 0.0748918664 1.34759597e-20 40.1161469 32.7804985 40.1161469 32.7804985 0.0748918664 0 0.0748918664"></polygon>
    </defs>
    <g id="Costumers-App" stroke="none" stroke-width="1" fill="none" fill-rule="evenodd">
        <g id="Desktop-HD-_-login" transform="translate(-632.000000, -140.000000)">
            <g id="atom/logo/logo--big" transform="translate(632.000000, 140.000000)">
                <g id="hd-logo--big">
                    <polygon id="Fill-1" fill="#1C3553" points="56.5304565 21.8100153 56.5304565 29.5835321 48.5905692 29.5835321 48.5905692 21.8100153 45.223699 21.8100153 45.223699 40.5379614 48.5905692 40.5379614 48.5905692 32.7644446 56.5304565 32.7644446 56.5304565 40.5379614 59.8978238 40.5379614 59.8978238 21.8100153"></polygon>
                    <g id="Group-4" transform="translate(63.141245, 21.337061)">
                        <mask id="mask-4" fill="white">
                            <use xlink:href="#path-3"></use>
                        </mask>
                        <g id="Clip-3"></g>
                        <path d="M0.419118661,9.83662837 C0.419118661,8.30293855 0.597107368,6.95747431 0.953084784,5.79774587 C1.3090622,4.63901334 1.7674577,3.71481584 2.32876845,3.02565132 C2.89007921,2.33648681 3.56772896,1.77529576 4.36171769,1.34158023 C5.15570642,0.907864699 5.9308025,0.618555029 6.68849744,0.472157365 C7.44619239,0.326755603 8.26305118,0.25305882 9.13907381,0.25305882 C10.0150964,0.25305882 10.8314581,0.326755603 11.589153,0.472157365 C12.3468479,0.618555029 13.1224412,0.907864699 13.9164299,1.34158023 C14.7104187,1.77529576 15.392543,2.33648681 15.9628029,3.02565132 C16.5330628,3.71481584 16.9964301,4.63901334 17.3524075,5.79774587 C17.7083849,6.95747431 17.8863736,8.30293855 17.8863736,9.83662837 C17.8863736,11.3563756 17.7083849,12.7013419 17.3524075,13.8735191 C16.9964301,15.0451983 16.5330628,15.9718856 15.9628029,16.6540788 C15.392543,17.335774 14.7104187,17.8934794 13.9164299,18.3286888 C13.1224412,18.7638982 12.3468479,19.0542038 11.589153,19.2006014 C10.8314581,19.3469991 10.0150964,19.4201979 9.13907381,19.4201979 C8.26305118,19.4201979 7.44619239,19.3469991 6.68849744,19.2006014 C5.9308025,19.0542038 5.15570642,18.7638982 4.36171769,18.3286888 C3.56772896,17.8934794 2.89007921,17.335774 2.32876845,16.6540788 C1.7674577,15.9718856 1.3090622,15.0451983 0.953084784,13.8735191 C0.597107368,12.7013419 0.419118661,11.3563756 0.419118661,9.83662837 M3.78648603,9.80924105 C3.78648603,11.2144595 3.92569507,12.3771756 4.20411316,13.2983854 C4.48253125,14.2195952 4.89319793,14.8968089 5.43611321,15.3300264 C5.97902849,15.763244 6.53586467,16.0575332 7.10612458,16.212894 C7.67638449,16.3677568 8.35403423,16.4449393 9.13907381,16.4449393 C9.77744672,16.4449393 10.3298083,16.4046052 10.7951643,16.3219453 C11.2610174,16.2397834 11.7397971,16.0640066 12.2324977,15.7951129 C12.7256954,15.5262192 13.1269158,15.1522579 13.4371531,14.6732288 C13.7473904,14.1941997 14.0054243,13.5443733 14.2107576,12.7232517 C14.416091,11.9026281 14.5185091,10.9316231 14.5185091,9.80924105 C14.5185091,8.4229448 14.3793,7.26869383 14.1013791,6.34798199 C13.8224638,5.4267722 13.4073226,4.74906056 12.8554581,4.31634093 C12.3030965,3.88312335 11.7467575,3.59331573 11.1854468,3.44741602 C10.624136,3.30151631 9.94201169,3.22881543 9.13907381,3.22881543 C8.51810203,3.22881543 7.97568393,3.26914948 7.50983081,3.35180938 C7.04447486,3.43397134 6.5632093,3.61173993 6.06553696,3.88511516 C5.5683618,4.15898834 5.16664427,4.52846816 4.86137872,4.99305667 C4.55511883,5.45864108 4.30006797,6.09701456 4.09473463,6.90917304 C3.88940128,7.72083356 3.78648603,8.68785486 3.78648603,9.80924105" id="Fill-2" fill="#1C3553" mask="url(#mask-4)"></path>
                    </g>
                    <polygon id="Fill-5" fill="#1C3553" points="99.2756378 21.8100153 93.8683608 29.6383067 88.4615809 21.8100153 84.7243152 21.8100153 84.7243152 40.5379614 88.0916826 40.5379614 88.0916826 26.6904354 93.8683608 34.9718625 99.645039 26.6904354 99.645039 40.5379614 103.012904 40.5379614 103.012904 21.8100153"></polygon>
                    <polygon id="Fill-6" fill="#1C3553" points="108.003747 21.8100153 108.003747 40.5379614 120.446549 40.5379614 120.446549 37.5074302 111.370617 37.5074302 111.370617 32.7644446 119.241894 32.7644446 119.241894 29.5835321 111.370617 29.5835321 111.370617 24.8395506 120.446549 24.8395506 120.446549 21.8100153"></polygon>
                    <path d="M125.190545,40.5378618 L125.190545,21.8099157 L131.643879,21.8099157 C134.539427,21.8099157 136.735947,22.6046459 138.233935,24.1951022 C139.731924,25.7855584 140.481167,28.1164682 140.481167,31.1873335 C140.481167,34.2402725 139.733913,36.5617212 138.240896,38.1521774 C136.747382,39.7426337 134.548376,40.5378618 131.643879,40.5378618 L125.190545,40.5378618 Z M128.557912,37.5078285 L131.637913,37.5078285 C133.581867,37.5078285 134.980421,37.0143589 135.833574,36.0274195 C136.686726,35.0404801 137.1138,33.4276161 137.1138,31.1873335 C137.1138,28.9291246 136.686726,27.3072974 135.833574,26.3198601 C134.980421,25.3329207 133.581867,24.8394511 131.637913,24.8394511 L128.557912,24.8394511 L128.557912,37.5078285 Z" id="Fill-7" fill="#1C3553"></path>
                    <path d="M148.841864,21.8100153 L141.408598,40.5379614 L145.022564,40.5379614 L146.733344,36.0135765 L154.645886,36.0135765 L156.357163,40.5379614 L159.970632,40.5379614 L152.537367,21.8100153 L148.841864,21.8100153 Z M150.689864,25.6347788 L153.468576,32.9835432 L147.88331,32.9835432 L150.689864,25.6347788 Z" id="Fill-9" fill="#1C3553"></path>
                    <polygon id="Fill-10" fill="#1C3553" points="171.745431 21.8100153 166.81743 29.4187102 161.862086 21.8100153 157.796187 21.8100153 165.133995 32.5035182 165.133995 40.5379614 168.501363 40.5379614 168.501363 32.5035182 175.810832 21.8100153"></polygon>
                    <g id="Group-16" transform="translate(0.000000, 0.423109)"></g>
                    <g id="Group-13" transform="translate(0.000000, 0.423109)">
                        <mask id="mask-6" fill="white">
                            <use xlink:href="#path-5"></use>
                        </mask>
                        <g id="Clip-12"></g>
                        <path d="M13.9842943,23.7918114 C13.9842943,22.4612857 15.0616729,21.3822254 16.3901249,21.3822254 L32.6890182,21.3822254 L32.7804985,21.2906024 L32.7804985,15.4924581 C32.7804985,14.7918407 32.4772216,14.1669119 32.0004307,13.7262251 L32.0113685,13.7262251 L18.0268256,0.718244868 L18.0163849,0.718244868 C17.5873227,0.322373632 17.0195487,0.0748918664 16.3901249,0.0748918664 C15.7607012,0.0748918664 15.1929272,0.322373632 14.7643622,0.718244868 L14.7534243,0.718244868 L0.768881386,13.7262251 L0.77981924,13.7262251 C0.303525436,14.1669119 -0.00024858758,14.7918407 -0.00024858758,15.4924581 L-0.00024858758,37.7065609 C-0.00024858758,39.0370866 1.07712999,40.1161469 2.40607919,40.1161469 L13.9842943,40.1161469 L13.9842943,23.7918114 Z" id="Fill-11" fill="#1C3553" mask="url(#mask-6)"></path>
                    </g>
                    <path d="M16.3901747,21.8053346 C15.0617226,21.8053346 13.9843441,22.8843949 13.9843441,24.2149206 L13.9843441,40.5392561 L32.689068,21.8053346 L16.3901747,21.8053346 Z" id="Fill-14" fill="#4097DB"></path>
                </g>
            </g>
        </g>
    </g>
</svg>
